<svg xmlns="http://www.w3.org/2000/svg" width="124.2" height="93.4" style="overflow:visible;enable-background:new 0 0 124.2 93.4" xml:space="preserve"><path d="M0 54.1c.1 6.3 1.9 12.9 6.1 18 3 3.7 7.1 6.5 11.4 8.9 14.1 7.9 30.4 11.4 46.8 11.8 3.8.6 7.7-.1 11.5-.2 5.3-.2 10.6.7 15.9.8 5.3 0 10.9-1 15-4.4 0 0 3.9-1 7-4.1 3.3-3.2 4.6-7.9 6.2-12.2 2-5.4 2.9-11.3 3.5-17 .8-7.3 1.2-14.7 0-21.9-1.2-7.2-4.2-14.4-9.4-19.5-3.8-3.7-8.6-6.2-13.5-8.1-25.2-10-54-7-79.4 2.4-5.1 1.9-10.2 4.1-13.8 8.2C2.8 22 1.7 29.3 1 36.1c-.3 3.3-.6 6.7-.4 10-.4 2.6-.6 5.3-.6 8z" style="fill:#ece1de"/></svg>