<!-- Generator: Adobe Illustrator 25.0.0, SVG Export Plug-In  -->
<svg version="1.1" xmlns="http://www.w3.org/2000/svg" xmlns:xlink="http://www.w3.org/1999/xlink" x="0px" y="0px" width="359.1px"
	 height="54.9px" viewBox="0 0 359.1 54.9" style="overflow:visible;enable-background:new 0 0 359.1 54.9;" xml:space="preserve">
<style type="text/css">
	.st0{fill:#FFFFFF;}
</style>
<defs>
</defs>
<g>
	<path class="st0" d="M46,14.4c0.1,0.6-0.1,0.9-0.7,1c-0.7,0.1-0.9,0-1.2-0.6c-1.9-3.7-3.9-6.8-6.5-9c-2.7-2.3-6-3.4-9.2-3.4
		C18,2.4,9.9,12.2,9.9,27.2c0,13.2,8.1,23.3,18.9,23.3c7.8,0,13.5-3.2,17.7-10c0.2-0.4,0.5-0.5,1.4-0.1c0.6,0.3,0.8,0.7,0.5,1.3
		c-4.2,7.6-10.4,13-21.2,13C11.4,54.8,0,43.6,0,27.4C0,11.4,11.6,0,27.6,0c3.5,0,6.5,0.5,9.1,1.2c2.9,0.7,5,1.2,8.1,0.8
		C45.1,5.7,45.6,10.7,46,14.4z"/>
	<path class="st0" d="M85.9,37.3c0,9.6-6.7,17.5-16.8,17.5c-9.9,0-16.8-7.6-16.8-17.4c0-9.6,6.8-17.7,16.8-17.7
		C78.8,19.7,85.9,27.4,85.9,37.3z M60.7,37.3c0,9,2.7,15.3,8.4,15.3c5.5,0,8.4-6.8,8.4-15.3c0-9.1-2.7-15.4-8.4-15.4
		C63.5,21.9,60.7,28.7,60.7,37.3z"/>
	<path class="st0" d="M91.4,24.9c-0.7,0.1-0.9,0-1-0.8c-0.1-0.8,0.1-0.9,0.9-1.1c3-0.6,8.1-2,11.4-3.2c0.4,0,0.9,0.3,0.9,0.6
		c-0.1,2-0.1,4.2-0.1,6.1c2.5-4.3,6.6-6.8,11.2-6.8c2.2,0,10.5,1.2,10.5,10.3c0,2.7-0.1,6.3-0.1,8v5c0,4.3,0.1,6.6,0.6,7.6
		s1.7,1.2,3.7,1.4c0.4,0.1,0.6,0.2,0.6,0.9c0,0.6-0.1,0.8-0.6,0.8c-2.7-0.1-5.4-0.2-7.8-0.2c-2.5,0-5.5,0.1-8.2,0.2
		c-0.5,0-0.6-0.1-0.6-0.8c0-0.7,0.1-0.9,0.6-0.9c1.9-0.1,3.1-0.2,3.7-1.4s0.6-3.5,0.6-7.6v-9.8c0-2.1,0.1-4-0.9-6.2
		c-0.9-2.2-2.4-3.6-5.3-3.6c-2.6,0-5.1,1.8-6.5,4.1c-1.3,2.2-1.5,3.5-1.5,5.8V43c0,4.3-0.1,6.6,0.4,7.6c0.6,1.2,1.7,1.2,4,1.4
		c0.5,0.1,0.6,0.1,0.6,0.9c0,0.7-0.1,0.8-0.6,0.8c-2.5-0.1-5.3-0.2-7.7-0.2c-2.6,0-5.5,0.1-8.3,0.2c-0.4,0-0.5-0.1-0.5-0.8
		c0-0.7,0.1-0.8,0.5-0.9c2.1-0.2,3.2-0.2,3.8-1.4S96,47.2,96,43V32.3c0-2.7,0-4.8-0.5-6c-0.4-1.2-1-1.6-2.2-1.5L91.4,24.9z"/>
	<path class="st0" d="M132.4,24c-0.6,0-0.8-0.1-0.8-1c0-0.7,0.1-0.9,0.9-1c2.2-0.3,4.8-1.6,6.3-3.1c1.4-1.2,3-3.5,3.7-5.1
		c0.2-0.6,0.4-0.7,1.2-0.7c0.9,0,1,0.2,1,0.7c-0.1,2.4-0.2,5.1-0.2,7.3c3.2,0,7.2-0.1,10.2-0.2c0.3,0,0.4,0.2,0.3,0.5l-0.8,2.1
		c-0.1,0.3-0.4,0.5-0.7,0.5c-2.7-0.1-6-0.3-9.1-0.3l-0.1,18.4c0,4,0.4,6,1.4,7.4c1.4,1.7,3,1.9,3.9,1.9c1.7,0,3.2-0.7,4.6-1.9
		c0.4-0.3,0.7-0.2,1.2,0.2c0.4,0.4,0.7,0.8,0.1,1.4c-2.2,2.2-4.7,3.7-8.7,3.7c-3.4,0-5.8-0.7-7.6-2.4c-1.6-1.7-2.4-4-2.4-8.1
		c0-3.5,0.1-6.7,0.1-10.2l0.1-10.3L132.4,24z"/>
	<path class="st0" d="M185.3,45.5c-0.1,4.6,0.9,6.3,2.6,6.3c0.9,0,1.3-0.1,2.1-0.5c0.3-0.1,0.6-0.1,0.9,0.4s0.3,0.7-0.2,1.1
		c-1.2,0.9-3.3,1.7-6.1,1.7c-3.1,0-5.2-1.5-6.1-3.9c-2.6,2.6-5.1,4.2-10.1,4.2c-7.1,0-9.2-4.4-9.2-7.6c0-3.2,0.9-4.8,2.4-6.4
		c2.2-1.9,4.8-2.6,9.2-4c3.2-0.9,4.5-1.7,5.6-2.6c0.9-0.7,1.7-1.8,1.7-2.8v-2c0-5.4-1.4-7.6-4.3-7.6c-1.2,0-2.5,0.2-3.7,1.4
		c-1,0.9-1.3,2.2-1.3,4c0,1.9-1.8,3.5-5.5,3.5c-2.2,0-2.8-0.9-2.8-2.3c0-3.4,5.5-8.6,14.4-8.6c10.6,0,10.7,5.1,10.7,10.7L185.3,45.5
		z M178.1,35.4c-0.7,1.1-1.7,1.7-5.8,3.2c-3.8,1.5-5.3,3.9-5.3,7.6c0,3.8,2.6,5.9,4.5,5.9c3.7,0,6.4-2.9,6.4-6.3L178.1,35.4z"/>
	<path class="st0" d="M219.5,21.4c1.4,0.6,2.9,1.7,2.9,3.4c0,2.6-0.8,4.8-3.2,4.8c-2.2,0-3.5-2.7-4.3-4.5c-0.9-1.6-1.9-3-3.8-3
		c-5.5,0-8.4,6.3-8.4,15.1c0,9.4,5.3,14.1,10,14.1c4.2,0,6.6-1.5,9.1-5c0.4-0.6,0.7-0.5,1.3-0.1c0.6,0.4,0.6,0.6,0.4,1.1
		c-3,5-7.2,7.6-13,7.6c-9.7,0-16.3-7.2-16.3-17.3c0-9.9,7.2-17.8,16.5-17.8C214.9,19.7,217.5,20.5,219.5,21.4z"/>
	<path class="st0" d="M225.9,24c-0.6,0-0.8-0.1-0.8-1c0-0.7,0.1-0.9,0.9-1c2.2-0.3,4.8-1.6,6.3-3.1c1.4-1.2,3-3.5,3.7-5.1
		c0.2-0.6,0.4-0.7,1.2-0.7c0.9,0,1,0.2,1,0.7c-0.1,2.4-0.2,5.1-0.2,7.3c3.2,0,7.2-0.1,10.2-0.2c0.3,0,0.4,0.2,0.3,0.5l-0.8,2.1
		c-0.1,0.3-0.4,0.5-0.7,0.5c-2.7-0.1-6-0.3-9.1-0.3l-0.1,18.4c0,4,0.4,6,1.4,7.4c1.4,1.7,3,1.9,3.9,1.9c1.7,0,3.2-0.7,4.6-1.9
		c0.4-0.3,0.7-0.2,1.2,0.2c0.4,0.4,0.7,0.8,0.1,1.4c-2.2,2.2-4.7,3.7-8.7,3.7c-3.4,0-5.8-0.7-7.6-2.4c-1.6-1.7-2.4-4-2.4-8.1
		c0-3.5,0.1-6.7,0.1-10.2l0.1-10.3L225.9,24z"/>
	<path class="st0" d="M321,14.3c-0.1-4.2-0.5-7-1.4-8.6c-0.8-1.4-3.1-2.2-5.6-2.5c-0.5-0.1-0.6-0.1-0.6-1c0-0.9,0.1-1,0.6-1
		c2.9,0.1,5.9,0.3,8.7,0.3c2.6,0,5.4-0.1,8.1-0.3c0.5,0,0.6,0.1,0.6,0.9c0,0.9-0.1,1-0.6,1.1c-2.4,0.3-3.8,1.2-4.7,2.6
		c-1.1,1.7-1.7,4.4-1.7,8.5l-0.1,9.1c-0.1,4.6-0.1,9.1-0.1,13.3c0,5.8-1.9,10.3-5.5,13.5c-3.6,3-7.8,4.8-14.1,4.8
		c-7.9,0-13.4-2.2-17.1-5.7c-3.1-2.7-4.4-6.6-4.4-11.4c0-4.4,0.1-9.5,0.1-14.2v-9.4c0-6.8,0-7.7-0.9-9.2c-0.8-1.5-2.3-1.6-5.4-1.9
		c-0.5-0.1-0.6-0.1-0.6-1s0.1-1,0.6-1c3.3,0.1,7.1,0.3,10.2,0.3c3.4,0,7.3-0.1,10.5-0.3c0.5,0,0.6,0.1,0.6,1s-0.1,0.9-0.6,1
		c-2.9,0.3-4.2,0.3-5,1.9c-0.9,1.6-0.9,4.8-0.9,9.2v9.5c0,3.1-0.1,6.4-0.1,9.5c0,6.4,0.4,10.7,3.7,13.8c2.5,2.4,6.3,3.7,10,3.7
		c5.2,0,9.1-1.1,12.1-4.1c2.4-2.4,3.7-5.8,3.7-11.3c0-3.6,0.1-7.2,0-12L321,14.3z"/>
	<path class="st0" d="M343.6,38.7c-5.3-2.4-8.4-4.2-8.4-10.4c0-4,3.4-8.6,11.4-8.6c1.8,0,3.9,0.4,5.2,0.7c1.4,0.3,2.9,0.3,4.8,0.1
		c0.1,2.5,0.4,6,0.6,8.4c0,0.4-0.1,0.6-0.8,0.6c-0.7,0.1-0.9-0.1-1.1-0.5c-1.9-4-5-7.3-8.4-7.3c-4,0-5.6,2.2-5.6,5.1
		c0,2,1.6,3.5,5.4,5.1l2.5,1.1c6.3,2.7,9.9,4.9,9.9,11.3c0,5-3.7,10.4-12.7,10.4c-4,0-7.3-0.8-10.2-2c-0.6-2.2-1.3-5.5-1.6-7.8
		c0-0.5,0.1-0.6,0.7-0.6c0.7-0.1,0.8-0.1,1,0.4c2.4,4.7,6.3,8,10.1,8c4.2,0,6.3-2.7,6.3-6.4c0-3.1-2.4-4.4-6.6-6.4L343.6,38.7z"/>
</g>
</svg>
