<svg xmlns="http://www.w3.org/2000/svg" width="387.8" height="33.4" style="overflow:visible;enable-background:new 0 0 387.8 33.4" xml:space="preserve">
    <style>
        .st0{fill:#604c3f}
    </style>
    <path class="st0" d="M5.4 5.3c-1 1.3-2.2 2.2-3.7 3.3-.2 0-.5-.2-.4-.4 1.3-1.5 2.3-3.2 3.1-5 .5-1.1.8-2.2 1-3.2C8 .8 8.7 1 8.7 1.4c0 .3-.3.5-1.2.6-.5.9-.9 1.7-1.4 2.4h7.2c1.2-1.5 1.4-1.7 1.7-1.7.3 0 .5.1 1.8 1.3.6.5.7.8.7 1 0 .3-.1.4-.5.4h-6c-.1 1.5-.2 3-.5 4.4h3.4C15.2 8.1 15.4 8 15.6 8c.3 0 .5.1 1.9 1.3.5.4.7.7.7.9s-.1.3-.5.3h-7.5c-.2.6-.4 1.2-.5 1.6 4.1.9 6.2 2.4 6.2 4.1 0 .8-.5 1.3-1.1 1.3-.5 0-.9-.3-1.4-1.2-1-1.6-2.2-2.8-3.9-3.6C8 16 5.1 18 .3 19.5c-.3.1-.4-.4-.2-.5 4.4-2.2 6.8-4.4 7.7-8.4H3.3c-.8 0-1.4.1-2.4.2L.5 9.4c1.1.2 1.8.3 2.8.3H8c.3-1.4.4-2.9.4-4.4h-3zm4.1 26.9c0 .8-.5 1.2-1.6 1.2-.8 0-1.1-.4-1.1-1 0-.9.1-2.4.1-7.9 0-3.1 0-4.7-.2-6.7 1.3.5 1.8.8 3.1 1.5h13.5c1.2-1.3 1.4-1.4 1.6-1.4.3 0 .5.1 1.6 1.1.6.5.6.7.6 1s-.1.4-1 1v2.8c0 5.1.2 7.6.2 8.4 0 .8-.5 1.1-1.7 1.1-.8 0-1.1-.3-1.1-.9v-1.2h-14v1zm14-12h-14v4.4h14v-4.4zm-14 10.1h14v-4.8h-14v4.8zm11.8-14.6c0 .8-.6 1.2-1.4 1.2-.8 0-1.2-.2-1.2-.9 0-.9.2-2.4.2-7.3 0-2.7 0-3.9-.2-6.2 1 .4 1.9.9 2.8 1.4H28c1-1.1 1.2-1.3 1.4-1.3.3 0 .5.1 1.5 1 .6.4.7.7.7.9 0 .3-.1.4-.9.9V8c0 4.8.1 7 .1 7.7 0 .8-.5 1.2-1.5 1.2-.6 0-1-.3-1-.9v-1h-7v.7zm7-11h-7v9.4h7V4.7zM50 18.4c0 8.5.1 12.5.1 13.7 0 .8-.5 1.2-1.6 1.2-.9 0-1.3-.3-1.3-1 0-.8.1-3.3.2-11.7v-6.4c-1.3 1.7-2.8 3.2-4.5 4.6-.2.1-.6-.3-.4-.4 2.8-3.1 5.4-8.2 6.8-12.8.5-1.7.9-3.3 1.1-4.8 3.1.9 4 1.3 4 1.7 0 .4-.4.6-1.4.7-1.1 3.2-2.4 6-3.9 8.4 1.5.3 1.8.5 1.8.8 0 .3-.1.5-1.1.9v5.1zm1.9 9.8c1.2.2 2 .3 3.1.3h15.1c1.8-2.3 2.1-2.4 2.3-2.4.3 0 .5.1 2.4 1.8.8.7 1 1 1 1.2s-.1.3-.5.3H55.1c-1 0-1.8.1-2.8.3l-.4-1.5zm1.8-20.6c1.1.2 1.8.3 2.8.3h12.2c1.8-2.1 2.1-2.3 2.3-2.3.2 0 .5.1 2.3 1.7.8.7 1 .9 1 1.2 0 .3-.1.4-.5.4H56.5c-.9 0-1.5.1-2.4.2l-.4-1.5zM120.5 17c0 8.1-2.8 13.3-7.4 13.3-4.7 0-7.5-4.9-7.5-13.1s2.8-13.4 7.5-13.4c4.5 0 7.4 5.2 7.4 13.2zm-11.3.1c0 7.4.8 12.1 3.9 12.1 3 0 3.9-4.7 3.9-12.1 0-7.3-.8-12.1-3.9-12.1-3.1-.1-3.9 4.7-3.9 12.1zM142.2 17c-1.1 1.7-2.8 2.7-4.7 2.7-3.9 0-6.7-3.2-6.7-7.6 0-4.7 3.1-8.2 7.4-8.2 4.4 0 7.6 4 7.6 10 0 7.3-2.8 11.3-6.7 13.9-1.7 1.1-3.5 2-5.5 2.5-.3 0-.6-.1-.9-.6-.1-.3-.2-.5-.2-.6 0-.2.2-.3.4-.3 1.9-.1 3.4-.5 4.7-1.3 2.8-1.7 4.5-4.7 4.9-10.3l-.3-.2zm-8-5.2c0 3.6 1.4 6.4 4 6.4 1.4 0 2.7-.9 3.8-3.1.3-.8.4-1.2.4-2.3 0-4.7-1.5-8-4.2-8-2.5.1-4 3.2-4 7zM171 23c0 4-2.9 7.2-7.5 7.2-4.5 0-7.6-3.2-7.6-6.9 0-3 2.1-5.1 5.4-6.8-3.2-1.7-4.6-3.6-4.6-6.6 0-3.1 3-6.1 6.9-6.1 3.9 0 6.8 2.5 6.8 5.7 0 2.8-1.5 4.4-4.5 5.9 3.6 1.9 5.1 4 5.1 7.6zm-11.9.3c0 3.4 1.9 5.8 4.5 5.8 2.7 0 4.5-2.3 4.5-5.6 0-2.6-1.4-4.3-5.7-6.4-2.4 1.4-3.3 3.6-3.3 6.2zm8.3-13.8c0-2.7-1.7-4.6-3.9-4.6-2.4 0-4 1.9-4 4.4 0 2 .8 3.4 5.1 5.4 2-.9 2.8-2.8 2.8-5.2zM186.6 7.2c-2.1 0-2.6.3-3.1.8-.6.6-.9 1.5-1.2 2.4-.1.3-.1.4-.6.3-.4-.1-.4-.1-.4-.4.3-1.8.6-4 .8-5.9 2.3.1 4.6.1 6.9.1 2.3 0 4.4 0 6.6-.1.3 0 .3.1.3.7 0 .5 0 .7-.1.9-3.2 6.2-5.2 11.1-6.3 15.4-.4 1.8-.6 3.5-.6 4.7 0 1.1.1 1.6.1 2.5 0 1-1.3 1.7-2.3 1.7-1 0-1.8-.4-1.8-1.5 0-2.7.9-5.6 2.5-9 1.5-3.5 3.6-7.5 6.5-12.5h-7.3zM215.4 21.1H207v-2.7h8.5v2.7zM228.9 14.4c0 .5-.1 1.2-.2 1.9 1.3-1.5 2.9-2.2 5.1-2.2 4.2 0 7 3.1 7 7.7 0 4.7-2.8 8.5-7.8 8.5-1.8 0-3.5-.5-4.6-1.2-1.2-.6-2.4-1.8-2.4-3 0-.8.9-1.5 2.2-1.5 1.2 0 1.6 1.7 2 2.6.5 1 1.4 1.9 2.8 1.9 3 0 4.2-3.2 4.2-7.3s-2-6.4-4.3-6.4c-2.1 0-3.3 1-4.3 2.6-.2.4-.4.4-1 .2-.5-.2-.5-.4-.4-.7.1-.3.1-.7.1-1l1-11.2c0-.2 0-.3.2-.5.2-.1.3-.2.4-.2h5.2c1.4 0 3.5 0 5.8-.2.2 0 .3.1.3.3l-.9 2.6c0 .1-.2.3-.4.3-1.5 0-2.5-.1-3.9-.1h-5.6l-.5 6.9zM259.5 26.7c3 0 3.7-.2 4.4-.8.9-.8 1.4-1.7 1.9-2.8.1-.3.2-.3.6-.2.3.1.4.2.4.4-.5 1.8-1.2 4.4-1.8 6.3-2.3-.1-4.4-.1-6.7-.1s-4.4 0-6.7.1c-.3 0-.4-.1-.4-.6 0-.6 0-.6.3-.9 2.1-3.3 3.3-5.3 6.3-9.1s4.6-5.8 4.6-9c0-2.8-1.2-5-3.4-5-1.7 0-2.6.9-3.1 2-.3.5-.4 1.4-.4 2.6 0 1-1.3 1.6-2.4 1.6-.8 0-1.3-.3-1.3-1.3 0-2.3 2.9-6 7.2-6 4.4 0 6.9 2.8 6.9 6.3 0 4.5-2.9 6.2-6.3 9.6-3.7 3.7-4.9 5.3-5.9 7.1h5.8zM284.7 26.7c3 0 3.7-.2 4.4-.8.9-.8 1.4-1.7 1.9-2.8.1-.3.2-.3.6-.2.3.1.4.2.4.4-.5 1.8-1.2 4.4-1.8 6.3-2.3-.1-4.4-.1-6.7-.1s-4.4 0-6.7.1c-.3 0-.4-.1-.4-.6 0-.6 0-.6.3-.9 2.1-3.3 3.3-5.3 6.3-9.1s4.6-5.8 4.6-9c0-2.8-1.2-5-3.4-5-1.7 0-2.6.9-3.1 2-.3.5-.4 1.4-.4 2.6 0 1-1.3 1.6-2.4 1.6-.8 0-1.3-.3-1.3-1.3 0-2.3 2.9-6 7.2-6 4.4 0 6.9 2.8 6.9 6.3 0 4.5-2.9 6.2-6.3 9.6-3.7 3.7-4.9 5.3-5.9 7.1h5.8zM310.8 21.1h-8.5v-2.7h8.5v2.7zM336.7 23c0 4-2.9 7.2-7.5 7.2-4.5 0-7.6-3.2-7.6-6.9 0-3 2.1-5.1 5.4-6.8-3.2-1.7-4.6-3.6-4.6-6.6 0-3.1 3-6.1 6.9-6.1 3.9 0 6.8 2.5 6.8 5.7 0 2.8-1.5 4.4-4.5 5.9 3.5 1.9 5.1 4 5.1 7.6zm-11.9.3c0 3.4 1.9 5.8 4.5 5.8 2.7 0 4.5-2.3 4.5-5.6 0-2.6-1.4-4.3-5.7-6.4-2.5 1.4-3.3 3.6-3.3 6.2zm8.3-13.8c0-2.7-1.7-4.6-3.9-4.6-2.4 0-4 1.9-4 4.4 0 2 .8 3.4 5.1 5.4 1.9-.9 2.8-2.8 2.8-5.2zM361.9 23c0 4-2.9 7.2-7.5 7.2-4.5 0-7.6-3.2-7.6-6.9 0-3 2.1-5.1 5.4-6.8-3.2-1.7-4.6-3.6-4.6-6.6 0-3.1 3-6.1 6.9-6.1 3.9 0 6.8 2.5 6.8 5.7 0 2.8-1.5 4.4-4.5 5.9 3.5 1.9 5.1 4 5.1 7.6zm-11.9.3c0 3.4 1.9 5.8 4.5 5.8 2.7 0 4.5-2.3 4.5-5.6 0-2.6-1.4-4.3-5.7-6.4-2.5 1.4-3.3 3.6-3.3 6.2zm8.3-13.8c0-2.7-1.7-4.6-3.9-4.6-2.4 0-4 1.9-4 4.4 0 2 .8 3.4 5.1 5.4 1.9-.9 2.8-2.8 2.8-5.2zM383.9 24.3c0 2.3-.1 2.7.3 3.5.3.7 1.4.8 2.6.9.2 0 .3.1.3.5s-.1.5-.3.5c-1.3-.1-3-.2-4.4-.2-1.4 0-3.1.1-4.5.2-.3 0-.4 0-.4-.5 0-.4.1-.5.4-.5.9-.1 2.2-.2 2.4-.7.4-.8.4-1.7.5-3.6v-1.6h-9c-.3 0-.4-.1-.4-.9s0-.8.4-1.4c3.4-5.9 6.1-10.3 9.7-16.1l2.4-.6c.1 0 .3.1.3.4-.1 2.9-.1 5.8-.1 9.1l-.1 8.3c1.2 0 2.4-.1 3.7-.2.2 0 .3.1.2.3l-.3 1.1c0 .2-.1.2-.3.2-1-.1-2.3-.1-3.3-.1v1.4zm-3-10.6c0-2.7.1-4.1.2-6.5-2.7 4.4-5.5 9-8.1 13.6-.2.4-.1.5.3.5h7.6v-7.6z"/>
</svg>
