<svg xmlns="http://www.w3.org/2000/svg" width="387.2" height="32.8" style="overflow:visible;enable-background:new 0 0 387.2 32.8" xml:space="preserve">
    <style>
        .st0{fill:#604c3f}
    </style>
    <path class="st0" d="M4.3 12.4c-1.1 0-1.9 0-3.1.2l-.4-1.4c1.3.2 2.3.3 3.5.3h23.3c1.8-2.2 2.1-2.4 2.3-2.4s.5.2 2.4 1.7c.9.8 1.1 1 1.1 1.2s-.1.4-.5.4H21.8v15.2c0 1.5.6 1.9 3.5 1.9 2.6 0 3.6-.1 4.3-.7.9-.6 1.2-2.1 2.2-5.9 0-.2.4-.1.4 0v4.2c0 .9.1 1 .6 1.2.4.1.6.5.6 1.1 0 .8-.6 1.4-1.8 1.8-1.2.4-3 .6-6.8.6-4.7 0-5.9-.9-5.9-3.6 0-1.4.1-3.3.1-6.2v-9.6h-5.5c-.1 5.4-.8 9.3-2.2 12.2-1.8 3.7-5.5 6.6-11.1 8.2-.3.1-.5-.4-.3-.5 4.8-2.4 7.6-5.4 9.2-9.4 1-2.6 1.5-5.8 1.5-10.5H4.3zm1-9.7c1.2.2 2.1.3 3.2.3h14.8C25.1 1 25.4.8 25.6.8s.5.2 2.3 1.5c.9.7 1 .9 1 1.2s-.1.4-.5.4H8.6c-1 0-1.8 0-3 .2l-.3-1.4zM51.4 22.7c1.6-.4 3.1-1 4.8-1.7.2-.1.4.3.2.4-3 2.1-6.5 3.9-10 5.4-.1 1.1-.3 1.4-.6 1.4-.5 0-.8-.5-1.9-3.9 1.1-.1 3.2-.5 5-1v-9.8h-2c-.7 0-1.2.1-2.1.2l-.4-1.3c.9.2 1.6.3 2.4.3h2V4.2h-2.3c-.8 0-1.3 0-2.2.2L44 3.1c1 .2 1.6.2 2.4.2h6c1.3-1.6 1.5-1.8 1.8-1.8.3 0 .5.1 1.9 1.3.6.5.8.8.8 1s-.1.4-.5.4h-5v8.6h1.1c1.1-1.4 1.4-1.6 1.6-1.6.2 0 .5.2 1.7 1.2.5.4.7.7.7.9 0 .3-.1.4-.5.4h-4.6v9zm21-13.5c-1.1 5.8-3.1 10.5-6 14.2 3.1 3 6.5 4.9 10.9 6.1.2 0 .1.3 0 .4-1.2.4-1.5.6-2 2.1-.1.3-.3.5-.5.5s-.5-.1-1.1-.4c-3-1.6-6.3-4.2-8.6-6.9-3.3 3.5-7.6 6-13 7.7-.2.1-.4-.4-.2-.5 4.8-2.2 8.7-5.3 11.7-9.1-2-2.8-3.3-6.1-4.2-9.9-1.2 1.9-2.6 3.6-4.2 5-.2.1-.5-.1-.4-.3 2.3-3.3 4.5-8.4 5.7-13.2.4-1.8.7-3.3.8-4.9 3.2.7 4.2 1.1 4.2 1.6 0 .4-.4.6-1.5.9-.6 2.1-1.2 4-1.9 5.8h9.6c1.6-1.9 1.9-2.1 2.1-2.1.3 0 .5.2 2.2 1.5.8.6.9.9.9 1.1s-.1.4-.5.4h-4zm-10.8 0c-.5 1.1-1 2.2-1.6 3.2 1 3.5 2.6 6.6 4.7 9.2 2.3-3.5 4-7.6 4.7-12.3h-7.8zM121 16.4c0 8.1-2.8 13.3-7.4 13.3-4.7 0-7.5-4.9-7.5-13.1s2.8-13.4 7.5-13.4c4.6.1 7.4 5.3 7.4 13.2zm-11.3.2c0 7.4.8 12.1 3.9 12.1 3 0 3.9-4.7 3.9-12.1 0-7.3-.8-12.1-3.9-12.1-3-.1-3.9 4.7-3.9 12.1zM142.7 16.5c-1.1 1.7-2.8 2.7-4.7 2.7-3.9 0-6.7-3.2-6.7-7.6 0-4.7 3.1-8.2 7.4-8.2 4.4 0 7.6 4 7.6 10 0 7.3-2.8 11.3-6.7 13.9-1.7 1.1-3.5 2-5.5 2.5-.3 0-.6-.1-.9-.6-.1-.3-.2-.5-.2-.6 0-.2.2-.3.4-.3 1.9-.1 3.4-.5 4.7-1.3 2.8-1.7 4.5-4.7 4.9-10.3l-.3-.2zm-7.9-5.2c0 3.6 1.4 6.4 4 6.4 1.4 0 2.7-.9 3.8-3.1.3-.8.4-1.2.4-2.3 0-4.7-1.5-8-4.2-8-2.6.1-4 3.2-4 7zM164.6 26.2c3 0 3.7-.2 4.4-.8.9-.8 1.4-1.7 1.9-2.8.1-.3.2-.3.6-.2.3.1.4.2.4.4-.5 1.8-1.2 4.4-1.8 6.3-2.3-.1-4.4-.1-6.7-.1s-4.4 0-6.7.1c-.3 0-.4-.1-.4-.6 0-.6 0-.6.3-.9 2.1-3.3 3.3-5.3 6.3-9.1s4.6-5.8 4.6-9c0-2.8-1.2-5-3.4-5-1.7 0-2.6.9-3.1 2-.3.5-.4 1.4-.4 2.6 0 1-1.3 1.6-2.4 1.6-.8 0-1.3-.3-1.3-1.3 0-2.3 2.9-6 7.2-6 4.4 0 6.9 2.8 6.9 6.3 0 4.5-2.9 6.2-6.3 9.6-3.7 3.7-4.9 5.3-5.9 7.1h5.8zM190.3 15.5c3.9.8 6.2 3.1 6.2 6.6 0 4.7-3.1 7.7-7.7 7.7-2.3 0-3.7-.6-4.9-1.4-1.1-.7-2.2-1.8-2.2-2.9 0-.9.9-1.5 2.3-1.5 1.1 0 1.5 1.8 1.9 2.7.4 1 1.2 2 2.9 2 2.7 0 4.2-2.5 4.2-6.6 0-2.5-1.1-6-4.9-5.8-.4 0-1.2.1-1.5.1-.4 0-.5 0-.4-.7.1-.6.4-.8.7-.8s.8.1 1.2.1c2 0 4.2-1.7 4.2-5.5 0-2.7-1-4.9-3.3-4.9-1.2 0-2.3.5-2.8 1.6-.3.6-.4 1.2-.4 1.8 0 1-1.1 1.8-2.4 1.8-.8 0-1.3-.4-1.3-1.1 0-2.1 2.7-5.2 6.8-5.2 3.7 0 6.7 2.2 6.7 6 0 3.7-2.7 5.3-5.4 6zM216 20.6h-8.5v-2.7h8.5v2.7zM241.8 22.5c0 4-2.9 7.2-7.5 7.2-4.5 0-7.6-3.2-7.6-6.9 0-3 2.1-5.1 5.4-6.8-3.2-1.7-4.6-3.6-4.6-6.6 0-3.1 3-6.1 6.9-6.1 3.9 0 6.8 2.5 6.8 5.7 0 2.8-1.5 4.4-4.5 5.9 3.6 1.9 5.1 4 5.1 7.6zm-11.9.3c0 3.4 1.9 5.8 4.5 5.8 2.7 0 4.5-2.3 4.5-5.6 0-2.6-1.4-4.3-5.7-6.4-2.4 1.4-3.3 3.6-3.3 6.2zM238.2 9c0-2.7-1.7-4.6-3.9-4.6-2.4 0-4 1.9-4 4.4 0 2 .8 3.4 5.1 5.4 2-1 2.8-2.8 2.8-5.2zM260.5 15.5c3.9.8 6.2 3.1 6.2 6.6 0 4.7-3.1 7.7-7.7 7.7-2.3 0-3.7-.6-4.9-1.4-1.1-.7-2.2-1.8-2.2-2.9 0-.9.9-1.5 2.3-1.5 1.1 0 1.5 1.8 1.9 2.7.4 1 1.2 2 2.9 2 2.7 0 4.2-2.5 4.2-6.6 0-2.5-1.1-6-4.9-5.8-.4 0-1.2.1-1.5.1-.4 0-.5 0-.4-.7.1-.6.4-.8.7-.8.4 0 .8.1 1.2.1 2 0 4.2-1.7 4.2-5.5 0-2.7-1-4.9-3.3-4.9-1.2-.2-2.2.4-2.7 1.4-.3.6-.4 1.2-.4 1.8 0 1-1.1 1.8-2.4 1.8-.8 0-1.3-.4-1.3-1.1 0-2.1 2.7-5.2 6.8-5.2 3.7 0 6.7 2.2 6.7 6 0 3.7-2.7 5.3-5.4 6v.2zM279.9 13.9c0 .5-.1 1.2-.2 1.9 1.3-1.5 2.9-2.2 5.1-2.2 4.2 0 7 3.1 7 7.7 0 4.7-2.8 8.5-7.8 8.5-1.8 0-3.5-.5-4.6-1.2-1.2-.6-2.4-1.8-2.4-3 0-.8.9-1.5 2.2-1.5 1.2 0 1.6 1.7 2 2.6.5 1 1.4 1.9 2.8 1.9 3 0 4.2-3.2 4.2-7.3s-2-6.4-4.3-6.4c-2.1 0-3.3 1-4.3 2.6-.2.4-.4.4-1 .2-.5-.2-.5-.4-.4-.7.1-.3.1-.7.1-1l1-11.2c0-.2 0-.3.2-.5.2-.1.3-.2.4-.2h5.2c1.4 0 3.5 0 5.8-.2.2 0 .3.1.3.3l-.9 2.6c0 .1-.2.3-.4.3-1.5 0-2.5-.1-3.9-.1h-5.6l-.5 6.9zM311.4 20.6H303v-2.7h8.5v2.7zM333.6 16.5c-1.1 1.7-2.8 2.7-4.7 2.7-3.9 0-6.7-3.2-6.7-7.6 0-4.7 3.1-8.2 7.4-8.2 4.4 0 7.6 4 7.6 10 0 7.3-2.8 11.3-6.7 13.9-1.7 1.1-3.5 2-5.5 2.5-.3 0-.6-.1-.9-.6-.1-.3-.2-.5-.2-.6 0-.2.2-.3.4-.3 1.9-.1 3.4-.5 4.7-1.3 2.8-1.7 4.5-4.7 4.9-10.3l-.3-.2zm-8-5.2c0 3.6 1.4 6.4 4 6.4 1.4 0 2.7-.9 3.8-3.1.3-.8.4-1.2.4-2.3 0-4.7-1.5-8-4.2-8-2.5.1-4 3.2-4 7zM350.2 13.9c0 .5-.1 1.2-.2 1.9 1.3-1.5 2.9-2.2 5.1-2.2 4.2 0 7 3.1 7 7.7 0 4.7-2.8 8.5-7.8 8.5-1.8 0-3.5-.5-4.6-1.2-1.2-.6-2.4-1.8-2.4-3 0-.8.9-1.5 2.2-1.5 1.2 0 1.6 1.7 2 2.6.5 1 1.4 1.9 2.8 1.9 3 0 4.2-3.2 4.2-7.3s-2-6.4-4.3-6.4c-2.1 0-3.3 1-4.3 2.6-.2.4-.4.4-1 .2-.5-.2-.5-.4-.4-.7.1-.3.1-.7.1-1l1-11.2c0-.2 0-.3.2-.5.2-.1.3-.2.4-.2h5.2c1.4 0 3.5 0 5.8-.2.2 0 .3.1.3.3l-.9 2.6c0 .1-.2.3-.4.3-1.5 0-2.5-.1-3.9-.1h-5.6l-.5 6.9zM375.4 13.9c0 .5-.1 1.2-.2 1.9 1.3-1.5 2.9-2.2 5.1-2.2 4.2 0 7 3.1 7 7.7 0 4.7-2.8 8.5-7.8 8.5-1.8 0-3.5-.5-4.6-1.2-1.2-.6-2.4-1.8-2.4-3 0-.8.9-1.5 2.2-1.5 1.2 0 1.6 1.7 2 2.6.5 1 1.4 1.9 2.8 1.9 3 0 4.2-3.2 4.2-7.3s-2-6.4-4.3-6.4c-2.1 0-3.3 1-4.3 2.6-.2.4-.4.4-1 .2-.5-.2-.5-.4-.4-.7.1-.3.1-.7.1-1l1-11.2c0-.2 0-.3.2-.5.2-.1.3-.2.4-.2h5.2c1.4 0 3.5 0 5.8-.2.2 0 .3.1.3.3l-.9 2.6c0 .1-.2.3-.4.3C384 7 383 7 381.6 7H376l-.6 6.9z"/>
</svg>
