<svg xmlns="http://www.w3.org/2000/svg" width="312.6" height="33.3" style="overflow:visible;enable-background:new 0 0 312.6 33.3" xml:space="preserve">
    <style>
        .st0{fill:#604c3f}
    </style>
    <path class="st0" d="M0 32.7c1.9-1.6 3.5-3.5 4.4-5.4.5-.9.8-1.8 1-2.7 2.7 1.2 3.3 1.4 3.3 1.8s-.3.5-1.3.5c-1.6 2.7-4 4.8-7 6.3-.2.1-.5-.3-.4-.5zM2.9 7.1c-.7 0-1.2.1-2.1.2L.5 5.9c.9.2 1.5.3 2.4.3h1.3v-.7c0-1.9 0-3.5-.1-5 3.3.4 3.7.6 3.7 1 0 .3-.3.5-1.2.9v3.8h5.8v-.5c0-2 0-3.7-.1-5.1 3.3.4 3.7.6 3.7 1 0 .3-.2.5-1.1.9v3.8h.9c1.1-1.4 1.3-1.6 1.5-1.6.3 0 .4.2 1.5 1.2.4.4.6.7.6.9 0 .2-.1.3-.5.3h-4.1v15.2h.6c1.1-1.4 1.3-1.6 1.5-1.6.2 0 .4.2 1.5 1.2.4.5.6.8.6 1 0 .2-.1.3-.5.3h-16c-.7 0-1.2.1-2 .2L.1 22c.9.2 1.5.3 2.3.3h1.8V7.1H2.9zm9.5 0H6.6v4.3h5.8V7.1zm-5.8 9.5h5.8v-4.3H6.6v4.3zm0 5.7h5.8v-4.8H6.6v4.8zm6.7 6.5c-.4-1.2-1.3-2.5-2.8-3.7-.1-.1.1-.4.2-.3 3.2.6 5.1 2.2 5.1 3.8 0 .9-.6 1.5-1.3 1.5-.5.1-1-.2-1.2-1.3zm8.7-8.9c-.3 1.8-.5 3.2-.9 4.5-1 3.2-2.8 5.9-5.9 8.6-.2.2-.6-.2-.4-.4 2.2-2.7 3.6-5.5 4.3-8.7.6-3 .9-7 .9-13.9 0-5.1 0-6.7-.2-8.8 1.3.6 1.9.9 3.1 1.7h5.7c1.1-1.2 1.3-1.3 1.5-1.3.3 0 .5.1 1.7 1.1.6.5.6.7.6.9 0 .3-.1.4-.9 1v7.3c0 16 .1 17 .1 18.1 0 1.4-.4 2.1-1.4 2.6-.5.3-1.3.5-1.9.5-.5 0-.6-.1-.7-.7-.2-1-1.1-1.4-3.6-1.9-.2 0-.2-.5 0-.5 1.8.1 3.3.1 4.2.1.5 0 .6-.1.6-.7v-9.3H22zm.5-8.2c-.1 2.4-.1 4.9-.4 7.3H29v-7.3h-6.5zm6.5-8h-6.5v7.1H29V3.7zM50.7 20.6v11.3c0 .9-.5 1.3-1.5 1.3-.8 0-1.3-.3-1.3-1.1s.1-3.3.2-10.5v-5c-1.4 1.3-2.9 2.4-4.8 3.6-.2.1-.5-.3-.3-.5 2.7-2.4 5.1-5.6 6.8-8.7.6-1.1 1-2 1.4-3.1 2.7 1.3 3.3 1.7 3.3 2 0 .4-.3.5-1.4.6-1 1.6-2.1 3-3.2 4.3 1.5.3 1.8.4 1.8.8 0 .3-.2.5-1.1.9v4.1zM43.6 9.9c2.2-1.7 4.2-4.1 5.6-6.4.7-1.2 1.3-2.3 1.6-3.4 2.2.9 3.6 1.7 3.6 2.1 0 .4-.4.5-1.6.5-2.3 3.3-5 5.7-8.8 7.6-.2.1-.5-.3-.4-.4zm12.1 9.6c-.8 0-1.4 0-2.3.2l-.4-1.3c1 .2 1.7.3 2.6.3h11.8v-.2c0-2.2 0-2.5-.1-3.9 3.2.4 3.9.5 3.9 1 0 .3-.2.5-1.2.9v2.1h2.2c1.3-1.7 1.6-1.8 1.9-1.8.2 0 .5.1 1.9 1.3.6.6.8.8.8 1s-.1.4-.5.4H70v2.9c0 4 .1 5.8.1 7 0 1.4-.3 1.9-1 2.4-.6.5-1.6.9-2.5.9-.4 0-.5-.1-.6-.8-.1-1.1-.7-1.5-3.9-2.2-.2 0-.2-.4 0-.4 2.5.2 3.7.2 4.8.2.4 0 .6-.2.6-.7v-9.4H55.7zm15.9-6.8c1.4-1.8 1.7-1.9 1.9-1.9.3 0 .5.2 2.1 1.5.7.6.9.8.9 1 0 .2-.1.4-.5.4H56.2c-.8 0-1.4 0-2.3.2l-.4-1.4c1 .2 1.7.3 2.6.3h6.4V6.9h-4.6c-.8 0-1.4.1-2.3.2l-.4-1.4c1.1.2 1.8.3 2.7.3h4.6V4.1c0-1.6 0-2.6-.1-3.8 3.2.3 4.1.6 4.1 1.1 0 .3-.3.5-1.3 1V6h5c1.4-1.7 1.7-1.9 1.9-1.9.3 0 .5.2 2.1 1.4.7.5.9.8.9 1 0 .2-.1.3-.5.3h-9.4v5.8h6.4zM59.3 26c-.4-1.7-1.3-3.1-2.6-4.3-.1-.1.1-.3.3-.3 3.3 1 5.2 2.7 5.2 4.4 0 1.2-.7 1.9-1.6 1.9-.7-.1-.9-.4-1.3-1.7zM99.3 17.2c.1-1.3.1-2.2.1-3.5 3.1.5 3.5.6 3.5 1.1 0 .3-.3.5-1.2.8l-.5 7.5h3.3l.6-11.5h-3.4c-.1.6-.5 1-1.3 1s-1.2-.3-1.2-.7c0-.2 0-.6.1-1.3.2-2.2.4-5.3.5-6.9.1-1 .1-1.9 0-3.2 2.8.5 3.6.8 3.6 1.1 0 .4-.2.5-1.2.8-.1.9-.1 1.9-.2 2.9h3.2c1.2-1.4 1.5-1.5 1.7-1.5.3 0 .5.2 1.7 1.2.5.4.6.7.6.9s-.1.3-.5.3H102l-.3 4.5h3c1-1.1 1.2-1.2 1.4-1.2.3 0 .5.1 1.5 1 .5.4.6.7.6.9 0 .3-.1.4-.9.9l-.5 10.8h7.2l.2-6h-2.7c-.8 0-1.3.1-2.1.3L109 16c1 .2 1.7.3 2.5.3h2.7l.2-5.5h-2.9c-.8 0-1.3 0-2.2.2l-.3-1.4c1 .2 1.6.3 2.5.3h2.9l.2-5.7h-2.8c-.9 0-1.5 0-2.4.2l-.3-1.4c1 .1 1.6.2 2.7.3h2.7c1-1.1 1.2-1.3 1.4-1.3.3 0 .5.1 1.5 1 .5.4.6.6.6.9s-.1.4-1 .9l-.6 18.4h.4c1-1.6 1.2-1.8 1.4-1.8.3 0 .5.2 1.7 1.3.5.5.6.8.6 1 0 .3-.1.4-.5.4H89c-.8 0-1.5 0-2.4.2l-.4-1.3c1.1.2 1.8.3 2.8.3h1l-.3-13.9c-.1-3.6-.2-4.9-.4-6.6 1.3.4 1.8.8 3 1.4 1.1-.6 2.2-1.3 3-2 .5-.4.8-.7 1-1.1 2.2 1.5 2.7 2 2.7 2.3 0 .2-.2.4-.5.4-.2 0-.5-.1-.9-.2-1.8.7-3.7 1.3-5.4 1.6l.1 5.1h2.4c1-1.3 1.3-1.5 1.5-1.5.2 0 .5.2 1.7 1.2.4.4.5.6.5.8s-.1.4-.5.4h-5.7l.1 5.4h2.2c1-1.3 1.3-1.5 1.5-1.5.2 0 .5.2 1.7 1.2.4.4.5.6.5.8 0 .2-.1.4-.5.4h-5.5l.2 5.8h6.3l.6-6.1zm-12 15.7c3-1.4 6-3.6 8.1-5.7.7-.7 1.2-1.3 1.5-2.1 3 1.4 3.5 1.8 3.5 2.2 0 .3-.2.5-1.7.5-3.5 2.9-6.8 4.4-11.3 5.4-.1.2-.3-.2-.1-.3zm26.7-.8c-2.1-2.3-3.8-3.8-7.8-5.8-.1-.1 0-.4.2-.4 6.6 1 10.5 3.3 10.5 5.7 0 .9-.6 1.7-1.3 1.7-.5-.1-.9-.4-1.6-1.2zM134.3 13.4c-1.3 1.7-2.7 3.2-4.2 4.6-.1.1-.5-.2-.4-.4 2.4-3 4.9-8 6.3-12.4.6-1.9 1-3.6 1.2-5.1 2.8.8 4.1 1.3 4.1 1.7 0 .4-.4.6-1.4.8-1.2 3.2-2.6 6.1-4.2 8.6 1.8.3 2.2.5 2.2.8 0 .3-.2.5-1 .9v18.8c0 .9-.5 1.3-1.6 1.3-.8 0-1.2-.3-1.2-1.1s.2-4.1.2-13.5v-5zm13.8 2.5c0 .4-.4.6-1.4.8-1.8 5-3.8 8.3-6.9 11.2-.1.1-.5-.1-.4-.3 1.7-2.6 3.5-6.9 4.4-10.3.3-1.2.5-2.1.5-3 2.6.8 3.8 1.2 3.8 1.6zm-2.7-7c-1.5 2.2-3.2 4.1-5.2 5.7-.2.1-.5-.1-.4-.3 2-2.5 4.1-6.6 5.3-10.4.4-1.3.7-2.5.8-3.5 3.2.9 3.9 1.2 3.9 1.7 0 .4-.4.6-1.3.8-.7 1.9-1.5 3.6-2.5 5.2h13c1.1-1.3 1.4-1.4 1.7-1.4.3 0 .6.1 1.8 1.2.8.8.9 1 .9 1.3 0 .4-.3.6-1.2.7-.5 0-.6.1-1 .6-1 1.3-2.3 2.5-3.4 3.4-.2.1-.5-.1-.4-.3.8-1.6 1.4-3.4 1.6-4.6h-6.2v12.7c0 4.9.1 6.3.1 8 0 1.1-.3 1.7-.9 2.3-.5.5-1.5.8-2.5.8-.3 0-.4-.1-.5-.5-.3-1.3-.9-1.9-4-2.6-.2-.1-.2-.5 0-.5 2 .2 3.6.3 4.6.3.4 0 .6-.1.6-.6v-20h-4.8zm17 15.8c0 1.6-.6 2.3-1.5 2.3-.8 0-1.3-.4-1.5-1.8-.5-3.7-2-7.6-4.2-10.5-.1-.2.2-.4.3-.3 4.2 3.3 6.9 7.4 6.9 10.3zM179 18.4V32c0 .9-.5 1.2-1.6 1.2-.9 0-1.2-.2-1.2-1.1 0-.8.2-3.3.2-11.6 0-2.5 0-5.1.1-7.6-1.1 1.8-2.3 3.4-3.8 5-.1.1-.5-.1-.4-.3 2.3-3.7 4.1-8.3 5.1-12.4.5-1.9.8-3.6.9-5.2 3.2 1 3.8 1.4 3.8 1.8 0 .4-.3.6-1.3.7-.9 3.3-2.1 6.2-3.5 8.8 2.1.3 2.5.5 2.5.8 0 .3-.1.5-1 .9v5.4zm6.3 13.5c0 .8-.5 1.1-1.6 1.1-.8 0-1-.3-1-1 0-2.9.2-6.9.2-16.3 0-8.1 0-11.6-.2-14.9 1.2.5 1.7.8 2.9 1.5h4c.9-1.1 1.2-1.3 1.4-1.3.2 0 .4.1 1.4 1 .5.4.6.6.6.9 0 .3-.2.5-.9 1v2.6c0 4.8.1 6.6.1 7.2s-.4 1-1.4 1c-.8 0-1-.3-1-.9v-.6h-4.5v18.7zm4.4-28.7h-4.5v4h4.5v-4zm-4.4 9.3h4.5V8.1h-4.5v4.4zm11.8 1.1c0 .7-.4 1-1.4 1-.8 0-1-.3-1-.9 0-.8.1-1.9.1-6.7 0-2.8 0-4.4-.1-6.1 1.2.5 1.7.7 2.8 1.4h4.1c1-1.2 1.2-1.3 1.4-1.3.3 0 .5.1 1.6 1.1.5.4.6.6.6.9 0 .3-.1.4-1 1v7.4c0 16.5.1 17.5.1 18.5 0 1.1-.4 1.9-1.2 2.4-.5.3-1.2.5-1.8.5-.6 0-.7 0-.8-.5-.1-1.2-.7-1.7-3.9-2.3-.2 0-.2-.5 0-.5 2.1.2 3.5.3 4.6.3.4 0 .6-.1.6-.6V13.4h-4.7v.2zm4.7-10.4h-4.7v4h4.7v-4zm-4.7 9.3h4.7V8.1h-4.7v4.4zM216.7 32.5c4.9-1.4 8.5-4 10.1-7.3.6-1.1.9-2.4.9-3.8 3.2.8 3.7 1 3.7 1.4 0 .4-.1.6-1.2.9-1.6 5.4-6 8.5-13.4 9.4-.2-.1-.4-.6-.1-.6zm20-4.4c0 1.7.4 1.8 3.6 1.8 3.7 0 4.9-.2 5.5-1 .4-.6.7-1.5 1.5-4 .1-.2.5-.1.5.1 0 1.6-.1 2.5-.1 3.2 0 .5.1.6.6.8.5.2.7.6.7 1.1 0 .7-.6 1.3-1.7 1.6-1.2.4-3.2.6-7.3.6-4.9 0-6-.7-6-3.1 0-.4.1-1 .1-2.9v-5.5h-8.8v.8c0 .8-.5 1.1-1.7 1.1-.8 0-1.2-.3-1.2-1 0-1.3.2-3.2.2-11.2 0-4.8 0-7.2-.2-9.7 1.3.5 1.9.8 3.1 1.5h13.8c1.2-1.2 1.4-1.3 1.6-1.3.3 0 .5.1 1.7 1.1.5.5.6.7.6.9 0 .3-.1.5-1 1.2v4.7c0 7.9.2 11.4.2 12.5 0 .8-.6 1.2-1.6 1.2-.9 0-1.3-.3-1.3-1v-.7h-3v7.2zm3.1-25h-14.4V8h14.4V3.1zm-14.5 10.6h14.4V8.9h-14.4v4.8zm0 6.2h14.4v-5.3h-14.4v5.3zM264.9 30.7v1c0 .9-.5 1.3-1.6 1.3-.8 0-1.2-.3-1.2-1 0-1.5.2-4.3.2-14.3 0-4.9 0-6.7-.2-9.3 1.3.6 1.9.8 3.2 1.6h7.2c.9-2.1 1.4-4.4 1.7-6.7h-10.9c-1.1 0-2 .1-3.1.2l-.4-1.3c1.3.2 2.3.2 3.5.2h23.5c1.8-2.1 2.1-2.2 2.3-2.2.3 0 .5.1 2.3 1.7.9.7 1 .9 1 1.2s-.1.3-.5.3h-14.5c-.9 2.4-2.2 4.6-3.7 6.7h13.2c1.2-1.3 1.4-1.4 1.6-1.4.3 0 .4.1 1.7 1.2.6.5.7.7.7.9 0 .3-.1.5-1 1.1v5.4c0 9.1.2 13.2.2 14.5 0 .8-.5 1.3-1.6 1.3-.9 0-1.2-.3-1.2-1v-1.2h-22.4zm5.4-.9V10.9h-5.5v18.9h5.5zm2.5-18.9v5.5h6.2v-5.5h-6.2zm0 11.8h6.2v-5.4h-6.2v5.4zm0 7.1h6.2v-6.2h-6.2v6.2zm8.7 0h5.8V10.9h-5.8v18.9zM312.6 29.1c0 1.2-1 2.2-2.2 2.2-1.3 0-2.3-1-2.3-2.2 0-1.3.9-2.3 2.3-2.3 1.2 0 2.2 1 2.2 2.3zM312.5 4c0 1.2-.6 5-1 7.6-.3 2.9-.6 6-.6 8.7 0 .9 0 1.7.1 2.4 0 .4-.3.6-1 .6-.3 0-.4-.1-.4-.4.1-.7.1-1.4.1-2.3 0-2.7-.3-6-.6-8.7-.3-2.4-1-6.6-1-7.8 0-1.4.6-2.2 2.2-2.2 1.6-.1 2.2.7 2.2 2.1z"/>
</svg>
