<svg xmlns="http://www.w3.org/2000/svg" width="335.4" height="153.8" style="overflow:visible;enable-background:new 0 0 335.4 153.8" xml:space="preserve">
    <style>
        .st0{fill:#604c3f}
    </style>
    <path class="st0" d="M11.6 8.5c1-1.3 1.3-1.4 1.5-1.4.2 0 .4.1 1.5 1.2.5.5.6.8.6 1 0 .3-.3.5-1 .8-.6 5-1.7 9.1-3.5 12.5 2.2 1.6 3.4 3.2 3.4 4.6 0 .8-.5 1.4-1.2 1.4s-1-.4-2.1-2.2c-.4-.6-.9-1.3-1.3-1.9-2.2 3.3-5.2 5.9-9.2 8.1-.2.1-.5-.3-.3-.5 3.6-2.8 6.2-5.8 8-9.3-1.2-1.2-2.4-2.2-3.8-3.1l-.8 1.9c-.3.6-.6.7-1.3.7-.9 0-1.4-.3-1.4-.7 0-.3.2-.7.5-1.3 1.4-3.1 2.5-7 3.5-11H3.1c-1 0-1.7 0-2.7.3L0 8.2c1.3.2 2 .3 3 .3h2.1c.2-.9.4-1.9.6-2.8.3-1.9.6-3.6.7-5.2 3 .5 3.6.8 3.6 1.1 0 .4-.2.6-1.2.9-.4 2.2-.8 4.2-1.2 6h4zm-4.2.9c-.8 3.3-1.7 6.6-2.8 9.8 1.5.6 3 1.3 4.4 2.2 1.5-3.3 2.3-7.2 2.8-12H7.4zm12.8 21.4c0 .9-.6 1.2-1.7 1.2-.8 0-1.2-.3-1.2-1 0-1.7.2-4.2.2-15.5 0-6.4 0-9.5-.3-12.4 1.4.5 1.9.8 3.2 1.5h7.2c1.2-1.3 1.3-1.4 1.5-1.4.3 0 .5.1 1.7 1.2.5.5.6.7.6.9s-.1.4-1 1v6.9c0 11.1.2 15.9.2 17.4 0 .9-.6 1.3-1.7 1.3-.9 0-1.2-.3-1.2-1v-2.6h-7.8v2.5zM28 5.5h-7.8v21.9H28V5.5zM51.3 15.5c-2.2 2.3-4.7 4.3-7.7 6-.2.1-.6-.4-.4-.5 4.5-3.5 8.5-8.4 10.7-13.9h-7.4c-.9 0-1.7.1-2.7.2L43.4 6c1.2.2 2 .3 3 .3h7.8c.2-.5.3-.9.5-1.4.6-1.5.9-3.1 1.2-4.7 3.1.8 3.9 1 3.9 1.5 0 .4-.4.6-1.4.9-.4 1.3-.8 2.6-1.3 3.7h13.2c1.7-1.9 1.9-2.1 2.1-2.1.3 0 .5.2 2.2 1.5.8.7 1 .9 1 1.1s-.1.3-.5.3H56.7c-.8 1.7-1.7 3.4-2.7 5l.3.1h12.3c1.2-1.3 1.4-1.4 1.6-1.4.3 0 .4.1 1.7 1.2.5.5.7.8.7 1 0 .3-.1.4-1 1v4.2c0 9.1.1 10.2.1 11.6 0 1.3-.4 1.9-1.3 2.5-.6.4-1.5.6-2.2.6-.4 0-.5-.1-.6-.7-.1-1.1-.8-1.5-3.8-2.2-.2 0-.2-.4 0-.4 2.1.2 3.2.3 4.5.3.5 0 .6-.1.6-.6v-5.4H54V32c0 .9-.8 1.2-1.7 1.2s-1.2-.4-1.2-.9c0-.9.2-4.3.2-8.9v-7.9zm15.6-2.4H54v4.4h12.9v-4.4zM54 23h12.9v-4.6H54V23zM92.7 18.3v13.6c0 .9-.5 1.3-1.5 1.3-.8 0-1.2-.3-1.2-1.1s.1-3.3.2-11.6v-6.6c-1.2 1.6-2.6 3.1-4 4.4-.2.2-.6-.2-.5-.4 2.8-3.3 5.2-8.3 6.6-13 .4-1.5.7-3.1.9-4.4 2.7.7 4 1.3 4 1.7 0 .4-.4.6-1.4.7-1.1 3.2-2.4 6.1-4 8.6 1.7.3 2 .4 2 .8 0 .3-.2.5-1 .9v5.1zm20.4 12.1c1.6-2.1 1.8-2.2 2.1-2.2.3 0 .5.2 2.1 1.6.8.7 1 .9 1 1.2s-.1.4-.5.4h-20c-.9 0-1.5 0-2.4.2l-.4-1.4c1.2.2 1.8.3 2.8.3h6.9V17.3h-7.4c-1 0-1.6.1-2.7.2l-.4-1.4c1.2.2 1.9.3 3 .3h7.4V7.1c-2.7.6-5.5 1-9 1.3-.3 0-.4-.6-.1-.6 5.5-1.1 10.8-3 14.4-4.9 1.4-.7 2.5-1.5 3.3-2.2 2 1.4 3 2.2 3 2.6 0 .4-.4.5-1.7.3-2.4 1.2-4.7 2-7.2 2.7v10h6.3c1.7-2.2 2-2.4 2.2-2.4.2 0 .5.2 2.3 1.8.8.8 1 1 1 1.2s-.1.3-.5.3h-11.3v13.1h5.8zM136.5 18.2V32c0 .8-.5 1.3-1.5 1.3-.7 0-1.3-.3-1.3-1s.1-3.3.2-11.8v-7.1c-1.4 1.9-3 3.7-4.8 5.3-.2.2-.6-.2-.4-.4 2.8-3.3 5.3-8.2 6.7-12.8.5-1.9.9-3.7 1.1-5.3 3 .8 4 1.3 4 1.7 0 .4-.4.6-1.3.8-1.2 3.3-2.4 6.3-4 8.9 1.9.3 2.3.5 2.3.9 0 .3-.2.5-1.1.8v4.9zm6.4-13.6c-.8 0-1.5 0-2.4.2l-.4-1.4c1.1.2 1.8.3 2.8.3h14.3c1.6-1.9 1.8-2.1 2.1-2.1.3 0 .5.2 2.2 1.5.7.6.9.9.9 1.1 0 .3-.1.4-.5.4h-3.4v14.1c0 7.5.1 9.6.1 11 0 1.4-.4 2.1-1.3 2.6-.6.4-1.4.5-2.1.5-.5 0-.6-.1-.7-.7-.1-1.1-.8-1.5-4-2.2-.2 0-.2-.5 0-.5 2.1.1 3.7.2 4.8.2.4 0 .6-.1.6-.7V4.6h-13zm.7 18.7c0 .9-.4 1.3-1.5 1.3-.8 0-1.1-.3-1.1-1s.1-2.1.1-6.6c0-3.6 0-5.8-.1-8.2 1.2.5 1.8.9 2.8 1.5h5.1c1.1-1.2 1.3-1.3 1.5-1.3.3 0 .4.1 1.5 1.1.5.4.7.7.7.9 0 .3-.1.5-1 1v2.6c0 4.9.1 7.2.1 7.9 0 .9-.5 1.3-1.5 1.3-.8 0-1.1-.3-1.1-1.1v-1.6h-5.6v2.2zm5.6-12.1h-5.6v9h5.6v-9zM181.3 17.5c1.3-.5 2.7-1 4-1.6.2-.1.4.3.2.4-1.3.9-2.7 1.8-4.2 2.7 0 7.9.1 11.7.1 13.1 0 .9-.6 1.3-1.7 1.3-.8 0-1.2-.4-1.2-1 0-1.3.1-4.5.1-12.1-1.1.5-2.3 1.1-3.5 1.5-.1 1-.3 1.3-.6 1.3-.4 0-.8-.5-1.7-3.5.8 0 1.6-.1 2.4-.3 1.2-.3 2.3-.5 3.5-.9V9.6h-2.9c-.7 2.1-1.6 3.9-2.8 5.7-.1.2-.5 0-.5-.2.8-2.1 1.5-5.1 1.9-7.8.2-1.3.3-2.6.3-3.7 2.4.7 3.3 1 3.3 1.5 0 .3-.2.4-1.1.7-.3 1.1-.5 2.2-.8 3.1h2.6c0-5.9 0-7.3-.1-8.6 3.6.4 4 .6 4 1 0 .3-.3.6-1.3 1v6.6h1.4c1.1-1.4 1.3-1.6 1.5-1.6.3 0 .5.2 1.7 1.2.5.4.6.7.6.9 0 .3-.1.4-.5.4h-4.9v7.7zm19.8-5c1.4-1.7 1.7-1.9 1.9-1.9.2 0 .5.2 2.1 1.5.7.6.8.8.8 1 0 .2-.1.3-.5.3h-19.1c-.8 0-1.4.1-2.3.2l-.4-1.4c1 .2 1.8.3 2.6.3h5.9V6.9h-4.4c-.7 0-1.2.1-2.1.2l-.4-1.4c.9.2 1.7.3 2.4.3h4.4V4c0-1.6 0-2.6-.1-3.9 3.6.4 4 .7 4 1.1 0 .3-.3.6-1.3 1V6h4.6c1.5-1.7 1.7-1.9 1.9-1.9.3 0 .5.2 2 1.4.6.6.8.8.8 1s-.1.3-.5.3h-8.9v5.6h6.6zm-14.4 6.9c-.7 0-1.3 0-2.2.2l-.4-1.4c.9.2 1.7.3 2.5.3h10.5v-.2c0-2.4 0-2.8-.2-4.1 3.2.3 3.9.5 3.9 1 0 .3-.3.5-1.2.9v2.4h1.9c1.2-1.6 1.5-1.8 1.7-1.8.3 0 .5.1 1.8 1.3.5.5.7.8.7 1s-.1.4-.5.4h-5.7v3.3c0 4.1.1 5.9.1 7.3 0 1.3-.4 1.8-1 2.3-.6.5-1.6.9-2.5.9-.4 0-.5-.1-.6-.8-.2-1.1-1.1-1.5-4-2.2-.2 0-.2-.4 0-.4 2.1.2 3.7.2 4.8.2.4 0 .6-.2.6-.6v-10h-10.2zm3.2 6.2c-.4-1.6-1.2-2.9-2.5-4-.1-.1 0-.3.2-.3 3.3.8 5.1 2.5 5.1 4.2 0 1.1-.5 1.8-1.4 1.8-.9-.1-1.1-.4-1.4-1.7zM221.3 10.9c-.4 1.3-.9 2.4-1.5 3.6 2.5 1.2 3.5 2.6 3.5 3.9 0 .8-.5 1.5-1.2 1.5-.6 0-.8-.3-1-1.2-.2-1.4-.7-2.7-1.7-3.7-1 1.8-2.2 3.5-3.6 5-.1.1-.5-.1-.4-.3 2.7-4 4.2-9.1 4.8-15.7h-1.7c-.8 0-1.5.1-2.5.2l-.4-1.4c1.2.2 1.9.3 2.8.3h6.9c1.4-1.7 1.7-1.8 1.9-1.8.3 0 .5.2 2 1.4.7.5.9.8.9 1 0 .2-.1.4-.5.4h-7c-.2 2-.6 4-1.2 6h3.7c1-1 1.2-1.2 1.4-1.2.3 0 .5.1 1.5 1.1.5.5.7.7.7 1 0 .2-.1.3-1 .8-1.7 10.9-4.9 16.3-12 21.1-.2.1-.5-.3-.4-.4 5.8-5.6 8.6-11.8 9.9-21.4h-3.9zm18.3 5.6c1.3 3 2.8 5.2 4.5 6.8 1.7 1.7 3.7 3 5.8 3.8.2.1.1.4-.1.4-.8.1-1.1.4-1.5 1.7-.1.5-.3.6-.5.6s-.5-.2-1-.6c-1.6-1.2-3.1-2.8-4.3-4.7-1.2-1.8-2.3-4.2-3.5-7.6.2 8.1.4 13.8.4 15.2 0 .9-.5 1.3-1.7 1.3-.8 0-1.2-.3-1.2-1.2 0-1.6.2-8.5.3-13.1-3.3 5.3-7.5 8.9-12.9 11.5-.2.1-.5-.4-.3-.5 5.1-3.6 9.2-7.8 11.9-13.7h-4.1c-.9 0-1.6 0-2.7.2l-.4-1.4c1.2.2 2 .3 3 .3h5.3V9h-3.9c-1 2.2-2.1 4-3.6 5.6-.1.1-.4-.1-.4-.3 1.1-2 2-4.9 2.5-7.7.2-1.2.4-2.3.4-3.4 3 .8 3.5 1.1 3.5 1.5 0 .3-.3.5-1.2.6-.3 1-.6 1.9-.9 2.7h3.5V6.6c0-3.9-.1-5-.3-6.2 3.7.4 3.9.5 3.9.9s-.2.6-1.2.9V8h3.6c1.4-1.8 1.6-1.9 1.9-1.9.2 0 .5.1 2 1.4.7.6.8.9.8 1.1s.2.4-.2.4h-7.8v6.6h4.6c1.4-1.9 1.7-2.1 1.9-2.1.2 0 .5.1 2.1 1.5.7.6.9.9.9 1.1 0 .2-.1.4-.5.4h-8.6zM263.5 6.8c0 2.4-1.1 4.7-2.8 4.7-.8 0-1.4-.6-1.4-1.4 0-.6.3-1 1.1-1.4 1.7-1 2.3-1.9 2.6-3.9 0-.2.4-.1.4 0 .1.4.1.8.2 1.1H274V3.1h-7.5c-.9 0-1.6.1-2.7.2l-.4-1.3c1.2.2 2 .2 3 .2h17.1c1.5-1.7 1.8-1.8 2-1.8.3 0 .5.2 2.1 1.4.7.6.9.8.9 1s-.1.3-.5.3h-11.6v2.8h10.8c1.1-1.3 1.3-1.4 1.5-1.4s.4.1 2 1.5c.7.6.8.8.8 1 0 .5-.3.7-1.2.7-.5 0-.8.1-1.5.9-.5.5-1 .9-1.9 1.6-.1.1-.4 0-.4-.2.5-1.1.8-1.9 1-3.2h-11.3v1.7c0 2.9.1 5.5.1 6.3 0 .9-.5 1.3-1.6 1.3-.9 0-1.2-.3-1.2-1 0-.5.1-2.1.1-5.2V6.8h-10.1zm21.6 14.5c1-1.2 1.2-1.3 1.4-1.3s.5.1 1.6 1.1c.5.5.6.6.6.9 0 .3-.2.5-.9 1v1.8c0 4.8.1 5.3.1 5.7 0 .9-.4 1.5-1 1.9-.5.3-1.2.5-1.9.5-.5 0-.6-.1-.7-.8-.1-1-.4-1.2-2.7-1.8-.2 0-.2-.5 0-.5 1.7.1 2.4.2 3.1.2.4 0 .5-.1.5-.5v-7.4h-5.4V26c0 2.3.1 4.3.1 4.9 0 .8-.4 1.1-1.5 1.1-.8 0-1.1-.3-1.1-1 0-.4.1-1.9.1-4.7V22h-4.6v4c0 2.2.1 4.2.1 4.9 0 .8-.4 1.1-1.5 1.1-.8 0-1.1-.2-1.1-1 0-.4.1-1.9.1-4.7V22h-4.8v9.7c0 .8-.5 1.2-1.6 1.2-.8 0-1.2-.3-1.2-1 0-1 .2-2.5.2-7.1 0-2.1 0-3.7-.2-5.2 1.3.5 1.8.7 3 1.4h6.3c.4-1.1.7-2.2 1-3.3h-10.6c-.9 0-1.5.1-2.6.2l-.4-1.3c1.3.1 2.1.2 3.2.2h23.9c1.5-1.7 1.7-1.9 1.9-1.9.3 0 .5.2 2.1 1.4.7.6.9.8.9 1 0 .3-.1.4-.5.4h-14.9c-.8 1.2-1.8 2.3-2.8 3.3h11.8zm-22.6-8.1c.9.1 1.4.2 2.2.2h3.7c1.1-1.3 1.3-1.5 1.6-1.5.2 0 .5.2 1.7 1.2.5.4.7.6.7.9 0 .3-.1.4-.4.4h-7.2c-.6 0-1.1 0-2 .2l-.3-1.4zm1.3-3.8c.9.1 1.5.2 2.3.2h2.8c1-1.2 1.2-1.4 1.4-1.4.2 0 .5.2 1.7 1.2.4.3.5.6.5.8 0 .3-.1.3-.4.3h-6c-.5 0-1 .1-1.9.2l-.4-1.3zm14.1 0c.9.1 1.4.2 2.2.2h2.4c1-1.3 1.3-1.4 1.5-1.4.2 0 .5.2 1.6 1.2.3.3.5.6.5.8 0 .3-.1.3-.4.3h-5.5c-.5 0-1 .1-1.9.2l-.4-1.3zm.1 3.8c.9.1 1.6.2 2.4.2h3.4c1.1-1.4 1.4-1.5 1.6-1.5.3 0 .5.1 1.8 1.2.5.4.7.6.7.9 0 .3-.1.4-.5.4h-7c-.6 0-1.2 0-2.1.2l-.3-1.4zM319.7 9.5c.9 3.3 2.2 6.5 4.1 9.4 1.4-1.5 2.8-3.5 3.6-5.1.4-.8.7-1.4.8-1.9 2.8 1.7 3.4 2.1 3.4 2.6 0 .4-.4.6-1.6.6-1.8 1.8-3.3 3-5.8 4.5.4.5.7.9 1.1 1.4 2.7 3.2 6.3 5.6 10 6.9.1 0 0 .3-.1.4-1.2.3-1.6.6-2.1 1.7-.2.5-.3.6-.5.6s-.6-.1-1-.5c-3-2-5.8-4.8-7.9-8.1-1.6-2.5-3.1-5.9-4.3-10.6v1.4c0 6.4.3 15.8.3 17.1 0 1.2-.3 2-1 2.6-.7.6-1.6.8-2.6.8-.3 0-.5-.1-.5-.5-.1-1.3-.8-1.8-4.3-2.5-.2 0-.2-.5 0-.5 2.4.2 4 .3 5 .3.5 0 .6-.2.6-.6v-8.9c-3.1 2.6-6.7 4.7-11.2 6.9 0 1.2-.2 1.5-.6 1.5-.4 0-.9-.6-2.2-3.6.8-.1 1.7-.4 2.8-.8 3.5-1.2 7.8-3.1 11.2-5.1v-10h-10.8c-.8 0-1.5.1-2.5.2l-.4-1.4c1.2.2 1.9.3 2.9.3H317v-.8c0-5.1 0-5.9-.2-7.5 3.7.4 4 .5 4 1 0 .3-.2.5-1.3 1v6.2h9.5c1.6-1.9 1.9-2.1 2.1-2.1.3 0 .5.2 2.2 1.6.8.6 1 .8 1 1 0 .3-.1.4-.5.4h-14.1zm-9.3 8c-.8-2-2.3-4-3.9-5-.1-.1.1-.3.2-.3 4 .9 6.3 2.6 6.3 4.6 0 .9-.6 1.7-1.4 1.7-.6 0-1-.2-1.2-1zm15.1-11.3c-.9-1.6-1.8-2.7-3.3-3.6-.1-.1 0-.4.2-.4 3.4.5 5.5 1.9 5.5 3.5 0 .8-.5 1.4-1.2 1.4-.5 0-.9-.2-1.2-.9zM3 67.8c-.8 0-1.4.1-2.4.2l-.4-1.4c1.1.2 1.9.3 2.8.3h15.7c0-.8-.1-1.5-.1-2.4 0-2.3-.1-2.9-.2-3.9 3.5.4 4 .6 4 1.1 0 .3-.2.6-1.2 1 0 1.5 0 2.9.1 4.2h6.4c1.3-1.8 1.6-1.9 1.8-1.9.3 0 .5.1 2.1 1.4.7.5.9.8.9 1 0 .3-.1.4-.5.4H21.3c.2 5.9.7 9.6 1.9 12.6.8-1.3 1.4-2.6 2-3.9.8-2 1.3-3.9 1.5-5.3 2.8.9 3.6 1.3 3.6 1.7 0 .3-.3.5-1.3.7-1.2 3.6-2.7 6.7-4.6 9.3 1.2 2.1 2.8 3.8 4.4 5.1.6.5.9.8 1.2.8.3 0 .7-.8 2.2-3.9.1-.1.4 0 .4.1-.5 3.1-.6 3.9-.6 4.1 0 .4.1.7.3 1 .4.5.5.8.5 1.3 0 .8-.4 1.2-1.3 1.2-.8 0-1.9-.6-3.1-1.4-2.1-1.5-4.2-3.7-5.8-6.3-3 3.1-6.8 5.4-11.6 7.2-.3.1-.5-.5-.3-.6 4.4-2.2 8-5.2 10.7-8.7-.4-.9-.7-1.7-1-2.7-1-3.4-1.5-6.9-1.7-12.5H3zm-1.9 18c1.1 0 2.2-.1 3.7-.3 3.5-.4 8.4-1.2 12.1-2.3.2 0 .3.4.1.4-3.4 1.8-7.9 3.3-13.4 4.8-.4 1.2-.5 1.4-.9 1.4s-.6-.6-1.6-4zM6 81.2c0 .8-.5 1.2-1.5 1.2-.8 0-1.1-.3-1.1-.9 0-.6.1-1.9.1-5.6 0-2.3 0-3.5-.2-5.2 1.3.6 1.8.8 3.1 1.6h6.2c1.1-1.2 1.3-1.4 1.5-1.4.3 0 .5.1 1.5 1.1.5.5.7.7.7.9 0 .3-.2.5-.9 1v1.6c0 3.2.1 4.7.1 5.1 0 .7-.5 1.1-1.5 1.1-.8 0-1.1-.3-1.1-.9v-.9H6v1.3zm6.9-8.1H6V79h6.8v-5.9zm12.4-8.4c-.5-1.2-1.2-2.1-2.1-2.9-.1-.1.1-.3.2-.3 2.7.4 4.3 1.5 4.3 2.9 0 .8-.5 1.4-1.2 1.4-.5.1-.8-.1-1.2-1.1zM60.9 82.2h6.3c1.4-1.8 1.7-1.9 1.9-1.9.3 0 .5.1 2 1.4.7.6.8.9.8 1.1 0 .2-.1.3-.5.3H60.9v6.4c1.5.3 3.2.4 5.4.4 3.1 0 6.1-.2 9.5-.7.2 0 .2.4.1.4-1 .5-1.3.9-1.4 1.9 0 .5-.1.6-1.2.7-1.3.1-3.3.1-6.1.1-5.4 0-8.9-1-11.2-2.9-1.8-1.4-3-2.8-4-5.3-1.5 4-4.1 6.8-8.5 9-.2.1-.5-.3-.3-.5 3.3-2.5 5.3-5.6 6.5-9.3.4-1.5.7-2.9.7-4.5 3.3.6 3.7.8 3.7 1.2 0 .4-.2.6-1.2.8l-.6 2.4c1.2 2.3 2.5 3.7 4.4 4.8.5.3 1 .6 1.6.8V76.9h-12c-.8 0-1.5 0-2.5.2l-.4-1.4c1.2.2 1.9.3 2.9.3h24.2c1.6-1.9 1.8-2.1 2.1-2.1.3 0 .5.2 2.1 1.5.7.6.9.8.9 1 0 .3-.1.4-.5.4H60.9v5.4zM51.6 73c0 .8-.5 1.1-1.6 1.1-.8 0-1-.3-1-.9 0-.9.2-2.3.2-7.5 0-2.4 0-3.6-.2-5.1 1.3.5 1.8.8 3 1.4h14.5c1.1-1.2 1.3-1.3 1.5-1.3.2 0 .4.1 1.6 1.1.5.5.7.7.7.9 0 .3-.1.4-1 1V66c0 4.3.1 6.3.1 6.9 0 .8-.5 1.1-1.6 1.1-.7 0-1.1-.3-1.1-.9v-.6H51.6v.5zm15.1-10.2H51.6v3.9h15.1v-3.9zm-15.1 8.9h15.1v-4H51.6v4zM92.8 75.9c0 .8-.5 1.1-1.6 1.1-.8 0-1.2-.3-1.2-.9 0-.6.2-2.5.2-6.9 0-2.7 0-3.7-.2-5.6 3.6.4 4.1.6 4.1 1.1 0 .4-.3.6-1.3 1v8.6h8.5v-6.6c0-3.8 0-6-.3-7.3 3.9.4 4.3.7 4.3 1.1 0 .4-.3.7-1.4 1.1v11.7h8.6V68c0-1.9 0-2.8-.2-4.4 3.4.4 4.1.6 4.1 1.2 0 .3-.3.6-1.3 1v2.6c0 4.6.1 6.8.1 7.5 0 .8-.5 1.2-1.6 1.2-.9 0-1.2-.3-1.2-1v-.8H104v14.4h10.3v-6c0-2 0-2.8-.2-4.4 3.6.4 4.2.5 4.2 1.1 0 .4-.3.6-1.3 1v2.7c0 4.8.1 7.1.1 7.8 0 .8-.5 1.2-1.7 1.2-.8 0-1.1-.3-1.1-1v-1.5h-23v1.3c0 .9-.5 1.3-1.7 1.3-.8 0-1.2-.3-1.2-1.1 0-.6.2-2.7.2-7.5 0-2.6 0-3.4-.2-5.3 3.3.3 4.1.6 4.1 1s-.3.6-1.2 1v8.2h10V75.3h-8.5v.6zM135.2 71c-.1 5.1-.5 8.6-1.2 11.6-.8 3.6-2.2 6.6-4.8 9.9-.1.2-.6 0-.5-.3 1.6-3.5 2.6-6.5 3.1-10 .5-3.2.6-7.1.6-12.9 0-3.7 0-4.8-.2-6.6 1.4.5 1.9.9 3.3 1.7h9.8v-1.9c0-.6 0-1.3-.2-2.3 3.5.4 4 .7 4 1.1 0 .3-.3.5-1.3 1v2.1h9.1c1.5-1.8 1.7-1.9 2-1.9s.5.1 2.2 1.4c.8.6.9.9.9 1.1s-.1.4-.5.4h-26.3V70.1h6.1c0-1.9 0-2.5-.1-3.7 3 .3 3.9.5 3.9.9 0 .3-.3.5-1.2.9V70h7.6v-.2c0-1.2 0-2.2-.1-3.5 3.4.4 3.8.5 3.8 1 0 .3-.2.5-1.1.9V70h3c1.4-1.7 1.7-1.8 1.9-1.8s.5.2 2.1 1.4c.7.5.9.8.9 1 0 .2-.1.3-.5.3H154c0 3.3.1 5 .1 5.5 0 .8-.5 1.2-1.4 1.2-.9 0-1.2-.3-1.2-.9v-.4h-2.7v4h6.5c1.2-1.2 1.4-1.3 1.6-1.3.3 0 .4.1 1.6 1.1.5.5.7.7.7.9 0 .3-.1.5-1 1v1.8c0 2.4.1 3.3.1 4.2 0 1-.4 1.7-1 2.1-.5.4-1.4.6-2.3.6-.5 0-.6-.1-.7-.6-.1-1.1-.7-1.6-3.1-2.1-.2 0-.2-.5 0-.5 1.8.1 2.9.1 3.7.1.5 0 .6-.2.6-.6v-5.9h-6.8v2.4c0 4 .2 7.5.2 8.6 0 .8-.6 1.3-1.6 1.3s-1.3-.2-1.3-1.2c0-.7.1-3 .1-7.6v-3.5h-6.4v8.3c0 1-.5 1.4-1.5 1.4-.9 0-1.3-.3-1.3-1 0-.8.1-1.8.1-5.1 0-2.9 0-4.4-.2-6 1.4.5 1.9.8 3.2 1.5h6v-4h-2.4v.1c0 .9-.5 1.2-1.4 1.2-.9 0-1.2-.3-1.2-1 0-.5.1-2.1.1-5.8h-5.9zm16.2 0h-7.6v4.5h7.6V71zM173.2 78.5c.9.2 1.6.2 2.1.2h5.9V72h-4.1v1.5c0 .7-.5 1-1.5 1-.8 0-1.1-.2-1.1-.8s.1-3 .1-7.5c0-1.9 0-2.5-.1-3.7 3.1.3 3.6.4 3.6.9 0 .3-.2.6-1 .9v6.9h4.1v-.8c0-6.5 0-8.1-.2-9.8 3.5.3 3.9.4 3.9.9 0 .3-.2.5-1.1.9v8c0 13.5.1 19.9.1 21.9 0 .8-.5 1.1-1.7 1.1-.9 0-1.3-.2-1.3-.9 0-1.3.1-4.9.1-12.9h-3c-.3 5.6-1.7 9.6-5.5 12.8-.1.1-.4-.1-.3-.3 2.3-3.6 3-7.3 3.1-12.5h-.2c-.4 0-.9.1-1.7.3l-.2-1.4zm19.4-6.5c.1-1.9.1-4 .1-6.4 0-2.2 0-3.1-.2-4.7 3.5.4 4.1.5 4.1 1 0 .3-.2.5-1.1.9v1.5c0 3-.1 5.4-.2 7.6h5.3c1.5-1.9 1.8-2.1 2-2.1.3 0 .5.2 2.1 1.5.7.6.9.8.9 1.1 0 .2-.1.3-.5.3h-9.5c.6 4.4 2.2 8 4.2 10.9 1.7 2.5 3.9 4.3 6.2 5.3.2.1.1.3-.1.4-1 .5-1.5 1.2-1.9 2.3-.1.4-.3.6-.5.6-.3 0-.6-.3-1.1-.7-1.4-1.3-3.1-3.6-4.3-6-1.4-2.8-2.5-6.4-3.1-10.9-.3 3.7-1 6.3-2 8.6-1.8 4.2-4.2 7-8 9.3-.2.1-.5-.3-.3-.4 2.8-2.7 4.7-5.6 6-9.3.9-2.8 1.5-5.9 1.7-10.1h-4.9c-.7 0-1.3.1-2.1.2l-.4-1.3c1 .2 1.6.3 2.4.3h5.2zm10.3-4.6c0 1-.6 1.6-1.4 1.6-.6 0-1-.3-1.3-1.4-.4-1.4-1.3-2.8-2.4-4-.1-.1 0-.4.3-.4 3.1 1 4.8 2.6 4.8 4.2zM218.7 91c0-1.1.3-2.6.3-4 0-2.1-.5-2.7-2.9-3.4-.3-.1-.2-.6.1-.5.7.1 1.2.2 1.7.2.7 0 1.2-.2 1.8-1.2 1.3-2.3 3.5-6.6 6-11.9.1-.2.6 0 .5.2-1.8 4.7-3.2 8.4-4.8 12.5-.3.7-.4 1.5-.4 2.1 0 1.7 1.2 3.5 1.2 5.2 0 1.5-.8 2.4-1.9 2.4-1.1 0-1.6-.6-1.6-1.6zm.6-17.2c-.9-1.9-1.3-2.7-3.2-4.1-.1-.1 0-.4.2-.3 3.5.5 5.5 2 5.5 3.7 0 .9-.6 1.6-1.4 1.6-.4 0-.7-.2-1.1-.9zm2.6-9c-.6-1.4-1.5-2.5-3.1-3.6-.1-.1 0-.4.2-.3 3.5.5 5.6 2 5.6 3.7 0 .9-.6 1.6-1.3 1.6-.6 0-.8-.2-1.4-1.4zm1 27.2c5.6-2.9 8.4-7.5 8.8-13 .1-.9.1-1.8 0-3.5 3.3.5 3.8.6 3.8 1.1 0 .3-.3.5-1 .8-.4 8-4 12.6-11.3 15.1-.3.1-.5-.4-.3-.5zm17.4-3.5c0 1 .3 1.3 2.4 1.3 1.8 0 2.4-.1 2.9-.5.6-.5 1-1.5 1.9-5.1 0-.2.4-.1.4.1-.1 1.6-.1 3.1-.1 4.3 0 .3.1.5.5.6.5.3.6.5.6 1 0 .6-.5 1.1-1.3 1.4-.9.3-2.4.5-5.3.5-3.9 0-4.8-.7-4.8-2.9 0-1.1.1-2.3.1-4.4V74.4h-7.3v.6c0 .8-.6 1.1-1.5 1.1s-1.2-.3-1.2-.9c0-.9.1-2.4.1-7.5 0-2.8 0-4.4-.2-6.3 1.4.5 1.9.8 3.2 1.5h11.7c1.2-1.3 1.4-1.4 1.6-1.4.3 0 .4.1 1.7 1.1.5.5.6.7.6.9 0 .3-.1.5-1 1.1v2.6c0 4.8.1 7 .1 7.8 0 .8-.5 1.2-1.6 1.2-.8 0-1.2-.3-1.2-.9v-.8h-2.5v14zm2.5-24.7h-12.4v9.7h12.4v-9.7zM286.6 84c1.6-1.8 1.8-2.1 2.1-2.1.3 0 .5.2 2.2 1.5.7.6.9.8.9 1 0 .3-.1.4-.5.4h-28.7c-.9 0-1.6 0-2.6.2l-.4-1.4c1.2.2 1.9.3 2.9.3h6.8v-4.5h-4.8c-.8 0-1.3.1-2.3.2l-.4-1.4c1 .3 1.7.3 2.6.3h4.8c0-1.7 0-2.9-.1-4 3.4.4 3.8.7 3.8 1 0 .3-.3.5-1.2.9v2.1h6.8c0-1.8 0-2.9-.1-4.1 3.4.4 3.7.7 3.7 1 0 .3-.3.5-1.1.9v2.2h3.6c1.4-1.7 1.7-1.9 1.9-1.9.3 0 .6.2 2.1 1.4.6.6.8.8.8 1 0 .2-.1.3-.5.3h-8V84h5.7zm-26.4 8.8c3-1.2 5.5-2.7 7.2-4.2 1-.8 1.8-1.7 2.3-2.4 2.8 1.3 3.4 1.7 3.4 2 0 .4-.4.5-1.7.5-3.1 2.2-6.3 3.7-11.1 4.6-.2 0-.3-.5-.1-.5zm6.1-18.7c0 .8-.5 1.2-1.5 1.2-.8 0-1.2-.3-1.2-1 0-.9.1-2.3.1-7.5 0-2.7 0-4.1-.2-5.8 1.3.5 1.9.8 3.1 1.4H284c1.2-1.2 1.4-1.3 1.6-1.3.3 0 .5.1 1.7 1.1.5.4.7.7.7.9 0 .3-.1.5-1 1.1v2.4c0 4.6.2 6.8.2 7.5 0 .9-.5 1.2-1.5 1.2-.8 0-1.2-.3-1.2-1V74h-18.2v.1zm0-10.8v4.4h7.6v-4.4h-7.6zm7.7 9.8v-4.5h-7.6v4.5h7.6zm-2.1 6.4V84h6.8v-4.5h-6.8zm12.6-16.2h-8.1v4.4h8.1v-4.4zm0 5.3h-8.1v4.5h8.1v-4.5zm1.3 23.4c-1.7-1.9-4.2-3.8-7.2-5.2-.2-.1-.1-.5.1-.4 6.5 1.1 10 3.2 10 5.3 0 .9-.5 1.5-1.3 1.5-.5 0-.9-.3-1.6-1.2zM306.6 80.7c0 .9-.4 1.3-1.3 1.3-.6 0-1.1-.2-1.1-.9 0-1 .1-2.9.1-5.8 0-2.6 0-3.9-.2-5.7 1.2.4 1.6.7 2.8 1.3h3.7V68h-5.4c-.9 0-1.5.1-2.6.2l-.4-1.4c1.2.2 1.9.3 2.8.3h5.4v-2.9c-2.1.3-4.4.4-7.2.4-.3 0-.3-.6 0-.6 4-.4 7.7-1.3 10.4-2.3 1.4-.5 2.6-1 3.4-1.7 1.9 1.4 2.6 2.2 2.6 2.5 0 .2-.2.3-.6.3-.3 0-.6 0-1.2-.2-1.6.6-3.2 1-5 1.4v3.2h4.1c1.4-1.7 1.7-1.8 1.9-1.8s.5.1 1.9 1.3c.6.5.8.8.8 1s-.1.4-.5.4h-8.2V71h3.8c1-1.1 1.2-1.2 1.4-1.2.3 0 .5.1 1.5 1 .5.4.6.7.6.9 0 .3-.1.4-.9.9v2c0 3.7.1 5.5.1 6.1 0 .8-.5 1.2-1.4 1.2-.8 0-1.1-.3-1.1-1h-4.1v3.2h3.1c1.2-1.4 1.4-1.6 1.6-1.6.3 0 .5.2 1.8 1.2.5.4.7.7.7.9 0 .3-.1.4-.5.4h-6.8v3.1c2.3-.3 4.7-.7 6.7-1.1.2 0 .3.4.1.5-3.9 1.6-8.4 2.8-15.2 3.9-.3.9-.4 1.2-.8 1.2s-.6-.3-1.5-3.7c1.5.1 2.6 0 3.6 0 1.4-.1 3-.2 4.7-.4v-3.3h-4.6c-.8 0-1.4 0-2.5.2l-.4-1.4c1.1.2 1.8.3 2.8.3h4.7v-3.2h-3.6zm0-8.9v3.4h3.9v-3.4h-3.9zm3.9 8v-3.6h-3.9v3.6h3.9zm6.5-8h-4.1v3.4h4.1v-3.4zm0 4.3h-4.1v3.6h4.1v-3.6zm14.3-6.4c1.1-1.3 1.2-1.4 1.5-1.4s.5.1 1.7 1.2c.5.5.6.7.6.9 0 .3-.1.5-.9 1-.1 8.5-.6 13.6-1.4 16.8-.4 1.7-1 2.9-2 3.6-.6.4-1.5.7-2.4.7-.5 0-.8-.1-.8-.6-.1-1-.6-1.6-3.3-2.3-.2 0-.2-.6 0-.5 2.4.3 3.4.4 4.5.4 1 0 1.3-.8 1.8-3 .6-2.8 1-7.5 1.1-15.9h-4c-.8 12.9-3.8 18.1-11.7 22.6-.2.1-.5-.3-.4-.5 6.5-5.2 9-10.5 9.6-22.1H324c-1.1 0-1.9.1-2.8.3l-.4-1.5c1 .2 1.9.3 3 .3h1.3c.1-1.8.1-3.8.1-5.9 0-1.5 0-2.1-.2-3.2 3.3.4 3.9.6 3.9 1.1 0 .3-.3.5-1.1.9 0 2.6-.1 5-.2 7.1h3.7zM13.9 152.4c0 .7-.5 1-1.4 1-.7 0-1-.3-1-.9 0-1.4.2-4.7.2-8.9V141c-.9.9-1.8 1.8-2.8 2.5-.1.1-.4-.2-.3-.3 1.6-1.9 3-4.1 3.9-6 .5-1.2.9-2.2 1.1-3.2 2.6.9 3.1 1.1 3.1 1.5 0 .4-.3.5-1.3.6-.3.6-.8 1.4-1.2 2.1h4.2c.4-.8.6-1.4.8-2 .2-.6.3-1.2.4-1.8 2.2.6 3 1 3 1.4 0 .4-.4.5-1.4.5-.6.8-1.1 1.3-1.8 1.9h4c1.1-1.3 1.4-1.5 1.7-1.5.3 0 .6.3 1.8 1.2.5.4.7.6.7.9 0 .3-.1.4-.5.4h-6.9v2.9h2.5c.9-1.2 1.3-1.4 1.5-1.4.3 0 .6.3 1.6 1 .5.4.7.7.7.9 0 .3-.1.4-.4.4h-5.8v2.8h2.6c.9-1.2 1.2-1.4 1.4-1.4.3 0 .6.3 1.5.9.6.5.8.8.8 1 0 .2-.1.3-.5.3h-5.8v3.3h2.5c.8-1.2 1.2-1.4 1.4-1.4s.6.3 1.4.9c.5.5.8.8.8 1 1.8-1.8 3.1-4 4-6.5 1.1-3 1.5-6.5 1.5-10.8 0-.7 0-1-.1-1.8 3.3.4 3.9.6 3.9 1 0 .3-.3.6-1.2.9.1 4.2 1 7.8 2.5 10.6 1.4 2.8 3.4 4.8 5.9 6.3.1.1.1.3-.1.4-.9.4-1.2.7-1.5 1.7-.1.4-.3.5-.5.5s-.5-.2-.9-.6c-1.8-1.7-3.3-4.5-4.1-7.3-.7-2.1-1.2-4.6-1.5-7.8-.3 3-.8 5.4-1.8 7.6-1.7 3.9-4.5 6.7-8.5 8.7-.2.1-.4-.3-.3-.5.9-.6 1.8-1.4 2.5-2.1H13.9v1.7zm8.7-27.7v1.6c0 .6-.5.9-1.4.9-.8 0-1-.3-1-.8 0-.3 0-.9.1-1.7h-4v1.7c0 .6-.5.9-1.4.9-.7 0-.9-.3-.9-.8 0-.3 0-.9.1-1.8h-2.7c-.8 0-1.3 0-2.2.2l-.4-1.4c1 .2 1.6.3 2.5.3H14v-.1c0-1.2 0-1.8-.2-3.1 3 .3 3.5.4 3.5.9 0 .3-.3.5-1 .8v1.5h4c0-1.6 0-2.1-.2-3.2 2.9.3 3.5.4 3.5.9 0 .3-.2.4-1 .8v1.5h2.3c1-1.3 1.4-1.5 1.6-1.5.3 0 .7.3 1.7 1.2.5.4.8.7.8.9s-.1.4-.5.4h-5.9zm-10.1 9.4c0 .6-.4.9-1.1.9-.6 0-.9-.3-.9-.8 0-.6.1-1.6.1-4 0-1.2 0-1.9-.2-3.1.9.4 1.4.6 2.3 1.2h3c.6-.8.9-1 1.1-1 .3 0 .5.2 1.3 1 .3.3.4.5.4.7 0 .2-.1.4-.8.8v.8c0 1.3.1 2.5.1 3s-.4.8-1.2.8c-.6 0-.8-.2-.8-.7v-.2h-3.3v.6zm3.3-5h-3.3v3.5h3.3v-3.5zm2.1 12.9v-2.9h-4v2.9h4zm0 3.7v-2.8h-4v2.8h4zm0 4.3v-3.3h-4v3.3h4zm3.2-16.5c0 .5-.3.8-1.1.8-.6 0-.8-.2-.8-.7 0-.5.1-1.2.1-3 0-1.2 0-2.1-.2-3.4.9.4 1.3.5 2.2 1h2.9c.8-.9 1-1 1.3-1 .3 0 .5.3 1.2.9.4.4.5.6.5.9 0 .2-.2.4-.8.8v.8c0 1.5.1 2.6.1 3 0 .6-.4.9-1.1.9-.6 0-.9-.2-.9-.7v-.3h-3.4zm3.3-4.4h-3.3v3.5h3.3v-3.5zm13.8-1.1c1.1-1.3 1.4-1.5 1.6-1.5.3 0 .6.3 1.8 1.4.5.5.7.8.7 1 0 .4-.3.6-1 .8-.4.1-.5.2-.8.8-.8 1.3-1.9 2.7-2.9 3.8-.1.1-.4-.1-.4-.3.5-1.2.9-2.8 1.3-5.1h-7.3c-1.2 2.7-2.5 5-4 6.9-.1.2-.5-.1-.4-.3 1.5-3.1 2.8-7.2 3.5-11 .3-1.5.4-2.8.4-4.1 3.1.7 3.8 1 3.8 1.4 0 .3-.4.5-1.3.8-.5 1.9-1 3.6-1.7 5.3h6.7zM59.4 145.3c1 1.7 1.9 2.4 3.3 3 1.6.6 4.1 1.2 9 1.2 3.5 0 8.5-.3 13.5-.9.2 0 .3.4.1.4-.9.4-1.1.8-1.2 1.6-.1.8-.2.9-.8 1-3.7.3-7 .4-9.9.4-6.5 0-9.6-.8-11.5-2-1.5-1.1-2.6-2.6-3.4-4.8-1.2 2-2.3 3.4-3.9 5.1.1 1.3-.1 1.6-.5 1.6s-1-.9-2.4-3.6c.8-.3 1.6-.6 2.4-1 .8-.4 1.7-1 2.7-1.9V136h-2.4c-.9 0-1.5 0-2.4.3l-.4-1.5c1.1.3 1.8.3 2.8.3h2.2c1.2-1.3 1.3-1.4 1.5-1.4.3 0 .5.1 1.7 1.1.5.5.7.8.7 1s-.1.4-1 1v8.5zm-2.6-18.9c-.5-1.6-1.5-3.4-2.8-4.7-.1-.1.1-.4.3-.3 3.6 1.2 5.4 3.2 5.4 4.9 0 1-.6 1.8-1.5 1.8-.6-.1-1-.4-1.4-1.7zM66 141c2-.6 4.1-1.4 5.8-2.1.2-.1.4.3.3.5-2.3 1.9-5 3.3-8.4 4.9-.1 1-.3 1.4-.7 1.4-.3 0-.8-.8-1.8-3.5.6-.1 1.4-.2 2.3-.4h.1v-12.9c0-2.8 0-3.9-.2-5.7 1.3.5 1.9.8 3 1.5 1.6-.9 2.8-1.8 3.9-2.7.8-.7 1.4-1.4 1.7-1.9 2.6 1.5 3.1 2 3.1 2.3 0 .4-.5.6-1.8.4-2.4 1.3-4.3 2.1-7.1 2.8V141zm9.1-7.3v13.1c0 .9-.5 1.3-1.5 1.3-.9 0-1.2-.3-1.2-1.3 0-1.5.2-4.7.2-12 0-5.8 0-9-.2-11.4 1.2.5 1.7.8 3 1.4h5.3c1-1.3 1.2-1.4 1.4-1.4s.5.1 1.7 1.2c.6.5.7.7.7.9 0 .3-.2.5-1 1v3.9c0 8.1.1 9.3.1 10.5 0 1.2-.4 1.9-1.1 2.4-.5.4-1.2.6-1.9.6-.5 0-.6-.1-.7-.7-.1-1.1-.5-1.4-2.9-2.1-.2 0-.2-.4 0-.4 1.5.1 2.2.2 3.4.2.5 0 .6-.2.6-.6v-14.6h-5.9v8zM95.3 127.2c1 .2 1.7.3 2.6.3h6c1.3-1.6 1.5-1.8 1.8-1.8.3 0 .5.1 1.9 1.3.7.5.8.8.8 1s-.1.4-.5.4h-10c-.7 0-1.3 0-2.2.2l-.4-1.4zm1.4 4.8c.9.2 1.5.3 2.3.3h4c1.2-1.5 1.5-1.7 1.7-1.7.3 0 .5.2 1.8 1.3.6.5.7.7.7.9 0 .3-.1.4-.5.4H99c-.6 0-1.1 0-2 .2l-.3-1.4zm0 4.7c1 .2 1.5.3 2.4.3h3.9c1.2-1.5 1.5-1.7 1.7-1.7.3 0 .5.2 1.8 1.3.6.5.7.7.7.9 0 .3-.1.4-.5.4h-7.6c-.6 0-1.1.1-2 .2l-.4-1.4zm0-14.3c1 .2 1.7.3 2.5.3h3.7c1.3-1.5 1.5-1.7 1.8-1.7.3 0 .5.2 1.9 1.3.6.5.7.7.7.9s-.1.3-.5.3h-7.6c-.6 0-1.2.1-2.1.2l-.4-1.3zm2.8 29.7c0 .7-.5 1.1-1.4 1.1-.8 0-1.1-.3-1.1-.9 0-.8.1-2.1.1-6.6 0-2.4 0-3.7-.2-5.3 1.3.5 1.8.8 3 1.4h4c1-1.1 1.2-1.3 1.4-1.3.3 0 .5.1 1.5 1 .5.4.6.6.6.9s-.1.5-.9 1v1.9c0 3.7.1 5.7.1 6.2 0 .8-.5 1.2-1.4 1.2-.7 0-1-.3-1-.9v-1h-4.6v1.3zm4.6-9.4h-4.6v7.1h4.6v-7.1zm20.1-10c1.3-1.6 1.5-1.7 1.8-1.7.3 0 .5.1 1.9 1.3.6.5.8.8.8 1 0 .3-.1.4-.5.4h-17.8c-.7 0-1.2 0-2 .2l-.4-1.4c1 .2 1.6.3 2.5.3h5.9v-3.5h-4.1c-.6 0-1.1.1-1.9.2l-.4-1.4c.9.2 1.4.3 2.2.3h4.2v-3.2H111c-.6 0-1.1.1-1.8.2l-.4-1.4c.9.2 1.4.3 2.2.3h5.4v-.1c0-1.9 0-3.1-.1-4.3 3.4.4 3.8.6 3.8 1 0 .3-.3.5-1.2 1v2.4h4.7c1.3-1.5 1.5-1.7 1.7-1.7.3 0 .5.2 1.9 1.3.6.6.8.8.8 1 0 .2-.1.3-.5.3h-8.6v3.2h3.6c1.2-1.4 1.4-1.6 1.7-1.6.3 0 .5.2 1.8 1.2.5.4.7.7.7.9 0 .2-.1.3-.5.3h-7.3v3.5h5.3zm-11.6 13c0 3.5.1 5.2.1 6.4 0 .8-.5 1.1-1.6 1.1-.8 0-1.1-.4-1.1-1 0-1.3.1-3.4.1-9.2 0-3.7 0-5.9-.1-7.8 1.2.5 1.7.8 2.8 1.4h9.6c1-1 1.2-1.2 1.4-1.2.3 0 .5.1 1.5 1 .5.4.7.7.7.9 0 .3-.1.4-.9.9v3c0 6.7.1 7.8.1 8.7 0 1.3-.4 1.9-1.1 2.4-.5.4-1.3.7-1.9.7-.5 0-.6-.1-.7-.5-.1-1.1-.6-1.7-3.1-2.2-.2 0-.2-.4 0-.4 1.8.1 2.7.1 3.7.1.4 0 .6-.1.6-.9v-3.5h-10.1zm10.1-8.2h-10.1v3.2h10.1v-3.2zm-10.1 7.3h10.1v-3.2h-10.1v3.2zM149.5 139.1c-.5 0-.8 0-1.3.1v.9c0 1.6-.3 2.9-1 3.6-.6.8-1.4 1.2-2.3 1.2-.4 0-.5-.2-.6-.6-.1-1-.5-1.6-1.9-1.9-.2 0-.1-.5.1-.5.9.1 1.4.1 2 .1.4 0 .7-.1.9-.3.4-.3.5-1.1.5-2.6 0-2.7-.6-4.5-2.4-6.9 1-2.7 2-6 2.7-9.3h-4v20.5c0 5.4.1 7.5.1 8.4 0 .9-.5 1.2-1.6 1.2-.8 0-1.1-.3-1.1-.9 0-3.5.1-10.3.1-21.8 0-5.4 0-7.8-.1-9.8 1.2.6 1.8.8 2.9 1.5h3.5c1-1.1 1.2-1.2 1.4-1.2.3 0 .4.1 1.4 1.2.5.5.6.8.6 1 0 .3-.3.5-.9.6-1.2 2.9-2.3 5.2-4.3 8.5 1.9 2 3.2 3.9 3.7 6 .5.1.9.1 1.4.1h1.4c.9-1.2 1.1-1.3 1.3-1.3.3 0 .5.1 1.5 1 .6.5.7.7.7.9s-.1.4-.9 1v6.1c.6 1.3 1.5 2.3 2.6 2.8 1.3.8 3.2 1.2 7.5 1.2 2.8 0 5.6-.2 8.6-.8.2 0 .1.4 0 .5-.9.4-1.2.8-1.3 1.6-.1.8-.2.9-.8 1-1.3.1-2.7.1-4.5.1-5.9 0-8.5-.7-10.2-2.1-1-.9-1.9-2.2-2.6-4-1.3 1.9-2.6 3.5-4 5-.1 1-.3 1.4-.7 1.4-.5 0-1-.9-2.2-3.5.9-.3 1.6-.5 2.4-.9.9-.5 1.8-1.1 2.7-1.8V139h-1.3zm.8-5.9c-.5-1.2-1.2-2.2-2.2-3.2-.1-.1 0-.4.2-.4 2.8.6 4.5 1.9 4.5 3.2 0 .9-.6 1.6-1.3 1.6-.6.1-.8-.2-1.2-1.2zm1.2-7.9c-.3-1.1-1-2.3-1.8-3.1-.1-.1.1-.4.3-.3 2.4.6 4 1.9 4 3.2 0 .9-.6 1.5-1.3 1.5-.7 0-1-.3-1.2-1.3zm7.8 2.2c-1.4 2.2-3.2 4-5.6 5.5-.1.1-.4-.2-.3-.3 2.1-2.2 3.7-4.7 4.8-7.5h-1c-.8 0-1.4.1-2.3.2l-.4-1.4c1 .2 1.7.3 2.6.3h1.5c.1-.2.1-.4.2-.5.4-1.2.6-2.3.8-3.6 2.8.6 3.6.9 3.6 1.3s-.4.6-1.3.8c-.3.7-.5 1.4-.9 2.1h6.5c1.2-1.5 1.5-1.8 1.7-1.8.3 0 .5.2 1.9 1.4.5.5.7.7.7.9 0 .3-.1.4-.5.4h-10.8c-.3.7-.7 1.4-1.2 2.2 1.1.1 1.7.2 2.6.2h4.6c1-1.2 1.3-1.4 1.5-1.4.2 0 .5.2 1.7 1.2.4.4.6.6.6.9s-.1.3-.5.3h-5v3h2.8c1-1.4 1.4-1.6 1.6-1.6s.5.1 1.9 1.4c.4.3.6.6.6.8s-.1.3-.5.3h-11.7c-.7 0-1.2.1-2.2.2l-.4-1.4c1 .2 1.7.3 2.5.3h3v-3h-.5c-.7 0-1.3.1-2.3.2l-.3-1.4zm-.1 20.1c0 .8-.4 1.1-1.3 1.1-.8 0-1-.2-1-.9 0-1.2.1-3.6.1-7.9 0-3 0-4.5-.3-6.4 1.2.5 1.7.9 2.7 1.5h6.9c.9-1.1 1.2-1.2 1.4-1.2.3 0 .4.1 1.4.9.5.4.6.7.6.9 0 .3-.1.4-.9.9v2.4c0 5.3.1 6 .1 6.7 0 1-.4 1.7-.9 2.2-.5.5-1.2.7-1.9.7-.6 0-.6-.1-.8-.8-.1-.8-.5-1.2-2.4-1.6-.2 0-.2-.5 0-.5 1.5.1 2.3.1 3.1.1.4 0 .6-.1.6-.5v-2.5h-7.5v4.9zm7.4-11.7h-7.5v2.4h7.5v-2.4zm-7.4 5.9h7.5v-2.6h-7.5v2.6zM185.6 147.3c0 .8-.5 1.1-1.5 1.1-.9 0-1.1-.3-1.1-.9 0-1.6.1-4.1.1-14.4 0-5.5 0-8.2-.2-10.8 1.3.5 1.8.8 3 1.5h4c1-1.2 1.2-1.3 1.4-1.3.3 0 .5.1 1.7 1 .5.4.6.6.6.9 0 .3-.1.5-.9 1v5.7c0 9.5.2 13.8.2 15.2 0 .8-.5 1.2-1.6 1.2-.8 0-1.1-.3-1.1-.9v-1.4h-4.6v2.1zm4.6-22.7h-4.6v9h4.6v-9zm-4.6 19.4h4.6v-9.5h-4.6v9.5zm10.5-4.6c-.8 0-1.3.1-2.3.2l-.4-1.4c1 .2 1.7.3 2.6.3h10.6v-.2c0-2.4 0-2.8-.2-4.1 3.1.3 3.9.5 3.9 1 0 .3-.3.5-1.2.9v2.4h1.6c1.3-1.5 1.5-1.7 1.8-1.7s.5.2 1.8 1.3c.6.5.7.8.7 1 0 .3-.1.4-.5.4h-5.4v3.1c0 3.8.1 6.1.1 7.3s-.3 1.8-1 2.4c-.6.5-1.6.9-2.6.9-.3 0-.5-.2-.5-.5-.2-1.3-1-1.8-4.1-2.4-.2 0-.2-.4 0-.4 2.3.1 3.7.2 4.8.2.5 0 .7-.2.7-.7v-9.9h-10.4zm5.5-12.4h-4.3c-.7 0-1.2 0-2.1.2l-.4-1.4c1 .2 1.6.3 2.4.3h4.4v-2c0-1.5 0-2.5-.1-3.7 3.6.4 4 .6 4 1 0 .3-.3.6-1.2 1v3.7h4.5c1.4-1.7 1.7-1.8 1.9-1.8.3 0 .5.2 2 1.4.7.5.9.8.9 1s-.1.4-.5.4h-8.8v5.4h6c1.4-1.7 1.7-1.9 1.9-1.9.3 0 .5.2 2.1 1.5.6.5.8.8.8 1 0 .2-.1.3-.5.3h-18.5c-.8 0-1.3.1-2.2.2l-.4-1.4c1 .2 1.6.3 2.5.3h5.6V127zm-2.2 18.6c-.5-1.7-1.2-3-2.5-4.1-.1-.1.1-.3.3-.3 3.3 1 5 2.6 5 4.2 0 1.1-.5 1.8-1.4 1.8-.7.1-1-.3-1.4-1.6zM226.9 123.1c-.7 0-1.2.1-2 .2l-.4-1.4c.9.2 1.5.3 2.3.3h6.8c1.2-1.4 1.4-1.6 1.7-1.6.3 0 .5.1 1.8 1.2.6.5.8.7.8.9 0 .3-.1.4-.5.4h-2.2v14.1c0 7.5.1 13.1.1 14.9 0 .8-.5 1.3-1.5 1.3-.6 0-1.2-.2-1.2-1.1 0-.7.1-2.8.2-8.4-1.6 1.2-3.6 2.4-5.7 3.4-.1 1-.4 1.3-.7 1.3-.4 0-.6-.5-1.6-3.4.8-.1 1.5-.2 2.2-.4v-21.7h-.1zm6 0h-3.6v6.3h3.6v-6.3zm-3.6 12.8h3.6v-5.6h-3.6v5.6zm0 8.3c1.2-.4 2.4-.8 3.6-1.3v-6.2h-3.6v7.5zm15.2-11.7c-.3-.8-.6-1.4-1-2.2-.1-.1.1-.3.3-.2 2.1 1.2 3.3 2.7 3.3 3.9 0 .9-.5 1.6-1.2 1.6-.6 0-.9-.4-1-1.4 0-.4-.1-.7-.1-1-2.1.8-4.4 1.6-6.4 2.1-.2.7-.3.9-.6.9s-.4-.3-1.2-3h1.9c1.5-1.8 2.9-3.9 3.8-5.7.5-1 .9-2 1.2-2.9 2.5 1 3 1.3 3 1.7 0 .4-.3.5-1.3.5-1.8 2.6-3.4 4.5-5.6 6.3 1.6-.2 3.3-.4 4.9-.6zm-3.7-4.3c0 .8-.4 1.3-1.1 1.3-.5 0-.7-.2-1-1-.5-1.6-1.1-2.6-2.2-3.6-.1-.1 0-.3.2-.3.8.3 1.5.6 2.1.9.5-1 .9-1.8 1.3-2.7.5-1.2.7-1.9.9-2.7 2.4.9 3 1.2 3 1.5 0 .4-.2.5-1.3.6-1.3 1.6-2 2.4-3.3 3.6.9.8 1.4 1.6 1.4 2.4zm2.4 15.7c.1-1.2.2-2.5.2-4.2 0-1.7 0-2.1-.1-3.1 3.2.3 3.5.4 3.5.8 0 .3-.2.5-1 .8 0 .9 0 1.8-.1 2.8-.1 3.7-.5 5.4-1.3 7-1.2 2.4-3.3 4-6.9 5.2-.2.1-.4-.4-.3-.5 2.4-1.4 3.8-2.6 4.8-4.4.5-1 .9-2.1 1.1-3.6H240v.7c0 .8-.4 1.1-1.4 1.1-.6 0-1-.3-1-.9 0-.3.1-1.5.1-4.2 0-1.7 0-2.6-.1-4 2.7.3 3.2.4 3.2.9 0 .3-.1.5-.9.8v4.8h3.3zm8-15.8c0 .8-.4 1.3-1 1.3-.5 0-.8-.3-1-1-.4-1.4-1.2-2.5-2.2-3.5-.1-.1 0-.3.2-.3.7.2 1.4.5 1.9.8.6-1 1.1-1.9 1.5-2.8.4-1 .6-1.7.8-2.5 2.4.9 3.1 1.2 3.1 1.6s-.3.5-1.3.6c-1.1 1.4-1.9 2.1-3.5 3.5.9.6 1.5 1.5 1.5 2.3zm-2.3 4.9c1.7-2.2 3.1-4.2 4.1-6.3.5-.9.8-1.5 1-2.3 2.3.9 3 1.2 3 1.7 0 .4-.3.5-1.3.5-1.5 2.3-3.8 4.6-5.8 6.4 1.8-.1 3.6-.2 5.5-.4-.3-.8-.7-1.6-1.3-2.4-.1-.1.1-.3.2-.2 2.2 1.2 3.6 2.8 3.6 4.2 0 .9-.5 1.5-1.2 1.5-.6 0-.9-.4-1-1.3 0-.4-.1-.7-.2-1-2.2.8-4.3 1.4-6.2 1.8-.1.7-.3.9-.5.9-.3 0-.5-.3-1.3-3h1.4zm2 11.8c0 4.2.1 6.4.1 7.2 0 .8-.5 1.1-1.5 1.1-.8 0-1-.3-1-1 0-.8.1-3.3.1-9 0-4.1 0-5.2-.1-6.6 3.1.4 3.4.5 3.4.9 0 .3-.2.5-1 .9v5.6h3.4v-3.5c0-1 0-1.6-.1-3 2.7.3 3.3.5 3.3.9 0 .3-.1.4-.9.8v1.7c0 3.2.1 4.8.1 5.3 0 .8-.4 1.2-1.3 1.2-.7 0-.9-.3-.9-.9V145h-3.6zM276 134.5h-4.9c-.8 0-1.5 0-2.4.2l-.4-1.4c1 .2 1.8.3 2.7.3h4.9v-1.8h-3.4v.1c0 .6-.4.9-1.2.9-.7 0-.9-.3-.9-.8s.1-1.3.1-4.3c0-1.7 0-2.4-.1-3.6 1.1.4 1.4.6 2.3 1.1h3.3v-1.7h-4.7c-.8 0-1.4 0-2.3.2l-.4-1.4c1 .2 1.8.3 2.7.3h4.7c0-1.1-.1-1.8-.2-2.6 2.9.3 3.2.5 3.2.8 0 .2-.3.5-1 .8v1h3.9c1-1.2 1.3-1.4 1.5-1.4.3 0 .5.2 1.7 1.1.4.4.6.6.6.8 0 .2-.1.4-.5.4H278v1.7h3.3c.7-.8.9-1 1.1-1 .3 0 .5.1 1.2.7.5.4.6.6.6.8s-.1.4-.8.8v1.2c0 2.6.1 3.6.1 3.9 0 .6-.4.9-1.2.9-.5 0-.8-.3-.8-.7v-.1H278v1.8h4.8c.9-1.1 1.1-1.2 1.3-1.2.2 0 .5.1 1.7 1 .4.3.5.6.5.8 0 .2-.1.4-.5.4H278v2.8h3.3v-.2c0-.8 0-1.2-.1-2 2.3.3 2.8.4 2.8.8 0 .2-.1.4-.8.6v1.9c1.7.9 2.4 1.3 2.4 1.6s-.3.5-1.4.4c-1.3.8-2.1 1.3-3 1.7.3.4.5.8.5 1.2 0 .6-.5 1.1-1.1 1.1-.5 0-.6-.1-1.2-.9-1-1.4-2.4-2.4-4.1-3.2-.1-.1 0-.3.1-.3 2.3.3 4.1.9 5.2 1.6.5-.5 1.1-1.2 1.5-1.8.1-.2.3-.4.4-.6h-.4c-.6 0-.8-.1-.8-.6v-.4h-8.8v1.2c0 .5-.4.7-1.2.7-.6 0-.9-.2-.9-.6 0-.3.1-.9.1-2.2 0-.8 0-1.3-.1-2.2 2.7.3 3 .4 3 .8 0 .1-.1.3-.9.5v.9h3.5v-2.8zm6.7 11.9c-3 .2-6.6.4-11 .6-.3.8-.5 1-.7 1-.4 0-.6-.6-1.1-3.3 1.5.1 2.2.1 4.4.1 2.7 0 5.5 0 8.2-.1 1.3-.9 2.7-2.1 4-3.4.8-.8 1.5-1.5 2.1-2.4 1.9 1.2 2.6 1.7 2.6 2.1 0 .3-.4.4-1.5.3-1.7 1.2-3.9 2.5-5.7 3.4 3.6-.1 7.2-.3 10.8-.5-.8-.8-1.8-1.4-3-2-.1-.1.1-.4.2-.3 4.2.7 7.1 2.5 7.1 4.4 0 .8-.5 1.4-1.1 1.4-.5 0-.8-.2-1.6-1.4-.3-.5-.6-.9-.9-1.3-3.4.6-6.8 1-10.2 1.3v2.7c0 1.8.1 3.3.1 3.8 0 .8-.5 1.1-1.6 1.1-.8 0-1.1-.3-1.1-.9 0-.4.1-1.6.1-4.1v-2.5zm-12.6 6.4c2.2-1 4.2-2.2 5.9-3.7.7-.6 1.3-1.2 1.8-1.9 2.3 1.4 2.8 1.7 2.8 2 0 .4-.8.5-1.7.4-2.7 1.9-5.7 3.1-8.5 3.6-.3.1-.5-.3-.3-.4zm2.5-26.8v1.9h3.4V126h-3.4zm3.4 2.9h-3.4v2h3.4v-2zm2.1-.9h3.5v-2h-3.5v2zm3.5 2.8v-2h-3.5v2h3.5zm8.4-7.7c0 1.3-.3 2.2-.9 3.1-.8 1.3-2.2 2.3-4.2 3.1-.2.1-.4-.2-.3-.3 1.4-1 2.2-2.1 2.7-3.4.3-.8.5-1.8.5-2.9 0-.7 0-1.2-.2-2.4 1.1.5 1.6.7 2.7 1.3h3.1c.8-1 1-1.2 1.2-1.2.3 0 .4.1 1.4.9.5.4.6.6.6.8 0 .3-.2.4-.8.8v2.1c0 .6.4.8 1.2.8 1.2 0 1.7-.1 2.1-.5.4-.4.6-1.2.9-2.3 0-.2.4-.1.4.1v1.8c0 .3.1.4.4.5.4.2.5.5.5.8 0 .5-.3.8-.8 1.1-.6.3-1.8.5-3.5.5-2.4 0-3.4-.6-3.4-2v-3.3H290v.6zm5.3 6.3c.8-.8 1-.9 1.2-.9.3 0 .5.1 1.6 1 .4.3.5.5.5.8s-.2.4-1.1.7c-1.2 1.6-2.4 2.9-3.9 3.9 2.1 1.1 4.6 1.8 7.9 2 .1 0 .1.3 0 .4-.9.3-1.3.7-1.6 1.7-.1.3-.3.5-.6.5s-.8-.1-1.2-.3c-1.5-.4-3.7-1.5-5-2.5-.3-.3-.6-.5-1-.7-1.9 1.1-4.2 1.9-7.1 2.6-.2 0-.3-.4-.1-.4 2.2-.9 4.3-2 6-3.3-1.3-1.3-2.2-2.9-3-4.5-.6 0-1.2.1-1.9.3l-.4-1.4c1.1.2 1.8.3 2.8.3h6.9zm-1.1 22.8c-1.6-2.2-3.5-3.7-6-4.8-.1-.1 0-.3.1-.3 4.8.6 8.5 2.5 8.5 4.5 0 .8-.5 1.4-1.3 1.4-.6.1-.9-.2-1.3-.8zm-5.4-21.9c.9 1.4 2 2.7 3.3 3.6 1.3-1.1 2.4-2.3 3.2-3.6h-6.5zM321.3 130.3c0 1.4-1.1 2.5-2.5 2.5-1.5 0-2.5-1.1-2.5-2.5 0-1.5 1-2.5 2.5-2.5 1.4 0 2.5 1 2.5 2.5zm0 12.7c0 1.4-1.1 2.5-2.5 2.5-1.5 0-2.5-1.1-2.5-2.5 0-1.5 1-2.5 2.5-2.5 1.4-.1 2.5 1 2.5 2.5z"/>
</svg>
