<svg xmlns="http://www.w3.org/2000/svg" width="510.3" height="65.3" style="overflow:visible;enable-background:new 0 0 510.3 65.3" xml:space="preserve">
    <path d="M23.1 8.4H8.9v48.9H0V0h23.1v8.4zM2.3 2.2v52.9h4.3V6.2h14.3v-4H2.3zM37.1 56.6c0-1.4.6-2.2 2.7-3.5 3.6-2.1 5.3-4.8 6.3-9.5.1-.4.9-.3.9.1.5 8.6-2.6 16-7.1 16-1.6 0-2.8-1.3-2.8-3.1zm17.7-44c-4.1 5.5-9.1 9.3-16.1 12.8-.3.2-1-.6-.6-.8C44.4 20 49.9 13.4 52.7 7.1c1-2.2 1.7-4.3 2.1-6.4 5.7 1.4 7.3 2.1 7.3 3 0 .8-.9 1.2-2.8 1.5-1 2.1-2.1 3.9-3.3 5.7h31.9c2.8-3.5 3.4-3.7 3.8-3.7.4 0 1 .3 3.9 2.8 1.4 1.1 1.8 1.6 1.8 2s-.3.6-1 .6H67.1v7.7h16.3c2.6-3 3-3.3 3.4-3.3.5 0 1 .3 3.7 2.5 1.2 1.1 1.5 1.5 1.5 1.9s-.2.6-.9.6h-24v1.9c0 2.1 0 4.1.1 5.9H84c2.6-3.1 3.1-3.4 3.5-3.4.4 0 1 .3 3.7 2.6 1.2 1.1 1.5 1.6 1.5 2s-.2.6-.9.6H67.2c.1 3 .1 5.2.1 6.3 0 1.5-1 2.2-3.2 2.2-1.7 0-2.3-.6-2.3-1.9 0-2.2.3-7.5.3-16.1v-9.5h-7.3zm3.6 43.2c0 2.3 1.4 2.8 10.1 2.8 7.2 0 9.5-.4 10.9-1.4 1.4-1.1 2.2-3 3.6-7.6.1-.3.8-.2.8.1-.1 1.9-.1 3.9-.1 5.3 0 1 .2 1.2 1.4 1.7.6.3 1 1 1 1.8 0 1.4-1.4 2.6-3.7 3.3-2.4.8-6.3 1.2-14.2 1.2-11.7 0-14.8-1.8-14.8-7 0-1.2.1-2.6.1-8.1 0-3.2-.1-4.8-.3-7 6.6.7 7.5 1 7.5 1.8 0 .7-.3 1-2.3 1.9v11.2zm10.7-6.9c-1-2.4-2.7-4.7-5.1-6.8-.2-.2.1-.7.3-.6 6.2 1.2 10.1 3.9 10.1 7 0 1.8-1.2 3.2-2.8 3.2-1.2-.1-1.7-.5-2.5-2.8zm22.3 5.7c-1.1-4.1-3.2-7.7-6.4-10.7-.3-.2.2-.8.6-.7 7.2 3.1 11.6 7.5 11.6 11.5 0 2.1-1.1 3.8-2.8 3.8-1.6 0-2.1-.7-3-3.9zM164.1 8.6c3-3.3 3.3-3.6 3.8-3.6.6 0 1 .3 4.1 2.6 1.4 1.2 1.7 1.6 1.7 2.1 0 .4-.3.6-1 .6h-52.9v3.2c0 17.2-.8 26.6-2.3 33.1-1.4 6.7-3.8 11.2-7.7 16-.2.3-.9 0-.8-.3 2.3-5.1 3.7-9.7 4.6-16.1.8-5.8 1.2-14 1.2-29.2 0-4.9 0-6.9-.3-11.5 2.6 1 3.7 1.6 6.1 3.1H141V5.2c0-1 0-2-.3-4.1 6.6.7 7.5 1.2 7.5 1.9 0 .6-.6 1.1-2.3 1.7v3.9h18.2zm-31.2 49.2c5.7-3.8 13-9.9 17.4-14.6 1.7-2 3-3.7 3.6-4.8 4.2 2 6.4 3.5 6.4 4.3 0 .7-.7 1-3.2.9-6.6 5.8-14.6 10.9-21.5 14.1 8.7-.1 17.3-.8 25.9-1.7-1.9-2.1-4.1-4.1-6.9-6.1-.3-.2.1-.8.5-.7 10.3 3 15.4 7.4 15.4 11.2 0 1.7-1.1 3-2.6 3-1.1 0-1.8-.6-3-2.6-.7-1.2-1.4-2.2-2.2-3.2-12.4 2.3-19.7 3.4-40 4.8-.5 1.7-.8 2.1-1.4 2.1-.9 0-1.5-1.7-2.8-7.2 3.2.3 5 .4 9.5.4h4.9zM120 35.9c2.3-3.4 3.1-5.9 3.1-10.7 0-1.2 0-1.9-.3-3.7 4.5.5 5.8.9 5.8 1.7 0 .5-.3.8-1.7 1.5-.2 5.7-2.2 9.1-6.3 11.7-.3.2-.8-.2-.6-.5zm5.6-16.8c-1.1 0-2 .1-3.7.4l-.7-2.7c1.7.4 2.8.6 4.2.6h4.8c0-2.3-.1-4-.3-5.7 5 .6 6 .8 6 1.7 0 .4-.3.8-1.8 1.5v2.6h3.1c2.1-2.5 2.6-2.8 3-2.8.5 0 1 .3 3.2 2.3.8.6 1 1.2 1 1.5 0 .5-.2.7-.9.7H134v.8c0 9.3.1 13.9.1 15.2 0 1.5-.8 2.1-2.5 2.1-1.3 0-1.9-.5-1.9-1.7 0-1 .3-4.6.3-12.8v-3.7h-4.4zm17.1 15.3c2.3-2.8 3.2-5.7 3.2-9.7 0-1 0-1.7-.2-3.3 4.5.5 5.6.8 5.6 1.6 0 .6-.3.9-1.7 1.6-.3 4.8-2.3 8.1-6 10.2 2.5 1.3 3.2 1.9 3.2 2.6 0 .8-.8 1-2.7 1.1-2.6 2.5-4.8 4.3-7.5 6.1 1.8 1.4 2.7 2.9 2.7 4.4 0 1.8-1.1 3.2-2.4 3.2-1 0-1.7-.6-2.4-1.9-2.1-3.9-4.6-6.9-8.2-9.4-.3-.2.1-.8.5-.7 3.5 1 6.3 2.1 8.4 3.4 1.7-2.2 3-4.3 4.1-6.4.6-1.1 1-2.2 1.4-3.7l2 .9zm-1.8-8.2c0 3.9.1 5.5.1 6 0 1.1-.8 1.7-2.3 1.7-1.2 0-1.6-.3-1.6-1.5 0-.3.1-1.7.1-5.2 0-2.2 0-2.7-.3-5.5 4.9.6 5.7.9 5.7 1.5 0 .5-.3.8-1.7 1.4v1.6zm8.9-7.1c-1.2 0-2.1.1-3.9.4l-.7-2.7c1.7.4 2.9.6 4.5.6h3.5c-.1-2.6-.1-4.3-.3-5.8 5.1.6 6.1 1 6.1 1.7 0 .5-.3.9-1.9 1.4v2.6h7.1c2.1-2.6 2.7-2.8 3.1-2.8.4 0 .9.3 3.2 2.2.8.8 1.2 1.2 1.2 1.7s-.2.7-.8.7h-13.7v.7c0 8.8.1 13.7.1 15 0 1.6-.8 2.1-2.3 2.1-1.5 0-2-.5-2-1.7 0-.9.2-4.3.2-11.5v-4.6h-3.4zm14.4 9.9c0 1.4.4 1.7 2.1 1.7 1.4 0 2.2-.1 2.7-.7s.8-1.3 1.7-4.1c.1-.3.7-.1.7.1-.1 1-.1 1.7-.1 2.6 0 .8.1 1 .9 1.2.6.2.9.8.9 1.3 0 .8-.6 1.5-1.8 1.9-1.2.5-3 .7-5.2.7-4.5 0-5.5-.7-5.5-5 0-.5.1-1.3.1-3.2 0-1.9 0-2.7-.2-4.3 4.9.6 5.4.8 5.4 1.5 0 .3-.3.7-1.6 1.3v5zM217.6 33.5c-1.6 3.5-3.5 7-5.5 10.4-2.4 4-5.1 8.1-8.1 11.6 9.9-.2 19.9-1.1 29.7-2.1-2.6-4.2-6-8-10.2-11.8-.3-.3.3-.9.6-.7 12 5.8 18.8 13.3 18.8 18.6 0 2-1 3.2-2.6 3.2-1.4 0-2.2-.7-3.2-3-.8-1.7-1.5-3.2-2.4-4.8-10.9 2.7-21.9 4.4-39.3 5.9-.6 1.9-1.1 2.4-1.8 2.4-.8 0-1.4-1.4-2.8-8 2.6.3 4.6.3 7.8.3 1 0 1.9 0 2.9-.1 2.1-3.6 3.9-7.3 5.5-11.1 1.5-3.5 3-7.2 3.9-10.9h-18.4c-1.9 0-3.2.1-5.2.4l-.7-2.6c2.3.3 3.7.5 5.7.5H214v-14h-15.2c-1.9 0-3.2.1-5.1.4l-.7-2.6c2.2.3 3.7.5 5.7.5h15.4v-4.5c0-4.3-.1-7-.3-9.7 7.3.7 8.1 1.2 8.1 2 0 .5-.5 1.2-2.5 1.9V16h13.4c3.2-3.8 3.7-4.1 4.1-4.1.5 0 1 .3 4.2 2.9 1.5 1.4 1.8 1.9 1.8 2.3s-.2.7-.9.7h-22.6v14h18c3.4-4 3.9-4.3 4.4-4.3.4 0 .9.3 4.4 3.2 1.6 1.3 1.9 1.8 1.9 2.2s-.3.6-1 .6h-29.5zM265.7 35.5c0-6.5 0-11.5-.1-16.1-1.6 1.2-3.3 2.4-5.2 3.6-.4.3-1-.6-.6-1 4.5-3.9 8.4-9.3 11.1-14.3 1.2-2.3 2.2-4.6 2.8-6.8 4.8 1.6 6.6 2.5 6.6 3.1s-.6.9-2.6 1.2c7.7 2.8 10.8 5.3 10.8 8.3 0 1.3-1 2.6-2.1 2.6s-1.4-.3-2.8-2.8c-1.6-2.8-3.7-5.3-6.5-7.2-3 4.7-6.5 9-10.8 12.6 1.7.7 2.6 1.1 4.4 2.1h3.1v-3.9c0-1-.1-2.5-.2-4.4 5.9.7 6.6 1.2 6.6 1.8 0 .6-.5 1.1-2.1 1.7v4.8h3.4c1.8-1.9 2.1-2.1 2.6-2.1s.9.2 2.8 1.8c.9.8 1.2 1.2 1.2 1.6 0 .6-.2.8-1.7 1.8V29c0 8.4.2 11.9.2 13 0 1.5-.8 2.2-2.8 2.2-1.6 0-2-.5-2-1.9V41h-11.7v14.1c3.5-.8 6.9-1.9 10.2-3-.8-2.1-2-4.1-3.9-6-.3-.3.3-.7.6-.6 5.4 2.4 8.5 5.8 8.5 8.8 0 1.7-1 3-2.6 3-1 0-1.4-.8-2.1-3.6l-.1-.1c-5.3 3-9.5 5-15.9 7.6-.3 1.9-.8 2.6-1.4 2.6-.8 0-1-.6-3-7 1.5-.1 3.2-.3 5.2-.7V35.5zm16.2-13h-11.7v7.4h11.7v-7.4zm-11.6 16.8H282v-7.7h-11.7v7.7zm44.9-15.9c2.1-2.5 2.4-2.7 2.8-2.7.5 0 .8.2 3.4 2.5.9.8 1.2 1.3 1.2 1.7 0 .6-.4.9-2.1 1.8-2 8.6-5 15.7-9.4 21.5 4.3 5 9.6 8.1 14.8 9.9.3.1.1.7-.2.8-1.4.6-2.2 1.7-3 3.7-.3.7-.6.9-1 .9s-1.2-.4-2.6-1.3c-4-2.8-7.7-6.7-10.6-10.9-5 5.4-11.3 9.6-19.6 12.9-.4.2-.9-.8-.5-1 7.7-4.8 13.5-9.7 17.7-15.6-3.7-6.9-5.2-14.8-6.3-22.5h-2.3c-.4 8.7-1.2 14.9-2.7 20.1-2 7.2-5.4 12.6-11.5 18.2-.3.3-1.2-.3-.9-.7 4.7-6.3 7.2-11.9 8.7-19.4 1.2-6.3 1.7-14.4 1.7-27.2 0-5.9-.1-8-.5-12.1 2.6 1.1 3.7 1.7 6.2 3.2h17c3-3.5 3.3-3.7 3.9-3.7.5 0 .9.2 4 2.7 1.4 1.2 1.7 1.6 1.7 2.1 0 .4-.3.6-1 .6h-26.4v4.8c0 3.5-.1 6.8-.2 9.7h17.7zm-13.9 1.7c1.2 6.8 3.2 13.5 6.9 19.3 3.4-5.5 5.7-11.9 7.1-19.3h-14zM389.3 10.4c3.2-3.7 3.5-3.9 4-3.9s.9.3 4.3 2.9c1.6 1.2 1.8 1.7 1.8 2.1 0 .5-.3.7-1 .7h-50.6v4.6c-.1 13.7-.8 21.9-2.3 28.4-1.6 6.6-4.1 12-9.3 18.3-.3.3-1.2-.1-1-.5 3.6-6.8 5.2-12.4 6.1-18.7.8-5.8 1.2-12.6 1.2-23.7 0-6.3-.1-9-.5-13.3 2.7 1.1 3.9 1.7 6.4 3.2h18.8v-5c0-1.4-.1-2.4-.3-4.6 7 .8 7.9 1.3 7.9 2.1 0 .6-.6 1.1-2.6 2v5.5h17.1zM358 62c0 1.7-.9 2.6-3 2.6-1.7 0-2.3-.6-2.3-2.2 0-1.4.3-3.9.3-12.5 0-5.3 0-8.3-.3-12.1 2.6 1 3.6 1.6 5.9 2.8h8.8V24.1c0-4.7-.1-7.5-.3-9.6 6.9.7 7.9 1.3 7.9 2.1 0 .6-.6 1.2-2.6 2V26H385c3.1-3.5 3.7-3.9 4.1-3.9.5 0 1 .3 4.1 3 1.3 1 1.7 1.5 1.7 1.9 0 .5-.3.7-1 .7h-21.5v12.8H386c2.1-2.5 2.5-2.8 2.9-2.8.5 0 1 .3 3.4 2.3 1 .9 1.3 1.3 1.3 1.7 0 .5-.4.9-1.9 2v4.4c0 8.4.3 12.4.3 13.5 0 1.7-1 2.6-2.9 2.6-1.8 0-2.4-.7-2.4-2.3v-2.1H358V62zm28.6-19.7H358v16.1h28.6V42.3zM425.3 8.3c1.9-2.3 2.3-2.6 2.8-2.6s1 .2 3 1.9c1 .8 1.2 1.3 1.2 1.7 0 .6-.3.9-1.9 1.9v7.2c0 16.5.3 22.6.3 24.4 0 1.4-.9 2.1-3 2.1-1.5 0-2.1-.5-2.1-1.8v-2.8h-6.9v4.8c0 1.4-.9 2-2.9 2-1.7 0-2.2-.5-2.2-1.6 0-2 .3-7 .3-21.7 0-11.4-.1-14.6-.3-18.4 2.5 1 3.4 1.5 5.6 2.8h6.1zm-6.4 1.8v28.6h6.9V10.1h-6.9zm46-4.6c2.3-2.6 2.7-2.9 3.1-2.9.6 0 1 .3 3.4 2.3 1 .9 1.2 1.3 1.2 1.7 0 .5-.2.9-1.9 2.1v3.2c0 5.1.2 8.8.2 10.4 0 1.4-1 2.1-3.2 2.1-1.5 0-2.1-.6-2.1-1.7v-1.1h-23.9c-.3 10.4-1.2 17.5-3.1 23.5-2.1 6.6-5.5 12.1-10.9 17.5-.3.3-1-.3-.8-.7 4.1-5.7 6.4-11.2 7.8-17.7 1.5-7 2-15.9 2-30.1 0-6.8-.1-8.9-.3-11.9 2.6 1.2 3.7 1.7 6.1 3.2h22.4zm-23.1 1.6v5.6c0 2.6 0 5-.1 7.3h23.8V7.1h-23.7zm8.9 34.9c4.3-2.2 8.7-5.1 12.2-8.2 1.7-1.4 2.9-2.7 3.7-3.8 4.6 3.4 5.5 4.1 5.5 5 0 .8-.8.9-3.2.6-5.3 3.1-11.1 5.9-18.1 7.9v10.9c0 2.6 1.3 3 8.6 3 6 0 8.1-.3 9.3-1.6 1.2-1.2 2.1-3.8 3.4-8.6.1-.4.9-.3.9.1-.2 3.4-.3 5-.3 6.4 0 .9.2 1.3.9 1.7 1.2.6 1.5 1 1.5 2 0 1.5-1 2.7-3.3 3.4-2.3.7-6.2 1.1-12.8 1.1-10.7 0-13.2-1.1-13.2-6.1 0-1.5.1-4.6.1-14.8 0-9.5-.1-12.8-.3-16.4 6.5.8 7.5 1.2 7.5 2 0 .6-.4 1-2.3 1.8V42zM487.2 56.9h14.2V8h8.9v57.3h-23.1v-8.4zm20.8 6.2V10.2h-4.3v48.9h-14.3v4H508z"/>
</svg>
