<svg xmlns="http://www.w3.org/2000/svg" width="1170.5" height="549.5" style="overflow:visible;enable-background:new 0 0 1170.5 549.5" xml:space="preserve">
    <style>
        .st0{fill:#604c3f}
    </style>
    <path class="st0" d="m399.7 65.3 26.6-62.6 2.7 1.2-26.6 62.5-2.7-1.1zM454.5 61.2v2.5c0 1.9-1.2 2.8-3.9 2.8-2.3 0-3-.8-3-2.3 0-6.1.3-12.5.3-36.8 0-5.7-.1-11.3-.3-17 3.6 1.5 4.1 1.7 7.8 3.7h6.2c.8-2.3 1.6-4.8 2.1-6.9.5-1.9.8-3.6.8-4.7 6.8 1.7 8.6 2.5 8.6 3.5 0 .8-.6 1.1-2.6 1.4-3 3.5-4.3 4.8-6.6 6.7h19.3c2.4-2.6 3-3 3.5-3 .7 0 1.4.3 4.1 2.4 1.3 1 1.8 1.7 1.8 2.2 0 .6-.3 1.1-2.2 2.4v7c0 20 .3 33.9.3 38.5 0 2-1.1 2.8-3.9 2.8-2.2 0-3-.6-3-2.5v-2.6h-29.3zM484 15.5h-29.5v12.8H484V15.5zm0 14.4h-29.5v13.2H484V29.9zm0 14.8h-29.5v14.9H484V44.7zM522.2 36.6c-2.7 2.1-5.6 4-8.8 5.7-.3.1-.9-.6-.6-.8 4.8-4.5 9.3-10.1 12.5-15.3 1.7-2.8 3-5.5 3.7-7.8 7 3.3 7.9 3.9 7.9 4.8 0 1-.8 1.4-2.9 1.4-2.1 2.6-4.1 5-6.3 7.2 2.1.4 2.5.7 2.5 1.3s-.4 1-1.9 1.7v29c0 2-1.2 2.9-3.6 2.9-1.6 0-3-.6-3-2.6 0-1.8.4-7.2.4-18.1v-9.4zm10.6-27.8c-5.4 6.9-11.9 12-19.2 15.2-.3.1-.8-.6-.5-.8 3.9-3.5 8.1-8.5 11-13 1.9-2.9 3.2-5.6 3.8-7.7 6.1 2.8 8.1 4.1 8.1 5 .1.9-.5 1.3-3.2 1.3zm29.7 34.9c0 5 .2 10.1.2 15.1 0 2.1-.6 3.7-1.7 4.8-1.4 1.4-3.7 2.1-6.4 2.1-1.4 0-1.4-.1-1.7-1.6-.5-2.8-2.3-3.7-8.8-5.2-.3-.1-.3-1.1.1-1.1 3.2.2 7.7.5 10.2.5 1.2 0 1.5-.3 1.5-1.4V27.6h-15c-1.3 0-2.6.1-4.4.4l-.8-2.6c2.1.4 3.6.6 5.2.6H565c3.5-3.9 4.3-4.5 4.8-4.5.6 0 1.4.6 4.6 3.1 1.4 1.2 2 1.8 2 2.3 0 .5-.2.7-.9.7h-12.8v16.1zm-1.2-34.3c3.4-3.9 4.3-4.4 4.8-4.4.6 0 1.4.6 4.7 3.1 1.4 1.2 2 1.7 2 2.2 0 .5-.2.7-.9.7h-28.4c-1.4 0-2.7.1-4.5.4l-.8-2.6c2.1.4 3.7.6 5.2.6h17.9zM596.3 63.7c0 1.9-1.3 2.7-3.9 2.7-2 0-2.8-.6-2.8-2.4 0-4.3.4-10.2.4-30.6 0-10.2-.1-20.4-.5-30.6 3.6 1.4 4.1 1.7 7.3 3.5h12.1c2.3-2.7 2.9-3.1 3.4-3.1.7 0 1.2.4 3.7 2.4 1.1.9 1.5 1.4 1.5 1.9 0 .6-.5 1.1-2 2.1v2.6c0 6.7.1 11.4.1 12.9 0 1.6-1.3 2.3-3.7 2.3-1.8 0-2.5-.6-2.5-2v-1.3h-13.2v39.6zm13.2-55.9h-13.2v6.3h13.2V7.8zm-13.2 14.6h13.2v-6.7h-13.2v6.7zM615 45.5c-1.2 10.6-5.2 15.2-14 19.1-.3.1-.8-.3-.5-.6 5.7-5.7 7.8-9.9 8.5-18.6h-3.6c-1.7 0-3.3.1-5.5.4l-.8-2.6c2.4.4 4.3.6 6.1.6h3.9c.1-2 .1-4.1.1-6.6v-3h-2.4c-1.4 0-2.8.1-4.6.4l-.8-2.6c2.1.4 3.6.6 5.2.6h22.2c2.6-3.1 3.5-3.7 3.9-3.7.6 0 1.4.6 3.8 2.6 1 .9 1.6 1.5 1.6 2s-.2.7-.9.7h-8.8V44h1.7c3-3.6 3.9-4.1 4.3-4.1.6 0 1.3.6 4 2.9 1.1 1 1.7 1.7 1.7 2.1s-.2.7-.9.7h-10.8c.1 6.3.3 13.5.3 15.9 0 1.9-1.4 2.6-3.7 2.6-1.9 0-2.8-.6-2.8-2.1 0-1.3.3-5.5.3-13.6v-2.8H615zm7.6-1.5v-9.7h-7.1c0 3.2-.1 6.4-.3 9.7h7.4zm5.7-19.2c0 1.7-1.2 2.5-3.5 2.5-1.9 0-2.7-.6-2.7-2.1 0-2.4.1-4.9.1-14.8 0-2.6-.1-5.2-.3-7.8 3.4 1.4 3.9 1.7 7 3.5h12.7c2.4-2.7 3-3.1 3.5-3.1.7 0 1.2.4 3.8 2.5 1.2 1 1.6 1.5 1.6 2.1 0 .7-.4 1.1-1.9 2v8.3c0 38.6.1 40.4.1 42.3 0 2.2-.7 3.8-2.1 4.8-1.2.9-3 1.3-5.3 1.3-1.3 0-1.4-.1-1.7-1.6-.4-2.4-1.9-3.8-6.6-5-.3-.1-.3-.8 0-.8 3.9.3 5.5.3 8.3.3.7 0 .8-.2.8-1V23.9h-14v.9zm14-17h-14v6.3h14V7.8zm-14 14.6h14v-6.7h-14v6.7zM690.4 13.9h-20c-1.6 0-3.2.1-5.2.4l-.8-2.6c2.4.4 4.2.6 6 .6h20c-.1-4.6-.1-7-.5-9.5 8.1.8 8.8 1 8.8 2.1 0 .7-.6 1.1-2.2 1.8v5.5H713c3.2-3.9 4.1-4.4 4.6-4.4.6 0 1.4.6 4.8 3.1 1.5 1.2 2.1 1.7 2.1 2.2 0 .5-.2.7-.9.7h-27v7.3h12.8c2.4-2.8 3-3.2 3.5-3.2.7 0 1.2.4 3.9 2.6 1.2 1 1.6 1.5 1.6 2.1 0 .8-.4 1.2-2.1 2.3v3.2c0 8.3.3 14.1.3 16 0 1.7-1 2.6-3.9 2.6-1.7 0-2.6-.6-2.6-2.2v-1h-13.3c0 2.7.1 5.3.1 8H714c3.3-4.1 4.1-4.6 4.6-4.6.6 0 1.4.6 5 3.2 1.7 1.2 2.2 1.8 2.2 2.3 0 .5-.2.7-.9.7h-28.4c.1 5.2.1 9 .1 11.1 0 1.8-1.3 2.6-4 2.6-2 0-2.9-.7-2.9-2.3 0-2 .1-5.7.2-11.4h-20.6c-1.6 0-3.2.1-5.3.4l-.8-2.6c2.4.4 4.2.6 6 .6h20.6c0-1.7.1-5.3.1-8h-12.5v1.2c0 1.9-1 2.7-3.9 2.7-1.9 0-2.6-.8-2.6-2.2 0-3.3.3-6.8.3-20.2 0-2.3-.1-4.8-.3-7.2 3.4 1.4 3.9 1.6 7.2 3.4H690v-7.3zm-12.7 8.9v8.4h12.6c.1-1.7.1-3.5.1-5.1v-3.3h-12.7zm12.5 19.1c.1-2.7.1-6.8.1-9.1h-12.6v9.1h12.5zm6.2-19.1c0 2.8 0 5.6.1 8.4h13.4v-8.4h-13.5zm13.5 19.1v-9.1h-13.4c0 2.2 0 6.4.1 9.1h13.3zM735.2 65.3l26.6-62.6 2.7 1.2-26.6 62.5-2.7-1.1zM120.5 289.5c3-1 6-2.2 8.8-3.5.3-.1.7.6.3.9-5.7 4.2-11.7 7.6-18.1 10.3-.2 2.1-.6 2.8-1.3 2.8-.8 0-1.6-1.1-3.7-7 1.4-.2 2.8-.4 4.6-.8 1.4-.3 3-.8 4.6-1.2v-23.3H111c-1.3 0-2.2.1-3.8.4l-.7-2.7c1.7.4 2.8.6 4.3.6h4.8v-7.1c0-6.3 0-9.5-.3-12.4 6.6.7 7.5 1.2 7.5 2 0 .6-.4 1-2.4 1.9V266h2.6c2-2.9 2.5-3.2 2.9-3.2.5 0 1 .3 3.3 2.4 1 1 1.3 1.5 1.3 1.9s-.2.6-.9.6h-9.2v21.8zm30.7-22.1c.1 15.5.3 22.8.3 25.3 0 1.7-1 2.4-3.2 2.4-1.4 0-2.1-.6-2.1-1.9.1-4 .2-9.2.3-24l-8.4 3v26.2c0 3.2 1.2 3.4 10.4 3.4 11 0 13.5-.4 14.7-1.4 1.2-1 2.3-3.3 3.9-9.1.1-.4.9-.3.9.1-.1 2.1-.3 5-.3 6.7 0 1.2.2 1.5 1.2 1.9 1 .4 1.4 1 1.4 2 0 1.4-.9 2.4-3.1 3.2-3 .9-7 1.2-17.2 1.2-14.6 0-16.6-1.4-16.6-7.6 0-7.9.1-14.2.1-25l-3.5 1.3c-1.6.6-2.9 1.2-4.2 1.9l-1.5-2.2c2.3-.4 3.5-.8 5.1-1.3l4.1-1.5v-1.8c0-10.6-.1-14.3-.4-17.3 6.1.6 7.4 1.1 7.4 2 0 .6-.3 1-2.2 1.9v13.5l8.4-3.1v-5.4c0-10.3 0-13.2-.3-16.4 6.4.8 7.2 1.1 7.2 2 0 .5-.3.9-2.2 1.7v16.3l8.8-3.2c1.5-2.6 1.9-2.9 2.3-2.9.4 0 1 .3 3.5 2.1.9.6 1.2 1 1.2 1.6 0 .6-.3.9-1.7 1.9-.1 9.4-.6 16-1.4 19.8-.6 2.3-1.2 3.8-2.3 4.7s-2.5 1.4-3.9 1.4c-1 0-1.2-.3-1.3-1.4-.3-2.1-.8-2.6-4.5-3.9-.4-.1-.2-1 .2-.9 2.5.3 4.3.4 5.5.4 1.2 0 1.7-.7 2-2.8.7-3.9.9-10.2 1-18.4l-9.6 3.6zM214 263.1c12.1 3 19.1 7.9 19.1 12.6 0 1.9-1.1 3.3-2.8 3.3-1.4 0-2-.5-4.2-3.9-3-4.4-6.6-7.6-12.1-10.6v19.1c0 13.8.3 18.4.3 21.7 0 1.7-1.2 2.3-3.5 2.3-1.7 0-2.4-.6-2.4-1.9 0-1.5.3-8.8.3-21.9V252h-19.3c-2.2 0-3.8.1-6 .4l-.7-2.6c2.7.3 4.5.4 6.8.4H233c3.8-4.3 4.3-4.6 4.7-4.6.5 0 1 .3 4.7 3.4 1.7 1.4 2.1 1.9 2.1 2.3 0 .5-.3.7-1 .7H214v11.1zM301.9 295.2c5.7 0 7-.4 8.3-1.5 1.7-1.4 2.6-3.2 3.7-5.4.2-.5.4-.6 1.1-.3.6.2.8.4.7.8-.9 3.5-2.3 8.4-3.5 12-4.4-.2-8.3-.2-12.8-.2s-8.4 0-12.8.2c-.6 0-.8-.1-.8-1.2 0-1.1.1-1.2.5-1.8 3.9-6.4 6.4-10.1 12.1-17.4 5.7-7.3 8.9-11 8.9-17.3 0-5.5-2.3-9.6-6.6-9.6-3.2 0-5 1.8-5.9 3.9-.5 1-.7 2.8-.7 5 0 1.9-2.4 3.1-4.7 3.1-1.4 0-2.6-.6-2.6-2.5 0-4.3 5.5-11.6 13.9-11.6 8.5 0 13.3 5.4 13.3 12 0 8.6-5.6 11.9-12.1 18.4-7.2 7-9.3 10.1-11.4 13.5h11.4zM341.3 296c3.2 2.7 4.5 5.2 4.5 7.7 0 2.1-1.4 3.8-3.6 3.8-1.9 0-2.6-1.3-3.4-3-2.2-5.7-5.3-9.3-10.2-12.3-.3-.2-.3-.5-.3-.8 0-.4.3-.7.8-.7 4.7.9 9.1 2.8 12.2 5.3zM384.3 274.6c7.5 1.4 11.9 5.9 11.9 12.6 0 9-5.9 14.7-14.8 14.7-4.3 0-7.2-1.2-9.5-2.7-2.1-1.3-4.3-3.4-4.3-5.6 0-1.7 1.7-3 4.4-3 2.1 0 2.9 3.4 3.7 5.2.8 1.9 2.3 3.9 5.6 3.9 5.1 0 8.1-4.8 8.1-12.7 0-4.8-2.1-11.6-9.4-11.1-.8.1-2.2.2-2.8.2-.7 0-1-.1-.8-1.3.3-1.2.7-1.5 1.4-1.5s1.6.2 2.3.2c3.9 0 8.1-3.2 8.1-10.6 0-5.2-2-9.5-6.4-9.5-2.3 0-4.3 1-5.3 3-.6 1.2-.7 2.3-.7 3.5 0 2-2.1 3.4-4.6 3.4-1.6 0-2.5-.7-2.5-2.1 0-4 5.2-9.9 13.1-9.9 7.1 0 12.8 4.3 12.8 11.6 0 7-5.1 10.1-10.3 11.5v.2zM451 268.9c4.8 2.1 7.5 5.2 7.5 7.9 0 1.6-.9 2.8-2.1 2.8-1 0-1.4-.6-1.9-2.3-.7-2.6-1.7-5-3.6-7v1.4c0 19.7.3 32.2.3 35 0 1.4-1.2 1.9-3 1.9-1.4 0-2.1-.5-2.1-1.7 0-2.3.4-12.6.6-32.2-2.5 7.2-5.4 12.2-10.1 17.5-.2.3-.8-.1-.7-.4 4.8-8.7 8.2-18.4 9.9-28.8h-3.6c-1.2 0-2.3.1-4.2.4l-.7-2.6c1.9.4 3.2.5 4.8.5h4.3v-5.8c0-5.5-.1-7.6-.4-10 6.3.6 7.2 1 7.2 1.8 0 .6-.5 1.1-2.2 1.9v12.1h1c1.9-2.7 2.2-3 2.6-3s.8.3 2.6 2.3c.7.8 1 1.4 1 1.8s-.2.6-.9.6H451v5.9zm40.3 3.1c1.7-1.7 2.1-1.9 2.5-1.9.5 0 1 .3 2.8 1.7 1 .8 1.2 1.1 1.2 1.6 0 .4-.3.8-1.7 1.7v1.2c0 3.4.2 4.9.2 5.2 0 1.4-.7 1.9-2.6 1.9-1.4 0-1.9-.4-1.9-1.6v-.7H474c4.1 1.2 5 1.6 5 2.3 0 .6-.5 1-2.5 1.4-.6 1-1.2 2.1-1.8 3.2h18.6c2.5-2.8 3-3.2 3.4-3.2.5 0 1 .3 3.5 2.6 1 .9 1.4 1.2 1.4 1.7s-.2.7-.9.7h-9.9c-1.5 3-3.4 5.7-5.7 8.1 7.7 2 12.1 4.8 12.1 7.7 0 1.2-.8 2.2-2.1 2.2-.9 0-1.2 0-3.6-1.8-2.6-1.9-5.8-3.8-9.5-5.4-6.2 4.6-14.6 6.7-25.4 7.5-.3 0-.5-.8-.1-.8 8.9-1.7 16.1-4.1 21.5-8.2-2.8-1-5.6-1.9-8.5-2.6-.6.9-1.3 1.8-1.9 2.6-.7.8-1.2 1-2.1 1.1-1.3 0-2.7-.8-2.7-1.5 0-.3.1-.6.4-1 2-2.5 3.9-5.3 5.7-7.9H462c-1.7 0-3 .1-5 .4l-.7-2.6c2.2.3 3.7.5 5.7.5h7.8c.7-1.2 1.3-2.2 1.8-3.2.8-1.4 1.2-2.6 1.4-3.6h-7.1v1.1c0 1.4-.8 2-2.5 2-1.4 0-1.9-.3-1.9-1.5 0-.8.1-1.9.1-6.5 0-2.7-.1-4.3-.4-7 2.2 1 3 1.6 5.1 2.7h9.9v-4.6H467c0 1.4-.8 2-2.5 2-1.4 0-1.9-.5-1.9-1.7 0-1 .2-2.5.3-7.5h-1c-1 0-1.9.1-3.4.4l-.7-2.6c1.6.3 2.4.5 4.1.5h1v-.6c0-3.9-.1-6.1-.3-9 2.2.9 2.9 1.4 5 2.6h8.7c0-2-.1-4-.4-6.6 6.1.6 6.8 1.1 6.8 1.8 0 .6-.5 1-2.1 1.7v3.2h9.2c1.8-2.1 2.2-2.3 2.6-2.3s.8.2 2.4 1.8c1 1 1.3 1.4 1.3 1.9s-.2.8-1.7 1.7v3.9h1.2c1.7-2.3 2.1-2.7 2.6-2.7s.8.3 3 2.3c.6.6 1 1.1 1 1.4 0 .5-.3.7-1 .7h-6.8c.1 4.2.2 6.4.2 7 0 1.4-1 1.9-2.8 1.9-1 0-1.7-.4-1.7-1.6v-.3h-9.7v4.6h10.9zm-25.4 1.7v5.7h10.3v-5.7h-10.3zm1.1-20.4v5.2h9.2v-5.2H467zm0 7v5.4h9.2v-5.4H467zm6.7 29.4c-1.2 1.9-2.3 3.7-3.6 5.6 4.3.4 7.3.8 10.3 1.4 2.1-2.1 3.7-4.4 5-7h-11.7zm6.9-31.1h9.7v-5.2h-9.7v5.2zm0 7.1h9.7v-5.4h-9.7v5.4zm0 13.8h11.1v-5.7h-11.1v5.7zM527.8 293.4c1.6 2.9 3.5 4.6 6.1 5.7 3.1 1.3 7.9 2.3 18.4 2.3 6.9 0 15.5-.6 24.8-1.7.3-.1.3.7.1.8-1.6.9-2.1 1.5-2.3 3.1-.1 1.6-.3 1.7-1.8 1.9-4.1.3-11.9.5-17.5.5-13 0-19-1.3-22.8-3.7-2.9-1.9-5-4.8-6.6-9.2-2.4 3.9-4.8 6.6-7.9 9.8.1 2.3-.2 3-1 3s-1.9-1.4-4.6-7c1.4-.4 3-1 4.6-1.8 1.7-.8 3.6-2 5.7-3.7v-17.9h-4.7c-1.8 0-3 .1-4.6.6l-.7-2.8c2.1.4 3.4.6 5.3.6h4.2c2.2-2.4 2.6-2.7 3-2.7.5 0 .9.3 3.1 2.2 1.1 1 1.3 1.4 1.3 1.8 0 .5-.2.7-1.9 1.9v16.3zm-5.6-36.4c-1-3.2-2.6-6.1-5.5-9-.3-.3.2-.7.6-.6 7.1 2.3 10.4 6.1 10.4 9.2 0 1.9-1 3.4-2.8 3.4-1.3 0-2-.6-2.7-3zm43.6 9.4c3.1-3.7 3.6-4 4-4 .5 0 1 .3 4.2 2.9 1.5 1.3 1.9 1.8 1.9 2.2s-.3.6-1 .6h-13v12.4c0 7.2.3 13.6.3 15.6 0 1.4-1 2.1-3.2 2.1-1.6 0-2.3-.6-2.3-1.7 0-1.4.2-6.3.2-15.5v-13h-13c-.3 5.8-.9 10.2-2.1 14.3-1.7 5.7-4.3 10-8.6 14.1-.3.3-1-.2-.8-.6 2.6-4.3 4.2-8.6 5.3-14.1 1-4.8 1.2-9.8 1.2-16.6 0-7.7-.1-9.7-.5-12.7 2.6 1 3.8 1.7 6.2 2.9 6.7-1.8 12.8-4.4 17-7 2-1.2 3-2.1 4.1-3.1 4.8 3.2 5.9 4.3 5.9 5.1 0 .6-1 1-3.6.6-7.7 3.2-14.6 5-23.9 6.1v5c0 1.4-.1 2.8-.1 4.1h21.8zM622.6 271.5c-.1 1-.2 2.2-.3 3.6 2.4-2.8 5.5-4.2 9.7-4.2 8.1 0 13.4 5.9 13.4 14.8 0 9-5.5 16.3-14.9 16.3-3.5 0-6.7-1-8.9-2.3-2.2-1.2-4.6-3.4-4.6-5.7 0-1.4 1.7-2.8 4.3-2.8 2.2 0 3 3.3 3.9 5 .9 2 2.6 3.7 5.3 3.7 5.7 0 8.1-6.1 8.1-14.1 0-7.8-3.9-12.3-8.2-12.3-4 0-6.4 1.9-8.3 5-.4.7-.8.8-1.9.3-.9-.4-.9-.8-.8-1.4.1-.6.2-1.3.3-1.9l1.9-21.5c0-.3.1-.6.4-.9.3-.3.5-.4.8-.4 2.6.1 6.5.1 10 .1 2.6 0 6.6-.1 11-.3.4 0 .6.2.6.6l-1.7 5c-.1.3-.4.5-.7.5-2.8-.1-4.8-.1-7.5-.1h-10.8l-1.1 13zM686.6 276.5c0 15.6-5.3 25.5-14.1 25.5-9 0-14.3-9.5-14.3-25 0-15.8 5.5-25.6 14.3-25.6 8.7-.1 14.1 9.8 14.1 25.1zm-21.7.2c0 14.1 1.6 23.1 7.5 23.1 5.8 0 7.4-9 7.4-23.1 0-14.1-1.5-23.3-7.4-23.3-5.9.1-7.5 9.2-7.5 23.3zM727.3 276.5c0 15.6-5.3 25.5-14.1 25.5-9 0-14.3-9.5-14.3-25 0-15.8 5.5-25.6 14.3-25.6 8.7-.1 14.1 9.8 14.1 25.1zm-21.6.2c0 14.1 1.6 23.1 7.5 23.1 5.8 0 7.4-9 7.4-23.1 0-14.1-1.5-23.3-7.4-23.3-6 .1-7.5 9.2-7.5 23.3zM782.9 268.2c5.7 2.3 8.6 5.5 8.6 8.5 0 1.6-1.1 2.8-2.5 2.8-1.1 0-1.7-.6-2-2.1-.7-3.3-1.8-5.7-4.1-8v1.1c0 22.4.3 33.2.3 35.8 0 1.3-1.1 2.1-3 2.1-1.4 0-2.1-.6-2.1-1.8 0-2.4.3-12.4.6-33-2.7 7.9-6 13-10.5 18.5-.3.3-1-.3-.8-.6 4.6-7.7 8.6-19.2 10.3-29.1h-4.1c-1.4 0-2.5.1-4.4.3l-.7-2.6c2 .3 3.2.5 5 .5h4.8v-7c0-4.2-.1-6.3-.3-8.8 6.4.8 7.5 1.2 7.5 2.1 0 .6-.6 1.1-2.6 1.9v11.7h3.1c1.9-3.1 2.4-3.5 2.8-3.5.5 0 .9.3 3.3 2.7 1 .9 1.2 1.4 1.2 1.8 0 .5-.2.7-.9.7h-9.6v6zm12.9 16.1c-2.8 1.3-5.7 2.5-8.7 3.5-.5.1-.8-.8-.4-1 9-4.8 16.2-10 21.8-15.9-2.8-3.4-5.1-7.2-7-11.3-3 4.6-6.4 8.6-10.6 11.7-.3.3-1-.4-.7-.8 4.4-5.3 8-11.9 10.1-17.8 1-2.9 1.8-5.7 2-8.1 5.7 1.7 7.1 2.3 7.1 3.2 0 .7-.6 1.1-2.6 1.3-.8 1.9-1.6 3.6-2.5 5.3h13.8c2.3-2.3 2.6-2.7 3-2.7.5 0 .9.3 3.3 2.5 1.1 1.1 1.4 1.4 1.4 1.9 0 .7-.4 1-2.4 1.6-2.6 5.2-5.9 9.7-9.8 13.8 6.1 4.6 12.6 7.2 19.5 8.6.3.1.2.6-.1.7-1.7.8-2.5 1.5-3 3.4-.1.6-.4.9-.9.9s-1.2-.3-2.6-.8c-5-2.3-10.1-5.5-15.4-10.3-4 3.6-8.4 6.6-13.2 9.1 1 .4 1.7.9 2.9 1.7h17.7c1.9-1.9 2.2-2.1 2.6-2.1.5 0 .9.3 3 1.9 1.1 1 1.3 1.3 1.3 1.7s-.3.9-1.6 1.8v4.5c0 8.1.3 12.3.3 13.5 0 1.4-1 2.1-3 2.1-1.4 0-2.1-.6-2.1-1.8v-2.6h-18.7v2.5c0 1.4-.9 2.1-2.9 2.1-1.4 0-2.1-.7-2.1-1.7 0-1.5.2-4.2.2-13.5v-8.9zm23.5 2.2h-18.7V302h18.7v-15.5zm-15.7-30.3c-.3.7-.8 1.4-1.1 2 2.1 3.9 4.8 7.5 8 10.6 3.3-3.9 6-8 8.1-12.6h-15zM855.6 279.9c0 16.3.1 23.9.1 26.2 0 1.7-1 2.4-3 2.4-1.7 0-2.3-.6-2.3-2.1s.3-6.4.5-22.4c0-4.4 0-8.8.1-13.2-2.2 3.3-4.7 6.3-7.5 9.1-.3.3-1-.3-.8-.7 5.5-7.9 9.9-18.8 11.9-27.9.5-2.1.8-4.2 1-6.2 6.6 1.8 7.5 2.1 7.5 3 0 .7-.6 1-2.7 1.4-1.8 6.3-4.1 12-7 17.1 3.7.6 4.3.8 4.3 1.6 0 .6-.3 1-2 1.7v10zm43.7-2.8c2.1-2.4 2.4-2.7 3-2.7.5 0 1 .3 3.7 2.6 1.2 1.2 1.5 1.6 1.5 2.1 0 .8-.6 1.2-2.5 1.2-.8 0-1.2.2-2 .8-1.2 1-2.6 1.8-4.1 2.6.3.2.7.5 1.1.8 1.2 1 1.5 1.4 1.5 1.9 0 .4-.3.7-.9.7h-14.7v7.2c0 4.3.1 6.9.1 8.3 0 1.9-.8 3-1.9 3.9-1 .9-2.8 1.5-5 1.5-.7 0-.9-.2-1.1-1.2-.3-1.7-1.2-2.6-7.4-3.9-.4-.1-.4-1.1 0-1 4.3.4 6.9.5 9 .5.8 0 1.1-.3 1.1-1.2v-14h-11c-1.3 0-2.3.1-3.9.4l-.7-2.6c1.9.4 3.1.5 4.7.5h23c2.6-2.9 3.1-3.2 3.5-3.2.3 0 .7.2 1.8 1 .8-1.7 1.2-2.7 1.6-4.3h-35.3c.1 4.3-1.9 7.2-4.5 7.2-1.4 0-2.3-1-2.3-2.5 0-1.2.3-1.7 2.3-2.8 1.9-1.2 3-3.3 3.2-6.1 0-.3.7-.5.8-.1.3.9.4 1.8.6 2.6h34.8zm-1.9-23.3c2.7-3.5 3.2-3.9 3.7-3.9.4 0 1 .3 3.9 2.9 1.4 1.2 1.7 1.6 1.7 2s-.3.7-.9.7h-38.6c-1.7 0-3 .1-4.9.4l-.7-2.6c2.2.3 3.7.5 5.6.5h12.6v-4.1c0-1.4-.1-2.6-.3-4.8 6.8.7 7.5 1.2 7.5 2 0 .5-.5 1-2.3 1.7v5.1h12.7zm-26.1 18.1c0 1.4-1 2.1-2.7 2.1-1.4 0-2.1-.5-2.1-1.8 0-.7.1-1.9.1-6.3 0-3-.1-5.1-.3-7.5 2.4 1 3.4 1.4 5.5 2.5h21.3c2-2.1 2.4-2.4 2.8-2.4s.9.3 2.8 1.9c1.1.8 1.3 1.3 1.3 1.7 0 .5-.3.8-1.7 1.8v1.7c0 4 .1 5.7.1 6.2 0 1.4-.9 2.1-2.8 2.1-1.5 0-2.1-.5-2.1-1.7v-.5h-22.3v.2zm22.3-9.4h-22.3v7.5h22.3v-7.5zM947 255.7h-20.7c-1.9 0-3.2.1-5.2.4l-.8-2.6c2.3.4 3.9.5 5.9.5H947c-.1-5.5-.1-7.2-.4-9.2 6.8.8 7.5 1 7.5 2 0 .6-.4 1-2.3 1.8v5.5h18.9c3-3.5 3.4-3.8 3.9-3.8s1.1.2 4.2 2.8c1.5 1.2 1.7 1.7 1.7 2.1s-.2.6-.9.6h-27.8v7.2h14.4c2-2.3 2.4-2.6 2.8-2.6.4 0 .8.3 3.2 2.2 1.1.9 1.3 1.3 1.3 1.7 0 .6-.3 1-2 2.2v4.8c0 9.2.3 13.6.3 14.9 0 1.5-.9 2.2-3.1 2.2-1.4 0-2-.5-2-1.9v-1.2h-14.9c0 2.6.1 5.3.1 7.9h19.9c2.8-3.5 3.5-3.9 3.9-3.9.5 0 1 .3 4.4 2.8 1.5 1.2 1.8 1.7 1.8 2.1s-.2.6-.9.6h-29c.1 6.3.1 9.8.1 11.5 0 1.6-1.1 2.3-3.3 2.3-1.6 0-2.2-.6-2.2-2 0-1.5.1-4.9.2-11.7h-21.4c-1.8 0-3.2.1-5.2.4l-.7-2.6c2.3.4 3.9.5 5.9.5h21.4c.1-2 .1-5.2.1-7.9H933v1.4c0 1.7-.9 2.3-3 2.3-1.6 0-2.1-.6-2.1-1.7 0-2.3.3-5.6.3-17.5 0-4.8-.1-7-.3-9.8 2.5 1 3.5 1.5 5.9 2.8H947v-7.1zm-14 9v8.4h14v-8.4h-14zm13.9 19c0-2.1 0-4.1.1-8.8h-14v8.8h13.9zm4.9-10.6h15v-8.4h-15v8.4zm15 10.6v-8.8h-15c0 1.3 0 4.3.1 8.8h14.9zM1006.5 305.8c0 1.7-.9 2.4-2.9 2.4-1.8 0-2.3-.6-2.3-2.1 0-1.4.2-6.3.3-22.4.1-4.6.1-9 .1-13.5-2.4 3.4-5 6.4-8.1 9.2-.3.3-1-.3-.8-.7 5-6.6 9.5-16.1 11.9-24.8.9-3.2 1.5-6.2 1.8-9 6.4 2 7.7 2.6 7.7 3.3 0 .8-.8 1.2-2.7 1.4-2.2 6.3-4.6 11.8-7.4 16.6 3.6.7 4.2 1 4.2 1.7 0 .5-.3.9-2 1.7v36.2zm41.1-3.1c3.4-4.3 3.9-4.6 4.3-4.6.6 0 1 .3 4.4 3.4 1.6 1.4 1.9 1.9 1.9 2.3 0 .5-.2.7-.9.7h-42.4c-1.9 0-3.2.1-5.2.4l-.7-2.6c2.3.3 3.9.5 5.8.5h17.8c2.9-8.3 6.1-19.9 7.5-27.9.5-2.9.8-5.4 1-7.2 7.3 2.1 8.1 2.4 8.1 3.2 0 .9-.6 1.2-2.6 1.7-4.6 14-7 21-11.9 30.2h12.9zm-1-41c3-3.7 3.5-4.1 3.9-4.1.5 0 1 .3 4.2 3.1 1.4 1.2 1.8 1.6 1.8 2s-.2.7-.9.7H1017c-1.7 0-2.8.1-4.6.4l-.7-2.6c2.1.3 3.4.5 5.3.5h12.4v-9c0-2.9-.1-4.8-.3-7.2 7 .8 7.8 1.3 7.8 2.1 0 .5-.6 1-2.3 1.9v12.1h12zm-25.1 29.6c-.2-7.9-1.5-15.2-4.1-22.2-.1-.3.6-.6.8-.3 5.6 6.8 9.1 15.1 9.1 20.8 0 3.2-1.4 5.6-3.4 5.6-1.7-.1-2.4-1.1-2.4-3.9zM312.5 374c2.3-3 2.8-3.4 3.2-3.4s1 .3 3.7 2.6c1.1 1 1.4 1.4 1.4 1.9s-.2.6-.9.6h-27.3c-1.6 0-3 .1-4.7.4l-.7-2.7c1.9.4 3.3.6 5.2.6h8.6v-3.2c0-1.5-.1-2.8-.2-5 6.4.7 7.2 1.2 7.2 1.9s-.5 1.2-2.1 1.9v4.6h6.6zm-8.4 29.9c-1.1 3.2-2.4 6.5-4.1 9.5 2.6-.1 5.1-.4 7.7-.8-.6-1.9-1.3-3.6-2.2-5.1-.1-.2.2-.6.4-.4 3.8 2.5 6.2 5.7 6.2 8.3 0 1.4-.8 2.5-1.9 2.5-1.3 0-1.6-.3-2-3.3-.1-.3-.1-.4-.1-.6-3.2 1.7-5.7 2.5-9 3.5-.5 1.6-.8 1.9-1.4 1.9-.7 0-1-.3-2.2-5.9 1.2.1 1.8.1 2.3.1h.6c1-3.1 1.7-6.3 2.3-9.6h-7.3v8.3c0 11.9.1 13.8.1 15.2s-.8 2.1-2.7 2.1c-1.4 0-2-.7-2-1.9 0-2.4.2-6.8.2-16.4 0-6.3-.1-8.3-.3-11.5 2.3.9 3.2 1.3 5.2 2.4h7c.1-.6.2-1.3.3-1.9.3-1.9.4-3.6.5-5.3h-6.3v.9c0 1.2-.8 1.9-2.6 1.9-1.2 0-1.8-.4-1.8-1.6.1-1.3.2-3.9.2-9.2 0-4.6 0-6.5-.3-8.9 5.2.6 6 .8 6 1.6 0 .5-.3 1-1.6 1.6v12.1H312V384c0-2.1 0-3.3-.2-6.1 5.2.6 6 .9 6 1.6 0 .5-.3 1-1.7 1.5v3.8c0 5.7.1 9.5.1 11.2 0 1.4-.8 1.9-2.6 1.9-1.3 0-1.7-.4-1.7-1.6v-1.4H302c4.3.8 5.7 1.3 5.7 2.1 0 .6-.5.8-1.9 1.2-.3 1.4-.8 2.7-1.2 4h8.6c1.4-1.7 1.9-2.3 2.4-2.3s.9.3 2.6 1.8c1.2 1 1.4 1.4 1.4 1.9s-.2.8-1.7 1.8v4.7c0 7.2.2 11.6.2 14.1 0 1.6-.8 2.8-1.9 3.6-.9.6-2.1 1-3.3 1-.8 0-1-.2-1.3-1.6-.3-1.4-1.4-2.2-6.3-3.1-.3-.1-.3-.8.1-.8 4.3.3 5.9.4 7.2.4.9 0 1.1-.3 1.1-1v-18.8h-9.6zm5.6-14.3c0 1-.6 1.8-1.4 1.8-.8 0-1-.3-2.1-1.7-.8-1.1-1.6-2.1-2.5-3.1-2.1 2.1-4.6 3.8-7.2 5-.3.1-.6-.4-.4-.6 2.3-1.9 4.2-4.1 5.8-6.3-1.3-1.2-2.8-2.4-4.5-3.6-.2-.1 0-.6.3-.6 2.1.8 3.9 1.6 5.4 2.4.3-.3.5-.7.8-1.2 1-1.7 1.7-3.2 1.9-4.5 4.2 1.9 4.7 2.2 4.7 2.7 0 .6-.6.9-2.1 1-.8 1.2-1.6 2.5-2.6 3.6 2.6 1.8 3.9 3.5 3.9 5.1zm17.9 37.6c0 1.4-.9 2.2-2.8 2.2-1.4 0-2-.6-2-1.8.1-6.6.3-13.3.3-32.5 0-3.6.1-7.2.1-10.8-1.4 1.9-3.1 3.7-4.8 5.2-.3.3-1-.2-.8-.6 3-4.1 5.9-11 7.5-17 .8-2.4 1.2-4.6 1.2-6.3 5.9 1.4 7 1.9 7 2.8 0 .7-.6 1-2.6 1.3-1.2 3.5-2.7 6.7-4.3 9.6l.1.1h8.6c1.1-3 2.1-5.9 2.7-8.4.5-1.9.8-3.5 1-4.8 5.2 1.5 6.6 2.1 6.6 3 0 .8-.5 1-2.4 1.3-2 3.5-3.7 5.9-6 8.9h5.5c2.4-3.1 2.8-3.4 3.2-3.4s1 .3 3.7 2.5c1.3 1.1 1.6 1.4 1.6 2 0 .4-.3.6-1 .6h-10.8V393h2.9c2-2.8 2.6-3.1 3-3.1s.9.3 3.5 2.3c1 .8 1.3 1.3 1.3 1.8 0 .4-.2.7-.9.7h-9.7V407h2.8c2.1-3 2.6-3.3 3-3.3.5 0 .9.3 3.5 2.5 1 .9 1.3 1.4 1.3 1.9 0 .4-.3.6-.9.6h-9.7V423h4.1c2.3-3.2 2.8-3.5 3.2-3.5s.9.3 3.5 2.7c1.2 1 1.4 1.4 1.4 1.9s-.2.7-.9.7h-23.1v2.4zm7.4-34v-11.9h-7.4v11.9h7.4zm0 13.8v-12.1h-7.4V407h7.4zm0 16v-14.3h-7.4V423h7.4zM371.2 387.2h-3.7c-1.2 0-2.3.1-3.9.4l-.7-2.6c1.8.3 2.9.5 4.4.5h3.8v-7.6c0-5.2-.1-8.4-.3-11 6.8.7 7.6 1.2 7.6 1.9 0 .5-.6 1-2.3 1.8v14.8h2.2c2.3-2.9 2.8-3.2 3.2-3.2.5 0 1 .3 3.4 2.4 1 .9 1.3 1.4 1.3 1.8s-.2.8-.9.8h-9.2v18.6c3-1.2 5.9-2.6 8.4-3.9.3-.1.7.6.4.8-4.7 4.1-10.1 7.9-17.5 11.9-.1 2.3-.5 3-1.2 3s-1.2-1-3.9-7.1c1.4-.2 2.6-.5 4.1-.9 1.5-.5 3.1-1.1 4.8-1.7v-20.7zm45.6 16.6c1.9-2.1 2.3-2.3 2.7-2.3s.8.3 3.1 2.1c1 .8 1.2 1.3 1.2 1.7s-.3.7-1.9 1.8c-.5 7.5-1.2 12.9-2.7 16.4-.8 2-1.9 3.4-3.2 4.1-1.4.8-2.9 1.1-4.6 1.1-.7 0-.9-.3-1.1-1.3-.3-1.7-1.4-2.6-6.4-3.9-.4-.1-.4-1 0-1 4.2.4 6.3.6 8.1.6 1.7 0 2.6-.9 3.4-3.9 1-3.3 1.4-7.2 1.8-13.6H413c-4.6 11.3-14.5 19.5-26.9 23.4-.4.1-.8-.7-.4-.9 9.9-5 18.2-13.3 22.1-22.5h-5c-4.4 7.9-12.7 14.2-22.6 17.5-.4.1-.8-.6-.4-.8 8.3-4.3 14.2-10.1 17.7-16.6h-5.2c-4.3 4.1-9.2 7.2-14.8 9.3-.4.1-.8-.7-.5-.9 6.1-3.7 11-8.4 13.9-13 .8-1.2 1.4-2.6 1.9-3.9H388c-1.7 0-3.2.1-5.2.4l-.7-2.6c2.2.3 3.9.5 5.8.5h29.3c2.7-3.2 3.2-3.6 3.6-3.6.5 0 1 .3 3.9 2.8 1.2 1 1.4 1.4 1.4 1.9s-.2.7-.9.7h-29.6c2.9.9 3.7 1.3 3.7 1.8 0 .6-.7 1-2.4 1.1-1 1.3-2 2.6-3 3.8h22.9zm-22.7-13.7c0 1.4-1 2.1-3 2.1-1.3 0-2.1-.4-2.1-1.7s.3-4.2.3-13c0-5.2-.1-7-.3-10.5 2.3 1 3.3 1.4 5.7 2.8h16.7c2.1-2.2 2.4-2.5 2.8-2.5.6 0 1 .3 3.2 2 1 .8 1.3 1.3 1.3 1.7 0 .6-.3 1-1.9 2.1v3.9c0 7.5.2 11.2.2 12.2 0 1.4-.9 2.1-3 2.1-1.5 0-2.1-.6-2.1-1.8v-.7h-17.7v1.3zm17.7-18.5h-17.7v6.8h17.7v-6.8zm-17.7 15.6h17.7v-7h-17.7v7zM445.2 417.9c0 1.4-1 2.1-2.9 2.1-1.7 0-2.1-.6-2.1-1.8 0-3.1.3-7.9.3-27.7 0-10.6-.1-15.8-.4-20.7 2.4 1 3.5 1.5 5.7 2.8h7.6c2-2.3 2.3-2.6 2.8-2.6s.9.3 3.2 2c1 .8 1.2 1.2 1.2 1.7s-.3.9-1.8 1.9v10.8c0 18.1.3 26.5.3 29 0 1.5-1 2.2-3 2.2-1.4 0-2.1-.5-2.1-1.7v-2.8h-8.8v4.8zm8.8-43.4h-8.8v17.2h8.8v-17.2zm-8.8 37.1h8.8v-18.3h-8.8v18.3zm20.2-8.9c-1.5 0-2.6.1-4.3.4l-.7-2.6c1.9.3 3.2.5 4.9.5h20.3v-.4c0-4.7 0-5.5-.4-7.9 6 .6 7.5 1 7.5 1.9 0 .6-.5 1-2.2 1.8v4.6h3.1c2.4-2.9 3-3.2 3.4-3.2s1 .3 3.5 2.4c1.1 1 1.4 1.4 1.4 1.9s-.2.7-.9.7h-10.4v6c0 7.3.2 11.7.2 14.1s-.5 3.5-1.9 4.6c-1.2 1-3.1 1.7-4.9 1.7-.6 0-.9-.3-1-1-.3-2.6-2-3.4-7.9-4.6-.3-.1-.3-.8 0-.8 4.3.3 7.2.4 9.2.4.9 0 1.3-.3 1.3-1.3v-19h-20.2zm10.6-23.8h-8.3c-1.3 0-2.3.1-4.1.4l-.7-2.6c1.9.3 3 .5 4.7.5h8.3v-3.8c0-3-.1-4.8-.3-7.1 6.8.7 7.6 1.2 7.6 1.9 0 .6-.5 1.2-2.3 1.9v7.1h8.6c2.6-3.2 3.2-3.5 3.7-3.5s1 .3 3.9 2.7c1.3 1 1.7 1.4 1.7 1.9 0 .4-.3.7-.9.7H481v10.4h11.6c2.7-3.3 3.2-3.7 3.6-3.7.5 0 1 .3 3.9 2.8 1.2 1 1.6 1.4 1.6 1.9 0 .4-.2.6-.9.6h-35.5c-1.4 0-2.5.1-4.2.4l-.7-2.6c1.9.4 3.1.5 4.8.5H476v-10.4zm-4.3 35.7c-1-3.3-2.3-5.7-4.8-7.9-.2-.2.2-.6.5-.6 6.3 1.9 9.6 5 9.6 8.1 0 2.1-1 3.5-2.8 3.5-1.2.2-1.8-.7-2.5-3.1zM566.1 401.3c0 15.9.2 19 .1 21.1 0 3-1.1 4.6-3.4 5.5-1.2.5-2.7.8-3.9.8-1.1 0-1.3-.2-1.5-1.4-.5-2.2-1.7-3-9-4.3-.5-.1-.5-1.1 0-1.1 4.9.3 8.8.5 11.3.5.9 0 1.2-.3 1.2-1.3V373h-41.3c-2.2 0-3.8.1-6 .5l-.7-2.6c2.6.3 4.4.4 6.7.4h45.9c3.4-4 3.9-4.3 4.3-4.3.5 0 1 .3 4.6 3.2 1.7 1.3 2 1.8 2 2.2s-.3.6-1 .6H566v28.3zm-38.5 9.6c0 1.7-.8 2.3-3 2.3-1.7 0-2.2-.6-2.2-1.8 0-1.4.2-5.9.2-15.2 0-7.1.1-9.7-.3-14.4 2.6 1 3.7 1.5 5.9 2.9h14.6c2.1-2.3 2.5-2.6 2.9-2.6.5 0 .9.3 3.2 2.2 1.1.8 1.3 1.2 1.3 1.7 0 .6-.3.9-1.8 1.9v5.2c0 9.7.2 14.4.2 15.9 0 1.7-1 2.3-3.2 2.3-1.6 0-2.1-.6-2.1-2.1v-3h-15.7v4.7zm15.8-24.5h-15.7v18.1h15.7v-18.1zM604.2 400.7c0 17.2.1 19.8.1 22.5 0 2.1-.7 3.5-1.7 4.5-1 .9-2.6 1.5-4.1 1.5-.8 0-1.1-.3-1.2-1.3-.3-2.2-1.1-2.9-6.6-4.1-.4-.1-.3-1 .1-1 3.8.3 5.9.3 7.4.3 1 0 1.2-.3 1.2-1.1v-19.6c-2 .8-4.1 1.6-6.5 2.4-.3 1.8-.7 2.4-1.4 2.4s-1.1-.5-2.9-6.8c1.7-.1 3.3-.4 5.4-.8 1.8-.3 3.6-.6 5.4-1.1V383h-5.7c-1.3 0-2.3.1-3.9.4l-.7-2.6c1.8.3 2.9.4 4.6.4h5.7v-2.1c0-9 0-10.5-.4-13.2 6.1.7 7.6 1.1 7.6 2.1 0 .6-.5 1.2-2.3 1.9v11.4h2.7c2.1-2.8 2.7-3.1 3.1-3.1s.9.3 3.3 2.5c1 .8 1.4 1.3 1.4 1.7s-.3.6-.9.6h-9.6v14.2c2.7-.8 5.5-1.7 8.7-2.9.3-.1.6.6.3.8-3.4 2-6.3 3.6-9 5v.6zm34.7 6.7c0 9.2.3 17 .3 19.5 0 1.5-1.1 2.3-3.2 2.3-1.6 0-2.3-.6-2.3-1.8 0-1.4.3-6.4.3-16.5v-20h-12c-.3 9.7-1.2 16.1-2.9 21.3-2.1 6.6-5.5 11.6-11.7 16.3-.4.3-1.2-.3-.9-.7 4.6-5 7.1-10.3 8.6-16.6 1.3-5.7 1.9-12.7 1.9-24.2 0-7.9-.1-10.3-.4-13.9 2.5 1.1 3.7 1.7 6.1 2.9 5.3-1.6 10.6-4.1 13.8-6.2 2.2-1.4 3.3-2.5 4.1-3.5 4.6 3.2 6.1 4.4 6.1 5.2 0 .9-1.2 1.2-3.4.6-7.2 3.1-13.7 4.7-21.2 5.5v6.3c0 1.9 0 3.6-.1 5.2h20.3c2.8-3.4 3.2-3.7 3.7-3.7s1 .3 3.9 2.8c1.4 1 1.7 1.5 1.7 1.9 0 .5-.2.7-.9.7h-11.9v16.6zM677.6 400.7c0 17.3.1 19.4.1 22.5 0 2.1-.6 3.4-1.5 4.3-.9 1-2.4 1.7-4.1 1.7-.8 0-1-.3-1.2-1.2-.3-2.2-1-3-6.3-4.1-.3-.1-.3-.9 0-.9 3.5.2 5.7.3 7.1.3.9 0 1.1-.3 1.1-1.1v-19.5c-1.7.8-3.5 1.4-5.2 2.1-.3 1.9-.7 2.4-1.3 2.4s-1-.4-3-6.7c1.8-.2 3.5-.5 5.3-.8 1.3-.3 2.7-.6 4.2-1v-15.5h-4.6c-1.2 0-2.2.1-3.8.4l-.8-2.6c1.8.3 2.9.5 4.6.5h4.6v-2.2c0-9 0-10.5-.3-13 6.1.6 7.5 1 7.5 1.9 0 .7-.4 1.2-2.3 1.9v11.5h1.9c2.2-2.9 2.8-3.2 3.2-3.2s.8.3 3 2.6c.8.8 1.2 1.3 1.2 1.7 0 .5-.2.7-.9.7h-8.4v14.2c2.8-.8 5.7-1.8 7.9-2.8.3-.1.6.6.3.8-2.6 1.8-5.5 3.4-8.3 4.8v.3zm10.9-16.8c0-5.5 0-8.1-.4-11.4 2.6 1.2 3.7 1.8 6.1 3.1 6.1-1.6 11.4-3.7 15.5-5.9 2.3-1.3 3.9-2.6 4.9-3.7 4.1 2.8 5.7 4.3 5.7 4.9 0 .6-.4 1-1.4 1-.6 0-1.2-.1-2.1-.3-3.3 1.4-7.2 2.6-11.3 3.4 5.2.6 5.7 1 5.7 1.7 0 .6-.3.9-2.1 1.6.1 4.7.2 8.6.6 12l6.8-.1c2.7-3.3 3.2-3.9 3.7-3.9s1.1.5 4.3 3.2c.8.7 1.1 1.1 1.1 1.5 0 .3-.3.6-1 .6l-14.7.3c.5 4.1 1.2 7.4 2.3 10.4 1.5 4.2 4 8.5 7.2 11.5 1.8 1.9 2.7 2.4 3 2.4.4 0 1.4-2.1 3.6-7.2.1-.3.8 0 .7.3-.8 4.1-1.2 6.7-1.2 7.5 0 .7.1 1.1.7 1.7.5.6.8 1.2.8 1.8 0 1.6-1 2.6-2.5 2.6-1.9 0-4.7-1.9-7-4.1-3.5-3.2-7.2-7.9-9.5-14.5-1.3-3.8-2.1-7.7-2.6-12.4l-11.9.3V412c4.3-1 8.6-2.4 12.7-4.1.4-.2.8.8.3 1-4.8 3.2-11.5 6.6-19.8 9.5-.3 1.8-.6 2.3-1.3 2.3-.6 0-1.4-1.4-2.9-6.8 1.4-.1 2.8-.3 4.6-.6.6-.1 1-.2 1.6-.3v-29.1zm-4.2 39.8c2.1.3 3.4.5 5.2.5H707c3-3.5 3.5-3.8 3.9-3.8s.9.3 3.9 2.9c1.4 1 1.7 1.5 1.7 1.9 0 .5-.2.7-.9.7h-25.9c-1.6 0-2.8.1-4.6.4l-.8-2.6zm20.7-33.2c-.3-3.2-.5-6.8-.6-11-.1-2.3-.1-3.2-.3-4.2-3.7.8-7.3 1.4-10.8 1.9v13.6l11.7-.3zM750.3 400.9c0 16.3.1 23.9.1 26.2 0 1.7-1 2.4-3 2.4-1.7 0-2.3-.6-2.3-2.1s.3-6.4.5-22.4c0-4.4 0-8.8.1-13.2-2.2 3.3-4.7 6.3-7.5 9.1-.3.3-1-.3-.8-.7 5.5-7.9 9.9-18.8 11.9-27.9.5-2.1.8-4.2 1-6.2 6.6 1.8 7.5 2.1 7.5 3 0 .7-.6 1-2.7 1.4-1.8 6.3-4.1 12-7 17.1 3.7.6 4.3.8 4.3 1.6 0 .6-.3 1-2 1.7v10zm43.7-2.8c2.1-2.4 2.4-2.7 3-2.7.5 0 1 .3 3.7 2.6 1.2 1.2 1.5 1.6 1.5 2.1 0 .8-.6 1.2-2.5 1.2-.8 0-1.2.2-2 .8-1.2 1-2.6 1.8-4.1 2.6.3.2.7.5 1.1.8 1.2 1 1.5 1.4 1.5 1.9 0 .4-.3.7-.9.7h-14.7v7.2c0 4.3.1 6.9.1 8.3 0 1.9-.8 3-1.9 3.9-1 .9-2.8 1.5-5 1.5-.7 0-.9-.2-1.1-1.2-.3-1.7-1.2-2.6-7.4-3.9-.4-.1-.4-1.1 0-1 4.3.4 6.9.5 9 .5.8 0 1.1-.3 1.1-1.2v-14h-11c-1.3 0-2.3.1-3.9.4l-.7-2.6c1.9.4 3.1.5 4.7.5h23c2.6-2.9 3.1-3.2 3.5-3.2.3 0 .7.2 1.8 1 .8-1.7 1.2-2.7 1.6-4.3h-35.3c.1 4.3-1.9 7.2-4.5 7.2-1.4 0-2.3-1-2.3-2.5 0-1.2.3-1.7 2.3-2.8 1.9-1.2 3-3.3 3.2-6.1 0-.3.7-.5.8-.1.3.9.4 1.8.6 2.6H794zm-1.9-23.3c2.7-3.5 3.2-3.9 3.7-3.9.4 0 1 .3 3.9 2.9 1.4 1.2 1.7 1.6 1.7 2s-.3.7-.9.7H762c-1.7 0-3 .1-4.9.4l-.7-2.6c2.2.3 3.7.5 5.6.5h12.6v-4.1c0-1.4-.1-2.6-.3-4.8 6.8.7 7.5 1.2 7.5 2 0 .5-.5 1-2.3 1.7v5.1h12.6zM766 392.9c0 1.4-1 2.1-2.7 2.1-1.4 0-2.1-.5-2.1-1.8 0-.7.1-1.9.1-6.3 0-3-.1-5.1-.3-7.5 2.4 1 3.4 1.4 5.5 2.5h21.3c2-2.1 2.4-2.4 2.8-2.4s.9.3 2.8 1.9c1.1.8 1.3 1.3 1.3 1.7 0 .5-.3.8-1.7 1.8v1.7c0 4 .1 5.7.1 6.2 0 1.4-.9 2.1-2.8 2.1-1.5 0-2.1-.5-2.1-1.7v-.5H766v.2zm22.3-9.4H766v7.5h22.3v-7.5zM841.7 376.7H821c-1.9 0-3.2.1-5.2.4l-.8-2.6c2.3.4 3.9.5 5.9.5h20.7c-.1-5.5-.1-7.2-.4-9.2 6.8.8 7.5 1 7.5 2 0 .6-.4 1-2.3 1.8v5.5h18.9c3-3.5 3.4-3.8 3.9-3.8s1.1.2 4.2 2.8c1.5 1.2 1.7 1.7 1.7 2.1s-.2.6-.9.6h-27.8v7.2h14.4c2-2.3 2.4-2.6 2.8-2.6.4 0 .8.3 3.2 2.2 1.1.9 1.3 1.3 1.3 1.7 0 .6-.3 1-2 2.2v4.8c0 9.2.3 13.6.3 14.9 0 1.5-.9 2.2-3.1 2.2-1.4 0-2-.5-2-1.9v-1.2h-14.9c0 2.6.1 5.3.1 7.9h19.9c2.8-3.5 3.5-3.9 3.9-3.9.5 0 1 .3 4.4 2.8 1.5 1.2 1.8 1.7 1.8 2.1s-.2.6-.9.6h-29c.1 6.3.1 9.8.1 11.5 0 1.6-1.1 2.3-3.3 2.3-1.6 0-2.2-.6-2.2-2 0-1.5.1-4.9.2-11.7H820c-1.8 0-3.2.1-5.2.4l-.7-2.6c2.3.4 3.9.5 5.9.5h21.4c.1-2 .1-5.2.1-7.9h-13.9v1.4c0 1.7-.9 2.3-3 2.3-1.6 0-2.1-.6-2.1-1.7 0-2.3.3-5.6.3-17.5 0-4.8-.1-7-.3-9.8 2.5 1 3.5 1.5 5.9 2.8h13.3v-7.1zm-14 9v8.4h14v-8.4h-14zm14 19c0-2.1 0-4.1.1-8.8h-14v8.8h13.9zm4.8-10.6h15v-8.4h-15v8.4zm15 10.6v-8.8h-15c0 1.3 0 4.3.1 8.8h14.9zM139.5 517.8c1.4.2 2.4.3 3.3.8.8.4 1.2 1.1 1.2 1.9 0 1.3-.9 2.4-2.3 2.4-.5 0-.9-.1-1.3-.3-.9-.5-1.4-1.2-2.3-2.4-.6-.8-1.2-1.6-2.5-2.7.4 1.7.8 2.7 1.2 3.6.6 1.3.9 2.2.9 3.2 0 1.4-1 2.4-2.4 2.4s-2.4-1-2.4-2.4c0-1.1.3-1.9.9-3.2.4-.9.8-1.8 1.2-3.6-1.3 1.1-1.9 1.9-2.5 2.7-.9 1.2-1.3 1.9-2.3 2.4-.4.2-.8.3-1.3.3-1.4 0-2.3-1.2-2.3-2.4 0-.8.4-1.4 1.2-1.9.9-.5 1.8-.5 3.3-.8 1-.2 2-.3 3.7-.8-1.8-.6-2.9-.7-3.9-.9-1.4-.2-2.3-.3-3.2-.8-.7-.3-1.2-1-1.2-1.8 0-1.3 1-2.5 2.4-2.5.4 0 .8.1 1.2.3.9.5 1.4 1.3 2.3 2.4.6.8 1.3 1.5 2.6 2.7-.4-1.8-.8-2.8-1.2-3.7-.6-1.3-.9-2.1-.9-3.1 0-1.3 1-2.3 2.4-2.3s2.4 1 2.4 2.3c0 1-.3 1.8-.9 3.1-.4.9-.8 1.9-1.2 3.7 1.3-1.2 2-1.9 2.6-2.7.9-1.1 1.4-1.9 2.3-2.4.4-.2.8-.3 1.2-.3 1.3 0 2.4 1.2 2.4 2.5 0 .8-.4 1.4-1.2 1.8-.9.4-1.8.6-3.2.8-1 .1-2.1.3-3.9.9 1.7.5 2.7.6 3.7.8zM153 523.1c-.1-2.6-.6-3.9-2-5.3-.2-.2-.1-.4.1-.4 5.1 0 8 2.3 8 4.9 0 2.3-1.3 3.8-3.5 3.8-1.5 0-2.5-1.1-2.6-3zm8 13.8c0 2.7 2.1 5.5 2.1 8 0 2.3-1.6 3.8-4.1 3.8-2.4 0-3.3-1.3-3.3-3.2 0-1.1.3-3.5.3-4.9 0-1.9-1.2-3.6-3.8-4.6-.3-.1-.2-.6 0-.6.6 0 1.3.1 1.8.1 1.4 0 2-1 2.7-2.6 2.4-6 5.6-14.2 9.2-24.6.1-.3.6-.1.5.1-2.1 10.4-4.3 20.2-5.1 24.9-.3 1.2-.3 2.3-.3 3.6zm-6.2-32c5.1.1 8.4 2.3 8.4 5.4 0 2.3-1.5 3.8-3.5 3.8-1.7 0-2.7-1.2-2.9-2.9-.2-3.3-.6-4.7-2.2-6-.2-.1-.1-.3.2-.3zm37.9 41c1.6-2.9 1.8-3 2.1-3s.4.1 1.6 1.9c1 1.4 1.1 1.6 1.1 1.9s-.2.4-.5.4h-28.9c-.8 0-2.4 0-4.2.3l-.5-1.6c1.3.2 2.5.3 3.6.3v-13c0-3.5 0-4.6-.1-6.5 3.6.8 5.1 1.2 5.7 1.6H187c2.1-2.2 2.3-2.3 2.7-2.3.4 0 .7.1 2.4 1.5 1.6 1.3 1.8 1.5 1.8 2 0 .4-.1.6-1.2 1.3v15.2zm-19.5-22.7c-.1 1.8-1 2.4-3.2 2.4-1.5 0-1.9-.3-1.9-1.7 0-.6.2-4.5.2-9.6s0-6.9-.1-8.8c4.5 1.2 5.8 1.7 6 2.2h11.1c2.2-2.4 2.3-2.4 2.7-2.4.5 0 .8 0 2.6 1.7 1.7 1.5 1.8 1.7 1.8 2.1s-.1.5-1.2 1.4v4.9c0 3.5.2 7.1.2 7.5 0 1.3-1 2.2-3.6 2.2-1.5 0-2-.4-2-1.7v-.2h-12.6zm-.4 6.1c-.2.2-.4.4-.8.6v16.2h2.3v-13.9c0-1 0-1.9-.1-2.9h-1.4zm1.3-20.7c-.1.2-.4.4-.9.7V520c1.3-1.7 2.6-4.5 3.4-7.4.4-1.4.6-2.8.6-4h-3.1zm11.8 13.6v-3.5c-.2 1-1 1.8-2.1 1.8-1 0-1.6-.5-1.8-1.7-.3-1.6-1.2-3.1-2.4-3.9-1.8 2.6-4.3 4.8-6.4 5.9v1.4h12.7zm0-13.6h-8.4c4.7 1.4 5 1.8 5 2.3 0 .5-.3.7-1.3 1.1-.4.9-.8 1.8-1.4 2.6 3.7.2 5.7 1.8 6 3.3v-9.3zm-7.4 37.5h2.4v-13.9c0-1 0-1.9-.1-2.8h-1.6c0 .3-.2.5-.6.7v16zm6.5 0h2.4v-16.8h-2c0 .2-.2.5-.5.7v16.1zM210.8 522.2c-.5 5.2-3.5 9.6-7 12-.2.1-.5-.1-.3-.3 2-2.1 2.9-5.5 2.9-13.2 0-2.3 0-4.2-.3-6 4.2.8 5.5 1.2 5.9 1.6h7.7c1.8-2 1.9-2.1 2.3-2.1.4 0 .6 0 2.4 1.4 1.6 1.2 1.7 1.3 1.7 1.7s-.1.5-1 1.3v.7c0 1.1.1 2.1.1 3s-1.1 1.5-2.9 1.5c-1.7 0-2.1-.3-2.1-1.5h-9.4zm19.8 9.9c2 .8 4.7 1.6 8.1 2.2 3.7.7 6.7.9 10.3 1 .3 0 .3.3 0 .5-1.6 1.1-2.6 2.6-3.2 4.3-.3.9-.6 1-1.3 1-.3 0-1.2-.1-2.1-.3-.7-.1-1.4-.3-2.1-.6-.1.1-.3.3-.9.7v1.4c0 2.3.1 4.1.1 4.8 0 1.2-1.3 2-3.6 2-1.7 0-2.1-.2-2.1-1.5v-.3h-14.7c-.1 1.6-1.2 2.2-3.3 2.2-1.5 0-2-.3-2-1.8 0-.8.2-3.5.2-6.6v-2c-3.6 1.4-7.3 2.5-10.2 2.9-.3 0-.5-.4-.2-.5 4.6-1.3 11.3-5.8 14.8-9.5h-3.3c-1.7 0-3.9.1-6.6.3l-.4-1.6c2.7.3 5 .3 7 .3h8.7V529.2c-3.7.1-7.5.1-12.6 0-.3 0-.3-.5 0-.5 5.4-.4 15-2 19.5-3.5 1.3-.4 2.4-.8 3.5-1.3 3.6 2.5 4.2 3.1 4.2 3.6s-.6.7-2.5.5c-2.1.3-3.9.5-5.7.7-.1.3-.4.5-1.1.9v1.4h9.5c2.8-3.2 3-3.3 3.4-3.3.5 0 .7 0 2.7 1.7 1.9 1.6 2.1 1.8 2.1 2.1 0 .3-.2.4-.5.4h-15.7zm-21.1-22.7c-1.2 0-2.8 0-5.1.3l-.4-1.6c2.4.3 4.1.3 5.6.3h3.5c0-1.7-.1-3-.2-4.3 6 .5 6.8.9 6.8 1.6 0 .4-.2.7-1.4 1.3v1.3h3.1c2.3-2.6 2.4-2.7 2.8-2.7.3 0 .5 0 1.9 1.3 1.5 1.3 1.7 1.6 1.7 1.9 0 .3-.1.5-.5.5h-9v3.2h2.5c2.1-2.4 2.2-2.5 2.6-2.5.4 0 .6.1 1.9 1.2 1.4 1.2 1.6 1.4 1.6 1.7s-.2.5-.5.5h-14.6c-1.2 0-2.8 0-5.1.3l-.4-1.6c2.4.3 4.1.3 5.6.3h1.3v-3.2h-3.7zm1.4 11.8h2.4V517h-1.4c-.2.2-.6.4-1 .6v3.6zm18 12.3c0 1 .1 2.2.1 2.7 0 .8-.9 1.4-3.3 1.4-1.7 0-2-.4-2-1.4v-2.3c-1.5 1.2-3.7 2.4-6.1 3.6 1.3.3 2 .5 2.3.7h13.7l1-1c-2.5-1.6-4.8-3.9-5.6-5.2h-.2l.1 1.5zm-8.6-12.3v-4.1h-1.8c0 .2-.2.4-.7.6v3.6h2.5zm13.3-12.8c0 2.7-2.3 6-7.6 7-.3 0-.5-.3-.2-.4 1.9-.8 3.1-3.2 3.1-6.5 0-2.1 0-2.8-.2-4 4.1 1.1 5.4 1.5 5.8 1.9h2c1.9-2.2 2.1-2.3 2.4-2.3.4 0 .7.1 2.2 1.3 1.4 1.2 1.5 1.2 1.5 1.6 0 .3 0 .4-1.2 1.3v.7c0 .9.2 1.1 1.2 1.1 1.2 0 1.8-.2 2.1-.6.7-.8 1.1-1.6 2.3-4.2.1-.2.4-.2.4.1-.2 2.4-.2 2.8-.2 3.3 0 .4.2.8.8 1.3.7.7.8.9.8 1.7 0 1.4-1.7 2.5-6.5 2.5-.9 0-1.6 0-2.2-.1.4.2 1 .7 2.1 1.5 1.6 1.2 1.8 1.4 1.8 1.9s-.1.6-2 1.3c-1.1.8-2.2 1.6-3.4 2.3 2.7 1 5.6 1.5 10.3 1.7.3 0 .3.3 0 .4-1.5.8-2.6 1.5-3.5 3.4-.3.7-.5.9-1 .9-.4 0-1-.1-1.9-.3-2.7-.7-5.4-2.1-7.4-3.8l-.4-.4c-4.8 1.9-10.3 2.8-16.7 2.8-.3 0-.4-.4-.1-.5 5-.5 10.3-2.3 14.5-5-.8-1.3-1.4-2.6-1.8-3.8-.7 0-1.4.1-2.4.2l-.5-1.6c2.3.3 3.6.3 5.3.3h4.1c1-.9 1.4-1.2 1.7-1.3-2-.4-2.3-1.1-2.3-2.2v-4.7h-2.2c-.1.1-.4.3-.9.5v.7zm-14.5 33.8h14.7v-2.9h-14c-.1.1-.4.3-.8.5v2.4zm14.8 4.2v-3.2h-14.7v3.2h14.7zm-.7-29.9h-1.7c.7.8 1.7 1.7 3 2.6 1.1-.8 2-1.7 2.8-2.6h-4.1zM267.8 523.4c2.6-1 5.1-1.9 7.1-2.7.3-.1.5.2.3.4-2 1.8-4.6 3.9-7.3 6.3 0 12 .2 14.2.2 15.7 0 2.3-.9 3.8-2.4 4.7-1.2.8-2.3 1-3.4 1-.8 0-1.1-.3-1.3-1.2-.4-1.6-1.3-3-4.3-4-.3-.1-.3-.5 0-.5 1.8-.1 2.9-.2 4.2-.4 1.1-.1 1.5-.8 1.5-2.4v-9.1c-.7.6-1.4 1.1-2.1 1.6-.5 1.1-.6 1.3-1.1 1.3-.6 0-.7-.1-3.4-7 1.3-.3 2.2-.5 3.8-1.1.8-.2 1.8-.6 2.7-.9V516h-1c-1.3 0-2.4 0-4.7.3l-.5-1.6c2.4.3 3.7.3 5.2.3h1c0-6.7 0-8.1-.3-10.7 6.1.5 7.4 1 7.4 1.8 0 .6-.3.9-1.7 1.6v7.3h.1c2.5-3.8 2.6-3.8 3-3.8.3 0 .5 0 2.3 2.1 1.4 1.6 1.6 1.7 1.6 2.1 0 .3-.2.6-.5.6h-6.5v7.4zm21.1 18.3c1.4.1 3.2.2 5.2.2 1.8 0 5.2-.2 8-.8.3 0 .3.3.1.5-1.8 1.5-2 2.3-2.2 4.7-.1.9-.5 1.4-1.1 1.5h-3.6c-7.3 0-9.7-.9-12.1-2.8-2-1.5-4-4.5-4.7-8.1-2.5 5.7-7.1 10.2-12 12-.3.1-.5-.3-.3-.5 3.9-2.3 7.3-9.2 8.4-17.3.1-1.2.2-2 .2-3 6.5 1.5 6.9 1.8 6.9 2.4 0 .5-.3.8-1.5 1.2-.3 1.5-.8 2.9-1.3 4.3.9 1.9 2.9 3.2 4.5 4.1v-9.4c0-1.7 0-3.2-.1-4.8H277c-1.1 0-2.7 0-4.9.3l-.5-1.7c2.3.3 4 .4 5.4.4h15.9c3.1-3.7 3.2-3.9 3.6-3.9.5 0 .7.1 2.7 2.1 1.7 1.7 1.9 1.9 1.9 2.3s-.1.5-.5.5h-10.8c0 .3-.3.5-1 .9v6.2h3.4c2.9-3.5 3-3.6 3.4-3.6.4 0 .6 0 2.4 1.8 1.8 1.8 2 2 2 2.3 0 .3-.2.5-.5.5h-10.6v7.7zm-7.7-21.6c0 2-1.1 2.6-3.6 2.6-1.5 0-1.9-.3-1.9-1.7 0-.6.2-4 .2-9 0-3.5 0-5.3-.1-7.2 4.9 1.2 6.1 1.6 6.4 2.2h7.8c2.3-2.7 2.4-2.8 2.9-2.8s.7 0 2.7 1.7c1.7 1.4 1.9 1.6 1.9 2 0 .4-.1.5-1.4 1.5v2.6c0 3.5.2 7.1.2 7.5 0 1.3-1.2 2.2-3.9 2.2-1.5 0-1.9-.4-1.9-1.7h-9.4v.1zm.8-12.1c-.2.2-.5.4-.8.7v4.3h9.4v-5H282zm8.6 11v-5h-9.4v5h9.4zM328.5 525.3c0 10.6.2 18 .2 18.4 0 1.1-1 1.8-2.8 1.8-1.5 0-2-.4-2-1.4v-.4H314v2.4c0 1.1-.9 1.6-2.7 1.6-1.4 0-1.8-.4-1.8-1.4 0-1.4.2-10.5.2-20.3 0-7.4 0-9.6-.3-12.2 3.4.9 4.8 1.5 5.2 2h.3v-7.3h-1.6c-1.2 0-2.3 0-4.6.3l-.4-1.6c2.4.3 3.6.3 5 .3h9.9c2.5-3.1 2.6-3.2 3-3.2.4 0 .6 0 2.7 2 1.3 1.2 1.4 1.4 1.4 1.7 0 .2-.2.4-.5.4h-6.3c0 .3-.1.5-.5.6v6.7h.8c1.7-2.1 1.9-2.3 2.3-2.3.4 0 .6.1 2.3 1.5 1.3 1.1 1.4 1.3 1.4 1.7 0 .4-.1.5-1.2 1.3v7.4zm-14.4 10.3h9.9v-5.7h-1.2c-2.4 0-3.3-.5-3.3-2.4 0-1 .1-2.7.1-6v-4.9h-1.1c0 9.5-1.3 12.1-4.4 15v4zm.7-18.9c-.1.2-.4.3-.7.6V531c1.2-2.4 1.4-5.4 1.4-14.3h-.7zm9.2 26.1v-6.2h-9.9v6.2h9.9zm-5.5-27h1.1v-7.3h-.6c0 .3-.2.5-.5.7v6.6zm4 .9v8.1c0 .6 0 .9.5.9.4 0 .6 0 .8-.2l.1-.2v-8.5h-1.4zm24.7 29.4c2.5-3.7 2.8-4 3.2-4 .4 0 .7.2 2 1.6 1.7 1.8 2 2.3 2 2.7 0 .4-.2.6-.8.6h-19.3c-1.4 0-3.1 0-5.1.3l-.5-1.6c2.3.2 4 .3 5.6.3h4.7v-7.4h-1.1c-1.5 0-2.9 0-4.8.3l-.4-1.6c2.2.2 3.9.3 5.3.3h1.1V531h-3.7c-1.5 3.1-3.7 6.2-6 8.1-.2.2-.5-.1-.4-.3 1.2-2.1 2.6-7.1 3-12.1 0-.7 0-1.5.1-2.7 5.4.9 6.1 1.5 6.1 2.1 0 .4-.1.8-1.5 1.3-.2.9-.5 1.8-.9 2.7h3.3c0-3.6 0-5.7-.2-8.3 6 .7 7.1 1 7.1 1.8 0 .5-.4 1.1-1.5 1.6v4.9h2.4c2.4-3.5 2.6-3.8 3-3.8.4 0 .7.2 2.2 1.9 1.4 1.5 1.7 2 1.7 2.4s-.1.5-.5.5h-8.8v6.6h1.2c2.4-3.5 2.5-3.6 2.9-3.6.4 0 .6.2 2.1 1.7 1.5 1.6 1.9 1.9 1.9 2.3 0 .3-.2.6-.5.6h-7.7v7.4h2.8zM337 521.2c0 1.3-1.2 2.1-3.3 2.1-1.6 0-2-.4-2-1.3 0-1.5.2-4.7.2-8.4 0-4.5 0-6-.2-8.1 4.5 1.1 5.9 1.5 6.2 2h7.7c2.1-2.4 2.3-2.5 2.7-2.5.4 0 .7.1 2.6 1.6 1.9 1.4 2.1 1.7 2.1 2.2 0 .4-.1.6-1.4 1.7v2.1c0 4.8.2 7.8.2 8.3 0 1.3-1.5 2-3.9 2-1.4 0-1.8-.4-1.8-1.6v-.4H337v.3zm.7-12.7c-.2.1-.4.2-.7.3v4.8h9.2v-5.1h-8.5zm8.5 11.3v-5.1H337v5.1h9.2zM375.2 518c0 2.3-1.7 4-3.9 4-2.3 0-4-1.7-4-4 0-2.2 1.7-3.9 4-3.9 2.2-.1 3.9 1.7 3.9 3.9zm0 16.8c0 2.3-1.7 4-3.9 4-2.3 0-4-1.7-4-4 0-2.2 1.7-3.9 4-3.9 2.2 0 3.9 1.7 3.9 3.9zM391.1 523.2c-.1-2.6-.6-3.9-2-5.3-.2-.2-.1-.4.1-.4 5.1 0 8 2.3 8 4.9 0 2.3-1.3 3.8-3.5 3.8-1.6 0-2.6-1.1-2.6-3zm8 13.8c0 2.7 2.4 5.5 2.4 8 0 2.3-1.6 3.8-4.3 3.8-2.5 0-3.5-1.3-3.5-3.2 0-1.1.3-3.5.3-4.9 0-1.9-1.2-3.6-3.8-4.6-.3-.1-.2-.6 0-.6.6 0 1.3.1 1.8.1 1.4 0 2-1 2.7-2.6 2.5-6 4.8-12.1 8.6-22.6.1-.3.6-.1.5.1-2.3 10.4-3.7 18.1-4.6 22.9-.1 1.1-.1 2.2-.1 3.6zm-6.2-32.1c5.1.1 8.4 2.3 8.4 5.4 0 2.3-1.5 3.8-3.5 3.8-1.7 0-2.7-1.2-2.9-2.9-.2-3.3-.6-4.7-2.2-6-.2-.1-.1-.3.2-.3zm32.6 3.7c2.8-3.6 2.9-3.6 3.4-3.6s.7.1 3 2.3c1.3 1.2 1.5 1.5 1.5 1.8 0 .3-.2.5-.5.5h-10c0 .4-.2.6-.8.8v6.6h3.2c2.2-2.5 2.4-2.6 2.8-2.6.5 0 .7 0 2.9 1.9 1.5 1.2 1.6 1.4 1.6 1.9 0 .4 0 .5-1.2 1.5v6.6c0 9.3.3 18.3.3 19.6 0 1.2-1.1 1.7-3.7 1.7-1.8 0-2.2-.2-2.2-1.5v-1.4h-16.7v1.9c0 1.2-.7 1.8-3.2 1.8-1.9 0-2.2-.3-2.2-1.6 0-1.4.3-5.7.3-19.2 0-7.3 0-9.5-.1-12.4 3.8.9 5.2 1.4 5.8 1.8h1.8v-7.4H409c-1.2 0-2.8 0-5.6.3l-.4-1.6c2.9.3 4.6.3 6 .3h16.5zm-9.6 9.3c0 5.2-.4 7.5-1.8 10-1 1.7-3.1 3.7-4.9 4.9v3.8h16.7v-7.2c-.5.7-1.6 1-4.3 1-2.8 0-3.9-.8-3.9-2.7 0-.6.1-2.1.1-5.1V518h-1.9zm-6 0c-.1.2-.3.4-.8.6V532c.8-1.1 1.4-2.5 1.8-4.1.5-2 .7-3.9.7-10h-1.7zm15.9 25.9v-6.2h-16.7v6.2h16.7zm-8.1-32.9v-1.3h-1c0 .3-.2.6-.8.8v6.6h1.8v-6.1zm4.2 7v7.5c0 .3.2.5.6.5.6 0 .9-.2 1.2-1.1.5-1.2.8-2.2 1.2-3.4 0-.1.3-.1.3 0-.1 1.9-.2 3.1-.2 3.6 0 .8.1 1 .7 1.6l.1.1v-8.8h-3.9zM453.7 534.6c0 8.8.1 11.2.1 12.1 0 1.4-1.4 2.3-3.8 2.3-1.9 0-2.2-.3-2.2-1.6 0-1 .2-3.6.3-8.7l.1-11c-2.2 1.8-4.5 3.4-6.8 4.7-.2.1-.5-.2-.3-.4 3.6-3.6 7.3-9.8 9.9-15.4.3-.6.6-1.3 1-2.6 6.3 3 6.5 3.3 6.5 4.1 0 .5-.4.9-2 1.2-1.1 1.4-2.3 2.8-3.5 4.1 2.1.8 2.3 1.1 2.3 1.5 0 .4-.3.7-1.6 1.3v8.4zm-12-17.3c3.2-2.2 6.4-5.5 9.9-10.5.7-1 1.2-2 1.8-3 5.8 3.6 6 3.7 6 4.4 0 .6-.4.9-2.1 1.1-4.8 3.9-10.2 6.7-15.4 8.4-.3.1-.5-.3-.2-.4zm31.6 13.6c2.2-2.7 2.4-2.8 2.8-2.8.5 0 .8.1 2.8 1.8 2.3 1.8 2.4 2.2 2.4 2.7s-.1.7-1.9 1.5c-1.3 2-2.9 3.9-4.7 5.6 3.2 1.6 8 2.8 12.3 3.2.3 0 .2.3 0 .5-2 1.2-3.2 2.5-4.1 4.2-.4.7-.7 1.1-1.2 1.1-.2 0-.7-.1-1.1-.2-2.7-.7-6.1-2.6-8.4-4.8-.4-.4-.7-.7-1.1-1.2-4.4 3-9.9 5-17.2 5.7-.3 0-.4-.4-.1-.5 6-1.6 10.9-4.4 14.8-8.7-.7-1.7-1.3-3.7-1.6-5.8-3.2 4.4-7.7 8.1-12.7 10.4-.2.1-.5-.2-.3-.4 3.1-2.5 6.5-7.6 8.5-13.7.3-.9.5-1.5.6-2l-3.1.7c-.6 1.1-.9 1.3-1.2 1.3-.7 0-1.2-1-2.7-7.1 1.6.1 3 .1 3.8.1h6.5c2.4-3.6 4.6-7.3 6.5-11.6.2-.5.6-1.5 1-2.4 6.2 2.9 6.7 3.3 6.7 4 0 .6-.3 1-1.9 1.2-2.7 2.6-6.4 6-9.6 8.7 3 0 6-.1 8.7-.1-.9-1.5-2.2-2.7-3.5-3.4-.2-.1-.1-.5.1-.5 7.6-.2 11 3.1 11 6.5 0 2.2-1.6 3.6-3.5 3.6-1.5 0-2.5-.9-2.9-2.8-.1-.7-.3-1.3-.5-1.9-3.8.9-8.7 2.1-12.9 3 4.7 1.4 4.9 1.8 4.9 2.4 0 .5-.4.8-1.8 1l-.4.7h5zm-8.8-18.1c.7-2.2 1.2-4 1.9-7.2.2-.8.3-1.6.4-2.2 6.6 1.9 7.6 2.4 7.6 3.2 0 .8-.5 1.1-2.3 1.5-2.1 2.1-3.8 3.7-5.8 5.6 1.3.9 2 2.2 2 3.4 0 2.1-1.4 3.5-3.2 3.5-1.5 0-2.3-.8-2.7-2.7-.7-2.9-2.1-4.4-3.7-5.3-.2-.1-.1-.5.2-.5 2.3-.1 4.1.2 5.6.7zm3.2 19.6c.7 1.4 1.8 2.8 3 4.1 1-1.4 1.9-3 2.8-4.7h-5.4l-.4.6zM521.6 509.8c3.7.8 4.1 1.4 4.1 1.9 0 .6-.5 1-2 1.2-1.3 2.4-2.9 4.8-4.8 7 1.2.3 1.4.7 1.4 1 0 .5-.1.7-1.2 1.2v6.9c0 8.8.4 16.2.4 17.9 0 1.4-1.6 2.1-4.4 2.1-1.8 0-2.4-.4-2.4-1.8 0-1.3.2-8.2.2-18.1v-2.8c-6.1 5.7-13.2 10.3-19.6 12.6-.3.1-.6-.4-.3-.6 7-4.2 17.6-16.1 22.3-25.4.6-1.2 1-2 1.4-3h-14.9c-1.7 0-3.6.1-6.3.3l-.5-1.6c3.2.2 5.1.3 6.8.3h25.8c3.8-4.5 4-4.6 4.5-4.6s.7.1 3.5 2.6c1.8 1.6 2.2 2.1 2.2 2.4s-.2.5-.6.5h-15.6zm17 23.1c0 2.9-1.7 4.4-3.7 4.4-1.7 0-2.8-1-3.7-3.5-1.8-5.2-5.5-10.5-9.9-13.1-.2-.1-.1-.5.2-.5 10.1 1.1 17.1 7.3 17.1 12.7zM553.9 520.3v26.4c0 1.7-1.2 2.4-3.7 2.4-1.8 0-2.3-.3-2.3-1.8 0-2.3.3-11.4.3-27.1 0-9.3 0-12.3-.3-15.7 4.4.7 6 1.1 6.7 1.5h5.7c1.9-2 2-2.1 2.4-2.1s.7.1 3.1 2c1.5 1.2 1.7 1.4 1.7 1.9 0 .4-.2.6-1.3 1.5v2.5c0 3.4.2 7.2.2 8.2 0 1.3-1.2 2.1-3.5 2.1-1.5 0-1.9-.2-2-1.8h-7zm.9-13.4c-.1.2-.4.5-1 .7v4.9h7v-5.6h-6zm-.9 6.5v5.9h7v-5.9h-7zm20.9 20.9c0 5.6.3 10.5.3 11.4 0 1.3-.9 1.9-3.5 1.9-1.7 0-2.3-.3-2.3-1.4 0-.9.2-6.3.2-11.8h-3.2c-.7 7.5-4.4 11.4-10.9 13.5-.3.1-.4-.2-.2-.4 3.6-2 5.6-5.1 5.9-13.1h-.5c-1.5 0-2.9 0-4.8.3l-.4-1.6c2.2.2 3.9.3 5.3.3h.6v-1.9c0-2.4 0-3.6-.2-4.8-1.3 0-2.6.1-4.3.3l-.4-1.6c2.2.2 3.9.3 5.3.3h12.5c2.3-3.1 2.4-3.2 2.8-3.2.4 0 .5 0 1.9 1.4 1.7 1.7 1.9 1.9 1.9 2.2 0 .4-.2.5-.7.5h-3.9c0 .4-.3.7-1.3 1.2v5.4h1c2.3-3.1 2.4-3.2 2.8-3.2.4 0 .5 0 1.9 1.4 1.7 1.7 1.9 1.9 1.9 2.2 0 .4-.2.5-.7.5h-7zm-8.3-2.7v1.8h3.1c0-3.1-.1-4.9-.2-6.6H568c0 .4-.3.6-1.4 1.1v3.7zm15.9-25.7c2.3-2.4 2.4-2.4 2.8-2.4.5 0 .8 0 3.1 2 1.9 1.6 2.1 1.9 2.1 2.3 0 .4-.1.5-1.3 1.5v12.1c0 15 .2 19.8.2 21.8 0 2.2-.3 3.2-1.9 4.4-1.2.9-3 1.5-4.7 1.5-1 0-1.3-.2-1.6-1.3-.6-2.2-2-3.2-4.6-3.7-.3 0-.2-.6 0-.6 2.4 0 4-.2 5-.3 1-.1 1.3-1.2 1.3-2.3v-20.6h-7.6c-.2 1.6-1.2 2-3.4 2-1.6 0-1.9-.3-1.9-1.7 0-1.1.1-5.3.1-9.5 0-2.9 0-4.5-.2-6.7 4.2.7 5.8 1.1 6.4 1.5h6.2zm-5.8 1c-.2.2-.5.4-1.2.7v4.8h7.6v-5.6h-6.4zm6.4 12.4v-5.9h-7.6v5.9h7.6zM634.5 538.6c3.3-4.1 3.4-4.2 3.9-4.2s.7.1 3.3 2.4c1.8 1.6 1.9 1.8 1.9 2.2 0 .3-.1.5-.5.5h-19.2c0 3.8.1 6.9.1 7.4 0 1.4-1.3 2.1-4.1 2.1-2.1 0-2.5-.2-2.5-1.8 0-.6.1-3.8.2-7.7h-10.7c-2.4 0-4.6 0-7.3.3l-.4-1.6c3 .3 5.2.3 7.8.3h10.7c0-2 .1-4.2.1-6.3h-6.5v1.2c0 1.4-1.2 2-3.8 2-1.6 0-2.1-.3-2.1-1.5 0-.9.2-6.2.2-9.1 0-5.3 0-6.7-.2-9.1 4.7 1 6.2 1.4 6.7 1.8h5.8v-5.1h-9.1c-2.4 0-4.6 0-7.3.3l-.4-1.6c3 .3 5.2.3 7.8.3h9.1c0-4.9 0-6-.2-7.6 7.8.6 8.3 1 8.3 1.8 0 .5-.3.9-2 1.5v4.3h8.9c3.2-3.7 3.3-3.8 3.8-3.8s.7.1 2.8 2c1.8 1.6 1.9 1.8 1.9 2.2 0 .3-.1.5-.5.5h-16.9v5.1h6.1c2.5-2.7 2.8-2.8 3.2-2.8.5 0 .8.1 3 1.9 1.9 1.5 2 1.8 2 2.1 0 .4-.2.6-1.4 1.6v3.8c0 3.1.2 7.1.2 8 0 1.4-1.4 2.2-3.9 2.2-2.1 0-2.4-.3-2.4-1.7v-.4h-6.8v6.3h10.4zm-22.7-20c-.2.2-.4.4-.7.5v5.1h6.5v-5.7h-5.8zm-.7 12.7h6.5v-6.1h-6.5v6.1zm12.6-7.1h6.8v-5.7h-6.8v5.7zm6.9 7.1v-6.1h-6.8v6.1h6.8zM658.8 549.5c-1.6 0-2.5-.9-2.9-3-.7-4.1-2.3-6.5-5-8.1-.1-.1-.2-.2-.2-.3 0-.2.1-.3.3-.3 7.4.5 11.5 3.6 11.5 8 0 2.2-1.6 3.7-3.7 3.7zM716.7 525.2c2.2-2.5 2.4-2.6 2.8-2.6.5 0 .7.1 2.7 1.8 1.8 1.5 2 1.7 2 2.2s-.1.6-1.5 1.7c-.1 9.7-.4 13.8-1.2 15.7-1.5 3.4-4.1 4.8-7.3 4.8-1.1 0-1.7-.2-2.1-1.6-.4-1.6-1.7-3.1-3.6-3.6-.3-.1-.3-.5 0-.5 3.1.1 4.6.1 5.8-.1 1-.2 1.5-.7 2.1-2.1.6-1.5.9-5.3.9-14.6h-12.6c-.6.7-1.2 1.3-1.9 2.1 1.2.3 1.4.5 1.4.9 0 .3-.3.7-1.2 1.2v2.8c1.7-1.3 3.3-2.8 4.5-4.1.4-.4.7-.9 1.1-1.4 4.4 2.8 4.9 3.4 4.9 4 0 .5-.6.9-2.3.6-2.8 1-5.3 1.8-8.2 2.4v1.5c0 1.1.2 1.4 3.2 1.4s4.1-.3 4.9-1.3c.6-.7 1.3-1.9 2.1-3.6.1-.2.5-.2.5.1-.2 1.6-.2 2.1-.2 2.6s.4.9.9 1.3c.6.5 1 1 1 1.7 0 2.1-1.6 3.6-9 3.6-6.9 0-8-1.1-8-4.1 0-.9.1-2.6.1-5.7-2.8 2.3-5.9 4.2-8.6 5.2-.3.1-.5-.3-.3-.4 1.4-.9 2.9-2.2 4.4-3.9-.6.2-1.5.4-2.7.4-1.2 0-1.6-.5-1.6-1.9v-.5h-3.8v4.1c0 1.4-1.3 2.1-3.9 2.1-1 0-1.4-.2-1.4-1.8 0-1.3.2-8.9.2-15.8 0-5.5 0-8.2-.2-11 4.6 1.2 6 1.8 6.4 2.4h2.2c2-2.5 2.2-2.6 2.6-2.6.5 0 .6 0 2.7 1.7 1.9 1.5 2 1.7 2 2.2 0 .5-.1.6-1.4 1.7v4.5c0 7.9.3 11.4.3 12.6v.4c2.4-2.9 4.6-6.5 6-9.6h-.4c-1.5 0-1.9-.3-1.9-1.7 0-.6.2-4 .2-8.2 0-3.5 0-5.3-.1-7.2 4.9 1.2 6.1 1.6 6.4 2.2h8.2c2.3-2.7 2.4-2.8 2.9-2.8s.7 0 2.7 1.7c1.7 1.4 1.9 1.6 1.9 2 0 .4-.1.5-1.4 1.5v2.7c0 3.5.2 7.1.2 7.5 0 1.3-1.2 2.2-3.9 2.2-1.5 0-1.9-.4-1.9-1.7v-.3h-9.8c0 .2-.1.3-.1.5 4 1 4.5 1.3 4.5 1.8s-.3.7-1.8.9c-.4.6-.9 1.2-1.4 2h11zm-27.2 5V512h-2.7c-.2.2-.5.4-1.1.7v17.5h3.8zm15.6-22.2c-.2.2-.5.4-.8.7v4.4h9.7v-5h-8.9zm8.9 11.1v-5h-9.7v5h9.7zM733.3 523.2c-.1-2.6-.6-3.9-2-5.3-.2-.2-.1-.4.1-.4 5.1 0 8 2.3 8 4.9 0 2.3-1.3 3.8-3.5 3.8-1.5 0-2.5-1.1-2.6-3zm8 13.8c0 2.7 2.4 5.5 2.4 8 0 2.3-1.6 3.8-4.3 3.8-2.5 0-3.5-1.3-3.5-3.2 0-1.1.3-3.5.3-4.9 0-1.9-1.2-3.6-3.8-4.6-.3-.1-.2-.6 0-.6.6 0 1.3.1 1.8.1 1.4 0 2-1 2.7-2.6 2.5-6 4.8-12.1 8.6-22.6.1-.3.6-.1.5.1-2.3 10.4-3.7 18.1-4.6 22.9-.1 1.1-.1 2.2-.1 3.6zm-6.2-32.1c5.1.1 8.4 2.3 8.4 5.4 0 2.3-1.5 3.8-3.5 3.8-1.7 0-2.7-1.2-2.9-2.9-.2-3.3-.6-4.7-2.2-6-.2-.1-.1-.3.2-.3zm32.6 3.7c2.8-3.6 2.9-3.6 3.4-3.6s.7.1 3 2.3c1.3 1.2 1.5 1.5 1.5 1.8 0 .3-.2.5-.5.5h-10c0 .4-.2.6-.8.8v6.6h3.2c2.2-2.5 2.4-2.6 2.8-2.6.5 0 .7 0 2.9 1.9 1.5 1.2 1.6 1.4 1.6 1.9 0 .4 0 .5-1.2 1.5v6.6c0 9.3.3 18.3.3 19.6 0 1.2-1.1 1.7-3.7 1.7-1.8 0-2.2-.2-2.2-1.5v-1.4h-16.7v1.9c0 1.2-.7 1.8-3.2 1.8-1.9 0-2.2-.3-2.2-1.6 0-1.4.3-5.7.3-19.2 0-7.3 0-9.5-.1-12.4 3.8.9 5.2 1.4 5.8 1.8h1.8v-7.4h-2.5c-1.2 0-2.8 0-5.6.3l-.4-1.6c2.9.3 4.6.3 6 .3h16.5zm-9.6 9.3c0 5.2-.4 7.5-1.8 10-1 1.7-3.1 3.7-4.9 4.9v3.8h16.7v-7.2c-.5.7-1.6 1-4.3 1-2.8 0-3.9-.8-3.9-2.7 0-.6.1-2.1.1-5.1V518h-1.9zm-6 0c-.1.2-.3.4-.8.6V532c.8-1.1 1.4-2.5 1.8-4.1.5-2 .7-3.9.7-10h-1.7zm16 25.9v-6.2h-16.7v6.2h16.7zm-8.2-32.9v-1.3h-1c0 .3-.2.6-.8.8v6.6h1.8v-6.1zm4.2 7v7.5c0 .3.2.5.6.5.6 0 .9-.2 1.2-1.1.5-1.2.8-2.2 1.2-3.4 0-.1.3-.1.3 0-.1 1.9-.2 3.1-.2 3.6 0 .8.1 1 .7 1.6l.1.1v-8.8h-3.9zM791.5 520.3v26.4c0 1.7-1.2 2.4-3.7 2.4-1.8 0-2.3-.3-2.3-1.8 0-2.3.3-11.4.3-27.1 0-9.3 0-12.3-.3-15.7 4.4.7 6 1.1 6.7 1.5h5.7c1.9-2 2-2.1 2.4-2.1s.7.1 3.1 2c1.5 1.2 1.7 1.4 1.7 1.9 0 .4-.2.6-1.3 1.5v2.5c0 3.4.2 7.2.2 8.2 0 1.3-1.2 2.1-3.5 2.1-1.5 0-1.9-.2-2-1.8h-7zm.9-13.4c-.1.2-.4.5-1 .7v4.9h7v-5.6h-6zm-.9 6.5v5.9h7v-5.9h-7zm20.9 20.9c0 5.6.3 10.5.3 11.4 0 1.3-.9 1.9-3.5 1.9-1.7 0-2.3-.3-2.3-1.4 0-.9.2-6.3.2-11.8H804c-.7 7.5-4.4 11.4-10.9 13.5-.3.1-.4-.2-.2-.4 3.6-2 5.6-5.1 5.9-13.1h-.5c-1.5 0-2.9 0-4.8.3l-.5-1.7c2.2.2 3.9.3 5.3.3h.6v-1.9c0-2.4 0-3.6-.2-4.8-1.3 0-2.6.1-4.3.3l-.4-1.6c2.2.2 3.9.3 5.3.3h12.5c2.3-3.1 2.4-3.2 2.8-3.2.4 0 .5 0 1.9 1.4 1.7 1.7 1.9 1.9 1.9 2.2 0 .4-.2.5-.7.5h-3.9c0 .4-.3.7-1.3 1.2v5.4h1c2.3-3.1 2.4-3.2 2.8-3.2.4 0 .5 0 1.9 1.4 1.7 1.7 1.9 1.9 1.9 2.2 0 .4-.2.5-.7.5h-7zm-8.3-2.7v1.8h3.1c0-3.1-.1-4.9-.2-6.6h-1.4c0 .4-.3.6-1.4 1.1v3.7zm15.9-25.7c2.3-2.4 2.4-2.4 2.8-2.4.5 0 .8 0 3.1 2 1.9 1.6 2.1 1.9 2.1 2.3 0 .4-.1.5-1.3 1.5v12.1c0 15 .2 19.8.2 21.8 0 2.2-.3 3.2-1.9 4.4-1.2.9-3 1.5-4.7 1.5-1 0-1.3-.2-1.6-1.3-.6-2.2-2-3.2-4.6-3.7-.3 0-.2-.6 0-.6 2.4 0 4-.2 5-.3 1-.1 1.3-1.2 1.3-2.3v-20.6H813c-.2 1.6-1.2 2-3.4 2-1.6 0-1.9-.3-1.9-1.7 0-1.1.1-5.3.1-9.5 0-2.9 0-4.5-.2-6.7 4.2.7 5.8 1.1 6.4 1.5h6zm-5.8 1c-.2.2-.5.4-1.2.7v4.8h7.6v-5.6h-6.4zm6.4 12.4v-5.9H813v5.9h7.6zM872.1 538.6c3.3-4.1 3.4-4.2 3.9-4.2s.7.1 3.3 2.4c1.8 1.6 1.9 1.8 1.9 2.2 0 .3-.1.5-.5.5h-19.2c0 3.8.1 6.9.1 7.4 0 1.4-1.3 2.1-4.1 2.1-2.1 0-2.5-.2-2.5-1.8 0-.6.1-3.8.2-7.7h-10.7c-2.4 0-4.6 0-7.3.3l-.4-1.6c3 .3 5.2.3 7.8.3h10.7c0-2 .1-4.2.1-6.3h-6.5v1.2c0 1.4-1.2 2-3.8 2-1.6 0-2.1-.3-2.1-1.5 0-.9.2-6.2.2-9.1 0-5.3 0-6.7-.2-9.1 4.7 1 6.2 1.4 6.7 1.8h5.8v-5.1h-9.1c-2.4 0-4.6 0-7.3.3l-.4-1.6c3 .3 5.2.3 7.8.3h9.1c0-4.9 0-6-.2-7.6 7.8.6 8.3 1 8.3 1.8 0 .5-.3.9-2 1.5v4.3h8.9c3.2-3.7 3.3-3.8 3.8-3.8s.7.1 2.8 2c1.8 1.6 1.9 1.8 1.9 2.2 0 .3-.1.5-.5.5h-16.9v5.1h6.1c2.5-2.7 2.8-2.8 3.2-2.8.5 0 .8.1 3 1.9 1.9 1.5 2 1.8 2 2.1 0 .4-.2.6-1.4 1.6v3.8c0 3.1.2 7.1.2 8 0 1.4-1.4 2.2-3.9 2.2-2.1 0-2.4-.3-2.4-1.7v-.4h-6.8v6.3h10.4zm-22.7-20c-.2.2-.4.4-.7.5v5.1h6.5v-5.7h-5.8zm-.7 12.7h6.5v-6.1h-6.5v6.1zm12.6-7.1h6.8v-5.7h-6.8v5.7zm6.9 7.1v-6.1h-6.8v6.1h6.8zM900 524.8c2.1-.5 4.3-1.1 7.1-1.8.3-.1.4.3.2.5-3 2.1-5 3.6-7.2 5 0 10.9.2 13 .2 14.5 0 2.3-.9 3.8-2.4 4.7-1.2.8-2.3 1-3.4 1-.8 0-1.1-.3-1.3-1.2-.4-1.6-1.3-3-4.3-4-.3-.1-.3-.5 0-.5 1.8-.1 2.9-.2 4.2-.4 1.1-.1 1.5-.8 1.5-2.4v-8.8l-2.3 1.4c-.4 1.1-.6 1.3-1.1 1.3-.6 0-.8-.1-3.2-7 1.3-.1 2.6-.4 4.3-.7l2.3-.4v-9.9h-1c-1.3 0-2.4 0-4.7.3l-.5-1.6c2.4.3 3.7.3 5.2.3h1c0-6.7 0-8.1-.3-10.7 6.1.5 7.4 1 7.4 1.8 0 .6-.3.9-1.7 1.6v7.3h.1c2.7-3.8 2.8-3.9 3.2-3.9.4 0 .5.1 2.4 2.1 1.4 1.5 1.7 1.8 1.7 2.2 0 .3-.2.6-.5.6H900v8.7zm24.3-6.7c2.8-4.7 2.9-4.8 3.4-4.8s.7 0 3 1.8c2.3 1.7 2.4 1.9 2.4 2.3 0 .3-.1.6-.5.6l-15.1 1.9c.4 3.6 1 6.4 1.8 9 .1.5.3 1.1.5 1.6 1.2-1.6 2.2-3.2 3.1-4.9.5-.9 1.2-2.4 1.8-3.9 5.3 3.1 6.2 3.8 6.2 4.5 0 .8-.5 1.1-2.4 1.2-1.8 3-3.9 5.6-6.3 8 1.1 1.6 2.3 2.9 3.6 3.8.5.4.9.6 1.4.6.7 0 1.7-.8 5.1-6.9.1-.2.4-.1.4.2-.9 3.4-1.5 6.8-1.5 7.4 0 .6.2 1.4.5 2.1.4.9.7 1.4.7 2.5 0 1.8-1.4 3.2-3.3 3.2-1.4 0-2.9-.3-4.6-1.4-2.6-1.7-5-4.2-7.1-7.5-4.7 3.3-10.1 5.6-15.6 6.6-.3 0-.5-.4-.2-.5 4.6-1.7 9.6-5.2 13.9-9.7-.4-1.1-.9-2.2-1.2-3.4-1.1-3.4-1.9-7.3-2.4-11.4l-1.2.1c-1.7.2-3.8.6-6.4 1.1l-.7-1.5c2.7-.1 5-.3 7-.6l1.2-.1c-.3-2.9-.5-6-.6-8.9-.1-3.4-.1-4.3-.3-6.1 7.4 1.1 7.8 1.4 7.8 2.4 0 .5-.2.9-1.7 1.6 0 4.1.1 7.5.4 10.4l6.9-1.3zm-4.7-12.2c5.6.1 7.7 2.8 7.7 5.5 0 1.6-1.4 3.2-3.2 3.2-1.4 0-2.7-.9-2.8-2.9-.1-3.2-.7-4.3-2-5.2-.2-.2 0-.6.3-.6zM953.9 531.2c0 11.6.1 14.5.1 15.7 0 1.3-1.5 2.1-4.3 2.1-1.8 0-2.1-.4-2.1-1.6s.2-4.5.3-11.2l.1-14.1c-2.6 2.7-5.3 5-7.7 6.5-.2.1-.6-.2-.4-.4 3.6-3.9 8.3-12.8 11-20.8.4-1.1.7-2.3.9-3.5 6.8 2.7 7.4 3.2 7.4 3.8 0 .7-.4 1.1-2.2 1.5-1.2 2.6-3 5.3-4.9 7.9 2.8 1 3.3 1.4 3.3 2 0 .4-.3.8-1.5 1.2v10.9zm22.4-11.6c2.6-5.3 2.8-5.5 3.3-5.5s.7 0 3.2 1.7c2.3 1.5 2.6 1.8 2.6 2.1 0 .4-.1.6-.5.7l-15.5 3.5c.4 2.6 1 4.8 1.7 6.9 1.6 4.5 4.5 8.1 7.3 10.1.5.4.9.5 1.4.5.7 0 2.5-2.4 5-6.8.1-.2.4-.1.4.2-.9 3.4-1.5 6.8-1.5 7.4 0 .6.2 1.4.5 2.1.4.9.7 1.4.7 2.5 0 1.8-1.2 3.2-3.4 3.2-1.6 0-3.1-.4-4.6-1.3-5.4-3.2-9.1-8.6-11-14.7-.9-2.7-1.5-5.7-2-8.8l-2.1.5c-1.7.4-3.8 1-6.3 1.7l-.8-1.5c2.7-.2 5-.8 6.9-1.2l2.1-.5c-.5-3.7-.8-7.6-1-11.5-.1-3.4-.1-4.3-.3-6.1 7.6 1.1 8 1.4 8 2.4 0 .5-.2.9-1.7 1.6 0 5.2.2 9.1.6 12.4l7-1.6zm-5.2-12.7c5.7.2 8 2.7 8 5.5 0 1.7-1.4 3.3-3.4 3.3-1.7 0-2.8-1.1-2.8-3.1 0-3.2-.9-4.3-2-5.2-.3-.2-.1-.5.2-.5zM1005.6 510.2c-1.7 6.9-6.4 11.2-13.3 13.2-.3.1-.5-.3-.2-.4 3.9-2.1 7-6.1 8.3-12.8h-1.5c-1.2 0-2.9.1-5 .4l-.5-1.6c2.2.2 4.1.3 5.5.3h1.6l.1-.9c.2-1.7.3-3.1.2-4.5 6.5.7 6.9 1 6.9 1.7 0 .5-.2.8-1.6 1.3-.1.8-.2 1.6-.4 2.4h3.2c1.9-2 2.1-2.1 2.5-2.1.5 0 .7.1 2.8 1.8 1.3 1.1 1.6 1.4 1.6 1.8 0 .5-.2.7-1.7 1.8-.1 1.4-.5 3.1-1.1 4.7-.8 1.9-2.8 3.2-5.1 3.2-.8 0-1.2-.3-1.4-1.2-.4-1.4-1.3-2.4-3-2.9-.3-.1-.2-.5 0-.5 1.4.1 2.3.1 3.2.1 1.2 0 1.5-.5 1.8-1.5.3-.9.6-2.6.7-4.3h-3.6zm-6.8 26.8c2.3 2.3 3.2 4 3.2 6.7 0 2.6-1.9 4.7-4.5 4.7-1.7 0-3-1.3-3-2.8 0-1.2.3-2 1.5-3 1.7-1.4 2.5-2.6 2.4-5.5 0-.3.2-.3.4-.1zm30.3-1.4c2.2-2.4 2.4-2.5 2.8-2.5.5 0 .8 0 3.3 2.1 1.9 1.6 2 1.8 2 2.3 0 .4-.1.6-1.3 1.5-.5 3.7-1.5 6.7-2.7 8.1-1.2 1.5-3.2 2.4-6.2 2.4-1.2 0-1.5-.3-1.8-1.3-.3-1.6-1.4-2.8-3.9-3.5-.3 0-.2-.5 0-.5 2.3.1 3.5.1 4.8 0 1.5-.1 2.3-.6 2.7-1.8.6-1.3 1-3.6 1.1-6h-23.6c0 .7-.4 1.3-1.5 1.7 3.4.9 5.8 2.9 5.8 5.7 0 2.2-1.5 3.5-3.3 3.5-1.2 0-2.4-1-2.4-2.3 0-.6 0-1.1.1-2.3.1-1.6-.1-3.5-1-4.4-.4.1-1 .1-1.6.1-1.4 0-2-.4-2-1.5 0-1.3.2-4.5.2-9 0-5.6 0-6.5-.2-8.4 4.7 1 6.1 1.5 6.5 1.9h19.9c2.8-3.2 2.9-3.2 3.3-3.2.5 0 .7.1 2.6 1.8 1.7 1.5 1.8 1.6 1.8 1.9 0 .3-.2.5-.5.5h-14c0 .4-.3.7-.8 1.1v2.6h5.3c2.6-2.9 2.7-3 3.2-3s.7 0 2.4 1.7c1.4 1.3 1.6 1.5 1.6 1.8 0 .2-.2.4-.5.4h-12v3.7h5.8c2.6-2.9 2.7-3 3.2-3s.7 0 2.4 1.7c1.4 1.3 1.6 1.5 1.6 1.8 0 .2-.2.4-.5.4h-12.5v3.8h9.9zm-15.6-10.5v-2.7h-6.6c-.1.1-.3.2-.6.4v3.3h7.2v-1zm0 2h-7.2v3.7h7.2v-3.7zm0 4.7h-7.2v3.8h7.2v-3.8zm5.5 11.2c0 2-1.5 3-3.1 3-1.3 0-2.4-.8-2.4-2.7 0-2.3-.4-4.3-2-5.6-.2-.2 0-.4.2-.4 5.2.9 7.3 3.2 7.3 5.7zm2.9-25c0 1.4-1.2 2-3.3 2-1.6 0-2-.3-2-1.5 0-.4.1-3.1.1-6.3 0-2.7 0-3.7-.2-5.8 4.1 1 5.6 1.5 6.2 1.9h5.5c2.1-2.4 2.3-2.4 2.8-2.4s.7.1 2.9 1.7c1.5 1.2 1.8 1.4 1.8 1.9 0 .4-.1.6-1.4 1.7v.8c0 2.3.1 3.6.1 3.9 0 1.4-1.3 2-3.6 2-1.6 0-2-.3-2-1.4h-6.9v1.5zm.1 23.7c-.4-1.9-1.5-3.6-3-4.3-.2-.1-.1-.4.1-.4 5.6-.1 7.9 1.8 7.9 4.1 0 1.6-1.2 2.7-2.7 2.7-1.2.1-2-.6-2.3-2.1zm-.1-26.2h6.9v-6.2h-6c-.2.1-.4.3-.8.5v5.7z"/>
    <path style="fill:none" d="M0 0h1170.5v546.4H0z"/>
</svg>
