<?xml version="1.0" encoding="utf-8"?>
<!-- Generator: Adobe Illustrator 25.0.0, SVG Export Plug-In . SVG Version: 6.00 Build 0)  -->
<svg version="1.1" id="圖層_1" xmlns="http://www.w3.org/2000/svg" xmlns:xlink="http://www.w3.org/1999/xlink" x="0px" y="0px"
	 viewBox="0 0 1170.5 550.5" style="enable-background:new 0 0 1170.5 550.5;" xml:space="preserve">
<style type="text/css">
	.st0{fill:#604C3F;}
	.st1{fill:none;}
</style>
<path class="st0" d="M397.9,65.3L425.7,0l2.8,1.2l-27.8,65.2L397.9,65.3L397.9,65.3z M461.7,23.8c10.4,0,21.2-0.3,27.4-0.7
	c-2.5-4.2-5.8-7.7-10.2-10.8c-0.3-0.2,0.1-1,0.4-0.9c13.2,4.6,19.9,9.6,19.9,14.8c0,2.7-1.7,4.6-3.9,4.6c-1.9,0-2.4-0.4-5.3-6
	c-18.4,3.5-23.3,4.2-43.5,5.8c-0.4,1.7-0.9,2.4-1.7,2.4c-1.2,0-1.7-1.4-3.1-9.9c3.3,0.3,7,0.5,12,0.6c2.6-4.5,5-10.6,6.6-15.8
	c0.9-3,1.5-5.7,1.7-7.7c7.9,2.1,10.6,3.2,10.6,4.5c0,1-0.9,1.5-3.2,1.9c-4.2,7.2-8.1,12.5-13,17.3h5.3L461.7,23.8z M456.2,60.5v2.7
	c0,1.9-1.2,3-4.2,3c-2,0-3-0.8-3-2.7c0-2.4,0.3-7.6,0.3-17.5c0-4.8,0-6.7-0.2-11.5c3.9,1.5,4.4,1.8,8,3.7h28.1
	c2.8-3.2,3.4-3.7,4-3.7c0.7,0,1.3,0.4,4.4,3c1.4,1.2,1.8,1.7,1.8,2.3c0,0.8-0.5,1.3-2.4,2.4v3.4c0,9.1,0.3,15.3,0.3,17.3
	c0,2-1.4,3-4.3,3c-2.2,0-3.2-0.8-3.2-2.6v-2.9h-29.6L456.2,60.5z M485.7,40h-29.5v18.9h29.5V40z M542.8,15.5
	c0,24.8,0.3,41.8,0.3,47.4c0,2.2-1.4,3.2-4.5,3.2c-2.3,0-3.2-0.8-3.2-2.6c0-2.4,0.1-7.6,0.3-16.1c-3.3,2.7-8.4,6-14,9
	c-0.3,1.8-0.6,2.4-1.4,2.4c-1,0-1.4-0.8-4.5-8.4c1.4-0.2,2.9-0.5,4.3-0.8c4.7-1.1,9.8-2.8,15.6-5.2l0.2-20.4h-12.7
	c-1.4,0-2.9,0.1-4.8,0.5l-0.8-2.7c2.2,0.4,4,0.5,5.6,0.5h12.7v-6c0-9.1-0.1-11.2-0.6-14.5c8.9,0.7,9.9,1,9.9,2.2
	c0,0.7-0.5,1.2-2.4,2L542.8,15.5L542.8,15.5z M558.9,29.2c3.6-2.9,6.9-6.2,9.5-9.4c1.7-2.1,3.1-4.2,4-6c5.7,3.5,8,5.3,8,6.3
	c0,0.7-0.6,1.3-3.5,0.9c-5.4,4.5-11.6,8.4-18.1,11.1v23.3c0,2.8,0.7,3.1,7.9,3.1c3.8,0,5,0,6.6-1.2c1.7-1.2,2.8-3.9,5-10.9
	c0.1-0.4,0.9-0.2,0.9,0.1c-0.2,3-0.6,7.2-0.6,8.8c0,0.9,0.2,1.2,0.9,1.6c1.6,0.8,2.2,1.4,2.2,2.7c0,2.2-1.5,3.5-5,4.2
	c-2.4,0.6-5.8,0.8-10.3,0.8c-12.4,0-14.7-1.2-14.7-8.1c0-1.4,0.2-2.7,0.2-8.2c0-15.3-0.1-30.7-0.3-46.2c8.6,0.9,9.3,1.1,9.3,2.2
	c0,0.8-0.6,1.3-2.2,2v22.9L558.9,29.2z M609.3,32.9c2-0.6,4.2-1.3,6.8-2.2c0.4-0.1,0.6,0.6,0.3,0.9c-2.4,1.7-4.8,3.4-7.1,4.8v6.7
	c0,7.1,0.1,13.3,0.1,16c0,2.5-0.6,4.3-1.8,5.5c-1.3,1.2-3.2,1.7-6,1.7c-0.6,0-1-0.5-1.1-1.5c-0.1-2.8-1.3-3.7-6.5-5.3
	c-0.4-0.1-0.4-0.9,0-0.9c3.1,0.3,5.7,0.4,7.8,0.4c0.9,0,1-0.1,1-1.1V40c-1.2,0.6-2.4,1.2-3.5,1.7c-0.2,1.8-0.7,2.6-1.5,2.6
	c-0.9,0-1.1-0.6-3.5-8.3c1.5-0.2,2.9-0.4,4.2-0.6c1.6-0.3,3-0.6,4.4-0.9V18.4h-3.7c-1.2,0-2.2,0.1-3.7,0.4l-0.8-2.7
	c1.8,0.4,3.2,0.6,4.5,0.6h3.7V8.9c0-4.5-0.1-5.9-0.4-8.5c7.4,0.6,9.1,1,9.1,2.1c0,0.7-0.6,1.2-2.3,1.9v12.3h0.4
	c2.2-3.2,3-3.7,3.5-3.7c0.6,0,1.4,0.6,3.6,2.6c0.9,0.9,1.5,1.6,1.5,2.1s-0.2,0.7-0.9,0.7h-8.1V32.9z M647.2,18.4
	c2.1-2.4,2.7-2.8,3.2-2.8c0.7,0,1.4,0.4,3.8,2.3c1.1,0.8,1.5,1.3,1.5,1.9c0,0.5-0.2,0.7-1.7,2.1v5.3h0.2c2.1-3.4,3-4,3.5-4
	c0.6,0,1.2,0.6,3.2,2.8c0.7,0.8,1.3,1.6,1.3,2.1s-0.2,0.7-0.9,0.7H654c0.1,4.8,0.2,8.2,0.2,9.4c0,1.7-1.4,2.5-3.6,2.5
	c-2.1,0-2.8-0.8-2.8-2.2v-0.3h-9.2v8.4h8.9c3-3.7,3.8-4.2,4.3-4.2c0.6,0,1.4,0.6,4.2,3c1.2,1.1,1.8,1.7,1.8,2.2s-0.2,0.7-0.9,0.7
	h-18.3v10.4c2.5,0.2,5.6,0.3,9.3,0.3c6.6,0,8.4-0.1,13.9-0.6c0.4,0,0.3,0.6,0,0.9c-2.1,1.4-3,2.3-3.3,4.8c-0.2,1.4-0.4,1.7-1.2,1.8
	c-1.2,0.1-2.1,0.1-3.5,0.1c-8.1,0-15.5-0.8-20.7-3.1c-4.7-1.9-7.7-5-10.4-9.8c-3,6.2-7.3,10.6-12.8,13c-0.4,0.1-0.9-0.6-0.6-0.8
	c4.1-3.3,7.6-10.2,9-17.7c0.4-2.1,0.6-4.1,0.7-6.2c6.9,1.1,8.4,1.5,8.4,2.4c0,0.6-0.5,1.1-1.9,1.6c-0.5,2-1.2,4-1.9,5.7
	c2.2,3.2,5,5.6,8.8,6.7V38.3h-9.8c-1.3,0-2.7,0.1-4.4,0.5l-0.8-2.7c2.1,0.4,3.6,0.5,5.2,0.5h9.8v-7.8h-12c-1.3,0-2.7,0.1-4.4,0.4
	l-0.8-2.7c2.1,0.4,3.6,0.6,5.2,0.6h12V20h-7.5c-1.5,0-3,0.1-5,0.6l-0.8-2.8c2.3,0.4,4,0.6,5.7,0.6h7.6v-6.3h-11.7
	c-1.4,0-2.7,0.1-4.5,0.4l-0.8-2.7c2.1,0.4,3.6,0.6,5.2,0.6h11.8V7.7c0-3.7,0-4.5-0.2-7.3c7.8,0.8,8.5,1.5,8.5,2.2c0,0.6-0.6,1-2,1.7
	v6.2h9.9c3.5-4.2,4.4-4.8,4.9-4.8c0.6,0,1.4,0.6,4.9,3.3c1.5,1.2,2.1,1.9,2.1,2.4s-0.2,0.7-0.9,0.7h-20.9v6.3
	C638.7,18.4,647.2,18.4,647.2,18.4z M638.6,27.2h9.2v-7.1h-9.2V27.2z M638.6,28.9v7.8h9.2v-7.8H638.6z M688.9,50.8
	c2.2,3.7,3.5,5,6.8,6c3.5,1.1,9,1.7,16.6,1.7c8.9,0,15.7-0.4,28.1-1.8c0.4-0.1,0.3,0.6,0,0.8c-1.7,0.9-2.4,1.9-2.7,4
	c-0.2,2.2-0.4,2.4-1.7,2.6c-4,0.5-12.4,0.6-17.9,0.6c-11.4,0-18.4-0.8-23.1-3.3c-4-2.2-6.3-5.7-8-11c-2.3,4-4.3,6.6-8.3,10.8
	c0.2,2.7-0.3,3.3-1.2,3.3c-1.1,0-2.7-2.6-5.3-8.8c1.6-0.4,3.4-1.1,5.1-1.9c1.9-0.8,3.6-1.8,5-2.8V31.9h-5c-1.2,0-2.4,0.1-4,0.6
	l-0.8-2.9c1.9,0.5,3.3,0.6,4.8,0.6h4.5c2.5-2.9,3.1-3.3,3.7-3.3c0.7,0,1.3,0.4,4,2.5c1.2,1,1.7,1.5,1.7,2.1c0,0.5-0.2,0.7-2.2,2.3
	L688.9,50.8L688.9,50.8z M684,16c-1.7,0-2.5-0.9-3.5-4.5c-0.8-2.7-2.4-6.3-4.6-8.4c-0.3-0.3,0.2-0.7,0.6-0.6
	c8.4,2,11.5,5.5,11.5,9.2C688,14.1,686.6,16,684,16z M726.1,14.3c2.2-2.7,3.2-3.4,3.7-3.5c0.4-1.2,0.6-2.7,1-4.6h-31.9
	c0.1,4.2-1.6,7.8-5.2,7.8c-1.7,0-3.1-1.4-3.1-3.2c0-1.2,0.6-2.2,2.3-3.2c2.9-1.7,4-3.6,4-6.6c0-0.4,0.6-0.5,0.8-0.1
	c0.5,1.2,0.9,2.4,1,3.7h30.9c2.4-3,3-3.4,3.6-3.4c0.7,0,1.3,0.4,4.8,3.5c1.6,1.4,2,1.9,2,2.5c0,0.9-1.1,1.4-3.5,1.4
	c-0.8,0-1.1-0.1-1.5,0.2c-1.2,0.8-2.5,1.6-4.1,2.5c0.6,0.4,1.5,1,3,2.1c1.1,0.9,1.7,1.4,1.7,1.9s-0.2,0.7-0.9,0.7h-17.1v6.3h8.8
	c1.9-2.4,2.5-2.8,3.1-2.8c0.7,0,1.4,0.4,3.8,2.2c1.2,0.9,1.6,1.4,1.6,1.9s-0.4,1-1.7,2v2.5c0,6.8,0.3,11.4,0.3,12.9
	c0,1.7-1.4,2.6-3.7,2.6c-1.9,0-2.8-0.6-2.8-2.1V41h-9.3c0,0.8,0.1,1.5,0.1,2.3v4.4H729c3-3.7,3.9-4.2,4.4-4.2c0.6,0,1.4,0.6,4.2,3
	c1.2,1.1,1.8,1.7,1.8,2.2s-0.2,0.7-0.9,0.7h-20.7V54c0,1.8-1.3,2.7-3.7,2.7c-1.9,0-2.9-0.7-2.9-2.1c0-1.1,0-2.9,0.1-5.3h-14.9
	c-1.3,0-2.7,0.1-4.4,0.4l-0.8-2.7c2.1,0.4,3.6,0.6,5.2,0.6h14.9v-2.1c0-1.6,0-3.1,0.1-4.6h-8.8v0.7c0,1.7-1.2,2.5-3.6,2.5
	c-1.9,0-2.7-0.7-2.7-2.4c0-1.9,0.3-3.9,0.3-11.7c0-3.6-0.1-7.3-0.3-10.9c3.2,1.2,3.7,1.4,6.7,3h8.5V16h-10.7c-1.2,0-2.3,0.1-3.8,0.4
	l-0.8-2.7c1.9,0.4,3.2,0.6,4.6,0.6h10.7c0-3.1,0-3.8-0.2-6.3c7.2,0.9,8.4,1.2,8.4,2.2c0,0.6-0.5,1-2.1,1.8v2.3H726.1z M702.5,23.9
	v6.4h8.9v-6.4H702.5z M711.3,32h-8.8v7.3h8.8V32z M717.5,30.3h9.4v-6.4h-9.4V30.3z M726.9,39.3V32h-9.3v7.3H726.9z M748.8,65.3
	L776.6,0l2.8,1.2l-27.8,65.2C751.6,66.4,748.8,65.3,748.8,65.3z M14.3,274c2.7-1.2,5.5-2.4,8.6-4.1c0.3-0.1,0.6,0.6,0.4,0.8
	c-3.3,2.7-6.1,4.8-8.9,6.6v1.4c0,18.1,0.1,20.8,0.1,23.5c0,2.2-0.7,3.6-1.8,4.5c-1,1-2.6,1.5-4.5,1.5c-0.6,0-0.9-0.4-1.1-1.4
	c-0.3-2.1-1.2-2.9-6.5-4c-0.4-0.1-0.4-0.9,0-0.9c3.7,0.1,5.9,0.3,7.5,0.3c0.9,0,1.2-0.3,1.2-1.2v-20.9c-1.4,0.8-2.9,1.6-4.5,2.4
	c-0.1,1.9-0.5,2.6-1.2,2.6c-0.6,0-1.2-0.9-3.5-6.8c1.6-0.2,3-0.6,4.5-1c1.7-0.5,3.2-1,4.8-1.6v-15.6H5c-1.2,0-2.2,0.1-4,0.4
	l-0.7-2.7c1.9,0.4,3,0.5,4.7,0.5h4.2v-2.2c0-9.5-0.1-11-0.4-13.8c6.4,0.7,7.8,1.1,7.8,2.1c0,0.7-0.5,1.2-2.4,1.9v12h1.9
	c2.2-2.8,2.8-3.2,3.2-3.2s0.9,0.4,3.4,2.4c1,0.9,1.3,1.4,1.3,1.8c0,0.5-0.2,0.7-0.9,0.7h-8.9L14.3,274L14.3,274z M53.1,272.7
	c3.9,2.2,8.9,4.1,14.1,5.2c0.3,0.1,0.2,0.6-0.1,0.7c-1.5,0.5-2.4,1.3-3.2,3.4c-0.4,1-0.6,1.3-1.2,1.3c-0.4,0-1.2-0.3-2.3-0.9
	c-3.3-1.6-6.8-4-9.6-6.7c-3-2.7-5.8-5.9-8.9-10.7c-6.2,9-14.4,15-24.7,19.1c-0.4,0.1-0.9-0.7-0.5-0.9c7.1-4.4,12.6-9.1,17.1-15.4
	c2.2-3.2,3.5-5.5,4.4-7.9c5.7,2.1,6.9,2.8,6.9,3.5c0,0.4-0.4,0.8-1.8,1.1C46.2,267.9,49.5,270.4,53.1,272.7L53.1,272.7z M51.6,254.9
	c0.1,3.4,0.1,5.1,0.1,5.8c0,1.4-0.9,2-2.9,2c-1.5,0-2.2-0.5-2.2-1.7c0-0.6,0.1-2.2,0.1-6H35.6c0,3.3,0.1,5.1,0.1,5.8
	c0,1.3-1.1,2-3,2c-1.6,0-2.2-0.5-2.2-1.7c0-0.6,0.1-2.5,0.1-6.1h-3.9c-1.8,0-3,0.1-5.1,0.4l-0.7-2.8c2.3,0.4,3.7,0.6,5.8,0.6h3.9v-3
	c0-3.3,0-4.5-0.3-6.9c6.1,0.6,7.2,1,7.2,1.9c0,0.6-0.4,1-2,1.5v6.6h11.2v-1.6c0-4.2,0-5.8-0.2-8.3c6,0.6,7.2,0.9,7.2,1.8
	c0,0.6-0.5,1-2.2,1.6v6.5H57c2.7-3.3,3.2-3.7,3.6-3.7c0.5,0,1.1,0.4,3.9,2.9c1.2,1.2,1.5,1.6,1.5,2s-0.2,0.6-0.9,0.6H51.6V254.9z
	 M30.7,305.7c0,1.6-0.9,2.4-3.1,2.4c-1.7,0-2.2-0.7-2.2-2.1c0-1.3,0.3-3.5,0.3-11.2c0-4.9,0-7.6-0.4-11.4c2.8,1.2,4,1.9,6.1,3.2
	h19.9c2-2.3,2.4-2.5,2.8-2.5c0.6,0,1,0.2,3.2,2c1,0.8,1.3,1.3,1.3,1.7c0,0.5-0.1,0.6-1.7,1.9v3.9c0,7.3,0.1,10.8,0.1,11.9
	c0,1.5-0.8,2.4-3.2,2.4c-1.5,0-2.1-0.7-2.1-1.9v-2.5h-21C30.7,303.5,30.7,305.7,30.7,305.7z M51.8,288.5H30.7v13.2h21.2v-13.2H51.8z
	 M31.1,277.4c1.7,0.4,2.8,0.5,4.3,0.5h8.1c2-2.7,2.6-3,3-3s1,0.4,3.6,2.4c1.1,0.9,1.4,1.3,1.4,1.8c0,0.4-0.2,0.6-0.9,0.6H35.4
	c-1.2,0-2,0.1-3.6,0.4L31.1,277.4L31.1,277.4z M113,281.2c3.2,4.7,7.6,8.3,12.7,11.2c5.6,3.4,12.4,5.3,19.5,6c0.3,0,0.3,0.6,0,0.7
	c-1.9,0.5-2.7,1.5-3.5,3.7c-0.4,1.2-0.7,1.5-1.4,1.5c-0.5,0-1.3-0.1-2.2-0.5c-4.5-1.5-9.9-4.3-14.5-8.1c-4.2-3.5-7.6-7.1-10.9-12.7
	c0.4,13.2,0.6,20.8,0.6,23.3c0,1.8-1.1,2.5-3.6,2.5c-1.7,0-2.3-0.6-2.3-2c0-2.6,0.4-8.6,0.6-19.9c-7.6,8.9-17.5,14.9-29.5,18.1
	c-0.4,0.1-0.9-0.8-0.4-0.9c13-5.6,23.6-14.4,29.7-25.8v-19.2H85.2c-1.7,0-2.8,0.1-4.8,0.4l-0.7-2.7c2.2,0.4,3.6,0.5,5.5,0.5H108v-7
	c-7.3,0.6-15.1,0.8-23.6,0.8c-0.4,0-0.4-1.1,0-1.1c13.3-1.1,27.4-3.2,36.1-5.6c3.2-0.9,6-2,7.6-3c3.9,2.8,6,4.7,6,5.5
	c0,0.4-0.4,0.7-1.4,0.7c-0.6,0-1.5-0.1-2.7-0.5c-5.3,1.2-10.9,2.2-17,2.8v7.4h19.3c3-3.5,3.5-3.7,4-3.7s1,0.1,4,2.7
	c1.5,1.2,1.9,1.8,1.9,2.2c0,0.4-0.3,0.6-0.9,0.6H113V281.2L113,281.2z M87,269.4c-1.9,0-3.1,0.1-4.9,0.5l-0.8-2.8
	c2.3,0.4,3.7,0.5,5.7,0.5h9.4c0-2.3-0.1-4.2-0.4-5.8c5.8,0.6,7.1,1.1,7.1,1.9c0,0.6-0.4,1.1-2,1.8v4.4c0,6.5,0.1,11.7,0.1,12.9
	c0,1.4-1.1,2-3,2c-1.4,0-2.1-0.5-2.1-1.7c0-0.6,0.1-2.7,0.2-5.6c-3.7,2.4-7.2,4.1-12.1,6c-0.2,1.7-0.6,2.3-1.3,2.3
	c-0.6,0-1.4-1.4-3.2-6.5c1.8-0.1,3.7-0.4,5.4-0.8c3.9-0.7,7.5-1.6,11.2-2.8c0.1-1.5,0.1-3.1,0.1-4.8v-1.7H87V269.4z M124.6,277.6
	c0,1.9,0.5,2.7,6.1,2.7c4,0,5.2-0.2,6-0.9c1.1-0.8,1.8-2.6,2.9-6.5c0.1-0.4,0.8-0.2,0.8,0.1v4.8c0,0.8,0.2,0.9,1,1.2
	c0.9,0.4,1.3,0.9,1.3,1.7c0,1.5-0.7,2.4-3.2,3c-2,0.5-4.4,0.7-9.9,0.7c-8.4,0-9.9-1.4-9.9-6.1v-7.9c0-3.3,0-6-0.3-8.6
	c6.4,0.6,7.2,1,7.2,1.8c0,0.6-0.4,1.2-2.2,1.9v5.9c2.8-1.4,5-2.9,7.1-4.5c1.4-1.2,2.6-2.3,3.2-3.5c4.8,3.1,5.4,3.6,5.4,4.3
	c0,0.7-0.8,1.2-3.2,0.7c-3.2,1.7-7.3,3.3-12.5,4.4v4.8H124.6z M217.2,241.1c-5.4,4.8-9.3,9.8-11.7,15.2c-2.4,5.4-3.7,11.7-3.7,18.9
	s1.2,13.5,3.7,18.9c2.4,5.4,6.3,10.5,11.7,15.2h-23v-68.1h23V241.1z M257,273.3c10.3,1.1,16.1,5.6,16.1,13c0,7.1-4.7,14.4-20.7,14.4
	c-4.1,0-9.2-0.4-12.6-0.4c-2.8,0-6.1,0.1-8.9,0.3c-0.4,0-0.6-0.2-0.6-0.9s0.1-0.9,0.6-0.9c2.5-0.3,4.5-0.3,5.4-1.8
	c0.9-1.6,0.9-4.7,0.9-9.4V262c0-6.8,0-7.7-0.9-9.2c-0.8-1.3-3-1.4-5.8-1.7c-0.5-0.1-0.6-0.1-0.6-0.9c0-0.9,0.1-1.1,0.6-1.1
	c3,0.2,6.1,0.3,9.1,0.3c3.2,0,8-0.4,11.9-0.4c14,0,18.4,4.8,18.4,11.8c0,5.2-2.8,9.6-13,12.3v0.2L257,273.3z M243.6,272.2
	c1.2,0.1,2.2,0.1,3.5,0.1c12.3,0,15.5-5.1,15.5-11.2c0-6.5-4.4-9.9-12-9.9c-2.6,0-5.2,0.1-6.1,1.6c-0.9,1.4-0.9,4.6-0.9,9V272.2z
	 M243.6,287.4c0,3.9-0.1,7.1,1.1,8.9c1.1,1.8,4,2,7.3,2c10.9,0,13.5-6.7,13.5-12c0-4.5-1.4-11.7-17.4-11.7c-1.3,0-2.6,0-4.5,0.1
	V287.4z M299.7,287.4c0,7.1,0.1,8.1,0.8,9.6c0.9,1.4,2.9,1.4,5.5,1.7c0.6,0.1,0.7,0.2,0.7,1c0,0.6-0.1,0.9-0.7,0.9
	c-3.1-0.1-6.6-0.3-9.6-0.3c-2.9,0-6.6,0.1-9.4,0.3c-0.6,0-0.7-0.2-0.7-0.9c0-0.8,0.1-0.9,0.7-1c2.4-0.3,4.5-0.4,5.3-1.7
	c0.9-1.6,0.9-4.8,0.9-9.6v-25.6c0-6.8,0-7.6-0.8-9.1c-0.8-1.4-3.3-1.5-6-1.8c-0.4-0.1-0.6-0.1-0.6-0.9c0-0.9,0.1-1.1,0.6-1.1
	c3.1,0.1,6.8,0.3,9.7,0.3c2.6,0,7.1-0.4,11.8-0.4c13.2,0,18.4,5.8,18.4,13.1c0,5.3-3.5,10.6-11.6,12.8c2.9,5.5,6.2,11.4,10,17.5
	c1.6,2.6,2.9,4.5,4.3,5.4c1.2,0.6,2.5,0.8,4.4,1c0.4,0.1,0.6,0.2,0.6,0.9c0,0.8-0.2,0.9-0.6,0.9c-2.7-0.1-4.8-0.3-6.8-0.3
	c-1.9,0-3.2,0-5.4,0.1c-0.7-1.8-1.7-3.7-2.7-5.5c-3.5-6.3-7-12.6-10.4-18.9c-0.9,0.1-2.2,0.1-3.2,0.1c-1.8,0-3.5-0.1-5.2-0.2
	L299.7,287.4L299.7,287.4z M299.7,273.3c1.6,0.2,3.4,0.4,5.2,0.4c10.2,0,14-5.1,14-11.3c0-7.1-3.9-11.1-12.5-11.1
	c-2.4,0-4.8-0.1-5.8,1.4c-1,1.4-0.9,5.2-0.9,9.1L299.7,273.3L299.7,273.3z M392.5,258c-2.6,10.4-6.8,20.6-13.8,28.8
	c0.6,0.6,1.2,1.2,1.8,1.7c8,6.9,17.7,10.8,28.6,13.5c0.4,0.1,0.3,0.8-0.1,0.9c-2.3,0.6-3.2,1.3-4.2,3.9c-0.4,0.9-0.8,1.2-1.4,1.2
	s-1.7-0.4-3.7-1.2c-8.4-3.6-16.5-8.9-23.9-16.7c-8.2,8.4-19.1,14.4-32.6,18.2c-0.5,0.1-0.9-0.9-0.5-1.2c12.6-5.3,22.5-12.3,29.8-21
	c-6.3-8.2-10.6-18-13.2-28h-10.1c-1.9,0-3.2,0.1-5.3,0.4l-0.7-2.7c2.4,0.4,4,0.5,6,0.5H372v-7.6c0-1.6-0.1-3-0.4-5.4
	c7.5,0.7,8.3,1.3,8.3,2.2c0,0.5-0.5,1.1-2.4,1.8v9h19.6c3.7-4,4.2-4.3,4.6-4.3c0.5,0,1,0.4,4.5,3.1c1.7,1.3,2,1.8,2,2.3
	s-0.2,0.7-0.9,0.7h-14.8L392.5,258z M361.2,258c3.2,9,7.4,17.8,13.9,25c5.5-7.4,9.3-16.1,11.5-25H361.2z M425.5,303.6
	c0-1.8,0.4-4.5,0.4-7.2c0-4.2-1-5.6-5.2-6.8c-0.4-0.1-0.2-1.1,0.2-1c1.1,0.2,1.9,0.4,2.7,0.4c1.7,0,2.3-0.6,3.1-2
	c2.7-5,6-11.6,10.6-22c0.1-0.4,1-0.1,0.9,0.3c-2.7,8.6-5.3,15.8-7.9,23c-0.7,1.9-0.7,3-0.7,4.2c0,3.4,2.2,7,2.2,10.4
	c0,2.9-1.4,4.6-3.5,4.6C426.4,307.4,425.5,306.1,425.5,303.6L425.5,303.6z M426.4,270.2c-1.4-3.6-2.7-5.3-5.7-7.9
	c-0.2-0.2,0.1-0.6,0.4-0.6c6.4,0.7,10.3,4,10.3,7.2c0,1.8-1.2,3.3-2.7,3.3C427.7,272.2,427,271.5,426.4,270.2L426.4,270.2z
	 M429.7,252.1c-1.2-2.8-2.3-4.8-5.2-7.2c-0.2-0.2,0-0.6,0.3-0.6c6.4,1,10.4,4.1,10.4,7.6c0,1.8-1.2,3.2-2.8,3.2
	C431.3,255,430.6,254.3,429.7,252.1L429.7,252.1z M443.9,298.9c0,1.6-0.9,2.3-3,2.3c-1.2,0-1.9-0.6-1.9-1.7c0-1.2,0.2-6.9,0.2-14.6
	c0-6,0-8.1-0.2-11.8c2.2,0.9,3.2,1.4,5.3,2.6h2.5v-14.3H441c-1.4,0-2.5,0.1-4.4,0.4l-0.7-2.7c2,0.4,3.4,0.5,5.1,0.5h5.8V254
	c0-5.3-0.1-7.8-0.4-10.8c6.5,0.7,7.3,1.4,7.3,2.2c0,0.5-0.5,1-2.2,1.7v12.5h3.9c2.2-2.9,2.7-3.2,3.1-3.2c0.5,0,0.9,0.4,3.5,2.4
	c1,0.9,1.3,1.4,1.3,1.9s-0.2,0.7-0.9,0.7h-10.8v14.3h2.4c1.7-2.1,2.1-2.4,2.5-2.4c0.5,0,0.9,0.3,3,1.9c0.9,0.9,1.3,1.3,1.3,1.8
	s-0.3,0.9-1.7,1.9v5.9c0,6.8,0.1,9.9,0.1,11c0,1.5-0.9,2.2-2.8,2.2c-1.3,0-1.9-0.5-1.9-1.7V295H444v3.9H443.9z M454.4,277.4h-10.5
	v15.8h10.5V277.4z M468.8,282c-0.2,1.1-0.4,2.1-0.6,3.1c-1.6,9.4-5.4,16.4-12.9,22.8c-0.4,0.4-1.2-0.4-0.9-0.7
	c5-6.2,7.6-11.7,9.1-19.7c1.2-6.2,1.6-13.8,1.6-25.9c0-10.3-0.1-13-0.4-17.1c2.4,0.9,3.6,1.5,6,2.9h8.4c1.9-2.2,2.3-2.5,2.7-2.5
	c0.5,0,1,0.3,3.2,2.1c1.1,0.9,1.3,1.4,1.3,1.8c0,0.5-0.4,0.9-1.9,1.9v27.4c0,18.5,0.2,20.8,0.2,24c0,2.4-0.9,3.7-2.6,4.7
	c-1,0.6-2.3,1-3.6,1c-1,0-1.2-0.2-1.4-1.6c-0.2-1.9-1.9-2.7-6.6-3.8c-0.4-0.1-0.4-0.9,0-0.9c3.8,0.3,5.9,0.4,8,0.4
	c0.9,0,1.2-0.4,1.2-1.3V282H468.8L468.8,282z M469.9,265.8c-0.1,4.8-0.4,9.6-0.9,14.5h10.5v-14.5H469.9z M479.5,249.2H470v9.4
	c0,1.9,0,3.7-0.1,5.3h9.6V249.2L479.5,249.2z M499.2,302.4c1.4-3.4,2.8-8.3,3.7-12.5c0.6-3,0.9-5.8,0.9-7.8c5.7,1.7,6.6,2.1,6.6,3
	c0,0.5-0.6,0.9-2.2,1.3c-2.1,6.8-4.2,11.5-8.1,16.4C499.9,303.2,499.1,302.8,499.2,302.4z M511.4,276.2c-2,0.4-4.5,0.8-7.6,1.4
	c-0.5,1.6-0.9,2-1.5,2c-0.8,0-1.2-1.1-2.2-6.7c1.5,0.1,2.2,0.2,3.3,0.2c1.4,0,2.8,0,4-0.1c2.8-4.1,6-9.5,8.2-14.3
	c1.2-2.6,2.2-5,2.6-6.8c5,2.4,6.6,3.4,6.6,4.2c0,0.6-0.7,1.2-2.7,1.1c-4.4,6.5-7.3,10.5-12.6,15.8c4-0.1,8-0.3,12-0.7
	c-0.6-1.9-1.4-3.8-2.7-5.8c-0.1-0.2,0.4-0.5,0.6-0.4c4.8,2.8,7.5,6.6,7.5,9.6c0,1.8-1.1,3.3-2.5,3.3c-1.2,0-1.9-0.9-2.2-3.7
	c-0.1-0.6-0.1-1.2-0.3-1.7c-1.9,0.6-3.9,1.1-5.8,1.5v13.8c0,7.8,0.2,15,0.2,17.1c0,1.6-1,2.4-3,2.4c-1.7,0-2.2-0.6-2.2-1.9
	s0.4-5.9,0.4-14.8L511.4,276.2L511.4,276.2z M511.3,262c0,1.8-1.1,3.2-2.4,3.2s-1.6-0.3-2.4-3.1c-1.2-3.2-2.4-5.5-5.2-8.1
	c-0.2-0.2,0.1-0.6,0.4-0.6c2.1,0.7,3.8,1.5,5.3,2.4c1.2-2.7,2.2-5.3,3.1-8c0.7-2.2,1.2-4.3,1.4-5.9c5.5,2.1,7,2.7,7,3.5
	c0,0.7-0.6,1.2-2.7,1.2c-3.2,4.8-4.8,7-7.5,10.1C510.3,258.3,511.3,260.1,511.3,262L511.3,262z M520.6,291.7c-0.2-3.5-1-6.8-2.4-9.4
	c-0.1-0.2,0.4-0.4,0.6-0.3c4.2,3.2,6.5,6.7,6.5,9.6c0,2.4-1,3.7-2.6,3.7C521.1,295.4,520.7,294.3,520.6,291.7L520.6,291.7z
	 M533.4,281.3c1.7-2,2.1-2.3,2.5-2.3c0.5,0,0.9,0.3,3,2.3c1.2,1.2,1.5,1.6,1.5,2c0,0.5-0.5,0.9-2.2,1.4c-3.5,9.4-8.5,14.8-17.9,19.9
	c-0.4,0.2-1-0.8-0.6-1.1c6.9-5.5,11.6-12.4,13.7-20.4h-4.6c-1.4,0-2.6,0.1-4.3,0.5l-0.8-2.8c2.1,0.4,3.4,0.5,5,0.5H533.4
	L533.4,281.3z M546,285.2c0.1,9.1,0.4,15,0.4,17.4c0,2.2-0.9,3.5-2.1,4.4c-0.9,0.7-2.4,1.3-3.8,1.3c-0.9,0-1.2-0.4-1.5-1.6
	c-0.3-2-1.4-2.6-6.8-3.7c-0.4-0.1-0.4-1,0.1-0.9c4,0.4,6.4,0.4,8,0.4c0.9,0,1.2-0.3,1.2-1.2v-28.8h-6.9v0.9c0,1.5-1,2.1-3,2.1
	c-1.3,0-2-0.4-2-1.7c0-1.8,0.3-4.5,0.3-14.8c0-5.3,0-8-0.4-11.4c2.3,0.9,3.5,1.5,5.8,3h4.7c0.4-1.4,0.8-2.9,1.1-4.2
	c0.3-1.5,0.4-3,0.4-4.4c5.8,1.5,7.2,2.2,7.2,3c0,0.6-0.6,1.1-2.7,1.3c-1.3,1.7-2.5,3-4,4.3h11c2.3-2.4,2.7-2.7,3.1-2.7
	c0.5,0,0.9,0.3,3.1,2.2c1.1,1,1.3,1.4,1.3,1.9c0,0.6-0.1,0.8-1.9,2v4.8c0,8.7,0.2,13.2,0.2,14.5c0,1.5-0.9,2.2-2.9,2.2
	c-1.7,0-2.2-0.5-2.2-1.9v-0.9h-7.3c1.1,4.8,2.4,9.6,5.2,13.8c1.7-1.7,3.2-3.5,4.6-5.5c1.3-1.9,2.2-3.7,2.7-5.4c5,3,5.9,3.8,5.9,4.5
	c0,0.8-0.6,1.1-2.8,1c-4.2,3.1-6.3,4.7-9.7,6.4c0.6,0.8,1.2,1.5,1.8,2.2c3.7,4.2,8.1,7.1,13,8.9c0.3,0.1,0.1,0.6-0.1,0.7
	c-1.7,0.7-2.4,1.6-3.2,3.9c-0.4,1.2-0.6,1.3-1.2,1.3c-0.4,0-0.9-0.3-2.1-1.2c-3.2-2.9-6.6-6.8-8.6-10.3c-2.7-4.7-4.2-9-5.9-17.6
	L546,285.2L546,285.2z M553.7,252.2h-19.2v8h19.2V252.2z M534.5,270.6h19.2V262h-19.2V270.6L534.5,270.6z M601.6,309.3h-23
	c5.4-4.7,9.3-9.8,11.7-15.2c2.4-5.4,3.7-11.7,3.7-18.9s-1.2-13.5-3.7-18.9c-2.4-5.4-6.3-10.4-11.7-15.2h23V309.3z M657.4,257.4
	c-1.6,0-2.9,0.1-4.9,0.4l-0.7-2.7c2.2,0.4,3.7,0.5,5.6,0.5h31.4c-0.1-1.5-0.1-3.1-0.1-4.8c-0.1-4.5-0.1-5.8-0.4-7.8
	c6.9,0.8,8,1.3,8,2.2c0,0.6-0.4,1.2-2.4,2.1c0,3,0.1,5.8,0.1,8.4h12.9c2.6-3.5,3.2-3.8,3.6-3.8c0.5,0,0.9,0.3,4.1,2.9
	c1.4,1.1,1.7,1.6,1.7,2c0,0.5-0.3,0.7-0.9,0.7h-21.3c0.4,11.7,1.4,19.2,3.7,25.3c1.5-2.5,2.8-5.1,4-7.8c1.7-4,2.7-7.8,3-10.6
	c5.7,1.9,7.1,2.5,7.1,3.4c0,0.6-0.6,1.1-2.5,1.4c-2.3,7.2-5.3,13.3-9.2,18.6c2.4,4.2,5.5,7.6,8.9,10.3c1.3,1.1,1.9,1.6,2.3,1.6
	c0.6,0,1.4-1.6,4.5-7.7c0.1-0.3,0.8-0.1,0.7,0.2c-1,6.1-1.3,7.7-1.3,8.2c0,0.9,0.2,1.4,0.6,2c0.8,1.1,1,1.7,1,2.6
	c0,1.5-0.9,2.4-2.5,2.4c-1.5,0-3.8-1.2-6.3-2.9c-4.2-3-8.4-7.3-11.5-12.5c-5.9,6.2-13.5,10.9-23.2,14.4c-0.5,0.1-0.9-0.9-0.5-1.2
	c8.9-4.5,16.1-10.4,21.5-17.4c-0.8-1.7-1.4-3.5-2-5.3c-2-6.8-3-13.8-3.4-25h-31.6L657.4,257.4z M653.5,293.5c2.2,0,4.4-0.2,7.3-0.6
	c7.1-0.8,16.8-2.4,24.3-4.5c0.4-0.1,0.5,0.7,0.2,0.9c-6.8,3.6-15.8,6.6-26.8,9.5c-0.7,2.3-1,2.8-1.7,2.8
	C656,301.5,655.5,300.3,653.5,293.5L653.5,293.5z M663.5,284.2c0,1.7-1,2.4-3.1,2.4c-1.5,0-2.2-0.6-2.2-1.7c0-1.3,0.2-3.9,0.2-11.2
	c0-4.6,0-6.9-0.4-10.4c2.6,1.2,3.6,1.7,6.1,3.2h12.3c2.2-2.4,2.6-2.7,3-2.7c0.5,0,0.9,0.3,3.1,2.2c1.1,1,1.4,1.4,1.4,1.9
	c0,0.6-0.4,1.1-1.9,2v3.2c0,6.5,0.1,9.4,0.1,10.3c0,1.4-1,2.2-3,2.2c-1.5,0-2.2-0.5-2.2-1.7V282h-13.6v2.2H663.5z M677.1,268.1
	h-13.6v11.8h13.6V268.1z M702.1,251.3c-1-2.4-2.3-4.2-4.2-5.8c-0.2-0.2,0.1-0.6,0.4-0.6c5.3,0.9,8.6,3.1,8.6,5.8
	c0,1.7-1.1,2.9-2.4,2.9C703.3,253.6,702.9,253.2,702.1,251.3L702.1,251.3z M789.7,241.1c-5.4,4.8-9.3,9.8-11.7,15.2
	c-2.4,5.4-3.7,11.7-3.7,18.9s1.2,13.5,3.7,18.9c2.4,5.4,6.3,10.5,11.7,15.2h-23v-68.1h23V241.1z M829.5,273.3
	c10.3,1.1,16.1,5.6,16.1,13c0,7.1-4.7,14.4-20.7,14.4c-4.1,0-9.2-0.4-12.6-0.4c-2.8,0-6.1,0.1-8.9,0.3c-0.4,0-0.6-0.2-0.6-0.9
	s0.1-0.9,0.6-0.9c2.5-0.3,4.5-0.3,5.4-1.8c0.9-1.6,0.9-4.7,0.9-9.4V262c0-6.8,0-7.7-0.9-9.2c-0.8-1.3-3-1.4-5.8-1.7
	c-0.5-0.1-0.6-0.1-0.6-0.9c0-0.9,0.1-1.1,0.6-1.1c3,0.2,6.1,0.3,9.1,0.3c3.2,0,8-0.4,11.9-0.4c14,0,18.4,4.8,18.4,11.8
	c0,5.2-2.8,9.6-13,12.3L829.5,273.3L829.5,273.3z M816.2,272.2c1.2,0.1,2.2,0.1,3.5,0.1c12.3,0,15.5-5.1,15.5-11.2
	c0-6.5-4.4-9.9-12-9.9c-2.6,0-5.2,0.1-6.1,1.6c-0.9,1.4-0.9,4.6-0.9,9V272.2z M816.2,287.4c0,3.9-0.1,7.1,1.1,8.9c1.1,1.8,4,2,7.3,2
	c10.9,0,13.5-6.7,13.5-12c0-4.5-1.4-11.7-17.4-11.7c-1.3,0-2.6,0-4.5,0.1L816.2,287.4L816.2,287.4z M872.5,287.4c0,3.1-0.1,7,1,8.6
	c1.2,1.9,3.7,1.9,7,1.9c7.2,0,10.3-1.4,12.5-3s4-4.6,5.4-7.2c0.2-0.5,0.4-0.6,1.2-0.4c0.8,0.3,0.9,0.6,0.7,1
	c-0.9,3.7-2.3,8.5-3.7,12.2c-6.3-0.2-12.4-0.3-18.2-0.3c-6,0-12.7,0.1-18.8,0.3c-0.4,0-0.6-0.2-0.6-0.9s0.1-0.9,0.6-0.9
	c2.5-0.3,4.5-0.4,5.3-1.7c0.9-1.6,0.9-4.8,0.9-9.5v-25.6c0-6.8,0-7.7-0.8-9.2c-0.8-1.4-2.8-1.4-5.5-1.7c-0.5-0.1-0.6-0.1-0.6-0.9
	c0-0.9,0.1-1.2,0.6-1.2c3,0.2,6.6,0.4,9.6,0.4c2.9,0,6.6-0.2,9.5-0.4c0.6,0,0.7,0.2,0.7,1.2c0,0.7-0.1,0.8-0.7,0.9
	c-2.4,0.3-4.4,0.4-5.2,1.7c-0.9,1.6-0.9,4.8-0.9,9.2V287.4z M927.3,267.9c5.4,1.9,8.7,5.2,8.7,8.4c0,1.7-1.2,3.1-2.6,3.1
	c-1.1,0-1.7-0.7-2-2.4c-0.6-3.4-2.2-6.1-4.1-7.8v1.2c0,20.3,0.3,33.6,0.3,36.1c0,1.4-1.2,2.2-3.1,2.2c-1.5,0-2.2-0.6-2.2-1.8
	c0-2.4,0.4-12.3,0.5-33.6c-3.1,7.8-6.3,12.7-11.5,18.4c-0.3,0.3-1.1-0.2-0.9-0.6c5.4-8.4,9.5-19.4,11.5-29.7h-4.7
	c-1.6,0-2.8,0.1-4.8,0.4l-0.7-2.7c2.1,0.4,3.5,0.5,5.3,0.5h5.5v-7.9c0-4.1-0.1-6.3-0.4-8.9c6.6,0.6,7.7,1,7.7,2c0,0.6-0.4,1.2-2.5,2
	v12.8h2.8c2.1-3.2,2.7-3.5,3.1-3.5c0.5,0,0.9,0.4,3.5,2.7c1,0.9,1.3,1.5,1.3,1.9s-0.2,0.6-0.9,0.6h-9.7L927.3,267.9L927.3,267.9z
	 M966,264.3c2.2-2.6,2.6-2.9,3-2.9c0.5,0,1.1,0.2,3.5,2.5c1.2,1.1,1.4,1.6,1.4,2c0,0.5-0.4,0.9-2.2,1.7c-2.3,8.5-5.8,15.9-10.4,22.1
	c4.7,5.1,10.4,8.8,17.1,11.2c0.4,0.1,0.1,0.8-0.2,0.9c-1.6,0.4-2.7,1.4-3.7,3.5c-0.4,0.9-0.7,1.2-1.2,1.2c-0.4,0-0.9-0.4-2.3-1.2
	c-5-3.1-8.9-7.1-12.7-12.1c-5.6,6.3-12.7,11.1-21.5,14.4c-0.5,0.1-0.9-0.7-0.4-1c8.2-5,14.6-10.7,19.5-17.2
	c-4.2-7-6.3-15.4-7.3-23.4h-3.7c-0.4,10.6-1.4,17.6-3.5,23.5c-2.2,6.6-5.4,11.9-10.9,17.6c-0.4,0.4-1.3-0.3-1-0.7
	c4.1-5.6,6.5-11.5,8.1-18.4c1.6-7,2.2-15.6,2.2-29.8c0-7,0-9.1-0.4-13.2c2.7,1.2,4,1.7,6.3,3.4h22.2c2.9-3.7,3.3-3.9,3.7-3.9
	c0.5,0,1.1,0.2,4.2,2.8c1.6,1.2,1.8,1.7,1.8,2.1c0,0.6-0.2,0.8-1,0.8h-31.7v5.5c0,3,0,5.8-0.1,8.4H966V264.3z M950.1,266.1
	c1.4,7.1,3.7,14.1,8,19.9c3.7-5.8,6.4-12.5,8.2-19.9H950.1z M1043.9,262.7c2.2-2.5,2.5-2.8,3-2.8s0.9,0.3,3.5,2.3
	c1.2,0.9,1.4,1.4,1.4,1.9c0,0.6-0.4,1.1-1.9,2.1v9.6c0,20.7,0.2,23,0.2,25.9c0,2.4-0.9,4-2.2,5c-1,0.8-2.8,1.2-4.5,1.2
	c-0.9,0-1.2-0.4-1.3-1.2c-0.2-2.3-1.6-3.2-7.5-4.6c-0.4-0.1-0.4-0.9,0-0.9c4.2,0.3,7,0.4,8.6,0.4c1.1,0,1.4-0.4,1.4-1.4v-35.6h-42.5
	V282c0,15.7,0.1,19.9,0.1,24c0,1.6-1.2,2.4-3.2,2.4c-1.8,0-2.6-0.5-2.6-2c0-4.3,0.4-10.9,0.4-30.6c0-9.1-0.1-12.8-0.4-16.1
	c2.7,1.1,3.9,1.7,6.5,3.1h17.2v-8.5H997c-1.9,0-3.2,0.1-5.3,0.4L991,252c2.2,0.4,3.8,0.5,5.8,0.5h23.3v-1.9c0-3.1-0.1-5.4-0.4-8.1
	c7.2,0.9,8.1,1.4,8.1,2.2c0,0.5-0.5,1.1-2.4,1.8v6h19.9c3.3-3.9,3.8-4.2,4.2-4.2c0.5,0,1,0.4,4.6,3.2c1.7,1.3,2.1,1.7,2.1,2.2
	s-0.3,0.7-1,0.7h-29.8v8.5h18.5L1043.9,262.7z M1025.1,290.2c0,5,0.3,10.7,0.3,12.3c0,1.7-1.1,2.4-3.4,2.4c-1.7,0-2.4-0.5-2.4-1.9
	c0-1.1,0.3-5.2,0.3-12.4v-1.3h-10.6c-1.7,0-3,0.1-5,0.4l-0.7-2.7c2.2,0.4,3.6,0.5,5.5,0.5h10.8V279h-8.6c-1.7,0-3,0.1-5,0.4
	l-0.7-2.7c2.2,0.4,3.7,0.5,5.5,0.5h14c1.4-2.5,2.7-5.1,3.5-7.5c0.5-1.4,0.9-2.9,1.2-4.2c5.2,1.7,6.6,2.4,6.6,3.1s-0.5,1-2.5,1.2
	c-2.7,3.5-4.5,5.3-6.8,7.3h5.5c2.5-3,3-3.3,3.5-3.3s0.9,0.4,3.7,2.5c1.2,0.9,1.4,1.4,1.4,1.9c0,0.4-0.2,0.7-0.9,0.7h-15v8.5h8.6
	c2.7-3.3,3.2-3.6,3.6-3.6c0.5,0,1.1,0.3,3.9,2.7c1.3,1.1,1.6,1.6,1.6,2s-0.2,0.7-0.9,0.7h-16.8v1H1025.1z M1014,273.1
	c-0.8-2.7-1.8-4.3-3.8-6.7c-0.2-0.2,0.1-0.6,0.4-0.5c5.8,2,8.4,4.6,8.4,7.5c0,1.7-1,2.8-2.5,2.8
	C1015.1,276.2,1014.7,275.7,1014,273.1L1014,273.1z M1068.2,302.4c1.4-3.4,2.8-8.3,3.7-12.5c0.6-3,0.9-5.8,0.9-7.8
	c5.7,1.7,6.6,2.1,6.6,3c0,0.5-0.6,0.9-2.2,1.3c-2.1,6.8-4.2,11.5-8.1,16.4C1068.8,303.2,1068,302.8,1068.2,302.4z M1080.4,276.2
	c-2,0.4-4.5,0.8-7.6,1.4c-0.5,1.6-0.9,2-1.5,2c-0.8,0-1.2-1.1-2.2-6.7c1.5,0.1,2.2,0.2,3.3,0.2c1.4,0,2.8,0,4-0.1
	c2.8-4.1,6-9.5,8.2-14.3c1.2-2.6,2.2-5,2.6-6.8c5,2.4,6.6,3.4,6.6,4.2c0,0.6-0.7,1.2-2.7,1.1c-4.4,6.5-7.3,10.5-12.6,15.8
	c4-0.1,8-0.3,12-0.7c-0.6-1.9-1.4-3.8-2.7-5.8c-0.1-0.2,0.4-0.5,0.6-0.4c4.8,2.8,7.5,6.6,7.5,9.6c0,1.8-1.1,3.3-2.5,3.3
	c-1.2,0-1.9-0.9-2.2-3.7c-0.1-0.6-0.1-1.2-0.3-1.7c-1.9,0.6-3.9,1.1-5.8,1.5v13.8c0,7.8,0.2,15,0.2,17.1c0,1.6-1,2.4-3,2.4
	c-1.7,0-2.2-0.6-2.2-1.9s0.4-5.9,0.4-14.8v-15.5L1080.4,276.2z M1080.3,262c0,1.8-1.1,3.2-2.4,3.2s-1.6-0.3-2.4-3.1
	c-1.2-3.2-2.4-5.5-5.2-8.1c-0.2-0.2,0.1-0.6,0.4-0.6c2.1,0.7,3.8,1.5,5.3,2.4c1.2-2.7,2.2-5.3,3.1-8c0.7-2.2,1.2-4.3,1.4-5.9
	c5.5,2.1,7,2.7,7,3.5c0,0.7-0.6,1.2-2.7,1.2c-3.2,4.8-4.8,7-7.5,10.1C1079.3,258.3,1080.3,260.1,1080.3,262L1080.3,262z
	 M1089.5,291.7c-0.2-3.5-1-6.8-2.4-9.4c-0.1-0.2,0.4-0.4,0.6-0.3c4.2,3.2,6.5,6.7,6.5,9.6c0,2.4-1,3.7-2.6,3.7
	C1090.1,295.4,1089.6,294.3,1089.5,291.7L1089.5,291.7z M1102.3,281.3c1.7-2,2.1-2.3,2.5-2.3c0.5,0,0.9,0.3,3,2.3
	c1.2,1.2,1.5,1.6,1.5,2c0,0.5-0.5,0.9-2.2,1.4c-3.5,9.4-8.5,14.8-17.9,19.9c-0.4,0.2-1-0.8-0.6-1.1c6.9-5.5,11.6-12.4,13.7-20.4
	h-4.6c-1.4,0-2.6,0.1-4.3,0.5l-0.8-2.8c2.1,0.4,3.4,0.5,5,0.5H1102.3L1102.3,281.3z M1115,285.2c0.1,9.1,0.4,15,0.4,17.4
	c0,2.2-0.9,3.5-2.1,4.4c-0.9,0.7-2.4,1.3-3.8,1.3c-0.9,0-1.2-0.4-1.5-1.6c-0.3-2-1.4-2.6-6.8-3.7c-0.4-0.1-0.4-1,0.1-0.9
	c4,0.4,6.4,0.4,8,0.4c0.9,0,1.2-0.3,1.2-1.2v-28.8h-6.9v0.9c0,1.5-1,2.1-3,2.1c-1.3,0-2-0.4-2-1.7c0-1.8,0.3-4.5,0.3-14.8
	c0-5.3,0-8-0.4-11.4c2.3,0.9,3.5,1.5,5.8,3h4.7c0.4-1.4,0.8-2.9,1.1-4.2c0.3-1.5,0.4-3,0.4-4.4c5.8,1.5,7.2,2.2,7.2,3
	c0,0.6-0.6,1.1-2.7,1.3c-1.3,1.7-2.5,3-4,4.3h11c2.3-2.4,2.7-2.7,3.1-2.7c0.5,0,0.9,0.3,3.1,2.2c1.1,1,1.3,1.4,1.3,1.9
	c0,0.6-0.1,0.8-1.9,2v4.8c0,8.7,0.2,13.2,0.2,14.5c0,1.5-0.9,2.2-2.9,2.2c-1.7,0-2.2-0.5-2.2-1.9v-0.9h-7.3
	c1.1,4.8,2.4,9.6,5.2,13.8c1.7-1.7,3.2-3.5,4.6-5.5c1.3-1.9,2.2-3.7,2.7-5.4c5,3,5.9,3.8,5.9,4.5c0,0.8-0.6,1.1-2.8,1
	c-4.2,3.1-6.3,4.7-9.7,6.4c0.6,0.8,1.2,1.5,1.8,2.2c3.7,4.2,8.1,7.1,13,8.9c0.3,0.1,0.1,0.6-0.1,0.7c-1.7,0.7-2.4,1.6-3.2,3.9
	c-0.4,1.2-0.6,1.3-1.2,1.3c-0.4,0-0.9-0.3-2.1-1.2c-3.2-2.9-6.6-6.8-8.6-10.3c-2.7-4.7-4.2-9-5.9-17.6L1115,285.2L1115,285.2z
	 M1122.6,252.2h-19.2v8h19.2V252.2z M1103.5,270.6h19.2V262h-19.2V270.6L1103.5,270.6z M1170.5,309.3h-23c5.4-4.7,9.3-9.8,11.7-15.2
	s3.7-11.7,3.7-18.9s-1.2-13.5-3.7-18.9c-2.4-5.4-6.3-10.4-11.7-15.2h23V309.3z M193.4,423.7c3.7-4.2,4.2-4.5,4.6-4.5
	c0.5,0,1,0.4,4.6,3.3c1.7,1.4,2,1.9,2,2.3c0,0.5-0.2,0.7-0.9,0.7h-58.5c-2,0-3.5,0.1-5.5,0.4l-0.7-2.7c2.4,0.4,4,0.5,6.1,0.5h23.2
	v-15.8h-16.1c-1.8,0-3.2,0.1-5.2,0.4l-0.7-2.7c2.3,0.4,3.8,0.5,5.8,0.5h16.3v-1.8c0-4.2-0.1-7.1-0.4-9.6c7.5,0.7,8.4,1.4,8.4,2.2
	c0,0.6-0.6,1.2-2.6,2v7.3h13.5c3.3-3.9,3.8-4.2,4.2-4.2c0.5,0,1,0.4,4.5,3.2c1.5,1.2,1.9,1.7,1.9,2.2s-0.3,0.7-0.9,0.7h-23.1v15.8
	h19.5L193.4,423.7z M170.9,370.3c-1.1,2.6-2.5,5.2-4,7.6c-2.2,3.7-4.8,7.3-7.5,10.7c9.6-0.1,19.2-0.7,28.7-1.6
	c-2.4-3.2-5.3-6.1-9.7-9.8c-0.4-0.3,0.1-0.9,0.5-0.8c11.6,4.8,18.4,10.9,18.4,15.4c0,1.9-1.2,3.3-2.8,3.3c-1.4,0-2.2-0.9-3.7-3.7
	l-1.5-2.7c-10.9,2.2-26.4,4.2-40.4,5.1c-0.6,1.8-1,2.2-1.7,2.2c-0.8,0-1.3-1.2-2.7-7.8c3.1,0.3,5.2,0.4,7.5,0.4h4.7
	c3.1-5.8,5.8-12,7.6-18.3h-17.7c-2,0-3.5,0.1-5.7,0.4l-0.7-2.7c2.5,0.4,4.1,0.5,6.3,0.5h46.4c3.4-4,3.9-4.2,4.3-4.2
	c0.5,0,1,0.3,4.5,3c1.7,1.4,1.9,1.8,1.9,2.2c0,0.6-0.2,0.8-0.9,0.8H170.9L170.9,370.3z M246.9,362.1c-5.4,4.8-9.3,9.8-11.7,15.2
	c-2.4,5.4-3.7,11.7-3.7,18.9s1.2,13.5,3.7,18.9s6.3,10.5,11.7,15.2h-23v-68.1h23V362.1z M313.4,383.7c2.2-2.5,2.5-2.8,3-2.8
	s0.9,0.3,3.5,2.3c1.2,0.9,1.4,1.4,1.4,1.9c0,0.6-0.4,1.1-1.9,2.1v9.6c0,20.7,0.2,23,0.2,25.9c0,2.4-0.9,4-2.2,5
	c-1,0.8-2.8,1.2-4.5,1.2c-0.9,0-1.2-0.4-1.3-1.2c-0.2-2.3-1.6-3.2-7.5-4.6c-0.4-0.1-0.4-0.9,0-0.9c4.2,0.3,7,0.4,8.6,0.4
	c1.1,0,1.4-0.4,1.4-1.4v-35.6h-42.5V403c0,15.7,0.1,19.9,0.1,24c0,1.6-1.2,2.4-3.2,2.4c-1.8,0-2.6-0.5-2.6-2
	c0-4.3,0.4-10.9,0.4-30.6c0-9.1-0.1-12.8-0.4-16.1c2.7,1.1,3.9,1.7,6.5,3.1h17.2v-8.5h-23.1c-1.9,0-3.2,0.1-5.3,0.4l-0.7-2.7
	c2.2,0.4,3.8,0.5,5.8,0.5h23.3v-1.9c0-3.1-0.1-5.4-0.4-8.1c7.2,0.9,8.1,1.4,8.1,2.2c0,0.5-0.5,1.1-2.4,1.8v6h19.9
	c3.3-3.9,3.8-4.2,4.2-4.2c0.5,0,1,0.4,4.6,3.2c1.7,1.3,2.1,1.7,2.1,2.2s-0.3,0.7-1,0.7h-29.8v8.5h18.5L313.4,383.7z M294.7,411.2
	c0,5,0.3,10.7,0.3,12.3c0,1.7-1.1,2.4-3.4,2.4c-1.7,0-2.4-0.5-2.4-1.9c0-1.1,0.3-5.2,0.3-12.4v-1.3h-10.6c-1.7,0-3,0.1-5,0.4
	l-0.7-2.7c2.2,0.4,3.6,0.5,5.5,0.5h10.8V400h-8.6c-1.7,0-3,0.1-5,0.4l-0.7-2.7c2.2,0.4,3.7,0.5,5.5,0.5h14c1.4-2.5,2.7-5.1,3.5-7.5
	c0.5-1.4,0.9-2.9,1.2-4.2c5.2,1.7,6.6,2.4,6.6,3.1s-0.5,1-2.5,1.2c-2.7,3.5-4.5,5.3-6.8,7.3h5.5c2.5-3,3-3.3,3.5-3.3
	s0.9,0.4,3.7,2.5c1.2,0.9,1.4,1.4,1.4,1.9c0,0.4-0.2,0.7-0.9,0.7h-15v8.5h8.6c2.7-3.3,3.2-3.6,3.6-3.6c0.5,0,1.1,0.3,3.9,2.7
	c1.3,1.1,1.6,1.6,1.6,2s-0.2,0.7-0.9,0.7h-16.8v1H294.7z M283.5,394.1c-0.8-2.7-1.8-4.3-3.8-6.7c-0.2-0.2,0.1-0.6,0.4-0.5
	c5.8,2,8.4,4.6,8.4,7.5c0,1.7-1,2.8-2.5,2.8C284.7,397.2,284.2,396.7,283.5,394.1L283.5,394.1z M344.1,389.9c-1.2-2.6-3-4.8-6-7
	c-0.2-0.1,0.1-0.7,0.4-0.6c6.9,1,11,4,11,7.4c0,1.8-1.2,3.2-2.7,3.2C345.6,392.8,345,391.9,344.1,389.9L344.1,389.9z M343.3,424.7
	c0-2.1,0.4-4.8,0.4-7.3c0-4.3-0.8-5.6-5.3-7.1c-0.4-0.1-0.3-1.1,0.1-1c1.1,0.1,2.1,0.2,2.7,0.2c1.6,0,2.5-0.4,3.5-2.1
	c2.3-4.4,6.2-13,10.7-24c0.1-0.4,1.1-0.1,0.9,0.4c-3.3,10.9-5.5,18.1-8.1,25c-0.4,1.3-0.9,3-0.9,4.4c0,3.2,2.4,6.9,2.4,10.3
	c0,2.9-1.5,4.6-3.7,4.6C344.3,428.1,343.3,427.1,343.3,424.7z M348.9,372.7c-1.3-2.7-3-4.8-6-7c-0.2-0.1,0.1-0.6,0.4-0.6
	c6.8,0.8,11.2,4,11.2,7.7c0,1.9-1.2,3.1-2.5,3.1C350.5,375.9,350.1,375.2,348.9,372.7z M384.7,390.1c2.2,3.3,5,5.8,8.8,7.8
	c3.7,2.2,8.4,3.5,12.5,3.9c0.4,0.1,0.3,0.7-0.1,0.8c-1.4,0.4-2.7,1.6-3.4,3.7c-0.3,0.8-0.5,1.2-1.1,1.2c-0.3,0-0.9-0.2-2.2-0.9
	c-3-1.4-6-3.5-8.5-5.8c-3-2.8-5.5-6.1-7.8-10.7h-10.8c-1.7,2.9-3.7,5.6-6,8.1c2,0.4,3.2,0.6,5.1,0.6h11.1c1.5-1.9,1.9-2.2,2.3-2.2
	c0.5,0,1.1,0.2,3.4,1.9c1.2,0.9,1.4,1.2,1.4,1.7s-0.2,0.8-1.6,1.8v2.1c0,4.1,0.2,6.6,0.2,7.6c0,1.5-1,2.1-3.1,2.1
	c-1.5,0-2.1-0.5-2.1-1.8v-0.9h-15.7v7.7c0,3.7,0.7,4.1,12.5,4.1c8.4,0,10.9-0.3,12.6-1.6c1.7-1.2,2.8-4.3,4-8.2
	c0.1-0.4,0.8-0.2,0.8,0.1c-0.1,2.2-0.4,5.5-0.4,6.3c0,0.9,0.2,1.2,1,1.4c1,0.4,1.4,1.1,1.4,2c0,1.7-1.4,2.8-3.8,3.5
	c-2.7,0.7-7.1,1.1-17.4,1.1c-13.2,0-15.6-1.6-15.6-7.3c0-0.9,0.1-3.6,0.1-7.4c0-3.2-0.1-4.7-0.3-6.6c2.4,1,3.5,1.5,5.7,2.9h15.1
	v-8.8h-11.6c-1.8,0-2.9,0.1-4.5,0.6L366,398c-3.8,4.1-8.6,7.3-14.5,9.9c-0.4,0.1-0.9-0.6-0.6-0.9c6.7-4.5,12-10.3,15.4-17.2h-5.9
	c-1.4,0-2.4,0.1-4.2,0.4l-0.7-2.7c1.9,0.4,3.2,0.5,4.8,0.5h6.8v-11.4h-4.9c-1.3,0-2.3,0.1-4,0.4l-0.7-2.7c1.8,0.4,3,0.5,4.5,0.5h5
	v-2.7c-0.1-3.7-0.1-6.1-0.5-8.6c6.7,0.7,7.5,1.3,7.5,2c0,0.5-0.5,1-2.2,1.7v7.6h10.4v-3.1c0-3.4-0.1-5.7-0.3-8.2
	c6.7,0.7,7.3,1.2,7.3,2c0,0.4-0.4,0.9-2.2,1.7v7.6h5.8c2.5-3,3-3.4,3.5-3.4s1.2,0.1,3.9,2.5c1.2,1,1.5,1.5,1.5,1.9
	c0,0.5-0.2,0.7-0.9,0.7h-13.7v11.4h7.4c2.7-3.3,3.2-3.7,3.7-3.7s1,0.4,4,2.9c1.2,1,1.6,1.4,1.6,1.9s-0.3,0.7-0.9,0.7h-18.2
	L384.7,390.1z M382.2,388.3v-11.4h-10.4v11.4H382.2z M452.1,404.9c1.9,3.6,4.2,7,7.3,9.6c2.6-2,4.8-4,6.3-5.6
	c1.1-1.2,1.8-2.2,2.2-3.2c3.9,2.3,5.7,3.7,5.7,4.5c0,0.5-0.8,0.9-3.2,0.6c-3.5,2.2-6.2,3.5-9.8,4.7c1.1,0.9,2.2,1.6,3.5,2.3
	c5,3,11.6,4.8,18.5,5.5c0.3,0,0.2,0.6-0.1,0.7c-1.9,0.4-2.7,1.2-3.3,3.4c-0.3,1.2-0.6,1.7-1.4,1.7c-0.6,0-1.8-0.3-3.5-0.8
	c-5-1.6-9.6-4.2-13.2-7.5c-4-3.5-7.6-8.4-10.9-15.9h-8.4v16.6c5-0.6,9.9-1.4,15-2.6c0.4-0.1,0.7,0.8,0.3,0.9
	c-8.9,3.8-14.3,5.5-25.3,7.8c-0.4,1.8-1,2.4-1.7,2.4s-0.9-0.2-2.5-7.6c1.2,0.1,2.1,0.1,3.3,0c2-0.1,4-0.3,6-0.4v-17.1h-10
	c-0.2,1.1-0.4,2.2-0.6,3.2c-1.7,8-4.4,14-9.5,20.7c-0.3,0.4-1.2-0.1-1-0.5c3.2-7.1,5-13.4,6.3-22.1c0.9-6.9,1.2-15,1.2-27.2
	c0-8.9-0.1-11-0.4-14.8c3,1.3,4.9,2.1,6.6,3.2h41.2c2.2-2.5,2.6-2.7,3-2.7c0.5,0,0.9,0.2,3.2,2.2c1.2,1,1.4,1.4,1.4,1.8
	c0,0.6-0.4,1.1-2,2.2v2.2c0,5,0.1,6.8,0.1,8.1c0,1.2-1.2,1.9-3.2,1.9c-1.7,0-2.1-0.5-2.1-2.3v-0.4h-42.6c0,7.6-0.4,15.1-1.4,22.6
	h13.6v-10.9h-5.5c-1.6,0-2.7,0.1-4.6,0.5L430,390c2.1,0.3,3.5,0.4,5.3,0.4h5.5v-1c0-2.4-0.1-4.3-0.3-6.8c6.8,0.7,7.6,1.2,7.6,2
	c0,0.5-0.5,1.2-2.3,1.9v3.9h11.6v-1c0-2.4-0.1-4.2-0.4-6.7c6.8,0.7,7.6,1.2,7.6,2c0,0.5-0.4,1.1-2.2,1.9v3.8h6.1
	c2.7-3.3,3.3-3.7,3.7-3.7c0.5,0,0.9,0.4,3.8,2.8c1.2,1,1.6,1.5,1.6,1.9c0,0.5-0.3,0.7-0.9,0.7h-14.3V403h9.1c3.1-3.7,3.6-4,4-4
	c0.5,0,0.9,0.4,4.2,3.1c1.2,1.1,1.7,1.6,1.7,2s-0.2,0.7-0.9,0.7L452.1,404.9L452.1,404.9z M471.2,369.2h-42.6v9.5h42.6V369.2z
	 M445.8,392.2v10.9h11.6v-10.9H445.8z M536.2,415.6v6.5c0,2,1.2,2.4,8.8,2.4c5.9,0,8.1-0.4,9.6-1.6c1.5-1.4,2.4-4.2,3.3-7.6
	c0.1-0.4,0.9-0.2,0.9,0.1c-0.1,1.4-0.2,3.8-0.2,5c0,1,0.4,1.5,1.3,1.9c0.9,0.5,1.2,0.9,1.2,2.1c0,1.4-0.9,2.5-3.3,3.2
	c-2.5,0.8-6.5,1.3-13.1,1.3c-11.4,0-13.4-1.3-13.4-6.1v-7.3h-11.9c4.8,1.4,5.7,1.9,5.7,2.7c0,0.6-0.6,1.1-2.7,1.3
	c-4.8,6.6-12.1,10.1-25.8,10.4c-0.4,0-0.4-0.8,0-0.9c9.2-1.7,15.4-4.8,19-8.9c1.3-1.4,2.2-3,2.7-4.7h-5.8v0.4c0,1.4-1,2.1-2.7,2.1
	c-1.6,0-2.2-0.6-2.2-1.9c0-1.9,0.3-4.7,0.3-15c0-4.8-0.1-7.1-0.3-10.2c2.2,0.9,3.2,1.5,5.5,2.7h29.7c2.1-2.3,2.5-2.5,3-2.5
	c0.4,0,0.9,0.2,3,2.1c1,1,1.3,1.4,1.3,1.9c0,0.6-0.4,1-1.9,1.9v4.5c0,8.3,0.3,12.4,0.3,13.6c0,1.6-1,2.3-3,2.3
	c-1.4,0-2.1-0.5-2.1-1.9h-7.2L536.2,415.6z M519.8,373.8c1.4-1.7,1.8-1.9,2.3-1.9s0.9,0.2,2.5,1.5c0.9,0.7,1.2,1.2,1.2,1.7
	s-0.2,0.7-1.4,1.6v1.1c0,2.8,0.1,3.5,0.1,4c0,1.4-0.8,2-2.8,2c-1.1,0-1.7-0.4-1.7-1.6h-4.2v5.5h4.2c2-2.4,2.7-2.9,3-2.9
	c0.5,0,1.2,0.4,3.7,2.4c0.9,0.6,1.2,1.1,1.2,1.5c0,0.5-0.2,0.7-0.9,0.7h-22.5v1.2c0,1.3-0.9,1.9-2.7,1.9c-1.4,0-2.2-0.5-2.2-1.7
	c0-1.7,0.3-5.1,0.3-15.2c0-5.5-0.1-8.4-0.4-11.7c2.4,0.9,3.2,1.4,5.5,2.8h14.7c2.4-2.7,2.8-3,3.2-3c0.5,0,1.2,0.4,3.6,2.4
	c0.9,0.9,1.2,1.3,1.2,1.7c0,0.5-0.3,0.7-1,0.7h-11v5.3H519.8L519.8,373.8z M511.4,368.5h-6.9v5.3h6.9V368.5z M504.5,380.3H520v-4.7
	h-15.6v4.7H504.5z M511.4,387.6v-5.5h-6.9v5.5H511.4z M543.3,395.5h-30.7v4.8h30.7V395.5z M512.5,406.8h30.7v-4.7h-30.7V406.8z
	 M543.3,408.6h-30.7v5.2h30.7V408.6z M534.8,371c-2.1,2.8-4.4,5-7,6.5c-0.3,0.2-0.9-0.3-0.6-0.6c1.9-2.4,3.8-6,5-9.4
	c0.5-1.6,0.9-3.2,1-4.7c5.2,1.7,6.8,2.4,6.8,3.1c0,0.6-0.4,1-2.6,1.2c-0.4,0.7-0.8,1.4-1.2,2h16c2.5-3,3.2-3.4,3.6-3.4
	c0.5,0,1.1,0.4,4,2.6c1.2,0.9,1.4,1.4,1.4,1.8s-0.3,0.8-0.9,0.8h-25.5V371z M533.6,389.5c0,1.4-0.8,2.1-2.3,2.1
	c-1.3,0-1.8-0.5-1.8-1.8c0-0.8,0.1-2,0.1-6.3c0-2.3,0-3.5-0.2-5.8c1.9,0.9,2.8,1.4,4.5,2.4h19c1.6-1.9,2-2.3,2.4-2.3
	s0.9,0.4,2.4,1.8c1,0.8,1.2,1.2,1.2,1.7s-0.3,0.9-1.7,1.7v1.2c0,3.3,0.1,4.7,0.1,5.1c0,1.4-0.7,2-2.4,2c-1.2,0-1.7-0.4-1.7-1.5v-0.4
	L533.6,389.5L533.6,389.5z M533.3,374.2c1.9,0.4,3.3,0.5,5.1,0.5h9.4c2-2.4,2.7-2.7,3-2.7c0.6,0,1.2,0.4,3.7,2.2
	c0.9,0.7,1.2,1.2,1.2,1.6c0,0.5-0.2,0.7-0.9,0.7h-16.4c-1.6,0-2.7,0.1-4.4,0.4L533.3,374.2L533.3,374.2z M537.7,387.7v-5.8h-4.1v5.8
	H537.7z M541.3,387.7h4.3v-5.8h-4.3V387.7z M553.4,381.9h-4.3v5.8h4.3V381.9z M579.1,399.2c0-7,0-12.5-0.4-17.6
	c-1.6,1.2-3.3,2.3-5.2,3.4c-0.4,0.3-0.9-0.6-0.6-0.9c4.9-4.2,8.7-9.5,11.4-14c1.4-2.5,2.4-4.9,3-7c5.5,2.2,7.2,3.1,7.2,3.7
	s-0.6,0.9-2.6,1.1c6.8,2.7,9.9,5.3,9.9,8.1c0,1.4-1,2.8-2.2,2.8s-1.5-0.2-2.7-2.9c-1.6-3-3.2-5-5.8-7.2c-3.3,4.8-7.3,9.2-12,12.7
	c2.1,0.9,3.1,1.4,5.2,2.5h3.7v-4c0-1.5-0.1-2.6-0.3-4.5c6.3,0.6,7.1,1.2,7.1,1.8c0,0.4-0.4,1-2.1,1.7v5h3c1.8-1.9,2.2-2.2,2.7-2.2
	s1,0.3,3,1.9c0.9,0.8,1.2,1.2,1.2,1.7s-0.2,0.9-1.7,1.9v4.4c0,9.2,0.2,13,0.2,14.1c0,1.7-0.8,2.3-2.9,2.3c-1.7,0-2.1-0.5-2.1-2v-1
	h-12.3v15.5c4-0.9,7.8-2,11.6-3.3c-1.2-2.6-2.7-4.7-4.9-7c-0.2-0.2,0.1-0.6,0.4-0.5c6.6,2.4,11.4,7.6,11.4,11.8
	c0,2.2-1.2,3.8-2.8,3.8c-1.2,0-1.7-0.6-2.2-2.7c-0.4-1.4-0.8-2.7-1.2-3.8c-5.9,3.5-9.3,5-17.2,7.8c-0.4,1.9-0.8,2.7-1.4,2.7
	c-0.7,0-1.2-0.9-3.2-7.3c1.9-0.1,3.5-0.4,4.9-0.6v-22.2L579.1,399.2z M596.1,385.7h-12.3v7.6h12.3V385.7z M583.7,403.2H596v-8.1
	h-12.3L583.7,403.2L583.7,403.2z M630.2,407.3c2.2-2.5,2.6-2.7,3-2.7c0.5,0,0.9,0.1,3.2,2c1.2,1,1.4,1.5,1.4,1.9s-0.1,0.7-1.8,1.9v4
	c0,8.1,0.2,11.4,0.2,12.4c0,1.7-1.1,2.5-3.1,2.5c-1.7,0-2.2-0.6-2.2-2.3v-2.6h-17.4v3c0,1.9-1.1,2.6-3.1,2.6c-1.7,0-2.3-0.6-2.3-2.1
	c0-3.5,0.4-8.5,0.4-31.3c0-6.7,0-11-0.3-15.6c-0.8,1.2-1.9,1.7-3,1.7c-1.7,0-2.7-1.1-2.7-2.7c0-1.4,0.5-2.1,1.9-3
	c2.4-1.5,3.7-3.7,4-7.1c0-0.3,0.7-0.3,0.8,0c0.3,1.1,0.4,2.2,0.6,3.1h9.1v-4.7c0-1.6-0.1-2.9-0.4-5.2c6.9,0.7,7.7,1.2,7.7,1.9
	c0,0.6-0.5,1-2.2,1.9v6h9.1c2.2-2.4,2.5-2.7,3-2.7c0.6,0,1.2,0.4,3.6,2.7c1.3,1.2,1.6,1.6,1.6,2.1c0,0.9-0.7,1.3-2.3,1.4
	c-0.6,0-1,0.4-1.9,1.1c-1.2,1.2-2.2,1.9-4.2,3.4c-0.2,0.1-0.4,0.2-0.5,0.2c0.4,0.3,1,0.6,1.7,1.2c1.2,0.9,1.4,1.4,1.4,1.8
	s-0.2,0.8-1.8,1.9v2.9c0,6,0.1,8.7,0.1,9.6c0,1.7-0.9,2.4-2.9,2.4c-1.7,0-2.2-0.6-2.2-2.2v-0.9h-15v9.4h16.5L630.2,407.3z
	 M609.7,375c0.1,1.7-0.2,3.5-0.9,5.2c2.2,1,3.5,1.7,5.2,2.8h14c2-2.1,2.4-2.4,2.8-2.4c0.2,0,0.5,0.1,0.9,0.4c0-0.1,0-0.2,0.1-0.4
	c0.8-1.9,1.4-3.7,1.8-5.5h-23.9L609.7,375z M628.4,384.8h-15v11.3h15V384.8z M613.4,422.7h17.4v-13.6h-17.4V422.7z M679.4,407.6
	c0.5-0.1,0.9,0.7,0.4,1c-5.4,3.5-14.4,7.9-22.7,10.9c-0.4,2-0.7,2.7-1.7,2.7c-0.8,0-1.4-1.6-3.5-7.3c2.4-0.2,4.6-0.6,7.2-1.1
	c2.4-0.5,4.9-1.2,7.4-1.9c1.5-5.5,3.3-14.4,4.3-21c0.4-3.2,0.7-6,0.7-7.6c6.3,1.9,7.3,2.4,7.3,3.5c0,0.7-0.6,1-2.4,1.3
	c-2.2,8.5-5,16.6-8,23.3C672.2,410.1,675.9,408.9,679.4,407.6z M673.7,378.1c2.5-3.4,3.1-3.7,3.5-3.7c0.5,0,1,0.4,3.8,2.7
	c1.2,1.2,1.6,1.7,1.6,2.1c0,0.5-0.2,0.7-0.9,0.7h-23.3c-1.6,0-2.9,0.1-4.8,0.4l-0.8-2.8c2.2,0.4,3.6,0.6,5.5,0.6h5.7v-7.6
	c0-2.5,0-4.2-0.3-6.5c6.9,0.8,7.7,1.4,7.7,2.2c0,0.5-0.5,1-2.4,1.7v10.2L673.7,378.1L673.7,378.1z M659.1,402.5
	c-0.1-7.1-1.1-11.7-3.1-17.6c-0.1-0.4,0.6-0.7,0.8-0.4c4.5,5.9,7.5,12.4,7.5,17.2c0,3-1.2,4.9-3.1,4.9
	C659.7,406.5,659.2,405.4,659.1,402.5L659.1,402.5z M693.6,375.2c0-5.5-0.1-8.7-0.4-11.1c7.2,0.8,8.1,1.4,8.1,2.2
	c0,0.5-0.6,1.1-2.5,1.9v13.3h8.9c3-3.7,3.6-4,4-4s0.9,0.4,4.1,3.1c1.4,1.2,1.7,1.6,1.7,2c0,0.5-0.2,0.7-0.9,0.7h-17.9v16.8h8.4
	c2-2.4,2.4-2.7,2.9-2.7s0.9,0.3,3.2,2.2c1.2,1.2,1.4,1.6,1.4,2c0,0.5-0.3,0.9-1.9,1.9v6c0,9.6,0.4,14.8,0.4,17.1
	c0,1.6-1.1,2.4-3.2,2.4c-1.5,0-2.2-0.6-2.2-2.2v-2.4h-21.4v2.4c0,1.7-1.1,2.6-3.3,2.6c-1.6,0-2.2-0.6-2.2-2.2
	c0-2.3,0.4-6.1,0.4-16.6c0-6.3-0.1-9.6-0.4-13.6c2.6,1,3.7,1.6,6.1,3h6.7L693.6,375.2L693.6,375.2z M707.7,402h-21.4v20.7h21.4V402z
	 M753.9,430.3h-23c5.4-4.7,9.3-9.8,11.7-15.2c2.4-5.4,3.7-11.7,3.7-18.9s-1.2-13.5-3.7-18.9c-2.4-5.4-6.3-10.4-11.7-15.2h23V430.3z
	 M778,377.8c-0.7,0.2-1,0.1-1.3-0.8c-0.2-0.9-0.1-1,0.7-1.3c4.7-1.7,9.4-3.8,13.9-6.2c0.7,0,1.2,0.4,1.2,0.9
	c-0.1,5.7-0.3,9.8-0.3,15.6v22.1c0,7.1,0.1,8,0.8,9.4c0.8,1.4,3.5,1.5,6.4,1.8c0.5,0.1,0.6,0.3,0.6,1.1c0,0.9-0.1,1-0.6,1
	c-3.2-0.1-7.1-0.3-10.1-0.3c-3.5,0-7,0.1-10.4,0.3c-0.6,0-0.7-0.1-0.7-1c0-0.8,0.2-1,0.7-1.1c2.9-0.2,5.4-0.3,6.3-1.8
	c0.8-1.6,0.8-4.7,0.8-9.4v-25.5c0-2.6-0.2-4.5-0.8-5.3c-0.4-0.5-0.9-0.9-1.9-0.9c-0.6,0-1.5,0.1-2.6,0.5L778,377.8L778,377.8z
	 M825.4,403.9c-0.6,2.1-1.2,4-1.7,5.5c-0.3,0.9-1.1,1-2.5,1c-1.6,0-2.4-0.4-2.4-1.1c0-0.4,0.1-0.9,0.5-1.7c1.6-4.1,3.1-9.6,4-14.3
	h-3.1c-1.4,0-2.7,0.1-4.5,0.4L815,391c2.1,0.4,3.4,0.5,5.3,0.5h14c2.4-2.8,3-3.2,3.4-3.2c0.5,0,1,0.4,3.7,2.4
	c1.2,0.9,1.4,1.3,1.4,1.8s-0.2,0.7-0.9,0.7H828c-0.6,3-1.3,5.8-2.2,8.7h7.3c1.9-2.2,2.4-2.4,2.8-2.4c0.4,0,0.9,0.3,3,2
	c1,0.9,1.2,1.4,1.2,1.8s-0.3,0.7-1.9,1.7c-0.8,7.6-1.7,13-3.1,16.8c-1,2.7-2.2,4.2-3.7,5.1c-1.2,0.7-2.6,1.1-4,1.1
	c-0.8,0-1.1-0.4-1.2-1.4c-0.2-1.9-1.2-2.9-5.8-4.2c-0.4-0.1-0.4-1.1,0.1-1c3.8,0.6,5.8,0.8,7.3,0.8c1.7,0,2.2-0.4,2.7-1.8
	c1.4-4.3,2.3-10.2,3-16.6h-8.1L825.4,403.9z M823.7,386.2c0,1.2-1,1.8-2.8,1.8c-1.4,0-2-0.4-2-1.4c0-1.6,0.2-4.1,0.2-12.7
	c0-4-0.1-5.8-0.3-8.6c2.2,1,3.2,1.4,5.4,2.7h9.4c1.9-2.1,2.3-2.4,2.7-2.4c0.5,0,0.9,0.3,3,1.9c1,0.9,1.4,1.4,1.4,1.8
	c0,0.5-0.4,0.9-2,1.9v3.3c0,6.7,0.1,9.9,0.1,10.9c0,1.2-1.1,1.8-2.7,1.8c-1.4,0-2.1-0.4-2.1-1.5V384h-10.2v2.2L823.7,386.2z
	 M833.9,369.7h-10.2v12.5h10.2V369.7z M857.6,370.3c0-2.4-0.1-4.2-0.4-6.8c6.6,0.6,7.4,1.2,7.4,1.9c0,0.5-0.5,1-2.2,1.7v4.1h7.2
	c2.4-3.1,3-3.5,3.4-3.5c0.5,0,1,0.4,3.8,2.6c1.2,1.1,1.5,1.5,1.5,1.9c0,0.5-0.3,0.7-0.9,0.7h-15v6.1h12c1.9-2.2,2.5-2.6,3-2.6
	c0.6,0,1.2,0.4,3.2,2.5c0.9,0.9,1.2,1.5,1.2,2c0,0.8-0.4,1.2-2.2,1.2c-0.6,0.1-0.9,0.2-1.7,0.8c-1.2,1.1-2.6,2.1-4.5,3.2
	c-0.3,0.2-0.9-0.3-0.7-0.6c0.9-1.8,1.4-3,1.8-4.8h-25.3v5.2c0.1,12.7-0.8,20.6-3,27c-2.1,6.2-5.7,11.3-10.9,15.9
	c-0.4,0.3-1-0.3-0.7-0.6c4-5.3,6.6-10.6,7.9-16.7c1.3-5.5,1.9-12.2,1.9-22c0-6.6-0.1-9.9-0.4-13.7c2.4,1.1,3.5,1.6,5.8,3.2h7.7v-8.7
	L857.6,370.3z M841.6,428.4c8.4-4.5,12.2-10.7,12.2-21.7c0-1.4-0.1-2.3-0.2-4c5.5,0.6,7.3,1.1,7.3,1.9c0,0.6-0.5,1-1.9,1.6
	c-0.4,12.8-5.3,19.3-16.8,23C841.7,429.4,841.3,428.6,841.6,428.4z M855.5,391.4c-1.6,0.2-2.4,0.4-4.3,0.9l-0.9-2.6
	c2.3,0.1,3.8,0.1,4.9-0.1l1.5-0.2c0-2.4,0-4.8-0.3-6.8c5.8,0.4,6.8,0.8,6.8,1.6c0,0.4-0.4,0.9-2.1,1.5v3.2l6.3-0.8
	c1.6-2.7,2.1-3,2.5-3c0.5,0,1.1,0.4,3.5,1.8c0.9,0.6,1.2,0.9,1.2,1.4c0,0.4-0.3,0.7-0.9,0.8l-12.7,1.5v3.8c0,1.6,0.6,1.9,5.3,1.9
	c4,0,5.8-0.3,6.7-0.8c0.9-0.6,1.4-1.6,2.5-5.2c0.1-0.3,0.7-0.3,0.7,0c-0.1,1.6-0.1,2.7-0.1,3.5c0,0.6,0.3,0.9,1,1.2
	c1,0.4,1.3,0.7,1.3,1.6c0,1.3-0.9,2.2-3,2.8c-1.9,0.6-4.6,0.9-9.3,0.9c-7.8,0-9.7-1.3-9.7-5.1v-4L855.5,391.4L855.5,391.4z
	 M868.7,421.8c0,1.5,0.4,1.9,4,1.9c2.8,0,3.9-0.4,4.8-1.3c0.9-0.9,1.9-3.9,2.8-8c0.1-0.4,0.8-0.2,0.8,0.1c-0.1,1.9-0.3,4.5-0.3,6.2
	c0,0.9,0.1,1.2,0.8,1.5c0.9,0.4,1.2,1.1,1.2,2.1c0,1.3-0.7,2.3-2.3,3c-1.7,0.7-4.2,1.1-7.8,1.1c-7,0-8.8-1.7-8.8-6.1
	c0-0.8,0.1-1.8,0.1-7.1c0-5.6-0.1-8.7-0.4-12.3c6.3,0.6,7.3,1.1,7.3,1.9c0,0.6-0.4,1.1-2.3,1.9v15.1L868.7,421.8z M907.2,394.8
	c0,1.5-1,2.2-3.2,2.2c-1.7,0-2.4-0.6-2.4-1.9s0.4-5,0.4-13.8c0-5.5,0-7.5-0.4-11.2c7.2,0.9,8.3,1.2,8.3,2.2c0,0.7-0.5,1.3-2.7,2.1
	v17.2h16.9v-13.2c0-7.6-0.1-12-0.5-14.6c7.7,0.7,8.6,1.4,8.6,2.2c0,0.7-0.6,1.4-2.7,2.2v23.5h17.2V379c0-3.9,0-5.7-0.4-8.9
	c6.8,0.8,8.1,1.2,8.1,2.3c0,0.6-0.5,1.2-2.5,1.9v5.1c0,9.1,0.3,13.5,0.3,14.9c0,1.7-1,2.4-3.2,2.4c-1.7,0-2.4-0.6-2.4-1.9v-1.5
	h-17.2v28.8h20.5v-12c0-4-0.1-5.6-0.4-8.7c7.2,0.7,8.4,1.1,8.4,2.2c0,0.7-0.6,1.3-2.6,2.1v5.3c0,9.5,0.3,14.2,0.3,15.6
	c0,1.7-1.1,2.4-3.4,2.4c-1.7,0-2.2-0.6-2.2-2v-3h-45.9v2.7c0,1.7-1,2.6-3.3,2.6c-1.7,0-2.4-0.6-2.4-2.2c0-1.3,0.4-5.5,0.4-15
	c0-5.3,0.1-6.8-0.4-10.5c6.7,0.6,8.1,1.2,8.1,2.1c0,0.7-0.5,1.2-2.4,2.1v16.5h20v-28.8h-16.9L907.2,394.8L907.2,394.8z M986.9,419.2
	c0,1.6-0.9,2.6-3.3,2.6c-1.7,0-2.4-0.8-2.4-2c0-3.2,0.4-8.4,0.4-27.8c0-10.2-0.1-15.3-0.4-20.2c2.8,1.1,4,1.7,6.7,3.2h35
	c2.4-2.7,2.8-3,3.2-3c0.5,0,0.9,0.3,3.6,2.5c1.2,1,1.4,1.4,1.4,1.9c0,0.6-0.4,1.1-2,2.2v10.8c0,18,0.4,26.6,0.4,29.2
	c0,1.8-0.9,2.7-3.5,2.7c-1.7,0-2.3-0.7-2.3-2.1v-3.9H987L986.9,419.2L986.9,419.2z M1023.7,376.8H987v36.7h36.7V376.8z M199.9,508.1
	c2.3,0.4,3.8,0.5,5.8,0.5h7.1V499c0-3.2-0.1-5.7-0.4-8.3c7.5,0.7,8.3,1.3,8.3,2.1c0,0.6-0.6,1.2-2.5,1.9v13.8h12.2v-15
	c0-3.7-0.1-6.3-0.4-8.9c7.4,0.6,8.3,1.3,8.3,2c0,0.6-0.6,1.2-2.4,2v7.3h11.5c3.1-3.5,3.7-3.9,4.1-3.9c0.5,0,1.2,0.4,4.3,2.8
	c1.4,1.2,1.8,1.7,1.8,2.2c0,0.4-0.2,0.6-0.9,0.6h-20.8v10.8h18.4c3.2-3.6,3.8-4,4.2-4c0.5,0,1.2,0.4,4.4,3c1.5,1.2,1.9,1.7,1.9,2.1
	s-0.3,0.6-1,0.6h-27.9v9.6c0,4.9,0.1,6.8,0.1,8c0,2.2-0.8,3.5-2.1,4.5c-1.1,0.9-2.9,1.4-4.6,1.4c-1,0-1.3-0.2-1.5-1.7
	c-0.3-1.5-1.3-2.7-6.4-4c-0.4-0.1-0.4-0.9,0.1-0.9c3.5,0.3,6.3,0.4,7.9,0.4c0.7,0,1-0.4,1-1.2V510H206c-1.8,0-3.2,0.1-5.2,0.4
	L199.9,508.1L199.9,508.1z M222.4,518.6c0,0.7-0.6,1.1-3,1.3c-5,7.5-10.1,12.5-17.7,16.6c-0.4,0.2-0.9-0.5-0.6-0.8
	c5-4.5,8.7-9.7,11.1-14c1.4-2.6,2.4-4.9,2.9-7C221.4,517.1,222.4,517.6,222.4,518.6z M258.7,521.6c0,0.8-0.6,1.2-3.1,1.1
	c-6.8,8.6-13.8,14.8-21.7,19c-9.1,4.8-19.1,7.6-31,8.8c-0.4,0.1-0.6-0.9-0.2-0.9c13.5-3.4,25.8-8.9,35-16.3c3.8-3.1,7.3-6.8,10.7-11
	c1.5-2,2.5-3.6,3.5-5.7C257.9,520.1,258.7,520.9,258.7,521.6L258.7,521.6z M293.5,525.4c0,13.5,0.1,20.4,0.1,22.5
	c0,1.7-1.1,2.5-3.2,2.5c-1.5,0-2.4-0.6-2.4-2.2c0-1.4,0.2-6.6,0.4-21c0-3,0.1-6,0.1-9c-2.9,2.5-6,4.8-9.6,6.8
	c-0.4,0.2-1.1-0.6-0.7-0.9c5.7-4.9,10.7-10.9,14-16.5c1.5-2.6,2.7-5,3.4-7.1c5.9,2.8,7,3.5,7,4.2c0,0.9-0.8,1.3-3.2,1.3
	c-2.2,3-4.3,5.7-6.6,8.2c2.4,0.4,3,0.8,3,1.4c0,0.6-0.4,1-2.2,1.7L293.5,525.4L293.5,525.4z M278.4,505.2c4.8-3.7,9.3-9.1,12.5-13.9
	c1.7-2.7,3.1-5.1,3.7-7.2c5.2,2.4,7.1,3.7,7.1,4.5c0,0.7-0.6,1.1-3.3,1c-5.1,6.9-11.7,12.7-19.3,16.5
	C278.6,506.3,278,505.5,278.4,505.2L278.4,505.2z M329.1,527.2c0,8.6,0.3,12.5,0.3,16.3c0,2.2-1,3.6-2.2,4.6c-1.2,0.9-3,1.5-4.8,1.5
	c-1.1,0-1.2-0.1-1.4-1.4c-0.4-2.2-1.8-3-8.7-4.4c-0.5-0.1-0.4-1.2,0.1-1.1c4.4,0.4,7.8,0.6,9.9,0.6c1.1,0,1.4-0.4,1.4-1.5V510H307
	c-1.7,0-2.9,0.1-4.9,0.4l-0.7-2.8c2.3,0.4,3.7,0.6,5.6,0.6h26.7c3.2-3.7,3.7-4.1,4.2-4.1c0.4,0,1,0.4,4.2,3c1.5,1.3,1.9,1.8,1.9,2.2
	c0,0.4-0.3,0.6-0.9,0.6h-14L329.1,527.2L329.1,527.2z M304.5,490.3c2.2,0.4,3.7,0.5,5.5,0.5h20c3.2-3.7,3.7-4,4.2-4s1,0.4,4.3,3
	c1.5,1.2,1.8,1.6,1.8,2.1s-0.2,0.7-1,0.7H310c-1.7,0-2.9,0.1-4.8,0.4L304.5,490.3z M355.4,544.7c1.9-4.2,3.5-9.4,4.5-13.9
	c0.4-2.1,0.6-4.2,0.6-6.8c6.1,1.7,6.8,1.9,6.8,2.7c0,0.6-0.5,1-2.2,1.4c-2,6.7-4.9,12.9-8.8,17.2C356,545.6,355.3,545.1,355.4,544.7
	L355.4,544.7z M368.7,518.2c-2.6,0.5-5.3,0.9-8.4,1.4c-0.6,1.7-0.9,2-1.5,2c-0.7,0-1.2-1.1-2.2-6.7c1.6,0.1,2.2,0.2,3.3,0.2
	c1.4,0,2.7-0.1,4.2-0.1c3.1-3.9,6.8-9.6,9.4-14.5c1.4-2.7,2.4-5,2.9-6.7c5.4,2.6,6.6,3.2,6.6,4.1c0,0.5-0.6,0.9-2.7,0.9
	c-5.7,7.7-8.3,10.9-14.1,16.1c4.4-0.1,8.8-0.3,13.1-0.6c-0.6-2.1-1.7-4.1-3.2-6.1c-0.1-0.2,0.4-0.6,0.6-0.5
	c5.4,3.2,8.2,7.2,8.2,10.4c0,2-1,3.5-2.4,3.5s-2.1-0.5-2.4-3.9c-0.1-0.7-0.2-1.4-0.4-2c-2,0.5-4,1-6,1.4v13.8c0,8,0.2,15.1,0.2,17.3
	c0,1.6-1.1,2.3-3.2,2.3c-1.5,0-2.2-0.5-2.2-1.9s0.4-5.9,0.4-14.8v-15.6H368.7z M368.6,503.9c0,1.9-1.1,3.3-2.6,3.3s-1.9-0.4-2.9-3.4
	c-0.9-3.2-2.2-5.1-5.4-8.2c-0.2-0.2,0.1-0.6,0.4-0.5c2.3,0.8,4.2,1.7,5.8,2.7c1.5-2.9,2.7-5.9,3.7-8.9c0.6-1.9,1-3.6,1.1-4.8
	c5.3,1.9,7.2,2.8,7.2,3.7c0,0.7-0.5,1.2-2.8,1.3c-3.7,4.9-4.8,6.6-7.8,9.6C367.5,500.3,368.6,502.1,368.6,503.9L368.6,503.9z
	 M379.3,535.6c-0.4-4.1-1.7-8.1-3.5-11c-0.1-0.2,0.4-0.5,0.6-0.4c5.3,3.7,8.1,8.4,8.1,12c0,2.2-1.1,3.8-2.8,3.8
	C380.3,539.9,379.7,539.1,379.3,535.6L379.3,535.6z M412.8,499.1c2.4-2.8,2.7-3,3.2-3s0.9,0.2,3.5,2.6c1.1,1.1,1.3,1.5,1.3,2
	c0,0.4-0.3,0.7-2,1.9c-0.5,17.5-1.4,28.1-3.5,36.7c-0.9,3.8-2.5,6.8-4.2,8.1s-3.8,1.8-5.5,1.8c-1.2,0-1.5-0.1-1.7-1.4
	c-0.5-2.3-1.7-3.2-7.6-4.9c-0.5-0.1-0.5-1.2,0-1.2c5,0.7,7.1,0.9,8.8,0.9c3.5,0,4.3-1.7,5.3-5.3c1.8-6.8,2.8-17.3,3.2-36.4h-20.7
	c-2.4,4-5.2,7.7-8.8,11.2c-0.3,0.3-1-0.2-0.8-0.6c3.4-5.1,6.3-11.8,8.2-18.6c0.8-3,1.3-5.8,1.5-8.2c6.8,1.7,7.9,2.4,7.9,3.2
	c0,0.7-0.5,1.2-2.7,1.5c-1.3,3.6-2.7,6.8-4.4,9.8L412.8,499.1L412.8,499.1z M397.1,523.6c-1.2-5.2-2.8-8.7-5.9-12.2
	c-0.2-0.2,0.2-0.7,0.5-0.6c6.5,2.9,11,7.8,11,11.8c0,2.1-1.3,3.9-3.2,3.9C398.3,526.6,397.6,525.8,397.1,523.6z M451.8,515.3
	c7.8,1.5,12.4,6.2,12.4,13.2c0,9.4-6.2,15.3-15.5,15.3c-4.5,0-7.5-1.3-9.9-2.8c-2.2-1.4-4.5-3.5-4.5-5.8c0-1.7,1.8-3.1,4.6-3.1
	c2.2,0,3,3.5,3.9,5.4c0.9,2,2.4,4,5.8,4c5.3,0,8.4-5,8.4-13.2c0-5-2.2-12.1-9.8-11.6c-0.9,0.1-2.3,0.2-3,0.2s-1-0.1-0.8-1.4
	c0.3-1.3,0.7-1.6,1.4-1.6s1.7,0.2,2.4,0.2c4,0,8.4-3.3,8.4-11.1c0-5.4-2.1-9.9-6.7-9.9c-2.4,0-4.5,1.1-5.5,3.2
	c-0.6,1.2-0.7,2.4-0.7,3.6c0,2.1-2.2,3.5-4.8,3.5c-1.7,0-2.6-0.7-2.6-2.2c0-4.2,5.5-10.4,13.7-10.4c7.4,0,13.3,4.5,13.3,12.1
	c0,7.3-5.3,10.5-10.7,12v0.4L451.8,515.3z M476.6,517.8c8.7-6.8,15-15.1,19.2-24.3c1.3-2.9,2.2-5.4,2.7-8.1c6.4,2.2,8.1,3.1,8.1,3.9
	c0,0.9-0.6,1.3-3,1.5c-6.3,13-13.9,21.3-26.3,28C476.8,519.1,476.2,518.1,476.6,517.8L476.6,517.8z M507.3,515.8
	c-1.7,18.4-10.6,28.9-29,34.4c-0.5,0.1-0.9-0.9-0.5-1.2c15.4-7.8,22.1-17.2,23.7-33.3H495c-2.2,0-3.7,0.1-5.8,0.5l-0.8-3
	c2.4,0.6,4.2,0.7,6.4,0.7h28.4c2.4-2.4,2.7-2.7,3.2-2.7c0.4,0,0.9,0.3,3.4,2.6c1.2,1.2,1.4,1.5,1.4,1.9c0,0.5-0.3,0.7-2,1.9
	c-0.6,10.6-1.5,18.3-3.3,23.5c-0.9,2.7-1.9,4.7-3.6,6c-1.4,1.2-3.5,1.9-5.5,1.9c-1.3,0-1.7-0.2-1.9-1.5c-0.4-1.9-1.9-3.1-8.3-4.8
	c-0.5-0.1-0.4-1.4,0.1-1.4c5.3,0.9,8.2,1.3,10.7,1.3c2.1,0,3-1.7,4.2-6c1.2-4.5,1.9-10.5,2.5-21h-16.8L507.3,515.8z M536.5,516.3
	c-3.7-2.5-6.8-5.3-9.1-8.1c-4.2-4.6-7.1-9.9-10.5-19c-0.1-0.5-0.5-0.9-0.9-1.3c-0.4-0.3-0.6-0.6-0.6-0.9c0-0.5,2-1.2,2.7-1.2
	c0.4,0,0.6,0.2,0.6,0.6c0,0.2-0.3,0.8-0.3,1.2c0,0.4,0.1,0.8,0.4,1.4c2.5,6.1,6.3,11.1,10.2,14.5c4.6,4.2,9.8,6.6,15.1,8.1
	c0.4,0.1,0.3,0.9-0.1,1c-1.8,0.2-2.6,1.2-3.4,3.7c-0.3,1.1-0.6,1.4-1.1,1.4S537.9,517.1,536.5,516.3L536.5,516.3z M560.3,503.9
	c-1.7,1.4-3.5,2.7-5.3,3.8c-0.4,0.2-0.9-0.6-0.6-0.9c4.5-4.5,8.8-10.7,11.4-16.4c1.1-2.2,1.9-4.5,2.2-6.5c5.1,1.4,7,2.2,7,3.1
	c0,0.6-0.8,1-2.7,1.3l-0.2,0.5c6,2.1,9.8,5.2,9.8,8.3c0,1.4-0.9,2.6-2.2,2.6c-1.1,0-1.7-0.6-2.5-2.8c-1.2-2.8-3-5.1-5.6-7.1
	c-2.7,5.2-6.4,9.9-10.8,13.8c1.4,0.3,2.4,0.4,3.8,0.4h8.9c1.9-2.5,2.4-2.9,2.9-2.9s1,0.4,3.2,2.2c1,0.8,1.4,1.4,1.4,1.8
	c0,0.5-0.2,0.7-0.9,0.7h-8.3v9.5h3c2.2-2.7,2.7-3.1,3.1-3.1c0.5,0,0.9,0.4,3.5,2.4c1,0.8,1.3,1.4,1.3,1.8c0,0.5-0.2,0.7-0.9,0.7
	h-9.9v22.6c3.4-0.6,6.8-1.4,9.8-2.3c0.4-0.1,0.6,0.7,0.3,0.9c-5.9,3.1-13,5.8-21,8.1c-0.4,1.9-0.7,2.5-1.4,2.5s-1.3-0.8-3.4-7.1
	c1.5,0,3.1-0.1,4.9-0.4c1.9-0.2,4-0.5,6-0.9V517h-6c-1.4,0-2.4,0.1-4.2,0.4l-0.7-2.7c2,0.4,3.2,0.5,4.8,0.5h6.1v-9.5h-2.4
	c-1.2,0-2.1,0.1-3.7,0.4L560.3,503.9L560.3,503.9z M559.8,533c-0.1-4.5-0.6-7.2-2.1-10.4c-0.1-0.4,0.4-0.6,0.7-0.4
	c3.9,3.6,5.8,7.3,5.8,10.5c0,2.2-1.1,3.7-2.6,3.7C560.4,536.3,559.8,535.5,559.8,533L559.8,533z M573.7,535.6
	c1.4-3.6,2.2-7.1,2.9-10.6c0.3-1.5,0.4-2.7,0.5-4c4.9,1.7,6,2.3,6,3.1c0,0.6-0.7,1-2.2,1.2c-1.7,3.6-3.7,7.3-6.3,10.8
	C574.2,536.4,573.5,536.1,573.7,535.6z M589.4,530.9c0,1.4-0.9,2-2.7,2c-1.4,0-2-0.5-2-1.7c0-0.9,0.1-6.3,0.1-12.5
	c0-5.5,0-7-0.3-10.5c1.8,0.6,3.7,1.6,5.4,2.7h21.5c1.7-2.1,2.1-2.3,2.5-2.3c0.5,0,0.9,0.2,3,1.9c1,0.8,1.2,1.2,1.2,1.7
	c0,0.6-0.1,0.8-1.7,2.1v3.7c0,7.5,0.1,11.1,0.1,12.2c0,1.4-0.9,2.1-2.8,2.1c-1.3,0-1.9-0.4-1.9-1.6v-0.6h-9.1v7.4h8.9
	c2.4-3,3-3.2,3.4-3.2s1,0.3,3.7,2.4c1.2,1,1.5,1.4,1.5,1.9s-0.2,0.7-0.9,0.7h-16.6v7.4h10.5c2.6-3.2,3.2-3.6,3.6-3.6
	c0.5,0,1,0.4,4,2.7c1.3,1.2,1.7,1.6,1.7,2c0,0.5-0.2,0.7-0.9,0.7h-38.3c-1.5,0-2.7,0.1-4.7,0.4l-0.7-2.7c2.2,0.4,3.6,0.5,5.4,0.5
	H598v-7.4h-10.1c-1.5,0-2.5,0.1-4.2,0.4L583,537c1.9,0.4,3.2,0.5,5,0.5h10v-7.4h-8.6V530.9L589.4,530.9z M610.8,491.7
	c2.4-3,3-3.4,3.5-3.4c0.4,0,0.9,0.4,3.9,2.6c1.2,0.9,1.5,1.4,1.5,1.9s-0.3,0.7-0.9,0.7h-11.7c4.8,1.9,5.8,2.4,5.8,3
	c0,0.7-0.7,1-2.5,1.1c-1.8,2.4-3.5,4.3-5.3,6h7.6c2.4-3,3-3.3,3.5-3.3s1.1,0.4,3.9,2.5c1.2,0.9,1.5,1.5,1.5,1.9s-0.2,0.6-0.9,0.6
	h-34.3c-1.4,0-2.4,0.1-4.1,0.4l-0.8-2.7c1.9,0.4,3.2,0.5,4.9,0.5h16.8c1-1.9,1.8-4,2.4-6.1c0.5-1.5,0.7-2.9,0.9-4h-18.7
	c-1.4,0-2.4,0.1-4,0.4l-0.7-2.7c1.9,0.4,3,0.5,4.8,0.5H598V489c0-1.5-0.1-2.8-0.3-5c6.6,0.7,7.4,1.2,7.4,1.9c0,0.4-0.4,0.9-2.2,1.7
	v4.1L610.8,491.7L610.8,491.7z M591.8,500.6c-0.3-2.5-1.1-4.4-2.5-6.2c-0.1-0.2,0.2-0.6,0.5-0.4c4.4,1.8,6.7,4,6.7,6.4
	c0,1.7-1.1,2.9-2.5,2.9C592.6,503.2,592,502.5,591.8,500.6L591.8,500.6z M589.4,512.6v6.7h8.6v-6.7H589.4z M598,528.1v-7h-8.6v7H598
	z M611.9,512.6h-9.1v6.7h9.1V512.6z M611.9,521.1h-9.1v7h9.1V521.1z M644.3,537.8c5-0.9,9.8-2.4,14.5-4.1c-1.3-3-2.9-5.7-5-8.4
	c-0.2-0.2,0.3-0.6,0.5-0.5c7.3,4,12,10.1,12,14.8c0,2.2-1.1,3.9-2.8,3.9c-1.4,0-1.9-0.6-2.4-3.2c-0.5-1.9-1-3.6-1.6-5.1
	c-6.3,3.3-12.2,5.9-20.7,9c-0.6,2.1-0.9,2.6-1.6,2.6c-0.8,0-1.1-0.2-3-7.6c1.6-0.1,3.3-0.2,5.2-0.5v-36.3c0-8.6,0-12.6-0.4-15.7
	c2.6,1.1,3.7,1.7,6.2,3h14c2.2-2.3,2.6-2.7,3-2.7c0.6,0,1,0.4,3.3,2.4c0.9,0.8,1.2,1.2,1.2,1.7s-0.1,0.9-1.9,2.1v6.4
	c0,13.2,0.4,18.7,0.4,20.5c0,1.6-1.2,2.2-3.3,2.2c-1.5,0-2-0.5-2-1.8v-1.7h-15.4v19H644.3z M659.7,491.6h-15.4v11.5h15.4V491.6z
	 M644.3,517.1h15.4v-12.2h-15.4V517.1z M677.6,512.9c0,12.2,0.1,24.1,0.1,34.3c0,1.9-1.2,2.5-3.4,2.5c-1.7,0-2.2-0.7-2.2-1.9
	c0-3.2,0.4-12.1,0.4-33.2c0-19.2-0.1-24.3-0.4-27.9c2.7,1.2,3.8,1.7,6.2,3.2h12.5c2.3-2.5,2.7-2.8,3.1-2.8c0.5,0,0.9,0.3,3.4,2.4
	c1.2,1.1,1.4,1.4,1.4,1.9c0,0.6-0.3,1-2,2.2v10.9c0,22.5,0.2,24.6,0.2,27.2c0,2.4-1.1,3.8-2.5,4.8c-1.2,0.7-2.8,1.2-4.7,1.2
	c-1,0-1.2-0.3-1.4-1.5c-0.3-2-1.3-3-6.1-4c-0.4-0.1-0.4-0.9,0-0.9c3.4,0.3,5.8,0.4,7.9,0.4c0.9,0,1.2-0.3,1.2-1.2v-38.7h-13.6v21.1
	L677.6,512.9z M768.1,521.2c0,16.6,0.2,19.9,0.1,22c0,3.2-1.2,4.8-3.5,5.8c-1.2,0.5-2.8,0.8-4.1,0.8c-1.2,0-1.4-0.2-1.6-1.5
	c-0.5-2.3-1.7-3.1-9.4-4.5c-0.5-0.1-0.5-1.2,0-1.2c5.1,0.4,9.2,0.5,11.8,0.5c0.9,0,1.2-0.4,1.2-1.4v-50.2h-43.1
	c-2.3,0-4,0.1-6.3,0.5l-0.7-2.7c2.7,0.4,4.6,0.4,7,0.4h47.9c3.5-4.2,4.1-4.5,4.5-4.5c0.5,0,1,0.4,4.8,3.4c1.7,1.4,2.1,1.9,2.1,2.3
	s-0.3,0.6-1,0.6H768L768.1,521.2L768.1,521.2z M728,531.2c0,1.7-0.9,2.4-3.1,2.4c-1.7,0-2.3-0.6-2.3-1.9c0-1.5,0.2-6.1,0.2-15.9
	c0-7.4,0.1-10.2-0.4-15c2.7,1.1,3.8,1.6,6.2,3h15.3c2.2-2.4,2.6-2.7,3-2.7c0.5,0,0.9,0.3,3.3,2.3c1.2,0.9,1.4,1.3,1.4,1.7
	c0,0.6-0.3,0.9-1.9,2v5.4c0,10.2,0.2,15,0.2,16.6c0,1.7-1,2.4-3.3,2.4c-1.7,0-2.2-0.6-2.2-2.2v-3.1H728V531.2z M744.4,505.6H728
	v18.9h16.4V505.6z M806,520.6c0,18.1,0.1,20.2,0.1,23.5c0,2.2-0.6,3.5-1.6,4.5c-0.9,1.1-2.5,1.7-4.3,1.7c-0.8,0-1.1-0.3-1.2-1.3
	c-0.3-2.3-1-3.1-6.6-4.3c-0.4-0.1-0.4-0.9,0-0.9c3.7,0.2,6,0.4,7.4,0.4c0.9,0,1.2-0.3,1.2-1.2v-20.4c-1.8,0.8-3.7,1.5-5.5,2.2
	c-0.3,1.9-0.7,2.5-1.4,2.5c-0.6,0-1.1-0.4-3.1-7c1.9-0.2,3.7-0.5,5.5-0.9c1.4-0.3,2.8-0.6,4.4-1v-16.2h-4.8c-1.2,0-2.3,0.1-4,0.4
	l-0.8-2.7c1.9,0.4,3,0.5,4.8,0.5h4.8v-2.3c0-9.4,0-10.9-0.4-13.6c6.3,0.6,7.8,1,7.8,2c0,0.7-0.4,1.2-2.4,1.9v12h2
	c2.3-3,2.9-3.4,3.3-3.4c0.4,0,0.9,0.4,3.2,2.7c0.9,0.8,1.2,1.4,1.2,1.8c0,0.5-0.2,0.7-0.9,0.7H806V517c3-0.9,5.9-1.9,8.3-2.9
	c0.4-0.1,0.6,0.6,0.4,0.9c-2.7,1.9-5.7,3.5-8.6,5v0.6H806z M817.4,503c0-5.8,0-8.4-0.4-11.9c2.7,1.2,3.9,1.9,6.3,3.2
	c6.3-1.7,11.9-3.8,16.2-6.1c2.4-1.4,4-2.7,5.1-3.8c4.2,3,6,4.5,6,5.1s-0.4,1-1.5,1c-0.6,0-1.3-0.1-2.2-0.4
	c-3.5,1.4-7.6,2.7-11.8,3.6c5.4,0.6,6,1.1,6,1.8c0,0.6-0.4,0.9-2.2,1.7c0.1,4.9,0.2,9,0.6,12.5l7.1-0.1c2.8-3.5,3.3-4,3.8-4
	s1.2,0.5,4.5,3.4c0.8,0.7,1.2,1.2,1.2,1.6s-0.4,0.6-1,0.6l-15.3,0.4c0.5,4.2,1.2,7.7,2.4,10.9c1.6,4.4,4.2,8.9,7.6,12
	c1.9,2,2.8,2.5,3.2,2.5s1.5-2.2,3.7-7.6c0.1-0.3,0.8,0,0.7,0.3c-0.9,4.3-1.2,7-1.2,7.8c0,0.7,0.1,1.2,0.7,1.8
	c0.5,0.6,0.8,1.2,0.8,1.9c0,1.7-1,2.7-2.6,2.7c-1.9,0-4.9-1.9-7.3-4.2c-3.7-3.4-7.5-8.3-9.9-15.1c-1.4-4-2.2-8.1-2.7-13l-12.4,0.3
	v20.4c4.5-1.1,8.9-2.5,13.2-4.2c0.4-0.2,0.8,0.8,0.4,1.1c-5,3.4-12,6.9-20.7,9.9c-0.3,1.9-0.6,2.4-1.4,2.4c-0.6,0-1.4-1.4-3-7.1
	c1.5-0.1,2.9-0.4,4.8-0.6c0.6-0.1,1.1-0.2,1.7-0.3V503L817.4,503z M813,544.6c2.2,0.4,3.5,0.5,5.4,0.5h18.3c3.1-3.6,3.7-4,4.1-4
	c0.4,0,0.9,0.4,4,3c1.4,1.1,1.7,1.6,1.7,2c0,0.5-0.2,0.7-0.9,0.7h-27.1c-1.7,0-2.9,0.1-4.8,0.4L813,544.6L813,544.6z M834.6,509.9
	c-0.3-3.3-0.5-7.1-0.6-11.4c-0.1-2.4-0.1-3.4-0.3-4.4c-3.8,0.9-7.6,1.5-11.2,1.9v14.2L834.6,509.9L834.6,509.9z M884.3,534.6
	c1.9,3.4,3.9,5,6.7,6.2c3.4,1.3,8.4,2.3,18.5,2.3c7.1,0,16.4-0.6,26.4-1.8c0.4-0.1,0.4,0.7,0.1,0.9c-1.7,0.9-2.2,1.6-2.4,3.3
	c-0.1,1.6-0.4,1.8-1.5,1.9c-6.4,0.5-13.2,0.6-19,0.6c-13.4,0-19.7-1.4-23.7-4.2c-3-2.1-5.1-5-6.8-9.4c-2.3,3.8-4.6,6.6-8,10.1
	c0.1,2.5-0.2,3.2-1.1,3.2c-0.8,0-1.9-1.5-4.8-7.4c1.6-0.4,2.8-0.9,4.5-1.7c1.6-0.8,3.7-2,6-3.9v-19h-4.8c-1.9,0-3.1,0.1-4.9,0.5
	l-0.7-3c2.2,0.5,3.7,0.6,5.6,0.6h4.3c2.3-2.5,2.7-2.8,3.1-2.8c0.5,0,1.1,0.3,3.3,2.2c1.2,1,1.4,1.4,1.4,1.9c0,0.4-0.2,0.7-2,2v17.5
	L884.3,534.6z M878.9,496.2c-0.9-2.8-3-6.8-5.4-9.3c-0.2-0.2,0.2-0.6,0.5-0.6c7.1,2.4,10.6,6.3,10.6,9.6c0,1.9-1.2,3.5-3,3.5
	C880.4,499.5,879.7,498.6,878.9,496.2L878.9,496.2z M924.1,511.9c2.6-3,3.1-3.4,3.5-3.4c0.5,0,1,0.4,3.8,2.5
	c1.2,0.9,1.5,1.4,1.5,1.9s-0.2,0.8-0.9,0.8h-20.1v7h9.4c2.4-2.9,2.9-3.2,3.3-3.2c0.5,0,1,0.4,3.5,2.4c1.2,0.9,1.4,1.4,1.4,1.9
	c0,0.4-0.2,0.7-0.9,0.7h-16.7c0,4,0,5.6,0.1,7.1h13.5c2.7-3.2,3.2-3.6,3.7-3.6c0.4,0,0.9,0.4,3.8,2.7c1.3,1.2,1.7,1.6,1.7,2.1
	c0,0.4-0.3,0.6-0.9,0.6H912c0.1,3.3,0.2,5.8,0.2,6.9c0,1.7-1,2.4-3.2,2.4c-1.7,0-2.4-0.5-2.4-1.7c0-0.8,0.2-3.2,0.3-7.6h-13.8
	c-1.4,0-2.6,0.1-4.4,0.5l-0.7-2.8c2,0.4,3.2,0.5,5,0.5h13.8v-7.1h-9.7c-1.4,0-2.4,0.1-4.2,0.4l-0.7-2.7c1.9,0.4,3.1,0.5,4.8,0.5h9.9
	v-7h-13.3c-1.4,0-2.4,0.1-4.2,0.4l-0.7-2.7c1.9,0.4,3.2,0.5,4.8,0.5h7.8c-0.4-0.4-0.7-0.9-0.9-2c-0.4-2.3-1.2-4.5-2.6-6.3
	c-0.1-0.2,0.1-0.6,0.4-0.5c4.3,1.6,6.8,3.9,6.8,6c0,1.2-0.6,2.2-1.5,2.7h10.3c0.9-1.8,1.7-3.5,2.3-5.2c0.5-1.4,0.8-2.5,1.1-3.7H893
	c-1.5,0-2.6,0.1-4.4,0.4l-0.8-2.7c2.1,0.4,3.4,0.5,5.1,0.5h14v-7.4h-10.5c-1.6,0-2.7,0.1-4.5,0.4l-0.7-2.8c2,0.4,3.4,0.6,5.2,0.6
	H907v-1.5c0-2.4-0.1-4.1-0.4-6.5c6.6,0.7,7.4,1.3,7.4,2c0,0.5-0.4,1-2.1,1.7v4.2H922c2.6-3,3.2-3.3,3.6-3.3s1,0.3,3.7,2.4
	c1.2,1.1,1.6,1.5,1.6,1.9c0,0.5-0.2,0.7-1,0.7H912v7.4h13.8c2.7-3.2,3.2-3.5,3.7-3.5s1,0.4,4,2.7c1.2,1,1.6,1.4,1.6,1.9
	s-0.2,0.7-0.9,0.7h-16c3.6,1.4,5.2,2.4,5.2,3c0,0.8-0.6,1-2.7,1.1c-2,2.2-3.2,3.4-5,4.8h8.4V511.9z M968.2,540.1
	c0,5.1-4.4,9.5-9.5,9.5s-9.5-4.4-9.5-9.5s4.4-9.5,9.5-9.5S968.2,535,968.2,540.1z M951.7,540.1c0,3.7,3.2,7,7,7s7-3.2,7-7
	c0-3.7-3.2-7-7-7S951.7,536.3,951.7,540.1z"/>
<path class="st1" d="M0,0.3h1170.5v546.4H0V0.3z"/>
</svg>
