<svg xmlns="http://www.w3.org/2000/svg" width="465.4" height="279.9" style="overflow:visible;enable-background:new 0 0 465.4 279.9" xml:space="preserve">
    <style>
        .st0{fill:#7a6a56}.st1{fill:#ece1de}.st2{fill:#e6d0c3}.st3{fill:#f1f8f6}.st4{fill:#eaf1ef}.st5{fill:#f2edda}
    </style>
    <path class="st0" d="M399.9 58.5c-.5-1.2-.1-2.5-.3-3.7.1-.2.1-.4.2-.5.1-.2.1-.4.2-.7 0-.2.1-.3.1-.5.1-.1.2-.2.3-.2.5-.1.9-.2 1.4-.2.8-.1 1.5-.1 2.3-.2 3.4 0 6.7.1 10.1 0h3.5c1.2 0 2.5 0 3.7-.2.5-.1 1.1 0 1.6-.1 1.8 0 3.6-.1 5.5-.1.5 0 1 0 1.4-.1.8-.2 1.5-.1 2.2.2.1 0 .1.1.2.1.2.2.3.5.5.8.1.9 0 1.8 0 2.8 0 .3-.2.7-.3.9-.2.2-.4.4-.7.4-1.6.1-3.1.4-4.7.5-1.9.2-3.9.2-5.8.2h-1.2c-1.2 0-2.5 0-3.7.2-3.3.2-6.7.6-10 .5h-.7c-1.7.2-3.4 0-5.1-.1-.3.1-.5 0-.7 0zm31.8-4.9c-.4-.6-1-.6-1.6-.6-.3 0-.7.2-1 .2-.8.1-1.5.1-2.3.1-.8 0-1.5.2-2.3.2-.7 0-1.4-.2-2.1-.2-.8 0-1.5.2-2.3.2h-16.6c-.8 0-1.5.2-2.3.4-.3.1-.6.4-.5.6v2.3c0 .2.1.3.2.5.3 0 .7.1 1 .1h5.3c1.1 0 2.2 0 3.3-.2.5-.1.9-.1 1.4-.1.9 0 1.9 0 2.8-.1 1.5-.2 2.9-.2 4.4-.2h3.7c.8 0 1.5 0 2.3-.1.9-.2 1.8-.2 2.6-.2.3 0 .6 0 .9-.1.7-.2 1.5-.3 2.3-.3.2 0 .5-.3.6-.6.3-.6.3-1.2.2-1.9zM409.3 8.3c-.5-.1-.6-.4-.8-.7-.1-.7-.1-1.4-.4-2.2-.2-.7-.2-1.4-.4-2.1-.1-.3 0-.6.1-.9.2-.1.4-.3.6-.3.7.1 1.4-.2 2.1-.1 1.2-.3 2.3-.2 3.5-.3 2.2 0 4.3-.3 6.5-.6.3 0 .7-.1 1-.1 1.3 0 2.6-.1 3.9-.3.6-.1 1.3-.1 1.9-.1.9 0 1.9 0 2.8-.2.3-.1.7-.1 1.1-.1.9 0 1.9-.1 2.8-.3h.4c.2 0 .5.2.5.4v.9c0 .7 0 1.4.2 2.1.1.4.2.9.2 1.4 0 .4-.1.7-.3 1-.1.2-.3.4-.5.4-.7.1-1.4.2-2.1.2-1.3 0-2.5.2-3.7.4-.5.1-1.1.2-1.7.2-.6 0-1.2.1-1.7.2-1 .2-2.1.2-3.2.2-1 0-2 0-3 .1-.3.1-.6 0-.9 0-.5-.1-1-.2-1.6 0-.1 0-.2.1-.3 0-.8-.2-1.6 0-2.5 0-1.4.2-3 .4-4.5.8zm24.2-6.9c-.9 0-1.9-.1-2.8.1-.9.2-1.7.2-2.6.3-1.3.1-2.6.1-3.9.3-1.5.2-3 .3-4.6.4-1.7.1-3.4.5-5.1.5-.1 0-.2 0-.3.1-.9.1-1.7.2-2.6.2-.7 0-1.4.1-2.1.1-.6.1-.9.5-.7 1.1.1.3.2.7.3 1 .2.4.3.9.4 1.4 0 .1.1.2.2.3.6.1 1.1 0 1.7-.1.3-.1.7-.1 1-.2.8-.1 1.5-.1 2.3-.2.8-.1 1.5.1 2.3-.1.3-.1.6 0 .9 0h4.6c1.8 0 3.6-.3 5.4-.5 1.7-.2 3.4-.5 5.1-.6.3 0 .6-.1.9-.1.1 0 .3-.3.3-.4v-.7c-.1-.8-.3-1.6-.4-2.4-.1-.4-.1-.5-.3-.5zM464.1 31.7h-.8c-.9.1-1.9 0-2.8.3-1.6.1-3.1.4-4.7.6-1.8.2-3.5.2-5.3.3h-7.9c-.6 0-1.3 0-1.9.1-.4 0-.8.1-1.2.2-.2-.1-.4-.2-.6-.4 0-.1-.1-.2-.1-.3 0-1.3 0-2.7.1-4.1.2-.1.3-.2.4-.3.4 0 .5.3.8.5.5-.1.9-.2 1.4-.2 1.6.1 3.2 0 4.8-.1.2 0 .4 0 .5-.1.8-.3 1.6-.3 2.4-.3 2.7-.1 5.4-.3 8.1-.3.6 0 1.3 0 1.9-.2.2-.1.5-.1.7-.1 1.3 0 2.6-.1 3.9-.1.3 0 .6 0 .9.1.3 0 .7.4.7.7 0 .8.1 1.6.1 2.5 0 .5-.2.9-.7 1.1-.3-.1-.4 0-.7.1zm-23.8 0c.3 0 .6.1 1 .1h8.6c.6 0 1.3 0 1.9-.1.8-.1 1.6-.1 2.5-.2.8 0 1.6-.1 2.5-.2 1.7-.2 3.5-.5 5.2-.6.8 0 1.5-.2 2.2-.5.2-.5.1-.9 0-1.4 0-.2-.4-.5-.6-.5-1.6 0-3.3-.2-4.9.1-.5.1-.9.1-1.4.1-1.6.1-3.2.1-4.8.1-1.6 0-3.2.3-4.7.3h-.3c-.7.3-1.5.2-2.3.3-.7 0-1.4 0-2.1.2-.9.2-1.7.2-2.6.2-.1 0-.2.1-.3.1-.4.4-.3.9-.2 1.3-.1.3 0 .5.3.7z"/>
    <path class="st1" d="M431.7 53.6c.1.6.1 1.3 0 1.9 0 .3-.3.6-.6.6-.8 0-1.5.1-2.3.3-.3.1-.6 0-.9.1-.9.1-1.8.1-2.6.2-.7.1-1.5.1-2.3.1h-3.7c-1.5 0-2.9 0-4.4.2-.9.2-1.9.1-2.8.1-.5 0-1 0-1.4.1-1.1.2-2.2.2-3.3.2h-5.3c-.3 0-.7-.1-1-.1-.1-.2-.2-.3-.2-.5v-2.3c0-.2.3-.6.5-.6.7-.2 1.5-.4 2.3-.4h16.6c.8 0 1.5-.2 2.3-.2.7 0 1.4.2 2.1.2.8 0 1.5-.2 2.3-.2.8 0 1.5 0 2.3-.1.3 0 .7-.2 1-.2.4 0 1 .1 1.4.6zM433.5 1.4c.1.1.2.2.3.2.1.8.3 1.6.4 2.4v.7c0 .1-.2.4-.3.4-.3 0-.6.1-.9.1-1.7 0-3.4.3-5.1.6-1.8.3-3.6.5-5.4.5H417c-.8.1-1.5 0-2.3.1-.8.1-1.5.1-2.3.2-.3 0-.7.1-1 .2-.6.1-1.1.2-1.7.1-.1-.1-.2-.2-.2-.3-.1-.5-.2-.9-.4-1.4-.1-.3-.2-.7-.3-1-.2-.6.1-1.1.7-1.1.7-.1 1.4-.2 2.1-.1.9 0 1.8 0 2.6-.2.1 0 .2-.1.3-.1 1.7 0 3.4-.3 5.1-.5 1.5-.1 3.1-.2 4.6-.4 1.3-.2 2.6-.2 3.9-.3.9 0 1.8-.1 2.6-.3 1 0 1.9.1 2.8.2z"/>
    <path class="st2" d="M440.3 31.7c-.3-.2-.4-.3-.4-.6 0-.5-.1-.9.2-1.3.1 0 .2-.1.3-.1.9 0 1.8 0 2.6-.2.7-.1 1.4-.1 2.1-.2.8 0 1.5 0 2.3-.3h.3c1.6 0 3.2-.3 4.7-.3 1.6 0 3.2-.1 4.8-.1.5 0 .9-.1 1.4-.1 1.6-.3 3.3-.2 4.9-.1.3 0 .6.3.6.5.1.5.2.9 0 1.4-.7.4-1.4.5-2.2.5-1.8.1-3.5.4-5.2.6-.8.1-1.6.2-2.5.2-.8 0-1.6 0-2.5.2-.6.1-1.3.1-1.9.1h-8.6c-.3-.2-.6-.2-.9-.2z"/>
    <path class="st0" d="M.4 169.1c-.6-1.2-.2-2.5-.4-3.7.1-.2.2-.4.2-.5.1-.2.2-.4.3-.7.1-.2.1-.3.2-.5.2-.1.3-.2.4-.2.6-.1 1.2-.2 1.9-.2 1-.1 2-.1 3.1-.2 4.5 0 9 .1 13.4 0h4.7c1.7 0 3.3 0 4.9-.2.7-.1 1.4 0 2.1-.1 2.4 0 4.9-.1 7.3-.1.6 0 1.3 0 1.9-.1 1.1-.2 2-.1 3 .2.1 0 .1.1.2.1.3.2.4.5.7.8.1.9 0 1.8-.1 2.8 0 .3-.3.7-.4.9-.3.2-.6.4-.9.4-2.1.1-4.2.4-6.3.5-2.6.2-5.2.2-7.8.2h-1.6c-1.6 0-3.3 0-4.9.2-4.5.2-8.9.6-13.4.5H8c-2.3.2-4.5 0-6.8-.1-.3.2-.5 0-.8 0zm42.5-4.8c-.5-.6-1.3-.6-2.1-.6-.5 0-.9.2-1.4.2-1 .1-2 .1-3.1.1-1 0-2 .2-3 .2s-1.9-.2-2.8-.2c-1 0-2 .2-3 .2H5.4c-1 0-2 .2-3 .4-.3.1-.7.4-.7.6 0 .8 0 1.5.1 2.3 0 .2.2.3.3.5.5 0 .9.1 1.4.1h7.1c1.5 0 3 0 4.5-.2.6-.1 1.3-.1 1.9-.1 1.3 0 2.5 0 3.8-.1 2-.2 3.9-.2 5.9-.2h5c1 0 2.1 0 3.1-.1 1.2-.2 2.3-.2 3.5-.2.4 0 .8 0 1.2-.1 1-.2 2-.3 3-.3.3 0 .7-.3.8-.6-.3-.7-.3-1.3-.4-1.9zM54.7 196.8h-.8c-.9.1-1.9 0-2.8.3-1.6.1-3.1.4-4.7.6-1.8.2-3.5.2-5.3.3h-7.9c-.6 0-1.3 0-1.9.1-.4 0-.8.1-1.2.2-.2-.1-.4-.2-.6-.4 0-.1-.1-.2-.1-.3 0-1.3 0-2.7.1-4.1.2-.1.3-.2.4-.3.4 0 .5.3.8.5.5-.1.9-.2 1.4-.2 1.6.1 3.2 0 4.8-.1.2 0 .4 0 .5-.1.8-.3 1.6-.3 2.4-.3 2.7-.1 5.4-.3 8.1-.3.6 0 1.3 0 1.9-.2.2-.1.5-.1.7-.1 1.3 0 2.6-.1 3.9-.1.3 0 .6 0 .9.1.3 0 .7.4.7.7 0 .8.1 1.6.1 2.5 0 .5-.2.9-.7 1.1-.3-.1-.5 0-.7.1zm-23.9 0c.3 0 .6.1 1 .1h8.6c.6 0 1.3 0 1.9-.1.8-.1 1.6-.1 2.5-.2.8 0 1.6-.1 2.5-.2 1.7-.2 3.5-.5 5.2-.6.8 0 1.5-.2 2.2-.5.2-.5.1-.9 0-1.4 0-.2-.4-.5-.6-.5-1.6 0-3.3-.2-4.9.1-.5.1-.9.1-1.4.1-1.6.1-3.2.1-4.8.1-1.6 0-3.2.3-4.7.3H38c-.7.3-1.5.2-2.3.3-.7 0-1.4 0-2.1.2-.9.2-1.7.2-2.6.2-.1 0-.2.1-.3.1-.4.4-.3.9-.2 1.3-.1.3 0 .5.3.7z"/>
    <path class="st2" d="M30.8 196.8c-.3-.2-.4-.3-.4-.6 0-.5-.1-.9.2-1.3.1 0 .2-.1.3-.1.9 0 1.8 0 2.6-.2.7-.1 1.4-.1 2.1-.2.8 0 1.5 0 2.3-.3h.3c1.6 0 3.2-.3 4.7-.3 1.6 0 3.2-.1 4.8-.1.5 0 .9-.1 1.4-.1 1.6-.3 3.3-.2 4.9-.1.3 0 .6.3.6.5.1.5.2.9 0 1.4-.7.4-1.4.5-2.2.5-1.8.1-3.5.4-5.2.6-.8.1-1.6.2-2.5.2-.8 0-1.6 0-2.5.2-.6.1-1.3.1-1.9.1h-8.6c-.2-.2-.6-.2-.9-.2zM42.8 164.1c.1.7.1 1.4 0 2.1-.1.3-.5.6-.8.6-1 0-2 .1-3 .3-.4.1-.8.1-1.2.1-1.2.1-2.3.1-3.5.3-1 .2-2 .1-3.1.1h-5c-2 0-3.9 0-5.9.3-1.2.2-2.5.1-3.8.2-.6 0-1.3 0-1.9.1-1.5.2-3 .2-4.5.2H3c-.5 0-.9-.1-1.4-.1-.1-.2-.3-.4-.3-.5 0-.8-.1-1.7-.1-2.5 0-.3.4-.6.7-.7 1-.2 2-.4 3-.4 2 0 4.1 0 6.1-.1h16c1 0 2-.2 3-.2.9 0 1.9.2 2.8.2 1 0 2-.3 3-.3s2 0 3.1-.1c.5 0 .9-.2 1.4-.2 1.2-.1 2 0 2.5.6z"/>
    <path class="st0" d="M120.1 65.5c-.5.1-.9.1-1.3.1-.6.1-1.3.2-1.9.2-.9 0-1.9 0-2.8.2-.4.1-.8.1-1.2 0-2.9-.3-5.8-.2-8.6-.2h-1.1c-.6 0-1.2 0-1.8.1-.3.1-.6.1-.9.1-1.5 0-2.9.1-4.4.1-2.4 0-4.7.1-7.1.1h-7.1c-1.6.3-3.3.2-4.9.3-1.4 0-2.7.1-4.1.1-.2 0-.5.1-.7.1-.5 0-.9.1-1.4.1-1.8-.1-3.6.1-5.5.1-.8 0-1.6 0-2.5.2-.5.1-.9.1-1.4.1h-2.7c-1.1 0-2.2 0-3.3.2-.2 0-.4.1-.5 0-1.4-.1-2.7.1-4.1.1-2.4 0-4.7.1-7.1 0-1.8-.1-3.7 0-5.5 0-1.6 0-3.2 0-4.8-.1-.9-.1-1.8-.1-2.6-.1h-6.4c-2 .3-4.1.2-6.2.3-1.9.1-3.9.3-5.8.4-.9 0-1.9 0-2.8.2-1.1.1-1.1.1-3-.3-.4-.3-.5-.8-.5-1.3v-.5c.1-.3.2-.7.1-1-.1-.3-.1-.6-.1-.7.1-.9.2-1.7.3-2.6.1-.1.1-.2.2-.2.1-.1.2-.1.3-.1h.2c1.1.6 2.2.6 3.4.4.3-.1.6-.1.9-.1 1.9-.1 3.9-.4 5.8-.4 1 0 2-.1 3-.2.9-.1 1.8-.1 2.6-.1 2.8 0 5.5 0 8.3-.1.8 0 1.5 0 2.3-.2.3-.1.7-.1 1.1-.1h13.6c1.5 0 3 0 4.4.1 1.5.1 2.9.2 4.4.3 1.1.3 2.2.2 3.3.3 1.1.1 2.1.1 3.2.1.5 0 1.1.1 1.6.1.2 0 .4.1.5 0 .9-.2 1.9-.1 2.8.1h.2c.8-.1 1.6 0 2.5 0h5c.2 0 .5 0 .7-.1.8-.2 1.5-.1 2.3-.1 2.5 0 5.1 0 7.6-.1.8 0 1.5 0 2.3-.2.2-.1.5-.1.7-.1 2.2-.1 4.4-.5 6.7-.5h.4c2.9-.4 5.8-.3 8.6-.3 1.1 0 2.1 0 3.2.1.8 0 1.6.2 2.5.2 3.2.2 6.4.1 9.5 0h.9c.1.2.3.3.3.4.1.2.1.3.1.5V65c0 .2-.1.5-.2.7-.1.3-.6.5-.9.3-.1-.1-.3-.3-.6-.5zM7.7 66.6c.2.1.3.2.4.3.2 0 .5.1.7.1 2.2-.1 4.4.1 6.5-.3.6-.1 1.2-.1 1.8-.1h2.8c.9 0 1.9 0 2.8-.2.3-.1.6-.1.9 0 .6.1 1.3.1 1.9 0 .3-.1.6 0 .9 0h4.1c2.8 0 5.7-.1 8.5.2h.7c.5 0 .9-.1 1.4 0 1.8.2 3.5.1 5.3.1 2.5 0 5.1 0 7.6-.1h.7c1.5-.2 3.1-.2 4.6-.3 1.2 0 2.4 0 3.5-.2.3-.1.7 0 1.1-.1 1.2 0 2.5 0 3.7-.1 1.2-.1 2.5 0 3.7 0 .5 0 1.1 0 1.6-.1 1-.2 2-.2 3-.2.9-.1 1.8-.2 2.6-.2 1.2 0 2.3-.2 3.5-.2 1.7 0 3.4-.1 5.1 0h1.2c2.6 0 5.2-.1 7.8-.1.4 0 .7 0 1.1-.1.6-.2 1.3-.1 1.9-.1.7 0 1.4 0 2.1-.1 1.9 0 3.9-.1 5.8 0 3 .1 6 0 9 0 .6 0 1.2 0 1.8-.1.5-.1 1-.1 1.6-.2.3 0 .7-.1 1-.1.1-.2.2-.3.3-.5.1-.5.1-.9 0-1.4-.1-.3-.2-.6-.5-.7-.4-.2-.9-.1-1.4 0-.4.1-.8.2-1.2.1-.5-.1-.9 0-1.4 0-.5.1-1.1 0-1.6 0-1-.1-2-.2-3-.2-.9 0-1.8-.1-2.6-.1-.9 0-1.7-.2-2.6-.1h-.3c-2-.3-4-.2-6-.1-.2 0-.4 0-.5.1-.7.2-1.4.1-2.1.2-1.8.1-3.5.1-5.3.4-.3 0-.6 0-.9.1-.4 0-.7.1-1.1.1-.5.1-1 .1-1.6.2-1 .1-2 .1-3 .1s-2 .2-3 .1c-.2 0-.4 0-.5.1-.4.1-.7.1-1 0-.2 0-.5-.1-.7 0-.5.1-.9.1-1.4.1-3.5.1-7.1.1-10.6 0-1.1 0-2.2.1-3.3-.1-1 .1-2-.1-3-.1-2.2 0-4.5 0-6.7-.3-.4-.1-.8-.1-1.2-.1-.7 0-1.4-.1-2.1-.2-.8-.1-1.6-.1-2.5-.1h-9c-1.5 0-2.9.2-4.4.1-.8 0-1.6.1-2.5.1-1.6 0-3.3 0-4.9.1-.6 0-1.3 0-1.9.1-1.5.2-2.9.2-4.4.2h-3.2c-1.2 0-2.5 0-3.7.3h-.5c-1.4 0-2.7.1-4 .3-.7-.2-1.3-.2-1.8-.2H8.2c-.3 0-.6.3-.6.5 0 1.1 0 2.1.1 3.1z"/>
    <path class="st2" d="M7.7 66.6c-.1-1.1-.2-2.1-.1-3.1 0-.3.3-.5.6-.5h1.1c.5 0 1.1 0 1.6-.1 1.3-.2 2.7-.3 4-.3h.5c1.2-.3 2.5-.2 3.7-.3h3.2c1.5 0 2.9 0 4.4-.2.7-.1 1.3-.1 2-.1 1.6 0 3.3 0 4.9-.1.8 0 1.6-.2 2.5-.1 1.5.1 2.9-.1 4.4-.1h9c.8 0 1.7 0 2.5.1.7.1 1.4.1 2.1.2.4 0 .8 0 1.2.1 2.2.3 4.5.3 6.7.3 1 0 2 .2 3 .1 1.1.2 2.2.1 3.3.1 3.5 0 7.1.1 10.6 0 .5 0 .9 0 1.4-.1.2-.1.5 0 .7 0 .4.1.7.1 1 0 .2 0 .4-.1.5-.1 1 .1 2-.1 3-.1s2 0 3-.1c.5 0 1.1-.1 1.6-.2.4 0 .7-.1 1.1-.1.3 0 .6 0 .9-.1 1.7-.3 3.5-.3 5.3-.4.7 0 1.4 0 2.1-.2.2 0 .4 0 .5-.1 2-.1 4-.2 6 .1.1 0 .2.1.3 0 .9-.1 1.8.1 2.6.1.9 0 1.8.1 2.6.1 1 0 2 0 3 .2.5.1 1.1.1 1.6 0 .5 0 .9-.1 1.4 0 .4.1.8 0 1.2-.1.5-.1.9-.1 1.4 0 .3.2.4.5.5.7.1.5.1.9 0 1.4 0 .2-.2.3-.3.5-.3 0-.7.1-1 .1-.5 0-1.1.1-1.6.2-.6.1-1.2.1-1.8.1-3 0-6 .1-9 0h-5.8c-.7 0-1.4.1-2.1.1-.6 0-1.3 0-1.9.1-.3.1-.7.1-1.1.1-2.6 0-5.2.1-7.8.1H87c-1.7-.1-3.4 0-5.1 0-1.2 0-2.3.1-3.5.2-.9 0-1.8.1-2.6.2-1 .1-2 0-3 .2-.5.1-1.1.1-1.6.1-1.2 0-2.5-.1-3.7 0-1.2.1-2.5.1-3.7.1-.4 0-.7 0-1.1.1-1.2.2-2.3.2-3.5.2-1.5.1-3.1.1-4.6.3h-.7c-2.5 0-5.1.1-7.6.1-1.8 0-3.5.1-5.3-.1-.5-.1-.9 0-1.4 0h-.7c-2.8-.3-5.6-.2-8.5-.2h-4.1c-.3 0-.6-.1-.9 0-.6.1-1.3.1-1.9 0h-.9c-.9.2-1.9.2-2.8.2H17c-.6 0-1.2 0-1.8.1-2.2.4-4.3.2-6.5.3-.2 0-.5 0-.7-.1 0 .3-.1.2-.3 0z"/>
    <path class="st0" d="M408.9 82.8c-.2.1-.4.1-.5.1-.3.1-.5.2-.8.2-.4 0-.8 0-1.2.2-.2.1-.3.1-.5 0-1.2-.3-2.4-.2-3.6-.2h-.4c-.2 0-.5 0-.7.1-.1.1-.2.1-.4.1-.6 0-1.2.1-1.8.1-1 0-2 .1-3 .1h-2.9c-.7.3-1.4.2-2.1.3-.6 0-1.1.1-1.7.1-.1 0-.2.1-.3.1-.2 0-.4.1-.6.1-.8-.1-1.5.1-2.3.1-.3 0-.7 0-1 .2-.2.1-.4.1-.6.1h-1.1c-.5 0-.9 0-1.4.2-.1 0-.1.1-.2 0-.6-.1-1.1.1-1.7.1-1 0-2 .1-2.9 0-.8-.1-1.5 0-2.3 0-.7 0-1.3 0-2-.1-.4-.1-.7-.1-1.1-.1h-2.7c-.9.3-1.7.2-2.6.3-.8.1-1.6.3-2.4.4-.4 0-.8 0-1.2.2-.5.1-.5.1-1.2-.3-.2-.3-.2-.8-.2-1.3v-.5c0-.3.1-.7.1-1 0-.3 0-.6-.1-.7.1-.9.1-1.7.1-2.6 0-.1.1-.2.1-.2 0-.1.1-.1.1-.1h.1c.5.6.9.6 1.4.4.1-.1.2-.1.4-.1.8-.1 1.6-.4 2.4-.4.4 0 .8-.1 1.2-.2.4-.1.7-.1 1.1-.1 1.2 0 2.3 0 3.5-.1.3 0 .6 0 1-.2.1-.1.3-.1.4-.1H379c.6 0 1.2 0 1.8.1l1.8.3c.5.3.9.2 1.4.3.4.1.9.1 1.3.1.2 0 .4.1.7.1.1 0 .1.1.2 0 .4-.2.8-.1 1.2.1h.1c.3-.1.7 0 1 0h2c.1 0 .2 0 .3-.1.3-.2.6-.1 1-.1 1.1 0 2.1 0 3.2-.1.3 0 .6 0 1-.2.1-.1.2-.1.3-.1.9-.1 1.9-.5 2.8-.5h.1c1.2-.4 2.4-.3 3.6-.3.4 0 .9 0 1.3.1.3 0 .7.2 1 .2 1.3.2 2.7.1 4 0h.4c.1.2.1.3.1.4v4c0 .2 0 .5-.1.7-.1.3-.3.5-.4.3 0-.2-.1-.3-.2-.5zM362 83.9c.1.1.1.2.2.3.1.1.2.1.3.1.9-.1 1.8.1 2.7-.3.2-.1.5-.1.7-.1h1.2c.4 0 .8 0 1.2-.2.1-.1.2-.1.4 0 .3.1.5.1.8 0 .1-.1.2 0 .4 0h1.7c1.2 0 2.4-.1 3.5.2h.3c.2 0 .4-.1.6 0 .7.2 1.5.1 2.2.1 1.1 0 2.1 0 3.2-.1h.3c.6-.2 1.3-.2 1.9-.3.5 0 1 0 1.5-.2.1-.1.3 0 .4-.1.5 0 1 0 1.5-.1s1 0 1.5 0c.2 0 .4 0 .7-.1.4-.2.8-.2 1.2-.2.4-.1.7-.2 1.1-.2.5 0 1-.2 1.5-.2.7 0 1.4-.1 2.1 0h.5c1.1 0 2.2-.1 3.2-.1.1 0 .3 0 .4-.1.3-.2.5-.1.8-.1.3 0 .6 0 .9-.1.8 0 1.6-.1 2.4 0 1.3.1 2.5 0 3.8 0 .2 0 .5 0 .7-.1.2-.1.4-.1.7-.2.1 0 .3-.1.4-.1 0-.2.1-.3.1-.5.1-.5 0-.9 0-1.4 0-.3-.1-.6-.2-.7-.2-.2-.4-.1-.6 0-.2.1-.3.2-.5.1s-.4 0-.6 0c-.2.1-.4 0-.7 0-.4-.1-.8-.2-1.3-.2-.4 0-.7-.1-1.1-.1-.4 0-.7-.2-1.1-.1h-.1c-.8-.3-1.7-.2-2.5-.1-.1 0-.1 0-.2.1-.3.2-.6.1-.9.2-.7.1-1.5.1-2.2.4-.1 0-.2 0-.4.1-.1 0-.3.1-.4.1-.2.1-.4.1-.7.2-.4.1-.8.1-1.3.1-.4 0-.8.2-1.2.1-.1 0-.1 0-.2.1s-.3.1-.4 0c-.1 0-.2-.1-.3 0-.2.1-.4.1-.6.1-1.5.1-3 .1-4.4 0-.5 0-.9.1-1.4-.1-.4.1-.8-.1-1.2-.1-.9 0-1.9 0-2.8-.3-.2-.1-.3-.1-.5-.1-.3 0-.6-.1-.9-.2-.3-.1-.7-.1-1-.1h-3.7c-.6 0-1.2.2-1.8.1-.3 0-.7.1-1 .1-.7 0-1.4 0-2.1.1-.3 0-.5 0-.8.1-.6.2-1.2.2-1.8.2h-1.3c-.5 0-1 0-1.5.3h-.2c-.6 0-1.1.1-1.7.3-.2.1-.4.1-.7.1h-.4c-.1 0-.2.3-.2.5-.2.8-.2 1.7-.1 2.8z"/>
    <path class="st2" d="M362 83.9c-.1-1.1-.1-2.1 0-3.1 0-.3.1-.5.2-.5h.4c.2 0 .4 0 .7-.1.6-.2 1.1-.3 1.7-.3h.2c.5-.3 1-.2 1.5-.3h1.3c.6 0 1.2 0 1.8-.2.3-.1.5-.1.8-.1.7 0 1.4 0 2.1-.1.3 0 .7-.2 1-.1.6.1 1.2-.1 1.8-.1h3.7c.3 0 .7 0 1 .1.3.1.6.1.9.2.2 0 .3 0 .5.1.9.3 1.9.3 2.8.3.4 0 .8.2 1.2.1.5.2.9.1 1.4.1 1.5 0 3 .1 4.4 0 .2 0 .4 0 .6-.1.1-.1.2 0 .3 0 .1.1.3.1.4 0 .1 0 .1-.1.2-.1.4.1.8-.1 1.2-.1.4 0 .8 0 1.3-.1.2 0 .4-.1.7-.2.1 0 .3-.1.4-.1.1 0 .2 0 .4-.1.7-.3 1.5-.3 2.2-.4.3 0 .6 0 .9-.2.1 0 .1 0 .2-.1.8-.1 1.7-.2 2.5.1 0 0 .1.1.1 0 .4-.1.7.1 1.1.1.4 0 .7.1 1.1.1.4 0 .8 0 1.3.2.2.1.4.1.7 0 .2 0 .4-.1.6 0 .2.1.3 0 .5-.1s.4-.1.6 0c.1.2.2.5.2.7 0 .5.1.9 0 1.4 0 .2-.1.3-.1.5-.1 0-.3.1-.4.1-.2 0-.4.1-.7.2-.2.1-.5.1-.7.1-1.3 0-2.5.1-3.8 0h-2.4c-.3 0-.6.1-.9.1-.3 0-.5 0-.8.1-.1.1-.3.1-.4.1-1.1 0-2.2.1-3.2.1h-.5c-.7-.1-1.4 0-2.1 0-.5 0-1 .1-1.5.2-.4 0-.7.1-1.1.2-.4.1-.8 0-1.2.2-.2.1-.4.1-.7.1-.5 0-1-.1-1.5 0s-1 .1-1.5.1c-.1 0-.3 0-.4.1-.5.2-1 .2-1.5.2-.6.1-1.3.1-1.9.3h-.3c-1.1 0-2.1.1-3.2.1-.7 0-1.5.1-2.2-.1-.2-.1-.4 0-.6 0h-.3c-1.2-.3-2.4-.2-3.5-.2h-1.7c-.1 0-.3-.1-.4 0-.3.1-.5.1-.8 0h-.4c-.4.2-.8.2-1.2.2h-1.2c-.2 0-.5 0-.7.1-.9.4-1.8.2-2.7.3-.1 0-.2 0-.3-.1 0 .2 0 .2-.1 0z"/>
    <path class="st0" d="m139.9 112 1.2-.3c1-.4 2.2-.4 3.2-.8.2-.1.5-.1.8-.1.6 0 1 .2 1.2.8.2.5.3 1 .3 1.5 0 1.4.2 2.7 0 4.1 0 .2.1.4.2.6 1.3-.2 2.6-.2 3.9-.2 3.6 0 7.2 0 10.7-.1.9 0 1.8-.1 2.7-.1.3-.3.3-.6.4-.9 0-.5.1-.9 0-1.4-.2-1.1-.1-2.3-.5-3.5 0-.1-.1-.3 0-.4.1-.8 0-1.7 0-2.5-.1-.8 0-1.6-.1-2.3-.1-1 .3-1.9.6-2.8.1-.5.5-.9.7-1.2.4-.3.7-.4 1-.4.9 0 1.8 0 2.8.1.2.1.4.1.7.2 1.1.6 2.3.8 3.6.8h6.8c.4 0 .8 0 1.2-.1.5-.1.9-.1 1.4 0 .5.1 1 .1 1.5 0 .6-.1 1.3-.1 1.9-.2 2.5 0 4.9-.1 7.4-.1.9 0 1.8.1 2.7.1h7c1.6 0 3.2.1 4.9 0 .5 0 .9 0 1.4.1 1.2.2 2.3.3 3.5.3.3 0 .5 0 .8.1 1 .3 1.9.2 2.9.2 1.2 0 2.5.1 3.7.1.3 0 .6.1 1 .1 1.6.2 3.1.4 4.6-.1.2-.1.5-.1.8 0 .2 0 .4.2.5.3.4.5.4 1.1.7 1.6.2 1.7-.2 3.2-.9 4.7-.7 1.3-.9 2.7-1.3 4.1-.2.6-.3 1.3-.4 1.9 0 .3-.1.5.1.8.1 0 .2.1.3.1.5 0 .9.1 1.4 0 1.4-.2 2.7-.2 4.1-.2 1.6-.1 3.2 0 4.9-.3 1-.2 2.1-.1 3.1.1.8.1 1.7.2 2.5.2.5 0 .9-.3 1-.8.1-.4.1-.9.2-1.3.4-1.1.3-2.2.3-3.3v-4.1c.2-.4.5-.8.7-1.2-.2-.9-.4-1.8-.6-2.6 0-.2.1-.2.1-.3.3-.6.8-1 1.2-1.5.9-.3 1.8-.2 2.6.2 1 .5 2.1 1 3.2 1.4 1.2.5 2.5.7 3.8.9.6.1 1.2.1 1.7 0 .4-.1.8-.2 1.2-.2 1.7-.1 3.3-.4 5-.7.4-.1.9-.1 1.4-.1h3.7c.3 0 .5 0 .8.1 1.2.3 2.4.3 3.6.7.4.1.9.2 1.3.3 1 0 1.9.4 2.9.5 1 .1 1.9.4 2.8.6 2.2.5 4.3.9 6.5 1h1.9c1.1 0 2.2 0 3.3.2.9.2 1.8.3 2.7.4h1.2c2 0 4 .1 6 .1.5 0 1 .1 1.5.2 1.3.2 2.6.3 3.9 0 1.1-.2 1.4-.2 2.5 0 .5.3.8.8 1.2 1.3.3.8.1 1.6-.1 2.3-.2.7-.5 1.4-.8 2-.2.4-.4.8-.7 1.2-.8 1.5-1 3.2-1.1 4.9.2.1.4.3.6.3.8.1 1.6.3 2.5.3.8-.1 1.7.1 2.5.1 2.8 0 5.6.1 8.4.1h.8c.6.2 1.3.1 1.9.1.6 0 1.2.1 1.7.1.1 0 .3 0 .4-.1.3-.1.4-.3.4-.6.1-.5.2-1 .1-1.5-.2-.6-.1-1.3 0-1.9.1-.6 0-1.3.2-1.9.4-1.6.4-3.2.4-4.8.2-.6.7-1 1.2-1.3l1.5-.9c1.6-.3 3.2-.1 4.7.4.7.2 1.5.5 2.2.8 1.1.4 2.3.7 3.4.7 1.4 0 2.7.3 4 .6.5.1 1 .2 1.5.2 1.6 0 3.3.1 4.9.1 1.1 0 2.1.2 3.1.4.5.1 1 .4 1.4.7.4.3.8.7 1.1 1.1.9.9 1.9 1.5 3.1 2 .4.2.9.3 1.3.3 2.4.3 4.7.7 7 1.6 1.4.5 2.9.8 4.4.8h1.6c1.8 0 3.5.4 5.1 1.2l2.1.9c1.4.6 3 1 4.5 1h8.5c1.3 0 2.6 0 3.9.3.5.1 1 .1 1.5.2.8.1 1 .6 1 1.2s0 1.2-.1 1.7c-.3 1.4-.7 2.9-1.2 4.3-.6 1.6-1.4 3.1-2.5 4.4-.3.4-.6.9-.8 1.3-.1.1 0 .2-.1.4.2.1.4.2.5.2 2.3 0 4.7 0 7-.2s4.5-.3 6.9-.1c.2.1.5.3.7.5.6.6 1.3 1.1 1.9 1.6 1 .8 1.9 1.8 2.7 2.8l1.2 1.5c.7.9 1.3 1.8 2 2.7.6.8 1.1 1.6 1.5 2.5.8 1.6 1.7 3.2 2.5 4.9.2.5.4.9.7 1.4.2.5.5.9.7 1.4.4.7.8 1.5 1.3 2.2l1.5 2.1c.5.6.9 1.2 1.4 1.9.8 1.2 1.6 2.3 2.4 3.5.6.9 1.1 1.9 1.7 2.8.6.9 1.1 1.7 1.7 2.6.5.8 1 1.5 1.5 2.3.5.8 1.1 1.6 1.7 2.4.3.5.7.9 1 1.4.5.8 1.1 1.5 1.8 2.1.6 1.5 1.1 3 1.5 4.6.1.3.1.6.1 1 0 1.8 0 3.5-.2 5.3-.1.8-.2 1.7-.2 2.5 0 2.3 0 4.7.1 7 .2 3.1.2 6.2.3 9.4v4.1c0 1.4-.1 2.7-.3 4.1-.1.7-.1 1.4-.2 2.1 0 .8 0 1.6-.1 2.3-.3 2.5-.3 4.9-.3 7.4v3.7c0 .8-.2 1.7-.1 2.5-.3 2.2-.2 4.4-.2 6.6 0 .9 0 1.8-.2 2.7-.1.4 0 .8-.1 1.2-.1 1.5 0 3-.4 4.5-.1.4-.1.9-.1 1.4 0 .6-.1 1.2-.3 1.7-.3 1.2-1 2.3-2.1 2.9-.2.1-.3.2-.5.4-.5.7-.5 1.5-.5 2.3l1.4 1.4c.4.4.5.9.5 1.4 0 1.7 0 3.4-.2 5.1-.1 1.2-.1 2.5-.3 3.7-.2 1-.4 1.9-.5 2.9-.2 1.2-.4 2.4-.6 3.7-.1.9-.4 1.6-.7 2.4-.1.3-.3.6-.6.8-.3.3-.7.6-1 .8-.9.3-1.7.4-2.6.4-1.4 0-2.7 0-4.1.1-1.9.1-3.8.1-5.6.3-1.7.2-3.4.1-5.1.2-1 0-2 0-2.9.1h-.4c-1.3.2-2.6.2-3.9.4l-2.7.3c-.6 0-1.3 0-1.9.1-1.1.2-2.2.2-3.3.2-1.5 0-3 0-4.5.2-3.1.3-6.1.2-9.2.2h-2.7c-1.8.1-3.6.1-5.4-.2-1 .2-1.9-.2-2.9-.1-1 0-2 0-2.9-.1-1.7-.1-3.5-.2-5.2-.3-1.7-.1-3.4-.1-5.1-.2h-.6c-1.7-.3-3.4-.3-5.1-.3-4.7-.1-9.4 0-14 .1-2 0-3.9 0-5.9-.1-.7 0-1.4-.1-2.1-.2-.4-.1-.8-.1-1.2-.1-1.4 0-2.7-.1-4.1-.3-.7-.1-1.4-.1-2.1-.1-1.6 0-3.3 0-4.9-.1-.7 0-1.3 0-1.9-.2-.4-.1-.8-.1-1.2-.1-3 0-6-.1-9-.1-2.3 0-4.7-.1-7-.1-.5 0-1-.1-1.6-.1-.6-.1-1.2-.1-1.7-.2-1.6-.2-3.2-.3-4.8-.5-.5-.1-1-.1-1.5-.1-2-.1-4-.1-6-.2-2.3-.4-4.5-.2-6.8-.3-1.5-.1-3 0-4.5-.1-.7 0-1.4 0-2.1-.2-.3-.1-.6-.1-1-.1-1.4 0-2.9-.1-4.3-.1-.9 0-1.8 0-2.7-.2-.3-.1-.6-.1-1-.1-1.1 0-2.2-.1-3.3-.1-1 0-1.9-.1-2.9-.2-1.4-.1-2.9-.1-4.3-.2h-7.8c-1.8 0-3.5-.1-5.2.3H225.6c-1.8 0-3.6.1-5.4.3-1.9.2-3.8.2-5.7.2-.8 0-1.5.1-2.3.2-.9.1-1.8.1-2.7.2-.8 0-1.6 0-2.3.2-.4.1-.9.1-1.4.1h-3.7c-1.2.3-2.5.2-3.7.2h-7c-1.3 0-2.6.1-3.9-.2-1.7 0-3.4-.2-5.1-.2h-10c-.6 0-1.2 0-1.7-.1-.2-.1-.4-.1-.6 0-.8.2-1.6-.1-2.3.1-.6.2-1.3.2-1.9.2h-3.3c-1.7 0-3.4 0-5.1.2-.6.1-1.3.1-1.9.1-1.1 0-2.2 0-3.3.1-.7 0-1.4 0-2.1.2-.4.1-.9.1-1.4.1-1.4.1-2.7.1-4.1.1-.5 0-.9 0-1.4.1-.5.1-.9.1-1.4 0-.4-.1-.8-.1-1.2-.1-1.5.2-3-.1-4.5-.1-.5 0-.9 0-1.4-.1-1.6-.4-3.2-.2-4.9-.3-1 .2-1.9.3-2.9.3-1.7 0-3.4.1-5.1.1h-9.8c-1.1 0-2.2-.1-3.3-.2-.6 0-1.3-.1-1.9-.1-1.9 0-3.8-.1-5.7-.1h-7c-.2 0-.4 0-.6.1-1 .3-2.1.3-3.1.4-.3 0-.6.1-1 .1-1.7.3-3.3.5-5 .5-1.2 0-2.5 0-3.7.1-1.6.1-3.2-.2-4.8-.6-2-.5-4.1-.9-6.1-1.2-.8-.1-1.6 0-2.3 0h-1.2c-1.5-.1-3-.1-4.5.1-1.7.2-3.5.2-5.2-.1-.3-.1-.6-.1-1-.1-1.1 0-2.2-.2-3.3-.4-1.1-.2-1.8-1-2.3-1.9-.1-.2-.2-.5-.2-.7-.5-2.2-1-4.3-1.2-6.5-.3-1.6-.4-3.3-1-5-.3-.8-.4-1.6-.5-2.5-.1-.8-.2-1.5-.3-2.3-.1-.6-.1-1.2-.1-1.7.1-.6.4-1 .7-1.5.4-.4.7-.9 1.1-1.4.2-.2 0-.6-.2-.6-.3 0-.5-.1-.8-.1-.7 0-1.4-.3-2-.6-.2-.1-.3-.3-.4-.4-.1-.4.2-.6.4-.9 0-.1.1-.3 0-.4 0-.5 0-1.1-.1-1.6-.2-1-.2-1.9-.2-2.9v-7.4c0-1.8-.1-3.6-.3-5.4-.1-1.1-.2-2.2-.1-3.3.1-1.6-.1-3.1-.2-4.7 0-.8-.1-1.6-.2-2.3-.1-.6-.1-1.2-.2-1.7s-.1-1-.2-1.6c-.1-1-.1-2.1-.3-3.1-.1-.8-.1-1.6-.1-2.3 0-.7-.1-1.4-.2-2.1-.1-.8-.2-1.7-.2-2.5 0-.7 0-1.4-.1-2.1 0-.4 0-.8-.1-1.2-.3-1.4-.1-2.7-.2-4.1 0-.8.3-1.5.1-2.3.3-1.8.1-3.6.2-5.5.1-1.1 0-2.2.3-3.3.1-.3.1-.6.1-1V185.3c-.4-1.9-.3-3.9-.4-5.8v-1.2c0-.9.4-1.8.2-2.7.2-.7.3-1.5.9-2.3.2-.2.5-.5.8-.7 1.8-1.1 3-2.6 4.1-4.4.2-.3.5-.6.6-1 .8-1.5 2-2.7 3.4-3.7 1-.7 1.9-1.6 2.9-2.3.7-.6 1.4-1.1 2.2-1.7 1.8-1.3 3.5-2.7 5.1-4.2.9-.8 1.9-1.6 2.8-2.5.8-.8 1.7-1.6 2.6-2.4 1-.8 2-1.6 3-2.5.3-.2.5-.4.8-.6.9-1 2.1-1.8 3.1-2.7.3-.3.7-.6 1.1-.8 1-.6 1.8-1.4 2.7-2.2.3-.3.6-.7.9-1.1.6-.5 1.4-.8 1.9-1.5.1-.1.2-.3.3-.6-.4-1.6-.8-3.2-1.2-4.9-.2-.8-.4-1.5-.5-2.3-.1-.4-.1-.8-.1-1.2 0-.3 0-.7-.1-1-.4-1.2-.3-2.4-.6-3.7.2-.5.4-.9.7-1.5-.1-.4-.2-.9-.3-1.4-.1-.4-.1-.8.2-1.2.9-.8 2-1.1 3.2-1.2.8-.1 1.6 0 2.3 0 .4 0 .8.1 1.2.2 1.4.4 2.7.3 4 0 1.3-.3 2.6-.4 3.8-.9 1.3 0 2.4-.5 3.6-.9 1.2-.3 2.4-.7 3.5-1.1 1.2-.4 2.5-.7 3.7-1.1 1.2-.3 2.4-.5 3.7-.5 1.4 0 2.9-.1 4.3 0 .5 0 .9 0 1.4-.1 1.8-.3 3.6-.3 5.4-.3 1.3 0 2.6 0 3.9-.3.5-.1 1-.3 1.5-.4 2.7-.6 5.4-1.4 8.1-2.2.3-.1.5-.2.8-.2 1.2-.1 2.3-.2 3.5-.3.6 0 .9.1 1.3.1zm96.2 99.2c-.3 0-.4.2-.6.4-.1.1-.3.2-.5.3-.4-.2-.7-.5-1-.7-.6-.2-1.1-.4-1.7-.2-1 .3-1.9.1-2.9.2-.2 0-.4 0-.6-.1-1.5-.4-3.1-.6-4.6-.6-1.6 0-3.1 0-4.7-.1-1.2 0-2.5 0-3.7-.2-.4-.1-.9-.1-1.4 0-.7.1-1.4.1-2.1 0-.6-.1-1.2-.1-1.8-.1h-6.8c-3.3 0-6.6-.1-9.9 0-2.1 0-4.3-.1-6.4.3h-.8c-2.6 0-5.2.1-7.8.2-3.2.1-6.4 0-9.6 0-1.9 0-3.9-.2-5.8.3-1.6 0-3.1.2-4.7.4-2.4.2-4.8.2-7.2.1-.7 0-1.3.1-2 .3-.7-.2-1.5-.2-2.2-.2-.8 0-1.7-.1-2.5-.1-2.4-.1-4.8-.4-7.2-.4-.4 0-.9-.1-1.3-.2s-.9-.1-1.4-.1h-16.4c-1.4 0-2.7-.1-4.1-.1-1.4 0-2.9-.1-4.3 0-2.3.1-4.7.1-7 .1-2.8.1-5.6 0-8.4-.1-.3 0-.5 0-.8-.1-1-.2-2.1-.2-3.1-.3-.6 0-1.2-.1-1.7-.1-.7-.1-1.4-.1-2.1-.1-2.5 0-4.9-.1-7.4-.1h-.4l-.3.3c0 .2 0 .4-.1.6v9.2c0 1.7 0 3.4.3 5.1.1.4.1.8.1 1.2.1 1.2 0 2.5.3 3.7v.4c0 2 .1 4 .1 6 0 3.4-.1 6.8-.2 10.1 0 .3 0 .5.1.7.3.4.6.6 1 .7.2.1.4.1.6.1.5.1.8.4.8 1 0 .1 0 .1.1.2 1 .9 2.3 1.2 3.6 1.1 1.4-.1 2.7 0 4.1-.3.3-.1.6-.1 1-.1 1.2-.1 2.3 0 3.5-.3.2-.1.5 0 .8 0 2.3 0 4.7-.1 7-.1.5 0 1 0 1.6-.1.7-.1 1.4-.2 2.1-.2.6 0 1.3-.1 1.9-.2 2.2-.3 4.4-.4 6.6-.5 1.6-.1 3.3-.1 4.9-.1 1.9 0 3.8 0 5.6-.3.4-.1.8-.1 1.2 0 1.6.1 3.1-.1 4.7.2.3.1.6 0 1 0 1.6 0 3.1.1 4.7.1h7.6c1.3-.1 2.6.3 3.9.1h.4c.8.2 1.6.2 2.3.2 1.4.1 2.9 0 4.3.3.4.1.8.1 1.2.1 2.7 0 5.3.1 8 .1.8 0 1.6 0 2.3.1.5.1.9 0 1.4 0 2.4-.1 4.8-.3 7.2.1h.4c2.5 0 5.1.1 7.6.1h6c1 0 2.1 0 3.1-.1 1.1-.1 2.2.1 3.3 0h7.6c3.4.1 6.9 0 10.3 0h13.1c1.3 0 2.6-.1 3.8-.6.9-.5 1.6-1.3 2.5-1.7 1 .2 1.6 1.1 2.5 1.3.1-.2.2-.3.1-.5-.1-.5-.2-1-.2-1.5-.1-.8-.1-1.6-.3-2.3-.1-.3-.1-.5-.1-.8v-4.1c0-.5.1-.9.1-1.4.4-2 .6-4.1.6-6.2 0-1 0-2.1-.1-3.1l-.3-2.7c0-.5-.1-1-.3-1.5-.3-1.2-.6-2.4-.8-3.5.3-2.1 1.2-4.1 1.5-6.1 0-.2.4-.3.6-.2.1.1.2.3.3.5-.2 1-.4 1.9-.7 2.8-.2.7-.3 1.4-.5 2.1-.2.6-.2 1.2 0 1.7.3.7.3 1.5.6 2.3.3 1 .5 2 .5 3.1 0 1.8.1 3.5.1 5.3 0 1.8.1 3.5-.4 5.2 0 .2-.1.4-.1.6-.1 1.8-.1 3.6 0 5.5.1 1.4.3 2.7.5 4.1 0 .3.2.6.3.9.5.3.9.6 1.4.8.1.1.2.1.4.1.6 0 .8.6 1 .7 1 .4 1.7.4 2.4.4 2.7 0 5.3.1 8 .1 1.2 0 2.5.1 3.7.1h4.7c.6 0 1.2 0 1.8.1.6 0 1.3.1 1.9.1 2.5 0 5.1.1 7.6.1.7 0 1.4 0 2.1.1 1.2.2 2.5.2 3.7.3.5 0 1.1 0 1.6.1 1.1.2 2.2.2 3.3.3h2.9c2.6 0 5.2.4 7.8.5 1.1.2 2.2.2 3.3.3.3 0 .7 0 1 .1.8.2 1.5.2 2.3.2 1 0 2.1.1 3.1.1 1.1.1 2.2.3 3.3.1h.2c1.3.3 2.6.2 3.9.2h5.3c2 0 4 .4 6 .6 1.4.2 2.8.4 4.3.5 2.6.1 5.2.1 7.8.1 1 0 2 0 2.9.1.9.1 1.8.2 2.7.2h3.5c2-.1 4 .1 6-.2h.8c1.3 0 2.6 0 3.9-.1 1.6 0 3.3 0 4.9-.2 1.3-.1 2.6-.1 3.9-.2 1.8 0 3.5 0 5.3-.1 1.1 0 2.2 0 3.3-.3.4-.1.8-.1 1.2-.1 1.8-.1 3.5-.1 5.3-.1.6 0 1.3 0 1.9-.1.4-.1.8-.1 1.2-.1 1.3-.1 2.6-.1 3.9-.2 1.4-.1 2.7-.2 4.1-.3 1.1-.1 2.2-.1 3.3-.3.3-.1.6-.1 1-.1 1.5 0 3-.1 4.5-.1.5 0 1 0 1.6-.1 1.1-.2 2.2-.2 3.3-.2.5 0 1 0 1.6-.1.7-.1 1.4-.2 2.1-.5.3-.2.7-.4.9-.5.8 0 1.5-.1 2.2-.1.4-.2.7-.6.7-1 .1-.4.1-.9.1-1.4 0-.8 0-1.7.1-2.5 0-.4.1-.8.1-1.2.6-2.5.7-5 .7-7.6v-4.7c0-.6 0-1.2.1-1.8.4-2.4.3-4.8.3-7.2 0-3.2-.1-6.4-.1-9.6 0-1.6-.1-3.1-.1-4.7 0-.3-.1-.6-.4-.9-.5-.2-1.1-.1-1.6-.5-1.6-2.3-1.6-2.3-2.6-4.5l-.6-1.2c-.4-.8-.8-1.7-1.2-2.5-.8-1.4-1.7-2.8-2.9-3.9-.9-.9-1.6-1.9-2.2-2.9-.7-1.3-1.7-2.4-2.8-3.5-1.1-1-2.2-2.1-3.1-3.3-.6-.8-1.4-1.5-2.4-2-1.3-.6-2.4-1.5-3.3-2.7-.1-.1-.2-.2-.2-.3-.3-.4-.7-.6-1.1-.7-1-.2-2-.5-3-.8-1.4-.4-2.9-.6-4.4-.3-1 .2-2.1.2-3.1 0-1.2-.2-2.3-.2-3.6-.4-.6-.3-1.2-.6-1.8-1-.5-.2-.9-.4-1.5-.5-.8-.2-1.6-.4-2.5-.5-.8-.4-1.8-.3-2.7-.5-1-.3-1.9 0-2.9 0-.5 0-1 0-1.5.1-2.3.3-4.5 0-6.7-.9-.5-.2-1-.4-1.5-.5-1-.2-1.9-.3-2.9-.4-.5 0-.9-.1-1.3-.3-.5-.2-1-.3-1.5-.5-.7-.2-1.5-.4-2.3-.4h-6.4c-1.4 0-2.9 0-4.3-.4-.2-.1-.5-.1-.8-.1-1.1-.2-2.2-.3-3.3-.5-1-.2-2-.4-3-.7-1.1-.3-2.2-.3-3.2-.6-.3-.1-.6-.1-1-.1-.6 0-1.2-.1-1.8 0-1 0-1.9-.4-2.9-.4-.2 0-.5-.1-.8-.2-.2-.1-.5-.2-.8-.3-.1-.2-.3-.4-.3-.7-.1-.6-.1-1.2.2-1.7.2-.4.3-.7.5-1-.2-.3-.5-.2-.7-.2-1.2 0-2.5 0-3.7-.2-1-.2-2.1-.2-3.1-.2h-3.3c-.2 0-.4.1-.6.2 0 .2.1.4.1.6.1.4.2.9.2 1.3-.1 1-.3 1.9-1.3 2.4-.7.1-1.3.2-2 .3-.5.1-1 .1-1.5 0-1.6-.4-3.2-.7-4.8-.6-.4 0-.8-.1-1.2-.1-.6-.1-1.2-.1-1.7-.2-.7-.1-1.4-.1-2.1-.2-1.1-.1-2.2-.4-3.3-.4-1.1-.4-2.3-.3-3.5-.2-2.1 0-4.3 0-6.4-.3-1.6-.2-3.2-.1-4.8-.6-1.4-.1-2.7-.5-4-.6-.6 0-1.2-.2-1.7-.2-1.7-.1-3.4-.1-5.1-.4-.4-.1-.9-.1-1.4 0-1.7 0-3.4.1-5.1.1-.7 0-1.4 0-2.1.1-1 .2-1.9.2-2.9.2-2.1.1-4.2.1-6.2.1h-1.4c-.3 0-.5-.1-.7-.1-.5-.3-.9-.7-1.1-1.3V164.5c0-.2-.2-.3-.4-.4-.8-.1-1.5.4-2.3 0-.8 0-1.6-.1-2.3-.1-1 0-1.9.1-2.9.3-.1.1-.2.2-.2.3v1.4c0 .3-.2.5-.4.6-.3.2-.7.4-1.1.4-1.1-.2-2.1-.5-3-.9-.2-.1-.4-.1-.5-.2-1.3-.7-2.7-.7-4.2-.7-.5 0-.9.1-1.4.2-2.1.3-4.1.6-6.2.5-.6 0-1.2 0-1.7-.1-.2-.1-.5-.1-.8-.1-1.9 0-3.8-.1-5.7-.1-3.2.1-6.4 0-9.6 0-.7 0-1.4 0-2.1-.3-.2-.1-.5-.1-.8-.1-1.9 0-3.7-.4-5.5-.7-.8.1-1.4.2-2.1.2h-4.1c-.5 0-1 0-1.5-.2-.6-.1-1.1-.2-1.7-.2-.7 0-1.4.2-2.1.2-1.4.1-2.8.4-4.2.7-.3.1-.5.1-.8.2-.3 0-.6-.1-.9-.3-.3-.3-.5-.6-.6-1 0-.4-.1-.8-.1-1.2-.2-.1-.3-.2-.5-.2h-4.7c-.3 0-.5 0-.8.1-1 .3-2 .3-3.1.3-.5 0-1 0-1.6-.1-.5 0-1-.1-1.5-.2-.1.1-.1.1-.1.2 0 .2-.1.4-.1.6 0 .5-.1 1-.3 1.5-.3.7-.8 1.1-1.5 1.1-1 .1-2 .4-3.1.2-1.2.1-2.3.1-3.5.2-.3 0-.6.1-1 .2-.3.1-.6.2-.9.2-.9.2-1.8.4-2.6.7-2 .7-4.1 1.3-6.1 1.9-1 .3-2 .4-3 .7-1.4.4-2.8.7-4.2.7-.3 0-.5 0-.8.1-.9.3-1.8.2-2.7.2-1 0-1.9 0-3 .2-1.1.5-2.2 1.1-3.4 1.7-.6.3-1.3.6-1.9.9-1.4.6-2.7 1.2-4.1 1.7-1.9.8-3.7 1.5-5.7 2-.7.2-1.4.2-2.1.4-2 .4-4 1-6 1.6-.3.1-.6.3-.8.3-.5.6-1 1.1-1.4 1.7-.6.9-1.4 1.7-2.1 2.6-3.1 3.4-3 3.3-5.9 7-.8 1.1-1.7 2.2-2.4 3.3-1 1.7-1.9 3.4-2.5 5.3-.7 1.9-1.8 3.5-3.1 4.9-.7.7-1.4 1.4-2.3 1.8-.3.2-.5.4-.6.8.1.2.2.4.2.6.4.2.7.2 1 .3 1.8.1 3.6.2 5.5.1 1.5 0 3-.1 4.5.2h.8c2.1.1 4.2.1 6.2.4.4.1.8 0 1.2.1.8 0 1.7.1 2.5.1 1.8 0 3.5-.1 5.3-.1.9-.2 1.8-.2 2.7-.1 1 .1 2.1 0 3.1 0 1.4.1 2.7 0 4.1-.1h1c1.2.2 2.3.2 3.5.2 3 0 6 0 9 .1 1.9 0 3.8 0 5.7.1h.6c1.5.3 3 .3 4.5.3.3 0 .7 0 1 .1 1.3.3 2.7.3 4.1.3 1 0 2.1 0 3.1.2.6.1 1.3.1 1.9 0 .9-.1 1.8-.2 2.7-.1.8 0 1.7.1 2.5.1.9 0 1.8-.2 2.7-.2 2.1-.1 4.3-.4 6.4-.4.2 0 .4 0 .6-.1 1-.3 1.9-.2 2.9-.2 1.2 0 2.5-.1 3.7.1.4.1.9.1 1.4 0 .6-.1 1.3-.1 1.9-.1.5 0 1 .1 1.6.1 3.1-.2 6.1-.1 9.2-.2 1.9-.1 3.9 0 5.8-.3.6-.1 1.3-.1 1.9-.1h9c2.5 0 5.1 0 7.6.1 1 0 2.1 0 3.1.2.3.1.6 0 1 .1 2.8 0 5.6.1 8.4.1.8 0 1.7.1 2.5.1s1.6.1 2.3.2c1.1.1 2.2 0 3.3.3h.6c1 0 2.1 0 3.3-.1.3.1.8.3 1.3.5.1 0 .2.2.3.3-.5.2-.5.4-.4.5zM52.4 274.3c1.8.5 3.5.6 5.2.8 2.5 0 4.9.2 7.4-.2.8.1 1.7-.1 2.5 0 .5.1 1 0 1.5 0 .6 0 1.3-.1 1.9 0 1.3.2 2.7.6 4 .9 2.2.5 4.4 1.1 6.7.8h.2c2.5.1 5.1-.1 7.6-.4.3 0 .5 0 .8-.1.8-.2 1.5-.2 2.3-.3.3 0 .7 0 1-.1.8-.2 1.7-.2 2.5-.2 2.3-.1 4.5-.2 6.8 0 .5 0 1 .1 1.6.1h.8c1.2-.2 2.5-.2 3.7 0 1.7.3 3.4.3 5.1.3h7.8c.3 0 .7 0 1 .1.8.2 1.7.1 2.5 0 .3 0 .6-.1 1-.1 1.9-.1 3.9-.1 5.8-.2 1.4 0 2.7 0 4.1.3 1 .2 1.9.2 2.9.2h3.3c1.7 0 3.4 0 5.1-.2 1.5-.2 3.1-.1 4.7-.4h.4c1.2 0 2.3-.1 3.5-.1 1 0 2.1 0 3.1-.1 1.9-.2 3.7-.2 5.4-.1h.8c.5 0 1-.1 1.6-.1h16.4c.4 0 .8-.1 1.2 0 1.5.4 3 .3 4.5.3 2.7 0 5.5.1 8.2 0 3.3-.1 6.6 0 9.9-.4.7-.1 1.4 0 2.1-.1 3.1-.4 6.2-.3 9.3-.6 2-.2 4 0 6-.4h8c1.4 0 2.7 0 4.1.2.3.1.6 0 1 0 .3-.1.6-.1 1-.1 2-.1 4-.1 6-.2.3 0 .7 0 1-.1.7-.2 1.4-.2 2.1-.2 2.1 0 4.3.1 6.4 0 3.4-.1 6.8.3 10.1.3.2 0 .4 0 .6.1l2.7.3c1 .1 1.9.1 2.9.1.5 0 1.1 0 1.6.1.8.2 1.5.2 2.3.2 1.9.1 3.9.1 5.9.1.5 0 .9 0 1.4.1.6.1 1.3.1 1.9.1 2.6 0 5.2.1 7.8.2.5 0 .9 0 1.4.1.6.1 1.3.1 1.9.2.7 0 1.4 0 2.1.1 1 .2 2.1.3 3.1.3.3 0 .5 0 .8.1.7.2 1.4.2 2.1.3.9 0 1.8.1 2.7.1 1 0 2 0 2.9.1.9.1 1.8-.1 2.7 0h.2c1.3 0 2.6.1 3.9.1 2.9 0 5.7 0 8.6.2 1 .1 2.1-.1 3.1.1.8-.2 1.5 0 2.3.1.6.1 1.3.1 1.9.1.6 0 1.2 0 1.7.1 1 .2 2.1.2 3.1.2h1.9c.8.1 1.7.2 2.5.2s1.7-.1 2.5-.1h2.5c4.2-.1 8.3-.1 12.5-.1 1 0 2.1.1 3.1.2.7.1 1.4.1 2.1.2 2.5.1 5.1 0 7.6.4h.6c2.1.1 4.1.1 6.2.3 1.8.2 3.6.2 5.5.2h8.6c2.3 0 4.6-.1 6.8-.1 1.2-.3 2.5-.2 3.7-.2 1.4 0 2.7-.1 4.1-.3.5-.1 1-.1 1.6-.1.8-.1 1.6-.1 2.3-.2.7-.1 1.4-.2 2.1-.2.8 0 1.5-.3 2.3-.2.7.1 1.4-.1 2.1-.1 1.2 0 2.3 0 3.5-.1.9 0 1.8-.1 2.7-.1.7 0 1.4-.1 2.1-.2 1.9-.1 3.8-.1 5.7-.2.5 0 1 0 1.6-.1.7-.1 1.2-.4 1.6-.9.1-.1.1-.2.3-.4.3-1.1.7-2.2.9-3.5.2-1.3.4-2.6.7-3.8.3-1.5.6-3.1.5-4.6v-5.1c0-.6-.3-1-.8-1.2-.2-.1-.5-.2-.7-.2-.2 0-.3-.2-.5-.3 0-.8.1-1.7.2-2.5.1-.3.1-.5.1-.8 0-.2-.2-.3-.3-.6-.7.4-1.4.2-2.1.3-.6 0-1.2.1-1.7.2-1.6.3-3.2.2-4.9.1-.8-.2-1.5-.2-2.3-.2-1.6 0-3.1 0-4.7-.1-.8 0-1.7 0-2.5.2-.9.2-1.8.2-2.7-.1-.2-.1-.4-.1-.6-.1-1.7-.3-3.3-.8-5-1-.7-.1-1.4-.3-2-.5-.5.1-.9.2-1.2.3-.4.2-.8.4-.9.5-2.2.6-4.3.5-6.3.6-.9 0-1.8 0-2.7.2h-1.4c-.5 0-.9.1-1.4.1-2.2.1-4.4.1-6.6.4-1.1.1-2.2.1-3.3.2-1.2 0-2.3.4-3.5.2-1.9.2-3.8.1-5.7.2-.5 0-1.1 0-1.6.1-.8.2-1.5.2-2.3.2-.5 0-1 0-1.6.1-.9.2-1.8.2-2.7.2-3 .1-6 .1-9 .1-.8 0-1.7 0-2.5.2-.6.1-1.2.1-1.7.1h-1.9c-2.8.1-5.6.1-8.4.2h-5.5c-3 0-6-.1-9-.2-.4 0-.8 0-1.2-.1-.6-.1-1.3-.1-1.9-.1-.8 0-1.7-.1-2.5-.1-.3 0-.6-.1-1-.1-2.7-.6-2.9-.6-5.2-.6h-8.8c-.6 0-1.2 0-1.7-.3-.2-.1-.5-.1-.8-.1-1.7 0-3.4 0-5.1-.3h-.8c-.9 0-1.8 0-2.7-.1-.5 0-.9 0-1.4-.1-1.1-.3-2.2-.3-3.3-.3-.7 0-1.4 0-2.1-.1-2-.3-4-.3-6-.3-1.2 0-2.5 0-3.7-.1l-3.9-.3c-.5 0-1.1 0-1.6-.1-1-.2-2.1-.2-3.1-.3-1.3-.1-2.6 0-3.9-.3h-.8c-3.8 0-7.7-.1-11.5-.1-1.5 0-3 0-4.5-.1-1.5-.2-3-.2-4.5-.2s-3 0-4.5-.1c-.9 0-1.8-.3-2.6-.7-.3-.2-.6-.3-.8-.4-.4.1-.7.2-1 .3-.2-.2-.5-.4-.7-.7-.4-.2-.9-.4-1.4-.6-.5-.2-.9-.4-1.4-.6-1 .3-1.5 1.1-2.4 1.5-1.4.2-2.8.5-4.2.5h-7c-1.2 0-2.5.1-3.7-.1h-.6c-.6 0-1.3.1-1.9.1H201.1c-.5 0-.9-.1-1.4-.1-.5 0-1-.1-1.6-.1h-9.6c-.5 0-.9 0-1.4.1-1.2.2-2.3.2-3.5.1-.6 0-1.3-.1-1.9 0-.5.1-1-.2-1.5-.1-1 .1-2.1 0-3.1 0-5.3 0-10.7 0-16-.1-1.4 0-2.7.1-4.1-.2-.2-.1-.5 0-.8 0h-1.8c-.6 0-1.3 0-1.9-.1-.7-.1-1.4-.1-2.1 0-1.3-.3-2.6-.3-3.9-.3h-14.6c-.3 0-.7 0-1-.1-.9-.2-1.8-.2-2.7-.2h-3.3c-1.9 0-3.8.1-5.7.1h-.6c-.8.2-1.6.2-2.3.2-1.4 0-2.9 0-4.3.1-.6 0-1.2 0-1.7.2-.6.1-1.2.2-1.7.2-1.7.1-3.5.3-5.2.4-.2 0-.4 0-.6.1-.8.2-1.5.2-2.3.2h-1.6c-1 0-1.9.1-2.9.1-.8 0-1.7 0-2.5.1-1.1.2-2.2.2-3.3.2-.5 0-.9 0-1.4.1-1.3.3-2.6.3-3.9.3-.8 0-1.5-.1-2.3-.4-.5-.2-1-.4-1.4-.7-.6-.5-1.2-1-1.9-1.4-.1-.1-.2-.1-.4-.1-.3 0-.5.2-.6.5 0 .4.6.7.4 1.2-.2.1-.3.2-.5.2-1.4.2-2.8.5-4.2.9-1.7.5-3.4.8-5.2.7-2.1 0-4.3.2-6.4-.4-.5-.1-1.1 0-1.5-.2-1.7-.5-3.4-.4-5-.2-1.4.1-2.7.3-4.1.5-.6.1-1.3.2-2 .3-.2.2-.4.3-.5.6-.4.9-1 1.6-1.6 2.4-.1.8-.1 1.6 0 2.4 0 1.4.3 2.7.7 4 .3 1 .5 2 .7 3 .1.4.1.9.1 1.4l.3 1.5c.1.6.1 1.2.3 1.7.2.9.5 1.9.6 2.9.8.4 1.3 1.3 2 2zm345.8-153.2c-.4-.2-1-.4-1.6-.4-.8 0-1.6-.1-2.3-.1-1.9 0-3.8.1-5.7-.1-.3 0-.5 0-.8.1-1.8 0-3.6.1-5.4-.3-1-.2-1.9-.4-2.8-.8-.8-.3-1.7-.7-2.5-1.1-.9-.5-1.9-.7-3-.8-.6 0-1.3-.1-1.9-.1-.5 0-.9 0-1.4-.1-.6-.1-1.3-.2-1.9-.2-.5 0-1-.1-1.5-.3-1.2-.4-2.5-.7-3.7-1.2-.2-.1-.5-.1-.8-.2-.8-.2-1.5-.2-2.3-.3-1.2-.1-2.3-.4-3.3-.9-.7-.4-1.4-.9-2-1.5-.3-.3-.6-.5-.8-.8-1-1-2.3-1.4-3.7-1.4h-3.1c-1.4 0-2.7 0-4.1-.3-1.1 0-2.2-.4-3.3-.5-1.7-.1-3.4-.4-5-.9-.5-.2-1-.3-1.5-.5-1.1-.3-2.1-.6-3.2-.6-.3 0-.7 0-1 .2-.6.2-1.2.6-1.6 1.1-.1.1-.1.4-.2.5.1.3.3.5.3.7 0 .8.1 1.5-.3 2.2-.1.8-.3 1.5-.4 2.3-.1 1-.4 1.9-.1 2.9 0 .4 0 .8-.1 1.2-.2.9-.2 1.8-.2 2.7 0 .6 0 1.3-.1 1.9-.1.8-.2 1.7-.1 2.5.3 1.7.3 3.5.3 5.2 0 2 0 4-.1 6v3.1c0 1.6-.1 3.1-.4 4.7.1.9-.3 1.7-.5 2.5-.3 1-.7 2-1.1 2.9-.5 1.1-.8 2.2-1.1 3.3-.2 1-.6 2-1.2 2.8-.9 1.4-1.9 2.6-2.9 3.9-1.1 1.5-2.2 2.9-3.5 4.1l-.4.4c-.5.8-1.2 1.4-1.8 2-.5.5-.8 1.2-.9 1.9.2.1.4.3.5.5.4 0 .7 0 1 .1 1.3.3 2.6.4 3.9.4.3 0 .5 0 .8.1.7.3 1.5.2 2.3.5.7.3 1.6.1 2.3.5 1.8.3 3.5.9 5.4.9.1 0 .3 0 .4.1.9.3 1.8.3 2.7.3 1 .1 2.1 0 3.1.1h.4c1.9-.2 3.9-.3 5.8.2.8-.1 1.5.3 2.3.5 1.1.3 2.1.5 3.2.7 1.3.2 2.6.5 3.8.9 1.2.4 2.5.7 3.8.7h6.5c.5 0 .9 0 1.4.1.9.4 1.8.3 2.7.5.2.1.5.1.8.1 1.1.2 2.1.5 3.1 1.1 1 .6 2 .9 3.2.8h7.1c.5 0 1 .1 1.5.3 1 .3 2 .5 3 .8.2-.1.3-.2.5-.3.2-.3.2-.7.1-1-.2-.7-.3-1.4-.5-2.1-.5-1.7-.8-3.4-1-5.1-.2-1.5-.4-3-.4-4.5 0-.2 0-.4-.1-.6-.2-.8-.2-1.5-.2-2.3-.1-1.5-.4-3-.6-4.4-.2-.9-.4-1.8-.5-2.7-.1-1-.1-1.9 0-2.9 1-2.3 2.1-4.6 3.6-6.7.5-.6.8-1.3 1.1-2.1.4-.3.8-.7 1.1-1.1.5-.7.9-1.4 1.5-2.1.9-1.1 1.7-2.2 2.3-3.3 1.3-2.2 2.7-4.3 4.2-6.4 1.3-2 2.4-4 3.1-6.3.4-1.1.7-2.2.7-3.4-.6-.1-.6-.3-.9-.6zm-98.9-13.2c-1 .3-1.9.2-2.8.1-.5 0-1-.1-1.6-.1-1.4.2-2.8-.2-4.3-.2-.8-.3-1.5-.2-2.3-.3-1 0-1.9 0-2.9-.1-1 0-1.9-.1-2.9-.3-.9-.2-1.8-.3-2.7-.5-.9-.3-1.9-.3-2.8-.6-1.6-.2-3.1-.8-4.8-.9-.3 0-.6-.1-1-.2-1.4-.2-2.8-.6-4.2-.6h-4.3c-.9 0-1.8.1-2.7.3-.9.2-1.9.4-2.9.4-1.4.1-2.7.1-4.1.1-.4 0-.8-.1-1.1-.2-1.9-.5-3.7-1.1-5.5-2-.2-.1-.5-.2-.7-.2-.9-.1-1.5.7-1.5 1.4 0 .3.1.5.2.8.2.7.5 1.3.7 2-.3.5-.5.9-.8 1.3 0 .7-.1 1.3-.1 2v1.6c0 1.1 0 2.2-.4 3.3-.2.6-.4 1.3-.4 1.9 0 1.2-.4 2.3-.6 3.4-.2 1-.4 1.9-.6 2.9-.1.7-.2 1.4-.4 2.1-.2 1-.5 2-.7 3-.1.3-.1.6-.1 1v6c0 .3.1.6.1 1 .2 1 .2 2 0 2.9-.1.7-.2 1.4-.2 2.1 0 .5 0 .9-.1 1.4-.2.7-.2 1.4-.3 2.1 0 .5-.1 1-.3 1.5-.2.7-.4 1.5-.5 2.3-.1 1.2-.4 2.4-.3 3.7v1c-.1 2.4-.1 4.8-.2 7.4-.2.8-.4 1.7-.8 2.6-.3.9-.3 1.8-.3 2.6.1.2.2.3.3.3.4.3.9.4 1.5.4 1.6-.2 3.1-.3 4.7-.3 3.7 0 7.4 0 11.1-.3.5 0 .9-.1 1.4 0 1 .2 2.1.2 3.1.3.6 0 1.3 0 1.9.1.6 0 1.3.1 1.9.2.6 0 1.2 0 1.7.1.9.3 1.8.3 2.7.5.8.2 1.7.4 2.5.4s1.7.2 2.5.2c2.1 0 4.3.2 6.4.1 1.7 0 3.4.3 5 .4.9.3 1.8.2 2.7.3.5 0 .9 0 1.4.1 1 .2 2.1.2 3.1.2.9 0 1.8.1 2.7.3.6.2 1.3.2 1.9.4 1 .2 2.1.2 3-.4.6-.7.5-1.5.3-2.2-.1-.6-.4-1.1-.5-1.7-.2-.9-.5-1.8-.5-2.7-.1-1.8-.1-3.5 0-5.3.1-1.6.3-3.1.4-4.7 0-.1.1-.3.1-.4.3-1.9.6-3.7.7-5.6 0-.4 0-.8.1-1.2.5-1.8.9-3.7 1.5-5.4 1.1-3.2 2-6.4 2.6-9.7.1-.4.2-.9.3-1.3.2-1.5.3-3 .4-4.5v-1c0-2.1.1-4.3.2-6.4.1-1.6.5-3 1.4-4.4.4-.7.7-1.4 1-2.1.2-.4.2-.9.2-1.3 0-.6-.2-1-.9-1.2h-1.3c-.3 0-.6.1-1 .1-.4.1-.8.1-1.2.1-.9.4-2.4 0-4.1-.4zm-129.9 56.4c.3.2.5.2.8.1.9-.2 1.8-.3 2.7-.5 1.1-.3 2.3-.3 3.5-.3 2.8.1 5.6.2 8.4.1 1 0 1.9-.1 2.9.2.2.1.5 0 .8.1.6.1 1.3.1 1.9.2 1 .2 2.1.3 3.1.3 1.2 0 2.3 0 3.5.1.4 0 .8 0 1.2.1 1.9.2 3.8.2 5.6 0 .4-.1.8 0 1.2 0 .5.1 1 .1 1.6.1h8.3c.4 0 .8 0 1.2-.1.6-.2 1.3-.2 1.9-.3.8 0 1.6-.1 2.2-.3 1.3.1 2.4.2 3.5.4.5.2 1 .5 1.5.7.7.3 1.3.5 2 .7.3.1.5 0 .7-.3v-.5c-.3-1.1-.3-2.2-.3-3.3 0-.7 0-1.4-.1-2.1-.2-1.5-.5-2.9-.8-4.4-.4-1.7-.6-3.3-.6-5 0-.5 0-1.1-.1-1.6-.1-.6-.1-1.2-.2-1.7-.1-2.1-.2-4.2-.1-6.2 0-.8 0-1.7-.1-2.5s-.2-1.7-.3-2.5c-.2-1.4-.4-2.7-.4-4.1 0-.3-.1-.5-.1-.8-.1-.4-.1-.8-.2-1.2-.1-1.4-.1-2.7-.4-4.1-.1-.3 0-.6-.1-1 0-.5 0-.9-.1-1.4-.3-1.4-.1-2.9-.2-4.3 0-.3 0-.5.1-.8.2-1.3.4-2.7.7-4 .3-1.5.6-2.9 1.4-4.2.8-1.3 1.1-2.8.9-4.3-.1-.4-.3-.7-.7-.9-.2 0-.6.1-.9.2-.8.2-1.7.2-2.5 0s-1.7-.2-2.5-.3c-.5 0-1-.1-1.6-.1-.5 0-.9-.1-1.4-.1-1.5 0-3-.1-4.5-.1-.7 0-1.4-.1-2.1-.2-1-.1-1.9-.2-2.9-.2h-9.9c-1 0-2.1 0-3.1-.1s-2.1-.2-3.1-.2c-1.2 0-2.3.1-3.5.2-1.8.1-3.5.1-5.3.1-1.5 0-3 .3-4.5.1h-.2c-1.1.4-2.2.1-3.3.2-.4 0-.9 0-1.4-.1-1-.1-2.1-.2-3.1-.4-.5-.2-1.1-.4-1.7-.6-.6 0-1.2 0-1.9-.1-.3 0-.5 0-.8.3-.1.3-.3.6-.5 1-.3.7-.4 1.3-.4 2.1.1 1.4.1 2.9.1 4.3 0 .4 0 .8.1 1.2.1 1 .3 1.9.5 2.9v.4c0 .5-.1 1-.1 1.5 0 1-.1 2 0 2.9.1 1.1.4 2.2.5 3.3.2 1.5.6 2.9.6 4.4 0 .3.1.5.1.8.2 1.1.4 2.2.5 3.3.1 1.7.2 3.4.6 5 .1.4.1.8.2 1.1.3 1.3.6 2.5.9 3.8.2.9.4 1.8.4 2.7 0 .6 0 1.3.2 1.9.1.3.1.6.1 1 .2 1.7.5 3.3.5 5 0 .2 0 .4.1.6.2.5.2 1 .2 1.5.1 1.8.1 3.5-.2 5.2-.2 1.2-.4 2.4-.8 3.6-.1.3-.2.6-.3 1-.1.2 0 .3.1.5zm-72.5 15.4c1.2-.4 2.5-.8 3.7-1.1 1.8-.4 3.5-1 5.3-1.3.7-.1 1.4-.3 2.1-.5 1.9-.5 3.7-1.2 5.5-2 .8-.4 1.5-.7 2.3-1 1.2-.5 2.4-.9 3.6-1.5.8-.4 1.6-.8 2.5-1.2 1-.5 2.1-.8 3.2-.8h1.8c.8 0 1.7 0 2.5-.3.2-.1.5-.1.8-.1 1.1 0 2.2-.4 3.3-.5 2.4-.6 4.8-1.2 7.1-2 1.5-.5 3.1-1 4.7-1.3 1.7-.3 3.3-.7 5-.6h1.6c.9 0 1.7-.2 2.4-.5.4-.4.6-.8.7-1.3 0-.2-.1-.4-.2-.5-.1-.3-.3-.6-.5-.8-.7-.8-1-1.6-1.2-2.6 0-.3-.1-.5-.2-.8-.7-1.8-1.2-3.7-1.9-5.5-.3-.8-.5-1.6-.9-2.4-.5-1.3-.9-2.7-1.4-4.1-.6-1.9-1.1-3.7-1.7-5.6l-1.8-5.1c-.8-2.2-1.2-4.4-1.2-6.7.1-1.6 0-3.1 0-4.7 0-.5 0-1 .1-1.6.2-1.1.5-2.3.8-3.4.6-1.8.9-3.5.7-5.4-.1-.5 0-1-.1-1.6 0-.2-.1-.4-.1-.6 0-.2-.4-.5-.6-.5-.3 0-.5 0-.8.1-1.1.3-2.2.5-3.2.8-.8.2-1.5.3-2.3.2-.3 0-.6-.1-1 0-.6.1-1.2.1-1.7.1s-1 .1-1.5.3c-2.4.7-4.8 1.3-7.1 1.9-1.6.4-3.2.8-4.8.7-.7 0-1.4.1-2.1.1-1.7.1-3.5.2-5.3.2-2.2 0-4.4.2-6.6.3-.4 0-.9.2-1.3.3-2.3.5-4.5 1.2-6.7 1.9-1.1.4-2.2.7-3.4.9-1 .2-2 .4-3 .7-.7.2-1.5.4-2.3.5-1.7.2-3.4.2-5-.2-.9-.2-1.8-.2-2.7 0-.4.1-.8.1-1.2.2-.1 0-.2.1-.4.1-.3.2-.7.4-.6 1 .3.2.5.5.8.7 0 .1 0 .3-.1.4-.2.3-.4.7-.6 1-.3.5-.4 1.1-.3 1.7 0 .3.1.5.2.8.2 1 .4 1.9.4 2.9 0 1.3.4 2.4.6 3.6.8 2.3 1.1 4.7 1.8 7 .7 2.1 1.1 4.3 1.6 6.4.4 1.6.8 3.3 1.1 4.9.2 1.2.5 2.4.8 3.6.5 1.6.8 3.3 1.2 4.9.4 1.7.5 3.3.8 5 .2 1.2.3 2.5.8 3.6.3.6.4 1.2.5 1.9.2 1.2.5 2.4.9 3.6.1.4.2.7.3 1.1.1.6.3 1.1.4 1.7-.1 1.3.5 2.5.7 3.8.1.4.6.6.9.5.2-.1.4-.1.5-.3.6-.1 1.1-.5 1.8-1zm-52-3.5c-.2.6-.4 1.1-.4 1.6 0 1.6-.2 3.1.3 4.7.1.2.1.5.1.8.1 2.3.1 4.7 0 7 0 1.4-.2 2.8-.3 4.3-.1 1.5-.1 3-.1 4.5 0 2.9 0 5.8.1 8.8v.4c.3.8.2 1.5.2 2.3 0 .5 0 .9.1 1.4.3 1 .2 2.1.3 3.1 0 .7 0 1.4.2 2.1.2.8.3 1.7.3 2.5 0 .9.3 1.7.3 2.5 0 1.1.1 2.2.2 3.3.1 1.1.2 2.2.2 3.3.1 1.1.1 2.2.1 3.3 0 .6 0 1.2.2 1.7.2.6.2 1.3.2 1.9v8.6c0 1.2 0 2.5.2 3.7.1.6.2 1.3.3 2 .1.1.2.1.3.3.4.1.9.1 1.3.2 1.2.4 2.4.2 3.7.1.6-.1 1.3-.2 1.9-.2.6-.1 1.3-.1 1.9-.3.2-.1.5-.1.8-.1.9 0 1.8-.1 2.7 0 1.1.1 2.2.3 3.3.5 1.8.3 3.6.7 5.4.5 1.2-.1 2.5-.2 3.7-.3h.4c1.4-.4 2.9-.7 4.3-1.1.2 0 .4-.1.5-.2.3-.2.5-.4.6-.7.1-1.3.3-2.6.3-3.9 0-4.1.2-8.2.1-12.3-.1-1.7 0-3.4-.3-5-.1-1.9-.2-3.9-.4-5.8-.1-1.3-.1-2.6-.1-3.9 0-1.9.1-3.9 0-5.8 0-2.7-.1-5.3-.2-8 0-.5 0-1.1-.1-1.6-.2-1-.2-1.9-.2-2.9 0-1.5 0-3-.1-4.5 0-.6 0-1.3-.1-1.9-.1-.8-.2-1.5-.2-2.3-.1-2.2-.1-4.4-.4-6.6-.2-1.5-.5-3.1-.5-4.6 0-.2-.1-.4-.1-.6-.2-1.3-.6-2.5-1-3.8 0-.1-.2-.2-.2-.3-1.4-.2-2.2-.2-3.3 0-.6.1-1.1.2-1.7.2h-7.6c-.9 0-1.8.1-2.7.1-.9 0-1.8.2-2.7.3-1.1.1-2.2.3-3.3.3h-3.3c-1.8-.2-3.5 0-5.2.4zm391.2 75.6c.3-.3.5-.5.8-.7.2-.2.3-.4.5-.6.2-.5.4-1 .5-1.5.1-.4.1-.9.1-1.4 0-.3 0-.5.1-.8.2-.8.2-1.5.3-2.3.1-.8.2-1.5.3-2.3v-5.5c0-1.5 0-3 .2-4.5.1-1 .2-1.9.2-2.9v-6.2c0-1.2 0-2.3.2-3.5.1-1 .2-1.9.2-2.9 0-.9.1-1.8.3-2.7.1-.5.1-1 .1-1.6.1-1.6.1-3.1.2-4.7 0-.7.1-1.4-.1-2.1-.1-.3 0-.6-.1-1 0-1.2 0-2.3-.1-3.5V199c0-.6.1-1.3-.1-1.9-.2-.7.1-1.4-.1-2.1 0-.2.1-.5 0-.8-.3-1.8-.1-3.6-.1-5.4 0-.3 0-.7.1-1 .4-2 .2-4 .3-6 0-1.3-.4-2.4-1-3.5-.2-.3-.4-.7-.8-.9-.6-.1-1.4-.1-2.1-.3-.7-.1-1.4-.1-2.1 0-.8.2-1.7.3-2.5.2-1-.1-2.1-.1-3.1-.3-.9-.2-1.8-.1-2.7 0-1.5.2-3.1.6-4.6.7-.2 0-.4.1-.6.1-.4.1-.8.1-1.2.1-2.5 0-5.1.3-7.6-.3-.3.4-1 .2-1.3.7-.3 1.5-.6 3.1-.6 4.6v.4c-.3 1.1-.2 2.2-.2 3.3 0 .8 0 1.7-.1 2.5 0 .8 0 1.6-.1 2.3-.2 1.2-.2 2.3-.2 3.5 0 1.9-.1 3.8-.1 5.7 0 1 0 2 .2 2.9.2 1.1.2 2.2 0 3.3.2.3.4.7.6 1v.2c-.1.3-.3.6-.5.9 0 .6.1 1.1.1 1.7 0 2.2 0 4.4.1 6.6 0 1.8 0 3.6.3 5.4.1.4.1.9 0 1.4-.2.8-.1 1.7-.2 2.5-.1 1.3.1 2.6-.3 3.9-.1.2 0 .5 0 .8v6.8c0 1.4 0 2.7-.3 4.1-.1.2 0 .5-.1.8l-.3 2.7c-.1.9 0 1.8-.1 2.7 0 .3 0 .6-.1 1 0 .4 0 .8-.1 1.1.2.4.5.5.9.5 1.1 0 2.1.2 3.1.5 1.4.4 2.8.5 4.2.4 1-.1 2.1-.1 3.1-.1 1.6 0 3.1.1 4.7.1.5 0 .9.1 1.4.1 1.9.3 3.9.2 5.8 0 1.4-.2 2.8-.4 4.3-.1-.2.1 0 0 .3 0zm-48.9-107c.6.9 1.2 1.7 1.7 2.5.6 1.1 1.2 2.2 1.8 3.2l.9 1.5c.6 1 1.3 2 2 2.9 1.3 1.7 2.5 3.5 3.7 5.2.5.6.9 1.3 1.3 2 .8 1.4 1.8 2.7 3.1 3.8 1.1.9 2.1 2 3 3 .7.7 1.3 1.5 1.8 2.3.8 1.4 1.8 2.7 2.8 4 .4.5.9.9 1.5 1.2 1.1.1 2.2.3 3.3.3 1.8.1 3.5 0 5.3 0h.6c1.8-.3 3.6-.5 5.4-.8 1.2-.2 2.5-.2 3.7 0 1.7.3 3.4.3 5 .1.4-.1.9-.1 1.2-.2.8.1 1.5.2 2.2.2.1 0 .2-.1.3-.2-.1-.4-.4-.7-.6-1-1.5-1.7-2.8-3.6-4-5.5-.2-.3-.4-.7-.6-1-1-1.4-1.9-2.8-2.7-4.3-1.2-2-2.5-3.9-4-5.8-1.4-1.9-2.6-3.9-3.8-5.9 0-.1-.1-.1-.1-.2-.6-1.4-1.3-2.7-2-4-.6-1.2-1.3-2.3-1.8-3.4-.1-.2-.3-.5-.4-.7-.4-.5-.7-1.1-1.1-1.6-.4-.5-.7-1.1-1.2-1.6s-.7-1.1-1.2-1.5c-1.2-1.3-2.4-2.6-3.8-3.7-.6-.5-1.2-1-1.9-1.3-1.6-.1-3.2-.2-4.8.1h-.4c-2.3 0-4.7.1-7 .1-.6 0-1.2-.1-1.7-.2h-.6c-.3.4-.6.9-.9 1.3-.9 1.4-1.6 2.8-2.6 4.1-.8 1-1.5 2.1-2.3 3.1-.4.8-.8 1.3-1.1 2zm-80.5-24.2c-.1.6-.2 1.2-.3 1.9 0 .4.1.8.1 1.2v.8c-.1.6-.2 1.3-.2 1.9 0 .5 0 1-.1 1.6-.2 1.7-.5 3.5-.9 5.2-.5 2.6-1.4 5.1-2.2 7.7-.5 1.4-.9 2.8-1.3 4.3-.1.5-.2 1-.2 1.5 0 .9 0 1.8-.3 2.7-.1.2 0 .5-.1.8 0 .5 0 .9-.2 1.4-.2.8-.2 1.7-.3 2.5l-.3 2.7v.2c0 .8-.1 1.6-.1 2.3 0 1.8 0 3.6.5 5.4.2.2.4.3.7.3h2.9c.5 0 1 0 1.6.1 1.5.2 3.1.3 4.7.3.8 0 1.6 0 2.3.2.3.1.6.1 1.1-.2.9-.9 2-2 2.9-3.1 1-1.3 2-2.7 3.1-4 .6-.8 1.2-1.7 1.8-2.6.4-.6.7-1.2.8-2 .3-1.3.7-2.6 1.2-3.9.3-.7.5-1.3.7-2 .7-2 1.1-4 1.1-6.1v-11.3c0-1 0-2.1-.2-3.1-.2-.7-.2-1.4-.1-2.1.1-.7-.1-1.4.1-2.1.1-.2.1-.5.1-.8.1-.9-.2-1.2-1-1.3-.4 0-.8-.1-1.2-.1h-1.2c-2.9-.2-5.7-.1-8.6-.2-2.3 0-4.5.1-6.8-.2.2-.1.1 0-.1.1zm-161.9 4c.3 1.5.4 3.1.1 4.6-.1.7-.1 1.4.1 2.1.1.2.1.4.1.6.1 1.6.6 3 1.2 4.5.7 1.7 1.4 3.4 1.9 5.1l.9 3c.5 1.5.9 3 1.4 4.5.6 1.8 1.3 3.5 2 5.3.3 1 .7 2 1 3l.9 3c.2.6.4 1.1 1 1.5.5.1 1.1.3 1.7.3 1.9.3 3.4.4 4.8 0 1-.2 1.9-.3 2.9-.3h2.5c.4 0 .8 0 1.2.1.2.1.5-.2.5-.4.2-1.2.4-2.3.5-3.5.2-2.1.3-4.3-.2-6.4 0-.2-.1-.4-.1-.6 0-1.6-.3-3.1-.5-4.6-.1-1.2-.4-2.3-.4-3.5 0-.2-.1-.4-.1-.6-.3-1.1-.6-2.3-.8-3.4-.5-2.2-.9-4.4-1-6.7 0-.3 0-.7-.1-1-.3-1.3-.2-2.7-.6-4 .1-1.6-.5-3.2-.6-4.8-.3-1.2-.4-2.4-.5-3.6-.4-.2-.6.1-.9.1h-3.2c-1.8 0-3.5 0-5.3.1h-4.9c-1 0-1.9 0-2.9.1-.5 0-.9.1-1.3.5-.5 1.4-.9 3.2-1.3 5zm240.7 55.1c.4.5.8 1.1 1.3 1.6.7.7 1.4 1.3 2.4 1.7.9.4 1.7 1 2.3 1.8.8 1.2 1.9 2.2 2.9 3.1 1.2 1.1 2.2 2.2 3 3.6.8 1.5 1.9 2.8 3.1 4 .6.5 1 1.1 1.4 1.8.9 1.5 1.7 3.1 2.3 4.7.4 1 .9 1.9 1.3 2.8.4.8.9 1.4 1.6 1.9.1.1.2.1.4.2s.6-.1.6-.4v-1c-.1-1.6-.2-3.2-.3-4.9v-3.1c0-1.1.1-2.2 0-3.3 0-1 .2-2.1.2-3.1 0-1.7.1-3.4.2-5.1.1-1.7.2-3.5.4-5.2 0-.4.2-.8.2-1.1.2-.9.3-1.8.1-2.6-.6-.8-1.1-1.6-1.6-2.3-.5-.6-1-1.2-1.3-1.9-.6-1.3-1.5-2.4-2.5-3.5-.8-.9-1.6-1.7-2.5-2.5-1.6-1.5-3-3-4-5-.4-.7-.8-1.5-1.4-2.1-1.1-1.3-2-2.7-2.9-4.1-.5-.7-.9-1.4-1.4-2.1-.8-1.1-1.5-2.3-2.2-3.5-.2-.5-.5-.9-.8-1.4-.6-.9-1.1-1.7-1.7-2.6-.1-.2-.3-.2-.6 0-.1.2-.2.4-.4.6-1.2 1.6-2.1 3.4-3 5.2-.5 1-.7 2.1-.6 3.2 0 1 .2 2.1.5 3.1.2 1 .4 2 .5 3.1.1 1 .1 1.9.3 2.9.1.4.1.9.1 1.4 0 1.4 0 2.9.4 4.3.1.3 0 .6.1 1 0 .3 0 .7.1 1 .4 1.6.7 3.3 1.1 4.9.2.8.4 1.5.3 2.3.1.1.1.3.1.6zm-340.1-6.2c-.1.2-.2.5-.3.7 0 .1-.1.1-.1.2-.1.2.1.5.4.5.5.1 1.1 0 1.5-.1.9-.3 1.8-.3 2.7-.3h1.2c1.5 0 3 .1 4.5-.1 1.2-.2 2.5-.3 3.7-.3.4 0 .8 0 1.2-.1 1.5-.3 3-.2 4.5-.2.3 0 .5 0 .8.1 1.5.3 3.1.4 4.6 0 .2-.1.5 0 .8-.1.4 0 .8-.1 1.1-.2.5-.2 1-.2 1.5-.2.7 0 1.4 0 2.1-.1.6 0 1.2-.2 1.6-.6.9-.7 1.8-1.3 2.6-2.1 1-1 2.2-1.9 3.2-2.8l1.2-.9c1.2-.9 2.5-1.7 3.7-2.6.3-.2.6-.5.7-1 0-.9-.1-1.9-.4-2.8-.2-.6-.1-1.2-.2-1.7-.3-1.1-.6-2.3-.8-3.4-.3-1.3-.7-2.5-.9-3.8-.3-1.7-.7-3.4-1.1-5.1-.2-1.2-.6-2.4-.9-3.6-.2-.8-.4-1.6-.7-2.4-.1-.2-.2-.3-.3-.5-.1-.1-.2-.2-.3-.1-.7.3-1.1.8-1.8 1.2-.5.9-1.2 1.7-2.1 2.3-1.9 1.2-3.5 2.6-5.2 4.1-.8.7-1.6 1.4-2.4 2-.6.5-1.2 1-1.8 1.4-.7.5-1.3 1-1.9 1.6-.8.7-1.5 1.5-2.3 2.1-1.4 1.2-2.8 2.5-4.3 3.7-.7.5-1.3 1-2 1.5-1 .7-1.9 1.4-2.8 2.1-.7.6-1.5 1.3-2.2 1.9-1.6 1.2-3 2.7-3.9 4.6-.2.4-.4.8-.7 1.1-.3.4-.6.7-.9 1-.4.7-1 1.2-1.6 1.7-.6.5-1.1.9-1.7 1.3zm179.7-55.1c-.1.2-.2.3-.2.4 0 1.5-.1 3 .1 4.5.1 1.4.2 2.7.5 4.1 0 1.8.3 3.6.5 5.4 0 .5.1.9.2 1.4.1.6.2 1.2.2 1.7.1.8.1 1.7.2 2.5 0 .5.1.9.1 1.4 0 .6-.2 1.3-.1 1.9 0 .6.2 1.3.2 1.9 0 1.4 0 2.7.2 4.1.2 1.2.2 2.5.3 3.7 0 .6.1 1.2.2 1.7.4 1.8.7 3.6 1.1 5.3.2 1 .3 2.1.3 3.1v.8c0 .6.3.9.8.8 1.5-.3 3-.2 4.5-.2h3.1c.2 0 .4-.1.6-.2.4-1 .7-1.9.7-3 0-1.4 0-2.9.2-4.3.1-1.4.3-2.7.2-4.1-.1-1.6.2-3.2.6-4.8.4-1.6.6-3.2.7-4.8 0-.5.1-.9.1-1.4.3-1.5.3-3.1.1-4.7-.3-2.1-.2-4.3-.2-6.4 0-.3.1-.6.2-1 .3-2 .8-3.9 1.1-5.9.1-.8.2-1.5.5-2.3.2-.6.3-1.3.4-1.9-.1-.1-.2-.3-.3-.3-1.3-.1-2.6-.3-3.9-.4-1.2-.1-2.5 0-3.7.1-1.4.1-2.7.2-4.1.2-2 .3-3.6.3-5.4.7zM78.7 205.6h.4c.3-.2.6-.3.8-.5.8-.8 1.6-1.7 2.3-2.6.8-1.1 1.4-2.2 1.8-3.4.3-.9.7-1.8 1.1-2.7.6-1.3 1.5-2.4 2.2-3.7.2-.4.7-.8 1-1.2.4-.5.8-1.1 1.1-1.6.3-.4.5-.8.8-1.1.7-.7 1.3-1.6 2-2.4.4-.6.7-1.2 1.4-1.5l1.8-2.1c.1-.1 0-.2 0-.4H94c-.5 0-.8-.3-1.1-.8 0-.1-.1-.1-.1-.2-.4-1.2-.8-2.5-.9-3.8-.1-1.2-.3-2.4-.8-3.6-.3-.9-.6-1.7-.7-2.6-.1-.6-.2-1.3-.4-1.9-.3-1-.6-2-.8-3-.1-.4-.2-.7-.4-1.1 0-.1-.2-.1-.3-.2-.2.1-.3.1-.5.2-1.3.8-2.6 1.7-3.8 2.7-.5.4-1.1.7-1.5 1.2-1.4 1.3-2.6 2.7-4.2 3.7-.1 0-.1.1-.1.1-.5.6-1.1.9-1.7 1.2-.2.1-.3.2-.4.3-.2.4-.1.8 0 1.2.2.8.5 1.6.6 2.4.2 1.4.5 2.8.5 4.2 0 .7.3 1.4.3 2.1 0 .7 0 1.4.1 2.1 0 .3 0 .5.1.8.2.8.2 1.5.2 2.3 0 1 0 2 .2 2.9.2 1.4.2 2.7.2 4.1.1 2.8.1 5.6.1 8.4-.1.3 0 .4.1.5z"/>
    <path class="st3" d="M236 211.2c0-.2-.1-.4-.1-.6l-.3-.3c-.5-.2-1-.4-1.3-.5-1.2 0-2.2 0-3.3.1h-.6c-1.1-.3-2.2-.2-3.3-.3-.8-.1-1.6-.1-2.3-.2-.8-.1-1.7-.1-2.5-.1-2.8 0-5.6-.1-8.4-.1-.3 0-.7 0-1-.1-1-.3-2.1-.2-3.1-.2-2.5 0-5.1-.1-7.6-.1h-9c-.6 0-1.3 0-1.9.1-1.9.3-3.9.2-5.8.3-3.1.1-6.1 0-9.2.2-.5 0-1 0-1.6-.1-.6 0-1.3 0-1.9.1-.4.1-.9.1-1.4 0-1.2-.2-2.5-.1-3.7-.1-1 0-2 0-2.9.2-.2.1-.4.1-.6.1-2.1 0-4.3.3-6.4.4-.9 0-1.8.2-2.7.2-.8 0-1.7-.1-2.5-.1-.9 0-1.8 0-2.7.1-.6.1-1.3.1-1.9 0-1-.2-2.1-.2-3.1-.2-1.4 0-2.7 0-4.1-.3-.3-.1-.6-.1-1-.1-1.5-.1-3 0-4.5-.3h-.6c-1.9 0-3.8 0-5.7-.1-3 0-6 0-9-.1-1.2 0-2.3 0-3.5-.2-.3-.1-.6 0-1 0-1.4 0-2.7.1-4.1.1h-3.1c-.9-.1-1.8-.1-2.7.1-1.8.1-3.5.1-5.3.1-.8 0-1.7 0-2.5-.1-.4 0-.8 0-1.2-.1-2.1-.3-4.1-.3-6.2-.4h-.8c-1.5-.3-3-.2-4.5-.2-1.8 0-3.6 0-5.5-.1-.3 0-.7 0-1-.3-.1-.2-.2-.4-.2-.6.1-.4.3-.7.6-.8.9-.5 1.6-1.1 2.3-1.8 1.3-1.4 2.4-3 3.1-4.9.7-1.8 1.6-3.6 2.5-5.3.7-1.2 1.5-2.3 2.4-3.3 2.9-3.7 2.8-3.6 5.9-7 .7-.8 1.5-1.6 2.1-2.6.4-.6.9-1.1 1.4-1.7.2-.1.5-.3.8-.3 2-.6 4-1.2 6-1.6.7-.2 1.4-.2 2.1-.4 2-.4 3.8-1.2 5.7-2 1.4-.6 2.8-1.1 4.1-1.7.7-.3 1.3-.6 1.9-.9 1.2-.6 2.3-1.2 3.4-1.7 1.1-.2 2-.2 3-.2.9 0 1.8.1 2.7-.2.2-.1.5-.1.8-.1 1.4 0 2.8-.3 4.2-.7 1-.3 2-.4 3-.7 2.1-.5 4.1-1.2 6.1-1.9.9-.3 1.7-.5 2.6-.7.3-.1.6-.2.9-.2.3-.1.6-.1 1-.2 1.2-.1 2.3-.1 3.5-.2 1 .2 2.1-.1 3.1-.2.7 0 1.2-.5 1.5-1.1.2-.5.3-1 .3-1.5 0-.2 0-.4.1-.6 0-.1.1-.1.1-.2.5.1 1 .1 1.5.2.5 0 1 0 1.6.1 1 .1 2.1 0 3.1-.3.2-.1.5-.1.8-.1h4.7c.2 0 .3.1.5.2 0 .4 0 .8.1 1.2 0 .4.3.7.6 1 .3.2.6.3.9.3.3 0 .5-.1.8-.2 1.4-.3 2.8-.7 4.2-.7.7 0 1.4-.2 2.1-.2.6 0 1.2 0 1.7.2.5.1 1 .1 1.5.2h4.1c.6 0 1.3-.1 2.1-.2 1.7.3 3.6.7 5.5.7.3 0 .5 0 .8.1.7.3 1.4.3 2.1.3 3.2 0 6.4.1 9.6 0 1.9 0 3.8 0 5.7.1.3 0 .5 0 .8.1.6.1 1.2.1 1.7.1 2.1.1 4.1-.2 6.2-.5.4-.1.9-.2 1.4-.2 1.4-.1 2.9 0 4.2.7.2.1.4.1.5.2.9.5 1.9.8 3 .9.4 0 .7-.2 1.1-.4.2-.1.4-.4.4-.6v-1.4c.1-.1.1-.2.2-.3 1-.2 1.9-.4 2.9-.3.8 0 1.6.1 2.3.1.8.4 1.5-.1 2.3 0 .2 0 .4.2.4.4V166.1c.2.6.6 1 1.1 1.3.2 0 .4.1.7.1h1.4c2.1 0 4.2 0 6.2-.1 1 0 1.9 0 2.9-.2.7-.1 1.4-.1 2.1-.1 1.7 0 3.4-.1 5.1-.1h1.4c1.7.3 3.4.3 5.1.4.6 0 1.2.1 1.7.2 1.4.1 2.7.5 4 .6 1.6.4 3.2.4 4.8.6 2.1.2 4.3.3 6.4.3 1.2 0 2.3-.1 3.5.2 1.1 0 2.2.3 3.3.4.7.1 1.4.1 2.1.2.6 0 1.2.1 1.7.2.4 0 .8.1 1.2.1 1.6 0 3.2.2 4.8.6.5.1 1 .1 1.5 0 .6-.1 1.3-.2 2-.3 1-.5 1.2-1.4 1.3-2.4 0-.4-.1-.9-.2-1.3 0-.2 0-.4-.1-.6.2-.1.4-.2.6-.2h3.3c1 0 2.1 0 3.1.2 1.2.2 2.5.2 3.7.2.2 0 .5 0 .7.2-.2.3-.3.7-.5 1-.2.6-.3 1.1-.2 1.7 0 .2.2.5.3.7.3.1.5.2.8.3.2.1.5.2.8.2 1 0 1.9.4 2.9.4h1.8c.3 0 .7 0 1 .1 1.1.4 2.2.4 3.2.6 1 .3 2 .5 3 .7 1.1.2 2.2.3 3.3.5.3 0 .5 0 .8.1 1.4.4 2.8.4 4.3.4h6.4c.8 0 1.5.2 2.3.4.5.2 1 .3 1.5.5.4.2.9.2 1.3.3 1 .1 1.9.2 2.9.4.5.1 1 .3 1.5.5 2.2.9 4.4 1.2 6.7.9.5-.1 1-.1 1.5-.1 1 0 2-.3 2.9 0 .9.2 1.8.1 2.7.5.8.1 1.7.3 2.5.5.5.1 1 .3 1.5.5.6.3 1.3.7 1.8 1 1.3.2 2.4.2 3.6.4 1 .2 2.1.2 3.1 0 1.5-.3 3-.1 4.4.3 1 .3 2 .6 3 .8.5.1.8.3 1.1.7.1.1.2.2.2.3.8 1.2 2 2.1 3.3 2.7 1 .5 1.7 1.1 2.4 2 .9 1.2 2 2.2 3.1 3.3 1.1 1 2.1 2.1 2.8 3.5.6 1.1 1.3 2.1 2.2 2.9 1.2 1.1 2.1 2.5 2.9 3.9.4.8.8 1.6 1.2 2.5l.6 1.2c1 2.3 1 2.3 2.6 4.5.5.4 1.1.3 1.6.5.3.2.4.5.4.9 0 1.6.1 3.1.1 4.7 0 3.2.1 6.4.1 9.6 0 2.4 0 4.8-.3 7.2-.1.6-.1 1.2-.1 1.8v4.7c0 2.5-.1 5.1-.7 7.6-.1.4-.1.8-.1 1.2 0 .8 0 1.7-.1 2.5 0 .5 0 .9-.1 1.4-.1.4-.3.7-.7 1-.6 0-1.4.1-2.2.1-.2.1-.6.3-.9.5-.6.3-1.3.5-2.1.5-.5.1-1 .1-1.6.1-1.1 0-2.2.1-3.3.2-.5.1-1 .1-1.6.1-1.5 0-3 .1-4.5.1-.3 0-.7 0-1 .1-1.1.2-2.2.2-3.3.3-1.4.1-2.7.2-4.1.3-1.3.1-2.6.1-3.9.2-.4 0-.8 0-1.2.1-.6.1-1.3.1-1.9.1-1.8 0-3.5 0-5.3.1-.4 0-.8 0-1.2.1-1.1.3-2.2.3-3.3.3-1.8 0-3.5 0-5.3.1-1.3 0-2.6 0-3.9.2-1.6.2-3.2.1-4.9.2-1.3 0-2.6 0-3.9.1h-.8c-2 .3-4 .1-6 .2-1.2.1-2.3 0-3.5 0-.9 0-1.8-.1-2.7-.2-1-.1-1.9-.1-2.9-.1-2.6 0-5.2-.1-7.8-.1-1.4 0-2.8-.3-4.3-.5-2-.3-4-.7-6-.6h-5.3c-1.3 0-2.6.1-3.9-.2h-.2c-1.1.2-2.2 0-3.3-.1-1-.1-2.1-.1-3.1-.1-.8 0-1.6 0-2.3-.2-.3-.1-.6 0-1-.1-1.1-.1-2.2-.1-3.3-.3-2.6-.1-5.2-.5-7.8-.5h-2.9c-1.1 0-2.2 0-3.3-.3-.5-.1-1-.1-1.6-.1-1.2-.1-2.5-.1-3.7-.3-.7-.1-1.4-.1-2.1-.1-2.5 0-5.1 0-7.6-.1-.6 0-1.3-.1-1.9-.1-.6 0-1.2-.1-1.8-.1h-4.7c-1.2 0-2.5 0-3.7-.1-2.7 0-5.3-.1-8-.1-.7 0-1.4-.1-2.4-.4-.2-.1-.4-.6-1-.7-.1 0-.3-.1-.4-.1-.4-.3-.9-.5-1.4-.8l-.3-.9c-.2-1.4-.4-2.7-.5-4.1-.1-1.8-.1-3.6 0-5.5 0-.2 0-.4.1-.6.4-1.7.4-3.5.4-5.2 0-1.8-.1-3.5-.1-5.3 0-1.1-.2-2.1-.5-3.1-.2-.7-.3-1.5-.6-2.3-.2-.6-.2-1.2 0-1.7.2-.7.3-1.4.5-2.1.3-.9.5-1.9.7-2.8-.1-.2-.2-.4-.3-.5-.2-.2-.6 0-.6.2-.4 2-1.2 4-1.5 6.1.3 1.1.5 2.3.8 3.5l.3 1.5.3 2.7c.1 1 0 2.1.1 3.1.1 2.1-.2 4.1-.6 6.2-.1.4-.1.9-.1 1.4v4.1c0 .3 0 .5.1.8.2.8.2 1.5.3 2.3 0 .5.2 1 .2 1.5 0 .2-.1.3-.1.5-1-.2-1.5-1-2.5-1.3-.9.4-1.6 1.2-2.5 1.7-1.2.4-2.5.6-3.8.6h-13.1c-3.4 0-6.9.1-10.3 0-2.5-.1-5.1-.1-7.6 0-1.1 0-2.2-.1-3.3 0-1 .1-2.1.1-3.1.1h-6c-2.5 0-5.1 0-7.6-.1h-.4c-2.4-.4-4.8-.2-7.2-.1h-1.4c-.8-.1-1.6-.1-2.3-.1-2.7 0-5.3-.1-8-.1-.4 0-.8 0-1.2-.1-1.4-.3-2.8-.2-4.3-.3-.8 0-1.6 0-2.3-.2-.1 0-.3-.1-.4 0-1.3.2-2.6-.1-3.9-.1-1.2.1-2.5 0-3.7 0h-3.9c-1.6 0-3.1-.1-4.7-.1h-1c-1.5-.3-3.1-.1-4.7-.2h-1.2c-1.9.3-3.8.2-5.6.3-1.6 0-3.3 0-4.9.1-2.2.1-4.4.3-6.6.5-.6.1-1.3.1-1.9.2-.7 0-1.4.1-2.1.2-.5.1-1 .1-1.6.1-2.3.1-4.7.1-7 .1h-.8c-1.2.3-2.3.2-3.5.3-.3 0-.7 0-1 .1-1.3.3-2.7.3-4.1.3-1.4.1-2.6-.2-3.6-1.1 0-.1-.1-.1-.1-.2 0-.5-.3-.8-.8-1-.2 0-.4 0-.6-.1-.4-.1-.7-.3-1-.7 0-.2-.1-.4-.1-.7.1-3.4.1-6.8.2-10.1 0-2-.1-4-.1-6v-.4c-.3-1.2-.3-2.4-.3-3.7 0-.4 0-.8-.1-1.2-.3-1.7-.3-3.4-.3-5.1v-9.2c0-.2 0-.4.1-.6l.3-.3h.4c2.5 0 4.9.1 7.4.1.7 0 1.4 0 2.1.1.6.1 1.2.1 1.7.1 1 .1 2.1.1 3.1.3.3 0 .5 0 .8.1 2.8.1 5.6.2 8.4.1 2.3-.1 4.7-.1 7-.1 1.4-.1 2.9 0 4.3 0s2.7.1 4.1.1h16.4c.5 0 .9 0 1.4.1.4.1.9.2 1.3.2 2.4-.1 4.8.3 7.2.4.8 0 1.7.1 2.5.1s1.6 0 2.2.2c.7-.2 1.3-.3 2-.3 2.4 0 4.8.1 7.2-.1 1.6-.1 3.1-.3 4.7-.4 1.9-.4 3.9-.3 5.8-.3 3.2 0 6.4.1 9.6 0 2.6-.1 5.2-.1 7.8-.2h.8c2.1-.4 4.3-.3 6.4-.3h16.7c.6 0 1.2 0 1.8.1.7.1 1.4.1 2.1 0 .4-.1.9-.1 1.4 0 1.2.2 2.5.2 3.7.2 1.6 0 3.1.1 4.7.1s3.1.2 4.6.6c.2.1.4.1.6.1 1 0 1.9.1 2.9-.2.6-.2 1.2.1 1.7.2.3.2.6.4 1 .7.2-.1.3-.2.5-.3.8-.1.9-.3 1.1-.3.1.1 0 .3 0 .5 0 .4.2.6.6.7.1-.1.3-.1.5-.2.7-.6 1.6-.8 2.5-1 1-.2 1.9-.4 2.9-.1.4.1.8.1 1.2.1h5.1c.4 0 .8 0 1.2-.1 1.1-.2 2.2-.2 3.3-.2 1 0 2 0 2.9-.3.2-.1.4 0 .6-.1 1 0 2.1-.1 3.1-.1 1.1 0 2.2 0 3.3-.1.4 0 .8 0 1.2-.1.6-.2 1.3-.2 1.9-.2.6 0 1.3 0 1.9-.1 2.1-.4 4.3-.3 6.4-.3 1.3 0 2.6 0 3.9.2 1.3.2 2.6.2 3.9.4.2 0 .4.1.6.1.3.1.6.1 1 .1 1.6 0 3.1.2 4.7.3 1.7.2 3.5.1 5.2.4 1.4 0 2.7 0 4.1.1h10.9c.7 0 1.4.1 2.1.2 1.1.1 2.2.1 3.3.1.6 0 1.3-.1 1.9-.1 1.9-.1 3.8 0 5.7 0 2-.1 3.9.2 5.8.4.1 0 .3 0 .4.1.6.2 1.3.2 1.9.3.4 0 .8 0 1.2.2.6.2 1.3.2 1.9.2h3.3c.3 0 .7 0 1-.1.7-.2 1.4-.2 2.1-.2.5 0 1.1 0 1.6-.1.7-.2 1.4-.2 2.1-.2 2.3 0 4.6-.1 6.8-.1.6 0 1.3 0 1.9-.1 1.3-.3 2.6-.2 3.9-.3.8-.1 1.6-.1 2.3-.1.7-.1 1.4-.2 2.1-.2 2.7-.2 5.3-.1 8-.1h1.4c2.3-.4 4.7-.4 7-.6 2.1-.2 4.3-.1 6.4-.1.8 0 1.6 0 2.3.2.4.1.8.1 1.2.1 1.3 0 2.6.1 3.9-.2.2-.1.5 0 .8-.1.6-.1 1.3-.2 1.9-.3.5-.1 1-.1 1.6-.1h2.9c.7 0 1.4.1 2.1.3l.6-.3c.1 0 .1-.1.2-.1.2-.2.3-.4.1-.7-.1-.1-.2-.2-.4-.3-1.7-.1-3.4-.1-5.2 0-.3 0-.5 0-.8.1-.4.2-.9.2-1.3.2-.5 0-.9.1-1.4.2-.9.2-1.8.3-2.7.3-1.6 0-3.2 0-4.9-.3-.3-.1-.6-.1-1-.1h-4.5c-1 0-1.9.2-2.9.2-1.1 0-2.2 0-3.3.2-1.1.2-2.2.2-3.3.2-2.3 0-4.7 0-7 .1-.6 0-1.2 0-1.7.1-1.2.2-2.3.2-3.5.3-.5 0-1.1 0-1.6.1-.7.2-1.4.2-2.1.2-2 .1-4 .2-6 .1-.8 0-1.6-.1-2.3 0-1.1.2-2.2.2-3.3.3-.6 0-1.2.1-1.7.2s-1 .1-1.5.2c-1.8.1-3.5.2-5.3.1-1 0-1.9-.1-2.9-.3-1.5-.3-2.9-.6-4.4-.5h-12.5c-1.2 0-2.3 0-3.5-.2-.3-.1-.6-.1-1-.1-1.5 0-3-.1-4.5-.1-2.2 0-4.4.1-6.6 0-2.3 0-4.6.1-6.8-.4h-.4c-1.6-.1-3.2-.1-4.9-.4-1.3-.2-2.6 0-3.9-.4h-.4c-1 0-1.9-.1-2.9-.3-.3-.1-.6-.1-1-.1-2.1-.1-4.3-.1-6.4 0-.3 0-.5 0-.8.1-.8.2-1.7.2-2.5.3-.5 0-1 .1-1.5.2-.6.1-1.2.2-1.7.2-2 .1-4 .1-6 .2-2.3.2-4.5.3-6.8.4-3.2.2-6.4.2-9.6 0-.9-.1-1.7 0-2.5.2s-1.6.4-2.3.9c-.1.1-.2.2-.3.2-.4-.2-.6-.3-.8-.3zm1.4-2.1c.1-.1.3-.1.4-.2.1 0 .1-.1.1-.1.1-.2.2-.4.2-.6-.1-1.6 0-3.2.2-4.9.1-.5.1-1.1 0-1.6-.2-.8-.2-1.7-.2-2.5-.1-1.3 0-2.6-.3-3.9-.1-.4-.1-.8-.1-1.2 0-.4 0-.8-.1-1.2-.3-1.2-.3-2.4-.4-3.7 0-.5 0-.9-.1-1.4-.3-1.2-.2-2.5-.1-3.7.1-1.4-.1-2.7-.2-4.1-.1-.6-.2-1.1-.3-1.7-.1-1.2-.4-2.3-1.1-3.3-.4-.6-.7-1.2-.9-2.1.3-1 .5-2.2.3-3.3-.2-.4-.4-.9-.9-1-.3.1-.4.2-.5.6.2.4.4.9.6 1.4 0 1.1-.5 2.2-.2 3.4.2.6.5 1.3.8 2 .6 1.3 1 2.5 1.1 3.9 0 .4.1.8.2 1.2.1.4.1.8.1 1.2v4.6c0 1.2.1 2.5.1 3.7.1 1.2.4 2.4.4 3.7.3 1.5.3 3.1.4 4.7 0 .5.1.9.1 1.4.2 1.4.2 2.8 0 4.3-.2 1.3-.2 2.6-.1 3.9l.5.5z"/>
    <path class="st4" d="M52.4 274.3c-.7-.7-1.2-1.6-1.4-2.7-.1-1-.3-1.9-.6-2.9-.1-.6-.2-1.2-.3-1.7l-.3-1.5c-.1-.4 0-.9-.1-1.4-.2-1-.4-2-.7-3-.5-1.3-.7-2.6-.7-4 0-.8-.1-1.6 0-2.4.6-.7 1.2-1.5 1.6-2.4.1-.2.3-.4.5-.6.7-.1 1.3-.2 2-.3 1.4-.1 2.7-.3 4.1-.5 1.7-.2 3.4-.2 5 .2.5.1 1.1 0 1.5.2 2.1.6 4.3.4 6.4.4 1.8 0 3.5-.2 5.2-.7 1.4-.4 2.8-.7 4.2-.9.2 0 .4-.1.5-.2.2-.5-.3-.8-.4-1.2.1-.2.3-.4.6-.5.1 0 .3 0 .4.1.6.5 1.2.9 1.9 1.4.4.3.9.5 1.4.7.7.3 1.5.4 2.3.4 1.3 0 2.6 0 3.9-.3.4-.1.9-.1 1.4-.1 1.1 0 2.2-.1 3.3-.2.8-.1 1.7-.1 2.5-.1 1 0 1.9-.1 2.9-.1.5 0 1-.1 1.6 0 .8 0 1.6 0 2.3-.2.2 0 .4-.1.6-.1 1.7-.1 3.5-.3 5.2-.4.6 0 1.2-.1 1.7-.2.6-.1 1.2-.1 1.7-.2 1.4 0 2.9 0 4.3-.1.8 0 1.6 0 2.3-.2.2-.1.4 0 .6 0 1.9-.1 3.8-.1 5.7-.1h3.3c.9 0 1.8 0 2.7.2.3.1.6.1 1 .1h14.6c1.3 0 2.6 0 3.9.3.7-.1 1.4 0 2.1 0 .6.1 1.3.1 1.9.1h2.6c1.3.3 2.7.2 4.1.2 5.3 0 10.7 0 16 .1 1 0 2.1.1 3.1 0 .5 0 1 .2 1.5.1.7-.1 1.3 0 1.9 0 1.2.1 2.3.1 3.5-.1.4-.1.9-.1 1.4-.1h9.6c.5 0 1 .1 1.6.1.5 0 .9.1 1.4.1H212.8c.6 0 1.3-.1 1.9-.1h.6c1.2.3 2.5.1 3.7.1h7c1.4 0 2.8-.3 4.2-.5.8-.4 1.4-1.2 2.4-1.5.4.2.9.4 1.4.6.5.2 1 .4 1.4.6l.7.7c.3-.1.6-.2 1-.3.3.1.5.3.8.4.8.5 1.7.7 2.6.7 1.5 0 3 0 4.5.1 1.5 0 3 0 4.5.2 1.5.1 3 .1 4.5.1 3.8 0 7.7.1 11.5.1h.8c1.3.3 2.6.2 3.9.3 1 .1 2.1.1 3.1.3.5.1 1 .1 1.6.1 1.3.1 2.6.1 3.9.3 1.2.1 2.5.1 3.7.1 2 0 4 0 6 .3.7.1 1.4.1 2.1.1 1.1 0 2.2.1 3.3.3.4.1.9.1 1.4.1.9 0 1.8.1 2.7.1h.8c1.7.3 3.4.3 5.1.3.3 0 .5 0 .8.1.6.3 1.1.3 1.7.3h8.8c2.3 0 2.5 0 5.2.6.3.1.6.1 1 .1.8 0 1.7.1 2.5.1.6 0 1.3 0 1.9.1.4.1.8.1 1.2.1 3 .1 6 .1 9 .2h5.5c2.8 0 5.6-.1 8.4-.2h1.9c.6 0 1.2 0 1.7-.1.8-.2 1.7-.2 2.5-.2 3 0 6 0 9-.1.9 0 1.8 0 2.7-.2.5-.1 1-.1 1.6-.1.8-.1 1.6 0 2.3-.2.5-.1 1-.1 1.6-.1 1.9 0 3.8 0 5.7-.2 1.2.2 2.3-.2 3.5-.2 1.1 0 2.2 0 3.3-.2 2.2-.3 4.4-.3 6.6-.4.5 0 .9-.1 1.4-.1h.8c.2 0 .4.1.6 0 .9-.2 1.8-.1 2.7-.2 2-.1 4 0 6.3-.6.1-.1.5-.4.9-.5.4-.2.8-.2 1.2-.3.6.1 1.3.4 2 .5 1.7.2 3.3.6 5 1 .2 0 .4 0 .6.1.9.3 1.8.3 2.7.1.8-.2 1.7-.2 2.5-.2 1.6 0 3.1 0 4.7.1.8 0 1.6 0 2.3.2 1.6.1 3.2.2 4.9-.1.6-.1 1.2-.2 1.7-.2.7-.1 1.4.1 2.1-.3.1.3.3.4.3.6 0 .3 0 .5-.1.8-.2.8-.3 1.7-.2 2.5.1.2.2.3.5.3s.5.1.7.2c.5.2.8.6.8 1.2v1.4c0 1.2-.1 2.5 0 3.7 0 1.6-.2 3.1-.5 4.6-.3 1.3-.5 2.6-.7 3.8-.2 1.2-.6 2.4-.9 3.5-.1.2-.2.3-.3.4-.4.6-1 .9-1.6.9-.5 0-1 0-1.6.1-1.9.1-3.8.1-5.7.2-.7 0-1.4.1-2.1.2-.9.1-1.8.1-2.7.1-1.2 0-2.3 0-3.5.1-.7 0-1.4.2-2.1.1-.8-.1-1.5.2-2.3.2-.7 0-1.4.2-2.1.2-.8.1-1.6.1-2.3.2-.5 0-1 0-1.6.1-1.4.3-2.7.3-4.1.3-1.2 0-2.5 0-3.7.2-2.3.1-4.6.1-6.8.1h-8.6c-1.8 0-3.7 0-5.5-.2-2.1-.2-4.1-.2-6.2-.3h-.6c-2.5-.3-5.1-.3-7.6-.4-.7 0-1.4-.1-2.1-.2-1-.1-2.1-.2-3.1-.2-4.2 0-8.3.1-12.5.1-.8 0-1.7.1-2.5 0-.8 0-1.7.1-2.5.1s-1.7-.2-2.5-.2h-1.9c-1 0-2.1 0-3.1-.2-.6-.1-1.2-.1-1.7-.1-.6 0-1.3-.1-1.9-.1-.8-.1-1.5-.3-2.3-.1-1-.2-2.1-.1-3.1-.1-2.9-.2-5.7-.2-8.6-.2-1.3 0-2.6-.1-3.9-.1h-.2c-.9 0-1.8.2-2.7 0-1-.1-1.9-.1-2.9-.1-.9 0-1.8-.1-2.7-.1-.7 0-1.4 0-2.1-.3-.2-.1-.5-.1-.8-.1-1-.1-2.1-.1-3.1-.3-.7-.1-1.4-.1-2.1-.1-.6 0-1.3 0-1.9-.2-.4-.1-.9-.1-1.4-.1-2.6-.1-5.2-.2-7.8-.2-.7 0-1.3 0-1.9-.1-.4-.1-.9-.1-1.4-.1-2 0-3.9-.1-5.9-.1-.8 0-1.6 0-2.3-.2-.5-.1-1-.1-1.6-.1-1 0-2 0-2.9-.1l-2.7-.3c-.2 0-.4-.1-.6-.1-3.4 0-6.7-.4-10.1-.3-2.1.1-4.3 0-6.4 0-.7 0-1.4 0-2.1.2-.3.1-.6.1-1 .1-2 .1-4 .1-6 .2-.3 0-.6 0-1 .1-.3.1-.6.1-1 0-1.4-.2-2.7-.2-4.1-.2h-8c-2 .4-4 .2-6 .4-3.1.3-6.2.2-9.3.6-.7.1-1.4 0-2.1.1-3.3.4-6.6.3-9.9.4-2.7.1-5.5.1-8.2 0-1.5 0-3 0-4.5-.3-.4-.1-.8 0-1.2 0h-16.4c-.5 0-1 .1-1.6.1h-.8c-1.8-.1-3.5-.1-5.4.1-1 .1-2.1.2-3.1.1-1.2 0-2.3 0-3.5.1h-.4c-1.5.3-3.1.2-4.7.4-1.7.2-3.4.2-5.1.2-1.1 0-2.2.1-3.3 0-1 0-1.9 0-2.9-.2-1.3-.2-2.7-.3-4.1-.3-1.9.1-3.9.1-5.8.2-.3 0-.6 0-1 .1-.8.1-1.7.2-2.5 0-.3-.1-.6-.1-1-.1h-7.8c-1.7 0-3.4 0-5.1-.3-1.2-.2-2.5-.2-3.7 0h-.8c-.5 0-1-.1-1.6-.1-2.3-.2-4.5-.1-6.8 0-.8 0-1.7 0-2.5.2-.3.1-.6.1-1 .1-.8 0-1.6 0-2.3.3-.2.1-.5.1-.8.1-2.5.3-5 .4-7.6.4h-.2c-2.3.2-4.5-.3-6.7-.8-1.3-.3-2.6-.7-4-.9-.6-.1-1.3-.1-1.9 0-.5 0-1 .1-1.5 0-.8-.1-1.7.1-2.5 0-2.5.3-4.9.2-7.4.2-2.2.5-4 .4-5.8-.1zm370-1.7c-.5.2-.6.4-.6.8.1.3.3.6.6.6.2 0 .5-.2.5-.4.2-.5 0-.8-.5-1zM83 269.5c-.5.6-.5.7 0 1.3.7 0 .9-.2.9-.7 0-.5-.2-.7-.9-.6zm-11.6-4.3c0-.2 0-.5-.1-.7-.1-.2-.2-.3-.4-.4-.2-.1-.4-.1-.5 0-.2.1-.2.3-.2.5.1.4.3.7.7.8.2.1.4 0 .5-.2zm340.5 9c.5.3.5.3.9.3.1 0 .4-.2.4-.3.1-.2 0-.5-.2-.7-.2-.2-.5-.2-.7-.1-.4.2-.5.4-.4.8zM64.3 263.4c0-.2-.1-.4-.4-.5-.2-.1-.5 0-.6.3-.1.1-.1.2-.1.4s0 .4.2.5c.2.1.4.1.5 0 .2-.2.4-.3.4-.7zm344.6 10.8c-.1-.1-.2-.3-.4-.4-.2-.1-.4-.1-.6 0-.3.1-.5.5-.4.8.1.2.4.3.6.3.4-.1.6-.3.8-.7zM63 267.6c.1.4.4.6.8.6.3 0 .5-.3.4-.5-.1-.2-.1-.5-.4-.6-.3-.1-.5 0-.8.4v.1zm12.8.7c.2.1.3.2.5.2s.3-.1.5-.2c.1-.4.1-.7-.1-.9-.3-.1-.6 0-.8.3-.1.2-.1.3-.1.6zm-11.1 1.8c.1 0 .3.1.4 0 .3 0 .5-.2.5-.5 0-.2 0-.4-.2-.5-.3-.2-.6-.2-.8.1-.1.2-.2.3-.1.5 0 .2.1.3.2.4zm3.3-2.8c.1.1.2.3.3.4.2.2.5.1.7 0 .2-.2.2-.5.2-.7-.1-.2-.4-.3-.6-.3-.3.1-.5.3-.6.6zm350.5 2.1c.2 0 .4 0 .6-.1.3-.1.3-.3.2-.7-.1-.1-.2-.1-.3-.2-.4-.2-.7.1-.7.5 0 .2.1.3.2.5zm4.8.2c-.3-.4-.6-.4-1-.2-.2.1-.2.3-.1.5.2.3.4.4.8.3.2-.1.3-.3.3-.6zm-345.2.7c.3.3.7.3 1 0 .2-.5-.1-.7-.5-.8-.4.1-.6.4-.5.8zm-5.8-.7c.1.5.4.7.7.6.3-.1.5-.3.5-.5s-.2-.4-.6-.4c-.2 0-.4.1-.6.3z"/>
    <path class="st1" d="M398.2 121.1c.3.3.3.6.3.8 0 1.2-.3 2.3-.7 3.4-.7 2.2-1.8 4.3-3.1 6.3-1.4 2.1-2.9 4.2-4.2 6.4-.7 1.2-1.5 2.3-2.3 3.3-.5.6-1 1.3-1.5 2.1-.3.4-.7.8-1.1 1.1-.2.8-.6 1.4-1.1 2.1-1.5 2.1-2.6 4.3-3.6 6.7-.1 1-.1 2 0 2.9.1.9.3 1.8.5 2.7.3 1.5.6 2.9.6 4.4 0 .8 0 1.6.2 2.3.1.2.1.4.1.6 0 1.5.2 3 .4 4.5.2 1.7.6 3.5 1 5.1.2.7.4 1.4.5 2.1.1.3.1.6-.1 1-.1.1-.3.2-.5.3-1-.3-2-.5-3-.8-.5-.2-1-.3-1.5-.3H372c-1.1 0-2.2-.3-3.2-.8-1-.6-2-.9-3.1-1.1-.3 0-.5 0-.8-.1-.9-.3-1.8-.2-2.7-.5-.4-.2-.9-.1-1.4-.1h-6.5c-1.3 0-2.6-.3-3.8-.7-1.2-.4-2.5-.7-3.8-.9-1.1-.1-2.2-.3-3.2-.7-.7-.2-1.5-.6-2.3-.5-1.9-.4-3.9-.4-5.8-.2h-.4c-1-.2-2.1-.1-3.1-.1-.9-.1-1.8 0-2.7-.3-.1 0-.3-.1-.4-.1-1.8 0-3.6-.6-5.4-.9-.7-.4-1.6-.2-2.3-.5-.7-.3-1.5-.2-2.3-.5-.2-.1-.5-.1-.8-.1-1.3 0-2.6-.1-3.9-.4-.3-.1-.6-.1-1-.1-.2-.2-.4-.3-.5-.5.1-.8.4-1.4.9-1.9.7-.6 1.3-1.3 1.8-2 .1-.2.3-.3.4-.4 1.3-1.2 2.5-2.7 3.5-4.1 1-1.3 1.9-2.6 2.9-3.9.6-.9 1-1.8 1.2-2.8.3-1.1.6-2.3 1.1-3.3.4-.9.8-1.9 1.1-2.9.3-.8.6-1.6.5-2.5.3-1.5.4-3.1.4-4.7v-3.1c0-2 0-4 .1-6 0-1.8 0-3.5-.3-5.2-.2-.8-.1-1.7.1-2.5.1-.6.1-1.3.1-1.9 0-.9 0-1.8.2-2.7.1-.4.1-.8.1-1.2-.3-1 0-1.9.1-2.9.1-.8.3-1.5.4-2.3.4-.6.3-1.4.3-2.2-.1-.2-.2-.4-.3-.7 0-.1.1-.3.2-.5.4-.5 1-.9 1.6-1.1.3-.1.6-.1 1-.2 1.1 0 2.2.2 3.2.6.5.1 1 .3 1.5.5 1.6.5 3.3.9 5 .9 1.1 0 2.2.4 3.3.5 1.3.4 2.7.3 4.1.3h3.1c1.4 0 2.7.5 3.7 1.4.3.3.6.5.8.8.6.6 1.3 1.1 2 1.5 1 .6 2.2.8 3.3.9.8.1 1.6 0 2.3.3.2.1.5.1.8.2 1.2.5 2.5.7 3.7 1.2.5.2 1 .3 1.5.3.6 0 1.3.2 1.9.2.5 0 .9.1 1.4.1.6 0 1.3 0 1.9.1 1 .1 2 .4 3 .8.8.4 1.6.8 2.5 1.1.9.4 1.8.6 2.8.8 1.8.4 3.6.3 5.4.3.3 0 .5-.1.8-.1 1.9.2 3.8.1 5.7.1.8 0 1.6 0 2.3.1 1.2-.2 1.8 0 2.2.2z"/>
    <path class="st5" d="M299.3 107.9c1.6.4 3.2.8 4.7.6.4 0 .8-.1 1.2-.1.3 0 .6-.1 1-.1h1.3c.7.2.9.7.9 1.2s0 .9-.2 1.3c-.3.7-.6 1.4-1 2.1-.8 1.4-1.3 2.8-1.4 4.4-.1 2.1-.2 4.3-.2 6.4v1c-.1 1.5-.2 3-.4 4.5 0 .4-.2.9-.3 1.3-.6 3.3-1.5 6.6-2.6 9.7-.6 1.8-1.1 3.6-1.5 5.4-.1.4-.1.8-.1 1.2-.1 1.9-.4 3.7-.7 5.6 0 .1-.1.3-.1.4-.2 1.6-.3 3.1-.4 4.7-.1 1.8-.1 3.5 0 5.3 0 .9.3 1.8.5 2.7.1.6.4 1.1.5 1.7.2.8.2 1.5-.3 2.2-.9.5-2 .6-3 .4-.6-.1-1.3-.2-1.9-.4-.9-.2-1.8-.3-2.7-.3-1 0-2.1 0-3.1-.2-.4-.1-.9-.1-1.4-.1-.9-.1-1.8 0-2.7-.3-1.7-.1-3.3-.4-5-.4-2.1 0-4.3-.1-6.4-.1-.8 0-1.7-.2-2.5-.2s-1.7-.2-2.5-.4c-.9-.2-1.8-.2-2.7-.5-.5-.2-1.2-.1-1.7-.1-.6-.1-1.3-.1-1.9-.2-.6 0-1.3 0-1.9-.1-1-.1-2.1-.1-3.1-.3-.4-.1-.9-.1-1.4 0-3.7.3-7.4.3-11.1.3-1.6 0-3.1.1-4.7.3-.5.1-1-.1-1.5-.4l-.3-.3c-.1-.9-.1-1.7.3-2.6.3-.9.5-1.9.8-2.6.1-2.6.1-5 .2-7.4 0-.3.1-.7 0-1-.1-1.2.2-2.5.3-3.7.1-.8.3-1.5.5-2.3.2-.5.2-1 .3-1.5.1-.7.1-1.4.3-2.1.1-.4.1-.9.1-1.4.1-.7.1-1.4.2-2.1.2-1 .2-1.9 0-2.9-.1-.3-.1-.6-.1-1v-6c0-.3.1-.6.1-1 .2-1 .5-2 .7-3 .2-.7.3-1.4.4-2.1.1-1 .4-1.9.6-2.9.2-1.1.6-2.3.6-3.4 0-.6.2-1.3.4-1.9.4-1.1.4-2.2.4-3.3v-1.6c0-.6.1-1.3.1-2 .2-.4.5-.9.8-1.3-.2-.7-.5-1.3-.7-2-.1-.2-.2-.5-.2-.8-.1-.7.5-1.5 1.5-1.4.3 0 .5.1.7.2 1.8.8 3.6 1.4 5.5 2 .4.1.8.2 1.1.2 1.4.1 2.7 0 4.1-.1 1-.1 1.9-.2 2.9-.4.9-.2 1.8-.3 2.7-.3 1.4-.1 2.9 0 4.3 0s2.8.4 4.2.6c.3.1.6.2 1 .2 1.6.1 3.2.6 4.8.9.9.4 1.9.4 2.8.6.9.3 1.8.3 2.7.5 1 .2 1.9.3 2.9.3s2 0 2.9.1c.8 0 1.6 0 2.3.3 1.4.1 2.8.4 4.3.2.5-.1 1 0 1.6.1.3-.1 1.2 0 2.2-.3z"/>
    <path class="st1" d="M169.4 164.3c-.1-.1-.2-.3-.2-.4.1-.3.2-.7.3-1 .4-1.2.6-2.4.8-3.6.3-1.7.3-3.5.2-5.2 0-.5 0-1-.2-1.5-.1-.2-.1-.4-.1-.6 0-1.7-.3-3.4-.5-5 0-.3 0-.7-.1-1-.2-.6-.2-1.3-.2-1.9 0-.9-.2-1.8-.4-2.7-.3-1.3-.6-2.5-.9-3.8-.1-.4-.1-.8-.2-1.1-.3-1.7-.4-3.3-.6-5-.1-1.1-.3-2.2-.5-3.3 0-.3-.1-.5-.1-.8.1-1.5-.4-3-.6-4.4-.2-1.1-.4-2.2-.5-3.3-.1-1 0-1.9 0-2.9 0-.5.1-1 .1-1.5v-.4c-.1-1-.3-1.9-.5-2.9-.1-.4-.1-.8-.1-1.2 0-1.4 0-2.9-.1-4.3 0-.7.1-1.4.4-2.1.2-.3.3-.7.5-1 .3-.2.5-.3.8-.3.6 0 1.3 0 1.9.1.6.2 1.1.4 1.7.6 1 .1 2.1.3 3.1.4.5 0 .9.1 1.4.1 1.1-.1 2.2.1 3.3-.2h.2c1.5.2 3-.1 4.5-.1 1.8 0 3.5 0 5.3-.1 1.2-.1 2.3-.2 3.5-.2 1 0 2.1 0 3.1.2 1 .1 2.1.1 3.1.1h9.9c1 0 1.9.1 2.9.2.7.1 1.4.2 2.1.2 1.5.1 3 .1 4.5.1.5 0 .9.1 1.4.1.5 0 1 .1 1.6.1.8 0 1.7.1 2.5.3.8.2 1.7.2 2.5 0 .3-.1.6-.1.9-.2.5.2.7.5.7.9.2 1.5-.1 3-.9 4.3-.8 1.3-1.1 2.8-1.4 4.2-.3 1.3-.5 2.7-.7 4 0 .3-.1.5-.1.8.1 1.4-.1 2.9.2 4.3.1.4.1.9.1 1.4 0 .3 0 .7.1 1 .3 1.3.3 2.7.4 4.1 0 .4.1.8.2 1.2 0 .3.1.5.1.8.1 1.4.3 2.7.4 4.1.1.8.2 1.7.3 2.5.1.8.1 1.7.1 2.5 0 2.1 0 4.2.1 6.2 0 .6.1 1.2.2 1.7s.1 1 .1 1.6c0 1.7.2 3.4.6 5 .3 1.5.6 2.9.8 4.4.1.7.1 1.4.1 2.1 0 1.1 0 2.2.3 3.3v.5c-.2.3-.4.4-.7.3-.7-.2-1.3-.5-2-.7-.5-.2-1.1-.5-1.5-.7-1.2-.1-2.3-.2-3.5-.4-.6.2-1.4.3-2.2.3-.7 0-1.3.1-1.9.3-.4.1-.8.1-1.2.1h-8.3c-.5 0-1 0-1.6-.1-.4-.1-.8-.1-1.2 0-1.9.3-3.8.2-5.6 0-.4 0-.8-.1-1.2-.1-1.2 0-2.3-.1-3.5-.1-1 0-2.1 0-3.1-.3-.6-.1-1.3-.1-1.9-.2-.3 0-.5 0-.8-.1-.9-.4-1.9-.3-2.9-.2-2.8.1-5.6 0-8.4-.1-1.2 0-2.3 0-3.5.3-.9.2-1.8.4-2.7.5-.2-.1-.4-.1-.7-.2z"/>
    <path class="st5" d="M96.9 179.7c-.7.5-1.2.9-1.7 1.3-.2.1-.3.2-.5.3-.3.1-.9-.1-.9-.5-.2-1.3-.8-2.5-.7-3.8-.1-.6-.2-1.1-.4-1.7-.1-.4-.2-.8-.3-1.1-.4-1.2-.7-2.3-.9-3.6-.1-.6-.3-1.3-.5-1.9-.5-1.1-.6-2.4-.8-3.6-.3-1.7-.4-3.3-.8-5-.4-1.6-.7-3.3-1.2-4.9-.4-1.2-.6-2.4-.8-3.6-.3-1.7-.7-3.3-1.1-4.9-.5-2.1-.9-4.3-1.6-6.4-.7-2.3-1.1-4.7-1.8-7-.1-1.2-.6-2.4-.6-3.6 0-1-.3-1.9-.4-2.9 0-.3-.1-.5-.2-.8-.1-.6 0-1.2.3-1.7.2-.3.4-.7.6-1 .1-.1 0-.2.1-.4-.3-.2-.6-.5-.8-.7-.1-.5.3-.7.6-1 .1 0 .2-.1.4-.1.4-.1.8-.1 1.2-.2.9-.2 1.8-.2 2.7 0 1.7.4 3.4.3 5 .2.8-.1 1.5-.3 2.3-.5 1-.3 2-.4 3-.7 1.1-.2 2.3-.6 3.4-.9 2.2-.7 4.4-1.4 6.7-1.9.4-.1.9-.2 1.3-.3 2.2-.1 4.4-.4 6.6-.3 1.8 0 3.5-.1 5.3-.2.7-.1 1.4-.2 2.1-.1 1.6.1 3.2-.3 4.8-.7 2.4-.6 4.8-1.3 7.1-1.9l1.5-.3c.6 0 1.2-.1 1.7-.1h1c.8.1 1.5 0 2.3-.2 1.1-.3 2.2-.4 3.2-.8.2-.1.5-.1.8-.1.2 0 .5.3.6.5 0 .2.1.4.1.6 0 .5 0 1 .1 1.6.2 1.8-.1 3.6-.7 5.4-.3 1.1-.6 2.3-.8 3.4-.1.5-.1 1-.1 1.6v4.7c-.1 2.3.4 4.5 1.2 6.7.6 1.7 1.3 3.4 1.8 5.1.6 1.8 1.1 3.7 1.7 5.6.4 1.4.8 2.7 1.4 4.1.3.8.5 1.6.9 2.4.7 1.8 1.2 3.7 1.9 5.5.1.2.2.5.2.8.1 1 .5 1.9 1.2 2.6.2.2.3.6.5.8.1.2.1.4.2.5-.1.5-.2.9-.7 1.3-.7.3-1.5.5-2.4.5h-1.6c-1.7-.1-3.4.3-5 .6s-3.1.8-4.7 1.3c-2.3.8-4.7 1.4-7.1 2-1.1.1-2.1.5-3.3.5-.3 0-.5 0-.8.1-.8.3-1.7.3-2.5.3h-1.8c-1.1 0-2.2.3-3.2.8-.8.4-1.6.8-2.5 1.2-1.2.6-2.4 1.1-3.6 1.5-.8.3-1.6.6-2.3 1-1.8.8-3.6 1.5-5.5 2-.7.2-1.4.4-2.1.5-1.8.3-3.5.9-5.3 1.3-1.3 0-2.6.4-3.8.8z"/>
    <path class="st3" d="M44.9 176.2c1.8-.4 3.4-.6 5.1-.6h3.3c1.1 0 2.2-.3 3.3-.3.9-.1 1.8-.3 2.7-.3.9 0 1.8-.1 2.7-.1h7.6c.6 0 1.2-.1 1.7-.2 1.1-.2 1.8-.2 3.3 0 .1.1.2.2.2.3.4 1.2.8 2.5 1 3.8 0 .2.1.4.1.6 0 1.6.3 3.1.5 4.6.3 2.2.4 4.4.4 6.6 0 .8.1 1.6.2 2.3.1.6.1 1.3.1 1.9 0 1.5 0 3 .1 4.5 0 1 0 1.9.2 2.9.1.5.1 1 .1 1.6.1 2.7.1 5.3.2 8v5.8c0 1.3-.1 2.6.1 3.9.2 1.9.3 3.9.4 5.8.4 1.7.3 3.4.3 5 .2 4.1-.1 8.2-.1 12.3 0 1.3-.2 2.6-.3 3.9 0 .3-.3.6-.6.7-.2.1-.4.2-.5.2-1.4.4-2.9.7-4.3 1.1h-.4c-1.2.1-2.5.2-3.7.3-1.8.2-3.6-.2-5.4-.5-1.1-.2-2.2-.4-3.3-.5-.9-.1-1.8 0-2.7 0-.3 0-.5 0-.8.1-.6.2-1.3.2-1.9.3-.6.1-1.3.1-1.9.2-1.2.1-2.5.3-3.7-.1-.4-.1-.9-.1-1.3-.2l-.3-.3c-.1-.7-.2-1.3-.3-2-.1-1.2-.2-2.5-.2-3.7v-8.6c0-.6 0-1.3-.2-1.9-.1-.6-.1-1.2-.2-1.7-.1-1.1-.1-2.2-.1-3.3-.1-1.1-.1-2.2-.2-3.3-.1-1.1-.1-2.2-.2-3.3 0-.8-.3-1.7-.3-2.5s-.1-1.7-.3-2.5c-.1-.7-.1-1.4-.2-2.1 0-1 0-2.1-.3-3.1-.1-.4-.1-.9-.1-1.4 0-.8 0-1.6-.2-2.3v-.4c0-2.9-.1-5.8-.1-8.8 0-1.5 0-3 .1-4.5.1-1.4.2-2.8.3-4.3.1-2.3.1-4.7 0-7 0-.3 0-.5-.1-.8-.4-1.5-.2-3.1-.3-4.7.1-.3.3-.8.5-1.4zM436.1 251.8c-.3 0-.5.1-.7.1-1.4-.2-2.8-.1-4.3.1-1.9.3-3.9.3-5.8 0-.4-.1-.9-.1-1.4-.1-1.6-.1-3.1-.1-4.7-.1-1 0-2.1 0-3.1.1-1.4.1-2.8 0-4.2-.4-1-.3-2-.5-3.1-.5-.3 0-.6-.1-.9-.5 0-.3 0-.7.1-1.1 0-.3 0-.6.1-1 .1-.9 0-1.8.1-2.7.1-.9.3-1.8.3-2.7 0-.3 0-.5.1-.8.4-1.3.3-2.7.3-4.1v-7.6c.4-1.3.2-2.6.3-3.9.1-.8 0-1.7.2-2.5.1-.4.1-.9 0-1.4-.3-1.8-.2-3.6-.3-5.4 0-2.2-.1-4.4-.1-6.6 0-.6-.1-1.2-.1-1.7.2-.3.3-.6.5-.9v-.2c-.2-.3-.4-.6-.6-1 .2-1.1.2-2.2 0-3.3-.2-.9-.2-1.9-.2-2.9 0-1.9 0-3.8.1-5.7 0-1.2 0-2.3.2-3.5.1-.8.1-1.6.1-2.3 0-.8 0-1.7.1-2.5 0-1.1 0-2.2.2-3.3v-.4c0-1.6.3-3.1.6-4.6.3-.5 1-.3 1.3-.7 2.6.5 5.1.2 7.6.3.4 0 .8-.1 1.2-.1.2 0 .4-.1.6-.1 1.6-.1 3.1-.4 4.6-.7.9-.1 1.8-.2 2.7 0 1 .2 2.1.2 3.1.3.8.1 1.7-.1 2.5-.2.7-.1 1.4-.1 2.1 0l2.1.3c.4.2.7.5.8.9.6 1.1 1 2.3 1 3.5 0 2 .1 4-.3 6-.1.3-.1.6-.1 1 0 1.8-.2 3.6.1 5.4 0 .3-.1.5 0 .8.1.7-.1 1.4.1 2.1.2.6.1 1.3.1 1.9v2.1c0 1.2 0 2.3.1 3.5 0 .3 0 .7.1 1 .2.7.1 1.4.1 2.1-.1 1.6-.1 3.1-.2 4.7 0 .5 0 1-.1 1.6-.2.9-.2 1.8-.3 2.7 0 1-.1 1.9-.2 2.9-.1 1.2-.2 2.3-.2 3.5v6.2c0 1-.1 1.9-.2 2.9-.1 1.5-.1 3-.2 4.5v5.5c-.1.8-.2 1.5-.3 2.3-.1.8 0 1.6-.3 2.3-.1.2-.1.5-.1.8 0 .5 0 .9-.1 1.4-.1.5-.3 1-.5 1.5-.1.2-.3.4-.5.6.2.1-.1.3-.4.6zM387.2 144.8c.3-.7.7-1.2 1-1.7.8-1 1.5-2.1 2.3-3.1 1-1.3 1.8-2.7 2.6-4.1.3-.4.5-.9.9-1.3h.6c.6.2 1.1.2 1.7.2 2.3 0 4.7-.1 7-.1h.4c1.6-.3 3.2-.2 4.8-.1.8.3 1.3.9 1.9 1.3 1.4 1.1 2.6 2.3 3.8 3.7.4.5.7 1.1 1.2 1.5.5.4.8 1 1.2 1.6.4.5.8 1.1 1.1 1.6.1.2.3.4.4.7.5 1.2 1.2 2.3 1.8 3.4.7 1.3 1.4 2.6 2 4 0 .1 0 .1.1.2 1.2 2 2.4 4 3.8 5.9 1.4 1.8 2.8 3.8 4 5.8.9 1.4 1.7 2.9 2.7 4.3.2.3.4.7.6 1 1.2 2 2.5 3.8 4 5.5.3.3.5.6.6 1-.1.1-.2.2-.3.2-.7-.1-1.4-.2-2.2-.2-.3.1-.8.1-1.2.2-1.7.2-3.4.2-5-.1-1.2-.2-2.5-.2-3.7 0-1.8.3-3.6.6-5.4.8h-.6c-1.8 0-3.5.1-5.3 0-1.1 0-2.2-.2-3.3-.3-.6-.3-1.1-.7-1.5-1.2-1-1.3-2-2.6-2.8-4-.5-.8-1.1-1.6-1.8-2.3-1-1-1.9-2.1-3-3-1.3-1.1-2.2-2.3-3.1-3.8-.4-.7-.8-1.3-1.3-2-1.2-1.7-2.4-3.5-3.7-5.2-.7-.9-1.3-1.9-2-2.9l-.9-1.5c-.6-1.1-1.1-2.2-1.8-3.2-.4-1.1-1-1.9-1.6-2.8zM306.7 120.6c.1-.1.3-.2.4-.2 2.3.3 4.5.2 6.8.2 2.9 0 5.7 0 8.6.2h1.2c.4 0 .8 0 1.2.1.8.1 1.1.4 1 1.3 0 .3 0 .5-.1.8-.3.7-.1 1.4-.1 2.1-.1.7 0 1.4.1 2.1.3 1 .2 2.1.2 3.1v11.3c0 2.1-.4 4.1-1.1 6.1-.2.7-.5 1.3-.7 2-.5 1.3-1 2.5-1.2 3.9-.1.7-.4 1.4-.8 2-.5.9-1.1 1.7-1.8 2.6-1 1.3-2.1 2.7-3.1 4-.9 1.2-2 2.2-2.9 3.1-.5.2-.8.2-1.1.2-.8-.2-1.5-.2-2.3-.2-1.6 0-3.1-.1-4.7-.3-.5-.1-1-.1-1.6-.1h-2.9c-.3 0-.5-.1-.7-.3-.5-1.7-.4-3.6-.5-5.4 0-.8.1-1.6.1-2.3v-.2l.3-2.7c.1-.8 0-1.7.3-2.5.1-.4.1-.9.2-1.4 0-.3 0-.5.1-.8.3-.9.3-1.8.3-2.7 0-.5.1-1 .2-1.5.4-1.4.8-2.9 1.3-4.3.8-2.5 1.7-5.1 2.2-7.7.3-1.7.6-3.4.9-5.2.1-.5.1-1 .1-1.6 0-.7.1-1.3.2-1.9.1-.2.1-.5 0-.8 0-.4-.2-.8-.1-1.2-.2-.6-.1-1.2 0-1.8zM144.8 124.6c.4-1.8.8-3.6 1.3-5.3.4-.4.8-.5 1.3-.5 1 0 1.9-.1 2.9-.1h4.9c1.8 0 3.5 0 5.3-.1h3.2c.3 0 .6-.3.9-.1 0 1.2.2 2.4.5 3.6.1 1.6.6 3.2.6 4.8.4 1.3.2 2.7.6 4 .1.3.1.6.1 1 .1 2.3.6 4.5 1 6.7.2 1.1.5 2.3.8 3.4 0 .2.1.4.1.6 0 1.2.3 2.3.4 3.5.1 1.6.5 3.1.5 4.6 0 .2 0 .4.1.6.5 2.1.4 4.3.2 6.4-.1 1.2-.3 2.3-.5 3.5 0 .3-.3.5-.5.4-.4-.1-.8-.1-1.2-.1h-2.5c-1 0-1.9.1-2.9.3-1.4.4-2.9.3-4.8 0-.6-.1-1.1-.2-1.7-.3-.5-.4-.8-.9-1-1.5l-.9-3c-.3-1-.6-2-1-3-.6-1.8-1.3-3.5-2-5.3-.5-1.5-.9-3-1.4-4.5l-.9-3c-.5-1.8-1.2-3.4-1.9-5.1-.6-1.5-1-2.9-1.2-4.5 0-.2 0-.4-.1-.6-.2-.7-.2-1.4-.1-2.1.3-1.3.2-2.8-.1-4.3z"/>
    <path class="st4" d="M385.5 179.7c0-.3-.1-.5 0-.7.1-.8 0-1.5-.3-2.3-.5-1.6-.8-3.3-1.1-4.9-.1-.3-.1-.6-.1-1 0-.3 0-.7-.1-1-.3-1.4-.3-2.8-.4-4.3 0-.5 0-.9-.1-1.4-.2-1-.2-1.9-.3-2.9-.1-1-.3-2.1-.5-3.1s-.5-2-.5-3.1.2-2.2.6-3.2c.8-1.8 1.7-3.6 3-5.2.2-.2.3-.4.4-.6.3-.1.5-.1.6 0 .6.8 1.2 1.7 1.7 2.6.3.4.5.9.8 1.4.6 1.2 1.3 2.4 2.2 3.5.5.7.9 1.4 1.4 2.1 1 1.4 1.9 2.8 2.9 4.1.5.6 1 1.4 1.4 2.1 1 1.9 2.5 3.5 4 5 .9.8 1.7 1.6 2.5 2.5 1 1.1 1.9 2.2 2.5 3.5.3.7.8 1.3 1.3 1.9.6.7 1.1 1.5 1.6 2.3.2.8.1 1.7-.1 2.6-.1.4-.2.8-.2 1.1-.1 1.7-.3 3.5-.4 5.2-.1 1.7-.2 3.4-.2 5.1 0 1-.2 2.1-.2 3.1v3.3c0 1-.1 2.1 0 3.1.1 1.6.2 3.2.3 4.9v1c0 .2-.4.5-.6.4-.1-.1-.3-.1-.4-.2-.7-.5-1.2-1.1-1.6-1.9-.4-.9-.9-1.9-1.3-2.8-.6-1.6-1.4-3.2-2.3-4.7-.4-.7-.9-1.3-1.4-1.8-1.2-1.2-2.3-2.5-3.1-4-.8-1.4-1.8-2.5-3-3.6-1.1-1-2.1-2-2.9-3.1-.6-.8-1.3-1.4-2.3-1.8-.9-.4-1.7-1-2.4-1.7-.6-.4-1-1-1.4-1.5zm19.5 10.4c-.5-.3-.5-.3-.7-.2-.3.1-.4.3-.4.6-.1.4-.1.8.3 1 .5-.2.5-.2.6-.3.2-.4.3-.7.2-1.1zm-1.5 4.3c0 .3-.1.7.1 1 .1.2.4.3.6.1.3-.3.4-.6.4-1 0-.2-.2-.5-.5-.5-.2 0-.4.1-.6.4zm1.8 4.1c0 .1 0 .1.1.2.1.2.3.4.6.4s.5-.2.6-.5c.1-.3-.1-.7-.4-.7-.4-.1-.7.1-.9.6zm-2.2-8.2v-.4c-.1-.4-.4-.5-.7-.5-.3.1-.5.4-.4.8 0 .1.1.2.2.3h.6c.1 0 .2-.1.3-.2zm-1.5-2.5c.3-.2.3-.4.3-.7 0-.3-.2-.4-.5-.5-.2 0-.6.1-.6.3-.1.3 0 .7.3.8.2.1.4.1.5.1zm.9-1c.2.3.3.7.9.6.1-.2.2-.4.4-.5-.2-.5-.3-.7-.6-.7-.5 0-.6.3-.7.6z"/>
    <path class="st3" d="M45.4 173.5c.6-.4 1.2-.9 1.7-1.3.6-.5 1.2-1 1.6-1.7.2-.4.6-.7.9-1 .3-.4.5-.7.7-1.1.9-1.8 2.3-3.3 3.9-4.6.8-.6 1.5-1.2 2.2-1.9.9-.8 1.8-1.4 2.8-2.1.7-.5 1.3-1 2-1.5 1.5-1.2 2.9-2.4 4.3-3.7.8-.7 1.5-1.4 2.3-2.1.6-.6 1.2-1.2 1.9-1.6.7-.4 1.2-.9 1.8-1.4.8-.7 1.6-1.4 2.4-2 1.7-1.4 3.3-2.9 5.2-4.1.9-.6 1.6-1.3 2.1-2.3.6-.4 1.1-1 1.8-1.2.1-.1.3 0 .3.1.1.2.2.3.3.5.2.8.5 1.6.7 2.4.2 1.2.6 2.4.9 3.6.4 1.7.8 3.4 1.1 5.1.2 1.3.6 2.5.9 3.8.3 1.1.6 2.3.8 3.4.1.6.1 1.2.2 1.7.3 1 .3 1.9.4 2.8-.1.5-.3.7-.7 1-1.2.9-2.5 1.7-3.7 2.6-.4.3-.9.6-1.2.9-1.1 1-2.2 1.8-3.2 2.8-.8.8-1.7 1.4-2.6 2.1-.5.4-1 .6-1.6.6-.7 0-1.4 0-2.1.1-.5 0-1 0-1.5.2-.4.1-.8.1-1.1.2-.3 0-.5 0-.8.1-1.5.4-3.1.3-4.6 0-.3-.1-.5-.1-.8-.1-1.5 0-3-.1-4.5.2-.4.1-.8.1-1.2.1-1.2.1-2.5.2-3.7.3-1.5.2-3 .1-4.5.1h-1.2c-.9 0-1.8 0-2.7.3-.5.2-1 .2-1.5.1-.3 0-.5-.3-.4-.5 0-.1 0-.1.1-.2.1-.2.2-.4.3-.7zM225.1 118.4c1.8-.4 3.5-.4 5.1-.5 1.4 0 2.7-.1 4.1-.2 1.2-.1 2.5-.2 3.7-.1 1.3.1 2.6.3 3.9.4.1 0 .2.2.3.3-.1.6-.2 1.3-.4 1.9-.3.7-.4 1.5-.5 2.3-.3 2-.8 3.9-1.1 5.9-.1.3-.2.6-.2 1-.1 2.1-.1 4.3.2 6.4.2 1.5.2 3.1-.1 4.7-.1.4-.1.9-.1 1.4-.1 1.6-.3 3.2-.7 4.8-.4 1.6-.7 3.2-.6 4.8.1 1.4 0 2.7-.2 4.1-.2 1.4-.2 2.9-.2 4.3 0 1.1-.3 2-.7 3-.2.1-.4.2-.6.2h-3.1c-1.5 0-3-.1-4.5.2-.6.1-.8-.2-.8-.8v-.8c0-1-.1-2.1-.3-3.1-.4-1.8-.7-3.6-1.1-5.3-.1-.6-.2-1.2-.2-1.7-.1-1.2-.1-2.5-.3-3.7-.2-1.3-.2-2.7-.2-4.1 0-.7-.1-1.3-.2-1.9 0-.6.1-1.3.1-1.9 0-.5 0-.9-.1-1.4-.1-.8-.1-1.7-.2-2.5-.1-.6-.1-1.2-.2-1.7s-.1-.9-.2-1.4c-.2-1.8-.5-3.6-.5-5.4-.3-1.3-.4-2.7-.5-4.1-.1-1.5-.1-3-.1-4.5.3-.3.4-.4.5-.6z"/>
    <path class="st4" d="M78.7 205.6c-.1-.1-.2-.2-.2-.3 0-2.8-.1-5.6-.1-8.4 0-1.4 0-2.7-.2-4.1-.1-1-.1-1.9-.2-2.9 0-.8 0-1.6-.2-2.3-.1-.2-.1-.5-.1-.8 0-.7-.1-1.4-.1-2.1 0-.7-.3-1.4-.3-2.1 0-1.4-.3-2.8-.5-4.2-.1-.8-.4-1.6-.6-2.4-.1-.4-.2-.8 0-1.2.1-.1.3-.2.4-.3.6-.3 1.3-.6 1.7-1.2 0-.1.1-.1.1-.1 1.6-1 2.8-2.5 4.2-3.7l1.5-1.2c1.2-1 2.5-1.8 3.8-2.7.2-.1.3-.2.5-.2.1.1.3.1.3.2.2.4.3.7.4 1.1.2 1 .4 2 .8 3 .2.6.3 1.3.4 1.9.2.9.4 1.8.7 2.6.4 1.2.7 2.4.8 3.6.1 1.3.5 2.5.9 3.8 0 .1 0 .1.1.2.2.4.6.7 1.1.8h1.4v.4l-1.8 2.1c-.7.3-1 1-1.4 1.5-.6.8-1.2 1.7-2 2.4-.3.3-.5.7-.8 1.1-.4.5-.8 1.1-1.1 1.6-.3.4-.7.8-1 1.2-.7 1.2-1.6 2.4-2.2 3.7-.4.9-.8 1.8-1.1 2.7-.4 1.2-1 2.4-1.8 3.4-.7 1-1.5 1.8-2.3 2.6-.2.2-.5.4-.8.5-.1-.2-.2-.2-.3-.2zm4.3-15c-.3.4-.3.7 0 1 .3.2.6.2.8-.1 0-.8-.1-.9-.8-.9zm-.6-3.3c0 .2 0 .4.1.5.1.2.4.3.7.2.2-.1.3-.2.4-.4 0-.3-.1-.5-.4-.6-.4 0-.6.1-.8.3zm-.8 4c.3-.4.3-.7 0-.9-.2-.1-.4-.1-.5-.1l-.2.2c-.2.4-.1.8.3.9.2-.1.3-.1.4-.1zm1.3 4.8c-.1-.1-.1-.2-.2-.3-.3-.2-.6-.2-.8 0-.1.1-.1.2-.2.3.1.1.1.2.2.3.3.3.7.3 1 0-.1 0 0-.2 0-.3zm-1.5-8.9c.6 0 .5-.1.6-.7l-.1-.1c-.1-.2-.3-.2-.5-.1s-.3.3-.2.5c0 .1.1.3.2.4z"/>
    <path class="st0" d="M236 211.2h.6c.1 0 .2-.1.3-.2.7-.5 1.5-.8 2.3-.9.8-.2 1.6-.3 2.5-.2 3.2.2 6.4.2 9.6 0 2.3-.1 4.5-.2 6.8-.4 2-.2 4-.2 6-.2.6 0 1.2 0 1.7-.2.5-.1 1-.2 1.5-.2.8-.1 1.7-.1 2.5-.3.2-.1.5-.1.8-.1 2.1-.1 4.3-.1 6.4 0 .3 0 .7 0 1 .1 1 .2 1.9.3 2.9.3h.4c1.3.4 2.6.2 3.9.4 1.6.2 3.2.3 4.9.4h.4c2.3.4 4.5.3 6.8.4h6.6c1.5 0 3 0 4.5.1.3 0 .7 0 1 .1 1.2.3 2.3.2 3.5.2h6.6c2 0 3.9.1 5.9 0 1.5 0 3 .2 4.4.5 1 .2 1.9.3 2.9.3 1.8.1 3.5 0 5.3-.1.5 0 1-.1 1.5-.2.6-.1 1.2-.1 1.7-.2 1.1 0 2.2-.1 3.3-.3.8-.1 1.6-.1 2.3 0 2 0 4 0 6-.1.7 0 1.4-.1 2.1-.2.5-.1 1-.1 1.6-.1 1.2 0 2.3-.1 3.5-.3.6-.1 1.2-.1 1.7-.1 2.3 0 4.7 0 7-.1 1.1 0 2.2-.1 3.3-.2 1.1-.2 2.2-.2 3.3-.2 1 0 1.9-.2 2.9-.2h4.5c.3 0 .7 0 1 .1 1.6.3 3.2.3 4.9.3.9 0 1.8-.1 2.7-.3.4-.1.9-.1 1.4-.2.5 0 .9-.1 1.3-.2.2-.1.5-.1.8-.1 1.8-.1 3.5 0 5.2 0 .2.1.3.2.4.3.2.2.1.5-.1.7 0 0-.1.1-.2.1l-.6.3c-.6-.2-1.3-.3-2.1-.3h-2.9c-.5 0-1 .1-1.6.1-.6.1-1.3.2-1.9.3-.3 0-.5 0-.8.1-1.3.4-2.6.3-3.9.2-.4 0-.8 0-1.2-.1-.8-.2-1.5-.2-2.3-.2-2.1 0-4.3-.1-6.4.1-2.3.2-4.7.2-7 .6-.4.1-.9 0-1.4 0-2.7 0-5.3-.1-8 .1-.7 0-1.4.1-2.1.2-.8.1-1.6.1-2.3.1-1.3.1-2.6 0-3.9.3-.6.1-1.3.1-1.9.1-2.3 0-4.6.1-6.8.1-.7 0-1.4 0-2.1.2-.5.1-1 .1-1.6.1-.7 0-1.4 0-2.1.2-.3.1-.6.1-1 .1h-3.3c-.7 0-1.3 0-1.9-.2-.4-.1-.8-.1-1.2-.2-.6-.1-1.3 0-1.9-.3-.1 0-.3-.1-.4-.1-1.9-.1-3.9-.4-5.8-.4-1.9.1-3.8-.1-5.7 0-.6 0-1.3.1-1.9.1-1.1.1-2.2.1-3.3-.1-.7-.1-1.4-.2-2.1-.2h-10.9c-1.4 0-2.7 0-4.1-.1-1.7-.3-3.5-.2-5.2-.4-1.6-.2-3.1-.3-4.7-.3-.3 0-.6-.1-1-.1-.2 0-.4-.1-.6-.1-1.3-.1-2.6-.2-3.9-.4-1.3-.2-2.6-.2-3.9-.2-2.1 0-4.3-.1-6.4.3-.6.1-1.3.1-1.9.1-.6 0-1.3 0-1.9.2-.4.1-.8.1-1.2.1-1.1 0-2.2.1-3.3.1-1 0-2.1 0-3.1.1-.2 0-.4 0-.6.1-.9.3-1.9.3-2.9.3-1.1 0-2.2 0-3.3.2-.4.1-.8.1-1.2.1h-5.1c-.4 0-.8 0-1.2-.1-1-.3-1.9-.1-2.9.1-.9.2-1.8.4-2.5 1-.1.1-.3.2-.5.2-.4-.1-.6-.3-.6-.7.3.2.3 0 .2-.2zM237.4 209.1c-.1-.1-.3-.2-.5-.4-.1-1.3-.1-2.6.1-3.9.2-1.4.2-2.8 0-4.3-.1-.4-.1-.9-.1-1.4-.1-1.6-.1-3.1-.4-4.7 0-1.2-.3-2.4-.4-3.7-.1-1.2-.1-2.5-.1-3.7v-4.6c0-.4-.1-.8-.1-1.2-.1-.4-.1-.8-.2-1.2-.1-1.4-.5-2.7-1.1-3.9-.3-.7-.6-1.4-.8-2-.3-1.2.2-2.3.2-3.4-.2-.5-.4-.9-.6-1.4.1-.3.3-.5.5-.6.5.2.7.6.9 1 .2 1.2 0 2.3-.3 3.3.2.8.5 1.5.9 2.1.6 1 .9 2.1 1.1 3.3.1.6.2 1.2.3 1.7.2 1.3.3 2.7.2 4.1-.1 1.2-.2 2.5.1 3.7.1.4.1.9.1 1.4.1 1.2 0 2.5.4 3.7.1.4.1.8.1 1.2 0 .4 0 .8.1 1.2.3 1.3.3 2.6.3 3.9 0 .8 0 1.7.2 2.5.1.5.1 1 0 1.6-.2 1.6-.3 3.2-.2 4.9 0 .2-.1.4-.2.6 0 .1-.1.1-.1.1-.1 0-.2 0-.4.1zM422.4 272.6c.5.2.7.5.6 1 0 .2-.3.4-.5.4-.3 0-.6-.3-.6-.6-.1-.3 0-.6.5-.8zM83 269.5c.7-.1.9.1.9.6s-.2.6-.9.7c-.5-.6-.5-.7 0-1.3zM71.4 265.2c-.2.2-.3.3-.5.3-.4-.1-.6-.4-.7-.8 0-.2 0-.4.2-.5.2-.1.4-.2.5 0 .1.1.3.2.4.4.1.1.1.4.1.6zM411.9 274.2c-.1-.4.1-.6.4-.8.3-.1.5-.1.7.1.2.1.3.5.2.7 0 .1-.3.3-.4.3-.4 0-.4 0-.9-.3zM64.3 263.4c0 .4-.2.5-.4.6-.2.1-.4.1-.5 0-.2-.1-.2-.3-.2-.5 0-.1 0-.3.1-.4.1-.2.4-.3.6-.3.3.2.4.4.4.6zM408.9 274.2c-.1.4-.3.6-.7.6-.3 0-.5-.1-.6-.3-.1-.3.1-.7.4-.8.2-.1.4-.1.6 0 0 .2.1.4.3.5zM63 267.6c0-.1 0-.1.1-.2.3-.4.5-.5.8-.4.3.1.3.4.4.6.1.2-.2.5-.4.5-.6.2-.8 0-.9-.5zM75.8 268.3v-.6c.2-.3.5-.4.8-.3.3.2.3.5.1.9-.1.1-.3.2-.5.2-.1 0-.2-.1-.4-.2zM64.7 270.1c-.1-.1-.2-.2-.2-.3-.1-.2 0-.4.1-.5.2-.3.5-.3.8-.1.2.1.2.3.2.5 0 .3-.2.4-.5.5-.2-.1-.3-.1-.4-.1zM68 267.3c.1-.3.3-.5.5-.5.2-.1.5.1.6.3.1.2 0 .5-.2.7-.2.2-.5.2-.7 0 0-.2-.1-.4-.2-.5zM418.5 269.4c-.1-.2-.2-.3-.2-.5 0-.5.3-.7.7-.5.1 0 .2.1.3.2.1.4 0 .6-.2.7-.2.1-.4.1-.6.1zM423.3 269.6c0 .3-.1.5-.4.6-.4.1-.6 0-.8-.3-.1-.2 0-.4.1-.5.5-.1.8-.2 1.1.2zM78.1 270.3c-.1-.5.1-.7.5-.8.4.1.7.4.5.8-.3.4-.7.4-1 0zM72.3 269.6c.2-.2.4-.3.7-.3.3 0 .6.2.6.4s-.2.5-.5.5c-.5.1-.7-.1-.8-.6zM61.7 242.6c.1-.1.2-.3.4-.4.4-.2.8-.1.9.4v.3l-.3.3s-.1 0-.2.1c-.3-.1-.6-.3-.8-.7zM67.9 242.6c.1-.1.3-.2.5-.2s.4 0 .5.2c.1.2.1.5 0 .7-.1.1-.3.2-.5.2-.3-.1-.4-.2-.5-.5v-.4zM421.7 243.5c-.1-.1-.2-.3-.2-.5 0-.4.4-.7.8-.7.3 0 .6.4.5.7 0 .1-.1.2-.2.3-.2.3-.5.4-.9.2zM422.8 249.6c0 .3-.3.6-.6.6-.2.1-.5-.1-.7-.3-.1-.1-.1-.2 0-.4.2-.5.9-.6 1.2-.2.1.2.1.2.1.3zM405 190.1c.1.4 0 .8-.2 1.1-.1.2-.1.2-.6.3-.3-.3-.3-.7-.3-1 .1-.3.2-.5.4-.6.2-.1.2-.1.7.2zM403.5 194.4c.2-.3.4-.4.7-.3.3 0 .5.3.5.5 0 .4-.1.7-.4 1-.2.2-.5.1-.6-.1-.3-.4-.2-.8-.2-1.1zM405.3 198.5c.3-.5.5-.7.8-.6.3.1.5.4.4.7-.1.3-.3.4-.6.5-.3 0-.5-.1-.6-.4v-.2zM403.1 190.3c-.1.1-.2.2-.3.2h-.6c-.1-.1-.2-.2-.2-.3-.1-.4.1-.7.4-.8.3-.1.6.1.7.5v.4zM401.6 187.8h-.5c-.3-.1-.4-.5-.3-.8.1-.2.4-.4.6-.3.3 0 .5.2.5.5.1.2 0 .4-.3.6zM402.5 186.8c.1-.3.2-.6.6-.6.3 0 .4.1.6.7-.1.2-.2.4-.4.5-.5.1-.6-.2-.8-.6zM83 190.6c.8 0 .8.1.8.8-.2.3-.5.3-.8.1-.3-.2-.3-.5 0-.9zM82.4 187.3c.2-.2.4-.3.7-.2.3.1.4.3.4.6 0 .2-.2.3-.4.4-.2.1-.6 0-.7-.2v-.6zM81.6 191.3h-.4c-.4-.1-.6-.4-.3-.9 0-.1.1-.1.2-.2.2 0 .4 0 .5.1.4.3.4.6 0 1zM82.9 196.1c0 .1-.1.2-.1.3-.3.4-.6.4-1 0-.1-.1-.1-.2-.2-.3.1-.1.1-.2.2-.3.3-.3.5-.3.8 0 .2.1.2.2.3.3zM81.4 187.2c-.1-.1-.2-.3-.3-.5-.1-.2 0-.4.2-.5.2-.1.4-.1.5.1l.1.1c0 .8 0 .8-.5.8zM54 236.7c.1.5.4.6.8.6.2 0 .4-.2.4-.3.1-.2 0-.5-.2-.7-.2-.1-.5-.2-.7 0-.1.1-.2.3-.3.4zM57.2 234.7l-.1-.1c-.3-.1-.5-.1-.7.1-.2.4-.2.7.1 1h.2c.5 0 .7-.2.6-.7 0 0-.1-.2-.1-.3zM60.3 241.1c-.1-.3-.2-.5-.3-.7-.2-.4-.6-.5-1.1-.1 0 .6.4.9.9 1.2.2-.1.3-.2.5-.4zM54.2 229.7c-.2 0-.3 0-.5-.1-.5.7-.4.9.3 1.3.6-.5.6-.5.2-1.2z"/>
    <path class="st0" d="M61.7 242.6c.2.4.5.6.9.7.1 0 .1 0 .2-.1l.3-.3v-.3c-.1-.4-.5-.6-.9-.4-.2.1-.3.3-.5.4zM53 234.1c.1 0 .2.1.4.1.1 0 .2-.1.3-.1.2-.1.2-.3.1-.5-.2-.4-.6-.6-.9-.4-.2.2-.3.5-.1.8.1.1.1.1.2.1zM67.9 242.6v.4c.1.3.2.4.5.5.2 0 .4-.1.5-.2.1-.2.1-.5 0-.7-.1-.2-.3-.3-.5-.2-.2.1-.3.2-.5.2zM55.8 241.1c0 .2.1.3.1.5.1.1.2.2.4.2h.2c.2 0 .5-.2.5-.4 0-.1-.1-.4-.3-.4-.3-.2-.6-.2-.9.1zM52.5 237.1c-.1.1-.3.1-.4.2-.1 0-.1.1-.1.1-.1.1-.1.4 0 .5.1.2.3.2.5.2s.4-.1.4-.3v-.4c-.1-.1-.3-.2-.4-.3zM430.1 228.5c-.7.1-.9.5-.9 1.2.1.1.2.3.4.4.4.2.7.2 1.1-.1.2-.2.3-.5.2-.7-.2-.3-.4-.6-.8-.8zM430.1 244.6c-.1-.4-.2-.6-.5-.8-.3-.2-.6-.2-.8.1-.1.1-.1.2-.2.4.2.6.6.9 1.3.8.1-.2.2-.3.2-.5zM425.6 240.3c.3.6.3.6.5.7.3.2.7.1.8-.2.1-.3 0-.8-.3-1-.3-.2-.5-.1-.8.2-.1 0-.2.2-.2.3zM429.8 237c-.6 0-.6 0-.7.2-.2.2-.2.5-.2.7 0 .2.2.4.5.5.2.1.5-.1.6-.4.2-.4.2-.7-.2-1zM421.7 243.5c.4.2.7.1.9-.1.1-.1.2-.2.2-.3 0-.3-.3-.7-.5-.7-.4 0-.8.3-.8.7 0 .1.1.3.2.4zM431.3 236.3c.1.3.3.5.6.6.2.1.4 0 .5-.1.1-.1.2-.3.2-.5-.1-.3-.4-.5-.7-.5-.3 0-.4.1-.6.5zM428.7 232.7c-.3-.1-.5-.1-.7.1-.1.1-.2.3-.2.5.1.3.4.6.7.5.2 0 .4-.2.5-.5v-.4c-.2-.1-.3-.1-.3-.2zM422.8 249.6c0-.1 0-.1-.1-.2-.3-.4-1-.3-1.2.2v.4c.1.2.4.3.7.3.4-.2.6-.4.6-.7zM425.9 245.4c.4-.3.5-.4.5-.7-.1-.4-.3-.5-.8-.6-.1.1-.2.3-.3.4 0 .5.3.8.6.9z"/>
</svg>
