<svg xmlns="http://www.w3.org/2000/svg" width="40.8" height="67.1" style="overflow:visible;enable-background:new 0 0 40.8 67.1" xml:space="preserve">
    <style>
        .st0{fill:#7a6a56}.st1{fill:#e3e3e3}.st2{fill:#fff}.st3{fill:#e7d9e0}
    </style>
    <path class="st0" d="M35.2 37.5v.5c.1.3.2.7.3 1 .1.1.1.3 0 .4 0 .1-.1.2-.1.3-.1.2-.1.5-.1.7v.5c0 .2-.1.3 0 .5.2.2.2.6.5.8 0 0 .1.1.1.2.1.2.1.5.1.7v1.6c0 .5.1.9.3 1.3.1.3.3.7.6.9.2.3.4.6.4.9.1.4.3.7.5 1 .3.1.5.4.8.5 0 0 .1 0 .1.1l.6.6s.1.1.1.2c.1.4.5.7.5 1.2 0 .1.1.1.1.2.1.2.2.3.3.5 0 .1.1.1.1.2.1.2.1.4.2.6.1.2.1.4 0 .6-.1.5-.3 1-.7 1.3-.1.4-.1.8-.3 1.1-.3.4-.6.7-1.1.8h-.2c-.2 0-.4 0-.5.1-.1.2-.5.2-.8.3-.3-.1-.6-.3-.8-.5-.1-.2-.4-.4-.6-.6h-.1c-.1.1-.1.2-.2.3-.2.6-.4 1.2-.8 1.7 0 0 0 .1-.1.1-.1.3-.3.6-.5.9-.2.4-.5.7-.7 1.1-.2.2-.5.4-.6.7 0 .1-.1.1-.1.1-.2.1-.3.3-.4.4-.1.2-.3.4-.5.5l-.6.6-.3.3c-.4.3-.7.6-1.1.7-.1 0-.2.1-.3.2 0 .1-.1.3-.1.4-.3.2-.6.2-.9.2l-1.2.6c-.1.1-.3.2-.4.2l-.9.3c-.2.1-.5.2-.7.3-.2 0-.3.1-.4.2-.4 0-.4.1-.9.2-.5.2-1 .3-1.5.4-.5.1-.9.2-1.4.1h-.2c-.3.5-.6.5-.9.5-.3.1-.6.1-.9 0h-.2c-.3.1-.5.1-.8.1H15.2c-.3-.1-.7-.1-1-.2-.3 0-.6-.1-.9-.2-.5-.1-1-.3-1.5-.5-.1-.1-.3-.1-.5-.1s-.4-.1-.6-.2c-.4-.1-.8-.3-1.2-.5-.2-.1-.4-.2-.5-.3h-.1l-.9-.6-.3-.3c-.5-.4-.9-.9-1.3-1.3-.2-.2-.3-.4-.6-.6l-.1-.1c-.4-.6-.9-1.3-1.3-1.9 0-.1-.1-.1-.1-.2-.5-.7-.9-1.3-1.3-2.1-.2-.5-.4-.9-.6-1.4-.1-.2-.2-.4-.2-.6-.1-.2-.1-.4-.1-.7v-.6c-.1-.1-.1-.2-.1-.4V54c-.1-.2-.1-.3-.1-.5s0-.4-.1-.5c-.1-.2-.1-.3 0-.5V49.4c0-.2-.1-.3-.1-.5-.2-.5-.3-1-.5-1.4-.2 0-.2-.1-.2-.3 0-.2-.1-.3-.1-.5-.1-.4-.1-.7-.1-1.1 0-.3 0-.6-.1-.9v-2.5c0-.2-.1-.4 0-.7 0-.2-.1-.5-.1-.7-.1-.2-.2-.4-.2-.6 0-.2-.1-.5-.2-.7v-.4c-.1-.5-.1-.9 0-1.4v-.2c0-.5.1-1 .3-1.4.1-.2.2-.5.2-.7.1-.3.2-.6.4-.8.3-.4.5-.8.7-1.3v-1.2c0-.4.2-.7.5-1 .1-.1.2-.2.3-.2.1-.1.2-.1.3-.2.1-.4.3-.9.3-1.3 0-.1 0-.2.1-.3.1-.3.3-.5.5-.7l.3-.3c.1-.1.2-.2.2-.3v-.2c0-.4.1-.8.2-1.1.1-.3.2-.5.4-.7.3-.1.4-.3.7-.4.1 0 .2-.1.2-.2.2-.1.2-.2.2-.4 0-.4.2-.8.3-1.1.1-.1.3-.2.4-.4.2-.2.3-.4.6-.5.1 0 .1-.1.1-.1.2-.2.4-.4.4-.7.2-.3.3-.7.5-1 .2-.4.4-.7.6-1 0 0 .1-.1.1-.2.1-.2.3-.3.5-.4.2-.1.4-.1.7-.1h.1c.2-.1.4-.2.6-.4.3-.2.6-.4 1-.5.1 0 .2-.1.2-.2-.1 0-.1-.1-.2-.1-.1-.1-.2-.1-.1-.3.1-.1.1-.3.2-.4.1-.1.2-.1.4 0 .1.1.2.1.3.2.2 0 .4.1.6.1.1 0 .1-.1.2-.1.1-.1.1-.3.2-.4v-.3c-.2-.2-.4-.5-.4-.8 0-.1.1-.2.2-.2.3 0 .7-.1 1-.1.1 0 .2-.1.2-.2s0-.3-.1-.4c0 0 0-.1-.1-.1-.3-.2-.3-.5-.3-.8v-.2c.1-.1.2-.1.3-.2.1-.1.1-.3.1-.4 0-.3.1-.5.2-.7.1-.1.2-.2.2-.4v-1c0-.1.1-.1.2-.2s.2-.1.2-.3v-.3c0-.1-.1-.2-.1-.3 0-.3.2-.5.4-.7l.1-.1c-.2-.4-.2-.4-.2-.8 0-.1.2-.2.1-.4s-.2-.3-.3-.5c-.2-.2-.4-.6-.5-.8-.1-.1-.1-.3-.2-.4-.1-.1-.1-.3-.1-.4-.2-.3-.3-.6-.3-.9-.1-.2-.1-.5-.2-.7-.1-.2-.1-.4-.1-.5-.1-.2-.1-.3-.1-.5s-.1-.3-.1-.5c0-.4-.1-.7-.2-1.1.1-.2.1-.4.1-.6v-.1c.1-.1.3-.2.4-.3.4 0 .9.1 1.3.3.2.1.4.2.5.4.5.4 1.1.8 1.6 1.1.3.2.5.3.7.5.3.2.5.4.8.7l.1.1c.2.1.3.2.6.1h.2c.2.1.4.1.5.1h.6c.3.1.4.4.7.4.4-.1.7-.4 1-.7h.3c.3 0 .6.1.9-.1h.6c.2-.1.3-.3.6-.4.2 0 .4 0 .7.1.2 0 .3-.1.4-.2.1-.1.2-.1.3-.1.2 0 .4.1.6.2.2.1.4.1.6.1l.1.1v.2s0 .1.1.1c.1.1.2.1.3 0 0-.1.1-.2.1-.2 0-.1.1-.2.1-.3.1-.1.2-.2.3-.2h.7c.3-.5.6-.8.8-1.3.2-.3.4-.6.7-.8.1 0 .2-.1.3-.2.1-.2.3-.3.4-.4.3-.2.6-.4.9-.5.3 0 .7 0 1 .1.1 0 .1.1.2.1.2.1.3.2.3.5.1.3 0 .6 0 .9V2.5c-.1.4-.1.8-.1 1.2v.7c0 .3 0 .6-.1.9 0 .2-.1.4-.2.7-.1.2-.1.4-.2.7-.1.2-.1.3-.2.5v.2l.1.1c.2 0 .4.1.5.2.1.1.2.1.2.1.1 0 .2.1.3.2.1.1.2.2.3.4 0 .2 0 .3-.1.5 0 .1 0 .1-.1.2.2.1.3.3.4.6.1.1.1.3 0 .5 0 .1-.1.1-.1.2v.2c.1.1.1.2.2.2.1.1.2.3.2.5-.1.2-.1.4-.2.6v.2c.1.2.3.5.4.7-.1.3-.2.6-.5.7 0 .1-.1.2-.1.2 0 .1 0 .2-.1.3-.1.2-.3.4-.5.6-.1.1-.1.2-.2.4 0 .1 0 .1.1.2s.1.2.2.4v.2c.1 0 .2.1.3.1.2 0 .3.1.5.1.7.1 1.4.3 2 .4.2 0 .4 0 .6.1.2.1.4.1.7.1.4 0 .7 0 1.1.2l.1.1c.1.1.1.2 0 .4-.2.1-.3.2-.6.1 0 0-.1-.1-.1-.2-.4-.1-.7-.2-1.1-.2h-.3c-.2-.1-.4-.1-.6-.1-.3 0-.5-.1-.8-.1l-1.2-.3c-.2 0-.3-.1-.5-.1h-.2c-.2.2-.3.4-.6.5-.1 0-.1.1 0 .2l.6.3c.7.2 1.3.5 2 .7.1 0 .2.1.3.1.3.1.6.3.9.4.2.1.4.2.5.4v.2c0 .1-.1.1-.1.2s-.1.2-.1.2h-.2c-.1-.1-.3-.1-.3-.3 0-.1-.1-.2-.2-.3-.1 0-.2-.1-.4-.2l-.6-.3c-.2-.1-.4-.2-.6-.2-.5-.1-.9-.3-1.4-.5-.2-.1-.5-.2-.7-.2l-.3.3-.1.1s0 .1.1.1c.1.1.2.2.4.1h.1c.1 0 .2.1.3.2v.4l.5.5.3.3c.3.3.7.6 1.1.9.3.2.6.5.8.7.5.4.9.8 1.4 1.1.1.1.2.2.3.4v.2c0 .2-.2.3-.4.2-.1-.1-.3-.2-.4-.4 0-.1-.1-.2-.1-.3l-.4-.4c-.1-.1-.3-.2-.5-.4-.5-.5-1.1-.9-1.6-1.3-.2-.2-.4-.3-.6-.5-.1-.2-.3-.3-.5-.3-.1.1-.1.2-.1.3-.1.1-.2.2-.2.3 0 .1.1.2.1.2 0 .1.1.1.1.2 0 .2.2.4.2.6.1.2 0 .3 0 .5l-.3.3c0 .3-.1.5-.1.8.1.2.2.4.4.6.1 0 .2.1.3.1.1.2.2.4.1.6-.1.2-.2.3-.3.5v.2c0 .6.1.9 0 1.7v.1l.3.3.3 1.2c0 .1 0 .2.1.3-.1.3-.2.5-.3.7 0 .2-.1.3 0 .5 0 .1.2.2.1.4-.1.1-.3.3-.4.5 0 .1.2.1.2.2.1.1.2.1.1.3 0 .1 0 .1-.1.2s-.2.2-.2.3c.1.2.3.3.4.5 0 .2-.3.3-.3.5s.2.3.3.5v.2c0 .2-.2.4-.2.6l.2.2c.1.1.1.1 0 .2 0 .1-.1.1-.1.2-.1.3 0 .5.2.6.2.1.3.3.4.5 0 .2 0 .3-.1.4-.1.1-.2.1-.2.2s.1.2.2.3c.1.1.1.1.1.2s-.1.2-.1.3c.3 0 .4.3.5.7zm-4.8-17.7c-.1.1-.2.3-.4.4-.2.1-.4.3-.7.4-.1 0-.3.1-.4.2-.2.1-.4.2-.7.2-.2 0-.4.1-.7.2-.2.1-.5.1-.7.1H26c0 .1.1.1.2.1s.1.1.2.2c.1 0 .2-.1.3-.1.2 0 .3.1.3.2s.1.1.1.2h.1c.1 0 .1-.1.2-.1.1-.1.3-.1.4 0 .1.1.2.2.3.2.1 0 .2-.1.2-.2h.4l.3.3h.2c.2 0 .4 0 .5.2l.1.1c.1-.1.2-.1.3-.2h.3c.2-.3.2-.3.6-.5.1-.1.2-.3.2-.4.2-.2.4 0 .6 0 .1-.1.1-.2.2-.2.1-.1.2-.1.3-.1.1 0 .2-.1.2-.2.1-.1.1-.2 0-.3l-.2-.2c-.1-.1-.1-.3-.2-.4v-.1c0-.1 0-.2.1-.3.1-.1.2-.1.2-.2 0-.2-.1-.2-.2-.4-.1-.3-.1-.6-.4-.9l-.1.1c0 .1-.1.2-.1.4-.1.2-.3.3-.5.4-.2.1-.3.1-.5.2s-.3.2-.4.4v.1c.3.1.2.1.2.2zM28 63.5c.1 0 .1-.1.1-.1l-.1-.1c-.1-.1-.1-.1-.1-.2.1-.2.1-.4.2-.6-.1-.3-.1-.6-.1-.8v-.3c-.1-.3 0-.7 0-.9.1-.2.2-.3.4-.5s.4-.3.6-.3h.2c.1 0 .1 0 .2.1 0 .1.1.2.1.3 0 .1 0 .1-.1.2l-.3.3c0 .1.1.1.2.1.1.1.1.1.2.1.1.2.1.4.2.5.1.2.1.4-.1.5 0 .1.2.1.2.2.1.1 0 .2 0 .4-.2.1-.3.3-.5.4l.1.1c.1 0 .3 0 .4-.1.4-.2.8-.5 1.2-.9.1-.2.3-.4.4-.5l.3-.3.9-.9c.1-.1.2-.2.2-.4 0-.1-.1-.2-.2-.2-.1-.1-.3-.1-.5-.2h-.4c-.1 0-.3-.1-.4 0-.1 0-.3-.1-.4-.1-.1-.1-.1-.2-.1-.2.1-.2.1-.4 0-.5l-.1-.1c-.1.2-.2.3-.2.4 0 0-.1 0-.1.1-.2.1-.3.1-.4-.1v-.4c-.1 0-.2.1-.3.1-.1 0-.2.1-.3.1-.1 0-.2 0-.3.1-.1.1-.1.3-.1.3-.1.2-.2.2-.3.2-.1 0-.1.1-.2.2v.6c-.1.2-.2.4-.4.6-.3.2-.6.2-1 .3h-.2c-.3-.1-.6-.1-.9-.1-.2 0-.3 0-.5-.1-.2.1-.3.1-.5.3.3.1.3.1.4.4 0 .1 0 .1-.1.2 0 .1-.1.1-.1.2l-.1.1c.1.1.2.2.4.3.1.1.1.2 0 .3l-.3.3c0 .1.1.2.1.2-.1.2-.2.4-.4.7-.1.1-.2.2-.4.3-.1.1-.3.2-.4.3-.1.2-.3.2-.5.1-.1 0-.2-.1-.2-.1-.2 0-.4.2-.6.3h-.3c-.3 0-.4-.1-.4-.4v-.2c-.2-.1-.4-.2-.6-.2-.1-.1-.1-.2-.2-.3-.1-.1-.1-.2-.2-.2V63c.1-.2.3-.4.5-.4.1-.1 0-.2.1-.4s.1-.3.2-.5c-.3.1-.7.2-1 .3-.1 0-.2 0-.3.1l-.6.3c-.2.1-.4.1-.6.2-.1.1-.3.1-.5.2s-.4.2-.6.2c-.2.1-.4.1-.7.1h-2.1c-.2 0-.3-.1-.5 0h-.1c-.3-.1-.6-.1-.9-.3-.2-.1-.4-.2-.6-.2h-.1c-.3-.1-.5-.2-.8-.3-.1 0-.1-.1-.2-.1-.4 0-.8-.3-1.1-.5-.3-.2-.5-.4-.8-.6-.1-.1-.2-.2-.2-.3-.2-.1-.4-.3-.5-.5-.2-.2-.3-.4-.5-.6-.4-.1-.7-.5-1.1-.7l-.3-.3c-.4-.2-.7-.6-.9-.9-.1-.1-.2-.2-.2-.3l-.1-.1c-.1-.2-.2-.4-.3-.5-.2-.3-.4-.6-.5-1 0-.1 0-.1-.1-.2-.1-.4-.2-.7-.3-1.1 0-.1 0-.2-.1-.3 0-.1-.1-.2-.1-.4 0-.4-.2-.8-.4-1.2 0-.1.1-.2.1-.3.3-.1.6 0 .8.2 0 .2.1.4.1.6 0 .4.2.8.2 1.1 0 .4.2.7.3 1l.3.6c.1.2.2.4.3.5.1.1.2.3.3.4.3.6.8 1 1.4 1.3.1 0 .2.1.3.1.2.1.3.2.5.3l.1.1c.4.2.6.5.8.9 0 .1.1.1.1.2.2.2.5.4.7.6.1.1.1.1.2.1.2.1.5.3.7.4.1.1.2.1.3.2.4.1.7.2 1 .2.2 0 .4.1.6.2l1.2.3h.1c.5 0 .9.1 1.3.1h.1c.4-.1.9-.1 1.3-.1.3 0 .6-.1.9-.3.3-.2.7-.3 1.1-.5l.9-.3c.1 0 .2-.1.3-.1.1 0 .1-.1.1-.2.1-.2.2-.5.4-.6l.4-.4c.2-.1.4-.1.5.1.1.1.1.3 0 .3-.1.2-.3.3-.4.5l.1.1h.1c.3-.1.5-.1.8-.2.3 0 .5-.1.8-.1h.3l.3-.3h.4c.3 0 .7 0 1 .1.1 0 .2.1.4.1h.7c.2 0 .3 0 .4-.2.1-.1.1-.2.2-.2.1-.2 0-.3 0-.4 0-.2-.1-.4-.1-.7 0-.1-.1-.3-.1-.4l-.1-.1c-.3-.3-.6-.5-1-.6-.1 0-.2-.1-.3-.1h-.6c-.2 0-.3 0-.5-.1h-.3c-.1 0-.3-.1-.5-.2h-.9c-.3-.1-.5-.2-.8-.4H22c-.1 0-.3-.1-.3-.2 0-.2-.2-.3-.2-.5.1-.2.1-.3.2-.4.2-.1.5 0 .7 0 .5-.2 1-.4 1.4-.8.1-.1.2-.1.4-.2h.6c.1 0 .2-.1.3-.1.1-.1.2-.1.3-.3.1-.3.3-.5.3-.9v-.2c.1-.1.2-.3.3-.4.2-.1.3-.1.5-.1h.4c.2-.1.3-.2.5-.3.1-.2.2-.3.3-.5.1-.4.3-.8.3-1.2.1-.3.1-.6.1-1 0-.1 0-.2.1-.4.1-.3.1-.6 0-.9 0-.1 0-.2.1-.2h.3l.1-.1V46.9c.1-.3.1-.6.1-.9 0-.1-.1-.2-.1-.3 0-.1-.1-.2-.1-.2 0-.1 0-.2.1-.2h.4l.1-.1c0-.4-.1-.7-.2-1.1-.2-.2-.3-.4-.5-.7 0 0 0-.1.1-.1h.2c.1 0 .2.1.3.1 0 0 .1 0 .2-.1v-.1l-.3-.6-.3-.6-.3-.3c-.2-.1-.4-.2-.6-.4v-.1c.1-.1.2-.2.3-.2h.2c.1 0 .2.1.3.1.1 0 .1-.1.1-.1-.1-.2-.2-.4-.4-.6-.1-.2-.3-.3-.5-.4-.8.1-.8 0-.9 0v-.2c0-.2-.1-.3-.3-.4-.3-.1-.5-.2-.7-.5 0-.1 0-.2-.1-.3 0-.1 0-.1.1-.1.1-.1.2-.1.3-.1.1.1.3.2.5.3.1 0 .3.1.5.2.1 0 .2.1.3.1.2.1.2.2.2.4v.1c0 .2.2.2.3.3.1.1.1.2.2.3.2.3.4.6.5.8.1.1.1.1.1.4-.1.1-.1.2-.2.3.1.3.3.6.4 1 .1.3.2.7.3 1 0 .2-.2.3-.2.6 0 .1.1.3.1.5.1.4.1.8-.2 1.1l-.1.1c-.1.2 0 .5-.1.7-.1.2 0 .5-.2.7.1.2.1.4.1.7v.6l.1.1c.1 0 .2 0 .2-.1l.1-.1c.2-.1.3 0 .5.1 0 .1.1.1.2.2.2.2.3.5.5.7.2.3.5.5.8.7.2.1.5.3.6.5.2 0 .4-.2.5-.2h.5c.2.1.3.3.5.4.1.1.2.3.4.4.1 0 .1.1.1.1.1.2.3.3.4.5.4.4.7.8.9 1.4 0 .1 0 .3.1.5v.8c0 .2.1.3.2.4h.2c.2 0 .4.1.6.3.2.2.3.4.5.5.2 0 .4.1.5-.1 0-.2 0-.4-.1-.6-.2-.3-.3-.6-.5-.9-.1-.1 0-.2.1-.3h.1c.3 0 .6.1.7.4.1.2.2.4.3.7 0 .2.1.3.2.5.2.1.3-.1.4-.1 0 0 .1 0 .1-.1l.4-.4v-.6c0-.1-.1-.3-.2-.4l-.9-1.2c0-.1 0-.1.1-.2s.1-.1.3-.2c.1 0 .2.1.3.1.1.2.2.4.4.6.2.2.3.4.6.5 0 0 .1-.1.2-.1 0-.2 0-.4.1-.6 0-.3-.1-.4-.2-.6-.2-.4-.5-.7-.7-1.1-.2-.3-.3-.5-.4-.9-.2-.2-.3-.4-.5-.6-.1-.1-.2-.1-.3-.2-.3-.1-.4-.2-.7-.4-.3-.4-.6-.8-.8-1.3 0-.1-.1-.2-.1-.2 0-.3-.2-.6-.4-.9-.2-.2-.3-.4-.4-.6 0-.2-.1-.4-.1-.7 0-.2-.1-.3-.1-.5.1-.7 0-1.4 0-2.1 0-.3-.1-.5-.2-.8-.1-.1-.1-.2-.2-.3-.1-.2-.2-.4-.3-.5v-.2c0-.7 0-.7-.2-1.4 0-.2.1-.3.1-.5v-.8c0-.2-.1-.4-.1-.5 0-.2.1-.3.1-.5v-.7c0-.1-.1-.2-.2-.2h-.2c-.2 0-.3-.2-.3-.4v-.2c0-.1.1-.2.1-.3-.1-.3-.1-.5-.2-.8 0-.1.1-.2.1-.3 0-.1-.1-.2-.2-.4 0-.3-.1-.6.1-.9-.1-.1-.1-.2-.2-.3 0-.1-.1-.2-.1-.2 0-.2.1-.3.1-.5 0-.1 0-.2-.1-.3 0 0-.1-.1-.1-.2-.1-.1-.1-.2 0-.3 0-.1.1-.2.1-.2 0-.2-.2-.2-.2-.4 0-.1-.1-.2-.2-.3-.1-.1-.1-.2-.1-.3.1-.2.2-.2.4-.3h.2c.1 0 .1-.1.2-.2 0-.2-.3-.3-.3-.6.1-.3.2-.7.3-1.1.1-.1.1-.2.2-.3v-.1c0-.1-.1-.2-.1-.3-.1-.2-.1-.5-.2-.7-.1-.2-.2-.4-.3-.7.1-.3.1-.7.1-1 0-.2 0-.5.1-.7 0-.1-.1-.2-.1-.3v-.4c.1-.1.1-.1.1-.2 0 0 0-.1-.1-.1l-.1-.1c-.2-.2-.3-.4-.2-.7-.1-.1-.1-.2-.2-.2v-.1c0-.1 0-.1-.1-.1h-.1c-.1 0-.2-.1-.3-.1-.2.1-.2.1-.1.2s.1.3.1.4c0 .1-.1.2-.2.2h-.4c-.1.1-.2.2-.4.3-.1.1-.2.1-.4.1h-.1l-.3.3c-.1.1-.3.1-.4.1-.1-.1-.2-.1-.3-.2-.2 0-.3.1-.4.1-.1 0-.2 0-.2-.1-.1-.1-.2-.3-.3-.5-.1.1-.2.2-.3.2-.2.1-.3.1-.5 0-.1 0-.1-.1-.1-.2h-.1c-.1.1-.3.1-.5.1-.2-.4-.2-.4-.3-.7-.2.1-.3.2-.5.3-.1.1-.1.2-.2.2h-.4c-.1 0-.2-.1-.2-.2s0-.2-.1-.3h-.1c-.1.1-.3 0-.4 0-.1 0-.1-.1-.2-.1-.1-.1-.1-.1-.1-.3v-.4c0-.1.1-.2.2-.3.1-.1.2-.1.3-.1.1 0 .2.1.4.1.1 0 .1 0 .2-.1v-.1l-.9-.3c-.3 0-.6-.1-.8-.2-.2 0-.4.1-.6.1-.7 0-1.3-.1-2-.2-.2-.1-.3-.2-.5-.3-.2-.1-.3-.2-.5-.3H20.2c-.3.1-.5.3-.8.4-.3.1-.5.2-.8.3 0 0-.1 0-.1.1v.1s0 .1.1.1h.2c.2 0 .5.1.5.4 0 .1 0 .2.1.2h.1c.2 0 .2-.2.4-.2.1 0 .5.1.9.2.1.2.3.3.4.5.1.1.2.3.1.5v.2c-.1.2-.2.2-.3.3-.1.1-.2.2-.2.3-.3.1-.5 0-.6-.3-.1-.1-.3-.2-.5-.3 0-.1-.1-.2-.1-.3-.1-.1-.3-.1-.4-.1-.2-.1-.4-.4-.5-.5-.2-.1-.3 0-.4 0-.3-.1-.4-.2-.5-.4v-.1c0-.1-.1-.1-.2-.1-.6.1-1.1.4-1.5.8 0 0-.1.1-.1.2 0 .3-.2.4-.4.4h-.1c-.2-.1-.2-.2-.2-.3 0-.1.1-.2.1-.3.3-.2.5-.4.6-.7.3-.3.7-.3 1.1-.6v-.4c-.1-.2-.3-.2-.5-.3-.1-.1-.1-.3-.2-.5-.1-.1-.3-.2-.4-.4 0-.1-.1-.2-.2-.2-.4-.1-.7 0-1.1.1-.3.1-.6.2-.9.4h-.4c-.1-.1-.2-.2-.1-.3.1-.1.2-.2.3-.2.3-.1.6-.3.9-.3h.3c.2 0 .5-.1.7-.1 0-.2-.2-.2-.3-.3-.1-.2-.1-.5-.3-.6-.2 0-.4.1-.5.1-.1 0-.2.1-.2.3 0 .1 0 .2-.1.2-.1.2-.2.3-.3.3-.2 0-.4.1-.5.1-.2 0-.4 0-.5.1-.1 0-.2.1-.2.1 0 .1.1.2.1.2 0 .1-.1.2-.2.2-.3 0-.6.1-1 .1-.2.1-.4.2-.5.4-.3.2-.6.3-.9.3-.2 0-.4.1-.5.2-.1.1-.3.2-.4.4 0 .1-.1.2-.1.3-.3.4-.5.7-.6 1.2 0 .2-.1.4-.2.6-.1.1-.1.2-.2.4-.3.2-.5.5-.8.7-.2.1-.3.3-.5.4 0 .2-.1.4-.1.5-.1.2-.1.3-.1.5s-.1.4-.2.6c-.1.5-.1.6-.2.6-.4.2-.8.4-1.1.7-.1.3-.2.7-.2 1.1v.4c-.1.2-.2.4-.4.5-.1 0-.1.1-.2.2-.5.4-.4.4-.6 1-.1.2-.1.4-.1.5 0 .1-.1.3-.1.4-.1.2-.3.4-.5.6-.1.1-.2.2-.4.3-.1.1-.1.2-.2.2-.2.7-.2 1.3-.2 2 .1.2.2.1.4.2 0 0 .1 0 .1.1l.2.2v.2c-.1.2-.3.3-.4.4-.1.1-.2.1-.3.2h-.5l-.1.1c-.1.1-.1.2-.1.3-.2.4-.3.8-.5 1.1v.2c-.1.5-.2 1-.1 1.5v.2c.1.1.2.1.3.1.1 0 .2 0 .3.1l.1-.1c0-.1 0-.2.1-.3.1-.2.2-.3.3-.3.2-.1.4-.1.6-.2h.3c.1 0 .2.1.3.2V38.4c-.1.2-.2.4-.2.6v.2c0-.3 0-.3.1-.3.1-.1.1-.3.2-.4.1-.1.1-.2.2-.3.2-.2.4-.3.6-.2.2.2.3.4.4.7 0 .1-.1.3-.1.4v.4c0 .1-.1.2-.1.2s-.1.1-.2.1-.2-.1-.3-.1c-.1 0-.2 0-.3.1-.1.2-.1.2-.3.3h-.1c-.1-.1-.1-.2-.2-.3-.2 0-.3-.1-.5-.1l-.1.1v.1c0 .1 0 .2-.1.3-.1.1-.2 0-.3 0-.1-.1-.2-.1-.2-.2h-.1c-.2.1-.3.1-.5.2 0 0 0 .1-.1.1 0 .2.1.3.2.4.1.1.1.3.2.5V44c0 .2 0 .5.1.7.1.3.1.6.1.9 0 .3 0 .6.1.9.1.3.1.6.2 1 .1.2.2.5.4.8v.1c.1.3.2.5.3.8 0 .3.1.5 0 .8V50.6c0 .1-.1.2 0 .4.1 0 .2-.1.3-.1.2 0 .4 0 .6.1.1 0 .2.1.3.2v.1c-.1.2-.1.4-.1.7 0 .1-.1.2-.3.2-.1 0-.3-.1-.4-.1-.1-.1-.1-.2-.1-.3-.1-.1-.3-.1-.4-.1v.1c.1.2.1.4 0 .6 0 .2-.1.3 0 .5h.2c.3 0 .4.2.5.4 0 .3-.2.4-.3.6-.1.3 0 .6 0 .9 0 .4.1 1 .2 1.3 0 0 0 .1.1.1 0 0 .1 0 .1-.1 0 0 0-.1.1-.1l.1-.1c.2-.1.4-.3.7-.3.3.1.4.2.5.5 0 .1 0 .1-.1.2s-.3.1-.4.2c-.1.1-.2.1-.3.2-.2 0-.3.1-.4.1l-.1.1c0 .1.1.2.2.2h.3c.2-.2.4-.3.6-.5.2 0 .4.1.6.2.1.1.1.4 0 .4-.1.1-.2.1-.3.2-.2.1-.4.2-.7.3-.1 0-.2.2-.1.3.1.1.1.2.2.2s.2-.1.3-.1c.3-.1.5-.2.7-.3h.2c.1 0 .2 0 .2.1.1.1.1.3.2.4.1 0 .2.1.3.1v.2c0 .2-.1.4-.3.5-.1.1-.3.1-.4.1-.2.1-.4 0-.5-.1l-.1-.1s-.1.1 0 .1c.1.2.2.4.4.6.1.2.2.3.3.4.1.2.2.3.3.5.1.1.1.3.2.4.2.2.4.5.5.7 0 .1.1.1.1.1l.9.9.3.3c.2.2.4.3.5.5.1.2.3.3.5.4.1.1.3.2.4.3.4.2.7.4 1.1.6.3.1.6.3 1 .4h.2s.1 0 .1-.1l.1-.1c0-.2-.1-.2-.2-.3-.1-.2 0-.4.1-.6.1-.1.2-.1.2-.2 0 0 0-.1-.1-.1h-.2c-.1 0-.1-.1-.2-.1-.1-.1-.1-.1-.1-.2 0-.2 0-.4.1-.6 0-.1.1-.2.2-.2.2-.1.4-.2.5-.3.1-.1.2-.1.4 0 .1 0 .2.1.3.2v.2c0 .1-.1.2-.1.3.1.1.1.1.2.1s.2-.1.3-.1c.1 0 .2 0 .3-.1.2.1.3.2.4.4 0 0 .1 0 .1.1h.1c.3 0 .6-.1.9-.2.1-.1.2-.2.3-.2h.3c.1 0 .2.1.3.1.1.1.2.2.2.4s-.1.3-.2.5v.4c0 .2-.2.3-.3.3h-.3c.1.1.2.2.2.3.1.1.1.2 0 .3-.1.1-.2.2-.4.3h-.9c-.2-.1-.3-.2-.4-.4.1-.2.3-.3.3-.5v-.2l-.1-.1c-.2.1-.5.2-.7.3v.1l.2.2v.3c0 .2-.1.3-.3.3-.1 0-.2 0-.3.1.2.2.4.2.6.3.1 0 .2.1.4.1.3.1.5.2.8.2h.2c.2.1.4.1.6.1.3 0 .6 0 .9.1h1.5c.7-.1 1.5-.1 2.2-.1.1 0 .2-.1.3-.1.2-.1.4-.1.5-.1h.4c.5 0 .9 0 1.4-.3.1-.1.3-.1.4-.1.2 0 .3-.1.5-.2.3-.2.6-.2.9-.3.6-.1 1.1-.4 1.6-.6.2-.1.3-.2.5-.2.1 0 .2-.1.3-.1.2-.1.3-.2.5-.3.2-.1.3-.2.4-.3.1-.3.2-.4.3-.4zm5.3-47.6c-.1 0-.1-.1-.2-.1s-.3 0-.5-.1-.3-.2-.5-.3l-.6-.3c0-.1-.1-.2-.1-.3 0-.1 0-.2.1-.3.1 0 .2 0 .3.1.3.2.5.3.8.5.1 0 .2.1.3.1 0 0 .1 0 .1-.1v-.6c.1-.2.1-.4.3-.5.2-.1.4-.2.6-.4.1-.1.1-.3.1-.4v-.3c0-.1 0-.1.1-.1.1-.1.2-.1.3-.2 0 0 .1-.1 0-.2-.2-.2-.3-.4-.4-.6v-.1c0-.1 0-.2.1-.3.1-.1.2-.1.3-.2v-.1c0-.1-.1-.2-.2-.3-.2-.2-.4-.4-.5-.7 0-.1.1-.2.2-.3l.1-.1v-.2c-.1-.1-.3-.2-.4-.3-.2-.1-.2-.3-.2-.5 0-.1.1-.1.2-.2 0-.1 0-.2-.1-.2s-.2-.1-.4-.1c-.2-.3-.6-.5-.8-.9.1-.2.1-.5.3-.6 0 0 .1-.1.1-.2.2-.5.3-.8.3-1.2.1-.8.1-.8.1-1.7V2.2c.1-.4.1-.7.1-1.1l-.1-.1h-.6c-.2 0-.3.1-.4.2-.2.3-.5.5-.8.7-.4.3-.6.6-.8 1.1-.1.3-.2.5-.5.6-.4.3-.6.6-.8 1l-.1.1c-.3.2-.7.2-.8.4-.2 0-.3 0-.4-.1-.2-.2-.5-.3-.7-.5-.2-.1-.3 0-.5 0-.3.1-.6.2-.9.4-.1 0-.2-.1-.2-.1l-.3-.3c-.3 0-.4.3-.7.5 0 0-.1 0-.2.1-.1 0-.3-.1-.4-.1h-.1c-.2.1-.5.2-.8.1H23c0-.2 0-.1 0 0-.4.2-.6.5-1 .7-.2 0-.3-.1-.4-.1-.2 0-.3-.1-.4-.2l-.3-.3c-.2 0-.4 0-.5.1-.2 0-.3-.2-.5-.3h-.1c-.1.1-.2.2-.3.2-.2.1-.4.1-.5 0-.1-.1-.2-.3-.3-.5-.1-.2-.2-.3-.4-.4-.1 0-.1-.1-.2-.1-.3-.3-.6-.4-.9-.6-.4-.2-.7-.5-1-.8-.4-.4-.9-.6-1.3-.8-.3.1-.3.1-.4.3 0 .2.1.5.1.7 0 .2.1.5.2.7 0 .1 0 .2.1.3 0 .2.1.3.1.5v.7c0 .2.1.4.2.5l.3.6c.1.1.1.3.2.4v.1c.1.1.2.2.2.4.1.1.1.3.2.4l.3.3c.1 0 .1.1.2.1.1.1.1.3.1.4 0 .1.1.2.1.4-.1.1-.2.2-.3.4v.2c0 .1.1.1.1.2s.1.1.1.2c.1.1 0 .4-.1.5-.1.1-.2.2-.4.3-.1.3-.1.3 0 .7.1.2 0 .4-.1.6-.1.1-.2.1-.2.2-.1.1-.1.2-.2.2 0 .2.3.3.2.5l-.3.6c-.1.3 0 .6 0 .8 0 .2-.1.3-.2.4-.2.2-.2.4 0 .6.1.2.2.3.3.5v.4c-.1.2-.2.3-.3.4-.3.1-.5.2-.7.2-.1 0-.1.1-.2.1 0 .1 0 .2.2.2.2-.1.5-.2.8-.2.3 0 .5 0 .8-.1.2-.1.4-.2.7-.2.3-.1.6-.1.9-.1 0-.1.1-.1.1-.2-.2-.1-.4-.1-.5-.2-.1-.2-.3-.2-.4-.5 0-.1.1-.2.1-.3.1-.1.2-.2.4-.2.4.2.7.4 1 .7.1.1.2.2.3.4 0 0 .1 0 .1.1h.2c.2-.1.4-.1.6-.1.2 0 .4 0 .6-.1h.3c.3 0 .6 0 .9-.1.3 0 .5 0 .8.1.1 0 .3.1.3.3 0 .2-.1.3-.4.4-.1 0-.2-.1-.3-.1h-1.5c-.3.1-.7.1-1 .1h-.4c-.1 0-.2 0-.2.1-.1.1 0 .2 0 .4 0 0 0 .1.1.1.3.1.5.3.8.4.1 0 .3-.1.4-.1h.6c.2 0 .4 0 .6-.1.3 0 .6-.1.9-.1.1 0 .2 0 .3.1.1.1.1.4-.1.5-.1 0-.2 0-.3.1-.5 0-1 .1-1.5.1h-.1s-.1.1-.1.2c0 0 0 .1.1.1.2.1.3.2.4.4 0 .1.1.1.1.1.1.1.2.1.2 0l.6-.3c.2-.1.3-.1.5-.2.2 0 .3 0 .4.2-.1.3-.2.4-.4.5-.1.1-.3.1-.4.2l-.1.1c.2.1.3.2.5.2.2.1.5.1.7.1.3 0 .7 0 .9-.2.1-.1.2-.1.3-.1h.2l.3.3c.2.2.5.4.9.5.3.1.5.1.8.1h.5c.1 0 .2 0 .4.1.1 0 .2-.1.3-.1h.3c.8-.3 1.4-.6 2.1-1 .2-.2.3-.5.4-.7.1-.1.3-.2.4-.3h.2c.1 0 .3 0 .4-.1.1-.1.2-.1.2-.3v-.4l-.3-.3c-.1-.1-.3-.3-.5-.3-.1 0-.2-.1-.3-.2 0-.1 0-.2.1-.3.1-.1.2-.1.3-.1.1 0 .3.1.4.2.1.1.3.2.4.3.1.1.3.2.4.3h.5v-.1l-.1-.1c-.3-.2-.6-.3-.9-.5-.2-.2-.1-.3.1-.4.2 0 .4.1.5.1.1.1.3.2.4.3.1.1.2.1.3.1.1 0 .2.1.3 0 .1-.1 0-.1 0-.2-.2-.3-.1-.4 0-.5zm-8.8 39.3h-.7c-.1.1-.2.2-.3.2-.1.1-.2.2-.4.3-.1.1-.2.1-.4.2l.1.1c.3 0 .5.2.8.2h.2c.2.1.3.1.5.1s.4 0 .5.1h.3c.8.1 1.1.3 1.9.7.2.2.3.4.5.6h.1c.1 0 .2 0 .3-.1.4-.2.8-.3 1.2-.5.5-.4 1-.8 1.4-1.5v-.8c.1-.3.1-.5.1-.8v-1c0-.2.1-.5.2-.8.1-.2.2-.5.3-.7 0-.2-.1-.3-.2-.3-.3-.1-.6-.3-.8-.6-.2-.1-.3-.3-.5-.5l-.6-.6c-.2 0-.2.2-.3.2-.1.1-.3.1-.4.1-.2-.1-.2-.2-.3-.3 0-.1 0-.2-.1-.3v.1c0 .4 0 .9-.1 1.3-.1.3-.3.7-.3 1.1l-.3.9c0 .1-.1.1-.1.2-.3.2-.5.4-.9.5-.1 0-.2 0-.4.1s-.4.2-.4.5c0 .2-.2.3-.2.5 0 .1 0 .1-.1.2s-.2.3-.3.4c.2 0 0 .1-.3.2zm6.6 2.4c.1-.2.1-.4.2-.6.1-.1.2-.1.4-.1.1 0 .2.1.3.2v.5c0 .1.1.1.1.1h.1c.1-.1.1-.2.2-.2.1-.1.2-.1.4-.1.1.1.2.1.3.3 0 .1-.1.2-.1.3 0 .1.1.2.1.4-.1.2-.3.4-.4.6v.2c.1 0 .1-.1.2-.1.1-.1.2-.3.3-.4.1-.1.1-.2.2-.3 0 0 .1-.1.1-.2 0-.3.2-.4.3-.7.3-.4.4-.8.7-1.2v-1.5c0-.1 0-.2-.1-.2h-.3c-.2.1-.3 0-.4-.1h-.1c-.1.1-.1.2-.1.4s-.1.3-.3.4c-.1 0-.1.1-.2.1s-.1 0-.2-.1c-.2.1-.4.1-.7.2-.1 0-.1-.1-.2-.1 0 0-.1 0-.1.1s-.1.1-.1.2c-.1.3-.2.6-.4.8-.1.1-.2.3-.3.5-.1.1-.2.2-.3.2-.1.2-.1.4 0 .6.2-.2.3-.2.4-.2zM17.2 19c0 .1 0 .2-.1.4.2.1.4.1.5.2.1.1.2.2.2.3v.4l.1.1c.1 0 .2-.1.3-.1.4-.2.7-.3 1.1-.5.1-.1.2-.1.3-.1.1 0 .2-.1.3-.2 0 0 0-.1-.1-.2s-.3-.2-.4-.3c-.1-.1-.2-.2-.4-.2-.1-.1-.3-.2-.4-.3-.2 0-.3 0-.5.1-.3.1-.6.1-1 .1l-.1.1c.2.1.2.2.2.2zM16 17.6c.2.3.4.5.7.6.2 0 .4 0 .7-.1.2-.1.4-.1.5-.2v-.7c0-.2-.1-.2-.3-.2-.3 0-.6.1-.9.2-.2 0-.4.1-.5.1-.1 0-.1.1-.2.1v.2zM22.4 62c.2-.1.3-.4.6-.4.1 0 .1 0 .2.1s.2.2.3.2c.1-.2 0-.4.1-.6.1-.1.3-.2.3-.5l-.1-.1h-.2c-.2.1-.5.1-.7.1-.2 0-.2 0-.2.2s0 .3-.2.4c-.1.1-.2.1-.2.3 0 .2 0 .3.1.3zm10.5-9.9s.1 0 0 0c.1-.1.1-.2.1-.2-.1-.1-.2-.2-.4-.3-.2 0-.2 0-.3.2.1.1.3.2.4.3h.2zm.1.7v.7h.1l.1-.1V52.6l-.2.2zM22.9 63s.1 0 0 0c.1-.2.2-.4.2-.5-.1 0-.2.1-.2.2s-.1.2 0 .3zm5-40.1c0 .1.1.1.1 0 0 0 .1-.1.1-.2v-.1c-.1.1-.2.2-.2.3zm4.3 30.5c-.1-.1-.1-.1-.1 0 0 0 0 .1.1 0-.1.1 0 .1 0 0zm2.1.4s.1-.1 0 0c.1-.1 0-.1 0-.1v.1c-.1-.1 0-.1 0 0zM12.2 64.9c.1 0 .1-.1 0 0 .1-.1 0-.1 0 0 0-.1-.1 0-.1 0 .1-.1.1 0 .1 0zm16.9-42.3s.1 0 0 0c.1-.1 0-.1 0 0 0-.1 0-.1 0 0 0-.1 0 0 0 0zm2.8 31.5s.1 0 0 0c.1 0 .1 0 0 0l.1-.1s-.1 0-.1.1z"/>
    <path class="st1" d="M27.3 63.9c-.2.1-.3.2-.5.3-.1.1-.2.1-.3.1-.2 0-.3.1-.5.2-.5.2-1 .5-1.6.6l-.9.3c-.1.1-.3.1-.5.2-.1 0-.3 0-.4.1-.4.3-.9.3-1.3.3h-.4c-.2 0-.4 0-.5.1-.1 0-.2.1-.3.1-.8 0-1.5 0-2.2.1h-1.5c-.3-.1-.6-.1-.9-.1-.2 0-.4 0-.6-.1h-.2c-.3 0-.6-.1-.8-.2-.1 0-.2-.1-.4-.1-.2-.1-.4-.1-.6-.3.1 0 .2 0 .3-.1.2 0 .3-.2.3-.3v-.3l-.2-.2v-.1c.2-.1.5-.2.7-.3 0 0 .1 0 .1.1v.2c0 .2-.2.3-.3.5.1.2.2.3.4.4h.9c.2-.1.3-.2.4-.3.1-.1.1-.2 0-.3-.1-.1-.2-.2-.2-.3h.3c.2 0 .3-.2.3-.3v-.4c.1-.2.2-.3.2-.5 0-.1-.1-.3-.2-.4-.1 0-.2-.1-.3-.1h-.3c-.1.1-.2.2-.3.2-.3.1-.6.2-.9.2H14s-.1 0-.1-.1c-.1-.2-.2-.3-.4-.4-.1 0-.2 0-.3.1-.1 0-.2.1-.3.1-.1 0-.2 0-.2-.1s.1-.2.1-.3v-.2c0-.1-.1-.2-.3-.2h-.4c-.2.1-.4.2-.5.3-.1 0-.2.1-.2.2 0 .2-.1.4-.1.6 0 .1 0 .2.1.2s.1.1.2.1h.2c.1 0 .1 0 .1.1-.1.1-.2.1-.2.2-.1.2-.2.4-.1.6 0 .1.2.2.2.3l-.1.1s-.1 0-.1.1h-.2c-.3-.1-.6-.3-1-.4-.4-.2-.8-.4-1.1-.6-.1-.1-.3-.2-.4-.3-.2-.1-.4-.2-.5-.4-.4.1-.6 0-.7-.2l-.3-.3-.9-.9-.1-.1c-.1-.3-.4-.5-.5-.7-.1-.1-.2-.2-.2-.4-.1-.2-.2-.3-.3-.5-.1-.2-.2-.3-.3-.4-.1-.2-.2-.4-.4-.6V59l.1.1c.2.1.3.1.5.1.1 0 .3-.1.4-.1.3-.1.5-.3.4-.5v-.2c-.1-.1-.2-.1-.3-.1-.1-.1-.1-.3-.2-.4 0-.1-.1-.1-.2-.1h-.2c-.2.1-.4.2-.6.2-.1 0-.2.1-.3.1-.1 0-.2-.1-.2-.2-.1-.1 0-.3.1-.4.2-.1.4-.2.7-.3.1-.1.2-.1.3-.2.1-.1.1-.3 0-.4-.2-.2-.4-.3-.6-.2-.2.2-.4.3-.6.5h-.3c-.1 0-.2-.1-.2-.2l.1-.1c.2 0 .3-.1.4-.1.1-.1.2-.1.3-.2.1-.1.3-.1.4-.2 0-.1.1-.2.1-.2-.1-.3-.2-.4-.5-.5-.2.1-.5.2-.7.3 0 .1-.1.1-.1.1s0 .1-.1.1c0 0-.1 0-.1.1 0 0-.1 0-.1-.1-.2-.3-.2-.9-.3-1.3 0-.3-.1-.6 0-.9.1-.2.3-.3.3-.6-.1-.2-.2-.4-.5-.4h-.2c-.1-.2-.1-.3 0-.5s0-.4 0-.6v-.1c.1 0 .3 0 .4.1.1.1 0 .2.1.3.1 0 .3.1.4.1.4 0 .4 0 .4-.2s0-.4.1-.7V51c-.1-.2-.2-.2-.3-.2-.2-.1-.4-.1-.6-.1-.1 0-.2.2-.3.1-.1-.1 0-.2 0-.4 0-.1.1-.2 0-.4v-.2c.1-.3-.1-.5 0-.8-.1-.3-.2-.5-.3-.8v-.1c-.3-.1-.4-.4-.5-.7-.1-.3-.2-.6-.2-1-.1-.3-.1-.6-.1-.9 0-.3 0-.6-.1-.9 0-.2-.1-.5-.1-.7v-2.8c-.1-.2-.2-.3-.2-.5 0 0-.2-.1-.2-.3 0 0 0-.1.1-.1.2-.1.3-.1.5-.2h.1c.1.1.2.1.2.2.1 0 .2.1.3 0 .1-.1.2-.2.1-.3v-.1c0-.1.1-.1.1-.1.2 0 .4.1.5.1.1.1.1.2.2.2h.1c.2 0 .2 0 .4-.3.1-.1.2-.1.3-.1.1 0 .2.1.3.1 0 0 .1 0 .2-.1s.1-.1.1-.2V39c0-.1.1-.3.1-.4-.1-.3-.3-.5-.4-.7-.3-.1-.5 0-.6.1-.1.1-.1.2-.2.3-.1.1-.1.3-.2.4l-.1.1c0-.1-.1-.1 0-.2.1-.2.2-.4.2-.6V37.7c0-.1-.1-.2-.3-.2h-.3c-.4.4-.6.5-.7.6-.2.1-.3.2-.3.3 0 .1 0 .2-.1.3 0 .1-.1.1-.1.1-.1 0-.2-.1-.3-.1-.1 0-.2 0-.3-.1v-.2c-.1-.5.1-1 .1-1.5v-.2c.1-.4.3-.8.4-1.2 0-.1.1-.2.1-.3l.1-.1h.5c.1-.1.2-.1.3-.2.2-.1.3-.3.4-.4v-.2l-.2-.2-.1-.1c-.1-.1-.3 0-.4-.2 0-.6 0-1.3.2-2 .1-.1.1-.2.2-.2.1-.1.2-.2.4-.3.2-.2.4-.4.4-.7 0-.1.1-.3.1-.4 0-.2.1-.4.1-.5.2-.5.1-.5.6-1l.2-.2c.2-.1.3-.3.4-.5v-.4c0-.4 0-.7.2-1.1.3-.3.7-.5 1.1-.7l.2-.2c.1-.2.2-.3.2-.6 0-.2 0-.3.1-.5s.1-.4.1-.5c.2-.2.3-.3.5-.4.3-.2.6-.5.8-.7.1-.1.1-.3.2-.4.1-.2.2-.4.2-.6.1-.4.3-.8.6-1.2 0-.1.1-.2.1-.3.2-.1.3-.3.4-.4.1-.1.3-.2.5-.2.3 0 .6-.2.9-.3.2-.1.4-.3.5-.4.3-.1.7-.1 1-.1.1 0 .2-.1.2-.2s-.1-.2-.1-.2c0-.1.1-.1.2-.1.2 0 .4-.1.5-.1.2 0 .4 0 .5-.1.2 0 .3-.2.3-.3 0-.1 0-.2.1-.2 0-.1.1-.2.2-.3.2 0 .4-.1.5-.1.2.2.1.5.3.6.1.1.3.1.3.3-.2 0-.5.1-.7.1h-.3c-.3 0-.6.1-.9.3-.1 0-.2.1-.3.2-.1.1 0 .2.1.3.1.1.2.1.4 0 .2-.2.5-.3.9-.4.3-.1.7-.1 1.1-.1.1.1.2.1.2.2.1.2.2.3.4.4.1.2 0 .4.2.5.2.1.4.1.5.3 0 .1.1.3 0 .4-.3.2-.7.3-1.1.6-.1.3-.3.5-.6.7 0 .1-.1.2-.1.3 0 .1 0 .2.2.3h.1c.2-.1.4-.2.4-.4 0-.1 0-.1.1-.2.4-.4.9-.7 1.5-.8.1 0 .2 0 .2.1v.1c.1.3.1.3.5.4.1 0 .2-.1.4 0 .2.2.3.4.5.5.1.1.3 0 .4.1 0 .1.1.2.1.3.2.1.3.2.5.3.1.2.3.4.6.3.1-.1.2-.2.2-.3l.3-.3v-.2c0-.2 0-.3-.1-.5s-.3-.4-.4-.5c-.4-.1-.8-.2-.9-.2-.1 0-.2.2-.4.2h-.1c-.1-.1-.1-.1-.1-.2 0-.2-.3-.4-.5-.4h-.2l-.1-.1v-.1l.1-.1c.3-.1.5-.2.8-.3.3-.1.5-.3.8-.4H20.3c.2.1.4.2.5.3.2.1.3.2.5.3.6.1 1.3.2 2 .2.2 0 .3-.1.6-.1.2.1.5.2.8.2.3.1.6.1.9.3v.1c0 .1-.1.1-.2.1s-.2-.1-.4-.1c-.1 0-.2 0-.3.1-.1.1-.2.2-.2.3v.4c0 .1 0 .2.1.3.1 0 .1.1.2.1.1.1.3.1.4 0h.1c.1.1.1.2.1.3 0 .1.1.2.2.2h.4c.1 0 .2-.2.2-.2.1-.1.3-.2.5-.3.1.3.1.3.3.7.2 0 .3 0 .5-.1h.1c0 .1 0 .2.1.2h.5c.1 0 .2-.1.3-.2.1.2.1.3.3.5.1.1.1.1.2.1s.3-.1.4-.1c.1.1.2.1.3.2.2 0 .3 0 .4-.1l.3-.3h.1c.2 0 .3 0 .4-.1.1-.1.2-.2.4-.3h.4c.1 0 .2-.1.2-.2s0-.3-.1-.4c-.1-.1 0-.1.1-.2.1.1.2.1.3.1h.1c.1 0 .1 0 .1.1v.1c0 .1.1.2.2.2-.1.3 0 .5.2.7l.1.1s0 .1.1.1c0 .1-.1.1-.1.2v.4c0 .1.1.2.1.3-.1.2-.1.5-.1.7 0 .3 0 .7-.1 1 .1.2.2.5.3.7.1.2.2.5.2.7 0 .1.1.2.1.3v.1c-.1.1-.1.2-.2.3 0 .4-.2.7-.3 1.1 0 .3.3.4.3.6 0 .1-.1.1-.2.2h-.2c-.1 0-.3.1-.4.3 0 .1 0 .2.1.3.1.1.2.2.2.3 0 .2.2.2.2.4 0 .1 0 .1-.1.2v.3c0 .1.1.1.1.2.1.1.1.2.1.3 0 .2-.1.3-.1.5 0 .1 0 .2.1.2.1.1.1.2.2.3-.1.3-.1.6-.1.9.1.2.2.3.2.4 0 .1-.1.2-.1.3.1.3.1.5.2.8 0 .1-.1.2-.1.3v.2c0 .2.1.4.3.4h.2c.1 0 .2.1.2.2v.2c.1.2.1.4 0 .5 0 .2-.1.3-.1.5s.1.4.1.5v.8c0 .1-.1.3-.1.5.2.6.2.6.2 1.4v.2c.1.1.2.3.3.5 0 .1.1.2.2.3.2.2.2.5.2.8 0 .7.1 1.4 0 2.1.1.2.1.4.1.5.1.2.1.5.1.7.1.3.3.5.4.6.2.2.4.5.4.9 0 .1 0 .2.1.2.2.5.5.9.8 1.3.2.1.4.3.7.4.1 0 .2.1.3.2.2.2.4.4.5.6.1.3.2.6.4.9.2.4.5.7.7 1.1.1.2.2.3.2.6 0 .2 0 .4-.1.6-.1.1-.1.1-.2.1-.2-.1-.4-.3-.6-.5-.2-.2-.3-.4-.4-.6-.1-.1-.2-.1-.3-.1-.2.1-.2.1-.3.2 0 0 0 .1-.1.2.3.4.5.8.9 1.2.1.1.2.2.2.4v.6l-.4.4s-.1 0-.1.1c-.1 0-.3.1-.4.1-.1-.2-.1-.3-.2-.5s-.2-.5-.3-.7c-.1-.3-.4-.4-.7-.4h-.1c-.1.1-.2.2-.1.3.2.3.3.6.5.9 0 .2.1.4.1.6-.2.2-.3.1-.5.1-.2-.2-.3-.4-.5-.5-.2-.2-.3-.3-.6-.3h-.2c-.2-.1-.2-.2-.2-.4V54c-.1-.2-.1-.4-.1-.5-.2-.5-.5-1-.9-1.4-.1-.2-.3-.3-.4-.5 0-.1-.1-.1-.1-.1-.2-.1-.3-.2-.4-.4-.1-.1-.3-.3-.5-.4H32c-.2 0-.3.2-.5.2-.1-.2-.3-.4-.6-.5-.3-.2-.6-.4-.8-.7-.2-.2-.4-.5-.5-.7-.1-.1-.1-.2-.2-.2-.2-.1-.3-.1-.5-.1l-.1.1c-.1.1-.1.1-.2.1 0 0-.1 0-.1-.1-.1-.2-.1-.4 0-.6 0-.2 0-.5-.1-.7.1-.2.1-.5.2-.7.1-.2 0-.5.1-.7l.1-.1c.3-.3.3-.7.2-1.1-.1-.2-.1-.4-.1-.5 0-.2.2-.4.2-.6-.1-.4-.2-.7-.3-1-.1-.3-.3-.6-.4-1 .1-.1.1-.2.2-.3 0-.3 0-.3-.1-.4-.2-.3-.3-.6-.5-.8-.1-.1-.1-.2-.2-.3l-.3-.3v-.1c0-.2 0-.3-.2-.4-.1-.1-.2-.1-.3-.1-.2-.1-.4-.1-.5-.2-.2-.1-.3-.2-.5-.3-.1-.1-.2 0-.3.1 0 0 0 .1-.1.1 0 .1 0 .2.1.3.2.2.4.4.7.5.2 0 .3.2.3.4v.2c.1 0 .1.1.2.1.2.1.4.2.5.4.1.2.3.4.4.6 0 .1 0 .1-.1.1s-.2-.1-.3-.1h-.2c-.1 0-.2 0-.3.2v.1c.2.2.4.3.6.4l.3.3.3.6.3.6v.1c-.1 0-.1.1-.2.1s-.2-.1-.3-.1h-.2c-.1 0-.1.1-.1.1.2.2.3.5.5.7.1.4.2.7.2 1.1 0 0-.1 0-.1.1h-.4c-.1 0-.1.1-.1.2s.1.1.1.2.1.2.1.3c0 .3.1.6-.1.9V48.1l-.1.1h-.3c-.1.1-.1.1-.1.2.1.3.1.6 0 .9 0 .1-.1.2-.1.4 0 .3-.1.6-.1 1l-.3 1.2c-.1.2-.1.3-.3.5-.1.1-.3.2-.5.3h-.4c-.2 0-.3 0-.5.1-.1.1-.2.2-.3.4v.2c0 .3-.2.6-.3.9-.1.1-.1.2-.3.3-.1 0-.2.1-.3.1h-.6c-.1.1-.2.1-.4.2-.4.4-.9.6-1.4.8h-.7c-.1.1-.2.2-.2.4.1.2.3.3.2.5 0 .1.1.2.3.2h.4c.2.1.5.2.8.4h.9c.2.1.4.1.5.2h.3c.2.1.3.1.5.1h.6c.1 0 .2.1.3.1.4.1.8.3 1 .6l.1.1c0 .1.1.2.1.4.1.2.1.4.1.7v.4l-.2.2c-.1.1-.3.2-.4.2-.2 0-.4-.1-.7 0-.1 0-.2 0-.4-.1-.3-.1-.7-.1-1-.1h-.4l-.3.3H23c-.3 0-.5.1-.8.1-.3 0-.5.1-.8.2h-.1s-.1 0-.1-.1c.1-.2.3-.3.4-.5.1-.1 0-.2 0-.3-.1-.1-.3-.2-.5-.1l-.4.4c-.2.2-.3.4-.4.6 0 .2 0 .2-.1.2s-.2.1-.3.1l-.9.3c-.3.2-.7.3-1.1.5l-.9.3c-.4 0-.9.1-1.3.1h-.1c-.5 0-.9-.1-1.3-.1h-.1l-1.2-.3c-.2-.1-.4-.1-.6-.2-.3-.1-.7-.2-1-.2-.1-.1-.2-.1-.3-.2-.2-.2-.4-.3-.7-.4-.1 0-.1-.1-.2-.1-.3-.2-.5-.4-.7-.6-.1-.1-.1-.1-.1-.2.2-.8 0-1.1-.4-1.3 0 0-.1 0-.1-.1-.1-.1-.3-.2-.5-.3-.1 0-.2-.1-.3-.1-.6-.3-1.1-.7-1.4-1.3-.1-.1-.2-.3-.3-.4-.1-.2-.2-.3-.3-.5l-.3-.6c-.2-.3-.3-.7-.3-1-.1-.4-.2-.8-.2-1.1 0-.2-.1-.4-.1-.6-.2-.3-.4-.5-.7-.3 0 .1-.1.2-.1.3.1.4.3.8.4 1.2 0 .1.1.2.1.4 0 .1.1.2.1.3 0 .4.2.7.3 1.1 0 .1 0 .1.1.2.2.3.3.7.5 1 .1.2.3.3.3.5 0 .1.1.1.1.1.1.1.2.2.2.3.3.3.5.7.9.9l.3.3c.4.2.7.6 1.1.7.2.2.4.4.5.6.2.2.3.4.5.5.1.1.2.2.2.3.2.2.5.4.8.6.3.2.7.5 1.1.5.1 0 .1 0 .2.1.3.1.6.1.8.3h.1c.2 0 .4.1.6.2l.9.3h.1c.2-.1.3 0 .5 0 .1 0 .3-.1.4 0 .4.1.9 0 1.3 0h.4c.2 0 .4-.1.7-.1.2-.1.4-.1.6-.2.2-.1.3-.1.5-.2s.4-.2.6-.2l.6-.3c.1 0 .2-.1.3-.1.3-.1.7-.2 1-.3 0 .2-.1.3-.2.5 0 .1 0 .2-.1.4-.2 0-.4.2-.5.4v.4l.2.2c.1.1.1.2.2.3.2.1.4.1.6.2v.2c0 .3.1.4.4.4h.3c.2-.1.4-.3.6-.3.1 0 .1.1.2.1.2.1.4 0 .5-.1.1-.1.2-.2.4-.3.1-.1.3-.2.4-.3.1-.2.2-.5.4-.7 0-.1-.1-.2-.1-.2l.3-.3c.1-.1.1-.2 0-.3-.1-.1-.2-.2-.4-.3l.1-.1c0-.1.1-.1.1-.2s0-.1.1-.2c-.1-.2-.1-.2-.4-.4.1-.2.3-.2.5-.3.2 0 .3 0 .5.1.3 0 .6 0 .9.1h.2c.3-.1.7-.1 1-.3.1-.2.3-.4.4-.6v-.6c.1-.2.1-.2.2-.2s.2-.1.3-.2c0 0 0-.2.1-.3.1-.1.2-.1.3-.1.1 0 .2-.1.3-.1.1 0 .2-.1.3-.1v.4c0 .2.2.2.4.1l.1-.1c.1-.1.1-.3.2-.4l.1.1c.1.2 0 .4 0 .5 0 .1 0 .2.1.2s.2.1.4.1c.1-.1.3 0 .4 0h.4c.2.1.3.1.5.2.1 0 .2.1.2.2s-.1.3-.2.4l-.9.9-.3.3c-.1.2-.3.4-.4.5-.3.4-.7.7-1.2.9-.1.1-.3.1-.4.1l-.1-.1c.2-.1.3-.3.5-.4 0-.1.1-.2 0-.4 0-.1-.2-.1-.2-.2.2-.1.2-.3.1-.5s-.1-.3-.2-.5c0 0-.1-.1-.2-.1 0-.1-.2 0-.2-.1l.3-.3s0-.1.1-.2c0-.1-.1-.2-.1-.3-.1 0-.1-.1-.2-.1h-.2c-.3 0-.5.1-.6.3-.1.1-.3.3-.4.5 0 .3-.1.6 0 .9v.3c0 .3 0 .6.1.8-.1.2-.1.4-.2.6 0 .1.1.2.1.2l.1.1s0 .1-.1.1h-.2c.2.4.1.5-.1.6zm-14.6-4.7V59c-.1-.1-.1-.2-.2-.2-.1-.1-.2 0-.3 0-.2.1-.2.2-.3.2-.3.2-.3.5-.2.9 0 .1.2.2.3.2.1 0 .2-.1.3-.1.1-.1.2-.2.2-.3 0-.1.1-.1.1-.1v.4c0 .1.1.2.1.3.1.3.2.3.4.1.2-.2.4-.4.6-.5.2.1.5.1.7.1 0 .1-.1.1-.2.1s-.2.1-.3.2c0 .1.1.2.1.3.1.2.2.3.4.2.3-.1.6-.2.9-.2.1 0 .2-.1.3-.2.1-.1.1-.3 0-.4 0-.1-.1-.2-.2-.2-.1-.1-.2-.1-.4 0-.1 0-.2.1-.3.1-.1.1-.2.1-.4.1.1-.1.2-.1.2-.2.1-.1.1-.2.1-.3.1 0 .2-.1.2-.1l.1-.1c0-.2.1-.4.1-.7 0-.2-.1-.4-.3-.4-.3 0-.5.1-.7.2-.2.1-.3.2-.5.3-.1.1-.1.2-.2.4-.3.2-.4.5-.7.7.1-.4.1-.5.1-.6zM30.8 25c0 .1.1.2.1.3l.1.1c.2.1.4.1.6-.1.1 0 .1.2.1.2.3.1.4.1.5.1.2-.1.3-.2.3-.3v-.5c-.1-.2-.2-.3-.4-.3s-.3.1-.5.1c-.1 0-.3-.1-.4-.1-.1 0-.2 0-.2.1l-.3.3h-.1c0-.1 0-.1-.1-.2s-.2-.2-.3-.2h-.1c-.1.1-.2.2-.3.2-.2 0-.4-.2-.6-.1-.1 0-.1.1-.2.2-.1 0-.2-.1-.2-.2-.1-.2-.1-.3-.1-.4-.2-.1-.3-.1-.4-.1-.1 0-.2 0-.3.1-.1.1-.2.3-.2.4 0 .1 0 .3-.1.5-.1.1 0 .3.1.4 0 .1.1.1.2.2s.1.1.2.1.2 0 .2-.1c.1-.1.1-.3.2-.5 0-.1.1-.2.2-.1l.1.1c.1.3.1.5.2.8.1.1.2.3.3.3.2 0 .3 0 .4-.2 0-.1.1-.1.1-.2 0 0 .1-.1.2 0h.2c.2-.1.3-.2.4-.3V25.3c.1-.2.2-.4.3-.5-.2-.1-.2 0-.2.2zm0 9.4c.1.1.2.2.3.2.2.1.3 0 .4-.2V34c0-.1-.1-.2-.1-.3v-.3c0-.1-.1-.1-.1-.2l-.2-.2H31c-.1 0-.2 0-.2.1h-.1c-.1-.1-.3-.2-.4-.2-.2 0-.3.1-.5.2-.3 0-.6.2-.9.2-.1 0-.1.1-.2.2v.1c.1.1.1.3.2.5s.1.3.2.5c.1.1.2.3.4.3.1 0 .2-.1.3-.1h.3c.2 0 .3-.1.5-.1.1 0 .1-.1.2-.1l.1-.1v-.3c-.1 0-.1.1-.1.2zm2.5 9.1.2.2c.1.1.2.2.3.2.1 0 .2 0 .3-.1.1 0 .3.1.4.1.1 0 .2-.1.3-.2.1-.1.1-.3 0-.5-.2-.2-.4-.5-.5-.7-.2-.2-.4-.4-.5-.6-.1-.1-.2-.1-.3 0-.1.1-.2.2-.3.2-.2-.1-.4-.1-.7 0-.2 0-.3.1-.5.1l-.3.3c-.1.1-.2.1-.3.2-.1.1-.1.3-.1.4-.1 0-.2.1-.3.1-.1.1-.1.3-.1.4.1.1.2.2.3.4l.2.2c.1.1.3.1.5 0 .1-.1.2-.1.3-.2.2 0 .2.2.4.2s.3-.1.4-.3c.1-.1.2 0 .4-.1.1 0 .1-.1.2-.2-.3.1-.3 0-.3-.1zm-9.4-8.8c-.3-.4-.7-.7-1.1-1l-.3-.3c-.1-.1-.2-.2-.2-.3-.1-.3-.3-.5-.5-.7-.2 0-.3.1-.5.1h-.5c-.2 0-.4 0-.5.1-.1.1-.2.1-.4.2-.1 0-.1-.1-.1-.2-.1-.2-.2-.3-.4-.3h-.3c-.1 0-.1 0-.2.1s-.2.3-.2.5 0 .3.2.4c.1 0 .2.1.4 0 .1-.1.2-.1.3-.2.2.1.1.2.2.4.2.1.3.2.5.1.2-.2.5-.2.8-.3.1 0 .2 0 .2.1.2.2.3.4.5.6.4.3.7.5 1.1.8.1.2.4.5.6.6l.6.6c.1.3.4.5.6.7.1.1.2.1.3.1.1 0 .2-.1.2-.2s0-.2-.1-.3c-.2-.3-.3-.6-.5-.8-.2-.3-.4-.5-.6-.8h.2c.1 0 .2-.1.3-.1.1-.1.2-.2.2-.3.5-.1.5-.1 1-.4.1-.1.1-.2.2-.3.2-.1.3-.1.4-.1h.5c.1 0 .2-.1.2-.2.1-.1.1-.2.1-.4 0-.1-.1-.2-.2-.3v-.3c0-.1-.1-.2-.3-.2-.2-.1-.4-.1-.5-.2-.2-.1-.4-.1-.5 0-.1.1-.1.2-.2.3-.2.1-.4.2-.6.4-.1.1-.3.1-.4.2-.1.1-.2.2-.2.3 0 .1 0 .3-.1.4-.1.1-.1.3-.2.4v.2c0 .1 0 .2.1.4 0 .2-.1.2-.1.2zm-9.3-6.2c.2 0 .3.1.4.2.2.2.3.4.5.6.1.1.2.1.3.2 0 .2.1.3 0 .5 0 .1-.1.1-.2.1h-.4c-.1-.1-.3-.1-.4-.2-.1 0-.2.1-.3.1-.1 0-.1 0-.1-.1v-.3c-.1-.2-.3-.3-.5-.3s-.4 0-.6-.1c-.1 0-.1-.1-.1-.1v-.4c-.1-.2-.2-.2-.3-.3-.1 0-.2 0-.3.1-.1-.1.1-.2 0-.3 0-.1-.1-.1-.1-.2l.1-.1c.1 0 .2.1.4.1.1 0 .2 0 .3-.1 0-.2.1-.4.1-.6 0-.1-.1-.3-.1-.4-.1-.2-.3-.2-.4-.2 0 0-.1 0-.1.1-.1 0-.1.1-.2.1v.4c0 .1-.1.2-.2.2s-.2 0-.3-.1c-.3 0-.5.2-.7.3-.1 0-.1.1-.1.2.1.1.1.3.2.4 0 .2-.2.2-.2.4 0 .1.1.3.1.3.2.3.5.2.6.5 0 .1 0 .2-.1.3v.2c.1.3.2.4.4.6.3.2.5.4.8.5h.6c.2.1.2.2.3.3.1.1.2 0 .4 0h.4c.2.1.4.1.6 0 .2.1.4.1.6.1.1 0 .1-.1.2-.1.1-.1.2-.1.4-.2.1 0 .3-.1.4-.1.2-.1.2-.1.1-.4v-.1c-.1-.1-.2-.1-.3-.2v-.1c.1 0 .1-.1.2-.1l.2-.2c0-.1-.1-.1-.1-.2-.1-.1-.1-.1-.1-.2 0-.3-.2-.4-.4-.5-.1-.1-.2-.2-.4-.2-.2-.1-.3-.2-.4-.3-.1-.1-.1-.2-.1-.3 0-.2-.1-.3-.3-.3h-.6c-.1-.1 0-.2 0-.2v-.2c-.1-.2-.2-.2-.4-.3h-.2c-.2.1-.3.2-.3.4s0 .4.1.6c.1.1.3.2.6.2zm7.5 9h-.4c-.1-.2 0-.4-.1-.6-.1-.1-.2-.2-.4-.2-.1 0-.3.1-.3.2s-.1.2-.1.3c0 .1-.1.2-.2.2 0-.2 0-.4-.2-.5-.1-.1-.1-.2-.1-.4 0-.1-.1-.2-.2-.3v-.3c0-.1-.1-.2-.2-.3.2-.1.4-.3.5-.6v-.3c.1-.1.1-.2.2-.3 0-.1.1-.2.1-.2 0-.1-.1-.2-.1-.3-.2-.1-.3-.1-.5-.2-.3.1-.5.2-.8.3l-.3.3c-.2.1-.4.2-.5.3v.4l.2.2c.2.1.4 0 .6.2-.1.1-.2.1-.4.2-.1 0-.2.1-.3.2v.3c.1.3.3.4.4.5v.5c.1.2.1.4.2.5.1.1.3.1.4.1.2.1.2.3.3.4l.1.1c.3.2.6.1.8-.1 0 0 .1-.1.2-.1.1.2.2.4.5.6.2.1.4 0 .5.1.1 0 .1.1.2.2.2.3.4.3.7.2.1-.1.1-.1.2-.1.5.2 1.1.2 1.6.2.2.1.3.2.3.3.1.2.2.3.3.4.2.2.3.2.5 0l.1-.1c.1-.1.1-.2.1-.3v-.2l-.1-.1c-.1-.1-.2-.2-.2-.4 0-.1 0-.2-.1-.2l-.1-.1h-.3c-.1 0-.1-.1-.2-.1h-.1c0-.1-.1-.2-.1-.3-.1-.1-.3-.1-.4-.2-.1-.1-.3-.2-.4-.3h-.4c-.3-.1-.6-.1-.8.1h-.1c-.2-.1-.4-.2-.6-.2zm-1.7-12.9c-.1 0-.2-.1-.3-.2-.1-.1-.1-.2-.2-.3-.1 0-.3-.1-.5-.1h-.1c-.1.1-.2.3-.4.4.1.2.1.3.1.5s.3.5.5.5c.1 0 .2 0 .2-.1.1-.1.1-.1.1-.2h.1c0 .1.1.3.1.4 0 .1 0 .2-.1.4 0 .1.1.2.2.2s.2.1.4 0c.1 0 .1-.1.1-.1 0-.1.1-.1.1-.2s.2 0 .2 0c0 .1.1.1.1.2v.8c.1 0 .1.1.2.1.1.1.2.1.3 0 .1 0 .2-.1.2-.1s.1 0 .1.1 0 .2-.1.2c.1.2.3.3.6.3.1 0 .2-.1.3-.2V27c0-.1.1-.2.2-.1l.1.1v.4c0 .1.1.3.1.4 0 .1 0 .2.2.3.1.1.2.1.4 0 .1-.1.3-.1.4-.2h.3c.2 0 .4-.2.3-.4 0-.1-.1-.3-.1-.4V27s.1 0 .1-.1l.4.2v.4c.3.4.5.3.7 0 0 0 0-.1.1-.2l.1-.1c.2 0 .2.2.2.3.1.1.2 0 .2 0 .1 0 .2 0 .3-.1.1-.1.1-.2.3-.2.1 0 .2.1.3.1.1.1.2.2.4.3.2 0 .4-.1.4-.3.1-.2.2-.3.3-.4l.1.1c0 .2 0 .3.1.5v.1l.1.1h.4c.1 0 .1 0 .1-.1l.3-.3c.1-.2 0-.3-.1-.4-.1-.1-.2-.2-.3-.2h-.6c-.1-.1-.2-.2-.4-.3h-.4c-.1.1-.2.1-.3.2-.1.1-.2.1-.4 0-.1 0-.1-.1-.2-.1s-.2-.1-.3-.1c-.2.1-.4.1-.5.2-.3 0-.4-.2-.6-.2H25c-.2 0-.3 0-.5-.1-.1-.1-.2-.2-.3-.4-.1-.1-.2-.1-.3-.1-.1 0-.2.1-.3.1-.2-.1-.4-.1-.5-.2-.2 0-.3.2-.4.3h-.1c-.1-.1-.2-.1-.3-.2-.1-.1-.3-.1-.4-.2-.1-.1-.2-.3-.2-.4-.1-.1-.3-.1-.5-.2l-.3-.3c-.1-.1-.1-.2-.2-.3-.1-.1-.1-.2-.2-.2.3.4.1.4-.1.4zm-15.5 23v.4c0 .2.2.3.3.3h.5c.2.1.1.3.1.5.1.1.1.2.2.3.2.1.3.1.5.2.1.2.1.3.2.5s.3.2.4.2c.2-.1.3-.2.4-.3h.1c.1.2.3.3.5.3s.3-.2.4-.3c0-.2-.1-.3 0-.5.1.1.2.2.4.3 0-.2.1-.3.2-.5v-.1c0-.1-.1-.2-.1-.2 0-.2.1-.4.1-.6 0-.2-.1-.3-.3-.3h-.9c-.1 0-.2.1-.3.1-.2-.1-.3-.1-.4-.2-.2 0-.3-.1-.4-.1-.2-.1-.4 0-.6-.2v-.2c0-.2-.2-.4-.4-.4-.1 0-.2 0-.4.1l-.1-.1c0-.1.1-.2.1-.3.1-.1.1-.2.2-.4 0-.1 0-.2-.1-.3-.1-.1-.1-.3-.3-.3 0 0-.1 0-.1-.1 0-.2.2-.4.3-.6 0-.2 0-.3-.1-.4-.1 0-.2-.1-.3-.1-.1 0-.2 0-.3-.1.1-.1.2 0 .3-.1.2 0 .3-.1.3-.3v-.4l-.1-.1H4.1c-.1.1-.3.2-.4.2-.1.1-.1.2-.1.3 0 .2.1.4.2.6.1.1.3.2.4.3v.1c-.1.2-.2.5-.2.7 0 .2 0 .2.1.3l.3.3c0 .2 0 .2-.2.5.4.6.4.6.7 1zm13-4.2s.1 0 0 0c.1.2 0 .3 0 .4 0 .1.1.3 0 .4-.1.1-.1.2 0 .3 0 .1 0 .2.1.3 0 .1 0 .2.1.2 0 .1.1.3.2.4.1.1.1.2.2.3.1 0 .1 0 .2.1.2.2.3.4.4.6.2.1.3 0 .5.1l.1.1c.1.1.1.2.2.3 0 .1.2.1.2.1.1 0 .2-.1.3-.1.1 0 .1-.1.2-.2l.1.1s.1.1.2.1c.1-.1.2-.1.3-.2l.1-.1c0-.3.2-.6.4-.8 0 0 0-.1.1-.1 0-.2-.1-.3-.3-.3H21c-.1-.1-.2-.2-.3-.2-.1 0-.2 0-.4-.1l-.3-.3c-.1 0-.2 0-.3-.1-.1 0-.1 0-.2-.3-.1-.1-.2-.1-.3-.2-.2-.3-.2-.4-.2-.6 0-.2-.1-.3-.2-.3h-.1c-.1-.1-.1-.1-.1-.2 0-.2-.1-.3-.1-.5-.1-.4-.4-.4-.7-.3-.1 0-.1.1-.2.2-.1.2-.1.3-.2.5 0 .1.1.3.2.5.1-.1.2-.1.3-.1zm1.3-15.8c-.1-.1-.2-.1-.3-.2h-.3l-.1-.1c-.1-.1-.1-.2-.2-.3-.1-.2-.2-.3-.4-.3-.1 0-.2-.1-.3-.2-.1-.1-.2-.3-.3-.4-.1-.2-.4-.2-.5 0-.1.1-.1.1-.1.2-.1.2-.2.3-.2.5v.4c0 .2.1.3.3.4.1 0 .2 0 .4-.1l.2-.2h.1v.1c0 .1-.1.3 0 .4v.4c0 .1.1.2.1.3.1 0 .1.1.2.1.2 0 .3 0 .3-.1.1-.2.1-.3.1-.5 0-.1.1-.1.2-.1v.2c0 .1-.1.2-.1.3 0 .1 0 .2.2.3H18.8c.1.1.1.2.2.2 0 .1.1.2.1.3.1.2.3.3.5.2h.1c.1.2.1.3.2.5l.2.2h.1c.1-.1.2-.2.3-.4V29c-.1-.1-.2-.1-.3-.2h-.3c-.1 0-.1 0-.2-.2 0-.1.1-.1.1-.2l.1-.1c0-.2-.1-.3-.2-.4-.1-.1-.2-.1-.3-.1-.1 0-.1-.1-.1-.1-.1.1-.1 0-.1-.1zm-8.6 18.6c.1-.2.1-.3 0-.4l-.2-.2-.3-.3v-.4c0-.1 0-.2-.1-.2-.1-.2-.2-.3-.4-.3h-.2c0-.1 0-.1-.1-.2 0-.1-.1-.2-.1-.2-.2-.1-.4-.2-.5-.3l-.3.3c-.1.2-.2.3-.2.5s0 .3.2.4l.3.3c.1.2.2.3.5.3h.1v.1c0 .1-.1.2-.1.4s-.1.4-.2.6c-.1.1 0 .2.1.3.1.1.2.2.3.1.1-.1.3-.2.5-.3.2-.1.4-.2.5-.3.1 0 .2-.1.2-.2zm21-6.4c.1-.1.1-.2.2-.2 0-.1.1-.2.1-.2 0-.2-.2-.3-.4-.4-.1 0-.3 0-.4.1-.2.1-.4.2-.6.4-.1-.1 0-.2 0-.3-.1-.2-.2-.2-.4-.3-.3-.1-.6 0-.9 0-.1.1-.2.1-.3.2h-.2c-.2 0-.3.1-.4.3 0 .1.1.2.1.4 0 .1 0 .2-.1.3.2.1.3.2.6.2.1 0 .2 0 .2-.1.1.1.2.2.4.3.1 0 .2 0 .2-.1.1 0 .2.1.3.1.1 0 .2-.1.3-.1h.4c.1-.1.2-.1.3-.2.1 0 .2-.1.3-.1.2-.1.2-.2.3-.3zm-3.2-10c-.2-.2-.3-.2-.5-.1-.1 0-.2.1-.2.2v.6c0 .1 0 .2.1.3 0 .1-.1.2 0 .3.1 0 .3.1.5.1h.3l.3.3c.1.1.2.1.3 0 .1-.1.2-.1.3-.2h.3c.2-.1.4-.1.6-.1.3 0 .5-.3.4-.6 0-.1-.1-.2-.1-.2-.1-.2-.2-.3-.4-.3s-.3-.1-.5-.2-.3-.1-.5-.1h-.2c-.2 0-.4 0-.6.1 0-.1-.1-.1-.1-.1zm-8.5 23.6c-.2.1-.3.2-.4.4 0 .1-.1.2-.2.2v.1c.1.1.2.1.3.2h.2c.1-.1.2-.1.4-.2.2 0 .4-.2.4-.4v-.2c-.1-.1-.1-.2-.2-.3 0-.1 0-.3.1-.4.4.1.4.1.7 0 .1 0 .2.1.3.1.2-.1.3-.1.5-.2.1 0 .3-.1.4-.1.1-.1.1-.3.1-.4 0-.1-.1-.2-.2-.2s-.3-.1-.6 0c-.1 0-.1 0-.2-.1v-.1c0-.1-.1-.2-.2-.2h-.4l-.2.2c-.1.1-.3.2-.4.3-.1.1-.2.3-.4.4-.1.3-.1.6.1 1 0-.2 0-.1-.1-.1zm-3.8-.8h.5c.1-.1.3-.1.4-.1.1.1.2.1.3.2.1 0 .1 0 .2.1.2.1.5-.2.4-.4v-.2c-.1-.2-.1-.4-.1-.5 0-.1 0-.1-.1-.2 0-.1-.1-.1-.1-.2-.2-.1-.4 0-.5 0h-.5c-.2-.1-.3-.1-.5-.2-.3-.1-.6 0-.9.2-.1.1-.1.2-.2.3v.7c0 .2.2.3.5.3.1 0 .2-.1.3-.1.1 0 .2 0 .3.1zm2.3-1.9.3.3h.1c.2 0 .4-.1.5-.2.1-.2.2-.4.4-.6 0-.1 0-.1-.1-.2s-.2-.2-.2-.3c-.1-.1-.1-.2-.2-.3-.1 0-.2-.1-.3-.1-.1-.1-.1-.2-.2-.3-.1-.1-.3-.1-.4-.1-.1-.1 0-.1 0-.2v-.2s0-.1-.1-.1l-.6-.3c-.1-.1-.3-.1-.4 0-.1.1-.2.1-.2.3v.7l.1.1c.2.2.4.4.6.7.2.2.5.3.7.5-.1.1 0 .2 0 .3zm-5.9 4.8c.1.1 0 .3 0 .4.2.1.5.2.7.3.1.1.2.2.2.3.2.1.4 0 .5 0 .1 0 .1-.1.1-.2v-.5c.1-.2.2-.3.2-.5s-.1-.2-.2-.3c-.1-.1-.3-.1-.4-.1-.1.1-.2.2-.2.3 0 .1 0 .1-.1.2h-.1s-.1 0-.1-.1v-.2l.3-.6c0-.1 0-.2-.1-.3-.2-.1-.4 0-.6 0-.1-.1-.1-.2-.1-.3-.1 0-.1-.1-.2-.1-.1-.1-.2-.1-.3 0-.1 0-.2.1-.3.2 0 .1 0 .2-.1.4v.5c-.1.3 0 .4.3.6h.5zM8.9 33.3c.1.1.2.1.3 0l.1-.1.1-.1h.6c.1 0 .1 0 .2-.1.1 0 .2-.2.3-.3.1-.1.3 0 .4-.2 0-.1.1-.3.1-.4 0-.2 0-.3-.1-.5-.3-.2-.3-.2-.7-.1-.5-.1-.6-.1-1.3-.1-.2.2-.2.5-.4.8-.1.2-.1.4-.1.6.2.2.3.4.5.5zm1.5-7.8v-.3l-.2-.2c-.1-.1-.1-.2-.2-.4-.1-.1-.3-.1-.5-.2-.1-.1-.1-.2-.2-.3-.1 0-.2-.1-.3-.1-.1-.1 0-.2 0-.4 0-.1.1-.1.1-.2v-.1c-.2-.2-.5-.3-.7-.1-.3.3-.4.5-.5.8.1.2.3.3.5.4 0 .1-.1.2-.1.3 0 .2.1.4.2.6.1 0 .2.1.3.1.3.1.5.2.6.5.2.1.5.1.7 0 .1 0 .2-.2.3-.4zM24 50.3c0-.2-.1-.3-.1-.4v-.2c0-.1.1-.1.2-.1s.1.1.2.1c.1.1.2.3.4.4.2 0 .3-.2.5-.3h.1c.2 0 .3-.2.3-.4s-.1-.3-.3-.3H25c-.1 0-.2.1-.2.1-.1 0-.1-.1-.2-.1l-.3-.3c-.2-.1-.3-.1-.5-.1-.1 0-.2 0-.2.1-.1 0-.2-.1-.3-.1H23c-.4.2-.6.4-.8.8v.5l.1.1h.1c.1 0 .2 0 .3-.1.1-.1.2-.2.2-.3.1-.1.2-.1.3-.1.1.1.2.2.2.3 0 .2.2.4.3.6 0 0 .1-.1.3-.2zm7.6-13.5-.2-.2c-.1-.1-.3 0-.4.1 0 0 0 .1-.1.1v.5c.1.2.1.4.2.6.1.1.1.3.3.4h.2c.1 0 .2 0 .3-.1 0-.1.1-.1.1-.2l.1.1c.1.1.1.1.1.2s.2.1.2 0c.2-.1.3-.2.3-.5h.1c.1.1.2.1.3.1.1 0 .2 0 .3-.1.1-.2.2-.3.2-.5-.1-.2-.2-.3-.4-.4h-.3l-.3-.3h-.1c-.3 0-.4.1-.4.4v.8c-.4-.5-.4-.7-.5-1zm-23.3 16c-.1-.1-.2-.2-.4-.2-.3.1-.5.2-.7.4-.1 0-.2-.1-.3-.2h-.4s-.1 0-.1.1c0 .4.1.7.2 1.1.1.1.2.2.2.3.1.1.3.1.4.2 0 0 .1.1.2.1.2 0 .3.1.5.1.1.1.3 0 .4 0 .2-.2.4-.5.3-.9v-.4l-.3-.6zM5.4 30.1v.1c.2.2.2.4.3.6.2.2.3.2.5.2s.3 0 .5-.1c0 0 .1.1 0 .1-.1.1-.1.2-.2.3v.2c0 .1.1.1.1.1.1.1.3.1.4 0 .2-.2.4-.5.7-.7l.1-.1v-.2l-.1-.1c-.1-.1-.2-.1-.3-.1-.3.1-.3.1-.6.3-.1 0-.2-.1-.3-.2-.1-.1-.1-.2 0-.3.2-.2.3-.4.4-.6v-.1c-.2-.3-.5-.5-.9-.8-.1-.1-.3 0-.3 0-.2.2-.2.3-.3.3-.1.2-.1.4-.1.7 0 .1.1.3.1.4zm15.5 10.7c-.1-.1-.2-.1-.3-.2l-.1-.1c-.1-.3-.4-.4-.6-.4-.1 0-.1.1-.2.1-.1.2-.2.3-.3.5-.1.2 0 .3.1.5.1.1.2.1.3.1 0 0 .1.1.1.2.1.3.1.3.3.5h.8c.1 0 .1.1.1.2.2.1.3.2.5.3.2 0 .3 0 .5-.1.1-.1.1-.1 0-.2 0-.1-.1-.1-.1-.2s.1-.2.1-.3c0-.1-.1-.3-.2-.4h-.5c-.1-.3-.3-.5-.5-.5zm-6.9-.4s0-.1-.1-.1-.2-.1-.3-.1c-.1 0-.1 0-.2.1s-.2.2-.3.4c-.1.1-.3.2-.4.3-.1.2-.1.5-.3.6-.2-.1-.3-.1-.5-.2-.1 0-.2 0-.3.1-.1.1-.3.2-.4.3-.1.1-.1.2-.1.3 0 .1.1.2.3.2h.5c.1-.1.3-.2.4-.3.1.1.1.3.3.3.1 0 .3-.1.5-.1 0 0 .1 0 .2.1.1 0 .1.1.2.1s.2 0 .3-.1c.1-.1.1-.1.1-.2-.1-.6 0-1.1.1-1.7zm10.3 3.1c0-.2.1-.3.1-.4 0 0 0-.1-.1-.2l-.5-.5h-.5s-.1 0-.1.1c-.1.1-.2.2-.2.4-.1.2-.1.4 0 .6l.3.3v.4c-.1.1-.1.3-.2.4 0 .1 0 .1.1.2s.2.1.3.1h.1c.3-.1.5 0 .8-.1.2-.1.3-.1.5-.1.1-.1.2-.3.2-.4 0-.1-.1-.2-.1-.3-.4-.3-.7-.3-.7-.5zM5.5 42.4c.1.1.1.2.2.3.2.1.3.1.4 0 .1-.1.2-.3.3-.4.1-.1.3-.1.4-.2.1-.1.2-.3.3-.5 0-.2.1-.5.1-.8l-.1-.1c-.1-.1-.2-.2-.4-.2h-.4l-.6.3c-.3.1-.5.3-.6.6v.2c.1.2.1.3.2.5 0 .1.1.2.2.3zm28.1 6.3c.2.1.4.3.6.2.1-.1 0-.2.2-.3.2-.1.3 0 .5.1 0 0 .1 0 .1-.1.1-.1.1-.1.2-.3 0-.1-.1-.2-.1-.3 0-.1 0-.2.1-.2 0 0 0-.1-.1-.1-.1-.1-.2-.2-.4-.2s-.5 0-.7-.1c-.1 0-.3 0-.4.2v.1c0 .1-.1.1-.1.2v.3c-.2 0-.3-.1-.4-.1-.1 0-.1.1-.2.1-.2.4-.1.8.1 1.2.1.2.3.2.5.2.1 0 .2-.1.2-.2-.1-.1-.1-.3-.2-.4 0-.3 0-.3.1-.3zM16.8 22c-.2-.1-.3-.2-.5 0-.1.2-.3.4-.3.7 0 .1.1.2.2.2.2.1.3.1.5 0h.1V23.2c.1.2.2.3.3.4.1.1.2.1.4 0 .1 0 .1-.1.2-.1.1.1 0 .3.2.4.1.1.2.1.2.2.1 0 .2 0 .3-.1.2-.1.3-.2.5-.3 0-.1.1-.1.1-.2v-.1c0-.1-.2-.4-.4-.6h-.4l-.2-.2c-.1-.2-.3-.3-.5-.2h-.2c-.3-.2-.4-.3-.5-.4zM9.5 56.8v.5c.1.1.3.3.5.3.1 0 .2 0 .3-.1.2-.2.4-.3.7-.4.1 0 .1-.1.2-.1.1-.1.1-.2.1-.3 0-.2 0-.4-.1-.5v-.1c0-.1-.1-.3-.2-.4 0 0-.1-.1-.1-.2-.1-.2-.2-.3-.4-.3h-.2c-.1 0-.3.1-.3.2-.1.1-.1.2-.2.4 0 .2-.1.4 0 .6-.1.1-.2.2-.3.4zm5-7.4c-.2 0-.3-.1-.5-.1-.3.1-.6.2-.8.4-.1 0-.1.1-.1.1s0 .1-.1.1c.1.1.1.3.2.4l.1.1c0 .2.1.4.1.6 0 .2.1.4.1.5.1.1.2.2.3.2.1 0 .3 0 .3-.1.1-.1.2-.3.4-.4.1-.2.1-.4.1-.5 0-.1-.1-.2-.1-.3V50c0-.1 0-.3.1-.4 0-.1-.1-.1-.1-.2zm.5-5.1c-.2 0-.3-.1-.4-.2-.1-.1-.3 0-.4.1v.1c-.2.4-.2.8 0 1.2.2.1.3.2.4.2 0 .1.1.1.1.2s.1.2.3.2h.2c.1 0 .3-.1.4-.2.1 0 .1-.1.2-.1.3-.1.4-.3.4-.6 0-.2 0-.3-.3-.4h-.3c-.2-.3-.3-.4-.6-.5zm-6.1-4.2c0 .1.1.1.2.2 0 0 .1 0 .1.1v.2c0 .2.1.3.3.4h.9c.1 0 .1-.1.2-.1s.1-.1.1-.1c.1-.1.2-.4.2-.7-.1-.1-.2-.2-.2-.3-.1-.1-.1-.2-.1-.3-.1-.2-.2-.3-.4-.3H10c-.3.1-.5.2-.8.3-.2.2-.2.4-.3.6zm4.6-16.8c-.2-.1-.3-.1-.5-.1s-.4 0-.7.1l-.2.2-.1.1v.7c0 .2.2.3.4.3.3 0 .5.1.8 0h.5c.1 0 .3-.2.3-.3V24c0-.2-.1-.3-.2-.5l-.1-.1c.1 0-.1-.1-.2-.1zM15 37.8l.9.6h.2c.2-.1.3-.2.3-.4v-.2c-.1-.2-.3-.3-.3-.5v-.2c0-.2 0-.3-.2-.5-.2-.1-.3-.1-.5-.2s-.3-.1-.4-.2c-.1 0-.2 0-.3.1-.1.1-.2.2-.2.3v.4c0 .2 0 .3.2.4.1 0 .1.1.2.1 0 .2.1.2.1.3zm-1.7 10c-.1.1-.1.2-.2.3.1.1.1.2.2.3 0 .1-.1.2-.1.3v.3c0 .1.1.2.3.2h.2c.3-.1.5-.1.8-.1.2 0 .3-.1.4-.3 0-.1.1-.1.1-.2s-.1-.2-.1-.2c-.1 0-.2-.1-.3-.1.1-.2.3-.3.3-.5s-.2-.3-.4-.4c-.8.2-.8.2-1.2.4zM33.9 46c.1-.1.1-.3.1-.4 0-.2-.2-.3-.3-.3-.2 0-.3.1-.4.2-.1.1-.1.3-.2.5 0 0-.1 0-.1.1-.1 0-.3 0-.4.1-.1 0-.1.1-.2.1-.2-.2-.3-.3-.4-.3-.1-.1-.3 0-.4.1 0 0 0 .1-.1.1-.1.1-.1.2-.2.4-.1.4-.1.4.1.7.1.1.2.1.3 0 .1 0 .2-.1.3-.2.1-.1.1-.2.1-.3 0-.1.1-.1.2-.2.1 0 0 .2.2.3h.2c.1 0 .2-.1.3-.1.1-.2.2-.3.4-.5s.3-.2.5-.3zM4.6 33.5c-.6.3-.6.3-.8.5-.2.2-.3.5-.6.7 0 .1.1.2.1.4 0 .1.1.2.1.3.4 0 .6-.1.7-.4.1.1.2.1.3.2h.4c.1 0 .1-.1.1-.1.1-.1.2-.2.1-.4s-.1-.4 0-.6c0-.1.1-.2.1-.3-.1-.2-.3-.3-.5-.3zm21.4-10c0 .1-.1.1 0 0-.1.3-.2.4-.3.6-.1.2-.2.4-.2.6v.1c.3.1.3.1.7 0 0-.1.1-.1.1-.2.1-.1.1-.2.2-.3 0 0 .1-.1.1 0v.1c-.1.2-.1.4-.1.6 0 .1.1.2.2.3h.1c.2 0 .4-.1.4-.3 0-.3.2-.5.2-.7V24c0-.2-.2-.3-.4-.3-.1 0-.2 0-.3.1-.1-.1-.2-.1-.4-.2 0-.1-.2-.1-.3-.1zM14.3 39.8c0 .2.1.3.1.5v.5c.1.1.2.1.3.2.2.1.4 0 .5-.1l.1-.1c.1-.2.3-.4.4-.6v-.5c0-.1-.1-.2-.2-.3-.1-.1-.2-.1-.3-.2-.2-.1-.4-.1-.6 0-.2.1-.3.2-.2.4 0 .1-.1.2-.1.2zm-8.6-4.4c.1 0 .1.1.3.2.1 0 .2-.1.3-.1.2-.2.3-.4.4-.9-.1-.2-.2-.5-.3-.7-.1-.1-.2-.1-.4-.1-.1 0-.2 0-.3.1-.2.1-.3.3-.4.4-.2.3-.2.6-.2.9 0 .1.1.2.2.3.1 0 .1.1.2.1.1-.2.2-.2.2-.2zm17.4 10.2c-.5 0-.5 0-.9-.1-.2 0-.4.2-.5.3-.1.2-.3.4-.3.6 0 .1 0 .3.1.4.1.1.2.2.3.1.1-.1.3-.1.4-.2.1 0 .2.1.3.1h.4c.1 0 .1-.1.2-.1v-.1c.1-.1.1-.3.2-.4.1-.1.1-.2.2-.3-.1-.2-.3-.3-.4-.3zM6.4 28.8c.1.1.3 0 .4 0 .1 0 .2.1.3.1.3-.1.5-.3.6-.5.1-.2.3-.4.4-.5 0-.2-.1-.3-.1-.4-.1-.1-.3-.2-.5-.2h-.2c-.2 0-.3.1-.4.1-.5.5-.5.5-.7 1.1.1.1.2.2.2.3zM25 47.4c0 .1.1.2.2.2.3.1.6.1.9 0 .2 0 .3-.1.3-.3v-.1c.1-.1.3-.2.5-.3v-.2c0-.1 0-.2-.1-.3-.1-.1-.2-.3-.4-.4h-.2l-.1.1c-.1.1-.2.2-.3.2-.2 0-.3.1-.4.3-.1.2-.2.3-.4.4 0 0 0 .1-.1.1.1.1.1.2.1.3zm-10.7 9c0 .2.1.3.1.5v.1c.1 0 .2.1.3.1.1 0 .2-.1.3-.1.1.1.3.1.4.2.1 0 .2 0 .2-.1.1 0 .1-.1.2-.1.1-.2.1-.4 0-.6-.1-.2-.2-.3-.2-.5-.1-.1-.2-.2-.4-.3-.1-.1-.2-.2-.4-.2-.1.1-.2.1-.3.2 0 .3-.1.6-.2.8zM10.2 39c.2-.1.2-.3.1-.5l-.3-.3c0-.1-.1-.2-.2-.3 0-.1-.1-.1-.1-.1-.3-.1-.8-.2-1-.2-.2 0-.3.1-.4.2 0 .1-.1.2 0 .2.1.1.1.2.2.3v.4l.1.1c.1 0 .1.1.2.1.3.1.5.2.8.3.3-.1.5-.1.6-.2zm21 7.3c0-.2-.1-.3-.2-.3-.1-.1-.1-.1-.2-.1s-.3.1-.4.2c-.1.1-.2.3-.3.4 0 .2-.1.4-.1.6-.1.1-.2.3-.3.4 0 .2.1.4.3.5h.4c.2-.1.4-.3.6-.5 0-.4 0-.8.2-1.2zM11.3 36c.3-.1.5-.2.8-.3.1-.1.2-.2.2-.3-.1-.1-.1-.2-.2-.3L12 35c-.1 0-.3 0-.3-.1-.2-.3-.5-.2-.8-.1h-.1c-.2.1-.5-.1-.6.1 0 .2-.1.3 0 .5.3.3.7.4 1.1.6zm12.6-5.5h.6c.3-.2.3-.2.3-.4-.1-.3-.1-.5-.2-.8-.1-.2-.3-.3-.5-.4h-.5c-.2.1-.3.3-.3.5v.3c.2.4.4.6.6.8zM8 61.2c-.3.2-.5.5-.7.7 0 .2.1.3.3.3.2 0 .4 0 .7-.1.1 0 .2-.1.3-.1.2 0 .4 0 .5-.1 0-.1.1-.1.1-.2.1-.3.1-.5-.1-.7-.2-.1-.3-.2-.6-.3-.2.3-.3.4-.5.5zm11.7 3.3c-.1-.1-.2-.2-.3-.2h-.3c-.1.1-.2.1-.3.2-.1.2-.1.3-.1.4 0 .1.1.2.2.2h.3c.1 0 .2.1.2.2s0 .2-.1.3c.1.2.2.3.4.3h.3c.1 0 .2-.1.3-.2.1-.1.1-.2.2-.3-.2-.4-.3-.4-.8-.5.1-.3.1-.4 0-.4zm-9.2-28.4c-.2 0-.4-.1-.6-.1-.2 0-.3.1-.5.2 0 0-.1.1-.1.2v.4c.1.1.2.2.3.2h.1c.2-.1.3-.1.5-.1s.3 0 .4-.2c.1-.1.2-.2.2-.4 0-.1-.1-.2-.3-.2zm8.4 2.8c-.1-.1-.3-.2-.4-.2h-.4c-.1 0-.2.1-.2.2-.1.2-.2.3-.3.5 0 .2-.1.3.1.4.2 0 .4.1.5.1.2-.1.4-.1.6-.4 0-.2.2-.4.1-.6zm6.6-1.1c.1.1.3.2.4.2 0 0 .1 0 .2-.1.2-.1.4-.2.6-.2.2 0 .4-.3.3-.5 0-.1-.1-.2-.1-.2-.1-.1-.2-.1-.4-.1-.4.1-.7.1-1.1.2-.1.3-.1.3.1.7zm-1.7-14c.1-.2.2-.5.3-.6-.2-.4-.3-.5-.7-.4-.1.1-.1.3-.2.4-.1.1-.1.2-.2.4v.3c.1.2.2.3.4.3.1 0 .2 0 .4-.1-.1-.1 0-.2 0-.3zM2.3 44.7c-.1 0-.2.1-.3.1-.2.2-.3.5-.2.8 0 .1.1.2.2.3.1.1.2.2.4.2h.1c.1-.1.3-.2.3-.3-.1-.1-.1-.2-.2-.3 0-.2.1-.3 0-.5 0-.2-.1-.2-.3-.3zM22 32.1c.3.1.5 0 .6-.2v-.2c-.1-.2-.2-.5-.1-.7v-.1c0-.1-.1-.1-.2-.2-.2 0-.4 0-.5.1-.1 0-.1.1-.2.2v.6c.2.2.3.4.4.5zm-11.2-5.4c-.1.2-.1.3-.1.4 0 .1.1.2.2.2.4 0 .8-.1 1.1-.2.1 0 .2-.1.3-.2v-.2c-.1-.1-.2-.1-.3-.2h-.2c-.1 0-.3.1-.4.1H11c-.1 0-.2.1-.2.1zm13.8-3.1c-.1.2-.1.5-.2.7.1.1.1.2.2.3.2.1.5.1.6-.1v-.4c.1-.1.1-.3.2-.4v-.1l-.3-.3c-.2 0-.4.1-.5.3zm-9.8 12.6h.7c.2 0 .3-.2.2-.4v-.2c-.2-.2-.5-.3-.7-.4h-.1c-.1 0-.2 0-.2.1-.1.2-.2.4-.2.7.1.1.2.2.3.2zm4.7 23 .2-.2c.1-.1.2-.1.3-.2 0-.1.1-.2.1-.3 0-.2-.2-.3-.3-.4-.1-.1-.1-.1-.3-.1-.1.1-.2.1-.3.2-.2.2-.2.3-.2.5 0 .1 0 .2.1.3.1.2.2.2.4.2zm-11.9-8c.1 0 .2-.1.3-.2.1-.1.1-.2.1-.3-.1-.3-.3-.4-.5-.4s-.3.1-.5.1c-.1.1-.2.2-.2.3 0 .2 0 .3.1.5h.7zm10.9 6.1c-.1-.2-.3-.3-.5-.2h-.2c-.1.2-.3.3-.4.5 0 .1 0 .1.1.2v.2c0 .1 0 .2.1.2.2 0 .4 0 .5-.1l.3-.3c.2-.1.2-.2.2-.4l-.1-.1zm-7.2-4.1c-.1-.1-.4.1-.4.2v.3c0 .2.1.3.1.5.2.1.2.3.5.4.1 0 .1-.1.2-.1.1-.4 0-.7 0-1.1-.2-.1-.3-.1-.4-.2zm-.3 5.7.2-.2.2-.2c0-.6-.2-.6-.6-.6-.1 0-.2.1-.2.2 0 .2-.1.3-.1.5s.1.3.4.4c-.1-.1 0-.1.1-.1zm0-36.1c-.2.1-.3.3-.2.5 0 0 0 .1.1.1.1.2.2.3.4.3 0 0 .1 0 .2-.1.2-.1.2-.3.3-.4 0-.1 0-.2-.1-.3l-.3-.3c-.1 0-.2.1-.4.2zM3.3 46.5c0-.1 0-.2-.1-.3l-.1-.1h-.4c-.1 0-.3.2-.3.3v.3c0 .2.2.3.3.3H3c.2-.2.2-.3.3-.5zm30.5 3.2c0 .1.1.2.2.2h.3c.2-.1.3-.2.5-.4 0-.1.1-.1.1-.2v-.2c-.1-.1-.3-.2-.5-.2-.5.3-.6.5-.6.8zM18.9 63.3c.2.1.2.1.6 0l.1-.1s0-.1.1-.1c0-.3-.1-.5-.4-.6H19c-.1.1-.2.3-.4.4 0 .3.1.4.3.4z"/>
    <path class="st1" d="M33 16.4c-.1.1-.2.1-.3 0-.1 0-.2-.1-.3-.1-.1-.1-.3-.2-.4-.3-.2 0-.4-.1-.5-.1-.2.1-.3.2-.1.4.3.2.6.3.9.5.1 0 .1.1.1.1v.1c-.2 0-.3.1-.5 0-.1-.1-.2-.2-.4-.3-.1-.1-.3-.2-.4-.3-.1-.1-.3-.1-.4-.2-.1 0-.2 0-.3.1-.1.1-.2.2-.1.3.1.1.2.2.3.2.2.1.4.2.5.3l.3.3v.4c0 .2-.1.3-.2.3-.1.1-.3.1-.4.1h-.2c-.1.1-.3.2-.4.3-.1.3-.2.5-.4.7-.7.3-1.3.7-2.1 1h-.3c-.1 0-.2.1-.3.1-.2 0-.3-.1-.4-.1h-.5c-.3 0-.5 0-.8-.1-.3-.1-.6-.2-.9-.5l-.3-.3H24c-.1 0-.2.1-.3.1-.3.2-.6.2-.9.2-.2 0-.5 0-.7-.1-.2 0-.4-.1-.5-.2l.1-.1c.1-.1.3-.1.4-.2.2-.1.3-.2.4-.5-.1-.2-.2-.2-.4-.2-.2.1-.4.1-.5.2l-.6.3h-.2l-.1-.1c-.1-.2-.2-.3-.4-.4l-.1-.1s0-.1.1-.2h.1c.5 0 1-.1 1.5-.1.1 0 .2 0 .3-.1.2 0 .3-.3.1-.5-.1-.1-.2-.1-.3-.1-.3 0-.6 0-.9.1-.2 0-.4 0-.6.1h-.6c-.1 0-.3.1-.4.1-.3-.1-.5-.3-.8-.4 0 0 0-.1-.1-.1v-.4c.1-.1.1-.1.2-.1h.4c.3 0 .7 0 1-.1h1.5c.1 0 .2.1.3.1.3 0 .3-.2.4-.4 0-.2-.2-.2-.3-.3-.3-.1-.5-.1-.8-.1-.3 0-.6.1-.9.1h-.3c-.2.1-.4.1-.6.1-.2 0-.4 0-.6.1h-.2s-.1 0-.1-.1c-.1-.2-.2-.3-.3-.4-.3-.2-.7-.5-1-.7-.2 0-.3 0-.4.2 0 .1-.1.2-.1.3.1.2.3.3.4.5.2.1.4.1.5.2 0 .1-.1.1-.1.2-.3 0-.6.1-.9.1-.2 0-.4.1-.7.2-.3.1-.5.2-.8.1-.3.1-.5.2-.8.2-.1 0-.2-.1-.2-.2s.1-.1.2-.1c.2-.1.5-.1.7-.2.1-.1.2-.3.3-.4v-.4c-.1-.2-.2-.4-.3-.5-.1-.2-.1-.4 0-.6.1-.1.2-.2.2-.4 0-.3-.1-.5 0-.8l.3-.6c.1-.2-.2-.3-.2-.5 0-.1.1-.2.2-.2.1-.1.2-.1.2-.2.1-.2.2-.4.1-.6-.1-.3-.1-.3 0-.7.1-.1.2-.2.4-.3.1-.1.2-.4.1-.5 0-.1-.1-.1-.1-.2s-.1-.1-.1-.2V9c.1-.1.2-.2.3-.4 0-.1-.1-.2-.1-.4 0-.1 0-.2-.1-.4 0 0-.1-.1-.2-.1l-.3-.3c.2.1.2-.1.1-.2s-.2-.2-.2-.4v-.1c0-.1-.1-.3-.2-.4l-.3-.6c-.1-.2-.2-.3-.2-.5s0-.5-.1-.7c0-.2-.1-.3-.1-.5 0-.1 0-.2-.1-.3-.1-.2-.1-.5-.2-.7 0-.2-.1-.5-.1-.7.1-.2.1-.2.4-.3.5.2.9.4 1.3.8.3.3.7.5 1 .8l.9.6s.1.1.2.1c.2.1.3.3.4.4.2.2.2.3.4.5.2.1.4.1.5 0 .1-.1.2-.2.3-.2h.1c.1 0 .3.2.5.2.1 0 .3-.1.5-.1l.3.3c.1.1.3.2.4.2.1 0 .3.2.4.1.4-.2.6-.5 1-.7 0 0 0-.1.2-.1h.1c.3.1.5 0 .8-.1h.1c.1 0 .3.1.4.1.1 0 .2-.1.2-.1.2-.2.4-.4.7-.5l.3.3c.1.1.1.1.2.1.3-.2.6-.3.9-.4.1 0 .3-.1.5 0 .2.2.4.3.7.5.1.1.2.1.4.1.2-.2.6-.2.8-.4 0 0 .1 0 .1-.1.2-.4.5-.7.8-1 .2-.2.4-.4.5-.6.2-.4.4-.8.8-1.1.3-.2.5-.4.8-.7.1-.1.2-.2.4-.2h.6s.1 0 .1.1c0 .4 0 .7-.1 1.1v1.4c0 .9 0 .9-.1 1.7-.1.5-.2.8-.3 1.2 0 .1 0 .1-.1.2-.2.2-.2.4-.3.6.2.4.6.6.8.9.2 0 .3.1.4.1.1.1.1.2.1.2-.1.1-.1.2-.2.2 0 .2 0 .4.2.5.2.1.3.2.4.3 0 .1.1.2 0 .2l-.1.1c-.1.1-.2.1-.2.3.1.2.2.5.5.7.1.1.2.2.2.3v.1c-.1.1-.2.1-.3.2-.3.2-.3.3-.3.5v.1c.1.2.3.4.4.6v.2c-.1.1-.2.1-.3.2l-.1.1v.3c0 .2 0 .3-.1.4-.2.2-.4.3-.6.4-.1.2-.2.3-.3.5v.6s0 .1-.1.1-.2-.1-.3-.1c-.3-.2-.5-.3-.8-.5-.1 0-.2 0-.3-.1-.1.1-.2.2-.1.3 0 .1.1.2.1.3l.6.3c.2.1.4.2.5.3.2 0 .3 0 .5.1.1 0 .1.1.2.1-.1.1-.1.2-.2.3 0 0 0 .1-.1.2zM21.7 9.7c-.1 0-.1 0-.2.1-.3.1-.6.3-.9.4-.1 0-.2.1-.2.2-.1.1-.1.2-.2.3-.2.3-.3.5-.3.8v.2c.3.9.1.8 1 1.7.3.1.7.2.9.4.2 0 .4.1.5 0 .1 0 .3-.1.4-.1.3-.1.6-.2.8-.5.2-.3.3-.6.4-.9.1-.5 0-.8-.1-1.2-.2-.4-.6-.7-.9-1 0 0-.1 0-.1-.1l-.6-.3h-.5zm5.2 4.3c-.1-.1-.1-.1-.2-.1h-.4l-.2.2c-.1.1-.1.3-.2.4 0 .1.1.2.1.3 0 .1-.1.2-.1.3-.1.1-.1.1-.2.1s-.2-.1-.3-.2c-.1-.1-.1-.3-.2-.4-.1-.1-.1-.2-.1-.3 0-.1-.1-.2-.1-.2-.3-.2-.5-.2-.7.1-.1.1-.1.2-.1.3.2.4.4.7.7 1.1.1.1.2.1.3.2.1.1.2.1.3.2 0 .1.1.2.1.3 0 .2-.1.4-.1.6-.1.3-.3.5-.6.6h-.2c-.1 0-.2-.1-.2-.1h-.4c-.1 0-.3.2-.3.4s.1.3.3.4c.2.1.4.1.6.1h.5l.6-.3c.1 0 .2-.1.3-.1.2-.1.3-.1.5 0 .1.1.3.2.4.2.1 0 .2.1.3.1.2 0 .3.1.4.2.1 0 .2-.1.3-.1l.3-.6c0-.1-.1-.1-.1-.2-.4-.1-.7-.1-1.1-.2-.1 0-.2-.1-.3-.2-.3-.1-.4-.3-.4-.6V16l.3-.6c.1-.3.2-.6.4-.8 0-.2-.1-.4-.2-.6zm5.4-11.8c-.1-.1-.3 0-.4 0-.2.1-.4.3-.5.4-.2.2-.2.4-.2.6-.2.3-.4.6-.6.8-.1 0-.1.1-.1.2s0 .1-.1.2c-.3.2-.4.6-.6.9 0 .2.1.3.1.5 0 .1.1.1.2.2.2-.1.4-.1.7 0 0-.1.2 0 .4.1.1.1.2.2.2.3.1.1.2.1.4 0 .1-.1.3-.1.4-.2.2-.3.4-.5.4-.9v-.1c0-.2.1-.3.1-.5v-.5c0-.3.1-.7.1-1-.2-.7-.2-.7-.5-1zM17.1 7.6c.2.1.3.1.4-.1.1-.1.1-.2.2-.2s.3-.1.4-.1c.2-.1.3-.2.4-.4.1-.1.1-.3.2-.4.1-.1.2-.1.3-.2.2-.1.2-.3.1-.5s-.3-.3-.5-.5c-.2-.1-.4-.2-.6-.5-.4-.3-.7-.7-1.2-.8-.2-.1-.5-.2-.8-.3h-.2c-.3 0-.4.1-.4.4 0 .2-.1.5-.1.7.1.2.3.4.3.7 0 .1.1.1.1.2.1.3.3.5.4.8l.4.4c.1.2.1.4.2.6.2.1.3.1.4.2zm7.3-2.3c-.2 0-.4.1-.5.3-.1.1-.1.2 0 .3 0 0 0 .1.1.1 0 0 0 .1.1.1v.3c0 .2.1.2.2.4 0 .1-.1.1-.1.2v.2c0 .3.1.5 0 .8 0 .2.1.3.1.5 0 .1.1.1.1.2 0 .3-.2.5-.2.8l.4.4h.1c.2-.1.4-.3.5-.5 0-.2.1-.3.1-.5-.3-.2-.3-.3-.4-.4-.1-.3 0-.5.1-.7 0-.1-.1-.2-.1-.3.1-.1.3-.3.2-.5v-.1l-.2-.2c.1-.1.3-.2.2-.5 0-.1-.1-.1-.2-.2 0-.1.1-.3.1-.4-.1-.2-.4-.3-.6-.3zm-1 1.6c-.1-.1 0-.2-.1-.3-.1-.1-.1-.3-.3-.4-.2-.1-.3.1-.4.1-.1.1-.1.2-.2.3 0 .1.1.3.1.4.1.1.1.2.2.3 0 .1-.1.2-.1.3 0 .1-.1.2 0 .2V9c.1.2.3.2.5.3h.2c.1 0 .1-.1.2-.1.1-.1.1-.3.1-.4v-.2c0-.1.1-.2.1-.3 0-.4-.1-.7-.1-.9 0-.1.1-.2.1-.3-.1-.2-.2-.2-.3-.2zm-6 2.3c0 .2 0 .3.1.4.2.1.4 0 .6 0 .1 0 .2 0 .3-.1.1-.1.1-.3.3-.5h.2c.1 0 .3-.1.4-.2 0-.1.1-.2 0-.2l-.3-.3c-.2-.1-.3-.1-.5-.1-.1 0-.1.1-.2.2v.2c0 .1 0 .1-.1.2s-.2 0-.2 0c-.1 0-.3.1-.4.1-.1.1-.1.2-.2.3zm9.2-2c.1 0 .1-.1.1-.2v-.9c-.1-.2-.1-.3-.3-.3h-.3c-.1 0-.2.1-.3.2 0 .1-.1.1 0 .2 0 .1.1.2.1.2 0 .1 0 .2-.1.2s-.2.1-.3.2c0 .3.2.5.5.7.3-.1.4-.2.6-.3zm-6.9 6.3v-.3c0-.1-.1-.1-.2-.2H19c-.1 0-.1 0-.2-.1-.1 0-.3.1-.4.1-.1.1-.2.2-.2.3 0 .2 0 .4.2.4.1.1.2.1.3.1h.2c.1 0 .1 0 .2.1.4 0 .5-.2.6-.4zm12.8-.4c-.1.1-.1.2-.1.3.1.1.1.2.2.3.1.1.3.2.4.2.1 0 .1 0 .2-.1.1-.2.3-.2.4-.3 0 0 0-.1.1-.2v-.1c-.1-.2-.2-.3-.4-.4h-.2l-.6.3zm-2.2-6.5c0-.1 0-.2-.1-.3-.1 0-.2-.1-.3-.1-.2 0-.3 0-.4.2-.1.1-.2.3-.1.5.1.1.1.3.2.5.1.1.2.1.3.1.2-.1.3-.2.4-.3-.2-.2-.1-.4 0-.6zm-13.5 6.3c0 .1.1.1.1.2h.2c.2-.1.3-.2.5-.4.2-.1.2-.2.1-.5l-.1-.1c-.1-.1-.3-.2-.4-.1-.3.1-.4.3-.5.7.1.1.1.1.1.2zm16.8-1c.2-.1.2-.5 0-.6l-.1-.1c-.1-.1-.2-.1-.3-.1-.1 0-.2.1-.4.1s-.3.2-.2.4c.1.3.2.5.6.5.2-.1.3-.2.4-.2zm-3.2-4.5-.1.1c0 .1-.1.1-.1.2s.1.2.1.2c.2.1.4.1.7.1.1 0 .2-.1.2-.2.1-.2.1-.4-.1-.6l-.1-.1-.6.3zm-4.3.9h.2l.1-.1c0-.2.1-.3.1-.5-.2-.2-.5-.3-.8-.2-.1.1-.2.2-.3.5.3.1.5.3.7.3z"/>
    <path class="st1" d="M30.6 19.7c-.1 0-.1.1-.1.1-.1.1-.2.3-.4.4-.2.1-.4.3-.7.4-.1 0-.3.1-.4.2-.2.1-.4.2-.7.2-.2 0-.4.1-.7.2-.2.1-.5.1-.7.1H26.1c0 .1.1.1.2.1s.1.1.2.2c.1 0 .2-.1.3-.1.2 0 .3.1.3.2s.1.1.1.2h.1c.1 0 .1-.1.2-.1.1-.1.3-.1.4 0 .1.1.2.2.3.2.1 0 .2-.1.2-.2h.4l.3.3h.2c.2 0 .4 0 .5.2l.1.1c.1-.1.2-.1.3-.2h.3c.2-.3.2-.3.6-.5.1-.1.2-.3.2-.4.2-.2.4 0 .6 0 .1-.1.1-.2.2-.2.1-.1.2-.1.3-.1.1 0 .2-.1.2-.2.1-.1.1-.2 0-.3l-.2-.2c-.1-.1-.1-.3-.2-.4v-.1c0-.1 0-.2.1-.3.1-.1.2-.1.2-.2 0-.2-.1-.2-.2-.4-.1-.3-.1-.6-.4-.9l-.1.1c0 .1-.1.2-.1.4-.1.2-.3.3-.5.4-.2.1-.3.1-.5.2.1.1-.1.3-.1.6 0-.1 0 0 0 0s.1 0 .1-.1h.1c.2 0 .4 0 .7-.1h.2c.1 0 .2.1.2.2v.4c0 .1-.1.2-.2.2-.2.1-.3.2-.5.2-.2-.1-.4-.2-.5-.3-.1-.1-.2-.1-.2-.2s0-.2.1-.3zM30.7 57.6h.4c.1-.2.1-.4.2-.6.1-.1.2-.1.4-.1.1 0 .2.1.3.2v.5c0 .1.1.1.1.1h.1c.1-.1.1-.2.2-.2.1-.1.2-.1.4-.1.1.1.2.1.3.3 0 .1-.1.2-.1.3 0 .1.1.2.1.4-.1.2-.3.4-.4.6v.2c.1 0 .1-.1.2-.1.1-.1.2-.3.3-.4.1-.1.1-.2.2-.3 0 0 .1-.1.1-.2 0-.3.2-.4.3-.7.3-.4.4-.8.7-1.2v-1.5c0-.1 0-.2-.1-.2h-.3c-.2.1-.3 0-.4-.1h-.1c-.1.1-.1.2-.1.4s-.1.3-.3.4c-.1 0-.1.1-.2.1s-.1 0-.2-.1c-.2.1-.4.1-.7.2-.1 0-.1-.1-.2-.1 0 0-.1 0-.1.1s-.1.1-.1.2c-.1.3-.2.6-.4.8-.1.1-.2.3-.3.5-.1.1-.2.2-.3.2v.4zM17.1 18.8c0 .1.1.2.1.3 0 .1 0 .2-.1.4.2.1.4.1.5.2.1.1.2.2.2.3v.4l.1.1c.1 0 .2-.1.3-.1.4-.2.7-.3 1.1-.5.1-.1.2-.1.3-.1.1 0 .2-.1.3-.2 0 0 0-.1-.1-.2s-.3-.2-.4-.3c-.1-.1-.2-.2-.4-.2-.1-.1-.3-.2-.4-.3-.2 0-.3 0-.5.1-.2-.1-.6 0-1 .1.1-.1.1-.1 0 0zM16 17.4v.2c.2.3.4.5.7.6.2 0 .4 0 .7-.1.2-.1.4-.1.5-.2v-.7c0-.2-.1-.2-.3-.2-.3 0-.6.1-.9.2-.2 0-.4.1-.5.1 0 0-.1 0-.2.1z"/>
    <path class="st2" d="m22.2 61.9.1.1c.2-.1.3-.4.6-.4.1 0 .1 0 .2.1s.2.2.3.2c.1-.2 0-.4.1-.6.1-.1.3-.2.3-.5l-.1-.1h-.2c-.2.1-.5.1-.7.1-.2 0-.2 0-.2.2s0 .3-.2.4c0 .3-.1.3-.2.5zM32.7 52.1h.2s.1 0 .1-.1v-.1c-.1-.1-.2-.2-.4-.3-.2 0-.2 0-.3.2.1.1.3.2.4.3zM33.1 52.8c-.1 0-.1 0-.1.1v.7h.1l.1-.1c-.1-.2-.1-.5-.1-.7zM22.8 63c.1 0 .1 0 0 0h.2c0-.1.1-.3.1-.5-.1 0-.2.1-.2.2s-.1.2-.1.3zM28 22.7c-.1 0-.1.1-.1.2v.1h.1c0-.1.1-.2 0-.3zM32.1 53.5s.1 0 0 0l.1-.1s-.1 0-.1.1c0-.1 0 0 0 0zM34.3 53.7c-.1 0 0 0 0 0 .1.1.1.1.1 0 0 0-.1-.1-.1 0 0-.1 0 0 0 0zM12.1 64.8h.1-.1c.1 0 .1 0 0 0zM29.1 22.5s0 .1 0 0c0 .1.1.1 0 0 .1 0 0 0 0 0zM32 54v.1-.1z"/>
    <path class="st0" d="M14 28.2c.1.2.4.3.6.4.2 0 .3.1.4.2.2.2.3.4.5.6.1.1.2.1.3.2 0 .2.1.3 0 .5 0 .1-.1.1-.2.1h-.4c-.1-.1-.3-.1-.4-.2-.1 0-.2.1-.3.1-.1 0-.1 0-.1-.1v-.3c-.1-.2-.3-.3-.5-.3s-.4 0-.6-.1c-.1 0-.1-.1-.1-.1v-.4c-.1-.2-.2-.2-.3-.3-.1 0-.2 0-.3.1-.1-.1.1-.2 0-.3 0-.1-.1-.1-.1-.2l.1-.1c.1 0 .2.1.4.1.1 0 .2 0 .3-.1 0-.2.1-.4.1-.6 0-.1-.1-.3-.1-.4-.1-.2-.3-.2-.4-.2 0 0-.1 0-.1.1-.1 0-.1.1-.2.1v.4c0 .1-.1.2-.2.2s-.2 0-.3-.1c-.3 0-.5.2-.7.3-.1 0-.1.1-.1.2.1.1.1.3.2.4 0 .2-.2.2-.2.4 0 .1.1.3.1.3.2.3.5.2.6.5 0 .1 0 .2-.1.3v.2c.1.3.2.4.4.6.3.2.5.4.8.5h.6c.2.1.2.2.3.3.1.1.2 0 .4 0h.4c.2.1.4.1.6 0 .2.1.4.1.6.1.1 0 .1-.1.2-.1.1-.1.2-.1.4-.2.1 0 .3-.1.4-.1.2-.1.2-.1.1-.4v-.1c-.1-.1-.2-.1-.3-.2v-.1c.1 0 .1-.1.2-.1l.2-.2c0-.1-.1-.1-.1-.2-.1-.1-.1-.1-.1-.2 0-.3-.2-.4-.4-.5-.1-.1-.2-.2-.4-.2-.2-.1-.3-.2-.4-.3-.1-.1-.1-.2-.1-.3 0-.2-.1-.3-.3-.3h-.6c-.1-.1 0-.2 0-.2v-.2c-.1-.2-.2-.2-.4-.3h-.2c-.2.1-.3.2-.3.4 0 0 0 .2.1.4zM22.6 37.7c-.1-.2-.3-.2-.5-.2h-.4c-.1-.2 0-.4-.1-.6-.1-.1-.2-.2-.4-.2-.1 0-.3.1-.3.2s-.1.2-.1.3c0 .1-.1.2-.2.2 0-.2 0-.4-.2-.5-.1-.1-.1-.2-.1-.4 0-.1-.1-.2-.2-.3v-.3c0-.1-.1-.2-.2-.3.2-.1.4-.3.5-.6v-.3c.1-.1.1-.2.2-.3 0-.1.1-.2.1-.2 0-.1-.1-.2-.1-.3-.2-.1-.3-.1-.5-.2-.3.1-.5.2-.8.3l-.3.3c-.2.1-.4.2-.5.3v.4l.2.2c.2.1.4 0 .6.2-.1.1-.2.1-.4.2-.1 0-.2.1-.3.2v.3c.1.3.3.4.4.5v.5c.1.2.1.4.2.5.1.1.3.1.4.1.2.1.2.3.3.4l.1.1c.3.2.6.1.8-.1 0 0 .1-.1.2-.1.1.2.2.4.5.6.2.1.4 0 .5.1.1 0 .1.1.2.2.2.3.4.3.7.2.1-.1.1-.1.2-.1.5.2 1.1.2 1.6.2.2.1.3.2.3.3.1.2.2.3.3.4.2.2.3.2.5 0l.1-.1c.1-.1.1-.2.1-.3v-.2l-.1-.1c-.1-.1-.2-.2-.2-.4 0-.1 0-.2-.1-.2l-.1-.1h-.3c-.1 0-.1-.1-.2-.1h-.1c0-.1-.1-.2-.1-.3-.1-.1-.3-.1-.4-.2-.1-.1-.3-.2-.4-.3h-.4c-.4-.1-.7 0-1 .1.1 0 0 0 0 0zM20.9 24.6h-.5c-.1 0-.2-.1-.3-.2-.1-.1-.1-.2-.2-.3-.1 0-.3-.1-.5-.1h-.1c-.1.1-.2.3-.4.4.1.2.1.3.1.5s.3.5.5.5c.1 0 .2 0 .2-.1.1-.1.1-.1.1-.2h.1c0 .1.1.3.1.4 0 .1 0 .2-.1.4 0 .1.1.2.2.2s.2.1.4 0c.1 0 .1-.1.1-.1 0-.1.1-.1.1-.2s.2 0 .2 0c0 .1.1.1.1.2v.8c.1 0 .1.1.2.1.1.1.2.1.3 0 .1 0 .2-.1.2-.1s.1 0 .1.1 0 .2-.1.2c.1.2.3.3.6.3.1 0 .2-.1.3-.2V27c0-.1.1-.2.2-.1l.1.1v.4c0 .1.1.3.1.4 0 .1 0 .2.2.3.1.1.2.1.4 0 .1-.1.3-.1.4-.2h.3c.2 0 .4-.2.3-.4 0-.1-.1-.3-.1-.4V27s.1 0 .1-.1l.4.2v.4c.3.4.5.3.7 0 0 0 0-.1.1-.2l.1-.1c.2 0 .2.2.2.3.1.1.2 0 .2 0 .1 0 .2 0 .3-.1.1-.1.1-.2.3-.2.1 0 .2.1.3.1.1.1.2.2.4.3.2 0 .4-.1.4-.3.1-.2.2-.3.3-.4l.1.1c0 .2 0 .3.1.5v.1l.1.1h.4c.1 0 .1 0 .1-.1l.3-.3c.1-.2 0-.3-.1-.4-.1-.1-.2-.2-.3-.2h-.6c-.1-.1-.2-.2-.4-.3h-.4c-.1.1-.2.1-.3.2-.1.1-.2.1-.4 0-.1 0-.1-.1-.2-.1s-.2-.1-.3-.1c-.2.1-.4.1-.5.2-.3 0-.4-.2-.6-.2H25c-.2 0-.3 0-.5-.1-.1-.1-.2-.2-.3-.4-.1-.1-.2-.1-.3-.1-.1 0-.2.1-.3.1-.2-.1-.4-.1-.5-.2-.2 0-.3.2-.4.3h-.1c-.1-.1-.2-.1-.3-.2-.1-.1-.3-.1-.4-.2-.1-.1-.2-.3-.2-.4-.1-.1-.3-.1-.5-.2l-.3-.3c-.1-.1-.1-.2-.2-.3.4.4.4.3.2.2zM4.4 46.8c.1.4.1.4.4.8v.4c0 .2.2.3.3.3h.5c.2.1.1.3.1.5.1.1.1.2.2.3.2.1.3.1.5.2.1.2.1.3.2.5s.3.2.4.2c.2-.1.3-.2.4-.3h.1c.1.2.3.3.5.3s.3-.2.4-.3c0-.2-.1-.3 0-.5.1.1.2.2.4.3.1-.2.2-.3.3-.5v-.1c0-.1-.1-.2-.1-.2 0-.2.1-.4.1-.6 0-.2-.1-.3-.3-.3h-.9c-.1 0-.2.1-.3.1-.2-.1-.3-.1-.4-.2-.2 0-.3-.1-.4-.1-.2-.1-.4 0-.6-.2v-.2c0-.2-.2-.4-.4-.4-.1 0-.2 0-.4.1l-.1-.1c0-.1.1-.2.1-.3.1-.1.1-.2.2-.4 0-.1 0-.2-.1-.3-.1-.1-.1-.3-.3-.3 0 0-.1 0-.1-.1 0-.2.2-.4.3-.6 0-.2 0-.3-.1-.4-.1 0-.2-.1-.3-.1-.1 0-.2 0-.3-.1.1-.1.2 0 .3-.1.2 0 .3-.1.3-.3v-.4l-.1-.1H4.1c-.1.1-.3.2-.4.2-.1.1-.1.2-.1.3 0 .2.1.4.2.6.1.1.3.2.4.3v.1c-.1.2-.2.5-.2.7 0 .2 0 .2.1.3l.3.3c.2.3.2.3 0 .7zM17.4 43c.1-.2.1-.3.2-.5l.2-.2c.3-.1.6-.1.7.3 0 .2.1.3.1.5 0 .1 0 .2.1.2h.1c.1 0 .3.1.2.3 0 .1 0 .3.1.4.1.1.2.2.3.2.1.2.1.2.2.3.1 0 .2 0 .3.1l.3.3c.1 0 .3.1.4.1.1.1.2.2.3.2h.5c.2 0 .3.1.3.3 0 0 0 .1-.1.1-.2.3-.3.5-.4.8 0 .1-.1.1-.1.1-.1.1-.2.1-.3.2 0 0-.1 0-.2-.1l-.1-.1-.2.2c-.1.1-.2.1-.3.1-.1 0-.2 0-.2-.1-.1-.1-.1-.2-.2-.3l-.1-.1c-.1-.1-.3-.1-.5-.1-.2-.2-.2-.5-.4-.6-.1 0-.2 0-.2-.1-.1-.1-.1-.2-.2-.3-.1-.1-.2-.2-.2-.4 0-.1-.1-.1-.2-.2 0-.1 0-.2-.1-.3V44c.1-.1 0-.3 0-.4 0-.1.1-.2 0-.4l-.1-.1h-.4c.3.1.2 0 .2-.1zm3.2 2.8c.1-.1.1-.3.2-.4 0-.1-.1-.1-.1-.1-.2.2-.3.4-.3.7 0 .1 0 .1.1.2 0-.1 0-.3.1-.4z"/>
    <path class="st0" d="M24.1 34.7h-.2c-.3-.4-.7-.7-1.1-1l-.3-.3c-.1-.1-.2-.2-.2-.3-.1-.3-.3-.5-.5-.7-.2 0-.3.1-.5.1h-.5c-.2 0-.4 0-.5.1-.1.1-.2.1-.4.2-.1 0-.1-.1-.1-.2-.1-.2-.2-.3-.4-.3h-.3c-.1 0-.1 0-.2.1s-.2.3-.2.5 0 .3.2.4c.1 0 .2.1.4 0 .1-.1.2-.1.3-.2.2.1.1.2.2.4.2.1.3.2.5.1.2-.2.5-.2.8-.3.1 0 .2 0 .2.1.2.2.3.4.5.6.4.3.7.5 1.1.8.1.2.4.5.6.6l.6.6c.1.3.4.5.6.7.1.1.2.1.3.1.1 0 .2-.1.2-.2s0-.2-.1-.3c-.2-.3-.3-.6-.5-.8-.1-.1-.3-.4-.5-.8 0 .1 0 0 0 0zM33.3 43.5c.1.1.2.1.3.2.1.1.2.2.3.2.1 0 .2 0 .3-.1.1 0 .3.1.4.1.1 0 .2-.1.3-.2.1-.1.1-.3 0-.5-.2-.2-.4-.5-.5-.7-.2-.2-.4-.4-.5-.6-.1-.1-.2-.1-.3 0-.1.1-.2.2-.3.2-.2-.1-.4-.1-.7 0-.2 0-.3.1-.5.1l-.3.3c-.1.1-.2.1-.3.2-.1.1-.1.3-.1.4-.1 0-.2.1-.3.1-.1.1-.1.3-.1.4.1.1.2.2.3.4l.2.2c.1.1.3.1.5 0 .1-.1.2-.1.3-.2.2 0 .2.2.4.2s.3-.1.4-.3c.1-.1.2 0 .4-.1.1 0 .1-.1.2-.2-.4.1-.4 0-.4-.1-.1-.1-.1-.1 0 0-.1-.2-.2-.3-.1-.4h.1v.4zM19.3 27.9c0-.1 0-.1-.1-.2s-.2-.1-.3-.2h-.3l-.1-.1c-.1-.1-.1-.2-.2-.3-.1-.2-.2-.3-.4-.3-.1 0-.2-.1-.3-.2-.1-.1-.2-.3-.3-.4-.1-.2-.4-.2-.5 0-.1.1-.1.1-.1.2-.1.2-.2.3-.2.5v.4c0 .2.1.3.3.4.1 0 .2 0 .4-.1l.2-.2h.1v.1c0 .1-.1.3 0 .4v.4c0 .1.1.2.1.3.1 0 .1.1.2.1.2 0 .3 0 .3-.1.1-.2.1-.3.1-.5 0-.1.1-.1.2-.1v.2c0 .1-.1.2-.1.3 0 .1 0 .2.2.3H18.8c.1.1.1.2.2.2 0 .1.1.2.1.3.1.2.3.3.5.2h.1c.1.2.1.3.2.5l.2.2h.1c.1-.1.2-.2.3-.4v-.7c-.1-.1-.2-.1-.3-.2h-.3c-.1 0-.1 0-.2-.2 0-.1.1-.1.1-.2l.1-.1c0-.2-.1-.3-.2-.4-.1-.1-.2-.1-.3-.1h-.1z"/>
    <path class="st0" d="M24.1 34.7s0 .1 0 0c.1.1.2.1.3.1.1 0 .2-.1.3-.1.1-.1.2-.2.2-.3.5-.1.5-.1 1-.4.1-.1.1-.2.2-.3.2-.1.3-.1.4-.1h.5c.1 0 .2-.1.2-.2.1-.1.1-.2.1-.4 0-.1-.1-.2-.2-.3v-.3c0-.1-.1-.2-.3-.2-.2-.1-.4-.1-.5-.2-.2-.1-.4-.1-.5 0-.1.1-.1.2-.2.3-.2.1-.4.2-.6.4-.1.1-.3.1-.4.2-.1.1-.2.2-.2.3 0 .1 0 .3-.1.4-.1.1-.1.3-.2.4v.2c-.1.3-.1.4 0 .5zM10.5 46.5c.1-.1.1-.2.2-.3.1-.2.1-.3 0-.4l-.2-.2-.3-.3v-.4c0-.1 0-.2-.1-.2-.1-.2-.2-.3-.4-.3h-.2c0-.1 0-.1-.1-.2 0-.1-.1-.2-.1-.2-.2-.1-.4-.2-.5-.3l-.3.3c-.1.2-.2.3-.2.5s0 .3.2.4l.3.3c.1.2.2.3.5.3h.1v.1c0 .1-.1.2-.1.4s-.1.4-.2.6c-.1.1 0 .2.1.3 0 .1.1.2.2.1s.3-.2.5-.3c.2 0 .4-.1.6-.2zM31.5 40.1c0-.1.1-.2.1-.2.1-.1.1-.2.2-.2 0-.1.1-.2.1-.2 0-.2-.2-.3-.4-.4-.1 0-.3 0-.4.1-.2.1-.4.2-.6.4-.1-.1 0-.2 0-.3-.1-.2-.2-.2-.4-.3-.3-.1-.6 0-.9 0-.1.1-.2.1-.3.2h-.2c-.2 0-.3.1-.4.3 0 .1.1.2.1.4 0 .1 0 .2-.1.3.2.1.3.2.6.2.1 0 .2 0 .2-.1.1.1.2.2.4.3.1 0 .2 0 .2-.1.1 0 .2.1.3.1.1 0 .2-.1.3-.1h.4c.1-.1.2-.1.3-.2.3-.2.4-.2.5-.2zM28.5 29.9l-.1-.1c-.2-.2-.3-.2-.5-.1-.1 0-.2.1-.2.2v.6c0 .1 0 .2.1.3 0 .1-.1.2 0 .3.1 0 .3.1.5.1h.3l.3.3c.1.1.2.1.3 0 .1-.1.2-.1.3-.2h.3c.2-.1.4-.1.6-.1.3 0 .5-.3.4-.6 0-.1-.1-.2-.1-.2-.1-.2-.2-.3-.4-.3s-.3-.1-.5-.2-.3-.1-.5-.1h-.2c-.2 0-.4 0-.6.1zM30.7 34.1c.1 0 .1.2.1.3.1.1.2.2.3.2.2.1.3 0 .4-.2V34c0-.1-.1-.2-.1-.3v-.3c0-.1-.1-.1-.1-.2l-.2-.2H31c-.1 0-.2 0-.2.1h-.1c-.1-.1-.3-.2-.4-.2-.2 0-.3.1-.5.2-.3 0-.6.2-.9.2-.1 0-.1.1-.2.2v.1c.1.1.1.3.2.5s.1.3.2.5c.1.1.2.3.4.3.1 0 .2-.1.3-.1h.3c.2 0 .3-.1.5-.1.1 0 .1-.1.2-.1l.1-.1c-.2-.2-.2-.3-.2-.4-.1-.1-.1-.2-.1-.4.1.1 0 .3.1.4zM20 53.3l-.1.1c-.2.1-.3.2-.4.4 0 .1-.1.2-.2.2v.1c.1.1.2.1.3.2h.2c.1-.1.2-.1.4-.2.2 0 .4-.2.4-.4v-.2c-.1-.1-.1-.2-.2-.3 0-.1 0-.3.1-.4.4.1.4.1.7 0 .1 0 .2.1.3.1.2-.1.3-.1.5-.2.1 0 .3-.1.4-.1.1-.1.1-.3.1-.4 0-.1-.1-.2-.2-.2s-.3-.1-.6 0c-.1 0-.1 0-.2-.1v-.1c0-.1-.1-.2-.2-.2h-.4l-.2.2c-.1.1-.3.2-.4.3-.1.1-.2.3-.4.4 0 .1 0 .4.1.8zM15.7 52.5c.2 0 .3.1.4.1h.5c.1-.1.3-.1.4-.1.1.1.2.1.3.2.1 0 .1 0 .2.1.2.1.5-.2.4-.4v-.2c-.1-.2-.1-.4-.1-.5 0-.1 0-.1-.1-.2 0-.1-.1-.1-.1-.2-.2-.1-.4 0-.5 0h-.5c-.2-.1-.3-.1-.5-.2-.3-.1-.6 0-.9.2-.1.1-.1.2-.2.3v.7c0 .2.2.3.5.3.1-.1.1-.1.2-.1zM18.3 50.3c0 .2.1.3.1.5l.3.3h.1c.2 0 .4-.1.5-.2.1-.2.2-.4.4-.6 0-.1 0-.1-.1-.2s-.2-.2-.2-.3c-.1-.1-.1-.2-.2-.3-.1 0-.2-.1-.3-.1-.1-.1-.1-.2-.2-.3-.1-.1-.3-.1-.4-.1-.1-.1 0-.1 0-.2v-.2s0-.1-.1-.1l-.6-.3c-.1-.1-.3-.1-.4 0-.1.1-.2.1-.2.3v.7l.1.1c.2.2.4.4.6.7.1 0 .4.1.6.3zM30.8 24.6c0-.1 0-.1-.1-.2s-.2-.2-.3-.2h-.1c-.1.1-.2.2-.3.2-.2 0-.4-.2-.6-.1-.1 0-.1.1-.2.2-.1 0-.2-.1-.2-.2-.1-.2-.1-.3-.1-.4-.2-.1-.3-.1-.4-.1-.1 0-.2 0-.3.1-.1.1-.2.3-.2.4 0 .1 0 .3-.1.5-.1.1 0 .3.1.4 0 .1.1.1.2.2s.1.1.2.1.2 0 .2-.1c.1-.1.1-.3.2-.5 0-.1.1-.2.2-.1l.1.1c.1.3.1.5.2.8.1.1.2.3.3.3.2 0 .3 0 .4-.2 0-.1.1-.1.1-.2 0 0 .1-.1.2 0h.2c.2-.1.3-.2.4-.3V25c-.3-.1-.2-.3-.1-.4zM12.2 55.5c.1 0 .2 0 .3-.1.1.1 0 .3 0 .4.2.1.5.2.7.3.1.1.2.2.2.3.2.1.4 0 .5 0 .1 0 .1-.1.1-.2v-.5c.1-.2.2-.3.2-.5s-.1-.2-.2-.3c-.1-.1-.3-.1-.4-.1-.1.1-.2.2-.2.3 0 .1 0 .1-.1.2h-.1s-.1 0-.1-.1V55l.3-.6c0-.1 0-.2-.1-.3-.2-.1-.4 0-.6 0-.1-.1-.1-.2-.1-.3-.1 0-.1-.1-.2-.1-.1-.1-.2-.1-.3 0-.1 0-.2.1-.3.2 0 .1 0 .2-.1.4v.5c.1.4.2.6.5.7zM8.6 32.7c0 .2.1.4.3.5.1.1.2.1.3 0l.1-.1.1-.1h.6c.1 0 .1 0 .2-.1.1 0 .2-.2.3-.3.1-.1.3 0 .4-.2 0-.1.1-.3.1-.4 0-.2 0-.3-.1-.5-.3-.2-.3-.2-.7-.1-.5-.1-.6-.1-1.3-.1-.2.2-.2.5-.4.8.1.3.1.5.1.6zM10.1 26c.1-.2.2-.3.3-.5v-.3l-.2-.2c-.1-.1-.1-.2-.2-.4-.1-.1-.3-.1-.5-.2-.1-.1-.1-.2-.2-.3-.1 0-.2-.1-.3-.1-.1-.1 0-.2 0-.4 0-.1.1-.1.1-.2v-.1c-.2-.2-.5-.3-.7-.1-.3.3-.4.5-.5.8.1.2.3.3.5.4 0 .1-.1.2-.1.3 0 .2.1.4.2.6.1 0 .2.1.3.1.3.1.5.2.6.5.3.3.5.3.7.1zM23.4 50.4c.2.1.4 0 .5-.1 0-.2-.1-.3-.1-.4v-.2c0-.1.1-.1.2-.1s.1.1.2.1c.1.1.2.3.4.4.2 0 .3-.2.5-.3h.1c.2 0 .3-.2.3-.4s-.1-.3-.3-.3h-.3c-.1 0-.2.1-.2.1-.1 0-.1-.1-.2-.1l-.3-.3c-.2-.1-.3-.1-.5-.1-.1 0-.2 0-.2.1-.1 0-.2-.1-.3-.1h-.3c-.4.2-.6.4-.8.8v.5l.1.1h.1c.1 0 .2 0 .3-.1.1-.1.2-.2.2-.3.1-.1.2-.1.3-.1.1.1.2.2.2.3-.2.2 0 .3.1.5zM31.9 37.6c-.2-.3-.2-.6-.2-.8l-.2-.2c-.1-.1-.3 0-.4.1 0 0 0 .1-.1.1v.5c.1.2.1.4.2.6.1.1.1.3.3.4h.2c.1 0 .2 0 .3-.1 0-.1.1-.1.1-.2l.1.1c.1.1.1.1.1.2s.2.1.2 0c.2-.1.3-.2.3-.5h.1c.1.1.2.1.3.1.1 0 .2 0 .3-.1.1-.2.2-.3.2-.5-.1-.2-.2-.3-.4-.4H33l-.3-.3h-.1c-.3 0-.4.1-.4.4v.4c-.3-.1-.3.1-.3.2zM8.6 53.4l-.3-.6c-.1-.1-.2-.2-.4-.2-.3.1-.5.2-.7.4-.1 0-.2-.1-.3-.2h-.4s-.1 0-.1.1c0 .4.1.7.2 1.1.1.1.2.2.2.3.1.1.3.1.4.2 0 0 .1.1.2.1.2 0 .3.1.5.1.1.1.3 0 .4 0 .2-.2.4-.5.3-.9v-.4zM5.3 29.7c0 .1.1.3.1.4v.1c.2.2.2.4.3.6.2.2.3.2.5.2s.3 0 .5-.1c0 0 .1.1 0 .1-.1.1-.1.2-.2.3v.2c0 .1.1.1.1.1.1.1.3.1.4 0 .2-.2.4-.5.7-.7l.1-.1v-.2l-.1-.1c-.1-.1-.2-.1-.3-.1-.3.1-.3.1-.6.3-.1 0-.2-.1-.3-.2-.1-.1-.1-.2 0-.3.2-.2.3-.4.4-.6v-.1c-.2-.3-.5-.5-.9-.8-.1-.1-.3 0-.3 0-.2.2-.2.3-.3.3 0 .2-.1.4-.1.7zM21.4 41.1c-.1-.1-.3-.3-.5-.3-.1-.1-.2-.1-.3-.2l-.1-.1c-.1-.3-.4-.4-.6-.4-.1 0-.1.1-.2.1-.1.2-.2.3-.3.5-.1.2 0 .3.1.5.1.1.2.1.3.1 0 0 .1.1.1.2.1.3.1.3.3.5h.8c.1 0 .1.1.1.2.2.1.3.2.5.3.2 0 .3 0 .5-.1.1-.1.1-.1 0-.2 0-.1-.1-.1-.1-.2s.1-.2.1-.3c0-.1-.1-.3-.2-.4-.2-.2-.3-.2-.5-.2zM13.8 42.1c.1-.6.2-1.1.2-1.7 0 0 0-.1-.1-.1s-.2-.1-.3-.1c-.1 0-.1 0-.2.1s-.2.2-.3.4c-.1.1-.3.2-.4.3-.1.2-.1.5-.3.6-.2-.1-.3-.1-.5-.2-.1 0-.2 0-.3.1-.1.1-.3.2-.4.3-.1.1-.1.2-.1.3 0 .1.1.2.3.2h.5c.1-.1.3-.2.4-.3.1.1.1.3.3.3.1 0 .3-.1.5-.1 0 0 .1 0 .2.1.1 0 .1.1.2.1s.2 0 .3-.1c-.1-.1-.1-.1 0-.2zM24.7 43.9c-.2-.2-.4-.2-.5-.4 0-.2.1-.3.1-.4 0 0 0-.1-.1-.2l-.5-.5h-.5s-.1 0-.1.1c-.1.1-.2.2-.2.4-.1.2-.1.4 0 .6l.3.3v.4c-.1.1-.1.3-.2.4 0 .1 0 .1.1.2s.2.1.3.1h.1c.3-.1.5 0 .8-.1.2-.1.3-.1.5-.1.1-.1.2-.3.2-.4-.2-.2-.2-.3-.3-.4zM5.3 42.2c.1.1.2.2.2.3.1.1.1.2.2.3.2.1.3.1.4 0 .1-.1.2-.3.3-.4.1-.1.3-.1.4-.2l.3-.6c0-.2.1-.5.1-.8l-.1-.1c-.1-.1-.2-.2-.4-.2h-.4l-.6.3c-.3.1-.5.3-.6.6v.2c0 .2.1.4.2.6zM14.4 59.7c.1-.1.2-.1.2-.2.1-.1.1-.2.1-.3.1 0 .2-.1.2-.1l.1-.1c0-.2.1-.4.1-.7 0-.2-.1-.4-.3-.4-.3 0-.5.1-.7.2-.2.1-.3.2-.5.3-.1.1-.1.2-.2.4-.3.2-.4.5-.7.7v.4c0 .1.1.2.1.3.1.3.2.3.4.1.2-.2.4-.4.6-.5.2-.1.4 0 .6-.1zM33.4 48.8c0-.1.1-.2.2-.2.2.1.4.3.6.2.1-.1 0-.2.2-.3.2-.1.3 0 .5.1 0 0 .1 0 .1-.1.1-.1.1-.1.2-.3 0-.1-.1-.2-.1-.3 0-.1 0-.2.1-.2 0 0 0-.1-.1-.1-.1-.1-.2-.2-.4-.2s-.5 0-.7-.1c-.1 0-.3 0-.4.2v.1c0 .1-.1.1-.1.2v.3c-.2 0-.3-.1-.4-.1-.1 0-.1.1-.2.1-.2.4-.1.8.1 1.2.1.2.3.2.5.2.1 0 .2-.1.2-.2-.1-.1-.2-.3-.3-.5zM17.1 22.3l-.2-.2c-.2-.1-.3-.2-.5 0-.1.2-.3.4-.3.7 0 .1.1.2.2.2.2.1.3.1.5 0h.1V23.3c.1.2.2.3.3.4.1.1.2.1.4 0 .1 0 .1-.1.2-.1.1.1 0 .3.2.4.1.1.2.1.2.2.1 0 .2 0 .3-.1.2-.1.3-.2.5-.3 0-.1.1-.1.1-.2v-.1c0-.1-.2-.4-.4-.6h-.4l-.2-.2c-.1-.2-.3-.3-.5-.2-.4-.2-.5-.2-.5-.2zM9.8 56.3c-.1.1-.2.3-.3.4v.5c.1.1.3.3.5.3.1 0 .2 0 .3-.1.2-.2.4-.3.7-.4.1 0 .1-.1.2-.1.1-.1.1-.2.1-.3 0-.2 0-.4-.1-.5V56c0-.1-.1-.3-.2-.4 0 0-.1-.1-.1-.2-.1-.2-.2-.3-.4-.3h-.2c-.1 0-.3.1-.3.2-.1.1-.1.2-.2.4s-.1.4 0 .6zM14.6 49.6c0-.1-.1-.1-.1-.2-.2 0-.3-.1-.5-.1-.3.1-.6.2-.8.4-.1 0-.1.1-.1.1s0 .1-.1.1c.1.1.1.3.2.4l.1.1c0 .2.1.4.1.6 0 .2.1.4.1.5.1.1.2.2.3.2.1 0 .3 0 .3-.1.1-.1.2-.3.4-.4.1-.2.1-.4.1-.5 0-.1-.1-.2-.1-.3V50c.1-.1.1-.2.1-.4zM15.6 44.8c-.1-.3-.3-.4-.5-.5-.2 0-.3-.1-.4-.2-.1-.1-.3 0-.4.1v.1c-.2.4-.2.8 0 1.2.2.1.3.2.4.2 0 .1.1.1.1.2s.1.2.3.2h.2c.1 0 .3-.1.4-.2.1 0 .1-.1.2-.1.3-.1.4-.3.4-.6 0-.2 0-.3-.3-.4h-.4zM9.1 39.6c-.1.1-.1.3-.2.5 0 .1.1.1.2.2 0 0 .1 0 .1.1v.2c0 .2.1.3.3.4h.9c.1 0 .1-.1.2-.1s.1-.1.1-.1c.1-.1.2-.4.2-.7-.1-.1-.2-.2-.2-.3-.1-.1-.1-.2-.1-.3-.1-.2-.2-.3-.4-.3H10c-.3.2-.6.3-.9.4zM13.9 23.4c-.1 0-.2-.1-.4-.1-.2-.1-.3-.1-.5-.1s-.4 0-.7.1l-.2.2-.1.1v.7c0 .2.2.3.4.3.3 0 .5.1.8 0h.5c.1 0 .3-.2.3-.3V24c0-.2-.1-.3-.2-.5.2 0 .1 0 .1-.1zM14.8 37.6c.1.1.1.2.2.2l.9.6h.2c.2-.1.3-.2.3-.4v-.2c-.1-.2-.3-.3-.3-.5v-.2c0-.2 0-.3-.2-.5-.2-.1-.3-.1-.5-.2s-.3-.1-.4-.2c-.1 0-.2 0-.3.1-.1.1-.2.2-.2.3v.4c0 .2 0 .3.2.4 0 .1 0 .1.1.2zM14.3 47.4c-.5.1-.5.1-1 .4-.1.1-.1.2-.2.3.1.1.1.2.2.3 0 .1-.1.2-.1.3v.3c0 .1.1.2.3.2h.2c.3-.1.5-.1.8-.1.2 0 .3-.1.4-.3 0-.1.1-.1.1-.2s-.1-.2-.1-.2c-.1 0-.2-.1-.3-.1.1-.2.3-.3.3-.5-.2-.2-.4-.3-.6-.4zM33.3 46.2c.2-.1.4-.2.5-.3.1-.1.1-.3.1-.4 0-.2-.2-.3-.3-.3-.2 0-.3.1-.4.2-.1.1-.1.3-.2.5 0 0-.1 0-.1.1-.1 0-.3 0-.4.1-.1 0-.1.1-.2.1-.1-.1-.2-.2-.3-.2-.1-.1-.3 0-.4.1 0 0 0 .1-.1.1-.1.1-.1.2-.2.4-.1.4-.1.4.1.7.1.1.2.1.3 0 .1 0 .2-.1.3-.2.1-.1.1-.2.1-.3 0-.1.1-.1.2-.2.1 0 0 .2.2.3h.2c.1 0 .2-.1.3-.1l.3-.6zM5.1 33.8c-.1-.2-.3-.3-.5-.3-.6.3-.6.3-.8.5-.2.2-.3.5-.6.7 0 .1.1.2.1.4 0 .1.1.2.1.3.4 0 .6-.1.7-.4.1.1.2.1.3.2h.4c.1 0 .1-.1.1-.1.1-.1.2-.2.1-.4s-.1-.4 0-.6c0-.1.1-.2.1-.3zM26.5 23.5H26s-.1 0-.1.1c0 .2-.1.3-.2.5s-.2.4-.2.6v.1c.3.1.3.1.7 0 0-.1.1-.1.1-.2.1-.1.1-.2.2-.3 0 0 .1-.1.1 0v.1c-.1.2-.1.4-.1.6 0 .1.1.2.2.3h.1c.2 0 .4-.1.4-.3 0-.3.2-.5.2-.7V24c0-.2-.2-.3-.4-.3-.1 0-.2 0-.3.1 0-.1-.1-.2-.2-.3zM14.5 39.6c-.1.1-.1.2-.2.3 0 .2.1.3.1.5v.5c.1.1.2.1.3.2.2.1.4 0 .5-.1l.1-.1c.1-.2.3-.4.4-.6v-.5c0-.1-.1-.2-.2-.3-.1-.1-.2-.1-.3-.2-.2-.1-.4-.1-.6 0-.1 0-.2.1-.1.3zM5.5 35.4c.1 0 .1-.1.2-.1s.1.1.3.2c.1 0 .2-.1.3-.1.2-.2.3-.4.4-.9-.1-.2-.2-.5-.3-.7-.1-.1-.2-.1-.4-.1-.1 0-.2 0-.3.1-.2.1-.3.3-.4.4-.2.3-.2.6-.2.9 0 .1.1.2.2.3h.2zM23.4 45.9c0-.2-.2-.3-.4-.3-.5 0-.5 0-.9-.1-.2 0-.4.2-.5.3-.1.2-.3.4-.3.6 0 .1 0 .3.1.4.1.1.2.2.3.1.1-.1.3-.1.4-.2.1 0 .2.1.3.1h.4c.1 0 .1-.1.2-.1v-.1c.1-.1.1-.3.2-.4.1-.1.2-.2.2-.3zM6.1 28.4l.3.3c.1.1.3 0 .4 0 .1 0 .2.1.3.1.3-.1.5-.3.6-.5.1-.2.3-.4.4-.5 0-.2-.1-.3-.1-.4-.1-.1-.3-.2-.5-.2h-.2c-.2 0-.3.1-.4.1-.5.6-.5.6-.8 1.1zM25 47.1v.3c0 .1.1.2.2.2.3.1.6.1.9 0 .2 0 .3-.1.3-.3v-.1c.1-.1.3-.2.5-.3v-.2c0-.1 0-.2-.1-.3-.1-.1-.2-.3-.4-.4h-.2l-.1.1c-.1.1-.2.2-.3.2-.2 0-.3.1-.4.3-.1.2-.2.3-.4.4.1 0 .1 0 0 .1zM14.6 55.7c-.1.3-.2.5-.3.8 0 .2.1.3.1.5v.1c.1 0 .2.1.3.1.1 0 .2-.1.3-.1.1.1.3.1.4.2.1 0 .2 0 .2-.1.1 0 .1-.1.2-.1.1-.2.1-.4 0-.6-.1-.2-.2-.3-.2-.5-.1-.1-.2-.2-.4-.3-.1-.1-.2-.2-.4-.2l-.2.2zM9.7 39.1c.2 0 .3-.1.4-.1.2-.1.2-.3.1-.5l-.3-.3c.1-.1 0-.2-.1-.3 0-.1-.1-.1-.1-.1-.3-.1-.8-.2-1-.2-.2 0-.3.1-.4.2 0 .1-.1.2 0 .2.1.1.1.2.2.3v.4l.1.1c.1 0 .1.1.2.1.5 0 .7.1.9.2zM31 47.5c0-.4 0-.8.1-1.1 0-.2-.1-.3-.2-.3-.1-.1-.1-.1-.2-.1s-.3.1-.4.2c-.1.1-.2.3-.3.4 0 .2-.1.4-.1.6-.1.1-.2.3-.3.4 0 .2.1.4.3.5h.4c.3-.3.5-.4.7-.6zM10.1 35.6c.4.1.8.3 1.2.4.3-.1.5-.2.8-.3.1-.1.2-.2.2-.3-.1-.1-.1-.2-.2-.3L12 35c-.1 0-.3 0-.3-.1-.2-.3-.5-.2-.8-.1h-.1c-.2.1-.5-.1-.6.1-.1.3-.2.5-.1.7zM23.4 29.7c.1.3.3.6.5.8h.6c.3-.2.3-.2.3-.4-.1-.3-.1-.5-.2-.8-.1-.2-.3-.3-.5-.4h-.5c-.2.1-.3.3-.3.5.1.2.1.3.1.3zM8.5 60.9c-.2.1-.3.2-.5.3-.3.2-.5.5-.7.7 0 .2.1.3.3.3.2 0 .4 0 .7-.1.1 0 .2-.1.3-.1.2 0 .4 0 .5-.1 0-.1.1-.1.1-.2.1-.3.1-.5-.1-.7-.1.1-.2.1-.6-.1z"/>
    <path class="st0" d="M30.8 24.6v.4c0 .1.1.2.1.3l.1.1c.2.1.4.1.6-.1.1 0 .1.2.1.2.3.1.4.1.5.1.2-.1.3-.2.3-.3v-.5c-.1-.2-.2-.3-.4-.3s-.3.1-.5.1c-.1 0-.3-.1-.4-.1-.1 0-.2 0-.2.1.1-.2 0-.1-.2 0 .1 0 0 0 0 0zM19.8 64.7v-.3c-.1-.1-.2-.2-.3-.2h-.3c-.1.1-.2.1-.3.2-.1.2-.1.3-.1.4 0 .1.1.2.2.2h.3c.1 0 .2.1.2.2s0 .2-.1.3c.1.2.2.3.4.3h.3c.1 0 .2-.1.3-.2.1-.1.1-.2.2-.3-.3-.4-.4-.5-.8-.6zM10.9 36.4c-.1-.2-.2-.3-.4-.3s-.4-.1-.6-.1c-.2 0-.3.1-.5.2 0 0-.1.1-.1.2v.4c.1.1.2.2.3.2h.1c.2-.1.3-.1.5-.1s.3 0 .4-.2c.2 0 .3-.1.3-.3zM18.8 39.5c0-.2.2-.4.1-.6-.1-.1-.3-.2-.4-.2h-.4c-.1 0-.2.1-.2.2-.1.2-.2.3-.3.5 0 .2-.1.3.1.4.2 0 .4.1.5.1.2-.1.5-.2.6-.4zM25.4 37.2c-.1.2-.1.3 0 .6.1.1.3.2.4.2 0 0 .1 0 .2-.1.2-.1.4-.2.6-.2.2 0 .4-.3.3-.5 0-.1-.1-.2-.1-.2-.1-.1-.2-.1-.4-.1-.2.2-.6.2-1 .3zM14.4 59.7c0 .1-.1.1-.2.1s-.2.1-.3.2c0 .1.1.2.1.3.1.2.2.3.4.2.3-.1.6-.2.9-.2.1 0 .2-.1.3-.2.1-.1.1-.3 0-.4 0-.1-.1-.2-.2-.2-.1-.1-.2-.1-.4 0-.1 0-.2.1-.3.1-.1.1-.2.1-.3.1zM23.7 24.1c0-.1.1-.1.2-.2.1-.2.2-.5.3-.6-.2-.4-.3-.5-.7-.4-.1.1-.1.3-.2.4-.1.1-.1.2-.2.4v.3c.1.2.2.3.4.3-.1-.1 0-.2.2-.2zM2.8 44.9c-.1 0-.3-.1-.4-.1-.1 0-.2.1-.3.1-.2.2-.3.5-.2.8 0 .1.1.2.2.3.1.1.2.2.4.2h.1c.1-.1.3-.2.3-.3-.1-.1-.1-.2-.2-.3 0-.4.2-.5.1-.7zM21.7 31.6c.1.2.2.3.3.5.3.1.5 0 .6-.2v-.2c-.1-.2-.2-.5-.1-.7v-.1c0-.1-.1-.1-.2-.2-.2 0-.4 0-.5.1-.1 0-.1.1-.2.2v.3c.1.1.1.2.1.3zM11 26.6c-.1.1-.1.1-.2.1-.1.2-.1.3-.1.4 0 .1.1.2.2.2.4 0 .8-.1 1.1-.2.1 0 .2-.1.3-.2v-.2c-.1-.1-.2-.1-.3-.2h-.2c-.1 0-.3.1-.4.1H11zM25.1 23.3c-.3 0-.4.1-.5.3-.1.2-.1.5-.2.7.1.1.1.2.2.3.2.1.5.1.6-.1v-.4c.1-.1.1-.3.2-.4v-.1c0-.2-.1-.3-.3-.3zM14.4 36c.1.1.3.2.4.2h.7c.2 0 .3-.2.2-.4v-.2c-.2-.2-.5-.3-.7-.4h-.1c-.1 0-.2 0-.2.1-.2.2-.3.4-.3.7zM19 59.1c.1.1.3.2.5.1l.2-.2c.1-.1.2-.1.3-.2 0-.1.1-.2.1-.3 0-.2-.2-.3-.3-.4-.1-.1-.1-.1-.3-.1-.1.1-.2.1-.3.2-.2.2-.2.3-.2.5v.4zM6.9 51.2h.7c.1 0 .2-.1.3-.2.1-.1.1-.2.1-.3-.1-.3-.3-.4-.5-.4s-.3.1-.5.1c-.1.1-.2.2-.2.3 0 .2 0 .4.1.5zM18.6 57.5s0-.1-.1-.1c-.1-.2-.3-.3-.5-.2h-.2c-.1.2-.3.3-.4.5 0 .1 0 .1.1.2v.2c0 .1 0 .2.1.2.2 0 .4 0 .5-.1l.3-.3c.2-.1.2-.3.2-.4zM12.7 59.5v-.4c-.1-.1-.1-.2-.2-.2-.1-.1-.2 0-.3 0-.2 0-.2.1-.3.1-.3.2-.3.5-.2.9 0 .1.2.2.3.2.1 0 .2-.1.3-.1.1-.1.2-.2.2-.3.1-.2.1-.2.2-.2zM11.6 53.4c-.1-.1-.2-.2-.3-.2-.1-.1-.4.1-.4.2v.3c0 .2.1.3.1.5.2.1.2.3.5.4.1 0 .1-.1.2-.1-.1-.3-.1-.7-.1-1.1zM10.7 59c.1 0 .2-.1.3-.1l.2-.2.2-.2c0-.6-.2-.6-.6-.6-.1 0-.2.1-.2.2 0 .2-.1.3-.1.5-.1.1 0 .3.2.4zM11.4 22.7c-.1 0-.2.1-.3.1-.2.1-.3.3-.2.5 0 0 0 .1.1.1.1.2.2.3.4.3 0 0 .1 0 .2-.1.2-.1.2-.3.3-.4 0-.1 0-.2-.1-.3-.2-.1-.3-.2-.4-.2z"/>
    <path class="st0" d="M3 47c.2-.2.2-.3.3-.5 0-.1 0-.2-.1-.3l-.1-.1h-.4c-.1 0-.3.2-.3.3v.3c0 .2.2.3.3.3H3zM34.2 49c-.3.2-.4.4-.5.8 0 .1.1.2.2.2h.3c.2-.1.3-.2.5-.4 0-.1.1-.1.1-.2v-.2c-.2-.1-.4-.2-.6-.2zM18.6 63c0 .2.1.3.3.4.2.1.2.1.6 0l.1-.1s0-.1.1-.1c0-.3-.1-.5-.4-.6H19c-.2.1-.3.2-.4.4zM22.9 10s.1 0 .1.1c.3.3.7.6.9 1 .1.4.2.8.1 1.2-.1.3-.3.6-.4.9-.1.3-.4.5-.8.5-.1 0-.3 0-.4.1-.2.1-.3 0-.5 0-.3-.2-.6-.3-.9-.4-.8-.9-.7-.8-1-1.7v-.2c0-.3.1-.6.3-.8.1-.1.1-.2.2-.3l.2-.2c.3-.1.6-.2.9-.4.1 0 .1 0 .2-.1h.6c.1.1.3.2.5.3zm-1.4 2.8c.3.1.7.2 1 .3.4-.1.6-.4.7-.7.1-.2.1-.4.1-.5 0-.3-.2-.6-.4-.8-.2-.2-.5-.4-.9-.5-.2 0-.4.1-.6.1-.1.1-.2.1-.3.2-.1.2-.2.3-.3.5-.1.2-.1.4 0 .5.1.1.1.2.2.4l.5.5zM29.6 9.5l.1.1c.3.2.6.4.7.7.1.1.2.3.3.4 0 .4.1.7 0 1-.1.2-.3.4-.4.5-.1.1-.2.3-.3.4 0 0-.1 0-.1.1-.1 0-.2 0-.3.1-.4.2-.4.2-1.1.5-.4-.1-.7-.2-1-.6-.1-.2-.2-.5-.4-.7-.1-.2-.1-.3-.1-.4v-.2c-.1-.3 0-.6.1-.9.3-.4.6-.8 1-1 .1 0 .1-.1.2-.1.5-.1.9-.1 1.3.1zm0 2.4c.2-.1.3-.3.4-.5v-.1c0-.4-.3-.7-.6-1 0 0-.1-.1-.2-.1-.4-.1-.8 0-1 .3-.2.2-.3.4-.3.6 0 .3.1.5.2.8.1.2.2.3.4.5 0 0 .1.1.2.1.2-.2.6-.4.9-.6zM27.1 14.7c.1-.3 0-.5-.2-.6-.1-.1-.1-.1-.2-.1h-.4l-.2.2c-.1.1-.1.3-.2.4 0 .1.1.2.1.3 0 .1-.1.2-.1.3-.1.1-.1.1-.2.1s-.2-.1-.3-.2c-.1-.1-.1-.3-.2-.4-.1-.1-.1-.2-.1-.3 0-.1-.1-.2-.1-.2-.3-.2-.5-.2-.7.1-.1.1-.1.2-.1.3.2.4.4.7.7 1.1.1.1.2.1.3.2.1.1.2.1.3.2 0 .1.1.2.1.3 0 .2-.1.4-.1.6-.1.3-.3.5-.6.6h-.2c-.1 0-.2-.1-.2-.1h-.4c-.1 0-.3.2-.3.4s.1.3.3.4c.2.1.4.1.6.1h.5l.6-.3c.1 0 .2-.1.3-.1.2-.1.3-.1.5 0 .1.1.3.2.4.2.1 0 .2.1.3.1.2 0 .3.1.4.2.1 0 .2-.1.3-.1l.3-.6c0-.1-.1-.1-.1-.2-.4-.1-.7-.1-1.1-.2-.1 0-.2-.1-.3-.2-.3-.1-.4-.3-.4-.6v-.5l.3-.6c.1-.3.2-.6.4-.8zM32.8 4.3v.5c0 .2-.1.3-.1.5v.1c-.1.3-.2.6-.4.9-.1.1-.3.1-.4.2-.1.1-.2.1-.4 0-.1-.1-.2-.2-.2-.3-.3-.2-.5-.3-.6-.4-.2-.1-.5 0-.7 0-.1 0-.2-.1-.2-.2 0-.2-.1-.3-.1-.5.2-.3.3-.6.6-.9 0 0 .1-.1.1-.2s.1-.1.1-.2c.3-.2.4-.5.6-.7 0-.2 0-.4.2-.6.2-.1.3-.3.5-.4h.4c.3.3.3.3.5 1 .1.5.1.9.1 1.2zm-1.7.3c-.1.1-.2.3-.3.4v.2l.1.1c.1.1.3.1.4.2.2.1.3.1.4-.1.2-.4.3-.7.3-1 .1-.3.1-.5 0-.8l-.1-.1c-.2.4-.5.8-.8 1.1zM16.6 6.8l-.4-.4c-.2-.3-.3-.6-.4-.8 0-.1-.1-.1-.1-.2 0-.3-.2-.4-.3-.7 0-.3 0-.5.1-.7.1-.3.2-.4.4-.4h.2c.3 0 .5.2.8.3.5.2.8.5 1.2.8.1.2.3.4.5.5.2.1.4.3.5.5.1.2 0 .4-.1.5-.1.1-.2.1-.3.2-.1.2-.1.3-.2.4-.1.2-.2.3-.4.4-.1 0-.3.1-.4.1-.1.1-.1.2-.2.2-.1.1-.3.2-.4.1-.1 0-.2-.1-.3-.2-.1-.2-.2-.4-.2-.6zm1.2-1.2c0-.1-.1-.2-.2-.2-.2-.1-.4-.3-.6-.5-.2-.2-.5-.3-.7-.4-.1.1-.1.1-.2.3.1.2.1.3.3.5.1.2.2.3.3.5.1.2.3.4.5.5.1 0 .3 0 .5.1.1 0 .1 0 .2-.1-.1-.2-.1-.4-.1-.7zM25.1 5.6c-.2-.2-.4-.3-.7-.3-.2 0-.4.1-.5.3-.1.1-.1.2 0 .3 0 0 0 .1.1.1 0 0 0 .1.1.1v.3c0 .2.1.2.2.4 0 .1-.1.1-.1.2v.2c0 .3.1.5 0 .8 0 .2.1.3.1.5 0 .1.1.1.1.2 0 .3-.2.5-.2.8l.4.4h.1c.2-.1.4-.3.5-.5 0-.2.1-.3.1-.5-.3-.2-.3-.3-.4-.4-.1-.3 0-.5.1-.7 0-.1-.1-.2-.1-.3.1-.1.3-.3.2-.5v-.1l-.2-.2c.1-.1.3-.2.2-.5 0-.1-.1-.1-.2-.2.1-.1.1-.3.2-.4zM23.6 7c-.1 0-.1-.1-.2-.1-.1-.1 0-.2-.1-.3-.1-.1-.1-.3-.3-.4-.2-.1-.3.1-.4.1-.1.1-.1.2-.2.3 0 .1.1.3.1.4.1.1.1.2.2.3 0 .1-.1.2-.1.3 0 .1-.1.2 0 .2V9c.1.2.3.2.5.3h.2c.1 0 .1-.1.2-.1.1-.1.1-.3.1-.4v-.2c0-.1.1-.2.1-.3 0-.4-.1-.7-.1-.9V7zM17.6 8.9c-.1.1-.2.2-.2.3 0 .2 0 .3.1.4.2.1.4 0 .6 0 .1 0 .2 0 .3-.1.1-.1.1-.3.3-.5h.2c.1 0 .3-.1.4-.2 0-.1.1-.2 0-.2l-.3-.3c-.2-.1-.3-.1-.5-.1-.1 0-.1.1-.2.2v.2c0 .1 0 .1-.1.2s-.2 0-.2 0c-.1 0-.3.1-.4.1zM26.1 7.4c.2 0 .3-.1.5-.2.1 0 .1-.1.1-.2v-.9c-.1-.2-.1-.3-.3-.3h-.3c-.1 0-.2.1-.3.2 0 .1-.1.1 0 .2 0 .1.1.2.1.2 0 .1 0 .2-.1.2s-.2.1-.3.2c.1.2.3.4.6.6zM19.2 14c.3-.1.4-.2.5-.5v-.3c0-.1-.1-.1-.2-.2H19c-.1 0-.1 0-.2-.1-.1 0-.3.1-.4.1-.1.1-.2.2-.2.3 0 .2 0 .4.2.4.1.1.2.1.3.1h.2c.2.1.2.1.3.2zM33.1 12.8l-.6.3c-.1.1-.1.2-.1.3.1.1.1.2.2.3.1.1.3.2.4.2.1 0 .1 0 .2-.1.1-.2.3-.2.4-.3 0 0 0-.1.1-.2v-.1c-.1-.2-.2-.3-.4-.4-.1.1-.1 0-.2 0zM30.1 7.2c0-.2.1-.4.1-.6 0-.1 0-.2-.1-.3-.1 0-.2-.1-.3-.1-.2 0-.3 0-.4.2-.1.1-.2.3-.1.5.1.1.1.3.2.5.1.1.2.1.3.1.1 0 .2-.1.3-.3zM16.7 12.7c0 .1.1.1.1.2s.1.1.1.2h.2c.2-.1.3-.2.5-.4.2-.1.2-.2.1-.5l-.1-.1c-.1-.1-.3-.2-.4-.1-.3.2-.4.4-.5.7zM33.2 12.1c.1-.1.2-.1.3-.2.2-.1.2-.5 0-.6l-.1-.1c-.1-.1-.2-.1-.3-.1-.1 0-.2.1-.4.1s-.3.2-.2.4c.2.2.4.4.7.5zM31 7.2c-.2 0-.4.1-.6.2l-.1.1c0 .1-.1.1-.1.2s.1.2.1.2c.2.1.4.1.7.1.1 0 .2-.1.2-.2.1-.2.1-.4-.1-.6 0 .1-.1 0-.1 0zM25.5 8c.2.2.4.3.6.4h.2l.1-.1c0-.2.1-.3.1-.5-.2-.2-.5-.3-.8-.2-.1 0-.2.2-.2.4zM30.6 19.7c0 .1 0 .2-.1.3 0 .1.1.2.2.2.2.1.4.2.5.3.2-.1.3-.2.5-.2.1 0 .2-.1.2-.2s.1-.2 0-.4c-.1-.1-.1-.2-.2-.2h-.2c-.2.1-.4.1-.7.1h-.1c-.1 0-.1.1-.1.1z"/>
    <path class="st2" d="M20.4 46.2c.1-.1.1-.3.2-.4.1-.1.1-.3.2-.4 0-.1-.1-.1-.1-.1-.2.2-.3.4-.3.7-.1.1 0 .2 0 .2zM33.3 43.5v-.4h-.1c-.1.1-.1.2.1.4-.1-.1-.1-.1 0 0zM30.7 34.1v-.4c-.2.2-.2.3 0 .4zM20.9 11.9c-.1-.2-.1-.4 0-.5.1-.2.1-.3.3-.5.1-.1.2-.2.3-.2.2 0 .4-.1.6-.1.4.1.6.3.9.5.2.2.4.5.4.8 0 .2-.1.3-.1.5-.1.3-.3.6-.7.7-.3-.1-.7-.1-1-.3-.1-.2-.3-.3-.4-.5-.2-.2-.3-.3-.3-.4zM28.3 12.5c-.2-.1-.3-.3-.4-.5-.1-.3-.2-.6-.2-.8.1-.3.2-.5.3-.7.2-.3.7-.4 1-.3.1 0 .2.1.2.1.4.3.6.6.6 1v.1c0 .2-.2.4-.4.5-.3.2-.7.4-1.1.6.1.1.1.1 0 0z"/>
    <path class="st3" d="M32 3.5c-.2.5-.5.8-.8 1.1-.2.1-.3.3-.4.4v.2l.1.1c.1.1.3.1.4.2.2.1.3.1.4-.1.2-.4.3-.7.3-1 .1-.3.1-.6 0-.9 0 .1 0 0 0 0zM17.8 6.3v-.7c0-.1-.1-.2-.2-.2-.2-.1-.4-.3-.6-.5-.2-.2-.5-.3-.7-.4-.1.1-.1.1-.2.3.1.2.1.3.3.5.1.2.2.3.3.5.1.2.3.4.5.5.1 0 .3 0 .5.1 0 0 .1 0 .1-.1z"/>
    <path class="st0" d="M22.1 10.8h-.4c-.1.1-.2.2-.2.3v.3c.1.6.6.5.8.5.2 0 .4-.1.4-.2v-.3c0-.2-.2-.3-.3-.5-.1 0-.2-.1-.3-.1zM28.4 11.5c.2.1.3.2.5.2.1 0 .2 0 .4-.1.1 0 .2-.1.2-.3 0-.2 0-.3-.1-.5-.1-.1-.1-.2-.2-.3-.1-.1-.3-.2-.4-.2-.1 0-.2.1-.3.1-.2.1-.3.2-.2.4 0 .1 0 .1.1.2-.1.3 0 .4 0 .5z"/>
</svg>
