<svg xmlns="http://www.w3.org/2000/svg" width="31.7" height="62.2" style="overflow:visible;enable-background:new 0 0 31.7 62.2" xml:space="preserve">
    <style>
        .st0{fill:#7a6a56}.st1{fill:#eddcab}.st2{fill:#fff}.st3{fill:#e7d9e0}
    </style>
    <path class="st0" d="M8.7 8.9c-.1-.3-.2-.6-.3-.8-.1-.4-.2-.9-.2-1.3 0-.2-.1-.4-.1-.6-.1-.4 0-.9 0-1.3v-.3c.1-.2.1-.3.1-.5s0-.3.1-.5c0-.1.1-.1.2-.2.2-.3.4-.5.8-.6.1 0 .2-.1.3-.1.2 0 .4.1.7.1.2 0 .5.1.6.3.2.2.4.4.6.5.1 0 .1.1.1.1.2.3.5.6.7.9.1.1.2.2.2.3.3.3.6.6.8 1 .1 0 .2.1.3.2.1 0 .2.1.3.1.1.1.1.2.2.2.1.1.3.1.4 0l.1-.1c.1-.3.4-.5.7-.5.1 0 .1 0 .2-.1h.2c.1 0 .1.1.2.1s.1 0 .2.1c.1-.1.2-.2.4-.3.2-.2.5-.2.8-.1.1 0 .1.1.2.1.1.1.2.3.4.4.2-.2.4-.3.5-.5.2-.1.3 0 .4 0 .2.1.3.1.4.2.1.1.1.2.3.3 0 0 .1 0 .1-.1.1-.1.1-.2.2-.2.3-.3.5-.7.6-1.1.1-.2.1-.3.2-.5.2-.3.3-.6.5-.9 0-.1.1-.2.2-.2.1-.1.1-.2.2-.2.6-1 .6-.9 1.2-1.6 0-.1.1-.1.2-.2.2-.3.4-.5.7-.6 0 0 .1-.1.2-.1.2 0 .4-.2.6-.3h.7c.1.1.2.1.3.2h.2c.2 0 .3.1.5.2l.1.1c.3.3.4.6.5 1 0 .2.1.5.1.7v.4c0 .2-.1.3 0 .5s0 .3 0 .5v1.6c0 .2.1.4 0 .6v1.4c-.1.1-.1.3-.2.4v.3c-.1.2-.2.3-.2.5-.1.2-.1.3-.2.5 0 .2.1.3.2.5 0 .2.1.3.1.4v.5c.1.3.3.4.5.6l.3.6c-.1.5-.1.5-.4 1 .1.2.1.4.2.6.1.1 0 .3 0 .4-.1.1-.1.2-.2.3l-.1.1c.1.2.1.4.2.5 0 0 0 .1.1.1.2.1.2.4.3.5-.1.1-.1.2-.1.2-.2.1-.3.2-.5.2-.1.1-.2.2-.1.4.1.1.1.3 0 .4v.3h.1c.4-.1.7-.2 1-.3.5-.2 1-.3 1.6-.3h.3c.4-.1.8-.1 1.1-.1.1 0 .1.1.2.1.1.1.1.3 0 .4-.2.2-.4.2-.7.2-.1 0-.1-.1-.2-.1-.3 0-.6.1-.9.1-.1 0-.2 0-.2.1-.3 0-.5.1-.8.2-.1 0-.2.1-.3.1-.2 0-.4.2-.6.2h-.1c-.3.2-.7.3-1 .4-.1 0-.2.1-.3.1-.1.1-.1.1-.1.2 0 0 .1 0 .1.1H27c.4-.1.8-.1 1.3-.1h2.2c.2 0 .4 0 .6.2.1 0 .1.1.2.1v.1l-.1.1h-1.5c-.2 0-.5 0-.7.1h-.3c-.2 0-.4 0-.6.1-.2.1-.4.1-.6.1h-.8c-.3.1-.6.1-.8.1-.2.1-.3.2-.4.4.2.2.4.3.6.4h.7c.3.2.5.4.9.5.1 0 .1.1.2.2s.3.2.4.3h.1c.6.1 1.2.4 1.8.6.1 0 .2.1.3.1.2 0 .4.1.6.1.2 0 .4.1.5.3 0 0 .1.1.1.2l-.1.1h-.5c-.3-.1-.5-.2-.8-.2h-.1c-.5-.2-1.1-.3-1.6-.5h-.1l-.1.1v.2c.1.3.3.5.5.7.2.2.4.4.5.6.1.1.1.2.2.4.1.3.2.6.5.8.1.1.1.1.1.2.1.1.2.1.4.2.1.2.2.3.2.5 0 .3 0 .5-.1.8 0 .3.1.5.3.6l.3.3c.1.1.1.2.1.3-.1.2-.3.4-.5.5 0 .1 0 .1.1.1s.2 0 .4-.1c.2 0 .3 0 .4.1 0 0 0 .1.1.1 0 .1-.1.2-.1.3-.1.1-.3.1-.3.3v.1c0 .1 0 .1.1.2v.2c-.1.2-.1.3-.1.5 0 .1.1.3.1.4-.1.1-.1.2-.2.3 0 .1 0 .2-.1.3-.1.2-.3.2-.3.4 0 .1.2.2.3.3.1.1.1.2.2.3-.1.1-.1.3-.1.4 0 .1-.1.2-.1.3v.3c-.1.1-.1.2-.2.4 0 .2.3.2.4.4.1.3 0 .5-.1.7v.2c.1.3.1.6 0 .9 0 .1 0 .3-.1.4 0 .1-.1.2-.1.3.1.5.3 1 .3 1.6v.2c0 .3-.1.6-.2.9-.1.2-.1.5-.1.7v1.7c-.1.4-.1.7-.3 1-.1.1-.2.3-.2.5v.1c0 .3.1.5.1.7v.8c0 .2 0 .4.1.7-.1.3-.2.7-.3 1 0 .1 0 .2-.1.2-.2.2-.2.5-.2.7v.3c0 .2.1.4.2.7v1.5c0 .3-.1.5-.2.8 0 .1-.1.3-.1.5 0 .1-.1.2-.1.4.2.5.3 1.1.3 1.7 0 .1 0 .1.1.2v.2c-.1.2.1.5 0 .7-.1.2 0 .3-.1.5s-.1.4-.2.6c-.1.3-.1.6 0 .9v.3s0 .1.1.1c.1.1.2.2.4.2.5.2.9.4 1.4.7.1.1.2.2.3.4.1.1.1.2.2.4 0 .5.1 1-.2 1.5-.1.1-.2.1-.2.2-.1.1-.1.2-.2.2-.2.1-.4.2-.6.2h-.9c0 .1-.1.1-.1.2-1.2.2-1.4.3-1.5.3h-.5c-.3.1-.4.3-.6.4-.2.1-.4.2-.6.2h-.7c-.2-.1-.5-.1-.7-.2-.1-.1-.2-.1-.2-.2l-.4-.4c-.3-.2-.5-.5-.7-.8-.1-.1 0-.3-.1-.4 0-.2-.1-.3-.2-.4 0 0 0-.1-.1-.2s-.1-.3-.2-.4c-.2-.2-.3-.2-.6-.2-.3.1-.5.4-.8.5v.1c.2.5.4 1 .5 1.5 0 .2.1.3.1.5 0 .4-.1.8-.2 1.2-.2.5-.2.5-.6.9l-.1.1c-.4-.1-.7-.2-1.1-.3-.5.1-.9.2-1.5.1-.3-.1-.6-.2-.8-.4-.1-.1-.3-.1-.4.1 0 0 0 .1-.1.1 0 0 0 .1-.1.1-.3.1-.3.1-1 0-.1-.1-.3-.2-.4-.3-.1-.1-.2-.2-.2-.4s0-.5.1-.7v-.3c0-.2-.1-.3-.3-.3h-.1c-.4.1-.8.2-1.3.3-.3.1-.6.2-1 .3-.2-.1-.2-.3-.4-.3-.1 0-.1-.1-.2-.1-.1.1-.2.3-.2.4-.1.1-.2.3-.2.4-.1.1-.2.1-.3.1-.1 0-.2 0-.3-.1-.1 0-.1 0-.2.1 0 .1-.1.1-.1.3-.1.1-.2.2-.4.3-.2.1-.4.2-.7.1-.1 0-.2 0-.2-.1-.1.1-.2.2-.4.3-.2.1-.3.2-.6.2H9c-.3 0-.6-.1-.9-.2-.2-.2-.5-.2-.7-.5-.2-.1-.4-.2-.6-.2-.1 0-.2 0-.3-.1-.1 0-.2-.1-.3-.3 0-.1-.1-.1-.1-.2-.2-.1-.5-.2-.7-.4.1-.1-.2-.2-.4-.4s-.3-.4-.5-.6c-.1-.1-.3-.1-.4-.1-.2 0-.4-.1-.5-.2-.1-.1-.2-.2-.2-.3l-.9-1.5c-.2-.4-.3-.8-.3-1.2-.1-.3-.1-.6-.2-.9h-.3c-.2 0-.4-.1-.5-.4v-.3l.1-.1c0-.3 0-.3-.2-.5H.7c-.2 0-.4-.2-.4-.5v-.1c.1-.1.1-.2.2-.2v-.2c-.1-.1-.3-.2-.4-.3-.1 0-.1-.1-.1-.2s0-.2.1-.2.1 0 .2-.1.1-.2.1-.4c-.1-.1-.1-.2-.2-.3 0-.1.1-.2.2-.3.1-.1.2-.2.3-.4.1-.3.2-.5.3-.8 0-.1 0-.2.1-.3.1-.2.1-.3.1-.4.4-.5.7-1 1.1-1.5.1-.4.2-.7.2-1.1 0-.3 0-.6-.1-.9 0-.1.1-.2.1-.4 0-.1.1-.3.2-.4.2-.1.2-.3.3-.5-.1.1 0-.1.1-.2.1-.2.1-.3.2-.5.1-.1.2-.3.2-.4v-.3c-.1-.2-.1-.3 0-.5 0-.1.1-.1.1-.2.1-.2.2-.4.2-.6l.3-1.2c.2-.6.3-1.1.4-1.7 0-.4.1-.7.2-1.1.1-.2.1-.4.1-.6 0-.2.1-.3.1-.5.1-.2.2-.4.2-.6v-.2c.2-.4.3-.8.5-1.2.1-.2.1-.4.1-.6v-.5c0-.2 0-.3.1-.5s.1-.3.1-.5c-.1-.2-.2-.3-.2-.5.1-.3.2-.5.3-.7v-.4c0-.2-.2-.2-.2-.4v-.2c.1-.3.2-.5.4-.7.1-.1.1-.2.2-.3 0-.1.1-.2.1-.3 0-.1-.1-.2-.2-.2 0-.1-.1-.1-.1-.2s0-.2.1-.2c.1-.1.2-.2.3-.2.1 0 .2 0 .2-.1.1.1.2.1.2.1 0-.2-.2-.1-.3-.2-.1-.1-.1-.3 0-.4.2-.2.5-.4.7-.7-.1-.1-.1-.2-.2-.3 0-.1 0-.2.1-.3.1-.1.2-.3.3-.4.1-.2.2-.3.3-.5 0-.1 0-.1-.1-.3-.4.1-.7.4-1.1.5h-.3c-.2-.1-.3-.2-.4-.3V25c.1-.1.3-.2.5-.3.2-.1.5-.2.7-.3.1-.1.2-.1.3-.1.3-.2.6-.3.8-.5.1-.1.2-.3.2-.5 0-.1.1-.3.2-.4.2-.2.5-.2.7-.2.1-.1.2-.1.3-.2.2-.3.5-.7.6-1.1 0-.1 0-.1.1-.2 0-.1 0-.2-.2-.3-.1 0-.3.1-.4.2-.2.1-.3.2-.5.2l-.6.3c-.3.2-.5.3-.8.5-.1 0-.2.1-.3.1-.2.1-.3.2-.5.2-.1 0-.1 0-.2.1-.2.1-.3.2-.4.4-.1.1-.2.1-.3.2-.2.1-.3 0-.4-.1l-.1-.1c0-.1-.1-.1 0-.2 0-.1.1-.2.2-.2.1-.1.2-.1.3-.2.3-.1.6-.3.8-.5.1 0 .1-.1.2-.1.3-.1.6-.2.9-.4.1-.1.2-.1.3-.2.3-.1.6-.3.8-.4.1-.1.2-.1.3-.2.4-.1.7-.4 1.1-.6 0 0 0-.1.1-.1 0-.1-.1-.1-.2-.2h-.2c-.1 0-.2.1-.3.1-.3.2-.7.3-1.1.4l-1.2.3c-.2.1-.5.1-.7.2-.1 0-.2.1-.3.1l-.9.3c-.3.1-.7.3-.9.5l-.1.1c-.1.4-.3.4-.4.4l-.3-.3c0-.2.1-.3.3-.4.1-.1.4-.3.6-.4.3-.1.6-.3 1-.4.3-.2.6-.2 1-.3h.1c.3-.2.7-.2 1.2-.4h.2c.3 0 .5-.1.7-.2.1-.1.2-.1.3-.1.2-.1.5-.1.7-.3.1-.1 0-.3 0-.4-.1-.1-.2-.2-.4-.3-.1 0-.2-.1-.3-.2-.3-.2-.6-.4-.6-.8 0 0 0-.1-.1-.1-.2-.1-.4-.2-.5-.4v-.1c0-.2.1-.4.1-.6.1-.1.1-.2.2-.4v-.1l-.1-.1c-.2-.1-.2-.3-.3-.4v-.2c-.1 0-.1-.1-.1-.1-.1-.1-.2-.3-.2-.4 0-.2.1-.3.1-.5 0-.1.2-.3.2-.5 0-.1.1-.1.1-.2l.1-.1c-.1-.1-.1-.2-.2-.3v-.2c.2-.4.2-.4.6-.8v-.1c-.1-.1-.1-.2-.2-.3V11c.2.1.3 0 .4-.1.1-.2.2-.3.1-.5v-.6c-.2-.3-.3-.6-.4-.9zm2.3 5.7v.1s0 .1.1 0c0 0 0-.1-.1-.1.1 0 0 0 0 0 0-.3 0-.3.3-.4.1 0 .1 0 .2-.1.3.1.4.3.5.5v.5c-.1.1-.3.2-.4.3h-.3c-.1.1-.3.2-.4.3-.5 0-.9-.1-1.3-.2l-.3.3c-.1.2-.2.5-.3.7 0 0 0 .1.1.1h.1c.1 0 .1 0 .2-.1s.2-.2.3-.2h.3s0 .1.1.1c0 .1.1.1.1.2 0 .2-.1.3-.2.4-.3.3-.2.4 0 .6.1.1.2.1.2.2.1 0 .2 0 .3-.1.1 0 .2 0 .2.1l.3.3v.5c0 .1.1.1.2.1s.2-.1.3-.1c.3-.2.6-.4 1-.6l.1-.1c-.3-.2-.3-.2-.4-.5.1-.1.1-.2.2-.3.1 0 .1-.1.2-.1s.2 0 .4.1c.1.1.3.2.3.4s-.2.3-.4.3h-.2c.1.3 0 .5-.1.8-.2.1-.5.2-.7.2-.1.1-.2.1-.3.2-.1 0-.1.1-.1.1v.1h.1c.3-.1.5-.1.8-.2h.4c.1 0 .2 0 .3.1.2.1.2.2 0 .4l-.1.1c.1.2.2.3.3.1.2-.2.5-.3.7-.4h.2l.1.1c0 .1.1.2.1.3.2.1.3.2.3.4s.2.3.3.4c.2.1.3-.1.4-.1h.4c.1 0 .2 0 .3.1l.1.1c0 .1.1.1.1.2.2.1.4.2.5.3.2.2.5.3.7.4.4.2.8.3 1.2.1.1 0 .2-.1.3-.1.1 0 .3-.1.4-.1.5-.2.9-.5 1.2-.9 0-.4 0-.3.2-.6l.2-.2c.1-.1.2-.1.3-.1h.1c.1 0 .2.1.3.1h.1c0-.1 0-.2.1-.3.1-.1.2-.1.2-.1.3 0 .4.1.6.2.1 0 .2-.1.3-.1.1 0 .1-.1.2-.1s.2-.1.3-.2c.1-.2 0-.4 0-.6h-.3c-.1 0-.2-.1-.3-.1-.1-.1-.1-.3.1-.4h.1c.4.1.7 0 1.1-.1.1 0 .1-.1.1-.2-.1-.1-.2-.1-.3 0-.2.1-.5.1-.7.1-.1 0-.3-.1-.3-.3 0-.1 0-.2.1-.3.1-.1.3-.2.5-.2.3 0 .7-.1 1-.1.2-.1.3-.2.5-.2.1 0 .2-.1.3-.2.1-.2.1-.4 0-.6-.1-.2-.2-.3-.2-.5.1-.2.2-.3.4-.3.1 0 .2 0 .2-.1s0-.2-.1-.2c-.1-.1-.2-.2-.2-.3-.1 0-.1-.1-.2-.1-.1-.1 0-.2 0-.3 0-.1 0-.3.1-.4l.3-.3c.1-.1.1-.1.1-.2-.1-.1-.1-.3-.2-.5v-.3c.1-.2.2-.3.3-.5.1-.1.1-.2.1-.3-.1-.2-.3-.4-.5-.6-.2-.2-.2-.3-.3-.6 0-.1 0-.2-.1-.3 0-.1-.1-.3-.1-.3 0-.5-.3-.6-.4-.8-.1-.2-.1-.3-.1-.5.2-.1.3-.3.5-.4.1-.2.1-.4.2-.5l.3-.9c.1-.2 0-.5.1-.7 0-.5.1-1 .1-1.5V2.1c0-.3-.1-.5-.2-.7 0-.1-.1-.3-.3-.3-.1 0-.2 0-.3.1-.1 0-.2-.1-.3-.1-.1-.1-.1-.2-.3-.2-.2.1-.3.2-.4.2-.5.3-.7.7-1.1 1.1l-.1.1c-.1.2-.3.4-.5.7-.2.2-.3.5-.5.7-.1.2-.3.4-.3.6-.1.2-.1.3-.2.5s-.2.3-.3.5c0 .1-.1.2 0 .4 0 0 .1 0 .1.1 0 0 .1.1 0 .3 0 .1 0 .2-.1.4-.1 0-.2.1-.3.1-.2 0-.3-.1-.5-.1l-.1.1c-.4.3-.6.3-1 .1-.1-.1-.2-.1-.3-.2 0 0-.1-.1-.2-.1s-.1 0-.2.1-.1.2-.2.3c-.1.1-.1.1-.2.1h-.3c-.1 0-.3-.1-.4-.1l-.3-.3c-.1-.1-.2 0-.3 0l-.1.1c-.2.1-.2.3-.3.5 0 0-.1 0-.1.1-.1.1-.3.1-.4 0-.1 0-.1-.1-.2-.1 0-.1 0-.2-.1-.3l-.1-.1h-.1l-.1.1c-.1 0-.3.2-.5.3-.1 0-.3.1-.4.1h-.1c-.2 0-.2-.2-.4-.3-.1 0-.2 0-.3-.1-.3-.1-.6-.3-.8-.6-.2-.3-.5-.5-.7-.8l-.2-.2c-.2-.3-.4-.5-.6-.8-.1-.1-.3-.2-.5-.4-.3-.2-.5-.3-.8-.5-.1 0-.3 0-.4-.1-.3.2-.4.5-.5.7v.6c0 .1-.1.2-.1.2 0 .2-.1.3 0 .5s.1.4.1.6v1c0 .3 0 .5.2.7 0 .1.1.1.1.2v.3c.2.4.3.8.5 1.1.1.1.1.3.2.5.1.1.1.3.1.4 0 .2 0 .3.1.5v.2c0 .2-.1.3-.2.4-.1.1-.2.1-.3.2-.1.2.1.4 0 .6 0 .2-.4.3-.4.6.1.1.1.3.2.4 0 .2-.1.3-.2.4-.2.3-.4.5-.5.8-.1.1-.1.2 0 .3.1.1.1.3.1.4.1.1.2.1.3.1.1 0 .3-.1.4 0v-.2c0-.1 0-.2.1-.2.2-.1.2-.2.4-.2.1 0 .3 0 .4-.1.1-.1.2 0 .4 0 0 .1.1.1.2.2zm.2 35.5c-.2 0-.4 0-.6-.2-.1 0-.1-.1-.1-.2s.1-.3.1-.4c.1 0 .1 0 .2-.1.2 0 .5-.1.7-.1h.1c.1 0 .3.1.3.3 0 .1-.1.2-.1.3l.1.1.1.1c.1.1.1.3 0 .4l-.1.1c-.1.2-.3.3-.5.4-.1.1-.2.2-.2.3.2 0 .2.1.2 0 .2-.1.5-.1.8-.1h.3c.4.1.6.3.8.6.2.3.4.7.7.9.1.1.2.3.3.4.1.2.3.4.3.7.1.1.1.3.2.4l.3.6.4.4c.1.1.2.3.3.4 0 .1.1.1.1.2.1.4.1.7.3 1.1v.6c.1.1.2.2.2.3 0 .3.2.5.4.6l.1.1v.3c.1.1.1.3.1.4.1.3.2.5.3.8 0 .3 0 .5-.1.7v.3s0 .1.1.1c0 0 .1.1.2 0l.6-.6c.2-.1.4-.2.6-.2 0 0 .1 0 .1.1.1.1.2.1.3.2.1.2.1.4.2.5 0 .1.2.2.3.2.2 0 .4-.1.6-.2.1-.2.2 0 .3-.1.2-.3-.1-.5-.1-.8l.4-.4c.1 0 .2 0 .3.1.1.1.2.3.3.4v.1c0 .1-.1.2-.1.2 0 .2 0 .5.1.7 0 .1.1.1.2.2.1 0 .2 0 .2-.1.1-.1.1-.1.1-.2.1-.2.2-.4.2-.6 0-.3 0-.6-.1-.9-.1-.1-.1-.3-.1-.4 0-.4-.2-.7-.3-1l-.3-.6c-.2-.6-.5-1.2-.7-1.9v-.2c0-.2-.1-.4-.2-.6-.1-.3-.3-.6-.4-.9-.2-.5-.4-1-.3-1.5V52c-.1-.2-.1-.4-.1-.6-.1-.3-.1-.6-.3-.9-.1-.3-.3-.6-.4-.9 0-.2-.1-.4-.1-.6.1-.2.1-.5.1-.8v-.8c0-.1.1-.2.2-.3.1 0 .2-.1.3-.1.1 0 .2.1.2.3v.2c0 .4 0 .9-.1 1.3.1.6.1.6.4 1.1l.3.9c0 .3.1.6.1.9.1.2.1.5.1.7v.2c0 .3 0 .5.1.7 0 .1.1.1.1.2 0 .2.1.4.2.5.2.3.3.7.4 1 0 .2.1.4.2.6.1.2.2.4.3.7 0 .1.1.3.2.4.1-.1.2-.1.3-.2.2-.2.5-.3.8-.3.1 0 .2 0 .3-.1.1-.2.1-.4-.1-.5l-.1-.1c0-.1 0-.2-.1-.3-.1-.2-.1-.4-.1-.6v-1.5c-.1-.1-.2-.3-.3-.5-.1 0-.3.1-.4 0l-.1-.1-.1-.1c-.1-.1-.1-.2 0-.3.1-.1.3-.2.4-.4.1-.1.1-.2 0-.3-.2-.1-.3-.2-.3-.4.1-.2.2-.4.3-.5.1-.1.2-.1.2-.2v-.1s0-.1-.1-.1c-.2-.1-.3-.2-.3-.4v-.1c.1-.1.2-.2.2-.3.1-.1.1-.2.2-.3.1-.1.1-.1.2-.1.1-.1.1-.1.1-.3-.3-.2-.3-.2-.5-.6 0-.1.1-.2.2-.3.2-.1.4-.3.6-.5.1-.1.3-.2.4-.3h.2c.1 0 .1.1 0 .2 0 .1-.1.3-.1.4l-.3.3-.3.3v.2l.2.2c.1.1.1.2.1.2-.2.5-.2.5-.5.9 0 .1.1.2.1.3.1.2.1.4 0 .6-.1.1-.2.2-.2.4.1.1.2.2.2.3.1.1.1.2 0 .3-.1.2-.3.4-.5.6l.1.1c.2 0 .3.1.5.2l.1.1c.1.2.1.3.2.4v1.8c.1.2.2.3.3.5.1.1.2.3.3.4-.1.1-.1.3 0 .5v.5c.1.3.3.7.4 1v.4c.1.1.1.2.2.3.1.2.3.4.4.5.2.2.4.3.6.5.4.1.8.1 1.1 0 .1 0 .2-.1.3-.1.2-.2.3-.4.4-.7 0-.2 0-.4-.1-.6 0-.1.1-.2.2-.3.1-.1.2-.1.3-.1.1 0 .2.1.2.2v.8c0 .1 0 .1.1.2 0 0 0 .1.1.1 0 0 .1 0 .1-.1.2-.3.2-.7.1-1 0-.1 0-.2-.1-.3 0-.1.1-.1.1-.2.1 0 .2 0 .3.1.2.3.3.6.4.9 0 0 0 .1.1.1h.8c.3-.1.4-.3.4-.6 0-.5.1-.6-.3-1 0 0 0-.1-.1-.1-.3-.2-.6-.4-1-.5-.2 0-.3-.1-.4-.2-.1-.1-.3-.2-.4-.2-.1-.1-.2-.3-.2-.5v-.4c0-.4 0-.6.2-1l.3-.9v-.5c0-.2 0-.4-.1-.6-.1-.2-.1-.3-.1-.5 0-.1 0-.2-.1-.3-.1-.2-.1-.4-.2-.5V50c0-.1.1-.2.1-.2 0-.2.1-.4.2-.7.1-.1.1-.3.1-.4v-.2c0-.7.1-1.4-.2-2 0-.2.1-.5.1-.7.3-.4.4-.9.6-1.4v-.2c0-.3 0-.6-.1-.9v-.8c-.1-.2-.2-.5-.1-.7.2-.4.3-.7.5-1 0-.2.1-.5.1-.7 0-.2.1-.5 0-.7v-1.2c.1-.2.1-.5.2-.7.1-.4.1-.8.1-1.2 0-.1 0-.2-.1-.3-.1-.2-.1-.3-.2-.5.1-.3.3-.7.3-1 0-.2-.1-.3-.1-.5-.1-.2-.1-.4-.1-.7v-.1s-.1-.1-.1-.2c-.1-.1-.1-.2-.1-.2v-.4c.1-.2.3-.3.3-.6v-.6c-.1-.3-.1-.5-.2-.8v-.3c0-.1 0-.1.1-.1 0 0 .1-.1.2-.1s.1-.1 0-.2l-.2-.2c-.1-.1 0-.2-.1-.4-.2-.2-.4-.4-.5-.7 0 0 .1-.1.1-.2.2 0 .3-.1.5-.2.1 0 .1-.1.2-.1.1-.1 0-.2 0-.3-.1-.1-.2-.2-.4-.2-.1-.1-.1-.2-.1-.4l.3-.6v-.2c-.2-.2-.3-.4-.5-.6v-.7c.1-.2.1-.4 0-.6-.1-.2-.3-.4-.5-.5-.1 0-.1-.1-.2-.2s-.1-.2-.2-.3l-.3-.6c0-.2-.1-.3-.2-.5s-.2-.3-.4-.5c-.3-.3-.5-.6-.6-1 0-.1 0-.2-.1-.3 0-.1-.1-.3-.2-.3h-.5c-.2-.1-.5-.1-.7-.1-.2 0-.5-.1-.7-.1-.2 0-.5-.1-.7-.1-.2-.1-.5-.1-.7-.1-.4.3-.8.3-1.2.2-.2 0-.2-.3-.5-.3-.2.3-.4.6-.6 1l-.8.8c-.1.1-.3.3-.5.4-.2.1-.3.2-.5.3-.3.1-.6.1-.9.2-.3.1-.6.1-.8 0-.4-.1-.7-.2-1.1-.4-.2-.1-.4-.3-.7-.4-.1-.1-.3-.1-.4-.2-.1-.1-.3-.2-.4-.2h-.2c-.1 0-.2-.1-.3-.1-.3 0-.5-.2-.6-.3-.1-.1-.1-.2-.3-.2-.1 0-.3.1-.5.1H12c-.1.1-.1.2-.2.2-.1.1-.1.2-.2.2-.3.2-.6.5-1 .7-.1.1-.2.1-.3.2l-.2.2c-.4.3-.7.6-1 .9 0 .3-.2.5-.4.6-.1 0-.1 0-.2.1-.1 0-.1 0-.1.1.1.1.1.3 0 .5.6.7.5.8.4.9-.1.1-.2.2-.3.2-.2.2-.3.4-.3.6 0 0 0 .1.1.1.2.2.2.3 0 .5-.1.3-.1.4-.2.4-.1.1-.2.3-.4.3-.1 0-.1.1-.1.2.1.1.3 0 .4.1v.2c-.1.2-.2.3-.4.4-.1 0-.1.1-.1.2v.1c.1.2.1.4-.1.5-.1.2-.3.4-.4.6v.1c.1.1.1.2.2.3v.2c-.1.1-.1.2-.2.4 0 .2-.1.4-.2.5v.1c.1.1.2.2.2.3 0 .3 0 .3-.3.8 0 .2-.2.5-.2.7-.1.4-.1.8-.2 1.1-.1.7-.3 1.4-.4 2.2-.1.5-.2.9-.3 1.4-.1.5-.2.9-.3 1.4l-.6 2.4c-.1.3-.1.5-.2.8-.1.5-.3.9-.5 1.4-.2.3-.3.7-.5 1 0 0-.1.1-.1.2s-.1.2-.1.2c-.2.2-.3.4-.3.7 0 .1 0 .3.1.4.1.2.1.4 0 .5-.1.3-.1.7-.3 1-.1.3-.3.6-.5.9-.2.2-.4.5-.5.8 0 .1-.1.1-.1.2s-.1.1-.1.2c-.1.4-.3.8-.5 1.2v.2c.1.2-.1.2-.1.4 0 0 0 .1.1.1.1-.1.2-.1.2-.2h.2c.1 0 .2.1.2.2v.2c0 .1-.1.3-.1.4-.1.1-.3.2-.4.3.1.2.1.2.3.2.1-.1.3-.1.4-.2.1 0 .2 0 .3.1 0 .1.1.3 0 .4 0 .2-.2.4-.3.6.1.1.1.2.3.3.1 0 .2-.1.4-.1.1 0 .1.1.2.2 0 .1 0 .1-.1.2.1.2.1.3.2.5-.1.3.1.8.1 1.2.1.4.2.9.5 1.2.1.1.2.3.2.4 0 .1.1.2.1.3l.3.3h.4c.1 0 .3.1.4.1.2.1.3.3.4.4 0 .1.1.2.2.2.4.3.7.7 1.2.9.1 0 .2.1.3.2.1.1.3.2.4.2V60c-.1-.3 0-.6 0-.9 0-.2.1-.4.2-.5l.3-.6c.2-.2.4-.2.6-.2.1.2.2.2.2.2.3-.2.6-.4 1-.5.2-.1.4-.1.6-.1.1-.1.3 0 .4-.1.4 0 .8.1 1.3.1.3 0 .5.2.7.3l.2.2c.2.1.3.3.4.5.1.1.1.3.2.4.1.2.1.4.2.6.2.1.3.1.5.2.2 0 .4.1.6 0 .3-.1.7-.1.9-.3h.5c.1 0 .1 0 .1-.1s-.1-.2-.1-.3c-.1-.1-.2-.2-.2-.3-.1-.1-.1-.2-.2-.3 0-.4-.2-.7-.1-1.1-.1-.4-.3-.7-.4-1-.1-.1-.1-.3-.3-.4-.1-.1-.2-.2-.2-.3-.1-.2-.3-.5-.3-.7-.1-.2-.2-.5-.3-.7-.1-.4-.4-.7-.7-1-.2-.2-.3-.4-.4-.6-.1-.1-.2-.3-.3-.4-.2-.1-.4-.2-.6-.2h-.3c-.1-.1-.2-.2-.4-.3-.1.1 0 .2-.1.3-.1.1-.3.2-.6.3h-.1c-.2-.1-.3-.1-.5-.3.1-.2.1-.4.3-.5.1-.1.2-.1.2-.2s-.1-.2-.1-.2c-.1-.1-.1-.2-.1-.3 0-.1.1-.2.2-.2.1-.1.3-.2.4-.3.1 0 .1-.1.1-.1h.2l.1-.1v-.1c-.1 0-.2.1-.3.2 0-.1.1 0 0 0zm.3 10.2c-.2-.1-.3-.3-.2-.5 0-.2.1-.4.4-.5.1 0 .2 0 .3.1.1 0 .1.1.2.1 0 .1 0 .1.1.1v.1c.1.3.2.4.5.4l.1-.1c0-.3.1-.7-.1-1 0-.1 0-.2-.1-.3-.1-.1-.2-.2-.2-.3-.3-.2-.6-.3-.9-.4h-.3c-.2 0-.4.1-.6.1-.4 0-.8.2-1.1.4-.2.2-.6.4-.9.5-.1.3-.2.5-.2.8v.6c.1.2.2.3.2.5 0 .1.1.2.2.2s.3.1.4.1h.6c.1 0 .2 0 .2-.1.1-.2.1-.5.1-.8.1-.1.2-.1.3-.1.2 0 .3 0 .5.1.1.1.1.2.2.3.1.1.2.1.4 0l.1-.1v-.2c-.2.2-.2.1-.2 0zm12.1-40.6c.2.1.3.1.5.1.4 0 .7.2 1.1.1h.2c.2.1.5.1.7.1.1 0 .1 0 .1-.1s-.1-.1-.1-.1c-.3-.2-.7-.3-1-.3-.3 0-.5-.1-.8-.3l-.1-.1c-.1 0-.3 0-.4.1 0 .3-.2.4-.2.5zm-11.4.9c-.1-.1-.1-.2-.2-.3 0 0 0-.1-.1-.1 0 0-.1-.1-.2-.1s-.2 0-.2.1.1.3 0 .4c-.2.2-.3.5-.5.7v.1l.1.1c.4-.2.8-.4 1.1-.9z"/>
    <path class="st1" d="M11.2 50.1c0 .1 0 .1-.1.1-.1.1-.3.2-.4.3l-.2.2c0 .1 0 .2.1.3 0 .1.1.1.1.2-.1.1-.2.1-.2.2-.1.1-.2.3-.3.5.1.2.3.2.5.3h.1c.2 0 .5-.1.6-.3.1-.2-.1-.2.1-.3.1.1.2.2.4.3h.3c.2 0 .4.1.6.2.1.1.2.2.3.4.1.2.3.4.4.6.3.3.5.6.7 1 .1.2.2.5.3.7.1.3.2.5.3.7.1.1.1.2.2.3.1.1.2.2.3.4.1.3.3.7.4 1 0 .4.1.7.1 1.1.1.1.2.2.2.3.1.1.2.2.2.3.1.1.1.2.1.3 0 .1-.1.1-.1.1-.1 0-.3.1-.4 0h-.1c-.3.2-.6.2-.9.3-.2.1-.4.1-.6 0-.2 0-.3-.1-.5-.2 0-.2-.1-.4-.2-.6 0-.1-.1-.3-.2-.4-.1-.2-.2-.3-.4-.5-.1-.1-.2-.1-.2-.2-.2-.2-.4-.3-.7-.3-.4-.1-.8-.2-1.3-.1-.1 0-.3 0-.4.1-.2.1-.4 0-.6.1-.4.1-.7.3-1 .5 0 0-.1.1-.2.1-.2.1-.4 0-.6.2l-.3.6c-.1.2-.2.4-.2.5 0 .3-.1.6 0 .9v.2c-.2-.1-.3-.2-.4-.2-.1-.1-.2-.1-.3-.2-.5-.2-.9-.6-1.2-.9l-.2-.2c-.1-.2-.2-.3-.4-.4-.1 0-.3-.1-.4-.1h-.4c-.1-.3-.2-.4-.2-.5-.1-.1-.1-.2-.1-.3 0-.1-.1-.3-.2-.4-.3-.4-.5-.8-.6-1.3-.1-.5-.2-.9-.3-1.4 0-.2-.1-.3-.2-.5 0-.1 0-.1.1-.2 0-.1-.1-.1-.2-.2-.1 0-.3.1-.4.1-.2 0-.3-.2-.3-.3.2 0 .3-.2.4-.5v-.4c-.1-.1-.2-.1-.3-.1-.1 0-.3.1-.4.2-.1.1-.2 0-.3-.2.1-.1.3-.2.4-.3 0-.1.1-.3.1-.4v-.2c0-.1-.1-.2-.2-.2h-.2c-.1.1-.2.1-.2.2l-.1-.1c0-.1.2-.2.2-.4v-.2c.2-.4.4-.8.5-1.2 0-.1.1-.1.1-.2s.1-.1.1-.2c.1-.3.3-.6.5-.8.2-.3.4-.6.5-.9.2-.3.2-.7.3-1v-.5c-.1 0-.1-.2-.1-.3 0-.3.1-.5.2-.7.1-.1.1-.2.1-.2 0-.1 0-.1.1-.2.3-.3.4-.6.5-1 .2-.4.4-.9.5-1.4.1-.3.1-.5.2-.8l.6-2.4c.1-.5.2-.9.3-1.4.1-.5.2-.9.3-1.4.1-.7.3-1.4.4-2.2.1-.4.1-.8.2-1.1 0-.3.1-.5.2-.7.4-.5.4-.5.4-.8-.1-.1-.1-.2-.2-.3v-.1c.1-.1.2-.3.2-.4.1-.1.1-.2.2-.4v-.2c-.1-.1-.2-.2-.2-.3v-.1c.1-.2.3-.4.4-.6.1-.2.2-.3.1-.5v-.1c0-.1 0-.1.1-.2.2-.1.3-.2.4-.4v-.2c-.1-.1-.3 0-.4-.1 0-.1 0-.2.1-.2.1-.1.3-.2.4-.4.1-.1.1-.2.2-.3.1-.2.1-.4 0-.5l-.1-.1.3-.6c.1-.1.2-.2.3-.2.1-.2.2-.3.3-.4.1-.2 0-.4 0-.5 0-.1.1-.1.1-.1.1 0 .1 0 .2-.1.2-.1.4-.3.4-.6.3-.3.6-.6 1-.9.1 0 .1-.1.2-.2s.2-.2.3-.2c.4-.2.6-.5 1-.7l.2-.2.2-.2c.2-.1.4 0 .6 0 .2 0 .3-.1.5-.1.1 0 .2.1.3.2.2.2.4.3.6.3.1 0 .2 0 .3.1h.2c.2 0 .3.1.4.2.1.1.3.2.4.2.2.1.5.2.7.4.3.2.7.3 1.1.4.3.1.6.1.8 0 .3-.1.6-.1.9-.2.2-.1.4-.2.5-.3.2-.1.3-.2.5-.4l.8-.8c.2-.3.4-.7.6-1 .3 0 .3.3.5.3.4.1.9.1 1.2-.2.3 0 .5 0 .7.1.2.1.5.1.7.1.2 0 .5.1.7.1.2 0 .5 0 .7.1h.5c.1.1.2.2.2.3 0 .1.1.2.1.3.1.4.3.8.6 1 .2.1.3.3.4.5.1.1.2.3.2.5s.1.4.3.6c.1.1.1.2.2.3l.2.2c.2.1.4.3.5.5v.6c-.1.2-.1.5 0 .7.2.2.3.4.5.6v.2l-.3.6c-.1.1 0 .3.1.4.1.1.2.2.4.2.1.1.1.2 0 .3 0 0-.1.1-.2.1-.2.1-.3.2-.5.2-.1.1-.1.1-.1.2 0 .3.3.5.5.7 0 .1 0 .3.1.4l.2.2v.2c-.1 0-.1 0-.2.1l-.1.1v.3c.1.3.1.5.2.8v.6c0 .3-.2.4-.3.6v.4c0 .1.1.1.1.2s.1.1.1.2v.1c0 .2 0 .5.1.7.1.2.1.3.1.5-.1.4-.2.7-.3 1 .1.2.1.3.2.5 0 .1.1.2.1.3 0 .4.1.8-.1 1.2-.1.2 0 .5-.2.7V40c.1.2 0 .5 0 .7 0 .2-.1.5-.1.7-.1.3-.3.7-.5 1-.1.2 0 .5.1.7v.8c.1.3.1.6.1.9v.2c-.2.5-.3 1-.6 1.4 0 .3-.1.5-.1.7.3.6.2 1.3.2 2v.2c0 .1-.1.3-.1.4-.1.2-.2.4-.2.7 0 .1-.1.2-.1.2v.5c.1.2.2.4.2.5 0 .1.1.2.1.3 0 .2 0 .3.1.5-.1.2-.1.4-.1.6v.5l-.3.9c-.1.4-.2.6-.2 1v.4c0 .2.1.3.2.5.1.1.3.2.4.2.1.1.3.1.4.2.3.1.7.3 1 .5l.1.1c.3.5.3.6.3 1 0 .2-.1.4-.4.6h-.4c-.1 0-.2.1-.4 0l-.1-.1c-.1-.3-.3-.6-.4-.9-.1-.1-.2-.2-.3-.1-.1 0-.2.1-.1.2 0 .1 0 .2.1.3.1.3.1.7-.1 1 0 0-.1 0-.1.1 0 0-.1 0-.1-.1s0-.1-.1-.2v-.8c0-.1-.1-.2-.2-.2s-.2 0-.3.1c-.1.1-.2.2-.2.3 0 .2 0 .4.1.6 0 .3-.2.5-.4.7-.1.1-.2.1-.3.1-.4.1-.8 0-1.1 0-.2-.2-.4-.3-.6-.5-.2-.2-.3-.4-.4-.5-.1-.1-.1-.2-.2-.3v-.4c-.1-.3-.3-.7-.4-1v-1c0-.2-.2-.3-.3-.4-.1-.1-.2-.3-.3-.5v-1.8c-.1-.1-.1-.3-.2-.4l-.1-.1c-.1-.1-.3-.2-.5-.2l-.1-.1c.2-.2.3-.4.5-.6.1-.1.1-.2 0-.3-.1-.1-.2-.2-.2-.3 0-.1.2-.2.2-.4.1-.2.1-.4 0-.6 0-.1-.1-.2-.1-.3.3-.4.3-.4.5-.9 0-.1-.1-.2-.1-.2l-.2-.2c0-.1-.1-.2 0-.2l.3-.3.3-.3c0-.1.1-.2.1-.4v-.2h-.2c-.2.1-.3.2-.4.3-.2.2-.4.3-.6.5-.1.1-.2.2-.2.3.2.3.2.3.5.6 0 .1 0 .2-.1.3-.1.1-.1.1-.2.1-.1.1-.1.2-.2.3-.1.1-.2.2-.2.3v.1c0 .2.1.3.3.4 0 0 .1 0 .1.1v.1c0 .1-.1.2-.2.2-.2.1-.3.3-.3.5s.2.3.3.4v.3l-.4.4c-.1.1-.1.2 0 .3l.1.1.1.1c.2.1.3 0 .4 0 .1.2.2.3.3.5v1.5c0 .2 0 .4.1.6 0 .1.1.2.1.3l.1.1c.2.2.2.3.1.5-.1.1-.2.1-.3.1-.3.1-.5.2-.8.3-.1.1-.2.1-.3.2-.4-.3-.4-.4-.4-.6-.1-.2-.2-.5-.3-.7-.1-.2-.2-.4-.2-.6-.1-.4-.2-.7-.4-1-.1-.2-.2-.3-.2-.5 0-.1-.1-.1-.1-.2-.1-.2-.2-.5-.1-.7v-.2c0-.2 0-.5-.1-.7 0-.3-.1-.6-.1-.9 0-.3-.2-.6-.3-.9-.2-.5-.2-.5-.4-1.1 0-.4 0-.9.1-1.3v-.2c0-.1-.1-.2-.2-.3-.1 0-.2 0-.3.1-.1.1-.2.1-.2.3v.8c0 .3 0 .6-.1.8 0 .2.1.4.1.6.1.3.3.6.4.9l.3.9c0 .2.1.4.1.6v.4c-.1.5.1 1 .3 1.5.1.3.3.6.4.9.1.2.2.4.2.6v.2c.2.6.5 1.2.7 1.9l.3.6c.2.3.3.6.3 1 0 .2.1.3.1.4.1.3.1.5.1.9-.1.2-.1.4-.2.6 0 .1-.1.1-.1.2-.1.1-.1.1-.2.1s-.1-.1-.2-.2c0-.2 0-.4-.1-.7 0-.1 0-.2.1-.2v-.1c-.1-.1-.2-.2-.3-.4-.1 0-.2 0-.3-.1-.1.1-.3.2-.4.4 0 .3.3.5.1.8-.1 0-.3-.1-.3.1-.2.1-.3.2-.6.2-.1 0-.3-.1-.3-.2-.1-.2-.1-.4-.2-.5-.1-.1-.2-.1-.3-.2 0 0-.1 0-.1-.1-.2.1-.4.1-.6.2l-.6.6h-.2s0-.1-.1-.1v-.3c.1-.2.1-.5.1-.7-.1-.3-.1-.6-.3-.8-.1-.1-.1-.3-.1-.4v-.3l-.1-.1c-.2-.2-.4-.4-.4-.6 0-.1-.1-.2-.2-.3v-.6c-.1-.3-.2-.7-.3-1.1 0 0-.1-.1-.1-.2-.1-.1-.2-.3-.3-.4-.1-.1-.2-.3-.4-.4-.1-.2-.1-.4-.3-.6-.1-.1-.1-.3-.2-.4-.1-.2-.2-.5-.3-.7-.1-.2-.2-.3-.3-.4-.3-.3-.5-.6-.7-.9-.3-.2-.5-.5-.8-.6h-.3c-.3 0-.5 0-.8.1h-.2c0-.1.1-.2.2-.3.2-.1.4-.2.5-.4l.1-.1c.1-.1.1-.3 0-.4l-.1-.1-.1-.1c0-.1.1-.2.1-.3 0-.2-.1-.2-.3-.3h-.1c-.2 0-.5.1-.7.1-.1 0-.2 0-.2.1-.1.1-.1.3-.1.4 0 .1.1.1.1.2-.1-.3.1-.2.3-.2zm14-8.7c-.2.1-.3.3-.4.5-.1.1-.2.3-.3.4-.1.2-.2.3-.2.5s.1.3.2.3h.2c.2 0 .3-.1.3-.2l.3-.6.1-.1h.2c0 .1 0 .3.2.4h.4c.1-.1.2-.3.4-.3.1 0 .1.1.2.1.1.1.3.1.4 0 .1-.1.3-.2.4-.3h.1c.2.1.4.1.6 0l.1-.1c.1-.1.2-.3.3-.4.1-.1.2-.2.3-.4v-.3c0-.1-.2-.2-.3-.2-.2.1-.3.1-.5.3h-.1l-.2-.2h-.4s-.1 0-.1.1 0 .2-.1.3c-.1.1-.2.1-.4.2l-.1-.1c-.2-.1-.3-.1-.5 0-.2.2-.4.4-.6.5-.2-.1-.2-.4-.2-.6 0 .1 0 .1-.3.2zM11 25.1c.2-.2.4-.5.5-.7.2-.1.2-.2.3-.3l.3-.3c.2-.2.3-.5.4-.7 0-.2.1-.3.2-.5v-.2c0-.1-.1-.2-.2-.3l-.1-.1h-.3c-.1 0-.2.1-.2.2s0 .1-.1.1h-.2c-.1 0-.2.1-.2.2s0 .2.1.3c0 .1 0 .1-.1.2 0 .1-.1.1-.1.2-.1.1-.1.1-.1.2 0 .2.1.3.1.5-.1.3-.4.5-.5.7-.2.2-.3.5-.5.7 0 .2-.1.4 0 .5 0 0 .1 0 .1.1h.2c.1 0 .2-.1.4-.2l.1-.1c-.1-.2-.1-.3-.1-.5zm16.5 21c.2 0 .3.2.5.2l.1-.1c.1-.2.3-.3.4-.5.1-.1.2-.1.2-.1.2-.3.3-.6.1-.9-.2 0-.2 0-.6.2-.3.2-.5.4-.7.7h-.3c-.2.1-.3.4-.5.4-.1 0-.3-.1-.5-.2-.3.1-.3.4-.5.5h-.1c-.1 0-.3.1-.4.2-.2 0-.2.2-.2.3l.1.1c.1 0 .1.1.2.1.2 0 .4-.1.6-.1.1 0 .3.1.4.2.1 0 .2-.1.2-.1.4-.3.7-.6 1-.9zm.2 2.9c.1.1.2.1.2.2v.5c0 .1.1.2.2.2s.1.1.2.1.2 0 .2-.1c.1-.3.1-.7.2-1v-.2c0-.1-.1-.1-.2-.2-.1 0-.3 0-.4.1l-.1.1h-.1c0-.1-.1-.1-.2-.2h-.3c-.1 0-.2.1-.3.2 0 .1 0 .1-.1.2 0 .2 0 .4-.1.6-.1 0-.1.1-.2.1v-.2c.1-.2.1-.4 0-.6 0-.1-.1-.2-.2-.2h-.1c-.2.1-.4 0-.5-.1h-.1c-.1.1-.3.2-.3.3v.3c0 .1-.2.2-.1.3 0 0 .1.1.1.2l.2.2c.2.1.4.1.5.2.1 0 .2 0 .3-.1l.1-.1c.1.1 0 .2.1.3.1.1.3.1.4 0 .1-.1.2-.1.2-.2 0-.2.1-.4.1-.5.2-.1.3-.2.3-.4zM10.6 34.3V34c0-.1.1-.1.1-.1 0 .1.1.2.1.4 0 .1 0 .1.1.2v.4c0 .1.1.2.2.3h.2c.1 0 .3-.1.3-.3v-.6c0-.1-.1-.3-.1-.4v-.5c-.1-.2-.3-.3-.6-.2h-.1l-.1.1s-.1 0-.1-.1l-.1-.1c-.1-.1-.1-.1-.2-.1-.2.1-.4.2-.4.4.1.3 0 .6 0 .9.1.1.2.2.3.2 0 .1.3.1.4-.2zM17 50c.1.1.1.3.3.4.2 0 .2 0 .3-.1.1-.2.3-.5.4-.7 0-.1 0-.1.1-.2V49c-.1-.1-.2-.2-.4-.2s-.3.1-.5.2c-.1.2-.3.3-.5.4-.1.1-.2.1-.3.1 0 0-.1 0-.1-.1-.4-.2-.5-.2-.7.2v.1c.1.2.2.3.3.5l.2.2c.1.1.1.1.2 0 .2-.1.4-.2.6-.4-.1.1 0 0 .1 0zM4 54.4c0 .1.1.1.1.1.1.1.3.1.5 0 .1 0 .3-.1.3-.3l.1-.1c.1.4.1.5-.1 1l.1.1h.1c.2 0 .3-.1.4-.3.1-.2.1-.4.2-.6v-.5c0-.2-.2-.3-.4-.3h-.2s-.1 0-.1-.1v-.5c0-.2-.2-.3-.3-.4h-.2l-.2.2c0 .3.1.7.1 1-.2.4-.3.6-.4.7zm5.1-25.2.9-.3.3-.3c0-.1.1-.2.1-.3 0-.1 0-.2-.1-.3-.1 0-.2 0-.2-.1 0 0-.1 0-.1-.1v-.1c.1 0 .2-.1.3-.1.1 0 .2-.1.3-.2 0 0 .1 0 .1-.1.1-.1.2-.2.2-.4 0-.1-.1-.1-.2-.1-.4 0-.8.1-1.2.2-.1 0-.2.2-.1.3 0 .1.1.2.1.3 0 .1-.1.2-.1.3 0 .1.1.2 0 .3-.1 0-.1.1-.2.1s-.1.1-.2.1c-.1.1-.1.3 0 .4-.1.3 0 .3.1.4zm10.8 16.2c0 .1.1.3.1.4 0 .3.1.5.2.7 0 0 0 .1.1.1.2.1.2.1.3.1.1 0 .2-.2.3-.3.4.1.5.1.7-.2 0-.4.1-.8.1-1.2 0 0-.1 0-.1-.1h-.3c-.1.1-.3.1-.4.2-.1-.1-.2-.1-.3-.2-.4.2-.5.3-.7.5zm4.9-9.2c-.2 0-.4 0-.5.1 0 .5 0 .5-.2.7h-.3c-.2.1-.3.1-.5.2-.1.1-.2.3-.4.4v.1c0 .2 0 .3.1.5.2.1.3.1.5 0 .1-.1.2-.1.2-.2v-.1c0-.2.2-.4.3-.5.1-.1.1-.1.2 0 .1 0 .2.2.4.1s.3-.2.4-.4v-.7s0-.2-.2-.2zm-11 15c.2-.1.4-.3.5-.4.1-.1 0-.2 0-.3 0-.1-.1-.2-.1-.3h.1l.1.1v.4c.3.4.7.3.8-.1v-.4c-.1-.1-.1-.2-.1-.3l-.3-.3c-.1 0-.2-.1-.3 0-.1.1-.2.2-.3.2h-.1c-.1 0-.2 0-.2-.1-.1.1-.3.1-.4.2v.8c.1.2.1.4.3.5zm-2.3-24.6c-.1.4-.1.8-.3 1.2 0 .2-.1.4-.2.6-.1.1-.1.2-.1.2.1.3.1.4.3.5.1 0 .1 0 .2-.1s.1-.2.2-.3c.1-.1.1-.2.2-.3 0-.2 0-.4.1-.5.1-.2.1-.3.2-.5s0-.4.1-.6v-.2c0-.1-.1-.1-.2-.2-.2.2-.3.2-.5.2zm12.4 1.9h.3c.1-.1.2-.1.2-.2.2 0 .5-.1.6-.2.2-.3.2-.7.2-1-.1-.1-.2-.2-.3-.2-.1 0-.3 0-.4.1 0 .1-.1.1-.1.2s0 .3-.1.4c-.2 0-.4-.1-.5 0-.1 0-.3.1-.3.3v.1c.2.1.2.3.4.5zm-9.7.3c-.1-.1-.2-.2-.4-.2s-.3.1-.5.1c0 .1-.1.1-.1.1s-.1.1-.1.2c0 .2-.1.5-.1.7 0 .2.1.5.2.7 0 .1.1.2.1.3.1.1.2.1.3.1.1 0 .2-.1.2-.3 0-.2 0-.4-.1-.6v-.8c.2.1.4-.1.5-.3zm.9 16.8c-.3-.1-.3-.1-.5 0-.2 0-.3.2-.2.4.1.1.1.2.2.2.1.1.2.2.2.4 0 .1-.1.2-.1.2 0 .1 0 .1.1.2 0 .1.1.2.3.2h.5c.1 0 .1 0 .1-.1.1-.1.2-.2.2-.3v-.4s0-.1-.1-.1-.2-.1-.3-.1c-.2-.2-.3-.4-.4-.6zm-.7-16.4c-.1.2-.1.4-.1.7v.2c.1.2.1.5.1.7v.5l.2.2h.1c.2-.1.3-.2.3-.4v-.6c0-.4 0-.7.1-1.1 0-.1-.1-.2-.1-.2h-.5c0-.1-.1-.1-.1 0zm8.5-6.5h-.4c-.2.1-.3.1-.5.2 0 .1.1.3.1.3.2.4.6.5.9.6h.4c.2 0 .4-.2.4-.4 0-.1 0-.2-.1-.2-.1-.1-.2-.1-.4-.2-.1 0-.3-.1-.4-.3zm-6.8 8.9c0-.4-.1-.8-.2-1.2 0-.1 0-.1.1-.2V30c0-.1-.1-.2-.2-.2-.2 0-.3 0-.4.2 0 .1-.1.2-.1.3 0 .1.1.2.1.3v.3c0 .1.1.3.1.4v.5c.2.3.2.3.5.2-.1-.1 0-.2.1-.4zm10.4-1.4c.1.1.1.1.2.1.1.1.3 0 .4-.1.2-.2.3-.4.3-.7 0-.4 0-.7-.2-1.1 0-.1-.1-.1-.1-.1h-.4c-.2 0-.3.2-.3.3 0 .1 0 .1.1.2 0 .1.1.3.1.4 0 .1.1.3 0 .4l-.2.2c.1.2.1.3.1.4zm-9.6 2.5c.1-.1.2-.3.3-.5 0-.1.1-.1.1-.2 0-.4-.1-.7-.2-1 0 0 0-.1-.1-.1-.1-.2-.4-.2-.5 0-.1.1-.2.2-.1.3.1.3.3.5.2.9l-.1.1c-.1.1-.1.1-.1.2s0 .1.1.2.2.2.3.1c0 .1 0 0 .1 0zm2.7 14.5c.1-.1.1-.3.1-.4v-.3c-.2-.3-.4-.7-.7-1l-.1-.1c-.3-.1-.4 0-.5.2v.1l.3.6c.1.2.2.4.2.6 0 .1.1.2.2.3.1 0 .2.1.3.1.1-.1.2-.1.2-.1zm6.1-18.3h-.3c-.2 0-.3.2-.2.4 0 .1.1.2.2.2.1.1.2.2.2.3 0 .1-.1.2-.1.3-.1.2.1.4.3.5.1 0 .2 0 .3-.1.1-.1.1-.3.1-.4 0-.5-.1-.8-.3-1.2h-.2zM9.6 37.8s-.1 0-.1.1c-.2.1-.2.2-.2.4 0 .1.1.2.1.3 0 .1.1.2 0 .3 0 .1-.1.1-.1.2s-.1.2-.1.3c0 .1.1.2.2.3.1.1.2.1.3 0l.3-.3c.1-.4.2-.7.2-1.1 0-.1-.1-.3-.2-.4-.1 0-.2-.1-.4-.1zm2.4 1.4c0 .1-.1.2-.1.3 0 .1 0 .3.2.3.1 0 .3 0 .4-.1.2-.2.3-.4.2-.6 0-.2-.1-.4-.1-.6v-.2c0-.2-.2-.3-.3-.3H12c0 .1-.1.1-.1.1v.3c-.1.3 0 .6.1.8zm-1.1.1c.1.2.2.3.4.3.1 0 .3-.1.3-.3 0-.2 0-.5.1-.7 0-.1-.1-.2-.1-.4v-.4s0-.1-.1-.1c-.1-.1-.3-.2-.4-.1-.1.1-.2.2-.2.3v.3c0 .1.1.2.1.3 0 .2 0 .3-.1.5v.3zm.1 7.4c0 .1-.1.2-.1.3 0 .1 0 .2.1.2.1.1.3.2.4.2h.1c.2-.2.3-.5.2-.8 0-.2-.1-.4-.2-.5-.1-.2-.2-.2-.3-.3-.1-.1-.3-.1-.4 0-.1 0-.2.1-.2.2s.1.3.2.4c0 0 .1.2.2.3zm2.5-6.9c.1-.1.1-.2.1-.4s0-.4.1-.6c.1-.2.1-.3.2-.5v-.1s0-.1-.1-.2h-.2c-.3.1-.5.2-.6.4 0 .2-.1.4-.1.6v.6c.1.1.2.3.4.3 0-.1.1-.1.2-.1zm-1.3-6.2-.1.1c-.1.2-.1.4 0 .5l.7.7s.1 0 .1.1c.1.1.3.1.4-.1 0-.1.1-.2.1-.3v-.1c-.1 0-.2-.1-.2-.2-.1-.2-.2-.4-.3-.7-.1-.1-.2-.2-.3-.2-.2.2-.3.2-.4.2zm15.1 2.7c0-.2.1-.4.1-.5v-.6c-.1-.1-.2-.2-.4-.2s-.3 0-.4.2v.6c0 .1 0 .1-.1.1 0 0-.1 0-.1.1.1.1.2.3.3.4.1.1.2.2.4.1 0 0 .1 0 .2-.2zM13 29.2c0-.3 0-.6.1-.9v-.1c0-.1-.1-.3-.2-.3s-.2 0-.3.1c-.2.1-.3.2-.3.4 0 .3 0 .5-.1.7v.3l.3.3h.2c.1-.2.2-.3.3-.5zm6.8 7.8c-.2-.1-.3-.1-.4-.1-.1 0-.2 0-.2.1l-.1.1v.4c-.1.2-.3.3-.3.4v.3c.1.1.2.1.3.1.1 0 .2-.1.4-.1.1-.2.3-.4.4-.7v-.1c-.1-.1-.1-.2-.1-.4zm-8.7-10.4c0-.1.1-.1.1-.1.1-.2.1-.3-.2-.4H9.8c-.1 0-.3.1-.4.1l-.1.1c-.1.2.1.5.3.5h.7c.2-.1.5-.1.8-.2zm3.2 19.6c-.1-.3-.2-.5-.4-.6-.2-.1-.3-.1-.5-.1-.2.1-.3.3-.2.4.1.1.2.2.2.3l.1.1v.1s0 .1-.1.1c-.1.2 0 .4.2.4h.4s.1 0 .1-.1.1-.2.1-.2c0-.1 0-.2-.1-.2l.2-.2zM3.6 53.4c.1-.4.3-.7.4-1.1 0-.1-.1-.1-.1-.2-.1-.2-.5-.2-.6-.1l-.1.1v.1c0 .2 0 .5-.2.7l-.1.1c0 .1 0 .2.1.2.2.2.3.3.6.2zm19.9-23.6c-.1-.1-.3-.2-.5-.1 0 0-.1 0-.1.1-.1.1-.1.2-.1.3 0 .1.1.3.1.4.1.3.2.5.5.6h.2c.1 0 .1-.1.2-.1.1-.1.1-.2.1-.3 0-.1-.1-.3-.1-.4-.1-.1-.2-.3-.3-.5zm-4.6-5.9c0 .1-.1.2 0 .3v.9c0 .1.1.1.1.1.1.1.1.1.2 0 .1 0 .2-.1.3-.2 0-.1.1-.3.1-.4v-.5c0-.1-.1-.2-.1-.3 0-.1-.1-.1-.2-.1s-.3 0-.4.2zm2.6 7.7c.3.1.5.1.6-.1.1-.3.2-.5.3-.7v-.4c-.1-.1-.2-.2-.3-.2-.3.1-.3.2-.4.3-.2.2-.2.5-.3.8v.1s.1.1.1.2zm-9.4 15c0 .2 0 .4.1.5.1.1.3.1.5.1.1 0 .2-.1.2-.2v-.6c-.1-.2-.2-.4-.2-.5 0-.1-.1-.1-.2-.1s-.2 0-.3.1c-.1.1-.2.2-.1.4-.1.1-.1.2 0 .3zm.4-4.4c-.3-.2-.6-.1-.9-.3h-.1s-.1.1-.2.1c-.2.2-.2.5.2.6.2.1.4.1.6.1h.5l.1-.1v-.1c-.1 0-.1-.1-.2-.3zm9.4-17.8c.2-.2.3-.4.2-.6 0-.1-.1-.3-.1-.5 0-.1 0-.1-.1-.2 0-.2-.2-.2-.3-.2-.1 0-.3.1-.4.2-.1.2-.1.3 0 .5.1.1.1.1.1.2s0 .1-.1.2c.1.1.1.3.2.4.2.1.3.1.5 0zm3.4 11.9s0 .1 0 0c-.1.3-.1.4 0 .5.1.1.3.1.5 0l.1-.1c.1-.1.1-.1.1-.2 0-.2.1-.3.1-.5-.1-.1-.1-.2-.2-.3-.1-.1-.2-.2-.4-.2h-.3l-.2.2c.2.2.3.4.3.6zM12 54.9v.4l.1.1c.2 0 .3.1.4 0 .1-.1.2-.3.2-.4v-.7c0-.1-.1-.1-.1-.2 0 0-.1-.1-.2-.1h-.3s-.1.1-.1.2.1.3.1.4c0 .1-.1.2-.1.3zm6.9-27.2c-.1-.1-.2-.2-.3-.2-.1 0-.1 0-.2-.1-.1 0-.3.1-.3.2s-.1.3 0 .4c0 .2.1.3 0 .5l.1.1c.2 0 .3.1.5.1.1 0 .2 0 .2-.1-.1-.2 0-.5 0-.9zm6 3c.2-.1.2-.2.2-.5-.1-.2-.2-.5-.4-.7-.1-.2-.5-.2-.6 0-.1.1-.1.2-.1.3.1.3.2.6.3.8.2.1.4.1.6.1zM21.1 24c-.1-.1-.2-.3-.2-.4 0-.1-.1-.2-.2-.2-.1-.1-.3-.1-.5-.1-.1 0-.2.1-.2.2v.2c.1.2.2.5.3.8.1 0 .3.1.4.1h.1c.1-.2.2-.3.3-.6zm7.4 5.3v-.5c-.1-.2-.2-.4-.4-.5h-.4c-.1.1-.1.2-.1.4 0 .1.1.2.1.3v.4c.2.1.3.1.5.2l.3-.3zM5.6 42.2c-.2.1-.2.3-.2.4l.3.9c0 .1.1.2.3.2.1 0 .1-.1.2-.1 0-.2.1-.3.1-.5-.1-.2-.1-.4-.1-.6 0-.2-.1-.3-.3-.3h-.3zm17.3 4c0-.2 0-.3.1-.5v-.2c0-.1-.1-.2-.2-.2h-.4c-.1.1-.2.1-.3.2-.1.1-.2.2-.2.4.1.2.2.3.2.5v.1c0 .1.1.1.2.1s.2 0 .2-.1c.3-.1.3-.2.4-.3zm-3.5-17.6c.2.2.4.2.6.2.2 0 .3-.1.3-.3v-.7l-.1-.1c-.1-.1-.2-.1-.4-.1-.1 0-.2 0-.2.1-.1.2 0 .5.1.7-.1 0-.2.1-.3.2zm-8 26.2c.1-.1.2-.2.2-.4 0-.3-.1-.5-.2-.8-.2-.1-.4-.1-.6 0l-.1.1v.3c.1.2.1.4.1.5.3.3.4.3.6.3zm3 1.1c0-.2 0-.3-.1-.5-.1-.3-.1-.3-.4-.3h-.2c-.2.1-.2.3-.2.4 0 .2.1.4.1.6 0 .1.1.1.2.1.3 0 .5-.1.6-.3zm11.3-3.6c0 .3 0 .5.2.7.1 0 .2.1.3.1.1 0 .3 0 .4-.1-.1-.1 0-.3 0-.4l-.2-.2v-.2c0-.1-.1-.1-.1-.2h-.4c-.1.1-.1.2-.2.3zm-1.6-29.6c0 .2.1.3.3.4.2.1.4.2.7.1.1 0 .1-.1.2-.1l.1-.1c0-.2-.1-.4-.2-.5-.2 0-.3 0-.5-.1h-.2c-.4.1-.4.2-.4.3zm-18 33.2c.1-.1.3-.1.4-.2.1 0 .1-.1.1-.2v-.7c0-.1-.1-.1-.1-.2-.1-.1-.3-.1-.4 0 0 0-.1 0-.1.1s-.1.2-.1.3c0 .1 0 .3.1.4 0 .1-.1.2-.2.3.1.1.1.2.3.2zm12.5-14.5v.7c.1.1.2.2.3.2h.2c.1-.1.1-.2.2-.3.1-.2.1-.3.1-.5-.2-.4-.3-.4-.7-.3 0 .1 0 .1-.1.2zM17 46.2c-.1-.2-.3-.3-.4-.5 0 0-.1-.1-.2-.1s-.3 0-.4.1c-.1.1-.2.2-.1.3.1.2.2.3.3.5.2.1.3.2.5.2.2-.1.3-.3.3-.5zm2.2-13.9c.2 0 .3 0 .5-.1.1-.1.2-.2.2-.3v-.2c-.2-.2-.3-.3-.6-.3-.1.1-.2.1-.3.2l-.1.1c0 .1 0 .2.1.4 0 .1.1.1.2.2zM6.3 57.1h.4c.1 0 .2-.1.3-.2.1-.1 0-.2-.1-.3-.1-.2-.3-.3-.5-.4-.2-.1-.4.1-.5.2 0 .1-.1.2 0 .2 0 .1 0 .1.1.2l.3.3zm8.8-17.9c0-.2.1-.3.1-.5 0-.1 0-.2-.1-.3-.1-.1-.3-.1-.5 0-.2 0-.3.1-.2.3 0 .2.1.4 0 .6 0 .2.2.3.3.2.2-.1.3-.2.4-.3zm10.6-12.6c.1.2.1.3.2.4.1.1.3.1.4 0l.1-.1c.1-.2.1-.3.2-.5v-.1c-.1-.3-.5-.4-.7-.2-.1 0-.1.1-.1.2-.1.1-.1.2-.1.3zm-8.6 13.8c.2-.1.3-.2.3-.4s-.1-.3-.1-.5l-.1-.1c-.2.1-.4.2-.5.2-.1.2-.2.3-.2.5 0 .1.1.1.2.1 0 .1.2.2.4.2zm.6 12.2c.2-.2.2-.2.3-.5-.1-.1-.1-.2-.2-.3 0-.1-.1-.1-.2-.1h-.3c-.1 0-.1.1-.2.1 0 .1-.1.2-.1.3v.1c.2.1.3.2.5.3 0 .1.1.1.2.1zm-8.3 1.2c.1.2.2.5.3.6.1.1.2.1.3.1.1 0 .2-.1.2-.1.1-.1.2-.2.2-.3 0-.1-.1-.2-.1-.3-.1-.1-.3-.1-.4-.2h-.2c-.2 0-.2.1-.3.2zm4.2 3.1v.4c.1.1.3.2.5.2.1 0 .3 0 .3-.2.1-.1.1-.3 0-.5-.1-.1-.2-.1-.3-.2H14c0 .1-.3.1-.4.3zm8.3-8.5-.2-.2c-.1-.1-.3-.1-.4-.1-.1 0-.2.1-.2.2 0 .2.1.4.2.5.2.1.4.1.5-.1 0 0 0-.1.1-.3z"/>
    <path class="st1" d="M11 14.6c-.1 0-.2-.1-.3-.1h-.4c-.1.1-.3.1-.4.1-.1 0-.2 0-.4.2-.1.1 0 .1-.1.2v.2H9c-.1 0-.2 0-.3-.1-.1-.1 0-.3-.1-.4-.1-.1 0-.2 0-.3.2-.4.4-.6.6-.8.1-.1.2-.2.2-.4-.1-.1-.1-.3-.2-.4.1-.3.4-.4.4-.6.1-.3 0-.4 0-.6 0-.1.2-.2.3-.2.2-.1.2-.3.2-.4v-.2c-.1-.2-.1-.3-.1-.5s0-.3-.1-.4c0-.3-.1-.5-.2-.6-.2-.3-.3-.7-.4-1.1 0-.1-.1-.2 0-.3 0-.1 0-.2-.1-.2-.2-.3-.2-.5-.2-.8v-1c0-.2 0-.4-.1-.6-.1-.1 0-.3 0-.5 0-.1.1-.1.1-.2V4c0-.1.1-.4.4-.5.1 0 .3 0 .4.1.3.1.5.3.8.5.2.2.4.3.6.5.2.3.4.5.6.8 0 .1.1.1.2.2.2.3.5.5.7.8.2.3.5.4.8.6.1 0 .2 0 .3.1.1-.1.2.1.3.1h.1c.1 0 .3-.1.4-.1.2-.1.4-.3.5-.5 0 0 0-.1.1-.1h.1s.1 0 .1.1 0 .2.1.3c.1 0 .1.1.2.1.1.1.3.1.4 0 0 0 .1 0 .1-.1.1-.1.2-.4.3-.5l.1-.1c.1-.1.2-.1.3 0l.3.3c.1 0 .3.1.4.1h.3c.1 0 .2 0 .2-.1.1-.1.1-.2.2-.3 0 0 .1-.1.2-.1s.1.1.2.1c.1.1.2.1.3.2.4.3.6.2 1-.1l.1-.1c.2 0 .3 0 .5.1.1 0 .2-.1.3-.1.1 0 .1-.1.1-.2s0-.2-.1-.3l-.1-.1c-.1-.2 0-.3 0-.4.1-.2.1-.4.3-.5.1-.1.2-.3.2-.5l.3-.6c.2-.2.4-.5.5-.7.1-.2.4-.4.5-.7 0-.1.1-.1.1-.1.4-.3.6-.7 1.1-1.1.1 0 .3-.1.4-.2.2 0 .2.1.3.2.1 0 .2.1.3.1.1 0 .2 0 .3-.1.2 0 .3.2.3.3.1.2.2.5.2.7v2.4c0 .5 0 1-.1 1.5 0 .2 0 .5-.1.7-.1.3-.1.6-.3.9.1.2 0 .4-.1.6-.1.1-.3.3-.5.4-.1.2 0 .3.1.5s.4.2.5.6c0 0 0 .1.1.3 0 .1.1.2.1.3 0 .2.1.4.3.6.2.2.3.4.5.6 0 .1 0 .2-.1.3-.1.2-.2.3-.3.5v.3c.1.2.2.4.2.5 0 .1-.1.2-.1.2l-.3.3c-.1.1-.1.3-.1.4 0 .1-.1.2 0 .3.1 0 .1.1.2.1 0 .1.1.3.2.3.1.1.1.1.1.2-.1.1-.2 0-.2.1-.2 0-.3.1-.4.3 0 .2.1.3.2.5s.1.4 0 .6c-.1.1-.2.2-.3.2-.2 0-.3.1-.5.2-.3 0-.6.1-1 .1-.2 0-.4.1-.5.2-.2.3-.2.4-.2.4 0 .1.1.3.3.3.2 0 .5 0 .7-.1.1-.1.2 0 .3 0 0 .1 0 .2-.1.2-.3 0-.7.1-1.1.1-.1 0-.3.1-.4.1-.1.1-.2.3-.1.4.1.1.2.1.3.1h.3c0 .2.1.4 0 .6-.1.1-.2.1-.3.2-.1 0-.1.1-.2.1s-.2.1-.3.1c-.2-.1-.4-.2-.6-.2-.1 0-.1.1-.2.1 0 .1 0 .2-.1.3 0 0-.1.1-.1 0-.1 0-.2-.1-.3-.1H21c-.1 0-.2.1-.3.1l-.2.2c-.3.3-.2.2-.2.6-.3.4-.7.7-1.2.9-.1.1-.3.1-.4.1-.1 0-.2 0-.3.1-.4.1-.8.1-1.2-.1-.2-.1-.5-.2-.7-.4-.2-.1-.3-.2-.5-.3 0 0-.1-.1-.1-.2l-.1-.1c-.1-.1-.2-.1-.3-.1h-.4c-.1 0-.2.1-.4.1-.1-.1-.3-.2-.3-.4s-.2-.3-.3-.4c0-.1-.1-.2-.1-.3l-.1-.1c-.1-.1-.1-.1-.2 0-.3.1-.5.2-.7.4-.1.1-.2.1-.3-.1l.1-.1c.2-.1.2-.3 0-.4-.1 0-.2-.1-.3-.1h-.4c-.3.1-.5.1-.8.2h-.1v-.1l.1-.1c.1-.1.2-.1.3-.2.2-.1.5-.1.7-.2.1-.3.2-.5.1-.8h.2c.2 0 .3-.1.4-.3-.1-.2-.3-.3-.3-.4-.1-.1-.3-.1-.4-.1-.1 0-.2 0-.2.1-.1.1-.1.2-.2.3.1.3.1.3.4.5 0 0 0 .1-.1.1-.3.2-.7.4-1 .6-.1.1-.2.1-.3.1-.1 0-.2-.1-.2-.1v-.3c0-.1.1-.1 0-.2 0-.1-.1-.2-.3-.3-.1 0-.1-.1-.2-.1s-.2 0-.3.1c-.1 0-.2-.1-.2-.2-.2-.2-.3-.3 0-.6.2-.1.3-.3.3-.4 0-.1 0-.1-.1-.2 0 0 0-.1-.1-.1-.1-.1-.2-.1-.3 0-.1.1-.3.1-.3.2 0 0-.1.1-.2.1h-.1l-.1-.1c.1-.3.2-.5.3-.8l.3-.3c.4.1.8.2 1.3.2.1-.1.3-.2.4-.3h.3c.1-.1.3-.2.4-.3.1-.2 0-.3 0-.5-.1-.3-.2-.5-.5-.5 0 0-.1 0-.2.1-.1 0-.1.1-.1.4zm7.3-6.8v-.3c0-.1 0-.2-.1-.2s-.2-.1-.3-.1h-.3c-.1 0-.2.1-.2.2-.1.1-.1.2-.1.3 0 .1.2.2.3.2h.2c.2 0 .4-.1.5-.1-.1.1-.1.2-.2.4v.1c.1.2.2.3.2.5 0 .1.1.2.2.2s.2 0 .3.1c0 0 0 .1.1.1l.1.1c.2 0 .3 0 .4-.2 0-.1.1-.2.1-.3v-.9c0-.2-.1-.3-.3-.3H19c-.1 0-.2.1-.3.1 0 .1-.2.1-.4.1zm5.3.5c.2-.1.4-.1.6-.3 0-.1.1-.2.1-.4.1-.1.2-.3.2-.4.1-.3.3-.6.2-1v-.8c-.1-.2-.1-.5-.1-.7.2-.6.2-1.1 0-1.7-.2-.2-.5-.3-.8-.2-.1.1-.3.2-.4.3-.1.2-.2.3-.3.4-.1.2-.2.4-.3.5-.1.2-.3.5-.4.7-.1.1-.1.2-.1.3 0 .2-.2.4-.2.6-.1.3-.3.6-.6.8 0 .1-.1.3-.1.4 0 .1 0 .2.1.3.1.1.2.2.3.2h.4c.2-.2.5-.2.8-.2.1 0 .1.1.2.1.1.2.1.5.2.7l.2.2c-.1.1-.1.2 0 .2zm-5.9 9c-.2 0-.4-.2-.5-.4-.1-.2-.2-.4-.2-.6-.1-.1-.1-.2-.3-.3-.1 0-.1 0-.2-.1-.1 0-.2.1-.3.1-.1.1-.2.2-.2.4.1.2.2.3.3.5.1.2.1.4.3.6.1.1.2.2.3.2.1 0 .1.1.2.1.1.4 0 .7 0 1.1 0 .1-.1.1-.1.2-.1.2-.2.3-.4.4H16c-.2.1-.3.1-.3.3.1.2.1.2.5.5.3.1.5-.1.7-.1.2-.1.4-.3.6-.4.1-.1.2-.2.2-.4.1-.1.1-.3.2-.4 0 0 .1-.1.2 0l.1.1c.1.2.4.4.6.5h.7c.1-.1.2-.1.3-.2.2-.2.4-.3.6-.4 0 0 0-.1.1-.1v-.4c-.1-.2-.3-.2-.5-.2-.1 0-.2.1-.3.1-.2.2-.2.5-.5.5-.1-.1-.2-.1-.4-.2-.1-.2-.1-.4-.2-.6 0-.1-.1-.2-.2-.2 0 0-.1 0-.1-.1.3-.1.4-.4.6-.6.1-.3.2-.5.3-.7 0-.1 0-.3-.1-.4-.1-.1-.2-.1-.4-.2h-.1c-.1.1-.3.2-.3.4v.3c-.3.5-.4.7-.6.7zm-2.9-6.1H14c-.2 0-.4.1-.6.2-.1 0-.1.1-.2.1-.3.1-.5.4-.7.7-.2.3-.3.7-.2 1.1v.1c0 .4.1.7.2 1 .1.1.2.2.3.2l.6.3c.2 0 .3.1.5.2.1 0 .1.1.2.1.4-.1.7-.1 1-.3.1-.1.1-.3.3-.4.2-.2.4-.4.5-.7 0-.1.1-.1.1-.2s.1-.2.1-.3c0-.2 0-.3.1-.5 0-.2 0-.3-.1-.5-.2-.4-.4-.7-.8-.8-.1-.1-.3-.2-.5-.3zm6.8 3c.1-.1.2-.2.2-.3.1-.1.2-.2.2-.3.1-.3.3-.6.4-.8.1-.4.2-.7.1-1.1 0-.1 0-.1-.1-.2l-.5-.5c-.2-.1-.3-.2-.5-.3-.1 0-.2 0-.3-.1-.4-.1-.8 0-1.2.1-.1 0-.2.1-.3.2l-.6.6c0 .2-.1.4-.1.5 0 .4.1.8.1 1.2 0 .4.2.7.6.9.1.1.3.2.4.3.1 0 .2.1.3.1.4.1.7.1 1-.1.1-.1.2-.1.3-.2zM10.2 4.7c-.4 0-.4 0-.5.2-.1 0-.2.1-.3.2 0 .1-.1.2-.1.4-.1.5-.1 1 .1 1.4.1.2.2.5.3.7 0 .1.1.3.2.4.1 0 .2.2.2.3 0 .2.1.4.2.7l.1.1c.3.1.5 0 .8-.1.1 0 .1-.1.2-.2 0-.1 0-.2.1-.3 0-.1.1-.1.2-.2.1 0 .2 0 .3-.1.2 0 .4-.2.5-.4v-.2c-.1-.2-.2-.5-.3-.7 0-.1-.1-.1-.1-.2-.2-.2-.3-.5-.5-.6-.1 0-.1-.1-.2-.2-.1-.2-.2-.3-.4-.4l-.4-.4c-.1-.1-.2-.3-.4-.4zm6.1 4.2c.1-.2.1-.4.2-.6v-.1c0-.1 0-.2-.1-.2-.2-.1-.4-.2-.6-.2-.1 0-.3.1-.3.3 0 .3-.1.6-.2.9v.1c0 .1-.1.2-.1.3.1.2.1.3.1.5-.1 0-.1.1-.2.1s-.2.2-.1.3v.2c0 .1.1.2.1.3.1.1.1.3.2.4.1.1.3 0 .4 0 .1 0 .3-.2.2-.4 0-.1 0-.2-.1-.3v-.2c0-.1 0-.2-.1-.3l.3-.6h.1v.4c.1.1.2.2.3.2.1 0 .2 0 .3.1.1 0 .2.1.3.1.1 0 .2-.1.3-.2 0-.1.1-.2.2-.2s.3-.1.4-.1c.1 0 .2-.1.2-.2 0-.2 0-.4-.1-.6-.1-.2-.4-.3-.6-.1.3.1.2.2.2.2 0 .1 0 .1-.1.2-.2-.1-.3-.4-.6-.4-.1 0-.2.1-.3.1-.2.1-.2.1-.3 0zm7 5.2v.3c.1.2.2.3.4.4h.1c.1-.1.2-.1.4-.2.2 0 .5 0 .6-.2-.1-.2-.2-.5-.3-.7l-.1-.1c-.3 0-.6.2-.9.2h-.1c.1.1 0 .2-.1.3zm.4 1.5c0 .1-.1.1-.1.2-.2.3-.1.4.2.6.1 0 .1.1.2.2 0 0 .1 0 .2.1.1-.1.2-.1.4-.2l.1-.1c.1-.2.1-.3 0-.5l-.6-.3h-.4zm-11.4-5.3c.2.3.4.4.7.5h.3c.1 0 .2-.1.2-.2v-.1c0-.3-.2-.5-.4-.7H13c-.2 0-.4-.1-.5.1-.1.1-.1.2-.2.4zm-1 6.8c.1 0 .3-.1.4-.1l.1-.1c0-.2-.1-.3-.2-.5s-.4-.4-.7-.3c-.2.1-.3.2-.3.3 0 .1 0 .3.1.4.3.1.5.2.6.3zm1.6-.5c0-.2-.1-.3-.1-.4-.2-.2-.2-.2-.4-.3-.2 0-.4.1-.4.3 0 .1.1.2.1.2 0 .1 0 .2.1.3.2.2.2.2.4.3.1 0 .2 0 .3-.1v-.1c-.1-.1 0-.1 0-.2zm7.5-6.6v-.1c0-.1-.1-.3-.1-.4-.1-.2-.2-.3-.4-.2-.1 0-.2.1-.2.2-.1.3-.1.5 0 .7.1.1.2.2.3.2h.1c.1 0 .1-.1.2-.1 0-.2 0-.3.1-.3zm4.4 1.4c.2-.1.3-.2.5-.3v-.3c0-.1-.2-.2-.3-.2-.2 0-.3 0-.5.1-.2.3-.2.3-.2.6 0 .1.1.2.2.2 0-.1.2-.1.3-.1zm-6.7-.2V11c-.1-.2-.3-.3-.5-.3s-.3.1-.3.3v.3c0 .1.2.2.3.1.2.1.3 0 .5-.2zm-6.6 49.1v.4l-.1.1H11c-.1-.1-.1-.2-.2-.3-.1-.1-.3-.1-.5-.1-.1 0-.2 0-.3.1-.1.3 0 .5-.1.8-.1.1-.2.1-.2.1h-.6c-.1 0-.3-.1-.4-.1-.1 0-.2-.1-.2-.2 0-.2-.1-.3-.2-.5V60c.1-.2.2-.5.2-.8.3-.2.6-.3.9-.5.3-.2.7-.4 1.1-.4.2 0 .4 0 .6-.1h.3c.3.1.6.2.9.4.1.1.1.2.2.3 0 .1 0 .2.1.3.1.3.1.7.1 1 0 0 0 .1-.1.1-.3 0-.4-.2-.5-.4v-.1s0-.1-.1-.1c0 0-.1-.1-.2-.1s-.2 0-.3-.1c-.2.1-.4.3-.4.5.1 0 .2.1.4.3z"/>
    <path class="st2" d="M23.6 19.7c0-.2.2-.3.3-.4.1-.1.2-.1.4-.1 0 0 .1 0 .1.1.2.2.5.3.8.3.4 0 .7.1 1 .3.1 0 .1.1.1.1l-.1.1c-.2 0-.5 0-.7-.1h-.2c-.4 0-.7-.1-1.1-.1-.2 0-.4-.1-.6-.2zm-11.4.9c-.3.4-.7.7-1.1 1l-.1-.1v-.1c.2-.2.4-.5.5-.7.1-.2 0-.3 0-.4 0-.1.1-.1.2-.1s.1 0 .2.1l.1.1c.1 0 .1.1.2.2zm-1 29.5c.1 0 0-.1 0 0 .1-.1.1-.2.2-.2 0 0 .1.1 0 .1 0 0 0 .1-.1.1h-.1zM11 14.6s.1 0 0 0l.1.1H11v-.1z"/>
    <path class="st0" d="M25.2 41.4c.4 0 .4 0 .5.1.1.2 0 .4.2.6.2-.2.4-.4.6-.5.2-.1.3-.1.5 0l.1.1c.1 0 .3-.1.4-.2.1-.1 0-.2.1-.3l.1-.1h.4l.2.2h.1c.1-.1.3-.2.5-.3.2-.1.3 0 .3.2v.3c0 .2-.2.3-.3.4-.1.1-.2.2-.3.4 0 0-.1 0-.1.1-.2.1-.4.1-.6 0h-.1c-.1.1-.2.2-.4.3-.1.1-.3.1-.4 0-.1 0-.1-.1-.2-.1-.2 0-.3.2-.4.3H26c-.2-.1-.1-.3-.2-.4 0 0-.1-.1-.2 0-.1 0-.1.1-.1.1-.2.2-.3.4-.3.6 0 .1-.2.2-.3.2h-.2c-.2 0-.3-.2-.2-.3 0-.2.1-.4.2-.5.1-.1.2-.3.3-.4-.2-.5 0-.7.2-.8zM11 25.1v.4l-.1.1c-.1.1-.3.1-.4.2h-.2s-.1 0-.1-.1c-.1-.2 0-.4 0-.5.2-.3.4-.5.5-.7.2-.2.4-.4.5-.7.1-.2-.1-.3-.1-.5 0-.1.1-.1.1-.2s.1-.1.1-.2c0 0 0-.1.1-.2 0-.1 0-.2-.1-.3l.2-.2h.2c.1 0 .1 0 .1-.1s.1-.2.2-.2h.3c.1 0 .1.1.1.1.1.1.1.2.2.3v.2c-.1.1-.2.3-.2.5-.1.2-.2.5-.4.7l-.3.3c-.1.1-.2.3-.3.3-.1.3-.2.5-.4.8zm16.5 21c-.2.4-.6.7-.9.9-.1 0-.1.1-.2.1-.2 0-.3-.1-.4-.1-.2 0-.4 0-.6.1-.1 0-.1-.1-.2-.1l-.1-.1c-.1-.1 0-.3.1-.4.1-.1.2-.2.4-.2h.1c.3-.1.3-.5.5-.5s.3.1.5.2c.3 0 .3-.3.5-.4h.3c.2-.2.5-.4.7-.7.4-.2.4-.2.6-.2.2.3.1.5-.1.9 0 0-.1.1-.2.1-.2.1-.3.3-.4.5l-.1.1c-.3-.1-.4-.2-.5-.2zm.2 2.9c0 .2-.1.3-.1.5s-.1.3-.1.5c0 .1-.1.1-.2.2h-.4c-.1-.1-.1-.2-.1-.3l-.1.1c-.1.1-.2.1-.3.1-.2 0-.3-.1-.5-.2l-.2-.2c-.1-.1-.1-.1-.1-.2s.1-.2.1-.3v-.3c.1-.2.2-.2.3-.3h.1c.2.1.3.1.5.1h.1c.1 0 .2.1.2.2v.8c.1 0 .1-.1.2-.1 0-.2 0-.4.1-.6 0-.1 0-.2.1-.2 0-.1.1-.2.3-.2h.3l.2.2h.1c.1 0 .1-.1.1-.1.1-.1.3-.1.4-.1.1 0 .1.1.2.2v.2c0 .3-.1.7-.2 1 0 .1-.1.1-.2.1-.4-.1-.4-.1-.5-.1l-.2-.2v-.5c.1-.2 0-.2-.1-.3zM10.6 34.3c-.2.2-.4.2-.6.2-.1 0-.2-.1-.3-.2.1-.3.1-.6 0-.9.1-.2.3-.3.4-.4.1 0 .2 0 .2.1l.1.1s.1 0 .1.1l.1-.1h.1c.3-.1.5 0 .6.2v.5c0 .1.1.3.1.4v.6c0 .1-.1.3-.3.3h-.2c-.1-.1-.1-.2-.2-.3v-.4c0-.1 0-.1-.1-.2 0-.1-.1-.2-.1-.4-.1 0-.1 0-.1.1.2.1.2.2.2.3zm0-.7s0-.1 0 0c0-.1 0-.1 0 0-.1 0-.1 0 0 0zM17 50c-.1 0-.1.1-.2.1-.1.2-.3.3-.6.4H16c-.1-.1-.2-.1-.2-.2-.1-.2-.2-.3-.3-.5v-.1c.2-.3.4-.4.7-.2 0 0 .1 0 .1.1.1 0 .2 0 .3-.1.2-.1.4-.2.5-.4.1-.1.3-.2.5-.2.1 0 .3 0 .4.2v.4c0 .1 0 .1-.1.2-.1.2-.3.5-.4.7-.1.1-.1.1-.3.1-.1-.2-.1-.4-.2-.5zM4 54.4c.1-.2.2-.3.3-.5.1-.3-.1-.6-.1-1 .1-.1.1-.2.2-.2.1-.1.2-.1.2 0 .3 0 .4.2.5.3v.5l.1.1h.2c.2 0 .3.1.4.3v.5c0 .2-.1.4-.2.6-.1.2-.2.3-.4.3h-.1l-.1-.1c.1-.5.1-.6.1-1l-.1.1-.3.3h-.5l-.2-.2zm5.1-25.2c-.1-.1-.2-.1-.2-.1-.1-.1-.1-.3 0-.4.1-.1.1-.1.2-.1.1-.1.2-.1.2-.1.1-.1 0-.2 0-.3 0-.1.1-.2.1-.3-.1-.1-.1-.2-.1-.3 0-.1 0-.2.1-.3.4-.1.8-.2 1.2-.2.1 0 .2 0 .2.1s-.1.2-.2.4l-.1.1c-.1.1-.2.1-.3.2-.1 0-.2.1-.3.1v.1s0 .1.1.1.2 0 .2.1c.1.1.2.2.1.3 0 .1-.1.2-.1.3l-.3.3c-.2-.2-.5-.1-.8 0zm10.8 16.2c.1-.2.3-.4.6-.3.1.1.2.1.3.2.1-.1.3-.1.4-.2h.3l.1.1c0 .4-.1.8-.1 1.2-.2.3-.3.3-.7.2-.2 0-.2.2-.3.3-.2 0-.2 0-.3-.1 0 0 0-.1-.1-.1-.1-.2-.1-.5-.2-.7.1-.3.1-.5 0-.6zm4.9-9.2c.2.1.2.2.3.3v.7c-.1.2-.2.3-.4.4-.2 0-.3-.1-.4-.1h-.2c-.2.1-.3.3-.3.5v.1c-.1.1-.2.1-.2.2-.2.1-.4.1-.5 0-.1-.1-.1-.3-.1-.5v-.1c.1-.2.3-.3.4-.4.2-.1.4-.1.5-.2h.3c.1-.2.1-.2.2-.7 0-.2.2-.2.4-.2zm-11 15c-.2-.1-.2-.3-.3-.4V50c.1-.1.2-.1.4-.2.1 0 .1 0 .2.1h.1c.1-.1.2-.2.3-.2.1-.1.2 0 .3 0l.3.3c.1.1.1.2.1.3v.4c-.1.3-.6.5-.8.1v-.4c0-.1 0-.1-.1-.1h-.1c0 .1.1.2.1.3 0 .1.1.2 0 .3-.1 0-.3.2-.5.3zm-2.3-24.6h.3c.1 0 .2.1.2.2v.2c-.1.2 0 .4-.1.6-.1.1-.1.3-.2.5s-.1.3-.1.5c-.1.1-.1.2-.2.3-.1.1-.1.2-.2.3-.1 0-.2 0-.2.1-.1 0-.2-.2-.3-.5 0-.1.1-.1.1-.2.1-.2.2-.4.2-.6.4-.5.4-.9.5-1.4zm12.4 1.9c-.2-.2-.2-.3-.2-.5v-.1c0-.1.1-.3.3-.3h.5c.1-.1.1-.3.1-.4 0-.1.1-.1.1-.2.1-.1.2-.1.4-.1.1 0 .2.1.3.2 0 .4-.1.7-.2 1-.2.2-.4.2-.6.2-.1.1-.2.1-.2.2h-.5zm-9.7.3c-.2.2-.3.3-.4.5-.1.2 0 .4 0 .6v.2c.1.2.1.4.1.6 0 .1-.1.2-.2.3-.1 0-.2-.1-.3-.1 0-.1-.1-.2-.1-.3-.1-.2-.2-.5-.2-.7 0-.2.1-.5.1-.7 0-.1 0-.1.1-.2l.1-.1c.2 0 .3-.1.5-.1.1-.1.2-.1.3 0zm.9 16.8c.2.2.2.4.4.6.1 0 .2.1.3.1l.1.1v.4c0 .1-.1.3-.2.3 0 0-.1 0-.1.1h-.5c-.1 0-.2-.1-.3-.2 0-.1 0-.1-.1-.2 0-.1.1-.2.1-.2 0-.1-.1-.2-.2-.4 0-.1-.1-.2-.2-.2-.1-.1 0-.3.2-.4.1-.1.2-.1.5 0zm-.7-16.4.1-.1h.5c.1 0 .1.1.1.2-.1.3-.1.7-.1 1.1v.6c0 .2-.1.3-.3.4h-.1c0-.1-.1-.1-.2-.2v-.5c0-.2 0-.5-.1-.7v-.2c0-.2 0-.4.1-.6zm8.5-6.5c.1.2.3.3.5.3.1 0 .3.1.4.2.1 0 .1.1.1.2 0 .2-.2.4-.4.4h-.4c-.4-.1-.7-.2-.9-.6 0-.1-.1-.2-.1-.3.1-.1.3-.2.5-.2h.3zm-6.8 8.9c-.1.2-.1.3-.2.4-.3.1-.4.1-.5-.2v-.5c0-.2-.1-.3-.1-.4v-.3c0-.1 0-.2-.1-.3 0-.1.1-.2.1-.3.1-.1.3-.2.4-.2.1 0 .2.1.2.2v.2c0 .1 0 .1-.1.2.2.4.3.8.3 1.2zm10.4-1.4v-.3l.2-.2c.1-.1 0-.3 0-.4 0-.1-.1-.3-.1-.4 0-.1 0-.1-.1-.2 0-.1.1-.3.3-.3h.4c0 .1.1.1.1.1.2.3.2.7.2 1.1 0 .3-.1.5-.3.7-.1.1-.3.1-.4.1-.2-.1-.2-.1-.3-.2zm-9.6 2.5h-.2c-.1 0-.2-.1-.3-.1-.1 0-.1-.1-.1-.2s.1-.1.1-.2l.1-.1c.1-.3-.2-.6-.2-.9 0-.1.1-.2.1-.3.1-.2.4-.2.5 0l.1.1c.2.3.3.6.2 1 0 .1 0 .2-.1.2 0 .2-.1.4-.2.5zm2.7 14.5s-.1.1-.2.1-.2-.1-.3-.1c0-.1-.1-.2-.1-.3 0-.2-.1-.4-.2-.6l-.3-.6v-.1c.1-.2.1-.3.5-.2 0 0 .1 0 .1.1.2.3.5.7.7 1 .1.1.1.2 0 .3-.1.1-.1.2-.2.4zm6.1-18.3c.1 0 .1.1.1.1.2.3.3.7.3 1.2 0 .1-.1.2-.1.4-.1.1-.2.1-.3.1-.2 0-.4-.2-.3-.5 0-.1.1-.2.1-.3 0-.1-.1-.2-.2-.3-.1-.1-.1-.2-.2-.2-.1-.2.1-.4.2-.4.2-.1.3-.1.4-.1zM9.6 37.8c.1 0 .2 0 .4.1 0 .1.1.3.2.4.1.4 0 .7-.2 1.1l-.3.3c-.1.1-.2.1-.3 0-.1-.1-.2-.2-.2-.3 0-.1.1-.2.1-.3 0-.1.1-.2.1-.2v-.3c0-.1-.1-.2-.1-.3 0-.2 0-.3.2-.4 0-.1.1-.1.1-.1zm2.4 1.4c-.1-.3-.2-.5-.2-.8v-.3c0-.1.1-.1.1-.1h.3c.2 0 .3.1.3.3v.2c0 .2.1.4.1.6.1.2-.1.5-.2.6-.1.1-.2.1-.4.1s-.2-.2-.2-.3c.1 0 .1-.1.2-.3zm-1.1.1v-.1c.1-.2.1-.3.1-.5 0-.1-.1-.2-.1-.3v-.3c0-.1.1-.3.2-.3.1-.1.3 0 .4.1 0 0 0 .1.1.1v.4c0 .1.1.2.1.4-.1.2-.1.5-.1.7 0 .1-.1.2-.3.3-.2-.2-.4-.2-.4-.5zm.1 7.4c0-.2-.1-.3-.2-.4-.1-.1-.1-.2-.2-.4 0-.1.1-.2.2-.2h.4l.3.3c0 .1.1.3.2.5.1.3 0 .6-.2.8h-.1c-.2 0-.3-.1-.4-.2-.1-.1-.1-.1-.1-.2 0 0 0-.1.1-.2zm2.5-6.9c-.1 0-.2.1-.2.1-.2 0-.3-.1-.4-.3V39c0-.2.1-.4.1-.6.1-.2.3-.3.6-.4h.2c.1 0 .1.1.1.2v.1c-.1.2-.1.3-.2.5s-.1.4-.1.6c-.1.1-.1.2-.1.4zm-1.3-6.2h.3c.1 0 .2.1.3.2.1.2.2.4.3.7.1.1.2.1.2.2v.1c-.1.1-.1.2-.1.3-.1.1-.3.1-.4.1 0 0-.1 0-.1-.1-.2-.2-.5-.4-.7-.7-.1-.2-.1-.3 0-.5s.2-.2.2-.3zm15.1 2.7c-.1.1-.2.1-.3.2-.1 0-.3 0-.4-.1-.1-.1-.2-.2-.3-.4l.1-.1c.1 0 .1-.1.1-.1v-.6c.1-.2.3-.2.5-.2s.4.1.4.3v.6c0 .1-.1.3-.1.4zM13 29.2c-.1.2-.2.3-.3.4 0 0-.2.1-.2 0-.1-.1-.2-.1-.3-.3V29c.1-.2.1-.5.1-.7 0-.2.1-.3.3-.4.1 0 .2-.1.3-.1.1 0 .3.1.2.3v.1c-.1.4-.1.7-.1 1zm6.8 7.8v.5c-.1.3-.3.4-.4.7-.1 0-.3.1-.4.1-.2 0-.3-.1-.3-.1-.1-.1-.1-.2 0-.3.1-.2.2-.2.3-.4v-.4l.1-.1c.1-.1.1-.1.2-.1.2 0 .3.1.5.1zm-8.7-10.4c-.3.1-.5.1-.8.1h-.7c-.2 0-.4-.3-.3-.5 0 0 0-.1.1-.1s.3-.1.4-.1H11c.2.1.3.2.2.4-.1.1-.1.1-.1.2zm3.2 19.6c0 .1 0 .2-.1.2 0 .1 0 .2.1.2 0 .1-.1.2-.1.2l-.2.2h-.4c-.2 0-.3-.2-.2-.4 0 0 0-.1.1-.1v-.1s0-.1-.1-.1c-.1-.1-.2-.2-.2-.3-.1-.2 0-.4.2-.4.2-.1.4 0 .5.1.2 0 .3.2.4.5zM3.6 53.4c-.3.1-.5-.1-.6-.2-.1 0-.1-.1-.1-.2 0 0 0-.1.1-.1.1-.2.2-.4.2-.7v-.1c0-.1.1-.1.1-.1.2-.1.5-.1.6.1 0 .1 0 .1.1.2-.1.4-.3.7-.4 1.1zm19.9-23.6c.1.2.2.4.3.5.1.1.1.3.1.4 0 .1 0 .2-.1.3-.1.1-.1.1-.2.1h-.2c-.2-.1-.4-.3-.4-.5 0-.1-.1-.3-.1-.4 0-.1 0-.2.1-.3 0 0 .1 0 .1-.1.1-.1.2-.1.4 0zm-4.6-5.9c.1-.1.3-.2.4-.2.1 0 .2.1.2.1 0 .1.1.2.1.3v.5c0 .1-.1.3-.1.4-.1.1-.2.1-.3.2H19l-.1-.1v-.9c-.1-.1 0-.2 0-.3zm2.6 7.7c0-.1-.1-.2-.1-.2v-.1c.1-.2.1-.5.3-.8.1-.2.1-.2.4-.3.1 0 .2.1.3.2.1.1.1.3 0 .4-.1.2-.2.5-.3.7-.1.1-.3.2-.6.1zm-9.4 15c-.1-.1-.1-.2-.1-.3 0-.1 0-.3.1-.4.1-.1.2-.1.3-.1.1 0 .2 0 .2.1.1.2.2.4.2.5v.6c0 .1-.1.2-.2.2-.2 0-.4 0-.5-.1v-.5zm.4-4.4c0 .1.1.3.1.4v.1s0 .1-.1.1H12c-.2 0-.4-.1-.6-.1-.4-.1-.4-.4-.2-.6.1-.1.1-.1.2-.1h.1c.4.1.7 0 1 .2zm9.4-17.8c-.1.1-.3.1-.4 0 0-.1-.1-.3-.2-.4 0-.1 0-.1.1-.2 0-.1 0-.1-.1-.2-.2-.1-.2-.3 0-.5.1-.1.2-.1.4-.2.1 0 .3 0 .3.2 0 .1 0 .1.1.2 0 .2.1.3.1.5-.1.2-.1.5-.3.6zm3.4 11.9c-.1-.2-.1-.4-.2-.6 0-.1.1-.2.2-.2.1-.1.2 0 .3 0 .1 0 .3.1.4.2.1.1.1.2.2.3 0 .2-.1.3-.1.5 0 .1-.1.1-.1.2l-.1.1c-.1.1-.3.1-.5 0s-.2-.2-.1-.5c0 .1 0 0 0 0zM12 54.9c0-.1.1-.2.1-.3 0-.1-.1-.3-.1-.4 0-.1.2-.2.3-.3.1-.1.2 0 .3 0 .1 0 .1.1.2.1s.1.1.1.2v.7c-.1.2-.1.3-.2.4-.1.1-.3 0-.4 0l-.1-.1c-.2 0-.2-.2-.2-.3zm6.9-27.2c0 .3 0 .7-.1 1 0 .1-.1.1-.2.1-.2 0-.3-.1-.5-.1l-.1-.1v-.9c0-.1.2-.2.3-.2.1 0 .1 0 .2.1.2 0 .3 0 .4.1zm6 3c-.2 0-.4 0-.5-.1-.1-.3-.2-.5-.3-.8 0-.1 0-.2.1-.3.1-.2.5-.1.6 0 .2.2.3.5.4.7-.1.3-.1.4-.3.5zM21.1 24c-.1.2-.2.4-.3.5h-.1c-.1 0-.3-.1-.4-.1-.1-.3-.2-.5-.3-.8v-.2c0-.1.1-.2.2-.2.2-.1.3 0 .5.1l.2.2c0 .3.1.4.2.5zm7.4 5.3-.3.3c-.1-.1-.3-.1-.5-.2V29c0-.1-.1-.2-.1-.3 0-.2 0-.3.1-.4h.4c.2.1.3.3.4.5v.5zM5.6 42.2h.3c.2 0 .3.1.3.3 0 .2 0 .4.1.6 0 .2-.1.3-.1.5-.1 0-.1.1-.2.1-.2 0-.2-.1-.3-.2l-.3-.9c-.1-.1 0-.3.2-.4zm17.3 4-.3.3c-.1.1-.1.1-.2.1s-.2 0-.2-.1v-.1c0-.2-.1-.3-.2-.5 0-.2.1-.3.2-.4.1-.1.2-.1.3-.2.1-.1.3 0 .4 0 .1 0 .2.1.2.2v.2c-.2.2-.2.4-.2.5zm-3.5-17.6c.1-.1.2-.2.2-.3 0-.3-.1-.5-.1-.7.1-.1.1-.1.2-.1s.3 0 .4.1l.1.1c0 .2.1.5 0 .7 0 .2-.2.3-.3.3-.1.1-.3 0-.5-.1zm-8 26.2c-.2 0-.3 0-.5-.1-.1-.2-.1-.4-.1-.5v-.3c0-.1 0-.1.1-.1.2-.1.4-.2.6 0 .1.2.2.5.2.8-.1 0-.2.1-.3.2zm3 1.1c-.1.2-.3.3-.5.3-.1 0-.2-.1-.2-.1-.1-.2-.1-.4-.1-.6 0-.2.1-.3.2-.4h.2c.3 0 .4.1.4.3v.5zm11.3-3.6c.1-.1.1-.2.1-.3.1-.1.3 0 .4 0 .1 0 .1.1.1.2v.2c.1.1.1.2.2.2 0 .1-.1.3 0 .4-.1.1-.2.2-.4.1.1-.1-.1-.1-.1-.1-.2-.2-.3-.4-.3-.7zm-1.6-29.6c0-.2.1-.3.2-.3h.2c.2 0 .4 0 .5.1.2.1.2.3.2.5 0 0 0 .1-.1.1s-.1.1-.2.1c-.2.1-.5.1-.7-.1 0-.1-.1-.2-.1-.4zm-18 33.2c-.1 0-.2-.1-.2-.2s.1-.2.1-.3c0-.2-.1-.3-.1-.4 0-.1 0-.2.1-.3l.1-.1c.1-.1.3-.1.4 0 .1 0 .1.1.1.2v.7c0 .1-.1.1-.1.2-.2.1-.3.1-.4.2zm12.5-14.5.1-.1c.3-.1.5-.1.7.3 0 .2-.1.3-.1.5 0 .1-.1.2-.2.3 0 .1-.2.1-.2 0-.1-.1-.2-.1-.3-.2v-.8zM17 46.2c-.1.2-.1.4-.3.5-.2 0-.3-.1-.5-.2-.1-.1-.2-.3-.3-.5 0-.1.1-.2.1-.3.1-.1.2-.1.4-.1.1 0 .1 0 .2.1.2.2.3.3.4.5zm2.2-13.9c-.1-.1-.2-.1-.3-.2-.1-.1-.1-.2-.1-.4 0 0 0-.1.1-.1.1-.1.2-.2.3-.2.3 0 .5.2.6.3v.2c0 .1 0 .3-.2.3-.1.1-.2.1-.4.1zM6.3 57.1l-.3-.3s-.1-.1-.1-.2v-.2c.1-.1.3-.2.5-.2.2.1.3.3.5.4.1.2.2.3.1.4-.1.1-.2.2-.3.2-.1 0-.2 0-.4-.1zm8.8-17.9c-.1.1-.2.2-.3.2-.2.1-.4 0-.3-.2v-.6c0-.1.1-.3.2-.3h.5c.1.1.1.2.1.3-.2.3-.2.4-.2.6zm10.6-12.6c0-.1 0-.2.1-.3 0-.1.1-.1.1-.2.2-.1.6-.1.7.2v.1c0 .2-.1.3-.2.5l-.1.1c-.1.1-.3.1-.4 0-.1-.1-.2-.2-.2-.4zm-8.6 13.8c-.2 0-.4-.1-.6-.1-.1 0-.1-.1-.2-.1 0-.2.1-.3.2-.5.2-.1.3-.2.5-.2l.1.1c.1.2.1.3.1.5.2.1.1.2-.1.3zm.6 12.2h-.2c-.2-.1-.3-.2-.5-.3v-.1c0-.1.1-.2.1-.3 0-.1.1-.1.2-.1h.3c.1 0 .2 0 .2.1.1.1.1.2.2.3-.2.3-.2.3-.3.4zm-8.3 1.2c0-.1.1-.2.2-.2h.2c.1 0 .3.1.4.2 0 .1.1.2.1.3 0 .2-.1.2-.2.3-.1.1-.1.1-.2.1s-.2 0-.3-.1c0-.2-.1-.4-.2-.6zm4.2 3.1c.2-.2.4-.1.5-.3h.1c.1.1.2.1.3.2.1.2.1.3 0 .5-.1.1-.2.2-.3.2-.2 0-.3-.1-.5-.2-.2-.2-.2-.3-.1-.4zm8.3-8.5c-.1.1-.1.2-.1.3-.1.2-.3.3-.5.1-.2-.1-.3-.3-.2-.5 0-.1.1-.2.2-.2.2 0 .3 0 .4.1 0 .1.1.2.2.2zm1.7-40.1c-.1 0-.2-.1-.2-.1-.1 0-.1-.1-.2-.2-.1-.2-.1-.5-.2-.7-.1 0-.1-.1-.2-.1-.3 0-.5 0-.8.2h-.4c-.1-.1-.2-.2-.3-.2-.1-.1-.1-.2-.1-.3 0-.1.1-.3.1-.4.3-.2.5-.4.6-.8.1-.2.2-.4.2-.6 0-.1.1-.2.1-.3.1-.2.3-.5.4-.7.1-.1.2-.3.3-.4.1-.1.2-.3.3-.4.1-.1.3-.2.4-.3.3-.1.6-.1.8.2.2.5.2 1.1 0 1.7.1.2 0 .5.1.7v.8c0 .4-.1.7-.2 1-.1.1-.2.3-.2.4-.1.1-.1.3-.1.4 0 0-.2 0-.4.1zm.1-1.3s.1 0 .1-.1c.2-.2.3-.5.2-.8-.1-.3-.1-.6-.1-1 0-.3 0-.7.1-1v-.2s0-.1-.1-.1h-.1s-.1 0-.1.1c-.2.2-.4.5-.5.7 0 0 0 .1-.1.1-.1.3-.2.5-.4.8-.1.3-.2.5-.4.8v.1s0 .1.1.1c.2.1.3 0 .5 0 .1 0 .2.1.3.1.2.1.3.2.4.3 0 .1.1.1.1.1zm-6 10.3c.2 0 .3-.2.4-.4v-.3c.1-.2.2-.3.3-.4h.1c.1.1.2.1.4.2.1.1.2.2.1.4s-.2.5-.3.7c-.2.2-.3.5-.6.6 0 .1.1.1.1.1.1 0 .2.1.2.2.1.2.2.4.2.6.1.1.3.2.4.2.3 0 .4-.3.5-.5.1-.1.2-.1.3-.1.2-.1.4 0 .5.2.1.1 0 .3 0 .4l-.1.1c-.2.1-.4.2-.6.4-.1.1-.2.1-.3.2h-.7c-.3-.1-.5-.3-.6-.5l-.1-.1h-.2c-.1.1-.1.3-.2.4-.1.1-.2.2-.2.4-.2.1-.4.3-.6.4-.2.1-.4.2-.7.1-.4-.3-.4-.3-.5-.5l.3-.3h.6c.2-.1.3-.2.4-.4 0-.1.1-.1.1-.2 0-.3.1-.7 0-1.1 0 0-.1-.1-.2-.1-.1-.1-.2-.2-.3-.2l-.3-.6c-.1-.2-.2-.3-.3-.5 0-.2 0-.3.2-.4.1-.1.2-.1.3-.1 0 0 .1 0 .2.1l.3.3c.1.2.2.4.2.6.3-.1.5.1.7.1zm-2.9-6.1c.2.1.4.2.7.3.4.2.6.5.8.8.1.2.1.3.1.5s-.1.3-.1.5c0 .1-.1.2-.1.3 0 .1-.1.1-.1.2-.1.3-.3.5-.5.7-.1.1-.2.2-.3.4-.3.2-.7.3-1 .3-.1 0-.1 0-.2-.1s-.3-.2-.5-.2l-.6-.3c-.1-.1-.2-.2-.3-.2-.2-.3-.3-.6-.2-1v-.1c0-.4.1-.7.2-1.1.1-.3.3-.6.7-.7.1 0 .1-.1.2-.1.2-.1.4-.2.6-.2h.6zm-1.2 1c-.2.3-.4.6-.5.9 0 .1.1.3.1.5v.3c.2.2.2.2.6.4h1c.2-.2.4-.4.5-.6.1-.3.2-.5.3-.8-.1-.1-.2-.3-.3-.4-.1-.1-.2-.1-.3-.2-.1-.1-.2-.1-.3-.2-.4-.1-.8-.1-1.1.1zm8 2c-.1.1-.2.2-.4.2-.3.2-.7.2-1 .1-.1 0-.2-.1-.3-.1-.1-.1-.3-.2-.4-.3-.4-.2-.5-.5-.6-.9 0-.4-.1-.8-.1-1.2 0-.1.1-.3.1-.5l.6-.6c.1-.1.2-.2.3-.2.4-.1.8-.3 1.2-.1.1 0 .2 0 .3.1.2.1.3.2.5.3l.5.5c0 .1 0 .1.1.2.1.4.1.8-.1 1.1-.1.3-.2.6-.4.8-.1.1-.1.2-.2.3.1.1 0 .2-.1.3zm.1-2.3-.2-.2c-.3-.3-.7-.3-1-.4h-.2c-.3.1-.6.3-.7.6v.6c.1.2.1.5.1.7 0 .1.1.2.2.2.3 0 .5.1.8.3h.2c.4-.3.7-.7.9-1.2V12l-.1-.1zM10.2 4.7c.2.1.4.2.5.4.1.1.2.3.4.4.1.1.3.2.4.4 0 .1.1.1.2.2.2.2.4.4.5.6 0 .1.1.1.1.2.1.2.2.5.3.7v.2c-.1.2-.2.4-.5.4-.1 0-.2 0-.3.1l-.2.2c0 .1 0 .2-.1.3 0 .1-.1.1-.2.2-.2.1-.5.2-.8.1l-.1-.1c0-.2-.2-.4-.2-.7 0-.2-.1-.3-.2-.4-.2-.1-.2-.2-.3-.3-.1-.3-.1-.5-.2-.7-.2-.5-.2-1-.1-1.5 0-.1.1-.2.1-.4l.1-.1c.2-.2.2-.2.6-.2zm.5 3.2h.2c.1-.2.3-.3.5-.3.1-.1 0-.2 0-.3-.1-.1-.2-.2-.2-.3-.1-.2-.6-.7-.9-.8h-.2l-.1.1c.3.8.2.6.7 1.6zm5.6 1s.1.1.2.1.3-.1.3-.1c.3 0 .4.2.6.4.1 0 .1-.1.1-.2s.1-.1.1-.2c.2-.2.5-.1.6.1.1.2.1.4.1.6 0 .1-.1.2-.2.2-.1.1-.3.1-.4.1-.1 0-.1.1-.2.2s-.2.1-.3.2c-.1 0-.2-.1-.3-.1-.1-.1-.2-.1-.3-.1-.1 0-.2-.1-.3-.2v-.4h-.1c-.1.1-.2.3-.3.5 0 .1 0 .2.1.3v.2c0 .1.1.2.1.3 0 .2-.1.3-.2.4-.1 0-.3.1-.4 0-.1-.1-.1-.3-.2-.4-.3-.1-.3-.2-.3-.3v-.2c0-.2 0-.3.2-.4.1 0 .1-.1.2-.1 0-.2 0-.3-.1-.5 0-.1.1-.2.1-.3v-.1c.1-.3.2-.6.2-.9 0-.1.1-.2.3-.3.2 0 .4 0 .6.2.1.1.1.1.1.2v.1c-.2.3-.2.5-.3.7zm2-1.1c.2-.1.4 0 .6 0 .1 0 .2-.1.3-.1h.2c.2 0 .3.1.3.3v.9c0 .1-.1.2-.1.3-.1.1-.2.2-.4.2l-.1-.1-.1-.1c-.2 0-.3 0-.3-.1-.1 0-.2-.1-.2-.2 0-.2-.1-.4-.2-.5v-.1c-.1-.2 0-.3 0-.5.1 0 0 0 0 0zm5 6.3c.1-.1.1-.2.2-.2h.1c.3 0 .6-.2.9-.2l.1.1c.1.2.2.5.3.7-.1.3-.4.2-.6.2-.1.1-.2.1-.4.2h-.1c-.2-.1-.3-.2-.4-.4-.1-.2-.1-.3-.1-.4zm.4 1.5c.1 0 .2 0 .3-.1l.6.3c.2.2.1.4 0 .5l-.1.1c-.1.1-.2.1-.4.2-.1 0-.1 0-.2-.1-.1 0-.1-.1-.2-.2-.3-.2-.3-.3-.2-.6.1.1.1 0 .2-.1zm-11.4-5.3c.1-.2.1-.3.2-.4.2-.1.3-.1.5-.1h.1c.2.2.4.4.4.7v.1c0 .1-.1.2-.2.2H13c-.2-.1-.5-.2-.7-.5zm-1 6.8c-.2-.1-.3-.1-.5-.2-.1-.1-.1-.3-.1-.4 0-.2.2-.3.3-.3.3-.1.5 0 .7.3.1.1.1.3.2.5 0 0 0 .1-.1.1-.2-.1-.3-.1-.5 0zm1.6-.5c0 .1 0 .2-.1.3v.1h-.3c-.1 0-.2 0-.4-.3 0-.1 0-.2-.1-.3 0-.1-.1-.2-.1-.2.1-.2.2-.3.4-.3s.2 0 .4.3c.1 0 .1.2.2.4zm7.5-6.6c0 .1-.1.2-.1.3-.1 0-.1.1-.2.1H20c-.1 0-.3-.1-.3-.2-.1-.3-.1-.4 0-.7.1-.1.2-.1.2-.2.2-.1.4 0 .4.2 0 .1.1.3.1.4v.1zm4.4 1.4h-.3c-.1 0-.2-.1-.2-.2l.2-.6c.1-.1.3-.1.5-.1.1 0 .3.1.3.2v.3c-.2.3-.3.3-.5.4z"/>
    <path class="st0" d="M18.4 7.8h-.7c-.1 0-.2-.1-.3-.2 0-.1 0-.2.1-.3l.2-.2c.1 0 .2-.1.3 0 .1 0 .2.1.3.1.1.1.1.1.1.2v.4zm-.3 3.4c-.2.2-.3.2-.5.3-.1 0-.2 0-.3-.1 0-.1-.1-.2 0-.3 0-.2.1-.3.3-.3.2 0 .4.1.5.3v.1z"/>
    <path class="st2" d="M10.6 33.6c-.1 0-.1 0 0 0 0-.1 0-.1 0 0 0-.1 0 0 0 0z"/>
    <path class="st3" d="M23.7 7s-.1 0-.1-.1c-.1-.2-.2-.3-.4-.3-.1 0-.2-.1-.3-.1-.2 0-.3.1-.5 0 0 0-.1 0-.1-.1v-.1c.2-.2.3-.5.4-.8.1-.3.3-.5.4-.8 0 0 0-.1.1-.1.2-.2.3-.5.5-.7l.1-.1h.1s.1 0 .1.1v.2c-.1.3-.1.7-.1 1 0 .3.1.7.1 1 0 .3 0 .6-.2.8 0 .1 0 .1-.1.1z"/>
    <path class="st2" d="M13.6 12.2c.3-.2.7-.2 1-.1.1 0 .2.1.3.2.1.1.2.1.3.2.1.1.2.3.3.4 0 .3-.1.6-.3.8-.1.2-.3.5-.5.6h-1c-.4-.2-.4-.2-.6-.4v-.3c0-.2 0-.3-.1-.5.1-.4.4-.7.6-.9zm0 1.3c.1.2 0 .3.1.5.1.1.2.1.3.1.3 0 .5-.1.7-.4v-.4c-.1-.1-.2-.3-.4-.3-.1-.1-.3 0-.4 0-.2.1-.2.3-.3.5zm8.1-1.6v.7c-.2.4-.5.9-.9 1.2h-.2c-.2-.2-.5-.3-.8-.3-.1 0-.2-.1-.2-.2 0-.3 0-.5-.1-.7V12c.1-.4.4-.5.7-.6h.2c.4 0 .8.1 1 .4.2-.1.3 0 .3.1zm-.6.9v-.3c0-.1 0-.1-.1-.2s-.2-.3-.4-.3c-.1-.1-.4 0-.5.1-.2.2-.3.3-.1.6 0 .1.1.2.1.3.1 0 .1.1.2.1h.5l.3-.3z"/>
    <path class="st3" d="M10.7 7.9c-.5-1-.4-.8-.6-1.8 0 0 0-.1.1-.1h.2c.3.2.8.6.9.8.1.1.2.2.2.3.1.1.1.2 0 .3-.2.1-.4.2-.5.3-.2.2-.2.2-.3.2z"/>
    <path class="st0" d="M13.6 13.5c.1-.2.1-.3.3-.4.1-.1.3-.1.4 0 .2.1.3.2.4.3.1.1.1.2 0 .4-.1.3-.4.4-.7.4-.1 0-.2-.1-.3-.1-.1-.3 0-.5-.1-.6zm7.5-.7c-.1.1-.2.2-.4.3h-.5s-.1-.1-.2-.1c0-.1-.1-.2-.1-.3-.2-.3-.1-.4.1-.6.1-.1.3-.2.5-.1s.3.2.4.3c0 0 .1.1.1.2.2.1.1.2.1.3z"/>
</svg>
