<svg xmlns="http://www.w3.org/2000/svg" width="126.6" height="248.9" style="overflow:visible;enable-background:new 0 0 126.6 248.9" xml:space="preserve">
    <style>
        .st0{fill:#7a6a56}.st1{fill:#eddcab}.st2{fill:#fff}.st3{fill:#e7d9e0}
    </style>
    <path class="st0" d="M34.6 35.7c-.3-1.2-.5-2.3-.9-3.4-.5-1.6-.9-3.3-.9-5 0-.8-.5-1.5-.3-2.3-.3-1.8-.1-3.5-.2-5.3 0-.4 0-.8.1-1.1.2-.7.2-1.4.3-2 .1-.7.2-1.4.3-2.2.2-.2.4-.5.6-.8.7-1.2 1.7-2 3.1-2.5.4-.1.7-.3 1.2-.5.9.1 1.8.5 2.8.6 1 .1 1.9.5 2.5 1.3.7.8 1.6 1.6 2.5 2.1.2.1.4.3.5.5 1 1.2 2 2.4 2.9 3.7.3.4.6.9 1 1.3 1.2 1.3 2.4 2.5 3.3 4l1.2.6c.4.2.7.3 1 .5.3.3.5.6.8.9.4.3 1.2.3 1.5-.1.1-.1.2-.2.3-.4.4-1.2 1.4-1.8 2.7-2.1.2-.1.5-.2.7-.2.3-.1.6 0 .9.1.2.1.4.3.6.4l.6.3 1.5-1.2c1-.8 2-.9 3.2-.4.2.1.4.2.7.3.6.5.9 1.3 1.7 1.6.7-.7 1.5-1.4 2.1-2 .7-.2 1.2-.1 1.8.1.6.2 1.2.5 1.7.9.4.3.6.9 1.2 1.1.1-.1.3-.2.4-.3.2-.3.4-.7.7-1 1.1-1.2 1.8-2.7 2.4-4.2.3-.6.6-1.3.9-1.9.7-1.1 1.3-2.3 1.9-3.5.2-.3.4-.7.6-1 .2-.3.4-.6.6-1C87.4 7.7 87.7 7.9 90 5c.2-.2.5-.5.6-.7.7-1.1 1.7-1.8 2.8-2.6.2-.1.4-.3.6-.4 1-.2 1.6-.9 2.3-1.3.5.1 1 .1 1.5.1H99c.4.3.8.5 1.2.9.2 0 .6.1.9.1.7.1 1.4.4 1.9.9l.3.3c1.2 1 1.7 2.4 1.9 3.9.1.9.3 1.8.4 2.7.1.5.1 1.1.1 1.6 0 .6-.4 1.2-.2 1.8.2.6 0 1.2 0 1.8 0 .5 0 1.1-.1 1.6-.1.6-.2 1.2 0 1.8.1.2 0 .5 0 .7-.1.6-.1 1.2 0 1.8.2.8.3 1.5 0 2.3-.1.3-.1.6-.1.9.2 1.6-.2 3.2-.2 4.9-.3.5-.6 1.1-.9 1.7 0 .3-.1.7-.1 1.1-.3.6-.6 1.2-.9 1.9-.3.6-.6 1.3-.8 1.9 0 .8.6 1.3.7 2 .1.6.4 1.2.5 1.8.1.7.1 1.4.2 1.9.4 1.1 1.3 1.5 2 2.3.5.7 1 1.6 1.2 2.6-.5 2.2-.5 2.2-1.7 3.8.3.8.3 1.6.7 2.4.3.6.2 1.2-.1 1.8-.2.4-.5.8-.9 1.1-.2.1-.3.4-.4.6.3.7.6 1.5.8 2.2.1.1.1.3.3.4.8.6.8 1.5 1.3 2.1-.2.4-.4.6-.5.8-.7.4-1.3.7-1.9 1-.5.5-.6 1-.4 1.5.2.5.3 1 .1 1.6-.1.3 0 .8 0 1.1.2.1.3.2.4.2 1.4-.3 2.8-.6 4.2-1.1 2.1-.7 4.2-1.2 6.4-1.2.4 0 .8 0 1.2-.1 1.5-.4 3-.3 4.6-.2.2.1.4.2.6.4.5.4.4 1.2-.1 1.7-.8.7-1.7.8-2.7.6-.3-.1-.6-.2-.8-.3-1.3.2-2.5.3-3.7.5-.3 0-.6.2-.9.2-1 .2-2 .6-3.1.6-.4 0-.8.2-1.2.3-.9.2-1.6.7-2.5.7-.2 0-.3.1-.4.2-1.2.8-2.6 1.1-4 1.5-.4.1-.8.2-1.1.5-.3.2-.4.5-.3.8.1.1.3.2.4.3 1.3 0 2.7-.1 4.1-.1h.5c1.6-.5 3.3-.3 5-.4.5 0 1-.1 1.4-.2.5-.1.9-.2 1.4-.2 1.3 0 2.6.1 3.9.1.5 0 1 0 1.4-.1.9 0 1.8.2 2.5.6.3.1.5.4.7.6.1.1.1.3.1.4 0 .2-.2.4-.4.5-.6.2-1.3.2-1.9.1-1.4 0-2.7-.1-4.1 0-1 0-1.9 0-2.9.3-.4.1-.8.1-1.2.1-.8 0-1.6.1-2.4.3-.8.2-1.6.2-2.4.2h-2.4c-.3 0-.7 0-1 .1-1.1.3-2.2.4-3.2.4-.7.5-1.3.9-1.5 1.7.7.7 1.8 1 2.5 1.6 1 0 1.8.1 2.6.1 1.2.6 2.2 1.5 3.4 1.9.3.1.5.4.7.6.4.6 1 1 1.8 1.2.2 0 .3.1.5.2 2.4.6 4.7 1.4 7 2.4.4.2.7.4 1.1.4.9.1 1.7.5 2.6.6.9.1 1.5.5 2.1 1.1.1.2.2.4.2.6 0 .2-.3.4-.4.5h-1.9c-1.1-.3-2-.8-3.1-.9-.2 0-.3-.1-.4-.2-2-1-4.2-1.4-6.4-2.1h-.5c-.2.2-.4.3-.3.6 0 .2 0 .5.1.7.5 1 1.1 2.1 1.9 2.9.8.8 1.4 1.7 2.1 2.5.3.4.6.9.7 1.4.4 1.3 1 2.5 2 3.4.2.2.4.5.6.8.4.3.9.6 1.4.9.3.6.6 1.3 1 2-.1 1.1-.1 2.2-.3 3.2-.1 1 .3 1.8 1.1 2.5.4.4.9.7 1.3 1 .4.3.6.7.5 1.3-.5.9-1.4 1.5-2.2 2-.1.4.1.5.4.5.5 0 .9-.1 1.4-.2.6-.1 1.1.1 1.5.6.1.1.2.3.3.5l-.3 1.2c-.4.5-1.1.6-1.3 1.2 0 .2 0 .4.1.6.1.2.1.4.2.7-.1.2-.1.4-.2.6-.4.6-.5 1.3-.3 2 .1.5.2 1.1.3 1.6-.2.4-.5.8-.7 1.2-.1.4-.1.8-.2 1.1-.4.6-1.1 1-1.1 1.8.1.6.8.7 1.1 1.2.3.5.5 1 .7 1.4-.2.6-.4 1.1-.6 1.6-.2.4-.4.9-.5 1.3-.1.4-.1.9-.1 1.4-.2.5-.5 1-.7 1.5.2.9 1.2 1 1.5 1.6.6 1 0 1.8-.3 2.6 0 .3 0 .5.1.7.5 1.2.5 2.4.2 3.6-.1.5-.2 1.1-.3 1.6-.1.4-.3.9-.5 1.3.3 2.1 1.2 4 1.2 6.3 0 .1-.2.4-.2.7 0 1.2-.3 2.3-.6 3.4-.3 1-.3 2-.3 3 0 2.3-.1 4.6-.1 7-.3 1.4-.4 2.9-1.3 4.2-.4.6-.6 1.3-.8 1.9 0 .2.1.3.1.5.1 1 .6 1.9.6 3 0 1 .1 2 .2 3 .1.8.1 1.7.2 2.8-.3 1.2-.6 2.6-1.2 4-.1.3-.2.6-.4.9-.6.9-.7 1.9-1 2.8-.1.4-.1.8 0 1.1.2.8.5 1.6.8 2.7 0 .6.1 1.4.1 2.3 0 1.2 0 2.3-.1 3.5-.2 1.1-.6 2.1-.9 3.1-.2.6-.3 1.2-.4 1.8-.1.5-.2.9-.4 1.5.6 2.2 1.1 4.5 1.4 6.9 0 .3.2.6.2.9 0 .2.1.5.1.7-.4.9.3 1.8-.1 2.7-.3.7-.2 1.4-.2 2-.2.8-.5 1.5-.7 2.2-.3 1.2-.4 2.5 0 3.7.2.5-.1.9 0 1.4.1.1.2.3.3.4.5.3.9.6 1.5.8 1.9.8 3.6 1.7 5.4 2.7.3.4.7.9 1.1 1.4.3.5.5 1 .8 1.5.1 2 .2 4-.6 6-.3.3-.6.6-1 .9-.3.3-.5.6-.7.9-.8.5-1.6.7-2.6 1-1.1 0-2.3.1-3.4.1-.2.1-.3.1-.3.2-.2.3-.3.5-.5.9-.6.3-1.3.7-1.9 1.1-.8.2-1.4.1-1.8-.2-1.1.3-1.5 1.1-2.4 1.6-.7.3-1.6.6-2.5.9-1-.1-2 .1-2.9-.2-1-.3-2.1-.2-3-.9-.3-.3-.6-.5-.9-.8-.5-.6-1.1-1.1-1.8-1.5-1.2-.8-2.2-1.8-2.9-3.1-.2-.5-.1-1.2-.6-1.7-.1-.6-.4-1.2-.8-1.7l-.3-.6c-.2-.6-.4-1.2-.6-1.7-.6-.6-1.4-.9-2.3-.9-1.1.6-2 1.5-3.1 2.1 0 .1 0 .3.1.4 1 2 1.6 4 2.1 6.2.2.7.4 1.3.4 2 .1 1.7-.2 3.2-.7 4.8-.6 2-.6 2-2.3 3.4-.2.1-.4.3-.6.4-1.5-.2-3-.7-4.4-1.3-1.9.2-3.7.7-5.8.5-1.1-.4-2.3-.8-3.3-1.6-.4-.4-1.1-.2-1.5.2-.1.1-.2.3-.3.4-.1.1-.2.2-.3.4-1.4.3-1.4.3-3.9.2-.5-.3-1.1-.7-1.7-1-.4-.4-.6-.9-.7-1.5-.1-.9-.2-1.9.2-2.7.2-.5.2-.9.2-1.4 0-.8-.3-1-1.1-1.3-.2 0-.3-.1-.6-.1-1.6.3-3.4.7-5 1.3-1.3.4-2.6.8-3.9 1.1-.7-.2-.9-1.1-1.6-1.3-.3-.1-.6-.2-1-.3-.3.6-.6 1.1-.9 1.6-.3.5-.6 1.1-.9 1.6-.4.3-.8.3-1.2.2-.4-.1-.8-.2-1.2-.2-.2 0-.5.1-.6.3-.2.3-.3.6-.5 1.1-.3.2-.8.7-1.5 1.2-.7.4-1.6.7-2.7.3-.3-.1-.6-.2-.9-.2l-1.5 1.2c-.6.5-1.4.8-2.2.8-1 0-2.1-.1-3.1-.1-1.1 0-2.2-.2-3.5-.6-.8-.6-2-1-2.6-2-.8-.4-1.5-.6-2.4-.7-.4 0-.8-.2-1.2-.3-.5-.2-1-.5-1.3-1-.2-.3-.3-.5-.4-.8-1-.5-1.9-.9-2.7-1.6-.8-.7-1.7-1.4-2.5-2.2-.7-.7-1.3-1.6-1.9-2.2-.6-.3-1.1-.2-1.6-.2-.8 0-1.4-.2-2.2-.7-.2-.3-.6-.7-.9-1.2-1.2-2-2.5-4-3.4-6.1-.7-1.5-1-3.1-1.4-4.7-.3-1.2-.4-2.4-.7-3.7-.1.3-.3.1-.5.1h-1c-1 0-1.7-.5-2-1.4-.2-.5-.2-.9.1-1.3.1-.2.3-.4.4-.6-.2-1.1-.2-1.1-.9-1.8-.5-.1-.9-.1-1.4-.2-1-.2-1.4-.7-1.4-1.8 0-.1 0-.1.1-.3.2-.3.4-.6.7-1-.1-.3-.1-.6-.2-.8-.5-.4-1.1-.7-1.6-1.1-.3-.3-.5-.6-.5-1s.2-.7.6-.9c.2-.1.4-.2.6-.2.4-.4.4-.9.4-1.4-.3-.3-.6-.7-.9-1 .1-.5.3-.9.8-1.1.6-.4.9-.9 1.1-1.5.5-1.1.8-2.2 1.1-3.3-.1-.5.1-.9.2-1.4.2-.7.4-1.3.6-1.7 1.5-2.2 2.9-4.1 4.2-5.9.2-1.6.8-3 .7-4.5-.1-1.2-.1-2.3-.5-3.5.1-.5.2-1 .4-1.5s.4-1 .8-1.4c.6-.5 1-1.2 1.4-1.9.4-.5.6-1.1.9-1.6.4-.6.4-1.3.9-1.9.4-.5.6-1.1.7-1.4.1-.6 0-.9-.1-1.2-.4-.7-.2-1.4 0-2 .1-.3.3-.6.4-.8.4-.7.7-1.5.8-2.4.3-1.7.8-3.3 1.3-4.9.7-2.2 1.3-4.5 1.5-6.8.2-1.5.5-2.9.9-4.3.3-.8.5-1.6.5-2.5 0-.7.3-1.4.5-2 .2-.7.5-1.5.4-2.3 0-.3.1-.6.2-.9.7-1.6 1.1-3.2 1.9-4.7.4-.7.5-1.5.4-2.3-.1-.7-.1-1.4 0-2.1.1-.6.1-1.2.3-1.8.2-.7.3-1.4.5-2-.3-.7-.6-1.3-.9-1.9.2-1.1.9-1.9 1.4-2.9 0-.4.1-1 .2-1.4-.1-.7-.7-.9-.9-1.5 0-.2 0-.4-.1-.6.5-1 1-2 1.7-2.8.3-.4.5-.8.7-1.2.2-.3.4-.7.4-1.1-.1-.4-.5-.6-.7-1-.2-.3-.2-.6-.3-.9-.1-.3 0-.6.2-.9.4-.4.7-.8 1.3-.9l.9-.3c.2-.1.3-.3.5-.5-.1-.7-.8-.5-1-.9-.4-.5-.4-1-.1-1.6.8-.8 1.9-1.5 2.6-2.6-.2-.4-.4-.8-.7-1.3 0-.4.1-.8.3-1.1.3-.5.7-1 1-1.6.4-.7.9-1.3 1.3-2 .2-.3.1-.6-.3-1-1.5.6-2.7 1.7-4.4 2.1h-1.4c-.7-.3-1.1-.8-1.4-1.2v-.3c.6-.5 1.2-1 2-1.2 1-.3 2-.6 2.9-1.2.3-.2.8-.3 1.1-.5 1-.8 2.3-1.2 3.2-2.1.4-.6.7-1.2.7-1.9 0-.6.3-1 .6-1.5.8-.7 1.8-.9 2.8-.9.6-.2 1-.5 1.2-.9.9-1.4 1.9-2.7 2.4-4.3l.3-.9c.1-.6-.1-.9-.8-1.2-.6.1-1 .4-1.5.6-.6.3-1.3.7-2 .9-.8.3-1.6.7-2.3 1.2-1.1.7-2.1 1.4-3.4 1.8-.4.1-.7.4-1 .6-.6.3-1.2.7-2 .9-.2 0-.5.1-.7.2-.8.3-1.1.6-1.5 1.7-.3.4-.8.6-1.2.7-.7.2-1.3.2-1.8-.3-.2-.2-.4-.3-.5-.5-.2-.3-.2-.6-.1-.9.1-.4.3-.7.7-.9.3-.2.7-.4 1-.6 1.1-.6 2.3-1.1 3.3-1.8.2-.2.6-.3.9-.4 1.2-.4 2.4-.9 3.5-1.6.4-.3.8-.5 1.3-.6 1.2-.5 2.3-1.1 3.4-1.7.4-.3.8-.5 1.3-.7 1.6-.5 3-1.5 4.5-2.2.1-.1.2-.2.3-.4-.1-.3-.3-.6-.6-.6H41c-.4.1-.7.3-1.1.5-1.3.8-2.8 1.3-4.3 1.6-1.6.3-3.1.8-4.6 1.2-.9.2-1.8.6-2.8.8-.5.1-.9.2-1.4.5-1.2.6-2.4.9-3.6 1.3-1.4.5-2.7 1.1-3.6 2.2l-.5.5c-.4.4-1.3.4-1.8 0-.4-.3-.9-.7-1.3-1 0-.7.5-1.1 1-1.5.9-.6 1.9-1.2 3-1.6 1.3-.5 2.5-1.2 3.8-1.4 1.2-.6 2.5-1 3.9-1.3.1 0 .2 0 .2-.1 1.6-.8 3.3-1.1 5-1.5.2-.1.5-.2.7-.2 1 0 1.9-.3 2.7-.8.4-.2.7-.3 1.1-.4 1-.3 2-.5 2.9-1 .3-.6.1-1.2 0-1.8-.4-.5-.8-1-1.5-1.1-.5-.1-.8-.4-1.3-.7-1.3-.7-2.2-1.8-2.5-3.2 0-.1-.1-.3-.3-.5-.7-.4-1.7-.7-2.2-1.4-.1-.2-.1-.3-.1-.3.1-.8.2-1.5.3-2.3.3-.5.5-1 .8-1.4-.1-.2-.1-.3-.2-.4-.1-.1-.2-.2-.4-.3-.6-.4-1-1-1.1-1.7.1-.3.1-.6.2-.9-.2-.2-.4-.3-.6-.4-.5-.4-.8-1-.6-1.7.1-.7.3-1.4.4-2 .6-.7 1.1-1.3 1.4-2.2.1-.3.4-.5.6-.7.1-.2.3-.4.4-.6-.3-.5-.6-.9-.9-1.4v-.7c.9-1.5.9-1.5 2.5-3v-.2c-.2-.4-.5-.8-.7-1.2v-1.4c0-.2.1-.5.1-.7.3-.4.7-.8 1.1-1.2.6-.6.8-1.4.5-2.2-.3-.7-.3-1.4-.2-2.1-.3-1.1-.8-2.3-1.4-3.4zM44 58.2v.4c0 .2.2.3.3.2.1-.1.1-.3 0-.4 0-.1-.1-.2-.3-.2 0-1.2.1-1.3 1.1-1.8.2-.1.4-.2.6-.2 1.2.3 1.8 1 2.1 2.1.2.7.2 1.4 0 2.1-.5.4-1.1.7-1.6 1.1-.3 0-.6-.1-1-.1-.6.5-1.2.9-1.6 1.3-1.9.1-3.5-.6-5.1-.8-.6.3-.9.7-1.2 1.2-.5 1-1 2.1-1.3 3.2 0 .1.1.3.2.4h.2c.2 0 .5-.1.6-.3.4-.4.9-.7 1.4-.9.4-.2.8-.2 1.1.1.1.1.2.3.3.4.1.3.2.6.3.8-.1.7-.5 1.2-.9 1.7-1.1 1.3-.7 1.7.2 2.5.3.3.7.4.9.6.5-.1.9-.2 1.3-.2.3 0 .6 0 .9.2.5.3.9.7 1 1.1.1.4 0 .7-.2 1-.2.4-.1.9-.1 1.4 0 .3.5.6.7.5.4-.1.8-.3 1.1-.5 1.3-.8 2.5-1.7 3.9-2.3l.3-.3c-1.1-.7-1.1-.7-1.6-1.9.2-.4.4-.9.8-1.1.3-.2.6-.3.9-.3.5-.1 1-.1 1.6.3.2.6 1.1.8 1.4 1.6-.2.8-.7 1.2-1.5 1.3-.2 0-.5.1-.7.2.5 1.1.2 2.1-.3 3.1-.9.5-2 .6-2.9 1-.4.3-.9.5-1.3.8-.2.1-.4.2-.6.4-.1.1-.1.2-.1.4.2 0 .3.1.4.1 1-.2 2-.5 3-.7.5-.1 1-.1 1.4-.2.4 0 .8.1 1.1.3.6.3.6 1 0 1.5-.2.1-.3.3-.5.4.3.8.7 1 1.2.5.8-.8 1.8-1.2 2.8-1.7.3-.1.6-.1.9.2.2.1.4.3.5.5.2.3.3.7.4 1 .7.4 1.1.9 1.3 1.6.1.7.6 1.2 1.1 1.5.7.2 1.1-.2 1.6-.3.5 0 1-.1 1.4-.1.4 0 .8 0 1.2.3.1.1.3.3.4.5.2.2.4.5.5.7.8.4 1.5.7 2.2 1.2.9.7 1.9 1.2 2.9 1.6 1.5.7 3.2 1.1 4.9.5.4-.1.8-.2 1.2-.2.6 0 1.1-.2 1.6-.5 1.9-.9 3.6-2 4.8-3.7.1-1.7 0-1.4 1-2.5l1-1c.5-.2.9-.4 1.3-.6.1-.1.3 0 .5-.1.3.1.7.3 1.1.4.2.1.3 0 .4-.2.1-.4.1-.7.2-1.1.4-.2.7-.4.9-.6 1.1-.1 1.8.6 2.5.9.4 0 .7-.3 1.1-.5.3-.2.6-.3.9-.4.4-.1.8-.2 1-.6.3-.8-.1-1.6-.1-2.4-.2 0-.3-.1-.5-.1s-.5 0-.7-.1c-.4-.1-.7-.3-1-.6-.5-.4-.4-1.4.2-1.6.6-.2 1.2-.4 1.7-.5 1.6.2 2.9-.1 4.3-.2.3 0 .5-.3.4-.7-.5-.2-.9-.2-1.4 0-.9.4-1.9.4-2.8.3-.6-.1-1-.5-1.1-1.1-.1-.4-.1-.8.2-1.1.6-.4 1.3-.7 2-.7 1.4 0 2.7-.4 3.9-.4.7-.4 1.2-.9 2-.9.5 0 .9-.3 1.2-.8.3-.7.3-1.6-.1-2.4-.3-.6-.6-1.3-.7-2 .2-.8.7-1.2 1.5-1.3.3 0 .7 0 .9-.2.1-.4-.1-.8-.4-1-.5-.4-.7-.8-.8-1.4-.3-.2-.5-.3-.8-.5-.2-.5.1-.9.2-1.4.1-.5-.1-1.1.4-1.7.4-.3.8-.8 1.3-1.2.2-.2.4-.5.4-.9-.3-.6-.6-1.3-.9-2 0-.4 0-.9-.1-1.3.4-.7.8-1.4 1.3-2 .3-.4.3-.9.2-1.3-.5-.9-1.2-1.6-1.9-2.4-.6-.7-1-1.4-1-2.3 0-.5-.2-.9-.3-1.4-.1-.5-.2-1.1-.2-1.1-.5-1.3-1.5-1.6-1.9-2.3-.2-.6-.5-1.2-.2-1.8.7-.6 1.3-1.1 1.9-1.6.3-.8.5-1.4.8-2.1.4-1.2.7-2.4 1-3.6.3-.9.2-1.8.3-2.8.2-2 .3-4 .2-6 0-2.2-.1-4.5-.1-6.7V8.6c0-1-.3-2-.6-2.9-.2-.6-.5-1.2-1.2-1.3-.4.1-.8.2-1.1.2-.5-.2-1-.3-1.3-.5-.5-.2-.5-.7-1.1-.7-.6.3-1.3.6-1.7.8-2 1.3-2.9 3-4.3 4.2-.2.2-.3.4-.4.6-.5 1-1.4 1.7-2 2.6-.6 1-1.2 2-1.9 3-.6.8-1 1.6-1.4 2.4-.3.7-.6 1.2-1 1.8-.4.6-.7 1.4-1 2.1-.2.4-.3.9 0 1.5 0 0 .2.2.4.3.4.3.6.7.5 1.2-.1.5 0 .9-.5 1.4-.3.1-.8.3-1.2.4-.7-.2-1.3-.5-2-.3-.1.1-.3.3-.5.4-1.5 1.3-2.5 1.4-4.1.4-.4-.3-.8-.6-1.1-.9-.2-.1-.4-.2-.6-.4-.2.1-.5.2-.6.3-.3.3-.6.7-.9 1.1-.2.2-.5.4-.9.4s-.8 0-1.2-.1c-.5-.1-1.1-.4-1.5-.5-.5-.4-.9-.8-1.3-1.1-.3-.2-.9-.2-1.1.1-.2.2-.3.4-.5.5-.6.5-.8 1.4-1.3 1.9-.1.1-.2.2-.4.3-.6.4-1.2.4-1.8 0-.2-.2-.5-.4-.7-.6-.1-.5-.2-.9-.3-1.4 0-.1-.2-.2-.3-.3-.1 0-.3 0-.4.1-.1.1-.2.2-.3.4-.5.9-1.3 1.6-2.2 2.1-.5.1-1.1.3-1.6.4h-.2c-.7-.2-.9-.9-1.5-1.1-.4-.1-.8-.1-1.2-.2-1.2-.6-2.4-1.2-3.3-2.3-.9-1.1-1.9-2.1-2.8-3.2-.2-.2-.4-.5-.6-.7-.7-1.1-1.6-2.1-2.4-3.2-.6-.8-1.4-1.5-2.2-2.1-1-.7-2.2-1.3-3.2-1.9-.6-.1-1-.2-1.6-.3-1.2.5-1.6 1.6-2 2.7v2.3c-.1.3-.3.6-.3.9-.2.6-.3 1.2 0 1.8.3.7.3 1.5.4 2.3 0 1.3.1 2.6.1 3.9 0 1 .2 2 .7 2.9.2.3.2.6.2.9 0 .4.1.8.2 1.1.5 1.5 1 3.1 1.9 4.5.4.6.6 1.3.9 1.9.3.6.5 1.2.4 1.8 0 .7 0 1.4.3 2 .1.2.1.5.1.7 0 .8-.2 1.4-.9 1.8-.4.3-.9.4-1.1.9-.3.8.2 1.5-.1 2.6-.1.9-1.4 1.3-1.8 2.4.3.6.6 1.1.8 1.6-.1.7-.3 1.3-.8 1.7-.8.7-1.5 1.6-2.2 2.5-.3.4-.5.9-.2 1.3.4.6.3 1.2.5 1.7.4.4.8.5 1.3.3.6-.2 1.1-.2 1.7-.1.1-.2.1-.4.1-.7.1-.3 0-.6.2-.9.9-.6.9-.6 1.5-.6s1.1 0 1.6-.3c.4-.2.9-.2 1.4 0 .4.6.7.7 1.1.8zm1 142.2c-.8 0-1.6-.2-2.3-.7-.3-.2-.5-.4-.5-.8 0-.5.3-1 .6-1.6.3-.1.6-.2.9-.2 1-.2 1.9-.3 2.9-.4h.5c.6.1 1 .4 1.1 1.1-.2.3-.3.6-.5 1 .2.2.4.3.5.5s.4.3.5.5c.4.4.4 1.3.1 1.7-.1.2-.3.4-.4.5-.6.6-1.3 1.1-2 1.5-.3.5-.6.8-.6 1.3.6.2.7.2.9.1 1-.5 2-.5 3.1-.4.4 0 .8 0 1.2.1 1.4.3 2.3 1.4 3.4 2.3.6 1.4 1.5 2.6 2.7 3.7.5.5.9 1 1.3 1.6.5.9 1 1.7 1.4 2.7.2.6.4 1.2.8 1.7.6.8.9 1.7 1.1 2.5.5.5 1.1 1 1.5 1.6.4.6.7 1.2 1.1 1.8.2.3.3.5.5.7.5 1.5.6 3 1.1 4.4.1.3.1.6.1.9.1.5.1 1.1.2 1.5.3.6.7.9.7 1.4 0 1.1.6 1.9 1.5 2.5.2.1.3.3.4.4.1.5 0 .9.2 1.2.3.5.3 1 .6 1.5.6 1 .9 2.1 1.2 3.3 0 1 0 2-.3 3-.1.4 0 .8 0 1.1 0 .1.1.3.2.4.1.2.5.2.6.1.8-.8 1.6-1.7 2.4-2.5.8-.3 1.6-.6 2.3-.9.2.1.3.1.4.2.3.2.6.5 1 .7.3.7.5 1.4.8 2.1.2.5.8.8 1.3.8.8 0 1.6-.2 2.2-.7.3-.6.9-.2 1.3-.4.7-1.1-.4-2-.4-3.1.5-.4 1-.9 1.5-1.4.4.1.8.2 1.1.2.4.6.7 1.1 1.2 1.5.1.1.1.3.2.4-.1.4-.2.7-.3 1 .1 1 .2 1.8.2 2.6 0 .3.3.6.6.7.3.1.7 0 .9-.2.2-.2.4-.5.5-.7.3-.9.6-1.7.9-2.4 0-1.3-.1-2.4-.4-3.4-.2-.6-.4-1.2-.4-1.8-.1-1.4-.7-2.7-1.3-4-.4-.8-.8-1.5-1.1-2.3-.9-2.5-1.9-4.9-2.8-7.4-.1-.2-.2-.4-.2-.7 0-.8-.4-1.5-.7-2.2l-1.5-3.6c-.8-1.9-1.4-3.9-1.2-6.1v-.9c0-.3 0-.6-.1-.9-.2-.8-.3-1.7-.5-2.5-.3-1.2-.6-2.4-1-3.6-.5-1.3-1.2-2.5-1.7-3.8-.1-.8-.3-1.6-.4-2.5.3-1 .3-2.1.3-3.3 0-1 0-2 .1-3 0-.5.4-.8.8-1 .4-.2.8-.3 1.2-.2.5.2.8.5.9 1v.7c-.1 1.8-.2 3.5-.3 5.3.5 2.2.6 2.2 1.5 4.4.5 1.1 1 2.3 1.1 3.5.1 1.1.6 2.3.6 3.4.4.9.3 1.8.4 2.7v.9c-.1 1 .1 2 .6 2.9.1.3.3.6.4.8.1.8.5 1.5.8 2.2.6 1.3 1.2 2.7 1.5 4.1.2.9.5 1.6.9 2.4.5.9.9 1.8 1.2 2.8.1.6.3 1.2.7 1.7.4-.2.9-.4 1.2-.7.9-.7 1.9-1.1 3-1.4.5-.1 1-.1 1.4-.5.5-.7.4-1.4-.3-2l-.5-.5c-.1-.4-.1-.9-.3-1.3-.3-.7-.4-1.5-.4-2.3v-4c0-.8-.1-1.5-.2-2.4-.3-.6-.7-1.3-1.1-1.9-.5.2-1 .5-1.7.2-.1-.1-.3-.3-.5-.4-.1-.1-.2-.2-.3-.4-.3-.4-.3-.9.1-1.3l1.5-1.5c.3-.3.4-.7.2-1.1-.6-.5-1.3-.9-1.4-1.8.2-.7.6-1.4 1.3-1.9.3-.2.6-.5.8-.9v-.4c-.1-.1-.2-.3-.3-.3-.7-.3-1.1-.9-1.2-1.6.1-.2.1-.3.2-.4.3-.4.6-.7 1-1 .5-.4.5-1 .9-1.3.2-.2.6-.3.8-.6.3-.3.5-.6.3-1-1.3-.9-1.3-.9-1.9-2.3.1-.6.5-1 1-1.3.9-.5 1.7-1.1 2.5-1.8.5-.5 1.1-.9 1.8-1.2.3-.1.6-.2.9 0 .2.1.3.4.2.8-.2.5-.4 1-.5 1.4-.5.4-.9.8-1.3 1.2-.4.4-.7.9-1 1.3-.2.2-.1.7.1.9.3.3.6.6.8.9.2.3.4.7.6.9-.9 2-.9 2-2.1 3.7 0 .4.2.7.3 1.1.3.8.2 1.5 0 2.3-.2.6-.7 1-.9 1.6.3.5.7.9.9 1.4.3.4.2.9-.1 1.3-.6.8-1.2 1.5-1.8 2.2.2.2.3.5.5.5.8 0 1.4.3 2 .7.2.1.4.3.5.4.2.6.5 1.2.7 1.7-.1 2.5-.1 4.9.1 7.1.4.7.8 1.3 1.2 1.9.4.6.9 1.1 1 1.8-.3.6-.2 1.2-.2 1.8.1.7-.1 1.4-.1 2.1.6 1.4 1.2 2.8 1.7 4.1 0 .5.1 1 .1 1.5.2.4.4.8.7 1.2.6.7 1.1 1.5 1.8 2.2.7.7 1.5 1.4 2.3 2.1 1.5.2 3 .3 4.6.1.4-.1.8-.3 1-.5.8-.8 1.3-1.8 1.5-2.8-.1-.8-.2-1.6-.2-2.4 0-.5.2-.9.6-1.2.3-.2.7-.4 1.1-.4.4 0 .8.2.9.6 0 .3.1.6.1.9v2.3c0 .3.1.6.2.9 0 .2.2.3.4.2.1 0 .3-.1.4-.2.7-1.3.9-2.6.3-4-.1-.4-.2-.7-.2-1.1 0-.3.3-.6.6-.6.5-.1 1 .1 1.2.6.6 1.2 1.3 2.3 1.6 3.6 0 .1.2.2.3.3.5.2.9-.1 1.4-.2.6-.1 1.1-.1 1.5-.2 1.1-.5 1.6-1.3 1.6-2.3.1-2 .2-2.3-1-4.2-.1-.1-.2-.2-.3-.4-1.2-.7-2.5-1.4-3.9-1.8-.6-.2-1.2-.4-1.8-.7-.6-.3-1.1-.6-1.6-1-.6-.4-1-1-.8-1.8.1-.3 0-.6-.1-.9-.1-.3-.1-.6-.1-.9 0-1.4.2-2.4.7-3.8.4-1.2.8-2.4 1.1-3.5.2-.6.1-1.2.1-1.8.1-.9 0-1.7-.3-2.5-.2-.7-.3-1.4-.4-2-.1-.5-.2-.9-.3-1.4-.3-.7-.6-1.4-.9-2.2-.1-.1-.1-.3-.2-.5V202c.1-.3.3-.6.4-1 .1-.9.5-1.8.9-2.6.2-.5.4-1 .5-1.5.1-.3.2-.6.2-.9 0-2.8.2-5.6-.8-8.1.1-1 .2-1.8.4-2.9 1.1-1.5 1.5-3.5 2.2-5.5v-.6c.1-1.2.1-2.3-.2-3.5-.1-.4-.1-.8-.1-1.2v-2.1c-.6-.9-.7-1.9-.5-2.7.7-1.5 1.3-2.8 1.9-4.1.1-1 .3-1.9.3-2.8.1-1 .2-2-.1-3-.1-.4-.1-.8-.1-1.1v-3c0-.2 0-.3.1-.5.6-.9.4-2 .7-2.9.5-1.6.3-3.2.2-4.8 0-.4-.2-.7-.3-1.1-.2-.7-.4-1.3-.7-2 .6-1.3 1.1-2.7 1.3-4.2-.2-.7-.2-1.4-.5-2-.4-.9-.5-1.8-.5-2.7 0-.2-.1-.3-.1-.5-.1-.2-.3-.4-.5-.7l-.6-.9v-1.5c.5-.6 1.1-1.2 1.2-2.2 0-.6 0-1.5-.2-2.3-.2-1.1-.3-2.1-.6-3.2-.1-.3-.1-.8 0-1.1 0-.2.2-.4.3-.6.2-.2.4-.2.6-.3.3-.2.4-.6.2-.8-.2-.3-.5-.6-.7-.9-.3-.4-.1-.9-.2-1.5-.7-.8-1.8-1.4-1.9-2.7.1-.2.2-.4.4-.7.8.2 1.4-.4 2.1-.8.3-.2.6-.3.7-.4.4-.6.1-1-.1-1.3-.5-.3-1-.6-1.4-1-.5-.4-.6-1-.3-1.5.4-.8.8-1.5 1.2-2.3.1-.2.1-.4.1-.7-.7-.8-1.4-1.7-2-2.5-.1-1-.1-1.9.2-2.8.2-.7.3-1.5.2-2.3-.6-.7-1.1-1.4-2-1.9-.3-.1-.5-.4-.7-.6-.3-.4-.6-.7-.9-1.1-.6-.7-1-1.4-1.1-2.3-.1-.7-.4-1.3-.9-1.9-.5-.7-1-1.4-1.7-2-1.3-1.1-2.2-2.5-2.4-4.2-.1-.4-.2-.8-.3-1.1-.1-.5-.4-1-.9-1.4-.6-.1-1.2 0-1.8-.2-.9-.3-1.9-.3-2.9-.4-1-.1-1.9-.4-2.8-.5-1-.1-1.9-.3-2.8-.6-.9-.3-1.9-.3-2.9-.3-1.5 1.1-3.2 1.3-5 .7-.7-.2-.9-1.1-1.9-1.2-.9 1.2-1.5 2.6-2.3 4l-3.1 3.1c-.6.6-1.2 1-1.9 1.4l-2.1 1.2c-1.1.2-2.3.3-3.5.7-1.1.3-2.2.4-3.3.1-1.5-.4-2.9-.7-4.3-1.5-.9-.5-1.8-1.1-2.7-1.5-.6-.3-1.2-.5-1.6-1-.4-.5-1-.7-1.7-.9-.3.1-.6.1-.8.1-.4-.1-.7-.2-1-.3-1-.1-1.8-.6-2.5-1.3-.3-.3-.6-.7-1.1-.9-.6.1-1.2.3-1.8.4-.7.1-1.4-.1-2.2.2-.3.3-.6.6-.9 1-.3.3-.5.6-.8.8-1.3.9-2.4 2-3.8 2.8-.4.2-.7.6-1.1.9-.2.2-.4.5-.7.6-1.5 1-2.7 2.4-4.1 3.6-.1 1.1-.7 1.9-1.7 2.4-.2.1-.4.2-.7.2-.2.1-.4.2-.5.6.3.5.6 1.1.2 2-.5.4-1 1-1.6 1.5l-1 1c-.7.7-1.2 1.5-1.4 2.5.1.2.2.4.4.5.7.7.6 1.4.2 2.1-.2.4-.4.8-.8 1.1-.5.5-1 1-1.6 1.4-.4.2-.5.6-.5 1 .4.4 1.1 0 1.5.5.1.3.1.6-.1.9-.3.7-.8 1.1-1.5 1.5-.2.1-.3.4-.2.6 0 .1.1.3.2.4.5.8.3 1.5-.2 2.2-.6.7-1.1 1.5-1.7 2.3-.1.1 0 .3-.1.4.3.4.6.7.9 1.1-.1.3-.1.6-.2.9-.2.5-.6.9-.8 1.4-.3.6-.6 1.1-.8 1.7-.1.1 0 .3 0 .5.3.4.5.7.8 1.1 0 1.2 0 1.3-1.4 3.2-.2 1-.7 1.9-.7 2.9-.5 1.5-.3 3.1-.8 4.6-.5 2.9-1.2 5.8-1.8 8.6l-1.2 5.7-1.2 5.7c-.7 3.2-1.5 6.5-2.2 9.7-.3 1.1-.4 2.1-.6 3.2-.5 1.9-1.2 3.7-2 5.4-.6 1.3-1.2 2.7-2.2 3.8-.2.2-.3.4-.3.6-.1.4-.3.7-.6 1-.7.8-.9 1.8-.9 2.8 0 .5.1 1.1.3 1.6.2.7.3 1.4.2 2.1-.3 1.3-.3 2.8-1 4-.4 1.4-1.1 2.5-2.1 3.6-.8.9-1.6 1.9-1.9 3.2-.1.3-.3.5-.5.8-.1.2-.3.4-.3.6-.4 1.7-1.1 3.2-1.9 4.8v1c-.2.7-.8 1-.8 1.6 0 .1.1.2.2.3.3-.2.7-.4 1-.7.2 0 .5-.1.7 0 .4 0 .8.4.8.7 0 .2 0 .5-.1.7-.2.5-.3 1-.5 1.5-.6.4-1.1.9-1.7 1.3.3.7.6.8 1 .6.5-.2 1-.5 1.5-.7.4-.1.8 0 1.1.4.2.5.2 1 .1 1.6-.2.9-.7 1.7-1.3 2.4.3.5.6 1 1.3 1.1.4-.1 1-.2 1.5-.3.3.1.6.3.8.6-.1.2-.1.5-.2.8.2.7.5 1.3.7 2 .3 1.8.9 3.6 1.2 5.4.2 1.8.9 3.4 2 4.9.4.5.6 1.1.8 1.7.1.5.3.9.5 1.3.3.5.6.9 1.2 1.2.5.1 1 .1 1.6.2.5.1 1.1.4 1.5.5.6.6 1.2 1.1 1.6 1.8.2.3.4.7.7.9 1.5 1.4 2.9 2.9 4.9 3.7.4.1.7.4 1 .6.5.3 1.1.6 1.7 1 .1-.3.2-.5.1-.7-.3-1.2 0-2.3.1-3.5.1-.8.4-1.5.7-2.2.5-.9.9-1.8 1.2-2.5.7-.9 1.6-.6 2.3-.8.2-.1.5-.2.6-.4 1.2-.9 2.6-1.6 4.1-1.9.7-.5 1.6-.3 2.3-.5.5-.2 1.1-.2 1.7-.2 1.7-.1 3.4.3 5 .6 1 .2 2 .6 2.7 1.4.3.3.6.6.9.8.7.4 1.1 1.1 1.4 1.8l.6 1.8c.2.7.4 1.5.6 2.2.7.2 1.4.5 2.1.6.8.2 1.6.2 2.4-.1 1.2-.5 2.7-.6 3.8-1.4.1-.1.3-.1.5-.1.6.1 1.1-.1 1.7-.1.3 0 .4-.2.5-.5-.2-.4-.3-.8-.6-1.2-.3-.4-.7-.8-.9-1.3-.2-.5-.5-.9-.8-1.4 0-1.5-.7-2.9-.5-4.3-.6-1.4-1.1-2.8-1.6-4.2-.2-.6-.5-1.1-1.1-1.5-.4-.3-.7-.6-.9-1.1-.5-1-1-1.9-1.4-2.9-.3-1-.7-1.9-1.2-2.8-.5-1.5-1.5-2.7-2.6-3.8-.7-.7-1.3-1.4-1.7-2.2-.3-.6-.7-1.1-1.2-1.4-.8-.4-1.6-.7-2.4-.8-.5 0-.8.1-1 .1-.5-.4-1-.7-1.4-1-.5.3.1.7-.2 1.3-.4.6-1.2 1-2.2 1.2h-.2c-.7-.2-1.4-.4-1.8-1.1.3-.7.5-1.4 1-2 .3-.2.8-.3 1-.7 0-.4-.4-.6-.6-.9-.2-.3-.4-.7-.4-1.1.1-.4.3-.7.7-.9.5-.3 1.1-.7 1.6-1-.4-.5-.3-.7-.2-.9.2-.1.4 0 .6-.1.1 0 .2-.2.2-.3 0-.1-.1-.2-.2-.3-.2.1-.4.2-.6.4v.3zm.9 40.7c-.6-.6-1-1.2-1-2 .1-.9.5-1.6 1.5-2 .3.1.7.1 1.1.2.3.1.5.3.7.4.1.2.2.4.2.5 0 .1.1.3.1.5.2 1 .9 1.6 1.9 1.8.1-.1.3-.2.3-.4.1-1.4.3-2.8-.3-4.1-.1-.4-.2-.7-.2-1.1-.4-.4-.7-.8-.9-1-1.2-.7-2.4-1.1-3.7-1.6-.4 0-.9 0-1.4.1-.8.2-1.5.3-2.4.3-1.7-.1-3.1.7-4.4 1.5-.9 1-2.2 1.4-3.4 2.1-.3 1.1-.7 2.2-1 3.1v2.5c.3.7.7 1.3.8 2 .1.5.5.8 1 1 .5.2 1.1.3 1.6.5.8-.1 1.6-.1 2.4-.2.3 0 .6-.1.9-.5.5-.9.3-2 .5-3.1.3-.4.8-.5 1.3-.5.6 0 1.3 0 1.8.4.3.5.5 1 .7 1.4.5.2 1 .2 1.4.2.1-.1.2-.2.3-.4 0-.2.1-.4.1-.7.1-.2.1-.4.1-.9zM94.4 79c.7.3 1.4.5 2.1.6 1.5.1 3 .6 4.5.6.2 0 .5.1.7.1.9.3 1.9.3 2.9.3.3 0 .6-.1.6-.3 0-.3-.2-.4-.4-.5-1.3-.7-2.7-1.1-4.1-1.1-1.2-.1-2.2-.4-3.1-1.1l-.6-.3c-.6-.1-1 0-1.4.3-.5.4-1 .7-1.2 1.4zm-45.7 3.5c-.2-.5-.4-.9-.6-1.3-.1-.1-.1-.3-.3-.4-.2-.1-.4-.3-.6-.2-.4 0-.8.1-.9.6.1.6.4 1.2.2 1.8-.7.9-1.3 1.9-2.2 2.7-.1.1-.2.3-.1.4 0 .1.2.2.3.3 1.3-1.1 2.9-2.2 4.2-3.9z"/>
    <path class="st1" d="M44.9 200.3c0 .3-.1.4-.3.6-.5.3-1.1.7-1.6 1-.3.2-.6.5-.7.9 0 .4.2.7.4 1.1.2.3.6.5.6.9-.2.4-.6.5-1 .7-.5.6-.7 1.3-1 2 .4.6 1.2.8 1.8 1.1h.2c1-.2 1.8-.6 2.2-1.2.4-.6-.3-1 .2-1.3.4.3.9.6 1.4 1 .2 0 .6 0 1-.1.7.1 1.5.4 2.4.8.5.4.9.9 1.2 1.4.5.8 1 1.5 1.7 2.2 1.1 1.1 2.1 2.3 2.6 3.8.5.9.9 1.8 1.2 2.8.4 1 .9 2 1.4 2.9.2.4.5.8.9 1.1.6.4.8.9 1.1 1.5.5 1.4 1.1 2.7 1.6 4.2-.2 1.4.5 2.8.5 4.3.3.5.6.9.8 1.4.2.5.6.9.9 1.3.3.4.4.8.6 1.2 0 .3-.2.5-.5.5-.6 0-1.1.3-1.7.1-.1 0-.3 0-.5.1-1.1.8-2.6.9-3.8 1.4-.8.3-1.6.3-2.4.1l-2.1-.6c-.2-.7-.4-1.5-.6-2.2l-.6-1.8c-.3-.7-.7-1.4-1.4-1.8-.3-.2-.6-.5-.9-.8-.8-.8-1.7-1.2-2.7-1.4-1.7-.3-3.3-.7-5-.6-.6 0-1.1 0-1.7.2-.7.3-1.6.1-2.3.5-1.5.4-2.9 1-4.1 1.9-.2.1-.4.2-.6.4-.7.2-1.6-.1-2.3.8-.3.8-.7 1.7-1.2 2.5-.4.7-.6 1.4-.7 2.2-.1 1.1-.4 2.3-.1 3.5.1.2-.1.4-.1.7-.6-.3-1.2-.7-1.7-1-.3-.2-.6-.5-1-.6-2-.8-3.4-2.3-4.9-3.7-.3-.3-.5-.6-.7-.9-.4-.7-1-1.2-1.6-1.8-.5-.2-1-.4-1.5-.5-.5-.1-1.1-.1-1.6-.2-.6-.3-1-.7-1.2-1.2-.2-.4-.4-.8-.5-1.3-.2-.6-.4-1.2-.8-1.7-1.1-1.5-1.8-3.1-2-4.9-.3-1.8-.8-3.6-1.2-5.4-.1-.7-.4-1.3-.7-2 .1-.3.1-.6.2-.8-.2-.4-.4-.5-.8-.6-.5.1-1.1.2-1.5.3-.7-.1-1-.6-1.3-1.1.6-.7 1.1-1.5 1.3-2.4.1-.5.1-1.1-.1-1.6-.3-.4-.7-.5-1.1-.4-.5.2-1 .4-1.5.7-.5.2-.7.1-1-.6.5-.4 1.1-.8 1.7-1.3.2-.5.4-1 .5-1.5.1-.2 0-.5.1-.7 0-.4-.3-.7-.8-.7h-.7c-.3.2-.7.4-1 .7-.1-.1-.2-.2-.2-.3 0-.6.6-.9.8-1.6v-1c.7-1.6 1.5-3.1 1.9-4.8l.3-.6c.2-.3.4-.5.5-.8.3-1.3 1.1-2.2 1.9-3.2.9-1.1 1.7-2.2 2.1-3.6.7-1.2.7-2.7 1-4 .2-.7.1-1.4-.2-2.1-.2-.5-.3-1-.3-1.6 0-1 .2-2 .9-2.8.3-.3.5-.6.6-1l.3-.6c1-1.1 1.6-2.5 2.2-3.8.8-1.7 1.5-3.6 2-5.4.3-1 .4-2.1.6-3.2.8-3.2 1.5-6.5 2.2-9.7l1.2-5.7 1.2-5.7c.6-2.9 1.3-5.7 1.8-8.6.5-1.5.3-3.1.8-4.6 0-1 .5-1.9.7-2.9 1.3-1.9 1.4-1.9 1.4-3.2-.3-.3-.5-.7-.8-1.1v-.5c.3-.6.5-1.1.8-1.7.3-.5.6-.9.8-1.4.1-.3.1-.6.2-.9-.3-.4-.6-.8-.9-1.1 0-.1 0-.3.1-.4.5-.8 1.1-1.5 1.7-2.3.5-.7.7-1.4.2-2.2-.1-.1-.1-.3-.2-.4-.1-.2 0-.5.2-.6.6-.4 1.2-.8 1.5-1.5.1-.3.2-.6.1-.9-.4-.5-1.1-.1-1.5-.5 0-.4.1-.8.5-1 .7-.3 1.1-.9 1.6-1.4.4-.3.6-.7.8-1.1.4-.7.5-1.5-.2-2.1-.2-.2-.3-.4-.4-.5.2-1 .7-1.8 1.4-2.5l1-1c.6-.5 1.1-1.1 1.6-1.5.4-.8.2-1.5-.2-2 .1-.4.3-.5.5-.6.2-.1.5-.1.7-.2.9-.5 1.6-1.3 1.7-2.4 1.4-1.2 2.5-2.6 4.1-3.6.3-.2.5-.4.7-.6.4-.3.7-.7 1.1-.9 1.4-.8 2.5-1.9 3.8-2.8.3-.2.6-.5.8-.8.3-.3.6-.7.9-1 .8-.3 1.5-.1 2.2-.2.6-.1 1.2-.3 1.8-.4.5.2.8.6 1.1.9.7.7 1.5 1.2 2.5 1.3.3 0 .6.2 1 .3.2 0 .5-.1.8-.1.6.2 1.2.4 1.7.9.4.5 1 .7 1.6 1 .9.4 1.8.9 2.7 1.5 1.3.8 2.8 1.2 4.3 1.5 1.1.3 2.3.2 3.3-.1 1.2-.4 2.3-.5 3.5-.7.7-.4 1.4-.9 2.1-1.2.7-.4 1.3-.9 1.9-1.4l3.1-3.1c.8-1.4 1.4-2.8 2.3-4 1 .1 1.2 1 1.9 1.2 1.8.6 3.5.3 5-.7 1 0 2 0 2.9.3.9.3 1.9.5 2.8.6 1 .1 1.9.3 2.8.5 1 .1 1.9.2 2.9.4.6.2 1.3.1 1.8.2.6.4.8.8.9 1.4.1.4.2.7.3 1.1.3 1.7 1.1 3 2.4 4.2.7.6 1.1 1.3 1.7 2 .4.6.7 1.2.9 1.9.2.9.6 1.6 1.1 2.3.3.4.6.7.9 1.1.2.2.4.5.7.6.9.5 1.4 1.2 2 1.9.1.8 0 1.6-.2 2.3-.3.9-.3 1.8-.2 2.8.7.8 1.4 1.7 2 2.5-.1.3 0 .5-.1.7-.4.8-.8 1.5-1.2 2.3-.3.5-.1 1.1.3 1.5.4.3.9.6 1.4 1 .3.3.5.7.1 1.3-.2.1-.5.2-.7.4-.7.4-1.3 1-2.1.8-.2.3-.3.5-.4.7.1 1.3 1.2 2 1.9 2.7.2.6-.1 1.1.2 1.5.2.3.5.6.7.9.2.2.1.6-.2.8-.2.1-.5.2-.6.3-.2.1-.3.4-.3.6 0 .4-.1.8 0 1.1.4 1 .4 2.1.6 3.2.2.8.1 1.7.2 2.3-.1 1.1-.7 1.6-1.2 2.2v1.5c.2.2.4.6.6.9.2.3.4.5.5.7.1.2.1.4.1.5 0 .9.1 1.8.5 2.7.3.6.3 1.3.5 2-.2 1.5-.7 2.8-1.3 4.2.2.7.5 1.4.7 2 .1.4.3.7.3 1.1.1 1.6.3 3.3-.2 4.8-.3 1-.2 2-.7 2.9-.1.1-.1.3-.1.5v3c0 .4 0 .8.1 1.1.3 1 .2 2 .1 3-.1.9-.2 1.8-.3 2.8-.6 1.3-1.2 2.6-1.9 4.1-.2.9-.1 1.8.5 2.7v2.1c0 .4 0 .8.1 1.2.3 1.1.3 2.3.2 3.5v.6c-.7 2-1.2 3.9-2.2 5.5-.1 1.1-.2 1.9-.4 2.9 1 2.6.8 5.4.8 8.1 0 .3-.1.6-.2.9-.2.5-.3 1-.5 1.5-.4.9-.7 1.7-.9 2.6-.1.4-.3.7-.4 1v1.4c.1.2.1.4.2.5.3.7.6 1.4.9 2.2.2.4.3.9.3 1.4.1.7.2 1.4.4 2 .3.8.3 1.7.3 2.5 0 .6 0 1.3-.1 1.8-.3 1.2-.7 2.4-1.1 3.5-.5 1.5-.7 2.4-.7 3.8 0 .3 0 .6.1.9.1.3.1.6.1.9-.2.8.2 1.4.8 1.8.5.4 1.1.7 1.6 1 .6.3 1.2.5 1.8.7 1.4.4 2.6 1.1 3.9 1.8.1.1.2.2.3.4 1.2 1.9 1.1 2.2 1 4.2 0 1-.5 1.8-1.6 2.3-.4 0-1 .1-1.5.2s-.9.3-1.4.2c-.1-.1-.3-.2-.3-.3-.3-1.3-1-2.4-1.6-3.6-.2-.5-.7-.6-1.2-.6-.3 0-.6.3-.6.6.1.4.1.8.2 1.1.5 1.4.4 2.7-.3 4-.1.1-.2.2-.4.2s-.3-.1-.4-.2c-.1-.3-.2-.6-.2-.9v-2.3c0-.3-.1-.6-.1-.9-.1-.4-.5-.6-.9-.6s-.8.2-1.1.4c-.4.3-.7.7-.6 1.2 0 .8.1 1.5.2 2.4-.2 1-.7 2-1.5 2.8-.3.3-.6.5-1 .5-1.5.2-3 .2-4.6-.1-.8-.7-1.6-1.3-2.3-2.1-.7-.7-1.2-1.4-1.8-2.2-.3-.4-.5-.8-.7-1.2 0-.5-.1-.9-.1-1.5-.5-1.3-1.1-2.7-1.7-4.1 0-.7.1-1.4.1-2.1-.1-.6-.1-1.2.2-1.8-.2-.7-.7-1.2-1-1.8-.4-.6-.7-1.2-1.2-1.9-.2-2.3-.1-4.7-.1-7.1-.2-.5-.4-1.1-.7-1.7-.2-.1-.3-.3-.5-.4-.6-.4-1.2-.7-2-.7-.1 0-.3-.3-.5-.5.6-.8 1.2-1.5 1.8-2.2.3-.4.4-.9.1-1.3-.3-.5-.6-.9-.9-1.4.1-.6.7-1 .9-1.6.3-.8.4-1.5 0-2.3-.1-.3-.4-.7-.3-1.1 1.3-1.7 1.3-1.7 2.1-3.7l-.6-.9c-.2-.3-.5-.6-.8-.9-.2-.2-.2-.7-.1-.9.3-.4.6-.9 1-1.3s.8-.7 1.3-1.2c.2-.4.4-.9.5-1.4.1-.4.1-.7-.2-.8-.3-.2-.6-.1-.9 0-.7.3-1.3.7-1.8 1.2-.7.7-1.6 1.3-2.5 1.8-.5.3-.9.7-1 1.3.6 1.4.6 1.4 1.9 2.3.2.4-.1.7-.3 1-.2.2-.5.3-.8.6-.4.4-.5 1-.9 1.3-.4.3-.7.7-1 1-.1.1-.1.3-.2.4.1.7.5 1.3 1.2 1.6.1.1.3.2.3.3.1.1.1.3 0 .4-.1.4-.4.6-.8.9-.7.5-1 1.2-1.3 1.9 0 .9.8 1.3 1.4 1.8.2.4.1.8-.2 1.1l-1.5 1.5c-.3.3-.4.9-.1 1.3.1.1.2.2.3.4.2.2.4.3.5.4.7.4 1.1 0 1.7-.2.4.7.8 1.3 1.1 1.9.1.9.1 1.6.2 2.4v4c0 .8.1 1.5.4 2.3.2.4.2.9.3 1.3.2.2.3.4.5.5.7.6.7 1.3.3 2-.4.4-.9.4-1.4.5-1.1.3-2.1.6-3 1.4-.4.3-.8.5-1.2.7-.4-.5-.6-1.2-.7-1.7-.3-1-.6-1.9-1.2-2.8-.5-.7-.7-1.5-.9-2.4-.3-1.4-.9-2.8-1.5-4.1-.3-.7-.7-1.4-.8-2.2 0-.3-.2-.6-.4-.8-.5-.9-.7-1.9-.6-2.9v-.9c-.1-.9.1-1.9-.4-2.7 0-1.2-.4-2.3-.6-3.4-.2-1.2-.6-2.4-1.1-3.5-1-2.2-1-2.1-1.5-4.4.1-1.8.2-3.5.3-5.3v-.7c-.1-.5-.4-.8-.9-1-.4 0-.8 0-1.2.2-.5.2-.8.5-.8 1 0 1-.1 2-.1 3 0 1.2 0 2.3-.3 3.3.2.9.3 1.7.4 2.5.6 1.2 1.2 2.5 1.7 3.8.4 1.2.7 2.4 1 3.6.2.8.3 1.7.5 2.5.1.3.1.6.1.9v.9c-.2 2.1.3 4.1 1.2 6.1.5 1.2 1.1 2.4 1.5 3.6.3.7.6 1.4.7 2.2 0 .2.1.4.2.7.8 2.5 1.8 4.9 2.8 7.4.3.8.7 1.5 1.1 2.3.6 1.3 1.2 2.5 1.3 4 0 .6.2 1.2.4 1.8.4 1 .4 2.1.4 3.4-.2.7-.5 1.6-.9 2.4-.1.3-.3.5-.5.7-.2.2-.5.3-.9.2-.3-.1-.6-.4-.6-.7-.1-.8-.1-1.7-.2-2.6.1-.3.2-.6.3-1-.1-.1-.1-.3-.2-.4-.5-.4-.8-1-1.2-1.5-.3-.1-.7-.1-1.1-.2-.5.5-1 1-1.5 1.4 0 1.1 1.1 2 .4 3.1-.4.2-1-.3-1.3.4-.7.5-1.4.8-2.2.7-.6 0-1.2-.4-1.3-.8-.3-.7-.5-1.4-.8-2.1-.4-.3-.7-.5-1-.7-.1-.1-.3-.1-.4-.2-.7.3-1.5.6-2.3.9-.7.8-1.5 1.6-2.4 2.5-.1.1-.6 0-.6-.1-.1-.1-.2-.3-.2-.4 0-.4-.1-.8 0-1.1.3-1 .3-2 .3-3-.3-1.1-.6-2.2-1.2-3.3-.3-.5-.3-1-.6-1.5-.2-.3-.1-.7-.2-1.2-.1-.1-.2-.3-.4-.4-.9-.6-1.5-1.4-1.5-2.5 0-.5-.5-.8-.7-1.4 0-.4-.1-.9-.2-1.5 0-.3 0-.6-.1-.9-.6-1.4-.6-2.9-1.1-4.4-.1-.2-.3-.4-.5-.7-.4-.6-.7-1.2-1.1-1.8-.4-.6-1-1-1.5-1.6-.3-.9-.6-1.7-1.1-2.5-.4-.5-.6-1.1-.8-1.7-.3-1-.8-1.8-1.4-2.7-.4-.6-.8-1.2-1.3-1.6-1.2-1.1-2.1-2.3-2.7-3.7-1.1-.9-2-2-3.4-2.3-.4 0-.8 0-1.2-.1-1.1-.1-2.1 0-3.1.4-.2.1-.3.1-.9-.1 0-.5.4-.8.6-1.3.7-.4 1.4-.8 2-1.5.2-.2.3-.4.4-.5.3-.5.3-1.3-.1-1.7l-.5-.5c-.2-.2-.4-.3-.5-.5.2-.4.4-.7.5-1-.1-.7-.5-.9-1.1-1.1H46c-1 .1-1.9.3-2.9.4-.3.1-.6.1-.9.2-.3.5-.5 1-.6 1.6.1.3.3.6.5.8 1.3.9 2.1 1 2.8 1zm55.7-34.7c-.7.6-1.2 1.2-1.6 1.9-.3.6-.6 1.1-1 1.6-.5.7-.7 1.4-.9 2.1-.1.7.3 1.3 1 1.3.3 0 .6.1 1 0 .6-.1 1.1-.4 1.3-.9.2-.9.7-1.7 1.4-2.4.2-.2.4-.3.6-.4.2-.1.5-.1.7.1.1.6-.1 1.3.7 1.6.5.2 1.1.1 1.6 0 .5-.4.9-1.1 1.8-1.2.2.2.5.3.8.5.5.3 1 .4 1.6 0 .5-.4 1-.8 1.5-1.1.2 0 .4 0 .5.1.8.5 1.7.5 2.5 0l.6-.3c.4-.5.7-1.1 1.2-1.5.5-.4.9-.8 1.1-1.5v-.7c0-.2 0-.3-.1-.5-.1-.6-.7-.9-1.3-.7-.7.2-1.3.6-1.8 1.1-.1.1-.3.1-.4.1-.3-.3-.6-.5-.9-.8h-1.7c-.1 0-.2.2-.4.3-.2.4 0 .9-.3 1.3-.4.3-1 .5-1.5.6-.2-.1-.4-.3-.6-.4-.8-.5-1.3-.5-1.9 0-.8.7-1.5 1.4-2.2 2.1-.9-.5-.6-1.5-.9-2.3-1-.2-1-.2-2.4 0zm-56.7-65.2c.8-1 1.5-1.9 2.2-2.9 0-.1.1-.1.2-.2.7-.2.9-.8 1.3-1.3.4-.4.7-.8 1.1-1.3.7-.8 1.2-1.8 1.7-2.8 0-.7.3-1.3.7-1.9.2-.3.2-.6.1-.9-.2-.4-.4-.9-.6-1.2-.1-.2-.4-.3-.6-.4-.4-.1-.8-.1-1.2-.1-.5 0-.9.3-1 .8-.1.5-.2.5-.6.6-.2 0-.5 0-.7.1-.4.1-.7.3-.9.7.1.4.2.9.2 1.3-.1.3-.2.5-.3.7-.2.3-.4.5-.6.7-.2.2-.4.5-.4.7 0 .7.6 1.2.4 1.8-.5 1.2-1.5 1.8-2.1 2.8-.7 1-1.4 1.9-2.2 2.9.1.7-.3 1.4.2 2.1.2.1.3.2.4.2.2.1.5.1.8.1l1.5-.6c.2-.1.3-.3.5-.5-.1-.3-.1-.8-.1-1.4zm66 83.9c.6.2 1.1.7 1.8.6.2-.1.4-.2.5-.4.4-.8 1-1.4 1.8-1.9.3-.2.6-.5.8-.6.7-1.2 1.1-2.3.4-3.4-.9 0-.9 0-2.4.7-1 .9-1.9 1.8-2.9 2.6h-.2c-.4-.1-.8-.1-1.1-.2-.9.4-1.1 1.5-2.1 1.7-.6-.1-1.1-.6-1.8-.6-1 .3-1.1 1.6-2.2 2.1-.1 0-.3.1-.5.1-.6.1-1 .4-1.5.7-.5.3-.6.8-.3 1.4.1.2.3.4.5.5.3.2.6.3.8.4.8-.1 1.6-.4 2.4-.3.5.2 1 .4 1.6.6.3-.1.6-.2.8-.4 1.4-1 2.7-2.2 3.6-3.6zm.9 11.6c.6.4.7.5.7.9v2.1c0 .4.2.7.6.9l.6.3c.3.1.7 0 .7-.4.2-1.4.4-2.8.6-4.1v-.7c0-.3-.3-.6-.6-.6-.6-.1-1.1 0-1.6.3-.2.1-.3.3-.6.4-.1.1-.3 0-.4 0-.2-.2-.4-.5-.6-.8-.4 0-.8-.1-1.2 0-.5 0-.9.3-1.1.8-.1.3-.2.6-.2.9-.1.8-.1 1.5-.2 2.3-.2.1-.4.2-.6.4 0-.3-.1-.5-.1-.7.3-.8.3-1.7.2-2.5-.1-.4-.4-.7-.8-.8-.1 0-.2-.1-.2 0-.8.2-1.4-.1-2.1-.3-.1 0-.3 0-.5.1-.5.4-1 .7-1.4 1.3 0 .4.1.9.1 1.2-.1.5-.6.7-.5 1.2.1.2.3.4.5.6.3.3.7.6.8.7.9.3 1.5.6 2.1.7.5.1.9.1 1.4-.3.2-.2.4-.3.6-.4.2.3.2.8.6 1 .5.2 1 .3 1.6.1.3-.2.7-.4.9-.7.1-.8.3-1.4.4-2.1 0-.4.1-1 .3-1.8zm-68.4-58.5c-.1-.4-.2-.8-.2-1.1 0-.2.2-.4.6-.3.2.5.4 1 .5 1.5.1.2.2.4.2.7.1.5 0 1.1.1 1.6.1.4.2.9.7 1.2.2 0 .3.1.5.1h.5c.6-.1 1-.6 1-1.1 0-.8 0-1.7-.1-2.5 0-.5-.2-1.1-.3-1.6-.1-.6-.1-1.2-.1-1.7-.1-.2-.1-.3-.2-.3-.5-1-1.3-1.3-2.4-1-.1 0-.2 0-.4.1-.1.1-.3.3-.5.6l-.3-.3c-.2-.2-.3-.4-.4-.5-.2-.2-.6-.3-.9-.2-.8.2-1.5.6-1.8 1.5.4 1.2.2 2.4-.1 3.6.3.5.8.6 1.3.7.8-.2 1.7-.1 2.3-1zM67.9 200c.4.5.3 1.3 1.1 1.6.7-.1.7-.1 1.3-.4.6-1 1.1-1.9 1.6-2.9.1-.2.1-.4.2-.7 0-.5-.1-.9-.1-1.4 0-.1-.1-.3-.1-.4-.3-.6-.8-.7-1.4-.7-.7.1-1.4.4-1.8 1-.5.7-1.3 1.1-2 1.6-.3.2-.7.4-1.1.4-.1-.1-.3-.1-.4-.2-1.5-.8-2-.7-3 .7-.1.1-.1.3-.1.5.4.6.7 1.3 1.1 1.9.2.3.5.6.8.8.3.2.6.3.9.2.9-.3 1.8-.7 2.3-1.5.1-.2.3-.4.7-.5zm-51.8 17.7c.2.2.3.4.5.5.6.3 1.2.3 1.9.1.5-.2 1-.4 1.2-1 .1-.2.3-.3.5-.5.2 1.8.2 2.1-.2 4.2.2.1.3.3.5.4.1.1.3.1.4.1.7-.2 1.3-.5 1.6-1.2.2-.7.5-1.5.6-2.2.1-.7.1-1.4.1-2.1 0-.7-.6-1.3-1.4-1.3h-1c-.1 0-.2-.2-.4-.3v-.9c0-.5 0-.9-.1-1.4-.1-.8-.6-1.2-1.3-1.5-.3-.1-.7-.1-.9.1-.4.3-.6.7-.9 1-.1 1.4.6 2.6.3 3.8-.6.9-1 1.6-1.4 2.2zm20.1-100.9c1.3-.4 2.5-.6 3.6-1.2.4-.3.8-.7 1.3-1.1.1-.3.3-.7.4-1 .2-.5-.1-.9-.6-1.1-.3-.1-.6-.1-.9-.2-.1 0-.3-.2-.3-.3 0-.1.1-.3.2-.4.3-.2.7-.3 1.1-.5.4-.2.9-.4 1.3-.6.1-.1.2-.2.4-.3.2-.5.6-.9.6-1.4-.2-.4-.6-.5-1-.6-1.7-.1-3.3.4-4.9.8-.5.1-.8.7-.6 1.1.2.4.4.7.6 1.1-.1.4-.3.8-.4 1.2 0 .4.4.8 0 1.3-.2.1-.6.3-.9.5-.3.2-.5.4-.7.6-.5.5-.5 1.2 0 1.6.2.1.5.3.8.5zm43.5 64.9c.1.5.3 1 .4 1.5.1 1 .4 2 .6 2.9 0 .1.2.3.2.4.6.5.6.5 1.2.6.5-.2.6-.9 1.2-1 1.7.5 1.9.4 2.7-.7.1-1.7.6-3.2.4-4.7l-.3-.3h-1.4c-.6.3-1 .6-1.6.9-.5-.3-.9-.6-1.3-.8-1-.2-1.5.5-2.1 1.2zm19.5-37c-.7.2-1.5.1-2 .6-.2 1.9-.2 1.9-.8 2.9-.9-.1-.9 0-1.4.1-.7.3-1.3.5-2.1.8-.5.5-1 1.1-1.5 1.7-.1.1-.1.3-.2.4 0 .7 0 1.4.5 1.9.7.4 1.3.4 2.1.1.3-.3.7-.6 1-.9.1-.2.2-.3.2-.5.1-.9.6-1.6 1.3-2.1.3-.2.6-.2.9-.2.5.1.9.6 1.6.5.7-.3 1.1-.8 1.4-1.5.1-.9 0-1.9 0-3-.1-.1-.2-.6-1-.8zm-43.9 60.1c.8-.6 1.5-1.1 2.1-1.6.2-.5.1-.9 0-1.2-.1-.4-.4-.9-.3-1.3 0-.1.1-.2.1-.2.1 0 .3 0 .4.1.1.2.3.4.3.6.1.6.1 1.2.1 1.7 1 1.6 2.7 1 3.3-.3 0-.5.1-1 .1-1.5-.2-.5-.4-1-.6-1.4-.2-.5-.7-.9-1.2-1.1-.4-.2-.8-.2-1.2 0-.5.3-.9.7-1.3 1-.1.1-.3.1-.4.1-.4-.1-.7-.1-.9-.2-.6.3-1.2.3-1.5.8 0 .1-.1.1-.1.2s-.1.1-.1.2v2.5c.4.6.4 1.3 1.2 1.6zm-9.2-98.2c-.3 1.8-.5 3.4-1.1 4.9 0 .9-.4 1.6-.9 2.3l-.6.9c.2 1.2.5 1.6 1 1.8.2-.1.5-.2.8-.2.2-.4.4-.7.6-1 .3-.4.6-.7.9-1 .2-.7.1-1.4.4-2.1.3-.6.4-1.3.8-1.9.4-.7.2-1.5.5-2.2.1-.1 0-.3 0-.4-.1-.1-.1-.3-.2-.4-.2-.4-.5-.6-.9-.6-.3-.2-.7-.2-1.3-.1zm49.4 7.3h1.2c.4-.3.7-.5 1-.7 1-.1 1.9-.2 2.6-1 .6-1.3.9-2.6.9-4.1-.3-.4-.6-.6-1.1-.7-.6 0-1.1.2-1.5.6-.2.2-.3.5-.4.8-.1.5 0 1.1-.4 1.5-.7-.2-1.4-.3-2.1-.2-.5.1-1 .6-1 1.1v.5c0 .8.2 1.5.8 2.2zm-38.6 1.5c-.4-.5-.8-.7-1.4-.8-.6.2-1.3.4-2 .6-.2.2-.3.4-.5.6-.1.2-.3.4-.3.6-.2.9-.4 1.8-.4 2.7 0 1 .2 2 .7 2.9.2.4.3.8.5 1.3.5.2.9.4 1.3.6.6-.2.8-.6.9-1.1 0-.8.1-1.7-.3-2.5-.1-.2-.1-.4-.1-.7 0-.8-.1-1.5.1-2.3.4-.6.9-1.2 1.5-1.9zm3.4 67c-1.3-.3-1.3-.3-2-.1-.7.2-1 .9-.7 1.5.2.3.5.6.7 1 .3.5.7.9.7 1.4-.1.4-.3.7-.3 1 .1.3.2.5.3.8.2.5.5.8 1 .8h2.1c.2-.1.4-.2.5-.2.6-.3.9-.7.9-1.3 0-.5-.1-1.1-.1-1.6 0-.1-.2-.3-.2-.4-.4-.1-.9-.3-1.1-.4-1.1-.8-1.2-1.7-1.8-2.5zm-2.7-65.7c-.2.8-.4 1.8-.4 2.7v.7c.4 1 .2 2 .3 3 .1.7 0 1.4.1 2.1.2.2.4.5.6.7.2 0 .4-.1.5-.1.9-.4 1.3-.8 1.3-1.7v-2.5c0-1.5 0-2.9.4-4.4.1-.2-.2-.7-.5-.7-.6-.1-1.3-.1-1.9 0-.1 0-.2.1-.4.2zm33.9-25.9c-.7-.1-1.1-.1-1.5.1-.7.3-1.4.5-1.9 1 .2.5.3 1 .4 1.3.9 1.4 2.2 1.8 3.7 2.3H94c.8-.1 1.6-.9 1.5-1.8 0-.3-.2-.6-.4-.8-.4-.3-.9-.6-1.5-.7-.8-.4-1.5-.7-2.1-1.4zm-27.2 35.7c0-1.7-.4-3.2-.8-4.7.1-.2.2-.4.2-.6 0-.2.1-.5.1-.7 0-.5-.4-.9-.9-.8-.7 0-1.3.2-1.8.7-.1.4-.3.8-.4 1.3.1.4.2.8.3 1.1.1.4 0 .8.1 1.1.2.6.4 1.2.4 1.8 0 .6 0 1.2-.1 1.8.7 1.2.9 1.2 2.1.7.3-.6.5-1.1.8-1.7zm41.6-5.7c.4.2.5.4.7.5.6.2 1.1.2 1.6-.2.8-.7 1.2-1.6 1.3-2.7.1-1.5-.2-2.9-.8-4.3-.1-.2-.3-.4-.5-.6-.5 0-.9-.1-1.4-.1-.6 0-1.2.7-1 1.3.1.2.1.4.2.7.2.5.4 1 .5 1.5.1.6.2 1.2 0 1.8-.2.3-.4.5-.7.8.1.4.1.8.1 1.3zm-38.3 10.1c.6-.6 1-1.3 1.3-1.9.1-.3.2-.6.2-.9.1-1.4-.3-2.7-.9-4-.1-.1-.2-.2-.3-.4-.6-.6-1.5-.6-2.1 0-.3.3-.6.7-.6 1.2.3 1.2 1.2 2.2 1 3.5-.1.2-.3.3-.5.5s-.5.4-.5.7c0 .3.2.6.4.8.4.3.8.6 1.3.6.2.1.5 0 .7-.1zm10.9 57.8c.3-.6.2-1.2.6-1.8.2-.3.1-.8-.1-1.1-.8-1.4-1.7-2.8-2.7-4.1l-.3-.3c-1.3-.2-1.4-.2-1.8.8-.1.1 0 .3-.1.5.3.7.7 1.5 1.1 2.3.4.8.7 1.5.8 2.4 0 .5.3.8.8 1.3.3.1.8.3 1.2.5.1-.2.3-.3.5-.5zm24.4-73.3h-1.4c-.7.1-1.3.9-.9 1.5.2.3.4.7.6 1 .3.4.6.7.7 1.3.1.4-.3.8-.4 1.3-.2.9.4 1.7 1.3 1.8.5 0 1 .1 1.3-.3.2-.6.5-1.1.6-1.4.2-1.9-.5-3.3-1.2-4.6-.1-.2-.3-.4-.6-.6zm-64.5 35.8-.6.3c-.6.4-.8.9-.7 1.6.1.4.2.7.4 1.1.1.4.2.7.1 1.2-.1.2-.3.6-.4.9-.1.4-.4.8-.4 1.3.1.5.4.8.8 1.1.3.3.8.3 1.1 0 .5-.4 1-.8 1.2-1.1.6-1.5.9-2.8.6-4.4-.2-.4-.4-1-.6-1.5-.5-.3-.9-.5-1.5-.5zm9.5 5.8c-.2.5-.4.9-.5 1.3-.2.6.2 1.1.8 1.2.6.1 1.1 0 1.6-.4.7-.7 1.2-1.5 1-2.5-.2-.8-.4-1.7-.4-2.5v-.9c-.1-.6-.6-1.1-1.3-1.2-.4 0-.8 0-1.2.1-.1.2-.3.4-.4.6-.1.4-.1.8-.1 1.1-.1 1.1.1 2.2.5 3.2zm-4.5.4c.3 1 .9 1.2 1.7 1.1.6-.1 1-.4 1.1-1 .2-1 .2-2 .6-2.9-.1-.5-.3-.9-.4-1.4-.1-.5-.1-1.1-.2-1.5-.1-.2-.2-.3-.3-.5-.5-.5-1.2-.6-1.7-.3s-.8.7-.8 1.3c0 .5.1.9.1 1.4.1.5.2.9.3 1.4.1.7.1 1.4-.3 2 0 0 0 .2-.1.4zm.5 29.4c-.1.4-.3.9-.3 1.3 0 .3.1.6.3.9.5.3 1.1.6 1.7.6.1-.1.3-.1.4-.2.8-1 1-2.1.8-3.2-.2-.7-.4-1.5-.6-2-.4-.6-.8-.9-1.3-1.2-.5-.3-1.1-.3-1.6-.1-.5.2-.8.5-.9 1 0 .6.2 1 .6 1.5.4.3.7.8.9 1.4zm9.9-27.8c.3-.5.2-1 .3-1.4 0-.9.2-1.7.6-2.5.3-.6.6-1.3.8-1.9v-.4c0-.2-.2-.5-.5-.6-.3-.2-.6-.2-.9-.1-1 .3-1.9.7-2.2 1.6-.2 1-.3 1.7-.5 2.5s-.2 1.5 0 2.3c.4.5.8 1 1.6 1.1.2-.2.6-.4.8-.6zm-5.1-24.4c-.1.1-.3.3-.4.5-.5.8-.6 1.5 0 2.1.8.9 1.8 1.8 2.6 2.6.1.1.3.2.4.2.5.3 1.1.3 1.6-.2.2-.3.4-.7.6-1.1 0-.1 0-.1-.1-.2-.3-.2-.6-.4-1-.6-.4-.9-.9-1.8-1.4-2.6-.2-.4-.6-.7-1.1-.7-.3-.1-.7-.1-1.2 0zm60.4 10.8c.2-.8.4-1.4.5-2.1.1-.8 0-1.5 0-2.3-.3-.8-.9-1-1.7-1-.7 0-1.3.2-1.5.9 0 .8 0 1.6-.1 2.3 0 .2-.2.4-.4.5-.1 0-.3.2-.4.3.2.6.6 1.1 1 1.6s.9.6 1.5.5c.3-.1.7-.3 1.1-.7zm-57-28.6c0-1.3-.1-2.6.6-3.7v-.2c.1-.5-.5-1.1-1-1.1-.4.1-.8.1-1.2.3-.7.3-1.2.8-1.2 1.6 0 1-.1 2-.5 3-.1.3 0 .8 0 1 .3.6.6.9 1.1 1.1.2.1.7.1.9-.1l.2-.2c.4-.5.7-1 1.1-1.7zM79 148c-.7-.2-1.2-.4-1.7-.5-.3-.1-.6 0-.9.2-.2.1-.3.3-.5.5-.1.6-.1 1.2-.2 1.7-.3.8-1.1 1.1-1.3 1.7-.1.4-.1.8.2 1.1.4.3.8.5 1.4.5.4-.2 1-.3 1.5-.5.5-.9 1.4-1.5 1.7-2.7v-.5c0-.4-.1-.8-.2-1.5zm-34.7-41.6c.2-.2.3-.3.4-.5.5-.9.3-1.3-.7-1.5-.4-.1-.8-.2-1.2-.2h-3.6c-.5 0-1.1.3-1.6.5-.1 0-.3.2-.3.3-.3.8.4 1.9 1.2 1.9.9 0 1.8-.2 2.6-.1 1.1.1 2.1 0 3.2-.4zM57 184.7c-.3-1-.8-1.8-1.5-2.5-.6-.5-1.3-.6-2-.4-.7.2-1.1 1-.7 1.7.3.5.6.9.9 1.3.1.2.2.4.3.5v.3c-.1.1-.2.3-.2.4-.3.7 0 1.5.8 1.6.5.1 1 .1 1.4.1.1 0 .3-.1.5-.2.2-.3.3-.6.5-.9-.1-.4-.1-.7-.2-1 .1-.2.2-.6.2-.9zm-42.5 29.1c.3-1.6 1.3-3 1.4-4.6-.1-.3-.2-.5-.3-.7-.4-.8-1.8-1-2.5-.4-.2.1-.3.4-.4.6-.1.1-.1.3-.1.5.1 1-.2 1.8-.7 2.6l-.3.6c0 .4.2.7.4.9.7.2 1.3.7 2.5.5zM94 119.2c-.6-.5-1.2-.6-1.8-.2-.1.1-.3.2-.4.2-.4.3-.6.7-.5 1.2.1.6.4 1.2.5 1.8.2 1 .8 1.8 1.8 2.4.3 0 .6 0 .9-.2.3-.1.6-.3.8-.5.3-.3.4-.7.4-1.1-.1-.5-.3-1-.5-1.5-.4-.7-.9-1.4-1.2-2.1zM75.6 95.5c-.1.4-.2.8-.2 1.3.2.9 0 1.8 0 2.8v.7c.1.2.2.4.4.5.3.2.6.2.9.1.5-.1.9-.3 1.3-.7.1-.5.3-1.1.4-1.7.2-.7.2-1.4 0-2.1-.1-.4-.3-.9-.5-1.3-.1-.3-.4-.4-.8-.5-.4.2-1 .4-1.5.9zm10.5 30.7c1.1.4 1.9.3 2.5-.4.4-1 .7-2 1.1-2.9.2-.5.2-1.1-.1-1.6-.3-.4-.6-.7-1.2-.7-1.2.5-1.2.6-1.6 1.2-.6.9-.7 2-1.2 3v.4c.2.3.3.7.5 1zm-37.7 60.2c.1.7.2 1.4.3 2.2.6.5 1.3.6 2 .6.4 0 .8-.4.9-.7.2-.7.2-1.4.1-2.2-.3-.6-.6-1.4-1-2.2-.2-.4-.6-.5-1-.5-.5 0-.9.1-1.4.4-.5.3-.7.9-.5 1.4.1.3.4.6.6 1zm1.6-17.5c-1.2-.7-2.6-.5-3.7-1.1-.1-.1-.3 0-.5 0-.2.2-.5.3-.7.5-.9.8-.7 2 .7 2.5.8.3 1.7.4 2.5.6.5.1 1 .1 1.4 0 .2 0 .3-.1.5-.1.1-.1.2-.2.3-.4.1-.1.1-.3.1-.5-.2-.4-.4-1-.6-1.5zm37.5-71.2c.9-.7 1-1.5.8-2.5-.1-.6-.3-1.2-.4-1.8-.1-.3-.1-.6-.2-.9-.2-.6-.7-.9-1.3-.7-.5.2-1.1.3-1.5.6-.5.7-.4 1.3.2 1.9.2.2.4.5.4.8l-.3.9c.2.6.5 1.1.7 1.6.5.4 1 .3 1.6.1zm13.9 47.4c-.1.2-.2.3-.2.4-.3.8-.2 1.3.3 1.6.5.3 1.3.3 1.8-.1.2-.1.4-.3.5-.5.2-.2.4-.5.5-.7.1-.7.3-1.3.4-1.9-.3-.4-.5-.9-.9-1.3-.3-.4-.8-.7-1.4-.7-.4 0-.8-.1-1.2.1-.3.2-.6.5-.6 1 .2.6.5 1.3.8 2.1zm-53.5 74.5c0 .5 0 1 .1 1.4 0 .2.3.4.4.5.6.2 1.1.3 1.7 0 .5-.5.7-1.2 1-1.8.1-.9.2-1.9 0-2.8 0-.3-.2-.6-.5-.8l-.6-.3c-.4-.2-.8-.2-1.1 0-.4.2-.9.4-1 1 .1.5.3 1.1.5 1.7-.2.5-.3.8-.5 1.1zm27.6-108.7c-.4-.5-.8-.7-1.2-.9-.2-.1-.4-.2-.7-.2-.6-.1-1.1.2-1.3.8-.2.5-.2 1.1-.1 1.6.1.7.2 1.3.1 2 0 .2.2.4.3.6.7.2 1.4.4 2.1.5.3.1.7-.2.7-.5 0-1.2.1-2.5.1-3.9zm24.1 11.9c.6-.4.9-1 .9-1.8-.4-.9-.8-1.9-1.5-2.8-.5-.6-2-.7-2.6-.1-.3.3-.4.7-.3 1 .5 1.1.9 2.2 1.4 3.3.7.6 1.4.5 2.1.4zM84.4 96.1c-.5-.5-.8-1-.9-1.7 0-.4-.3-.7-.6-1-.6-.4-1.2-.5-1.8-.2-.4.1-.7.4-.8.8 0 .3-.1.7 0 .9.4 1 .6 2.1 1.1 3.1l1.5.3c.1-.1.2-.1.2-.1.4-.6 1-1.2 1.3-2.1zm29.5 20.9c0-.6 0-1.3-.1-2-.4-.7-.9-1.4-1.6-1.9h-1.6c-.5.4-.5 1-.5 1.6.1.3.4.7.5 1.2.1.5.1 1 .2 1.6.7.2 1.3.5 1.9.7.5-.3.9-.7 1.2-1.2zm-91.6 51.8c-.8.5-1 1-.8 1.6.4 1.2.9 2.3 1.3 3.5.2.4.5.8 1.1.9.2-.1.5-.3.7-.5.1-.7.3-1.3.4-1.9-.4-.8-.4-1.6-.4-2.5 0-.6-.4-1-1-1-.4-.1-.9-.1-1.3-.1zm69.4 16c.1-.6.1-1.2.4-1.8.1-.2.1-.4.1-.7 0-.4-.2-.8-.6-.9-.5-.2-.9-.2-1.5 0-.3.2-.7.5-1 .8-.5.4-.8 1-.8 1.6.2.6.6 1.2.6 2 0 .1.1.1.1.2.1.2.5.4.8.4.3 0 .6-.2.8-.4.4-.2.7-.6 1.1-1.2zm-14.2-70.5c.7.6 1.5.8 2.3.7.6-.1 1.2-.6 1.3-1.2.2-1 .1-2 0-3 0-.2-.2-.4-.4-.5-.4-.4-1-.5-1.6-.5-.3 0-.6.2-.8.4-.3 1 .2 2 .2 3-.3.3-.6.6-1 1.1zm-32 105c.5-.4.7-1 .9-1.6.1-1.1-.2-2.1-.8-3.1-.8-.5-1.5-.2-2.2.2-.2.1-.3.4-.4.6 0 .4-.1.8.1 1.1.4.7.3 1.5.6 2.1.5.7 1.2.8 1.8.7zm12.1 4.4c-.1-.7-.1-1.4-.2-2.1-.2-1-.5-1.4-1.6-1.3-.2 0-.5 0-.7.1-.7.4-1 1-.9 1.8.1.9.3 1.7.6 2.5.1.2.5.4.8.4.8-.2 1.5-.6 2-1.4zm45.3-14.6c-.1 1.1.1 2 1 2.8.3.1.8.3 1.2.3.6.1 1.1-.1 1.4-.6-.3-.5.2-1 .1-1.6-.2-.3-.4-.6-.7-.9 0-.2 0-.5-.1-.7-.1-.3-.3-.6-.6-.6-.5-.1-1.1-.2-1.6.1-.1 0-.2.1-.2.1-.2.4-.3.8-.5 1.1zM96.2 90.9c.2.6.6 1.1 1.1 1.5.8.6 1.7.8 2.7.4l.9-.3c.1-.1.3-.3.3-.4-.1-.8-.2-1.5-.9-2.1-.6-.1-1.3-.2-2.1-.2-.3 0-.6 0-.9.1-.8 0-1.1.4-1.1 1zM24.3 223.5c.6-.2 1.1-.4 1.6-.7.3-.1.5-.4.5-.7.1-.9.2-1.8.2-2.8 0-.3-.2-.6-.5-.7-.5-.3-1.1-.3-1.6-.1-.1.1-.3.2-.4.3-.3.3-.5.7-.4 1.1.1.5.2 1.1.3 1.7-.2.4-.4.9-.6 1.3.1.3.4.5.9.6zm50.2-58.1c0 .9-.1 1.7-.1 2.6 0 .1.1.3.1.4.3.4.7.7 1.1.9.3.2.7.1.9-.1.3-.4.6-.8.7-1.2.2-.6.3-1.3.5-2-.7-1.4-1.3-1.7-2.6-1.1-.2.2-.3.3-.6.5zm-6.4 19.4c-.6-.7-1-1.3-1.5-1.9-.1-.2-.4-.3-.6-.3-.6-.1-1.1.1-1.5.5-.4.3-.7.6-.6 1.2.4.6.8 1.3 1.2 1.8.6.4 1.1.8 1.8.7.7-.4.9-1.1 1.2-2zm8.6-55.6c.8.1 1.3 0 1.8-.3s.8-.7.7-1.3c0-.2-.1-.4-.2-.8-.6-.6-1.3-1.2-2.5-1.2-.4.3-.9.6-1.3.9-.2.1-.2.4-.3.6.1.5.1 1 .6 1.4.5.2.9.5 1.2.7zm-51.4 99.4c.6.1 1 .2 1.5.2s.9-.2 1.2-.7c.2-.3.1-.9-.2-1.3-.6-.6-1.1-1.3-1.8-1.7-1-.2-1.6.3-2.2.8-.2.3-.3.6-.2.9l.3.6c.5.3.9.7 1.4 1.2zm35-71.8c.1-.7.2-1.3.3-1.8-.1-.5 0-1-.4-1.4-.6-.4-1.2-.3-1.9-.2-.7.1-1 .5-1 1.1.1.8.2 1.5.1 2.3-.1.6.7 1.1 1.4.8.6-.1 1-.4 1.5-.8zm42.3-50.4c.2.7.5 1.2.9 1.7.3.4 1 .5 1.5.2.2-.1.4-.3.5-.5.2-.6.4-1.3.6-1.9 0-.1 0-.3-.1-.4-.4-1.2-1.8-1.5-2.7-.9-.3.2-.5.4-.5.7 0 .2-.1.6-.2 1.1zm-34.2 55.2c.7-.3 1-.9 1.2-1.5-.2-.6-.4-1.3-.6-1.9-.1-.2-.3-.3-.5-.4-.8.3-1.5.7-2.1.9-.3.7-.8 1.2-.9 1.9.1.3.4.5.7.6.7.2 1.4.3 2.2.4zm2.2 48.9c.8-.6.8-.6 1.2-2-.2-.3-.5-.7-.8-1.1-.2-.2-.5-.4-.8-.4-.4 0-.8-.1-1.2 0-.3 0-.6.2-.7.5-.2.4-.3.9-.5 1.3 0 .1 0 .3.1.5.6.4 1.3.8 2 1.1.2.1.5.1.7.1zm-32.9 4.6c.3 1 .6 1.9 1.2 2.6.2.3.7.4 1.1.3.3-.1.6-.2.8-.4.3-.3.7-.7.7-1.3-.2-.4-.4-.9-.6-1.3-.6-.4-1.1-.6-1.6-.7-.3-.1-.6-.1-.9 0-.3.2-.5.4-.7.8zm16.6 12.4c-.1.6-.2 1 .1 1.5.6.3 1.2.6 1.9.7.6.1 1.1-.1 1.4-.7.3-.6.4-1.2.1-1.9-.3-.2-.7-.5-1.1-.7h-.4c-.4.5-1.3.4-2 1.1zm33.1-33.8c-.3-.3-.5-.6-.7-.8-.5-.5-1.1-.6-1.8-.5-.5.1-.8.5-.9.9-.1.8.2 1.5.9 2 .9.6 1.5.4 1.9-.5.3-.2.4-.5.6-1.1z"/>
    <path class="st1" d="M44 58.2c-.4-.1-.7-.3-1.1-.4-.5-.1-1-.2-1.4 0-.5.3-1.1.3-1.6.3-.6 0-.6 0-1.5.6-.2.3-.2.6-.2.9 0 .2-.1.4-.1.7-.6-.1-1.1-.1-1.7.1-.5.1-1 0-1.3-.3-.2-.6-.1-1.2-.5-1.7-.3-.4-.1-.9.2-1.3.7-.9 1.3-1.8 2.2-2.5.5-.5.7-1 .8-1.7-.2-.5-.5-1-.8-1.6.3-1.1 1.6-1.5 1.8-2.4.3-1-.2-1.8.1-2.6.2-.5.7-.6 1.1-.9.7-.4.9-1 .9-1.8 0-.2 0-.5-.1-.7-.3-.6-.4-1.3-.3-2 0-.6-.1-1.2-.4-1.8-.3-.6-.5-1.3-.9-1.9-.9-1.4-1.3-3-1.9-4.5-.1-.4-.2-.7-.2-1.1 0-.3 0-.6-.2-.9-.6-.9-.7-1.9-.7-2.9 0-1.3-.1-2.6-.1-3.9 0-.8 0-1.5-.4-2.3-.2-.6-.1-1.2 0-1.8l.3-.9v-2.3c.5-1.1.8-2.2 2-2.7.6.1 1 .2 1.6.3 1 .6 2.2 1.2 3.2 1.9.8.6 1.6 1.3 2.2 2.1.8 1.1 1.7 2 2.4 3.2.2.3.4.5.6.7.9 1.1 1.9 2.1 2.8 3.2.9 1.1 2 1.7 3.3 2.3.3.2.8.2 1.2.2.6.2.8 1 1.5 1.1h.2c.5-.1 1.1-.3 1.6-.4.9-.5 1.7-1.2 2.2-2.1.1-.1.2-.3.3-.4.1-.1.3-.1.4-.1.1 0 .3.2.3.3.1.4.2.9.3 1.4.2.2.5.4.7.6.6.4 1.2.5 1.8 0 .1-.1.3-.2.4-.3.5-.6.7-1.4 1.3-1.9l.5-.5c.2-.2.9-.3 1.1-.1.4.3.8.7 1.3 1.1.5.2 1 .4 1.5.5.4.1.8.1 1.2.1.3 0 .6-.1.9-.4.3-.3.6-.7.9-1.1.2-.2.4-.2.6-.3.2.1.4.2.6.4.4.3.7.6 1.1.9 1.6 1 2.6.9 4.1-.4.2-.2.4-.3.5-.4.7-.2 1.3.1 2 .3.4-.1.8-.3 1.2-.4.5-.5.4-1 .5-1.4.1-.5-.1-.9-.5-1.2-.2-.1-.4-.3-.4-.3-.3-.7-.2-1.1 0-1.5.3-.7.6-1.4 1-2.1.4-.6.7-1.2 1-1.8.4-.9.8-1.7 1.4-2.4.7-.9 1.3-2 1.9-3 .6-.9 1.5-1.7 2-2.6.1-.2.2-.4.4-.6 1.4-1.3 2.4-3 4.3-4.2.3-.2 1.1-.5 1.7-.8.6 0 .7.5 1.1.7.3.1.8.3 1.3.5.3-.1.7-.2 1.1-.2.7.2 1 .8 1.2 1.3.3 1 .6 1.9.6 2.9v2.8c0 2.2.1 4.5.1 6.7 0 2-.1 4-.2 6-.1.9 0 1.8-.3 2.8-.3 1.2-.6 2.4-1 3.6-.2.7-.5 1.3-.8 2.1-.6.5-1.2 1-1.9 1.6-.3.6 0 1.2.2 1.8.4.7 1.4 1 1.9 2.3 0 .1.1.6.2 1.1.1.5.2.9.3 1.4 0 .9.4 1.6 1 2.3.7.8 1.4 1.5 1.9 2.4.1.5 0 .9-.2 1.3-.4.7-.8 1.3-1.3 2 0 .4 0 .9.1 1.3.3.7.7 1.4.9 2 0 .5-.2.7-.4.9-.5.4-.9.8-1.3 1.2-.4.6-.2 1.2-.4 1.7-.1.4-.4.9-.2 1.4.2.2.5.3.8.5.2.5.3 1 .8 1.4.3.2.5.6.4 1-.3.3-.6.2-.9.2-.8.1-1.3.5-1.5 1.3.1.7.4 1.3.7 2 .3.8.4 1.7.1 2.4-.3.5-.8.8-1.2.8-.8.1-1.3.5-2 .9-1.3 0-2.6.4-3.9.4-.7 0-1.4.3-2 .7-.3.3-.3.7-.2 1.1.1.6.5 1 1.1 1.1 1 .1 1.9.1 2.8-.3.5-.2.9-.2 1.4 0 .1.4-.1.6-.4.7-1.3.1-2.7.4-4.3.2-.4.1-1.1.3-1.7.5-.6.2-.7 1.2-.2 1.6.3.3.6.5 1 .6.2 0 .5 0 .7.1.2 0 .3.1.5.1 0 .8.4 1.6.1 2.4-.2.4-.6.5-1 .6-.3.1-.6.3-.9.4-.3.2-.6.5-1.1.5-.8-.4-1.5-1-2.5-.9-.2.1-.6.3-.9.6-.1.4-.1.8-.2 1.1 0 .2-.2.3-.4.2-.4-.1-.7-.3-1.1-.4-.2 0-.4 0-.5.1-.4.2-.9.4-1.3.6-.3.3-.7.6-1 1-1 1.1-.9.8-1 2.5-1.2 1.3-2.9 2.4-4.8 3.3-.5.2-1 .4-1.6.5-.4 0-.8.1-1.2.2-1.7.6-3.4.2-4.9-.5-1-.5-2-.9-2.9-1.6-.6-.5-1.4-.8-2.2-1.2-.1-.2-.3-.4-.5-.7-.1-.2-.3-.4-.4-.5-.4-.3-.8-.3-1.2-.3-.5 0-1 .1-1.4.1-.5 0-.8.5-1.6.3-.5-.2-1-.7-1.1-1.5-.1-.8-.6-1.2-1.3-1.6-.1-.3-.2-.7-.4-1-.1-.2-.3-.4-.5-.5-.3-.2-.6-.3-.9-.2-1 .4-2.1.8-2.8 1.7-.5.5-.9.3-1.2-.5.1-.1.3-.3.5-.4.6-.5.6-1.1 0-1.5-.4-.2-.7-.4-1.1-.3-.5 0-1 .1-1.4.2-1 .2-2 .5-3 .7-.1 0-.3-.1-.4-.1 0-.1 0-.3.1-.4.2-.2.4-.3.6-.4.4-.2.8-.5 1.3-.8.9-.4 2-.4 2.9-1 .5-1 .8-2 .3-3.1.3-.1.5-.1.7-.2.8-.1 1.3-.5 1.5-1.3-.3-.8-1.2-1-1.4-1.6-.7-.5-1.2-.5-1.6-.5l-.9.3c-.4.3-.6.7-.8 1.1.5 1.2.5 1.2 1.6 1.9-.1.1-.2.3-.3.3-1.4.6-2.6 1.4-3.9 2.3-.3.2-.7.3-1.1.5-.2.1-.7-.2-.7-.5 0-.5-.1-.9.1-1.4.1-.3.3-.6.2-1-.1-.5-.6-.8-1-1.1-.3-.2-.6-.3-.9-.2-.4.1-.8.1-1.3.2-.3-.2-.6-.3-.9-.6-.9-.9-1.3-1.3-.2-2.5.4-.5.8-1 .9-1.7-.1-.2-.2-.5-.3-.8-.1-.1-.2-.3-.3-.4-.4-.3-.8-.2-1.1-.1-.5.2-1 .5-1.4.9-.2.2-.4.3-.6.3h-.2c-.1-.1-.2-.3-.2-.4.3-1.1.8-2.2 1.3-3.2.3-.5.6-.9 1.2-1.2 1.6.2 3.2 1 5.1.8.4-.4 1-.8 1.6-1.3.4.1.7.1 1 .1.5-.4 1.1-.7 1.6-1.1.2-.7.2-1.4 0-2.1-.3-1-.9-1.8-2.1-2.1-.2.1-.4.1-.6.2-1 .7-1.1.9-1.1 2zm29.4-26.8V30c0-.3-.1-.6-.3-.9-.3-.2-.7-.4-1-.5-.4-.2-.8-.1-1.2 0-.3.2-.7.4-.9.7-.3.4-.4.8-.2 1.3s.6.7 1.1.8h.7c.6 0 1.2-.1 1.8 0-.2.5-.6 1-.8 1.5.1.2.1.4.2.5.4.7.8 1.3.9 2.1 0 .4.3.7.7.9.4.1.8.1 1.4.2 0 .1.1.3.3.4.2.2.4.3.5.4.8.1 1.3-.2 1.6-.8.2-.3.3-.7.5-1v-1.4c0-.7.1-1.4.1-2.1 0-.7-.5-1.2-1.2-1.2-.3 0-.6 0-.9.1-.4.1-.7.3-1 .4-.9-.1-1.6-.3-2.3 0zm21.2 1.8c.7-.4 1.5-.4 2.2-1.1.1-.4.2-.9.4-1.4.2-.6.6-1.1.9-1.7.6-1.3 1-2.6.9-4 0-.8 0-1.5-.1-2.3 0-.3 0-.6-.1-.9-.4-1-.3-2-.6-2.9.9-2.3 1-4.5 0-6.7-.9-.9-2-1-3.3-.7-.4.3-1 .8-1.5 1.2-.3.7-.6 1.3-1.1 1.8-.4.4-.8 1-1.1 1.5-.6.9-1.1 1.9-1.6 2.8-.2.4-.5.8-.6 1.3-.2.9-.7 1.6-1 2.4-.5 1.3-1.2 2.3-2.4 3.1-.2.5-.4 1-.5 1.6-.1.5 0 .9.4 1.3.3.3.7.6 1 1 .6.1 1.1.1 1.6.2 1-.6 2-.7 3.1-.7.3.1.5.3.8.4.3 1 .6 1.9.9 2.9.3.2.5.5.7.6.3 0 .6.1 1 .3zM70.8 69.4c-.9-.2-1.5-.8-2.2-1.5-.3-.8-.6-1.6-1-2.5-.2-.5-.6-.9-1.1-1.1-.2-.2-.5-.3-.6-.3-.5.1-.9.4-1.3.6-.6.3-.7.8-.7 1.4.3.6.7 1.3 1 2 .4.8.5 1.6 1.1 2.3.5.3.9.6 1.4.9.3.2.5.4.6.5.5 1.6.1 2.9.1 4.3-.1.3-.3.6-.4.9-.2.8-.7 1.4-1.6 1.8-.7 0-1.5 0-2.2.1-.6.3-1.1.6-1.4 1.1.4 1 .4 1 2 2.1 1 .3 1.9-.3 2.8-.6.7-.6 1.5-1.1 2.2-1.7.3-.5.6-1 1-1.4.4-.5.4-1.2.7-1.7.1-.2.5-.2.6 0 .2.2.4.3.5.5.6 1 1.4 1.7 2.5 2.1.8.1 1.7.1 2.7-.1.4-.3 1-.5 1.4-.9.7-.7 1.6-1.1 2.5-1.4.1-.1.2-.2.3-.4-.1-.5.1-1-.2-1.5-.4-.7-1.1-.9-1.9-.6-.5.2-.9.4-1.4.6-.6.7-.9 1.8-2.2 2-.4-.3-1-.3-1.5-.9-.3-.7-.6-1.6-.9-2.4-.2-.4-.4-.6-.8-.8-.2-.1-.4 0-.5-.3 1.2-.5 1.8-1.5 2.5-2.4.4-1 .7-1.9 1.1-2.9.2-.5-.1-1.2-.5-1.4-.5-.3-1-.6-1.4-.8-.1-.1-.3 0-.5 0-.4.6-1.1.9-1.3 1.7 0 .4.1.8.1 1.3-.5.5-.7 1.2-1.5 1.4zM59.1 44.9c-1.1-.2-2.2 0-3.2 0-.8 0-1.6.3-2.3.7-.3.1-.5.4-.8.5-1.4.5-2.1 1.5-2.7 2.8-.6 1.4-1 2.8-.8 4.3v.5c-.1 1.4.3 2.7.9 4 .5.3.9.6 1.4 1 .8.6 1.6 1 2.6 1.2.7.2 1.4.4 2 .9.2.2.6.2.8.3 1.5-.3 2.9-.5 4.2-1.3.3-.5.5-1.1 1-1.5.9-.7 1.7-1.6 2-2.8.1-.3.3-.5.5-.8.2-.4.4-.7.4-1.1 0-.6.2-1.2.3-1.8.1-.7 0-1.4-.3-2-.7-1.4-1.7-2.6-3.2-3.3-1-.8-2-1.2-2.8-1.6zm27.3 11.8c.4-.4.6-.7.9-1 .3-.4.6-.7.8-1.1.6-1.1 1.1-2.2 1.6-3.4.5-1.5.8-3 .3-4.5-.1-.3-.1-.6-.2-.9-.8-.7-1.5-1.5-2.1-2.1-.8-.4-1.4-.7-2.1-1.1-.3-.1-.7-.1-1.1-.3-1.7-.6-3.3-.1-4.9.5-.5.2-1 .5-1.4.9-.8.8-1.6 1.5-2.2 2.5-.2.7-.4 1.4-.5 2-.2 1.8.3 3.3.4 4.8.1 1.6.9 2.8 2.3 3.6.5.3 1 .7 1.5 1.1.4.1.7.2 1.1.3 1.5.5 2.9.3 4.2-.4.4-.2.9-.6 1.4-.9zM40.7 18.9c-1.4 0-1.4 0-2.1.6-.3.3-.6.5-.8.8-.1.5-.3 1-.3 1.4-.3 1.9-.3 3.8.5 5.7.4.9.7 1.9 1 2.8.2.5.4 1 .7 1.4.4.5.8 1 .8 1.6.1.9.6 1.8.8 2.7 0 .1.2.2.3.3 1.2.3 2.2 0 3.2-.6.3-.2.5-.4.6-.7.1-.4.2-.7.3-1.1.1-.3.2-.6.7-.8.3-.1.8-.1 1.3-.2 1-.2 1.6-.7 1.8-1.6.1-.3.1-.6.2-.9-.3-1-.7-1.9-1-2.9-.1-.3-.3-.6-.4-.8-.7-.9-1.2-1.8-2.1-2.5-.2-.2-.5-.4-.6-.7-.4-.6-.9-1.1-1.4-1.6l-1.5-1.5c-.6-.5-1.2-1-2-1.4zm24.6 16.7c.2-.8.4-1.7.8-2.4.1-.1.1-.3.1-.5 0-.3-.1-.6-.3-.8-.7-.6-1.5-.8-2.5-.6-.6.1-1.1.6-1 1.1.1 1.3-.2 2.4-.8 3.6 0 .1-.1.1-.1.2-.1.4-.3.9-.4 1.3.3.6.5 1.2.3 2-.2.1-.5.3-.8.4-.6.3-.8.9-.8 1.6 0 .2.1.5.1.7.1.4.2.8.4 1.1.3.5.4 1.2.9 1.6.6.3 1.1.1 1.7 0 .6-.2 1.1-.8 1-1.4-.1-.4-.2-.7-.3-1.2.1-.3.1-.6.2-.9-.1-.5-.2-.9-.3-1.4.4-.8.8-1.7 1.3-2.5 0-.1.2-.1.3-.2 0 0 .1.1.1.2 0 .6.1 1.2.1 1.8.3.5.6.8 1.1.9.5.1.9.2 1.4.4.4.2.9.4 1.4.4.5-.1.9-.3 1.3-.6.2-.3.3-.7.6-.9.6-.2 1.1-.3 1.6-.6.4-.2.6-.5.7-.9.2-.8.1-1.5-.3-2.3-.4-.8-1.6-1-2.2-.4-.2.2-.4.5-.5.8-.1.3-.2.6-.5.7-.7-.6-1.2-1.4-2.5-1.5-.4.2-.9.4-1.4.6-.3.1-.6-.1-.7-.3zm28 20.6c-.1.5-.1.9.1 1.2.4.7.9 1.3 1.7 1.6h.5c.5-.2 1-.5 1.4-.7.9-.1 1.9.1 2.4-.9-.3-.9-.7-1.8-1.1-2.8-.1-.2-.3-.3-.5-.5-1.2.1-2.3.8-3.4 1-.1 0-.1.1-.3.2-.3.3-.6.6-.8.9zm1.4 6.4c-.2.3-.4.5-.5.8-.6 1.3-.6 1.5.7 2.5.3.2.5.4.7.6.2.1.4.2.7.3.5-.3 1-.5 1.5-.8.2-.1.4-.3.5-.5.3-.6.6-1.3-.1-2.1-.7-.3-1.4-.7-2.2-1.1-.5.1-.9.2-1.3.3zM49.3 41.1c.7 1.1 1.8 1.7 2.9 2.2.3.2.8.1 1.2.2.4 0 .8-.3.8-.7v-.5c-.1-1.2-.8-2.1-1.8-2.9-.1-.1-.3-.1-.4-.2-.7-.2-1.4-.2-2 .3-.2.5-.4 1-.7 1.6zm-4 27.1c.5-.1 1.1-.3 1.7-.5.1 0 .3-.3.2-.4-.2-.7-.3-1.4-.7-1.9-.6-1-1.5-1.5-2.6-1.1-.6.2-1.1.6-1.3 1.3.1.6.2 1.2.5 1.7.8.4 1.5.6 2.2.9zm6.2-2c-.1-.7-.3-1.3-.4-1.8-.8-.9-.8-.9-1.7-1-.6.3-1.4.4-1.6 1.3.1.3.3.6.4 1 .1.4.2.9.3 1.3.8.9 1 1 1.6 1 .4 0 .8 0 1.1-.4 0-.1.1-.3.2-.4 0-.3 0-.6.1-1zm30-26.4v-.5c-.2-.5-.3-1-.5-1.5-.3-.8-.8-1.1-1.7-.8-.4.1-.8.3-1 .6-.3 1.4-.3 1.9.2 2.9.2.6.7.8 1.3.8.2-.1.3-.1.5-.2s.4-.2.7-.4c.2-.2.4-.5.5-.9zm17.6 5.9c.7-.3 1.4-.6 1.8-1.4 0-.3 0-.7-.1-1.1-.1-.5-.7-1-1.2-1-.6 0-1.3 0-1.9.3-.7 1-.7 1-1 2.3.2.4.5.6.9.7.6.2 1.1.2 1.5.2zm-26.7-.8c-.1-.3-.1-.6-.2-.9-.4-.8-1-1.1-1.9-1.1-.7.1-1.2.5-1.2 1.2 0 .5 0 .9.2 1.3.1.4.6.7 1.1.6.7-.1 1.4-.3 2-1.1zM45.9 241.1c0 .5.1.7.1.9 0 .2 0 .5-.1.7-.1.1-.2.2-.3.4-.5.1-1 .1-1.4-.2-.2-.4-.5-.9-.7-1.4-.5-.4-1.2-.4-1.8-.4-.5 0-1 .1-1.3.5-.2 1 0 2.2-.5 3.1-.3.3-.6.4-.9.5-.8.1-1.6.1-2.4.2-.5-.1-1.1-.3-1.6-.5s-.9-.5-1-1c-.1-.7-.5-1.3-.8-2v-2.5c.3-.9.6-2 1-3.1 1.2-.7 2.5-1.1 3.4-2.1 1.4-.8 2.7-1.6 4.4-1.5.8.1 1.6-.1 2.4-.3.5-.1 1-.1 1.4-.1 1.3.4 2.5.9 3.7 1.6.2.3.5.6.9 1 .1.3.1.7.2 1.1.5 1.3.4 2.7.3 4.1 0 .1-.2.2-.3.4-1-.2-1.7-.8-1.9-1.8 0-.2 0-.3-.1-.5 0-.1-.1-.3-.2-.5-.2-.1-.4-.3-.7-.4-.4-.1-.8-.2-1.1-.2-1 .4-1.4 1.1-1.5 2-.3.8.2 1.5.8 2z"/>
    <path class="st2" d="M94.4 79c.2-.7.7-1 1.1-1.4.4-.3.9-.4 1.4-.3l.6.3c.9.7 1.9 1 3.1 1.1 1.4.1 2.8.5 4.1 1.1.2.1.4.3.4.5 0 .1-.3.3-.6.3-1 0-1.9 0-2.9-.3-.2-.1-.5-.1-.7-.1-1.5 0-3-.5-4.5-.6-.6-.1-1.3-.3-2-.6zM48.7 82.5c-1.3 1.7-2.8 2.7-4.3 3.9-.1-.1-.3-.2-.3-.3 0-.1 0-.3.1-.4.8-.8 1.4-1.8 2.2-2.7.2-.6-.1-1.2-.2-1.8.1-.4.5-.6.9-.6.2 0 .4.1.6.2.1.1.2.2.3.4.2.4.4.8.7 1.3zM45 200.4c0-.1 0-.3.1-.4.2-.2.4-.3.6-.4.1.1.2.2.2.3 0 .1-.1.3-.2.3-.3.1-.5.1-.7.2zM44 58.3c.2 0 .3 0 .4.2v.4c-.1.1-.2 0-.3-.2-.1-.2-.1-.3-.1-.4z"/>
    <path class="st0" d="M100.6 165.6c1.4-.2 1.4-.2 2.1.3.3.8 0 1.7.9 2.3.7-.7 1.5-1.4 2.2-2.1.6-.6 1.2-.6 1.9 0 .2.1.4.3.6.4.6-.1 1.1-.3 1.5-.6.4-.4.2-.9.3-1.3.1-.1.2-.3.4-.3h1.7c.3.3.6.5.9.8.1 0 .3 0 .4-.1.5-.5 1.1-.8 1.8-1.1.6-.2 1.2.1 1.3.7 0 .2 0 .3.1.5v.7c-.2.6-.6 1.1-1.1 1.5-.5.4-.8.9-1.2 1.5l-.6.3c-.8.5-1.6.5-2.5 0-.1-.1-.3 0-.5-.1-.5.3-1 .7-1.5 1.1-.5.4-1 .3-1.6 0-.3-.2-.5-.3-.8-.5-.8.1-1.2.8-1.8 1.2-.6.1-1.1.2-1.6 0-.8-.4-.5-1.1-.7-1.6-.2-.2-.4-.2-.7-.1-.2.1-.4.2-.6.4-.7.7-1.2 1.4-1.4 2.4-.1.6-.7.9-1.3.9h-1c-.7-.1-1.1-.7-1-1.3.2-.8.4-1.5.9-2.1.4-.5.7-1 1-1.6.7-1.1 1.2-1.6 1.9-2.2zM43.9 100.4v1.6c-.2.2-.3.4-.5.5l-1.5.6c-.3-.1-.5-.1-.8-.1-.1 0-.3-.1-.4-.2-.5-.7-.1-1.5-.2-2.1.8-1 1.5-1.9 2.2-2.9.7-1 1.7-1.6 2.1-2.8.2-.6-.4-1.1-.4-1.8 0-.2.2-.5.4-.7.2-.2.4-.5.6-.7.1-.2.2-.4.3-.7-.1-.4-.2-.8-.2-1.3.2-.4.5-.6.9-.7.2 0 .5 0 .7-.1.4-.1.4 0 .6-.6.1-.5.5-.8 1-.8.4 0 .8 0 1.2.1.2 0 .5.2.6.4l.6 1.2c.1.3.1.6-.1.9-.4.6-.7 1.2-.7 1.9-.5 1-1 1.9-1.7 2.8-.4.4-.7.8-1.1 1.3-.4.5-.7 1.1-1.3 1.3-.1 0-.1.1-.2.2-.6.7-1.3 1.7-2.1 2.7zM109.9 184.3c-.9 1.5-2.2 2.6-3.5 3.7-.2.2-.6.3-.8.4-.6-.2-1.1-.4-1.6-.6-.8-.2-1.6.1-2.4.3-.3-.1-.6-.2-.8-.4-.2-.1-.4-.3-.5-.5-.3-.6-.2-1.1.3-1.4.5-.3.9-.6 1.5-.7.2 0 .5-.1.5-.1 1.1-.5 1.2-1.8 2.2-2.1.8.1 1.3.6 1.8.6 1-.2 1.2-1.3 2.1-1.7.3 0 .7.1 1.1.2h.2c.9-.8 1.8-1.7 2.9-2.6 1.5-.7 1.5-.7 2.4-.7.7 1.1.3 2.2-.4 3.4-.2.1-.5.4-.8.6-.7.5-1.3 1.1-1.8 1.9-.1.2-.3.3-.5.4-.8-.1-1.3-.6-1.9-.7zM110.8 195.9c-.1.7-.2 1.4-.4 2.1-.1.7-.3 1.4-.4 2.1-.2.3-.5.5-.9.7-.6.2-1.1.2-1.6-.1-.4-.2-.3-.7-.6-1-.2.1-.4.3-.6.4-.4.3-.9.4-1.4.3l-2.1-.7c-.1-.1-.5-.4-.8-.7-.2-.2-.4-.5-.5-.6-.1-.6.4-.8.5-1.2 0-.4-.1-.8-.1-1.2.4-.6.9-1 1.4-1.3.2 0 .3-.1.5-.1.7.2 1.3.5 2.1.3h.2c.4 0 .7.4.8.8.2.8.2 1.7-.2 2.5-.1.2 0 .4.1.7.3-.2.4-.3.6-.4.1-.8.1-1.5.2-2.3 0-.3.1-.6.2-.9.2-.5.5-.8 1.1-.8h1.2c.2.3.4.5.6.8.1 0 .3.1.4 0 .2-.1.4-.3.6-.4.5-.4 1-.4 1.6-.3.3.1.6.4.6.6 0 .2.1.5 0 .7-.2 1.4-.4 2.8-.6 4.1-.1.3-.4.5-.7.4l-.6-.3c-.4-.2-.6-.5-.6-.9v-2.1c.1-.6-.1-.8-.6-1.2zM42.4 137.4c-.6.9-1.5.8-2.4.6-.4-.1-.9-.3-1.3-.7.3-1.2.5-2.4.1-3.6.3-.9 1-1.2 1.8-1.5.3-.1.6 0 .9.2.2.2.3.4.4.5l.3.3c.2-.2.4-.5.5-.6.3-.1.4-.1.4-.1 1.1-.3 1.9 0 2.4 1 0 .1.1.1.2.3 0 .5 0 1.1.1 1.7.1.5.3 1.1.3 1.6.1.8.1 1.7.1 2.5 0 .5-.4 1-1 1.1h-.5c-.2 0-.3-.1-.5-.1-.5-.3-.6-.7-.7-1.2-.1-.5-.1-1.1-.1-1.6 0-.2-.1-.4-.2-.7-.2-.5-.4-1-.5-1.5-.3 0-.6.1-.6.3.2.7.3 1.1.3 1.5zm0-3.1c0-.1-.1-.1-.1-.2 0 .1-.1.1-.1.2v.2c0 .1.1.1.1.2.1-.2.2-.3.1-.4zM67.9 200c-.4.1-.6.3-.8.6-.5.8-1.4 1.2-2.3 1.5-.3.1-.7 0-.9-.2-.3-.2-.6-.5-.8-.8-.4-.6-.8-1.3-1.1-1.9 0-.2 0-.4.1-.5.9-1.4 1.5-1.5 3-.7.1.1.3.1.4.2.4 0 .8-.2 1.1-.4.7-.5 1.5-.9 2-1.6.5-.6 1.1-.9 1.8-1 .6-.1 1.1.1 1.4.7 0 .1.1.3.1.4 0 .5.1.9.1 1.4-.1.2-.1.5-.2.7-.5 1-1 1.9-1.6 2.9-.6.3-.6.3-1.3.4-.7-.3-.7-1.1-1-1.7zM16.1 217.7c.4-.7.8-1.3 1.3-2.1.3-1.2-.4-2.5-.3-3.8.3-.3.6-.7.9-1 .2-.2.6-.2.9-.1.7.3 1.2.7 1.3 1.5.1.5 0 .9.1 1.4v.9c.2.1.3.3.4.3h1c.8 0 1.4.6 1.4 1.3 0 .7 0 1.4-.1 2.1-.1.8-.4 1.5-.6 2.2-.2.7-.8 1.1-1.6 1.2-.1 0-.3 0-.4-.1-.2-.1-.3-.3-.5-.4.5-2.1.5-2.4.2-4.2-.2.2-.4.3-.5.5-.2.6-.7.8-1.2 1-.6.2-1.3.2-1.9-.1-.1-.2-.2-.4-.4-.6zM36.2 116.8c-.4-.2-.7-.4-.9-.6-.5-.5-.5-1.1 0-1.6.2-.2.5-.4.7-.6.3-.2.7-.4.9-.5.4-.5.1-.9 0-1.3.1-.4.3-.8.4-1.2-.2-.4-.4-.7-.6-1.1-.2-.4.1-1 .6-1.1 1.6-.4 3.2-.9 4.9-.8.4 0 .8.2 1 .6 0 .5-.4 1-.6 1.4-.1.1-.2.2-.4.3-.4.2-.9.4-1.3.6-.4.2-.7.3-1.1.5-.1.1-.2.3-.2.4 0 .1.2.3.3.3.3.1.6.1.9.2.5.2.7.6.6 1.1-.1.4-.3.7-.4 1-.5.4-.9.8-1.3 1.1-1 .7-2.2.9-3.5 1.3zM79.7 181.7c.6-.7 1.1-1.4 2.3-1.3.4.2.9.5 1.3.8.5-.3 1-.6 1.6-.9h1.4l.3.3c.2 1.6-.3 3.1-.4 4.7-.9 1.2-1 1.2-2.7.7-.6.1-.7.8-1.2 1-.6-.1-.6-.1-1.2-.6-.1-.1-.2-.3-.2-.4-.3-1-.6-1.9-.6-2.9-.3-.4-.5-.9-.6-1.4zM99.2 144.7c.8.2.9.7 1.2 1.1 0 1 .1 2 0 3-.4.7-.8 1.2-1.4 1.5-.7.1-1.1-.4-1.6-.5-.3-.1-.6 0-.9.2-.7.5-1.3 1.2-1.3 2.1 0 .1-.1.3-.2.5-.3.3-.7.6-1 .9-.8.3-1.5.3-2.1-.1-.5-.6-.6-1.3-.5-1.9.1-.2.1-.3.2-.4.5-.6 1-1.2 1.5-1.7.8-.3 1.4-.6 2.1-.8.5-.2.5-.2 1.4-.1.6-1 .6-1 .8-2.9.4-.7 1.1-.7 1.8-.9zM55.3 204.8c-.8-.3-.8-1.1-1.2-1.7v-2.5c0-.1 0-.1.1-.2 0-.1.1-.1.1-.2.4-.4 1-.5 1.5-.8.2.1.5.1.9.2.1 0 .2 0 .4-.1.5-.3.9-.7 1.3-1 .3-.2.8-.2 1.2 0 .5.3.9.6 1.2 1.1.2.4.4.9.6 1.4 0 .5-.1 1-.1 1.5-.6 1.3-2.2 1.9-3.3.3 0-.5-.1-1.1-.1-1.7 0-.2-.2-.4-.3-.6-.1-.1-.2-.1-.4-.1 0 0-.1.1-.1.2-.1.5.2.9.3 1.3.1.4.2.7 0 1.2-.6.7-1.3 1.2-2.1 1.7zM46.1 106.6c.6 0 1-.1 1.4-.1.4 0 .8.2.9.6.1.1.1.3.2.4v.4c-.3.7-.1 1.5-.5 2.2-.3.6-.5 1.3-.8 1.9-.3.7-.3 1.4-.4 2.1-.3.3-.6.6-.9 1-.2.3-.4.7-.6 1-.3.1-.6.2-.8.2-.5-.2-.8-.6-1-1.8l.6-.9c.5-.7.9-1.4.9-2.3.4-1.4.6-3 1-4.7zM95.5 113.9c-.6-.7-.8-1.4-.9-2.1v-.5c0-.5.5-1 1-1.1.7-.1 1.4 0 2.1.2.4-.4.2-1 .4-1.5.1-.3.2-.6.4-.8.4-.4.9-.6 1.5-.6.5 0 .9.3 1.1.7-.1 1.4-.3 2.8-.9 4.1-.7.8-1.6.9-2.6 1-.3.2-.6.5-1 .7-.2-.1-.6-.1-1.1-.1zM56.9 115.4c-.6.7-1.1 1.3-1.6 1.8-.2.8-.1 1.6-.1 2.3 0 .2 0 .5.1.7.4.8.4 1.7.3 2.5 0 .5-.3.9-.9 1.1-.4-.2-.8-.4-1.3-.6-.2-.4-.3-.9-.5-1.3-.4-.9-.7-1.9-.7-2.9 0-.9.3-1.8.4-2.7 0-.2.2-.4.3-.6.1-.2.3-.4.5-.6.7-.2 1.4-.4 2-.6.6.2 1.1.4 1.5.9zM60.3 182.4c.6.8.7 1.7 1.6 2.4.3.1.7.2 1.1.4.1.1.2.2.2.4.1.5.1 1.1.1 1.6 0 .6-.3 1-.9 1.3-.1.1-.3.1-.5.2-.6 0-1.3.1-2.1 0-.5 0-.9-.3-1-.8-.1-.2-.2-.4-.3-.8.1-.3.2-.6.3-1 0-.6-.4-1-.7-1.4-.2-.3-.5-.6-.7-1-.3-.6 0-1.3.7-1.5.9-.1.9-.1 2.2.2zM57.6 116.7c.2-.1.3-.3.4-.3.6-.2 1.3-.2 1.9 0 .2.1.6.5.5.7-.4 1.4-.4 2.9-.4 4.4v2.5c0 .9-.3 1.4-1.3 1.7-.1.1-.3.1-.5.1-.2-.2-.4-.4-.6-.7 0-.7 0-1.4-.1-2.1-.1-1 .1-2-.3-3-.1-.2-.1-.5 0-.7 0-.8.2-1.7.4-2.6zM91.5 90.8c.5.6 1.3 1 2.2 1.3.5.2 1.1.4 1.5.7.2.2.4.5.4.8.1.8-.7 1.7-1.5 1.8h-1.8c-1.5-.5-2.8-.8-3.7-2.3-.1-.2-.2-.7-.4-1.3.5-.5 1.2-.7 1.9-1 .3-.1.7-.1 1.4 0zM64.3 126.5c-.3.6-.5 1.2-.8 1.7-1.2.5-1.4.4-2.1-.7 0-.6.1-1.2.1-1.8 0-.6-.3-1.2-.4-1.8-.1-.4-.1-.8-.1-1.1-.1-.4-.2-.7-.3-1.1.2-.4.3-.9.4-1.3.5-.5 1.1-.7 1.8-.7.5 0 1 .4.9.8 0 .2 0 .5-.1.7 0 .2-.1.4-.2.6.4 1.4.9 2.9.8 4.7zM105.9 120.8c0-.5 0-.9-.1-1.2.3-.3.5-.5.7-.8.3-.6.1-1.2 0-1.8-.1-.5-.3-1-.5-1.5-.1-.2-.1-.4-.2-.7-.1-.6.4-1.3 1-1.3.5 0 .9 0 1.4.1.2.2.4.4.5.6.6 1.4.9 2.8.8 4.3-.1 1-.5 1.9-1.3 2.7-.5.4-1 .4-1.6.2-.2-.2-.3-.4-.7-.6zM67.6 130.9c-.2.1-.4.2-.7.2-.5 0-.9-.3-1.3-.6-.2-.2-.5-.4-.4-.8 0-.4.3-.5.5-.7l.5-.5c.3-1.3-.7-2.4-1-3.5 0-.5.3-.9.6-1.2.6-.6 1.5-.6 2.1 0 .1.1.2.2.3.4.6 1.3 1 2.6.9 4 0 .3-.1.6-.2.9-.4.6-.7 1.2-1.3 1.8zM78.5 188.7c-.2.1-.4.2-.6.4-.4-.2-.9-.3-1.2-.5-.4-.4-.8-.8-.8-1.3-.1-.9-.4-1.6-.8-2.4-.4-.8-.7-1.5-1.1-2.3 0-.2 0-.4.1-.5.4-1 .6-1 1.8-.8.1.1.3.2.3.3 1 1.3 1.8 2.7 2.7 4.1.2.3.3.8.1 1.1-.3.7-.2 1.4-.5 1.9zM102.9 115.4c.2.2.5.3.6.5.8 1.4 1.4 2.8 1.2 4.6-.1.3-.4.9-.6 1.4-.4.4-.9.3-1.3.3-1-.1-1.6-.9-1.3-1.8.1-.4.5-.8.4-1.3-.1-.5-.4-.9-.7-1.3-.2-.3-.4-.6-.6-1-.3-.6.2-1.5.9-1.5.5.1 1 .1 1.4.1zM38.4 151.2c.6 0 1 .2 1.5.6l.6 1.5c.3 1.5 0 2.8-.6 4.4-.2.4-.7.7-1.2 1.1-.3.3-.8.3-1.1 0-.4-.3-.7-.6-.8-1.1 0-.5.2-.9.4-1.3.1-.4.3-.7.4-.9.1-.5 0-.9-.1-1.2-.1-.4-.3-.7-.4-1.1-.2-.7.1-1.2.7-1.6.2-.2.5-.3.6-.4zM47.9 157c-.4-1-.6-2.1-.6-3.1 0-.4 0-.8.1-1.1 0-.2.2-.4.4-.6.4 0 .8-.1 1.2-.1.7 0 1.2.5 1.3 1.2v.9c.1.8.3 1.7.4 2.5.2 1-.2 1.8-1 2.5-.4.4-1 .5-1.6.4-.6-.1-1-.6-.8-1.2.3-.5.4-1 .6-1.4zM43.4 157.4c.1-.2.1-.4.2-.5.4-.6.5-1.3.3-2-.1-.5-.2-.9-.3-1.4-.1-.5-.1-.9-.1-1.4 0-.6.3-1 .8-1.3.5-.3 1.3-.1 1.7.3.1.1.2.3.3.5 0 .5.1 1 .2 1.5s.2.9.4 1.4c-.4.9-.4 1.9-.6 2.9-.1.6-.5 1-1.1 1-.8.2-1.5 0-1.8-1zM43.9 186.8c-.1-.6-.5-1.1-.9-1.6-.4-.4-.6-.9-.6-1.5.1-.5.4-.8.9-1 .6-.2 1.1-.2 1.6.1.5.3.9.6 1.3 1.2.2.6.4 1.3.6 2 .3 1.2 0 2.3-.8 3.2-.1.1-.3.1-.4.2-.7 0-1.2-.3-1.7-.6-.3-.2-.4-.6-.3-.9 0-.2.1-.6.3-1.1zM53.8 159c-.3.2-.6.4-.9.5-.9 0-1.2-.5-1.6-1.1-.2-.7-.2-1.5 0-2.3.2-.7.3-1.5.5-2.5.3-.9 1.2-1.3 2.2-1.6.3-.1.6-.1.9.1.3.2.4.4.5.6v.4c-.3.6-.5 1.3-.8 1.9-.4.8-.6 1.6-.6 2.5.1.6.2 1-.2 1.5zM48.7 134.6c.5 0 .9-.1 1.3-.1.5 0 .9.3 1.1.7.5.9.9 1.8 1.4 2.6.4.2.7.4 1 .6 0 .1.1.2.1.2-.2.4-.4.8-.6 1.1-.6.5-1.1.5-1.6.2-.1-.1-.3-.1-.4-.2-.9-.9-1.8-1.7-2.6-2.6-.6-.6-.6-1.3 0-2.1.1-.1.2-.3.3-.4zM109.1 145.4c-.4.4-.8.6-1.2.6-.6.1-1.1-.1-1.5-.5-.4-.5-.8-1-1-1.6.1-.1.3-.2.4-.3.3-.1.4-.3.4-.5.1-.8.1-1.5.1-2.3.2-.7.8-.8 1.5-.9.8 0 1.4.3 1.7 1 0 .8.1 1.5 0 2.3 0 .8-.2 1.4-.4 2.2zM52.1 116.8c-.4.7-.7 1.2-1.1 1.7l-.2.2c-.2.2-.7.2-.9.1-.4-.2-.8-.5-1.1-1.1 0-.3-.1-.7 0-1 .4-1 .5-1.9.5-3 0-.8.5-1.3 1.2-1.6.4-.2.8-.2 1.2-.3.5-.1 1.1.5 1 1.1v.2c-.7 1.2-.6 2.4-.6 3.7zM79 148c.1.6.1 1.1.1 1.6v.5c-.3 1.2-1.2 1.8-1.7 2.7-.5.2-1 .4-1.5.5-.6 0-1-.3-1.4-.5-.3-.3-.3-.7-.2-1.1.2-.6 1-1 1.3-1.7 0-.5.1-1.1.2-1.7.2-.2.3-.4.5-.5.3-.2.6-.3.9-.2.7 0 1.2.2 1.8.4zM44.3 106.4c-1.1.4-2.1.5-3.2.5-.9-.1-1.7.1-2.6.1-.8 0-1.5-1.1-1.2-1.9.1-.1.2-.3.3-.3.5-.2 1-.4 1.6-.5 1.2-.1 2.4-.1 3.6 0 .4 0 .8.1 1.2.2 1 .2 1.2.6.7 1.5-.1.1-.3.2-.4.4zM57 184.7c-.1.3-.2.6-.2 1 .1.3.1.6.2 1-.1.3-.3.6-.5.9-.2.1-.4.2-.5.2-.5 0-1 0-1.4-.1-.7-.1-1.1-.9-.8-1.6.1-.1.2-.3.2-.4v-.3c-.1-.1-.2-.3-.3-.5-.3-.4-.7-.9-.9-1.3-.4-.6 0-1.5.7-1.7.7-.2 1.4-.1 2 .4.8.6 1.2 1.4 1.5 2.4zM14.5 213.8c-1.2.2-1.8-.2-2.5-.7-.3-.2-.4-.5-.4-.9l.3-.6c.5-.8.8-1.7.7-2.6 0-.1 0-.3.1-.5s.2-.4.4-.6c.7-.5 2.2-.4 2.5.4.1.2.2.4.3.7-.1 1.7-1.1 3.1-1.4 4.8zM94 119.2c.4.7.8 1.4 1.2 2.2.2.5.4 1 .5 1.5.1.4-.1.8-.4 1.1-.2.2-.5.4-.8.5-.3.1-.6.1-.9.2-1-.6-1.6-1.4-1.8-2.4-.1-.6-.4-1.2-.5-1.8-.1-.5 0-.9.5-1.2.1-.1.3-.2.4-.2.6-.5 1.2-.4 1.8.1zM75.6 95.5c.5-.5 1.1-.8 1.7-.9.4.1.7.2.8.5.2.4.4.8.5 1.3.1.7.1 1.4 0 2.1-.1.6-.3 1.2-.4 1.7-.4.4-.8.6-1.3.7-.3.1-.7.1-.9-.1-.2-.1-.3-.3-.4-.5-.1-.2 0-.5 0-.7 0-.9.1-1.8 0-2.8-.2-.4 0-.9 0-1.3zM86.1 126.2c-.2-.4-.4-.7-.5-1v-.4c.5-1 .5-2.1 1.2-3 .4-.6.5-.7 1.6-1.2.5 0 .9.3 1.2.7.3.5.3 1 .1 1.6-.3.9-.7 1.9-1.1 2.9-.5.7-1.3.9-2.5.4zM48.4 186.4c-.2-.4-.4-.7-.6-1.1-.2-.5.1-1.1.5-1.4.4-.2.9-.4 1.4-.4.4 0 .8.2 1 .5.4.8.7 1.5 1 2.2.1.9 0 1.6-.1 2.2-.1.3-.5.7-.9.7-.7 0-1.4-.1-2-.6-.1-.6-.2-1.4-.3-2.1zM50 168.9c.2.5.4 1.1.6 1.6-.1.2-.1.4-.1.5-.1.1-.2.2-.3.4-.2 0-.3.1-.5.1h-1.4c-.9-.1-1.7-.3-2.5-.6-1.4-.5-1.6-1.7-.7-2.5.2-.2.5-.4.7-.5.2 0 .4-.1.5 0 1.2.6 2.6.3 3.7 1zM87.5 97.7c-.5.2-1.1.3-1.7-.1-.2-.5-.4-1-.7-1.6l.3-.9c0-.3-.2-.6-.4-.8-.6-.6-.7-1.2-.2-1.9.4-.4 1-.5 1.5-.6.6-.2 1.1.1 1.3.7.1.3.2.6.2.9.1.6.2 1.2.4 1.8.3 1 .2 1.8-.7 2.5zM101.4 145.1c-.3-.8-.6-1.5-.8-2.2.1-.4.3-.7.6-1 .4-.2.8-.1 1.2-.1.6 0 1.1.3 1.4.7.3.4.6.9.9 1.3-.1.7-.3 1.3-.4 1.9-.2.2-.3.5-.5.7-.1.2-.3.3-.5.5-.5.4-1.3.4-1.8.1-.5-.3-.6-.9-.3-1.6 0 0 .1-.1.2-.3zM47.9 219.6c.1-.3.3-.6.4-1-.2-.6-.3-1.2-.5-1.7.2-.6.6-.8 1-1 .4-.2.8-.2 1.1 0l.6.3c.3.2.5.5.5.8.1.9 0 1.8 0 2.8-.3.6-.4 1.3-1 1.8-.6.3-1.1.1-1.7 0-.1-.1-.3-.3-.4-.5.1-.5.1-.9 0-1.5zM75.5 110.9c-.1 1.4-.1 2.7-.2 4 0 .3-.4.5-.7.5-.7-.2-1.4-.4-2.1-.5-.1-.2-.4-.4-.3-.6.2-.7 0-1.4-.1-2-.1-.5 0-1.1.1-1.6.2-.5.7-.9 1.3-.8.2.1.5.1.7.2.5.1 1 .3 1.3.8zM99.6 122.8c-.7.1-1.4.2-2.1-.3-.4-1.1-.9-2.2-1.4-3.3-.2-.4 0-.7.3-1 .5-.6 2.1-.5 2.6.1.7.9 1.1 1.8 1.5 2.8 0 .7-.3 1.3-.9 1.7zM84.4 96.1c-.3.9-.8 1.5-1.2 2.2 0 .1-.1.1-.2.1l-1.5-.3c-.6-1.1-.8-2.1-1.2-3.1-.1-.3 0-.6 0-.9.1-.4.4-.7.8-.8.6-.2 1.3-.1 1.8.2.3.2.6.6.6 1 0 .6.4 1.1.9 1.6zM113.9 117c-.3.5-.7.9-1.4 1.1-.6-.2-1.3-.4-1.9-.7 0-.6 0-1.1-.2-1.6-.1-.4-.3-.9-.5-1.2 0-.7.1-1.2.5-1.6h1.6c.8.5 1.2 1.3 1.6 1.9.3.8.4 1.5.3 2.1zM22.3 168.8h1.4c.6 0 1 .4 1 1 0 .9 0 1.7.4 2.5-.1.6-.3 1.2-.4 1.9-.2.2-.5.3-.7.5-.6-.1-1-.4-1.1-.9-.5-1.1-.9-2.3-1.3-3.5-.3-.5-.2-1 .7-1.5zM91.7 184.8c-.4.5-.7.9-1 1.3-.2.2-.5.4-.8.4-.3 0-.7-.2-.8-.4 0-.1-.1-.1-.1-.2 0-.7-.4-1.3-.6-2 0-.7.3-1.2.8-1.6.3-.3.7-.6 1-.8.6-.2 1.1-.2 1.5 0 .4.1.7.5.6.9 0 .2 0 .5-.1.7-.4.5-.4 1.1-.5 1.7zM77.5 114.3c.4-.4.7-.8 1-1.1-.1-1-.6-2-.2-3 .2-.3.5-.4.8-.4.6 0 1.1.1 1.6.5.2.1.4.3.4.5.2 1 .2 2 0 3-.1.6-.6 1.1-1.3 1.2-.8 0-1.5-.1-2.3-.7zM45.5 219.3c-.7.1-1.3 0-1.8-.6-.2-.6-.2-1.4-.6-2.1-.2-.3-.1-.8-.1-1.1 0-.2.2-.5.4-.6.7-.4 1.4-.7 2.2-.2.6.9.9 2 .8 3.1-.1.5-.3 1.1-.9 1.5zM57.6 223.7c-.4.8-1.2 1.2-2.1 1.3-.3 0-.7-.2-.8-.4-.3-.8-.5-1.6-.6-2.5 0-.8.2-1.4.9-1.8.2 0 .5-.1.7-.1 1.1 0 1.4.3 1.6 1.3.2.8.2 1.5.3 2.2zM102.9 209.1c.2-.4.4-.7.6-1.1 0-.1.1-.1.2-.1.5-.2 1.1-.1 1.6-.1.3.1.5.3.6.6 0 .2.1.5.1.7.2.3.5.6.7.9.1.6-.4 1-.1 1.6-.3.5-.8.7-1.4.6-.5-.1-.9-.2-1.2-.3-1-.8-1.2-1.6-1.1-2.8zM96.2 90.9c0-.6.3-1 1-1.1.3-.1.6-.1.9-.1.7 0 1.4.1 2.1.2.7.6.9 1.3.9 2.1 0 .1-.2.3-.3.4l-.9.3c-1 .5-1.9.2-2.7-.4-.4-.3-.8-.8-1-1.4zM24.3 223.5c-.5-.1-.8-.3-.9-.7.2-.4.4-.9.6-1.3-.1-.6-.2-1.2-.3-1.7 0-.4.1-.8.4-1.1.1-.1.2-.2.4-.3.5-.2 1.1-.2 1.6.1.3.2.5.4.5.7 0 .9-.1 1.9-.2 2.8 0 .3-.2.6-.5.7-.5.4-1 .6-1.6.8zM74.5 165.4c.3-.2.4-.3.6-.4 1.3-.6 1.9-.4 2.6 1.1-.1.6-.2 1.3-.5 2-.1.4-.5.8-.7 1.2-.2.2-.6.3-.9.1-.4-.2-.8-.5-1.1-.9-.1-.1-.2-.3-.1-.4 0-1 .1-1.8.1-2.7zM68.1 184.8c-.3.9-.5 1.6-1.3 2-.7.1-1.2-.3-1.8-.7l-1.2-1.8c-.1-.6.2-.9.6-1.2.4-.4 1-.6 1.5-.5.2 0 .5.1.6.3.6.6 1.1 1.2 1.6 1.9zM76.7 129.2c-.4-.2-.8-.5-1-.7-.4-.5-.4-1-.6-1.4l.3-.6c.4-.3.9-.6 1.3-.9 1.1 0 1.8.6 2.5 1.2.1.3.1.5.2.8 0 .6-.2 1-.7 1.3-.6.3-1.1.4-2 .3zM25.3 228.6c-.5-.5-1-.9-1.3-1.3-.2-.2-.3-.4-.3-.6-.1-.3 0-.6.2-.9.6-.5 1.2-1 2.2-.8.7.5 1.2 1.1 1.8 1.7.3.4.4.9.2 1.3-.3.4-.7.7-1.2.7-.5.1-1 0-1.6-.1zM60.3 156.8c-.5.4-.9.6-1.4.8-.7.2-1.5-.2-1.4-.8.1-.8-.1-1.5-.1-2.3 0-.6.3-1 1-1.1.6-.1 1.3-.2 1.9.2.3.4.2.9.4 1.4-.1.6-.2 1.2-.4 1.8zM102.6 106.4c.1-.5.2-.9.2-1.3.1-.3.3-.6.5-.7.9-.5 2.3-.2 2.7.9.1.1.1.3.1.4-.2.6-.4 1.3-.6 1.9-.1.2-.3.4-.5.5-.5.3-1.2.2-1.5-.2-.3-.3-.7-.8-.9-1.5zM68.4 161.6c-.8-.1-1.5-.2-2.2-.4-.3-.1-.6-.3-.7-.6.1-.7.5-1.2.9-1.9l2.1-.9c.1.1.4.2.5.4.2.6.4 1.3.6 1.9-.2.7-.5 1.2-1.2 1.5zM70.6 210.5c-.2 0-.5 0-.7-.1-.7-.4-1.4-.8-2-1.1 0-.2-.1-.4-.1-.5.1-.4.3-.9.5-1.3.1-.3.4-.5.7-.5h1.2c.3 0 .6.2.8.4.3.4.5.7.8 1.1-.4 1.4-.4 1.4-1.2 2zM37.7 215.1c.2-.4.3-.7.7-.8.3-.1.6-.1.9 0 .5.2 1.1.3 1.6.7.2.4.4.9.6 1.3 0 .6-.3 1-.7 1.3-.2.2-.5.3-.8.4-.4.1-.8 0-1.1-.3-.5-.7-.8-1.6-1.2-2.6zM54.3 227.5c.7-.7 1.6-.6 2.1-1h.4c.4.2.8.5 1.1.7.3.7.2 1.3-.1 1.9-.3.6-.8.7-1.4.7-.7-.1-1.4-.4-1.9-.7-.4-.6-.3-1.1-.2-1.6zM87.4 193.7c-.2.5-.4.9-.5 1.2-.4.9-1 1.1-1.9.5-.7-.5-1-1.1-.9-2 .1-.5.4-.9.9-.9.7-.1 1.3 0 1.8.5.2.2.4.4.6.7zM94.6 33.2c-.4-.2-.7-.3-.9-.5-.3-.2-.5-.4-.7-.6-.3-.9-.6-1.9-.9-2.9-.3-.1-.6-.3-.8-.4-1.1.1-2.1.1-3.1.7-.5-.1-1.1-.1-1.6-.2-.4-.3-.7-.6-1-1-.3-.4-.5-.8-.4-1.3.1-.5.3-1 .5-1.6 1.2-.7 1.9-1.8 2.4-3.1.3-.8.8-1.5 1-2.4.1-.4.3-.9.6-1.3.5-1 1.1-1.9 1.6-2.8.3-.5.7-1.1 1.1-1.5.5-.5.9-1.1 1.1-1.8.5-.4 1.1-.8 1.5-1.2 1.3-.4 2.4-.2 3.3.7.9 2.2.9 4.5 0 6.7.2 1 .2 2 .6 2.9.1.3.1.6.1.9 0 .8 0 1.5.1 2.3.1 1.4-.4 2.7-.9 4-.3.6-.6 1.1-.9 1.7-.2.5-.3 1-.4 1.4-.9.9-1.7.9-2.3 1.3zm.3-5.1c.2-.1.4-.1.4-.2.6-1 1-2.1.8-3.3-.2-1.3-.3-2.6-.5-3.9-.1-1.4-.2-2.8.4-4.1.1-.2 0-.5 0-.7 0-.1-.2-.2-.3-.3h-.2c-.1.1-.3.2-.4.3-.7.9-1.4 1.9-2.1 2.8-.1.1-.2.3-.2.4-.3 1.1-1 2.1-1.4 3.2-.4 1.1-.9 2.1-1.7 3.1-.1.1-.1.3-.2.4 0 .2.1.3.2.3.6.3 1.3-.2 1.9-.1.3.1.7.3 1.1.4.7.2 1.2.7 1.6 1.3.2.2.4.3.6.4zM70.8 69.4c.8-.2 1-.9 1.4-1.5 0-.4-.1-.9-.1-1.3.2-.8.9-1.1 1.3-1.7.2 0 .4-.1.5 0 .5.2 1 .5 1.4.8.4.3.7 1 .5 1.4-.3 1-.7 1.9-1.1 2.9-.7.9-1.3 1.9-2.5 2.4.1.3.3.3.5.3.4.1.7.4.8.8.3.9.7 1.7.9 2.4.5.6 1.1.6 1.5.9 1.3-.2 1.6-1.3 2.2-2 .5-.2.9-.4 1.4-.6.8-.3 1.4-.1 1.9.6.2.5 0 1.1.2 1.5-.1.2-.2.4-.3.4-.9.4-1.7.8-2.5 1.4-.4.4-.9.6-1.4.9-.9.1-1.8.1-2.7.1-1.1-.4-2-1.1-2.5-2.1-.1-.2-.3-.3-.5-.5s-.5-.1-.6 0c-.3.6-.3 1.2-.7 1.7-.3.4-.6.9-1 1.4-.7.5-1.5 1.1-2.2 1.7-.9.3-1.8.8-2.8.6-1.6-1.2-1.6-1.2-2-2.1.3-.5.8-.8 1.4-1.1.7 0 1.5 0 2.2-.1.8-.4 1.4-.9 1.6-1.8.1-.3.2-.6.4-.9 0-1.3.3-2.7-.1-4.3-.1-.1-.3-.3-.6-.5-.4-.3-.9-.6-1.4-.9-.6-.7-.8-1.5-1.1-2.3-.3-.7-.7-1.4-1-2 0-.6.1-1.1.7-1.4.4-.2.8-.5 1.3-.6.2.1.4.1.6.2.5.2.9.6 1.1 1.1.3.9.7 1.7 1 2.5.7.9 1.3 1.5 2.3 1.7zM59.1 44.9c.9.4 1.8.9 2.7 1.3 1.5.7 2.5 1.9 3.2 3.3.3.6.3 1.3.3 2-.1.6-.3 1.2-.3 1.8 0 .4-.2.7-.4 1.1-.1.3-.4.5-.5.8-.4 1.2-1.1 2.1-2 2.8-.5.4-.8 1-1 1.5-1.2.8-2.7 1.1-4.2 1.3-.2-.1-.5-.1-.8-.3-.6-.5-1.3-.7-2-.9-.9-.3-1.8-.7-2.6-1.2-.4-.3-.9-.6-1.4-1-.7-1.2-1-2.6-.9-4v-.5c-.2-1.5.2-2.9.8-4.3.6-1.3 1.3-2.3 2.7-2.8.3-.1.5-.3.8-.5.7-.3 1.5-.6 2.3-.7 1.1.3 2.1.1 3.3.3zm-4.8 3.8c-.9 1.1-1.8 2.3-2.1 3.8.1.6.3 1.2.3 1.8 0 .4.1.8.1 1.1.9 1 .9 1 2.6 1.8.7 0 1.3-.1 1.9-.1.6 0 1.3.1 2 .1.8-.7 1.5-1.6 2-2.6s1-2.1 1-3.3c-.4-.5-.9-1.1-1.3-1.6-.5-.3-.9-.5-1.3-.8-.4-.2-.8-.5-1.1-.7-1.4-.3-2.7-.3-4.1.5zM86.4 56.7l-1.5.9c-1.3.7-2.7.9-4.2.4-.4-.1-.8-.2-1.1-.3-.5-.4-1-.8-1.5-1.1-1.4-.8-2.2-2-2.3-3.6-.1-1.5-.6-3-.4-4.8.1-.5.3-1.3.5-2 .6-1 1.4-1.8 2.2-2.5.4-.4.8-.7 1.4-.9 1.6-.5 3.2-1.1 4.9-.5.4.1.8.2 1.1.3.7.4 1.3.7 2.1 1.1l2.1 2.1c.1.3.1.6.2.9.6 1.6.3 3.1-.3 4.5-.4 1.2-1 2.3-1.6 3.4-.2.4-.5.8-.8 1.1-.2.3-.4.6-.8 1zm.5-9.3c-.2-.2-.4-.5-.6-.7-1.1-1.2-2.7-1.3-4.2-1.5-.2 0-.5 0-.7.1-1.4.4-2.5 1.1-2.9 2.5 0 .1-.1.1-.1.2 0 .6-.1 1.3 0 1.8.3 1 .3 2 .3 3 0 .4.3.8.7.8 1.1.1 2.1.6 3.1 1.2.3.2.5.2.8.2 1.8-1.2 2.8-3 3.7-4.7 0-.7.1-1.3.1-1.9-.1-.3-.1-.6-.2-1zM40.7 18.9c.8.5 1.4.9 1.9 1.5.4.5 1 1 1.5 1.5s1 1 1.4 1.6c.2.3.4.5.6.7.9.7 1.5 1.6 2.1 2.5.2.2.3.5.4.8.3.9.7 1.9 1 2.9 0 .3-.1.6-.2.9-.3.9-.9 1.4-1.8 1.6-.5.1-.9.2-1.3.2-.5.2-.6.5-.7.8-.1.4-.2.7-.3 1.1-.1.3-.3.5-.6.7-1 .6-2 .9-3.2.6-.1-.1-.3-.2-.3-.3-.2-.9-.7-1.7-.8-2.7-.1-.6-.4-1.2-.8-1.6-.4-.4-.5-.9-.7-1.4-.4-.9-.7-1.9-1-2.8-.8-1.9-.7-3.8-.5-5.7.1-.5.2-.9.3-1.4l.8-.8c.8-.7.8-.7 2.2-.7zm2.1 12.7c.2.1.5.1.6-.1.6-.7 1.3-1.1 2.2-1.3.1 0 .1-.1.2-.2.3-.5.2-.9-.1-1.3-.3-.5-.7-.9-.9-1.3-.6-.9-2.6-2.7-3.6-3.4H41c-.2 0-.3-.1-.5 0-.1 0-.2.2-.3.3 1 4 .7 3.3 2.6 7.3zM65.3 35.6c.2.2.4.3.6.2.5-.2 1-.4 1.4-.6 1.2.1 1.8.9 2.5 1.5.4-.1.4-.5.5-.7.2-.3.3-.5.5-.8.7-.7 1.8-.5 2.2.4.4.7.4 1.5.3 2.3-.1.4-.3.7-.7.9-.5.2-1 .4-1.6.6-.3.2-.4.6-.6.9-.3.4-.8.5-1.3.6-.5 0-.9-.2-1.4-.4-.4-.2-.9-.3-1.4-.4-.5-.1-.8-.4-1.1-.9 0-.5 0-1.2-.1-1.8 0-.1-.1-.2-.1-.2-.1 0-.3.1-.3.2-.4.8-.9 1.7-1.3 2.5.1.5.2.9.3 1.4-.1.3-.1.6-.2.9l.3 1.2c.1.7-.4 1.3-1 1.4-.5.1-1.1.3-1.7 0-.5-.4-.6-1.1-.9-1.6-.2-.3-.3-.7-.4-1.1-.1-.2-.1-.5-.1-.7 0-.7.1-1.2.8-1.6.3-.1.5-.3.8-.4.1-.7-.1-1.3-.3-2 .1-.4.3-.8.4-1.3 0-.1.1-.1.1-.2.6-1.1.9-2.3.8-3.6-.1-.5.4-1 1-1.1.9-.2 1.8 0 2.5.6.2.2.4.5.3.8 0 .2 0 .3-.1.5-.3.9-.5 1.7-.7 2.5zM73.4 31.4c.7-.2 1.4-.1 2.2 0 .3-.1.6-.3 1-.4.3-.1.6-.1.9-.1.7 0 1.2.5 1.2 1.2s-.1 1.4-.1 2.1v1.4c-.2.3-.3.7-.5 1-.3.6-.9.9-1.6.8-.2-.1-.4-.2-.5-.4-.2-.2-.3-.4-.3-.4-.6-.1-1-.1-1.4-.2-.4-.2-.7-.5-.7-.9-.1-.8-.5-1.5-.9-2.1-.1-.1-.1-.3-.2-.5.3-.6.7-1.1.9-1.5.1-.1 0 0 0 0zM93.3 56.2c.2-.3.5-.6.8-.9.2-.1.2-.2.3-.2 1.2-.2 2.2-.9 3.4-1 .2.2.4.3.5.5.4.9.7 1.9 1.1 2.8-.5 1-1.5.8-2.4.9-.5.2-.9.5-1.4.7-.1.1-.3 0-.5 0-.8-.4-1.2-1-1.7-1.6-.2-.3-.3-.7-.1-1.2zM94.7 62.6c.4-.1.8-.1 1.2-.2.8.4 1.6.7 2.2 1.1.7.8.4 1.4.1 2.1-.1.2-.3.4-.5.5-.5.3-1 .5-1.5.8-.3-.1-.5-.2-.7-.3-.3-.2-.5-.4-.7-.6-1.3-.9-1.3-1.2-.7-2.5.2-.4.4-.6.6-.9zM49.3 41.1c.2-.6.4-1.1.6-1.6.6-.5 1.3-.5 2-.3.2 0 .3.1.4.2.9.8 1.6 1.7 1.8 2.9v.5c0 .4-.4.7-.8.7s-.8 0-1.2-.2c-1-.5-2-1.1-2.8-2.2zM45.3 68.2l-2.1-.9c-.4-.5-.4-1.1-.5-1.7.2-.7.7-1.1 1.3-1.3 1.1-.4 2.1.1 2.6 1.1.3.6.5 1.3.7 1.9 0 .1-.1.3-.2.4-.6.3-1.2.4-1.8.5zM51.5 66.2c-.1.4-.2.7-.2 1 0 .1-.1.3-.2.4-.2.4-.6.4-1 .4-.6 0-.7-.2-1.6-1-.1-.4-.1-.8-.3-1.3-.1-.4-.3-.7-.4-1 .3-.9 1-1.1 1.6-1.3.8.2.8.2 1.7 1 .2.5.3 1.1.4 1.8zM81.5 39.8c-.2.3-.4.7-.5 1-.2.1-.4.3-.7.4-.1.1-.3.1-.5.2-.6 0-1.1-.2-1.3-.8-.4-1-.5-1.6-.2-2.9.2-.3.6-.5 1-.6.9-.3 1.4-.1 1.7.8.2.5.3 1 .5 1.5v.4zM99.1 45.7c-.4 0-.9 0-1.4-.1-.4 0-.7-.3-.9-.7.2-1.3.2-1.3 1-2.3.6-.3 1.2-.3 1.9-.3.5 0 1.1.4 1.2 1 .1.4.1.8.1 1.1-.5.7-1.2 1-1.9 1.3zM73.5 31.3c-.6.1-1.3.1-1.9.2h-.7c-.5-.1-.9-.3-1.1-.8-.2-.5-.1-.9.2-1.3.3-.3.6-.5.9-.7.4-.2.8-.2 1.2 0 .4.2.7.4 1 .5.3.3.3.6.3.9 0 .3 0 .8.1 1.2zM72.4 44.9c-.6.8-1.3.9-2 1.1-.5.1-1-.1-1.1-.6-.1-.4-.2-.9-.2-1.3 0-.6.5-1.1 1.2-1.2.9-.1 1.5.3 1.9 1.1.1.3.2.6.2.9z"/>
    <path class="st2" d="M42.4 134.3c0 .2 0 .3-.1.4 0-.1-.1-.1-.1-.2v-.2c0-.1.1-.1.1-.2 0 0 .1.1.1.2z"/>
    <path class="st3" d="M94.9 28.1c-.2-.1-.4-.2-.5-.4-.4-.6-.9-1.1-1.6-1.3-.4-.1-.7-.3-1.1-.4-.7-.1-1.3.3-1.9.1-.2-.1-.3-.2-.2-.3 0-.1.1-.3.2-.4.7-.9 1.2-2 1.7-3.1.4-1.1 1.1-2.1 1.4-3.2 0-.1.1-.3.2-.4.7-.9 1.4-1.9 2.1-2.8.1-.1.2-.2.4-.3h.2c.1.1.3.2.3.3.1.2.1.5 0 .7-.5 1.3-.5 2.7-.4 4.1.1 1.3.3 2.6.5 3.9.2 1.2-.1 2.3-.8 3.3-.1.1-.3.1-.5.2z"/>
    <path class="st2" d="M54.3 48.7c1.3-.7 2.7-.8 4.2-.5.3.2.7.5 1.1.7.4.2.8.5 1.3.8.4.5.8 1 1.3 1.6 0 1.2-.5 2.3-1 3.3s-1.2 1.8-2 2.6c-.7 0-1.4-.1-2-.1-.6 0-1.3.1-1.9.1-1.6-.8-1.6-.8-2.6-1.8 0-.3-.2-.7-.1-1.1.1-.6-.2-1.2-.3-1.8.3-1.5 1.2-2.7 2-3.8zm0 5.2c.3.6 0 1.4.6 1.9.4.3.8.6 1.3.5 1.1-.2 2.2-.6 2.7-1.6.1-.5.1-.9-.2-1.4-.4-.5-.9-1-1.6-1.4-.5-.3-1.4-.2-1.8.2-.4.5-.7 1.1-1 1.8zM86.9 47.4c0 .3.1.6.1.9 0 .6 0 1.2-.1 1.9-.9 1.8-1.8 3.6-3.6 4.8-.3-.1-.5 0-.7-.2-.9-.6-2-1-3.1-1.2-.4-.1-.7-.4-.7-.8 0-1-.1-2-.3-3-.2-.6 0-1.2 0-1.8 0-.1.1-.1.1-.2.5-1.4 1.6-2.1 2.9-2.5.2-.1.5-.1.7-.1 1.5.2 3 .3 4.2 1.5.1.3.3.5.5.7zm-2.4 4c0-.4.1-.8.1-1.2 0-.2-.1-.5-.2-.6-.4-.6-1-1-1.6-1.3-.6-.3-1.5-.1-2 .3l-.2.2c-.8.8-1.2 1.1-.5 2.4.2.3.3.7.4 1 .2.2.4.3.6.4H83c.5-.5 1-.8 1.5-1.2z"/>
    <path class="st3" d="M42.8 31.6c-1.9-4-1.6-3.3-2.6-7.3.1-.1.2-.3.3-.3.1-.1.3 0 .5 0 .1 0 .1.1.2.1 1 .6 3 2.4 3.6 3.4.3.5.6.9.9 1.3.3.4.4.8.1 1.3l-.2.2c-.9.2-1.6.7-2.2 1.3-.1.1-.3.1-.6 0z"/>
    <path class="st0" d="M54.3 53.9c.3-.7.6-1.3 1.1-1.8.4-.4 1.3-.5 1.8-.2.6.4 1.1.8 1.6 1.4.2.5.3.9.2 1.4-.6 1-1.6 1.4-2.7 1.6-.5.1-.9-.2-1.3-.5-.6-.6-.3-1.3-.7-1.9zM84.5 51.4 83 52.6h-1.9c-.2-.1-.4-.3-.6-.4-.1-.3-.2-.7-.4-1-.7-1.2-.3-1.6.5-2.4l.2-.2c.5-.4 1.4-.6 2-.3.7.3 1.2.7 1.6 1.3.1.2.2.4.2.6 0 .4-.1.8-.1 1.2z"/>
</svg>
