<svg xmlns="http://www.w3.org/2000/svg" width="64.3" height="77.4" style="overflow:visible;enable-background:new 0 0 64.3 77.4" xml:space="preserve">
    <style>
        .st0{fill:#f0d1a9}.st1{fill:#fff}.st2{fill:#7a6a56}.st3{fill:#f9f6f2}.st4{fill:#e7d9e0}
    </style>
    <path class="st0" d="M51 17.2c0-.2 0-.4.2-.6.1-.1.3 0 .5 0h.6c.2 0 .3 0 .6-.1.1 0 .3.1.4.1.1.2.1.4.2.6.2.1.3.3.5.5v.1c-.2 0-.5.1-.7.1-.3 0-.7 0-1 .1h-1.1c-.2 0-.4 0-.6-.1 0-.3.3-.4.4-.7zM25.7 53.4c.1-.2.3-.4.4-.7.1-.1.2-.3.2-.5.1-.2.1-.4.2-.6 0-.5.1-1 .1-1.4 0-.1.1-.2.1-.3.2-.8.2-1 .5-1.7.1-.4 0-.8 0-1.1v-.5c0-.3 0-.6.1-.9.1-.5.3-.9.5-1.3.1-.3.1-.5.2-.8 0-.2.1-.4.2-.6.1-.2.2-.4.2-.7 0-.1 0-.1.1-.2l.6-1.2c.2-.3.4-.5.8-.7l.1-.1c.5-.5 1-.8 1.6-1.2.2-.4.3-.8.7-1.2l1.1-1.1c.3-.2.6-.4 1-.5.3-.1.5-.3.8-.5.2-.2.4-.4.5-.7.1-.3.3-.6.4-.9.1-.1.1-.2.2-.3.1-.1.2-.2.3-.2.2-.1.3-.1.5-.2l.6-.6c0-.2 0-.3.1-.5 0-.1.1-.3.2-.4 0-.1-.1-.2-.1-.2-.1-.2-.4-.3-.6-.2-.1.1-.3.2-.4.2 0 0 0 .1-.1.1.1.4.1.4.1.7-.2.4-.6.5-1.1.7-.1.1-.3.3-.4.5-.1.1-.2.3-.2.5 0 .1 0 .1-.1.2-.1.2-.2.5-.4.7-.3.3-.7.6-1.1.8 0 0-.1 0-.1-.1l.3-.3c.1-.1.2-.3.3-.4 0-.1 0-.2-.1-.3-.1-.1-.2-.1-.4-.1-.1 0-.2.1-.2.2s-.1.2-.2.2v-.3c0-.1 0-.2.1-.3-.1-.2-.1-.2-.3-.2-.2 0-.3.1-.5.2h-.6s0-.1.1-.1c.1-.1.3-.2.5-.2.2-.1.2-.2.2-.3 0-.2 0-.3-.1-.4 0-.1-.1-.1-.2-.2-.1 0-.3.1-.4.1h-.2v-.1c.1-.1.2-.2.3-.2.1-.1.2-.2.1-.4 0-.2-.1-.3-.3-.3-.2 0-.3-.1-.5 0-.1.1-.1.2-.2.3l-.3.3c-.1.1-.2.2-.2.3v.3c0 .1.1.2.3.2h.3c-.1.1-.2.1-.2.2-.1.1-.1.1-.1.2s0 .2.1.2c.1.1.3.1.4.1.1 0 .2-.1.4-.1-.1.1-.2.2-.3.4 0 .1-.1.3 0 .4.2.2.4.2.6.3.1.3.1.3.3.6.1 0 .2.1.4.1-.1.2-.1.2-.7.5-.1.1-.1.3-.2.4l-.9.9c0 .1-.1.3-.1.4-.1.3-.3.6-.6.8-.2.2-.4.4-.7.5-.3.3-.7.5-1 .8-.2.2-.4.4-.5.6l-.3.6c-.1.3-.2.5-.4.7 0 .2-.1.4-.1.7 0 .1-.1.1-.2.2s-.2.3-.2.5c-.2.6-.3 1.1-.5 1.7-.1.3-.2.5-.3.8-.2.4-.2.8 0 1.2.1.6.1 1.1-.1 1.6-.3.7-.4.7-.3 1.6 0 .2 0 .4-.1.6-.1.4-.2.8-.3 1.3 0 .2-.1.3-.2.4-.1.1-.2.1-.3.2-.1 0-.2-.1-.2-.2s0-.2.1-.2c.1-.2.2-.4.3-.5 0-.1-.1-.2-.1-.3-.1-.1-.2-.2-.3-.1-.3 0-.4.2-.5.5v.3c-.1.1-.1.2-.2.3-.2.3-.4.5-.5.8-.2.1-.4.1-.5.2-.2 0-.4-.1-.5-.1-.2 0-.3-.1-.4-.3-.1-.1-.2-.2-.2-.4-.1-.2-.1-.3-.2-.5-.1-.4 0-.8.1-1.1 0-.1.1-.3.1-.4 0-.1 0-.2.1-.3 0-.1.1-.1.1-.2 0-.3.1-.6.1-.8 0-.3.2-.5.1-.8.1-.3.1-.6.2-.9.1-.3.2-.7.2-1.1 0-.2 0-.3.1-.5.1-.3.1-.5 0-.8v-1.6c0-.3.1-.6.1-.8 0-.3 0-.5.1-.8V42c0-.2 0-.4.1-.6v-.3c0-.1 0-.3.1-.4 0-.1 0-.2.1-.3 0-.2.1-.4.1-.6.1-.5.2-1 .6-1.4.1-.1.2-.1.3-.3.2-.4.4-.9.8-1.2.2-.7.7-1.2 1-1.8.1 0 .1.1.1.2.1.2.2.3.4.3s.4 0 .6-.1h.1c0 .2-.1.3-.3.3-.2.1-.3.2-.5.3-.1.1-.1.2-.1.3.1.2.3.2.4.3.1 0 .3 0 .4.1l.3.3c.1.1.3.1.4.1.1 0 .2 0 .3-.1.3-.2.5-.4.7-.7.1-.1.1-.4-.1-.4-.1-.1-.2-.1-.4 0-.1.1-.2.1-.3.2-.2 0-.2-.1-.3-.2v-.1c.1-.2 0-.3-.1-.3s-.2 0-.3-.1c-.1 0-.1-.1-.1-.1.1-.1.2-.3.3-.5 0-.1 0-.2-.1-.2s-.2-.1-.3-.1c-.2 0-.3 0-.5.1-.1.1-.3.2-.5.2-.1-.1-.1-.1-.1-.2s.1-.1.1-.2l.2-.2.6-.9c.3-.4.7-.8 1.1-1.2.2-.1.3-.3.5-.4l1.2-1.2c.1-.1.2-.3.3-.4.1-.2.3-.4.4-.6.2-.5.5-.8.8-1.2.2-.3.4-.6.7-.9.1-.1.1-.2.2-.3.1-.2.2-.4.4-.6l.5-.5.2-.2c.1-.3.3-.4.6-.6.1-.1.1-.2.2-.3 0-.1.1-.1.1-.2.1-.3.3-.5.4-.7.1-.3.3-.5.4-.7 0-.1.1-.2.1-.3.1-.2.1-.3.3-.4.1 0 .3-.1.5-.2.1 0 .2 0 .2.1l.3.3c.2.1.3.3.5.5.2.1.5.2.7.2.2.1.3.1.5 0h.5c.4 0 .8.1 1.2.1.3.1.6.2.8.3.3.1.6.1.9.2h.4c.4-.1.8-.1 1.1-.3.4-.1.8-.3 1.2-.6.2-.1.3-.2.4-.3.2-.3.5-.5.8-.7 0 0 .1 0 .1-.1.3-.3.7-.4 1.1-.5.2 0 .3-.1.5-.2.1-.1.1-.1.2-.1.3 0 .6-.1.9 0 .3.1.7.1 1 .1.2 0 .4 0 .6.1h2.8c.1 0 .3.1.4.1h.4c.2 0 .5.1.7.1.2 0 .4.1.6.1.2 0 .3.1.5.1h.1c0-.1 0-.2-.1-.2-.2-.2-.4-.3-.6-.3-.1 0-.3-.1-.4-.1-.3-.1-.7-.2-1-.1-.3 0-.6 0-.8-.1-.3-.1-.6 0-.9-.1H51c0-1.1-.4-1.1-.8-1.1-.3 0-.6-.1-1-.1 0 0-.1 0-.1-.1v-.1c.2-.3.5-.5.6-.8 0-.1.2-.1.2-.2H51.8c.3 0 .5-.1.8-.1.3 0 .5 0 .8-.1.3-.1.5-.1.8-.1.4 0 .7-.1 1.1 0H56.4c.1.2.1.4.3.5.1.1.2.2.3.2.3.1.5.3.7.4.1.1.2.2.3.2.1.5.1.5 0 .7-.1 0-.2-.1-.2-.1-.1-.1-.2-.1-.3-.1-.2 0-.4.1-.5.3 0 .1 0 .2-.1.4.2.3.5.2.7.4.1 0 .3-.1.4-.1 0 0 .1 0 .2.1.2.4.5.6.9.9.2.3.4.7.6 1 .3.3.5.7.7 1.1.1.2.2.3.3.5.2.3.4.6.5.8.2.5.5.9.9 1.3.2.2.4.4.5.6.2.2.3.5.4.8.1.6 0 1.2-.1 1.9-.1.3 0 .5.2.7.1.1.2.1.3.3v.1c-.1.1 0 .2 0 .3.1.1.2.1.2.2s0 .2-.1.3c-.1 0-.2-.1-.3-.1-.2-.1-.4 0-.5.2v.2l.4.4v.2h-.2c-.2 0-.3.1-.4.3 0 .1.1.2.2.3.1.1.1.2.1.3-.2.2-.5.2-.6.5 0 .2.1.3.2.4.1.2.1.3 0 .5-.1.1-.1.3-.2.4-.2.2-.4.4-.5.8 0 .2 0 .4.1.5-.1.2-.2.4-.3.5l-.6.6c-.1.1-.1.3-.2.4 0 .2.1.5.1.7l-.3.9c0 .2-.1.4-.3.5-.2.2-.4.5-.5.7v.2c-.1.2-.2.4-.4.6l-.3.6c-.2.2-.3.5-.3.8-.1.4-.2.7-.4 1.1 0 .1-.1.2-.1.2-.1.4-.3.7-.5 1-.1.2-.3.4-.4.6-.4.5-.7 1.1-1 1.6l-.3.6c-.1.3-.3.5-.4.8-.1.2-.1.4-.2.6-.1.3-.2.7-.2 1 0 .2-.1.3-.2.5-.2.3-.4.5-.8.6h-.4l-.3-.3h-.6c-.1 0-.2-.1-.2-.3 0-.4 0-.9.1-1.3V48.3c0-.2.1-.4.1-.6v-.6c0-.2.1-.4.2-.6.2-.7.4-1.3.7-2 .1-.2.1-.5.2-.7.1-.3.2-.7.3-1l.3-.9c0-.1.1-.2.1-.2 0-.4.2-.8.3-1.3 0-.2.1-.5.2-.7.1-.2.2-.4.2-.6.1-.3.2-.7.3-1 .1-.4.3-.7.3-1.1 0-.2.1-.5.2-.7.2-.6.3-1.2.4-1.8v-.1c.1-.1.1-.2.2-.3.1-.5.1-1 .1-1.5 0-.2-.1-.3-.3-.4-.3-.1-.7-.3-1-.4-.1 0-.1-.1-.2-.1.1-.1.2-.2.4-.3l.1-.1c0-.2.1-.3.1-.5v-.1c-.1 0-.1-.1-.2-.1-.3 0-.6 0-.8.3l-.4.4-.2.2c-.1.2-.1.4.1.6 0 0 .1 0 .1.1.1.2.1.4.2.5.1.1.2.1.3.1h.1c.3 0 .4.2.5.4 0 .1.1.6 0 .6-.1.2-.1.4-.1.6-.1.2-.1.4-.1.6 0 .2-.1.4-.2.6 0 .1-.1.2-.1.4 0 .3-.1.6-.2.8v.2c0 .4-.2.8-.3 1.2 0 .1-.1.2-.1.3-.1.2-.2.4-.2.6 0 .1 0 .2-.1.3-.2.4-.3.9-.4 1.4-.1.5-.3.9-.4 1.4-.2.6-.4 1.1-.5 1.7-.2.8-.5 1.5-.7 2.3-.1.3-.2.7-.3 1.1-.1.3-.1.6-.1.8v1.3c-.1.6-.1 1.2-.1 1.7 0 .2 0 .3-.1.5.1.2.1.4.2.6.1.1.2.2.3.2.1.1.2.3.2.4-.2.1-.4 0-.6.1h-.1c-.1 0-.1.1-.1.1 0 .1-.1.2-.1.3-.2 0-.3-.2-.4-.3-.1-.1-.2-.1-.4 0l-.3.3c0 .1-.1.2-.1.4 0 .1-.1.2-.1.2-.4.6-.7 1.2-1.1 1.8l-.3.3c-.2.2-.4.3-.5.5l-.1.1c-.2.2-.4.4-.7.6-.3.2-.5.5-.8.6-.4.3-.7.5-1.1.8-.2.2-.3.3-.5.4-.3.1-.6-.1-1 .1-.3.2-.7.6-.9.9-.1.1-.3.1-.4.2-.4.2-.8.3-1.2.4-.2 0-.3 0-.4-.1-.1-.1-.3-.2-.5-.3-.1 0-.2.1-.3.1-.1 0-.2.1-.2.2-.1.2-.3.4-.4.6-.1.1-.1.2-.2.3-.1.1-.1.2-.2.3-.2.3-.4.4-.8.4h-.2c-.1 0-.3.2-.3.3 0 .1 0 .2.1.3.1 0 .1.1.2.1s.1.1.2.1v.1c-.1.1-.2.2-.4.3-.1 0-.2 0-.2-.1s-.1-.2-.1-.3c-.2-.1-.2-.1-.4-.1-.2.1-.4.2-.6.4-.1.1-.3.2-.4.2-.3.2-.5.5-.4.9 0 0 0 .1.1.1.2.1.3-.1.5.1v.2c-.1.1-.2.3-.4.4-.2.1-.3.3-.4.4-.1.2-.3.3-.4.5-.2.2-.3.3-.4.5l-.1.1c0-.2 0-.3-.1-.5 0-.1-.1-.1-.2-.1s-.2.1-.2.1h-.3c-.1-.1-.1-.2-.2-.3-.2.1-.5.1-.7.2-.1 0-.1-.1-.1-.2s0-.2.1-.3c0-.1 0-.2-.1-.3-.2 0-.4.2-.7.2-.1-.1-.1-.2-.1-.2 0-.1 0-.2-.1-.2-.1-.2-.3-.2-.4-.1l-.1.1c-.2.4-.5.6-.9.7-.2.1-.3.1-.5.2-.1.1-.2.2-.2.4 0 0 0 .1.1.2.2.3.3.3.6.2.2-.1.5-.2.7-.3.1.1.3.3.4.3.2.1.3 0 .4 0 0 0 .1 0 .1.1s.1.2.1.2c.1.1.2.2.3.2h.4s.1 0 .1.1c.2.2.4.2.7.1.1 0 .2-.1.2-.1.1 0 .1.1.1.2-.1.2-.2.3-.3.4-.3.3-.5.6-.8.9-.1.2-.3.3-.4.5-.4.4-.8.8-1.1 1.3l-.4.4c-.4.4-.9.8-1.4 1.2l-.1.1c-.3.4-.8.6-1.2.9-.3.2-.7.4-1.1.6-.1 0-.1.1-.2.1-.2.1-.5.2-.7.3-.2.1-.5.2-.7.4-.6.3-1.2.5-1.8.6-.3 0-.6.2-1 .2-.3 0-.6.1-.9.2h-.2c-.5 0-1.1.2-1.6.1-.2 0-.4 0-.6.1-.3.1-.6.1-.9 0-.2-.1-.5 0-.8-.2-.3 0-.5-.1-.8-.2-.1.6-.4.6-.6.6h-.4c-.9-.3-.9-.3-1.1-.5 0-.2-.1-.4-.1-.6-.2-.2-.4-.3-.5-.5-.1 0-.2-.1-.3-.1l-.9-.3c-.2-.1-.4-.1-.5-.2v-.1c0-.1.1-.2.1-.2.1-.2 0-.3-.1-.4l-.1-.1c-.1-.1-.1-.2-.2-.3 0-.1.1-.1.2-.1.1.1.2.1.3.2.2.1.4-.1.5-.2v-.1c0-.2-.1-.3-.2-.5-.2-.2-.3-.5-.5-.7 0 0-.1-.1-.2-.1s-.2-.1-.2-.1c-.1 0-.1 0-.2.1s-.3 0-.4 0c-.1 0-.1 0-.2-.1-.1 0-.2 0-.3-.1 0 0-.1-.1 0-.1v-.8c.3-.8.6-1.6 1.3-2.1.2-.1.4-.1.5 0 .1.1.2.1.3.2.2.6.2.9.2 1.3 0 .2 0 .3.1.4 0 .1.1.2.1.4-.1.1-.1.1-.2.1-.2 0-.3.1-.4.3 0 .1 0 .2.1.3l.3.3c.1.1.1.3.2.4.2.1.3.2.5.2.1-.1.1-.2.2-.3h.1c.2.1.4.3.6.4.2.2.4.3.7.3.1 0 .3.1.5.1h.2c.1 0 .1.1.1.2s-.1.1-.1.2c-.1.2 0 .3.1.5l.6.6c.1.1.2.1.3.2.1 0 .2 0 .2-.1.1-.1.1-.2.1-.3 0-.1 0-.2-.1-.3-.1-.2-.3-.4-.4-.6-.1-.1-.1-.2-.1-.2v-.1h1.4c.3 0 .5-.1.8-.2.2-.1.4-.1.6-.1h.1v.1c-.1.3 0 .5.2.6.1.1.2 0 .4.1 0 0 .1.1.1.2v.2c.1.2.2.3.4.3h.2c.3-.2.7-.3 1-.6 0 0 .1-.1.2-.1v-.2c0-.1-.1-.2-.2-.3 0 0-.1-.1-.2-.1h-.4c0-.1 0-.3-.1-.4 0-.1-.1-.2-.2-.3.3-.2.6-.4 1-.6.4-.2.8-.5 1.2-.8.4-.3.8-.6 1.1-1 .1-.1.1-.1.2-.1.1.1.1.1.1.2s0 .1.1.2c.1.2.3.3.5.2.1 0 .2-.1.2-.1s.1 0 .1.1v.1c0 .1 0 .3.1.3.1.1.2.1.4.1.2-.1.4-.1.5-.2h.1v.1l-.1.1c0 .1 0 .2.1.3.1.2.3.3.5.2.1 0 .2-.1.3-.1.1.1.1.2.2.3.4.3.4.3.9.1l.1.1c0 .1.1.2.1.2.1.1.1.1.2.1h.2c.3-.2.7-.3 1.1-.6.1-.1.2-.3.4-.5 0-.2.1-.4.1-.6 0-.1-.1-.1-.1-.2-.1 0-.2-.1-.2 0-.2.1-.3.2-.4.4-.1.1-.3.3-.5.3h-.2l-.1-.1c.1-.2.1-.3.1-.5 0-.1-.1-.2-.2-.3-.2 0-.4.2-.6.1-.1-.1.1-.2.1-.3l-.1-.1h-.2c-.2 0-.4 0-.5.2l-.1.1-.2-.1c.1-.2.1-.4.1-.6 0-.1 0-.1-.2-.2-.2.1-.3.1-.5.2l-.1-.1v-.3c0-.1-.1-.2-.2-.2h-.1c-.2.1-.4.2-.5.2-.3.1-.5.1-.8.2h-.1c0-.1.1-.2.2-.3.4-.3.7-.6 1-.9.2-.2.4-.4.6-.7 0-.1.1-.1.1-.2.4-.4.7-.8 1.1-1.2l.1-.1c.3-.4.7-.6 1-.9.1-.1.3-.2.5-.2l.6-.3s.1-.1.2-.1c.1.1.2.1.3.2.3.1.5-.1.7-.1l.6-.3c.2-.1.3 0 .5 0h.2c.3-.1.5-.2.7-.4.1-.1.3-.2.4-.3 0 0 .1 0 .1.1v.1c0 .1 0 .3.1.4.1.1.2.3.4.4h.5s.1 0 .1-.1c.1 0 .1-.1.2-.1.3-.3.7-.6 1-.8 0-.2-.2-.3-.1-.5-.1 0-.1-.1-.2-.1-.2 0-.3 0-.5.1-.2.2-.4.3-.6.5 0 0-.1 0-.2.1 0-.1-.1-.1-.1-.2v-.8c-.1 0-.1-.1-.1-.1-.3-.1-.5 0-.7.2-.2.2-.5.4-.7.6 0 0-.1.1-.2.1-.2.1-.3 0-.3-.2 0-.1 0-.1-.1-.2-.1-.2-.3-.2-.4-.1l-.1.1c-.3.3-.6.6-.9 1-.1 0-.3 0-.4.1-.1.1-.3.1-.4.2-.1 0-.1-.1-.1-.2.2-.2.4-.4.4-.6v-.1c0-.2-.2-.2-.3-.3h-.3c-.1.1-.1.2-.2.3-.3.2-.7.3-1.1.5-.2.1-.5.2-.7.2-.6.1-1.3.3-1.9.4h-.2c-.3.1-.6.1-.9.1h-.3c-.2.1-.5.1-.7.1h-3.3c-.2 0-.4 0-.6-.1h-.3c-.2 0-.4-.1-.6-.1-.2 0-.4-.1-.6-.1-.3-.1-.5-.2-.8-.2h-.1c-.4 0-.7-.1-1.1-.2-.2 0-.5-.1-.7-.2-.3-.1-.6-.2-1-.2-.1-.1-.3-.1-.5-.2-.4-.2-.8-.3-1.2-.4-.2-.1-.5-.1-.7-.2-.5-.2-1-.4-1.4-.7-.5-.3-1-.7-1.6-.9-.2-.1-.4-.3-.6-.5-.3-.1-.6-.2-.9-.4-.3-.2-.6-.3-.8-.6 0-.2-.6-.9-1.1-1.6-.1-.1-.1-.2-.2-.3-.2-.4-.4-.7-.5-1.1 0-.1-.1-.3-.2-.4 0-.3-.1-.6 0-1 .2-.2.4-.5.6-.7.1-.2.1-.3 0-.4 0-.1-.1-.2-.2-.2-.2 0-.3.1-.5.2-.1 0-.2 0-.3.1-.1 0-.2-.1-.2-.1v-.8c0-.2.1-.4.2-.5.3-.1.5 0 .8 0 .1 0 .3.1.4.1.2 0 .4 0 .6.1.2.1.4.2.7.3.1.1.2.1.3.2.2.1.4.3.7.4.3.3.6.5 1 .8l.1.1c.7.7.7.7 1.4 1.1.2.2.5.4.7.6.5.4.9.7 1.5.9.2.1.3.1.5.2.2 0 .5 0 .7.1h.4c.5 0 .9.1 1.4.1.6.2 1.2.1 1.9.1h.1c.1-.1.3-.1.5-.2h.5c.2 0 .4-.1.6-.2h.1c.3-.2.6-.2 1-.3.5-.1.9-.3 1.4-.4l.6-.3c.2-.2.5-.3.7-.4.3-.1.6-.3.8-.5.3-.2.5-.4.8-.5.3-.2.7-.4 1-.6.1-.1.1-.1.2-.1.2-.1.3-.2.5-.2l.6-.3c.2-.1.3-.1.5-.2.1-.1.2-.1.4-.2.1 0 .2-.1.3-.2.1-.1.1-.2.1-.2 0-.1 0-.2-.1-.2-.2-.1-.5-.2-.7-.1-.1 0-.1 0-.2.1-.7.4-1.4.7-2 1.1-.3-.1-.5 0-.7.1zm-9.3 21.3h.5c.2 0 .3-.1.3-.3v-.3c-.1-.2-.1-.4-.3-.5-.2-.2-.4-.3-.7-.4-.1 0-.2 0-.4.1-.1.1-.2.3-.1.5.1.1.2.1.3.2.1.1.2.1.3.3.1.1.1.3.1.4-.1 0-.1-.1-.2-.2-.1-.2-.3-.3-.5-.4-.1 0-.1 0-.2-.1-.2 0-.3.1-.4.1-.1.1-.2.3 0 .5l.2.2c.1.1.2.1.2.2s0 .2.1.3c.1 0 .2.1.4.1.1 0 .3-.1.4-.2.1-.1.1-.1.1-.2s0-.2-.1-.3zm11.2-18.2c0 .1-.1.1-.2.2-.2.1-.4.3-.3.6 0 .1.1.1.1.2h.5c.4 0 .8-.2 1.1-.4.1-.1.1-.3 0-.4-.1-.1-.2-.1-.3-.1h-.4c-.2-.1-.3-.1-.5-.1 0-.1.2-.1.3-.2.1-.1.2-.2.3-.2.1-.1.2-.1.2-.3v-.4c-.3-.2-.6-.1-.8.1-.2.2-.4.3-.7.3-.1 0-.2.1-.3.2 0 0 0 .1-.1.2.1.1.1.2.2.3.2.1.4.2.5.3.1-.3.3-.4.4-.3zm9-9c.3 0 .6 0 .9-.1.3 0 .6-.1.9-.1h.1c.1 0 .3.2.5.2 0 0 .1 0 .1-.1.2-.1.3-.3.3-.5v-.3c0-.1-.1-.2-.2-.3-.1 0-.2-.1-.2-.1h-.1c-.2.1-.3.1-.5.2s-.4 0-.6 0c-.1 0-.2 0-.3.1-.4.1-.8.2-1.1.2h-.2c-.6.2-1.2.5-1.8.8-.5.3-1 .6-1.5.8h-.8c-.2.1-.3.2-.4.3-.1.1 0 .2 0 .3.1.1.2.1.4.1h1c.1-.1.3-.2.4-.2.4-.2.8-.4 1.1-.6.5-.3 1-.6 1.5-.7.3.1.4 0 .5 0zm-4.2 10.9c-.1.2-.2.4-.1.6 0 .1.2.1.2.2-.1.1-.2.2-.2.3-.1.1-.1.2 0 .3 0 .1.2 0 .2.1-.1.1-.3.1-.3.3V60.8c0 .2 0 .4.4.5.1 0 .2.1.3.1h.2c.1-.1.3-.1.5-.2 0-.2.2-.4.4-.6.1-.1.2-.2.1-.4-.1-.1-.1-.2-.2-.3 0-.2 0-.2.1-.4 0-.1-.1-.2-.1-.3v-.7c0-.1-.1-.2-.1-.3.1-.2.1-.3.1-.5v-.2c0-.1-.1-.1-.1-.2-.3-.1-.7 0-1 0-.2.1-.3.2-.5.3v.3c-.1.3 0 .4.1.5zM20 60.8c.1 0 .1 0 .2-.1.2-.1.3-.3.2-.5 0-.2-.1-.3-.2-.5.1-.2.2-.4.2-.7v-.1c0-.2-.1-.3-.3-.3 0 0-.1 0-.1-.1 0 0 0-.1.1-.1s.2-.1.2-.1c.1 0 .2-.1.3-.2v-.3c-.1-.1-.2-.1-.3-.2-.1-.1-.1-.2-.2-.2h-1c-.1 0-.1 0-.2.1-.2.1-.3.3-.2.5.1.1.1.2.3.3.1 0 .2 0 .4.1h.3c.1 0 .1 0 .1.1 0 0 0 .1-.1.1h-1c-.1.1-.1.2-.2.2v.1c-.1.1 0 .3.1.4.1.1.3.2.4.2-.1.1-.2.3-.2.4.1.3.3.4.5.5.1.4.4.3.7.4zm19.5-34.4c-.1-.1-.1-.1-.1-.2-.1 0-.1-.1-.2-.1s-.2.1-.3.1c-.1.1-.2.1-.2.3.1.2.1.4.2.6 0 .1.1.3 0 .4v.3c.1.1.1.2.2.3.1.1.2.1.4.1.1-.1.2-.1.3-.2.1.2 0 .4.1.5.1.1.3.1.4.2.2.1.3.3.5.3.1 0 .2-.1.3-.2.1-.1.2-.2.3-.2 0-.1.1-.3.1-.3 0-.3 0-.5-.1-.8v-.3c0-.1-.1-.2-.3-.3h-.2c-.1 0-.2.1-.2.1-.1-.1-.1-.2-.1-.3 0-.1-.1-.1-.1-.1-.2-.1-.4 0-.6.1-.1.1-.1.1-.1.2 0 0-.1 0-.1.1-.1 0-.1-.3-.2-.6zm-5.1 2.3H34.1c-.1 0-.1-.1-.1-.1 0-.2.1-.3.1-.5-.1-.1-.2-.1-.3-.1-.1 0-.1.1-.2.1h-.2s0-.1-.1-.1c.1-.1.1-.2.2-.3 0-.2 0-.3-.1-.4-.2-.1-.3 0-.5 0-.3.2-.6.4-.8.7-.1.1-.1.2-.2.3.1.3.4.3.5.5 0 .1-.1.2-.1.4.1.1.2.2.3.2.1.1.3 0 .4.2v.2c0 .1 0 .2.1.3.1 0 .2.1.3.1h.8c.1-.1.1-.2.2-.3.1-.1.2-.2.2-.3v-.2c-.1-.4-.1-.6-.2-.7zm-9.9 32.7c-.2-.2-.6-.2-.8-.3h-.1c-.2 0-.4.1-.6.3v.1c0 .1-.1.2 0 .4.1.1.3.2.4.2h.3s.1 0 .1.1c0 0 0 .1-.1.1h-.3c-.2.1-.3.1-.4.3 0 .3.3.3.3.5l-.2.2c-.1.1-.1.2 0 .3l.2.2c.1.1.3.1.4.1.2-.1.5-.1.7-.1h.3c.2 0 .3-.1.4-.3 0-.1.1-.2.1-.2 0-.1-.1-.2-.1-.2 0-.1-.1-.1-.2-.2-.1 0-.2-.1-.2-.1-.1-.2-.1-.4-.2-.5.3-.4.2-.7 0-.9zM61.7 30v.1c-.1.2-.1.2-.3.2-.1 0-.3 0-.4.1-.1.1-.3.1-.5.2-.1 0-.3.2-.3.3v.4l-.1.1c-.1 0-.2 0-.2-.1-.2 0-.4 0-.5.2-.1.1-.1.3-.1.5 0 0 0 .1-.1.1-.3-.2-.6-.2-.9.2v.2c.2.1.4.3.5.4.1.1.3.1.3-.1.1-.1.1-.2.2-.3.2 0 .3.1.5 0 .1-.2.2-.4.2-.6 0-.1.1-.2.2-.2h.2c.2-.1.3-.3.5-.4.1-.1.3 0 .4-.1.2-.1.2-.4.3-.5.1 0 .2 0 .3-.1.2-.1.3-.2.4-.4v-.3c-.1-.2-.2-.4-.4-.4.1.3 0 .4-.2.5zM24.8 75.4c.2-.1.4-.1.5-.2.1-.1.3-.2.4-.3 0 0 .1-.1.1-.2v-.2c-.1-.1-.1-.1-.3-.1-.2 0-.4.1-.7.1h-.3c-.1 0-.2-.1-.3-.2 0-.1-.1-.2-.1-.3 0-.1-.1-.1-.2-.1h-.2c-.2.1-.5.1-.7.2h-.1l.1-.1c.2-.1.3-.3.5-.4.2-.1.2-.3.2-.5 0-.1-.1-.2-.2-.3-.1 0-.2.1-.4.1-.3.3-.6.5-1 .7-.1 0-.1.1-.1.1-.1.2-.1.5.2.6.1 0 .2.1.4 0h.2c.2.1.2.3.3.5.2.1.3.2.5.1h.1c.1 0 .2 0 .2.1 0 .2.1.3.3.4h.6zm12.8-50.5c-.1-.1-.3 0-.4 0-.2 0-.3.1-.3.3v.2c0 .3-.1.5-.2.8 0 .1-.1.3-.3.4l-.1.1v.1c0 .4 0 .5.5.4.1 0 .3-.1.4-.1.1-.1 0-.2.1-.3 0-.1 0-.2.1-.3.1.3.2.6.2.9v.3c0 .2 0 .3.1.4.1-.1.3-.1.4-.1.2-.1.3-.1.5-.2 0 0 0-.1.1-.1v-.1c-.2-.2-.3-.5-.3-.8v-.5c.1-.1.1-.3.2-.4 0-.1 0-.2-.1-.3-.3-.1-.3-.1-.4 0H38c-.1 0-.2.1-.2 0s0-.1.1-.2.1-.2.1-.3c-.2-.1-.3-.1-.4-.2zm15.1 7.2c-.1-.1-.3-.2-.4-.4 0-.1-.1-.1-.2-.1h-.2c-.1 0-.2.1-.3.1-.1 0-.1.1-.1.2s0 .2.1.2c-.3 0-.6 0-1-.1-.2.1-.3.2-.2.3 0 .5 0 .9-.1 1.3 0 .1-.1.3 0 .4.1.1.2.2.4.1s.3-.2.3-.4v-.6s0-.1.1-.1.2.1.2.1h.4c.1 0 .2-.1.2-.2s0-.2.1-.3h.4c.1 0 .1 0 .2-.1s.3-.2.3-.4V32c-.1.2-.2.2-.2.1zm-17.3 8.5c.2.3.4.4.7.4h.3c.2.1.3.3.5.3.2-.1.4-.2.6-.4.3-.3.5-.6.8-.8 0 0 0-.1.1-.1v-.5c-.1 0-.1-.1-.2-.1h-.3c-.1.1-.2.1-.4.2-.1-.1-.1-.2-.2-.3-.2-.1-.3-.1-.5 0-.1.1-.3.3-.4.5-.2.1-.4.2-.7.3 0 .2-.1.3-.3.5zm11.4 10.6c0-.1.1-.3.2-.4v-.3c0-.1-.1-.2-.2-.2s-.1 0-.2.1c-.1 0-.2.1-.2.1l-.1-.1v-.1c-.1-.1-.2-.2-.4-.1-.4.3-.9.5-1.3.8-.1 0-.1.1-.1.1v.2c.1.3.4.4.6.4.1 0 .2-.1.3 0l.3.3c.1.1.1.1.2.1.1-.1.3-.2.5-.3 0-.3.2-.3.4-.6zm-17.6-.5c-.1.1-.2.2-.2.3-.1.1 0 .4.2.4.1 0 .3 0 .4-.1l.4-.4c.3-.1.6-.2.9-.4.3-.1.7-.3 1-.4.2 0 .4 0 .5.1h.3c.1 0 .2-.1.2-.2v-.1c0-.3-.2-.4-.4-.4-.4 0-.9.1-1.3.2-.4.2-.8.4-1.2.5-.2.1-.3.1-.5.2 0 .1-.2.2-.3.3zM58.5 42c-.1-.1-.2-.1-.3-.2H58c-.1 0-.1.1-.3.1-.1 0-.3-.1-.4-.1-.2 0-.3.2-.5.2-.1 0-.2-.1-.4-.1s-.3.1-.4.2c-.1.1 0 .3-.1.4 0 .1-.1.2-.1.4v.2c0 .1.1.2.2.3h.2c.1 0 .2 0 .2-.1l.3-.3h.2c.3 0 .5-.2.7-.3.1 0 .2.1.3.2.2.1.4 0 .5-.2.1-.1.1-.2.1-.4.1-.1 0-.2 0-.3zm-.1-3c-.1-.1-.3-.2-.4-.3h-.3c-.1 0-.1.1-.2.1-.1.2 0 .3-.2.4-.1 0-.3 0-.4-.1-.1 0-.3-.1-.5 0l-.1.1c-.1.1-.2.3-.1.4 0 .1.1.2.1.3.1.1.2.1.3.2h.8c.2-.1.3-.2.5-.3.1-.1.2-.3.3-.4 0 0 .1-.1.2-.1h.4c.2-.1.3-.1.4-.3v-.6c0-.1-.1-.2-.2-.2-.3 0-.5 0-.6.2v.6zm-11.8 6c.2-.1.3-.2.4-.4 0-.2.1-.3.2-.5.1.1.1.2.2.4-.1.2-.1.4-.2.7.1.2.2.2.3.2.1 0 .3 0 .4-.1.1-.5.3-1 .3-1.5l-.2-.2c-.1-.1-.2-.1-.4-.1h-.2c-.1 0-.1.2-.3.2-.1-.2-.3-.3-.6-.3-.1 0-.2.1-.3.1-.1.1-.2.2-.2.4 0 .1.1.1.1.2s.1.2.1.2v.1c-.1.1-.1.2-.2.2v.1c.3.2.5.3.6.3zm13.6-8.9c0-.1-.1-.2-.2-.3-.1-.1-.2-.1-.2-.1h-.4c-.1-.2-.4-.1-.7-.2l-.2-.2c-.2-.1-.4 0-.5.1-.1.1-.2.2-.2.3-.2.1-.5.2-.6.5 0 .1 0 .2.2.3.1.1.3.1.5.1.1-.1.2-.3.5-.3.1.1.2.2.3.2h.4c.2.1.4.3.6.3 0 0 .1 0 .1-.1.2-.1.3-.3.4-.6zM48.1 52.3c-.2-.3-.4-.2-.5-.3v-.2c0-.1 0-.3.1-.4 0-.1 0-.1-.1-.2-.2 0-.3 0-.5.1-.1.1-.2.2-.2.3-.2.1-.4.2-.5.3-.1 0-.2.1-.2.2 0 0-.1.1-.1.2s.1.2.2.3c.1.1.2.1.4.1h.2c.1.2.1.4.4.5.2.1.4.1.7.1-.2-.4.1-.6.1-1zm.6-10.3c0 .1-.1.3-.1.4 0 .1 0 .2.1.3.1.1.1.1.2.1.2-.1.3-.1.5-.2.1.1.2.1.2.2.1.1.2.1.3.1.2-.1.4-.2.5-.4l.1-.1c0-.1.1-.3.1-.5s-.1-.3-.2-.4c0 0-.1-.1-.2-.1-.2 0-.3.1-.4.3v.5c-.1.1-.2.1-.3.1 0-.1-.1-.1-.1-.2s0-.2.1-.3v-.2c-.1-.2-.1-.4-.3-.5h-.1c-.2 0-.4.1-.5.3-.1.1-.1.2-.1.3.1.1.1.2.2.3zm-23.6 1.8c.1 0 .1 0 .2.1.2 0 .3 0 .5-.1.2-.2.3-.4.5-.7 0-.2-.1-.3-.3-.4-.1 0-.2 0-.3-.1l-.1-.1c-.1-.1-.3-.2-.5-.1 0 0-.1 0-.1.1-.1.2-.3.3-.4.5-.1.2-.3.3-.5.4 0 0 0 .1-.1.1V43.8c.1.1.3.2.5.2.2.1.3-.1.6-.2zM36.3 23c-.2.1-.4.1-.5.3 0 .6 0 .6-.4 1.7 0 .2.2.4.3.5h.7c.1 0 .2-.1.2-.2s0-.3-.1-.4c-.1-.1-.2-.2-.2-.3 0-.3.2-.5.3-.7 0-.3.2-.5.2-.8-.1-.1-.3-.1-.5-.1zm-.1 28.4c-.2-.1-.3-.1-.5-.2h-.5c-.2.2-.5.3-.8.4-.1.1-.1.1-.2.1-.2.1-.2.3-.1.5 0 .1.1.2.2.2.1.1.2.1.4.1.2-.1.4-.2.6-.4h.3c.1 0 .1 0 .2-.1.3-.1.5-.3.5-.6v-.1c0 .2 0 .2-.1.1zm.9 4.5h.2c.3-.2.6-.3.8-.5.2-.1.3-.3.5-.4.1-.1.1-.3.3-.3 0 0 0-.1.1-.1 0-.1-.1-.2-.1-.3 0 0 0-.1-.1-.1-.1-.2-.3-.2-.4-.1-.1.1-.3.2-.4.3-.2.3-.5.6-.8.8l-.3.3s-.1.1-.1.2c-.1.1 0 .3.1.4 0-.3.1-.3.2-.2zM25.7 40.1c.1.1.3.2.4.2h.3l.5-.5c.1-.1.2-.3.1-.4 0-.1-.1-.1-.1-.2l-.2-.2c-.1-.2-.1-.3-.2-.5 0-.1-.1-.1-.1-.1-.1 0-.3 0-.4.1l-.4.4s-.1.1-.1.2c-.1.1-.1.3 0 .4l.2.2c-.1.1 0 .2 0 .4zm3.9 21.5c-.3.1-.5.2-.8.3-.3.1-.6.2-.8.4l-.3.3c-.1.1-.1.3.1.4.2.1.3.1.5.1.1 0 .2-.1.2-.2.3-.1.5-.2.7-.4.1 0 .2-.1.2-.1.1 0 .1-.1.2-.1.1-.2.1-.4.2-.6.2-.1 0-.1-.2-.1zm28-31.3c-.2.2-.4.4-.5.7l.1.1c.1 0 .2.1.4.1l.2.2.2.2c.2.2.4.2.7 0 .1-.1.1-.1.1-.2s-.1-.2-.1-.4c0-.1-.1-.2-.2-.2h-.3s-.1 0-.1-.1c.1-.2.2-.3.4-.5.1-.1.1-.3 0-.5-.1-.1-.2-.2-.4-.2s-.3.1-.3.3c-.1.1-.1.3-.2.5zM53.7 28c-.2 0-.4-.1-.5.1-.1.1-.1.2-.1.4 0 .1.1.2.1.4l.1.1c.3.1.3.3.2.6-.1.2.1.4.3.4h.3c.3 0 .6-.1.9-.2 0-.1.1-.1.2-.2 0-.1 0-.2-.1-.2s-.1-.1-.2-.1h-.5c-.1 0-.2 0-.2-.1-.3-.6-.3-.9-.5-1.2zM39.3 59.2c.2 0 .3-.1.5-.1.3-.1.6-.2.8-.4.1-.1.2-.2.2-.3 0-.2-.1-.4-.3-.4h-.3c-.2.1-.4.1-.5.2-.3 0-.5 0-.9.1l-.1.1c-.1.2-.1.3-.2.5.3.2.6.2.8.3zm12.7-29c.2-.1.2-.2.3-.4 0-.1 0-.2.1-.4v-.1c-.1-.2-.3-.3-.4-.5-.1-.1-.1-.1-.2-.1s-.3.1-.5.1c-.1 0-.3-.1-.4-.1-.1.1-.2.1-.3.2-.1.1-.1.2-.1.2.1.3.2.5.4.7.1.1.3.1.4 0 0 0 0-.1.1-.1.1-.2.2-.2.3 0 .1.1.1.2.2.3 0 .2.1.2.1.2zm-8.3 20.7c.1 0 .2-.1.3-.1.3-.1.5-.3.8-.3.1-.1.3-.2.4-.3.1-.1.2-.3.2-.5s-.2-.2-.3-.3H45c-.1 0-.3.1-.4.1-.3.1-.6.3-.9.4l-.1.1c-.1.2 0 .4 0 .7-.1.1 0 .1.1.2zm-5.2-9.4c.3-.2.5-.4.8-.6.2-.2.4-.4.5-.6v-.1c-.1-.1-.3-.2-.5-.2h-.2c-.1.1-.2.1-.2.2-.2.2-.4.4-.6.4-.1 0-.1.1-.2.1 0 0-.1 0-.1.1s-.1.2-.2.4c0 .2.1.2.2.3h.5zm-3.3-2.9c-.2 0-.2.2-.3.3 0 .1-.1.2-.1.4v.4c.3.2.5.1 1.1-.1l.2-.2c.1-.1.2-.2.3-.2v-.3c0-.1 0-.2-.1-.2-.1-.1-.3-.1-.4-.1-.1.1-.4 0-.7 0zm-2.6 6.5c-.1 0-.2-.1-.3-.1-.1.1-.2.1-.3.2h-.5c-.2.1-.5.3-.8.4-.1.1-.2.1-.2.3.1.2.2.4.4.5.2 0 .3-.1.5-.1.1-.1.2-.2.3-.2.1-.1.2-.1.3-.2.2-.1.4-.2.5-.4.1-.1.2-.2.1-.4zm.9-1.2c-.1.2-.2.4-.3.5-.1.1 0 .3.1.3.2.1.3.1.5 0 .1 0 .1-.1.2-.1.1-.4.3-.8.5-1.3 0-.1.1-.2.1-.2 0-.1 0-.1-.1-.2-.2-.1-.3-.3-.6-.2-.1.1-.2.2-.3.4-.1.4-.1.6-.1.8zm26-16.5c-.3-.3-.6-.5-1-.6-.1 0-.3.1-.4.1-.1.1-.1.2-.1.4s.1.3.2.5l.1.1c.1.1.2.1.3.2h.7c.1 0 .3-.1.3-.2-.1-.2-.1-.3-.1-.5zm-7.6 11.7v-.9c0-.1 0-.2-.1-.3-.1-.2-.3-.3-.5-.3-.3.1-.4.2-.3.5v.1c.1.3.1.5 0 .8-.1.2-.3.3-.2.5.1.1.2.1.3.1.1-.1.2-.1.3-.2.3-.1.4-.2.5-.3zm-8.6-6.8c0 .4 0 .9-.2 1.3v.2c.1.2.3.3.5.1.2-.2.4-.4.4-.8 0-.3 0-.5.1-.8 0-.1-.1-.2-.1-.3 0-.1-.1-.2-.2-.2h-.3c-.1.2-.2.3-.2.5zm-.9.1c-.1-.1-.1-.2-.2-.3-.1-.1-.2-.2-.3-.2-.2 0-.3.1-.4.3v.1c0 .2 0 .4.1.6 0 .2-.1.4-.1.6.2.2.4.3.7.2.1-.2.2-.3.4-.4.1 0 .1-.2 0-.2 0-.1-.1-.1-.1-.2-.1-.3-.1-.4-.1-.5zm-2.9 23.1c-.1-.2-.1-.3-.2-.5 0 0-.1-.1-.2-.1-.1.1-.3.1-.4.2-.1.1-.1.2-.2.2-.3.2-.4.5-.6.7-.1.2 0 .4.2.5.1 0 .3.1.5 0 .3-.2.6-.5.8-.8 0 0 0-.1.1-.2zm-11.4-1.4L28 54c-.2-.1-.3-.1-.5 0-.1.1-.3.1-.4.2l-.6.3c-.1 0-.1.1-.1.1 0 .4.1.5.4.6h.1c.1 0 .2-.1.4-.2h.4c.1-.1.2-.2.4-.3-.1-.2 0-.4 0-.6zm8.6-1.6h-.5c-.3.1-.5.2-.8.3-.1 0-.1 0-.2.1-.2.1-.3.4-.1.6l.1.1c.1.1.2.1.2.1l.9-.3c.1-.1.3-.1.4-.3 0-.2.1-.3 0-.5.1-.1.1-.1 0-.1zm-17.5 8.4c-.1 0-.2.1-.3.2-.2.1-.2.4-.1.5.1.1.2.2.3.2.3 0 .6 0 1 .1.1 0 .3 0 .4-.1 0 0 .1-.1.1-.2v-.5c0-.1-.1-.1-.1-.2-.4.1-.8.1-1.3 0zm35-36.1c-.1-.1-.2-.3-.3-.4-.1-.2-.3-.3-.6-.4-.1 0-.3 0-.4.2v.3c0 .2.1.3.2.5.2.2.3.4.4.6 0 .1.1.1.1.2.1.1.2.1.3.1.1 0 .2-.1.2-.2.2-.4.2-.6.1-.9zm-5.8 24.7c.1.2.2.3.4.4h.2l.1-.1c.2-.3.5-.6.7-.8.1-.1.1-.1.1-.2 0-.2 0-.3-.1-.4-.2-.1-.3-.1-.5 0-.2.3-.5.6-.8.8 0 0-.1.1-.1.3zM46.7 26V27.2c0 .2.1.3.2.3.2 0 .4-.1.5-.3.1-.2.2-.4.2-.7 0-.3-.1-.5-.1-.8 0-.2-.2-.3-.4-.2-.1.2-.3.3-.4.5zm.9 13.7c0 .2.2.3.4.3.1-.1.2-.1.4-.2.1-.2.2-.3.3-.5v-.5c0-.2 0-.3-.1-.4 0-.1-.1-.1-.2-.2H48c-.1 0-.2.2-.2.4 0 .1.1.1.1.2s.1.1.1.3c-.2.2-.3.4-.4.6zm-9.9 14.4V53.8c0-.1-.1-.2-.3-.2h-.1c-.3.1-.5.2-.8.2-.1 0-.3.1-.4.1-.2.1-.2.3-.2.5s.1.2.3.3h.4c.2-.1.5-.1.7-.1.2-.3.3-.4.4-.5zM32.1 44c.3-.1.3-.1.4-.2.1-.3.4-.5.6-.6.1-.1.2-.2.2-.3v-.2c-.1-.1-.2-.1-.4-.1h-.4l-.6.3c-.1.2-.2.4-.3.7v.2c.2 0 .4.1.5.2zm19.3-18.5c.1.1.1.3.2.4 0 .1.1.1.1.2.1.1.2.1.4.1.1 0 .2-.1.3-.3.1-.3 0-.6-.2-.8-.2-.2-.4-.4-.5-.6-.4-.1-.4-.1-.6.1-.1.1-.1.2-.1.3 0 .2.2.4.4.6zM14.7 58.9h1.4c.2 0 .3-.1.3-.3 0-.2-.1-.3-.2-.4 0-.1-.1-.1-.1-.1H14.7c-.2.1-.3.4-.1.5-.1.2 0 .3.1.3zm30-14.6v.7c0 .1 0 .1.1.2s.2.1.4.1c.3-.1.5-.3.5-.6 0-.2 0-.5-.1-.7-.1-.3-.2-.4-.5-.4H45c-.2 0-.3.1-.3.3-.1.1 0 .3 0 .4zM30.1 66.5c.3-.1.5-.3.7-.4.1 0 .1-.1.2-.1.1-.2 0-.5 0-.7-.1-.1-.2-.2-.3-.1h-.1l-.9.6-.1.1c-.1.1-.1.1-.1.2 0 .3.2.4.4.4h.2zm9.2-33c0 .1 0 .2.1.3.1 0 .1.1.2.1h.4c.1 0 .2-.1.3-.2.1-.3.2-.6.3-.8v-.3c0-.2-.2-.3-.4-.3-.2.1-.4.1-.5.3 0 .1-.1.3-.1.4-.1.2-.2.3-.3.5zm9.5 12c.1-.2.2-.3.3-.5.1-.2.2-.4.2-.5.1-.2 0-.3 0-.5 0-.1 0-.1-.1-.2l-.1-.1c-.4-.1-.6.2-.6.5 0 .1 0 .2.1.3 0 .4-.2.7-.4 1 0 .1.1.1.1.1.1.1.3 0 .5-.1zm.6-7.2v.6c-.1.1-.2.2-.2.4 0 .1-.2.2-.2.3.1.1.2.1.3.1h.3c.1 0 .1 0 .2-.1 0-.2.2-.4.3-.6 0-.1.1-.2.1-.3.1-.2.1-.3 0-.5 0-.1 0-.1-.1-.2s-.3-.2-.5-.1c-.1.1-.2.2-.2.4zM28.5 57.7h-.7c-.1 0-.3.1-.4.2-.1 0-.1.1-.2.1 0 0 0 .1-.1.2.1.2.2.3.4.4h.4c.1 0 .3.1.4.1.1-.1.2-.1.3-.2.1-.1.2-.2.2-.3V58c0-.1-.1-.2-.2-.3.1.1 0 0-.1 0zm.3 2.1.3-.3c.1-.1.1-.3 0-.4-.1-.1-.2-.2-.4-.3-.3.1-.6-.1-1 0-.2.1-.3.2-.3.4 0 .1 0 .2.1.3.1 0 .2.1.2.1.4.2.7.2 1.1.2zM39 57.7c.3-.2.6-.3.8-.5.1-.1.1-.2.2-.3 0-.2-.1-.3-.1-.5-.1-.1-.2-.1-.3 0-.1.2-.3.3-.5.4-.2.1-.3.2-.4.4 0 .1-.1.2 0 .3 0 .1.1.2.2.2h.1zm-7.8-16.4c-.2.2-.3.5-.5.8-.1.1-.1.2-.1.3v.1c.2.2.2.2.4.3.2 0 .3-.1.4-.3.1-.1.1-.2.2-.2.1-.1.2-.1.2-.1.1-.1.2-.1.2-.3v-.3c0-.1 0-.2-.2-.3-.2-.1-.4-.1-.6 0zm17.5-8.9c0 .1.1.2.2.4s.1.4 0 .6v.2c0 .1.1.1.2.2.1 0 .2.1.3 0 .2-.1.3-.3.4-.5 0-.4 0-.8-.2-1.1h-.1c-.2-.2-.3-.2-.5-.2-.1 0-.1.1-.2.1-.1.1-.1.2-.1.3zm2.2-6.2c0-.1-.1-.2-.1-.3-.2-.2-.4-.4-.5-.7 0-.2-.2-.2-.4-.2-.1 0-.2.1-.3.1-.1 0-.1.2-.1.2 0 .2.1.4.2.5.1.1.2.3.2.5 0 .1.1.2.2.2.2.1.4 0 .6-.1l.2-.2zm-7.7 3.1c0 .1.1.2.1.3.1.1.3.1.4 0 .1-.1.1-.3.2-.4.2-.2.3-.5.4-.7.1-.3 0-.4-.2-.6H44c-.1 0-.2.1-.3.1-.1 0-.2.1-.2.1-.1.2-.1.4 0 .6 0 .2-.2.3-.3.6zm1.9 4.8s.1-.1.2-.1c.1-.1.1-.2.2-.3.1-.4.3-.7.4-1.1v-.3c0-.1-.1-.2-.3-.3h-.4c-.1.1-.2.3-.2.5 0 .4-.1.9-.2 1.2 0 .2.1.3.3.4zm7.9 4.4v.5c0 .2.1.3.3.3h.2c0-.1.1-.1.1-.2.1-.4.2-.7.3-1.1v-.1c0-.1-.1-.3-.3-.3h-.3c-.1 0-.2.1-.2.1-.1.1-.1.2-.1.4-.1 0-.1.2 0 .4zm-3.8-12.3c-.1-.2-.1-.4-.2-.6 0 0 0-.1-.1-.1s-.1-.1-.2-.1c-.3-.1-.6.1-.5.4v.1c0 .1.1.2.1.4v.4c.1.1.2.2.3.2.1 0 .2 0 .3-.1.1 0 .1-.1.2-.1 0 0 0-.1.1-.1v-.4zM23.3 60.1c-.1.2 0 .3 0 .3 0 .1.1.1.2.2.3.2.7.2 1.1.2.1 0 .2-.1.3-.3 0-.2 0-.3-.1-.4 0-.1-.1-.2-.2-.2h-.5c-.4 0-.6.1-.8.2zm1.1-1.8c-.1-.1-.3-.1-.4-.2-.3-.1-.5.1-.5.4v.2l.2.2c.1.2 0 .3 0 .4.1 0 .1.1.2.1h.1c.2 0 .3-.1.4-.2.1-.1.2-.1.2-.3 0-.1 0-.3-.2-.6zm25.9-12.8.2-.2c.1-.1.2-.3.2-.5 0-.3 0-.6-.1-.8-.1 0-.1-.1-.1-.1-.3-.1-.4-.1-.6.1-.1.1-.1.2-.1.3 0 .2.1.4.1.6 0 .2-.1.3 0 .4.1.2.2.2.4.2zM54.7 30c-.3.1-.5.2-.7.3-.1.1-.2.1-.3.3v.2c.1.2.2.4.4.4.3-.1.5-.2.7-.3.2-.1.3-.3.4-.5 0-.3-.3-.3-.5-.4zm-4.1 7.3c.1-.2.2-.3.3-.5v-.7c0-.2-.1-.4-.3-.4-.3 0-.5.2-.6.5 0 .1.1.3.1.4 0 .1-.1.2-.1.3 0 .1.1.2.1.2.1.1.1.2.3.2.1.1.1.1.2 0zm-6.4 1.5v.3c0 .1.1.2.1.2.1.1.2.1.4.1.1 0 .2-.1.2-.1 0-.1.1-.3.1-.4 0-.1-.1-.2-.1-.4 0-.1 0-.3-.1-.4 0-.1-.1-.2-.2-.2-.2 0-.3 0-.4.1-.2.1-.2.2-.2.3 0 .2.1.4.2.5zm13.7-10.7c-.2-.1-.3-.3-.5-.3s-.3.1-.5.1c-.1.1-.2.2-.2.3 0 .1.1.2.1.3 0 .1.1.2.1.3l.3.3h.4c.1-.1.2-.3.3-.5.2-.3.1-.4 0-.5zm-10 4.6c-.2-.1-.3-.1-.5-.1s-.3.2-.3.4.1.5.2.7c0 .1.1.1.1.2.1.1.3.1.4 0l.4-.4c.1-.1.1-.2.1-.2 0-.1-.1-.2-.2-.3-.1-.1-.1-.2-.2-.3zm-.7 21c0 .1-.1.2-.1.3v.1c.2.2.3.3.6.2.2 0 .3-.1.5-.2.1-.1.3-.2.3-.4 0-.1-.1-.3-.1-.4 0 0-.1 0-.1-.1-.4.1-.7.3-1.1.5zm9.4-25.2c-.2-.1-.4 0-.5.1-.1.1-.2.2-.2.4.1.2.2.4.4.6.1 0 .2.1.2.1h.2c.1-.1.4 0 .5-.2-.1-.4-.2-.7-.6-1zm-9.5-4.6c0-.1 0-.2-.1-.3 0-.2-.2-.4-.4-.5h-.2c-.1 0-.3.1-.4.1-.1 0-.1.1-.1.2 0 .2.1.3.1.5s.2.3.2.5c0 .1.2.2.3.2l.3-.3c.2-.2.3-.3.3-.4zm4.8-.7c-.1-.2-.1-.4-.2-.6 0-.1-.1-.2-.1-.2h-.1c-.3 0-.5.3-.4.5 0 .1.1.2.1.3v.4c.1.1.1.2.2.2l.1.1c.2 0 .2 0 .3-.2.1-.1.2-.3.1-.5zM31.9 53H31.6c-.2 0-.4.1-.6.1-.2.1-.2.3-.3.4 0 .1 0 .2.1.3.2.1.3.1.5.1.3-.1.5-.2.8-.3.1 0 .1-.1.2-.1v-.1c-.1-.1-.2-.3-.4-.4zm10.9 3c-.1.1-.3.1-.4.2-.1.1-.2.3-.1.5.1.1.2.2.4.2h.5c.1-.1.3-.2.4-.3.2-.1.2-.3.1-.5-.3-.1-.6-.2-.9-.1zm14.3-11.2c-.2-.2-.5-.2-.7-.2h-.2c-.2.1-.4.2-.4.4s.1.4.3.5h.5c.2-.1.4-.2.5-.3.1-.2.1-.3 0-.4zm-4.4-22.1c0 .1 0 .1.1.2s.1.2.2.3c.1.1.2.3.3.4 0 .1.1.1.1.1.2-.1.4-.1.5-.3-.1-.3-.2-.5-.3-.8 0-.1-.1-.2-.1-.2-.1-.1-.3-.1-.5-.1-.1 0-.2.1-.2.1-.1.2-.1.2-.1.3zm-4-.7c-.1 0-.2.1-.3.1 0 0-.1 0-.1.1-.1.1-.2.1-.2.3v.1c.2.2.4.5.5.7.1.1.3.1.4 0 .1-.1.1-.2.1-.3 0-.1-.1-.3-.1-.5 0-.1-.1-.2-.1-.3.1 0 0-.1-.2-.2zm-3.9 2.8c.1 0 .1-.1.1-.1.2-.6.2-.8-.3-1-.1 0-.1-.1-.2-.1h-.1c-.2 0-.3.1-.4.2-.1.2-.1.5.1.6.3.2.6.3.8.4zm-3.5 30.3c.2.2.5.3.8.2.2-.1.3-.2.3-.4s-.1-.4-.3-.6h-.4c-.2 0-.3.1-.3.3 0 .1 0 .3-.1.5zM56.5 22h-.3c-.1 0-.2.1-.2.2-.1.2 0 .7.3.7h.5c.2 0 .3-.1.3-.3 0-.1 0-.2-.1-.3-.1-.1-.3-.2-.5-.3zM40.2 41.2c-.2-.2-.3-.2-.5-.1s-.3.2-.4.3l-.1.1c-.1.1-.1.2-.1.4 0 .1.1.2.3.2h.4c.1-.1.3-.2.4-.4.1-.2.1-.4 0-.5zm6.6-11.7c-.2-.1-.4-.2-.6-.2-.1 0-.2 0-.3.1l-.1.1c-.1.2-.1.4.1.6.1.1.2.1.3.1h.2c.1-.1.3-.1.3-.3.2-.1.2-.3.1-.4zm13.8-2.7c0-.2.1-.4.1-.5 0-.1-.1-.2-.2-.2-.2-.1-.5-.1-.7 0-.1 0-.2.1-.2.3v.1l.3.3c.3.2.5.2.7 0z"/>
    <path class="st1" d="M36.8 22.1s-.1 2.5 2.5 2.5 2.5-.3 4.7.4c2.2.6 2.7.5 4.7-.1s4.3-.7 4.7-2.3.3-1.3.6-2.5c.4-1.1 1.3-2.3 1.3-2.3s-1.2-1-2.1-1.1c-1 0-1.6-.4-2 0-3 3.6-5.6 3.6-5.9 4.1-.3.6-2.8 1.6-2.8 1.6s-1.1-.5-2.6-.5c-1.3.1-3.1.2-3.1.2z"/>
    <path class="st0" d="M25.4 53.5v.1c-.4.3-.9.6-1.4.9-.1.1-.2.1-.3.2-.5.3-.9.5-1.5.7-.4.1-.8.3-1.2.4-.4.1-.7.3-1.1.4-.3.1-.6.2-.9.2-.1 0-.3 0-.5.1-.1 0-.3 0-.5-.1-.2 0-.4 0-.6-.1-.1 0-.3 0-.4-.1-.5 0-.9-.1-1.4-.1h-.3c-.1-.1-.3-.1-.4-.1-.3 0-.6-.1-.9-.3-.7-.3-1.3-.8-1.9-1.2-.2-.2-.4-.4-.7-.5-.5-.4-1-.8-1.5-1.3-.2-.2-.5-.3-.6-.5 0 0-.1-.1-.2-.1-.2-.1-.3-.1-.5-.2-.6-.3-1.3-.5-1.9-.7h-.1c-.2 0-.3 0-.5-.1-.2 0-.3-.1-.5-.2l-.3.3c-.1 0-.2.1-.3.1 0 .1-.1.1-.1.1-.1.3-.2.6-.3.8-.1.1-.2.1-.2 0-.2-.1-.3-.3-.5-.4-.2-.1-.4-.2-.5-.4-.4-.3-.7-.8-1-1.2-.3-.4-.5-.8-.7-1.2-.1-.2-.1-.4-.2-.5 0-.1.1-.2.1-.2h.5c.2-.1.3-.3.3-.5 0-.1 0-.2-.1-.3-.1-.1-.3-.1-.4-.2-.1-.1-.3 0-.4-.1-.1-.1-.2-.2-.2-.3-.1-.1-.1-.3-.2-.4-.1-.2-.1-.3 0-.5 0-.1.1-.2.1-.3.1-.1.1-.2.2-.3.1 0 .2-.1.4-.1.4 0 .7.1 1 .3l1.2.6c.3.2.7.4 1 .7.1.1.2.1.3.2.1.1.2.2.4.3.3.3.7.5 1.1.6.1.1.3.1.4.1.4.1.7.3 1.1.3.5.1 1 .2 1.4.4.2.1.3.1.5.1.5 0 .9-.1 1.4-.2.2-.1.5-.2.7-.3.1-.1.3-.1.4-.2.1 0 .2-.1.3-.1.3 0 .5-.2.8-.3.4 0 .7-.2 1.1-.4.1-.1.2-.1.3-.2h.2c0 .1-.1.2-.1.3 0 .1.1.2.2.3.1.1.2.1.3.1h.6c.1 0 .2-.1.3-.2.1-.1.1-.1.1-.2-.1-.2-.1-.3-.3-.3-.1-.1-.3-.1-.4-.1h-.4c.4-.3.5-.4.9-.7.2-.1.3-.2.5-.3.1-.1.2-.1.3-.2.2-.2.5-.4.8-.6.3-.2.5-.4.8-.6.3-.2.5-.4.7-.5.2-.1.3-.2.4-.3l.3-.3c.2-.1.3-.2.4-.3 0 0 0-.1.1-.1.3-.2.5-.5.9-.6h.1c.2 0 .4-.1.6-.1.1 0 .2.1.2.1.1.2 0 .3 0 .4v1.3c0 .3 0 .6-.2.9-.6-.2-.7-.2-.8-.2h-.3c-.1 0-.2.2-.2.3 0 .1 0 .1.1.2s.1.3.2.4c.1.1.3 0 .4.1v.5c-.1.5-.3.9-.3 1.4l-.3.9c-.1.2-.1.3-.1.5-.1.5-.1.9-.2 1.3-.1.3-.2.7-.2 1-.1.3 0 .7.2 1 .2.3.3.6.5.8.2.2.5.4.8.5.2 0 .3.1.5.1s.5-.1.7-.1c.2 0 .4-.1.6-.3.1-.1.2-.3.4-.3.2-.1.3.1.5.1.1.1.3.1.4.1zM11.8 50c-.2 0-.3.1-.5.1s-.4.1-.6.2c-.1.1-.1.2-.2.4.1.2.1.3.3.3.1 0 .2 0 .4.1v.1c0 .2 0 .4.1.5.1.1.2.2.2.3 0 .2.2.3.4.4.2 0 .5.1.7-.1.1-.1.1-.2.1-.3-.1-.1-.1-.2-.2-.3.1-.6.1-.6-.1-.9h-.2v-.4c0-.1-.1-.2-.2-.3-.1-.1-.2-.1-.2-.1zm7-3.4c-.1.2-.1.3 0 .4 0 .1.1.2.2.2.1.1.3.1.4.2h.1s0 .1-.1.1c-.2 0-.3.1-.4.2-.2.2-.2.5.1.7.1.1.2.1.3.1.1 0 .2-.1.3-.1.5-.2.5-.2.7-.8v-.1c0-.1-.1-.2-.2-.2h-.6v-.1l.1-.1c.4-.2.6-.4.7-.8v-.2c0-.1-.1-.2-.3-.2h-.2c-.2.1-.3.2-.5.4-.2.1-.4.1-.6.3zm-4 3-.3.3-.1.1c0 .1-.1.1 0 .2.1.2.2.3.4.4.3.1.6 0 .8-.1.1-.1.2-.2.1-.4 0-.1-.1-.1-.1-.2-.1 0-.1-.1-.2-.1-.1-.1-.2-.1-.3-.1 0-.1 0-.1.1-.1.1-.1.3 0 .4-.1.1 0 .3 0 .4-.1.2-.3.2-.3.2-.6-.1-.1-.3-.2-.5-.2H15c-.5.2-.6.3-.6.8.1.1.3.2.4.2zm5.7-4.7c-.1-.1-.1-.2-.1-.3-.1-.1-.2-.2-.4-.1-.1 0-.2.1-.3.2-.2.2-.5.4-.8.5-.3.1-.5.4-.6.7v.1c.4.2.4.2.8.2.5-.5 1.1-.7 1.4-1.3zm-9.1 4.8c.2-.1.3-.1.4-.2.1 0 .1-.1.2-.1l.1-.1c0-.2 0-.3-.1-.5-.1-.1-.1-.1-.2-.1h-.2c-.3.1-.5.1-.8.1-.1 0-.2.1-.4.1-.1 0-.2.1-.3.2-.1.1-.1.2 0 .3.1.1.2.2.3.2.3.1.7.1 1 .1zm7.3 1.8c.1.3.3.4.5.5.1.1.1.2.3.3h.3c.3 0 .3 0 .3-.3 0-.1 0-.2.1-.3 0-.1 0-.2-.1-.2l-.3-.3c-.2-.2-.5-.2-.8-.2-.2.1-.3.3-.3.5zm.2-2c.2.2.4.3.7.2.1 0 .3-.1.4-.1.1 0 .1 0 .2-.1.1 0 .1-.2.1-.3 0-.2-.1-.4-.3-.5-.2-.1-.4 0-.6 0-.1 0-.2.1-.2.1-.2.1-.3.3-.3.5-.1.1-.1.1 0 .2zm-6.6 3.9c-.1.1-.2.2-.3.4 0 .1 0 .2.1.3 0 .1.1.2.2.2.2.1.4.1.6.2h.1l.2-.1c0-.2.1-.4.1-.6 0-.1-.1-.1-.1-.2-.3-.2-.5-.3-.9-.2zm3.2-2.1c-.2-.1-.3-.1-.4-.1-.6 0-.6.1-.7.5v.1c0 .1.1.2.2.2.2 0 .4.2.6.2.3-.1.3-.3.4-.6 0-.1-.1-.2-.1-.3z"/>
    <path class="st2" d="M11.8 50c.1 0 .1.1.2.1.1.1.2.1.2.3v.4h.2c.2.3.2.3.1.9.1.1.1.2.2.3 0 .1 0 .2-.1.3-.2.2-.5.2-.7.1-.2-.1-.3-.2-.4-.4 0-.1-.1-.2-.2-.3-.1-.2-.2-.3-.1-.5v-.1c-.1 0-.2 0-.4-.1l-.3-.3c.1-.1.2-.2.2-.4.2-.1.4-.2.6-.2.1 0 .3-.1.5-.1z"/>
    <path class="st1" d="M1.6 45.1s3-.1 3.4 1.4 0 1.9.7 2.6.9 1.9.9 1.9-.5.1-.9.4c-.4.2-.6 1.1-.8 1.2-.3.1-3-1.6-3.3-2.9S.3 47.9.4 46.9c.1-1-.3-2.2 1.2-1.8z"/>
    <path class="st3" d="M5.4 53.1s-.5-2.5 1.7-1.3 2.5 1.7 2.5 1.9-1.1 1.8-.2 2.5c.9.7.3 3.2-1 2.7s-2.6-2.5-2.8-3.6c-.3-1.1-.2-2.2-.2-2.2zM21.6 50.2s-.7 3.3 1 3.4c.8-.1 1.4-.7 1.7-.6s1 .3 1.4-.2.8-2.2.4-2.4c-.4-.2-2.9-.4-3.3-.7-.3-.5-1.2-.5-1.2.5zM52.5 49.4s0-.8.8-.1c.8.7 1.6.9 2 .7.4-.2.4 1.5-.1 1.9-.4.4-1 .9-1.4.7-.4-.2-1.6-.5-1.6-.5s-.6-1.2.3-2.7z"/>
    <path class="st0" d="M40.7 19.5c-.2.2-.4.3-.6.5-.4.1-.8-.2-1.3-.1h-.2c-.1 0-.2 0-.2.1-.2.2-.4.3-.7.3l-.9.3c-.1 0-.2 0-.2-.1 0-.2 0-.3.1-.5.2-.1.5-.1.7-.1.1 0 .2.1.3.1.1 0 .2 0 .3-.1.3-.1.4-.3.5-.5 0-.1.1-.2 0-.3 0-.1-.1-.1-.1-.1h-.5c-.4.1-.9.2-1.3.3-.3.1-.6.1-.9 0-.2-.1-.4-.3-.6-.4l.1-.1c.1 0 .2-.1.3-.1.6-.1 1.3-.3 1.9-.5h.7s.1 0 .1-.1.1-.1.1-.2 0-.1-.1-.2c-.1-.3-.3-.4-.6-.3-.2 0-.3.1-.5.1-.4.1-.7.2-1.1.3-.3.1-.6.2-.9.2-.1 0-.2.1-.3.1-.2 0-.4.1-.6 0-.3-.2-.5-.4-.6-.8 0-.2.1-.4.1-.6-.2-.2-.3-.5-.5-.7-.1-.1-.2-.3-.3-.5 0-.1 0-.2.1-.3-.1-.1-.1-.3-.1-.4V13c.2-.4.4-.9.5-1.3 0-.2-.3-.2-.3-.5 0-.2.2-.3.3-.4.2-.1.3-.3.5-.5.1-.5.2-.9.2-1.4l-.1-.1-.3-.3c0-.1-.1-.2-.1-.3 0-.2-.1-.3-.2-.5-.1-.1-.1-.2-.1-.4v-.1c-.1-.2-.2-.4-.3-.7 0-.2-.1-.5-.2-.8 0-.3-.1-.8 0-1.3V4s0-.1.1-.1c.1.1 0 .3.1.5.1.1 0 .3 0 .4.1.2.1.3 0 .5.2.4.3.7.5 1.1 0 .1.1.2.1.2.1.3.3.6.4 1 0 .3.1.4.1.5 0 .1-.1.2-.1.3.1.1.2.1.4.2.1.1.2.1.3.1.1-.1.2-.1.3-.2h.4l.1-.1c.1-.1.1-.3.1-.4 0-.1.1-.2.3-.2.1 0 .2 0 .3.1.1 0 .2 0 .3.1h.2c.1 0 .1 0 .2-.1.2-.2.4-.4.4-.7-.1-.2-.2-.4-.4-.6-.2-.1-.3-.3-.4-.5-.1-.2-.2-.4-.3-.5-.3-.2-.6-.4-.8-.7l-.3-.3c-.2-.1-.3-.3-.5-.4-.1-.2-.3-.3-.5-.4h-.5c-.1 0-.3.1-.4.1-.1 0-.1-.1-.2-.2V2s.1 0 .1-.1c.4.1.9.3 1.3.4.1 0 .2.1.3.1.1 0 .2.1.3.1.2 0 .4.2.7.3.1.1.2.1.3.1l.6.3c.1.2.3.4.5.6-.1.3-.1.4.5.6.1 0 .2 0 .4-.1.3 0 .5.2.6.4.1.2.2.3.3.5.1.1.3.2.4.3.1.1.3 0 .4-.1.1-.1.1-.1.1-.2 0-.2.2-.3.5-.3h.2c.2.1.3.2.4.4h.4c.1-.1.1-.2.2-.3.1-.1.2-.1.3 0 0 0 .1 0 .1.1.2.1.4.2.6.2.1 0 .2.1.3.1l.6-.3c.1-.1.1-.1.2-.1.2 0 .3.1.5.1.2.1.3.2.4.4.1.2.3.3.5.3s.3-.1.5 0c.1 0 .1.2.3.3.2.1.5.2.8.2h.5c.1 0 .2.1.4.1.1 0 .2-.1.3-.1h.2c.1.1.3.1.4.1.3-.4.6-.8 1-1.2 0 0 .1-.1.1-.2.2-.5.6-.8.8-1.3 0-.1.1-.2.1-.2.3-.4.5-.8.8-1.2.4-.5.9-.9 1.3-1.3h.1c.1 0 .2.1.2.1.1.2.2.4.2.5.1.5.2 1 .2 1.5v1.8c-.2.4-.2.8-.3 1.2 0 .1-.1.2-.1.3 0 .2-.1.4-.1.6-.1.2-.2.4-.4.5v.4c-.1.2-.3.2-.3.3 0 .2.1.4.1.6.2.2.4.3.6.4.1.1.3.1.4.2-.1.2-.1.3-.1.4 0 .2 0 .3-.1.4-.1.2-.2.3-.3.5l-.4.4c-.2.2-.2.4-.3.6 0 .1 0 .3.1.3.2.1.4.2.5.3.1 0 .1.1.1.2 0 .2-.1.4-.2.5-.1.1-.3.2-.4.3-.1.1-.2.3-.2.4.1.3.5.3.7.5.1.1.1.3 0 .4 0 .1-.1.2-.1.2-.1.1-.1.3-.2.5 0 .1.1.2.1.3 0 .1-.1.2-.2.2-.3 0-.6-.1-.8-.1 0 0-.1 0-.1-.1s.1-.3.1-.4c0-.2.1-.3.1-.5 0-.1.1-.3.1-.5s-.1-.3-.3-.3c-.1 0-.3-.1-.4-.1-.1 0-.2 0-.3.2v.7c0 .2-.1.5-.1.7 0 .1 0 .2-.1.3-.2.1-.4.1-.6.2H49c-.5.2-1 .2-1.4.4l-.3.3c0 .1.1.2.1.3.1.1.2.2.3.2.4 0 .7-.1 1.1-.2.2-.1.4-.1.6-.2.2-.1.3-.1.5-.2.1 0 .1.1.2.1-.1.2-.3.5-.4.7-.1.2-.2.2-.4.2H49c-.3-.1-.6-.1-.9-.2-.2.1-.3.1-.4.2-.2.2-.1.3 0 .5.1.1.2.2.4.2h.5c.1 0 .2 0 .2.1-.2.3-.3.4-.9.8h-.3c-.1 0-.2-.1-.2-.1-.2 0-.4-.1-.6-.2-.1 0-.2-.1-.2-.1-.1 0-.2 0-.3.1-.1.1-.1.2-.1.4.1.1.1.2.2.3v.2c-.2.1-.3.2-.5.3-.3.3-.7.5-1 .7-.2.2-.4.4-.6.5-.3.2-.5.3-.8.4-.2.1-.5.1-.7.2-.2 0-.3.1-.5.1s-.5-.1-.8-.1c-.1 0-.2 0-.3-.1-.2-.1-.3-.2-.5-.3-.1 0-.3-.1-.5-.1-.4.7-.7.7-1 .7h-1.1c-.1 0-.3 0-.4-.1-.2-.1-.4-.2-.5-.4v-.1c0-.1.1-.2.2-.3.2-.1.4-.1.5-.2.1 0 .2-.1.2-.1l.2-.2c.2-.1.3-.1.5-.2.1 0 .2 0 .3.1.1.1.2.1.3.2h.2c.3-.1.6-.1.8-.1.3-.1.4-.3.6-.5.1-.2.3-.2.5-.1.1 0 .1.1.2.1.3.1.6.2.9.1.2-.1.4-.4.6-.5.2-.2.3-.4.5-.6 0-.1.1-.1.1-.2v-.3c0-.1-.2-.2-.3-.2-.3.1-.5.3-.7.6-.1.2-.3.3-.5.4-.2 0-.3-.2-.4-.3-.1-.1-.1-.2-.1-.4 0-.1-.1-.3-.1-.5.1-.1.1-.2.2-.3.1-.1.1-.2.2-.3.1-.2.3-.4.5-.5.1-.3 0-.5-.1-.6-.2-.1-.4-.1-.6 0 0 0-.1.1-.1.2 0 .3-.2.5-.3.7 0 0-.1 0-.1.1l-.3-.3c0-.1 0-.2-.1-.3 0-.2-.1-.3-.3-.4-.2 0-.4 0-.6.1-.1.1-.2.2-.2.3 0 .1.1.3.1.4.3.4.5.7.8 1.1 0 .5 0 .8-.1 1.1zM49 8.8l.1-.1c.1-.1.2-.2.3-.2h.2c.1 0 .1.1.1.1l.6.6h.3c.2 0 .4-.1.5-.3.1-.2.2-.5.2-.7v-.3c.1-.2.3-.4.3-.7V7l.3-.9c.1-.3.1-.7.3-1 .1-.2.1-.4.1-.6 0-.2 0-.4.1-.6v-.1c-.1-.2-.2-.4-.3-.5-.2-.1-.4-.1-.7 0-.3.3-.5.7-.9 1v.1c-.3.4-.6.9-.9 1.3-.2.4-.5.7-.7 1.1l-.3.3s-.1 0-.1.1c-.1 0-.3 0-.4.2v.3c.1.1.1.2.2.3v.1c-.1.2 0 .4.2.6.1.2.3.2.5.1zm-11 5.7c.4-.1.7-.2 1-.5.1-.1.1-.1.2-.1.3-.2.5-.5.6-.8.1-.2.1-.4.2-.6.1-.2.1-.4.1-.6 0-.3-.1-.6-.1-.8 0-.1-.1-.2-.1-.3-.3-.3-.5-.6-.9-.7-.3-.1-.5-.3-.8-.4-.2.1-.4.1-.6.1h-.2l-.3.3c-.3.3-.6.7-.7 1.1 0 .2-.1.3-.2.5v.2c0 .3-.1.5 0 .8 0 .2.2.4.3.7 0 0 0 .1.1.1.3.2.5.5.8.6-.1.2.2.4.6.4zm11.5-2.3c-.1 0-.2-.1-.3-.1-.4-.1-.6-.1-.7.4v.2c.2.3.4.4.8.4h.4c.1-.2.3-.2.5-.3.2-.2.4-.4.4-.6 0-.1 0-.3-.2-.4h-.7c0 .2-.1.3-.2.4zM39 9.6v.1c.1.1.3.2.4.3.1.1.3.1.4 0 .1-.1.2-.2.3-.4 0 0 0-.1.1-.2-.1-.1-.1-.2-.2-.3 0-.1.1-.2.1-.2 0-.1.1-.2.1-.3-.1-.2-.3-.2-.4-.3-.1 0-.2-.1-.4 0-.1.1-.3.2-.4.3 0 .1-.1.2-.1.3 0 .1 0 .1.1.2.1 0 .2.1.2.2v.1c-.1 0-.2.1-.2.2zm9.8 4.8c-.3-.2-.4-.2-.6-.1-.1 0-.2.1-.3.1h-.4c-.1 0-.2 0-.3.1 0 .1-.1.1-.1.2-.1.1 0 .3 0 .4 0 .1.1.1.1.2.2.2.4.2.6.1.1-.1.2-.1.3-.2.2 0 .4 0 .5-.1.1-.1.2-.3.2-.5.1 0 0-.1 0-.2zm-7.6-6.1c0 .1-.1.2-.1.3 0 .1-.1.2-.1.2V9c.2.2.4.2.6.3.2 0 .3-.1.4-.3v-.5c0-.1-.1-.2-.1-.2 0-.2.1-.3.1-.4 0-.1 0-.2-.1-.3-.1 0-.1-.1-.2-.1h-.2c-.1 0-.2.1-.3.2-.2 0-.2.1-.1.3 0 .1.1.2.1.3zm3.3 7.5c0 .2.1.3.1.5 0 .1.1.1.1.1h.9c.1 0 .2-.1.2-.2V16c0-.1-.1-.3-.2-.3-.2-.1-.5-.2-.7-.2h-.1c-.1 0-.1.1-.2.2-.1-.1-.1 0-.1.1zm5-4.5c-.2-.4-.6-.5-.9-.5-.1 0-.2.1-.3.2-.1.2-.1.4 0 .5.2.2.4.4.7.5.2-.1.4-.2.5-.5v-.2zm-16 3.1c0 .2.1.4.1.6 0 .1.2.2.3.3.2 0 .4-.1.5-.2.1-.1 0-.2.1-.3 0-.1.1-.2 0-.4l-.3-.3s-.1 0-.1-.1c-.2 0-.4.1-.6.4zm7-7c-.2-.2-.3-.3-.5-.4-.2-.1-.4-.1-.6 0l-.3.3s0 .1-.1.2c.1.2.3.2.5.4.2.1.5.1.7 0 .2-.2.2-.3.3-.5zm2.1 2.2c.1-.1.3-.1.3-.2l.5-.5c.1-.1.1-.1.1-.2-.1-.1-.1-.2-.2-.2h-.8l-.3.6c.1.2.1.4.4.5zm-3 4.3v.5c.2.4.7.4 1 .1.1-.1.1-.1.1-.2.1-.1 0-.3-.1-.4-.2-.2-.4-.3-.7-.4-.2.2-.1.2-.3.4zm7.5-5.1c-.1-.1-.1-.2-.2-.2-.1-.1-.2-.1-.3-.2-.2-.1-.4-.1-.6.1 0 0 0 .1-.1.2.1.2.1.3.2.5 0 .1.1.1.1.1.2 0 .5-.1.7-.1.3-.1.3-.2.2-.4zm-10.8 7.6c.1-.3.1-.5 0-.7 0-.1-.1-.1-.1-.2-.1-.1-.2-.1-.3-.1-.1 0-.2.1-.3.1-.1 0-.1.1-.1.2s-.1.3.1.5c.2.1.3.3.5.3 0-.1.1-.1.2-.1zm9.3.7h-.4c-.2 0-.3.2-.4.4 0 .1 0 .3.1.3.2.2.5.2.7.1.1-.1.2-.3.2-.5-.1-.1-.1-.2-.2-.3zm-10.4.3c.1-.2.2-.4.2-.6 0-.1-.1-.3-.2-.3s-.2-.1-.3-.1c-.1.1-.2.1-.3.2-.1 0-.1.1-.1.3 0 .1.1.2.1.3.2.2.4.2.6.2zm9.2-9.3c0-.2-.1-.4-.2-.5-.2-.1-.3-.2-.5-.1-.1 0-.1.1-.2.2s-.1.1-.1.2.1.1.1.2l.3.3c.1 0 .2.1.2.1h.1c.1-.2.2-.3.3-.4zm-.2-1.5c-.1.1 0 .3 0 .4 0 .2.2.4.4.4s.4-.2.4-.4c0-.1 0-.1-.1-.2l-.3-.3c-.1 0-.3-.1-.4.1z"/>
    <path class="st1" d="M39.1 22.3c-.6-.1-1.2-.3-1.6-.7-.4-.5-.5-1.1-.5-1.6 0-.3 0-.7.2-.9.3-.4.7-.6 1-.9.6-.7.4-1.4 1.2-2 .4-.3 1-.9 1.6-.7.5.2 1.5.3 1.8.7.3.4.6.9 1.2 1.1.4.1.4.2.8.4.2.1.3.3.4.4.5.9.6 1.9.3 2.8-.2.5-.6 1.1-1.2 1.1-.2 0-1.3.8-2.5.6-.5-.1-2.1-.1-2.7-.3z"/>
    <path class="st2" d="m27.4 75.4-.2.2c-.2.1-.5.2-.7.4-.3.2-.6.3-.9.4-.5.1-.9.2-1.4.3-.1 0-.3.1-.4.1-.2.1-.3.1-.5.1-.3 0-.6.1-.8.2-.4.1-.7.2-1.1.2H20c-.1 0-.3 0-.4.1-.2.1-.4.1-.6 0-.3-.1-.6-.1-.8-.2-.4-.1-.8-.1-1.1-.2-.2 0-.3-.1-.5-.1s-.4-.1-.6-.1c-.4-.1-.8-.3-1.1-.5-.1 0-.1-.1-.2-.1-.2 0-.3.1-.5.1-.1 0-.2 0-.3-.1l-.2-.2c0-.1 0-.2-.1-.3 0 0 0-.1-.1-.1-.1-.1-.2-.2-.4-.3l-.3-.3h-.3c-.2 0-.3 0-.3-.2v-.1c-.3-.3-.6-.5-.8-.8 0-.1 0-.2.1-.3 0-.1.1-.1.1-.2s-.1-.2-.2-.3c0-.1 0-.2.1-.3 0-.1 0-.1-.1-.1-.3-.3-.6-.6-.9-1-.1-.3-.2-.7-.3-1.1 0-.1 0-.2.1-.4 0-.1 0-.3-.1-.4.1-.3.1-.5.2-.8.1-.1.3-.3.4-.5.1-.2.3-.3.4-.5.2-.3.5-.6.9-.9.1-.1.3-.2.4-.2.1 0 .3 0 .4-.1.4.1.7.3 1.1.4l.2.2c.1.1.1.2.2.2.1.3 0 .7.2 1-.1.2-.1.5-.1.7 0 .4.1.7.4 1l.3.3c.3.3.7.6 1.2.8.3 0 .6 0 .9.1.6 0 1.1 0 1.7-.1.2 0 .3-.1.5-.1.3 0 .7-.1 1-.2.1 0 .1 0 .2-.1.5-.2 1.1-.5 1.6-.8.2-.1.3-.2.5-.3.3-.1.5-.3.8-.5.2-.1.3-.2.5-.4.1-.1.2-.2.3-.2.3-.3.7-.6 1.1-.9.1 0 .1-.1.2-.1.2-.2.5-.4.7-.7.3-.2.5-.5.7-.8.1-.1.2-.2.2-.3.2-.2.4-.4.6-.7l.6-.6.5-.5v-.1h-.1c-.2 0-.4.1-.6.1-.3.1-.6.2-.9.2-.2 0-.3.1-.5.1-.3 0-.6.1-.8.1-.6.1-1.2.1-1.9.1-.2 0-.3.1-.6.1-.3-.1-.6-.1-1-.1h-1.4c-.2-.1-.5-.1-.7-.1-.4 0-.8-.1-1.2-.2-.2-.1-.4-.1-.6-.1-.4-.1-.9-.2-1.3-.2-.3 0-.6-.1-.9-.2-.4-.2-.8-.3-1.2-.4-.2 0-.3-.1-.5-.2-.1 0-.2-.1-.3-.1-.4-.1-.7-.3-1.1-.4-.1 0-.2-.1-.3-.1l-.9-.3c-.1 0-.2-.1-.3-.1-.3-.3-.7-.4-1-.6-.6-.3-1.2-.8-1.9-1.2-.1-.1-.3-.2-.4-.3-.2-.2-.4-.3-.6-.5-.3-.2-.6-.5-.9-.7-.4-.3-.7-.7-1-1.1l-.6-.9c-.1-.2-.3-.5-.4-.7-.2-.3-.2-.6-.3-.9 0-.1 0-.2-.1-.3.3.1.2-.1.3-.4v-.6c-.1-.1-.2-.3-.4-.4v-.1c0-.5 0-.6-.5-.8-.3-.1-.5-.3-.7-.5-.1-.1-.3-.2-.4-.3-.1 0-.2-.1-.2-.2-.3-.3-.6-.7-.9-1l-.4-.4c-.4-.7-.7-1.4-.9-2.1v-1.1l-.3-.6c-.1-.3-.1-.7 0-1 .2-.4.3-.7.6-1.1.1-.1.3-.1.4-.2.1-.1.3-.1.4-.1.7.1 1.3.3 2 .6.4.2.9.5 1.3.7 0 0 .1 0 .1.1.3.4.8.6 1.1 1 .6.3 1.2.6 1.8.7.1 0 .1 0 .2.1s.3.1.4.2c.3 0 .5.2.8.2.1 0 .2 0 .3.1.2 0 .4.1.6.1h.5c.1 0 .2 0 .3-.1.2-.1.4-.1.6-.1.1-.1.2-.2.4-.3.2-.1.5-.2.8-.3.1 0 .3-.1.4-.1.5-.1.9-.2 1.3-.5.2-.1.4-.2.5-.3.1-.1.3-.2.4-.3.2-.1.3-.3.5-.3.5-.2.9-.5 1.3-.9.2-.2.4-.4.7-.5.3-.2.6-.4 1-.7.3-.2.6-.5.8-.7l.1-.1c.1-.2.3-.3.5-.5.1-.1.3-.2.4-.3.2-.2.4-.3.6-.3.2 0 .3-.1.5-.2.1 0 .2-.1.3-.1.1 0 .2 0 .3-.1 0-.1.1-.1.1-.2 0-.3 0-.7.1-1 0-.1 0-.2.1-.3.1-.2.1-.5.1-.7.2-.4.3-.8.4-1.2.1-.2.3-.4.4-.5.2-.1.3-.3.4-.5 0-.1.1-.2.2-.3.2-.2.3-.3.4-.5.1-.2.3-.4.4-.6.1-.2.1-.3.2-.5 0-.1.1-.2.1-.3.2-.2.3-.5.4-.7.2-.2.3-.5.4-.7.2-.3.3-.5.6-.6.1-.1.1-.2.2-.4.1-.1.1-.2.2-.3.2-.3.4-.5.7-.7.4-.3.7-.7 1.1-1l.2-.2c.1-.1.1-.2.2-.2l.6-.6c.2-.2.3-.4.5-.7.1-.2.3-.4.4-.6.1-.2.3-.3.3-.5 0-.1.1-.1.1-.2.2-.2.3-.5.5-.7.2-.2.3-.5.5-.7.1-.2.3-.4.5-.6l.2-.2c.4-.3.7-.7 1-1.1.2-.2.4-.5.5-.8 0 0 0-.1-.1-.1-.4.2-.8.5-1.2.7-.4.2-.7.5-1 .8-.1.2-.3.3-.5.4h-.3c-.2 0-.3-.1-.3-.4v-.1s0-.1.1-.1c.3-.2.5-.5.7-.7.3-.3.6-.5 1-.7.3-.2.6-.3.9-.6.1-.1.3-.2.4-.2.3-.1.6-.3.9-.4.2-.1.3-.2.4-.4 0-.1.1-.2.1-.3v-.2c-.1 0-.1-.1-.2-.1-.2 0-.4.1-.6.2-.2.1-.4.1-.5.2-.2.1-.5.2-.7.3-.1 0-.3 0-.4.1-.1.1-.2.2-.3.2-.1.1-.1.1-.2.1-.4.1-.6.3-.9.5-.2.2-.4.2-.7.2H31s-.1-.1-.1-.2c.1-.2.1-.4.3-.6.4-.3.7-.6 1.2-.8.1 0 .1-.1.2-.1s.1-.1.2-.1c.4-.1.7-.3 1.1-.3.3 0 .6-.2.9-.3 0 0 0-.1.1-.1l-.9-.6c-.3 0-.6 0-.8.1-.2.1-.5 0-.8.2-.4.1-.7.2-1.1.4-.2-.2-.3-.1-.3 0-.2.2-.4.3-.6.1-.1-.1-.2-.2-.3-.2-.1-.1-.2-.1-.2-.2 0-.2 0-.2.1-.3.1-.1.3-.1.4-.2.2-.1.3-.1.5-.1.2-.1.4-.2.7-.3.2 0 .5-.1.7-.2.3 0 .7 0 1.1-.2v-.1c-.1-.2-.2-.4-.3-.5 0-.1 0-.3-.1-.4 0-.2-.1-.3-.2-.5-.2-.4-.4-.8-.5-1.2-.1-.4-.1-.7-.1-1 0-.4 0-.7-.1-1 .1-.3.1-.6.1-1 .1-.2.2-.5.4-.8-.1-.2-.1-.4-.2-.7 0-.1.1-.3.1-.4l.3-.3.1-.1c.1-.2.1-.3.2-.5.1-.1.3-.2.4-.3.1 0 .1-.2 0-.2l-.1-.1-.3-.3c-.1-.1-.1-.2-.1-.3-.1-.6-.3-1.1-.6-1.7l-.3-.9c-.1-.1-.2-.3-.2-.6s0-.5-.1-.8v-.1c.1-.6.1-1.2.1-1.8v-.3c-.1-.4-.1-1.2 0-1.6.1-.2.4-.2.7-.1.1 0 .3.1.4.2h.4c.2 0 .3 0 .5.1.5.2 1 .3 1.4.6.1.1.2.1.3.1.3.1.5.2.8.4.1 0 .1.1.2.2s.1.2.2.3c.2.1.5.4.8.6h.7c.1.1.2.1.3.2.1.1.2.3.4.4.1.1.2.1.3.2h.1c.2-.1.3-.1.5-.2H40.8c.2.1.5.1.8.1.2 0 .4 0 .6.1.3.1.5.2.9.1 0 0 .1-.1.2-.1s.2-.1.3-.1h.7c.4.1.7.4 1 .6.8.1.9.1 1.6.4h.7c.2 0 .3.1.5.1.1 0 .1-.1.2-.1.2-.3.5-.7.7-1.2.1-.2.2-.3.3-.4.1 0 .1-.1.1-.2.1-.3.3-.6.5-.8.1-.1.1-.2.2-.3.1-.3.3-.5.5-.7.5-.5.6-.6 1-1.3.2-.1.4-.2.6-.4h.5c.3.2.6.4.8.8 0 .3.1.7.2 1 0 .4 0 .7.1 1v.1c-.1.2 0 .3 0 .5v.3c-.1.1-.1.3 0 .4v.1c0 .2-.1.4-.1.6 0 .2 0 .3-.1.5s-.1.4-.1.6c-.1.2-.2.5-.2.7v.1c-.3.5-.3 1-.5 1.5 0 .1 0 .2.1.2.1.1.3.2.5.3.3.4.4.9.3 1.5l-.2.2c-.1.1-.1.2-.1.3-.1.1-.2.1-.3.2l-.1.1c-.2.4-.3.4.1.7l.3.3c.1.2.1.3 0 .5-.1.1-.1.2-.2.3-.1.1-.2.3-.2.4 0 .1 0 .1-.1.2.1.2.3.2.4.4.1.3.1.6-.1.9 0 .1-.1.2-.1.3 0 .1 0 .1.1.2s.3.2.4.3c0 0 .1.1.1.2.1.2.2.3.4.3.3 0 .7.2 1 .2.3-.1.5-.1.7-.2.2 0 .3.1.4.2v.3l-.3.3c-.2.1-.4 0-.6.1v.1c0 .1.1.2.1.3-.1.1-.1.3-.2.4h.2c.5-.1 1-.1 1.4 0 .1 0 .3.1.4.1.2.1.4.1.6 0h.2c.2.1.3.2.5.4.1.4.1.4 0 .6-.3-.1-.6-.3-1-.3h-.1c.1.1.2.1.3.2.3.2.5.4.6.7.1.2.2.3.2.5v.8c0 .2.1.4.3.5.2.1.3.3.4.5 0 .1.1.1.1.1.4.4.6.8.9 1.3.1.1.1.2.2.3.1.1.1.2.2.3 0 .1.1.2.1.2.3.4.6.8.7 1.2.3.5.6 1 1 1.4.3.4.6.7.8 1 .2.4.2.8.3 1.1-.1.3-.1.7-.2 1 0 .3.1.4.2.6.1.1.2.2.3.2.1.1.2.2.3.2.1.1.1.2.1.3-.2.2-.2.5-.3.8v.6c-.1.2-.1.5-.2.7-.1.2-.2.4-.1.7 0 .1 0 .1-.1.1-.2.2-.3.5-.1.8v.1c0 .2-.1.4-.1.6-.1.1-.2.3-.3.4-.1.1-.2.2-.2.3-.1.1-.1.2-.2.3v.3c0 .3-.1.6-.3.8-.1.2-.3.3-.4.4l-.4.4c-.1.2-.1.3 0 .5 0 .2 0 .5-.1.7l-.3.9c-.1.3-.2.5-.4.8l-.3.6-.3.6-.2.2c-.2.3-.4.6-.5 1v.2c0 .1 0 .2-.1.3-.1.3-.3.5-.4.8 0 0 0 .1-.1.1-.1.1-.2.3-.3.5-.1.3-.2.5-.4.8-.1.1-.1.2-.2.3 0 .1 0 .1-.1.2-.2.2-.3.5-.5.7l-.2.2c-.1.3-.4.5-.5.9-.1.2-.1.3-.2.5-.2.3-.3.7-.5 1-.1.2-.2.4-.2.7 0 .5-.2 1-.4 1.4-.1.2-.3.4-.4.6-.2.1-.3.3-.5.4-.1 0-.2 0-.3.1h-.3c-.3.1-.6.1-.9.1h-.1c-.1.1-.1.3-.2.5s-.2.2-.3.3h-.2c-.1.1-.2.2-.2.3-.1.2-.2.3-.4.3-.2-.1-.4-.2-.5-.2-.2-.1-.4 0-.5.1-.1.1-.1.2-.2.3-.2.3-.4.6-.6 1-.1.2-.2.4-.4.5-.2.2-.2.4-.4.6-.2.2-.4.3-.5.5-.3.4-.6.6-.9 1-.2.2-.4.4-.7.4-.3.1-.6.2-.8.4l-.3.3c-.3.2-.5.4-.8.6-.1.1-.2.1-.3.1h-.5c-.3.3-.6.5-.8.8-.1.1-.3.3-.5.4-.3.2-.6.4-.9.5-.2.1-.4.1-.6.1-.4 0-.5 0-1-.1h-.1l-.1.1c-.2.2-.3.4-.4.6 0 .3.3.3.3.6l-.4.4c-.3.1-.6.3-.9.5-.2.2-.4.4-.6.5l-.6.6c-.1.1-.2.1-.3.2-.2.1-.3.2-.4.4-.3.4-.6.6-.8 1 0 .1-.1.1-.1.1-.3.1-.3.5-.5.7v.1c0 .2-.1.3-.2.4-.1.1-.2.1-.3.2-.4.5-.7.9-1.1 1.3-.3.2-.4.5-.7.8 0 .1-.1.1-.1.2-.3.2-.4.5-.7.8-.2.2-.5.4-.7.7l-1 1c-.2.3-.5.4-.7.6-.2.2-.5.4-.8.5-.1 0-.2.1-.3.2l-.9.6c-.1 0-.1.1-.2.1 0 .2-.1.2-.3.3zM21.2 72H21c.1 0 .1.1.2 0h.2c0-.1-.1-.1-.2 0 .1-.1.1-.1 0 0zm-5.8-25.2c-.1 0-.2 0-.3.1h-.2c-.1 0-.2.1-.3.2-.4.2-.7.4-1.1.4-.2.2-.5.3-.8.3-.1 0-.2.1-.3.1-.1.1-.3.1-.4.2-.2.1-.5.2-.7.3-.5.1-.9.2-1.4.2-.2 0-.3 0-.5-.1-.5-.1-.9-.3-1.4-.4-.4-.1-.8-.2-1.1-.3-.1-.1-.3-.1-.4-.1-.4-.1-.8-.3-1.1-.6-.2-.1-.3-.2-.4-.3-.1-.1-.2-.1-.3-.2-.3-.3-.6-.5-1-.7l-1.2-.6c-.3-.1-.6-.3-1-.3-.1 0-.2.1-.4.1 0 .2-.1.3-.1.4 0 .1-.1.2-.1.3-.1.2-.1.3 0 .5.1.1.1.3.2.4.1.1.1.2.2.3.1.1.3 0 .4.1.1.1.3.1.4.2.1 0 .2.1.1.3 0 .2-.1.4-.3.5h-.5c-.1 0-.1.1-.1.2.1.2.1.4.2.5.2.4.4.9.7 1.2.3.4.6.9 1 1.2.1.2.3.3.5.4.2.1.3.3.5.4.1.1.2.1.2 0 .2-.2.3-.5.3-.8 0 0 0-.1.1-.1s.2-.1.3-.1l.3-.3c.2.1.3.1.5.2.2 0 .3 0 .5.1h.1c.7.2 1.3.4 1.9.7.4.2.5.3.7.3.1 0 .1 0 .2.1.2.2.5.3.6.5.4.5.9.9 1.5 1.3.2.2.4.3.7.5.6.5 1.2.9 1.9 1.2l.9.3c.2 0 .3 0 .5.1h.3c.4.1.9.1 1.4.1.2 0 .3 0 .4.1.2.1.4.1.6.1.2 0 .3 0 .5.1.2 0 .3-.1.5-.1.3 0 .6-.1.9-.2.4-.1.7-.3 1.1-.4.4-.1.8-.3 1.2-.4.5-.2 1-.4 1.5-.7.1-.1.2-.1.3-.2.5-.2.9-.5 1.4-.9v-.1c.1 0 .2 0 .3-.1.2 0 .5-.1.6-.3.6-.5 1.3-.8 2-1.1.1 0 .1-.1.2-.1.3-.1.5-.1.7.1.1 0 .1.1.1.2s0 .2-.1.2c-.1.1-.2.1-.3.2-.1 0-.2.1-.4.2-.1.1-.3.2-.5.2l-.6.3c-.1.1-.3.2-.5.2-.1 0-.2.1-.2.1-.3.2-.7.4-1 .6-.3.2-.6.3-.8.5-.3.2-.5.4-.8.5-.3.1-.5.2-.7.4l-.6.3c-.4.2-.9.3-1.4.4-.3.1-.7.1-1 .3h-.1c-.2 0-.4.1-.6.2h-.5c-.2.1-.4.1-.5.2h-.1c-.6 0-1.3.1-1.9-.1-.5 0-.9-.1-1.4-.1H15c-.2-.1-.5-.1-.7-.1-.2-.1-.3-.1-.5-.2-.6-.2-1-.5-1.5-.9-.2-.2-.5-.4-.7-.6-.7-.5-.7-.5-1.4-1.1l-.1-.1c-.3-.3-.6-.5-1-.8-.2-.1-.4-.3-.7-.4-.1-.1-.2-.1-.3-.2-.2-.1-.4-.2-.7-.3-.2-.1-.4-.1-.6-.1-.2 0-.3 0-.4-.1-.2-.1-.5-.1-.8 0-.1.1-.2.3-.2.5v.8c0 .1.1.2.2.1.1 0 .2 0 .3-.1.2-.1.3-.2.5-.2.1 0 .2.1.2.2v.4c-.2.2-.4.5-.6.7-.1.4 0 .7 0 1 0 .5.1.6.1.8.1.4.3.7.5 1.1.1.1.1.2.2.3.6.6 1.2 1.3 1.9 1.8.2.2.5.4.8.6.3.2.6.3.9.4.2.2.3.3.6.5.5.3 1 .6 1.6.9.4.3.9.4 1.4.7.2.1.4.2.7.2.4.1.8.2 1.2.4.2.1.3.1.5.2.3 0 .7 0 1 .2.2.1.4.2.7.2.4 0 .7.2 1.1.2h.1c.3.1.5.1.8.2.2.1.4.1.6.1.2 0 .4.1.6.1h.3c.2.1.4.1.6.1h3.3c.2 0 .5 0 .7-.1h.3c.3 0 .6 0 .9-.1h.2c.6-.1 1.3-.3 1.9-.4.3-.1.5-.2.7-.2.4-.1.8-.3 1.1-.5.1-.1.1-.2.2-.3.1-.1.2 0 .3 0 .1.1.3.1.3.3v.1c-.1.3-.3.4-.4.6 0 0 0 .1.1.2.1-.1.3-.1.4-.2.2 0 .3-.1.4-.1.3-.3.7-.6.9-1l.1-.1c.1-.1.3-.1.4.1 0 .1 0 .1.1.2.1.2.2.2.3.2.1 0 .1-.1.2-.1.2-.2.5-.4.7-.6.2-.2.4-.3.7-.2 0 0 .1 0 .1.1v.8c0 .1 0 .1.1.2.1 0 .1 0 .2-.1.2-.2.4-.3.6-.5.1-.1.3-.1.5-.1.1 0 .1.1.2.1 0 .2.1.3.1.5-.4.2-.8.4-1 .8 0 0-.1.1-.2.1s-.1.1-.1.1H36c-.2-.1-.3-.2-.4-.4-.1-.1-.1-.2-.1-.4v-.1l-.1-.1c-.2 0-.3.1-.4.3-.2.2-.5.3-.7.4h-.2c-.2 0-.3-.1-.5 0s-.4.3-.6.3c-.2.1-.4.2-.7.1-.1-.1-.2-.1-.3-.2-.1 0-.1.1-.2.1-.2.2-.4.3-.6.3-.2 0-.3.1-.5.2-.3.3-.7.5-1 .9l-.1.1c-.4.4-.7.8-1.1 1.2 0 0-.1.1-.1.2-.2.3-.4.5-.6.7-.3.3-.7.6-1 .9-.1.1-.2.2-.2.3h.1c.3-.1.6-.1.8-.2.2-.1.4-.2.5-.2h.1c.1 0 .2.1.2.2v.3s.1 0 .1.1c.2-.1.3-.1.5-.2.2.1.2.1.2.2.1.2 0 .4-.1.6.1.1.1.1.2.1 0 0 .1 0 .1-.1.1-.2.3-.2.5-.2h.2s.1 0 .1.1-.2.2-.1.3c.2.1.4-.1.6-.1.1 0 .2.1.2.3 0 .2 0 .3-.1.5 0 0 0 .1.1.1h.2c.2-.1.3-.2.5-.3l.4-.4c.1-.1.2 0 .2 0 .1 0 .1.1.1.2-.1.2-.1.4-.1.6-.1.2-.2.3-.4.5-.4.3-.8.4-1.1.6h-.2c-.1 0-.2-.1-.2-.1-.1-.1-.1-.1-.1-.2l-.1-.1c-.5.2-.5.2-.9-.1-.1-.1 0-.2-.2-.3-.1 0-.2.1-.3.1-.2 0-.4 0-.5-.2 0-.1-.1-.1-.1-.3l.1-.1s.1-.1 0-.1H28c-.2.1-.4.1-.5.2-.1 0-.3 0-.4-.1-.1-.1-.2-.2-.1-.3v-.1l-.1-.1c-.1 0-.2.1-.2.1-.2 0-.4-.1-.5-.2 0-.1-.1-.1-.1-.2s0-.2-.1-.2-.2.1-.2.1c-.3.4-.7.7-1.1 1-.4.3-.8.6-1.2.8-.3.2-.7.3-1 .6.1.1.1.2.2.3 0 .1.1.3.1.4h.4c.1 0 .1 0 .2.1s.1.2.2.3v.2c-.1 0-.1.1-.2.1-.3.3-.7.4-1 .6h-.2c-.2 0-.4-.1-.4-.3v-.2c0-.1-.1-.1-.1-.2-.1 0-.3 0-.4-.1-.2-.2-.3-.4-.2-.6v-.1H21c-.2 0-.4 0-.6.1-.2.1-.5.1-.8.2h-1.4v.1c0 .1.1.2.1.2.1.2.3.4.4.6.1.1.1.1.1.3 0 .1-.1.2-.1.3 0 .1-.2.1-.2.1-.1-.1-.3-.2-.3-.2l-.6-.6c-.1-.1-.1-.3-.1-.5 0-.1.1-.1.1-.2s0-.1-.1-.2h-.2c-.2 0-.3-.1-.5-.1-.3 0-.5-.1-.7-.3-.2-.1-.4-.3-.6-.4h-.1c-.1.1-.1.2-.2.3-.2 0-.3-.1-.5-.2-.1-.1-.1-.3-.2-.4l-.3-.3c-.1-.1-.1-.2-.1-.3 0-.2.2-.3.4-.3.1 0 .2 0 .2-.1s-.1-.2-.1-.4c-.1-.1-.1-.3-.1-.4 0-.5 0-.8-.2-1.3-.1-.1-.2-.2-.3-.2h-.5c-.7.5-1 1.3-1.3 2.1.1.3.1.5 0 .8v.1c.1.1.2.1.3.1.1 0 .1.1.2.1h.4c.1 0 .1 0 .2-.1.1 0 .2 0 .2.1.1 0 .1.1.2.1.2.2.3.4.5.7.1.1.2.3.2.5v.1c-.2.1-.3.2-.5.2-.1-.1-.2-.1-.3-.2-.1 0-.2 0-.2.1.1.1.1.2.2.3 0 .1.1.1.1.1.1.1.1.3.1.4 0 .1-.1.2-.1.2v.1c.2.1.4.1.5.2.3.2.6.3.9.3.1 0 .2.1.3.1.2.2.4.3.5.5 0 .2.1.4.1.6.2.2.2.2 1.1.5h.4c.3 0 .5 0 .8.1.3.1.5.2.8.2.2.1.5.1.8.2.3.1.6.1.9 0 .2 0 .4-.1.6-.1.5 0 1.1-.2 1.6-.1h.2c.3-.1.6-.2.9-.2.3 0 .6-.2 1-.2.6-.1 1.3-.3 1.8-.6.2-.1.5-.2.7-.4.2-.1.5-.2.7-.3.1 0 .1-.1.2-.1.4-.2.7-.4 1.1-.6.4-.3.9-.5 1.2-.9l.1-.1c.5-.4.9-.8 1.4-1.2l.4-.4c.4-.4.7-.9 1.1-1.3.2-.1.3-.3.4-.5.2-.3.5-.6.8-.9.1-.1.2-.3.3-.4 0-.1 0-.1-.1-.2-.1 0-.1.1-.2.1-.2.1-.5.1-.7-.1l-.1-.1h-.4c-.1 0-.3-.1-.3-.2s-.1-.2-.1-.2l-.1-.1c-.1 0-.2.1-.4 0-.1 0-.3-.2-.4-.3-.2.1-.5.2-.7.3-.3.1-.4.1-.6-.2 0 0-.1-.1-.1-.2 0-.2.1-.3.2-.4.1 0 .3-.1.5-.2.4-.1.7-.3.9-.7l.1-.1c.1-.1.4-.1.4.1 0 .1.1.2.1.2 0 .1 0 .2.1.2.3.1.4-.2.7-.2.1.1.2.1.1.3 0 .1 0 .2-.1.3 0 .1 0 .1.1.2.2-.1.4-.1.7-.2.1.1.1.2.2.3h.3c.1 0 .2-.1.2-.1.1 0 .2 0 .2.1s0 .3.1.5l.1-.1c.1-.2.3-.3.4-.5.2-.2.3-.3.4-.5.1-.2.2-.3.4-.4.1-.1.3-.2.4-.4v-.2c-.2-.1-.4 0-.5-.1l-.1-.1c-.1-.4.1-.7.4-.9.1-.1.3-.2.4-.2.2-.1.4-.2.6-.4.2 0 .2 0 .4.1 0 .1.1.2.1.3 0 .1.2.1.2.1.2-.1.3-.2.4-.3v-.1c-.1 0-.1-.1-.2-.1s-.1-.1-.2-.1c-.1-.1-.1-.2-.1-.3 0-.2.1-.3.3-.3h.2c.3 0 .6-.1.8-.4.1-.1.1-.2.2-.3 0-.1.1-.2.2-.3.2-.2.3-.4.4-.6.1-.1.1-.2.2-.2s.2-.1.3-.1c.2.1.3.2.5.3.1.1.3.1.4.1.4-.1.8-.2 1.2-.4.1-.1.3-.1.4-.2.3-.4.6-.7.9-.9.3-.1.6 0 1-.1.2-.1.3-.2.5-.4.3-.3.7-.6 1.1-.8.3-.1.6-.4.8-.6.2-.2.4-.4.7-.6l.1-.1c.1-.2.3-.4.5-.5l.3-.3c.4-.6.7-1.2 1.1-1.8 0-.1.1-.2.1-.2 0-.1.1-.2.1-.4s.1-.3.3-.3c.1-.1.3-.1.4 0 .1.1.3.2.4.3 0-.1 0-.2.1-.3l.1-.1h.1c.2 0 .4.1.6-.1 0-.2-.1-.3-.2-.4-.1-.1-.2-.2-.3-.2-.1-.2-.1-.4-.2-.6.1-.2.1-.3.1-.5 0-.6 0-1.2.1-1.7v-1.3c0-.3 0-.6.1-.8.1-.4.2-.7.3-1.1.3-.8.5-1.5.7-2.3.1-.6.3-1.1.5-1.7.1-.5.3-.9.4-1.4.1-.5.2-.9.4-1.4 0-.1.1-.2.1-.3 0-.2.1-.4.2-.6 0-.1.1-.2.1-.3.1-.4.3-.8.3-1.2v-.2c.1-.3.2-.5.2-.8 0-.1.1-.2.1-.4.1-.2.1-.4.2-.6 0-.2 0-.4.1-.6.1-.2 0-.4.1-.6v-.6c-.1-.2-.2-.4-.5-.4H56c-.1 0-.2-.1-.3-.1-.1-.1-.1-.4-.2-.5 0 0-.1 0-.1-.1-.2-.2-.3-.3-.1-.6.1-.1.1-.2.2-.2.1-.1.3-.2.4-.4.2-.2.5-.3.8-.3.1 0 .1.1.2.1v.1c0 .2-.1.3-.1.5 0 0 0 .1-.1.1-.1.1-.2.2-.4.3.1.1.1.1.2.1.4.1.7.2 1 .4.2.1.3.2.3.4 0 .5 0 1-.1 1.5-.1.1-.1.2-.2.3v.1c-.1.6-.2 1.2-.4 1.8-.1.2-.1.5-.2.7-.1.4-.2.8-.3 1.1-.1.3-.2.6-.3 1 0 .2-.1.4-.2.6-.1.2-.2.4-.2.7 0 .4-.3.8-.3 1.3 0 .1-.1.2-.1.2l-.3.9c-.1.3-.2.7-.3 1 0 .2-.1.5-.2.7-.2.7-.5 1.3-.7 2-.1.2-.1.4-.2.6v.6c0 .2-.1.4-.1.6V51.2c-.1.4-.1.9-.1 1.3 0 .1.1.3.2.3h.6l.3.3c.2.1.3.1.4 0 .3-.1.6-.3.8-.6.1-.2.1-.3.2-.5.1-.3.2-.7.2-1 0-.2.1-.4.2-.6.1-.3.3-.6.4-.8l.3-.6c.3-.6.6-1.1 1-1.6.1-.2.3-.4.4-.6.2-.3.4-.6.5-1 0-.1.1-.2.1-.2.2-.3.3-.7.4-1.1.1-.3.2-.5.3-.8l.3-.6c.1-.2.2-.4.4-.6v-.2c.2-.2.3-.5.5-.7.1-.1.3-.3.3-.5 0-.3.2-.6.3-.9 0-.2-.1-.5-.1-.7 0-.2 0-.3.2-.4.2-.2.3-.5.6-.6.2-.1.3-.3.3-.5s0-.4-.1-.5c.1-.3.4-.5.5-.8.1-.1.1-.3.2-.4.1-.2.1-.3 0-.5-.1-.1-.2-.3-.2-.4.1-.3.4-.3.6-.5-.1-.1-.1-.2-.1-.3-.1-.1-.2-.2-.2-.3.1-.2.2-.3.4-.3h.2c.1 0 .1-.1 0-.2l-.4-.4v-.2c.1-.2.3-.3.5-.2.1 0 .2.1.3.1.1-.1.1-.2.1-.3-.1-.1-.2-.1-.2-.2-.1-.1-.1-.2 0-.3v-.1c0-.1-.2-.2-.3-.3-.2-.2-.3-.4-.2-.7.1-.6.2-1.2.1-1.9-.1-.3-.2-.5-.4-.8-.2-.2-.4-.4-.5-.6-.4-.4-.7-.8-.9-1.3-.1-.3-.3-.6-.5-.8-.1-.2-.2-.3-.3-.5-.2-.4-.4-.8-.7-1.1-.3-.3-.4-.6-.6-1-.3-.3-.6-.5-.9-.9 0 0-.1-.1-.2-.1s-.3.1-.4.1c-.2-.1-.6-.1-.7-.4 0-.1.1-.3.1-.4.1-.2.3-.3.5-.3.1 0 .2 0 .3.1.1 0 .2.1.2.1.1-.2.1-.2 0-.7-.1-.1-.2-.2-.3-.2-.2-.2-.5-.3-.7-.4-.1-.1-.2-.1-.3-.2-.1-.2-.1-.4-.3-.5h-.8c-.1 0-.2.1-.3 0-.4-.1-.7 0-1.1 0-.3 0-.5 0-.8.1-.3.1-.5.1-.8.1-.3 0-.6.1-.8.1H50.8c-.1.1-.2.1-.2.2-.2.3-.4.5-.6.8v.1l.1.1c.3.1.6.1 1 .1s.8 0 1.2.1h.5c.3 0 .6 0 .9.1.3.1.6.1.8.1.4 0 .7.1 1 .1.1 0 .3.1.4.1l.6.3c.1.1.1.1.1.2h-.1c-.2 0-.3-.1-.5-.1s-.4-.1-.6-.1c-.2-.1-.5-.1-.7-.1h-.4c-.1 0-.3-.1-.4-.1h-2.8c-.2 0-.4 0-.6-.1-.3 0-.7 0-1-.1-.3-.1-.6-.1-.9 0-.1.1-.2.1-.2.1-.1.1-.3.2-.5.2-.4.1-.8.2-1.1.5 0 0-.1 0-.1.1-.3.2-.6.4-.8.7-.1.1-.3.2-.4.3l-1.2.6c-.3.2-.7.2-1.1.3h-.4c-.3-.1-.6-.1-.9-.2-.3-.1-.5-.2-.8-.3-.3 0-.8 0-1.2-.1h-1c-.2-.1-.5-.2-.7-.2l-.5-.5-.3-.3c-.1-.1-.1-.1-.2-.1-.2.1-.4.1-.5.2-.2.1-.3.3-.3.4 0 .1-.1.2-.1.3-.1.2-.3.5-.4.7-.1.3-.3.5-.4.7 0 .1-.1.1-.1.2-.1.1-.2.2-.2.3-.2.1-.5.3-.6.6 0 .1-.1.1-.2.2l-.5.5c-.2.2-.3.3-.4.6-.1.1-.1.2-.2.3-.3.2-.5.6-.7.9-.3.4-.6.8-.8 1.2-.1.2-.2.4-.4.6-.1.1-.2.3-.3.4l-1.2 1.2c-.2.2-.3.3-.5.4-.4.3-.8.7-1.1 1.2-.2.3-.5.6-.6.9 0 .1-.1.1-.2.2s-.1.1-.1.2 0 .1.1.2c.2 0 .3-.1.5-.2.1-.1.3-.2.5-.1.1 0 .2.1.3.1.1 0 .1.2.1.2-.1.2-.2.3-.3.5 0 .1 0 .1.1.1s.2 0 .3.1c.2 0 .2.1.1.3v.1c0 .1.1.2.3.2.1-.1.2-.1.3-.2h.4c.2.1.2.3.1.4-.2.3-.4.5-.7.7-.1.1-.2.1-.3.1-.2 0-.3 0-.4-.1l-.3-.3c-.2 0-.3-.1-.4-.1-.1-.1-.3-.1-.4-.3 0-.1.1-.2.1-.3.1-.1.3-.2.5-.3l.3-.3s-.1-.1-.1 0c-1.4-.5-1.6-.5-1.8-.5-.2 0-.3-.1-.4-.3 0-.1 0-.2-.1-.2-.3.6-.8 1.2-1 1.8-.4.4-.6.8-.8 1.2-.1.1-.3.2-.3.3-.3.5-.5.9-.6 1.4 0 .2-.1.4-.1.6 0 .1 0 .2-.1.3 0 .1-.1.3-.1.4v.3c-.1.2-.1.4-.1.6v.5c-.1.3-.1.5-.1.8 0 .3 0 .6-.1.8V45.9c0 .2-.1.3-.1.5 0 .4-.1.7-.2 1.1-.1.3-.1.6-.2.9 0 .3-.1.5-.1.8 0 .3-.1.5-.1.8 0 .1 0 .1-.1.2 0 .1-.1.2-.1.3 0 .2 0 .3-.1.4-.1.4-.2.7-.1 1.1 0 .1.1.3.2.5.1.1.1.3.2.4.1.1.3.2.4.3.2 0 .3.1.5.1.1-.1.3 0 .5-.2s.4-.5.5-.8c.1-.1.1-.2.2-.3v-.3c.1-.3.2-.4.5-.5.1 0 .3 0 .3.1.1.1.1.2.1.3-.1.2-.2.4-.3.5 0 .1-.1.2-.1.2 0 .1.1.2.2.2s.2-.1.3-.2c.1-.1.2-.3.2-.4.1-.4.2-.8.3-1.3 0-.2.1-.4.1-.6 0-1 0-.9.3-1.6.2-.5.3-1.1.1-1.6-.1-.4-.1-.8 0-1.2.1-.3.2-.5.3-.8.2-.6.3-1.1.5-1.7 0-.2.1-.3.2-.5.1-.1.1-.2.2-.2 0-.2.1-.4.1-.7.2-.2.3-.5.4-.7l.3-.6c.1-.2.3-.4.5-.6.3-.3.7-.5 1-.8.3-.1.5-.3.7-.5.3-.2.4-.5.6-.8.1-.1.1-.3.1-.4l.9-.9c.1-.1.1-.3.2-.4.6-.2.6-.2.7-.5-.1 0-.2-.1-.4-.1-.2-.3-.2-.3-.3-.6-.2-.1-.4-.1-.6-.3-.1-.1-.1-.3 0-.4.1-.1.2-.3.3-.4h.6c.2-.1.3-.2.5-.2.2.1.2.1.3.2 0 .1-.1.2-.1.3v.3c-.2 0-.4 0-.5.1 0 0-.1.1 0 .1h.1c.1 0 .3 0 .4-.1.1 0 .1-.1.1-.2.1 0 .1-.1.2-.2 0-.1.1-.1.2-.2.1 0 .2.1.4.1.1.1.1.2.1.3-.3.7-.3.8-.5.9l-.3.3.1.1c.4-.1.8-.4 1.1-.8.2-.2.3-.4.4-.7 0-.1 0-.1.1-.2 0-.2.1-.3.2-.5s.3-.3.4-.5c.4-.2.8-.3 1.1-.7 0-.3 0-.3-.1-.7 0 0 0-.1.1-.1.1-.1.2-.2.4-.2.2-.1.4 0 .6.2 0 .1.1.2.1.2-.1.1-.1.3-.2.4 0 .2-.1.3-.1.5-.2.2-.4.5-.6.6-.2.1-.4.1-.5.2-.1 0-.2.1-.3.2-.2.4-.3.5-.3.6-.1.3-.3.6-.4.9-.1.3-.3.5-.5.7-.2.2-.5.4-.8.5-.4.2-.7.4-1 .5-.4.4-.8.7-1.1 1.1-.3.4-.4.9-.7 1.2-.5.4-1.1.8-1.6 1.2l-.1.1c-.3.2-.5.4-.8.7-.2.4-.3.9-.6 1.2 0 .1-.1.1-.1.2 0 .2-.1.5-.2.7-.1.2-.2.4-.2.6-.1.3-.1.6-.2.8-.2.4-.4.9-.5 1.3-.1.3-.1.6-.1.9v1.6c-.3.6-.4.9-.5 1.7 0 .1-.1.2-.1.3.1.5 0 1-.1 1.4-.1.2-.2.4-.2.6 0 .2-.1.3-.2.5-.2.2-.3.4-.4.7h-.2c-.1 0-.1.1-.1.1h-.5c-.2 0-.3-.2-.5-.1s-.3.2-.4.3c-.2.2-.3.3-.6.3s-.5.1-.7.1c-.2 0-.4-.1-.5-.1-.3-.1-.6-.2-.8-.5-.2-.3-.3-.5-.5-.8-.2-.3-.2-.7-.2-1 .1-.3.1-.7.2-1 .1-.4.2-.9.2-1.3 0-.2.1-.3.1-.5l.3-.9c.1-.5.2-.9.3-1.4 0-.1.1-.3 0-.4v-.1c-.1-.1-.3 0-.4-.1-.1-.2-.2-.3-.2-.4 0-.1 0-.1-.1-.2 0-.1 0-.3.2-.3h.3c.1 0 .2 0 .3-.1.1-.3.2-.6.2-.9v-1.3c0-.1.1-.2 0-.4 0-.1-.1-.1-.2-.1-.2 0-.4.1-.6.1h-.1c-.3.1-.6.4-.9.6l-.1.1c-.1.2-.2.3-.4.3l-.3.3c-.1.1-.2.3-.4.3-.3.1-.5.3-.7.5-.3.2-.5.4-.8.6-.3.2-.5.4-.8.6-.1.1-.2.1-.3.2-.1.1-.3.2-.5.3 0 .2-.1.3-.5.6zm25.3-27.3v-.9c-.3-.4-.5-.8-.8-1.1 0-.1-.1-.3-.1-.4 0-.1.1-.3.2-.3.2-.1.4-.1.6-.1.1.1.2.2.3.4 0 .1 0 .2.1.3.1.1.1.2.3.3 0 0 .1 0 .1-.1.1-.2.3-.4.3-.7 0-.1.1-.1.1-.2.2-.1.4-.1.6 0 .2.2.3.3.1.6-.2.1-.3.3-.5.5-.1.1-.1.2-.2.3-.1.1-.1.2-.2.3 0 .2.1.3.1.5 0 .1.1.2.1.4.1.1.2.3.4.3.2-.1.4-.2.5-.4.1-.3.4-.4.7-.6.1 0 .3.1.3.2v.3c0 .1-.1.1-.1.2-.1.2-.3.4-.5.6-.2.2-.4.4-.6.5-.3.1-.6 0-.9-.1-.1 0-.1-.1-.2-.1-.2-.1-.3-.1-.5.1-.1.2-.3.4-.6.5-.3 0-.6 0-.8.1h-.2c-.1-.1-.2-.1-.3-.2-.1-.1-.2-.1-.3-.1-.1.1-.3.1-.5.2-.1 0-.1.1-.2.2s-.1.1-.2.1c-.2.1-.4.1-.5.2-.1.1-.2.1-.2.3v.1c.2.1.4.2.5.4.1.1.2.1.4.1h1.1c.3 0 .6 0 .9-.1.2 0 .3.1.5.1.2.1.3.2.5.3.1 0 .2.1.3.1.3 0 .6.1.8.1.2 0 .4-.1.5-.1.2-.1.5-.1.7-.2.3-.1.5-.3.8-.4.2-.1.4-.4.6-.5.3-.3.7-.4 1-.7.1-.1.3-.2.5-.3v-.2c0-.1-.1-.2-.2-.3.1-.1.1-.2.1-.4 0-.1.2-.2.3-.1.1 0 .2.1.2.1.2.1.4.2.6.2.1 0 .2 0 .2.1h.3c.6-.4.7-.5.9-.8 0-.1-.1-.1-.2-.1h-.5c-.2 0-.3-.1-.4-.2-.1-.2-.1-.3 0-.5.1-.1.3-.1.4-.2.3.1.6.1.9.2h.3c.2 0 .3-.1.4-.2.1-.2.3-.5.4-.7-.1-.1-.1-.1-.2-.1-.2.1-.3.1-.5.2s-.4 0-.6.2c-.4.1-.7.2-1.1.2-.1 0-.2-.1-.3-.2-.1-.1-.1-.2-.1-.3.1-.1.1-.2.3-.3.5-.1 1-.2 1.4-.4h.7c.2-.1.4-.1.6-.2.1-.1.1-.2.1-.3 0-.2.1-.5.1-.7v-.7c.1-.1.2-.2.3-.2.1 0 .3 0 .4.1.2 0 .3.1.3.3 0 .2 0 .3-.1.5 0 .2-.1.3-.1.5 0 .1 0 .3-.1.4l.1.1c.3 0 .6.1.8.1.1 0 .2-.1.2-.2s0-.2-.1-.3c.1-.1.1-.3.2-.5 0-.1.1-.2.1-.2 0-.1.1-.3 0-.4-.2-.2-.6-.3-.7-.5 0-.2.1-.3.2-.4.1-.1.2-.2.4-.3.1-.2.2-.3.2-.5 0-.1-.1-.2-.1-.2-.2-.1-.4-.2-.5-.3-.1-.1-.2-.2-.1-.3.1-.2.1-.4.3-.6.1-.1.2-.3.4-.4.1-.1.3-.3.3-.5.3-.9.3-1 .3-1.2 0-.1-.1-.2-.1-.2-.1-.1-.3-.2-.4-.2-.2-.1-.5-.3-.6-.4-.1-.2-.1-.4-.1-.6 0-.2.2-.2.3-.3v-.4c.2-.1.3-.3.4-.5.1-.2.1-.4.1-.6 0-.1 0-.2.1-.3l.3-1.2V3.3c0-.5-.1-1-.2-1.5 0-.2-.1-.4-.2-.5 0-.3-.1-.3-.2-.3h-.1L51 2.3c-.2.4-.4.8-.8 1.2-.1.1-.1.1-.1.2-.2.5-.6.8-.8 1.3 0 .1-.1.1-.1.2-.4.4-.6.8-1 1.2-.1 0-.3 0-.4-.1h-.2c-.1 0-.2.1-.3.1-.1 0-.2-.1-.4-.1h-.5c-.3 0-.6-.1-.8-.2-.2-.1-.2-.3-.3-.3-.2-.1-.3 0-.5 0s-.4-.1-.5-.3c-.1-.2-.2-.3-.4-.4-.1-.1-.3-.1-.5-.1 0 0-.1.1-.2.1-.2.1-.4.3-.6.3-.1 0-.2-.1-.3-.1-.2 0-.4-.1-.6-.2 0 0-.1 0-.1-.1h-.3c-.1.1-.2.2-.2.3-.1.1-.2.1-.4 0-.1-.1-.3-.2-.4-.4h-.2c-.3 0-.4.1-.6.3 0 .1-.1.2-.1.2-.1.1-.2.1-.4.1-.2-.1-.3-.2-.4-.3-.1-.2-.2-.3-.3-.5-.1-.2-.3-.4-.6-.4-.1 0-.3 0-.4.1-.3-.2-.3-.3-.6-.6-.2-.2-.4-.4-.5-.6-.2-.1-.4-.3-.6-.3-.1 0-.2-.1-.3-.1-.2-.1-.4-.2-.7-.3-.1 0-.2-.1-.3-.1-.1 0-.2-.1-.3-.1-.5-.1-.9-.3-1.3-.4l-.1.1v1.7c0 .1.1.2.2.2s.2-.1.4-.1h.5c.2.1.4.2.5.4.1.2.3.3.5.4l.3.3c.2.3.5.5.8.7.2 0 .3.2.5.4.1.2.2.4.4.5.2.2.3.4.4.6 0 .3-.2.5-.4.7-.1 0-.1.1-.2.1h-.2c-.1 0-.2 0-.3-.1-.1 0-.2 0-.3-.1-.1 0-.3.1-.3.2 0 .2 0 .3-.1.4 0 .1-.1.1-.1.1h-.4c-.1.1-.2.1-.3.2-.1 0-.2-.1-.3-.1-.1-.1-.3 0-.4-.2 0-.1.1-.2.1-.3.2 0 .1-.1 0-.3-.1-.3-.3-.6-.4-1 0-.1-.1-.2-.1-.2-.2-.4-.3-.7-.5-1.1v-.5c-.1-.1 0-.3 0-.4-.1-.2.1-.3-.1-.5l-.1.1v.4c-.1.5 0 .9 0 1.3.1.3.2.6.2.8 0 .2.2.4.3.7v.1c0 .1 0 .3.1.4.1.2.1.3.2.5 0 .1.1.2.1.3l.3.3.3.3c0 .5-.1 1-.2 1.4-.2.2-.3.4-.5.5-.1.1-.3.2-.3.4 0 .3.3.3.3.5-.1.5-.3.9-.5 1.3v1.8c0 .2 0 .3.1.4 0 .1 0 .2-.1.3.1.2.1.4.3.5.2.2.3.5.5.7 0 .2-.1.4-.1.6.1.4.4.6.6.8h.6c.1 0 .2-.1.3-.1.3 0 .6-.1.9-.2.4-.1.7-.2 1.1-.3.2 0 .3-.1.5-.1.3-.1.5 0 .6.3 0 .1 0 .1.1.2 0 .1-.1.1-.1.2l-.1.1h-.7c-.6.3-1.2.4-1.9.5-.1 0-.2.1-.3.1 0 0 0 .1-.1.1.2.2.4.3.6.4h.9c.4-.1.9-.2 1.3-.3.2 0 .3-.1.5 0 .1 0 .1.1.1.1v.3c-.1.2-.2.4-.5.5-.1 0-.2.1-.3.1-.1 0-.2-.1-.3-.1-.2 0-.5 0-.7.1-.2.1-.1.3-.1.5.1.1.1.1.2.1l.9-.3c.2-.1.5-.2.7-.3.1-.1.2-.1.2-.1.1 0 .2-.1.2 0 .5 0 .8.2 1.3.1.1-.4.4-.5.5-.8zM51 17.2c-.2.2-.4.4-.4.7.2 0 .4.1.6.1H52.3c.3-.1.7-.1 1-.1.2 0 .5 0 .7-.1v-.1l-.5-.5c-.1-.2-.1-.4-.2-.6-.1 0-.3-.1-.4-.1-.2 0-.4.1-.6.1h-1.1c-.2.2-.1.4-.2.6zm-16.1-10c.2-.2.4-.3.7-.3h.2l.1-.1v-.1c-.2-.3-.4-.5-.6-.7l-.3-.3c-.3-.3-.6-.5-.9-.7-.1 0-.1-.1-.2-.1h-.1s-.1.1 0 .1c0 .2 0 .3.1.4.1.3.2.7.3 1.1.2.3.4.7.5 1 0 0 0 .1.1.1 0 .1.1.1.2.1s.1-.1.1-.1c-.2-.2-.2-.2-.2-.4zM55 16.8c-.1 0-.1 0-.2-.1-.2 0-.3-.1-.5-.1h-.1l-.1.1c0 .2.2.3.4.3.1 0 .3-.1.5-.2 0 .1 0 0 0 0z"/>
    <path class="st4" d="M34.9 7.2v.3c0 .1-.1.1-.1.1-.1 0-.1 0-.2-.1l-.1-.1c-.1-.4-.3-.7-.5-1-.1-.3-.1-.7-.3-1.1-.1-.1-.1-.3-.1-.4v-.1h.1c.1 0 .1.1.2.1.3.2.6.5.9.7l.3.3c.3.2.4.5.6.7v.1s0 .1-.1.1h-.2c0 .1-.2.2-.5.4z"/>
    <path class="st1" d="M55 16.8s0 .1 0 0c-.2.1-.4.2-.5.2-.2.1-.3-.1-.4-.3 0 0 0-.1.1-.1h.1c.2 0 .3.1.5.1.1.1.1.1.2.1zM33.3 34.6c0 .1-.1.1-.1.2-.1.1-.2.1-.4.1h-.1v-.1c.3-.2.5-.2.6-.2zM21.2 71.9c0 .1 0 .1 0 0-.1.1-.1.1-.2.1h.1c.1 0 .1 0 .1-.1 0 .1 0 0 0 0z"/>
    <path class="st1" d="M21.2 72c.1-.1.1-.1 0 0 .1-.1.1-.1.2-.1h-.1l-.1.1zM25.7 53.3c0 .1-.2.1-.3.1 0-.1 0-.1.1-.1.1.1.1.1.2 0zM15.1 47c.1-.1.2-.1.3-.1 0 .1 0 .1-.1.1h-.2z"/>
    <path class="st2" d="M36.6 47.5c-.1 0-.2.1-.3.1-.6.1-1.1.4-1.5.7-.4.2-.7.5-1.1.6-.1.1-.3.1-.4.2-.4.1-.7 0-1 0-.1 0-.2-.1-.4-.1-.1-.1-.1-.2 0-.3.1-.2.2-.3.4-.3.3-.1.5 0 .8 0 .5-.2 1-.5 1.5-.8.6-.3 1.1-.6 1.8-.8h.2c.4 0 .8-.1 1.1-.2.1 0 .2 0 .3-.1h.6c.2-.1.3-.1.5-.2h.1c.1 0 .1 0 .2.1s.2.2.2.3v.3c0 .2-.1.4-.3.5 0 0-.1 0-.1.1-.2 0-.3-.2-.5-.2h-.1c-.3 0-.6.1-.9.1h-1.1zM32.4 58.4l-.3-.3c-.1-.1-.1-.2 0-.3.1-.1.3-.3.5-.3h1c0 .1.1.1.1.2v.2c.1.2 0 .3-.1.5 0 .1.1.2.1.3v.7c0 .1.1.2.1.3 0 .1-.1.2-.1.4.1.1.1.2.2.3 0 .2 0 .3-.1.4-.2.2-.4.3-.4.6-.2.1-.4.2-.5.2h-.2c-.1 0-.2-.1-.3-.1-.3-.1-.3-.3-.4-.5V60.4c.1-.2.2-.2.3-.3 0-.1-.2-.1-.2-.1-.1-.1-.1-.2 0-.3.1-.1.2-.2.2-.3 0-.1-.2-.1-.2-.2.1-.5.2-.6.3-.8zM20 60.8c-.3-.1-.6-.1-.9-.1-.2-.1-.4-.3-.5-.5.1-.1.2-.3.2-.4-.1-.1-.3-.2-.4-.2-.1-.1-.1-.3-.1-.4v-.1c.1-.1.1-.2.2-.2h1l.1-.1s0-.1-.1-.1h-.3c-.1 0-.3 0-.4-.1l-.3-.3c-.1-.2-.1-.3.2-.5 0 0 .1 0 .2-.1h1c.1 0 .1.1.2.2s.2.1.3.2v.3c-.1.1-.2.2-.3.2-.1 0-.2 0-.2.1 0 0 0 .1-.1.1l.1.1c.2 0 .2.2.3.3v.1c0 .2-.1.5-.2.7.1.2.2.3.2.5s0 .4-.2.5c.1-.2.1-.2 0-.2zm0-1c-.2-.1-.3-.1-.4 0 .1.1.2.1.4 0zM39.5 26.4c0 .3.1.6.1.8 0 0 .1 0 .1-.1.1-.1.1-.2.1-.2.1-.2.4-.2.6-.1.1 0 .1.1.1.1.1.1 0 .2.1.3.1 0 .2-.1.2-.1h.2c.1 0 .2.1.3.3v.3c0 .2 0 .5.1.8 0 .1-.1.2-.1.3-.1.1-.2.2-.3.2-.1.1-.1.2-.3.2-.2 0-.3-.2-.5-.3-.2-.1-.3-.2-.4-.2-.2-.2 0-.4-.1-.5-.1.1-.2.1-.3.2-.1 0-.3 0-.4-.1 0-.2 0-.3-.1-.4v-.7c-.1-.2-.1-.4-.2-.6 0-.2.1-.3.2-.3s.2-.1.3-.1c.1 0 .1 0 .2.1l.1.1zM34.4 28.7c0 .2.1.3.1.4v.2c0 .2-.1.2-.2.3-.1.1-.1.2-.2.3h-.8c-.1 0-.2-.1-.3-.1-.1 0-.1-.1-.1-.3v-.2c-.1-.1-.3-.1-.4-.2-.1-.1-.2-.1-.3-.2 0-.1.1-.2.1-.4-.1-.3-.4-.3-.5-.5.1-.1.1-.2.2-.3.3-.3.6-.5.8-.7h.5c.1.1.1.3.1.4 0 .1-.1.2-.2.3 0 0 0 .1.1.1h.2c.1 0 .2-.1.2-.1.1 0 .2.1.3.1 0 .2-.1.3-.1.5 0 .1 0 .1.1.1h.1c.2.3.2.3.3.3zm-1.4-.4h-.1.1zM24.5 61.4c.2.3.4.5.3.9.1.2.1.3.2.5.1 0 .1.1.2.1s.1.1.2.2c0 .1.1.2.1.2 0 .1-.1.2-.1.2-.1.1-.2.2-.4.3h-.3c-.2 0-.5 0-.7.1-.2 0-.3 0-.4-.1-.1-.1-.2-.1-.2-.2-.1-.1-.1-.2 0-.3 0-.1.1-.1.2-.2-.1-.2-.4-.3-.3-.5.1-.2.2-.3.4-.3h.3c.1 0 .2-.1.1-.1l-.1-.1h-.3c-.1 0-.3-.1-.4-.2-.1-.1 0-.2 0-.4v-.1c.1-.2.3-.3.6-.3h.1c-.1.1.2.1.5.3zM61.7 30c.1-.1.3-.2.4-.2.2 0 .3.2.4.4v.3c-.1.2-.2.3-.4.4-.1 0-.2.1-.3.1-.2.1-.1.4-.3.5-.1.1-.3 0-.4.1-.2.1-.3.4-.5.4h-.2c-.1 0-.2 0-.2.2-.1.2-.1.4-.2.6-.2.1-.3-.1-.5 0-.1.1-.1.2-.2.3-.1.1-.2.1-.3.1-.2-.1-.3-.3-.5-.4v-.2c.3-.3.6-.3.9-.2.1 0 .1-.1.1-.1-.1-.2 0-.3.1-.5s.3-.2.5-.2c.1 0 .2.1.2.1s.1 0 .1-.1v-.4c0-.1.1-.3.3-.3.2 0 .3 0 .5-.2.1-.1.2-.1.4-.1s.2 0 .3-.2c-.2-.3-.2-.3-.2-.4zM24.8 75.4c-.1 0-.2-.1-.3-.1-.2 0-.3-.2-.3-.4 0-.1-.1-.2-.2-.1h-.1c-.2.1-.4.1-.5-.1-.1-.1-.2-.3-.3-.5H22.5c-.3-.1-.3-.4-.2-.6l.1-.1c.4-.2.7-.5 1-.7.1 0 .2-.1.4-.1.1 0 .2.1.2.3 0 .2-.1.4-.2.5-.2.1-.3.3-.5.4l-.1.1c0 .1.1.1.1 0 .2-.1.4-.2.7-.2h.2c.1 0 .2.1.2.1 0 .1.1.2.1.3 0 .1.2.2.3.2h.3c.2 0 .5-.1.7-.1.1 0 .2.1.3.1.1.1.1.2 0 .2 0 .1-.1.1-.1.2-.1.1-.2.2-.4.3-.4.2-.6.3-.8.3zM37.6 24.9c.1.1.1.1.1.2s0 .2-.1.3c0 0-.1.1-.1.2.1.1.2 0 .2 0h.1c.2-.1.2-.1.4 0 .1.1.1.2.1.3 0 .1-.1.3-.2.4v.5c0 .3.1.6.3.8v.1s0 .1-.1.1c-.1.1-.3.2-.5.2-.1 0-.3 0-.3-.1-.1-.1-.1-.3-.1-.4v-.3c0-.3-.1-.6-.2-.9-.1.1-.1.2-.1.3 0 .1 0 .2-.1.3-.1 0-.3.1-.4.1-.5.1-.5 0-.5-.4v-.1s0-.1.1-.1c.1-.1.2-.2.3-.4.1-.2.2-.5.2-.8V25c0-.1.2-.3.3-.3.4.2.5.1.6.2zM52.7 32.1c0 .1.1.1.1.2v.1c0 .2-.1.3-.3.4-.1 0-.1.1-.2.1h-.4c0 .1 0 .2-.1.3 0 .1-.1.1-.2.2h-.4c-.1 0-.2-.1-.2-.1l-.1.1v.6c0 .2-.1.4-.3.4-.2.1-.3 0-.4-.1-.1-.1-.1-.3 0-.4.1-.4.2-.9.1-1.3 0-.2.1-.3.2-.3.3.1.6.1 1 .1 0-.1-.1-.2-.1-.2 0-.1 0-.1.1-.2s.2-.1.3-.1h.2c.1 0 .1.1.2.1.2-.1.4-.1.5.1zM35.4 40.6c.1-.2.2-.3.4-.4.2-.1.5-.2.7-.3.2-.2.3-.3.4-.5.2-.1.3-.1.5 0 .1.1.1.2.2.3.1-.1.2-.1.4-.2h.3c.1 0 .1.1.2.1v.5s0 .1-.1.1c-.3.3-.5.6-.8.8-.2.2-.3.3-.6.4-.2 0-.3-.3-.5-.3h-.3c-.4-.1-.5-.2-.8-.5zM46.8 51.2c-.2.2-.4.3-.6.4-.2.1-.3.2-.5.3-.1 0-.2 0-.2-.1l-.3-.3c-.1-.1-.2 0-.3 0-.2.1-.5-.1-.6-.4v-.2c0-.1.1-.1.1-.1.4-.3.9-.5 1.3-.8.1-.1.3 0 .4.1v.1l.1.1c.1 0 .2 0 .2-.1.1 0 .1 0 .2-.1.1 0 .2.1.2.2v.3c.1.4.1.5 0 .6zM29.2 50.7c.2-.1.3-.2.5-.3.2-.1.3-.2.5-.2.4-.2.8-.3 1.2-.5.4-.2.8-.2 1.3-.2.2 0 .4.2.4.4v.1c0 .1-.1.2-.2.2h-.3c-.2-.1-.3-.1-.5-.1-.3.1-.6.3-1 .4-.3.1-.6.3-.9.4l-.4.4c-.1.1-.3.1-.4.1-.2 0-.3-.3-.2-.4-.2-.1-.1-.2 0-.3zM32 34c-.1 0-.2.1-.4.1s-.3-.1-.4-.1c-.1-.1-.1-.1-.1-.2s0-.2.1-.2c.1-.1.2-.1.2-.2-.1-.1-.2 0-.3 0-.1 0-.2-.1-.3-.2v-.3c0-.1 0-.3.2-.3l.3-.3c.1-.1.1-.2.2-.3.2-.1.4-.1.5 0 .1 0 .3.2.3.3 0 .2 0 .3-.1.4-.1.1-.2.2-.3.2v.1h.2c.1 0 .3-.1.4-.1.1 0 .2.1.2.2.1.1.1.3.1.4 0 .2-.1.3-.2.3-.2-.1-.3 0-.6.2.1-.1.1-.1 0 0zM58.5 42c0 .1.1.2.1.2 0 .2-.1.3-.1.4-.1.2-.3.2-.5.2-.1 0-.2-.1-.3-.2-.2 0-.4.2-.7.3h-.2l-.3.3c-.1 0-.2.1-.2.1h-.2c-.1-.1-.2-.2-.2-.3v-.2c0-.1.1-.2.1-.4 0-.1 0-.3.1-.4.1-.1.2-.2.4-.2.1 0 .3.1.4.1.2 0 .3-.2.5-.2s.3.1.4.1c.1 0 .2-.1.3-.1h.2c0 .1.1.2.2.3zM58.4 39v-.3c.2-.2.4-.3.6-.2.1 0 .2.1.2.2v.6c-.1.2-.3.2-.4.3h-.4s-.1.1-.2.1c-.1.1-.2.2-.3.4-.2.1-.3.2-.5.3h-.8c-.1-.1-.2-.1-.3-.2 0-.1-.1-.2-.1-.3-.1-.2 0-.3.1-.4l.1-.1c.2-.1.3 0 .5 0 .1 0 .2 0 .4.1.1-.1.1-.3.2-.4.1 0 .1-.1.2-.1h.3c.2-.3.3-.2.4 0zm-1.2 1c.1.1.1 0 .2 0v-.2c0-.1-.1-.2-.2-.3-.1.1 0 .1 0 .2v.3zM46.6 45c-.2 0-.3-.1-.5-.2v-.1c.1-.1.1-.2.2-.2v-.1c0-.1-.1-.2-.1-.2 0-.1-.1-.1-.1-.2 0-.2.1-.3.2-.4.1-.1.2-.1.3-.1.3 0 .4.2.6.3.1 0 .2-.1.3-.2h.2c.1 0 .3.1.4.1.1 0 .1.1.2.2 0 .5-.2 1-.3 1.5-.1.1-.2.1-.4.1-.1 0-.2 0-.3-.2.1-.2.1-.4.2-.7 0-.1 0-.3-.2-.4-.1.1-.1.3-.2.5-.1.1-.3.3-.5.3zM60.2 36.1c-.1.3-.3.5-.5.8 0 0-.1 0-.1.1-.2 0-.4-.2-.6-.3h-.4c-.1-.1-.2-.2-.3-.2-.2 0-.3.2-.5.3-.2.1-.3 0-.5-.1-.1-.1-.2-.2-.2-.3.1-.3.4-.3.6-.5.1-.1.2-.2.2-.3.2-.1.3-.1.5-.1l.2.2c.3 0 .5 0 .7.2h.4c.1 0 .2 0 .2.1.3-.1.3 0 .3.1z"/>
    <path class="st2" d="M48.1 52.3c0 .4-.3.6-.4.9-.2 0-.5 0-.7-.1-.2-.1-.3-.3-.4-.5h-.2c-.1 0-.2-.1-.4-.1-.1-.1-.2-.2-.2-.3 0-.1 0-.1.1-.2l.2-.2c.2-.1.3-.2.5-.3.1-.1.2-.2.2-.3.2-.1.4-.1.5-.1 0 .1.1.1.1.2s0 .3-.1.4v.2c.4.2.7.2.8.4zM48.7 42c0-.1-.1-.2-.1-.3 0-.1 0-.2.1-.3.1-.1.3-.2.5-.3h.1c.2.1.2.3.3.5v.2c0 .1 0 .2-.1.3 0 .1 0 .1.1.2.1 0 .2 0 .3-.1v-.5c.1-.2.2-.3.4-.3.1 0 .1 0 .2.1.2.1.2.3.2.4 0 .2 0 .3-.1.5 0 .1-.1.1-.1.1-.2.1-.4.3-.5.4-.2 0-.3 0-.3-.1-.1-.1-.2-.1-.2-.2-.2.1-.3.1-.5.2-.1 0-.2 0-.2-.1-.1-.1-.1-.2-.1-.3-.1-.1-.1-.3 0-.4zM25.1 43.8c-.2.1-.3.3-.6.3-.2 0-.4-.1-.5-.2V43.6s0-.1.1-.1c.2-.1.3-.3.5-.4.1-.2.3-.3.4-.5 0 0 .1 0 .1-.1.1-.1.4 0 .5.1 0 .1.1.1.1.1.1.1.2.1.3.1.2 0 .3.1.3.4-.1.2-.2.5-.5.7-.1.1-.3.2-.5.1-.1-.2-.2-.2-.2-.2zM36.3 23c.2 0 .4 0 .5.2 0 .3-.2.5-.2.8 0 .3-.2.5-.3.7 0 .1.1.2.2.3.1.1.1.2.1.4 0 .1-.1.2-.2.2h-.7c-.1-.2-.3-.3-.3-.5.3-1.1.3-1.1.4-1.7.1-.3.3-.4.5-.4zM36.2 51.4c0 .1.1.1.1.1v.1c0 .3-.2.5-.5.6-.1 0-.1 0-.2.1h-.3c-.2.1-.4.2-.6.4-.2 0-.3-.1-.4-.1-.1 0-.2-.1-.2-.2-.1-.2 0-.3.1-.5.1 0 .1-.1.2-.1.3-.1.6-.2.8-.4h.5c.2-.1.4 0 .5 0zM37.1 55.9c-.1-.1-.2-.1-.2-.1-.1-.1-.1-.3-.1-.4 0-.1.1-.1.1-.2l.3-.3c.3-.2.6-.5.8-.8.2-.1.3-.2.4-.3.2-.1.3 0 .4.1 0 0 0 .1.1.1 0 .1.1.2.1.3 0 0 0 .1-.1.1-.2 0-.3.2-.3.3-.2.2-.4.3-.5.4-.2.2-.5.4-.8.5-.1.3-.1.3-.2.3zM25.7 40.1c-.1-.2-.1-.3-.2-.5l-.2-.2c-.1-.1-.1-.3 0-.4 0-.1.1-.1.1-.2l.4-.4c.1 0 .3 0 .4-.1l.1.1c.1.2.1.3.2.5.1.1.2.1.2.2.1.1.1.1.1.2.1.2 0 .3-.1.4l-.5.5c-.1 0-.2.1-.3 0 .1 0-.1 0-.2-.1zM29.6 61.6c.2 0 .4 0 .5.2-.1.2-.1.4-.2.6-.1 0-.1.1-.2.1s-.2 0-.2.1c-.2.1-.5.3-.7.4-.1 0-.2.1-.2.2-.2 0-.4 0-.5-.1-.2-.1-.2-.3-.1-.4l.3-.3c.3-.2.5-.3.8-.4 0-.2.2-.3.5-.4zM57.6 30.3c.1-.2.1-.4.2-.5.1-.2.2-.2.3-.3.2 0 .3.1.4.2.1.2.1.3 0 .5s-.2.3-.4.5l.1.1h.3c.1 0 .2.1.2.2s0 .3.1.4c0 .1 0 .2-.1.2-.2.2-.4.2-.7 0l-.2-.2-.2-.2c-.1 0-.2-.1-.4-.1-.1 0-.1-.1-.1-.1.2-.3.3-.5.5-.7zM53.7 28c.3.3.2.7.4.9.1.1.2.1.2.1h.5c.1 0 .1 0 .2.1.1 0 .1.2.1.2-.1.1-.1.2-.2.2-.3.1-.6.2-.9.2h-.3c-.2 0-.4-.2-.3-.4.1-.3 0-.5-.2-.6l-.1-.1c0-.1-.1-.2-.1-.4 0-.1.1-.3.1-.4.2.1.4.2.6.2zM39.3 59.2c-.2-.1-.5-.1-.8-.3 0-.2.1-.3.2-.5 0-.1.1-.1.1-.1.3-.1.6-.1.9-.1.2-.1.3-.1.5-.2h.3c.2 0 .3.2.3.4 0 .1-.1.2-.2.3-.2.2-.5.3-.8.4-.2 0-.3 0-.5.1zM52 30.2s-.1 0-.2-.1-.1-.2-.2-.3c-.1-.2-.2-.2-.3 0 0 0 0 .1-.1.1-.1.1-.3.1-.4 0-.2-.2-.3-.5-.4-.7 0-.1 0-.2.1-.2.1-.1.2-.1.3-.2.1 0 .3.1.4.1.1 0 .3-.1.5-.1.1 0 .2 0 .2.1.1.2.3.3.4.5v.1c0 .1 0 .3-.1.4 0 .1 0 .3-.2.3zM43.7 50.9c-.1-.1-.2-.1-.3-.1-.1-.2-.1-.5 0-.7l.1-.1c.3-.2.6-.3.9-.4.1-.1.3-.1.4-.1h.1c.2 0 .3.1.3.3 0 .2 0 .3-.2.5-.1.1-.3.2-.4.3-.3 0-.5.2-.8.3.1-.1 0-.1-.1 0zM38.5 41.5c-.2.1-.4 0-.5-.1-.1-.1-.2-.1-.2-.3 0-.1.1-.2.2-.4.1 0 .1-.1.1-.1.1 0 .1-.1.2-.1.3-.1.5-.2.6-.4.1-.1.2-.1.2-.2.1-.1.2-.1.2 0 .2 0 .3.1.5.2v.1c-.1.3-.3.5-.5.6-.3.3-.5.5-.8.7zM35.2 38.6c.3.1.5.1.8 0 .1-.1.3 0 .4.1.1 0 .1.1.1.2v.3c-.1.1-.2.2-.3.2-.1.1-.2.1-.2.2-.6.2-.9.3-1.1.1v-.4c0-.1.1-.3.1-.4 0-.2.1-.3.2-.3zM32.6 45.1c.1.2 0 .3-.1.4-.2.2-.3.3-.5.4-.1.1-.2.1-.3.2-.1.1-.2.2-.3.2-.1.1-.3.1-.5.1-.2-.1-.3-.3-.4-.5 0-.1.1-.2.2-.3.3-.2.5-.3.8-.4h.5c.1-.1.2-.1.3-.2.1 0 .2 0 .3.1zM33.5 43.9c0-.2 0-.5.1-.7.1-.1.2-.2.3-.4.3-.1.4 0 .6.2 0 0 .1.1.1.2s0 .2-.1.2c-.2.4-.4.8-.5 1.3-.1.1-.1.1-.2.1-.2.1-.3.1-.5 0-.1-.1-.2-.2-.1-.3l.3-.6zM27.6 56.5c-.2 0-.3 0-.4.1-.2-.1-.4-.1-.5-.3 0-.1-.1-.2-.2-.3 0-.1 0-.1.1-.2s.2-.1.3-.2c.3 0 .5-.2.7-.3.2-.2.5-.3.8-.1.1.2.1.2 0 .4 0 .1-.1.2-.2.3-.1.1-.2.2-.3.2-.1.2-.3.2-.3.4zM59.5 27.4v.5c0 .1-.1.2-.3.2h-.7c-.1-.1-.2-.1-.3-.2 0-.1-.1-.1-.1-.1-.1-.2-.2-.3-.2-.5 0-.1 0-.3.1-.4.1 0 .3-.1.4-.1.4.1.8.3 1.1.6zM51.9 39.1c-.1.1-.2.3-.4.4-.1.1-.2.2-.3.2-.1.1-.2 0-.3-.1-.1-.2.1-.4.2-.5.1-.3.1-.5 0-.8v-.1c-.1-.3 0-.4.3-.5.3-.1.4 0 .5.3 0 .1.1.2.1.3 0 .1-.1.4-.1.8zM43.3 32.3c0-.1.1-.3.2-.4h.3c.1 0 .2.1.2.2s.1.2.1.3c0 .3 0 .5-.1.8 0 .3-.2.6-.4.8-.1.1-.4 0-.5-.1v-.2c.2-.6.1-1 .2-1.4zM42.4 32.4v.4c0 .1.1.1.1.2v.2c-.2.1-.3.3-.4.4-.3.1-.5 0-.7-.2 0-.2.1-.4.1-.6 0-.2 0-.4-.1-.6v-.1c.1-.2.2-.3.4-.3.1 0 .3 0 .3.2.2.1.3.2.3.4zM39.5 55.5c0 .1-.1.2-.1.2l-.8.8c-.2.1-.3.1-.5 0s-.3-.3-.2-.5c.2-.3.3-.5.6-.7l.2-.2c.1-.1.3-.2.4-.2 0 0 .2 0 .2.1 0 .2.1.3.2.5zM28.1 54.1c0 .2-.2.4-.1.6-.1.1-.3.2-.4.3h-.4c-.1.1-.3.1-.4.2h-.1c-.3-.1-.4-.2-.4-.6l.1-.1.6-.3c.1 0 .3-.1.4-.2.2-.1.3-.1.5 0 .1 0 .2.1.2.1zM36.7 52.5l.1.1c.1.2 0 .3 0 .5-.1.1-.2.2-.4.3l-.9.3c-.1 0-.2 0-.2-.1l-.1-.1c-.2-.2-.1-.5.1-.6.1 0 .1-.1.2-.1.3-.1.5-.2.8-.3.1-.1.3-.1.4 0zM19.2 60.9c.5 0 .9.1 1.3.1 0 .1.1.1.1.2v.5c0 .1-.1.1-.1.2-.1.1-.2.1-.4.1-.3-.1-.6-.1-1-.1-.1 0-.2-.1-.3-.2-.1-.2-.1-.4.1-.5.1-.2.2-.2.3-.3zM54.2 24.8c.1.3 0 .5 0 .8 0 .1-.1.1-.2.2-.1 0-.2 0-.3-.1 0 0-.1-.1-.1-.2-.1-.2-.2-.5-.4-.6-.1-.1-.2-.3-.2-.5v-.3c0-.1.2-.2.4-.2.2.1.4.2.6.4.1.2.2.4.2.5zM48.4 49.5c0-.2 0-.3.2-.4.3-.2.6-.5.8-.8.2-.1.3-.1.5 0 0 .1 0 .3.1.4 0 0 0 .1-.1.2-.3.2-.5.5-.7.8l-.1.1c-.1.1-.2.1-.2 0-.2 0-.4-.1-.5-.3zM46.7 26c.1-.2.2-.3.4-.3.2-.1.4 0 .4.2 0 .3.1.5.1.8 0 .2-.1.5-.2.7-.1.2-.3.3-.5.3s-.3-.1-.2-.3c.1-.3 0-.6 0-.8V26zM47.6 39.7l.3-.6c0-.1 0-.2-.1-.3 0-.1-.1-.2-.1-.2 0-.1.1-.3.2-.4.1 0 .3-.1.4 0 .1 0 .2.1.2.2.1.1.1.3.1.4v.5c-.1.2-.2.3-.3.5-.1.1-.2.2-.3.2-.3 0-.4-.1-.4-.3zM37.7 54.1l-.3.3c-.2 0-.5 0-.7.1-.1.1-.3 0-.4 0-.2 0-.3-.1-.3-.3 0-.2 0-.4.2-.5.1-.1.3-.1.4-.1.3 0 .5-.1.8-.2h.1c.1 0 .3.1.3.2v.1c0 .2 0 .2-.1.4zM32.1 44c-.1-.1-.3-.2-.4-.2v-.2c.1-.2.2-.5.3-.7.2-.2.4-.2.6-.3h.4c.1 0 .2 0 .4.1 0 0 .1.1 0 .2s-.1.2-.2.3c-.3.1-.5.4-.6.6-.1.1-.2.1-.5.2zM51.4 25.5c-.2-.2-.4-.4-.5-.6-.1-.1 0-.2.1-.3.2-.1.3-.1.6-.1.1.2.3.4.5.6.2.2.3.5.2.8 0 .1-.1.2-.3.3-.1 0-.3 0-.4-.1 0 0-.1-.1-.1-.2s-.1-.3-.1-.4zM14.7 58.9c-.1-.1-.2-.1-.3-.2-.2-.1-.1-.5.1-.5h1.4l.1.1c.1.1.2.2.2.4s-.1.3-.3.3h-.8s-.2-.1-.4-.1zM44.7 44.3c0-.1-.1-.3-.1-.4.1-.2.2-.3.3-.3h.1c.3 0 .4.1.5.4 0 .2.1.5.1.7 0 .3-.2.5-.5.6-.1 0-.3 0-.4-.1 0 0-.1-.1-.1-.2.1-.2.1-.5.1-.7zM30.1 66.5h-.3c-.2 0-.4-.1-.4-.4 0-.1 0-.2.1-.2l.1-.1.9-.6h.1c.1 0 .2 0 .3.1 0 .2.1.4 0 .7-.1 0-.1.1-.2.1-.1.1-.3.3-.6.4zM39.3 33.5c.1-.2.2-.3.3-.5.1-.1.1-.3.1-.4.1-.2.3-.3.5-.3.2-.1.4 0 .4.3v.3c-.1.3-.2.6-.3.8-.1.1-.2.1-.3.2h-.4c-.1 0-.1 0-.2-.1s-.1-.2-.1-.3zM48.8 45.5c-.2.1-.3.1-.5.1l-.1-.1c.1-.3.3-.6.4-1 0-.1-.1-.2-.1-.3 0-.2.3-.6.6-.5 0 0 .1 0 .1.1s0 .1.1.2c.1.2.1.3 0 .5s-.1.4-.2.5c-.1.2-.2.3-.3.5zM49.4 38.3c.1-.2.2-.3.3-.4.1-.1.3-.1.5.1 0 0 .1.1.1.2v.5c0 .1-.1.2-.1.3-.1.2-.3.3-.3.6 0 .1-.1.1-.2.1h-.3c-.1 0-.2-.1-.3-.1 0-.1.2-.2.2-.3 0-.1.1-.2.2-.4-.1-.3-.1-.5-.1-.6zM28.5 57.7c.1.1.2.1.2.1.1.1.2.1.2.3v.2c0 .1-.1.2-.2.3-.1.1-.2.1-.3.2-.2 0-.3-.1-.4-.1h-.4c-.2-.1-.3-.3-.4-.4 0 0 0-.1.1-.2 0 0 .1-.1.2-.1.1-.1.3-.1.4-.2.1-.1.4-.1.6-.1z"/>
    <path class="st2" d="M27.6 56.5c.2 0 .3 0 .4-.1.1-.1.3 0 .4 0 .1 0 .2.1.3.1.1.1.2.3 0 .4-.3.2-.7.4-1.1.4h-.5c0-.1-.1-.1-.1-.2 0-.3.1-.5.3-.6.2.1.3.1.3 0zM28.8 59.8h-1c-.1 0-.2-.1-.2-.1-.1-.1-.1-.2-.1-.3 0-.2.1-.3.3-.4.3-.1.7 0 1 0 .2.1.3.2.4.3.1.1.1.3 0 .4-.2 0-.3 0-.4.1zM39 57.7c-.1 0-.2-.1-.3-.1-.1 0-.2-.1-.2-.2v-.3c.1-.2.3-.3.4-.4.2-.1.4-.2.5-.4.1 0 .2-.1.3 0 0 .2.1.4.1.5 0 .1-.1.2-.2.3-.1.3-.3.5-.6.6zM31.2 41.3c.2-.1.4-.1.6 0 .1.1.2.1.2.3v.3c0 .1-.1.2-.2.3-.1 0-.1.1-.2.1 0 .1-.1.2-.2.2-.1.2-.2.2-.4.3-.3-.1-.3-.1-.4-.3v-.1c0-.1.1-.2.1-.3.2-.3.3-.6.5-.8zM48.7 32.4c0-.1 0-.2.1-.3 0 0 .1-.1.2-.1.2 0 .4 0 .6.1h.1c.1.3.1.7.2 1.1-.1.2-.2.3-.4.5-.1.1-.2.1-.3 0-.1 0-.1-.1-.2-.2v-.2c.1-.2.1-.4 0-.6-.2-.1-.2-.2-.3-.3zM50.9 26.2l-.2.2c-.2.2-.4.2-.6.1-.1 0-.2-.1-.2-.2 0-.2-.1-.3-.2-.5s-.2-.3-.2-.5c0-.1 0-.2.1-.2s.2-.1.3-.1c.1 0 .3 0 .4.2.1.3.3.5.5.7 0 .1.1.2.1.3zM43.2 29.3l.3-.6c-.1-.2-.1-.4 0-.6 0-.1.1-.1.2-.1s.2-.1.3-.1h.1c.3.1.4.3.2.6-.1.3-.2.5-.4.7-.1.1-.2.3-.2.4-.1.1-.3.1-.4 0 0-.1-.1-.2-.1-.3zM45.1 34.1c-.2 0-.3-.1-.3-.3.2-.4.2-.8.2-1.3 0-.2 0-.3.2-.5.1-.1.3-.1.4 0 .1 0 .2.1.3.3v.3c-.1.4-.2.7-.4 1.1 0 .1-.1.2-.2.3-.1 0-.1 0-.2.1zM16.4 74.7v-.4l-.3-.3c-.1-.1-.2-.1-.3-.2-.1-.2 0-.4.1-.5.1-.1.2-.1.4-.1.2.1.4.3.7.4.2.1.3.3.3.5v.3c0 .2-.2.3-.3.3H16.4zM53 38.5c0-.2-.1-.3-.1-.5 0-.1 0-.3.1-.4.1-.1.1-.1.2-.1h.3c.1 0 .3.2.3.3v.1c-.1.3-.2.7-.3 1.1 0 .1-.1.1-.1.2h-.2c-.2 0-.3-.2-.3-.3v-.3l.1-.1zM16.4 74.7c0 .1.1.2.1.4 0 .1-.1.2-.1.2-.1.1-.2.1-.4.2-.1 0-.2-.1-.4-.1 0-.1 0-.2-.1-.3 0-.1-.2-.1-.2-.2-.1 0-.1-.1-.2-.2s-.1-.4 0-.5c.1-.1.2-.1.4-.1 0 0 .1 0 .2.1.2.1.3.2.5.4.1-.1.1.1.2.1zM49.2 26.2v.4c0 .1-.1.1-.1.1-.1.1-.1.1-.2.1-.1.1-.2.1-.3.1-.1 0-.2-.1-.3-.2v-.4c0-.1-.1-.2-.1-.4v-.1c0-.3.2-.5.5-.4.1 0 .1.1.2.1 0 .1.1.1.1.1.1.3.1.5.2.6zM23.3 60.1c.2-.1.4-.2.7-.2h.5c.1 0 .2.1.2.2.1.1.1.3.1.4 0 .1-.2.3-.3.3-.4 0-.7-.1-1.1-.2-.1 0-.1-.1-.2-.2 0 0 0-.1.1-.3zM24.4 58.3c.2.3.2.5.3.8 0 .1-.1.2-.2.3-.1.1-.3.2-.4.2H24c-.1 0-.1-.1-.2-.1 0-.1.1-.3 0-.4l-.2-.2v-.2c0-.3.2-.5.5-.4 0-.1.2 0 .3 0zM50.3 45.5c-.2 0-.3 0-.3-.1-.1-.1 0-.3 0-.4 0-.2-.1-.4-.1-.6 0-.1 0-.2.1-.3.2-.2.3-.3.6-.1 0 0 .1 0 .1.1.1.3.1.5.1.8 0 .2-.1.3-.2.5-.2 0-.3 0-.3.1zM54.7 30c.2 0 .5.1.6.3-.1.2-.2.4-.4.5-.2.1-.5.2-.7.3-.2 0-.4-.2-.4-.4v-.2c0-.1.1-.2.3-.3.1 0 .3 0 .6-.2zM50.6 37.3c-.1 0-.1.1-.2.1-.2 0-.2-.1-.3-.2 0-.1-.1-.2-.1-.2 0-.1.1-.2.1-.3 0-.1-.1-.3-.1-.4.1-.3.3-.5.6-.5.2.1.3.2.3.4v.7c-.1.1-.2.3-.3.4zM44.2 38.8c-.1-.2-.1-.4-.2-.6 0-.1 0-.2.2-.3.1-.1.3-.1.4-.1.1 0 .2.1.2.2s0 .3.1.4c0 .1.1.2.1.4s-.1.3-.1.4c0 .1-.1.1-.2.1s-.3 0-.4-.1c-.1 0-.1-.1-.1-.2v-.2zM57.9 28.1c0 .1.2.2.2.4s-.2.4-.3.5c-.1.1-.2.1-.4 0l-.3-.3c0-.1-.1-.2-.1-.3 0-.1-.1-.2-.1-.3 0-.2.1-.3.2-.3.1-.1.3-.2.5-.1 0 .1.2.2.3.4zM47.9 32.7c.1.1.1.2.2.3.1.1.2.1.2.3 0 .1 0 .2-.1.2l-.4.4c-.1.1-.3.1-.4 0-.1-.1-.1-.1-.1-.2-.1-.2-.2-.4-.2-.7 0-.2.1-.3.3-.4.2.1.4 0 .5.1zM47.2 53.7c.4-.2.7-.4 1.1-.5 0 0 .1 0 .1.1s.1.3.1.4c0 .2-.2.3-.3.4-.2.1-.3.2-.5.2s-.4-.1-.6-.2V54c0-.1.1-.2.1-.3zM56.6 28.5c.4.3.5.6.5 1-.1.2-.3.1-.5.2h-.2c-.1 0-.2-.1-.2-.1-.1-.2-.3-.4-.4-.6 0-.2.1-.3.2-.4.2-.1.4-.1.6-.1zM47.1 23.9c0 .1-.1.2-.1.3l-.3.3c-.2 0-.3 0-.3-.2s-.2-.3-.2-.5-.1-.3-.1-.5c0-.1.1-.1.1-.2.1-.1.2-.1.4-.1h.2c.2.1.3.3.4.5-.1.1-.1.3-.1.4zM51.9 23.2c0 .3 0 .5-.1.7-.1.1-.1.1-.3.1l-.1-.1c-.1-.1-.1-.2-.2-.2v-.4c0-.1-.1-.2-.1-.3-.1-.3.2-.6.4-.5h.1c.1 0 .1.1.1.2.1.1.2.3.2.5zM31.9 53l.4.4v.1s-.1.1-.2.1c-.3.1-.5.2-.8.3-.2 0-.3-.1-.5-.1-.1 0-.2-.2-.1-.3.1-.2.1-.3.3-.4.2 0 .4-.1.6-.1H31.9zM42.8 56c.3-.1.6 0 .8.1.1.2.1.4-.1.5-.1.1-.3.2-.4.3h-.5c-.2 0-.3-.1-.4-.2-.1-.1-.1-.3.1-.5.2-.1.4-.2.5-.2zM57.1 44.8c.1.1.1.2 0 .4-.1.1-.3.2-.5.3h-.5c-.2-.1-.3-.3-.3-.5 0-.3.2-.4.4-.4h.2c.2 0 .5.1.7.2zM52.7 22.7c0-.1.1-.1.1-.2s.1-.1.2-.1c.2 0 .3 0 .5.1.1.1.1.1.1.2 0 .3.2.5.3.8-.1.2-.3.2-.5.3l-.1-.1c-.1-.2-.1-.3-.3-.4-.1-.1-.2-.2-.2-.3-.1-.2-.1-.2-.1-.3zM48.7 22c.2 0 .2.1.3.3.1.1.1.2.1.3.1.2.1.3.1.5s-.1.2-.1.3c-.1.1-.3.1-.4 0-.1-.3-.3-.5-.5-.7v-.1c0-.1.1-.2.2-.3 0 0 .1 0 .1-.1.1-.1.2-.1.2-.2zM44.8 24.8c-.2-.1-.5-.2-.7-.4-.2-.1-.2-.4-.1-.6.1-.1.2-.2.4-.2h.1c.1 0 .1.1.2.1.5.2.5.3.3 1-.1.1-.1.1-.2.1zM41.3 55.1c0-.2.1-.4.1-.6 0-.1.2-.3.3-.3h.4c.2.1.3.3.3.6 0 .2-.1.4-.3.4-.2.2-.5.1-.8-.1zM56.5 22l.6.3c.1 0 .1.2.1.3-.1.2-.2.2-.3.3h-.5c-.3 0-.5-.5-.3-.7-.1-.1-.1-.2.1-.2h.3zM40.2 41.2c.1.2.1.3 0 .5s-.3.2-.4.4c-.2.1-.3 0-.4 0-.1 0-.2-.1-.3-.2 0-.1 0-.3.1-.4l.1-.1c.1-.1.3-.2.4-.3.2-.1.3-.1.5.1zM46.8 29.5c.1.2.1.3 0 .4l-.3.3h-.2c-.1 0-.2-.1-.3-.1-.2-.1-.3-.3-.1-.6 0 0 0-.1.1-.1.1-.1.2-.1.3-.1.1 0 .3.1.5.2zM60.6 26.8c-.2.1-.4.1-.6 0l-.3-.3v-.1c0-.2 0-.3.2-.3.2-.1.5-.1.7 0 .1 0 .2.2.2.2-.2.2-.2.4-.2.5zM49 8.8c-.2 0-.4 0-.6-.1-.2-.1-.3-.3-.2-.6V8c0-.1-.1-.2-.2-.3v-.3c.1-.2.2-.1.4-.2 0 0 .1 0 .1-.1l.3-.3c.2-.4.5-.7.7-1.1.3-.4.6-.8.9-1.3v-.1c.3-.3.6-.7.9-1 .2-.1.5-.1.7 0 .2.1.3.3.3.5v.1c0 .2 0 .4-.1.6 0 .2 0 .4-.1.6-.1.3-.2.7-.3 1l-.3.9v.2c0 .3-.1.5-.3.7v.3c0 .3-.1.5-.2.7-.1.2-.3.3-.5.3h-.3c-.3-.1-.5-.3-.6-.6 0-.1-.1-.1-.1-.1-.1 0-.1-.1-.2 0-.1 0-.2.1-.3.2.1.1 0 .1 0 .1zm1.1-1.1c.1.2.2.3.2.5 0 .1.1.1.2.1l.1-.1c.1-.5.2-.9.3-1.4.1-.3.1-.5.3-.8 0-.1.1-.1.1-.2 0-.3.2-.6.2-.9v-.3c0-.1 0-.1-.1-.1h-.1c-.3.4-.5.8-.8 1.2-.1.2-.2.3-.3.5-.1.2-.3.3-.4.5-.1.2-.3.3-.4.4-.1.1 0 .2.1.3.2.2.4.2.6.3zM38 14.5c-.4-.1-.7-.3-1-.4-.3-.1-.5-.4-.8-.6l-.1-.1c-.1-.2-.2-.4-.3-.7-.1-.3 0-.5 0-.8v-.2c.1-.2.1-.3.2-.5.1-.5.4-.8.7-1.1l.3-.3h.2c.2 0 .4 0 .6-.1.3.1.5.3.8.4.4.2.6.5.9.7.1.1.1.2.1.3 0 .3.1.5.1.8 0 .2 0 .4-.1.6-.1.2-.1.4-.2.6-.1.3-.3.6-.6.8.3 0 .2.1.1.1-.2.3-.6.4-.9.5zm.8-3.4c-.3-.2-.6-.3-.9-.4h-.3c-.2 0-.4.1-.5.3-.2.3-.4.7-.5 1.1 0 .1-.1.2-.1.3.1.2.1.4.2.6l.4.4c.3 0 .6.1.9.1.2 0 .3 0 .5-.2l.1-.1c.1-.2.2-.4.4-.6v-.7c0-.2 0-.3-.1-.4 0-.1-.1-.2-.1-.4zM43.8 13.6c-.2-.3-.2-.6-.2-.9v-1.3c.1-.3.4-.6.6-.8.3-.2.5-.2.8-.3h1.1c.4 0 .8.2 1.1.5.2.2.3.4.4.6.1.4.1.8 0 1.3-.3.6-.3.6-.9 1.5-.4.3-.8.4-1.3.5-.3 0-.6 0-.9-.2-.1-.1-.2-.3-.3-.5l-.4-.4zm2 .1.3-.3c.1-.1.1-.2.2-.3.3-.5.4-1 .3-1.5 0-.2-.1-.3-.2-.4-.1-.1-.2-.2-.3-.2-.4-.1-.9 0-1.2.3-.1 0-.1.1-.2.2-.1.3-.3.7-.2 1.1 0 .2.1.4.1.5 0 .1 0 .1.1.2s.3.2.5.3c.2 0 .4.1.6.1-.1.1 0 0 0 0zM49.5 12.2c.1-.1.2-.2.2-.3h.7c.1 0 .2.2.2.4-.1.3-.3.4-.4.6-.2.1-.4.1-.5.3h-.4c-.3 0-.6-.1-.8-.4v-.2c.2-.5.3-.5.7-.4.1-.1.2 0 .3 0zM39 9.6c.1-.1.1-.2.2-.3v-.1c0-.1-.1-.1-.2-.2-.1 0-.1-.1-.2-.2 0-.1.1-.2.1-.3.2-.1.3-.2.4-.3.2-.1.3 0 .4 0 .2.1.3.1.4.3 0 .1 0 .2-.1.3 0 .1 0 .2-.1.2.1.1.1.2.2.3 0 .1 0 .1-.1.2.1.2 0 .4-.1.5-.1.1-.3.1-.4 0-.1-.1-.3-.2-.4-.3-.1 0-.1-.1-.1-.1zM48.8 14.4c0 .1.1.2.1.3 0 .2-.1.3-.2.5-.2.1-.3 0-.5.1-.1.1-.2.1-.3.2-.2.1-.4 0-.6-.1 0 0-.1-.1-.1-.2-.1-.1-.1-.2 0-.4 0-.1.1-.2.1-.2.1-.1.2-.1.3-.1h.4c.1 0 .2-.1.3-.1.1-.2.2-.2.5 0zM41.2 8.3c-.1-.1-.1-.2-.2-.3v-.3c.1-.1.2-.2.3-.2h.2c.1 0 .2.1.2.1.1.1.1.2.1.3 0 .1 0 .3-.1.4 0 0 .1.1.1.2s.1.1.1.2v.2c0 .2-.2.3-.4.3s-.5-.1-.6-.3c0 0-.1-.1 0-.2 0-.1.1-.2.1-.2.2-.1.2-.1.2-.2zM44.5 15.8c.1-.1.1-.2.1-.2l.2-.2h.1c.3.1.5.1.7.2.1.1.2.2.2.3v.2c0 .1-.1.2-.2.2h-.9l-.1-.1c-.1-.1-.1-.2-.1-.4zM49.5 11.3v.2c-.1.2-.3.4-.5.5-.3-.1-.5-.2-.7-.5-.1-.2-.1-.3 0-.5.1-.1.1-.2.3-.2.3 0 .6.1.9.5zM33.5 14.4c.1-.3.4-.3.6-.4.1 0 .1 0 .1.1l.3.3c.1.2 0 .3 0 .4 0 .1 0 .2-.1.3-.1.1-.3.2-.5.2s-.3-.1-.3-.3c0-.2 0-.4-.1-.6zM40.5 7.4c0 .2-.1.4-.3.5-.2.1-.5.1-.7-.1-.2-.1-.3-.2-.5-.4 0-.1 0-.1.1-.2l.3-.3c.2-.2.4-.1.6 0l.5.5zM42.6 9.6c-.3-.1-.3-.3-.4-.5l.3-.6c.3-.1.5-.1.8 0 .1 0 .2.1.2.2s0 .2-.1.2l-.5.5c0 .1-.2.1-.3.2zM39.6 13.9c.2-.2.2-.2.4-.3.3 0 .5.2.7.4.1.1.1.3.1.4 0 .1-.1.2-.1.2-.3.3-.7.2-1-.1v-.2c-.1-.2-.1-.3-.1-.4zM47.1 8.8c.1.2.1.3-.1.4-.2 0-.5.1-.7.1l-.1-.1c-.1-.2-.1-.3-.2-.5 0-.1 0-.1.1-.2.1-.2.4-.3.6-.1.1.1.2.1.3.2 0 0 0 .1.1.2zM36.3 16.4c-.1 0-.2.1-.2.1-.2-.1-.4-.2-.5-.3-.1-.2-.1-.3-.1-.5 0-.1.1-.2.1-.2.1 0 .2-.1.3-.1.2 0 .2.1.3.1 0 0 .1.1.1.2.1.2 0 .4 0 .7zM45.6 17.1c.1.1.2.3.2.3 0 .2-.1.4-.2.5-.3.1-.5.1-.7-.1-.1-.1-.1-.2-.1-.3.1-.2.2-.3.4-.4.1-.1.3-.1.4 0zM35.2 17.4c-.3 0-.5 0-.7-.1 0-.1-.1-.2-.1-.3 0-.1 0-.2.1-.3.1-.1.2-.2.3-.2.2 0 .2 0 .3.1.1 0 .2.2.2.3.1.1.1.3-.1.5zM44.4 8.1c-.1.1-.2.2-.2.3h-.1c-.1 0-.2 0-.2-.1-.2 0-.3-.1-.3-.3 0-.1-.1-.1-.1-.2s0-.2.1-.2c.1-.1.2-.1.2-.2.2 0 .4.1.5.1 0 .2.1.4.1.6zM44.2 6.6c.2-.2.3-.1.5-.1l.3.3s.1.1.1.2c0 .3-.2.4-.5.5-.3 0-.4-.1-.4-.4-.1-.2-.1-.4 0-.5zM18.8 46.6c.2-.2.4-.2.6-.4.2-.1.3-.3.5-.4h.2c.1 0 .2.1.3.2v.2c-.1.4-.3.6-.7.8l-.1.1v.1h.6c.1 0 .2.1.2.2v.1c-.2.6-.2.6-.7.8-.1.1-.2.1-.3.1-.1 0-.2 0-.3-.1-.2-.2-.3-.5-.1-.7.1-.1.2-.2.4-.2 0 0 .1 0 .1-.1h-.1c-.2 0-.3-.1-.4-.2-.1-.1-.2-.1-.2-.2-.1 0-.1-.2 0-.3zM14.8 49.6c-.1-.1-.3-.2-.3-.3 0-.4 0-.5.6-.8h.7c.2 0 .3 0 .5.2 0 .3 0 .3-.2.6-.1.1-.2.1-.4.1-.1 0-.3 0-.4.1l-.1.1c.1 0 .2.1.3.1.1 0 .1.1.2.1 0 .1.1.1.1.2.1.2 0 .3-.1.4-.3.2-.5.2-.8.1-.2 0-.3-.2-.4-.4v-.2c0-.1.1-.1.1-.1s.1 0 .2-.2zM20.5 44.9c-.3.6-.9.9-1.4 1.2-.4 0-.4 0-.8-.2v-.1c.1-.3.3-.6.6-.7.3-.1.5-.3.8-.5.1-.1.2-.1.3-.2.1-.1.3 0 .4.1 0 .1 0 .2.1.4zM11.4 49.7h-1c-.1-.1-.2-.1-.3-.2-.1-.1-.1-.2 0-.3.1-.1.2-.1.3-.2.1-.1.2-.1.4-.1.3 0 .6 0 .8-.1h.2c.1 0 .2 0 .2.1.1.1.1.3.1.5 0 0 0 .1-.1.1 0 0-.1.1-.2.1s-.2 0-.4.1zM18.7 51.5c0-.2.1-.4.3-.5.3-.1.6 0 .8.1.1.1.2.1.3.3 0 .1.1.2.1.2 0 .1 0 .2-.1.3-.1.3-.1.3-.3.3h-.3l-.3-.3c-.2 0-.4-.1-.5-.4zM18.9 49.5c0-.1-.1-.1-.1-.2 0-.2.1-.4.3-.5.1 0 .2-.1.2-.1h.6c.2.1.3.3.3.5 0 .1 0 .2-.1.3-.1 0-.1.1-.2.1s-.3 0-.4.1c-.2.1-.4 0-.6-.2zM15.1 47h.2c.1 0 .1 0 .1-.1h.4c.2 0 .3.1.4.1l.3.3c0 .1 0 .2-.1.2-.1.1-.2.2-.3.2h-.6c-.1 0-.2-.1-.3-.1-.2-.1-.2-.2-.2-.3 0-.1.1-.2.1-.3zM12.3 53.4c.3-.1.6 0 .8.2 0 .1.1.1.1.2 0 .2-.1.4-.1.6 0 0-.1.1-.2.1h-.1c-.2 0-.4-.1-.6-.2-.1 0-.1-.1-.2-.2 0-.1 0-.2-.1-.3l.4-.4zM15.5 51.3c0 .1.1.2.1.4-.1.2-.1.5-.4.6-.2 0-.4-.1-.6-.2-.1 0-.2-.1-.2-.2v-.1c.1-.5.1-.5.7-.5.1-.2.2-.2.4 0z"/>
    <path class="st1" d="M20 59.8c-.2.1-.3.1-.4 0 .1-.1.2-.1.4 0zM33 28.3c-.1.1-.2 0-.2 0 .1-.1.2-.1.2 0zM57.2 40v-.4c.1.1.1.2.2.3v.2c-.1-.1-.1-.1-.2-.1z"/>
    <path class="st4" d="M50.1 7.7c-.2-.1-.4-.1-.5-.2-.1 0-.1-.2-.1-.3l.4-.4c.1-.2.3-.3.4-.5.1-.2.2-.3.3-.5.3-.4.5-.8.8-1.2h.1s.1 0 .1.1V5c-.1.3-.2.6-.2.9 0 .1 0 .1-.1.2-.3.2-.3.4-.3.7-.1.5-.2.9-.3 1.4 0 0 0 .1-.1.1s-.2 0-.2-.1c-.1-.1-.2-.3-.3-.5z"/>
    <path class="st1" d="M38.8 11.1c.1.1.1.2.2.3.1.1.1.3.1.4v.7c-.1.2-.3.4-.4.6 0 0 0 .1-.1.1-.1.1-.3.2-.5.2-.3-.1-.6-.1-.9-.1l-.4-.4c-.1-.2-.1-.4-.2-.6 0-.1.1-.2.1-.3.1-.4.3-.7.5-1.1.1-.2.3-.3.5-.3h.3c.2.2.5.3.8.5zm-1.7.8v.1c0 .2 0 .3.1.5l.2.2h.4c.2-.1.3-.2.5-.3v-.7c-.1-.1-.2-.2-.3-.2-.2 0-.4-.1-.5-.1 0 0-.1 0-.1.1-.1.2-.2.3-.3.4zM45.8 13.7h-.2c-.2 0-.4-.1-.6-.1-.2-.1-.3-.2-.5-.3 0-.1-.1-.1-.1-.2 0-.2-.1-.4-.1-.5-.1-.4.1-.7.2-1.1 0-.1.1-.1.2-.2.4-.2.8-.3 1.2-.3.1 0 .3.1.3.2.1.1.2.3.2.4.1.5 0 1-.3 1.5-.1.1-.1.2-.2.3.1.2 0 .2-.1.3zm.4-1.6c-.1-.2-.2-.2-.3-.3-.2 0-.3 0-.5.1s-.3.2-.4.4c-.1.2 0 .7.3.8h.1c.2 0 .4-.1.6-.2.1-.1.1-.2.2-.3-.1-.1-.1-.3 0-.5z"/>
    <path class="st2" d="M37.1 11.9c.1-.1.2-.3.2-.4l.1-.1c.2-.1.4 0 .5.1.1 0 .2.1.3.2v.7c-.1.1-.3.2-.5.3h-.4l-.2-.2c-.1-.1-.2-.3-.1-.5.1 0 .1 0 .1-.1zM46.2 12.1c0 .2-.1.4-.1.6-.1.1-.1.2-.2.3-.2.1-.4.2-.6.2h-.1c-.3-.1-.4-.6-.3-.8.1-.2.3-.3.4-.4.1-.1.3-.1.5-.1s.3.1.4.2z"/>
</svg>
