<svg xmlns="http://www.w3.org/2000/svg" width="262.9" height="238.8" style="overflow:visible;enable-background:new 0 0 262.9 238.8" xml:space="preserve">
    <style>
        .st0{fill:#e7cfb0}.st1{fill:#7a6a56}.st2{fill:#fff}.st3{fill:#e7d9e0}
    </style>
    <path class="st0" d="M259.2 184.6c-.5.8-1 1.7-1.5 2.4s-.8 1.3-.9 2.1c-.1.5-.2 1-.7 1.4-.7-.7-.8-1.9-1.6-2.6-.8-.6-1.7-.1-2.6-.2-.3-.3-.6-.6-.8-1-.6-.3-1.3-.3-1.8 0-.8.4-1.7.5-2.5.5-.2 0-.3.1-.5.1-.4.1-.6.7-1.1.7-.2-.1-.3-.1-.5-.2-.7-.4-1.3-.3-2 .1-.4.3-.8.7-1.4.8-.9 0-1.9 0-2.8.1-.3 0-.7.1-1 .2-.6.3-1 .7-1.4 1.2 0 .1-.1.2-.1.3.1.8.5 1.4 1.3 1.8.5.1 1 .2 1.5.2l.2.2c.2.3.3.6.5.9.3.5.6.6 1.1.5.8-.2 1.5-.4 2.2-.6l1.5.6c.3.1.7.1 1 .2l.9-.6c.4-.3.7-.6 1.1-.8.2-.1.5-.1.8-.1.1.2.3.5.4.7.1.2.3.4.5.6.2.1.5.2.7.2 1 .1 1.5-.2 1.9-1 .2-.4.3-.8.4-1.2-.1-.3-.2-.7-.2-1-.1-.4 0-.5.6-.6 0 .1.1.1.1.2.1.7.2 1.4.3 2 .1.2.2.3.4.4.6.5 1.2.9 1.9 1.4-.4 1.3-1.1 2.4-1.9 3.4-.8 1.1-1.3 2.2-1.6 3.5-.3 1.2-.5 2.4-.5 3.6 0 .4-.1.9-.1 1.2-.5.9-1.1 1.4-1.8 2-.8.6-1.3 1.4-2 2.1-.6 1.4-1.9 2.3-2.5 3.5-1.4 1-2.9 1.5-4.4 1.9-.9.2-1.8.5-2.7 1-1.7 1-3.6 1.6-5.5 2.3-.3-.1-.5-.4-.4-.6.4-.7.8-1.3.7-2.2-.4-.6-.9-.7-1.3-.5-.4.3-1 .5-1.3.9-.4.6-1 .9-1.6 1.3-.3.2-.5.4-.7.6-.2.6-.3 1.1-.5 1.6-1.4.8-1.4.9-2.5 1-.9 0-1.7.2-2.5.6-1.3.5-2.4 1.4-3.7 1.8-.3.1-.6.3-.9.5-.2.1-.3.2-.4.3-1.3 1.1-2.9 1.8-4.5 2.6-.7.3-1.5.5-2.3.4-.4-.2-.8-.4-1.1-.5-.9-.1-1.6 0-2.3.5-.2.1-.6-.1-.6-.3-.1-.2-.1-.5-.2-.8-.1-.2-.3-.4-.6-.4h-.5c-.9.3-1.8.6-2.8.6-.5 0-1 .3-1.5.5s-.8.7-.8 1.2v.5c0 .3-.1.5-.5.7-5.7.1-11.4 0-17.1-.1-.2 0-.3-.1-.5-.2-.1-.4.1-.7.2-1 .2-.6.1-1.2-.6-1.5-.3-.2-.6-.3-.9-.5-.1-.1-.2-.3-.2-.4 0-.7.6-1.2.7-1.8.1-1.1-1-.9-1.3-1.5v-.7c.1-1.2-.4-1.8-1.6-2-.4-.1-.9-.2-1.3-.3-.4-.1-.8.3-1.2-.1.1-.7.6-1.2.6-2-.1-.2-.3-.4-.5-.6-.8-.1-1.7-.3-2.3-.4-1.8-.9-3.3-1.6-4.9-2.4-1-.5-2-.7-2.9.2-.1.1-.3.1-.5.2-.7-.2-1.4-.6-2.2-.7-.2 0-.3 0-.5.1-.6.4-.7.9-.6 1.7.3.3.6.8.9 1.2-.2.5-.3.5-.5.4-.2-.1-.3-.1-.5-.2-.9-.7-1.8-1.3-2.6-2.2-.4-.5-.9-.9-1.3-1.3-.7-.6-1.4-.6-2.2-.2-.5.3-.9.7-.6 1.5.1.2.1.5.2.7-.3.2-.5.4-.7.4-1 .2-2.1.2-3.1.6-.2.1-.3.1-.5.1-1.7 0-3.5.2-5.2-.4-1.1-.4-2.4-.6-3.5-.9-.7-.2-1.4-.2-2.1-.1-1.1.3-2.2.4-3.3.9-.7.3-1.5.5-2.2.7-.7.2-1.4.6-2.2.7-.6-.1-1.1-.3-1.6-.4-.5-.1-1-.2-1.4-.2-1-.6-1.9-1.2-2.7-1.7-.7-2.1-.7-2.1-.7-5.4.5-1.7 1.7-2.8 2.8-4 .2-.1.3-.1.5-.2 1.6-.9 3.4-1.4 5.2-1.4.3 0 .7-.1 1-.2.8-.3 1.7 0 2.6-.3.4-.2.9 0 1.3-.1h1.8c.8-.5 1.7-.6 2.2-1.2.3-.6.6-1.2.8-1.8.2-.6.6-1.1.4-1.7-.2-.6-.7-.8-1.2-.9-.4-.1-.9.1-1.2.3-.3.2-.6.4-.8.6-.4.5-1 .7-1.6 1-2.5.1-5.1.1-7.7.6-.4.1-.8.1-1.2.4-.4.2-.8.3-1.2.5-.3.1-.7.1-1.1-.1-.5-.8-1.1-1.8-1.6-2.7-.8-.8-1.8-.3-2.5-.6-.1-.1-.3-.3-.3-.4-.2-1.2-.7-2.3-.4-3.6-.3-.5-.5-.9-.8-1.4-.1-.1-.2-.2-.4-.3-.5-.1-.9 0-1.2.2-.5.3-.7 1-1.4 1.1-.4-.7.1-1.6-.7-2.2-.5-.1-1-.2-1.4-.5-.8-.4-1.6-.7-2.4-.9-.5-.1-1-.3-1.2-.8.1-.1.2-.3.3-.4 1.2-.6 2.1-1.5 3-2.5 1.5-1.7 3.1-3.3 4.8-4.8 1.8-1.6 3-3.6 3.5-6 .1-.3.1-.5.1-.7-.1-.8-.2-1.4-.3-2.1-.2-.2-.3-.5-.5-.6-.7-.6-1.3-.6-2.1.1-.4.9-.4 1.9-.5 2.8-.1 1-.4 1.9-1 2.6-.5.5-.9 1-1.2 1.7-.2.4-.5.7-.9.9-1.4.9-2.5 2.1-3.6 3.4-.9 1.1-1.9 2-3.1 2.8-1 .7-2 1.5-2.8 2.4-1.3 1.4-2.7 2.7-4.1 4-1.6 1.5-3.1 3-4.9 4.4-.9.7-1.8 1.4-2.6 2.2-.4.4-1.1.6-1.5 1-1 1.1-2.1 2-3.2 3-.8.8-1.6 1.6-2.5 2.3-.9.8-1.7 1.7-2.9 2.2-.2.1-.3.2-.4.3-1.1 1.3-2.6 2-4.1 2.8h-3.3c-.6 0-1.1-.7-1-1.3.1-.3.2-.7.4-.9.4-.5.9-.8 1.3-1.3.6-.8 1.2-1.7 1.7-2.6.5-.8.5-1.6 0-2.5-.3-.1-.5-.2-.7-.3-.3-.1-.6-.3-1-.4-.6.2-1.2.4-1.7.7-.3.4-.7.8-1 1.2-.6.9-1.1 1.8-1.7 2.6-.1.2-.3.4-.6.5-.1.1-.4 0-.5 0-.4-.3-.5-.9-.3-1.2.4-.8.9-1.5 1.5-2.1.2-.3.5-.5.5-.9 0-.7-.3-1.3-.8-1.8-.5-.2-.9-.6-1.5-.5-1 .4-1.6 1.3-2.2 1.8-.4.6-.4 1.1-.9 1.5-.6.3-1.2.6-1.9.9-.4.2-.8.3-1.3.3-.8.1-1.6-.1-2.1-.8-.2-.3-.5-.5-.7-.8-.2-.7-.4-1.5-.6-2.3.4-.4.6-.9 1.1-1.2.5-.4 1-.7 1.4-1.1.7-.7 1.5-1.1 2.5-1.4 1-.3 2-.6 2.9-1 1.2-.6 2.3-1.2 3.4-1.9 1.6-1 3-2.2 3.4-4 1.1-1.3 2.3-2.5 3.1-4 .3-.5.7-1 1.2-1.4 1.5-1.3 2.7-2.9 4.5-3.9.1 0 .1-.1.2-.2 1.1-1.1 2.3-2.2 3.3-3.3 1.2-1.3 2.5-2.4 4-3.3.2-.1.4-.3.6-.4.2-1.6.2-2.4-.1-3-.4-.1-.8-.5-1.5-.4-.3.1-.6.3-1 .5-.6.9-1.6 1.3-2.2 2.2-.5.6-1.1 1.1-1.7 1.6-.6.5-1.2 1-1.7 1.6-.1.1-.2.1-.2.1h-.3c-.8-.5-1.2-1.2-1.1-2.2 0-.5.1-1 .4-1.5.2-.4.3-.8.2-1.3-.1-.4-.3-.8-.7-1.1-.4-.2-.9-.1-1.3-.1s-.9 0-1.4-.3c-1.9-1.6-3.7-3.7-6.2-4.8-1 .1-2 .3-2.6 1.2-1.2-.3-1.2-1.6-2.3-2.4-.5-.6-1.6-.2-2.5-.7-.7-1.2-1.1-2.7-2.7-3.2-.6.1-1 .3-1.3.8-.2.5 0 1.1-.6 1.4-.2-.1-.5-.2-.6-.4-1.5-1.7-2.3-3.7-3.2-5.7-.1-.2-.1-.3-.1-.5-.1-.5-.1-1-.1-1.6-.1-.5-.5-1-.3-1.5.3-.5.6-1 .9-1.6-.1-.4-.2-.7-.3-1-.2-.9-1.2-1.3-1.4-2.2 0-.1-.2-.3-.3-.4-.1-.1-.3-.2-.5-.3h-.8c-.7.1-1.1.4-1.3 1.3.4 1.2.8 2.5 1.2 3.8-.5.5-1.2.7-1.4 1.5 0 .2-.5.3-.7.2-.4-.3-.9-.6-1.2-1-1.4-2-2.6-4.1-2.8-6.6-.1-.9-.4-1.7-.8-2.3-.4-.3-.7-.4-1.1-.2-.5.2-.8.7-1.4.7-1.5-1.1-2.3-2.1-3.5-4.5 0-.4-.1-1-.1-1.5-.1-.5-.2-1-.3-1.6.2-1.6.9-3.2.3-4.8-.3-.2-.6-.5-1-.4-1.3.5-1.9 1.4-2.1 2.7 0 .4-.1.9-.1 1.3v1c0 .1-.2.3-.3.4-.1.1-.5 0-.7-.3-.2-.3-.3-.6-.5-.9-.9-2.1-1.4-4.3-1.9-6.5-.1-.7-.2-1.4-.1-2.1.3-.7.5-1.4.8-2.1-.3-.8-.9-1.1-1.6-1-.7.2-1.1.9-1.9.9-.5-.1-.7-.5-.9-.9-.2-.5-.3-1-.3-1.5v-2.9c0-1 .1-1.9.4-2.8.1-.4.2-.8.3-1.3.1-.4-.1-.7-.4-1l-.9-.3c-.6.1-1.1.2-1.6.3-.4.1-.7-.1-.9-.4-.1-.4-.1-.9.1-1.3.4-.9.9-1.7 1.3-2.5s.9-1.5 1.3-2.3c.3-.6.5-1.3.5-2 0-.3-.3-.7-.6-.8-.3-.1-.7-.2-1-.2-.1-.2-.3-.4-.4-.6.3-.9.8-1.8 1.4-2.5.2-.2.3-.4.4-.7.2-.3.1-1-.1-1.2l-.9-.9c-.3-.3-.8-.4-1-1-.1-.3 0-.8.2-1.1.2-.4.5-.7.7-1.1.7-.9.9-1.9.6-3-.5-.8-1-1.6-1.6-2.4.1 0 .1-.1.2-.1 1.2-.1 2.1.2 3 .6.9.4 1.8.5 2.7.5.8 0 1.5-.1 2.2-.3.7-.3 1.5-.2 2.3-.1.4.1.9.2 1.1.5.8.9 1.9 1.5 2.9 2.1.1.1.3.1.6.3.4 0 1 .1 1.5.1.4-.3.7-.5 1.1-.8.7.7 1.5 1.4 2.1 2 1.6.7 3 1.3 4.2 1.8 1.7.1 3.2.2 4.9.4.5-.1 1.2-.2 1.9-.4.3-.1.7-.1.9-.3.7-.6 1.6-.6 2.3-1.1.7-.5 1.4-.9 2.2-1.4.6-.8 1.3-1.6 1.9-2.3.2-.2.4-.2.7-.4.6.3 1.2.5 2.1.3.2-.2.5-.4.9-.7.3-.2.5-.5.8-.6.9-.3 1.7-.7 2.6-1.1.3-.1.7-.1 1-.1.3 0 .6.2.9.4.6.2 1.1.1 1.7-.1.8-.2 1.1-1.1 2-1.4.9.1 1.9.2 2.9 0 1.4-.3 2.7 0 4 .1.5.1 1 .3 1.5.4 3.6.7 7 1.8 10.4 3.1.6.2 1.2.5 1.8.9.9.6 1.8 1.2 2.8 1.8.6.4 1.3.5 1.9-.1.3-.6.2-1.2 0-1.7-.1-.4-.4-.8-.8-1l-4.5-2.4c-1.7-.5-3.3-1.3-5-1.9-.2-.1-.5-.2-.7-.2-1.2-.1-2.3-.6-3.4-1-.9-.3-1.7-.6-2.7-.7-.8 0-1.5-.4-2.2-.7.3-.4.7-.3 1.1-.4.5-.1 1-.4 1.2-.8.6-1.1 1.4-2.1 1.7-3.4.1-.3.2-.7.3-1 .1-.1.2-.2.5-.4.7.2 1.3.4 1.8.4 2.3-.1 4.4 1 6.7 1.2.2 0 .3.1.5.2 1.3.5 2.6.6 4 .1.1 0 .2-.2.3-.4 0-.5-.3-1-.6-1.4-.6-.3-1.3-.7-2-1.1-.4-.1-.9 0-1.2-.2-1.1-.5-2.3-.6-3.4-.6-.5-.3-1.1-.3-1.4-.7.3-.9.7-1.8.7-2.8l-.9-3c-.1-.4.1-.7.4-.8h3.1c.5 0 1 0 1.5.1 2.2.5 4.5.7 6.7 1 .2 0 .3.1.5.2.5.6.9 1.4 1.9 1.7.6-.2 1.3-.5 2-.7.1-.1.3-.2.4-.4l.3-.9c.3-1 0-1.5-.9-1.9-.2-.1-.5-.2-.7-.2-1.7-.1-3.3-.6-5-.5-.2 0-.5 0-.8-.1-1.2-.3-2.5-.4-3.8-.5-.3 0-.6-.2-.9-.3-.5-.7-.9-1.4-1.3-2-.2-.3-.1-.7 0-1 .2-.4.4-.8.9-.9.6-.1 1.1-.5 1.5-1.2 0-.2 0-.4.1-.6.1.5.2.9.4 1.4 0 .1.2.3.4.5.7.1 1.5.2 1.8.2 1.4.4 2 1.3 2.6 1.9.3.2.6.3.9.5.7.2 1.3.4 2 .6.7-.3 1.2-.7 1.9-.9.8-.2 1.5.2 2 .2 1.3-.1 2.4-.2 3.4-.3.4 0 .7.1 1 .6 0 .3 0 .7.1 1.2.1.6.4 1.1.9 1.5.5.3 1.1.5 1.9.3.9-.6 2-1.1 3.2-1.5.4 0 .9 0 1.3.1.7.3 1.5.4 2.3.4.5 0 1 .1 1.5.3.4.2.9.1 1.3 0 .3-.1.7-.2.9-.4.6 0 1.2.1 1.8.1.6 0 1.2-.1 1.8 0 .7.1 1.4.2 2 .3 1.9-.5 3.5-1.4 4.9-2 .8-.6 1.4-1.2 2-1.6.6-.4 1.3-.4 2 0 .4.3.9.6 1.2.9.5.5 1.1.9 1.7 1.2.7.1 1.5.2 2.4 0 .3-.2.7-.4 1-.6.5-.3 1-.7 1.5-1 1-.8 2.2-1.4 3.4-1.8h3.4c.9 0 1.7-.1 2.6-.4 1.9-.5 3.8-1.2 5.8-1.5 1.2-.5 2.4-.3 3.5.3.1 0 .2 0 .2.1.8 0 1.6-.1 2.4-.1.5 0 1-.1 1.5-.3 1.2-.3 2.3-.6 3.5-1.2.7-.3 1.4-.3 2 .1.8.4 1.6.7 2.4.9 1.1.4 2.2.5 3.3.4 1.1-.1 2.3 0 3.2.1 1.1.3 1.8 1 2.2 1.9l.6 1.5c.3.9.4 1.9.4 2.8 0 .5.1 1 .4 1.4.9.7 1.8.8 2.8.6.5-.1 1-.2 1.5-.5 1.3-.6 2.7-.7 4.2-.3 2 1.2 3.8 2.9 6.2 3.6.6 1.1.1 2 .3 2.8.1.2.2.4.3.5 1.2 2.1 1.9 2.1 3.8 1.6.2 0 .3-.1.5-.2 1.1-.3 2.2-.4 3.1-.1 1.4.5 2.3 1.3 3.1 2.3 1 1.3 2.2 2.4 3.6 3.4.6.5 1.3.9 1.7 1.7.1.5.1 1.1.2 1.6.5.7.9 1.2 1.3 1.8.4.7.9 1.2 1.4 1.9.9.5 1.8 1.1 2.3 2.1.2 1 .3 2 .1 3.1-.1.8 0 1.6.4 2.3 2.7 1.7 2.7 1.7 4.2 4.5 0 .2.1.5.1.7 0 .7.2 1.4.6 2 .2.4.5.7.8 1 .8.7 1.4 1.6 1.7 2.6.1.2.2.5.3.7.7.4 1.3.8 2 1.3.4.3.8.7 1 1.2.1.2.1.5.2.7-.3.1-.5.2-.8.2h-1.8c-.6 0-.9.4-1.2 1v.7c0 .7.3 1.2 1 1.4.4.2.8.4 1.2.5.5.1 1 .2 1.6.2-.2.4-.4.8-.5 1.2-.2.6 0 1.2.4 1.7.4.4.8.6 1.2 1 .4.4.7 1 1.1 1.5.4.1.9.2 1.3.3.2.1.4.4.3.6-.1.2-.3.4-.5.6-.4-.2-.7-.6-1.2-.5-.5.2-.9.4-1.3.6-.5.5-.6 1-.7 1.6.4.5.8 1 1.2 1.6.6.2 1.1.4 1.7.6.6.2 1.1.5 1.6 1.1-.1 1.1-.1 2.3-.3 3.5 0 .1-.2.3-.3.4h-1c-.4.1-.8.3-1.1.7-.2.6-.5 1.1-.3 1.7.3.6 1 .8 1 1.5-.4.4-.8.9-1.2 1.3-.3.4-.3 1 0 1.5.2.3.4.5.7.7.1 0 .1.1.2.1.1.4.3.7.4 1.1-.2 0-.5.1-.7.2-.1 0-.1.1-.2.2-.1.7-.3 1.3-.1 2.2.2.2.4.6.7.9.3.3.7.5.8 1-.1.4-.2.8-.3 1.3.5 1.2 1 2.4 1.3 3.7.2 1.2.3 2.4-.3 3.6-.2.5 0 1.1.4 1.4.8.5 1.7 1 2.4 1.4.5.9.8 1.7.6 2.7-.2.4-.5.9-.8 1.5-.3.5-.6 1-.9 1.6-.3.5-.3 1-.1 1.5 0 .2.1.3.2.5.7 1.4.9 3 .9 4.6v1.7c.2.7.5 1.2.6 1.7.7.7 1.3 1.3 1.7 1.8.3.6.2 1.1.5 1.4l1.5.9c.7 1.3.7 1.3.7 2s-.1 1.4-.1 2.1c0 .2.1.3.2.6.3.5 1.2.6 1.5 1.2.6 1.1.3 1.7 0 2.2z"/>
    <path class="st1" d="M69.4 90.7c1.5.6 3.1 1 4.4 2.1.3.2.6.3 1 .4 1.3.5 2.3 1.3 2.9 2.6.2 1.1.4 2.3.5 3.3 0 1.4-.9 2.2-1.5 3.1-.6 1.1-1.4 2-2.7 2.7-.1 0-.3.1-.6.2-3.1 1-3.1 1-6.4 1-.3 0-.7 0-1-.1-.1 0-.2 0-.3-.1-2-.9-3.3-2.5-4.8-4.1-.4-1-.9-2-1.3-3-.1-1 .1-1.9.5-2.9.8-1 1.8-2 2.9-2.9.6-.6 1.4-1.1 2.2-1.4.7-.3 1.4-.6 2.2-.6.7-.1 1.3-.2 2-.3zm-1.2 11c-.6-.2-1-.7-1.2-1.3-.2-.6 0-1.2.2-1.8.6-1.3 1.3-2.5 2.5-3.3.2-.1.4-.3.6-.5.1-.1.1-.3.2-.4-1.1-.9-2.4-.8-3.7-1.2-.4.4-.7.8-1 1.2-.6.3-1.2.7-1.7.9-1.4 1.9-1.4 1.9-1.2 3.7.9 1.5 1.8 2.9 3.3 4 .7.2 1.3.3 1.9.5.8-.1 1.5-.3 2.2-.3 1 0 1.9-.3 2.7-.8.2-.4.5-.9.8-1.3l.9-1.2c.1-.8-.4-1.4-.1-2.1.1-.2-.4-.4-.6-.4-.9.3-1.8.7-2.7 1.4-.4.6-.9 1.4-1.5 2.2-.4.3-.9.7-1.6.7zM77.1 119.8c.9.1 1.1.6 1.6.9.2-.2.4-.3.5-.5.2-.4.4-.8.7-1.1.4-.5 1.2-.5 1.6 0 .3.4.6.9.7 1.4v.3l.3 1.2-.6 1.5v1.2c-2.1.8-2.1.8-3.6 2.2-.2.1-.4.2-.7.3-.6.1-1 .4-1.1 1-.3 1.2-.9 2.1-1.7 2.8-.8.4-1.8.2-2.5 1.1-.3.5-.1 1.3-.4 2.1-.3.4-.8 1-1.4 1.7-.6.1-1.3.3-2 .4-.2.6-.5 1.1-.7 1.7-.5.6-1.2.7-1.7 1-.6-.1-1.1-.3-1.6-.8-.2-.6-.3-1.2-.5-1.9.3-.6.7-1.2.7-2 0-.5.3-1 .6-1.4.4-.6 1.3-.8 1.9-.4.4.2.7.5 1.1.8.2-.2.4-.3.5-.5.2-.5.1-1-.1-1.5-.3-.6-.3-1.2 0-1.8.3-.7.8-1.1 1.5-1.3.7 0 1.1.5 1.6.9.2-.1.5-.1.6-.3.6-.5.8-1.1.6-1.9 0-.2-.1-.3-.2-.5-.5-.9-.2-1.7.3-2.4.3-.5.8-.7 1.3-.6l1.2.3c.4-.4 0-.8 0-1.2v-1.2c.1-.2.1-.4.3-.5.6-.3.9-.6 1.2-1zM143.3 153.8c-.1.1-.3.2-.4.3-.8.2-1.5 0-2-.7-.3.2-.5.3-.5.4-.2.6-.3 1.2-.5 1.9-.4.4-.8 1-1.2 1.4-.6.3-1.2.4-1.8.2-.1 0-.2-.3-.2-.4 0-.3 0-.5.1-.8.4-.9.5-1.8.4-2.8v-2.8c.1-.2.2-.4.2-.6.5-.9 1.3-1.2 2.2-.9.3.1.5.1.8.2.2-.1.4-.1.5-.2.5-.5.6-.9.3-1.4-.2-.4-.5-.7-.6-1-.1-.5 0-.8.2-1.1.3-.6.8-.9 1.5-.7.2 0 .3.1.5.1s.3 0 .5.1c.5-1.4 1.1-2.7.7-4.4-.3-.4-.6-.9-.9-1.3-.1-.6.1-.9.4-1.3.6-.8 1.2-.9 2-.4.2.1.4.3.6.4.6.1.9-.4 1.5-.6.7-.2 1.6-.2 2.5-.1.4 0 .7.6.5 1-.1.3-.3.6-.5.9-.4.4-.8.7-1.2 1.1 0 .4.1.9.1 1.3s0 .9-.1 1.3c0 .2-.2.4-.4.7-.5 0-1 .1-1.5.1-.3.2-.4.6-.5.9-.3.9-.9 1.4-1.9 1.4-.1 0-.3.1-.4.2l.3 1.8c.1.5.3 1 .5 1.4-1.4 2.4-1.4 2.4-1.7 4.4zM229.6 197.6v1.6c-.5.8-.9 1.5-1.3 2.1-.5.4-.9.5-1.3.6-.3.1-.7.1-1 .4-1 .8-2.1 1.1-3.4 1.2-.6.7-.7 1.6-1 2.2-.5.5-.9.8-1.4.9-.8.2-1.5.4-2.1.5-.4.4-.7.6-1 .9l-1.2.4c-.2.3-.6.8-.9 1.1-2.4.9-4.8 1.1-7.2.7-.7-.4-1.4-.8-2.2-1.2-.5-.3-.6-1.2-.2-1.6.6-.6 1.3-.9 2.1-.7.8.3 1.6.6 2.5.8l1.8-.3c.5-.1 1-.1 1.6-.2.2-.2.3-.4.4-.7.1-.1.1-.3.1-.5-.1-1.5.5-1.7 1.8-1.9 1.1-.1 2.2-.3 3.4-.5.7-.3 1.3-.8 1.9-1.3.1-.2.2-.5.2-.7.2-1 .8-1.5 1.8-1.6 1-.1 2.1-.3 3.1-.6l2.1-1.5c.5 0 .9 0 1.4.1v-.2zM240.6 203.9c.6-.5 1.1-1.1 1.9-1.4.6-.2 1.2-.2 1.7.4 0 .5.1 1 .1 1.5 0 .2.2.3.4.2.2-.1.4-.3.6-.5.3-.4.6-.9.9-1.2.2-.3.6-.4 1-.3.3 0 .8.5.9.9.2.5.1 1-.1 1.5s-.4 1-.6 1.4c-.5 1-.9 1.6-2.6 1-.4-.4-.8-.8-1.2-1.3-1 1.1-1.7 2.5-3.3 3-.3 0-.6-.1-.9-.3-.4-.3-.8-.7-1.1-1-.1-.5-.2-.9-.3-1.3-.6.1-1.2.1-1.8.2-.6-.3-1.2-.7-1.8-1h-1.3c-.4 0-.6-.2-.9-.5-.3-.3-.5-.7-.3-1.2s.4-.9.6-1.5c.7-.3 1.4-.7 2.1-1 .3-.7.7-1.4 1.1-2 .3-.6 1-.9 1.8-.7.4.1.6.4.7.7.1.3.1.7.1 1.1.2.1.4.3.6.3.3.1.7 0 1.2.4-.1-.2 0-.1 0 0-.1.9.5 1.7.5 2.6-.5.2-.9.5-1 1.1-.3 0-.6 0-.9.3 0 .1-.1.2-.1.2 0 .2.2.3.3.1.2-.2.5-.4.6-.7 1 .1 1.1 0 1.1-1zM229.7 197.7c-.5-.8-.7-1.8-1.1-2.6-.3-.4-.7-.7-1-1.2 0-.3-.1-.5 0-.8.1-.3.2-.7.4-.9.9-.8 1.4-2 2.1-2.9.1-1.1.3-2.1 0-3.1.6-1.2 1.2-2.2 2.3-2.9 0-.6-.8-.9-.3-1.8.4-.4.4-.4 2.1-.9.5 0 1 .3 1.4.5.1.1.2.3.3.4.1.2.1.5.1.7-.2.7-.6 1.1-1 1.6-.4.2-.7.4-1 .5v1.9c0 .9-.1 1.7-.3 2.6-.2.7-.2 1.4-.3 2.1-.3.4-.6 1-1 1.5l-.9 1.2c.2.4.4.6.8.7.5.2 1 .1 1.5-.1.4-.2.7-.4 1.1-.6h1.3c.1.2.4.5.4.7 0 .7 0 1.4-.2 2-.1.2-.2.3-.3.4-.4.3-.9.5-1.2.7-1.8.2-3.4.2-5.1.2l-.1.1zM61.4 135.6c.6.2 1.1.3 1.6.5.4.3.4.8.2 1.2-.2.7-.5 1.5-.8 2.2-.5.7-1.2.6-1.8.6-.9-.3-1.6-.9-2.3-1.4-1-.1-2-.6-3-.6-.2 0-.5-.1-.7-.2-.7-.5-1.6-.7-2.4-.8-.6-.1-1.1-.5-1.4-1.1-.1-1.1-.1-2.1-.2-3.1v-1c0-.4.2-.8.6-1.1.3-.2.4-.3 1.3-.3.4.3.8.5 1.3.8.2 0 .5.1.7.1h1.9c.8.2 1.1 1 2 1.4.3.1.7.2 1.1.3.8.5 1.3 1.5 1.9 2.5zM180.3 113.1c.2.2.3.4.5.6-.1.4-.3.7-.6.8-.4.2-.8.4-1.2.4-1.6.1-3 .7-4.5.7-.7.3-1.3.6-1.7 1-.2.2-.3.5 0 .9.1.2.3.4.4.7.1.2 0 .6-.2.7-.3.2-.6.4-.9.5-2.2.7-4.4 1.6-6.6 2.4-1.5.5-2.9 1.2-3.9 2.4-1.6-.6-1.6-.6-1.8-1.5.7-1.4 1.9-2.3 3.2-3.2.9-.1 1.8-.8 2.9-.7 1.4-.5 2.8-.9 4-1.8.1-.1.2-.3.3-.5.2-.9-.4-2 .3-3 1.6-.2 3.2-.4 4.9-.6.8-.1 1.5-.5 2.3-.4.7.1 1.4.3 2 .4.1.1.4.1.6.2zM137.9 112.4c.5-.2 1-.5 1.5-.7.7-.3 1.3-.2 1.9.1.1.2.2.2.2.3 0 .7-.1 1.4-.1 2.1-.2.3-.5.7-.7 1.1-.1.2-.1.5.2.7.2-.1.5-.1.7-.2.6-.1 1.3.3 1.4.8.3 1 .1 1.9-.6 2.6-.1.1-.2.3-.4.3-.3.2-.6.4-.9.5-.8.3-1.6.5-2.5.8-.2.1-.5 0-.7 0-.7-.3-1-.8-1.4-1.3-.3-.4-.3-1.1 0-1.4.3-.4.7-.7 1.1-1.1.1-.3-.1-.5-.3-.6-.8-.3-1.5-.8-2.4-1-.5-.1-1-.3-1.5-.5-.7-.2-1-1-.9-1.7.1-.6.8-1.3 1.4-1.4h1c1.2.2 2.1.4 3 .6zM224.6 214.7c.9.2 1.6.2 2.3 0 .2-.1.5-.1.8-.2.2 0 .7.4.7.6v1.6c-1 .7-2 1.4-3.2 1.6h-.3c-2-.4-1.7-.5-2.2-2-.3-.4-.8-.6-1.3-.8-.7-.3-1.1-.8-1.2-1.6 0-.3-.1-.5-.2-.7.3-.8 1.2-.7 1.7-1.1.1-.3-.1-.5-.4-.5-.3 0-.5.1-.8.1-.3-.2-.7-.3-1.1-.5-.7-.4-1-1.6-.5-2.3.1-.2.4-.4.6-.5.6-.3 1.3-.5 2-.3.5.2 1-.1 1.5-.1.2.1.3.1.5.2.5.2 1 .5 1 1.1.1.8-.2 1.6-.9 2-.3.2-.6.2-.9.4-.2.1-.1.3 0 .4 1.6-.3 1.6-.3 3.1-1.1.7 0 1.1.4 1.2 1.1.1.7-.1 1.2-.6 1.6-.6.2-1.1.5-1.8 1zM139.5 178.4c-.2.4-.5.7-.9.8-.3.1-.7.1-1-.1-.4-.3-.8-.7-1-1.4-.1-1.7 0-3.5 0-5.4-.1-.3-.3-.6-.4-.9-.2-.7-.3-1.4-.2-2.1.2-1.1.5-2.2 1-3.2.5-.9.9-1.9 1.5-3.2.2-.3.9-.6 1.5-.8.3-.1.7 0 1 .1.7.3 1 1.1.6 1.7l-.6.9c-.7.9-1.2 1.9-1.7 2.9-.2.4-.3.8-.3 1.3-.1.4 0 .9.3 1.2.1.1.2.3.4.4.5.5.6 1 .4 1.7-.1.2-.1.3-.2.5-.3.6-.4 1.3-.4 2 .1 1.3.1 2.4 0 3.6zM188.6 211.8c1.3 0 2.6-.2 3.8.4.3.1.7.1 1 .1.6 0 1.2 0 2-.1.9-.4 2-.8 3-1.2.6-.2 1.2-.3 1.8-.2.2 0 .5.2.6.3.3.7-.1 1.2-.1 1.8 0 .5-.4 1-.9 1.1-.7.2-1.3.5-1.8 1s-1.2.8-1.9.8c-.8.1-1.5.4-2.3.4-1.4 0-2.8-.2-4.1-.7l-2.1-.9c-.5-.5-.4-1.1-.7-1.7.6-.2 1.2-.6 1.7-1.1zM193.8 108.8c-1.4-.1-2.7-.1-4 .4-.3.1-.7.1-1 .1-.5 0-1-.1-1.5-.4-1.4-.9-2.7-1.8-4.1-2.7-.2-.1-.4-.3-.6-.5-.5-.5-.6-1-.4-1.7.2-.7.8-1.1 1.6-1.1.7 0 1.4.3 1.9.7.5.4.9.8 1.3 1.3.8.9 1.8 1.4 3.6.9.1 0 .7-.3 1.3-.6.7-.3 1.3-.2 2 .1.6.3.9.8.8 1.5-.1.4-.2.8-.3 1.3-.1.2-.4.4-.6.7zM90.3 107.1c.1-.9.6-1.3 1-1.9.1-.9-.7-1.4-.9-2.2.1-.2.1-.5.2-.7.8-1.3 1.9-.9 2.6-.1.6.8.9 1.7.9 2.7 0 .6 0 1.2-.1 1.9-.2.3-.5.6-.8 1-.5.2-1 .3-1.5.5-.3.3-.4.6-.3 1 .3.9.4 1.9.4 3-.2.5-.4 1.2-.6 1.8-.5.6-1.1.6-1.7.4-.5-.2-.7-.5-.8-1-.2-.6-.1-1.2.2-1.8 0-.6-.3-1-.6-1.4-.3-.4-.3-.8-.3-1.3s.2-.9.6-1.1c.7-.3 1.2-.5 1.7-.8zM183 219.6c-2.4-1-4.4-2.4-6.1-4.1-.4-.4-.8-.6-1.2-.9-.4-.4-.6-.9-.6-1.4 0-.5.3-1 .8-1.2.5-.2 1-.3 1.5-.2.6.3.9.8 1.2 1.3 1.4 1.7 3.2 2.9 5.2 3.8.4.2.8.2 1.3.2h1.6c.4 0 .7.7.5 1-.2.4-.5.7-.8 1-.2.2-.6.3-.9.5-.2.1-.5.1-.8.1-.6-.1-1.2-.1-1.7-.1zM104.2 108.7c-.4.1-.9.1-1.4-.2-.6-.8-1.1-1.8-1.6-2.8-.4-.3-.8-.7-1.1-.9-.1-.6.1-1 .4-1.4.5-.3 1.1-.7 1.7-1 .3-.5.6-1.1 1.1-1.4.5-.4 1.1-.5 1.7-.3.3.1.6.4.8.5.1.3.2.4.2.6.2 1.1.4 2.2.7 3.3.1.4.1.9 0 1.3-.1.5-.3 1.1-.8 1.3-.7.1-1 .8-1.7 1zM202.4 224.6c-.9.5-1.7.8-2.3 1.1-.9.1-1.6-.1-2.2-.5-.6-.3-.9-.9-.9-1.5 0-.4.1-.8.1-1.3l-1.4-1.4c-.3-.4-.1-.8.1-1.2.2-.4.5-.7 1-1 1.4-.1 3-.2 4.5-.3.2.1.3.3.4.4.1 1.3.1 1.3-.8 2.8.1.1.2.3.3.4.3.1.7.2 1 .3.4.2.6.6.5 1.1 0 .3-.1.6-.3 1.1zM149.2 132.7c.7-1.4 1.9-2.6 2.6-3.9 1-.8 1.9-1.6 2.7-2.3.8-.7 1.7-.8 2.7-.6.7.2 1.3.4 1.9.8.4.2.4.8.1 1.1-.3.3-.7.5-1.1.6-1.1 0-2 .6-2.7 1.4-.7.7-1.4 1.3-2 2-.6.6-1 1.4-1.5 2.1-.2.3-.4.6-.7.8-.4.3-.8.3-1.2.1-.4-.2-.7-.5-.7-1v-.5c-.2-.2-.1-.3-.1-.6zM197.1 191.8c.8-.2 1.4-.3 1.9-.5.7-.5.7-1.4 1.3-2 .7-.3 1.4-.2 2 0 .6.2 1 .6 1.2 1.3.1.7.2 1.4-.2 2 0 .1-.1.1-.2.2-.7.3-1.4 0-2-.1-.5.2-.6.7-1 1.1-.7.4-1.5 1-2.4 1.4-.7.3-1.5.3-2.3.2-.5-.2-.9-.6-1.2-1-.3-.7-.1-1.4-.2-2 1-1 1.9-1.2 3.1-.6zM130.9 137.4c-.5 1.1-1.3 1.6-2.3 1.8-.3.1-.7 0-1-.1-.4-.1-.7-.5-1.2-.3 0 .2-.1.5-.2.7-.2 1.3-.8 1.8-2.1 1.8-.3 0-.7 0-1-.1-.9-.1-1.4-1.2-.9-2 .3-.5.6-.8 1.2-.9.3-.1.7-.1 1-.2h1.7c.5-.2.8-.5 1-.9v-2.1c0-.3 0-.7.1-1 .1-.8.7-1.2 1.5-1.2.3 0 .5.1.8.1.6.7 1 1.5 1 2.4-.2.6.1 1.2.4 2zM70.9 116.1c-.3-.3-.6-.6-1-.9-.6-.3-1.3-.5-1.9-.8-.4-.5-.4-.9-.3-1.3.2-.7.4-1.5 1.1-2.1.3-.3.8-.2 1.3-.4.4-.4 1-.8 1.4-1.2h.3c.2.1.4.3.6.4.2.2.5.5.7.8.2 1.2.2 2.4.1 3.6 0 .3-.2.6-.3 1-.2.5-.6.8-1.2.9h-.8zM147.8 134.2c-.2.5-.3.9-.4 1.3-.5.6-1 .6-1.6.3-.5-.5-.7-1.2-1-1.9-.2-.1-.3-.3-.6-.4-.6-.3-1.3-.5-1.9-.7-.6-.2-1.1-.5-1.5-1.1 0-.2-.1-.5-.1-.7-.1-.4 0-.9.2-1.2.3-.4.8-.7 1.5-.6.7.2 1.4.8 2.2 1.1.7.4 1.2.9 2 1.1.6.2.9.7 1.1 1.4-.1.5 0 .9.1 1.4zM76.4 140.9c.3-.8.7-1.4 1.4-1.7.4.1.9.3 1.4.4.1.2.3.3.3.4.1.2.2.5.3.7.4.9.9 1.7 1.7 2.1.5.9.6 1.8.5 2.6-.4.6-.8 1.2-1.5 1.3-.8-.1-1.3-.6-1.7-1.2-.8-1.4-1.7-2.9-2.4-4.6zM83.3 119.3c.3-1 1.3-1.6 1.8-2.6-.1-.4-.2-.9-.3-1.4-.1-.5.1-1 .5-1.4.3-.3.6-.6 1.1-.7.9.2 1.5.8 1.5 1.8.1.8 0 1.6 0 2.5-.2.5-.3 1.2-.6 1.9-.2.7-.7 1.2-1.4 1.4-1.4-.1-1.4-.1-2.6-1.5zM137.9 181.7c.6-.3 1.1-.5 1.5-.6.8 0 1.2.4 1.5 1-.1.6-.2 1.2-.1 1.8 0 .6.2 1.2.3 1.9-.1 1.1-.3 2.3-.5 3.4-.3.5-.7.6-1.1.4-.2-.1-.4-.3-.6-.4-.1-.2-.2-.4-.2-.5-.1-1.4-.5-2.7-.9-4.1-.2-.7-.3-1.4-.2-2.1.1-.2.2-.4.3-.8zM126.2 172.4l.7-.7c.3-2.3.3-2.3-.3-4.3 0-.2-.1-.3-.1-.5 0-.5.1-.8.5-1.1.5-.4 1.1-.5 1.7-.2.2.1.4.3.7.4.4 1.2.2 2.4.5 3.6-.1.9-.2 1.9-.4 2.8-.3 1-1 1.5-2.2 1.3-.2 0-.5-.2-.6-.4-.2-.3-.3-.6-.5-.9zM75.2 141.9c.3.7.5 1.2.7 1.6.3.3.6.6.9.8.2.6.3 1.1.5 1.6-.2.5-.4 1-.7 1.4-.2.4-.6.7-.9.9-.7.4-1.7 0-1.9-.8 0-.1-.1-.2-.1-.3-.1-.7 0-1.4-.4-2-.3-.6-.7-1.2-1.1-1.8-.1-.4-.1-.9.1-1.3.4-.5.9-.7 1.6-.8.5.2.8.4 1.3.7zM133.3 159.7c.1.5.2 1.1.4 1.7.2.6.4 1.1.6 1.6-.3 1.4-.7 2.7-2.2 3.3l-.9-.6c-.3-.2-.4-.5-.4-.9s.2-.8.3-1.4c-.2-.4-.4-.8-.6-1.3-.2-.5-.3-1-.4-1.5 0-.2.1-.4.1-.5.2-.9.7-1.2 1.7-1.1.4.1.9.3 1.4.7zM224.1 106.4c-1.2-.7-1-1.8-1.3-2.9l-1.2-1.2c-.6-.7 0-1.7.7-1.9.4-.1.9-.1 1.3-.2.4 0 .9.1 1.2.5.4.5.8 1.1 1.2 1.7.5.8.5 1.6.2 2.5-.4.9-1.1 1.4-2.1 1.5zM177 109.5c.8-.7 1.7-.9 2.7-.7.5.1 1 .2 1.5.4.8.2 1.6.6 2.5.7.4.1.8.3 1.1.6.6.4.4 1.5-.2 1.8-.2.1-.5.2-.7.2-.8.1-1.6 0-2.3-.3-.6-.3-1.1-.4-1.7-.4-.7 0-1.3-.3-1.8-.9-.5-.5-.8-.9-1.1-1.4zM92.8 130.6c-.3-.7-.4-1.6-.9-2.3-.3-.4-.4-1-.5-1.5-.2-.6.3-1.4.9-1.7.7-.4 1.7-.1 2.1.5.4.6.8 1.3 1.2 2 0 1 .1 1.9.1 2.8-.4.6-1 .7-1.6.8-.5 0-.9-.2-1.3-.6zM103 182.1c0-1-.1-2 .2-2.9.5-.5 1.1-.9 1.5-1.3.6-.2 1-.1 1.4.1.8.5 1.5 1.1 2.1 1.9.1.1.1.2.1.3-.5.7-.9 1.4-1.4 2.1-.2.3-.6.4-.9.5-.9 0-1.9-.1-3-.7zM194.2 128.3c.2.4.5 1 .8 1.5-.1.6-.4 1.2-.8 1.6-.7.7-1.5 1.5-2 2.1-.7.4-1.2.4-1.7.2-.6-.2-1.1-.5-1.3-1.2 0-.4.1-.8.4-1.2l.2-.2c.5-.4 1.1-.9 1.6-1.3.4-.4.7-1 1.2-1.4.3-.4.9-.5 1.6-.1zM87.3 131.3c.8-.1 1.3-.1 1.8.2.5.5.5 1.4 1.1 1.9.5.5.9 1 1.1 1.7-.3.6-.6 1.3-.9 1.9-.4.8-1.5.7-2 .1-.2-.3-.3-.6-.5-.9-.1-.3-.2-.7-.5-.9-.6-.5-.8-1.3-1.1-2-.1-.4-.1-.9.2-1.2l.8-.8zM83.8 136.1c1.2 1.1 1.9 2.6 2.9 3.9.1.7-.3 1.1-.8 1.5-.5.4-1.1.3-1.7.2-.5-.5-1-.9-1.6-1.4-.3-.5-.6-1-.8-1.5-.1-.3-.2-.7-.3-1 0-.8.2-1.5 1.2-1.7h.5c.2-.1.4-.1.6 0zM117.3 158.8c-.4-.6-.7-1.1-1-1.6.4-1.1 1.4-1.3 2.2-1.5.9-.5 1.1-1.7 2.2-1.8.3.2.5.3.9.5.3 1 .3 2 .2 2.9-.3.8-.9 1.2-1.6 1.5h-1.9c-.3.2-.6.1-1 0zM213.1 148.5c.2-.8.8-1.2 1.4-1.5.2-.1.5-.1.8-.1.5 0 1.1.5 1.2.9.2 1.2.5 2.4.6 3.6.1 1-.3 1.7-1.1 2.2-.3.2-.7.1-1-.1-.2-.2-.4-.4-.5-.6-.2-.3-.3-.6-.4-1-.4-1.1-.7-2.3-1-3.4zM67.4 149.4v1.8c-.3.5-.8.5-1.3.5-.2-.1-.5-.3-.8-.4-.2-.1-.4-.3-.6-.4-.1-.2-.2-.3-.3-.5-.1-.5-.3-1-.7-1.3-.6-.5-.9-1.2-1.1-2 .1-.7.6-1 1.2-1.2.5-.2 1-.1 1.5.2.7.5 1.2 1.2 1.6 2 .1.5.3.9.5 1.3zM96.4 122.9c-.3-.5-.5-1-.8-1.4-.3-.4-.6-.9-.8-1.3-.3-.9-.2-1.8.8-2.3 1.1.1 2.1.5 3 1.1.4.7.8 1.4 1.1 2-.1.2-.2.4-.3.5l-.9 1.2c-.6.5-1.2.7-2.1.2zM195.3 134.4c.6-.4 1.1-1.2 2.1-1.1 1 .7 1.1 1.7.9 2.8-.3.8-.9 1.4-1.5 2.1-.7.9-1.4 1-2.5.4-.6-.3-.8-.9-.6-1.5.1-.2.2-.5.3-.7.3-.6.8-1.2 1.3-2zM72.4 146.1c.4.9.4 1.5.1 2.2-.3.5-.6 1.1-1.3 1.2-.6 0-1.1-.4-1.8-.8-.4-.8-1-1.7-1.4-2.6-.3-.6-.1-1.2.5-1.6.1-.1.3-.2.4-.3.7-.4 1.7-.3 2.1.5.3.5.7 1.1 1.4 1.4zM200.8 153.2c-.1.4-.2.5-.2.7-.4 1.1-1.2 1.6-2.5 1.4-.1-.2-.3-.4-.4-.6-.1-.2-.1-.5-.1-.8 0-.8 0-1.5-.3-2.3-.1-.3-.1-.7-.1-1 0-.7.5-1.3 1.2-1.5.6-.2 1.5.2 1.7.8.2.5.5 1.1.5 1.7.1.5.2 1 .2 1.6zM144.5 126.8c-.8.1-1.5-.3-2.2-.5-.7-.2-1.4-.6-2.1-1-.9-.5-1.2-1.1-1-2.1 0-.2.1-.3.1-.5.6-.7 1.4-.5 2.2-.4.3.3.7.6 1.2.9.4.3.9.5 1.3.8.4.3.7.7.7 1.3 0 .4-.1.8-.1 1.3.1.1 0 .2-.1.2zM100.6 110c.6.9 1 1.6 1.4 2.2.2.9.1 1.7-.1 2.5-.1.6-1.1 1-1.7.6-.2-.1-.4-.3-.6-.5-.1-.1-.2-.3-.3-.4-.3-.3-.5-.7-.7-1-.3-.8-.5-1.4-.7-2.1-.3-1 .6-1.9 1.4-1.8.4.3.8.4 1.3.5zM202.5 132.4c.4-.8.9-1.1 1.5-1.4.5-.3 1.2-.1 1.6.4.2.3.4.6.5.9.2.8.3 1.5.5 2.4-.1.3-.3.7-.5 1.1-.4.8-1.2 1-2 .6-.5-.2-.8-.6-1.1-.8-.4-.6.1-1.1-.1-1.7-.2-.5-.3-1-.4-1.5zM122.6 127.7c-.7-.5-1.3-.9-1.9-1.3-.4-.6-.8-1.3-1.2-2 .1-.2.1-.5.3-.7.5-.7 1.2-.9 2.1-.7.6.1 1.1.3 1.7.5.6.7.7 1.5.8 2.4 0 .5-.2.8-.6 1.1-.3.2-.7.4-1.2.7zM220.8 164.4c0 .9-.5 1.4-1.1 1.8h-1c-.3 0-.5 0-.7-.1-.2-.1-.4-.2-.5-.3-.5-.7-1.1-1.4-1.6-2.1-.3-.4-.2-.8 0-1.2.3-.5.7-.8 1.2-.9.2-.1.5-.1.8 0 1.2.7 2.2 1.6 2.9 2.8zM186.7 127.6c.1.7.1 1.5 0 2.3-.8.6-1.5 1.2-2.2 1.8-.8.3-1.4 0-1.9-.5-.6-.5-.7-1.2-.3-1.8.7-1 1.7-1.7 2.8-2.2.2-.1.3-.1.5-.1.5-.1.9 0 1.1.5zM49.8 105.5c-.5 0-1-.2-1.4-.6-.1-.2-.2-.4-.2-.7.2-1.1-.2-2.2-.2-3.4 0-.2.3-.8.6-.8.3-.1.7-.1 1-.1.2 0 .5.1.6.1.4.3.5.6.7.9.3.7.4 1.5.3 2.3.1 1-.3 1.9-1.4 2.3zM95.5 97.2c.2.6.5 1.3.7 1.9-.2 1-.9 1.5-1.5 2.1-.1.1-.3.1-.5.1-.6-.2-.9-.8-1.5-1-.2-.6-.6-1.1-.7-1.7-.3-1.2 0-1.6 1-2.1.2-.1.3-.1.5-.2.8 0 1.3.6 2 .9zM200.2 175.3c.6-.4 1.2-.9 1.9-1.2.5 0 .8.3 1.1.7.2.2.3.5.3.7 0 .4 0 .9-.1 1.3-.1.6-.5 1.1-1.1 1.3-.7.3-1.5.5-2.2.7-.2 0-.5-.1-.7-.2-.6-.5-.8-1.2-.3-1.8.3-.6.7-1 1.1-1.5zM224.6 147.1c.8 1 .9 1.9.8 2.9 0 .4-.2.7-.5.9-.4.3-.8.6-1.4.7-.6-.1-1-.5-1.2-.9-.3-.6-.5-1.3-.6-2-.1-.7.1-1.4.8-1.8.4-.2.8-.3 1.2-.1.4 0 .6.1.9.3zM141.7 192c.2.2.3.2.3.3.4.7.8 1.5 1.2 2.1.2.7.2 1.3-.1 1.9-.2.6-.8.9-1.5.8-.2 0-.3-.1-.4-.2-.1-.1-.2-.3-.3-.4-.3-1.1-1-2-1.7-2.8-.1-.5-.1-.8.1-1.1.1-.2.3-.4.5-.5.7-.3 1.4-.4 1.9-.1zM165.3 86.4c0 .2.1.5.1.9 0 .8-.3 1.3-1.3 1.5-1.1-.2-2.3-.8-3.3-1.6-.2-.1-.3-.4-.4-.6.4-1.1 1-1.9 2-1.9.8 0 1.1.5 1.6.8.3.3.9.2 1.3.9zM209 152.7c-.7-.1-1.2-.3-1.7-.7l-.2-.2c-.2-.9-.3-1.9-.5-2.7.3-.9.9-1.1 1.6-1.1.5 0 1 .2 1.3.6.6.9.9 1.8.9 2.9-.2.5-.6.9-1.4 1.2zM123.7 115.1c.5 0 .9.2 1.2.5l1.5 1.8c.3.3.2.8 0 1.2-.4.6-.9.8-1.7.7-.8-.4-1.6-1.1-2.4-1.7-.5-.4-.6-1.6.2-2 .3-.1.6-.3 1-.4 0-.1.1-.1.2-.1zM105.6 158.8c-.6.3-1 .5-1.3.6h-1.1c-.9-.1-1.4-.7-1.6-1.5-.1-.4 0-.9.3-1.2.2-.2.5-.5.8-.7.4-.3.9-.5 1.4-.6.7.1 1.3.3 1.8.9-.1.8-.2 1.6-.3 2.5zM95.8 86.9c.7.4 1.1.7 1.3 1.2.2.5-.1.9-.3 1.3-.4.9-1.3 1.4-2.3 1.2-.4-.1-.8-.3-1.1-.7-.5-.5-.7-1.2-.8-1.9 0-.2.1-.5.2-.7.3-.3.7-.5 1.1-.6.7 0 1.3.1 1.9.2zM153.8 90.9c-.6 0-1.2 0-1.8.1-1 .1-1.6-.3-2.1-1.2-.2-.3-.2-.7 0-1 .1-.2.3-.4.4-.7 1.1-.4 2.3-.3 3.4-.2.8.6.7 1.4.8 2.1-.1.5-.7.5-.7.9zM207.8 179.2c.5-1.5 2.1-1.6 3.2-1.2.6.3 1 .8.9 1.4l-.3 1.5c-.1.3-.5.6-.8.6-.3 0-.7 0-1-.1-1.2-.1-1.8-.6-1.9-2-.1 0-.1-.1-.1-.2zM195.8 77.4c.2.2.5.4.8.6.6.4.7 1 .6 1.6 0 .4-.4.8-.8.9-1.2.2-2.4.1-3.5-.5-.3-.2-.5-.5-.5-.9 0-.3.1-.5.1-.8.2-.5.6-.9 1.1-1 .7 0 1.4 0 2.2.1zM172.6 80.3c-.1.5-.5.9-.9 1.2-.6.4-1.4.2-1.9-.3-.2-.2-.3-.4-.5-.6-.4-.5-.8-1.1-1.2-1.6.2-.6.5-1 .9-1.3.4-.3 1-.4 1.5-.2.2.1.5.3.6.5.3.4.5.9.8 1.3.3.2.7.5.7 1zM162 79.3c-.4.9-.4.9-1.7 1.4-.6-.2-1.3-.4-1.9-.7-.5-.2-.9-.5-1.2-.9-.3-.3-.2-.9.1-1.2l.2-.2c1.6-1.2 2.7-1.3 4.3.9.1.2.1.4.2.7zM46.4 103.1c-.1.1-.1.3-.2.4-.4.5-.9.6-1.4.4-.5-.2-1-.3-1.3-.8-.1-.2-.2-.3-.2-.5 0-.6.1-1.2.1-1.8.1-1.2.5-1.5 1.6-1.5.5 0 .9.2 1 .7.3 1 .7 2 .4 3.1zM51.6 112.6c.6.1 1.1.5 1.6 1.1.2.6.5 1.3.7 2-.4.7-.9 1.1-1.6 1.3-.5-.4-1.1-.8-1.6-1.3-.3-.3-.6-.7-.8-1-.2-.3-.1-1 .2-1.2.4-.5.8-.9 1.5-.9zM252.3 182.2c-.2-.4-.4-.8-.6-1.3-.3-.7 0-1.5.5-1.9.7-.5 1.6-.4 2.2.1.1.1.2.3.3.4.2.2.3.4.4.6.2.8.2 1.6.1 2.4-.1.1-.2.3-.3.4-1 .3-1.7-.1-2.6-.7zM96.3 93.5c0 .6-.1 1.2-.1 1.8 0 .2-.4.5-.5.5-.4.1-.8.1-1.3 0-.6-.2-1-.6-1.6-.8-.2-.5-.4-.9-.5-1.3-.2-.7.2-1.4 1-1.5.3 0 .5-.1.8-.1.7-.1 1.3.2 1.8.8.1.1.2.3.4.6zM224.2 108.9c.6.4 1.1.8 1.6 1.1.6.7.7 1.6.6 2.5-.1.5-.4.9-1 1h-.7c-.6-.2-.9-.5-1.3-.9-.5-.4-.5-.9-.4-1.4.1-.8.5-1.5 1-2.1-.1-.1 0-.1.2-.2zM52.9 123.9c-.7.1-1.4.2-2.1-.2-.3-.3-.5-.7-.5-1.3.2-.6.4-1.4 1.2-1.8.3-.2.7-.2 1-.1.6.2 1.2.4 1.5.9.1.2.2.5.2.7-.2.6-.5 1.3-1.3 1.8zM110.1 170.3c-.5-.1-1-.3-1.4-.4-.8-.7-.5-1.5-.4-2.2.4-.8 1.2-.9 1.9-1.2.7 0 1.2.3 1.6.7.1.1.2.3.2.5.1 1.1-.4 2-1.4 2.5-.2 0-.3 0-.5.1zM115.3 79c.6-.1 1.1-.1 1.6-.2.9-.1 1.5.3 2 .9.4.6.4 1.1-.1 1.6-.6.7-1.8.9-2.6.5l-.9-.6c-.4-.2-.7-.5-.7-1 0-.4.2-.7.7-1.2zM211.1 170.7c-.7.7-1.5 1.2-2.4 1.6-.5.2-1 .2-1.5-.1-.4-.2-.6-.5-.6-1.1.2-.4.4-.9.6-1.4.5-.4 1.1-.8 1.8-.8.2 0 .5.1.7.2.6.5 1 1.1 1.4 1.6zM118.5 146.6c-.1.8-.5 1.4-1.1 2-.3.3-.7.4-1.2.5-.7.1-1.4-.3-1.6-1-.1-.3-.1-.7-.1-1 0-.4.1-.7.4-.9.3-.3.7-.5 1.1-.7.1-.1.4-.1.5 0 .8.2 1.6.4 2 1.1zM52.4 103.1c-.1-.5.1-.9.4-1.3.1-.1.2-.3.4-.3.7-.3 1.3-.4 2.1.1.4.6.7 1.4 1.1 2.1-.4.8-1.1 1.2-1.9 1.3-.4 0-.7-.1-.9-.3-.5-.5-.9-1.1-1.2-1.6zM149 83.2c-.4-.2-.7-.4-1.1-.6-.3-.2-.3-.6-.2-.9.4-.6.9-1.1 1.7-1 .6 0 1.2.1 1.8.2.4.1.8.3 1.1.7.2.3.4.6.3.9-.1.4-.5.8-.9.8h-1c-.6-.1-1.1-.1-1.7-.1zM122.1 145.7c-.5-.2-1.1-.4-1.6-.6-.5-.2-1.2 0-1.7-.5-.1-.5 0-.9.3-1.2.5-.5 1.1-.8 1.8-1 .5-.2 1-.1 1.5.2.3.2.5.5.6.8.1.4.1.9 0 1.3-.2.3-.5.7-.9 1zM181 77.2c0-.4-.1-.5-.1-.7.1-.7.5-1.2 1.1-1.2.5 0 1 0 1.5.1.4.1.6.3.8.7.4.6.4 1.3.2 2-.1.4-.5.7-.9.8-.2.1-.6.1-.7-.1-.7-.5-1.2-1-1.9-1.6zM110.3 99.7c-.8.5-1.6.4-2.4-.2-.4-.3-.6-1-.5-1.4.2-.6.5-1.1.9-1.6s1.5-.4 1.8.2c.3.5.6 1.1.6 1.7.1.5-.2.9-.4 1.3zM209.7 134.2c-.2-.4-.2-.6-.3-.8.2-.6.4-1.2.5-1.7.4-.4.7-.5 1-.5.4 0 .7.2.9.4l.7.7c.5.6.5 1.2.3 1.9-.2.5-.7.9-1.2.7-.6-.2-1.3-.4-1.9-.7zM76.8 109.5c.3.4.5.9.5 1.4.1.7-.4 1.4-1.1 1.5-.4.1-.8.1-1.3-.2-.5-.4-.8-1.1-1-1.7-.2-.4-.1-.9.2-1.2.3-.4.8-.6 1.4-.5.4.1.9.4 1.3.7zM153.7 91c.7.1 1.4.2 2 .6.5.3.8 1.1.5 1.6l-.9 1.2c-.2.1-.4.2-.6.2h-1.5c-.6-.6-.7-1.1-.4-1.6.3-.4.6-.8.9-1.3.1-.2.1-.5 0-.7zM47.6 113.7c.5.6.5 1.2.4 2-.3.3-.7.6-1.2.8-.2.1-.5.1-.7.1-.6-.2-1.1-.5-1.3-1.1-.3-.6-.2-1.2.2-1.7.2-.3.5-.4.9-.5.6 0 1.1.1 1.7.4zM219 130.9c0 .3.1.4 0 .6-.1.5-.2 1-.3 1.4-.3.5-.8.5-1.2.6-.6.1-1-.1-1.5-.3-.4-.1-.6-.6-.6-1 .1-.9.7-1.4 1.4-1.7.1 0 .2-.1.2-.1.7.1 1.4.2 2 .5zM107.9 141.1c-1.5.4-2.4-.5-3-1.7.1-1 .7-1.4 1.6-1.5.3 0 .7-.1 1 0 .2.1.5.3.6.5.3.7.4 1.5.2 2.3-.1.2-.3.3-.4.4zM175.7 87c-.2.5-.4 1-.7 1.4-.2.4-.4.5-1.2.9-.7-.3-1.2-.8-1.6-1.5-.2-.4-.1-.8.1-1.2.1-.1.3-.2.4-.3.1 0 .2-.1.2-.1.8-.1 1.5 0 2.3.3.2.1.3.3.5.5z"/>
    <path class="st0" d="M115.7 222.4c-.4-.8-.8-1.6-1.2-2.3.1-.1.2-.3.3-.4 1.1.9 1.5 2.3 2.4 3.5.3.1.7.3 1.1.5.7.2 1.4 0 1.8-.6 0-.7-.7-1-.9-1.6-.2-.5-.4-.9-.7-1.5 0-.5 0-1 .1-1.5 0-.3.1-.3.7-.7 3 1.8 2.1 1.5 5.4 2 .5.3 1 .6 1.5.8 2 .2 4.1-.1 5.9.4 1-.3 1.9-.6 2.8-.8.9-.2 1.7-.5 2.3-1 .5-.1 1-.1 1.4-.2 1-.4 2.1-.3 3.1-.2.9.1 1.7.3 2.6.4 1.2.6 2.6.3 3.8.8.7 0 1.4.1 2.1-.1 1.1-.3 2.2-.4 3.4-.4.9-.4 1.9-.9 2.5-1.6.2-.8-.5-1.5-.1-2.2 1.3 1 2.5 2.1 3.8 3.1.4.3.8.6 1.3.9 1.4.8 2.8.9 4.1-.3.1-.1.3-.2.5-.3.4 0 1-.1 1.6-.1.5-.4 1-.8 1.5-1.3 1 .1 1.9.6 2.8.9.9.3 1.8.7 2.8.7-.2.3-.3.5-.4.7-.4.9-.3 1.7.6 2.3.2.1.4.3.6.5.2.6.3 1.2.6 1.7.4.7.9 1.3 1.8 1.4.4 0 .9-.1 1.2.3-.3.4-.7.8-1 1.1-.1.8.2 1.4.8 1.8.3.2.8.4 1 .8-.4.2-.9.2-1.3.2-.3 0-.7 0-1 .1-1.2.6-2.5.6-3.8.9-1.2.3-2.4.4-3.6.6l-1.5.3h-.3c-.8-.1-1.4-1-2.5-.8-.4.4-.9.8-1.3 1.2-.2.1-.3.1-.4.1-1.8 0-3.6.4-5.4.7-1 .2-2 .5-3 .8-1.5.4-3 .9-4.6.8-.3 0-.7 0-1 .1-.9.4-1.9.3-2.8.3h-5.2c-.4 0-.8.2-1.3.3-.3.1-.7.1-.9-.2.7-.5.9-1.2.5-2-.6-.5-1.3-.5-1.9-.7-.6-.2-1.1-.5-1.6-.7-.7-.9-.9-1.9-.9-3 0-.5-.3-.8-.8-1-1.2-.4-2.3-.7-3.5-1-.3.1-.7.1-1 .2-.5.1-.8.3-.9.8-.1.5-.1 1.1.3 1.5.4.4 1 .7 1.8 1.3.4.5.9 1.5 1.8 1.9.3.8.5 1.5.7 2.3-.1.1-.3.2-.4.3-1.6 0-3.1-.4-4.6-1-1.9-.8-3.9-1.5-5.8-2.2-.9-.3-1.8-.6-2.6-1.1-.4-.2-.8-.4-1.2-.5-1-.3-2-.6-2.9-1.2-.4-.2-.8-.4-1.2-.4-.2 0-.4-.1-.5-.2-.8-.6-1.7-.8-2.6-1.2-.5-.2-.9-.6-1.1-.7-.5-.5-.5-.9-.7-1.2.5-.4.9-.2 1.4-.2.5 0 1.1-.1 1.4-.5.6-.6 1.2-1 1.9-1.3 0 0 .3-.4.4-1.1zm39.4 4.1c.1.2.1.3.2.5.4.5.8.9 1.5 1 .2 0 .3 0 .5.1.4.1.6.2.6.7 0 .6.3 1.2.7 1.6.5.5 1.1.8 1.9.8h1.6c.7 0 1.2-.9 1.1-1.5-.1-.5-.4-1-.9-1.3-.4-.2-.7-.4-1.2-.7.2-.4.4-.8.6-1.3v-1.2c0-.5-.3-.8-.7-1-.1 0-.1-.1-.1-.2.2-.5.4-1 .6-1.4.1-.3.1-.7-.5-1.3 0 0-.5 0-.9-.2s-.8-.3-1.3-.5h-2c-.4.1-.9.1-1.3.2s-.6.4-.7.7c-.1.5-.1 1 .1 1.5.2.4.5.7.9.8.1 0 .2.2.4.4-.7.7-1.2 1.4-1.1 2.3zm-24.7-2c.9.5 1.8 1 2.7 1.6.5.3 1 .4 1.5.4.8 0 1.2-.3 1.4-1.2v-.6c-.7-.9-1.7-1.7-2.8-2.2-.8-.4-1.7-.4-2.5-.1-.4.2-.7.5-.8.9 0 .2.1.4.1.5.2.3.3.5.4.7zM65.5 194.8c-.5.5-.9.9-1.3 1.4-.9.9-1.9 1.3-3.1.7-.2-.1-.3-.1-.5-.2-.5-.1-.9 0-1.2.3-.6.6-1.1 1.3-1.4 2.2-.4 1.1-.9 2.1-1.4 3-.7.4-1.2.3-1.9.1-.7-.6-.9-1.4-.7-2.3.2-1.1.6-2.2 1.2-3.1.5-.6.8-1.3 1.1-2.1.1-.3.1-.7.2-1 0-.3-.1-.5-.3-.7-.4-.3-.8-.6-1.6-.6-.2.1-.6.4-.9.6-.8 1.6-1.8 3.2-2.4 4.9-.2.6-.5 1.3-1 1.8-.1.1-.2.1-.2.1-.3.2-.7.2-.9-.1-.8-1-1.4-2-1.7-3.2-.1-.3-.1-.7 0-1 .1-.7.3-1.4.5-2 .2-.6.5-1.1.7-1.7 1.6-1.6 3.5-2.8 5.6-3.7l4.5-2.1c2.2-1.1 4.2-2.5 5.9-4.3.2-.2.4-.4.6-.5 1.1-.8 1.9-1.7 2.6-2.9.6-1 1.3-1.8 1.9-2.8.5-.8 1.1-1.5 1.8-2.2.8-.8 1.6-1.6 2.4-2.5 1-.4 2-.4 3 0 .6.2 1.2 0 1.5-.6.2-.3.3-.6.7-.8.2 0 .5.1.7.2.4.2.8.4 1.1.7.8.8 1.7 1.5 2.7 2.1.8.5 1.2 1.3 1.3 2.2l.3 2.4c.2.4.5.9.7 1.3-.1.2-.1.4-.2.5-.6.8-1.3 1.4-2.1 2-1.3.9-2.4 2-3.2 3.4-.5.8-1.1 1.5-1.7 2.3-.1.1-.3.3-.3.4-.4 1.6-1.8 2.5-2.7 3.6-1 .4-1.9.8-2.8 1.2-.3.1-.6.3-1 .4-.9.4-1.9.3-2.7.9-.7.5-1.5.8-2.3 1.2-.5.2-1 .3-1.5.5zM111.4 206.7c.7.6.9 1.3 1.7 1.5.3.1.6.4.8.6.7.9 1.4 1.8 1.8 2.8.4 1.2 1 2.4 1.6 3.6.1.1.1.3.1.5-.9.1-1.7.1-2.5.4-.8.2-1.6.2-2.3.4-1.1.4-2 1.1-2.9 1.8-.9 0-1.7.1-2.4.8-.4.4-.8.6-1.3.8-.1 0-.4-.1-.4-.2-.2-.2-.3-.4-.4-.7-.5-1-1-2-1.6-3.3-.3-1.3-.2-2.8.4-4.3.4-.9.6-1.8.9-2.9.2-.3.5-.8.8-1.2.7-1.1.7-1.1 2.3-1.7 1.1.4 2.2.8 3.4 1.1z"/>
    <path class="st2" d="M68.2 101.7c.7 0 1.2-.4 1.5-.9.6-.8 1.1-1.6 1.5-2.2 1-.7 1.8-1.1 2.7-1.4.2-.1.6.2.6.4-.3.7.2 1.4.1 2.1l-.9 1.2c-.3.4-.5.9-.8 1.3-.8.6-1.7.8-2.7.8-.7 0-1.4.2-2.2.3-.6-.1-1.2-.3-1.9-.5-1.4-1.1-2.4-2.5-3.3-4-.2-1.7-.2-1.7 1.2-3.7.5-.3 1.1-.6 1.7-.9.3-.4.6-.8 1-1.2 1.2.4 2.6.4 3.7 1.2 0 .2-.1.3-.2.4-.2.2-.4.4-.6.5-1.2.8-1.9 2-2.5 3.3-.3.6-.4 1.2-.2 1.8.3.8.8 1.2 1.3 1.5zM239.6 205c0-.7.5-.9 1-1.1l-.1-.1c.1 1.1 0 1.2-.9 1.2zM239.6 205c-.1.4-.4.5-.6.7-.1.1-.3.1-.3-.1 0-.1 0-.2.1-.2.2-.4.5-.4.8-.4z"/>
    <path class="st1" d="M155.1 226.5c0-.9.5-1.6 1.1-2.2l-.4-.4c-.4-.2-.7-.4-.9-.8-.2-.5-.2-1-.1-1.5.1-.3.3-.6.7-.7.4-.1.9-.2 1.3-.2h2c.5.2.9.4 1.3.5.4.2.9.1.9.2.6.6.6.9.5 1.3-.2.5-.4 1-.6 1.4 0 .1.1.1.1.2.4.2.7.5.7 1v1.2c-.2.5-.4.8-.6 1.3.4.2.8.5 1.2.7.5.3.7.7.9 1.3.2.6-.4 1.5-1.1 1.5h-1.6c-.7 0-1.4-.3-1.9-.8-.5-.4-.7-1-.7-1.6 0-.4-.2-.6-.6-.7-.2 0-.3 0-.5-.1-.6-.1-1.1-.4-1.5-1-.1-.3-.2-.4-.2-.6zM130.4 224.5c-.1-.2-.3-.5-.4-.7-.1-.2-.1-.3-.1-.5 0-.5.4-.8.8-.9.8-.3 1.7-.3 2.5.1 1.1.5 2 1.3 2.8 2.2v.6c-.2.9-.5 1.3-1.4 1.2-.5 0-1-.1-1.5-.4-.9-.5-1.8-1-2.7-1.6zM44.8 93.1c.2.1.4.4.3.5-.1.2-.4.3-.6.2-.2-.1-.3-.4-.2-.6.2 0 .4-.1.5-.1z"/>
    <path class="st0" d="M49.4 90.4c-1.1-.6-1.6-1.6-2.3-2.4-.5-.4-1-.5-1.5-.4-.6.1-1.2.1-1.7.3-.7.3-1.5.3-2.2.3-1.2 0-2.4.1-3.5-.1-.2 0-.4-.3-.6-.5.9-1.5 2.2-2.7 2.8-4.4-.1-.3-.3-.6-.8-.7-.6.2-1.3.4-2 .6-.5.3-.6.8-.9 1.3-.2.4-.5.7-.8 1-.3.3-.6.3-.9.1-1-1.6-1-1.6-.7-2.6C35.5 82 37 81.2 38 80c.1-.5.2-.9-.1-1.3-.1-.1-.3-.2-.4-.3-.2 0-.3 0-.5.1-1.1.4-2.1 1-3.1 1.7-.5.4-1.1.4-1.7.2-.2-.1-.5-.2-.7-.3-1.4-.5-1.9-1.6-2-3 0-.2.1-.3.2-.5.1-.1.3-.2.4-.3.9-.3 1.7-.7 2.6-1 .7-.3 1.4-.5 2.2-.7.8-.2 1.7-.3 2.5-.4.2 0 .3 0 .5.1.5.2 1-.1 1.6-.3.3-.4.7-.8 1-1.2.2-.6.1-1-.1-1.4-.2-.3-.4-.6-.8-.5-.6.1-1.2-.1-1.8-.4-.7.3-1.5.6-2.3.9-.9.3-1.6.9-2.6 1.1-.8.2-1.6.6-2.4.9-.5-.1-1-.3-1.3-.3-.8-.1-1.3.3-1.9.4-.6.1-1.2.1-1.7-.3 0-.2-.1-.4-.1-.5.2-.6.5-1.1.8-1.6.2-.6.3-1.2.2-1.8-.1-.7-.7-1.3-1.3-1.4-.8 0-1.5-.1-2.2-.1-.2-.1-.3-.2-.4-.3-.2-1.2.6-2.1.9-3.4 0-.9.2-2.1 0-3.2-.3-.1-.5-.3-.7-.4-.5-.2-1-.3-1.4-.5-.1-.1-.3-.2-.3-.4 0-.1.1-.3.1-.5.4-.5 1-.5 1.6-1 .5-.8.6-1.7.2-2.6l-.4-.4c-.4 0-.9.1-1.4.1-.1 0-.2-.1-.3-.2.5-.7 1.1-1.3 1.6-2 .2-.3.2-.7 0-1-.3-.4-.6-.8-.9-1.3v-3.8c.4-.7.6-1.7 1.2-2.4s1.1-1.6 1.6-2.4c-.1-.6-.1-1.2-.2-1.8v-1.8c.1-.5.5-.8.8-1 .4-.3.8-.7 1.3-.9 1.3-.6 2.2-1.6 3.1-2.6 1-1 1.6-2.2 2.2-3.5.1-1 .1-1.9.2-3 .2-.4.4-.8.6-1.3-.2-.7-.8-1.3-.7-2.2-.6-1.1-1.2-2.3-1.8-3.4-1.4-1.5-2.8-3-4.2-4.4 0-.3-.2-.6-.1-.8.1-.5.3-1 .4-1.5.1-.5.1-1 .1-1.4.2-.2.3-.2.5-.1.9.6 1.9 1.2 2.7 1.9 1.4 1.2 3.1 1.7 4.8 2.3 1-.1 1.8.5 2.7.7.1.1.3.2.4.3.9.9 1.9 1.4 3.1 1.7.7.1 1.3.4 1.8.6.9.7 1.5 1.6 2.6 1.9.5 0 .9-.3 1.2-.8 0-.4.1-.8.1-1.2.1-.1.1-.1.2-.1.2.1.3.1.5.2.7.6 1.5.7 2.4.4l.3-.6c.1-.2.1-.3.2-.5.1-.1.2-.1.4 0 .6.3 1.2.6 1.7 1.1.2.2.5.4.7.5.5.2.8-.1 1.1-.2.3-.1.6-.2 1-.3h.9c.7.1 1 .6 1.4.9.3.2.6.4.8.6.4.2.8.3 1.2.3.5 0 .7-.4.9-.8.2-.4.8-.4 1.1 0 .2.2.3.4.5.6.6 1 1.3 1.8 2.3 2.5.2-.1.5-.1.6-.3.6-.7 1.1-1.5 1.7-2.3h.2c.1.1.2.3.3.4.7 1.1 1.7 1.6 2.9 1.8.7.1 1.5.3 2.2.5.8-.1 1-.9 1.5-1.4 1.3-.5 2.7-.2 4-1.2.6-1.1 1.5-2.1 2.6-3 .8-.4 1.7-.1 2.6-.2.2-.1.5-.2.8-.3.8-.3 1.3-.8 1.6-1.5.7-1.3 1.3-2.6 2.1-3.9.9-1.5 1.9-2.9 3-4.2 1.3-1.5 3-2.6 4.5-3.7.3-.2.7-.5 1.1-.7.1-.1.3-.2.6-.3.1-.1.6-.1 1.1-.2.4 0 .8-.1 1.2-.2.7.4.8 1.2 1.2 1.7 0 1.1.5 2.2.6 3.3.1 1 .2 2.1.3 3.1.1 2 .2 4 0 6-.3.7-.6 1.4-.9 2.2-.1 1.2-.1 2.4-.2 3.6-.4 1.2-1.1 2.3-1.2 3.8.3.5.7 1.1 1.2 1.8.2.7.4 1.5.7 2.2.9 1.4 2 2.5 2.5 4.2 0 1 .1 2.3.2 3.5 0 1.2.5 2.4.4 3.7-.5 1.8-.5 1.8-.2 4.1-.3 1.3-.6 2.7-.9 4-.2.9-.6 1.8-1.1 2.6-.5.9-.7 1.7-.7 2.7v2c.5 1 1.4 2 2.3 2.9.2.4.3.9.2 1.3-.1.5-.3.8-.8.9-.5.1-1 .1-1.5.2s-.9.6-.8 1.1c.1.7.3 1.4.4 2-.1.1-.2.3-.4.3h-.8c-1-.2-2-.3-3-.2h-1.8c-.8 0-1.7.1-2.5.2-1.3.2-2.7.3-4 .3-1.7 0-3.3.3-5 .7-.6.1-1.1.2-1.7.2-1.9 0-3.9 0-5.7-.4-.9.1-1.3.6-1.6 1.3-.1.2-.1.3-.2.5.1.6.4.9.9 1.2.6.3 1.2.6 1.9.5.5 0 1-.1 1.5 0 2.4.2 4.7-.2 7-.8.5-.1 1-.2 1.5-.2.3 0 .7 0 1-.1 2.1-.6 4.2-.5 6.3-.5.9 0 1.9-.1 2.9-.1.1.1.2.3.3.5.3 1.2.6 2.3 1.2 3.4 0 .6-.1 1.2-.1 1.8-.5.4-1 .3-1.4 0-.7-.6-1.4-.9-2.2-1.2h-.3c-.8 0-1.4.6-2.1.8-.2 0-.3.1-.5.1-1.4-.1-2.9-.3-4.3-.5-.6-.1-1.2-.2-1.9-.3-2.1.5-4.3.3-6.4 0-.8.2-1.5.3-2.2.5-.3.1-.6.3-.8.6-.5.6-.2 1.7.5 1.9.3.1.7.2 1 .1 1.3-.2 2.5.1 3.8 0 1.3-.1 2.5 0 3.8 0 .7 0 1.3.1 2 .2s1.5.1 2.3.1c.8 0 1.7 0 2.5.3.5.7.5.7.5 1.7-.2.6-.4 1.1-.9 1.5-.1 0-.2.1-.3 0-.5-.2-.7-.8-.8-.8-1.1.2-1.6.5-2.2.7-.1.3-.3.5-.4.7-.1.6 0 1.2-.3 1.8-.2.3-.5.4-.9.4-.9-.1-1.8-.1-2.8-.2-.6-.1-1.2-.2-1.7-.3-.9-.1-1.7.2-2.3.9-.2.2-.3.4-.5.6l-2.1 1.8c-.8.1-1.5-.4-2.2-.5-.4-.5-.8-1-1.2-1.4-.7-.4-1.3-.4-2-.1-.6 1-.5 2.3-1.1 3.6-1.2 1.9-2.7 3.6-4.9 4.5-.7 0-1.5 0-2.2.1-.7.1-1.3.3-2 .4-1.7-.4-3.4-.7-5.2-1.3-.7-.5-1.4-1.1-2.1-1.7-.2-.4-.5-.8-.7-1.2-.4-.1-.8-.2-1-.3-1.2.3-1.6 1.7-2.7 1.7zm46.3-57.8c.4-.9.6-1.8.6-2.8 0-1 .1-2.1.5-3.1.1-.4.2-.8.3-1.3.3-1.6.4-3.3.1-4.9-.2-1.2-.5-4.6-.3-5.7.1-1.1 0-2.1-.1-3.1-.1-.5-.4-.8-.8-.9-.3-.1-.7-.2-1-.2-.3 0-.7.1-1 .2-1.4.2-2.8.7-3.8 1.8-.3.4-.8.6-1.2.9-.8.6-1.6 1.3-2.2 2.1-1.2 1.8-2.7 3.3-4 5-.6.7-1.3 1.4-1.9 2.1l-.6.6c-.2.7.2 1.1.2 1.6-.6 1.8-.5 1.9.7 3h.9c.7-.1 1.5-.2 2.3-.3 1.6.8 3.1 1.9 4.5 2.8 1.1.3 2 0 3.1.5l.8.8c.3.3.6.6 1 .8.6.4 1.2.5 1.9.1zM58.9 63.4c-1.1 1.3-1.5 2.9-2.8 3.7-.6-.1-.9-.5-1.2-.9-.2-.3-.4-.6-.7-.7-1-.4-1.8-1.4-2.8-1.8-.2 0-.3-.1-.5-.1-.6-.1-1.2.2-1.5.8-.3.5-.4 1 0 1.5.5.4 1.2.8 1.8 1.3.4.3.8.6 1.2 1 .7.8 1.3 1.7 1.3 2.7.1 1.6.3 3.1 0 4.7-.2.3-.4.6-.7.8-1.3.9-2.4 2.2-3.6 3.3-.3.3-.5.7-.7 1.1-.2.3-.1.7.1 1 .6.9 1.3 1.3 2.4 1.1 1.2-.7 2.2-1.5 3-2.7.4-.7 1.1-1.1 1.7-1.5.7.2 1.4.6 1.9 1.1.8.8 1.8 1.3 2.9 1.6.7 0 1.6-.1 2.4-.1.2 0 .5-.1.7-.2.7-.5 1.1-1.3 1.2-2.2 0-.1-.1-.2-.1-.2-1.7-1-1.7-1-3.8-.7-1.2-.3-2.1-1.1-2.7-2.3.1-1-.2-2-.5-3-.2-.4-.7-.5-.8-1 .2-.8.3-1.7 1.1-2.2.9-1.5 2.1-2.7 3.4-3.9 0-1.1-.5-2.1-.9-3.2 0-.1-.3-.2-.4-.3-.3.5-.9.9-1.4 1.3zm24.8-1.8c.3.6.8.9 1.3 1.2.5.3 1.1.4 1.7.3.7-.1 1.5-.3 2.2-.4.7-.1 1.2-.7 1.2-1.5 0-.4.1-.9 0-1.3-.1-.7-.3-1.3-.5-2-.7-.6-1.4-.6-2.1-.4-.4.5-.7.9-1 1.3-.5-.1-1-.2-1.4-.3-.6.5-1.1.9-1.5 1.5-.1.6-.1 1.1.1 1.6zm3.8-13.3c-.9.1-1.9 0-2.7.7-.1.2-.2.4-.2.7 0 .6.1 1.2.2 1.8.1.4.3.8.8 1.1.4 0 1 .1 1.6.1.2 0 .4-.2.7-.3 0-.5-.1-.9-.1-1.3 0-.5.2-.8.7-1 .7.5 1.4.7 2.1.2.5-.3.8-.8.9-1.5-.3-.7-.2-1.5-.6-2.1-.3-.3-.6-.5-.9-.5-.7-.1-1.3.1-1.7.8-.3.4-.5.9-.8 1.3zM63.9 32.5l-1.8.9c-.5.3-.7.7-.9 1.3.3.9 1.3 1.1 1.9 1.7.2 0 .3.1.4.1.8 0 1.2-.4 1.3-1 .1-.7.1-1.4.1-2.1 0-.2.1-.3.1-.5.4-.4.9-.7 1.3-1.1.2-.6.4-1 .4-1.6-.3-.8-1-1.1-1.7-1.5-.2-.1-.5-.1-.7-.2-.6.2-1.1.4-1.7.6-.1 0-.1.1-.2.1-.2.6-.1 1.1.2 1.5l.9.9c.2.4.3.7.4.9zm-9 4.2c.4.2.7.4 1 .5.1 0 .2.1.2.1.4.1.8.1 1.2 0 .5-.1.8-.8.7-1.2-.3-.8-.6-1.6-1.4-2.1-.3-.2-.6-.3-.7-.6 0-.1.1-.1.1-.2.3-.8.2-1.5-.3-2.2-.5-.7-1.2-1-2-.9-.5.1-.9.3-1.1.9.1 1 .2 1.3.6 1.6.3.3.7.5 1 .8.2.2.3.4.4.6l-.6 1.5c.5.4.7.7.9 1.2zm39.9 6.9c.5-.5 1-1 1.3-1.8-.1-.5-.3-1-.4-1.5-.1-.1-.2-.1-.3-.2-.1 0-.2-.1-.2-.1-.3 0-.5-.1-.8 0-.7.1-1.4 0-2 .2-.7.5-.8 1.3-.7 2.1 1.1 1.5 1.3 1.6 3.1 1.3zm-46.6-4.1c.4-.2.6-.3.8-.5.1-.1.3-.2.4-.3.5-.5.5-1.2 0-1.6-.6-.5-1.2-1-1.8-1.4-.4-.3-.9-.3-1.4-.1-.5.4-1 .9-1 1.8.2.4.5.9.8 1.5.6.2 1.3.4 2.2.6zm15.4 48.9c0 .6.5.9.9 1.2.3.3.7.5 1.1.6.8.1 1.6-.3 1.7-1.1.1-.8.3-1.5 0-2.2-.3-.5-.7-.6-1.2-.7-.5.2-1.2.4-1.8.6-.2.1-.4.3-.5.5 0 .4-.1.8-.2 1.1zM49.2 34.2c.1-.2.3-.5.3-.7v-.8c-.3-.7-.8-1.3-1.5-1.7-.5-.3-1-.3-1.6-.1-.4.3-.8.6-1.3 1.1-.2.2-.2.4-.3.7.4.4.7.8 1.1 1.1 1.1.1 2.1.8 3.3.4zm28.8 30c-.2-.8-.6-1.2-1.1-1.5-.3-.2-.6-.4-1.1-.3-.2.1-.6.2-1 .4-.6.3-.8 1.1-.7 1.8.2.7.6 1.2 1.1 1.6.5.4 1.2.3 1.6-.1.6-.6 1-1.2 1.2-1.9zm-40.6-33c-.1-.1-.2-.3-.3-.4 0-.1-.1-.1-.2-.2s-.3-.2-.4-.2c-.9-.3-1.8-.1-2.6.5-.2.2-.3.7-.3.9.2.8.9 1.3 1.3 1.9.1.1.3.1.5.2.7.1 1.3-.2 1.8-.9l.3-1.2c-.1-.3-.1-.5-.1-.6zm58.3 27.7c-.3-.4-.5-.7-.7-.9-.7-.7-1.6-.8-2.5-.2-.7.4-.9.9-.7 1.7.3 1.2 1.3 1.8 2.4 1.3.3-.1.5-.4.8-.5.3-.5.5-.9.7-1.4zm-43.5-3c.5.4 1 .8 1.5 1.1.2.1.5.1.7 0 .2 0 .5-.2.7-.3.2-.5.5-1.1.6-1.7.1-.2 0-.5-.1-.7-.1-.3-.4-.6-.6-.9-.4-.1-.8-.1-1.3-.2-.6 0-1 .2-1.2.7 0 .6-.2 1.2-.3 2zm6.2-14.6c.5.7.5.7 2.1 1.3.8-.2 1.3-.8 1.7-1.5.5-.8 0-1.9-.9-2-.2 0-.5-.1-.8-.1-1.1-.1-1.6.1-1.9 1.3 0 .3-.1.7-.2 1zM47.7 30c.2.1.3.1.5.2.9 0 1.4-.4 1.5-1.3.1-.9-.3-1.5-.8-2.1-.1-.1-.3-.2-.4-.2-.8-.3-1.5 0-2 .7-.3.4-.3.8-.1 1.2.4.5.8 1 1.3 1.5zm28.6 3.7c.3.2.7.3 1.1.5.6-.2 1.1-.4 1.6-.8.4-.5.3-1 .2-1.5-.1-.4-.3-.8-.6-1.1-.1 0-.1-.1-.2-.1-.7-.2-1.3-.2-1.9.3-.2.2-.5.5-.7.8-.1.1-.1.3-.1.5.1.2.1.3.2.5 0 .3.2.6.4.9zM36.2 66.5c0 .3-.1.4-.1.6 0 .2 0 .3.1.5.2.7.8 1.1 1.4 1.2.6.1 1.7-.6 1.8-1.1.1-.2.1-.5.1-.7-.1-.4-.2-.8-.4-1.2-.1-.2-.3-.3-.5-.5-.8.3-1.6.6-2.4 1.2z"/>
    <path class="st3" d="M29.3 27.2c-.2.6-.8.6-1.1.9-.3.3-.6.6-.9.8-.1 0-.3-.1-.4-.2-1.3-1.6-2.9-2.9-4-4.6.1-.3.2-.6.3-.8.5-.7 1.1-1.3 1.6-2 .1-.1.3 0 .5 0 .3.2.3.6.5.9.2.5.5.9.9 1.2.7 1 1.8 2.4 2.6 3.8z"/>
    <path class="st1" d="M95.7 32.6c-.6.4-1.3.3-1.9 0-.4-.2-.7-.5-1-.8L92 31c-1-.5-2-.2-3.1-.5-1.4-.9-2.9-2-4.5-2.8-.8.1-1.6.3-2.3.3h-.9c-1.2-1.1-1.3-1.2-.7-3-.1-.5-.5-.9-.2-1.6l.6-.6c.6-.7 1.3-1.3 1.9-2.1 1.3-1.7 2.8-3.2 4-5 .6-.9 1.3-1.5 2.2-2.1.4-.3.9-.6 1.2-.9 1-1.1 2.4-1.6 3.8-1.8.3-.1.7-.2 1-.2.3 0 .7.1 1 .2.4.1.7.5.8.9.1 1 .2 2.1.1 3.1-.1 1.1.2 4.5.3 5.7.2 1.6.2 3.3-.1 4.9-.1.4-.1.9-.3 1.3-.3 1-.5 2-.5 3.1 0 .9-.3 1.8-.6 2.7zm-2.5-4.9c.2-.6.3-1.1.4-1.6.6-2.2.8-4.4.2-6.7-.1-1.4-.5-2.7-.4-4.1 0-.2-.1-.3-.1-.5s-.5-.4-.6-.3c-.2.1-.3.1-.5.2-1.4 1.1-2.8 2.1-4 3.5-.7.8-1 1.8-1.7 2.5-.8.8-1.4 1.7-2 2.7 0 .1-.1.2-.1.2 0 .1 0 .2.1.2.3.3.6.6 1 .8 1.5.8 2.9 1.7 4.1 2.8 1.2.1 2.2.2 3.3.3 0 .2.1.1.3 0zM80.5 52.5c-.8 1.2-1.7 2.1-2.8 3-.4.4-.8.6-1.3.8-1.1.3-2.1.5-3.2.6-1.7.2-3.3-.3-5-.8-.6-.2-1.3-.5-2-.8-.2-.3-.5-.6-.8-.9-.3-.3-.6-.6-.9-.8-.3-.5-.2-.9-.2-1.3 0-.3 0-.7-.1-1-.7-1.6-.4-3.3-.3-4.9 0-.7.4-1.3.6-2.2.6-.8 1.3-1.8 1.8-2.6 1.3-1 2.6-1.3 4.1-1.8h5.5c.4.2.7.3 1 .5 2.6 1.7 3.4 2.9 4.2 5.9 0 .2 0 .4.1.5.4 1.2.4 2.4-.1 3.6-.3.7-.4 1.5-.6 2.2zm-13-2.1c.5.3 1 .7 1.2.9.5.6.4 1.2 1.2 1.7 1.8.9 3.8.4 5.9-.1.4-.6.8-1.2 1.3-1.6.8-.8 1-1.7 1.1-2.8 0-.6 0-1.2-.2-1.8-.2-.5-.4-1-.5-1.3-.6-.7-1-1.2-1.4-1.7-.3-.3-.7-.5-1.1-.6-1.2-.2-3.3-.1-4.7.1-.5.4-.9.9-1.4 1.2-.8.4-1.1 1-1.3 1.8-.2.6-.3 1.2-.4 1.8-.2.7-.1 1.4.2 2 0 .1 0 .2.1.4zM40.8 39.6c1 .2 1.9.4 2.6.5 1.3.6 2.2 1.6 3.4 2.5.2.5.4 1.1.6 1.6.2.5.5.9.8 1.4.3 2.1.2 4.1-.6 6.4-.6 1-1.7 1.8-2.7 2.7-.8.7-1.7 1.1-2.6 1.5-.5 0-.9.1-1.3.1-.6.2-1.1.8-1.9.8-1.9-.4-3.9-.7-5.6-2.1-.5-.8-1.3-1.5-1.4-2.7 0-.3-.3-.6-.5-.9-.1-.2-.2-.5-.4-.7.2-1 0-2.1.5-3.2.3-.4.7-.8 1.1-1.4.1-.3.1-.8.2-1.2.2-1.1.8-2.1 1.5-3 .3-.4.7-.5 1.1-.7 1.8-.4 3.4-1 5.2-1.6zm-6.3 9.1c0 1.3.8 2.3 1.4 3.5l1.8 1.5c.5.1.9.2 1.3.3.6-.2 1.1-.5 1.7-.6 1.8-.5 3.1-1.7 4.1-3.4.2-1 .1-2.2.1-3.3 0-1-.4-1.9-1.3-2.4-.6-.3-1.1-.7-1.7-1h-2.3c-.6.4-1 .7-1.6 1-.6.3-1.3.5-1.8 1.1 0 .2-.1.6-.2.9 0 .3 0 .7-.1 1-.1.5-.4.9-1 1.1 0 .1-.2.2-.4.3zM58.9 63.4c.5-.4 1.1-.8 1.6-1.2.2.1.4.1.4.3.4 1 .9 2.1.9 3.2-1.3 1.2-2.5 2.4-3.4 3.9-.7.6-.8 1.5-1.1 2.2 0 .6.6.6.8 1 .4 1 .7 2 .5 3 .6 1.2 1.5 2 2.7 2.3 2.1-.4 2.1-.4 3.8.7 0 .1.1.2.1.2-.1.9-.4 1.6-1.2 2.2-.2.1-.5.2-.7.2-.8.1-1.7.1-2.4.1-1.2-.4-2.1-.8-2.9-1.6-.5-.5-1.2-.9-1.9-1.1-.6.4-1.3.9-1.7 1.5-.8 1.2-1.8 2-3 2.7-1 .2-1.8-.3-2.4-1.1-.2-.3-.3-.7-.1-1 .2-.4.4-.8.7-1.1 1.2-1.1 2.2-2.4 3.6-3.3.3-.2.4-.5.7-.8.2-1.6.1-3.1 0-4.7-.1-1.1-.6-2-1.3-2.7-.4-.4-.8-.7-1.2-1-.6-.5-1.2-.9-1.8-1.3-.4-.6-.3-1.1 0-1.5.3-.6.8-.8 1.5-.8.2 0 .3.1.5.1 1 .4 1.7 1.4 2.8 1.8.3.1.5.4.7.7.3.4.7.8 1.2.9 1.1-.9 1.5-2.4 2.6-3.8zM83.7 61.6c-.2-.5-.2-1-.1-1.6.3-.6.8-1.1 1.4-1.5.4.1.9.2 1.4.3.3-.4.6-.8 1-1.3.7-.2 1.4-.2 2.1.4.2.6.4 1.3.5 2 .1.4 0 .9 0 1.3 0 .8-.5 1.3-1.2 1.5-.7.2-1.5.3-2.2.4-.6.1-1.2 0-1.7-.3-.4-.3-.9-.7-1.2-1.2zM87.5 48.3c.2-.4.5-.9.7-1.3.4-.7 1-.8 1.7-.8.3 0 .6.2.9.5.4.6.4 1.4.6 2.1-.1.7-.4 1.2-.9 1.5-.8.5-1.5.2-2.1-.2-.5.2-.7.5-.7 1 0 .4.1.9.1 1.3-.2.1-.5.3-.7.3-.6 0-1.2-.1-1.6-.1-.6-.3-.8-.7-.8-1.1-.1-.6-.2-1.2-.2-1.8 0-.2.1-.5.2-.7 1-.7 1.9-.6 2.8-.7zM31.2 59.9c.7-.2 1.2-.5 1.8-.6.6-.1 1.2 0 1.6.7l.3 1.5c-.1.8-.2 1.5-.6 2-.4.4-.9.3-1.4.3-.5-.1-1-.5-1-1-.1-.3-.1-.7-.1-1 0-.2-.1-.4-.2-.7-.3.5-.6.9-.9 1.3-.2.3-.8.5-1.2.3-.5-.2-.9-.5-1.3-.8-.4-.5-.6-1.4-.4-1.9.3-.6.9-.8 1.5-.7.3 0 .7.1 1 .2.3.1.5.2.9.4zM63.9 32.5c-.1-.3-.2-.5-.4-.7l-.9-.9c-.3-.4-.5-.9-.2-1.5 0 0 .1-.1.2-.1.5-.2 1.1-.4 1.7-.6.2.1.5.1.7.2.7.3 1.3.7 1.7 1.5 0 .6-.2 1-.4 1.6-.4.3-.8.7-1.3 1.1 0 .2-.1.3-.1.5 0 .7-.1 1.4-.1 2.1-.1.6-.5.9-1.3 1-.1 0-.2 0-.4-.1-.6-.6-1.6-.8-1.9-1.7.1-.6.4-1.1.9-1.3.6-.5 1.2-.8 1.8-1.1zM54.9 36.7c-.3-.5-.4-.9-.6-1.3l.6-1.5c-.1-.2-.3-.4-.4-.6-.3-.3-.7-.5-1-.8-.5-.2-.6-.5-.7-1.5.2-.6.6-.8 1.1-.9.8-.1 1.5.2 2 .9s.6 1.4.3 2.2c0 .1-.1.2-.1.2.1.4.5.5.7.6.7.5 1.1 1.3 1.4 2.1.1.4-.3 1.1-.7 1.2-.4.1-.8.1-1.2 0-.1 0-.2-.1-.2-.1-.5-.1-.8-.2-1.2-.5zM94.8 43.6c-1.8.3-2 .2-3.1-1.2-.1-.8 0-1.5.7-2.1.6-.3 1.3-.1 2-.2h.8c.1 0 .2 0 .2.1.1 0 .1.1.3.2.1.5.2 1 .4 1.5-.3.6-.8 1.1-1.3 1.7zM48.2 39.5c-.8-.2-1.6-.4-2.3-.5-.3-.6-.5-1.1-.8-1.5.1-.9.5-1.4 1-1.8.5-.2 1-.3 1.4.1.6.4 1.2.9 1.8 1.4.5.4.4 1.1 0 1.6-.1.1-.2.2-.4.3-.1 0-.4.2-.7.4zM63.6 88.4c.1-.3.1-.7.2-1.1.2-.2.3-.4.5-.5.6-.3 1.3-.5 1.8-.6.5.1.9.2 1.2.7.2.7.1 1.5 0 2.2-.1.8-.9 1.2-1.7 1.1-.4-.1-.8-.3-1.1-.6-.4-.3-.8-.6-.9-1.2zM49.2 34.2c-1.2.4-2.1-.3-3.3-.5-.3-.4-.7-.7-1.1-1.1.1-.3.1-.6.3-.7.4-.4.9-.8 1.3-1.1.7-.1 1.2-.2 1.6.1.7.4 1.2 1 1.4 1.8.1.2.1.5 0 .8 0 .3-.1.5-.2.7zM78 64.2c-.3.8-.6 1.3-1.1 1.8-.4.4-1.1.5-1.6.1s-1-.9-1.1-1.6c-.2-.7.1-1.5.7-1.8.4-.2.8-.3 1-.4.5 0 .8.1 1.1.3.4.4.9.8 1 1.6zM37.4 31.2v.5l-.3 1.2c-.5.7-1.1.9-1.8.9-.2 0-.4 0-.5-.2-.5-.6-1.1-1.1-1.3-1.9-.1-.3 0-.8.3-.9.8-.6 1.7-.7 2.6-.5.2 0 .3.1.4.2.1 0 .1.1.2.2.2.2.3.3.4.5zM95.7 58.9c-.3.6-.4.9-.7 1.4-.2.2-.5.4-.8.5-1.1.5-2.2-.1-2.4-1.3-.2-.9 0-1.3.7-1.7.9-.6 1.7-.5 2.5.2.3.2.4.5.7.9zM52.2 55.9c.1-.8.2-1.4.5-2 .2-.5.6-.8 1.2-.7.4 0 .8.1 1.3.2l.6.9c.1.2.2.5.1.7-.2.6-.4 1.1-.6 1.7-.3.1-.5.3-.7.3-.2 0-.5.1-.7 0-.7-.3-1.1-.7-1.7-1.1zM58.4 41.3c.1-.3.2-.6.3-1 .3-1.1.8-1.3 1.9-1.3.3 0 .5 0 .8.1.9.2 1.4 1.2.9 2-.4.7-.9 1.3-1.7 1.5-1.7-.6-1.7-.6-2.2-1.3zM40.4 63.2c0-.2.1-.3.2-.6l-.3-.6c-.1-.2-.1-.3-.2-.5 0-.1 0-.2.1-.2.3-.5.6-1.1 1.2-1.2.8-.1 1.5 0 2.1.5.3.2.4.6.3.9-.2 1-.7 1.7-1.6 2.1-.3.1-.6.2-1 .1-.4.1-.7-.2-.8-.5zM47.7 30c-.5-.4-.9-1-1.3-1.6-.2-.4-.2-.8.1-1.2.5-.7 1.1-1 2-.7.2 0 .3.1.4.2.5.6.9 1.2.8 2.1-.1.9-.6 1.3-1.5 1.3-.2 0-.3-.1-.5-.1zM76.3 33.7c-.2-.4-.3-.7-.5-1-.1-.1-.1-.3-.2-.5 0-.2 0-.4.1-.5.2-.3.4-.5.7-.8.6-.5 1.2-.5 1.9-.3.1 0 .1.1.2.1.4.3.5.6.6 1.1.1.5.2 1-.2 1.5-.4.4-1 .5-1.6.8-.3-.1-.7-.2-1-.4zM36.2 66.5c.8-.6 1.5-1 2.4-1.1.1.1.4.3.5.5.2.4.3.8.4 1.2.1.2 0 .5-.1.7-.1.5-1.2 1.2-1.8 1.1-.6-.1-1.2-.6-1.4-1.2 0-.2-.1-.3-.1-.5.1-.2.1-.4.1-.7z"/>
    <path class="st3" d="M93.2 27.7c-.2.1-.3.2-.4.2l-3.3-.3c-1.2-1.1-2.6-2-4.1-2.8-.4-.2-.6-.5-1-.8-.1 0-.1-.2-.1-.2 0-.1 0-.2.1-.2.6-1 1.2-1.9 2-2.7.8-.7 1.1-1.7 1.7-2.5 1.2-1.4 2.6-2.5 4-3.5.1-.1.3-.1.5-.2s.6.2.6.3c0 .2.1.3.1.5-.1 1.4.4 2.7.4 4.1.6 2.2.4 4.5-.2 6.7 0 .3-.1.8-.3 1.4z"/>
    <path class="st2" d="M67.5 50.4c-.1-.2-.1-.3-.2-.5-.4-.6-.4-1.3-.2-2 .1-.6.3-1.2.4-1.8.2-.8.6-1.4 1.3-1.8.5-.3.9-.8 1.4-1.2 1.4-.2 3.5-.3 4.7-.1.4.1.8.3 1.1.6.4.5.9 1 1.4 1.7.1.3.3.8.5 1.3.2.6.2 1.2.2 1.8 0 1.1-.3 2-1.1 2.8-.5.5-.8 1.1-1.3 1.6-2.1.5-4.1 1-5.9.1-.7-.5-.7-1.1-1.2-1.7-.2-.1-.6-.5-1.1-.8zm6.4-.4c.2-.5.6-1.1.8-1.7.2-.4.2-.8.3-1.3.1-.7-.4-1.3-1.1-1.5-.5-.1-1-.1-1.6.1-.6.4-1.3.9-1.7 1.6-.2.7.1 1.5-.3 2.1.1.2.1.5.3.7.4.4.8.6 1.3.6.6.1 1.3 0 2-.6zM34.5 48.7l.6-.3c.6-.1.8-.5 1-1.1.1-.3 0-.7.1-1 0-.3.1-.7.2-.9.5-.7 1.2-.8 1.8-1.1.5-.3 1-.6 1.6-1h2.3c.5.3 1.1.7 1.7 1 .9.5 1.3 1.4 1.3 2.4 0 1.1.1 2.3-.1 3.3-1 1.7-2.3 2.8-4.1 3.4-.6.2-1.1.4-1.7.6-.4-.1-.8-.2-1.3-.3l-1.8-1.5c-.8-1.2-1.6-2.2-1.6-3.5zm5.8 1.8 1.5-.9c.3-.2.5-.5.5-.9 0-.5 0-1-.1-1.5 0-.4-.5-.8-.9-.8-1.1-.2-2 .2-2.8.8-.2.1-.3.4-.3.7-.1.5-.1 1 .1 1.5.5.6 1 1 2 1.1z"/>
    <path class="st1" d="M73.9 50c-.7.5-1.3.7-2 .6-.5 0-1-.2-1.3-.6-.2-.2-.2-.4-.3-.7.4-.6.2-1.3.3-2.1.4-.7 1.1-1.2 1.7-1.6.6-.2 1.1-.2 1.6-.1.7.1 1.2.8 1.1 1.5 0 .4-.1.9-.3 1.3-.3.7-.6 1.3-.8 1.7zM40.3 50.5c-.9-.2-1.5-.6-1.9-1.1-.3-.5-.2-1-.1-1.5 0-.2.2-.5.3-.7.8-.7 1.7-1 2.8-.8.4.1.8.5.9.8 0 .5.1 1 .1 1.5 0 .4-.2.7-.5.9-.6.3-1.1.6-1.6.9z"/>
    <path class="st1" d="M261.6 179.5c-.2-1.3-.6-2.5-.5-3.7.1-1-.3-1.9-1-2.6-.2-.1-.5 0-.7-.2-.7-.5-1.5-.9-2.1-1.5-.4-.3-.7-.8-.8-1.3v-2.1c0-.6 0-1.3-.2-1.8-.5-1.3-.5-2.6-.4-3.9.6-1.9 1.4-3.9.9-6-.3-.6-.6-1.1-1-1.6s-.9-1-1.4-1.6c-.1-1.5-.1-3-.2-4.5 0-.5-.2-1-.2-1.6 0-.5.2-1 .2-1.5s0-1-.1-1.6c-.1-.4-.2-.8-.3-1.3-.1-.2-.2-.3-.3-.5l-.1-.1c.1-.1.1-.2.2-.3.3-.5.3-1 .3-1.5h.3c.5-.3.9-.7.8-1.1-.1-.6.2-1.2.3-1.8-.2-.3-.4-.7-.6-1.1-.1-1 .2-2.1-.4-3-.2-.3-.1-.7-.1-1 0-.8 0-1.6.1-2.3.3-2.2 0-4.3-1-6.4-.1-.2-.1-.3-.1-.5 0-.8-.1-1.7-.1-2.5-.4-1.9-1.3-3.3-2.4-4.4-.3-1-.5-1.7-.7-2.5-.3-.7-.5-1.5-.9-2.2-.3-.7-.8-1.4-1.1-2 0-.1-.1-.2 0-.3.1-.3.2-.7.3-1 .1-.5-.1-1.1-.6-1.3-.3-.2-.6-.3-1-.4-.6-.2-1.1-.5-1.5-1-.3-.3-.5-.7-.8-1.1-.6-.9-1.2-1.9-1.5-3-.1-.7-.5-1.3-.8-1.9-.9-1.5-1.9-2.9-3.3-4-.1-.1-.2-.3-.3-.4-.5-1.1-.5-2.3-.6-3.4-.2-1.6-.9-2.8-2.3-3.6-.5-.3-1-.6-1.6-.9-.5-.6-.9-1.3-1.3-1.8-.2-1-.3-1.8-.7-2.6-.4-.9-1-1.6-1.9-2.1-.5-.3-1.1-.6-1.6-.9-.4-.4-.9-.8-1.2-1.3-.4-.5-.7-1-1.1-1.5-.6-.8-1.3-1.4-2.1-1.9-1.3-.8-2.7-1.2-4.2-1-1 .3-1.9.8-2.9.9l-.4-.4c-.2-.7-.2-1.4.1-2.1.2-.5.3-1 .2-1.5-.2-.4-.4-.8-.9-1-.8 0-1.8-.1-2.8-.1-1.1-.8-2.4-1.3-3.2-2.4-.7-.3-1.5-.3-1.9-1.1 0-.3 0-.8-.1-1.2-.1-.3-.2-.7-.6-.8-.7-.2-1.5-.4-2.2-.6-.7.1-1.3.1-2 .2-.8-.1-1.6-.3-2.6-.5-.4-.7-.7-1.4-1.1-2-.3-.4-.6-.9-1-1.2-1.3-1-2.7-1.6-4.4-1.4-.5.1-1 0-1.6.1-1 .1-1.9.1-2.8-.1-.8-.3-1.7-.6-2.2-.9-2.2-.3-4.1 0-5.9.5-.3.1-.5.2-.7.3-.9.3-1.7.3-2.6 0-.7-.3-1.5-.4-2.3-.4-1.8 0-3.6.3-5.4.8-1.9.5-3.7 1-5.5 1.5-1 .3-2.1.4-3.1 0-.2-.1-.3 0-.6 0-.9.3-1.9.7-2.9 1.1-1.2 1.1-2.5 2.1-4.1 2.7-.6-.1-1.2-.1-1.8-.5-.2-.3-.5-.6-.8-.9-.4-.3-.8-.6-1.3-.9-.4 0-.9-.1-1.3 0-1.3.3-2.6.6-3.6 1.5-.8.6-1.6 1-2.5 1.1-.2 0-.4 0-.6-.1-1.1-.5-2.2-.6-3.3 0-.5.2-1 .2-1.5 0-1.3-.5-2.7-.4-4.2-.4-.5.4-1 .7-1.5 1.1-.4.3-.8.4-1.2.3-.3 0-.7-.1-1-.1-1.7-.4-3.5-.4-5.2.1-.1-.1-.2-.3-.3-.4-.3-.9-1-1.4-1.8-1.7-.6-.2-1.2-.2-1.8-.3-1.2.5-2.3.8-3.7.4-.2-.3-.5-.6-.8-1-.4-.4-.2-1-.7-1.3-1.7-.2-1.7-.2-3.6.4-.6-.3-1.3-.5-1.6-1.1v-1c-.5-.6-1.1-.9-1.8-1-.8.1-1.5.1-2.2.2l-.6.3c-.4-.7-1-1-1.8-1.1-.2 0-.3-.1-.5-.1-.1 0-.1-.1-.2-.2-.3-.6-.2-1.2-.2-1.8.1-.2.2-.6.4-.9.5-1.4.9-2.8 1.5-4.1.4-.8.5-1.6.6-2.5.1-1 0-2.1.3-3.1.1-.2 0-.5 0-.8-.2-.7-.2-1.4 0-2.1.3-.9.2-1.9.2-2.9-.1-1-.2-1.9-.3-2.8-.3-1.5-.5-3.1-1.5-4.4-1.2-1.7-2-3.6-2.5-5.7.4-1.4.7-2.8.7-4.3 0-.7.1-1.4.3-2.1.3-1 .2-2.1.5-3.1.3-1.1 0-2.1-.1-3.1-.1-1.4 0-2.8-.4-4.1-.1-.3.2-.7.1-1-.4-1-.3-2.1-.4-3.1-.4-1-.8-2.1-1.3-3.2-.2-.3-.5-.6-.8-.9-.4-.4-.7-.7-1.1-1-.7-.2-1.4-.3-2-.5-.7.1-1.2.2-1.8.4-.6.2-1.3.4-2 .7-.6.6-1.4 1.2-2.3 1.6-1 .4-1.9 1.1-2.7 1.9-.5.5-1.2 1-1.8 1.6-.4.6-.9 1.4-1.3 2.1-.2.3-.4.6-.6.8-.8.8-1.5 1.7-2 2.7-.5 1.1-1.3 2.1-1.7 3.2-.1.2-.3.4-.5.6-1 0-2 0-2.9.1-1.5.8-2.6 1.8-3.5 3.1-.1.1-.3.2-.4.3l-1.5-.3c-.9.2-1.8.4-2.6.6-.3.3-.6.5-.9.8-.6-.5-1.1-1-1.6-1.6-.4-.4-.8-.6-1.4-.7-.4.1-.9.3-1.4.5-.6.2-.9.9-1.5.9-.4-.1-.6-.3-.8-.6-.5-.5-1-1-1.5-1.4-.3-.3-.7-.5-1.1-.6-.6-.2-1.2-.2-1.7.3-.3.3-.6.7-1.1.7-.7-.5-1.5-1-2.2-1.4-1-.3-1.7.4-2.7.4-.7-.2-1.5-.5-2.3-.8-.6-.2-1.2-.3-1.7-.1-.8.3-1.6.4-2.5.4-.5 0-1 .1-1.5.3-.5.2-1 .3-1.5.3-.7 0-1.3.1-2 .1-.5-.2-.9-.7-1.3-1.1-.8-.7-1.7-1.5-2.7-1.9-1.1-.4-2.2-.9-3.4-.9-.3 0-.7-.1-1-.1l-1.5-1.5c-.5-.4-1.1-.8-1.6-1.3-.3-.2-.6-.4-.8-.6-.6-.6-1.3-1.1-1.6-2-.3-.7-.9-1.3-1.6-1.7-.2 0-.5-.1-.7-.1-.9-.1-1.3.6-1.4 1.2-.1.4-.1.9-.1 1.3v2.9c0 1.1-.1 2.3-.6 3.3-.4.8-.5 1.7-.7 2.5.5 2.7.5 2.7-.8 4.6l-.5.5c-.3.1-.8.3-1.3.5-.8.4-1.3 1.1-1.3 2.1.2.2.3.5.6.8l.9.9c1 .9 2.1 1.7 3 2.7.9.9 1.6 2 2.5 2.9.2.2.4.6.3 1-.2.5-.7.8-1.1 1-1.1.5-2 1.3-2.9 2-.5.4-.7.9-.8 1.6-.1 1.7-.1 2.1.4 4.1-.1.7-.7 1.2-1 1.8-.2.3-.4.6-.6.8-1.1 1-1.4 2.3-1.1 3.8l.3 1.2c-.1.6-.2 1.1-.4 1.7.2.5.3 1.1.1 1.7-.2.6.1 1.4-.3 2-.4.4-1 .4-1.3 1.1-.2.5-.2 1.2.3 1.8.2.3.4.5.6.8-.2.8-.3 1.5-.5 2.3.1.3.2.5.4.7.7.8 1.6 1.3 2.5 1.7.2.1.4.3.6.4 0 .3 0 .6-.1.8-.2.8-.5 1.7-.7 2.5-.3.9-.3 1.7-.1 2.6.4.6.7 1.2 1.3 1.6.5.1 1 .2 1.5.2.1.3.2.5.3.6-.2.9-.4 1.7-.6 2.4.1.8.8 1.2.4 1.9-1.2.5-2.5.9-3.8 1.2-1.3.4-2.6.7-3.8 1.3-1.2.5-2.5 1-3.8 1.5-1 .4-2.1.7-3.2.9-1.8.2-3.4.9-5.1 1.3-.5.1-1 .3-1.4.5-.3.1-.6.3-.9.5.3.1.1.5.2 1 .2.7.6 1.2 1.2 1.5.3.2.7.1 1-.1 1-.4 2-.9 3.1-1.4.9.1 1.8-.1 2.7-.5.5-.2 1.1-.4 1.7-.5.8-.1 1.5-.4 2.1-.7 1-.6 2-.9 3.1-1 1.4-.9 2.9-1.5 4.4-1.9 2-.5 3.8-1.3 5.7-2.1.2-.1.3-.1.5-.1s.6.2.6.4c.1.3.2.7.3 1 .1 1.1.5 2 1.3 2.7.3.3.7.5.7 1-.1.1-.2.3-.3.4-.9.4-1.8.8-2.8 1.2-.3.1-.7.2-.9.4-1.3.9-2.7 1.5-4.1 2.1-.4.2-.7.4-1.1.6-.9.5-1.7 1.1-2.6 1.6-1.7 1-3.4 2-4.8 3.1-.2.3-.3.6-.4.8.1.7.4 1.2 1 1.4.6.2 1.2.1 1.7-.2.2-.1.3-.2.4-.3 1.2-.7 2.3-1.5 3.5-2.1.7-.4 1.2-.9 1.8-1.5 1.4-.7 2.8-1.4 4.3-2 1.2-.5 2.3-1.1 3.4-1.7.8-.5 1.6-.9 2.4-1.4.1-.1.3-.1.5-.1.1 0 .2 0 .2.1.7.7 1.1 1.5 1.6 2.3v.3c-.3.6-.8 1-1.4 1.4-.7.4-1.4.7-1.8 1.3-.3.4-.7.7-1.1 1-.4.3-.8.7-1.1 1-1.7 1.7-3.4 3.4-5 5.2-1 1.1-1.8 2.3-2.5 3.6-.2.4-.2.8-.1 1.3.1.2.2.5.4.6.5.3 1.4.2 1.7-.1.7-1 1.7-1.7 2.4-2.7 1-1.5 2.4-2.7 3.5-4.1.5-.7 1.2-1.2 1.8-1.8.9-.7 1.7-1.5 2.5-2.3.2.2.3.4.5.7.3.3.7.6.7 1.1-.4 1.3-1.5 2.1-2.1 3.3-.2.6-.1 1.2.2 1.8.4.8 1 1.4 1.8 1.8.1.1.2.3.3.4-.1.6-.4 1.2-.7 1.7-1.1 1.7-1.1 1.6-1.7 3.4.1.9 1 1.1 1.4 1.9-.2.5-.3 1.2-.6 1.7-.7 1-.9 2.2-1.5 3.2 0 .9-.1 1.7.2 2.4.9 1 .8 1 3 2.1v1.2c-.2 1.9.3 3.6.8 5.4.2.9.6 1.6 1.2 2.3.1.1.3.2.4.4 1.1.5 1.1.5 1.7 1.3 0 2.2.6 4.4 1.5 6.5.1.2.1.3.2.5.2 1 .7 1.8 1.3 2.5.4.5.8.9 1.3 1.4.7.2 1.5.4 2.2 1.1.1.3.4.6.6 1 .4 1.2 1 2.2 1.6 3 1.6 1.7 3.3 3 4.9 4.1.5 1.2 1 2.3 1.5 3.5.6 1.4 1.5 2.5 2.6 3.5.9.7 1.7 1.4 2.6 2.2.8.2 1.7.2 2.5.7.9 1.3 1.4 2.8 2.5 3.9.5.6.8 1.3 1.3 1.9.6.6 1.5.8 2.2 1.4.2.2.5.2.6.3.8.1 1.4.1 2.1.2 1 .7 2 1.3 2.9 1.8 0 .2 0 .4-.1.6-.3.5-.7 1-1 1.5-1.2.7-1.7 2-2.7 2.8-.4.4-.9.9-1.2 1.4-.9 1.5-2.1 2.8-3.3 4-1 1.1-2.2 2-3.3 3-.8.8-1.8 1.4-2.9 1.8-2.6 1-5.1 2.3-7.6 3.5-1.4.7-2.5 1.6-3.5 2.7-.5.6-.9 1.3-1.2 2-.9 2.9-1 1.9-.9 5.6v.5c.2.8.5 1.5.7 2.2.9 1.6 1.9 3 3.4 4 .9.1 1.9.2 2.9.3.4.3.8.6 1.2 1 1 1.1 2.3 1.6 3.8 1.4.3 0 .7-.1.9-.1.7-.5 1.2-1.2 1.8-1.7.6-.6.5-1.7 1.4-2.2.7.2 1.5.2 2.2.7.4.8.9 1.7 1.3 2.6.3.3.6.7 1 1.1.7.7 1.5 1.1 2.5 1.3 1.3.3 2.6.4 3.9.4.4 0 .9-.1 1.3.2.6.6 1.1 1.3 1.7 2 .5.5 1.4.2 1.9.9.1.5.2 1 .3 1.4.7 1.2 1.9 1.6 2.9 2.3 1.4 0 2.8.1 4.2-.4 1.6-.1 3-.9 4.3-1.8.7-.4 1.2-.9 1.8-1.5.6-.5 1.4-.8 1.9-1.4.4-.4.8-.7 1.2-1 .9-.6 1.7-1.3 2.4-2 .4-.4.8-.7 1.2-1 1.4-1.1 2.7-2.2 3.8-3.5.7-.8 1.4-1.5 2.3-2.1.4-.2.7-.5 1-.9.6-.7 1.2-1.2 1.9-1.8l.9-.9c1.3-1.4 2.7-2.7 4.2-3.8.7-.3 1.3-.3 2.2-.2 1 .5 2.1.9 3.3 1.2.1 0 .2.3.3.4-.5.2-1 .3-1.5.5-.2.3-.4.6-.5.9-.3.6-.3 1.2.1 1.7.5.4 1 .6 1.8.6.6-.2 1.4-.5 2.1-.7.9.3 1.7.5 2.6.4.2 0 .5.1.7.2.5.6.5 1.2.7 1.7.2.7.4 1.3.6 2 0 .2.2.3.3.5.3.2.6.4.8.5.8.3 1.6 0 2.2.4-.1.1-.1.3-.2.4-1.7 1.6-2.7 3.6-3.5 5.8-.2.6-.3 1.2 0 1.8.4.9.3 1.9.5 2.7.3.6.6 1.2.8 1.7 0 .1-.1.4-.3.4-.1.1-.4 0-.5 0-1.1-.5-2-1.4-2.8-2.3-.2-.2-.3-.4-.4-.7-.4-1-.8-1.9-1.1-2.9-.2-.8-.6-1.4-1.1-2.1-.7-.9-1.7-1.6-2.4-2.4-.8-1-1.8-1.6-2.9-2.1-1-.5-2.1-.9-3.2-1.1-.3-.1-.7-.2-.9-.3-.8.1-1.5.3-2.2.4-.9.1-1.6.6-2.1 1.4-1 1.7-1.9 3.5-2.4 5.5-.3 1.2-.7 2.3-1 3.5-.2.8-.3 1.5-.1 2.3.1.4.2.8.3 1.3.1.7.4 1.3.7 1.9.7 1.2 1.5 2.4 2.3 3.5.7.8 1.3 1.7 1.7 2.6.9 1.8 2.3 3.3 3.8 4.6.8.8 1.7 1.5 2.7 2 .6.3 1.2.7 1.6 1 .7.2 1.3.5 1.9.6l1.8.3c.7.8 1.6 1.1 2.5 1.3 1.5.4 3 .9 4.5 1.4 1.5.4 3 1 4.3 1.7.8.5 1.8.8 2.7 1 .5.1 1.1.1 1.5.3.9.3 1.9.4 2.8 0 .3-.1.7-.1 1-.1h9.6c1.1 0 2.3-.1 3.4-.3 1-.2 2.1 0 3.1-.3.8-.2 1.5-.4 2.3-.5.8-.1 1.6-.2 2.3-.5 1.3-.6 2.7-.7 4.1-.6.5.1 1.1.1 1.5-.1 1-.4 2-.4 3.1-.6 2-.4 4.1-.9 6.2-.8.3 0 .5 0 .8-.1 1.8-.4 3.6-.7 5.4-1.1.5-.1 1-.3 1.5-.4 1.1-.1 2.2-.4 3.3-.7 1-.3 2.1-.3 3.1 0 .9.2 1.7.2 2.6.2 1.8-.1 3.7-.1 5.5 0 1.8.1 3.7.2 5.5-.2 2.3-.4 4.7-.3 7-.8 1 0 1.9-.3 2.8-.4 1-.1 1.9-.4 2.8-.6.9-.2 1.7-.4 2.5-.8.9-.4 1.7-.8 2.6-1.2.3-.2.5-.4.8-.6.3-.3.7-.6 1.1-.7.9-.4 1.8-.7 2.5-1.3.8-.6 1.8-.6 2.6-1.2.2-.2.5-.2.7-.3 2.6-.3 5.1-1.2 7.6-1.9 1.4-.4 2.8-.8 4.2-1.5.3-.2.7-.2 1-.3.6-.2 1.2-.4 1.7-.7.9-.4 1.7-.8 2.6-1.1 1.3-.5 2.6-1 3.7-2 .2-.2.6-.3.9-.5.5-.3 1-.7 1.5-1 1.1-2.5 2.9-4.3 5-6.2l1.1-2.2c-.1-1.3.2-2.5.4-3.8.3-1.3.7-2.5 1.4-3.6 1-1.5 1.8-3 2.3-4.7.6-1.8 1.3-3.6 1.7-5.5.1-.6.4-1.2.7-1.7.5-.9 1.2-1.7 1.8-2.6.1-.4.3-.9.4-1.4 0-1.7-.3-3.1-1.1-4.3zM22.8 24.2c.1-.3.2-.6.3-.8.5-.7 1.1-1.3 1.6-2 .1-.1.3 0 .5 0 .3.2.3.6.5.9.2.5.5.9.9 1.2.8.8 1.9 2.2 2.8 3.6-.2.6-.8.6-1.1.9-.3.3-.6.6-.9.8-.1 0-.3-.1-.4-.2-1.5-1.3-3.1-2.6-4.2-4.4zm9.3 56.2c-.2-.1-.5-.2-.7-.3-1.4-.5-1.9-1.6-2-3 0-.2.1-.3.2-.5.1-.1.3-.2.4-.3.9-.3 1.7-.7 2.6-1 .7-.3 1.4-.5 2.2-.7.8-.2 1.7-.3 2.5-.4.2 0 .3 0 .5.1.5.2 1-.1 1.6-.3.3-.4.7-.8 1-1.2.2-.6.1-1-.1-1.4-.2-.3-.4-.6-.8-.5-.6.1-1.2-.1-1.8-.4-.7.3-1.5.6-2.3.9-.9.3-1.6.9-2.6 1.1-.8.2-1.6.6-2.4.9-.5-.1-1-.3-1.3-.3-.8-.1-1.3.3-1.9.4-.6.1-1.2.1-1.7-.3 0-.2-.1-.4-.1-.5.2-.6.5-1.1.8-1.6.2-.6.3-1.2.2-1.8-.1-.7-.7-1.3-1.3-1.4-.8 0-1.5-.1-2.2-.1-.2-.1-.3-.2-.4-.3-.2-1.2.6-2.1.9-3.4 0-.9.2-2.1 0-3.2-.3-.1-.5-.3-.7-.4-.5-.2-1-.3-1.4-.5-.1-.1-.3-.2-.3-.4 0-.1.1-.3.1-.5.4-.5 1-.5 1.6-1 .5-.8.6-1.7.2-2.6l-.4-.4c-.4 0-.9.1-1.4.1-.1 0-.2-.1-.3-.2.5-.7 1.1-1.3 1.6-2 .2-.3.2-.7 0-1-.3-.4-.6-.8-.9-1.3v-3.8c.4-.7.6-1.7 1.2-2.4s1.1-1.6 1.6-2.4c-.1-.6-.1-1.2-.2-1.8v-1.8c.1-.5.5-.8.8-1 .4-.3.8-.7 1.3-.9 1.3-.6 2.2-1.6 3.1-2.6 1-1 1.6-2.2 2.2-3.5.1-1 .1-1.9.2-3 .2-.4.4-.8.6-1.3-.2-.7-.8-1.3-.7-2.2-.6-1.1-1.2-2.3-1.8-3.4-1.4-1.5-2.8-3-4.2-4.4 0-.3-.2-.6-.1-.8.1-.5.3-1 .4-1.5.1-.5.1-1 .1-1.4.2-.2.3-.2.5-.1.9.6 1.9 1.2 2.7 1.9 1.4 1.2 3.1 1.7 4.8 2.3 1-.1 1.8.5 2.7.7.1.1.3.2.4.3.9.9 1.9 1.4 3.1 1.7.7.1 1.3.4 1.8.6.9.7 1.5 1.6 2.6 1.9.5 0 .9-.3 1.2-.8 0-.4.1-.8.1-1.2.1-.1.1-.1.2-.1.2.1.3.1.5.2.7.6 1.5.7 2.4.4l.3-.6c.1-.2.1-.3.2-.5.1-.1.2-.1.4 0 .6.3 1.2.6 1.7 1.1.2.2.5.4.7.5.5.2.8-.1 1.1-.2.3-.1.6-.2 1-.3h.9c.7.1 1 .6 1.4.9.3.2.6.4.8.6.4.2.8.3 1.2.3.5 0 .7-.4.9-.8.2-.4.8-.4 1.1 0 .2.2.3.4.5.6.6 1 1.3 1.8 2.3 2.5.2-.1.5-.1.6-.3.6-.7 1.1-1.5 1.7-2.3h.2c.1.1.2.3.3.4.7 1.1 1.7 1.6 2.9 1.8.7.1 1.5.3 2.2.5.8-.1 1-.9 1.5-1.4 1.3-.5 2.7-.2 4-1.2.6-1.1 1.5-2.1 2.6-3 .8-.4 1.7-.1 2.6-.2.2-.1.5-.2.8-.3.8-.3 1.3-.8 1.6-1.5.7-1.3 1.3-2.6 2.1-3.9.9-1.5 1.9-2.9 3-4.2 1.3-1.5 3-2.6 4.5-3.7.3-.2.7-.5 1.1-.7.1-.1.3-.2.6-.3.2-.1.7-.1 1.2-.2.4 0 .8-.1 1.2-.2.7.4.8 1.2 1.2 1.7 0 1.1.5 2.2.6 3.3.1 1 .2 2.1.3 3.1.1 2 .2 4 0 6-.3.7-.6 1.4-.9 2.2-.1 1.2-.1 2.4-.2 3.6-.4 1.2-1.1 2.3-1.2 3.8.3.5.7 1.1 1.2 1.8.2.7.4 1.5.7 2.2.9 1.4 2 2.5 2.5 4.2 0 1 .1 2.3.2 3.5 0 1.2.5 2.4.4 3.7-.5 1.8-.5 1.8-.2 4.1-.3 1.3-.6 2.7-.9 4-.2.9-.6 1.8-1.1 2.6-.5.9-.7 1.7-.7 2.7v2c.5 1 1.4 2 2.3 2.9.2.4.3.9.2 1.3-.1.5-.3.8-.8.9-.5.1-1 .1-1.5.2s-.9.6-.8 1.1c.1.7.3 1.4.4 2-.1.1-.2.3-.4.3h-.8c-1-.2-2-.3-3-.2h-1.8c-.8 0-1.7.1-2.5.2-1.3.2-2.7.3-4 .3-1.7 0-3.3.3-5 .7-.6.1-1.1.2-1.7.2-1.9 0-3.9 0-5.7-.4-.9.1-1.3.6-1.6 1.3-.1.2-.1.3-.2.5.1.6.4.9.9 1.2.6.3 1.2.6 1.9.5.5 0 1-.1 1.5 0 2.4.2 4.7-.2 7-.8.5-.1 1-.2 1.5-.2.3 0 .7 0 1-.1 2.1-.6 4.2-.5 6.3-.5.9 0 1.9-.1 2.9-.1.1.1.2.3.3.5.3 1.2.6 2.3 1.2 3.4 0 .6-.1 1.2-.1 1.8-.5.4-1 .3-1.4 0-.7-.6-1.4-.9-2.2-1.2h-.3c-.8 0-1.4.6-2.1.8-.2 0-.3.1-.5.1-1.4-.1-2.9-.3-4.3-.5-.6-.1-1.2-.2-1.9-.3-2.1.5-4.3.3-6.4 0-.8.2-1.5.3-2.2.5-.3.1-.6.3-.8.6-.5.6-.2 1.7.5 1.9.3.1.7.2 1 .1 1.3-.2 2.5.1 3.8 0 1.3-.1 2.5 0 3.8 0 .7 0 1.3.1 2 .2s1.5.1 2.3.1c.8 0 1.7 0 2.5.3.5.7.5.7.5 1.7-.2.6-.4 1.1-.9 1.5-.1 0-.2.1-.3 0-.5-.2-.7-.8-.8-.8-1.1.2-1.6.5-2.2.7-.1.3-.3.5-.4.7-.1.6 0 1.2-.3 1.8-.2.3-.5.4-.9.4-.9-.1-1.8-.1-2.8-.2-.6-.1-1.2-.2-1.7-.3-.9-.1-1.7.2-2.3.9-.2.2-.3.4-.5.6l-2.1 1.8c-.8.1-1.5-.4-2.2-.5-.4-.5-.8-1-1.2-1.4-.7-.4-1.3-.4-2-.1-.6 1-.5 2.3-1.1 3.6-1.2 1.9-2.7 3.6-4.9 4.5-.7 0-1.5 0-2.2.1-.7.1-1.3.3-2 .4-1.7-.4-3.4-.7-5.2-1.3-.7-.5-1.4-1.1-2.1-1.7-.2-.4-.5-.8-.7-1.2-.4-.1-.8-.2-1-.3-1.3 0-1.8 1.3-2.9 1.3-1.1-.6-1.6-1.6-2.3-2.4-.5-.4-1-.5-1.5-.4-.6.1-1.2.1-1.7.3-.7.3-1.5.3-2.2.3-1.2 0-2.4.1-3.5-.1-.2 0-.4-.3-.6-.5.9-1.5 2.2-2.7 2.8-4.4-.1-.3-.3-.6-.8-.7-.6.2-1.3.4-2 .6-.5.3-.6.8-.9 1.3-.2.4-.5.7-.8 1-.3.3-.6.3-.9.1-1-1.6-1-1.6-.7-2.6 1.2-.9 2.7-1.7 3.7-2.9.1-.5.2-.9-.1-1.3-.1-.1-.3-.2-.4-.3-.2 0-.3 0-.5.1-1.1.4-2.1 1-3.1 1.7-.4.7-1 .8-1.6.6zm32 115.8c-.9.9-1.9 1.3-3 .7-.2-.1-.3-.1-.5-.2-.5-.1-.9 0-1.2.3-.6.6-1.1 1.3-1.4 2.2-.4 1.1-.9 2.1-1.4 3-.7.4-1.2.3-1.9.1-.7-.6-.9-1.4-.7-2.3.2-1.1.6-2.2 1.2-3.1.5-.6.8-1.3 1.1-2.1.1-.3.1-.7.2-1 0-.3-.1-.5-.3-.7-.4-.3-.8-.6-1.6-.6-.2.1-.6.4-.9.6-.8 1.6-1.8 3.2-2.4 4.9-.2.6-.5 1.3-1 1.8-.1.1-.2.1-.2.1-.3.2-.7.2-.9-.1-.8-1-1.4-2-1.7-3.2-.1-.3-.1-.7 0-1 .1-.7.3-1.4.5-2 .2-.6.5-1.1.7-1.7 1.6-1.6 3.5-2.8 5.6-3.7l4.5-2.1c2.2-1.1 4.2-2.5 5.9-4.3.2-.2.4-.4.6-.5 1.1-.8 1.9-1.7 2.6-2.9.6-1 1.3-1.8 1.9-2.8.5-.8 1.1-1.5 1.8-2.2.8-.8 1.6-1.6 2.4-2.5 1-.4 2-.4 3 0 .6.2 1.2 0 1.5-.6.2-.3.3-.6.7-.8.2 0 .5.1.7.2.4.2.8.4 1.1.7.8.8 1.7 1.5 2.7 2.1.8.5 1.2 1.3 1.3 2.2l.3 2.4c.2.4.5.9.7 1.3-.1.2-.1.4-.2.5-.6.8-1.3 1.4-2.1 2-1.3.9-2.4 2-3.2 3.4-.5.8-1.1 1.5-1.7 2.3-.1.1-.3.3-.3.4-.4 1.6-1.8 2.5-2.7 3.6-1 .4-1.9.8-2.8 1.2-.3.1-.6.3-1 .4-.9.4-1.9.3-2.7.9-.7.5-1.5.8-2.3 1.2-.4.2-.8.3-1.4.6-.6.4-1 .9-1.5 1.3zm43.3 22.9c-.4.4-.8.6-1.3.8-.1 0-.4-.1-.4-.2-.2-.2-.3-.4-.4-.7-.5-1-1-2-1.6-3.3-.3-1.3-.2-2.8.4-4.3.4-.9.6-1.8.9-2.9.2-.3.5-.8.8-1.2.7-1.1.7-1.1 2.3-1.7 1.1.3 2.3.7 3.5 1 .7.6.9 1.3 1.7 1.5.3.1.6.4.8.6.7.9 1.4 1.8 1.8 2.8.4 1.2 1 2.4 1.6 3.6.1.1.1.3.1.5-.9.1-1.7.1-2.5.4-.8.2-1.6.2-2.3.4-1.1.4-2 1.1-2.9 1.8-1 .1-1.9.2-2.5.9zm70.9 11c-.3 0-.7 0-1 .1-1.2.6-2.5.6-3.8.9-1.2.3-2.4.4-3.6.6l-1.5.3h-.3c-.8-.1-1.4-1-2.5-.8-.4.4-.9.8-1.3 1.2-.2.1-.3.1-.4.1-1.8 0-3.6.4-5.4.7-1 .2-2 .5-3 .8-1.5.4-3 .9-4.6.8-.3 0-.7 0-1 .1-.9.4-1.9.3-2.8.3h-5.2c-.4 0-.8.2-1.3.3-.3.1-.7.1-.9-.2.7-.5.9-1.2.5-2-.6-.5-1.3-.5-1.9-.7-.6-.2-1.1-.5-1.6-.7-.8-.9-.9-1.9-.9-3 0-.5-.3-.8-.8-1-1.2-.4-2.3-.7-3.5-1-.3.1-.7.1-1 .2-.5.1-.8.3-.9.8-.1.5-.1 1.1.3 1.5.4.4 1 .7 1.8 1.3.4.5.9 1.5 1.8 1.9.3.8.5 1.5.7 2.3-.1.1-.3.2-.4.3-1.6 0-3.1-.4-4.6-1-1.9-.8-3.9-1.5-5.8-2.2-.9-.3-1.8-.6-2.6-1.1-.4-.2-.8-.4-1.2-.5-1-.3-2-.6-2.9-1.2-.4-.2-.8-.4-1.2-.4-.2 0-.4-.1-.5-.2-.8-.6-1.7-.8-2.6-1.2-.5-.2-.9-.6-1.1-.7-.5-.5-.5-.9-.7-1.2.5-.4.9-.2 1.4-.2.5 0 1.1-.1 1.4-.5.6-.6 1.2-1 1.9-1.3.4-.2.7-.5.8-1.3-.4-.8-.8-1.6-1.2-2.3.1-.1.2-.3.3-.4 1.1.9 1.5 2.3 2.4 3.5.3.1.7.3 1.1.5.7.2 1.4 0 1.8-.6 0-.7-.7-1-.9-1.6-.2-.5-.4-.9-.7-1.5 0-.5 0-1 .1-1.5 0-.3.1-.3.7-.7 3 1.8 2.1 1.5 5.4 2 .5.3 1 .6 1.5.8 2 .2 4.1-.1 5.9.4 1-.3 1.9-.6 2.8-.8.9-.2 1.7-.5 2.3-1 .5-.1 1-.1 1.4-.2 1-.4 2.1-.3 3.1-.2.9.1 1.7.3 2.6.4 1.2.6 2.6.3 3.8.8.7 0 1.4.1 2.1-.1 1.1-.3 2.2-.4 3.4-.4.9-.4 1.9-.9 2.5-1.6.2-.8-.5-1.5-.1-2.2 1.3 1 2.5 2.1 3.8 3.1.4.3.8.6 1.3.9 1.4.8 2.8.9 4.1-.3.1-.1.3-.2.5-.3.4 0 1-.1 1.6-.1.5-.4 1-.8 1.5-1.3 1 .1 1.9.6 2.8.9.9.3 1.8.7 2.8.7-.2.3-.3.5-.4.7-.4.9-.3 1.7.6 2.3.2.1.4.3.6.5.2.6.3 1.2.6 1.7.4.7.9 1.3 1.8 1.4.4 0 .9-.1 1.2.3-.3.4-.7.8-1 1.1-.1.8.2 1.4.8 1.8.3.2.8.4 1 .8-.8.4-1.3.3-1.7.4zm80.9-45.5c-.5.8-1 1.7-1.5 2.4s-.8 1.3-.9 2.1c-.1.5-.2 1-.7 1.4-.7-.7-.8-1.9-1.6-2.6-.8-.6-1.7-.1-2.6-.2-.3-.3-.6-.6-.8-1-.6-.3-1.3-.3-1.8 0-.8.4-1.7.5-2.5.5-.2 0-.3.1-.5.1-.4.1-.6.7-1.1.7-.2-.1-.3-.1-.5-.2-.7-.4-1.3-.3-2 .1-.4.3-.8.7-1.4.8-.9 0-1.9 0-2.8.1-.3 0-.7.1-1 .2-.6.3-1 .7-1.4 1.2 0 .1-.1.2-.1.3.1.8.5 1.4 1.3 1.8.5.1 1 .2 1.5.2l.2.2c.2.3.3.6.5.9.3.5.6.6 1.1.5.8-.2 1.5-.4 2.2-.6l1.5.6c.3.1.7.1 1 .2l.9-.6c.4-.3.7-.6 1.1-.8.2-.1.5-.1.8-.1.1.2.3.5.4.7.1.2.3.4.5.6.2.1.5.2.7.2 1 .1 1.5-.2 1.9-1 .2-.4.3-.8.4-1.2-.1-.3-.2-.7-.2-1-.1-.4 0-.5.6-.6 0 .1.1.1.1.2.1.7.2 1.4.3 2 .1.2.2.3.4.4.6.5 1.2.9 1.9 1.4-.4 1.3-1.1 2.4-1.9 3.4-.8 1.1-1.3 2.2-1.6 3.5-.3 1.2-.5 2.4-.5 3.6 0 .4-.1.9-.1 1.2-.5.9-1.1 1.4-1.8 2-.8.6-1.3 1.4-2 2.1-.6 1.4-1.9 2.3-2.5 3.5-1.4 1-2.9 1.5-4.4 1.9-.9.2-1.8.5-2.7 1-1.7 1-3.6 1.6-5.5 2.3-.3-.1-.5-.4-.4-.6.4-.7.8-1.3.7-2.2-.4-.6-.9-.7-1.3-.5-.4.3-1 .5-1.3.9-.4.6-1 .9-1.6 1.3-.3.2-.5.4-.7.6-.2.6-.3 1.1-.5 1.6-1.4.8-1.4.9-2.5 1-.9 0-1.7.2-2.5.6-1.3.5-2.4 1.4-3.7 1.8-.3.1-.6.3-.9.5-.2.1-.3.2-.4.3-1.3 1.1-2.9 1.8-4.5 2.6-.7.3-1.5.5-2.3.4-.4-.2-.8-.4-1.1-.5-.9-.1-1.6 0-2.3.5-.2.1-.6-.1-.6-.3-.1-.2-.1-.5-.2-.8-.1-.2-.3-.4-.6-.4h-.5c-.9.3-1.8.6-2.8.6-.5 0-1 .3-1.5.5s-.8.7-.8 1.2v.5c0 .3-.1.5-.5.7-5.7.1-11.4 0-17.1-.1-.2 0-.3-.1-.5-.2-.1-.4.1-.7.2-1 .2-.6.1-1.2-.6-1.5-.3-.2-.6-.3-.9-.5-.1-.1-.2-.3-.2-.4 0-.7.6-1.2.7-1.8.1-1.1-1-.9-1.3-1.5v-.7c.1-1.2-.4-1.8-1.6-2-.4-.1-.9-.2-1.3-.3-.4-.1-.8.3-1.2-.1.1-.7.6-1.2.6-2-.1-.2-.3-.4-.5-.6-.8-.1-1.7-.3-2.3-.4-1.8-.9-3.3-1.6-4.9-2.4-1-.5-2-.7-2.9.2-.1.1-.3.1-.5.2-.7-.2-1.4-.6-2.2-.7-.2 0-.3 0-.5.1-.6.4-.7.9-.6 1.7.3.3.6.8.9 1.2-.2.5-.3.5-.5.4-.2-.1-.3-.1-.5-.2-.9-.7-1.8-1.3-2.6-2.2-.4-.5-.9-.9-1.3-1.3-.7-.6-1.4-.6-2.2-.2-.5.3-.9.7-.6 1.5.1.2.1.5.2.7-.3.2-.5.4-.7.4-1 .2-2.1.2-3.1.6-.2.1-.3.1-.5.1-1.7 0-3.5.2-5.2-.4-1.1-.4-2.4-.6-3.5-.9-.7-.2-1.4-.2-2.1-.1-1.1.3-2.2.4-3.3.9-.7.3-1.5.5-2.2.7-.7.2-1.4.6-2.2.7-.6-.1-1.1-.3-1.6-.4-.5-.1-1-.2-1.4-.2-1-.6-1.9-1.2-2.7-1.7-.7-2.1-.7-2.1-.7-5.4.5-1.7 1.7-2.8 2.8-4 .2-.1.3-.1.5-.2 1.6-.9 3.4-1.4 5.2-1.4.3 0 .7-.1 1-.2.8-.3 1.7 0 2.6-.3.4-.2.9 0 1.3-.1h1.8c.8-.5 1.7-.6 2.2-1.2.3-.6.6-1.2.8-1.8.2-.6.6-1.1.4-1.7-.2-.6-.7-.8-1.2-.9-.4-.1-.9.1-1.2.3-.3.2-.6.4-.8.6-.4.5-1 .7-1.6 1-2.5.1-5.1.1-7.7.6-.4.1-.8.1-1.2.4-.4.2-.8.3-1.2.5-.3.1-.7.1-1.1-.1-.5-.8-1.1-1.8-1.6-2.7-.8-.8-1.8-.3-2.5-.6-.1-.1-.3-.3-.3-.4-.2-1.2-.7-2.3-.4-3.6-.3-.5-.5-.9-.8-1.4-.1-.1-.2-.2-.4-.3-.5-.1-.9 0-1.2.2-.5.3-.7 1-1.4 1.1-.4-.7.1-1.6-.7-2.2-.5-.1-1-.2-1.4-.5-.8-.4-1.6-.7-2.4-.9-.5-.1-1-.3-1.2-.8.1-.1.2-.3.3-.4 1.2-.6 2.1-1.5 3-2.5 1.5-1.7 3.1-3.3 4.8-4.8 1.8-1.6 3-3.6 3.5-6 .1-.3.1-.5.1-.7-.1-.8-.2-1.4-.3-2.1-.2-.2-.3-.5-.5-.6-.7-.6-1.3-.6-2.1.1-.4.9-.4 1.9-.5 2.8-.1 1-.4 1.9-1 2.6-.5.5-.9 1-1.2 1.7-.2.4-.5.7-.9.9-1.4.9-2.5 2.1-3.6 3.4-.9 1.1-1.9 2-3.1 2.8-1 .7-2 1.5-2.8 2.4-1.3 1.4-2.7 2.7-4.1 4-1.6 1.5-3.1 3-4.9 4.4-.9.7-1.8 1.4-2.6 2.2-.4.4-1.1.6-1.5 1-1 1.1-2.1 2-3.2 3-.8.8-1.6 1.6-2.5 2.3-.9.8-1.7 1.7-2.9 2.2-.2.1-.3.2-.4.3-1.1 1.3-2.6 2-4.1 2.8h-3.3c-.6 0-1.1-.7-1-1.3.1-.3.2-.7.4-.9.4-.5.9-.8 1.3-1.3.6-.8 1.2-1.7 1.7-2.6.5-.8.5-1.6 0-2.5-.3-.1-.5-.2-.7-.3-.3-.1-.6-.3-1-.4-.6.2-1.2.4-1.7.7-.3.4-.7.8-1 1.2-.6.9-1.1 1.8-1.7 2.6-.1.2-.3.4-.6.5-.1.1-.4 0-.5 0-.4-.3-.5-.9-.3-1.2.4-.8.9-1.5 1.5-2.1.2-.3.5-.5.5-.9 0-.7-.3-1.3-.8-1.8-.5-.2-.9-.6-1.5-.5-1 .4-1.6 1.3-2.2 1.8-.4.6-.4 1.1-.9 1.5-.6.3-1.2.6-1.9.9-.4.2-.8.3-1.3.3-.8.1-1.6-.1-2.1-.8-.2-.3-.5-.5-.7-.8-.2-.7-.4-1.5-.6-2.3.4-.4.6-.9 1.1-1.2.5-.4 1-.7 1.4-1.1.7-.7 1.5-1.1 2.5-1.4 1-.3 2-.6 2.9-1 1.2-.6 2.3-1.2 3.4-1.9 1.6-1 3-2.2 3.4-4 1.1-1.3 2.3-2.5 3.1-4 .3-.5.7-1 1.2-1.4 1.5-1.3 2.7-2.9 4.5-3.9.1 0 .1-.1.2-.2 1.1-1.1 2.3-2.2 3.3-3.3 1.2-1.3 2.5-2.4 4-3.3.2-.1.4-.3.6-.4.2-1.6.2-2.4-.1-3-.4-.1-.8-.5-1.5-.4-.3.1-.6.3-1 .5-.6.9-1.6 1.3-2.2 2.2-.5.6-1.1 1.1-1.7 1.6-.6.5-1.2 1-1.7 1.6-.1.1-.2.1-.2.1h-.3c-.8-.5-1.2-1.2-1.1-2.2 0-.5.1-1 .4-1.5.2-.4.3-.8.2-1.3-.1-.4-.3-.8-.7-1.1-.4-.2-.9-.1-1.3-.1s-.9 0-1.4-.3c-1.9-1.6-3.7-3.7-6.2-4.8-1 .1-2 .3-2.6 1.2-1.2-.3-1.2-1.6-2.3-2.4-.5-.6-1.6-.2-2.5-.7-.7-1.2-1.1-2.7-2.7-3.2-.6.1-1 .3-1.3.8-.2.5 0 1.1-.6 1.4-.2-.1-.5-.2-.6-.4-1.5-1.7-2.3-3.7-3.2-5.7-.1-.2-.1-.3-.1-.5-.1-.5-.1-1-.1-1.6-.1-.5-.5-1-.3-1.5.3-.5.6-1 .9-1.6-.1-.4-.2-.7-.3-1-.2-.9-1.2-1.3-1.4-2.2 0-.1-.2-.3-.3-.4-.1-.1-.3-.2-.5-.3h-.8c-.7.1-1.1.4-1.3 1.3.4 1.2.8 2.5 1.2 3.8-.5.5-1.2.7-1.4 1.5 0 .2-.5.3-.7.2-.4-.3-.9-.6-1.2-1-1.4-2-2.6-4.1-2.8-6.6-.1-.9-.4-1.7-.8-2.3-.4-.3-.7-.4-1.1-.2-.5.2-.8.7-1.4.7-1.5-1.1-2.3-2.1-3.5-4.5 0-.4-.1-1-.1-1.5-.1-.5-.2-1-.3-1.6.2-1.6.9-3.2.3-4.8-.3-.2-.6-.5-1-.4-1.3.5-1.9 1.4-2.1 2.7 0 .4-.1.9-.1 1.3v1c0 .1-.2.3-.3.4-.1.1-.5 0-.7-.3-.2-.3-.3-.6-.5-.9-.9-2.1-1.4-4.3-1.9-6.5-.1-.7-.2-1.4-.1-2.1.3-.7.5-1.4.8-2.1-.3-.8-.9-1.1-1.6-1-.7.2-1.1.9-1.9.9-.5-.1-.7-.5-.9-.9-.2-.5-.3-1-.3-1.5v-2.9c0-1 .1-1.9.4-2.8.1-.4.2-.8.3-1.3.1-.4-.1-.7-.4-1l-.9-.3c-.6.1-1.1.2-1.6.3-.4.1-.7-.1-.9-.4-.1-.4-.1-.9.1-1.3.4-.9.9-1.7 1.3-2.5s.9-1.5 1.3-2.3c.3-.6.5-1.3.5-2 0-.3-.3-.7-.6-.8-.3-.1-.7-.2-1-.2-.1-.2-.3-.4-.4-.6.3-.9.8-1.8 1.4-2.5.2-.2.3-.4.4-.7.2-.3.1-1-.1-1.2l-.9-.9c-.3-.3-.8-.4-1-1-.1-.3 0-.8.2-1.1.2-.4.5-.7.7-1.1.7-.9.9-1.9.6-3-.5-.8-1-1.6-1.6-2.4.1 0 .1-.1.2-.1 1.2-.1 2.1.2 3 .6.9.4 1.8.5 2.7.5.8 0 1.5-.1 2.2-.3.7-.3 1.5-.2 2.3-.1.4.1.9.2 1.1.5.8.9 1.9 1.5 2.9 2.1.1.1.3.1.6.3.4 0 1 .1 1.5.1.4-.3.7-.5 1.1-.8.7.7 1.5 1.4 2.1 2 1.6.7 3 1.3 4.2 1.8 1.7.1 3.2.2 4.9.4.5-.1 1.2-.2 1.9-.4.3-.1.7-.1.9-.3.7-.6 1.6-.6 2.3-1.1.7-.5 1.4-.9 2.2-1.4.6-.8 1.3-1.6 1.9-2.3.2-.2.4-.2.7-.4.6.3 1.2.5 2.1.3.2-.2.5-.4.9-.7.3-.2.5-.5.8-.6.9-.3 1.7-.7 2.6-1.1.3-.1.7-.1 1-.1.3 0 .6.2.9.4.6.2 1.1.1 1.7-.1.8-.2 1.1-1.1 2-1.4.9.1 1.9.2 2.9 0 1.4-.3 2.7 0 4 .1.5.1 1 .3 1.5.4 3.6.7 7 1.8 10.4 3.1.6.2 1.2.5 1.8.9.9.6 1.8 1.2 2.8 1.8.6.4 1.3.5 1.9-.1.3-.6.2-1.2 0-1.7-.1-.4-.4-.8-.8-1l-4.5-2.4c-1.7-.5-3.3-1.3-5-1.9-.2-.1-.5-.2-.7-.2-1.2-.1-2.3-.6-3.4-1-.9-.3-1.7-.6-2.7-.7-.8 0-1.5-.4-2.2-.7.3-.4.7-.3 1.1-.4.5-.1 1-.4 1.2-.8.6-1.1 1.4-2.1 1.7-3.4.1-.3.2-.7.3-1 .1-.1.2-.2.5-.4.7.2 1.3.4 1.8.4 2.3-.1 4.4 1 6.7 1.2.2 0 .3.1.5.2 1.3.5 2.6.6 4 .1.1 0 .2-.2.3-.4 0-.5-.3-1-.6-1.4-.6-.3-1.3-.7-2-1.1-.4-.1-.9 0-1.2-.2-1.1-.5-2.3-.6-3.4-.6-.5-.3-1.1-.3-1.4-.7.3-.9.7-1.8.7-2.8l-.9-3c-.1-.4.1-.7.4-.8h3.1c.5 0 1 0 1.5.1 2.2.5 4.5.7 6.7 1 .2 0 .3.1.5.2.5.6.9 1.4 1.9 1.7.6-.2 1.3-.5 2-.7.1-.1.3-.2.4-.4l.3-.9c.3-1 0-1.5-.9-1.9-.2-.1-.5-.2-.7-.2-1.7-.1-3.3-.6-5-.5-.2 0-.5 0-.8-.1-1.2-.3-2.5-.4-3.8-.5-.3 0-.6-.2-.9-.3-.5-.7-.9-1.4-1.3-2-.2-.3-.1-.7 0-1 .2-.4.4-.8.9-.9.6-.1 1.1-.5 1.5-1.2 0-.2 0-.4.1-.6.1.5.2.9.4 1.4 0 .1.2.3.4.5.7.1 1.5.2 1.8.2 1.4.4 2 1.3 2.6 1.9.3.2.6.3.9.5.7.2 1.3.4 2 .6.7-.3 1.2-.7 1.9-.9.8-.2 1.5.2 2 .2 1.3-.1 2.4-.2 3.4-.3.4 0 .7.1 1 .6 0 .3 0 .7.1 1.2.1.6.4 1.1.9 1.5.5.3 1.1.5 1.9.3.9-.6 2-1.1 3.2-1.5.4 0 .9 0 1.3.1.7.3 1.5.4 2.3.4.5 0 1 .1 1.5.3.4.2.9.1 1.3 0 .3-.1.7-.2.9-.4.6 0 1.2.1 1.8.1.6 0 1.2-.1 1.8 0 .7.1 1.4.2 2 .3 1.9-.5 3.5-1.4 4.9-2 .8-.6 1.4-1.2 2-1.6.6-.4 1.3-.4 2 0 .4.3.9.6 1.2.9.5.5 1.1.9 1.7 1.2.7.1 1.5.2 2.4 0 .3-.2.7-.4 1-.6.5-.3 1-.7 1.5-1 1-.8 2.2-1.4 3.4-1.8h3.4c.9 0 1.7-.1 2.6-.4 1.9-.5 3.8-1.2 5.8-1.5 1.2-.5 2.4-.3 3.5.3.1 0 .2 0 .2.1.8 0 1.6-.1 2.4-.1.5 0 1-.1 1.5-.3 1.2-.3 2.3-.6 3.5-1.2.7-.3 1.4-.3 2 .1.8.4 1.6.7 2.4.9 1.1.4 2.2.5 3.3.4 1.1-.1 2.3 0 3.2.1 1.1.3 1.8 1 2.2 1.9l.6 1.5c.3.9.4 1.9.4 2.8 0 .5.1 1 .4 1.4.9.7 1.8.8 2.8.6.5-.1 1-.2 1.5-.5 1.3-.6 2.7-.7 4.2-.3 2 1.2 3.8 2.9 6.2 3.6.6 1.1.1 2 .3 2.8.1.2.2.4.3.5 1.2 2.1 1.9 2.1 3.8 1.6.2 0 .3-.1.5-.2 1.1-.3 2.2-.4 3.1-.1 1.4.5 2.3 1.3 3.1 2.3 1 1.3 2.2 2.4 3.6 3.4.6.5 1.3.9 1.7 1.7.1.5.1 1.1.2 1.6.5.7.9 1.2 1.3 1.8.4.7.9 1.2 1.4 1.9.9.5 1.8 1.1 2.3 2.1.2 1 .3 2 .1 3.1-.1.8 0 1.6.4 2.3 2.7 1.7 2.7 1.7 4.2 4.5 0 .2.1.5.1.7 0 .7.2 1.4.6 2 .2.4.5.7.8 1 .8.7 1.4 1.6 1.7 2.6.1.2.2.5.3.7.7.4 1.3.8 2 1.3.4.3.8.7 1 1.2.1.2.1.5.2.7-.3.1-.5.2-.8.2h-1.8c-.6 0-.9.4-1.2 1v.7c0 .7.3 1.2 1 1.4.4.2.8.4 1.2.5.5.1 1 .2 1.6.2-.2.4-.4.8-.5 1.2-.2.6 0 1.2.4 1.7.4.4.8.6 1.2 1 .4.4.7 1 1.1 1.5.4.1.9.2 1.3.3.2.1.4.4.3.6-.1.2-.3.4-.5.6-.4-.2-.7-.6-1.2-.5-.5.2-.9.4-1.3.6-.5.5-.6 1-.7 1.6.4.5.8 1 1.2 1.6.6.2 1.1.4 1.7.6.6.2 1.1.5 1.6 1.1-.1 1.1-.1 2.3-.3 3.5 0 .1-.2.3-.3.4h-1c-.4.1-.8.3-1.1.7-.2.6-.5 1.1-.3 1.7.3.6 1 .8 1 1.5-.4.4-.8.9-1.2 1.3-.3.4-.3 1 0 1.5.2.3.4.5.7.7.1 0 .1.1.2.1.1.4.3.7.4 1.1-.2 0-.5.1-.7.2-.1 0-.1.1-.2.2-.1.7-.3 1.3-.1 2.2.2.2.4.6.7.9.3.3.7.5.8 1-.1.4-.2.8-.3 1.3.5 1.2 1 2.4 1.3 3.7.2 1.2.3 2.4-.3 3.6-.2.5 0 1.1.4 1.4.8.5 1.7 1 2.4 1.4.5.9.8 1.7.6 2.7-.2.4-.5.9-.8 1.5-.3.5-.6 1-.9 1.6-.3.5-.3 1-.1 1.5 0 .2.1.3.2.5.7 1.4.9 3 .9 4.6v1.7c.2.7.5 1.2.6 1.7.7.7 1.3 1.3 1.7 1.8.3.6.2 1.1.5 1.4l1.5.9c.7 1.3.7 1.3.7 2s-.1 1.4-.1 2.1c0 .2.1.3.2.6.3.5 1.2.6 1.5 1.2.6 1.1.3 1.7 0 2.2z"/>
</svg>
