<svg xmlns="http://www.w3.org/2000/svg" width="65.7" height="59.7" style="overflow:visible;enable-background:new 0 0 65.7 59.7" xml:space="preserve">
    <style>
        .st0{fill:#e7cfb0}.st1{fill:#7a6a56}.st2{fill:#fff}.st3{fill:#e7d9e0}
    </style>
    <path class="st0" d="M64.8 46.1c-.1.2-.2.4-.4.6-.1.2-.2.3-.2.5 0 .1-.1.3-.2.4-.2-.2-.2-.5-.4-.6-.2-.1-.4 0-.6-.1-.1-.1-.1-.2-.2-.2-.2-.1-.3-.1-.4 0-.2.1-.4.1-.6.1h-.1c-.1 0-.1.2-.3.2h-.1c-.2-.1-.3-.1-.5 0-.1.1-.2.2-.3.2h-.7c-.1 0-.2 0-.3.1l-.3.3v.1c0 .2.1.4.3.4.1 0 .3 0 .4.1l.1.1c0 .1.1.2.1.2.1.1.2.2.3.1.2 0 .4-.1.5-.2.1.1.3.1.4.1.1 0 .2 0 .3.1.1-.1.2-.1.2-.1.1-.1.2-.1.3-.2h.2c0 .1.1.1.1.2s.1.1.1.2c.1 0 .1 0 .2.1.2 0 .4 0 .5-.2 0-.1.1-.2.1-.3 0-.1 0-.2-.1-.3 0-.1 0-.1.1-.2v.1c0 .2.1.3.1.5l.1.1c.2.1.3.2.5.3-.1.3-.3.6-.5.9-.2.3-.3.6-.4.9-.1.3-.1.6-.1.9v.3c-.1.2-.3.4-.4.5-.2.1-.3.4-.5.5-.2.3-.5.6-.6.9-.4.3-.7.4-1.1.5-.2.1-.5.1-.7.3-.4.2-.9.4-1.4.6-.1 0-.1-.1-.1-.1.1-.2.2-.3.2-.5-.4-.5-.5-.5-.6-.5-.1.1-.2.1-.3.2-.1.1-.3.2-.4.3-.1 0-.1.1-.2.1 0 .2-.1.3-.1.4-.3.2-.3.2-.6.2-.2 0-.4.1-.6.1-.3.1-.6.3-.9.5-.1 0-.2.1-.2.1s-.1 0-.1.1c-.3.3-.7.5-1.1.6-.2.1-.4.1-.6.1-.1 0-.2-.1-.3-.1-.2 0-.4 0-.6.1 0 0-.1 0-.2-.1v-.2c0-.1-.1-.1-.1-.1h-.1c-.2.1-.5.1-.7.2-.1 0-.3.1-.4.1-.1.1-.2.2-.2.3v.1c0 .1 0 .1-.1.2h-4.3s-.1 0-.1-.1v-.2c.1-.2 0-.3-.1-.4-.1 0-.2-.1-.2-.1s0-.1-.1-.1c0-.2.2-.3.2-.5 0-.3-.2-.2-.3-.4v-.2c0-.3-.1-.4-.4-.5-.1 0-.2 0-.3-.1-.1 0-.2.1-.3 0 0-.2.2-.3.1-.5 0 0-.1-.1-.1-.2-.2 0-.4-.1-.6-.1l-1.2-.6c-.3-.1-.5-.2-.7.1 0 0-.1 0-.1.1-.2-.1-.4-.2-.5-.2h-.1c-.1.1-.2.2-.1.4.1.1.1.2.2.3l-.1.1h-.1c-.2-.2-.5-.3-.6-.5l-.3-.3c-.2-.1-.4-.1-.5-.1-.1.1-.2.2-.2.4 0 .1 0 .1.1.2-.1 0-.1.1-.2.1-.3 0-.5 0-.8.2h-.1c-.4 0-.9.1-1.3-.1-.3-.1-.6-.1-.9-.2-.2 0-.3-.1-.5 0-.3.1-.6.1-.8.2-.2.1-.4.1-.6.2-.2.1-.4.2-.5.2-.1 0-.3-.1-.4-.1-.1 0-.3 0-.4-.1-.3-.2-.5-.3-.7-.4-.2-.5-.2-.5-.2-1.4.1-.4.4-.7.7-1 0 0 .1 0 .1-.1.4-.2.8-.4 1.3-.4h.3c.2-.1.4 0 .6-.1h.7l.6-.3c.1-.2.1-.3.2-.4.1-.1.1-.3.1-.4-.1-.1-.2-.2-.3-.2-.1 0-.2 0-.3.1-.1 0-.2.1-.2.2-.1.1-.2.2-.4.2-.6 0-1.3 0-1.9.1-.1 0-.2 0-.3.1-.1.1-.2.1-.3.1h-.3c-.1-.2-.3-.5-.4-.7-.2-.2-.4-.1-.6-.2l-.1-.1c-.1-.3-.2-.6-.1-.9-.1-.1-.1-.2-.2-.3l-.1-.1c-.1 0-.2 0-.3.1l-.3.3c-.1-.2 0-.4-.2-.5-.1 0-.2-.1-.4-.1-.2-.1-.4-.2-.6-.2-.1 0-.2-.1-.3-.2 0 0 0-.1.1-.1.3-.1.5-.4.8-.6l1.2-1.2c.5-.4.7-.9.9-1.5v-.2c0-.2-.1-.4-.1-.5 0-.1-.1-.1-.1-.2-.2-.2-.3-.1-.5 0-.1.2-.1.5-.1.7 0 .2-.1.5-.3.7-.1.1-.2.3-.3.4 0 .1-.1.2-.2.2-.4.2-.6.5-.9.8-.2.3-.5.5-.8.7-.3.2-.5.4-.7.6-.3.4-.7.7-1 1-.4.4-.8.8-1.2 1.1-.2.2-.4.3-.6.6-.1.1-.3.2-.4.3l-.8.8-.6.6c-.2.2-.4.4-.7.5 0 0-.1 0-.1.1-.3.3-.6.5-1 .7h-.8c-.1 0-.3-.2-.2-.3 0-.1 0-.2.1-.2l.3-.3c.2-.2.3-.4.4-.7.1-.2.1-.4 0-.6-.1 0-.1-.1-.2-.1s-.2-.1-.2-.1c-.1.1-.3.1-.4.2-.1.1-.2.2-.2.3-.1.2-.3.4-.4.7 0 .1-.1.1-.1.1h-.1c-.1-.1-.1-.2-.1-.3.1-.2.2-.4.4-.5.1-.1.1-.1.1-.2 0-.2-.1-.3-.2-.5-.1-.1-.2-.2-.4-.1s-.4.3-.6.5c-.1.1-.1.3-.2.4-.2.1-.3.2-.5.2-.1 0-.2.1-.3.1-.2 0-.4 0-.5-.2l-.2-.2c-.1-.2-.1-.4-.2-.6l.3-.3c.1-.1.2-.2.4-.3.2-.2.4-.3.6-.4.3-.1.5-.1.7-.3.3-.1.6-.3.9-.5.4-.2.7-.5.8-1 .3-.3.6-.6.8-1l.3-.3c.4-.3.7-.7 1.1-1 .3-.3.6-.5.8-.8.3-.3.6-.6 1-.8.1 0 .1-.1.2-.1.1-.4 0-.6 0-.7-.1 0-.2-.1-.4-.1-.1 0-.2.1-.3.1-.1.2-.4.3-.6.5-.1.2-.3.3-.4.4-.2.1-.3.3-.4.4h-.2c-.2-.1-.3-.3-.3-.5 0-.1 0-.3.1-.4.1-.1.1-.2 0-.3 0-.1-.1-.2-.2-.3h-.3c-.1 0-.2 0-.4-.1-.5-.4-.9-.9-1.5-1.2-.3 0-.5.1-.6.3-.3-.1-.3-.4-.6-.6-.1-.2-.4 0-.6-.2-.2-.3-.3-.7-.7-.8-.1 0-.3.1-.3.2-.1.1 0 .3-.1.4-.1 0-.1 0-.2-.1-.9-.6-1.1-1.1-1.3-1.6v-.5c0-.1-.1-.2-.1-.4.1-.1.1-.3.2-.4 0-.1-.1-.2-.1-.3-.1-.2-.3-.3-.3-.5 0 0 0-.1-.1-.1 0 0-.1 0-.1-.1h-.2c-.2 0-.3.1-.3.3l.3.9c-.1.1-.3.2-.3.4 0 .1-.1.1-.2 0s-.2-.1-.3-.2c-.4-.5-.7-1-.7-1.7 0-.2-.1-.4-.2-.6-.1-.1-.2-.1-.3-.1-.1.1-.2.2-.3.2-.4-.3-.6-.5-.9-1.1v-.4c0-.1 0-.3-.1-.4.1-.4.2-.8.1-1.2-.1-.1-.1-.1-.2-.1-.3.1-.5.3-.5.7v.6s0 .1-.1.1c0 0-.1 0-.2-.1 0-.1-.1-.2-.1-.2-.2-.5-.4-1.1-.5-1.6 0-.2-.1-.3 0-.5s.1-.4.2-.5c-.2-.2-.3-.2-.5-.2s-.3.2-.5.2c-.1 0-.2-.1-.2-.2-.1-.1-.1-.2-.1-.4v-.7c0-.2 0-.5.1-.7 0-.1 0-.2.1-.3 0-.1 0-.2-.1-.2s-.2-.1-.2-.1c-.1 0-.3.1-.4.1-.1 0-.2 0-.2-.1v-.3l.3-.6.3-.6c.1-.2.1-.3.1-.5 0-.1-.1-.2-.1-.2-.1 0-.2 0-.3-.1 0-.1-.1-.1-.1-.2l.3-.6c0-.1.1-.1.1-.2V25c-.1-.1-.1-.2-.2-.2-.1-.1-.2-.1-.2-.2v-.3c.1-.2.1-.3.2-.3.2-.2.2-.5.2-.8-.1-.2-.2-.4-.4-.6.3 0 .5 0 .8.2.2.1.4.1.7.1.2 0 .4 0 .6-.1.2-.1.4 0 .6 0 .1 0 .2.1.3.1.2.2.5.4.7.5 0 0 .1 0 .2.1h.4c.1-.1.2-.1.3-.2.2.2.4.3.5.5.4.2.7.3 1 .5.4 0 .8.1 1.2.1.1 0 .3-.1.5-.1.1 0 .2 0 .2-.1l.6-.3.6-.3c.2-.2.3-.4.5-.6 0 0 .1-.1.2-.1.1.1.3.1.5.1.1 0 .1-.1.2-.2s.1-.1.2-.1l.6-.3h.2c.1 0 .2.1.2.1.1.1.3 0 .4 0 .2-.1.3-.3.5-.4.2 0 .5.1.7 0 .3-.1.7 0 1 0 .1 0 .2.1.4.1.9.2 1.8.5 2.6.8.2.1.3.1.5.2.2.2.5.3.7.4.2.1.3.1.5 0 .1-.1 0-.3 0-.4 0-.1-.1-.2-.2-.2-.4-.2-.7-.4-1.1-.6-.4-.1-.8-.3-1.2-.5-.1 0-.1 0-.2-.1-.3 0-.6-.2-.8-.3-.2-.1-.4-.2-.7-.2-.2 0-.4-.1-.5-.2.1-.1.2-.1.3-.1.1 0 .2-.1.3-.2.2-.3.4-.5.4-.9 0-.1 0-.2.1-.2l.1-.1c.2 0 .3.1.5.1.6 0 1.1.2 1.7.3 0 0 .1 0 .1.1.3.1.7.1 1 0l.1-.1c0-.1-.1-.2-.2-.4-.2-.1-.3-.2-.5-.3h-.3c-.3-.1-.6-.1-.8-.1-.1-.1-.3-.1-.4-.2.1-.2.2-.4.2-.7-.1-.2-.1-.5-.2-.7 0-.1 0-.2.1-.2H26.6c.6.1 1.1.2 1.7.2 0 0 .1 0 .1.1.1.1.2.4.5.4.2-.1.3-.1.5-.2l.1-.1c0-.1.1-.1.1-.2.1-.2 0-.4-.2-.5-.1 0-.1 0-.2-.1-.4 0-.8-.2-1.3-.1h-.2c-.3-.1-.6-.1-.9-.1-.1 0-.2 0-.2-.1-.1-.2-.2-.3-.3-.5v-.3c0-.1.1-.2.2-.2.2 0 .3-.1.4-.3v-.2c0 .1.1.2.1.4l.1.1c.2 0 .4 0 .4.1.4.1.5.3.7.5.1 0 .2.1.2.1.2.1.3.1.5.1.2-.1.3-.2.5-.2s.4 0 .5.1c.3 0 .6-.1.9-.1.1 0 .2 0 .2.1v.3c0 .2.1.3.2.4.1.1.3.1.5.1.2-.2.5-.3.8-.4h.3c.2.1.4.1.6.1.1 0 .3 0 .4.1h.3c.1 0 .2-.1.2-.1h1c.2 0 .3.1.5.1.5-.1.9-.4 1.2-.5.2-.2.3-.3.5-.4.2-.1.3-.1.5 0 .1.1.2.1.3.2.1.1.3.2.4.3.2 0 .4.1.6 0 .1 0 .2-.1.3-.1.1-.1.3-.2.4-.3.3-.2.5-.4.9-.5h.9c.2 0 .4 0 .6-.1.5-.1 1-.3 1.4-.4.3-.1.6-.1.9.1h.7c.1 0 .3 0 .4-.1l.9-.3c.2-.1.3-.1.5 0s.4.2.6.2c.3.1.5.1.8.1h.8c.3.1.4.2.5.5.1.1.1.2.1.4.1.2.1.5.1.7 0 .1 0 .3.1.4.2.2.4.2.7.2.1 0 .3-.1.4-.1.3-.1.7-.2 1-.1.5.3 1 .7 1.6.9.1.3 0 .5.1.7 0 0 0 .1.1.1.3.5.5.5 1 .4h.1c.3-.1.6-.1.8 0 .3.1.6.3.8.6l.9.9c.2.1.3.2.4.4 0 .1 0 .3.1.4.1.2.2.3.3.4.1.2.2.3.4.5.2.1.4.3.6.5.1.2.1.5 0 .8 0 .2 0 .4.1.6.7.4.7.4 1 1.1v.2c0 .2.1.3.2.5.1.1.1.2.2.2.2.2.3.4.4.6 0 .1 0 .1.1.2.2.1.3.2.5.3l.3.3v.2h-.7c-.1 0-.2.1-.3.3v.2c0 .2.1.3.2.4.1 0 .2.1.3.1.1 0 .3 0 .4.1 0 .1-.1.2-.1.3 0 .2 0 .3.1.4l.3.3c.1.1.2.2.3.4.1 0 .2 0 .3.1.1 0 .1.1.1.2s-.1.1-.1.1c-.1-.1-.2-.2-.3-.1-.1.1-.2.1-.3.1-.1.1-.1.3-.2.4.1.1.2.3.3.4.1 0 .3.1.4.1.2 0 .3.1.4.3 0 .3 0 .6-.1.9 0 0 0 .1-.1.1h-.3c-.1 0-.2.1-.3.2 0 .1-.1.3-.1.4.1.1.2.2.3.4l-.3.3c-.1.1-.1.3 0 .4l.2.2c0 .1.1.2.1.3H62.5c0 .2-.1.3 0 .6 0 .1.1.1.2.2s.2.1.2.3c0 .1 0 .2-.1.3.1.3.3.6.3.9.1.3.1.6-.1.9-.1.1 0 .3.1.3l.6.3c.1.2.2.4.2.7-.1.1-.1.2-.2.4-.1.1-.2.3-.2.4-.1.1-.1.2 0 .4v.1c.2.4.2.8.2 1.1v.4c.1.2.1.3.2.4l.4.4c.1.1 0 .3.1.4.1.1.3.2.4.2.2.3.2.3.2.5v.7c.1.1.3.1.4.3l-.6.6z"/>
    <path class="st1" d="M17.3 22.7c.4.2.8.3 1.1.5.1.1.2.1.2.1.3.1.6.3.7.7 0 .3.1.6.1.8 0 .3-.2.5-.4.8-.2.3-.4.5-.7.7h-.1c-.8.3-.8.3-1.6.2h-.4c-.5-.2-.8-.6-1.2-1-.1-.2-.2-.5-.3-.8 0-.3 0-.5.1-.7.2-.3.5-.5.7-.7.2-.1.3-.3.5-.4.2-.1.4-.2.6-.2h.7zm-.2 2.7c-.1-.1-.3-.2-.3-.3 0-.2 0-.3.1-.4.1-.3.3-.6.6-.8.1 0 .1-.1.1-.1v-.1c-.3-.2-.6-.2-.9-.3-.1.1-.2.2-.2.3-.2.1-.3.2-.4.2-.3.5-.3.5-.3.9.2.4.5.7.8 1 .2 0 .3.1.5.1s.4-.1.5-.1c.3 0 .5-.1.7-.2.1-.1.1-.2.2-.3.1-.1.2-.2.2-.3 0-.2-.1-.4 0-.5l-.1-.1c-.2.1-.4.2-.7.4-.1.2-.2.4-.4.5-.1 0-.3.1-.4.1zM19.3 30c.2 0 .3.2.4.2l.1-.1c.1-.1.1-.2.2-.3.1-.1.3-.1.4 0 .1.1.2.2.2.4v.1c0 .1.1.2.1.3-.1.1-.1.3-.1.4v.3c-.5.2-.5.2-.9.5 0 0-.1 0-.2.1-.1 0-.2.1-.3.2-.1.3-.2.5-.4.7-.2.1-.5.1-.6.3-.1.1 0 .3-.1.5-.1.1-.2.3-.3.4-.2 0-.3.1-.5.1-.1.1-.1.3-.2.4-.1.2-.3.2-.4.3-.2 0-.3-.1-.4-.2 0-.1-.1-.3-.1-.5.1-.2.2-.3.2-.5 0-.1.1-.2.2-.4.1-.1.3-.2.5-.1.1.1.2.1.3.2l.1-.1v-.4c-.1-.1-.1-.3 0-.4.1-.2.2-.3.4-.3s.3.1.4.2c0 0 .1 0 .2-.1.2-.1.2-.3.1-.5v-.1c-.1-.2 0-.4.1-.6.1-.1.2-.2.3-.2.1 0 .2 0 .3.1.1-.1 0-.2 0-.3v-.3c0-.1 0-.1.1-.1-.3-.1-.2-.2-.1-.2zM35.8 38.5c-.3.1-.5.1-.6-.1-.1 0-.1.1-.1.1 0 .1-.1.3-.1.5-.1.1-.2.2-.3.4-.2.1-.3.1-.5 0l-.1-.1v-.2c.1-.2.1-.5.1-.7v-.7c0-.1 0-.1.1-.1.1-.2.3-.3.6-.2.1 0 .1 0 .2.1h.1c.1-.1.1-.2.1-.3-.1-.1-.1-.2-.2-.3v-.3c.1-.2.2-.2.4-.2h.2c.1-.3.3-.7.2-1.1-.1-.1-.2-.2-.2-.3 0-.1 0-.2.1-.3.2-.2.3-.2.5-.1.1 0 .1.1.2.1.2 0 .2-.1.4-.2h.6c.1 0 .2.1.1.2 0 .1-.1.2-.1.2l-.3.3v.6c0 .1-.1.1-.1.2h-.4c-.1.1-.1.1-.1.2-.1.2-.2.4-.5.3 0 0-.1 0-.1.1s0 .3.1.4c0 .1.1.2.1.4-.3.5-.3.5-.4 1.1zM57.4 49.4v.4c-.1.2-.2.4-.3.5-.1.1-.2.1-.3.1-.1 0-.2 0-.2.1-.2.2-.5.3-.8.3-.1.2-.2.4-.3.5-.1.1-.2.2-.4.2s-.4.1-.5.1l-.2.2c-.1 0-.2 0-.3.1-.1.1-.2.2-.2.3-.6.2-1.2.3-1.8.2-.2-.1-.4-.2-.5-.3-.1-.1-.1-.3 0-.4.1-.2.3-.2.5-.2.2.1.4.1.6.2.2 0 .3 0 .5-.1h.4c0-.1.1-.1.1-.2v-.1c0-.4.1-.4.5-.5.3 0 .6-.1.8-.1.2-.1.3-.2.5-.3 0-.1 0-.1.1-.2.1-.2.2-.4.4-.4.3 0 .5-.1.8-.2.2-.1.4-.2.5-.4-.1.2 0 .2.1.2zM60.1 51c.2-.1.3-.3.5-.3.2-.1.3-.1.4.1v.4s.1.1.1 0c.1 0 .1-.1.1-.1.1-.1.1-.2.2-.3.1-.1.1-.1.2-.1s.2.1.2.2v.4c0 .1-.1.2-.2.4s-.2.4-.6.3l-.3-.3c-.2.3-.4.6-.8.7-.1 0-.1 0-.2-.1s-.2-.2-.3-.2c0-.1-.1-.2-.1-.3h-.5c-.2-.1-.3-.2-.5-.3H58c-.1 0-.2-.1-.2-.1-.1-.1-.1-.2-.1-.3 0-.1.1-.2.2-.4.2-.1.3-.2.5-.3.1-.2.2-.3.3-.5.1-.2.3-.2.4-.2.1 0 .2.1.2.2v.3l.1.1c.1 0 .2 0 .3.1.3.1.4.4.4.6-.1.1-.2.1-.2.3-.1 0-.2 0-.2.1v.1c0 .1 0 .1.1 0s.1-.1.1-.2c.2-.1.3-.1.2-.3z"/>
    <path class="st1" d="M57.4 49.4c-.1-.2-.2-.4-.3-.7l-.3-.3v-.2c0-.1 0-.2.1-.2.2-.2.3-.5.5-.7 0-.3.1-.5 0-.8.1-.3.3-.6.6-.7 0-.2-.2-.2-.1-.5.1-.1.1-.1.5-.2.1 0 .2.1.4.1l.1.1v.2c0 .2-.2.3-.3.4-.1 0-.2.1-.3.1v.5c0 .2 0 .4-.1.6 0 .2-.1.3-.1.5-.1.1-.2.2-.2.4-.1.1-.2.2-.2.3 0 .1.1.1.2.2h.4c.1 0 .2-.1.3-.2h.3c0 .1.1.1.1.2v.5l-.1.1c-.1.1-.2.1-.3.2-.4.1-.8.1-1.2.1zM15.4 33.9c.1 0 .3.1.4.1.1.1.1.2.1.3-.1.2-.1.4-.2.5-.2.2-.4.2-.5.2-.2-.1-.4-.2-.6-.4-.3 0-.5-.1-.8-.1-.1 0-.1 0-.2-.1-.2-.1-.4-.2-.6-.2-.2 0-.3-.1-.3-.3v-1.1c0-.1 0-.2.1-.3.1-.1.1-.1.3-.1.1.1.2.1.3.2h.7c.2 0 .3.2.5.3.1 0 .2 0 .3.1.2.4.3.6.5.9zM45.1 28.3c0 .1.1.1.1.1 0 .1-.1.2-.2.2s-.2.1-.3.1c-.4 0-.8.2-1.1.2-.2.1-.3.1-.4.3-.1.1-.1.1 0 .2 0 .1.1.1.1.2s0 .1-.1.2c-.1 0-.1.1-.2.1-.6.2-1.1.4-1.7.6-.4.1-.7.3-1 .6-.4-.1-.4-.1-.5-.4.2-.3.5-.6.8-.8.2 0 .4-.2.7-.2.4-.1.7-.2 1-.4l.1-.1c0-.2-.1-.5.1-.8.4 0 .8-.1 1.2-.1.2 0 .4-.1.6-.1.2 0 .3.1.5.1.2-.1.2 0 .3 0zM34.5 28.1c.1-.1.2-.1.4-.2s.3-.1.5 0v.6c-.1.1-.1.2-.2.3 0 .1 0 .1.1.2h.2c.2 0 .3.1.4.2.1.2 0 .5-.2.7l-.1.1c-.1 0-.1.1-.2.1-.2.1-.4.1-.6.2h-.2c-.2-.1-.3-.2-.3-.3-.1-.1-.1-.3 0-.4l.3-.3c0-.1 0-.1-.1-.1-.2-.1-.4-.2-.6-.2-.1 0-.2-.1-.4-.1-.2-.1-.3-.2-.2-.4 0-.2.2-.3.4-.3h.3c0-.2.2-.2.5-.1zM56.1 53.7c.2.1.4.1.6 0h.2c.1 0 .2.1.2.2v.4c-.2.2-.5.3-.8.4h-.1c-.5-.1-.4-.1-.6-.5-.1-.1-.2-.1-.3-.2-.2-.1-.3-.2-.3-.4v-.2c.1-.2.3-.2.4-.3 0-.1 0-.1-.1-.1h-.2c-.1 0-.2-.1-.3-.1-.2-.1-.2-.4-.1-.6 0-.1.1-.1.1-.1.2-.1.3-.1.5-.1h.5c.1.1.2.1.2.3 0 .2 0 .4-.2.5-.1 0-.2.1-.2.1v.1c.4-.1.4-.1.8-.3.2 0 .3.1.3.3 0 .2 0 .3-.2.4l-.4.2zM34.9 44.6c0 .1-.1.2-.2.2h-.2l-.3-.3v-1.3c0-.1-.1-.1-.1-.2-.1-.2-.1-.3 0-.5.1-.3.1-.6.2-.8.1-.2.2-.5.4-.8 0-.1.2-.1.4-.2h.3c.2.1.3.3.2.4 0 .1-.1.1-.1.2-.2.2-.3.5-.4.7 0 .1-.1.2-.1.3 0 .1 0 .2.1.3l.1.1c.1.1.2.3.1.4v.1c-.1.2-.1.3-.1.5-.3.3-.3.6-.3.9zM47.2 53c.3 0 .6 0 1 .1h.8c.2-.1.5-.2.8-.3.1-.1.3-.1.4 0 .1 0 .1.1.2.1.1.2 0 .3 0 .5 0 .1-.1.3-.2.3-.2 0-.3.1-.5.2-.1.1-.3.2-.5.2s-.4.1-.6.1c-.4 0-.7-.1-1-.2-.2-.1-.4-.1-.5-.2-.1-.1-.1-.3-.2-.4 0-.2.1-.3.3-.4zM48.4 27.2c-.4 0-.7 0-1 .1h-.3c-.1 0-.3 0-.4-.1-.3-.2-.7-.5-1-.7-.1 0-.1-.1-.1-.1-.1-.1-.1-.3-.1-.4 0-.2.2-.3.4-.3s.3.1.5.2l.3.3c.2.2.4.3.9.2 0 0 .2-.1.3-.1.2-.1.3-.1.5 0s.2.2.2.4c0 .1 0 .2-.1.3.1.1 0 .1-.1.2zM22.6 26.8c0-.2.2-.3.3-.5 0-.2-.2-.3-.2-.5 0 0 0-.1.1-.2.2-.3.5-.2.6 0 .1.2.2.4.2.7v.5c-.1.1-.1.2-.2.3-.1 0-.2.1-.4.1-.1.1-.1.2-.1.2.1.2.1.5.1.7 0 .1-.1.3-.1.4-.1.2-.3.2-.4.1-.1 0-.2-.1-.2-.2 0-.2 0-.3.1-.4 0-.1-.1-.2-.2-.4-.1-.1-.1-.2-.1-.3 0-.1 0-.2.1-.3.1-.1.2-.2.4-.2zM45.8 54.9c-.6-.3-1.1-.6-1.5-1-.1-.1-.2-.2-.3-.2-.1-.1-.1-.2-.1-.3 0-.1.1-.3.2-.3s.2-.1.4 0l.3.3c.3.4.8.7 1.3.9.1 0 .2 0 .3.1h.4c.1 0 .2.2.1.3-.1.1-.1.2-.2.3-.1.1-.1.1-.2.1h-.2c-.3-.2-.4-.2-.5-.2zM26.1 27.2h-.3c-.2-.2-.3-.5-.4-.7-.1-.1-.2-.2-.3-.2 0-.1 0-.2.1-.4.1-.1.3-.2.4-.3.1-.1.1-.3.3-.4.1-.1.3-.1.4-.1.1 0 .1.1.2.1 0 .1.1.1.1.1.1.3.1.6.2.8v.3c0 .1-.1.3-.2.3-.3.2-.4.4-.5.5zM50.6 56.1l-.6.3c-.2 0-.4 0-.5-.1-.1-.1-.2-.2-.2-.4v-.3c-.1-.1-.2-.2-.3-.4-.1-.1 0-.2 0-.3.1-.1.1-.2.2-.2.4 0 .7 0 1.1-.1l.1.1c0 .3 0 .3-.2.7 0 0 0 .1.1.1s.2 0 .2.1c.1 0 .2.2.1.3.1 0 0 .1 0 .2zM37.3 33.2c.2-.4.5-.7.7-1 .2-.2.5-.4.7-.6.2-.2.4-.2.7-.1.2 0 .3.1.5.2.1.1.1.2 0 .3-.1.1-.2.1-.3.1-.3 0-.5.1-.7.3l-.5.5c-.2.2-.3.3-.4.5 0 .1-.1.1-.2.2s-.2.1-.3 0c-.1 0-.2-.1-.2-.2v-.2zM49.3 48c.2 0 .3-.1.5-.1.2-.1.2-.4.3-.5.2-.1.3-.1.5 0 .2 0 .3.2.3.3 0 .2 0 .3-.1.5-.2.1-.3 0-.5 0-.1 0-.2.2-.2.3-.2.1-.4.2-.6.4-.2.1-.4.1-.6.1l-.3-.3c-.1-.2 0-.3 0-.5.1-.4.4-.4.7-.2zM32.7 34.4c-.1.3-.3.4-.6.4h-.3c-.1 0-.2-.1-.3-.1v.2c-.1.3-.2.5-.5.5h-.3c-.2 0-.3-.3-.2-.5.1-.1.2-.2.3-.2h.7c.1 0 .2-.1.2-.2v-.8c0-.2.2-.3.4-.3h.2c.2.2.2.4.2.6.1 0 .2.1.2.4zM17.7 29l-.2-.2c-.2-.1-.3-.1-.5-.2-.1-.1-.1-.2-.1-.3.1-.2.1-.4.3-.5.1-.1.2 0 .3-.1.1-.1.2-.2.4-.3h.1c.1 0 .1.1.2.1l.2.2c.1.3.1.6 0 .9 0 .1-.1.2-.1.2-.1.1-.2.2-.3.2h-.3zM37 33.6c0 .1-.1.2-.1.3-.2.1-.3.1-.5.1-.1-.1-.2-.3-.2-.5l-.1-.1c-.2-.1-.3-.1-.5-.2-.1-.1-.3-.1-.4-.3v-.2c0-.1 0-.2.1-.3.1-.1.2-.2.4-.2s.3.2.5.3c.2.1.3.2.5.3.1 0 .2.2.3.3-.1.2-.1.3 0 .5zM19.1 35.2c.1-.2.2-.4.4-.4.1 0 .2.1.3.1l.1.1c0 .1.1.1.1.2.1.2.2.4.4.5.1.2.1.4.1.7-.1.2-.2.3-.4.3s-.3-.1-.4-.3c-.2-.4-.4-.7-.6-1.2zM20.8 29.8c.1-.3.3-.4.4-.7 0-.1-.1-.2-.1-.4 0-.1 0-.3.1-.4.1-.1.2-.2.3-.2.2.1.4.2.4.5v.6c0 .1-.1.3-.1.5-.1.2-.2.3-.4.4-.3.1-.3.1-.6-.3zM34.5 45.4c.2-.1.3-.1.4-.2.2 0 .3.1.4.3v.4c0 .1 0 .3.1.5 0 .3-.1.6-.1.9-.1.1-.2.2-.3.1-.1 0-.1-.1-.2-.1l-.1-.1c0-.3-.1-.7-.2-1 0-.2-.1-.3 0-.5-.1-.1-.1-.2 0-.3zM31.6 43.1l.2-.2c.1-.6.1-.6-.1-1.1v-.1c0-.1 0-.2.1-.3.1-.1.3-.1.4 0 .1 0 .1.1.2.1.1.3.1.6.1.9 0 .2 0 .5-.1.7-.1.3-.3.4-.5.3-.1 0-.1-.1-.2-.1s-.1-.1-.1-.2zM18.8 35.5c.1.2.1.3.2.4.1.1.2.1.2.2 0 .2.1.3.1.4-.1.1-.1.2-.2.4 0 0-.1.1-.2.1-.2.1-.4 0-.5-.2v-.1c0-.2 0-.3-.1-.5-.1-.1-.2-.3-.3-.4v-.3c.1-.1.2-.2.4-.2.2.1.3.1.4.2zM33.3 39.9c0 .1.1.3.1.4 0 .1.1.3.2.4-.1.4-.2.7-.5.8-.1-.1-.2-.1-.2-.1-.1-.1-.1-.1-.1-.2s0-.2.1-.4c0-.1-.1-.2-.2-.3 0-.1-.1-.2-.1-.4V40c0-.2.2-.3.4-.3.1.1.2.1.3.2zM56 26.6c-.3-.2-.3-.5-.3-.7l-.3-.3c-.1-.2 0-.4.2-.5h.3c.1 0 .2 0 .3.1.1.1.2.3.3.4.1.2.1.4 0 .6-.1.3-.2.4-.5.4zM44.2 27.4c.2-.2.4-.2.7-.2.1 0 .3.1.4.1.2.1.4.1.6.2.1 0 .2.1.3.1.1.1.1.4-.1.4-.1 0-.1.1-.2.1-.2 0-.4 0-.6-.1-.1-.1-.3-.1-.4-.1-.2 0-.3-.1-.4-.2l-.3-.3zM23.2 32.7c-.1-.2-.1-.4-.2-.6-.1-.1-.1-.2-.1-.4 0-.1.1-.4.2-.4.2-.1.4 0 .5.1.1.2.2.3.3.5v.7c-.1.1-.3.2-.4.2-.1 0-.2-.1-.3-.1zM25.8 45.5v-.7c.1-.1.3-.2.4-.3h.3c.2.1.4.3.5.5v.1c-.1.2-.2.3-.4.5-.1.1-.1.1-.2.1s-.4 0-.6-.2zM48.5 32.1c.1.1.1.2.2.4 0 .2-.1.3-.2.4l-.5.5c-.2.1-.3.1-.4.1-.1-.1-.3-.1-.3-.3 0-.1 0-.2.1-.3.1-.1.3-.2.4-.3l.3-.3c.1-.3.3-.3.4-.2zM21.8 32.8c.2 0 .3 0 .4.1.1.1.1.3.3.5.1.1.2.3.3.4-.1.2-.1.3-.2.5s-.4.2-.5 0c-.1-.1-.1-.1-.1-.2s0-.2-.1-.2c-.2-.1-.2-.3-.3-.5v-.3c.1-.1.2-.2.2-.3zM20.9 34c.3.3.5.6.7 1 0 .2-.1.3-.2.4-.1.1-.3.1-.4.1-.1-.1-.3-.2-.4-.4-.1-.1-.1-.2-.2-.4 0-.1-.1-.2-.1-.2 0-.2.1-.4.3-.4h.1c.1-.1.2-.1.2-.1zM29.3 39.7c-.1-.2-.2-.3-.2-.4.1-.3.3-.3.5-.4.2-.1.3-.4.6-.4.1 0 .1.1.2.1.1.2.1.5 0 .7-.1.2-.2.3-.4.4h-.7zM53.3 37.1c.1-.2.2-.3.4-.4h.2c.1 0 .3.1.3.2.1.3.1.6.2.9 0 .2-.1.4-.3.5h-.2l-.1-.1c0-.1-.1-.2-.1-.2-.3-.3-.4-.6-.4-.9zM16.9 37.4v.4c-.1.1-.2.1-.3.1 0 0-.1-.1-.2-.1s-.1-.1-.2-.1l-.1-.1c0-.1-.1-.3-.2-.3-.2-.1-.2-.3-.3-.5 0-.2.2-.2.3-.3.1-.1.3 0 .4 0 .2.1.3.3.4.5.1.1.1.3.2.4zM24.1 30.7c-.1-.1-.1-.2-.2-.4-.1-.1-.1-.2-.2-.3-.1-.2-.1-.4.2-.6.3 0 .5.1.8.3.1.2.2.3.3.5 0 0 0 .1-.1.1-.1.1-.2.2-.2.3-.2.2-.4.2-.6.1zM48.8 33.6c.2-.1.3-.3.5-.3.3.2.3.4.2.7-.1.2-.2.4-.4.5-.2.2-.4.2-.6.1-.1-.1-.2-.2-.2-.4 0-.1 0-.1.1-.2.2 0 .3-.2.4-.4zM18.1 36.5c.1.2.1.4 0 .5-.1.1-.2.3-.3.3-.2 0-.3-.1-.4-.2-.1-.2-.2-.4-.3-.7-.1-.1 0-.3.1-.4l.1-.1c.2-.1.4-.1.5.1 0 .3.1.4.3.5zM50.2 38.3c0 .1 0 .1-.1.2-.1.3-.3.4-.6.4l-.1-.1v-.2c0-.2 0-.4-.1-.6v-.3c0-.2.1-.3.3-.4.2 0 .4 0 .4.2.1.1.1.3.1.4.1.1.1.3.1.4zM36.1 31.7c-.2 0-.4-.1-.6-.1-.2 0-.4-.1-.5-.2-.2-.1-.3-.3-.3-.5v-.1c.2-.2.3-.1.6-.1.1.1.2.1.3.2.1.1.2.1.3.2.1.1.2.2.2.3.1 0 .1.1 0 .3.1 0 0 0 0 0zM25.1 27.5c.1.2.3.4.4.6.1.2 0 .4 0 .6 0 .2-.3.3-.4.2-.1 0-.1-.1-.2-.1l-.1-.1c-.1-.1-.1-.2-.2-.2-.1-.2-.1-.4-.2-.5-.1-.2.2-.5.3-.4.2-.2.3-.1.4-.1zM50.6 33.1c.1-.2.2-.3.4-.4.1-.1.3 0 .4.1 0 .1.1.1.1.2 0 .2.1.4.1.6 0 .1-.1.2-.1.3-.1.2-.3.2-.5.2-.1-.1-.2-.2-.3-.2-.1-.2 0-.3 0-.4 0-.1-.1-.3-.1-.4zM30.6 31.9c-.2-.1-.3-.2-.5-.3-.1-.2-.2-.3-.3-.5 0-.1 0-.1.1-.2.1-.2.3-.2.5-.2.1 0 .3.1.4.1.2.2.2.4.2.6 0 .1-.1.2-.1.3 0 .1-.1.1-.3.2zM55.2 41.1c0 .2-.1.3-.3.5h-.5s-.1 0-.1-.1c-.1-.2-.3-.3-.4-.5-.1-.1-.1-.2 0-.3.1-.1.2-.2.3-.2h.2c.4.1.6.3.8.6zM46.7 31.9v.6c-.2.2-.4.3-.5.4-.2.1-.3 0-.5-.1s-.2-.3-.1-.5c.2-.3.4-.4.7-.5h.1c.1-.1.2 0 .3.1zM12.5 26.4c-.1 0-.2 0-.4-.2 0 0-.1-.1 0-.2 0-.3-.1-.6-.1-.8 0-.1.1-.2.1-.2h.5l.2.2c.1.2.1.4.1.6-.1.3-.2.5-.4.6zM23.9 24.3c.1.2.1.3.2.5 0 .3-.2.4-.4.5h-.1c-.2 0-.2-.2-.4-.3-.1-.1-.1-.3-.2-.4-.1-.3 0-.4.2-.5 0 0 .1 0 .1-.1.3.1.4.2.6.3zM50 43.8c.2-.1.3-.2.5-.3.1 0 .2.1.3.2 0 0 .1.1.1.2v.3c0 .2-.1.3-.3.3-.2.1-.4.1-.6.2-.1 0-.1 0-.2-.1-.2-.1-.2-.3-.1-.5.1 0 .2-.2.3-.3zM56.2 36.8c.2.2.2.5.2.7 0 .1-.1.2-.1.2-.1.1-.2.2-.3.2-.1 0-.2-.1-.3-.2-.1-.2-.1-.3-.1-.5s0-.3.2-.4c.1-.1.2-.1.3 0-.1-.1 0-.1.1 0zM35.4 48c.1.1.1.1 0 0 .2.3.3.5.4.6v.5c-.1.1-.2.2-.4.2 0 0-.1 0-.1-.1l-.1-.1c-.1-.3-.3-.5-.4-.7v-.3c0-.1.1-.1.1-.1.2-.1.4-.1.5 0zM41.3 21.6v.2c0 .2-.1.3-.3.4-.3-.1-.6-.2-.8-.4l-.1-.1c.1-.3.2-.5.5-.5.2 0 .3.1.4.2.1 0 .2 0 .3.2zM52.3 38.2c-.2 0-.3-.1-.4-.2v-.1c0-.2-.1-.5-.1-.7.1-.2.2-.3.4-.3.1 0 .3 0 .3.2.2.2.2.5.2.7-.1.2-.2.3-.4.4zM30.9 28.8c.1 0 .2 0 .3.1l.4.4c.1.1.1.2 0 .3-.1.1-.2.2-.4.2-.2-.1-.4-.3-.6-.4-.1-.1-.1-.4.1-.5 0 0 .1-.1.2-.1zM26.4 39.7c-.1.1-.2.1-.3.2h-.3c-.2 0-.3-.2-.4-.4 0-.1 0-.2.1-.3l.2-.2c.1-.1.2-.1.4-.2.2 0 .3.1.5.2-.1.3-.2.5-.2.7zM23.9 21.7c.2.1.3.2.3.3 0 .1 0 .2-.1.3-.1.2-.3.4-.6.3-.1 0-.2-.1-.3-.2-.1-.1-.2-.3-.2-.5 0-.1 0-.1.1-.2s.2-.1.3-.1c.2.1.4.1.5.1zM38.5 22.7H38c-.3 0-.4-.1-.5-.3v-.2c0-.1.1-.1.1-.2.3-.1.6-.1.9-.1.2.1.2.4.2.5-.1.2-.2.2-.2.3zM52 44.8c.1-.4.5-.4.8-.3.2.1.2.2.2.4 0 .1 0 .3-.1.4 0 .1-.1.1-.2.1h-.3c-.3-.1-.4-.2-.4-.6-.1 0 0 0 0 0zM49 19.4c.1 0 .1.1.2.1.1.1.2.2.2.4 0 .1-.1.2-.2.2-.3 0-.6 0-.9-.1-.1 0-.1-.1-.1-.2v-.2c0-.1.1-.2.3-.2.1-.1.3-.1.5 0zM43.2 20.1c0 .1-.1.2-.2.3-.2.1-.4.1-.5-.1 0 0-.1-.1-.1-.2-.1-.1-.2-.3-.3-.4 0-.2.1-.2.2-.3.1-.1.2-.1.4-.1.1 0 .1.1.1.1.1.1.1.2.2.3 0 .2.1.3.2.4zM40.5 19.8c-.1.2-.1.2-.4.3-.2-.1-.3-.1-.5-.2-.1 0-.2-.1-.3-.2-.1-.1-.1-.2 0-.3.4-.3.7-.3 1.1.2.1.1.1.2.1.2zM11.6 25.8s0 .1-.1.1c0 .1-.2.1-.3.1-.1 0-.2-.1-.3-.2v-.6c0-.3.1-.4.4-.4.1 0 .2.1.2.2.1.3.2.5.1.8zM12.9 28.1c.2 0 .3.1.4.3.1.2.1.3.2.5-.1.2-.2.3-.4.3-.1-.1-.3-.2-.4-.3-.1-.1-.1-.2-.2-.3-.1-.1 0-.2 0-.3.1-.1.2-.1.4-.2zM63.1 45.6c0-.1-.1-.2-.2-.3-.1-.2 0-.4.1-.5.2-.1.4-.1.5 0l.1.1c0 .1.1.1.1.1v.6l-.1.1c-.1.1-.3 0-.5-.1zM24.1 23.4v.4l-.1.1h-.3c-.1 0-.3-.1-.4-.2 0-.1-.1-.2-.1-.3-.1-.2.1-.4.2-.4h.2c.2 0 .3.1.5.2-.1 0-.1.1 0 .2zM56 27.2c.2.1.3.2.4.3.2.2.2.4.1.6 0 .1-.1.2-.3.2H56c-.1 0-.2-.1-.3-.2-.1-.1-.1-.2-.1-.4.1-.1.2-.3.4-.5 0 .1 0 .1 0 0zM13.2 31h-.5c-.1-.1-.1-.2-.1-.3.1-.2.1-.4.3-.5.1 0 .2-.1.3 0 .1 0 .3.1.4.2 0 0 .1.1 0 .2l-.4.4zM27.5 42.6c-.1 0-.2-.1-.3-.1-.2-.2-.1-.4-.1-.6.1-.2.3-.2.5-.3.2 0 .3.1.4.2v.1c0 .3-.1.5-.3.6-.1 0-.1.1-.2.1zM28.8 19.8h.4c.2 0 .4.1.5.2.1.1.1.3 0 .4-.2.2-.4.2-.7.1-.1 0-.1-.1-.2-.1-.1-.1-.2-.1-.2-.3 0-.1.1-.2.2-.3zM52.8 42.7c-.2.2-.4.3-.6.4h-.4c-.1-.1-.2-.1-.1-.3 0-.1.1-.2.2-.3.1-.1.3-.2.4-.2.1 0 .1 0 .2.1.1 0 .2.1.3.3zM29.6 36.7c0 .2-.1.4-.3.5-.1.1-.2.1-.3.1-.2 0-.3-.1-.4-.3v-.3c0-.1 0-.2.1-.2.1-.1.2-.1.3-.2h.1c.2.1.4.2.5.4zM13.1 25.8c0-.1 0-.2.1-.3l.1-.1c.2-.1.3-.1.5 0 .1.1.2.3.3.5-.1.2-.3.3-.5.3-.1 0-.2 0-.2-.1l-.3-.3zM37.3 20.8c-.1-.1-.2-.1-.3-.2-.1 0-.1-.2 0-.2.1-.2.2-.3.4-.3s.3 0 .4.1c.1 0 .2.1.3.2 0 .1.1.1.1.2s-.1.2-.2.2h-.7zM30.5 36.4c-.1-.1-.3-.1-.4-.2-.1-.1-.3 0-.4-.1 0-.1 0-.2.1-.3.1-.1.3-.2.4-.3.1 0 .3 0 .4.1.1 0 .1.1.1.2v.3c0 .2-.1.3-.2.3zM45.3 19.3v-.2c0-.2.1-.3.3-.3h.4c.1 0 .1.1.2.2.1.2.1.3 0 .5 0 .1-.1.2-.2.2h-.2c-.2-.1-.4-.2-.5-.4zM27.6 24.9c-.2.1-.4.1-.6 0-.1-.1-.2-.2-.1-.3 0-.2.1-.3.2-.4.1-.1.4-.1.5 0 .1.1.1.3.2.4-.1.1-.2.2-.2.3zM52.4 33.6c0-.1-.1-.1-.1-.2s.1-.3.1-.4c.1-.1.2-.1.3-.1.1 0 .2 0 .2.1l.2.2c.1.1.1.3.1.5 0 .1-.2.2-.3.2-.2-.2-.3-.3-.5-.3z"/>
    <path class="st1" d="M19.2 27.4c.1.1.1.2.1.4s-.1.3-.3.4h-.3c-.1-.1-.2-.3-.3-.4v-.3c.1-.1.2-.2.3-.1.3-.2.4-.1.5 0zM38.4 22.8c.2 0 .3.1.5.2.1.1.2.3.1.4-.1.1-.2.2-.2.3-.1 0-.1.1-.1.1h-.4c-.2-.2-.2-.3-.1-.4.1-.1.2-.2.2-.3.1-.2 0-.3 0-.3zM11.9 28.4c.1.1.1.3.1.5-.1.1-.2.1-.3.2h-.2c-.2 0-.3-.1-.3-.3-.1-.1 0-.3 0-.4.1-.1.1-.1.2-.1.2 0 .4 0 .5.1zM54.7 32.7v.2c0 .1-.1.3-.1.3-.1.1-.2.1-.3.2-.1 0-.3 0-.4-.1-.1 0-.2-.2-.1-.3 0-.2.2-.3.3-.4h.1c.2 0 .4.1.5.1zM27 35.3c-.4.1-.6-.1-.8-.4 0-.2.2-.3.4-.4h.3c.1 0 .1.1.1.1.1.2.1.4 0 .7.1-.1 0-.1 0 0zM43.9 21.7c-.1.1-.1.2-.2.4 0 .1-.1.1-.3.2-.2-.1-.3-.2-.4-.4-.1-.1 0-.2 0-.3l.1-.1h.1c.2 0 .4 0 .6.1l.1.1z"/>
    <path class="st0" d="m28.9 55.6-.3-.6.1-.1c.3.2.4.6.6.9.1 0 .2.1.3.1.2.1.3 0 .5-.2 0-.2-.2-.3-.2-.4 0-.1-.1-.2-.2-.4v-.4c0-.1 0-.1.2-.2.8.4.5.4 1.3.5.1.1.2.1.4.2.5 0 1 0 1.5.1.3-.1.5-.2.7-.2.2 0 .4-.1.6-.3.1 0 .2 0 .3-.1.3-.1.5-.1.8 0 .2 0 .4.1.6.1.3.2.6.1 1 .2h.5c.3-.1.6-.1.8-.1.2-.1.5-.2.6-.4 0-.2-.1-.4 0-.6.3.3.6.5.9.8.1.1.2.2.3.2.4.2.7.2 1-.1 0 0 .1 0 .1-.1h.4c.1-.1.2-.2.4-.3.3 0 .5.1.7.2.2.1.4.2.7.2 0 .1-.1.1-.1.2-.1.2-.1.4.1.6.1 0 .1.1.1.1 0 .2.1.3.1.4.1.2.2.3.4.3.1 0 .2 0 .3.1-.1.1-.2.2-.2.3 0 .2 0 .3.2.5.1.1.2.1.2.2-.1.1-.2 0-.3 0H44c-.3.2-.6.1-.9.2-.3.1-.6.1-.9.2-.1 0-.3.1-.4.1h-.1c-.2 0-.4-.3-.6-.2l-.3.3h-.1c-.5 0-.9.1-1.4.2-.3 0-.5.1-.8.2-.4.1-.8.2-1.2.2H37c-.2.1-.5.1-.7.1H35c-.1 0-.2.1-.3.1h-.2c.2-.1.2-.3.1-.5-.1-.1-.3-.1-.5-.2-.1-.1-.3-.1-.4-.2-.2-.2-.2-.5-.2-.7 0-.1-.1-.2-.2-.2-.3-.1-.6-.2-.9-.2h-.3c-.1 0-.2.1-.2.2s0 .3.1.4c.1.1.2.2.4.3.1.1.2.4.5.5.1.2.1.4.2.6 0 0-.1 0-.1.1-.4 0-.8-.1-1.1-.3l-1.5-.6c-.2-.1-.5-.1-.7-.3-.1-.1-.2-.1-.3-.1-.3-.1-.5-.1-.7-.3-.1-.1-.2-.1-.3-.1h-.1l-.6-.3c-.1-.1-.2-.1-.3-.2-.1-.1-.1-.2-.2-.3.1-.1.2 0 .3 0 .1 0 .3 0 .4-.1.1-.1.3-.2.5-.3.4 0 .5-.1.5-.3zm9.9 1s0 .1.1.1c.1.1.2.2.4.2h.1c.1 0 .2.1.2.2 0 .2.1.3.2.4.1.1.3.2.5.2h.4c.2 0 .3-.2.3-.4 0-.1-.1-.2-.2-.3-.1-.1-.2-.1-.3-.2 0-.1.1-.2.1-.3v-.3c0-.1-.1-.2-.2-.2 0-.1.1-.2.1-.4 0-.1 0-.2-.1-.3h-.2c-.1 0-.2-.1-.3-.1h-.5c-.1 0-.2 0-.3.1-.1 0-.1.1-.2.2v.4c0 .1.1.2.2.2l.1.1c-.3 0-.4.2-.4.4zm-6.2-.5c.2.1.5.3.7.4.1.1.2.1.4.1s.3-.1.3-.3v-.1c-.2-.2-.4-.4-.7-.6-.2-.1-.4-.1-.6 0-.1 0-.2.1-.2.2v.1c0 .1.1.2.1.2zM16.4 48.7l-.3.3c-.2.2-.5.3-.8.2h-.1c-.1 0-.2 0-.3.1-.2.2-.3.3-.4.5-.1.3-.2.5-.4.7-.2.1-.3.1-.5 0s-.2-.3-.2-.6c.1-.3.1-.6.3-.8.1-.2.2-.3.3-.5v-.3c0-.1 0-.1-.1-.2s-.2-.2-.4-.1c-.1 0-.1.1-.2.1-.2.4-.5.8-.6 1.2-.1.2-.1.3-.3.5H12.1c-.2-.2-.4-.5-.4-.8v-.3c0-.2.1-.3.1-.5 0-.1.1-.3.2-.4.4-.4.9-.7 1.4-.9.4-.2.7-.3 1.1-.5.5-.3 1-.6 1.5-1.1l.1-.1c.3-.2.5-.4.7-.7.1-.2.3-.5.5-.7.1-.2.3-.4.5-.6l.6-.6c.2-.1.5-.1.8 0 .2.1.3 0 .4-.2 0-.1.1-.2.2-.2h.2c.1.1.2.1.3.2.2.2.4.4.7.5.2.1.3.3.3.5s0 .4.1.6c.1.1.1.2.2.3v.1c-.1.2-.3.3-.5.5-.3.2-.6.5-.8.8-.1.2-.3.4-.4.6l-.1.1c-.1.4-.4.6-.7.9-.3.1-.5.2-.7.3-.3.4-.4.4-.4.4-.2.1-.5.1-.7.2l-.6.3c-.1.1-.2.1-.3.2zM27.9 51.7c.2.2.2.3.4.4.1 0 .2.1.2.2.2.2.4.4.4.7.1.3.2.6.4.9v.1c-.2 0-.4 0-.6.1-.2.1-.4 0-.6.1-.3.1-.5.3-.7.4-.2 0-.4 0-.6.2-.1.1-.2.2-.3.2h-.1s-.1-.1-.1-.2c-.1-.3-.2-.5-.4-.8-.1-.3-.1-.7.1-1.1.1-.2.1-.5.2-.7.1-.1.1-.2.2-.3.2-.3.2-.3.6-.4.3 0 .6.1.9.2z"/>
    <path class="st2" d="M17.1 25.4c.2 0 .3-.1.4-.2.1-.2.3-.4.4-.5.2-.2.5-.3.7-.4 0 0 .2.1.1.1-.1.2 0 .3 0 .5-.1.1-.1.2-.2.3-.1.1-.1.2-.2.3-.2.1-.4.2-.7.2-.2 0-.3 0-.5.1-.1 0-.3-.1-.5-.1-.4-.3-.6-.6-.8-1 0-.4 0-.4.3-.9.1-.1.3-.1.4-.2.1-.1.2-.2.2-.3.3.1.7.1.9.3v.1l-.1.1c-.3.2-.5.5-.6.8-.1.1-.1.3-.1.4 0 .2.1.4.3.4zM59.9 51.3c0-.2.1-.2.3-.3 0 .2-.1.2-.3.3zM59.9 51.2c0 .1-.1.1-.1.2h-.1v-.1s.1-.1.2-.1z"/>
    <path class="st1" d="M38.8 56.6c0-.2.1-.4.3-.6H39c-.1 0-.2-.1-.2-.2-.1-.1-.1-.3 0-.4 0-.1.1-.2.2-.2s.2 0 .3-.1h.5c.1 0 .2.1.3.1h.2c.1.1.1.2.1.3 0 .1-.1.2-.1.4.1.1.2.1.2.2v.3c-.1.1-.1.2-.1.3.1.1.2.1.3.2.1.1.2.2.2.3 0 .2-.1.4-.3.4h-.4c-.2 0-.3-.1-.5-.2-.1-.1-.2-.2-.2-.4 0-.1-.1-.1-.2-.2h-.1c-.2 0-.3-.1-.4-.2 0 .1 0 .1 0 0zM32.6 56.1c0-.1-.1-.1-.1-.2v-.1c0-.1.1-.2.2-.2.2-.1.4-.1.6 0 .3.1.5.3.7.6v.1c0 .2-.1.3-.3.3-.1 0-.3 0-.4-.1-.2-.1-.5-.2-.7-.4zM11.2 23.3c.1 0 .1.1.1.1l-.1.1c-.1-.1-.1-.1 0-.2-.1 0 0 0 0 0z"/>
    <path class="st0" d="M12.3 22.6c-.3-.1-.4-.4-.6-.6-.1-.1-.2-.1-.4-.1-.1 0-.3 0-.4.1-.2.1-.4.1-.6.1h-.9l-.1-.1c.2-.4.6-.7.7-1.1 0-.1-.1-.1-.2-.2-.2 0-.3.1-.5.2-.1.1-.1.2-.2.3-.1.1-.1.2-.2.2-.1.1-.2.1-.2 0-.2-.4-.2-.4-.2-.7.3-.2.7-.4.9-.7v-.3l-.1-.1h-.1c-.2.1-.5.3-.7.4-.1.1-.3.1-.4 0-.1 0-.1 0-.2-.1-.3-.1-.5-.4-.5-.8V19l.1-.1c.2.1.5 0 .7-.1.2-.1.4-.1.5-.2.2 0 .4-.1.6-.1h.1c.1 0 .2 0 .4-.1l.3-.3c.1-.1 0-.2 0-.3 0-.1-.1-.1-.2-.1-.2 0-.3 0-.4-.1-.2.1-.4.2-.6.2l-.6.3c-.2 0-.4.1-.6.2-.1 0-.2-.1-.3-.1-.2 0-.3.1-.5.1s-.3 0-.4-.1v-.1c.1-.1.1-.3.2-.4.1-.1.1-.3 0-.4 0-.2-.2-.3-.3-.3h-.6l-.1-.1c0-.3.1-.5.2-.9 0-.2.1-.5 0-.8-.1 0-.1-.1-.2-.1s-.2-.1-.4-.1l-.1-.1v-.1c.1-.1.3-.1.4-.3.1-.2.1-.4.1-.7l-.1-.1h-.5c.1-.2.3-.3.4-.5.1-.1.1-.2 0-.2-.1-.1-.1-.2-.2-.3v-.9c.1-.2.1-.4.3-.6.1-.2.3-.4.4-.6v-.9c0-.1.1-.2.2-.3.1-.1.2-.2.3-.2.3-.2.5-.5.8-.7l.6-.9c0-.2 0-.5.1-.7 0-.1.1-.2.2-.3-.2-.2-.4-.4-.3-.6-.2-.3-.3-.6-.5-.9-.3-.3-.7-.7-1-1.1v-.2c0-.1.1-.3.1-.4V3c0-.1.1-.1.1 0 .2.2.5.3.7.5.3.3.8.5 1.2.6.2 0 .4.1.7.2 0 0 .1 0 .1.1.2.2.4.3.7.4.2 0 .3.1.4.1.2.2.4.4.6.5.1 0 .2-.1.3-.2v-.3s.1 0 .1.1c.4.1.6.1.8 0 0-.1.1-.1.1-.2v-.1h.1c.2.1.3.1.4.3.1.1.2.1.2.1h.3c.1 0 .2-.1.2-.1h.2c.2 0 .2.1.4.2.1.1.1.1.2.1.1.1.2.1.3.1.1 0 .2-.1.2-.2.1-.1.2-.1.3 0 0 .1.1.1.1.2.1.2.3.5.6.6 0 0 .1 0 .1-.1.1-.2.3-.4.4-.6l.1.1c.2.3.4.4.7.5.2 0 .4.1.5.1.2 0 .2-.2.4-.4.3-.1.7-.1 1-.3.1-.3.4-.5.6-.7.2-.1.4 0 .7 0 .1 0 .1-.1.2-.1.2-.1.3-.2.4-.4.2-.3.3-.7.5-1 .2-.4.5-.7.8-1 .3-.4.7-.6 1.1-.9.1-.1.2-.1.3-.2 0 0 .1 0 .1-.1h.6c.2.1.2.3.3.4 0 .3.1.5.2.8.2.4.2.6.3.9v1.5c-.1.2-.2.3-.2.5v.9c-.1.3-.3.6-.3.9.1.1.2.3.3.4 0 .2.1.4.2.6.2.3.5.6.6 1.1v.9c0 .3.1.6.1.9-.1.5-.1.5 0 1-.1.3-.2.7-.2 1-.1.2-.2.5-.3.7-.3.2-.3.5-.3.7v.5c.1.3.3.5.6.7.1.1.1.2.1.3 0 .1-.1.2-.2.2s-.2 0-.4.1c-.1 0-.2.1-.2.3 0 .2.1.3.1.5l-.1.1h-.2c-.2-.1-.5-.1-.8-.1h-1c-.3 0-.7.1-1 .1-.4 0-.8.1-1.2.2-.1 0-.3.1-.4.1-.5 0-1 0-1.4-.1-.2 0-.3.2-.4.3v.1c0 .1.1.2.2.3.2.1.3.1.5.1h.4c.6 0 1.2 0 1.8-.2.1 0 .2 0 .4-.1h.3c.5-.2 1-.1 1.6-.1h.7l.1.1c.1.3.2.6.3.8v.5c-.1.1-.2.1-.3 0l-.6-.3h-.1c-.2 0-.3.1-.5.2h-.1c-.4 0-.7-.1-1.1-.1-.1 0-.3-.1-.5-.1-.5.1-1.1.1-1.6 0-.2 0-.4.1-.6.1-.1 0-.1.1-.2.1-.1.1-.1.4.1.5h3.1c.2 0 .4 0 .6.1.1.2.1.2.1.4-.1.1-.1.3-.2.4h-.1c-.1 0-.2-.2-.2-.2-.3 0-.4.1-.5.2 0 .1-.1.1-.1.2s0 .3-.1.4c-.2.3-.3.3-.4.3-.2 0-.5 0-.7-.1-.1 0-.3-.1-.4-.1-.2 0-.4.1-.6.2l-.1.1c-.2.2-.4.3-.5.5-.2 0-.4-.1-.5-.1-.1-.1-.2-.3-.3-.4-.2-.1-.3-.1-.5 0-.2.3-.1.6-.3.9-.3.5-.7.9-1.2 1.1h-.6c-.2 0-.3.1-.5.1-.4-.1-.9-.2-1.3-.3-.2-.1-.3-.3-.5-.4-.1-.1-.1-.2-.2-.3-.1 0-.2-.1-.2-.1-.4.2-.5.5-.8.5zM23.9 8.2c.1-.2.2-.4.2-.7 0-.3 0-.5.1-.8 0-.1 0-.2.1-.3.1-.4.1-.8 0-1.2 0-.3-.1-1.1-.1-1.4V3c0-.1-.1-.2-.2-.2h-.4c-.4.1-.7.2-1 .5-.1.1-.2.2-.3.2-.2.1-.4.3-.5.5-.3.4-.7.8-1 1.3-.1.2-.3.3-.5.5-.1.1-.1.1-.1.2-.1.2 0 .3.1.4-.3.3-.3.4 0 .6h.2c.2 0 .4-.1.6-.1.4.2.8.5 1.1.7.3.1.5 0 .8.1l.2.2c.1.1.2.1.3.2.1.1.3.1.4.1zm-9.2 7.7c-.3.3-.4.7-.7.9-.1 0-.2-.1-.3-.2l-.2-.2c-.3-.1-.4-.3-.7-.5h-.1c-.2 0-.3.1-.4.2-.1.1-.1.2 0 .4.1.1.3.2.4.3l.3.3c.2.2.3.4.3.7 0 .4.1.8 0 1.2-.1.1-.1.2-.2.2-.3.2-.6.6-.9.8-.1.1-.1.2-.2.3v.2c.1.2.3.3.6.3.3-.2.6-.4.8-.7.1-.2.3-.3.4-.4.2.1.4.2.5.3.2.2.4.3.7.4h.6c.1 0 .1 0 .2-.1.2-.1.3-.3.3-.5v-.1c-.4-.3-.4-.3-1-.2-.3-.1-.5-.3-.7-.6 0-.3 0-.5-.1-.7 0-.1-.2-.1-.2-.3.1-.2.1-.4.3-.6.2-.4.5-.7.9-1 0-.3-.1-.5-.2-.8 0 0-.1 0-.1-.1 0 .3-.1.4-.3.5zm6.2-.5.3.3c.1.1.3.1.4.1.2 0 .4-.1.6-.1.2 0 .3-.2.3-.4V15c0-.2-.1-.3-.1-.5-.2-.2-.3-.1-.5-.1l-.3.3c-.1 0-.2 0-.4-.1-.1.1-.3.2-.4.4.1.1.1.3.1.4zm1-3.3c-.2 0-.5 0-.7.2v.2c0 .2 0 .3.1.4 0 .1.1.2.2.3h.4c.1 0 .1 0 .2-.1v-.3c0-.1.1-.2.2-.2.2.1.3.2.5.1.1-.1.2-.2.2-.4-.1-.2-.1-.4-.2-.5-.1-.1-.1-.1-.2-.1-.2 0-.3 0-.4.2-.2 0-.3.1-.3.2zm-5.9-4c-.2.1-.3.1-.5.2-.1.1-.2.2-.2.3.1.2.3.3.5.4h.1c.2 0 .3-.1.3-.2v-.6l.3-.3c.1-.1.1-.3.1-.4-.1-.2-.2-.3-.4-.4-.1 0-.1 0-.2-.1-.1 0-.3.1-.4.1-.1.1 0 .3.1.4.1.1.1.2.2.2 0 .3 0 .4.1.4zm-2.3 1.1c.1.1.2.1.3.1h.4c.1 0 .2-.2.2-.3-.1-.2-.2-.4-.3-.5-.1 0-.2-.1-.2-.2v-.1c.1-.2.1-.4-.1-.5-.1-.2-.3-.2-.5-.2-.1 0-.2.1-.3.2 0 .2.1.3.2.4.1.1.2.1.3.2l.1.1c0 .1-.1.2-.1.4-.1.2 0 .3 0 .4zm10 1.7c.1-.1.3-.3.3-.4 0-.1-.1-.3-.1-.4h-.4c-.2 0-.3 0-.5.1s-.2.3-.2.5c.4.2.5.3.9.2zM12 9.9c.1-.1.1-.1.2-.1l.1-.1c.1-.1.1-.3 0-.4-.1-.1-.3-.2-.4-.4-.1-.1-.2-.1-.4 0-.1.1-.2.2-.3.5.1.1.1.2.2.4.3 0 .4 0 .6.1zm3.9 12.2c0 .1.1.2.2.3.1.1.2.1.3.1.2 0 .4-.1.4-.3 0-.2.1-.4 0-.6-.1-.1-.2-.1-.3-.2-.1 0-.3.1-.4.2-.1 0-.1.1-.1.1-.1.2-.1.3-.1.4zM12.3 8.6c0-.1.1-.1.1-.2v-.2c-.1-.2-.2-.3-.4-.5-.1-.1-.2-.1-.4 0l-.3.3s0 .1-.1.2l.3.3c.3 0 .5.1.8.1zm7.2 7.4c0-.2-.2-.3-.3-.4-.1-.1-.1-.1-.3-.1-.1 0-.2.1-.2.1-.1.1-.2.3-.2.4 0 .2.1.3.3.4.1.1.3.1.4 0 .1 0 .2-.2.3-.4zM9.3 7.8s0-.1-.1-.1c0 0-.1 0-.1-.1-.2-.1-.5 0-.7.1-.1 0-.1.2-.1.2.1.2.2.3.3.5h.1c.2 0 .3 0 .4-.2 0-.1 0-.2.1-.3.2 0 .1-.1.1-.1zm14.6 6.9c-.1-.1-.1-.2-.2-.2-.2-.2-.4-.2-.6-.1-.2.1-.2.2-.2.4.1.3.3.5.6.3.1 0 .1-.1.2-.1s.2-.1.2-.3zM13.1 14c.1.1.3.2.4.3h.2c.1 0 .1 0 .2-.1s.1-.3.2-.4v-.2c0-.1-.1-.1-.1-.2h-.3c-.1 0-.2.1-.3.2-.3 0-.3.2-.3.4zm1.5-3.7c.1.2.1.2.5.3.2 0 .3-.2.4-.4.1-.2 0-.5-.2-.5h-.2c-.3 0-.4 0-.5.3v.3zm-2.7-2.8h.1c.2 0 .4-.1.4-.3 0-.2-.1-.4-.2-.5 0 0-.1 0-.1-.1-.2-.1-.4 0-.5.2-.1.1-.1.2 0 .3.1.1.2.3.3.4zm7.2.9c.1 0 .2.1.3.1.1-.1.3-.1.4-.2.1-.1.1-.2 0-.4 0-.1-.1-.2-.2-.3h-.1c-.2-.1-.3-.1-.5.1 0 .1 0 .2-.1.3v.2l.2.2zm-10 8.2V16.9c0 .2.2.3.4.3s.4-.1.5-.3v-.2c0-.1-.1-.2-.1-.3 0-.1-.1-.1-.1-.1-.4.1-.5.2-.7.3z"/>
    <path class="st3" d="M7.3 6.8c0 .2-.2.2-.3.2 0 .1-.1.2-.2.2h-.1c-.3-.4-.7-.7-1-1.1 0-.1 0-.1.1-.2.1-.2.2-.4.4-.5h.1c.1 0 .1.1.1.2.1.1.1.2.2.3.2.2.5.6.7.9z"/>
    <path class="st1" d="M23.9 8.2c-.2.1-.3.1-.5 0-.1 0-.2-.1-.3-.2 0-.1-.1-.2-.1-.2-.3-.1-.5 0-.8-.1-.4-.2-.7-.5-1.1-.7h-.8c-.3-.2-.3-.3-.2-.7 0-.1-.1-.2-.1-.4 0 0 .1-.1.1-.2l.5-.5c.3-.4.7-.8 1-1.3.1-.2.3-.4.5-.5.1-.1.2-.1.3-.2.3-.3.6-.4 1-.5h.4c.1 0 .2.1.2.2 0 .3.1.5 0 .8 0 .3 0 1.1.1 1.4.1.4 0 .8 0 1.2 0 .1 0 .2-.1.3-.1.2-.1.5-.1.8.2.3.1.5 0 .8zm-.6-1.3c0-.1.1-.3.1-.4.1-.6.2-1.1 0-1.7 0-.3-.1-.7-.1-1v-.1s-.1-.1-.2-.1H23c-.4.3-.7.5-1 .9-.2.2-.2.5-.4.6-.2.2-.4.4-.5.7V6l.2.2c.4.2.7.4 1 .7h1c-.1.1-.1.1 0 0zM20.1 13.1c-.2.3-.4.5-.7.8-.1.1-.2.2-.3.2-.3.1-.5.1-.8.2-.4.1-.8-.1-1.2-.2-.2-.1-.3-.1-.5-.2-.1-.1-.1-.2-.2-.2-.1-.1-.2-.1-.2-.2-.1-.1-.1-.2-.1-.3v-.3c-.2-.5-.1-.9-.1-1.3 0-.2.1-.3.2-.6.1-.2.3-.5.5-.7.3-.2.6-.3 1-.4h1.4c.1.1.2.1.2.1.6.4.9.7 1 1.5v.1c.1.3.1.6 0 .9-.1.2-.1.4-.2.6zm-3.2-.5c.1.1.2.2.3.2.1.1.1.3.3.4.4.2 1 .1 1.5 0 .1-.1.2-.3.3-.4.2-.2.3-.4.3-.7 0-.2 0-.3-.1-.4 0-.1-.1-.2-.1-.3-.1-.2-.2-.3-.4-.4-.1-.1-.2-.1-.3-.1h-1.2l-.3.3c-.2.1-.3.3-.3.4 0 .1-.1.3-.1.4 0 .2 0 .3.1.5-.1 0 0 .1 0 .1zM10.2 9.9c.3.1.5.1.7.1.3.1.6.4.8.6 0 .1.1.3.2.4.1.1.1.2.2.3.1.5.1 1-.1 1.6-.1.2-.4.5-.7.7-.3.3-.5.4-.7.4h-.3c-.2.1-.3.2-.5.2-.5-.1-1-.2-1.4-.5-.1-.2-.3-.4-.3-.7-.1 0-.1 0-.2-.1 0-.1-.1-.1-.1-.2.1-.3 0-.5.1-.8l.3-.3c0-.1 0-.2.1-.3.1-.3.2-.5.4-.7.1-.1.2-.1.3-.2.3-.2.8-.3 1.2-.5zm-1.6 2.3c0 .3.2.6.4.9l.4.4c.1 0 .2.1.3.1.1-.1.3-.1.4-.2.4-.1.8-.4 1-.8.1-.3 0-.5 0-.8 0-.2-.1-.5-.3-.6-.1-.1-.3-.2-.4-.3h-.6c-.1.1-.3.2-.4.3-.1.1-.3.1-.4.3v.5c0 .1-.1.2-.2.3-.1-.2-.1-.1-.2-.1zM14.7 15.9c.1-.1.3-.2.4-.3 0 0 .1 0 .1.1.1.3.2.5.2.8-.3.3-.6.6-.9 1-.2.1-.2.4-.3.6 0 .1.1.2.2.3.1.2.2.5.1.7.1.3.4.5.7.6.5-.1.5-.1 1 .2v.1c0 .2-.1.4-.3.5 0 0-.1.1-.2.1h-.6c-.3-.1-.5-.2-.7-.4-.1-.1-.3-.2-.5-.3-.2.1-.3.2-.4.4-.2.3-.5.5-.8.7-.3 0-.5-.1-.6-.3-.1-.1-.1-.2 0-.2 0-.1.1-.2.2-.3.3-.3.6-.6.9-.8.1 0 .1-.1.2-.2.1-.4 0-.8 0-1.2 0-.3-.2-.5-.3-.7l-.3-.3c-.2-.1-.3-.2-.4-.3-.1-.1-.1-.3 0-.4.1-.1.2-.2.4-.2h.1c.3.1.4.3.7.5.1 0 .1.1.2.2s.2.2.3.2c.3-.4.4-.8.6-1.1zM20.9 15.4V15c.1-.2.2-.3.4-.4.1 0 .2 0 .4.1l.3-.3c.2 0 .3-.1.5.1 0 .2.1.3.1.5v.3c0 .2-.1.3-.3.4-.2 0-.4.1-.6.1-.2 0-.3 0-.4-.1-.2-.1-.3-.2-.4-.3zM21.9 12.1c.1-.1.1-.2.2-.3.1-.2.3-.2.4-.2.1 0 .2 0 .2.1.1.2.1.4.2.5 0 .2-.1.3-.2.4-.2.1-.4.1-.5-.1-.1 0-.2.1-.2.2v.3c-.1 0-.1.1-.2.1h-.4c-.1-.1-.2-.2-.2-.3 0-.1 0-.3-.1-.4v-.2c.3-.1.5-.1.8-.1zM7.8 15c.2-.1.3-.1.4-.1.2 0 .3 0 .4.2 0 .1.1.3.1.4 0 .2-.1.4-.2.5h-.3c-.1 0-.2-.1-.3-.3v-.5c-.1.1-.2.2-.2.3-.1.1-.2.1-.3.1-.1 0-.2-.1-.3-.2-.2 0-.2-.3-.1-.4.1-.1.2-.2.4-.2.1 0 .2 0 .2.1 0 0 .1 0 .2.1zM16 8.1c0-.1-.1-.1-.1-.2-.1-.1-.1-.2-.2-.2-.1-.1-.1-.2-.1-.4.1 0 .3-.1.4-.1.1 0 .1 0 .2.1.2.1.3.2.4.4 0 .1 0 .3-.1.4l-.3.3V9c0 .2-.1.2-.3.2h-.1c-.1-.1-.4-.2-.5-.4 0-.2.1-.3.2-.3.2-.2.3-.3.5-.4zM13.7 9.2c-.1-.1-.1-.2-.2-.3 0-.1.1-.2.1-.4l-.1-.1c-.1-.1-.2-.1-.3-.2-.1-.1-.1-.2-.2-.4 0-.1.1-.2.3-.2.2 0 .4.1.5.2.1.2.2.3.1.5v.1c0 .1.1.1.2.2.2.1.3.3.3.5 0 .1-.1.3-.2.3h-.4c.1-.1 0-.2-.1-.2zM23.7 10.9c-.4.1-.5.1-.8-.3 0-.2 0-.4.2-.5.2-.1.3 0 .5-.1h.4c0 .1.1.2.1.4-.1.2-.3.4-.4.5zM12 9.9c-.2-.1-.4-.1-.6-.1-.1-.1-.1-.3-.2-.4 0-.2.1-.3.3-.5.1-.1.3-.1.4 0 .2.1.3.2.4.4.1.1.1.3 0 .4l-.1.1s-.1 0-.2.1zM15.9 22.1v-.3l.1-.1c.2-.1.3-.1.4-.2.1 0 .2 0 .3.2.1.2 0 .4 0 .6 0 .2-.2.3-.4.3-.1 0-.2-.1-.3-.1 0-.2-.1-.2-.1-.4zM12.3 8.6c-.3.1-.5-.1-.8-.1l-.3-.3c0-.1 0-.1.1-.2l.3-.3h.4c.2.1.3.2.4.4v.2c0 .1-.1.2-.1.3zM19.5 16c-.1.2-.2.3-.3.5-.1.1-.3.1-.4 0-.1-.1-.2-.2-.3-.4 0-.2 0-.4.2-.4.1-.1.2-.1.2-.1.1 0 .2 0 .3.1.1 0 .3.1.3.3zM9.3 7.8v.1c0 .1 0 .2-.1.3 0 .2-.2.3-.4.2h-.1c-.1-.2-.3-.3-.3-.5 0-.1 0-.2.1-.2.2-.1.4-.2.7-.1 0 0 .1 0 .1.1v.1zM23.9 14.7c-.1.1-.1.2-.2.3-.1 0-.1.1-.2.1-.3.1-.5 0-.6-.3 0-.2 0-.3.2-.4.2-.1.4-.1.6.1.1.1.2.1.2.2zM13.1 14c0-.2.1-.4.1-.5.1-.1.2-.2.3-.2h.3c.1.1.1.1.1.2v.2c0 .1-.1.3-.2.4-.1 0-.1.1-.2.1h-.2l-.2-.2zM14.6 10.3c0-.1 0-.2.1-.2.1-.3.2-.3.5-.3h.2c.2 0 .3.3.2.5-.1.2-.2.3-.4.4-.5-.2-.5-.2-.6-.4zM10.1 15.8v-.1l-.1-.1s0-.1-.1-.1v-.1c.1-.1.1-.3.3-.3.2 0 .4 0 .5.1.1.1.1.1.1.2 0 .3-.2.4-.4.5h-.2s-.1 0-.1-.1zM11.9 7.5c-.1-.1-.2-.2-.3-.4-.1-.1-.1-.2 0-.3.1-.2.3-.2.5-.2 0 0 .1 0 .1.1.1.1.2.3.2.5s-.2.3-.4.3h-.1zM19.1 8.4c0-.1-.1-.2-.1-.2V8c0-.1.1-.1.2-.2s.3-.1.5-.1h.1c.1.1.1.2.2.3 0 .1.1.3 0 .4-.1.1-.3.1-.4.2-.4-.1-.5-.1-.5-.2zM9.1 16.6l.6-.3.1.1c0 .1.1.2.1.3v.2c0 .1-.3.3-.5.3s-.3-.1-.4-.3v-.1c0-.1.1-.1.1-.2z"/>
    <path class="st3" d="M23.3 6.9c-.1.1-.1.1 0 0h-.9c-.3-.3-.7-.5-1-.7-.1 0-.2-.1-.2-.2v-.2c.1-.2.3-.5.5-.7.1-.1.2-.3.3-.5.3-.3.6-.6 1-.9h.1s.1 0 .2.1v.1c0 .4.1.7.1 1 .2.6.1 1.1 0 1.7 0 .1-.1.2-.1.3z"/>
    <path class="st2" d="M16.9 12.6s0-.1-.1-.1c-.1-.2-.1-.3-.1-.5 0-.1.1-.3.1-.4.1-.2.1-.3.3-.4l.3-.3c.3-.1.9-.1 1.2 0 .1 0 .2.1.3.1.1.1.2.3.4.4 0 .1.1.2.1.3.1.1.1.3.1.4 0 .3-.1.5-.3.7-.1.1-.2.3-.3.4-.5.1-1 .3-1.5 0-.2-.1-.2-.3-.3-.4l-.2-.2zm1.6-.1c.1-.1.1-.3.2-.4 0-.1.1-.2.1-.3 0-.2-.1-.3-.3-.4h-.4c-.2.1-.3.2-.4.4 0 .2 0 .4-.1.5 0 .1 0 .1.1.2s.2.1.3.1c.1.1.3 0 .5-.1zM8.6 12.2s.1-.1.2-.1.2-.1.2-.3v-.5c.1-.2.3-.2.4-.3.1-.1.2-.2.4-.3h.6c.1.1.3.2.4.3.2.1.3.4.3.6v.8c-.2.4-.6.7-1 .8-.1 0-.3.1-.4.2-.1 0-.2 0-.3-.1-.1 0-.3-.1-.4-.3-.2-.3-.4-.5-.4-.8zm1.5.4c.1-.1.3-.1.4-.2.1 0 .1-.1.1-.2v-.4c0-.1-.1-.2-.2-.2-.3 0-.5 0-.7.2 0 0-.1.1-.1.2v.4c.1.1.2.2.5.2z"/>
    <path class="st1" d="M18.5 12.5c-.2.1-.3.2-.5.2-.1 0-.2-.1-.3-.1 0 0-.1-.1-.1-.2.1-.2 0-.3.1-.5s.3-.3.4-.4c.1-.1.3 0 .4 0 .2 0 .3.2.3.4 0 .1 0 .2-.1.3-.1 0-.2.2-.2.3zM10.1 12.6c-.2 0-.4-.1-.5-.3-.1-.1 0-.3 0-.4 0-.1 0-.1.1-.2.2-.2.4-.3.7-.2.1 0 .2.1.2.2v.4c0 .1-.1.2-.1.2-.2.2-.3.3-.4.3z"/>
    <path class="st1" d="M65.4 44.9c0-.3-.1-.6-.1-.9 0-.3-.1-.5-.3-.6h-.2c-.2-.1-.4-.2-.5-.4-.1-.1-.2-.2-.2-.3v-.5c0-.2 0-.3-.1-.5-.1-.3-.1-.6-.1-1 .1-.5.3-1 .2-1.5-.1-.1-.2-.3-.3-.4-.1-.1-.2-.3-.3-.4v-1.5c0-.1 0-.3.1-.4v-.4c0-.1-.1-.2-.1-.3 0 0 0-.1-.1-.1v-.1c.1-.1.1-.3.1-.4h.1c.1-.1.2-.2.2-.3 0-.2 0-.3.1-.5 0-.1-.1-.2-.1-.3 0-.2.1-.5-.1-.8V32.4c.1-.6 0-1.1-.2-1.6v-.7c-.1-.5-.3-.8-.6-1.1-.1-.2-.1-.4-.2-.6-.1-.2-.1-.4-.2-.5-.1-.2-.2-.3-.3-.5v-.1c0-.1 0-.2.1-.2 0-.1 0-.3-.1-.3s-.2-.1-.2-.1c-.2 0-.3-.1-.4-.3-.1-.1-.1-.2-.2-.3-.2-.2-.3-.5-.4-.8 0-.2-.1-.3-.2-.5-.2-.4-.5-.7-.8-1l-.1-.1c-.1-.3-.1-.6-.2-.8 0-.4-.2-.7-.6-.9-.1-.1-.3-.2-.4-.2-.1-.2-.2-.3-.3-.5 0-.2-.1-.5-.2-.7-.1-.2-.3-.4-.5-.5-.1-.1-.3-.1-.4-.2l-.3-.3c-.1-.1-.2-.2-.3-.4-.1-.2-.3-.4-.5-.5-.3-.2-.7-.3-1.1-.2-.2.1-.5.2-.7.2l-.1-.1v-.5c0-.1.1-.2 0-.4 0-.1-.1-.2-.2-.3h-.7c-.3-.2-.6-.3-.8-.6-.2-.1-.4-.1-.5-.3v-.3c0-.1-.1-.2-.1-.2-.2-.1-.4-.1-.5-.1H51c-.2 0-.4-.1-.6-.1-.1-.2-.2-.3-.3-.5l-.3-.3c-.3-.2-.7-.4-1.1-.4h-1.1c-.2-.1-.4-.2-.6-.2-.5-.1-1 0-1.5.1-.1 0-.1.1-.2.1-.2.1-.4.1-.6 0-.2-.1-.4-.1-.6-.1-.5 0-.9.1-1.4.2-.5.1-.9.2-1.4.4-.3.1-.5.1-.8 0h-.2c-.2.1-.5.2-.7.3-.3.3-.6.5-1 .7-.1 0-.3 0-.5-.1-.1-.1-.1-.2-.2-.2-.1-.1-.2-.2-.3-.2h-.3c-.3.1-.6.2-.9.4-.2.2-.4.3-.6.3h-.1c-.3-.1-.5-.2-.8 0-.1.1-.3.1-.4 0-.3-.1-.7-.1-1-.1-.1.1-.2.2-.4.3-.1.1-.2.1-.3.1h-.3c-.4-.1-.9-.1-1.3 0l-.1-.1c-.1-.2-.2-.4-.5-.4-.1 0-.3-.1-.4-.1-.3.1-.6.2-.9.1-.1-.1-.1-.2-.2-.2-.1-.1-.1-.3-.2-.3-.4-.1-.4-.1-.9.1-.2-.1-.3-.1-.4-.3v-.3c-.1-.1-.3-.2-.5-.3-.2 0-.4 0-.6.1-.1 0-.1.1-.1.1-.1-.2-.2-.3-.5-.3h-.1c-.1-.1-.1-.3 0-.5 0-.1.1-.1.1-.2.1-.3.2-.7.4-1 .1-.2.1-.4.1-.6 0-.3 0-.5.1-.8v-.2c-.1-.2-.1-.3 0-.5s.1-.5 0-.7c0-.2 0-.5-.1-.7-.1-.4-.1-.8-.4-1.1-.3-.4-.5-.9-.6-1.4.1-.3.2-.7.2-1.1 0-.2 0-.4.1-.5.1-.3.1-.5.1-.8.1-.3 0-.5 0-.8 0-.3 0-.7-.1-1 0-.1.1-.2 0-.2-.1-.3-.1-.5-.1-.8-.1-.3-.2-.5-.3-.8-.1-.1-.1-.2-.2-.2l-.3-.3c-.2 0-.3-.1-.5-.1s-.3.1-.5.1-.3.1-.5.2c-.2.2-.3.3-.6.4-.3.1-.5.3-.7.5-.1.1-.3.2-.5.4-.1.2-.2.3-.3.5 0 .1-.1.1-.2.2-.2.2-.4.4-.5.7-.1.3-.3.5-.4.8 0 .1-.1.1-.1.2h-.7c-.4.2-.7.4-.9.8 0 0-.1 0-.1.1-.1 0-.2 0-.4-.1-.2.1-.4.1-.6.2-.1.1-.2.1-.2.2l-.4-.4c-.1-.1-.2-.1-.4-.2-.1 0-.2.1-.3.1-.1.1-.2.2-.4.2-.1 0-.1-.1-.2-.1-.1-.1-.2-.2-.4-.3-.1-.1-.2-.1-.3-.1-.1 0-.3 0-.4.1-.1.1-.1.2-.3.2-.2-.1-.4-.2-.5-.4 0-.7-.2-.6-.5-.6-.2-.1-.4-.1-.6-.2-.1 0-.3-.1-.4 0-.2.1-.4.1-.6.1-.1 0-.2 0-.4.1-.1.1-.2.1-.4.1h-.5l-.3-.3c-.2-.2-.4-.4-.6-.5-.3-.1-.6-.2-.9-.2h-.2l-.4-.4c-.1-.1-.3-.2-.4-.3-.1-.1-.2-.1-.2-.2-.2-.1-.3-.2-.4-.5l-.4-.4h-.2c-.2 0-.3.2-.4.3v1c0 .3 0 .6-.2.8 0 .3-.1.5-.1.7.1.7.1.7-.2 1.2l-.1.1c-.1 0-.2.1-.3.1-.2.1-.4.3-.3.6 0 .1.1.1.1.2.1.1.2.1.2.2.3.2.6.4.8.7.2.2.4.5.6.7.1.1.1.1.1.2-.1.2-.2.2-.3.3-.3.1-.5.3-.7.5-.1.1-.2.2-.2.4 0 .4 0 .5.1 1 0 .2-.2.3-.3.4 0 .1-.1.1-.2.2-.3.3-.4.6-.3.9 0 .1 0 .2.1.3 0 .2-.1.3-.1.4.1.1.1.3 0 .4-.1.2 0 .3-.1.5-.1.1-.2.1-.3.3-.1.1 0 .3.1.4l.2.2c0 .2-.1.4-.1.6 0 .1.1.1.1.2.2.2.4.3.6.4.1 0 .1.1.1.1v.2c-.1.2-.1.4-.2.6-.1.2-.1.4 0 .6.2.4.2.5.4.6.1 0 .2 0 .4.1 0 .1.1.1.1.2-.1.2-.1.4-.1.6 0 .2.2.3.1.5-.3.1-.6.2-1 .3-.3.1-.6.2-1 .3-.3.1-.6.3-.9.4-.3.1-.5.2-.8.2-.4.1-.9.2-1.3.3-.1 0-.2.1-.4.1-.1 0-.2.1-.2.1-.1.1-.1.2-.1.3 0 .2.1.3.3.4h.2c.3-.1.5-.2.8-.4.2 0 .4 0 .7-.1.1-.1.3-.1.4-.1.2 0 .4-.1.5-.2.2-.1.5-.2.8-.2.3-.2.7-.4 1.1-.5.5-.1 1-.3 1.4-.5h.1s.1.1.2.1c0 .1.1.2.1.2 0 .3.1.5.3.7.1.1.2.1.2.3 0 0 0 .1-.1.1-.2.1-.5.2-.7.3-.1 0-.2 0-.2.1-.3.2-.7.4-1 .5-.1 0-.2.1-.3.2-.2.1-.4.3-.7.4-.4.2-.8.5-1.2.8 0 .1-.1.1-.1.2 0 .2.1.3.3.3.1.1.3 0 .4 0 0 0 .1 0 .1-.1.3-.2.6-.4.9-.5.2-.1.3-.2.5-.4.3-.2.7-.4 1.1-.5.3-.1.6-.3.9-.4l.6-.3h.2c.2.2.3.4.4.6v.1c-.1.1-.2.3-.4.3-.2.1-.3.2-.5.3l-.3.3-.3.3c-.4.4-.8.9-1.3 1.3-.2 0-.4.3-.5.7-.1.1-.1.2 0 .3 0 .1.1.1.1.2.1.1.3.1.4 0 .2-.2.4-.4.6-.7.3-.4.6-.7.9-1 .1-.2.3-.3.5-.4l.6-.6c0 .1.1.1.1.2.1.1.2.1.2.3-.1.3-.4.5-.5.8-.1.2 0 .3 0 .4.1.2.3.4.5.5l.1.1c0 .2-.1.3-.2.4-.3.4-.3.4-.4.9 0 .2.3.3.4.5 0 .1-.1.3-.1.4-.2.3-.2.6-.4.8 0 .2 0 .4.1.6.2.2.2.2.8.5v.3c0 .5.1.9.2 1.3l.3.6.1.1c.3.1.3.1.4.3 0 .6.2 1.1.4 1.6v.1c0 .2.2.4.3.6l.3.3c.2 0 .4.1.5.3 0 .1.1.2.1.3.1.3.3.5.4.7.4.4.8.7 1.2 1 .1.3.2.6.4.9.2.3.4.6.7.9.2.2.4.4.7.5.2 0 .4 0 .6.2.2.3.4.7.6 1 .1.1.2.3.3.5.2.2.4.2.6.3 0 0 .1.1.2.1.2 0 .4 0 .5.1.3.2.5.3.7.5v.1c-.1.1-.2.3-.3.4-.3.2-.4.5-.7.7-.1.1-.2.2-.3.4-.2.4-.5.7-.8 1-.3.3-.6.5-.8.7-.2.2-.5.3-.7.4-.6.3-1.3.6-1.9.9-.3.2-.6.4-.9.7-.1.2-.2.3-.3.5-.4.6-.4.3-.4 1.2v.1c.1.2.1.4.2.6.2.4.5.7.8 1 .2 0 .5 0 .7.1l.3.3c.3.3.6.4.9.4h.2c.2-.1.3-.3.4-.4.2-.2.1-.4.4-.5.2 0 .4 0 .5.2.1.2.2.4.3.7l.3.3c.2.2.4.3.6.3.3.1.6.1 1 .1h.3c.1.2.3.3.4.5.1.1.4.1.5.2 0 .1 0 .2.1.4.2.3.5.4.7.6.4 0 .7 0 1-.1.4 0 .7-.2 1.1-.4.2-.1.3-.2.5-.4.1-.1.3-.2.5-.3.1-.1.2-.2.3-.2.2-.1.4-.3.6-.5l.3-.3c.3-.3.7-.6 1-.9.2-.2.4-.4.6-.5.1-.1.2-.1.2-.2.1-.2.3-.3.5-.4.1-.1.2-.1.2-.2.3-.3.7-.7 1.1-1 .2-.1.3-.1.5 0 .3.1.5.2.8.3 0 0 0 .1.1.1-.1 0-.2.1-.4.1 0 .1-.1.1-.1.2-.1.1-.1.3 0 .4.1.1.3.2.4.2.2-.1.3-.1.5-.2.2.1.4.1.6.1h.2c.1.1.1.3.2.4.1.2.1.3.1.5 0 0 0 .1.1.1s.2.1.2.1c.2.1.4 0 .6.1v.1c-.4.4-.7.9-.9 1.4-.1.2-.1.3 0 .4.1.2.1.5.1.7.1.2.1.3.2.4 0 0 0 .1-.1.1h-.1c-.3-.1-.5-.3-.7-.6 0 0-.1-.1-.1-.2-.1-.2-.2-.5-.3-.7-.1-.2-.1-.4-.3-.5l-.6-.6c-.2-.2-.4-.4-.7-.5-.3-.1-.5-.2-.8-.3-.1 0-.2 0-.2-.1-.2 0-.4.1-.5.1-.2 0-.4.1-.5.3-.2.4-.5.9-.6 1.4l-.3.9c-.1.2-.1.4 0 .6 0 .1.1.2.1.3 0 .2.1.3.2.5l.6.9c.2.2.3.4.4.7.2.5.6.8.9 1.2.2.2.4.4.7.5.2.1.3.2.4.3.2.1.3.1.5.2.1 0 .3.1.4.1.2.2.4.3.6.3.4.1.7.2 1.1.3.4.1.7.2 1.1.4.2.1.4.2.7.2.1 0 .3 0 .4.1.2.1.5.1.7 0h2.7c.3 0 .6 0 .8-.1.3 0 .5 0 .8-.1.2 0 .4-.1.6-.1.2 0 .4-.1.6-.1.3-.1.7-.2 1-.1h.4c.2-.1.5-.1.8-.2.5-.1 1-.2 1.5-.2h.2c.4-.1.9-.2 1.3-.3.1 0 .2-.1.4-.1.3 0 .6-.1.8-.2.3-.1.5-.1.8 0 .2.1.4.1.6.1h2.8c.6-.1 1.2-.1 1.7-.2.2 0 .5-.1.7-.1.2 0 .5-.1.7-.2.2-.1.4-.1.6-.2l.6-.3c.1 0 .1-.1.2-.2s.2-.1.3-.2l.6-.3c.2-.2.5-.1.7-.3.1 0 .1-.1.2-.1.7-.1 1.3-.3 1.9-.5.4-.1.7-.2 1-.4.1 0 .2-.1.2-.1.1-.1.3-.1.4-.2.2-.1.4-.2.7-.3.3-.1.7-.3.9-.5.1-.1.2-.1.2-.1.1-.1.3-.2.4-.2.3-.6.7-1.1 1.2-1.6.1-.2.2-.3.3-.6 0-.3 0-.6.1-1 .1-.3.2-.6.4-.9l.6-1.2c.2-.4.3-.9.4-1.4 0-.1.1-.3.2-.4.1-.2.3-.4.4-.7 0-.1.1-.2.1-.3.2-.5.1-.8-.1-1.1zM5.7 6.1c0-.1 0-.1.1-.2.1-.2.2-.4.4-.5h.1c.1 0 .1.1.1.2.1.1.1.2.2.3.2.2.5.6.7.9 0 .2-.2.2-.3.2 0 .1-.1.2-.2.2h-.1c-.3-.4-.7-.7-1-1.1zm2.3 14c-.1 0-.1 0-.2-.1-.3-.1-.5-.4-.5-.8v-.1l.1-.1c.3 0 .6-.1.8-.2.2-.1.4-.1.5-.2.2 0 .4-.1.6-.1h.1c.1 0 .2 0 .4-.1l.3-.3c.1-.1 0-.2 0-.3 0-.1-.1-.1-.2-.1-.2 0-.3 0-.4-.1-.2.1-.4.2-.6.2l-.6.3c-.2 0-.4.1-.6.2-.1 0-.2-.1-.3-.1-.2 0-.3.1-.5.1s-.3 0-.4-.1v-.1c.1-.1.1-.3.2-.4.1-.1.1-.3 0-.4 0-.2-.2-.3-.3-.3h-.6l-.1-.1c0-.3.1-.5.2-.9 0-.2.1-.5 0-.8-.1 0-.1-.1-.2-.1s-.2-.1-.4-.1l-.1-.1v-.1c.1-.1.3-.1.4-.3.1-.2.1-.4.1-.7l-.1-.1h-.5c.1-.2.3-.3.4-.5.1-.1.1-.2 0-.2-.1-.1-.1-.2-.2-.3v-.9c.1-.2.1-.4.3-.6.1-.2.3-.4.4-.6v-.9c0-.1.1-.2.2-.3.1-.1.2-.2.3-.2.3-.2.5-.5.8-.7l.6-.9c0-.2 0-.5.1-.7 0-.1.1-.2.2-.3-.2-.2-.4-.4-.3-.6-.2-.3-.3-.6-.5-.9-.3-.3-.7-.7-1-1.1v-.2c0-.1.1-.3.1-.4V3c0-.1.1-.1.1 0 .2.2.5.3.7.5.3.3.8.5 1.2.6.2 0 .4.1.7.2 0 0 .1 0 .1.1.2.2.4.3.7.4.2 0 .3.1.4.1.2.2.4.4.6.5.1 0 .2-.1.3-.2v-.3s.1 0 .1.1c.4.1.6.1.8 0 0-.1.1-.1.1-.2v-.1h.1c.2.1.3.1.4.3.1.1.2.1.2.1h.3c.1 0 .2-.1.2-.1h.2c.2 0 .2.1.4.2.1.1.1.1.2.1.1.1.2.1.3.1.1 0 .2-.1.2-.2.1-.1.2-.1.3 0 0 .1.1.1.1.2.1.2.3.5.6.6 0 0 .1 0 .1-.1.1-.2.3-.4.4-.6l.1.1c.2.3.4.4.7.5.2 0 .4.1.5.1.2 0 .2-.2.4-.4.3-.1.7-.1 1-.3.1-.3.4-.5.6-.7.2-.1.4 0 .7 0 .1 0 .1-.1.2-.1.2-.1.3-.2.4-.4.2-.3.3-.7.5-1 .2-.4.5-.7.8-1 .3-.4.7-.6 1.1-.9.1-.1.2-.1.3-.2 0 0 .1 0 .1-.1h.6c.2.1.2.3.3.4 0 .3.1.5.2.8.2.4.2.6.3.9v1.5c-.1.2-.2.3-.2.5v.9c-.1.3-.3.6-.3.9.1.1.2.3.3.4 0 .2.1.4.2.6.2.3.5.6.6 1.1v.9c0 .3.1.6.1.9-.1.5-.1.5 0 1-.1.3-.2.7-.2 1-.1.2-.2.5-.3.7-.3.2-.3.5-.3.7v.5c.1.3.3.5.6.7.1.1.1.2.1.3 0 .1-.1.2-.2.2s-.2 0-.4.1c-.1 0-.2.1-.2.3 0 .2.1.3.1.5l-.1.1h-.2c-.2-.1-.5-.1-.8-.1h-1c-.3 0-.7.1-1 .1-.4 0-.8.1-1.2.2-.1 0-.3.1-.4.1-.5 0-1 0-1.4-.1-.2 0-.3.2-.4.3v.1c0 .1.1.2.2.3.2.1.3.1.5.1h.4c.6 0 1.2 0 1.8-.2.1 0 .2 0 .4-.1h.3c.5-.2 1-.1 1.6-.1h.7l.1.1c.1.3.2.6.3.8v.5c-.1.1-.2.1-.3 0l-.6-.3h-.1c-.2 0-.3.1-.5.2h-.1c-.4 0-.7-.1-1.1-.1-.1 0-.3-.1-.5-.1-.5.1-1.1.1-1.6 0-.2 0-.4.1-.6.1-.1 0-.1.1-.2.1-.1.1-.1.4.1.5h3.1c.2 0 .4 0 .6.1.1.2.1.2.1.4-.1.1-.1.3-.2.4h-.1c-.1 0-.2-.2-.2-.2-.3 0-.4.1-.5.2 0 .1-.1.1-.1.2s0 .3-.1.4c-.2.3-.3.3-.4.3-.2 0-.5 0-.7-.1-.1 0-.3-.1-.4-.1-.2 0-.4.1-.6.2l-.1.1c-.2.2-.4.3-.5.5-.2 0-.4-.1-.5-.1-.1-.1-.2-.3-.3-.4-.2-.1-.3-.1-.5 0-.2.3-.1.6-.3.9-.3.5-.7.9-1.2 1.1h-.6c-.2 0-.3.1-.5.1-.4-.1-.9-.2-1.3-.3-.2-.1-.3-.3-.5-.4-.1-.1-.1-.2-.2-.3-.1 0-.2-.1-.2-.1-.3 0-.4.3-.7.3-.3-.1-.4-.4-.6-.6-.1-.1-.2-.1-.4-.1-.1 0-.3 0-.4.1-.2.1-.4.1-.6.1h-.9l-.1-.1c.2-.4.6-.7.7-1.1 0-.1-.1-.1-.2-.2-.2 0-.3.1-.5.2-.1.1-.1.2-.2.3-.1.1-.1.2-.2.2-.1.1-.2.1-.2 0-.3-.2-.3-.2-.3-.5.3-.2.7-.4.9-.7v-.3l-.1-.1h-.1c-.2.1-.5.3-.7.4-.2.1-.3.1-.5.1zM16 49c-.2.2-.5.3-.8.2h-.1c-.1 0-.2 0-.3.1-.2.2-.3.3-.4.5-.1.3-.2.5-.4.7-.2.1-.3.1-.5 0s-.2-.3-.2-.6c.1-.3.1-.6.3-.8.1-.2.2-.3.3-.5v-.3c0-.1 0-.1-.1-.2s-.2-.2-.4-.1c-.1 0-.1.1-.2.1-.2.4-.5.8-.6 1.2-.1.2-.1.3-.3.5H12c-.2-.2-.4-.5-.4-.8v-.3c0-.2.1-.3.1-.5 0-.1.1-.3.2-.4.4-.4.9-.7 1.4-.9.4-.2.7-.3 1.1-.5.5-.3 1-.6 1.5-1.1l.1-.1c.3-.2.5-.4.7-.7.1-.2.3-.5.5-.7.1-.2.3-.4.5-.6l.6-.6c.2-.1.5-.1.8 0 .2.1.3 0 .4-.2 0-.1.1-.2.2-.2h.2c.1.1.2.1.3.2.2.2.4.4.7.5.2.1.3.3.3.5s0 .4.1.6c.1.1.1.2.2.3v.1c-.1.2-.3.3-.5.5-.3.2-.6.5-.8.8-.1.2-.3.4-.4.6l-.1.1c-.1.4-.4.6-.7.9-.3.1-.5.2-.7.3-.2.4-.3.4-.3.4-.2.1-.5.1-.7.2l-.6.3c-.1 0-.2.1-.3.1l-.4.4zm10.8 5.8c-.1.1-.2.2-.3.2h-.1s-.1-.1-.1-.2c-.1-.3-.2-.5-.4-.8-.1-.3-.1-.7.1-1.1.1-.2.1-.5.2-.7.1-.1.1-.2.2-.3.2-.3.2-.3.6-.4l.9.3c.2.2.2.3.4.4.1 0 .2.1.2.2.2.2.4.4.4.7.1.3.2.6.4.9v.1c-.2 0-.4 0-.6.1-.2.1-.4 0-.6.1-.3.1-.5.3-.7.4-.2-.1-.4-.1-.6.1zm17.8 2.7h-.3c-.3.2-.6.1-.9.2-.3.1-.6.1-.9.2-.1 0-.3.1-.4.1H42c-.2 0-.4-.3-.6-.2l-.3.3H41c-.5 0-.9.1-1.4.2-.3 0-.5.1-.8.2-.4.1-.8.2-1.2.2h-.3c-.2.1-.5.1-.7.1h-1.3c-.1 0-.2.1-.3.1h-.2c.2-.1.2-.3.1-.5-.1-.1-.3-.1-.5-.2-.1-.1-.3-.1-.4-.2-.2-.2-.2-.5-.2-.7 0-.1-.1-.2-.2-.2-.3-.1-.6-.2-.9-.2h-.3c-.1 0-.2.1-.2.2s0 .3.1.4c.1.1.2.2.4.3.1.1.2.4.5.5.1.2.1.4.2.6 0 0-.1 0-.1.1-.4 0-.8-.1-1.1-.3l-1.5-.6c-.2-.1-.5-.1-.7-.3-.1-.1-.2-.1-.3-.1-.3-.1-.5-.1-.7-.3-.1-.1-.2-.1-.3-.1h-.1L28 57c-.1-.1-.2-.1-.3-.2-.1-.1-.1-.2-.2-.3.1-.1.2 0 .3 0 .1 0 .3 0 .4-.1.1-.1.3-.2.5-.3.1 0 .2-.1.2-.3l-.3-.6.1-.1c.3.2.4.6.6.9.1 0 .2.1.3.1.2.1.3 0 .5-.2 0-.2-.2-.3-.2-.4 0-.1-.1-.2-.2-.4v-.4c0-.1 0-.1.2-.2.8.4.5.4 1.3.5.1.1.2.1.4.2.5 0 1 0 1.5.1.3-.1.5-.2.7-.2.2 0 .4-.1.6-.3.1 0 .2 0 .3-.1.3-.1.5-.1.8 0 .2 0 .4.1.6.1.3.2.6.1 1 .2h.5c.3-.1.6-.1.8-.1.2-.1.5-.2.6-.4 0-.2-.1-.4 0-.6.3.3.6.5.9.8.1.1.2.2.3.2.4.2.7.2 1-.1 0 0 .1 0 .1-.1h.4c.1-.1.2-.2.4-.3.3 0 .5.1.7.2.2.1.4.2.7.2 0 .1-.1.1-.1.2-.1.2-.1.4.1.6.1 0 .1.1.1.1 0 .2.1.3.1.4.1.2.2.3.4.3.1 0 .2 0 .3.1-.1.1-.2.2-.2.3 0 .2 0 .3.2.5.1.1.2.1.2.2.2 0 .1 0 0 0zm20.2-11.4c-.1.2-.2.4-.4.6-.1.2-.2.3-.2.5 0 .1-.1.3-.2.4-.2-.2-.2-.5-.4-.6-.2-.1-.4 0-.6-.1-.1-.1-.1-.2-.2-.2-.2-.1-.3-.1-.4 0-.2.1-.4.1-.6.1h-.1c-.1 0-.1.2-.3.2h-.1c-.2-.1-.3-.1-.5 0-.1.1-.2.2-.3.2h-.7c-.1 0-.2 0-.3.1l-.3.3v.1c0 .2.1.4.3.4.1 0 .3 0 .4.1l.1.1c0 .1.1.2.1.2.1.1.2.2.3.1.2 0 .4-.1.5-.2.1.1.3.1.4.1.1 0 .2 0 .3.1.1-.1.2-.1.2-.1.1-.1.2-.1.3-.2h.2c0 .1.1.1.1.2s.1.1.1.2c.1 0 .1 0 .2.1.2 0 .4 0 .5-.2 0-.1.1-.2.1-.3 0-.1 0-.2-.1-.3 0-.1 0-.1.1-.2v.1c0 .2.1.3.1.5l.1.1c.2.1.3.2.5.3-.1.3-.3.6-.5.9-.2.3-.3.6-.4.9-.1.3-.1.6-.1.9v.3c-.1.2-.3.4-.4.5-.2.1-.3.4-.5.5-.2.3-.5.6-.6.9-.4.3-.7.4-1.1.5-.2.1-.5.1-.7.3-.4.2-.9.4-1.4.6-.1 0-.1-.1-.1-.1.1-.2.2-.3.2-.5-.4-.5-.5-.5-.6-.5-.1.1-.2.1-.3.2-.1.1-.3.2-.4.3-.1 0-.1.1-.2.1 0 .2-.1.3-.1.4-.3.2-.3.2-.6.2-.2 0-.4.1-.6.1-.3.1-.6.3-.9.5-.1 0-.2.1-.2.1s-.1 0-.1.1c-.3.3-.7.5-1.1.6-.2.1-.4.1-.6.1-.1 0-.2-.1-.3-.1-.2 0-.4 0-.6.1 0 0-.1 0-.2-.1v-.2c0-.1-.1-.1-.1-.1h-.1c-.2.1-.5.1-.7.2-.1 0-.3.1-.4.1-.1.1-.2.2-.2.3v.1c0 .1 0 .1-.1.2h-4.3s-.1 0-.1-.1v-.2c.1-.2 0-.3-.1-.4-.1 0-.2-.1-.2-.1s0-.1-.1-.1c0-.2.2-.3.2-.5 0-.3-.2-.2-.3-.4v-.2c0-.3-.1-.4-.4-.5-.1 0-.2 0-.3-.1-.1 0-.2.1-.3 0 0-.2.2-.3.1-.5 0 0-.1-.1-.1-.2-.2 0-.4-.1-.6-.1l-1.2-.6c-.3-.1-.5-.2-.7.1 0 0-.1 0-.1.1-.2-.1-.4-.2-.5-.2h-.1c-.1.1-.2.2-.1.4.1.1.1.2.2.3l-.1.1h-.1c-.2-.2-.5-.3-.6-.5l-.3-.3c-.2-.1-.4-.1-.5-.1-.1.1-.2.2-.2.4 0 .1 0 .1.1.2-.1 0-.1.1-.2.1-.3 0-.5 0-.8.2h-.1c-.4 0-.9.1-1.3-.1-.3-.1-.6-.1-.9-.2-.2 0-.3-.1-.5 0-.3.1-.6.1-.8.2-.2.1-.4.1-.6.2-.2.1-.4.2-.5.2-.1 0-.3-.1-.4-.1-.1 0-.3 0-.4-.1-.3-.2-.5-.3-.7-.4-.2-.5-.2-.5-.2-1.4.1-.4.4-.7.7-1 0 0 .1 0 .1-.1.4-.2.8-.4 1.3-.4h.3c.2-.1.4 0 .6-.1h.7l.6-.3c.1-.2.1-.3.2-.4.1-.1.1-.3.1-.4-.1-.1-.2-.2-.3-.2-.1 0-.2 0-.3.1-.1 0-.2.1-.2.2-.1.1-.2.2-.4.2-.6 0-1.3 0-1.9.1-.1 0-.2 0-.3.1-.1.1-.2.1-.3.1h-.3c-.1-.2-.3-.5-.4-.7-.2-.2-.4-.1-.6-.2l-.1-.1c-.1-.3-.2-.6-.1-.9-.1-.1-.1-.2-.2-.3l-.1-.1c-.1 0-.2 0-.3.1l-.3.3c-.1-.2 0-.4-.2-.5-.1 0-.2-.1-.4-.1-.2-.1-.4-.2-.6-.2-.1 0-.2-.1-.3-.2 0 0 0-.1.1-.1.3-.1.5-.4.8-.6l1.2-1.2c.5-.4.7-.9.9-1.5v-.2c0-.2-.1-.4-.1-.5 0-.1-.1-.1-.1-.2-.2-.2-.3-.1-.5 0-.1.2-.1.5-.1.7 0 .2-.1.5-.3.7-.1.1-.2.3-.3.4 0 .1-.1.2-.2.2-.4.2-.6.5-.9.8-.2.3-.5.5-.8.7-.3.2-.5.4-.7.6-.3.4-.7.7-1 1-.4.4-.8.8-1.2 1.1-.2.2-.4.3-.6.6-.1.1-.3.2-.4.3l-.8.8-.6.6c-.2.2-.4.4-.7.5 0 0-.1 0-.1.1-.3.3-.6.5-1 .7h-.8c-.1 0-.3-.2-.2-.3 0-.1 0-.2.1-.2l.3-.3c.2-.2.3-.4.4-.7.1-.2.1-.4 0-.6-.1 0-.1-.1-.2-.1s-.2-.1-.2-.1c-.1.1-.3.1-.4.2-.1.1-.2.2-.2.3-.1.2-.3.4-.4.7 0 .1-.1.1-.1.1h-.1c-.1-.1-.1-.2-.1-.3.1-.2.2-.4.4-.5.1-.1.1-.1.1-.2 0-.2-.1-.3-.2-.5-.1-.1-.2-.2-.4-.1s-.4.3-.6.5c-.1.1-.1.3-.2.4-.2.1-.3.2-.5.2-.1 0-.2.1-.3.1-.2 0-.4 0-.5-.2l-.2-.2c-.1-.2-.1-.4-.2-.6l.3-.3c.1-.1.2-.2.4-.3.2-.2.4-.3.6-.4.3-.1.5-.1.7-.3.3-.1.6-.3.9-.5.4-.2.7-.5.8-1 .3-.3.6-.6.8-1l.3-.3c.4-.3.7-.7 1.1-1 .3-.3.6-.5.8-.8.3-.3.6-.6 1-.8.1 0 .1-.1.2-.1.1-.4 0-.6 0-.7-.1 0-.2-.1-.4-.1-.1 0-.2.1-.3.1-.1.2-.4.3-.6.5-.1.2-.3.3-.4.4-.2.1-.3.3-.4.4h-.2c-.2-.1-.3-.3-.3-.5 0-.1 0-.3.1-.4.1-.1.1-.2 0-.3 0-.1-.1-.2-.2-.3h-.3c-.1 0-.2 0-.4-.1-.5-.4-.9-.9-1.5-1.2-.3 0-.5.1-.6.3-.3-.1-.3-.4-.6-.6-.1-.2-.4 0-.6-.2-.2-.3-.3-.7-.7-.8-.1 0-.3.1-.3.2-.1.1 0 .3-.1.4-.1 0-.1 0-.2-.1-.9-.6-1.1-1.1-1.3-1.6v-.5c0-.1-.1-.2-.1-.4.1-.1.1-.3.2-.4 0-.1-.1-.2-.1-.3-.1-.2-.3-.3-.3-.5 0 0 0-.1-.1-.1 0 0-.1 0-.1-.1h-.2c-.2 0-.3.1-.3.3l.3.9c-.1.1-.3.2-.3.4 0 .1-.1.1-.2 0s-.2-.1-.3-.2c-.4-.5-.7-1-.7-1.7 0-.2-.1-.4-.2-.6-.1-.1-.2-.1-.3-.1-.1.1-.2.2-.3.2-.4-.3-.6-.5-.9-1.1v-.4c0-.1 0-.3-.1-.4.1-.4.2-.8.1-1.2-.1-.1-.1-.1-.2-.1-.3.1-.5.3-.5.7v.6s0 .1-.1.1c0 0-.1 0-.2-.1 0-.1-.1-.2-.1-.2-.2-.5-.4-1.1-.5-1.6 0-.2-.1-.3 0-.5s.1-.4.2-.5c-.2-.2-.3-.2-.5-.2s-.3.2-.5.2c-.1 0-.2-.1-.2-.2-.1-.1-.1-.2-.1-.4v-.7c0-.2 0-.5.1-.7 0-.1 0-.2.1-.3 0-.1 0-.2-.1-.2s-.2-.1-.2-.1c-.1 0-.3.1-.4.1-.1 0-.2 0-.2-.1v-.3l.3-.6.3-.6c.1-.2.1-.3.1-.5 0-.1-.1-.2-.1-.2-.1 0-.2 0-.3-.1 0-.1-.1-.1-.1-.2l.3-.6c0-.1.1-.1.1-.2V25c-.1-.1-.1-.2-.2-.2-.1-.1-.2-.1-.2-.2v-.3c.1-.2.1-.3.2-.3.2-.2.2-.5.2-.8-.1-.2-.2-.4-.4-.6.3 0 .5 0 .8.2.2.1.4.1.7.1.2 0 .4 0 .6-.1.2-.1.4 0 .6 0 .1 0 .2.1.3.1.2.2.5.4.7.5 0 0 .1 0 .2.1h.4c.1-.1.2-.1.3-.2.2.2.4.3.5.5.4.2.7.3 1 .5.4 0 .8.1 1.2.1.1 0 .3-.1.5-.1.1 0 .2 0 .2-.1l.6-.3.6-.3c.2-.2.3-.4.5-.6 0 0 .1-.1.2-.1.1.1.3.1.5.1.1 0 .1-.1.2-.2s.1-.1.2-.1l.6-.3h.2c.1 0 .2.1.2.1.1.1.3 0 .4 0 .2-.1.3-.3.5-.4.2 0 .5.1.7 0 .3-.1.7 0 1 0 .1 0 .2.1.4.1.9.2 1.8.5 2.6.8.2.1.3.1.5.2.2.2.5.3.7.4.2.1.3.1.5 0 .1-.1 0-.3 0-.4 0-.1-.1-.2-.2-.2-.4-.2-.7-.4-1.1-.6-.4-.1-.8-.3-1.2-.5-.1 0-.1 0-.2-.1-.3 0-.6-.2-.8-.3-.2-.1-.4-.2-.7-.2-.2 0-.4-.1-.5-.2.1-.1.2-.1.3-.1.1 0 .2-.1.3-.2.2-.3.4-.5.4-.9 0-.1 0-.2.1-.2l.1-.1c.2 0 .3.1.5.1.6 0 1.1.2 1.7.3 0 0 .1 0 .1.1.3.1.7.1 1 0l.1-.1c0-.1-.1-.2-.2-.4-.2-.1-.3-.2-.5-.3h-.3c-.3-.1-.6-.1-.8-.1-.1-.1-.3-.1-.4-.2.1-.2.2-.4.2-.7-.1-.2-.1-.5-.2-.7 0-.1 0-.2.1-.2H26.6c.6.1 1.1.2 1.7.2 0 0 .1 0 .1.1.1.1.2.4.5.4.2-.1.3-.1.5-.2l.1-.1c0-.1.1-.1.1-.2.1-.2 0-.4-.2-.5-.1 0-.1 0-.2-.1-.4 0-.8-.2-1.3-.1h-.2c-.3-.1-.6-.1-.9-.1-.1 0-.2 0-.2-.1-.1-.2-.2-.3-.3-.5v-.3c0-.1.1-.2.2-.2.2 0 .3-.1.4-.3v-.2c0 .1.1.2.1.4l.1.1c.2 0 .4 0 .4.1.4.1.5.3.7.5.1 0 .2.1.2.1.2.1.3.1.5.1.2-.1.3-.2.5-.2s.4 0 .5.1c.3 0 .6-.1.9-.1.1 0 .2 0 .2.1v.3c0 .2.1.3.2.4.1.1.3.1.5.1.2-.2.5-.3.8-.4h.3c.2.1.4.1.6.1.1 0 .3 0 .4.1h.3c.1 0 .2-.1.2-.1h1c.2 0 .3.1.5.1.5-.1.9-.4 1.2-.5.2-.2.3-.3.5-.4.2-.1.3-.1.5 0 .1.1.2.1.3.2.1.1.3.2.4.3.2 0 .4.1.6 0 .1 0 .2-.1.3-.1.1-.1.3-.2.4-.3.3-.2.5-.4.9-.5h.9c.2 0 .4 0 .6-.1.5-.1 1-.3 1.4-.4.3-.1.6-.1.9.1h.7c.1 0 .3 0 .4-.1l.9-.3c.2-.1.3-.1.5 0s.4.2.6.2c.3.1.5.1.8.1h.8c.3.1.4.2.5.5.1.1.1.2.1.4.1.2.1.5.1.7 0 .1 0 .3.1.4.2.2.4.2.7.2.1 0 .3-.1.4-.1.3-.1.7-.2 1-.1.5.3 1 .7 1.6.9.1.3 0 .5.1.7 0 0 0 .1.1.1.3.5.5.5 1 .4h.1c.3-.1.6-.1.8 0 .3.1.6.3.8.6l.9.9c.2.1.3.2.4.4 0 .1 0 .3.1.4.1.2.2.3.3.4.1.2.2.3.4.5.2.1.4.3.6.5.1.2.1.5 0 .8 0 .2 0 .4.1.6.7.4.7.4 1 1.1v.2c0 .2.1.3.2.5.1.1.1.2.2.2.2.2.3.4.4.6 0 .1 0 .1.1.2.2.1.3.2.5.3l.3.3v.2h-.7c-.1 0-.2.1-.3.3v.2c0 .2.1.3.2.4.1 0 .2.1.3.1.1 0 .3 0 .4.1 0 .1-.1.2-.1.3 0 .2 0 .3.1.4l.3.3c.1.1.2.2.3.4.1 0 .2 0 .3.1.1 0 .1.1.1.2s-.1.1-.1.1c-.1-.1-.2-.2-.3-.1-.1.1-.2.1-.3.1-.1.1-.1.3-.2.4.1.1.2.3.3.4.1 0 .3.1.4.1.2 0 .3.1.4.3 0 .3 0 .6-.1.9 0 0 0 .1-.1.1h-.3c-.1 0-.2.1-.3.2 0 .1-.1.3-.1.4.1.1.2.2.3.4l-.3.3c-.1.1-.1.3 0 .4l.2.2c0 .1.1.2.1.3H62.5c0 .2-.1.3 0 .6 0 .1.1.1.2.2s.2.1.2.3c0 .1 0 .2-.1.3.1.3.3.6.3.9.1.3.1.6-.1.9-.1.1 0 .3.1.3l.6.3c.1.2.2.4.2.7-.1.1-.1.2-.2.4-.1.1-.2.3-.2.4-.1.1-.1.2 0 .4v.1c.2.4.2.8.2 1.1v.4c.1.2.1.3.2.4l.4.4c.1.1 0 .3.1.4.1.1.3.2.4.2.2.3.2.3.2.5v.7c.1.1.3.1.4.3l-.6.6z"/>
</svg>
