<!-- Generator: Adobe Illustrator 25.0.0, SVG Export Plug-In  -->
<svg version="1.1" xmlns="http://www.w3.org/2000/svg" xmlns:xlink="http://www.w3.org/1999/xlink" x="0px" y="0px" width="231.4px"
	 height="68.5px" viewBox="0 0 231.4 68.5" style="overflow:visible;enable-background:new 0 0 231.4 68.5;" xml:space="preserve">
<style type="text/css">
	.st0{fill:#C9A063;}
</style>
<defs>
</defs>
<g>
	<g>
		<path class="st0" d="M42.3,46.5c-0.2,0.1-0.3,0.1-0.4,0.2c-0.4-0.1-0.2-0.4-0.3-0.7c0,0-0.1,0-0.1,0c0,0.3-0.3,0.4-0.4,0.6
			c0.3,0.4,0.2,0.8,0.3,1.3c-0.1,0.3-0.2,0.6-0.3,0.9c0,0.2,0.1,0.3,0.2,0.6c-0.1,0.1-0.1,0.3-0.2,0.4c-0.1,0.3-0.2,0.6-0.1,0.9
			c0,0.1,0,0.2,0,0.3c-0.1,0.7-0.3,1.4-0.4,2.1c0.1,0.2,0.2,0.4,0.2,0.6c0.1,0.2,0.1,0.5,0.1,0.6c-0.2,0.8-0.3,1.5-0.5,2.4
			c0,0.1-0.1,0.3-0.3,0.6c0.1,0.2,0.2,0.5,0.3,0.7c-0.2,0.7-0.4,1.4-0.6,2.1c0.3,0.7,0.3,1.4-0.1,2.1c-0.1,0.2-0.2,0.5-0.2,0.7
			c0,0.3-0.1,0.6-0.2,0.9c-0.1,0.1,0,0.3-0.1,0.5c0.1,0.1,0.2,0.2,0.3,0.2c0,0.1,0,0.2,0,0.2c-0.1,0.7-0.4,1.3-0.4,2
			c0,0.1-0.1,0.3-0.1,0.3c0,0.3,0.1,0.6,0.1,0.9c-0.1,0.3-0.3,0.2-0.5,0.2c-0.1,0-0.3,0.1-0.4,0.2c-0.5-0.3-1-0.5-1.5-0.8
			c-0.2-0.7-0.2-1.5-0.2-2.2c0-0.1,0-0.2,0-0.3c0-0.3,0.1-0.5,0.4-0.6c0.1,0,0.2-0.1,0.3-0.1c0.1-0.3,0-0.4-0.2-0.5
			c-0.2-0.2-0.3-0.3-0.2-0.6c0.1,0,0.2-0.1,0.3-0.1c0,0,0.1-0.1,0.1-0.1c-0.1-0.2-0.1-0.4,0-0.6c0-0.2,0-0.3,0.1-0.5
			c0-0.1,0-0.3,0.1-0.4c0.1-0.2,0.2-0.4,0.2-0.5c0.1-0.3,0.1-0.7,0.2-1.1c-0.1,0.1-0.2,0.1-0.3,0.2c-0.2-0.6,0.1-1.1,0.4-2.2
			c-0.2-0.9,0-1.6,0.4-2.3c0-0.5,0.1-1,0.1-1.6c0.1-0.3,0.2-0.6,0.3-0.9c0.1-0.3,0.1-0.7,0.1-1c-0.1-0.4-0.1-0.8,0.1-1.1
			c0-0.2-0.1-0.3-0.1-0.4c-0.1-0.3,0-0.7,0.1-1c0.3-0.5,0.3-0.9,0-1.3c0,0,0-0.1-0.1-0.2c0.1-0.1,0.2-0.3,0.3-0.5c0-0.6,0-1.2,0.1-2
			c-0.1-0.3-0.2-0.8-0.2-1.3c0-0.8,0-1.6,0.1-2.4c0.1-0.1,0.3-0.1,0.4-0.2c0.1-0.1,0.1-0.3,0.2-0.4c0.2,0,0.3,0.1,0.5,0.1
			c0.1,0.1,0.2,0.2,0.3,0.2c0.1,0,0.2,0,0.3,0c0.3,0.6,0.5,1.3,0.5,1.9c0,0.3,0.2,0.6,0.2,1c0,0.3-0.1,0.6-0.2,1
			c0,0.1,0.1,0.1,0.1,0.2c0.5-0.9,0.9-1.3,1.7-1.8c0,0,0.1-0.1,0.1-0.1c1-0.3,2.1-0.6,3.2-0.4c0.5,0.1,0.9,0.3,1.4,0.6
			c0.3,0.2,0.6,0.3,0.9,0.5c0.2,0.1,0.3,0.2,0.5,0.4c0.2,0.2,0.4,0.3,0.6,0.5c0.1,0.1,0.2,0.2,0.3,0.3c0.4,0.6,0.9,1.2,1.2,1.9
			c0.1,0.2,0.2,0.5,0.2,0.7c0.1,0.3,0.1,0.6,0.2,1c0.1,0.3,0,0.7,0,1.1c0.1,0.1,0.2,0.2,0.2,0.4c-0.1,0.2-0.2,0.4-0.2,0.6
			c0,0.3-0.1,0.5-0.1,0.7c-0.1,0.2,0,0.4,0,0.7c-0.1,0.1-0.2,0.3-0.4,0.4c0,0.2,0,0.3,0,0.6c-0.2,0.3-0.3,0.6-0.5,0.9
			c0,0.1,0,0.2,0,0.4c-0.4,0.6-0.7,1.2-0.8,2c-0.2,0.2-0.5,0.4-0.7,0.5c-0.3,0.9-0.7,1.6-1.4,2.3c-0.2,0.2-0.4,0.5-0.6,0.7
			c-0.2,0-0.4,0.1-0.6,0.2c-0.1,0.2-0.1,0.4-0.2,0.5c-0.2,0.3-0.4,0.5-0.6,0.8c-0.4,0.2-0.8,0.4-1.1,0.6c-0.1,0-0.1,0.1-0.3,0.4
			c0.4-0.2,0.6-0.3,0.8-0.3c0,0,0,0.1,0,0.1c-0.3,0.5-0.8,0.8-1.3,1c-0.5,0.3-1,0.6-1.4,1.1c-0.1,0-0.2,0-0.5-0.1
			c-0.1,0-0.2,0.1-0.4,0.1c-0.2,0-0.3,0-0.5,0.1c-0.3-0.2-0.8-0.4-1-0.9c0.1-0.4,0.2-0.9,0.3-1.4c0.2,0,0.4-0.1,0.6-0.1
			c0.1-0.2,0.1-0.4,0.2-0.6c0.7-0.1,1.3-0.4,1.8-0.9c0.2,0,0.3,0,0.5,0c0.2-0.1,0.1-0.3,0.1-0.4c0.3-0.2,0.6-0.3,1-0.5
			c0.3-0.3,0.6-0.6,1-0.9c0,0,0.1-0.1,0.1-0.3c0.2-0.1,0.3-0.2,0.5-0.3c0.3-0.4,0.4-0.9,0.8-1c0.4-0.7,0.8-1.3,1.2-1.9
			c0.3-0.4,0.5-0.9,0.6-1.5c0-0.4,0.1-0.7,0.3-1c0.4-0.7,0.6-1.4,0.7-2.2c0.1-0.3,0.2-0.7,0.1-1.1c0-0.1,0.1-0.3,0.1-0.3
			c-0.1-0.7-0.1-1.4-0.2-2c-0.3-1.1-1-1.8-1.9-2.4c-0.2-0.1-0.5-0.2-0.7-0.3c-0.7-0.2-1.9-0.3-2.5-0.2c-0.1,0-0.2,0.1-0.2,0.1
			c-0.2,0.2-0.5,0.1-0.8,0.2c-0.1,0.1-0.3,0.2-0.5,0.4c-0.2-0.1-0.3-0.1-0.5-0.2c-0.1,0.1-0.1,0.1-0.2,0.2
			C42.5,45.8,42.4,46.1,42.3,46.5z"/>
		<path class="st0" d="M67.2,59.8c-0.4,0.3-0.7,0.7-1.2,1c-0.4,0.5-1,0.8-1.5,1.2c-0.4,0.4-1,0.5-1.5,0.7c-0.6,0.2-1.1,0.3-1.8,0.5
			c-1.1,0-2.2-0.2-3.4-0.6c-0.4-0.1-0.7-0.4-1.1-0.6c-0.3-0.2-0.6-0.3-0.9-0.4c-0.3-0.1-0.6-0.3-0.9-0.5c-0.2-0.2-0.5-0.3-0.7-0.4
			C54.1,60.4,54,60.2,54,60c0.2-0.2,0.3-0.3,0.5-0.4c0-0.1,0.1-0.2,0-0.2c-0.1-0.5-0.1-1-0.3-1.5c-0.2-0.5-0.1-1,0-1.6
			c0-0.3,0.1-0.6,0.2-1c0.1-0.2,0.3-0.5,0.4-0.8c0-0.1,0-0.3,0-0.5c0-0.1,0.1-0.2,0.2-0.3c0.6-0.9,1.1-1.8,1.7-2.7
			c0.1-0.1,0.1-0.3,0.2-0.3c0.4-0.2,0.6-0.6,0.7-1c0.4-0.4,0.8-0.8,1.1-1.1c0.1-0.1,0.3-0.2,0.4-0.3c0.3-0.2,0.6-0.4,0.9-0.7
			c0.3-0.3,0.7-0.5,1.1-0.5c0.3,0,0.6-0.1,0.9-0.1c0.4,0.3,0.6,0.8,1.1,0.9c0.1,0,0.3,0,0.4,0c0.1,0,0.1,0.1,0.2,0.1
			c0.6,0.6,1.2,1.2,1.8,1.9c0.1,0.5,0.1,1.1,0.2,1.7c0,0.3-0.4,0.4-0.6,0.7c0,0.2,0,0.4,0,0.7c-1.1,1.5-2.5,2.9-3.9,4.1
			c-0.1-0.1-0.3-0.1-0.4-0.2c0,0.2,0,0.3,0,0.4c-0.6,0.6-1.2,1.2-1.5,2c-0.5,0.4-1.2,0.7-1.7,1.2c0,0.2,0.1,0.3,0.3,0.4
			c0.3,0.2,0.7,0.3,1,0.4c0.2-0.1,0.3-0.1,0.5-0.2c0.1,0.1,0.3,0.1,0.5,0.3c0.7-0.2,1.5-0.4,2.1-0.9c0.2-0.1,0.4-0.2,0.6-0.3
			c0.5-0.1,0.8-0.3,1.2-0.6c0.4-0.4,0.8-0.8,1.2-1.3c0.2-0.3,0.5-0.5,0.7-0.9c0.3-0.4,0.7-0.7,1.1-1c0.5-0.3,0.9-0.6,1.4-0.7
			c0.3,0,0.5,0.2,0.7,0.4c0,0.1,0,0.2,0,0.2c-0.4,0.6-0.8,1.1-1,1.8C67.7,58.8,67.4,59.3,67.2,59.8z M56.2,58.5
			c0.3-0.1,0.5-0.4,0.8-0.6c0.4-0.4,0.8-0.8,1.3-1.2c0.6-0.5,1.3-0.9,1.8-1.5c0.4-0.4,0.8-0.6,1.2-0.7c0.7-0.8,1.4-1.6,2.1-2.4
			c-0.1-0.4-0.2-0.9,0.1-1.4c-0.2-0.3-0.4-0.6-0.4-0.9c0-0.1-0.2-0.3-0.2-0.4c-0.2,0-0.4,0-0.5,0c-0.2,0-0.4-0.1-0.5-0.2
			c-0.3,0.1-0.6,0.2-0.9,0.3c-0.5,0.2-0.9,0.4-1.1,0.9c-0.5,0.2-0.5,0.2-0.6,0.4c-0.3,0.6-0.8,1-1.2,1.5c-0.4,0.5-0.7,1.1-1.1,1.6
			c-0.3,0.5-0.6,1.1-0.8,1.6c-0.1,0.4-0.3,0.9-0.4,1.3c0,0.5,0,0.9,0,1.3C55.8,58.3,55.9,58.5,56.2,58.5z"/>
		<path class="st0" d="M111.7,49.4c-0.1-0.1-0.1-0.2-0.2-0.4c0.2-0.2,0.4-0.4,0.5-0.6c0.2-0.7,0.3-1.2,0.5-1.7c0-0.2,0-0.4,0.1-0.6
			c0.1-0.6,0.3-1.1,0.9-1.5c0.3,0.2,0.6,0.3,0.9,0.5c0.1,0.1,0.2,0.1,0.2,0.2c0.1,0.3,0.4,0.5,0.5,0.9c-0.3,0.3-0.5,0.7-0.6,1.2
			c0.2,0,0.3,0,0.4,0c0.5-0.2,1-0.5,1.6-0.7c0.6-0.2,1.1-0.6,1.8-0.6c0.1,0,0.1,0,0.2-0.1c0.7-0.5,1.6-0.7,2.4-1
			c0.4-0.2,0.7-0.3,1.1-0.5c0.5-0.3,1.1-0.2,1.6,0c0,0,0,0,0.1,0.1c0,0.1-0.1,0.3-0.1,0.4c0,0.2,0,0.3-0.1,0.5
			c-0.2,0.2-0.3,0.3-0.5,0.5c-0.3,0-0.6,0.2-0.8,0.2c-0.4,0.1-0.8,0.4-1.3,0.4c-0.2,0-0.3,0.1-0.5,0.2c-0.5,0.2-1.1,0.5-1.6,0.7
			c-0.9,0.3-1.8,0.6-2.8,0.9c-0.2,0-0.3,0-0.5,0.1c-0.6,0-1.1,0.3-1.5,0.5c-0.5,0.9-0.6,1.9-0.9,2.8c-0.2,0.9-0.2,1.7,0.2,2.5
			c0.3,0.6,0.6,1.2,1.1,1.6c0.5,0.4,0.9,1,1.2,1.5c0.3,0.3,0.4,0.8,0.5,1.2c0.1,0.2,0.1,0.5,0.2,0.7c-0.1,0.1-0.1,0.3-0.2,0.4
			c-0.4,0.4-0.7,0.9-1.3,1.2c-0.4,0.2-0.6,0.5-0.9,0.8c-0.2,0-0.3-0.1-0.5-0.1c-0.1,0.1-0.2,0.3-0.4,0.4c-0.1,0-0.3,0.1-0.5,0.1
			c-0.1,0.1-0.1,0.3-0.2,0.4c-0.3,0.2-0.6,0.3-0.9,0.5c-0.2-0.1-0.5-0.2-0.7-0.3c-0.2,0.2-0.3,0.4-0.5,0.6c-0.2,0.2-0.3,0.4-0.5,0.6
			c-0.1,0-0.4,0.1-0.7,0.2c-0.3-0.2-0.6-0.3-0.8-0.5c0-0.3,0-0.6,0-1c0.4-0.4,0.7-0.9,1.2-1.2c0.1,0,0.3-0.1,0.5-0.1
			c0.3-0.3,0.8-0.6,1-1c0.3,0,0.6,0,0.9,0c0.1-0.2,0.2-0.3,0.2-0.5c0.6-0.4,1.3-0.8,1.9-1.2c0.2-0.1,0.3-0.3,0.4-0.4
			c0.1-0.4,0-0.6-0.2-0.8c-0.3-0.4-0.7-0.9-1-1.3c-0.1-0.1-0.2-0.3-0.3-0.4c-0.5-0.4-0.8-0.9-1.1-1.5c-0.2-0.3-0.2-0.7-0.3-1.1
			c-0.1-0.7-0.1-1.4,0.1-2.1C111.5,50.6,111.6,50,111.7,49.4z"/>
		<path class="st0" d="M82.2,55.7c0.1,0.5-0.1,0.7-0.4,0.9c-0.3,0.2-0.7,0.3-1,0.4c0,0.1-0.1,0.1-0.1,0.2c0,0.5-0.2,1-0.5,1.4
			c-0.4,0.5-0.9,1.1-1.6,1.3c-0.3,0.1-0.6,0.3-1,0.5c-0.2,0-0.6,0.1-0.9,0.1c-0.7,0.1-1.3,0-2-0.2c-0.2-0.1-0.3-0.1-0.4-0.2
			c-0.1-0.1-0.2-0.2-0.3-0.2c-1.3-0.7-1.6-1.2-2-2.3c-0.1-0.3-0.2-0.6-0.3-1c-0.1-0.5-0.1-0.9,0-1.4c0.1-0.4,0.1-0.8,0.2-1.1
			c0.1-0.2,0.2-0.5,0.3-0.7c0-0.1,0-0.2,0-0.3c0.2-0.5,0.3-1.1,0.7-1.5c0.1-0.1,0.1-0.2,0.1-0.3c0-0.4,0.3-0.8,0.6-1.1
			c0.2-0.3,0.5-0.5,0.8-0.8c0.3-0.3,0.6-0.5,0.9-0.9c0.1,0,0.3,0,0.5-0.2c0.2-0.3,0.5-0.3,0.8-0.3c0.2,0,0.4,0.1,0.7,0.1
			c0.4,0.2,0.9,0.4,1.3,0.6c0.6,0.8,1.4,1.5,1.6,2.4c-0.2,0.4-0.5,0.4-0.8,0.3c-0.6-0.2-1-0.5-1.2-1.2c-0.3-0.2-0.7-0.4-1.1-0.6
			c-0.3,0.2-0.5,0.4-0.7,0.7c-0.1,0.2-0.3,0.4-0.4,0.5c-0.6,0.5-1,1.1-1.4,1.7c-0.1,0.2-0.2,0.4-0.3,0.6c-0.2,0.4-0.3,0.8-0.5,1.3
			c-0.2,0.5-0.3,1-0.3,1.5c0,0.5,0,0.9,0,1.4c0.2,0.3,0.3,0.6,0.4,0.9c0.2,0.5,0.5,0.8,1,1c0.1,0,0.2,0,0.2,0.1
			c0.6-0.1,0.9-0.7,1.5-0.6c0.1-0.1,0.3-0.2,0.4-0.3c0.3-0.4,0.7-0.7,1.1-0.9c0.3-0.2,0.6-0.5,0.8-0.7c0.4-0.3,0.9-0.6,1.3-0.9
			C80.9,55.5,81.5,55.4,82.2,55.7z"/>
		<path class="st0" d="M100.8,53.2c0-0.2,0-0.5,0-0.7c0-0.4,0.1-0.7,0.2-1.1c0.1-0.2,0.2-0.5,0.2-0.7c0-0.1,0-0.1,0-0.2
			c0.3-0.7,0.4-1.6,0.7-2.3c0.1-0.1,0.1-0.3,0.1-0.4c0.1-0.3,0.2-0.5,0.5-0.7c0.2,0,0.4,0,0.7,0c0.2,0.2,0.3,0.5,0.5,0.7
			c0,0.6,0,1.2-0.2,1.9c-0.3,0.9-0.4,1.9-0.6,2.8c0,0.2,0,0.4-0.1,0.6c-0.1,0.1-0.2,0.3-0.3,0.5c0,0.4,0,0.8-0.3,1.1
			c0,0.1-0.1,0.2-0.1,0.2c0,0.7-0.3,1.3-0.4,2c0,0.2,0,0.4,0,0.7c0,0.3,0,0.7-0.2,1c-0.1,0.2-0.1,0.4-0.1,0.6c0.1,0.5-0.1,1-0.3,1.5
			c-0.1,0.2-0.1,0.4-0.2,0.6c-0.1,0-0.3,0.1-0.4,0c-0.6-0.2-1.1-0.6-1.3-1.3c0-0.1-0.1-0.2-0.1-0.3c0-0.3,0-0.6,0-1
			c0.1-0.1,0.2-0.3,0.3-0.4c0.1-0.5,0.2-1,0.2-1.5c0-0.3,0-0.5-0.1-0.9c0.3-0.3,0.3-0.9,0.5-1.3C100.5,54.2,100.6,53.7,100.8,53.2
			C100.8,53.2,100.8,53.2,100.8,53.2z"/>
		<path class="st0" d="M93.5,59.7c0.2,0.4,0.4,0.8,0.1,1.3c-0.2,0.1-0.5,0.1-0.7,0.2c-0.5-0.3-1-0.5-1.5-0.7
			c-0.4-0.2-0.9-0.4-1.3-0.5c-0.3-0.1-0.6-0.3-0.9-0.5c-0.5-0.4-1-0.7-1.4-1.1c-0.2-0.2-0.4-0.4-0.6-0.6c0-0.2,0-0.3,0-0.4
			c0.1,0,0.1-0.1,0.2-0.1c0.2,0,0.4,0,0.7-0.1c0.1-0.1,0.3-0.2,0.4-0.3c0.1,0,0.1,0,0.2,0c0.3,0.2,0.7,0.3,1,0.5
			c0.1,0.1,0.2,0.2,0.4,0.2c0.9,0.3,1.1,0.5,1.7,1C92.3,59.1,92.8,59.5,93.5,59.7z"/>
		<path class="st0" d="M125.1,61.8c0.3-0.3,0.4-0.7,0.8-0.8c0.4,0,0.7,0.3,1.1,0.4c0.4-0.2,0.8-0.3,1.1-0.5c0.3,0.1,0.5,0.2,0.5,0.5
			c-0.1,0.2-0.3,0.5-0.5,0.8c0.1,0.3,0.2,0.7,0.1,1.2c-0.3,0.1-0.6-0.1-0.9,0.1c-0.3-0.3-0.7-0.6-1-0.9
			C125.9,62.4,125.4,62.3,125.1,61.8z"/>
		<g>
			<path class="st0" d="M173.6,54.4c0,0.1-0.1,0.2-0.1,0.3c-0.1,0-0.2,0-0.3,0c0,0.1,0,0.2,0.1,0.3c-0.2,0.2-0.4,0.4-0.6,0.6
				c-0.3,0.1-0.5,0.4-0.9,0.4c-0.1,0-0.2,0-0.3,0.1c-0.1,0.2-0.2,0.3-0.2,0.4c-0.2,0-0.4,0.1-0.5,0.1c-0.2,0-0.4,0.1-0.6,0
				c-0.2,0-0.4-0.1-0.5-0.2c-0.1-0.1-0.2-0.1-0.3-0.2c-0.2-0.4-0.5-0.7-0.9-0.9c-0.2-0.1-0.2-0.3-0.1-0.5c0.5,0,0.9-0.3,1.2-0.7
				c0.1-0.1,0.3-0.3,0.4-0.4c0.1-0.1,0.2-0.2,0.2-0.4c0.1-0.2,0.2-0.5,0.3-0.7c0.1-0.1,0.2-0.1,0.3-0.2c0-0.3,0.2-0.5,0.4-0.8
				c0.1-0.1,0.3-0.3,0.3-0.5c0-0.1,0.1-0.2,0.1-0.3c0.1-0.2,0.2-0.5,0.4-0.7c0.1-0.2,0.2-0.3,0.3-0.4c0.1,0,0.2,0,0.3,0
				c-0.1-0.3-0.1-0.6,0-0.9c0.1-0.3,0.2-0.5,0.4-0.9c0-0.1-0.1-0.2-0.1-0.3c0.1-0.2,0-0.6,0-0.9c-0.2-0.2-0.5-0.3-0.8-0.1
				c-0.1-0.1-0.1-0.2-0.1-0.2c-0.3,0-0.5-0.1-0.8-0.1c-0.5-0.1-1,0-1.4,0.3c-0.1,0.1-0.4,0.1-0.5,0.1c0,0-0.1,0-0.1,0
				c-0.3,0.2-0.7,0.2-1,0.5c-0.1,0.1-0.2,0.2-0.3,0.3c-0.3,0.2-0.7,0.5-1,0.7c-0.1,0.1-0.1,0.1-0.2,0.2c-0.2,0-0.4,0-0.5,0.2
				c-0.3,0.1-0.6,0-0.9-0.2c0-0.4,0.1-0.7,0.4-0.9c0,0,0.1,0,0.1-0.1c0.2-0.5,0.7-0.9,1-1.3c0.1-0.1,0.2-0.3,0.2-0.4
				c0.1-0.2,0.1-0.3,0.2-0.5c0.1,0,0.3-0.1,0.5-0.1c0,0,0.1,0,0.1,0.1c0.1,0,0.3-0.1,0.4-0.1c0,0,0-0.1,0-0.1
				c0.2-0.1,0.3-0.1,0.5-0.2c0.1,0,0.1,0,0.2,0.1c0,0.1,0,0.1,0,0.2c0.1-0.1,0.1-0.1,0.2-0.2c0.1-0.1,0.2-0.1,0.3-0.1
				c0.3,0,0.6-0.1,0.9,0c0.2,0.1,0.5,0,0.7,0c0.4,0,0.7,0,1.1,0.2c0.6,0.3,1.1,0.5,1.7,0.8c0,0,0.1,0,0.1,0.1
				c0.2,0.3,0.6,0.5,0.7,0.8c0.1,0.1,0.1,0.3,0.1,0.4c0.1,0.1,0.2,0.2,0.2,0.2c0,0.2,0,0.4,0.1,0.6c0,0,0,0.1,0,0.1
				c-0.1,0.3-0.1,0.5-0.1,0.8c-0.4,0.5-0.4,0.5-0.5,1.2c-0.3,0.4-0.6,0.7-1,1.1c0,0.2,0,0.3-0.1,0.5c0,0.1-0.1,0.3-0.2,0.4
				c-0.1,0.1-0.2,0.2-0.4,0.3c0,0.4-0.4,0.6-0.5,0.9c0.1,0.1,0.2,0.2,0.3,0.2c0.1-0.2,0.2-0.4,0.4-0.5c0.2-0.1,0.4-0.2,0.5-0.2
				c0.1-0.1,0.1-0.2,0.2-0.3c0.1,0,0.2,0,0.2-0.1c0.2-0.1,0.5-0.2,0.6-0.4c0-0.1,0.1-0.1,0.2-0.2c0.2-0.1,0.4-0.3,0.5-0.6
				c0.2-0.1,0.3-0.2,0.5-0.3c0-0.1,0.1-0.2,0.1-0.3c0,0,0.1-0.1,0.1-0.1c0.2-0.1,0.4-0.2,0.5-0.5c0.1-0.2,0.3-0.3,0.5-0.4
				c0.2-0.3,0.4-0.5,0.6-0.7c0.2-0.2,0.4-0.4,0.6-0.5c0.1-0.1,0.1-0.1,0.2-0.1c0.2-0.1,0.4-0.2,0.5-0.4c0.1,0,0.2-0.1,0.3-0.1
				c0.2-0.3,0.6-0.5,0.6-0.9c0.4-0.2,0.6-0.5,0.7-0.9c0-0.1,0.1-0.2,0.2-0.3c0.2,0,0.3,0,0.5,0c0.3,0.1,0.5,0,0.7-0.2
				c0,0,0.1-0.1,0.1-0.1c0.1,0.1,0.2,0.1,0.3,0.2c0.2,0.1,0.4,0.2,0.5,0.3c0.1,0.1,0.2,0.2,0.3,0.3c0.2,0.1,0.5,0.2,0.7,0.3
				c0,0.3,0,0.6,0,0.9c-0.2,0.3-0.3,0.7-0.2,1.1c0,0.2,0,0.3,0,0.5c0,0.2,0,0.4,0,0.6c0,0.5,0,1.1,0.1,1.6c0.1,0.1,0.1,0.3,0.2,0.4
				c0.1,0.3,0.3,0.5,0.5,0.7c0,0,0.1,0,0.2,0c0.2-0.3,0.3-0.5,0.3-0.9c0-0.1,0.1-0.2,0.2-0.4c0.1-0.1,0.2-0.2,0.3-0.4
				c0.1-0.3,0.3-0.5,0.4-0.8c0,0,0-0.1,0.1-0.1c0.2-0.1,0.3-0.3,0.3-0.6c0.3-0.2,0.5-0.4,0.6-0.7c0.1-0.2,0.2-0.3,0.3-0.4
				c0.1-0.1,0.2-0.2,0.2-0.2c-0.1-0.1-0.1-0.3-0.2-0.4c0.2-0.2,0.3-0.4,0.3-0.7c0.1,0,0.1,0,0.2,0c0-0.4,0.4-0.6,0.6-0.9
				c0.1-0.5,0.1-0.5,0.4-0.7c-0.1-0.2,0.1-0.3,0.2-0.5c0.1-0.2,0.2-0.3,0.4-0.4c0.1-0.1,0.1-0.3,0.2-0.4c0.1-0.2,0.2-0.4,0.5-0.4
				c0-0.1,0-0.2,0-0.3c0.1-0.1,0.2-0.2,0.3-0.2c0.1,0,0.2,0,0.4-0.1c0.1-0.2,0.2-0.3,0.1-0.5c0.2,0,0.3,0,0.4,0.1
				c0.1-0.1,0.1-0.3,0.2-0.4c0.2,0,0.3,0.2,0.4,0.3c0.3,0.2,0.5,0.4,0.8,0.6c0.1,0.1,0.2,0.2,0.3,0.3c0.1,0,0.2,0,0.2,0
				c0.1,0.2,0.1,0.5,0.1,0.8c-0.2,0.1-0.4,0.3-0.6,0.4c0,0.1-0.1,0.2-0.1,0.4c-0.1,0.1-0.3,0.3-0.5,0.4c-0.1,0.3-0.2,0.8-0.6,1
				c0,0.2-0.1,0.4-0.1,0.5c-0.1,0-0.1,0.1-0.2,0.1c-0.7,1.5-0.7,1.5-1.1,1.8c0,0.3-0.2,0.5-0.4,0.8c-0.2,0.2-0.4,0.4-0.4,0.8
				c-0.1,0.1-0.2,0.1-0.3,0.2c-0.1,0.2-0.2,0.3-0.3,0.5c0,0.1-0.1,0.3-0.1,0.4c-0.1,0.2-0.1,0.3-0.2,0.5c-0.1,0-0.2,0-0.2,0
				c-0.2,0.4-0.4,0.7-0.6,1c0,0,0.1,0.1,0.1,0.2c0.2,0.1,0.4,0,0.6,0c0.2-0.1,0.4-0.2,0.7-0.3c0,0,0.1-0.1,0.1-0.1
				c0.4,0,0.7-0.2,1.1-0.3c0.2-0.1,0.4-0.2,0.7-0.3c0.3,0,0.7-0.1,1-0.2c0.2-0.1,0.4-0.1,0.5-0.1c0.4,0.1,0.8,0,1.1-0.2
				c0.2-0.1,0.4-0.1,0.6-0.2c0.1-0.1,0.1-0.3,0.3-0.3c0.4,0.1,0.8,0.1,1.1,0.2c0.1,0.1,0.1,0.3,0,0.4c-0.1,0.1-0.1,0.3-0.2,0.5
				c0,0-0.1,0.1-0.2,0.1c-0.1,0.1-0.2,0.1-0.3,0.3c-0.1,0.1-0.2,0.2-0.4,0.2c0,0,0,0.1,0,0.2c0.1,0,0.2,0,0.3,0
				c-0.1,0.1-0.1,0.2-0.2,0.3c-0.3,0-0.5,0.2-0.6,0.5c-0.1,0.2-0.2,0.3-0.3,0.4c-0.3,0.2-0.7,0.4-1,0.7c-0.1,0.1-0.3,0.1-0.6,0
				c0,0.1,0,0.1,0,0.2c-0.2,0.2-0.4,0-0.7,0c-0.1,0.1-0.2,0.2-0.3,0.3c-0.1,0-0.1-0.1-0.2-0.1c-0.2,0.1-0.4,0.1-0.6,0
				c-0.2,0.1-0.4,0.1-0.6,0.2c-0.2-0.1-0.5-0.1-0.7,0.1c-0.1,0-0.3,0-0.4-0.1c-0.1,0.1-0.1,0.1-0.2,0.2c-0.2,0-0.4-0.1-0.6-0.1
				c0,0,0,0,0,0c-0.1-0.1-0.3-0.2-0.4-0.3c0,0.1-0.1,0.2-0.1,0.2c-0.2,0-0.3,0-0.5,0c-0.4,0.5-0.8,1-1.2,1.5c-0.6,0-0.6,0.1-0.4,0.6
				c-0.2,0.1-0.3,0.3-0.4,0.5c-0.1,0-0.2,0.1-0.3,0.1c0,0,0,0.1,0,0.1c0,0,0,0.1,0,0.1c0,0.5-0.1,0.8-0.5,1
				c-0.2,0.4-0.4,0.8-0.6,1.2c0,0.1-0.1,0.1-0.1,0.1c-0.1,0.1-0.2,0.3-0.3,0.5c0,0.2-0.2,0.3-0.3,0.5c-0.1,0.2-0.1,0.4-0.1,0.5
				c-0.1,0.2-0.2,0.3-0.3,0.5c0,0.1-0.1,0.2-0.1,0.3c-0.1,0.1-0.2,0.1-0.3,0.2c0,0.2,0.1,0.5,0.1,0.7c-0.2,0.1-0.3,0.4-0.4,0.6
				c0,0.1-0.1,0.2-0.1,0.2c0,0.2-0.1,0.4-0.2,0.6c-0.1,0.1-0.2,0.2-0.4,0.3c0,0.4,0.3,0.7,0.4,1.1c-0.1,0.1-0.2,0.3-0.4,0.4
				c-0.2-0.1-0.3-0.2-0.5-0.3c-0.2-0.1-0.4-0.2-0.5-0.3c-0.1,0-0.2-0.1-0.2-0.2c-0.3-0.3-0.5-0.7-0.7-1c-0.2-0.3-0.4-0.6-0.6-0.9
				c0-0.2,0.1-0.4,0.1-0.6c0.1-0.1,0.2-0.2,0.3-0.2c-0.1-0.4,0-0.8,0.3-1.2c-0.1-0.2-0.2-0.4-0.3-0.6c0.1-0.1,0.1-0.2,0.2-0.3
				c0.1,0,0.2,0,0.2,0c0.1,0,0.3-0.1,0.3-0.2c0.1-0.2,0.3-0.3,0.5-0.3c0.2-0.1,0.3-0.1,0.5-0.2c0-0.3,0.1-0.6,0.1-0.9
				c0.1-0.1,0.2-0.1,0.3-0.2c0-0.1,0-0.2,0-0.3c0.1,0,0.2-0.1,0.3-0.1c0.1-0.5,0.4-1,0.9-1.2c0-0.1,0-0.3,0-0.4
				c0.2-0.3,0.2-0.3,0.5-0.4c0.2-0.5,0.4-1,0.7-1.6c0.6-0.7,0.5-0.5,0.7-1.2c-0.4-0.4-0.9-0.8-1.3-1.2c-0.4-0.4-0.8-0.9-0.9-1.4
				c0-0.1-0.1-0.2-0.1-0.3c0.2-0.2,0.1-0.4,0.1-0.7c-0.1-0.3-0.1-0.6-0.2-0.9c0-0.2,0-0.4,0-0.6c0,0-0.1,0-0.2,0
				c-0.1,0-0.1,0-0.2-0.1c0,0.1,0,0.1,0,0.2c-0.6,0.4-1.1,0.9-1.7,1.3c0,0,0,0,0,0c-0.1,0.1-0.2,0.3-0.3,0.4c0,0,0,0,0,0
				c-0.3,0.2-0.6,0.3-0.9,0.5c-0.2,0.2-0.4,0.6-0.8,0.7c-0.2,0.3-0.4,0.5-0.8,0.6c0,0.1-0.1,0.2-0.1,0.3c-0.1,0.1-0.2,0.1-0.4,0.2
				c0,0.1,0,0.1-0.1,0.3c-0.1,0.1-0.3,0.2-0.5,0.4c0,0,0,0.1-0.1,0.2c-0.1,0.1-0.3,0.2-0.4,0.3C174.2,54.3,174.1,54.3,173.6,54.4z
				 M190.8,52.7c0.2,0,0.3,0,0.4,0c0-0.1,0-0.2,0-0.3c-0.1,0-0.2-0.1-0.3-0.1C190.9,52.5,190.8,52.6,190.8,52.7z"/>
			<path class="st0" d="M157.3,44.6c0.1,0.1,0.2,0.2,0.2,0.3c0.3-0.1,0.5,0,0.8,0.2c0,0,0.1,0.1,0.2,0.1c0.3,0.1,0.5,0.2,0.7,0.4
				c0.8,0.1,1.5,0.5,1.7,1c0.3,0.1,0.5,0.4,0.7,0.7c0,0.1,0.1,0.1,0.1,0.2c0.2,0.2,0.3,0.5,0.2,0.8c0,0.2,0,0.4,0.2,0.5
				c0.2,0.1,0.1,0.4,0.1,0.5c-0.1,0.2-0.2,0.3-0.3,0.5c0.1,0.4,0.4,0.7,0.4,1.2c0,0.4-0.1,0.8-0.3,1.1c0,0.2,0,0.5-0.1,0.8
				c-0.1,0.4-0.1,0.8-0.4,1.1c-0.1,0.1-0.1,0.2-0.2,0.4c-0.1,0.1-0.3,0.2-0.3,0.4c0,0.1-0.1,0.1-0.2,0.2c-0.3,0.3-0.6,0.6-0.9,1
				c-0.1,0.1-0.2,0.2-0.3,0.2c-0.1,0.1-0.3,0.1-0.4,0.2c-0.2,0.1-0.4,0.2-0.6,0.4c-0.1,0.1-0.2,0.2-0.4,0.2c-0.4,0-0.7,0.2-1.1,0.2
				c-0.3,0-0.7,0-1,0c-0.2,0-0.4-0.1-0.6-0.1c-0.1-0.1-0.3-0.2-0.5-0.2c-0.1-0.1-0.1-0.1-0.2-0.2c-0.3,0-0.5-0.2-0.8-0.4
				c-0.2-0.2-0.5-0.5-0.7-0.7c0,0-0.1-0.1-0.1-0.1c-0.2-0.3-0.3-0.7-0.5-1.1c0-0.1,0.1-0.2,0.1-0.3c-0.1-0.1-0.1-0.2-0.2-0.3
				c0.2-0.6,0.1-1.3-0.1-1.9c0-0.1,0.1-0.2,0.1-0.3c0-0.2,0-0.3,0-0.4c-0.2,0.2-0.4,0.4-0.7,0.5c-0.1,0.3-0.4,0.4-0.6,0.6
				c0,0-0.1,0-0.1,0.1c-0.3,0.5-1,0.7-1.4,1c0,0-0.1,0.1-0.1,0.1c-0.4,0.3-0.9,0.7-1.3,1c-0.6,0.5-1.3,0.9-2,1.3
				c-0.1,0.1-0.2,0.1-0.2,0.2c-0.2,0.2-0.5,0.4-0.7,0.7c-0.1,0.1-0.3,0.2-0.5,0.3c-0.5,0.3-0.9,0.6-1.3,1c-0.1,0.1-0.1,0.1-0.2,0.1
				c-0.1,0-0.1,0-0.2,0.1c-0.1,0.2-0.4,0.3-0.6,0.5c-0.1,0.1-0.2,0.1-0.3,0.2c-0.1,0-0.2,0.1-0.2,0.1c-0.3,0.4-0.7,0.5-1.2,0.7
				c-0.1,0-0.2,0-0.3,0.1c-0.3,0.2-0.5,0.2-0.8,0c-0.3-0.3-0.6-0.6-0.9-0.9c0.1-0.4,0.3-0.7,0.6-0.9c0.1,0,0.2-0.1,0.2-0.2
				c0.1-0.3,0.4-0.5,0.6-0.6c0,0,0.1-0.1,0.1-0.1c0.1-0.2,0.2-0.4,0.4-0.6c0.1-0.1,0.1-0.2,0.2-0.4c0.3-0.1,0.3-0.5,0.4-0.8
				c0.1-0.1,0.3-0.2,0.4-0.3c0.1-0.2,0.2-0.3,0.2-0.5c0-0.2,0.1-0.4,0.3-0.5c0-0.2,0-0.4,0.2-0.6c0.1,0,0.2-0.1,0.3-0.1
				c0-0.1,0.1-0.2,0.2-0.3c-0.2,0-0.3,0-0.3,0c0,0,0,0,0-0.1c0.3-0.6,0.5-1.2,0.7-1.9c0-0.1,0.1-0.1,0.1-0.2
				c0.2-0.4,0.3-0.8,0.2-1.2c0-0.1,0-0.1,0-0.2c0.1-0.3,0-0.6-0.2-0.9c-0.1,0-0.2,0-0.3,0c-0.2,0-0.3,0-0.4-0.1c-0.1,0-0.3,0-0.4,0
				c-0.3,0-0.5,0.1-0.8,0.1c-0.4,0-0.7,0.1-1.1,0.1c-0.2,0-0.3,0.1-0.5,0.2c-0.2,0.1-0.4,0.2-0.7,0.2c-0.3,0-0.5,0.1-0.7,0.2
				c-0.3,0.1-0.7,0.1-1,0.2c-0.1,0-0.2,0-0.3,0c-0.1,0-0.2-0.1-0.3-0.1c-0.1-0.1-0.2-0.1-0.4-0.2c-0.2-0.1-0.3-0.2-0.5-0.3
				c0.1-0.1,0.2-0.1,0.3-0.1c0.2,0.1,0.4,0,0.5-0.1c0.3-0.1,0.5-0.2,0.8-0.3c0.2-0.1,0.4-0.3,0.6-0.4c0.3,0.1,0.5-0.1,0.7-0.3
				c0.4,0,0.8,0,1.1,0c0.2,0,0.4,0,0.6-0.1c0.9-0.3,1.8-0.2,2.8-0.1c0.2,0,0.5,0.2,0.7,0.3c0.2,0.1,0.4,0.2,0.6,0.3
				c0.3,0.5,0.5,0.9,0.7,1.3c0.1,0.2,0.1,0.4,0.1,0.6c0,0.2-0.1,0.4-0.1,0.5c0,0.2-0.1,0.3-0.1,0.5c0.1,0.3,0.1,0.6,0.2,0.8
				c-0.1,0.1-0.1,0.2-0.2,0.3c-0.1,0.2-0.2,0.3-0.4,0.4c-0.2,0.1-0.3,0.2-0.2,0.4c0.1,0,0.1,0,0.2,0.1c0,0.3-0.2,0.4-0.4,0.5
				c-0.1,0.4-0.3,0.7-0.7,1c0,0.2,0,0.3,0,0.5c-0.3,0.4-0.6,0.7-0.8,1.2c0.4,0,0.4,0,0.8-0.3c0.1,0,0.2,0,0.3-0.1
				c0.4-0.1,0.7-0.2,1-0.5c0.4-0.3,0.8-0.7,1.3-0.9c0,0,0.1,0,0.1-0.1c0.4-0.4,0.9-0.5,1.3-0.9c0.2-0.2,0.5-0.4,0.7-0.5
				c0,0,0.1-0.1,0.1-0.1c0.1,0.1,0.1,0.1,0.2,0.1c0,0,0.1-0.1,0.1-0.1c0.1-0.2,0.2-0.4,0.4-0.5c0.2-0.1,0.3-0.2,0.5-0.4
				c0.2-0.2,0.3-0.5,0.6-0.6c0.3-0.2,0.5-0.5,0.9-0.6c0.1,0,0.1-0.1,0.2-0.2c0.2-0.2,0.3-0.3,0.5-0.3c0.2-0.1,0.3-0.2,0.4-0.3
				c0.1-0.1,0.2-0.2,0.3-0.3c0.1-0.2,0.2-0.3,0.5-0.4c0.1,0,0.1,0,0.2-0.1c0-0.4,0.3-0.7,0.5-1c0.1-0.2,0.1-0.4,0.2-0.6
				c0.1,0,0.2,0,0.4,0c0.1,0,0.2-0.1,0.3-0.1c0.2,0,0.3,0,0.5,0c0-0.1,0.1-0.1,0.1-0.2c-0.1-0.3,0.1-0.7,0.2-0.9
				c0.2-0.4,0.4-0.8,0.9-1c0.1,0,0.2-0.1,0.2-0.2C156.7,44.6,157,44.5,157.3,44.6z M156.7,48.2c-0.2,0.2-0.4,0.4-0.5,0.6
				c-0.1,0.1-0.1,0.1-0.2,0.2c-0.3,0.1-0.5,0.4-0.6,0.7c-0.2,0.4-0.3,0.9-0.5,1.3c-0.1,0.2-0.2,0.4-0.2,0.6c0,0.3-0.1,0.6-0.1,0.9
				c-0.1,0.7-0.2,1.4,0.1,2c0.1,0.3,0.3,0.5,0.5,0.8c0.1,0.1,0.2,0.2,0.3,0.3c0.1,0,0.2,0.1,0.3,0.1c0.3,0.3,0.6,0.3,0.9,0.3
				c0.2-0.2,0.4-0.3,0.6-0.4c0.2-0.1,0.3-0.2,0.5-0.4c0.3-0.3,0.5-0.5,0.8-0.7c0.1-0.1,0.2-0.2,0.3-0.4c0.1-0.2,0.3-0.4,0.4-0.6
				c0.1-0.2,0.1-0.4,0.1-0.5c0-0.1,0-0.2,0-0.2c0.1-0.1,0.2-0.2,0.3-0.3c0-0.2,0.1-0.4,0.1-0.6c-0.2-0.3-0.1-0.5,0.1-0.8
				c0,0,0.1-0.1,0.1-0.1c0-0.2,0-0.4,0-0.6c0.1,0,0.2-0.1,0.3-0.1c0-0.1-0.1-0.3-0.1-0.4c0-0.1,0.1-0.2,0.1-0.3
				c-0.1-0.2-0.2-0.2-0.4-0.1c0-0.3,0-0.6,0-0.9c-0.2-0.2-0.3-0.3-0.4-0.4c0-0.1,0-0.3,0-0.4c-0.2-0.2-0.3-0.3-0.5-0.5
				c-0.2,0-0.3,0-0.4-0.1c0,0,0,0,0,0c-0.2-0.1-0.4-0.2-0.6-0.3c0,0-0.1-0.1-0.1-0.1c-0.5-0.1-0.9,0.2-1.3,0.4
				c-0.1,0.2-0.2,0.3-0.3,0.5c0.1,0.3,0.2,0.4,0.5,0.4C156.4,48,156.6,48.1,156.7,48.2z M160.6,50.7c-0.1-0.1-0.3-0.1-0.4-0.1
				c0,0.1,0,0.2-0.1,0.3c0.1,0.1,0.2,0.2,0.3,0.3C160.5,51,160.6,50.9,160.6,50.7z"/>
		</g>
	</g>
	<g>
		<path class="st0" d="M179.6,20.1c-0.2,0.4-0.5,0.7-0.9,0.8c-0.3,0-0.5-0.1-0.8-0.1c-0.1-0.2-0.1-0.4-0.1-0.6
			c0.1-0.6,0.1-1.1,0.1-1.7c0-0.5,0.1-0.9,0.2-1.4c0.2-0.7,0.5-1.4,0.3-2.2c0-0.1,0-0.2,0-0.3c0.3-0.9,0.3-1.9,0.5-2.8
			c0.1-0.7,0.4-1.4,0.4-2.1c0.1-1.7,0.8-3.3,1.2-5.3c0-0.4,0-1.2,0-2c-0.2-0.1-0.4-0.1-0.6-0.2c-0.6,0.8-1.3,1.4-2.1,1.9
			c-0.4,0.3-0.7,0.7-0.9,1.1c-0.8,1.2-1.8,2.2-2.9,3.1c0,0-0.1,0-0.2,0.1c-0.1-0.1-0.4-0.2-0.5-0.3c-0.2-0.4-0.4-0.9-0.5-1.3
			c-0.1-0.6,0-1.2,0-1.9c-0.8-1.1-1.2-2.4-2.4-3.1c-0.7,0.4-1,1-1.3,1.6c-0.4,1.2-0.8,2.3-1.3,3.7c-0.1,1.5-0.1,1.5-1,3.4
			c0,0.7,0.1,1.4,0,2c-0.3,1.3-0.5,2.7-1.3,3.9c-0.4,0.6-1,1-1.5,1.5c-0.1,0.1-0.3,0-0.4,0.1c-0.4-0.4-0.5-0.9-0.5-1.4
			c0-1,0.2-2,0.5-2.9c0.4-1.2,0.7-2.3,1-3.5c0.3-1.1,0.5-2.1,1.4-2.8c0-0.5,0-1,0-1.5c0.1-0.2,0.3-0.4,0.5-0.6c0-0.8,0-1.7,0.1-2.5
			c0.3-0.2,0.5-0.4,0.7-0.6c-0.1-0.4-0.1-0.8-0.2-1.2c0.2-0.2,0.4-0.5,0.6-0.7c0.2,0.1,0.3,0.1,0.3,0.1c0.2,0.3,0.5,0.6,0.7,0.9
			c0.6,0,0.8-0.6,1.4-0.9c1.1-0.2,2,0.2,2.7,1.2c0.7,0.9,1.1,2,1.4,3.1c0.1,0.3,0.1,0.6,0.5,0.7c0.1-0.1,0.3-0.2,0.4-0.3
			c0.5-1.1,1.4-1.9,2.3-2.7c0.8-0.7,1.7-1.4,2.7-1.8c0.4-0.2,0.9-0.4,1.4-0.2c0.9,0.6,1.2,1.4,1,2.5c-0.2,1-0.3,2-0.5,2.9
			c-0.2,1.4-0.6,2.8-0.8,4.2c-0.3,1.6-0.6,3.1-0.6,4.8c0,0.8-0.3,1.6-0.3,2.4C180,17.9,179.7,19,179.6,20.1z"/>
		<path class="st0" d="M136.1,17.1c0.1,0.5,0.2,0.9,0.4,1.4c-0.1,0.1-0.2,0.2-0.3,0.3c-0.8-0.1-0.8-0.9-1.4-1.2
			c-1.2,0.3-1.8,1.5-2.9,2.1c0.1,0.3,0.2,0.6,0.3,0.8c0.9,1,2,1.4,3.5,0.7c0.8-0.4,1.6-0.8,2.5-1.2c0-0.2,0-0.4,0-0.7
			c0-0.2-0.2-0.4-0.2-0.7c-0.1-0.5,0-0.9,0.7-1.2c0.5,0.1,1,0.3,1.6,0.5c0.8,0.8,1.7,1.5,2.9,1.9c0.5,0,1.1,0,1.6,0
			c1,0,1.8-0.4,2.6-0.9c0.2-0.2,0.5-0.3,0.7-0.5c0.5-0.4,1.1-0.6,1.7-0.4c0.4,0.3,0.4,0.7,0.5,1.1c-0.1,0.4-0.3,0.7-0.6,0.8
			c-0.9,0.5-1.8,1-2.7,1.6c-0.4,0.2-0.8,0.3-1.2,0.3c-0.8,0-1.5,0-2.3,0c-0.6,0-1.1-0.1-1.6-0.4c-0.5-0.3-1.1-0.5-1.7-0.7
			c-0.3,0.1-0.5,0.2-0.7,0.3c-0.9,0.8-2.1,1.2-3.1,1.7c-0.4,0.2-0.9,0.4-1.4,0.4c-0.3,0-0.7,0-1,0c-1.3,0.1-2.3-0.3-3.3-1.1
			c-0.8-0.7-1.1-1.6-0.8-2.7c0.2-0.6,0.4-1.1,0.8-1.5c0.5-0.5,1-1,1.5-1.5c0.4-0.4,1.2-0.1,1.5-0.8c-0.5-1.4-1.4-2.7-1.9-4.2
			c-0.4-1.5-0.9-3-0.9-4.5c0.6-0.8,1.4-1,2.1-1.4c0.7,0,1.4,0.1,2,0.1c0.7,0,1.3,0.1,2,0.3c1,0.2,1.8,0.8,2.6,1.5
			c0.2,0.1,0.3,0.4,0.4,0.6c0.3,0.4,0.5,0.9,0.8,1.4c0.1,0.5,0.1,1,0.2,1.5c0.2,0.9-0.1,1.7-0.6,2.4c-0.8,0.9-1.6,1.7-2.5,2.5
			c-0.3,0.3-0.8,0.5-1.2,0.7C136.7,16.7,136.4,16.9,136.1,17.1z M134.9,15.3c0.2-0.1,0.4-0.1,0.6-0.2c0.8-0.6,1.7-1.2,2.5-1.8
			c0.4-0.3,0.7-0.6,0.9-1.1c0.2-0.4,0.5-0.8,0.5-1.4c-0.1-0.6-0.3-1.2-0.5-1.8c-1-0.9-2.2-1.3-3.5-1.4c-1-0.1-1.9,0.1-2.6,0.6
			c-0.1,0.2-0.2,0.3-0.1,0.5c0.2,1.2,0.4,2.3,0.7,3.4C133.9,13.2,134.3,14.3,134.9,15.3z"/>
		<path class="st0" d="M5.7,2.8C6,2.9,6.2,3.1,6.5,3.3c0.1,0,0.2,0,0.2,0c1.4-0.8,3-0.9,4.5-1.1C12.1,2,13,1.8,13.8,1.6
			c0.4-0.1,0.8-0.1,1.3-0.1C16,1.7,17,1.8,17.9,1.5c0.2-0.1,0.5-0.1,0.7-0.1c0.8,0,1.6,0,2.3,0c0.6,0.3,0.7,0.7,0.9,1.1
			c0,0.1,0,0.3-0.1,0.4c-0.3,0.6-0.4,0.6-1.3,1.1c-0.4-0.2-0.8-0.3-1.2-0.5c-0.6,0-1.1,0-1.6,0c-1.2,0-2.4,0.9-2.7,2.1
			c-0.3,1.2-0.6,2.5-0.5,3.8c0.1,1.2-0.1,2.5-0.2,3.7c0,0.2,0,0.4-0.1,0.6c-0.6,1.9-1,3.7-1.9,5.5c-0.2,0.3-0.3,0.7-0.6,1
			c-1,1-1.9,2.1-3.1,2.9c-1.3,0.8-2.5,1.7-3.8,2.5c-0.4,0.3-0.8,0.4-1.3,0.5c-0.7,0.1-1.3,0.2-2.1,0.4c-0.1,0-0.3-0.1-0.5-0.2
			c-0.2-0.1-0.4-0.3-0.5-0.4c-0.2-1,0.1-1.9,0.4-3c0.3,0.2,0.6,0.3,0.7,0.5c0.3,0.3,0.5,0.6,0.8,1c0.3,0,0.5,0,0.6-0.1
			c2.1-1.1,4.1-2.1,5.9-3.6c1.2-1,2-2.4,2.6-3.8c0.3-0.8,0.5-1.5,0.8-2.3c0.2-0.5,0.3-1,0.1-1.5c0.3-0.8,0.6-1.5,0.5-2.4
			c-0.2-1.7-0.1-3.4,0.3-5.2c0.2-0.4,0.9-0.7,0.9-1.4c-0.2-0.1-0.3-0.2-0.5-0.2c-1.4,0.1-2.7,0-4.1,0.5C8.4,4.6,7.5,4.3,6.5,4.4
			C6,4,5.3,3.8,5.1,3.2C5.2,2.8,5.4,2.7,5.7,2.8z"/>
		<path class="st0" d="M82.2,17.4c-0.5,0.1-0.8,0.1-1.1-0.4c-0.2-0.7-0.1-1.5,0.2-2.3c1-2.4,1.9-4.8,3-7.1c0.2-0.4,0.2-0.4,0.8-0.8
			c0.2,0.1,0.5,0.2,0.7,0.4c0.3,0,1.1-0.4,2.1-1c0.4,0,0.8,0,1.2,0c1.2,0.9,1.2,0.9,1.5,2.4c0.2,0,0.4,0.1,0.6,0.1
			c0.6-0.6,1.1-1.2,1.6-1.7c0.5-0.5,1.2-0.8,1.8-1.2c0.7-0.1,1.5-0.2,2.3,0c0.6,0.1,1,0.4,1.4,0.9c0.5,0.8,0.7,1.7,0.8,2.5
			c0.3,1.9-0.1,3.8-0.7,5.6c-0.2,0.7-0.2,0.7-1.1,1.4c-0.5,0.1-0.8-0.2-1.1-0.5c-0.2-0.3-0.2-0.7-0.1-1.1c0.1-0.3,0.2-0.6,0.3-0.8
			c0.5-0.7,0.5-1.5,0.6-2.3c0-0.1,0-0.2,0-0.3c-0.3-0.8,0.1-1.6,0-2.4c-0.2-0.6-0.6-1.1-1.2-1.4c-0.7,0.2-1.3,0.5-1.9,0.9
			c0,0-0.1,0.1-0.1,0.1c-0.7,0.7-1.5,1.3-2.1,2.1c-0.6,0.9-1,1.9-1.4,2.9c-0.2,0.4-0.2,0.8-0.2,1.3c-0.5,0.6-1.1,0.9-1.8,0.8
			c-0.5-0.5-0.6-1-0.4-1.5c0.2-0.5,0.4-1.1,0.7-1.6c0.3-0.5,0.4-0.9,0.3-1.5C89,10.1,89,9.2,88.9,8.2c0-0.2,0-0.5,0-0.7
			c-0.5-0.4-0.5-0.4-1.2-0.4C86.5,8,85.6,9,85,10.4c-0.2,0.6-0.6,1.1-0.8,1.7c-0.2,0.5-0.4,1.1-0.6,1.6c-0.3,0.9-0.5,1.7-0.7,2.6
			C82.8,16.6,82.6,17,82.2,17.4z"/>
		<path class="st0" d="M203.6,14.7c0.2,0.8,0.4,1.4,1.1,1.9c0.9,0.2,1.8,0,2.7-0.3c0.8-0.3,1.6-0.7,2.3-1c0.8,0.9,0.7,1.3-0.3,2.5
			c-1.1-0.1-2.1,0.7-3.1,0.9c-0.7-0.1-1.4-0.2-2.3-0.3c-1.1-0.2-1.6-1.3-2.2-2.2c0-0.5,0-1.2,0-1.8c0.6-1.2,0.8-2.5,1.2-3.7
			c0.4-1.1,0.2-1.4-0.7-2.5c-0.2,0.1-0.4,0.2-0.5,0.3c0,0.2-0.1,0.3-0.1,0.5c0.2,1.7-0.3,3.2-1.1,4.6c-0.2,0.3-0.3,0.7-0.4,1.1
			c-1.7,2.1-2.4,2.5-4.2,2.5c-0.8-0.6-1.6-1.3-2-2.3c-0.3-0.6-0.4-1.2,0-1.8c0.1-0.2,0.2-0.4,0.3-0.7c-0.1-1.3,0.6-2.3,1.1-3.5
			c0.5-1.2,1.6-1.9,2.5-2.7c0.3-0.2,0.7-0.3,1.1-0.4c0.2,0,0.4,0.1,0.6,0.2c0.1,0.8,0.2,1.6,0.3,2.5c0,0.1-0.1,0.3-0.2,0.5
			c-0.2,0-0.3,0-0.3-0.1c-0.2-0.3-0.3-0.7-0.5-1c-0.1-0.2-0.2-0.3-0.4-0.4c-0.2,0.1-0.3,0.2-0.4,0.3c-0.8,1.7-1.9,3.1-2.5,5
			c0.1,0.8,0.3,1.6,0.9,2.3c0.3,0.2,0.7,0.1,1,0c0.3-0.2,0.6-0.4,0.8-0.6c0.5-0.6,1.1-1.2,1.6-1.8c0.2-0.3,0.3-0.6,0.4-0.9
			c0.1-0.2,0-0.4,0.1-0.6c0.6-1.3,0.6-2.7,0.5-4c0.4-0.7,1.1-0.7,1.7-0.6c0.4,0,0.7,0.2,1.1,0.4c0.3,0.3,0.6,0.6,0.9,0.9
			c0.6,0.9,0.9,1.9,0.4,2.8C204.2,11.9,204,13.3,203.6,14.7z"/>
		<path class="st0" d="M67.1,6c1.1,0.3,1.6,1.3,2.3,2.1c0,0.5,0,1.1,0,1.6c-1.5,3-3.9,3.8-7.2,3.2c-0.2-0.2-0.6-0.5-0.9-0.8
			c-0.8,0.6-0.5,1.6-0.8,2.2c0.3,1.6,0.9,3,2.9,3.5c0.3,0,0.9,0,1.5,0c0.9,0.1,1.7-0.2,2.6-0.5c1.3-0.5,2.7-0.9,4-1.3
			c0.9,0.2,0.9,0.2,1.2,0.7c0,0.8-0.4,1.2-1.2,1.4c-0.9,0.2-1.8,0.7-2.7,0.7c-0.3,0-0.6,0.2-0.9,0.3c-1.4,0.6-2.9,0.6-4.3,0.6
			c-1.8,0-4-1.6-4.5-3.7c-0.2-0.6-0.1-1.2-0.1-1.8c0-0.7,0.1-1.3,0.2-2c0.1-0.5,0.3-1,0.4-1.5c0.6-0.6,1.1-1.4,1.9-1.9
			C63,7.4,64.8,6.1,67.1,6z M65.5,7.5c-0.2,0.2-0.4,0.5-0.6,0.8c-1.1,0.4-2,1.1-2.7,2.1c0.2,0.5,0.6,0.8,1,0.9c1,0,1.9,0,2.7,0
			c0.6-0.5,1.2-1,1.9-1.5C67.8,9.3,67.9,9,68,8.7c-0.1-0.6-0.4-0.9-0.9-1.2C66.7,7.4,66.1,7.2,65.5,7.5z"/>
		<path class="st0" d="M24.4,14.7c-0.3,1.6-0.2,2,1,3.6c0.5,0.3,1,0.6,1.6,0.9c1.5,0,3,0,4.5-0.1c0.9,0,1.7-0.5,2.4-1.2
			c0.3-0.3,0.7-0.7,0.9-0.9c0.5-0.1,0.7,0.1,0.8,0.4c0.1,0.3,0.1,0.6,0.1,0.8c-0.1,0.6-0.5,1.2-1,1.5c-1.2,0.7-2.4,1.4-3.8,1.3
			c-1.1,0-2.3,0.2-3.4-0.1c-0.5-0.1-1,0-1.4,0c-1.4-0.8-2.4-1.8-3.2-2.8c-0.7-1.5-0.2-2.9-0.2-4.3c0-0.4,0.3-0.7,0.5-1
			c0.6-0.9,1.3-1.9,1.9-2.8c1-1.5,2.4-2.4,4-3.1c0.7-0.3,1.5-0.2,2.1,0.4c0.1,0.1,0.3,0.3,0.4,0.4c1.4,1.5,1.3,3.3-0.1,4.8
			c-0.4,0.5-1,0.9-1.6,1.1c-0.3,0.1-0.6,0.3-0.9,0.4c-1.1,0.6-2.1,0.7-3.3,0.3C25.3,14.3,24.8,14.3,24.4,14.7z M25.5,12.7
			c0.6,0.6,1.3,0.7,2,0.3c0.7-0.4,1.4-0.7,2.2-1c0.7-0.3,1.1-0.9,1.3-1.6c0.2-0.4,0.2-0.8,0-1.2c-0.2-0.4-0.4-0.7-1-0.8
			c-0.4,0-0.9,0.1-1.4,0.1c-0.1,0.1-0.2,0.2-0.3,0.4c-0.3,0.8-0.9,1.3-1.5,1.9c-0.3,0.3-0.6,0.6-0.9,0.9
			C25.6,11.9,25.3,12.2,25.5,12.7z"/>
		<path class="st0" d="M103.2,33.4c-0.5-0.4-0.8-0.8-0.8-1.4c0.1-0.1,0.1-0.3,0.2-0.5c1.3-1.8,2.2-3.9,3.5-5.7
			c0.4-0.6,0.8-1.3,1.2-1.9c1-1.9,2.1-3.7,3.4-5.4c0.7-1,1.3-2.2,2-3.3c0.5-0.9,1.1-1.8,1.7-2.6c0.5-0.8,1-1.6,1.2-2.5
			c0.1-0.2,0.1-0.5,0.2-0.7c0.3-0.7,0.7-1.5,1-2.2c0.2-0.2,0.5-0.3,0.8-0.1c0.3,0.2,0.4,0.4,0.4,0.7c-0.1,0.6-0.1,1.2-0.3,1.8
			c-0.3,1-0.7,2-1,3c0,0.1-0.1,0.2-0.1,0.3c-1.6,2.5-2.9,5.2-4.7,7.6c-0.9,1.2-1.5,2.6-2.4,3.8c-0.1,0.1-0.2,0.3-0.3,0.5
			c-0.3,0.8-0.7,1.6-1.5,2.2c-0.3,0.3-0.6,0.8-0.7,1.2c-0.4,1.3-1.2,2.4-1.8,3.6C104.8,32.5,104.1,33,103.2,33.4z"/>
		<path class="st0" d="M230.2,4.9c0.4-0.1,0.8-0.2,1.1,0.1c0,0.1,0.1,0.2,0,0.3c-0.1,0.3-0.2,0.6-0.4,0.8c-0.8,0.9-1.2,2-1.6,3.1
			c-0.3,0.6-0.5,1.2-0.7,1.9c-1.2,2.7-2.3,5.5-3.6,8.2c-0.8,1.6-1.4,3.2-2,4.9c-0.1,0.3-0.2,0.5-0.2,0.8c-0.1,0.3-0.1,0.7-0.3,0.9
			c-0.7,1.4-1.5,2.7-2.3,4.1c-0.2,0.4-0.5,0.6-0.8,1c-0.7,0-1.4,0.1-1.9-0.5c0-0.2,0.1-0.4,0.1-0.5c0.6-0.9,1.2-1.8,1.8-2.7
			c0.4-0.5,0.6-1.1,0.8-1.6c0.8-2.1,1.6-4.3,2.7-6.2c0.1-0.2,0.2-0.3,0.3-0.5c0.4-0.2,0.8-0.4,1.1-0.7c0.2-0.1,0.2-0.4,0.3-0.6
			c-0.2-0.3-0.3-0.5-0.5-0.8c0.3-0.9,0.8-1.9,1.3-2.8c0.3-0.5,0.6-1,0.8-1.5c0.6-1.5,1.1-3,1.8-4.5C228.6,6.9,229.1,5.8,230.2,4.9z"
			/>
		<path class="st0" d="M44.5,7.8c0.5-0.4,0.9-0.7,1.4-1c0.3,0.1,0.6,0.2,1,0.2c0.1,0,0.2,0,0.3-0.1c0.8-0.6,2.2-0.8,3.8-1.2
			c0.6-0.2,1.2-0.2,1.9-0.4c0.6,0.2,1.4,0.2,1.7,1.2c-0.1,0.2-0.2,0.4-0.2,0.6c-0.8,0.3-1.6,0.6-2.5,0.5c-0.1,0-0.3,0-0.4,0
			c-1.5,0.4-3,0.7-4.4,1.6c-0.4,0.3-0.8,0.7-1.1,1.2c0,1.1-0.3,2.3-0.5,3.4c-0.1,0.4-0.1,0.8-0.1,1.1c0,0.3,0.1,0.6,0.2,1
			c-0.1,0.9-0.8,1.2-1.6,1.3c-0.2-0.1-0.3-0.2-0.5-0.3c0.1-1.1-0.2-2.2,0.1-3.4c0.1-0.3,0.1-0.7,0.1-1c0-0.6,0-1.1,0.3-1.7
			c0.2-0.4,0.2-0.9,0.2-1.4c0-0.3,0-0.7,0.1-1C44.3,8.4,44.4,8.1,44.5,7.8z"/>
		<path class="st0" d="M221.6,7.8c0,0.8,0,1.6,0,2.3c0.5,0.7,0.6,1.6,1.3,2.2c1.1-0.1,1.5-1.2,2.5-1.3c0.1,0,0.2,0.1,0.2,0.1
			c0,0.2,0.1,0.4,0,0.5c-0.4,0.7-0.9,1.3-1.3,2c-0.5,0.7-1.1,1-2.1,0.8c-0.1-0.2-0.3-0.5-0.4-0.9c-0.2-0.1-0.5-0.3-0.7-0.4
			c-0.3-0.7-0.6-1.4-1.1-2.3c0-0.7-0.1-1.6-0.1-2.6c0-0.7,0.3-1.3,0.8-1.7c0.3-0.2,0.6-0.3,0.9-0.2c0.3,0.1,0.5,0.2,0.6,0.7
			c-0.1,0.1-0.2,0.3-0.3,0.5C221.8,7.6,221.7,7.7,221.6,7.8z"/>
		<path class="st0" d="M110.9,14.9c-0.7,0.4-0.7,0.4-2,0c-0.9-1-1.2-2.5-2.1-3.7c0-1.1,0.1-2,0.7-3c0.2,0,0.4,0,0.6-0.1
			c0.1,0.1,0.2,0.2,0.3,0.2c0.1,0.3,0.3,0.6,0.3,0.9c0.2,1.2,0.7,2.2,1.3,3.3c0.3,0.5,0.5,1,0.8,1.5
			C110.9,14.3,110.9,14.6,110.9,14.9z"/>
	</g>
</g>
</svg>
