<svg xmlns="http://www.w3.org/2000/svg" width="38.6" height="50.3" style="overflow:visible;enable-background:new 0 0 38.6 50.3" xml:space="preserve">
    <style>
        .st0{fill:#d9dad9}.st1{fill:#7a6a56}.st2{fill:#fff}.st3{fill:#deedd8}
    </style>
    <path class="st0" d="M2.4 34.2c-.1-.4-.1-.8-.1-1.2-.1-1.8.2-3.6.2-5.3 0-.1.1-.3.2-.4.5 0 .9-.1 1.3-.1.6-.3 1.3-.3 2.2-.4.1.3.1.4.1.5V30c-.1 2 .2 4.1.2 6.1.2.7 0 1.4.1 2 .2 1.1.1 2.2.1 3.3 0 .5 0 .9-.1 1.4 0 .3-.2.6-.5.8-.2-.1-.3-.2-.5-.2-.4-.1-.9-.2-1.3 0-.1.3-.2.5-.3.7-.2.4-.2.9-.1 1.4.1.4.2.8.7 1 .1 0 .2.2.3.3.1 0 .1.4-.1.5-.1.1-.2.2-.4.2-.5.2-1.1.2-1.6 0l-.1-.1c.3-.8.2-1.6.2-2.4 0-.1 0-.2-.1-.3v-.9c0-.1.1-.1.1-.2 0-.7-.1-1.4-.1-2.1 0-1 .1-2.1-.2-3.1v-.3c0-1.1-.1-2.2-.1-3.3 0-.2 0-.4-.1-.6z"/>
    <path class="st1" d="M3.4 41.5c1-.7 1-.8 1.6-.7.2.2.2.6.4.8 0 .3-.1.6-.3.8-.1.1-.2.1-.3.1-.4-.3-.8-.5-1.2-.6-.1 0-.1-.2-.2-.4zM3.4 37c.5-.2.9-.4 1.3-.6.3 0 .4.2.5.3.1.1.1.4 0 .4-.4.2-.9.5-1.3.7-.4.2-.7-.1-.6-.6 0 0 0-.1.1-.2zM4.8 38.5c.2 0 .4.1.4.3 0 .2 0 .3-.1.4-.3.2-.6.5-1 .7-.3.2-.7-.1-.6-.5v-.2c.3-.2.7-.5 1.1-.7.1.1.1.1.2 0zM3.5 34.8c.4-.1.7-.3 1-.4h.4c.1 0 .1.1.2.2 0 .1 0 .2-.1.3-.2.4-.9.7-1.4.6-.2 0-.3-.2-.3-.5 0 .1.1 0 .2-.2zM4.6 31.5c-.4.1-.8.1-1.1-.1 0-.1-.1-.2-.2-.4.1-.1.2-.3.3-.3.3-.1.5-.2.8-.2.1 0 .2.1.3.2.4.3.2.5-.1.8zM3.5 33.3c-.1-.1-.1-.3-.2-.4l.3-.3c.3-.1.7-.2 1-.1 0 0 .1 0 .1.1.2.1.2.4.1.5-.4.4-.8.4-1.3.2zM3.6 30c-.1-.1-.2-.2-.3-.2 0-.2 0-.4.2-.5.3-.2.6-.3 1-.2.1 0 .3.1.3.3 0 .2-.1.5-.2.5 0 0-.1 0-.1.1-.4-.1-.7-.1-.9 0z"/>
    <path class="st0" d="M32.8 45.4s-.1 0-.1-.1c-.2-.5-.4-.9-.6-1.4.2 0 .4-.1.6-.1.2-.1.4-.4.2-.6-.1-.2-.3-.3-.4-.4-.1-.2-.1-.4-.1-.6.1-.6.1-1.1.3-1.7.1-.4.2-.8.1-1.2-.2-.8-.2-1.6 0-2.3.3-1.1.3-2.2.2-3.3v-.2c.3-.4.6-.8.8-1.3.1-.3-.2-.6-.2-.9v-1.2c.1-.2.2-.5.3-.7.1-.4.1-.8-.1-1.2-.1-.2-.2-.3-.4-.5-.2-.1-.3-.1-.4-.1-.1 0-.3-.1-.4-.1-.1-.1-.3-.1-.4-.2-.1-.1-.3-.1-.4-.1h-.4c-.4.2-.8.4-1.2.5-.4-.2-.9 0-1.3-.2-.4-.1-.7-.2-1.1-.3-.2-1.2-.2-1.2.1-1.7.2 0 .5.1.7.1.1 0 .3-.2.3-.3 0-.1 0-.2-.1-.3-.2-.3-.5-.5-.9-.5-.2-.4-.2-.8.1-1.1.2-.1.4 0 .6.1.2.1.5.1.7 0 .2-.1.4.1.5.2.3.7-.1 1.6.4 2.3.5.3 1.1.4 1.6.5.6.1 1.3.1 1.9.4.1.1.4-.1.5-.3 0-.2.1-.3.1-.5 0-.3 0-.6.1-.9.1-.4.2-.7.1-1.1 0-.6-.1-1.1-.3-1.7-.1-.3-.3-.5-.5-.8-.2 0-.4-.1-.6-.1-.2 0-.5 0-.7-.2-1-.6-1.9-.5-2.8.2-.1.1-.2.1-.3.2-.1.2-.2.4-.3.7-.4 0-.4 0-.9-.4 0-.1-.1-.2-.1-.3 0-.7-.1-1.5.1-2.2V19c-.1-.4-.1-.8-.1-1.2.1-1.8.1-3.6.1-5.3V12c-.2-.7-.1-1.4 0-2v-.6c-.1-1 .1-2.1.1-3.1 0-.1.1-.2.1-.3.4.1.9.1 1.3.2.2.1.4.3.5.5.3.3.7.5 1.2.6.3 0 .6 0 .9.1.3.1.7.2.9.7V9c0 .3-.1.5 0 .8.2.6 0 1.2-.1 1.9v.8c.1.7 0 1.4-.3 2-.3.3-.6.3-1 .3-.2 0-.5-.1-.7-.1-.3 0-.6.1-.8.3-.2.2-.4.5-.5.8 0 .2-.1.4-.1.6-.2 0-.4 0-.6.1-.2 0-.2.2-.2.4s.1.3.2.4c.3.2.6.1.9.2.1.7-.3 1.5.1 2.3.2.1.3.2.5.2 1.1 0 2.1.4 3.2.6.3.2.5.7 1 .5l.2-.2c.1-.2.2-.5.3-.7l.3-2.1c0-.1.1-.2.2-.3.3 0 .6 0 .8-.1.2 0 .3-.3.2-.5-.1-.1-.1-.2-.2-.2-.4-.3-.7-.6-1-.9-.3-.3-.8-.5-1.2-.7l-.1-.1c-.2-.2-.2-.5-.2-.7 0-1.2.1-2.3.1-3.5 0-.3.1-.5 0-.8-.2-.8-.1-1.6.1-2.3v-.1c0-.6-.3-.9-.6-1.2.1-.1.2-.3.2-.4 0-1.1.1-2.3.1-3.4 0-.2 0-.4.3-.5.9.3 1.9 1.3 2.8 2.6 0 .8 0 1.6-.1 2.3 0 .6-.1 1.3.1 1.9.1.3 0 .6.1.9 0 .8-.1 1.7.2 2.5v.3c-.1 2.3.2 4.5.1 6.8 0 .6-.1 1.1 0 1.7.1.4 0 .7 0 1.1 0 1.8-.1 3.7-.2 5.5-.1 1.7-.2 3.5-.3 5.2-.1.5-.1 1-.1 1.6v3.6c0 .6-.1 1.2.1 1.7v.2c0 1.4-.1 2.8-.1 4.2 0 .1-.1.2-.1.3-.3-.1-.5-.3-.8-.4-.3 0-.5.3-.8.4-.1 0-.2 0-.3-.1-.2-.1-.4-.3-.6-.4-.2-.1-.4-.1-.6-.1-.2 0-.5.2-.6.4-.1.3-.2.6-.2.8zM29.9 9.6c.1-.1.1-.2.2-.4 0-.1-.1-.2-.1-.4-.5-.2-.9-.4-1.3 0 0 .4.1.7.3.7.3.2.6.2.9.1zm5.7-3.4c.1-.7 0-.8-.6-1-.4.2-.6.5-.5 1 .5.4.8.3 1.1 0zm-.4 16.5c0 .1.1.3.2.4.2.3.4.4.7.5.2.1.4-.1.4-.3V23c-.2-.3-.5-.5-.8-.6-.2.1-.4.1-.5.3zm.6 9.9c.1-.1.3-.2.2-.4 0-.1-.1-.3-.2-.4-.3-.3-.6-.3-1-.2-.1 0-.2.3-.2.4 0 .2.1.4.3.5.3.1.6.2.9.1zm-.3-19.4c.1-.1.2-.2.2-.3.1-.5-.4-.9-.8-.8-.1 0-.3.1-.3.3 0 .2 0 .3.1.4.2.3.5.4.8.4zm.4-5.4c-.3 0-.6 0-.9-.1-.2 0-.4.3-.3.5 0 .1.1.3.2.4.4 0 .9.2 1.2-.4-.1-.1-.1-.2-.2-.4zm.3 21.5c0-.1-.1-.2-.1-.3-.3-.3-.7-.4-1.1-.2-.1 0-.2.1-.2.2s0 .2.1.3c.3.3.6.4 1.1.4.1-.1.1-.3.2-.4zM29 11.1h-.7c-.1 0-.2.2-.3.3 0 .4.2.6.5.5.3-.1.5-.2.7-.5.1-.1 0-.3-.1-.4.1.2 0 .2-.1.1zm5.7-.7c0 .6.1.7.5.7h.3c.2 0 .4-.4.3-.6l-.3-.3c-.2-.1-.4-.1-.5-.1-.2.2-.3.2-.3.3zm.7 25.3c.3 0 .5-.1.5-.4 0-.2-.1-.4-.3-.5-.2-.1-.5-.2-.7-.1-.1 0-.3.2-.3.3 0 .1 0 .2.1.3.2.2.5.3.7.4zm.7-9.2c.1-.1.2-.2.2-.3 0-.1-.1-.3-.2-.4-.2-.2-.5-.4-.8-.3-.2.1-.3.3-.2.5.1.1.1.3.3.3.2.1.4.2.7.2zm-8-8.2c0 .4-.1.7-.1 1.1.1.1.1.2.2.3.1.1.3 0 .4-.1.1-.4.3-.8.3-1.2-.2-.3-.4-.3-.8-.1zm7 1.6c0 .6.1.8.6.8.1 0 .3 0 .4-.1.1 0 .1-.1.2-.2.1-.2 0-.3-.1-.4-.3-.3-.6-.4-1.1-.1zm-.2 18.9c.3-.1.4-.2.5-.4 0-.4-.3-.6-.6-.7-.1-.1-.3 0-.4.1-.1.2-.1.5.1.7.1.2.3.2.4.3zm-2.7-28.7c-.1-.1-.1-.2-.1-.3-.2-.2-.4-.3-.6-.1l-.3.3c0 .3.1.5.3.7.2.1.3.1.4 0 .1-.3.2-.5.3-.6zm1.9 30.8c.2.5.3.5.7.7.2.1.4-.1.4-.3 0-.1 0-.3-.1-.4-.1-.1-.3-.2-.4-.3-.3 0-.5.1-.6.3zm-2.8-29.3c-.1-.2-.1-.3-.2-.4-.1-.1-.2-.2-.4-.1s-.3.3-.2.5c0 .1.1.3.3.3h.3c.1-.1.1-.2.2-.3zM10.7 44.4c-.2 0-.3-.1-.4-.2-.3-.4-.7-.6-1.1-.7-.4-.1-.8 0-1.1.5-.2.6-.2 1.3-.1 2s.5 1.2.6 1.9c-.1.1-.2.1-.2.1-.4.1-.8 0-1.2 0-.2 0-.3-.3-.2-.5 0-.1.1-.2.1-.3.2-.4.2-.9.2-1.5l-.6-1.5c.1-.2.2-.1.3-.1h.3c.2 0 .4-.3.3-.4-.2-.6-.2-1.2-.2-1.9.1-1.4-.1-2.7-.1-4.1v-.3c-.2-1-.1-2-.2-3 0-.5 0-.9-.1-1.4v-.9c0-.7 0-1.4.1-2 0-.7.1-1.5-.1-2.2 0-1.5-.1-2.9.1-4.4l.1-.1c.1 0 .1 0 .2.1v.2c0 .5 0 .9.2 1.4.1.2.1.4.1.6 0 .5 0 1 .1 1.6-.1 1.1.1 2.2 0 3.3-.1 1.1.1 2.1.3 3.1.2.8.4 1.5.3 2.3v.5c.2.9.2 1.8.2 2.7 0 .3 0 .6.1.9.1.8 0 1.6-.1 2.3.1.1.1.3.2.4 0 .1.1.2.2.2s.3.1.4 0c.1 0 .3-.2.3-.3v-.9c-.1-.8-.1-1.7-.1-2.5 0-.5 0-1-.1-1.6-.1-.2-.1-.5 0-.8.1-.2.4-.1.5-.2.3-.1.5-.3.6-.7 0-.2-.1-.5-.3-.4-.2 0-.5.1-.7.1 0-.1-.1-.2-.1-.2-.1-.5-.3-.9-.2-1.4.2-.4.6-.4.9-.5.2-.1.2-.1.4-.4-.1-.1-.1-.3-.3-.4-.2-.1-.4-.1-.6-.1-.2 0-.4.3-.7.1-.2-.4-.3-.8-.3-1.3v-1.7c0-.5 0-1-.1-1.6-.1-.3-.1-.7 0-1.1.1-1.3-.1-2.5-.3-3.7-.1-.6-.1-1.1-.1-1.7.1-1.6.1-3.1.2-4.7 0-.5 0-1-.1-1.6-.2-1-.3-2.1-.3-3.1 0-.7 0-1.4-.1-2-.1-.4 0-.8 0-1.2-.1-.1 0-.2.1-.2.3-.1.6-.1 1-.2.3-.2.7-.4 1.1-.7.2 0 .3.1.5.1l1.2-.3c.3.1.4.3.4.5v.8c-.1 1.7-.2 3.5-.2 5.2-.1 1.6-.1 3.2-.1 4.9 0 .6 0 1.2-.1 1.7 0 .6.1 1.1-.1 1.7v.6c.2 1.4 0 2.8-.1 4.2 0 .9 0 1.8-.2 2.7-.1.3-.1.6 0 .9.1.5 0 1 0 1.6 0 1.8-.1 3.6-.1 5.3v.3c.2 1.2.1 2.5.2 3.8-.3.2-.5.4-.8.6-.2.2-.3.5-.2.9.1.3.2.6.2.9zm-.4-31.1c-.4.2-.9.3-1.3.6-.2.1-.2.4 0 .6.1.1.2.2.4.2.4-.1.8-.2 1.1-.4.2-.1.3-.3.3-.5-.1-.3-.3-.4-.5-.5zm.3 5.2c-.1-.2-.3-.3-.5-.2-.4.2-.8.5-1.1.7-.1 0-.1.2-.1.3 0 .3.4.6.6.4.3-.2.7-.3 1-.7.1-.1.1-.3.1-.5zm-.2 7.1c0-.1-.1-.3-.2-.4-.1-.1-.3-.1-.4 0-.3.2-.7.5-.9.8-.1.1-.1.4 0 .6.1.1.3.2.4.1.4-.2.7-.4.9-.7.1-.2.1-.3.2-.4zm0-9.4c-.1 0-.2-.1-.3-.1h-.3c-.3.1-.7.2-.9.5-.1.2-.1.4 0 .6.1.2.3.2.5.2.4-.1.7-.3 1-.6 0 0 0-.1.1-.2 0-.2-.1-.3-.1-.4zm-.2 13.5c-.4.1-.8.2-1.2.6-.1.1-.1.2-.1.3 0 .2.3.5.5.5.4-.1.8-.3 1.1-.7 0 0 0-.1.1-.1-.1-.4-.2-.5-.4-.6zm-.6-1.1c.3-.3.6-.4.8-.6.1-.1.2-.4.1-.6 0-.1-.1-.1-.2-.2-.2.1-.5.1-.7.2-.1.1-.2.2-.4.3-.1.1-.2.4 0 .6 0 .1.2.2.4.3zm-.9-4.9c0 .2.1.4.4.5h.4c.3-.1.5-.3.7-.5.2-.1.1-.4 0-.7-.3-.1-.6 0-.8.2-.3.1-.6.2-.7.5zm1.6-2.8h-.1c-.3.1-.6.1-.9.2-.4.1-.5.5-.2.8.1.1.2.1.4.2.3-.2.6-.4.8-.6.1-.1.1-.3.1-.4 0 0-.1-.1-.1-.2zm0-9.9c-.2 0-.4.1-.6.1-.2 0-.3.3-.2.5.1.1.1.3.3.3.4.1.8-.1 1-.4.1-.1.1-.2.1-.3 0-.1-.1-.2-.2-.2h-.4zM12.8 42.6h.7c.1-.2.2-.3.2-.4 0-.3 0-.5.1-.8v-.6c.2-1.1.2-1.1.1-2.1v-3c0-.8.2-1.7 0-2.5-.1-.4.1-.7.1-1.1 0-1.4.1-2.8.1-4.2v-.6c0-.6.3-1.2.1-1.9v-1.7c0-.6.1-1.3 0-1.9-.1-.9-.2-1.8-.4-2.9.2-1.5.4-3.3.4-5.1 0-1.3.1-2.6.2-3.9v-.5c.1-.6.2-1.1.1-1.7v-.3c0-.1.1-.2.1-.3.3 0 .4-.1.5-.2l1.2-.3c.2 0 .5 0 .7.3.1.5 0 1 .2 1.5.1.2 0 .4 0 .6 0 1.2-.1 2.3-.1 3.5-.1 3-.3 6.1-.4 9.1 0 .9-.1 1.8.1 2.7 0 .2-.2.5-.5.3l-.1-.1c-.1 0-.2 0-.3-.1-.3.1-.6.2-.7.5v.3c.5.4.7.4 1.3-.3.1 0 .2 0 .2.2s.1.3.1.5c0 1.7-.1 3.3-.2 5.1.1.2.2.5.3.9 0 .4-.1.9-.1 1.3-.3.5-.9.4-1.2.7-.2.2-.2.5-.3.7-.1 1.4-.2 2.7-.3 4.1-.1 1.3-.2 2.6-.2 3.9 0 .2 0 .3-.1.4-.1.3-.4.4-.5.6-.2.2-.4.4-.5.6-.2.3-.3.5-.4.8.1.6.1 1.1.2 1.6 0 .2.1.4.2.6.1.4.3.8.4 1.2-.1.1-.2.3-.3.3-.2.1-.5 0-.7.1l-.2-.2c0-1.2 0-2.3.2-3.4.1-.6 0-1.1-.2-1.7-.1-.3-.1-.5-.1-.6zm3.6-28.9c-.2-.3-.2-.3-.6-.4-.3.1-.7.3-1 .4 0 .2-.1.3 0 .5.1.1.2.2.3.2h.4c.3-.1.5-.3.8-.4 0-.1 0-.2.1-.3zm-.2-2.4c0-.1-.1-.3-.3-.3-.4 0-.7.1-1 .4-.1.1-.1.3-.1.4 0 .2.2.4.4.4.4 0 .7-.2 1-.6v-.3zm-1 7.9c.1.2.2.5.5.4.3-.1.5-.2.7-.4.1-.3.1-.5-.1-.7-.2-.1-.4-.1-.6 0-.2.2-.5.4-.5.7zm.4-2.4.9-.6c.1 0 .1-.2.1-.3 0-.1-.1-.2-.2-.2-.4-.2-.8-.1-1.1.2-.2.2-.2.4-.1.7.1 0 .2.1.4.2zm.7-7.3c-.1-.2-.2-.3-.4-.4-.2-.1-.5-.1-.7 0-.2.1-.4.3-.3.6.4.3.4.3.5.2.4.1.7 0 .9-.4zm0 12.3c0-.1.1-.2.1-.2 0-.4-.2-.6-.5-.5-.2.1-.5.2-.6.4-.1.5-.1.5.4.7.1-.1.4-.3.6-.4zm-.3 8.8c-.1-.2-.3-.2-.5-.2-.3.1-.4.4-.5.7 0 .1.1.2.1.3.1.1.3.1.4.1.3-.2.5-.4.5-.9zm-.5-2.9c-.4.2-.5.3-.5.5 0 .3.2.4.5.5.1-.1.3-.2.5-.3.1-.1.1-.3 0-.4-.3 0-.4-.2-.5-.3zM19 22c.4-.2.6-.3.9-.5l.3-.3c.1-.2 0-.5-.2-.5h-.3c-.1 0-.3.1-.4.2-.1-.1-.2-.1-.2-.2-.2-.6-.2-1.1-.1-1.7.2-.1.4-.1.5-.2.2-.2.5-.4.7-.6.1-.1.1-.2.2-.3v-.3c0-.1-.3-.2-.4-.2-.3.2-.6.3-.9.5 0-.1-.1-.2-.1-.3 0-.5-.1-1 0-1.5.3-.6.8-.7 1.1-1.1.1-.1.1-.2 0-.3 0-.1-.1-.2-.2-.2h-.3c-.1 0-.3.1-.4.1-.1 0-.2 0-.3.1-.2-.7.1-1.4 0-2 .1-.4.3-.5.5-.6.3-.1.6-.2.8-.5.1-.1.1-.2.1-.3 0-.1-.1-.3-.3-.3h-.6c-.2 0-.4-.2-.4-.4v-.9c.1-.3.3-.3.5-.4.2 0 .4-.1.5-.3.1-.1.1-.5 0-.6-.1-.1-.2-.2-.4-.2h-.4l-.1-.1c-.1-.5.1-.9 0-1.3.2-.4.5-.5.8-.5.5 0 1 0 1.5.1.1.1.2.3.2.4-.3 1.2-.2 2.5-.3 3.8-.1.9-.1 1.8-.1 2.7 0 .6-.1 1.2-.1 1.7 0 .6.1 1.1.1 1.7v2.7c0 .9-.1 1.8.1 2.7v.2c-.1 1 0 2-.1 3 0 1-.1 2.1-.1 3.1s-.1 2-.1 3c-.2.2-.3.5-.5.7-.4.2-.7 0-1 .1-.1-.1-.2-.2-.3-.2V30.1c0-.3-.1-.6-.1-.9v-1c.1-.3.4-.4.3-.7-.1-.2-.3-.4-.4-.6 0-.1-.1-.2-.1-.3 0-.5 0-.9.1-1.4.3-.2.5-.3.7-.5.2-.2.2-.7-.1-.8-.1 0-.3-.1-.4-.1-.1-.1-.1-.2-.2-.2V22z"/>
    <path class="st2" d="M23.2 1.3c.1-.1.2-.1.4-.2.4-.1.8 0 1.1.2.5.3.9.6 1.4.8.1 0 .1.2.2.2-.1 0-.2.1-.3.1-.4 0-.7.3-.9.7l-.1.1c-.2 0-.4.1-.7.2-.1.1-.2.2-.2.4 0 .1.1.3.1.5 0 .3 0 .5-.3.7-.1.1-.1.2-.2.3-.1.2.1.4.1.6v.5c-.2 1.1 0 2.2-.2 3.3 0 .2 0 .3-.1.5-.2.6-.3 1.2-.2 1.9.1.6.1 1.2.1 1.9-.1 1-.1 2-.1 3 0 .6-.1 1.1-.2 1.7-.1.3-.1.6-.1.9-.1.8-.2 1.7-.2 2.5v4.4c.2 1 .1 2 .1 3 0 .6 0 1.1.1 1.7.1.5.1 1 0 1.6l-.1.1c-.6-.1-.9-.6-1-1.2v-.6c0-1.4.1-2.8.1-4.2 0-.6.1-1.3 0-1.9v-.8l.3-9.3v-.5c-.2-.6-.1-1.2-.1-1.9 0-1.4.1-2.8.2-4.2v-.5c.4-1.2.4-2.5.5-3.7 0-1 .1-1.9.3-2.8zM12.8 42.6c-.2 0-.4-.1-.4-.3 0-.1-.1-.3-.1-.5 0-1 0-2-.2-3v-.2c0-3.2-.1-6.4.1-9.6.2-2.1.2-4.2.3-6.3.1-1.8.1-3.7.2-5.5 0-.5-.1-1 0-1.6 0-.6.1-1.1.2-1.7 0-.5.1-1 .1-1.6l.3-7.2c0-.5 0-.9-.1-1.4 0 0 0-.1.1-.1.5.6.9 1.4 1.2 2.1 0 .3-.3.4-.5.7-.2.3-.1.7-.1 1.1.2 1.1.1 2.1-.1 3.1-.1.6-.2 1.1-.2 1.7V14c0 1.5-.1 2.9-.4 4.4.1.8.1 1.6.3 2.5.1.4 0 .8 0 1.3v2.2c.1.8 0 1.6-.1 2.3-.1.4-.2.8-.1 1.2.1.8 0 1.6-.1 2.3-.1.8-.1 1.7 0 2.5.1.7.1 1.4 0 2 0 .9-.1 1.8-.1 2.7 0 .5.1 1 .1 1.6 0 .5-.2.9-.2 1.4v1.1c-.1.5-.2.8-.2 1.1zM18.1 42.1c-.2-.2-.3-.4-.4-.6 0-.1 0-.1-.1-.2v-.2c-.1-2.3-.1-4.7 0-7 0-.2.1-.3.1-.5.7-.4 1.3-.6 2.1-.6h1.9c.1 0 .2.1.3.1-.1.1-.2.3-.3.3-.2.1-.5.1-.7.1-.4 0-.6.2-.8.6-.2.3-.2.7-.2 1.1 0 .2.1.4.1.6-.1.3-.2.6-.2.9 0 .2.1.5.2.8 0 .1 0 .2.1.4-.1.2-.2.4-.3.7-.1.8-.1 1.7-.2 2.5-.1.2-.3.4-.4.5 0 .4.1.8.1 1.3 0 .2 0 .3.1.5.2.5.1.9 0 1.4.1.7.2 1.4.3 2.2 0 .3.1.6-.2.9-.3.1-.7.1-1.1.2-.2-.1-.3-.2-.3-.4 0-.3.1-.5.2-.7.2-.5.2-1 .1-1.5-.2-.7-.4-1.4-.2-2.2 0-.5-.1-.9-.2-1.2zm-.2-5.7c0 .4.2.6.4.6h.1c.2-.1.3-.3.3-.4 0-.2-.2-.3-.4-.4-.1 0-.2.1-.4.2z"/>
    <path class="st0" d="m3.8 8.6 1.2.3c.1.1.1.1.2.1 0 .1.1.2.1.3 0 1.2.2 2.3.4 3.4.1.5.1 1 0 1.5l-.1.1c-.3-.1-.6-.1-.9-.1-.2 0-.4.1-.5.2-.3.2-.3.5 0 .8.1.1.2.1.3.1.4 0 .7-.3 1.1-.4.1.1.2.2.2.3.2.5.1 1 .2 1.5 0 .7-.1 1.4.1 2-.1.7.1 1.3.2 2 0 .2.1.3.1.5 0 .5 0 1-.1 1.6 0 .2 0 .3-.1.5-.3.1-.5-.1-.7-.2-.3-.2-.5-.5-.8-.8-.3-.1-.6-.1-1-.2-.1-.1-.1-.2-.2-.2-.1-.4-.2-.8-.1-1.2.3-1.1.1-2.2.2-3.3-.1-.7-.1-1.4-.1-2v-1.1c-.1-.5-.1-1-.1-1.6 0-1.1 0-2.2.1-3.3.1-.4.1-.6.3-.8zm.6 9.3c0 .3.2.5.5.5s.6-.1.7-.4c.1-.2-.1-.5-.2-.5-.4-.1-.8-.1-1 .4zM4 12.5c.1.5.1.5.5.7.2 0 .4-.1.5-.2.2-.1.2-.5 0-.6-.1 0-.2-.1-.3-.1-.3-.2-.4-.2-.7.2zm1.4 7.7c0-.3-.2-.4-.4-.5-.1.1-.2.1-.3.2-.1.3-.2.6-.1.9 0 .1.1.2.2.2.1.1.3 0 .4-.1 0-.1.1-.4.2-.7zM24.8 31.7c.2.3.4.4.5.6v.3c-.4.1-.8.3-1.2.3-.1-.1-.1-.2-.1-.3v-.9c0-.8 0-1.6-.1-2.3-.1-.5 0-.9-.1-1.4-.2-1.1-.1-2.2-.1-3.3v-.9c0-1.7.1-3.3.4-5 .1-.4.1-.8.1-1.2 0-.8.1-1.7.1-2.5 0-.1.1-.3.1-.4.4 0 .5.3.7.7 0 .3 0 .6-.1.9 0 .3-.1.6-.1.9-.1 1.3-.1 2.6-.2 3.9 0 .8.1 1.6.1 2.3-.1.9 0 1.9-.1 2.8V28.1c-.1.6-.1 1.2 0 1.9.1.2 0 .5 0 .8.2.2.1.6.1.9z"/>
    <path class="st2" d="M25.7 31.7c-.2-1.3-.2-2.6-.1-3.9.1-1 .1-2 .1-3 0-.5 0-1-.1-1.6.2-.5.1-1 0-1.6v-.8c0-1.8.1-3.7.3-5.5 0-.4.3-.5.6-.3.2.1.3.3.3.5v.6c-.1 2.6-.1 5.1-.3 7.7-.1 2 0 4.1-.2 6.1 0 .5-.1 1-.2 1.6 0 .1-.1.2-.2.2 0 .2-.1.1-.2 0zM13.1 49.3c.1-.1.1-.2.2-.2 1.1-.1 2.2-.3 3.4-.5h2.5c.6 0 1.2 0 1.8-.2.2-.1.5 0 .7-.1.3 0 .5 0 .7.2.2.2.5.2.7.2.5-.2 1.1 0 1.6-.1s1.1 0 1.6-.1c.4 0 .8-.1 1.2-.2.5.1 1 .4 1.6.2.3-.2.6-.3 1-.5.3 0 .7 0 1 .1.4.1.8.3 1.3.1 1.1.3 2.2.2 3.2.4.1 0 .2.1.3.1-.1.2-.3.3-.5.3-.4.1-.9.2-1.3 0-.5-.2-1.1-.2-1.6 0-.5.1-1.1.1-1.6.2-.4.1-.8 0-1.2 0-.4 0-.9-.1-1.3-.1s-.8 0-1.1.2c-1.3-.3-2.6-.3-3.9-.1-.6.1-1.2.1-1.8.2-.6.1-1.3.1-1.9-.1-1.2-.3-2.4-.3-3.7-.1-.4.1-.8.1-1.2 0-.5.1-1.1.1-1.7.1zM6.5 6.6c0 .3.1.4.2.6.1.1.2.3.3.4v.8c-.1.5-.2.9 0 1.4.1.5.1.9.1 1.4 0 1.3.1 2.5.1 3.8v.3c.2.8.2 1.6.1 2.3-.1 1.3-.1 2.6-.2 3.9 0 0 0 .1-.1.1 0-.1-.1-.1-.1-.2v-1.6c-.3-.8-.2-1.6-.1-2.5 0-.6 0-1.1-.1-1.7-.1-.2-.1-.5-.1-.8 0-.7 0-1.4-.1-2-.1-.6-.1-1.2-.2-1.9-.1-.5-.1-1-.2-1.5-.2-.4.1-.8 0-1.3S6 7.1 6 6.5c0-.5.1-.9.2-1.4 0-.2.3-.3.5-.3.1.1.2.1.3.2.3.2.6.3.9.6.5.4 1 .7 1.4 1.1.1 0 .1.2.2.3-.2.4-.5.6-.8.7-.1.1-.2.1-.5-.1l.3-.6c.1-.2-.1-.4-.3-.5-.4-.1-.9-.1-1.3-.1-.1 0-.2.1-.4.2z"/>
    <path class="st0" d="M25.8 10.3c.3-.4.3-.4 0-.8-.3-.1-.6-.1-1-.2-.1-.1-.2-.2-.2-.3-.1-.9-.1-1.9.1-2.8.6-.4 1.1-.6 1.8-.5.1.1.2.1.2.2.2.6.3 1.2.3 1.8 0 1-.1 2-.1 3v.4c-.1.3-.2.3-.3.4-.7.1-1.3.4-1.9.8-.1.1-.3-.1-.3-.2-.1-.5-.1-1 .1-1.5 0-.1.2-.2.3-.4.3 0 .6.3 1 .1z"/>
    <path class="st2" d="m18.5 32.3-.1.1c-.2.1-.4.1-.5.2l-.2-.2c0-.5 0-.9.1-1.4-.2-.5-.3-1-.3-1.5.1-1 .1-2 .1-3v-.6c-.2-3.5-.1-5.6.1-8.9 0-.6.1-1.1 0-1.7 0-.2 0-.4.1-.6.1-.6.1-1.2.1-1.9 0-.1-.1-.2 0-.3.3-.9.1-1.9.4-2.9.1.7.1 1.3 0 1.8-.2 2.1-.2 4.3-.2 6.4 0 .7.1 1.5.1 2.2 0 1.1-.1 2.3-.1 3.5 0 .6-.1 1.2 0 1.7.1.8.1 1.6.1 2.3 0 .4.1.8.1 1.2-.1.5 0 .9.1 1.4.1.4 0 .8 0 1.2-.1.4 0 .7.1 1z"/>
    <path class="st3" d="M4.3 23c.4.3.7.7 1.2 1.2.1.4.2.9.6 1.3.1.1-.1.3-.2.4h-.3c-.5 0-1.1 0-1.6.2-.3.1-.7.1-1 .1-.3-.2-.6-.3-.9-.5-.3-.2-.5-.5-.6-.9 0-.3.2-.5.4-.6.1-.1.2-.1.3-.2.4-.2.7-.4.9-.7.3-.4.7-.4 1.2-.3z"/>
    <path class="st2" d="M27.2 32.4c-.1-1.4 0-3.4.2-4.1l.1-.1c.1 0 .3 0 .4.1.3.2.2.6.3.9.1.2.3.4.4.5 0 .1.1.2.1.3v.9c0 .3.2.6.5.8h1.1c.7 0 1.4.1 1.9.6-.2.3-.4.7-.4 1.1 0 .1-.1.1-.2.2-.3 0-.4-.2-.6-.4-.2-.2-.4-.3-.6-.5-.3 0-.6-.1-.9-.1-.5 0-1.1-.1-1.6-.3-.1 0-.3.1-.7.1zM16.9 42c-.2.3-.4.7-.6 1-.1.6-.1 1.2-.2 1.8 0 0-.1 0-.1.1-.3-.5-.4-1-.7-1.6 0-.4.1-.8.1-1.2 0-.4.1-.7.2-1.1 0-.4.1-.7.1-1.1.1-1.3.1-2.6.2-3.9 0-.5.1-.9.2-1.4 0-.2.2-.3.4-.3 0 .1.1.3.1.4.1 1.7.2 3.5 0 5.2v.9l.3 1.2zM27.7 34.7c.1 0 .3-.1.4-.1.2 0 .5.1.7.2.6.2 1.2.5 1.8.5.4 0 .8.2 1.3.4 0 .1.1.3.1.4 0 .4-.1.8-.3 1.2-.4.1-.8 0-2.1-.3-.7-.1-1.3-.3-2-.4-.2-.1-.2-.3-.2-.5.1-.5.2-1 .3-1.4zM28.4 1.9c.2 0 .3-.1.4-.1.9 0 1.9.1 2.8.1.3 0 .7.1.9.5.2 1.3.2 1.3-.1 3.7-.5.3-.7.3-1.3-.1.3-1.8.3-1.8 0-2.7-.2-.2-.4-.4-.6-.4-.8-.2-1.4-.6-2.1-1zM34 17.6c.1.1.2.3.2.4 0 .3 0 .6-.1.9-.1.3-.3.5-.5.4-.3 0-.6 0-.9-.1-.7-.2-1.3-.4-2-.5-.3 0-.5-.4-.5-.7 0-.4.1-.7.1-1.1l.2-.2c.3 0 .6.1.9.2.9.3 1.8.5 2.6.7zM30.5 45.2l.6 2.1s0 .1-.1.1c-.4.1-.9.1-1.3 0-.5-.8-.1-1.6-.2-2.5-.1-.3-.2-.5-.3-.8-.2-.5-.5-.7-1-.8h-.7c-.2.2-.4.3-.7.4-.2-.2-.1-.4-.1-.6.2-.1.4-.2.5-.3.6-.2 1.6 0 3.1.4.4 1.1.4 1.1.2 2zM26.7 34.9c-.1.3-.1.5-.2.6-.2 1-.2 1.2-1.4 1.6h-.5c-1-.1-2.1-.1-3.1.2h-.3c-.2 0-.4-.1-.4-.3 0-.1.1-.3.3-.3.6-.1 1.1-.3 1.7-.5.7 0 1.4-.1 2.1-.3.6-.3 1-.9 1.8-1zM23.6 34.5c.1-.2.2-.4.4-.6.6-.3 1.1-.2 1.6.3-.5.6-1 1-1.6 1.1h-.3c-.8.1-1.7.2-2.3.5-.3-.1-.5-.2-.5-.4-.1-.3-.1-.6.2-.9.2 0 .5 0 .8-.1.2 0 .5-.1.7-.2.3.1.5.6 1 .3z"/>
    <path class="st3" d="M5.1 7.7c0 .1-.1.2-.2.3-.3-.1-.6-.1-.8-.2-.5-.2-.9-.2-1.3-.1h-.3c-.1-.1-.3-.2-.2-.4.3-.3.2-.8.3-1.2l.2-.2c.3 0 .7-.1 1 .1.4.3.7.2 1.1.1 0 0 .1 0 .2.1.2.5 0 1 0 1.5z"/>
    <path class="st2" d="M20 41.6c.1-.1.2-.3.4-.3.3-.1.5-.3.8-.3 1.1-.3 2.3-.6 3.4-.8.4-.1.9-.1 1.3.1.1 0 .2.1.2.2s0 .2-.1.2c-.1.1-.2.2-.4.2-.1 0-.3.1-.4 0-1.1-.2-2.1.1-3.1.5-.6.3-1.1.3-1.7.3-.2.1-.3 0-.4-.1zM30.5 25.1c-.1-.5-.4-.9 0-1.4.1 0 .3-.1.4-.1h.7c.1.1.2.1.3.2.2.2.4.5.6.6.2.2.5.3.7.4.1.3.1.6 0 .8-.1.1-.2.1-.3.1-.4 0-1.8-.3-2.1-.5 0 0-.1-.1-.3-.1z"/>
    <path class="st3" d="M23.5 44.4c.1.6.1 1.2 0 1.9 0 .3-.1.6-.3.9-.1.2-.2.3-.4.3-.3 0-.5-.1-.6-.4-.3-.8-.2-1.6.3-2.2.2-.2.4-.4.7-.6.1.1.2.1.3.1z"/>
    <path class="st2" d="M27.2 41.9c-.3-.1-.4-.3-.4-.5 0-.3 0-.3.3-1 .2-.1.4-.2.6-.2.1 0 .3 0 .4.1 1 .4 1.9.7 3 .7.1 0 .2 0 .3.1.1.1.1.2.1.3l-.1.1c-.3.2-.7.1-1 0-.6-.2-1.2-.3-1.9-.3h-.4c-.4 0-.6.2-.7.6-.1 0-.1.1-.2.1z"/>
    <path class="st3" d="M28.8 45.1c-.1.5-.2 1.1 0 1.6.1.2 0 .5 0 .8 0 .1-.1.2-.2.2-.4.2-.8 0-.9-.4 0-.1-.1-.2-.1-.3 0-.9 0-1.8.2-2.7 0-.1.2-.2.3-.1.4.1.4.1.7.9zM30 28.5c.5-.2.9-.7 1.4-.7.8.3.8.3 1.6 1 .1.2 0 .3-.1.4-.1.1-.3.1-.4.1-.8-.4-1.6-.3-2.4-.2-.3.1-.6 0-.8-.3-.1-.1-.1-.2 0-.3 0-.1.1-.1.2-.2h.1c.1.1.2.2.4.2z"/>
    <path class="st2" d="M20.2 5.4c-.3-.4-.6-.7-.9-1.1.4-.3.9-.3 1.3-.3.4-.1.8-.1 1.1-.2.1.1.1.2.2.3v1c-.1.2-.2.4-.4.4-.4.1-.8 0-1.3-.1z"/>
    <path class="st3" d="M9.7 44.8c0 .6.1 1.2.1 1.8-.1.3-.1.7-.4 1.1l-.3-.3c-.3-.5-.4-1-.6-1.6-.1-.3 0-.6 0-.9.1-.3.5-.6.8-.4.2.1.2.2.4.3zM14.7 44c.1.1.2.1.3.2l.3.6c0 .7.1 1.4-.1 2.1-.1.2-.1.4-.3.5h-.1c-.2-.4-.4-.8-.6-1.1-.1-.6-.1-1.1 0-1.5 0-.4.2-.6.5-.8z"/>
    <path class="st2" d="M24.1 43.3c.3-.2.6-.3.9-.3.1.1.1.2.2.2v.3l-.6 1.5c-.1.2-.1.5-.1.7.1.8.3 1.5.7 2.1-.4.2-.7.2-1-.1-.1-.3 0-.5 0-.8 0-.2 0-.4.1-.6v-2.2c0-.3-.1-.5-.2-.8z"/>
    <path class="st3" d="M5.9 47.5c-.3-.5 0-1-.2-1.5-.2-.3-.5-.2-.7-.4-.2-.1-.3-.3-.3-.5v-.3c0-.3.1-.5.4-.6.2-.1.4 0 .5.1.2.1.3.3.5.4.1.4.3.7.4 1.2 0 .4-.1.8-.2 1.2 0 .3-.2.4-.4.4z"/>
    <path class="st2" d="M32.7 30.4v.6c-.1.1-.3.1-.4.2-.7-.4-1.4-.4-2.1-.5h-.6c-.1-.1-.2-.3-.2-.4.1-.1.2-.2.3-.4.6 0 1.3 0 1.9-.1.4.2.7.4 1.1.6zM27.4 37.7c.7-.1 1.4 0 2 .2.7.2 1.5.2 2.1.7 0 .1 0 .2-.1.2-.2.1-.4.2-.5.2-.6-.2-1.1-.4-1.7-.5-.6-.1-1.2-.4-1.7-.8-.1.1-.1 0-.1 0z"/>
    <path class="st3" d="M32.1 22.7c-.4 0-.7-.1-1 0-.3 0-.6.1-.9.2-.1-.1-.3-.1-.4-.2-.2-.2-.2-.5 0-.6.2-.1.3-.2.5-.3.3-.1.7-.1 1 .1.2.1.4.3.7.5h.9c.3.2.4.4.4.7.1.2-.1.4-.4.5-.2-.3-.5-.6-.8-.9z"/>
    <path class="st2" d="m19.1 5.5-.8.8c-.2.8 0 1.6-.3 2.4-.1-.4-.1-.8-.1-1.1 0-.5 0-.9-.2-1.4 0-.1-.1-.2 0-.3 0-.6 0-1.1.1-1.7l.1-.1c.1 0 .2 0 .2.1.3.3.6.8 1 1.3zM21.7 44.6c-.4-.2-.6-.6-.7-1.1.2-.5.7-.5 1.1-.7.5 0 .9-.1 1.4.1-.1.5-.6.6-1 .9-.2.3-.5.5-.8.8zM7.1 48.8c-.1.1-.2.1-.3.2-.4 0-.8.2-1.2.2-.6 0-1.3.1-1.9-.2-.3-.1-.7-.1-1-.2-.1 0-.2-.1-.5-.1.9-.2 1.6-.4 2.3-.3.4.1.5.3.6.4.2.2.3.2.5.1.1 0 .2-.1.3-.2h.7c.2 0 .3.1.5.1z"/>
    <path class="st3" d="M11.9 46.5c-.2-.5-.1-1-.3-1.5-.1-.4-.2-.9-.3-1.4 0-.1.1-.3.2-.4.5-.1.8.1.9.5 0 1.7 0 1.8-.5 2.8zM25.9 44c.4.6.5 1.2.4 1.9 0 .4-.1.5-.5 1-.4 0-.5-.5-.6-.8.1-.4.2-.9.3-1.4.1-.3.2-.5.4-.7z"/>
    <path class="st2" d="M10.6 44.4c.1.1.2.1.2.2s.1.2.1.3c0 .8.2 1.7.5 2.4.1.1.1.3.1.4 0 .3-.2.4-.4.4h-.6c-.1 0-.2-.1-.3-.2.3-.7.4-1.4.3-2.1.1-.4.1-.9.1-1.4z"/>
    <path class="st3" d="M30.4 15.6c0-.2.2-.3.4-.4.2.1.4.3.5.4.4.1.6-.2 1.1-.2.5.1 1 .5 1.5.8l.1.1v.1l-.1.1c-.9 0-1.8-.2-2.7-.5-.4-.1-.6-.2-.8-.4z"/>
    <path class="st2" d="M12.2 5.8c.1.2.1.5 0 .7-.6.4-.6.4-1.3.4-.2-.2-.4-.3-.7-.5-.1-.1-.1-.2-.2-.3.4-.3.7-.1.9-.1.3-.1.5-.3.8-.4.1-.1.2 0 .5.2z"/>
    <path class="st3" d="M17.5 46.5c-.1 0-.2-.1-.2-.1-.5-.9-.5-1.7-.2-2.7 0-.1.2-.3.2-.4 0 0 .1 0 .1-.1 0 .2 0 .4.1.6 0 .5 0 .9.2 1.4.1.5.1.9-.2 1.3.1 0 0 0 0 0z"/>
    <path class="st2" d="M27.7 39.2c1.1 0 2.1.2 3.1.7.4 0 .6-.5.9-.5.1.5 0 .8-.4.8-.3 0-.7 0-1-.1-.8-.2-1.7-.5-2.5-.9 0 .1 0 0-.1 0zM23.6 39.3c-.1.1-.1.2-.2.2-.3.1-.6.1-.9.2-.6.2-1.2.1-1.7.4-.1 0-.3-.1-.3-.2v-.4l.2-.2c1-.1 1.9 0 2.9 0z"/>
    <path class="st3" d="M29.1 5c-.1 0-.2.1-.3.1-.5-.1-.9-.3-1.3-.6-.3-.2-.6-.4-.8-.6-.2-.1-.5 0-.7-.3.6-.2.6-.2 1.9.3.2.2.4.4.7.6.2.2.4.3.5.5zM20.3 44.3c.1.1.3.1.3.2.1.3.2.6.3.8-.1.4-.2.8-.4 1.1-.1 0-.2-.1-.2-.1-.3-.6-.3-1.2-.1-1.8 0-.1.1-.1.1-.2z"/>
    <path class="st2" d="M16.9 47.7c-.3.2-.6.3-.9.1l-.1-.1c0-.5 0-.9.1-1.3 0-.1.1-.1.2-.2h.1c.1.4.4.8.6 1.2.1 0 0 .2 0 .3zM25.2 13.5c0-.4.2-.6.5-.7.2-.1.4-.1.6-.1.4-.1.7.2.5.8-.2.2-.4.2-.7.2-.3 0-.6-.1-.9-.2zM23.3 42.1c.2-.4.5-.4.8-.4.6-.1 1.1 0 1.7.2v.1s0 .1-.1.2c-.8.2-1.6.1-2.4-.1zM28.3 33.6c.5 0 1.1-.1 1.6 0 .4.1.7.3 1 .6.1.1.1.2.1.2-.1 0-.2.1-.3 0-.8-.2-1.5-.5-2.2-.7-.1 0-.1-.1-.2-.1z"/>
    <path class="st3" d="M31.8 47c-.2-.6-.4-.9-.5-1.3-.1-.3-.1-.6.2-.9.1.1.3.1.3.2.3.6.2 1.1 0 2z"/>
    <path class="st2" d="M15.9 5.8c-.3-.2-.4-.4-.4-.8.4-.2.8-.1 1.1 0 .2.1.2.2.1.4 0 .1-.1.2-.2.2-.1.1-.4.2-.6.2zM32.8 45.4c.1.1.2.1.2.2.1.6.1 1.1 0 1.7 0 .1-.1.2-.2.2-.2.1-.3-.1-.4-.2.2-.6.4-1.2.4-1.9zM33.8 45.3c.1.1.2.1.3.2.2.4.1.7 0 1.1 0 .1-.1.2-.2.2-.1.1-.2.1-.2 0-.2-.4-.2-.9 0-1.4 0 0 .1 0 .1-.1zM24.3 38.2l-.1.1c-1 .1-1.2.1-2.2-.1 0 0 0-.1.1-.1.5-.2 1.1 0 1.6-.1.2.1.4.1.6.2zM27.8 39.2h-1c-.2 0-.4-.1-.4-.4 0-.2.1-.4.3-.5.4.1.7.5 1 .7 0 .1 0 .2.1.2z"/>
    <path class="st3" d="M2.2 46.5c-.4-.3-.7-.5-.9-.7.1-.4.5-.2.7-.4.2.1.3.3.3.5-.1.2-.1.3-.1.6z"/>
    <path class="st2" d="m21.7 47.5-.2.2c-.1 0-.2 0-.3-.1-.1-.1-.1-.2-.2-.2 0-.3.1-.6.4-.7.1.2.1.4.2.6 0 0 0 .1.1.2z"/>
    <path class="st3" d="M29.7 3.8c.3-.2.5-.1.8.1.1.2.1.4-.1.6-.4-.2-.6-.4-.7-.7z"/>
    <path class="st2" d="M34.9 47s.1 0 0 0c.2.2.2.6 0 .7-.1.1-.3.1-.4-.1 0-.1-.1-.2-.1-.3.2-.2.2-.3.5-.3zM26.6 47.9c0-.2-.1-.3-.1-.4 0-.1.1-.2.1-.2h.2c.1.1.2.3.1.4 0 0-.1 0-.3.2zM23.6 39.3c.1-.1.2-.2.3-.2h.9c0 .2-.1.3-.3.3-.3-.1-.6-.1-.9-.1zM24.8 39.1c.1-.4.4-.4.7-.4 0 0 .1.1.1.2v.1l-.1.1h-.7zM13.1 49.3c-.1.1-.1.2-.2.2-.3.1-.5.1-.8 0-.1 0-.1-.1-.2-.2h1.2zM14.7 4c-.2 0-.3-.1-.3-.2l.1-.1h.3s.1 0 .1.1v.1l-.1.1h-.1zM30.7 42.3c-.2.2-.4.1-.5 0 .2-.1.4-.1.5 0zM35.6 46l-.1-.1c0-.1 0-.2.1-.3.1 0 .2 0 .2.1 0 0 0 .1-.1.1.1.1 0 .2-.1.2zM28.3 33.5c-.2 0-.5.1-.7-.1v-.1l.1-.1c.3.1.5.1.6.3zM11.9 49.2c-.2-.1-.5.1-.7-.2.3-.1.5-.1.7.2zM26.4 33.1c0-.1-.1-.2-.1-.2 0-.1.1-.1.1-.2 0 .1.1.2.1.2s-.1.1-.1.2zM18.6 3.1c-.1 0-.1 0 0 0l-.1-.1h.2l.1.1h-.2zM28.9 3.2h-.1s-.1 0-.1-.1c0 0 .1 0 .2.1-.1-.1 0 0 0 0z"/>
    <path class="st1" d="M29.9 9.6c-.4.1-.7.1-1 0-.2-.1-.4-.3-.3-.7.4-.4.9-.2 1.3 0l.3.3c-.1.2-.2.3-.3.4zM35.6 6.2c-.3.3-.7.4-1 0-.1-.5 0-.8.5-1 .6.2.7.4.5 1zM35.2 22.7c.1-.2.3-.3.5-.2.4.1.6.3.8.6v.3c-.1.2-.3.4-.4.3-.3-.1-.5-.3-.7-.5-.2-.2-.2-.3-.2-.5zM35.8 32.6c-.3.1-.6 0-.9-.1-.2-.1-.3-.3-.3-.5 0-.1.1-.3.2-.4.4-.1.7 0 1 .2.1.1.2.3.2.4.1.2-.1.3-.2.4zM35.5 13.2c-.3 0-.6-.1-.8-.3-.1-.1-.1-.3-.1-.4 0-.2.1-.3.3-.3.4-.1.9.3.8.8l-.2.2zM35.9 7.8c.1.2.1.3.2.4-.3.5-.7.4-1.2.4-.1-.1-.2-.3-.2-.4 0-.2.2-.5.3-.5.3.1.6.1.9.1zM36.2 29.3c-.1.1-.2.2-.2.3-.4.1-.8 0-1.1-.4-.1-.1-.1-.2-.1-.3 0-.1.1-.2.2-.2.4-.1.8-.1 1.1.2.1.2.1.3.1.4zM29 11.1c.1 0 .1 0 .2.1.1 0 .2.2.1.4-.2.3-.4.4-.7.5-.3.1-.6-.2-.5-.5 0-.1.2-.3.3-.3h.3c.1-.2.2-.2.3-.2zM34.7 10.4c.1-.1.1-.1.2-.3.2 0 .4 0 .5.1.1 0 .2.2.3.3.1.2 0 .6-.3.6h-.3c-.3 0-.4-.1-.4-.7zM35.4 35.7c-.2-.1-.5-.3-.7-.4-.1 0-.1-.2-.1-.3 0-.1.1-.3.3-.3.3-.1.5 0 .7.1.2.1.3.3.3.5-.1.3-.3.4-.5.4zM36.1 26.5c-.3 0-.5-.1-.7-.2l-.3-.3c-.1-.2.1-.4.2-.5.3-.1.6.1.8.3.1.1.2.3.2.4 0 .1-.1.2-.2.3zM28.1 18.3c.4-.2.6-.1.7.1 0 .4-.2.8-.3 1.2 0 .1-.3.2-.4.1-.1-.1-.1-.2-.2-.3.1-.4.2-.7.2-1.1zM35.1 19.9c.4-.2.8-.2 1 .1.1.1.2.3.1.4 0 .1-.1.2-.2.2-.1.1-.3.1-.4.1-.4-.1-.5-.2-.5-.8zM34.9 38.8c-.1-.1-.3-.2-.4-.3-.2-.2-.2-.4-.1-.7.1-.1.3-.2.4-.1.3.2.6.3.6.7-.1.3-.2.4-.5.4zM32.2 10.1c-.1.1-.2.3-.3.5-.1.1-.2.1-.4 0s-.3-.3-.3-.7l.3-.3c.2-.2.4-.1.6.1 0 .1 0 .2.1.4zM34.1 40.9c.1-.2.3-.3.6-.3.1.1.3.2.4.3.1.1.1.3.1.4 0 .2-.3.3-.4.3-.4-.1-.5-.2-.7-.7zM31.3 11.6c-.1.1-.2.3-.3.3h-.3c-.2 0-.2-.1-.3-.3-.1-.2.1-.4.2-.5.1-.1.3 0 .4.1.2.1.3.2.3.4zM10.3 13.3c.3.1.4.2.5.5 0 .2-.1.4-.3.5-.3.2-.7.3-1.1.4-.1 0-.3-.1-.4-.2-.1-.2-.1-.4 0-.6.4-.3.9-.4 1.3-.6zM10.6 18.5v.6c-.3.3-.7.5-1 .7-.2.1-.6-.1-.6-.4 0-.1 0-.2.1-.3.4-.3.7-.5 1.1-.7.1-.2.3-.1.4.1zM10.4 25.6c0 .1-.1.3-.1.3-.3.3-.6.6-.9.7-.1.1-.3 0-.4-.1-.1-.1-.2-.4 0-.6.3-.3.6-.6.9-.8.1-.1.3-.1.4 0 0 .2 0 .4.1.5zM10.4 16.2c.1.1.1.3.2.4 0 .1 0 .1-.1.2-.2.3-.6.5-1 .6-.2 0-.4 0-.5-.2-.2-.2-.1-.4 0-.6.2-.3.5-.4.9-.5h.3s.1 0 .2.1zM10.2 29.7c.2.1.3.2.4.4 0 0 0 .1-.1.1-.3.4-.7.6-1.1.7-.2 0-.5-.2-.5-.5 0-.1 0-.2.1-.3.4-.2.8-.3 1.2-.4zM9.6 28.6c-.2-.2-.3-.2-.4-.3-.1-.2-.1-.5 0-.6.1-.1.2-.2.4-.3.2-.1.5-.2.7-.2.1.1.2.1.2.2.1.2 0 .4-.1.6-.3.2-.5.4-.8.6zM8.7 23.7c.1-.3.4-.4.6-.6.3-.2.5-.3.8-.2.2.3.2.6 0 .7-.1.2-.3.4-.6.6-.1.1-.3.1-.4 0-.2-.1-.3-.2-.4-.5zM10.3 20.9c0 .1.1.2.1.3 0 .2 0 .3-.1.4-.3.2-.5.4-.8.6-.1-.1-.3-.1-.4-.2-.3-.3-.2-.7.2-.8.3-.1.5-.2.8-.2.1-.1.1-.1.2-.1zM10.3 11c.2 0 .3 0 .4.1.1 0 .2.1.2.2s0 .2-.1.3c-.3.3-.6.5-1 .4-.2 0-.2-.1-.3-.3-.1-.2 0-.5.2-.5.2-.2.4-.2.6-.2zM16.4 13.7c0 .1-.1.2-.1.3-.2.2-.5.3-.8.4-.1.1-.3 0-.4 0-.1 0-.3-.1-.3-.2-.1-.1 0-.3 0-.5.4-.2.7-.3 1-.4.4.1.4.1.6.4zM16.2 11.3v.3c-.2.4-.5.5-1 .6-.2 0-.4-.2-.4-.4s0-.3.1-.4c.3-.3.6-.4 1-.4.2 0 .3.1.3.3zM15.2 19.2c.1-.3.3-.5.6-.6.2-.1.4-.1.6 0 .2.2.3.4.1.7-.2.2-.5.3-.7.4-.4 0-.5-.2-.6-.5zM15.6 16.8c-.2-.1-.3-.1-.3-.2-.2-.2-.1-.5.1-.7.3-.3.7-.3 1.1-.2.1 0 .2.1.2.2s0 .2-.1.3c-.4.2-.7.4-1 .6zM16.3 9.5c-.2.3-.5.4-.9.5-.1 0-.1 0-.5-.2-.1-.3.1-.5.3-.6.2-.1.5-.1.7 0 .2 0 .3.1.4.3zM16.3 21.8c-.2.1-.5.3-.7.4-.4-.2-.4-.2-.4-.7.2-.2.4-.3.6-.4.3-.1.5.1.5.5.1.1.1.1 0 .2zM16 30.6c0 .4-.2.7-.5.8-.1.1-.3.1-.4-.1-.1-.1-.1-.2-.1-.3.1-.3.2-.6.5-.7.2.1.3.2.5.3zM15.5 27.7c.1.1.3.2.4.3.1.1.1.3 0 .4-.2.1-.3.2-.5.3-.3-.1-.5-.2-.5-.5 0-.2.1-.3.6-.5zM17.9 36.4c.2-.1.3-.2.5-.2s.4.2.4.4-.2.4-.3.4h-.1c-.3 0-.5-.2-.5-.6zM4.4 17.9c.2-.5.6-.5 1-.4.2 0 .3.3.2.5-.1.3-.4.4-.7.4-.3-.1-.4-.2-.5-.5zM4 12.5c.3-.4.4-.4.7-.3.1 0 .2.1.3.1.2.1.2.5 0 .6-.2.1-.3.2-.5.2-.4-.1-.4-.1-.5-.6zM5.4 20.2c-.1.2-.2.5-.2.8-.1.1-.3.2-.4.1-.1-.1-.1-.2-.2-.2-.1-.3 0-.6.1-.9.1-.1.2-.1.3-.2.3 0 .4.2.4.4z"/>
    <path class="st1" d="M38.3 48.2c-.3 0-.7-.1-1-.1-.1 0-.3-.1-.4-.2-.1-.3-.1-.6-.2-.9.2-.2.3-.4.4-.6.1-.5.1-1 .2-1.4.1-.7.1-1.4.1-2.2 0-1.4 0-2.7.1-4.1 0-1.2.1-2.4 0-3.6-.1-.7 0-1.5.1-2.2.1-.5.1-.9.2-1.4.1-.6.1-1.3.1-1.9.1-1.7.2-3.3.1-5v-.5c.2-.6.1-1.1.1-1.7v-1.1c0-.9.1-1.9.1-2.8 0-.6.1-1.2 0-1.7-.2-.9-.2-1.7-.2-2.6 0-.6 0-1.2-.1-1.9-.2-1 0-2.1-.2-3.1v-.7c0-1.3.1-2.6.1-4-.2-.4-.4-.8-.7-1.1-.6-.6-1.2-1.2-1.9-1.7-.6-.3-1.1-.7-1.6-1.2-.1-.1-.3-.1-.4-.1-.2.3-.4.5-.7.6-.4 0-.8-.1-1.2-.1h-2.2c-.3 0-.6.1-.9.1-.3 0-.6-.1-.8-.1-.3.1-.4.4-.8.3C25.9.8 25.2.1 24.1 0c-.5.1-1 .1-1.5.2-.1 0-.1.1-.3.2 0 .4 0 .9-.1 1.4v.5c0 .3-.3.5-.5.3-.6-.4-1.3-.5-1.9-.6-.3 0-.7-.1-1 0-.4 0-.6-.4-1-.2-.3.2-.5.4-.7.8 0 .2-.1.5-.1.8 0 .2-.1.3-.2.3-1.3-.7-2.4-1.2-3.6-1.7-.1 0-.2-.1-.3-.1-.3 0-.5 0-.7.3 0 .7 0 1.4.1 2.2-.3.1-.6.4-.9.4-.5 0-1 0-1.5-.2-.3-.2-.6-.2-.9-.2-.7 0-1.4-.2-1.9-.6-.2-.2-.4-.3-.6-.4-.1 0-.2-.1-.4-.1-.2-.1-.5 0-.6.3-.1.2-.1.4-.1.6 0 .2.1.4.1.6 0 .1-.1.3-.3.3-.6 0-1.1-.1-1.6-.4-.4.1-.9.2-1.3.3-.2.1-.4.3-.5.6 0 .2-.1.5-.1.7-.2.3-.6.5-.6.9.2.9 1 1.2 1.6 1.8 0 .2.1.4 0 .6 0 .8-.1 1.6 0 2.4.1.8-.1 1.6 0 2.3-.1 1.3 0 2.6.1 3.9v.8c0 .7 0 1.5-.2 2.2-.1.3 0 .6.1.9-.2.3-.4.7-.6 1-.3.2-.6.3-.8.4-.2.1-.3.2-.5.4-.1.2-.2.4-.2.6.1.4.2.7.4 1 .2.3.3.5.5.7 0 1.7 0 3.3-.1 5v1.4c0 .5.1 1 .1 1.6 0 .6.1 1.3.1 1.9 0 .8.1 1.7.1 2.5.1.8.2 1.7.1 2.5 0 .8.1 1.6.2 2.4 0 .5-.3 1.2-.3 1.2-.3-.2-.5-.4-.7-.6-.2-.1-.5 0-.7.2-.3.3-.4.7-.2 1.1 0 .1.1.2.1.3.3.4.6.8.9 1.3 0 .5-.1 1.1.1 1.6.1.3.3.6.6.7.6.2 1.1.5 1.7.5.6.3 1.2.3 1.9.2.8-.1 1.7-.3 2.5-.5s1.6-.2 2.3-.1c.4.2.8.5 1.1.6 1.4.2 2.6.1 3.9.1.8-.2 1.6-.1 2.4-.1.9 0 1.8.1 2.7.2.9.1 1.8.1 2.7-.1.4-.1.8-.1 1.2-.1 1.9.1 3.8 0 5.8.1h.4c1-.2 2.1-.1 3.1-.3.2 0 .4 0 .6.1.4.1.8.1 1.2 0 .3-.1.7-.1 1-.1.4 0 .5-.2.7-.7 0-.1.1-.3.1-.4.6-.3 1 .3 1.5.1.1-.1.2-.1.2-.2-.1 0-.2-.4-.5-.4zm-4.4-31.8-.1.1c-.9 0-1.8-.2-2.7-.5-.3-.1-.5-.2-.7-.5 0-.2.2-.3.4-.4.2.1.4.3.5.4.4.1.6-.2 1.1-.2.5.1 1 .5 1.5.8l.1.1c0 .1 0 .2-.1.2zm.1 1.2c.1.1.2.3.2.4 0 .3 0 .6-.1.9-.1.3-.3.5-.5.4-.3 0-.6 0-.9-.1-.7-.2-1.3-.4-2-.5-.3 0-.5-.4-.5-.7 0-.4.1-.7.1-1.1l.2-.2c.3 0 .6.1.9.2.9.3 1.8.5 2.6.7zM28.8 1.8c.9 0 1.9.1 2.8.1.3 0 .7.1.9.5.2 1.3.2 1.3-.1 3.7-.5.3-.7.3-1.3-.1.3-1.8.3-1.8 0-2.7-.2-.2-.4-.4-.6-.4-.7-.2-1.4-.6-2.1-1 .1-.1.3-.1.4-.1zm1.6 2.6c-.3-.1-.6-.3-.7-.7.3-.2.5-.1.8.1 0 .3 0 .5-.1.6zm-1.5-1.2h-.1s-.1 0-.1-.1c0 0 .1 0 .2.1-.1-.1 0 0 0 0zm-1 .8c.2.2.4.4.7.6.2.1.4.2.5.4-.1 0-.2.1-.3.1-.5-.1-.9-.3-1.3-.6-.3-.2-.6-.4-.8-.6-.2-.1-.5 0-.7-.3.5-.1.5-.1 1.9.4zm1.7 40.9c-.1-.3-.2-.5-.3-.8-.2-.5-.5-.7-1-.8h-.7c-.2.2-.4.3-.7.4-.2-.2-.1-.4-.1-.6.2-.1.4-.2.5-.3.6-.2 1.6 0 3.1.4.2 1.1.2 1.1.1 2l.6 2.1s0 .1-.1.1c-.4.1-.9.1-1.3 0-.5-.8-.1-1.6-.1-2.5zm-.8 1.8c.1.2 0 .5 0 .8 0 .1-.1.2-.2.2-.4.2-.8 0-.9-.4 0-.1-.1-.2-.1-.3 0-.9 0-1.8.2-2.7 0-.1.2-.2.3-.1.3.2.3.2.7 1-.1.4-.1.9 0 1.5zm-1.8.9c-.1.1-.2.2-.4.3 0-.2-.1-.3-.1-.4 0-.1.1-.2.1-.2h.2c.2 0 .3.1.2.3zm3.2-5.3c.2-.1.4-.1.5 0-.1.2-.3.1-.5 0zm.1-.9c-.6-.2-1.2-.3-1.9-.3H28c-.4 0-.6.2-.7.6l-.1.1c-.3-.1-.4-.3-.4-.5 0-.3 0-.3.3-1 .2-.1.4-.2.6-.2.1 0 .3 0 .4.1 1 .4 1.9.7 3 .7.1 0 .2 0 .3.1.1.1.1.2.1.3l-.1.1c-.4.2-.7.2-1.1 0zm-2.6-6.7c.1 0 .3-.1.4-.1.2 0 .5.1.7.2.6.2 1.2.5 1.8.5.4 0 .8.2 1.3.4 0 .1.1.3.1.4 0 .4-.1.8-.3 1.2-.4.1-.8 0-2.1-.3-.7-.1-1.3-.3-2-.4-.2-.1-.2-.3-.2-.5.1-.5.2-1 .3-1.4zm-.1-1.3.1-.1c.2 0 .4 0 .5.2-.1.1-.3.1-.6-.1 0 .1 0 0 0 0zm.8.2c.5 0 1-.1 1.5 0 .4.1.7.3 1 .6.1.1.1.2.1.2-.1 0-.2.1-.3 0-.8-.2-1.5-.5-2.2-.7-.1 0-.1-.1-.1-.1zm1 4.2c.7.2 1.5.2 2.1.7 0 .1 0 .2-.1.2-.2.1-.4.2-.5.2-.6-.2-1.1-.4-1.7-.5-.6-.1-1.2-.4-1.7-.8v-.1c.6.1 1.3.1 1.9.3zm2 2.4c-.3 0-.7 0-1-.1-.8-.2-1.7-.5-2.5-.9 0 0 0-.1-.1-.1 1.1 0 2.1.2 3 .7.4 0 .6-.5.9-.5.2.6 0 .9-.3.9zm.2 4.6c.1.1.3.1.3.2.3.5.2 1.1-.1 1.9-.2-.6-.4-.9-.5-1.3 0-.2 0-.5.3-.8zm.8-13.6c-.7-.4-1.4-.4-2.1-.5h-.6c-.1-.1-.2-.3-.2-.4.1-.1.2-.2.3-.4.6 0 1.3 0 1.9-.1.4.2.7.4 1.1.6v.6c-.2.1-.3.2-.4.2zm.1-1.9c-.8-.4-1.6-.3-2.4-.2-.3.1-.6 0-.8-.3-.1-.1-.1-.2 0-.3 0-.1.1-.1.2-.2h.1c.1.1.3.1.5.2.5-.2.9-.7 1.4-.7.8.3.8.3 1.6 1 .1.2 0 .3-.1.4-.2.1-.4.2-.5.1zm-3.2 2.4h1.1c.7 0 1.4.1 1.9.6-.2.3-.4.7-.4 1.1 0 .1-.1.1-.2.2-.3 0-.4-.2-.6-.4-.2-.2-.4-.3-.6-.5-.3 0-.6-.1-.9-.1-.5 0-1.1-.1-1.6-.3-.2-.1-.5 0-.8 0-.1-1.4 0-3.4.2-4.1l.1-.1c.1 0 .3 0 .4.1.3.2.2.6.3.9.1.2.3.4.4.5 0 .1.1.2.1.3v.9c.1.5.2.7.6.9zm-1.6 7.4v.1h-1c-.2 0-.4-.1-.4-.4 0-.2.1-.4.3-.5.5.2.8.5 1.1.8zm-3.4 5.6v-.6c0-.3-.1-.5-.2-.8.3-.2.6-.3.9-.3.1.1.1.2.2.2v.3l-.6 1.5c-.1.2-.1.5-.1.7.1.8.3 1.5.7 2.1-.4.2-.7.2-1-.1-.1-.3 0-.5 0-.8 0-.2 0-.4.1-.6v-1.6zm-2.6-.1c-.4-.2-.6-.6-.7-1.1.2-.5.7-.5 1.1-.7.5 0 .9-.1 1.4.1-.1.5-.6.6-1 .9-.2.3-.5.5-.8.8zm0 2.9-.2.2c-.1 0-.2 0-.3-.1-.1-.1-.1-.2-.2-.2 0-.3.1-.6.4-.7.1.2.1.4.2.6 0 0 0 .1.1.2zm-1.4-5.7c-.1 0-.2-.2-.3-.3.1-.1.2-.3.4-.3.3-.1.5-.3.8-.3 1.1-.3 2.3-.6 3.4-.8.4-.1.9-.1 1.3.1.1 0 .2.1.2.2s0 .2-.1.2c-.1.1-.2.2-.4.2-.1 0-.3.1-.4 0-1.1-.2-2.1.1-3.1.5-.6.5-1.2.5-1.8.5zm.6 3.5c-.1.4-.2.8-.4 1.1-.1 0-.2-.1-.2-.1-.3-.6-.3-1.2-.1-1.8 0 0 .1-.1.1-.2.1.1.3.1.3.2.2.3.2.6.3.8zm4.9-35.8c-.3-.1-.6-.1-1-.2-.1-.1-.2-.2-.2-.3-.1-.9-.1-1.9.1-2.8.6-.4 1.1-.6 1.8-.5.1.1.2.1.2.2.2.6.3 1.2.3 1.8 0 1-.1 2-.1 3v.4c-.1.3-.2.3-.3.4-.7.1-1.3.4-1.9.8-.1.1-.3-.1-.3-.2-.1-.5-.1-1 .1-1.5 0-.1.2-.2.3-.4.4.1.7.4 1.1.2.2-.4.2-.4-.1-.9zm.6 20.5c0 .5-.1 1-.2 1.6 0 .1-.1.2-.2.2-.1.1-.3 0-.4-.2-.2-1.3-.2-2.6-.1-3.9.1-1 .1-2 .1-3 0-.5 0-1-.1-1.6.2-.5.1-1 0-1.6v-.8c0-1.8.1-3.7.3-5.5 0-.4.3-.5.6-.3.2.1.3.3.3.5v.6c-.1 2.6-.1 5.1-.3 7.7.1 2.3.2 4.3 0 6.3zm.3-16.5c-.2.2-.4.2-.7.2-.3 0-.6-.1-.8-.2 0-.4.2-.6.5-.7.2-.1.4-.1.6-.1.4-.1.7.1.4.8zm-2.6 5.3c.1-.4.1-.8.1-1.2 0-.8.1-1.7.1-2.5 0-.1.1-.3.1-.4.4 0 .5.3.7.7 0 .3 0 .6-.1.9 0 .3-.1.6-.1.9-.1 1.3-.1 2.6-.2 3.9 0 .8.1 1.6.1 2.3-.1.9 0 1.9-.1 2.8V28.1c-.1.6-.1 1.2 0 1.9.1.2 0 .5 0 .8v1.1c.2.3.4.4.5.6v.3c-.4.1-.8.3-1.2.3-.1-.1-.1-.2-.1-.3v-.9c0-.8 0-1.6-.1-2.3-.1-.5 0-.9-.1-1.4-.2-1.1-.1-2.2-.1-3.3V24c0-1.9.2-3.6.5-5.2zm-.5 15.7c.1-.2.2-.4.4-.6.6-.3 1.1-.2 1.6.3-.5.6-1 1-1.6 1.1h-.3c-.8.1-1.7.2-2.3.5-.3-.1-.5-.2-.5-.4-.1-.3-.1-.6.2-.9.2 0 .5 0 .8-.1.2 0 .5-.1.7-.2.3.1.5.6 1 .3zm-2.9 4.7c.9 0 1.9 0 2.9.1 0 .1-.1.2-.1.2-.3.1-.6.1-.9.2-.6.2-1.2.1-1.7.4-.1 0-.3-.1-.3-.2v-.4c-.1-.1 0-.2.1-.3zm3.5-.9c-1 .1-1.2.1-2.2-.1 0 0 0-.1.1-.1.5-.2 1.1 0 1.6-.1.2 0 .4.1.6.1 0 .1-.1.2-.1.2zm.6.8c0 .1-.1.2-.2.2h-.9c.1-.1.2-.2.3-.2h.8zm0 0c.1-.3.4-.4.6-.4 0 0 .1.1.1.2v.1l-.1.1h-.6zM22.5 45c.2-.2.4-.4.7-.6h.3c.1.6.1 1.2 0 1.9 0 .3-.1.6-.3.9-.1.2-.2.3-.4.3-.3 0-.5-.1-.6-.4-.3-.7-.2-1.5.3-2.1zm.8-2.9c.2-.4.5-.4.8-.4.6-.1 1.1 0 1.7.2v.1s0 .1-.1.2c-.8.2-1.6.1-2.4-.1zm1.9 4c.1-.4.2-.9.3-1.4.1-.2.2-.5.4-.6.4.6.5 1.2.4 1.9 0 .4-.1.5-.5 1-.5-.1-.5-.6-.6-.9zm1.3-10.6c-.2 1-.2 1.2-1.4 1.6h-.5c-1-.1-2.1-.1-3.1.2h-.3c-.2 0-.4-.1-.4-.3 0-.1.1-.3.3-.3.6-.1 1.1-.3 1.7-.5.7 0 1.4-.1 2.1-.3.5-.3.9-.9 1.8-.9-.1.2-.1.4-.2.5zm-.1-2.4c0-.1-.1-.2-.1-.2 0-.1.1-.1.1-.2 0 .1.1.2.1.2s-.1.1-.1.2zM22.3 8.2v-.5c.4-1.2.4-2.5.5-3.7.1-.9.2-1.8.4-2.7.1-.1.2-.1.4-.2.4-.1.8 0 1.1.2.5.3.9.6 1.4.8.1 0 .1.2.2.2-.1 0-.2.1-.3.1-.4 0-.7.3-.9.7l-.1.1c-.2 0-.4.1-.7.2-.1.1-.2.2-.2.4 0 .1.1.3.1.5 0 .3 0 .5-.3.7-.1.1-.1.2-.2.3-.1.2.1.4.1.6v.5c-.2 1.1 0 2.2-.2 3.3 0 .2 0 .3-.1.5-.2.6-.3 1.2-.2 1.9.1.6.1 1.2.1 1.9-.1 1-.1 2-.1 3 0 .6-.1 1.1-.2 1.7-.1.3-.1.6-.1.9-.1.8-.2 1.7-.2 2.5v4.4c.2 1 .1 2 .1 3 0 .6 0 1.1.1 1.7.1.5.1 1 0 1.6l-.1.1c-.6-.1-.9-.6-1-1.2v-.6c0-1.4.1-2.8.1-4.2 0-.6.1-1.3 0-1.9v-.8l.3-9.3v-.5c-.2-.6-.1-1.2-.1-1.9 0-1.5.1-2.9.1-4.3zM21.7 33c.1 0 .2.1.3.1-.1.1-.2.3-.3.3-.2.1-.5.1-.7.1-.4 0-.6.2-.8.6-.2.3-.2.7-.2 1.1 0 .2.1.4.1.6-.1.3-.2.6-.2.9 0 .2.1.5.2.8 0 .1 0 .2.1.4-.1.2-.2.4-.3.7-.1.8-.1 1.7-.2 2.5-.1.2-.3.4-.4.5 0 .4.1.8.1 1.3 0 .2 0 .3.1.5.2.5.1.9 0 1.4.1.7.2 1.4.3 2.2 0 .3.1.6-.2.9-.3.1-.7.1-1.1.2-.2-.1-.3-.2-.3-.4 0-.3.1-.5.2-.7.2-.5.2-1 .1-1.5-.2-.7-.4-1.4-.2-2.2.1-.3-.1-.6-.1-.9-.2-.2-.3-.4-.4-.6 0-.1 0-.1-.1-.2v-.2c-.1-2.3-.1-4.7 0-7 0-.2.1-.3.1-.5.7-.4 1.3-.6 2.1-.6.5-.3 1.1-.3 1.8-.3zm-6.3 10.2c0-.4.1-.8.1-1.2 0-.4.1-.7.2-1.1 0-.4.1-.7.1-1.1.1-1.3.1-2.6.2-3.9 0-.5.1-.9.2-1.4 0-.2.2-.3.4-.3 0 .1.1.3.1.4.1 1.7.2 3.5 0 5.2v.9c-.1.4.1.8.2 1.2-.2.3-.4.7-.6 1-.1.6-.1 1.2-.2 1.8 0 0-.1 0-.1.1-.2-.4-.3-1-.6-1.6zm-.2 3.7c-.1.2-.1.4-.3.5h-.1c-.2-.4-.4-.8-.6-1.1-.1-.6-.1-1.1 0-1.5 0-.3.2-.6.5-.7.1.1.2.1.3.2l.3.6c0 .6.1 1.3-.1 2zm.8-.6c0-.1.1-.1.2-.2h.1c.1.4.4.8.6 1.2v.3c-.3.2-.6.3-.9.1l-.1-.1c0-.4 0-.9.1-1.3zm1-2.6c0-.1.2-.3.2-.4 0 0 .1 0 .1-.1 0 .2 0 .4.1.6 0 .5 0 .9.2 1.4.1.4.1.8-.1 1.2l-.1.1c-.1 0-.2-.1-.2-.1-.4-.9-.5-1.7-.2-2.7zM20.6 4c.4-.1.8-.1 1.1-.2.1.1.1.2.2.3v1c-.1.2-.2.4-.4.4-.4.1-.8 0-1.3-.1-.3-.4-.6-.7-.9-1.1.4-.3.9-.3 1.3-.3zm-1.7 8.8c.1-.4.3-.5.5-.6.3-.1.6-.2.8-.5.1-.1.1-.2.1-.3 0-.1-.1-.3-.3-.3h-.6c-.2 0-.4-.2-.4-.4v-.9c.1-.3.3-.3.5-.4.2 0 .4-.1.5-.3.1-.1.1-.5 0-.6-.1-.1-.2-.2-.4-.2h-.4l-.1-.1c-.1-.5.1-.9 0-1.3.2-.4.5-.5.8-.5.5 0 1 0 1.5.1.1.1.2.3.2.4-.3 1.2-.2 2.5-.3 3.8-.1.9-.1 1.8-.1 2.7 0 .6-.1 1.2-.1 1.7 0 .6.1 1.1.1 1.7v2.7c0 .9-.1 1.8.1 2.7v.2c-.1 1 0 2-.1 3 0 1-.1 2.1-.1 3.1s-.1 2-.1 3c-.2.2-.3.5-.5.7-.4.2-.7 0-1 .1-.1-.1-.2-.2-.3-.2V30.2c0-.3-.1-.6-.1-.9v-1c.1-.3.4-.4.3-.7-.1-.2-.3-.4-.4-.6 0-.1-.1-.2-.1-.3 0-.5 0-.9.1-1.4.3-.2.5-.3.7-.5.2-.2.2-.7-.1-.8-.1 0-.3-.1-.4-.1-.1-.1-.1-.2-.2-.2 0-.5 0-.9.1-1.5.4-.2.6-.3.9-.5l.3-.3c.1-.2 0-.5-.2-.5h-.3c-.1 0-.3.1-.4.2-.1-.1-.2-.1-.2-.2-.2-.6-.2-1.1-.1-1.7.2-.1.4-.1.5-.2.2-.2.5-.4.7-.6.1-.1.1-.2.2-.3v-.3c0-.1-.3-.2-.4-.2-.3.2-.6.3-.9.5 0-.1-.1-.2-.1-.3 0-.5-.1-1 0-1.5.3-.6.8-.7 1.1-1.1.1-.1.1-.2 0-.3 0-.1-.1-.2-.2-.2h-.3c-.1 0-.3.1-.4.1-.1 0-.2 0-.3.1-.3-.9 0-1.6-.1-2.1zm-.7 14.7c0 .4.1.8.1 1.2-.1.5 0 .9.1 1.4.1.4 0 .8 0 1.2 0 .3.1.6.2.9l-.1.1c-.2.1-.4.1-.5.2l-.2-.2c0-.5 0-.9.1-1.4-.2-.5-.3-1-.3-1.5.1-1 .1-2 .1-3v-.6c-.2-3.5-.1-5.6.1-8.9 0-.6.1-1.1 0-1.7 0-.2 0-.4.1-.6.1-.6.1-1.2.1-1.9 0-.1-.1-.2 0-.3.3-.9.1-1.9.4-2.9.1.7.1 1.3 0 1.8-.2 2.1-.2 4.3-.2 6.4 0 .7.1 1.5.1 2.2 0 1.1-.1 2.3-.1 3.5 0 .6-.1 1.2 0 1.7v2.4zM18.5 3h.2l.1.1c-.1 0-.2.1-.2.1-.1-.1-.1-.1-.1-.2zm-.7 1c.1 0 .2 0 .2.1.3.5.6.9 1 1.4l-.8.8c-.2.8 0 1.6-.3 2.4-.1-.4-.1-.8-.1-1.1 0-.5 0-.9-.2-1.4 0-.1-.1-.2 0-.3 0-.6 0-1.1.1-1.7.1-.1.1-.2.1-.2zm-1.2 1c.2.1.2.2.1.4 0 .1-.1.2-.2.2-.2.1-.5.2-.7.2-.3-.2-.4-.4-.4-.8.5-.2.9 0 1.2 0zm-1.5 1.9 1.2-.3c.2 0 .5 0 .7.3.1.5 0 1 .2 1.5.1.2 0 .4 0 .6 0 1.2-.1 2.3-.1 3.5-.1 3-.3 6.1-.4 9.1 0 .9-.1 1.8.1 2.7 0 .2-.2.5-.5.3l-.1-.1c-.1 0-.2 0-.3-.1-.3.1-.6.2-.7.5v.3c.5.4.7.4 1.3-.3.1 0 .2 0 .2.2s.1.3.1.5c0 1.7-.1 3.3-.2 5.1.1.2.2.5.3.9 0 .4-.1.9-.1 1.3-.3.5-.9.4-1.2.7-.2.2-.2.5-.3.7-.1 1.4-.2 2.7-.3 4.1-.1 1.3-.2 2.6-.2 3.9 0 .2 0 .3-.1.4-.1.3-.4.4-.5.6-.2.2-.4.4-.5.6-.2.3-.3.5-.4.8.1.6.1 1.1.2 1.6 0 .2.1.4.2.6.1.4.3.8.4 1.2-.1.1-.2.3-.3.3-.2.1-.5 0-.7.1l-.2-.2c0-1.2 0-2.3.2-3.4.1-.6 0-1.1-.2-1.7v-.3h.7c.1-.2.2-.3.2-.4 0-.3 0-.5.1-.8v-.6c.2-1.1.2-1.1.1-2.1v-3c0-.8.2-1.7 0-2.5-.1-.4.1-.7.1-1.1 0-1.4.1-2.8.1-4.2v-.6c0-.6.3-1.2.1-1.9V24c0-.6.1-1.3 0-1.9-.1-.9-.2-1.8-.4-2.9.2-1.5.4-3.3.4-5.1 0-1.3.1-2.6.2-3.9v-.5c.1-.6.2-1.1.1-1.7v-.3c0-.1.1-.2.1-.3.2-.3.3-.4.4-.5zm-.6-3.2h.3s.1 0 .1.1v.1l-.1.1h-.1c-.2 0-.3-.1-.3-.2s.1-.1.1-.1zm-1.3 0c.5.6.9 1.4 1.2 2.1 0 .3-.3.4-.5.7-.2.3-.1.7-.1 1.1.2 1.1.1 2.1-.1 3.1-.1.6-.2 1.1-.2 1.7v1.7c0 1.5-.1 2.9-.4 4.4.1.8.1 1.6.3 2.5.1.4 0 .8 0 1.3v2.2c.1.8 0 1.6-.1 2.3-.1.4-.2.8-.1 1.2.1.8 0 1.6-.1 2.3-.1.8-.1 1.7 0 2.5.1.7.1 1.4 0 2 0 .9-.1 1.8-.1 2.7 0 .5.1 1 .1 1.6 0 .5-.2.9-.2 1.4v1.1c0 .3-.1.6-.2.9-.2 0-.4-.1-.4-.3 0-.1-.1-.3-.1-.5 0-1 0-2-.2-3v-.2c0-3.2-.1-6.4.1-9.6.2-2.1.2-4.2.3-6.3.1-1.8.1-3.7.2-5.5 0-.5-.1-1 0-1.6 0-.6.1-1.1.2-1.7 0-.5.1-1 .1-1.6l.3-7.2c0-.5 0-.9-.1-1.4 0 .2.1.2.1.1zm-1.3 42.8c-.2-.5-.1-1-.3-1.5-.1-.4-.2-.9-.3-1.4 0-.1.1-.3.2-.4.5-.1.8.1.9.5 0 1.7 0 1.8-.5 2.8zM10.9 6c.3-.1.5-.3.8-.4.1-.1.1 0 .5.2.1.2.1.5 0 .7-.6.4-.6.4-1.3.4-.2-.2-.4-.3-.7-.5-.1-.1-.1-.2-.2-.3.4-.3.7-.1.9-.1zm-4.7-.9c0-.2.3-.3.5-.3.1.1.2.1.3.2.3.2.6.3.9.6.5.4 1 .7 1.4 1.1.1 0 .1.2.2.3-.2.4-.5.6-.8.7-.1.1-.2.1-.5-.1l.3-.6c.1-.2-.1-.4-.3-.5-.4-.1-.9-.1-1.3-.1-.1 0-.2.1-.4.2 0 .3.1.4.2.6.1.1.2.3.3.4v.8c-.1.5-.2.9 0 1.4.1.5.1.9.1 1.4 0 1.3.1 2.5.1 3.8v.3c.2.8.2 1.6.1 2.3-.1 1.3-.1 2.6-.2 3.9 0 0 0 .1-.1.1 0-.1-.1-.1-.1-.2v-1.6c-.3-.8-.2-1.6-.1-2.5 0-.6 0-1.1-.1-1.7-.1-.2-.1-.5-.1-.8 0-.7 0-1.4-.1-2-.1-.6-.1-1.2-.2-1.9-.1-.5-.1-1-.2-1.5-.2-.4.1-.8 0-1.3S6 7.1 6 6.5c.1-.4.1-.9.2-1.4zm-.9 4.2c0 1.2.2 2.3.4 3.4.1.5.1 1 0 1.5l-.1.1c-.3-.1-.6-.1-.9-.1-.2 0-.4.1-.5.2-.3.2-.3.5 0 .8.1.1.2.1.3.1.4 0 .7-.3 1.1-.4.1.1.2.2.2.3.2.5.1 1 .2 1.5 0 .7-.1 1.4.1 2-.1.7.1 1.3.2 2 0 .2.1.3.1.5 0 .5 0 1-.1 1.6 0 .2 0 .3-.1.5-.3.1-.5-.1-.7-.2-.3-.2-.5-.5-.8-.8-.3-.1-.6-.1-1-.2-.1-.1-.1-.2-.2-.2-.1-.4-.2-.8-.1-1.2.3-1.1.1-2.2.2-3.3-.1-.7-.1-1.4-.1-2v-1.1c-.1-.5-.1-1-.1-1.6 0-1.1 0-2.2.1-3.3 0-.2.1-.4.3-.6l1.2.3c.1-.1.1-.1.2-.1 0 .1.1.2.1.3zM2.8 7.7h-.3c-.1-.1-.3-.2-.2-.4.3-.3.2-.8.3-1.2l.2-.2c.3 0 .7-.1 1 .1.4.3.7.2 1.1.1 0 0 .1 0 .2.1.3.5.1 1 .1 1.5l-.3.3c-.3-.1-.6-.1-.8-.2-.5-.2-.9-.2-1.3-.1zm-.7 18c-.3-.2-.5-.5-.6-.9 0-.3.2-.5.4-.6.1-.1.2-.1.3-.2.4-.2.7-.4.9-.7.3-.4.7-.5 1.3-.4.4.3.7.7 1.2 1.2.1.4.2.9.6 1.3.1.1-.1.3-.2.4h-.3c-.5 0-1.1 0-1.6.2-.3.1-.7.1-1 .1-.4 0-.7-.2-1-.4zm.3 8.5c-.1-.4-.1-.8-.1-1.2-.1-1.8.2-3.6.2-5.3 0-.1.1-.3.2-.4.5 0 .9-.1 1.3-.1.6-.3 1.3-.3 2.2-.4.1.3.1.4.1.5V30c-.1 2 .2 4.1.2 6.1.2.7 0 1.4.1 2 .2 1.1.1 2.2.1 3.3 0 .5 0 .9-.1 1.4 0 .3-.2.6-.5.8-.2-.1-.3-.2-.5-.2-.4-.1-.9-.2-1.3 0-.1.3-.2.5-.3.7-.2.4-.2.9-.1 1.4.1.4.2.8.7 1 .1 0 .2.2.3.3.1 0 .1.4-.1.5-.1.1-.2.2-.4.2-.5.2-1.1.2-1.6 0l-.1-.1c.3-.8.2-1.6.2-2.4 0-.1 0-.2-.1-.3v-.9c0-.1.1-.1.1-.2 0-.7-.1-1.4-.1-2.1 0-1 .1-2.1-.2-3.1v-.3c0-1.1-.1-2.2-.1-3.3 0-.2 0-.4-.1-.6zm3.3 11.9c-.2-.3-.5-.2-.7-.4-.2-.1-.3-.3-.3-.5v-.3c0-.3.1-.5.4-.6.2-.1.4 0 .5.1.2.1.3.3.5.4.1.4.3.7.4 1.2 0 .4-.1.8-.2 1.2 0 .2-.2.4-.4.4-.3-.5 0-1.1-.2-1.5zm-3.5.4c-.4-.3-.7-.5-.9-.7.1-.4.5-.2.7-.4.2.1.3.3.3.5-.1.2-.1.3-.1.6zM6.8 49c-.4 0-.8.2-1.2.2-.6 0-1.3.1-1.9-.2-.3-.1-.7-.1-1-.2-.1 0-.2-.1-.5-.1.9-.2 1.6-.4 2.3-.3.4.1.5.3.6.4.2.2.3.2.5.1.1 0 .2-.1.3-.2h.7c.1 0 .3.1.4.1 0 .1-.1.1-.2.2zm2.7-1.3-.3-.3c-.3-.5-.4-1-.6-1.6-.1-.3 0-.6 0-.9.1-.3.5-.6.8-.4.1.1.2.1.3.2 0 .6.1 1.2.1 1.8 0 .5-.1.9-.3 1.2zm.8-3.5c-.3-.4-.7-.6-1.1-.7-.4-.1-.8 0-1.1.5-.2.6-.2 1.3-.1 2s.5 1.2.6 1.9c-.1.1-.2.1-.2.1-.4.1-.8 0-1.2 0-.2 0-.3-.3-.2-.5 0-.1.1-.2.1-.3.2-.4.2-.9.2-1.5l-.6-1.5c.1-.2.2-.1.3-.1h.3c.2 0 .4-.3.3-.4-.2-.6-.2-1.2-.2-1.9.1-1.4-.1-2.7-.1-4.1v-.3c-.2-1-.1-2-.2-3 0-.5 0-.9-.1-1.4v-.9c0-.7 0-1.4.1-2 0-.7.1-1.5-.1-2.2 0-1.5-.1-2.9.1-4.4l.1-.1c.1 0 .1 0 .2.1v.2c0 .5 0 .9.2 1.4.1.2.1.4.1.6 0 .5 0 1 .1 1.6-.1 1.1.1 2.2 0 3.3-.1 1.1.1 2.1.3 3.1.2.8.4 1.5.3 2.3v.5c.2.9.2 1.8.2 2.7 0 .3 0 .6.1.9.1.8 0 1.6-.1 2.3.1.1.1.3.2.4 0 .1.1.2.2.2s.3.1.4 0c.1 0 .3-.2.3-.3v-.9c-.1-.8-.1-1.7-.1-2.5 0-.5 0-1-.1-1.6-.1-.2-.1-.5 0-.8.1-.2.4-.1.5-.2.3-.1.5-.3.6-.7 0-.2-.1-.5-.3-.4-.2 0-.5.1-.7.1 0-.1-.1-.2-.1-.2-.1-.5-.3-.9-.2-1.4.2-.4.6-.4.9-.5.2-.1.2-.1.4-.4-.1-.1-.1-.3-.3-.4-.2-.1-.4-.1-.6-.1-.2 0-.4.3-.7.1-.2-.4-.3-.8-.3-1.3v-1.7c0-.5 0-1-.1-1.6-.1-.3-.1-.7 0-1.1.1-1.3-.1-2.5-.3-3.7-.1-.6-.1-1.1-.1-1.7.1-1.6.1-3.1.2-4.7 0-.5 0-1-.1-1.6-.2-1-.3-2.1-.3-3.1 0-.7 0-1.4-.1-2-.1-.4 0-.8 0-1.2-.1-.1 0-.2.1-.2.3-.1.6-.1 1-.2.3-.2.7-.4 1.1-.7.2 0 .3.1.5.1l1.2-.3c.3.1.4.3.4.5v.8c-.1 1.7-.2 3.5-.2 5.2-.1 1.6-.1 3.2-.1 4.9 0 .6 0 1.2-.1 1.7 0 .6.1 1.1-.1 1.7v.6c.2 1.4 0 2.8-.1 4.2 0 .9 0 1.8-.2 2.7-.1.3-.1.6 0 .9.1.5 0 1 0 1.6 0 1.8-.1 3.6-.1 5.3v.3c.2 1.2.1 2.5.2 3.8-.3.2-.5.4-.8.6-.2.2-.3.5-.2.9.1.3.3.6.2.9-.2 0-.3-.1-.4-.2zm.2 4c-.1 0-.2-.1-.3-.2.3-.7.4-1.4.3-2.1 0-.5 0-.9.1-1.4l.2.2c0 .1.1.2.1.3 0 .8.2 1.7.5 2.4.1.1.1.3.1.4 0 .3-.2.4-.4.4h-.6zm.7.8c.3-.1.5-.1.7.1-.3.1-.5.1-.7-.1zm1.7.4c-.3.1-.5.1-.8 0-.1 0-.1-.1-.1-.2.4 0 .7 0 1.1.1-.1 0-.1.1-.2.1zm22.4-.3c-.4.1-.9.2-1.3 0-.5-.2-1.1-.2-1.6 0-.5.1-1.1.1-1.6.2-.4.1-.8 0-1.2 0-.4 0-.9-.1-1.3-.1s-.8 0-1.1.2c-1.3-.3-2.6-.3-3.9-.1-.6.1-1.2.1-1.8.2-.6.1-1.3.1-1.9-.1-1.2-.3-2.4-.3-3.7-.1-.4.1-.8.1-1.2 0-.6 0-1.1-.1-1.7-.1l.2-.2c1.1-.1 2.2-.3 3.4-.5h2.5c.6 0 1.2 0 1.8-.2.2-.1.5 0 .7-.1.3 0 .5 0 .7.2.2.2.5.2.7.2.5-.2 1.1 0 1.6-.1s1.1 0 1.6-.1c.4 0 .8-.1 1.2-.2.5.1 1 .4 1.6.2.3-.2.6-.3 1-.5.3 0 .7 0 1 .1.4.1.8.3 1.3.1 1.1.3 2.2.2 3.2.4.1 0 .2.1.3.1-.1.4-.3.5-.5.5zm-2.5-3.7c.1.1.2.1.2.2.1.6.1 1.1 0 1.7 0 .1-.1.2-.2.2-.2.1-.3-.1-.4-.2.2-.6.4-1.2.4-1.9zm.9 0 .1-.1c.1.1.2.1.3.2.2.4.1.7 0 1.1 0 .1-.1.2-.2.2-.1.1-.2.1-.2 0-.1-.5-.1-.9 0-1.4zm.8 1.9c0-.2.1-.4.4-.4h.1c.2.2.1.5-.1.7-.1.1-.3.1-.4-.1v-.2zm1.4-1.4c-.1.1-.2.1-.3.1l-.1-.1c0-.1 0-.2.1-.3.1 0 .2 0 .2.1.2.1.1.2.1.2zm.6-1.1c-.3-.1-.5-.3-.8-.4-.3 0-.5.3-.8.4-.1 0-.2 0-.3-.1-.2-.1-.4-.3-.6-.4-.2-.1-.4-.1-.6-.1-.2 0-.5.2-.6.4-.1.2-.1.5-.1.7h-.1c-.2-.5-.4-.9-.6-1.4.2 0 .4-.1.6-.1.2-.1.4-.4.2-.6-.1-.2-.3-.3-.4-.4-.1-.2-.1-.4-.1-.6.1-.6.1-1.1.3-1.7.1-.4.2-.8.1-1.2-.2-.8-.2-1.6 0-2.3.3-1.1.3-2.2.2-3.3v-.2c.3-.4.6-.8.8-1.3.1-.3-.2-.6-.2-.9v-1.2c.1-.2.2-.5.3-.7.1-.4.1-.8-.1-1.2-.1-.2-.2-.3-.4-.5-.2-.1-.3-.1-.4-.1-.1 0-.3-.1-.4-.1-.1-.1-.3-.1-.4-.2-.1-.1-.3-.1-.4-.1h-.4c-.4.2-.8.4-1.2.5-.4-.2-.9 0-1.3-.2-.4-.1-.7-.2-1.1-.3-.2-1.2-.2-1.2.1-1.7.2 0 .5.1.7.1.1 0 .3-.2.3-.3 0-.1 0-.2-.1-.3-.2-.3-.5-.5-.9-.5-.2-.4-.2-.8.1-1.1.2-.1.4 0 .6.1.2.1.5.1.7 0 .2-.1.4.1.5.2.3.7-.1 1.6.4 2.3.5.3 1.1.4 1.6.5.6.1 1.3.1 1.9.4.1.1.4-.1.5-.3 0-.2.1-.3.1-.5 0-.3 0-.6.1-.9.1-.4.2-.7.1-1.1 0-.6-.1-1.1-.3-1.7-.1-.3-.3-.5-.5-.8-.2 0-.4-.1-.6-.1-.2 0-.5 0-.7-.2-1-.6-1.9-.5-2.8.2-.1.1-.2.1-.3.2-.1.2-.2.4-.3.7-.4 0-.4 0-.9-.4 0-.1-.1-.2-.1-.3 0-.7-.1-1.5.1-2.2V19c-.1-.4-.1-.8-.1-1.2.1-1.8.1-3.6.1-5.3V12c-.2-.7-.1-1.4 0-2v-.6c-.1-1 .1-2.1.1-3.1 0-.1.1-.2.1-.3.4.1.9.1 1.3.2.2.1.4.3.5.5.3.3.7.5 1.2.6.3 0 .6 0 .9.1.3.1.7.2.9.7V9c0 .3-.1.5 0 .8.2.6 0 1.2-.1 1.9v.8c.1.7 0 1.4-.3 2-.3.3-.6.3-1 .3-.2 0-.5-.1-.7-.1-.3 0-.6.1-.8.3-.2.2-.4.5-.5.8 0 .2-.1.4-.1.6-.2 0-.4 0-.6.1-.2 0-.2.2-.2.4s.1.3.2.4c.3.2.6.1.9.2.1.7-.3 1.5.1 2.3.2.1.3.2.5.2 1.1 0 2.1.4 3.2.6.3.2.5.7 1 .5l.2-.2c.1-.2.2-.5.3-.7l.3-2.1c0-.1.1-.2.2-.3.3 0 .6 0 .8-.1.2 0 .3-.3.2-.5-.1-.1-.1-.2-.2-.2-.4-.3-.7-.6-1-.9-.3-.3-.8-.5-1.2-.7l-.1-.1c-.2-.2-.2-.5-.2-.7 0-1.2.1-2.3.1-3.5 0-.3.1-.5 0-.8-.2-.8-.1-1.6.1-2.3v-.1c0-.6-.3-.9-.6-1.2.1-.1.2-.3.2-.4 0-1.1.1-2.3.1-3.4 0-.2 0-.4.3-.5 1 .3 2 1.3 2.9 2.6 0 .8 0 1.6-.1 2.3 0 .6-.1 1.3.1 1.9.1.3 0 .6.1.9 0 .8-.1 1.7.2 2.5v.3c-.1 2.3.2 4.5.1 6.8 0 .6-.1 1.1 0 1.7.1.4 0 .7 0 1.1 0 1.8-.1 3.7-.2 5.5-.1 1.7-.2 3.5-.3 5.2-.1.5-.1 1-.1 1.6v3.6c0 .6-.1 1.2.1 1.7v.2c0 1.4-.1 2.8-.1 4.2l-.3.3zM33 23.6c-.3-.3-.5-.6-.9-1-.4 0-.7-.1-1 0-.3 0-.6.1-.9.2-.1-.1-.3-.1-.4-.2-.2-.2-.2-.5 0-.6.2-.1.3-.2.5-.3.3-.1.7-.1 1 .1.2.1.4.3.7.5h.9c.3.2.4.4.4.7.1.3 0 .5-.3.6zm.3 1.1c.1.3.1.6 0 .8-.1.1-.2.1-.3.1-.4 0-1.8-.3-2.1-.5-.1 0-.2-.1-.4-.2-.1-.5-.4-.9 0-1.4.1 0 .3-.1.4-.1h.7c.1.1.2.1.3.2.2.2.4.5.6.6.3.3.6.4.8.5z"/>
</svg>
