<svg xmlns="http://www.w3.org/2000/svg" width="89.6" height="142.8" style="overflow:visible;enable-background:new 0 0 89.6 142.8" xml:space="preserve">
    <style>
        .st0{fill:#7a6a56}.st1{fill:#fff}.st3{fill:#eacac6}.st4{fill:#f2edda}
    </style>
    <path class="st0" d="M76.8 72.1c.8-.1 1.5-.2 2.2-.3 1-.2 2.1-.1 3.1.1.7.2 1.3.3 2 .5.8.3 1.4.8 1.7 1.5.4.7.6 1.4.7 2.2.1.8.1 1.6.2 2.3-.2 1.1-.4 2.1-.6 3.1-1.4 2.3-1.4 2.3-4.3 4.9-.3 1.3-.3 2.7-.2 4.1.2 2.6-.1 5-.9 7.4-.1.4-.3.8-.3 1.2 0 1.2-.7 2.1-.9 3.2-.4.6-.5 1.3-.5 2 0 .8-.3 1.5-.6 2.2-.4.9-.6 1.8-.8 2.7-.2.7-.3 1.3-.5 2-.7 2.1-.7 2.1-2 4.5-.4.7-.7 1.4-.9 2.1.1.1.1.3.3.4.4.3.9.6 1.3.9 2.3 1.5 2.7 1.9 4.1 4.2.2.4.5.7.6 1.1.3 1.1 1 2 1.9 2.8.6.2 1.2.4 1.9.6 1.4.4 2.7 1.2 4 1.8.6.3.9.8 1.2 1.3.2.5.3 1-.1 1.5s-.8.9-1.1 1.3c.1.9.6 1.7.5 2.5-.9 1.1-1 1.2-2.3 1.6-.4.1-.8.4-1.1.6-1.9 1.3-3.8.8-5-.4-.5-.5-.9-1-1.3-1.5-.3 0-.4-.1-.6-.1-.9.1-1.7.3-2.5.4-.6.1-1.2.3-1.8.4-1.4.3-2.6.9-4 1.1-1.3.2-2.5.6-3.8 1-.8.2-1.5.4-2.3.5-1.3 0-2.6.4-3.8.5-1.2.1-2.4.5-3.6.7-.9.2-1.9.3-2.8.4l-1.5.3c-1.3.3-2.5.5-3.8.4h-.8c-2.2.3-4.3.1-6.5.1-1.2 0-2.4-.1-3.6.1-.4.1-.9 0-1.3 0-1.7-.1-3.5-.1-5.2-.2-.6 0-1.2 0-1.8.2-.3.1-.7.1-1 .1-2.1-.1-4.1-.3-6.2-.5-.9-.1-1.7-.1-2.6-.4-.2-.1-.3-.1-.5-.1-2.6 0-4.9-.9-7.3-1.6-.8-.2-1.4-.6-2.2-.8-.6.2-1.2.4-1.7.7-1.2.6-2.4.9-3.9.9-.4-.2-.9-.4-1.5-.6-.6-.3-.8-1-.5-1.6.3-.7.7-1.4 1.1-2.1-.5-.3-1.1-.6-1.5-1-.5-.3-.9-.8-1.2-1.4-.2-.3-.2-.7 0-1 .9-1.3 2.1-2.3 3.7-2.7 1.1-.3 2.2-.6 3.3-.8.6-.1 1.2-.3 1.6-.5 1.2-1.2 2.2-2.4 3.3-3.5.6-.5 1.2-.9 1.9-1.4.2-.1.2-.5.1-.7 0-.1-.1-.2-.1-.2-.3-.4-.6-.8-.9-1.3-1-1.5-1-1.5-2.7-2.7-.4-.2-.7-.5-1-.7-1-1.3-2.1-2.6-2.8-4.3-.2-1.7-.5-3.6-.6-5.5-.1-1 .1-2.1.2-3.1 0-.3.2-.7.2-1 .3-1.5.7-3 1.2-4.5.3-.8.9-1.4 1.6-2.1-.2-.2-.3-.5-.5-.6-.5-.2-.9-.5-1.3-.8-.1-.1-.1-.2-.1-.3v-2.5c0-.8.3-1.5.7-2.2l1.5-2.1-.3-1.5c-.1-.4-.2-.8-.3-1.3.1-1.1.2-2.2.2-3.3 0-1 .1-2.1.1-3.1 0-.4-.1-.9-.2-1.3-.1-.7-.3-1.3-.5-1.9.1-1.1 1-1.3 1.2-1.7.4-.9.3-1.6.3-2.3 0-1-.1-1.9.2-2.8.2-3 1.3-5.7 2.7-8.3.2-.5.4-.9.7-1.4.3-.6.6-1.2 1-1.8.8-1.3 1.7-2.6 2.6-3.9.5-.7 1.1-1.3 1.7-2 .5-.6 1.1-1.1 1.6-1.7.7-.9 1.5-1.6 2.6-2.2.1 0 .2-.1.2-.1 1.5-1.3 3.3-2.2 5.1-3.1.1 0 .1-.1.2-.2.2-.5.1-1 .2-1.5.1-.6.2-1.2.4-1.8.1-.3.3-.7.3-1-.1-1.3.5-2.3.9-3.5.3-.7.7-1.4 1-2.1.1-.3.2-.7.1-1.2-.2-.3-.6-.7-.9-1.1-.3-.4-.6-.8-.9-1.3-.3-.4-.5-.9-.8-1.3-.6-.8-.9-1.7-1-2.7-.1-1.2-.4-2.4-.3-3.6.1-1.6.1-3.3.1-4.8.5-1.5 1-2.7 1.4-4.1.2-.8.6-1.4 1.1-2 .7-.8 1.4-1.6 2-2.3.9-.4 1.7-.8 2.6-1.3.2-.4 0-.7-.3-.9-.2-.3-.4-.5-.7-.8.1-.3.1-.6.2-.8.2-.6.3-1.2.2-1.8-.6-.4-.4-1.6-.1-2.7.1-.3.1-.7.2-1 .4-.6.7-1.3 1.4-1.7.8-.3 1.7-.2 2.5-.1 1.1.2 1.9.8 2.4 1.8.5 1.1.7 2.3.6 3.5v2.3c0 .3.1.5.2.7.1.3.4.6.8.6.7.1 1.4 0 2-.6.3-.8.1-1.7.3-2.5.2-.8.5-1.7.8-2.5.4-.4.9-.7 1.3-1 1.1-.3 2-.1 3-.1.6.4 1.3.9 1.9 1.3.3.6.5 1.1.7 1.6 0 .3.1.4.1.6-.1 1.6-.1 3.1-.3 4.7-.1 1.3.2 2.4 1 3.4l1.5 2.1c.3.4.5.9.7 1.4 1.2 2.3 1.1 4.8 1 7.4 0 .3-.2.7-.3 1-.1.5-.3 1-.4 1.5-.2.5-.5.9-.5 1.5.1.2.2.5.3.7.4.7.9 1.3 1.3 1.9.7 1 1 2.2 1 3.4 0 1.9-.2 3.8-.4 5.7-.5 1.1-1 2.2-1.1 3.5 0 .4-.3.8-.5 1.2-.2.5-.5.9-.7 1.4-.1.3.1.8.3.9 1.4.4 2.7 1.2 3.9 2 .4.3.9.5 1.3.9 1.5 1.5 3.1 3 4.5 4.6.7.8 1.3 1.8 1.9 2.8.4.6.8 1.3 1.2 2 .8 1.4 1.5 2.7 1.9 4.3l1.2 4.2c.2.7.2 1.4.3 2 .2 1.5.3 3.1.5 4.6 0 .1.1.1.2.2h.2c.2-.2.4-.3.6-.5 1-1.1 2.2-2 3.7-2.5zM45.9 26.8c1-.5 1.7-1.4 2.3-2.4.3-.6.6-1.2.9-1.9-.1-.9-.3-1.7-.4-2.3-.8-1.6-1.9-2.4-3.3-3-2-.9-4-.8-6 .1l-1.2.6c-1.3.8-2.5 1.8-3.6 3-.3.3-.5.7-.5 1.2-.2 1.5.2 2.9 1.2 4.1 1.6 1.8 3.6 2.3 5.8 2.2.8 0 1.5-.2 2.3-.3.6-.1 1.2-.3 1.7-.5.1-.1.2-.2.3-.4.4-.1.5-.2.5-.4zM28.6 89.1c1.6-.4 1.6-.4 3-.3 1.5.1 3.1.2 4.7.3.4 0 .9 0 1.3-.1 1.5-.3 2.9-.2 4.4-.2.9 0 1.7 0 2.6-.1 1.1-.1 2.2-.3 3.3-.5.5-.1 1-.1 1.6-.1 2.5.1 5-.1 7.5-.5 1.6-.3 3.2-.6 4.9-.8 1.4-.2 2.7-.5 4.1-.7.6-.1 1.1-.4 1.7-.7.6-.6.9-1.3 1-2.1.1-.9.6-1.7.3-2.5.3-.8.3-1.7.5-2.5.2-1 .3-2.1.1-3.1-.2-1.3-.2-2.6-.2-3.7-.7-1.5-1.1-3-1.4-4.5-.8-3.4-2.3-6.5-4.7-9.1-.3-.3-.6-.7-.8-1-1-1.6-2.5-2.8-4-4-1.1-.9-2.3-1.6-3.6-2-1.6-.5-3.3-1.1-5-1.5-1.2-.3-2.4-.5-3.5-.7-1.3-.3-2.6-.2-3.8-.6h-.5c-.3.1-.7.1-1 0-4.2-.8-3.9-.5-7.7 0-.7.1-1.4.2-2 .4-2.2.7-4.1 1.8-6 2.9-.6.3-1.2.8-1.6 1.3-1.3 1.3-2.6 2.5-3.7 4-1.8 2.5-3.5 4.9-4.7 7.8l-1.5 3.6c-.8 1.8-1.1 3.6-1 5.5 0 .5.1 1 .1 1.5v1.3c0 .3-.1.5-.2.9-.3.2-.8.5-1.1.8-.1.3-.2.5-.2.7.3 1.4.2 2.8.4 4.1.1.4 0 .9-.1 1.3-.1 1.1 0 2.2.2 3.3.1.3.3.6.7.7h.2c.4-.1.8-.3 1.2-.5 3.1-1.2 4.3-1.3 7.6-1h.3c.6.1 1.2.2 1.7.4 1.7.5 3.2 1.5 4.9 2zm13.2 40c-1.2.4-2.1 1.2-2.8 2.2-.2.4-.6.7-.8 1-.5.7-1.2 1.2-2.1 1.5-.8.1-1.5.1-2.3-.1-.6-.2-1.1-.4-1.4-1.2 0-.7.1-1.5.3-2.2 0-.1-.1-.3-.1-.6-.5-.5-1.1-1-1.9-1.4-.9.5-1.9.5-3 .3-.8-.1-1.5-.2-2.3-.3l-1.5-.3c-.5-.1-1.1 0-1.5-.2-.9-.3-1.8-.5-2.7-.8-.9-.2-1.8-.5-2.7-1-.7.3-1.3.5-1.9.9-1.2.7-2.2 1.7-3.2 2.6-.5.5-.9 1-1.3 1.6-.6.8-1.3 1.4-2.4 1.5-.8-.2-1.6-.5-2.5-.3-.8.3-1.6.6-2.2 1.2-.1.1-.1.3-.1.4 0 .1.1.1.2.1.3 0 .7 0 1-.1.9-.2 1.7-.2 2.6-.1.3 0 .6.4.6.7 0 .5-.2 1-.6 1.4-.3.3-.7.6-1 .8-.4.2-.7.5-1 .8 0 .1-.1.2-.1.2 0 .2.1.3.3.3.4-.1.8-.2 1.3-.3.6-.4 1.2-.9 1.9-1.3.4-.2.7-.4 1.4-.4.3.1.8.4 1.3.5 1.7.6 3.4 1.2 5.2 1.5 1.5.7 3.2.7 4.8.9.6.1 1.2.1 1.8.1 2.8.1 5.7.4 8.6.1.7-.1 1.4-.1 2.1.1 1.3.3 2.6.2 3.9.2 2.8 0 5.5-.1 8.3 0 .8 0 1.6.1 2.3-.1 2.5-.4 5-.5 7.4-1.1 1.6-.4 3.2-.5 4.8-1 .8-.2 1.7-.3 2.6-.3 1 0 1.9-.2 2.8-.4.8-.2 1.7-.3 2.5-.5 3.2-.7 6.4-1.6 9.5-2.6h.5c.4.2.7.5.6 1 0 .2.2.4.3.6 1-.2 1-.2 2.5.3.1 0 .3-.1.4-.2.1-.1.2-.3.3-.5-.2-.6-1-1-1-1.7.3-.9 1.1-1.3 2-1.4.5-.1 1 0 1.5-.1.1 0 .2-.1.2-.2-.1-.1-.1-.3-.2-.3-.8-.1-1.5-.2-2.3-.4-1.2-.2-2.1-.7-2.6-1.8-.8-1.6-1.7-3.2-2.6-4.9l-1.8-1.8c-.8-.9-1.7-1.4-2.8-1.8-.3-.1-.7-.2-1.3.1l-2.2 2.2c-.4.2-1 .7-1.7 1-.8.4-1.5.8-2.3 1.2-1.1 2.8-1.1 2.8-2.6 4.2-.2.7-.5 1.4-.7 2.1-.3.7-.5 1.5-.9 2.2-.3.7-1 .9-1.6 1l-1.5-.6c-.4.1-.7.3-1 .4-.6.3-1.2.2-1.8 0-.8-.7-1.4-1.5-1.8-2.5-.3-.6-.7-1.2-1-1.8-1.7-1-2.6-2.5-3.2-4.2-.4-1.1-.7-2.1-1-3.2-.2-.7.1-1.2.6-1.6.9-.7 2.1-.3 2.3.7.2 1.1.6 2.1 1 3.2.1.2.2.5.3.8.4.4.8.8 1.3 1.2.1.1.4 0 .5-.1.5-.6.5-1.3.7-1.9.1-.2.2-.4.4-.7.5 0 1.1 0 1.6.1 1.5.2 2.9-.1 4.3-.5.4-.1.8-.3 1-.7-.1-.9 0-1.7.6-2.5.5-.3 1.1-.7 1.9-.2l.9 1.2c.7 0 1.2-.3 1.9-.6 1.3-1.3 2.5-2.7 3.7-4.2.8-1 1.5-2.1 2-3.3.2-.5.4-1 .7-1.4.2-.3.4-.6.5-.9.4-1.2.9-2.4.9-3.8 0-.8.1-1.6.2-2.4.3-.6.6-1.3 1-2 .2-.9.3-1.8.6-2.6l1.2-4.2c.3-.9.5-1.8.5-2.8.2-2.2.3-4.3.3-6.5-.1-.1-.2-.3-.4-.4-.4-.1-.8-.1-1.3-.2-.7-.1-1.1-.4-1.4-1.1-.1-.2-.2-.5-.3-.7.1-.6.5-.9 1-1 .7-.1 1.4-.1 2.1-.1.8 0 1.6.1 2.3.1.4 0 .7-.2.9-.4.3-.4.6-.9.9-1.3.7-.8 1-1.8 1.2-2.8.1-.7.1-1.4.2-2-.1-.3-.2-.6-.3-.8-.1-.2-.2-.5-.3-.6-.6-.5-1.2-.8-1.9-.9-.6-.1-1.2-.1-1.8-.2-1.1-.2-2 .1-3 .6-.9.4-1.6 1-2.1 1.9-.3.4-.4.9-1 1.3-.5 0-1.1.1-1.6.2-.4.7-.4.7-.9 5.1-.2 1.8-.7 3.6-.7 5.4-.1 1.7-.3 3.4-.6 5.1-.3.7-.6 1.3-.9 1.9.1 1.6-.4 3.1 0 4.7.1.3 0 .7-.1 1-.2.8-.5 1.5-.5 2.3 0 .9-.5 1.6-.7 2.5-.5 1.9-1.3 3.8-3 5-.2.1-.4.4-.5.6-.8 1-1.8 1.8-2.8 2.6-1.9.7-3.7 1.2-5.6 1.3-1.2.1-2.4.2-3.5.8h-4c-1.3 0-2.6-.2-3.9.1-.3.1-.7 0-1 0-1-.1-2.1-.1-3.1-.2-.4 0-.9 0-1.3-.2-1-.4-2-.4-3.1-.4h-1c-1.4-.2-2.7-.3-4.1-.6-1.4-.2-2.6-.8-3.6-1.9-.2-.3-.4-.5-.6-.8-.2.1-.4.2-.4.3-.2.7-.4 1.3-.6 2-.6 2.1-1.6 4-3.1 5.6-.6.6-1.2 1-2.1.9-1-.1-2 .3-3.1.1-.3-.1-.7.1-.8.6.2.2.3.4.5.6 1.9 1.5 4 2.3 6.4 2.6 1.4.2 2.7.4 4.1.7.2.1.5 0 .8.1.3 0 .7-.3.8-.6.1-.4.1-.9-.2-1.2-.2-.3-.4-.5-.6-.8.1-.9.4-1.6 1-2.1.6-.2 1.3-.7 2 .1.2.7.3 1.4.5 2.2.3 1.2.9 2.2 1.8 3.1.4.4.8.6 1.5.6.5-.3 1.1-.6 1.7-.9.4 0 .9.1 1.1.1.7.2.9.8 1.4.8.6-.1 1.1-.4 1.5-.9.5-.7 1-1.4 1.6-2.1.2-.3.4-.5.7-.8.3-.3.8-.4 1.2-.3.4.1.6.3.7.7l-.3 1.8c0 .1.2.3.3.5l2.4-.6c.5.2.7.5.9.9-.1.6-.4 1.1-.8 1.7-.8.5-1.7.8-2.6.9-1.3-.2-2.4-.1-3.4 0zm24.7-32.8c-.3-.6-.8-.6-1.2-.6-.9.1-1.9.4-2.8.5-1.7.3-3.4.6-5.1.5-.9-.1-1.9 0-2.8.2-1.2.3-2.4.4-3.6.4-.3 0-.5.1-.8.1-.1 0-.1.1-.1.1 0 .1 0 .2.1.2.3.2.5.5.8.6.9.5 1.6 1.3 2.1 2.2.2.3.3.6.4.8.1.7.2 1.3.3 1.9.2.9.2 1.9 0 2.8-.2 1.2-.7 2.1-1.6 2.9-.9.8-1.9 1.5-2.8 2.3-.1.1-.3.2-.5.3-.5.1-1 .2-1.3.2-1.2-.2-2.2-.4-3.1-.6-3-1.6-3.8-1.7-6.1-5.1-.2-.8-.4-1.7-.7-2.6.2-.9.1-2 .4-2.9l1.5-2.1c0-.3-.1-.6-.3-.7-.5-.2-1-.3-1.5-.2-.7.1-1.4.1-2.1.1-.8-.1-1.5 0-2.3 0-.9 0-1.7-.3-2-1.3 0 0-.1-.1-.2-.1-.2.2-.4.3-.6.5-.8 1.1-1.3 2.4-2.2 3.5-.1.1-.1.1-.1.2-.4 1.1-1.1 1.9-1.7 3 0 .6-.1 1.3-.1 2 .1.8.4 1.6.8 2.4.3.7.7 1.4 1.1 2 .3.5.9.8 1.2 1.3.4.5.9.8 1.6.8 1.7.1 3.4.9 5.1.6.2 0 .3.1.5.1 3.1.6 6.2.7 9.3.9.4 0 .9.1 1.3 0 1.3-.2 2.6-.2 3.9-.2.8 0 1.5-.1 2.3-.3.6-.2 1.2-.4 1.7-.5 1.1 0 2.2-.3 3.1-.4 1-.4 1.7-.8 2.4-1.1 1.4-1.2 2.7-2.4 3.6-3.8.7-2.2 1.6-4.2 2.1-6.2 0-1-.1-1.8-.1-2.5 0-.6 0-1.5.1-2.2zM51.8 20.4c.3 1.8-.5 2.9-.6 4.2-.5.8-.9 1.7-1.4 2.5-.3.4-.6.8-1 1.2-.6.7-1.3 1.3-2.3 1.7-.6.2-1.1.5-1.5.8-.3 0-.5.1-.7.1-1.1.1-2.3-.2-3.3.2-1.1 0-2.2.2-3.3-.2-.6-.3-1.2-.8-1.9-1-1.3-.3-2.1-1.3-2.9-2.1-.5-.5-.8-1.1-1-1.8-.2-.8-.4-1.5-.6-2.3-.1-.5-.2-1-.2-1.5-.1-1.1 0-2.1 1.2-2.6.1 0 .2-.1.2-.2.6-1.1 1.7-1.7 2.5-2.6.6-.7 1.3-1.1 2.1-1.5 1-.5 2.1-.9 3.1-1.3.9-.1 1.7-.2 2.6-.3 1.5-.1 2.9.2 4.1 1.1.6.5 1.3.8 2.1.9.3-.6.2-1.1-.2-1.4-.7-.5-1.4-1-2.2-1.4-.2-.1-.5-.2-.7-.2-1.4-.3-2.7-.3-4.1-.2-.8.4-1.7.2-2.5 0-.6.2-1.2.3-1.8.4-1.7.2-3.1 1.1-4.3 2.2-.5.5-.9 1-1.2 1.6-.5 1.2-1.1 2.4-1.5 3.3-.4 1.9-.3 3.5-.4 5.2 0 1.2.2 2.4.3 3.5 1.5 3.2 1.7 3.5 4 5.4.6 1.4.6 1.4.3 2.8-1.5 1-2.2 2.7-3.1 4.1 0 .8-.1 1.4-.1 2 .4.6.6 1.3 1.3 1.7.9.1 1.7.1 2.6-.1.9-.2 1.9-.2 2.8-.1 2.3.2 4.7.4 7 .6.3 0 .5.1.8.1l4.8 1.2c.3.1.7.1 1.1-.1.5-.5 1-1.1 1.4-1.6.1-.8.2-1.6.7-2.3.7-.9.7-1.9 1-2.9.3-1 .3-2.1.1-3.1 0-.3-.1-.5-.1-.8 0-1-.4-1.9-.9-2.7-.5-.8-1-1.6-1.7-2.3-.4-.4-.9-.8-1-1.5.2-.4.6-.7.7-1 .2-.8.7-1.1 1.2-1.6.2-.7.4-1.3.6-1.8-.1-1-.2-1.9-.2-2.7 0-.6-.1-1.2-.4-1.8l-1.5-2.7c-.2-.4-.6-.6-1.1-.6l-.4.4c.3.6.7 1.2.9 1.8.3.4.5 1 .6 1.3zm-30.4 89.8c-1.7-.5-3.2-.4-4.6.4-.1.1-.3.1-.6.2-.3 0-.6-.1-1.1-.1-.1-.1-.2-.4-.4-.6-.4-.7-.2-1.4.4-1.8.4-.3.9-.6 1.4-.7.2 0 .4-.1.7-.2-.2-.3-.4-.5-.6-.6-.5-.4-1-.7-1.4-1.1-1.1-1.4-2.7-2.4-3.9-3.8-.1-.2-.4-.2-.7-.4-1.2 1.3-1.5 2.9-2 4.5.2 2.8.1 5.7.5 8.4.6.8 1.1 1.5 1.6 2.2.4.3.8.6 1.2 1 .6.4 1.2.8 1.9.9 1.8.3 3.6.5 5.4.4.7 0 1.3-.3 2-.7 1.1-1.2 1.6-2.7 2-4.3.2-1.1 0-2.1-.9-2.8-.3-.5-.6-.7-.9-.9zm46.4-21.3c-.2 0-.3-.1-.5 0-1.1.3-2.2.5-3.3.7-.8.1-1.5.2-2.3.4-1.7.5-3.6.5-5.3 1-2.5.1-5 .7-7.5.6-.2 0-.3 0-.5.1-.9.2-1.9.3-2.8.2-1-.1-1.9.3-2.8.3h-.5c-1.3 0-2.6-.1-3.9.2-.4.1-.9.1-1.3 0-1.1 0-2.2-.1-3.4-.2-.7 0-1.4.6-1.4 1.3 0 .4-.1.9 0 1.3 0 .1.2.4.3.3 1-.3 2.1-.2 3.1-.1 1.6 0 3.3 0 4.9.3 2 .3 3.9.3 5.9.1 1.3-.1 2.6-.3 3.9-.4 1.4-.1 2.8-.2 4.1-.5 1.2-.2 2.4-.3 3.6-.2.5 0 1 0 1.5-.1 1.4-.3 2.9-.6 4.3-.7.7-.1 1.4-.2 2-.5.6-.3 1.2-.7 1.8-1 .4-1.8.4-1.8.1-3.1zM46.9 107c-.4.8-1.1 1.1-1.2 1.9.4.1.7.2 1.1.2H48c1.3-.7 2.3-1.7 3-2.9.3-.5.4-1 .4-1.5-.1-2-.7-3.7-2.8-4.5-.7-.3-1.3-.8-1.7-1.5-.1-.2-.3-.4-.5-.5-1.2-.4-2.3 0-3.3.3-.5.7-.9 1.3-1.4 1.9-.6.7-1 1.4-1.3 2.1-.1 1.2.4 2.1.7 3.1.8.6 1.2 1.6 2.3 2h.2c0-.1.1-.1.1-.2.1-.8.2-1.5.2-2.3 0-.8-.2-1.5-.4-2.3.3-.9 1-1.1 1.9-1.1.3.3.7.7 1 1.1.1 1 .3 2 .4 3.1.2.4.1.7.1 1.1zM22.5 91.9c0 .4 0 .8-.1 1.2-.1.4-.1.9 0 1.3.3.8.2 1.7.2 2.6 0 .7-.1 1.4-.2 2.1 0 1.1.3 2 1 2.9l.2.2c.2.2.6.2.7-.1 1.6-2.6 3.1-5.1 4.7-7.7.1-.1.1-.3.1-.5-.6-1.1-1.1-1.7-2-2.3-1.4-.9-3-1.3-4.6-1.8-.2-.1-.5.1-.8.1.1.4.3.7.4 1 .1.3.2.6.4 1zm-9.7-.5c-.4.1-.8.3-1.1.7-.4.4-.7.8-1.1 1.1-1.2 1.4-1 1.5.2 2.5.2.5.3 1.2.7 1.6 1.1 1.4 1.9 2.9 3.3 4 .1 0 .2.1.3.1.6 0 .7-.1.8-.4.2-1.2.2-2.4-.3-3.5-.1-.3-.2-.6-.3-1-.2-.6-.3-1.2-.5-1.7-.2-.7-.4-1.4-.9-1.8-.6-.5-.6-1.2-1.1-1.6zm7.6-2.1c-.7-.1-1.3.2-1.9.2-1-.1-1.9.3-2.8.6-.2.1-.3.3-.5.6.6.5.9 1.1 1.1 1.7.2.7.6 1.4.8 2.2.3.8.6 1.6.6 2.5.1 1 .4 1.8.7 2.8.3.2.7.4 1 .6.2.1.6-.2.6-.4 0-.5-.1-1-.1-1.5 0-1.6 0-3.3.1-4.8-.2-.8-.5-1.4-.7-2.1-.1-.3-.1-.7-.1-1 .5-.5.8-.9 1.2-1.4zM38.6 9.1c.6-1.9.3-3.7.3-5.5 0-.4-.3-.6-.5-.9-.2-.2-.7-.3-.9-.1-.5.3-.8.7-1 1.2-.1.2-.1.5-.1.8 0 .6 0 1.2-.1 1.8-.1 1 .5 2 .3 3.1 0 .1.1.1.1.2s.1.1.2.2c.6 0 1.1-.4 1.7-.8zM49.8 11c.1-.1.2-.3.2-.4l.3-3.6c0-.8-.6-1.7-1.4-2-.3-.1-.7-.1-1 .1-.3.2-.5.4-.8.9-.1.7-.1 1.5-.2 2.4 0 .3 0 .7.2 1 .1.1.2.2.4.3.6.4 1.3.8 1.9 1.3h.4zM20 105.6c.3 0 .3-.1 0-.2h-.2l.2.2z"/>
    <path class="st1" d="M28.6 89.1c-1.6-.5-3.1-1.5-4.7-2-.6-.2-1.1-.4-1.7-.4h-.3c-3.3-.3-4.5-.2-7.6 1-.4.2-.8.3-1.2.5h-.2c-.4-.1-.6-.4-.7-.7-.2-1.1-.4-2.2-.2-3.3 0-.4.1-.8.1-1.3-.2-1.4-.1-2.8-.4-4.1 0-.1.1-.3.2-.7.3-.2.7-.5 1.1-.8.1-.4.2-.6.2-.9v-1.3c0-.5-.1-1-.1-1.5-.2-1.9.1-3.8 1-5.5l1.5-3.6c1.2-2.8 2.9-5.3 4.7-7.8 1.1-1.5 2.4-2.7 3.7-4 .5-.5 1-.9 1.6-1.3 1.9-1.1 3.9-2.3 6-2.9.7-.2 1.3-.3 2-.4 3.8-.5 3.5-.8 7.7 0 .4.1.7 0 1 0 .2 0 .4-.1.5 0 1.3.4 2.6.3 3.8.6 1.2.3 2.4.4 3.5.7 1.7.4 3.3.9 5 1.5 1.3.4 2.5 1.2 3.6 2 1.5 1.2 3 2.4 4 4 .2.4.5.7.8 1 2.4 2.6 3.9 5.7 4.7 9.1.3 1.5.7 3 1.1 4.7-.1 1.1-.1 2.4.2 3.7.2 1 .2 2-.1 3.1-.4.8-.4 1.7-.7 2.5.3.9-.2 1.7-.3 2.5-.1.8-.4 1.5-1 2.1-.5.3-1 .6-1.7.7-1.4.2-2.7.5-4.1.7-1.6.3-3.2.5-4.9.8-2.5.4-5 .6-7.5.5-.5 0-1 0-1.6.1-1.1.1-2.2.4-3.3.5-.6.1-1.5.1-2.4.1-1.5-.1-2.9-.1-4.4.2-.4.1-.9.1-1.3.1-1.6-.1-3.1-.2-4.7-.3-1.3-.3-1.3-.3-2.9.1zm9.9-10.8h.9c.5-.1 1-.3 1.5-.4 2.1-.6 4-3.2 4.1-5.2.1-1.4-.1-2.7-.3-4.2-.2-.4-.5-.9-.8-1.5-.3-.5-.6-1-.9-1.6-.4-.2-.9-.3-1.2-.5-1-.6-2.1-.8-3.2-.6-.3 0-.7.1-.9.1-1.4.7-2.6 1.6-3.4 3v1.8c0 .7-.1 1.4-.1 2.2.1.3.3.7.4 1.1.1.2.1.5.1.8 0 1.2.5 2.2 1.2 3 .6.8 1.4 1.5 2.6 2zM54 71c-.1 1.6-.4 3.1-.2 4.5.8 1 1.9 1.5 2.8 2.4.2.2.4.3.6.5 1 .7 2.2 1.1 3.4.8.2 0 .3-.1.5-.1 1.3-.1 2.3-.7 3.1-1.7 1.6-2 2.9-4.1 2.9-6.8 0-.3 0-.7.1-.9-.4-1.1-.8-2-1.6-2.9-.7-.5-1.5-1-2.3-1.5-.7-.1-1.4-.2-2.1-.2-.4 0-.9 0-1.3.2-2.1.8-4 2-5.1 4.2-.2.5-.5.9-.8 1.5zm-26.7 3.1c-.3-1-.5-1.8-.7-2.5-1.2-1.5-2.7-2-4.4-2.1-1.1-.1-2.2 0-3.3 0-1 .5-2 .9-2.9 1.3-.2.4-.3.8-.5 1.2-.2.4-.6.9-.9 1.4.4.6.3 1.2.3 1.9-.2 2.2 0 2.3 1.1 3.8.1.2.3.4.2.2 1.3 1.2 2.3 2 3.7 2.4.6 0 1.4.1 2.2.1.8-.2 1.6-.5 2.4-.7l.8-.8c1.4-1.3 2-3 2-4.9-.1-.4-.1-.9 0-1.3z"/>
    <path d="M66.5 96.3c0 .7-.1 1.6-.1 2.5 0 .8 0 1.5.1 2.5-.4 2-1.3 4-2.1 6.2-1 1.4-2.2 2.6-3.6 3.8-.7.3-1.4.7-2.4 1.1-.9.1-2 .4-3.1.4-.6 0-1.2.3-1.7.5-.8.2-1.5.3-2.3.3-1.3-.1-2.6-.1-3.9.2-.4.1-.9 0-1.3 0-3.1-.1-6.2-.3-9.3-.9-.2 0-.3-.1-.5-.1-1.8.3-3.4-.5-5.1-.6-.6 0-1.2-.4-1.6-.8-.4-.5-.9-.8-1.2-1.3-.4-.6-.8-1.4-1.1-2-.4-.8-.7-1.6-.8-2.4 0-.7.1-1.4.1-2 .6-1 1.4-1.9 1.7-3 0-.1.1-.2.1-.2 1-1 1.5-2.3 2.2-3.5.1-.2.4-.3.6-.5.1 0 .2.1.2.1.3 1 1 1.3 2 1.3.8 0 1.6-.1 2.3 0 .7.1 1.4 0 2.1-.1.5 0 1 0 1.5.2.3.1.4.3.3.7l-1.5 2.1c-.3 1-.2 2-.4 2.9.2 1 .4 1.8.7 2.6 2.4 3.5 3.2 3.5 6.1 5.1.9.2 1.9.3 3.1.6.4-.1.9-.1 1.3-.2.2-.1.4-.2.5-.3.9-.8 1.9-1.5 2.8-2.3.9-.8 1.4-1.7 1.6-2.9.1-.9.1-1.9 0-2.8-.1-.6-.2-1.2-.3-1.9-.1-.2-.3-.5-.4-.8-.5-1-1.2-1.7-2.1-2.2-.3-.2-.6-.4-.8-.6-.1 0-.1-.2-.1-.2 0-.1.1-.1.1-.1.3 0 .5-.1.8-.1 1.2.1 2.4-.1 3.6-.4.9-.2 1.9-.3 2.8-.2 1.7.2 3.4-.1 5.1-.5.9-.2 1.9-.4 2.8-.5.4-.3.8-.3 1.2.3z" style="fill:#deedd8"/>
    <path class="st3" d="M51.8 20.4c-.1-.2-.3-.9-.6-1.5l-.9-1.8.4-.4c.5 0 .8.3 1.1.6l1.5 2.7c.3.5.3 1.2.4 1.8 0 .9.1 1.7.2 2.7-.2.5-.4 1.1-.6 1.8-.4.5-1 .9-1.2 1.6-.1.4-.5.7-.7 1 .1.6.6 1.1 1 1.5.7.7 1.2 1.5 1.7 2.3.5.8.9 1.7.9 2.7 0 .3.1.5.1.8.2 1 .2 2.1-.1 3.1-.3 1-.4 2-1 2.9-.5.6-.6 1.4-.7 2.3-.5.5-1 1.1-1.4 1.6-.4.2-.7.2-1.1.1L46 45c-.3-.1-.5-.1-.8-.1-2.3-.2-4.7-.4-7-.6-1-.1-1.9-.1-2.8.1-.9.2-1.7.2-2.6.1-.7-.3-.8-1.1-1.3-1.7 0-.6.1-1.2.1-2 .9-1.4 1.6-3.1 3.1-4.1.4-1.4.4-1.4-.3-2.8-2.3-1.9-2.6-2.2-4-5.4-.1-1.1-.4-2.3-.3-3.5.1-1.6-.1-3.3.4-5.2.4-1 1-2.1 1.5-3.3.3-.7.7-1.2 1.2-1.6 1.3-1.1 2.6-2 4.3-2.2.6-.1 1.2-.3 1.8-.4.8.2 1.7.4 2.5 0 1.4-.1 2.8-.1 4.1.2.3.1.5.1.7.2.7.4 1.5.9 2.2 1.4.4.3.5.8.2 1.4-.8-.1-1.5-.4-2.1-.9-1.2-1-2.6-1.3-4.1-1.1-.9.1-1.7.2-2.6.3-1 .4-2.1.9-3.1 1.3-.8.4-1.5.8-2.1 1.5-.8.9-1.9 1.6-2.5 2.6 0 .1-.1.1-.2.2-1.2.5-1.3 1.5-1.2 2.6 0 .5.1 1 .2 1.5.2.8.4 1.5.6 2.3.2.7.5 1.3 1 1.8.9.8 1.7 1.8 2.9 2.1.7.2 1.2.6 1.9 1 1.1.3 2.2.1 3.3.2 1.1-.4 2.2-.2 3.3-.2.2 0 .3 0 .7-.1.4-.2.9-.6 1.5-.8.9-.3 1.6-.9 2.3-1.7.3-.4.7-.8 1-1.2.5-.8 1-1.6 1.4-2.5.1-1.1.9-2.3.6-4zM39 38.3c.3-1 .5-1.7.7-2.5.1-.3-.1-.5-.3-.7-.3-.2-.6-.4-.9-.4-.6.1-1.1.5-1.3 1.1-.1.4-.2.9-.3 1.2-.6 1.3-.6 2.7.1 4 .3.1.7.3 1.1.5.3-.1.6-.1.8-.2.2-.1.3-.1.5-.2.6-.4.8-1.2.5-1.8-.3-.3-.6-.6-.9-1zm3-3.3c.2 1.5 0 3-.1 4.3.3.9 1 1.3 1.8 1.6l.9-.3c.5-1 .5-1 .3-1.7l-.3-.9v-2.2c0-.3-.1-.5-.1-.8-.1-.3-.4-.6-.7-.7-.6 0-1.1.1-1.8.7zm5.2.4c.1.8.2 1.6.2 2.4-.1.3-.1.4-.2.6-.3 1.1.2 1.9 1.3 2 .2 0 .5 0 .8-.1.3-.4.8-.8 1-1.6.3-1.3-.2-2.5-.9-3.7-1.3-.5-1.4-.5-2.2.4z"/>
    <path class="st1" d="M21.4 110.2c.2.2.6.4.9.7.9.8 1.1 1.8.9 2.8-.4 1.6-.9 3.2-2 4.3-.7.5-1.3.7-2 .7-1.8.1-3.6-.1-5.4-.4-.7-.1-1.3-.4-1.9-.9-.4-.3-.8-.7-1.2-1-.5-.7-1-1.4-1.6-2.2-.5-2.7-.3-5.6-.5-8.4.5-1.5.9-3.2 2-4.5.3.1.6.2.7.4 1.1 1.4 2.7 2.4 3.9 3.8.4.5.9.7 1.4 1.1.2.2.3.4.6.6-.3.1-.5.2-.7.2-.5.1-1 .4-1.4.7-.6.4-.7 1.2-.4 1.8.1.2.3.4.4.6.5.1.8.1 1.1.1.2-.1.4-.1.6-.2 1.4-.5 2.9-.7 4.6-.2z"/>
    <path class="st3" d="M67.8 88.9c.4 1.3.4 1.3-.1 3.1-.6.3-1.2.6-1.8 1-.6.3-1.3.5-2 .5-1.5.1-2.9.4-4.3.7-.5.1-1 .1-1.5.1-1.2 0-2.4 0-3.6.2-1.4.2-2.7.4-4.1.5-1.3.1-2.6.2-3.9.4-2 .2-3.9.2-5.9-.1-1.6-.2-3.3-.2-4.9-.3-1 0-2.1-.1-3.1.1-.1 0-.3-.2-.3-.3v-1.3c.1-.7.8-1.3 1.4-1.3 1.1 0 2.2.1 3.4.2.4 0 .9.1 1.3 0 1.3-.3 2.6-.3 3.9-.2h.5c.9 0 1.9-.4 2.8-.3.9.1 1.9.1 2.8-.2.2 0 .3-.1.5-.1 2.5.1 5-.5 7.5-.6 1.8-.4 3.6-.4 5.3-1 .7-.2 1.5-.4 2.3-.4 1.1-.1 2.2-.4 3.3-.7.2-.1.3 0 .5 0z"/>
    <path class="st1" d="M45.6 27.1c-.1.1-.2.3-.3.4-.6.2-1.1.4-1.7.5-.8.1-1.5.3-2.3.3-2.3.1-4.3-.5-5.8-2.2-1-1.2-1.4-2.5-1.2-4.1.1-.4.2-.8.5-1.2 1-1.2 2.2-2.2 3.6-3l1.2-.6c2-1 4-1 6-.1 1.4.6 2.5 1.5 3.3 3 .1.6.2 1.5.4 2.3-.3.6-.6 1.3-.9 1.9-.5 1-1.2 1.9-2.3 2.4.2-1 0-1.8-.6-2.5-.6-.4-1.3-.1-1.7-.7-.2-.6-.5-1.2-.5-1.9.3.1.7.1 1 .2.8.1 1.3-.2 1.7-.8.1-.1.2-.3.3-.5-.3-.1-.3-.5-.4-.8-.2-.4-.5-.7-1-.8-.4 0-.8 0-1.3.1s-.8.6-.8 1.1c0 .6.5 1.1.3 1.7-.7.1-1.4-.1-2.1.5-.3.4-.6 1-.9 1.5-.2.1-.4.2-.5.3-.2.1-.5.1-.7.2-.3.1-.6.4-.8.6-.3.2-.4.8-.2 1.2.3.6.8.9 1.5 1 .5-.2 1.2-.5 1.8-.8.4.1.9 0 1.3.2.9.6 2 .6 3.1.6zM38 19.4c-.2.2-.4.4-.5.7-.2.4-.2.8 0 1.3.1.5.5.9 1 1.1.5.2 1.3-.1 1.5-.6.2-.5.3-1 .2-1.5-.1-.2-.2-.4-.4-.7-.7-.2-1.3-.2-1.8-.3zM46.9 107c0-.3.1-.7.1-1-.1-1-.3-2-.4-3.1-.4-.4-.7-.8-1-1.1-.9 0-1.6.3-1.9 1.1.1.7.3 1.5.4 2.3 0 .8-.1 1.5-.2 2.3 0 .1-.1.1-.1.2h-.2c-1-.4-1.5-1.4-2.3-2-.3-1-.8-2-.7-3.1.3-.7.7-1.4 1.3-2.1.5-.6.9-1.2 1.4-1.9 1-.3 2-.7 3.3-.3l.5.5c.4.7 1 1.2 1.7 1.5 2.1.8 2.7 2.5 2.8 4.5 0 .5-.1 1-.4 1.5-.7 1.2-1.6 2.2-3 2.9H47c-.3 0-.7-.1-1.1-.2-.1-.9.6-1.2 1-2z"/>
    <path class="st4" d="M22.5 91.9c-.1-.4-.2-.7-.4-1-.1-.3-.2-.6-.4-1 .3 0 .6-.2.8-.1 1.6.4 3.1.9 4.6 1.8.8.5 1.4 1.2 2 2.3 0 .2 0 .4-.1.5-1.6 2.6-3.1 5.2-4.7 7.7-.1.2-.5.2-.7.1l-.2-.2c-.7-.8-1-1.8-1-2.9 0-.7.1-1.4.2-2.1 0-.9.1-1.7-.2-2.6-.1-.4-.1-.8 0-1.3 0-.4 0-.8.1-1.2zM12.8 91.4c.5.3.5 1 1 1.5s.7 1.2.9 1.8c.2.6.4 1.2.5 1.7.1.3.2.7.3 1 .5 1.1.5 2.3.3 3.5-.1.4-.2.4-.8.4-.1 0-.2 0-.3-.1-1.3-1.1-2.2-2.6-3.3-4-.4-.5-.5-1.1-.7-1.6-1.2-1-1.5-1.1-.2-2.5.3-.4.7-.8 1.1-1.1.4-.2.8-.5 1.2-.6zM20.4 89.3c-.4.5-.7.9-1.1 1.4 0 .3 0 .7.1 1 .2.7.4 1.3.7 2.1 0 1.5 0 3.1-.1 4.8 0 .5.1 1 .1 1.5 0 .2-.4.5-.6.4-.4-.2-.7-.4-1-.6-.3-1-.7-1.8-.7-2.8-.1-.8-.4-1.7-.6-2.5-.2-.7-.6-1.4-.8-2.2-.2-.7-.5-1.3-1.1-1.7.2-.2.3-.5.5-.6.9-.3 1.8-.6 2.8-.6.6 0 1.1-.3 1.8-.2z"/>
    <path class="st0" d="M45.6 27.1c-1.1 0-2.2-.1-3.2-.6-.4-.2-.8-.1-1.3-.2-.6.3-1.3.5-1.8.8-.7-.1-1.2-.4-1.5-1-.2-.4-.1-.9.2-1.2.3-.2.5-.4.8-.6.2-.1.5-.1.7-.2.2-.1.3-.1.5-.3.3-.5.7-1.1.9-1.5.7-.6 1.4-.4 2.1-.5l-.1-.1c0 .7.3 1.3.5 1.9.4.6 1.1.3 1.7.7.7.7.8 1.5.6 2.5.2.2.1.3-.1.3z"/>
    <path class="st1" d="M38.6 9.1c-.6.4-1.1.8-1.8.7 0-.1-.1-.1-.2-.2 0-.1-.1-.2-.1-.2.2-1-.4-2-.3-3.1.1-.6 0-1.2.1-1.8 0-.3.1-.5.1-.8.2-.5.5-.9 1-1.2.3-.2.7-.1.9.1.4.4.7.7.7 1-.1 1.8.2 3.7-.4 5.5zM49.8 11c-.1 0-.2 0-.2-.1-.6-.4-1.3-.8-1.9-1.3-.1-.1-.2-.2-.4-.3-.3-.3-.3-.6-.3-1 .1-.8.1-1.7.2-2.4.2-.5.5-.7.8-.9.3-.2.7-.2 1-.1.7.3 1.4 1.3 1.4 2l-.3 3.6c-.1.2-.2.4-.3.5zM20 105.6c-.1 0-.1-.1-.2-.1.1 0 .2-.1.2 0 .4.1.3.1 0 .1z"/>
    <path class="st0" d="M38.5 78.3c-1.2-.5-2-1.2-2.8-2.1-.7-.9-1.3-1.8-1.2-3 0-.3 0-.5-.1-.8-.1-.4-.3-.8-.4-1.1.1-.8.1-1.5.1-2.2v-1.8c.8-1.4 1.9-2.3 3.4-3 .2 0 .6 0 .9-.1 1.1-.2 2.2 0 3.2.6.4.2.8.3 1.2.5.3.5.6 1 .9 1.6.3.5.6 1 .8 1.5.2 1.5.4 2.9.3 4.2-.1 2-2 4.7-4.1 5.2-.5.1-1 .3-1.5.4-.1.1-.5.1-.7.1zm-1.4-5.1c.1.9.1.9.8 1.8.4.5.8.9 1.4 1.1.7-.1 1.3-.4 1.8-.9.6-.7 1.2-1.5 1.2-2.5-.4-.4-1-.5-1.5-.3-1.2.3-2.5.5-3.7.8zM39 67c-.3.3-.7.6-1.1.9-.4.5-.5 1.1-.5 1.7.1.5.6 1 1.1.9 1.1-.2 2.1-.6 3.1-1.2.1-.1.2-.3.3-.4-.2-.6-.3-1.2-.8-1.6-.6-.4-1.3-.5-2.1-.3zM54 71c.3-.6.6-1 .8-1.5 1.1-2.2 2.9-3.3 5.1-4.2.4-.2.8-.2 1.3-.2.7 0 1.4.1 2.1.2.8.5 1.6 1 2.3 1.5.7.9 1.2 1.8 1.6 2.9 0 .2-.1.6-.1.9 0 2.7-1.3 4.8-2.9 6.8-.8 1-1.8 1.6-3.1 1.7-.2 0-.3 0-.5.1-1.3.3-2.4-.1-3.4-.8-.2-.1-.4-.3-.6-.5-.8-.9-1.9-1.4-2.8-2.4-.1-1.4.2-2.9.2-4.5zm10.7.1c-.3-1.3-.9-2-1.6-2.7-.5-.4-1-.6-1.7-.6s-1.4.2-1.9.6c-.7.5-1.3 1.1-1.9 1.7-.6.7-1 1.4-1.1 2.3-.1.5-.2 1 0 1.6.5.7 1 1.5 1.8 2.1.4.3.7.4 1.2.5 1.4.2 2.5-.2 3.3-1.4.2-.3.4-.6.5-.9.5-1.1 1-2.2 1.4-3.2zM27.3 74.1c0 .4-.1.9-.1 1.4 0 1.9-.6 3.5-2 4.9l-.8.8c-.8.2-1.6.5-2.4.7-.8-.1-1.6-.1-2.2-.1-1.4-.4-2.5-1.1-3.7-2.4.1.2 0 0-.2-.2-1.1-1.6-1.3-1.7-1.1-3.8.1-.7.1-1.4-.3-1.9.4-.6.7-1 .9-1.4.2-.4.4-.8.5-1.2.9-.4 1.9-.8 2.9-1.3h3.3c1.7.1 3.2.6 4.4 2.1.3.6.5 1.4.8 2.4zm-8.7-1.5c-.5 1.2-.9 2.3-.8 3.4 0 .6.2 1.2.6 1.6 1.1 1.4 2.6 1.5 4.2 1.2.2 0 .3-.1.5-.2l1.2-.9c.2-.7.4-1.4.6-2-.2-.7-.3-1.3-.5-2-.1-.3-.3-.6-.5-.9-.4-.2-.8-.4-1.2-.5-1.2.3-2.6 0-4.1.3zM52 65.4c-.4.5-.8 1-1.1 1.4-.5.4-1 .5-1.6.5-.4 0-.8-.1-1-.5-.4-.5-.7-1.1-.9-1.7-.2-.5-.1-.9.2-1.3.3-.4.7-.8 1.1-1.1.4-.3.8-.4 1.3-.4.2 0 .4 0 .6.1 1.1.6 1.6 1.6 1.4 3zM30.7 61.8c.3.2.5.3.7.4.1.1.2.2.2.3.2.6.3 1.2.1 1.8-.1.2-.2.5-.4.7-.8.7-1.7 1.1-2.8 1.1-.6-.3-1.1-.8-1.6-1.4-.2-.3-.2-.9 0-1.1.5-.6 1.1-1.1 2-1.5.1 0 .4 0 .7-.1.5-.1.7-.1 1.1-.2zM39 38.3c.3.4.5.7.7 1.1.4.7.2 1.4-.5 1.8-.1.1-.3.2-.5.2-.2.1-.5.1-.8.2-.3-.2-.7-.3-1.1-.5-.7-1.4-.8-2.7-.1-4 .2-.4.2-.8.3-1.2.2-.6.7-1 1.3-1.1.4 0 .7.1.9.4.2.2.4.4.3.7 0 .6-.2 1.4-.5 2.4zM42 35c.6-.7 1.2-.8 1.8-.7.4.1.6.3.7.7.1.2.1.5.1.8V38c.1.2.2.6.3.9.2.7.2.7-.3 1.7l-.9.3c-.8-.3-1.5-.6-1.8-1.6.2-1.3.4-2.7.1-4.3zM47.2 35.4c.8-.9.9-.9 2.3-.4.7 1.1 1.2 2.4.9 3.7-.2.8-.7 1.1-1 1.6-.3 0-.6.1-.8.1-1.1-.1-1.6-.8-1.3-2 0-.2.1-.3.2-.6-.1-.7-.2-1.6-.3-2.4zM43.2 21.9c.1-.6-.3-1.1-.3-1.7 0-.5.2-1.1.8-1.1.4-.1.8-.1 1.3-.1s.8.3 1 .8c.1.3.2.7.2.9-.1.2-.2.4-.3.5-.4.6-1 .9-1.7.8-.4-.1-.8-.1-1-.1-.1-.1 0 0 0 0zM38 19.4c.6.1 1.2.1 1.8.2.1.3.3.5.4.7.1.5 0 1-.2 1.5s-.9.9-1.5.6c-.5-.2-.8-.6-1-1.1-.1-.4-.1-.9 0-1.3.1-.1.3-.3.5-.6z"/>
    <path class="st4" d="M37.1 73.2c1.2-.3 2.5-.5 3.8-.8.5-.1 1-.1 1.5.3 0 1-.6 1.8-1.2 2.5-.5.5-1.1.8-1.8.9-.6-.1-1.1-.5-1.4-1.1-.8-.9-.8-.9-.9-1.8zM39 67c.8-.2 1.5-.1 2.1.3.6.4.7 1 .8 1.6-.1.1-.1.3-.3.4-1 .6-2 1-3.1 1.2-.5.1-1-.3-1.1-.9-.1-.6 0-1.2.5-1.7.4-.4.8-.7 1.1-.9z"/>
    <path class="st3" d="M64.7 71.1c-.4 1-.9 2.1-1.4 3.2-.1.3-.3.6-.5.9-.8 1.2-1.9 1.6-3.3 1.4-.4-.1-.8-.2-1.2-.5-.8-.6-1.3-1.4-1.8-2.1-.2-.6-.1-1.1 0-1.6.1-.9.5-1.6 1.1-2.3.6-.6 1.2-1.2 1.9-1.7.6-.4 1.2-.6 1.9-.6.6 0 1.2.1 1.7.6.7.7 1.3 1.4 1.6 2.7zM18.6 72.6c1.5-.3 2.8 0 4.2-.3.4.2.8.4 1.2.5.2.3.4.6.5.9.2.7.3 1.3.5 2-.2.7-.4 1.3-.6 2l-1.2.9c-.1.1-.3.2-.5.2-1.6.2-3.1.1-4.2-1.2-.4-.5-.6-1-.6-1.6-.2-1.2.2-2.2.7-3.4z"/>
    <path class="st1" d="M23.5 125.2c1.4.2 2.7.4 4.1.7.2.1.5 0 .8.1.3 0 .7-.3.8-.6.1-.4.1-.9-.2-1.2-.2-.3-.4-.5-.6-.8.1-.9.4-1.6 1-2.1.6-.2 1.3-.7 2 .1.2.7.3 1.4.5 2.2.3 1.2.9 2.2 1.8 3.1.4.4.8.6 1.5.6.5-.3 1.1-.6 1.7-.9.4 0 .9.1 1.1.1.7.2.9.8 1.4.8.6-.1 1.1-.4 1.5-.9.5-.7 1-1.4 1.6-2.1.2-.3.4-.5.7-.8.3-.3.8-.4 1.2-.3.4.1.6.3.7.7l-.3 1.8c0 .1.2.3.3.5l2.4-.6c.2.1.8 1.3 1 1.4h1.1c-.3-1-1-3-1.3-4-.2-.7.1-1.2.6-1.6.9-.7 2.1-.3 2.3.7.2 1.1.6 2.1 1 3.2.1.2.2.5.3.8.4.4.8.8 1.3 1.2.1.1.4 0 .5-.1.5-.6.5-1.3.7-1.9.1-.2.2-.4.4-.7.5 0 1.1 0 1.6.1 1.5.2 2.9-.1 4.3-.5.4-.1.8-.3 1-.7-.1-.9 0-1.7.6-2.5.5-.3 1.1-.7 1.9-.2l.9 1.2c.7 0 1.2-.3 1.9-.6 1.3-1.3 2.5-2.7 3.7-4.2.8-1 1.5-2.1 2-3.3.2-.5.4-1 .7-1.4.2-.3.4-.6.5-.9.4-1.2.9-2.4.9-3.8 0-.8.1-1.6.2-2.4.3-.6.6-1.3 1-2 .2-.9.3-1.8.6-2.6l1.2-4.2c.3-.9.5-1.8.5-2.8.2-2.2.3-4.3.3-6.5-.1-.1-.2-.3-.4-.4-.4-.1-.8-.1-1.3-.2-.7-.1-1.1-.4-1.4-1.1-.1-.2-.2-.5-.3-.7.1-.6.5-.9 1-1 .7-.1 1.4-.1 2.1-.1.8 0 1.6.1 2.3.1.4 0 .7-.2.9-.4.3-.4.6-.9.9-1.3.7-.8 1-1.8 1.2-2.8.1-.7.1-1.4.2-2-.1-.3-.2-.6-.3-.8-.1-.2-.2-.5-.3-.6-.6-.5-1.2-.8-1.9-.9-.6-.1-1.2-.1-1.8-.2-1.1-.2-2 .1-3 .6-.9.4-1.6 1-2.1 1.9-.3.4-.4.9-1 1.3-.5 0-1.1.1-1.6.2-.4.7-.4.7-.9 5.1-.2 1.8-.7 3.6-.7 5.4-.1 1.7-.3 3.4-.6 5.1-.3.7-.6 1.3-.9 1.9.1 1.6-.4 3.1 0 4.7.1.3 0 .7-.1 1-.2.8-.5 1.5-.5 2.3 0 .9-.5 1.6-.7 2.5-.5 1.9-1.3 3.8-3 5-.2.1-.4.4-.5.6-.8 1-1.8 1.8-2.8 2.6-1.9.7-3.7 1.2-5.6 1.3-1.2.1-2.4.2-3.5.8h-4c-1.3 0-2.6-.2-3.9.1-.3.1-.7 0-1 0-1-.1-2.1-.1-3.1-.2-.4 0-.9 0-1.3-.2-1-.4-2-.4-3.1-.4h-1c-1.4-.2-2.7-.3-4.1-.6-1.4-.2-2.6-.8-3.6-1.9-.2-.3-.4-.5-.6-.8-.2.1-.4.2-.4.3-.2.7-.4 1.3-.6 2-.6 2.1-1.6 4-3.1 5.6-.6.6-1.2 1-2.1.9-1-.1-2 .3-3.1.1-.3-.1-.7.1-.8.6.2.2.3.4.5.6 1.7.8 3.9 1.6 6.2 1.9z"/>
    <path class="st3" d="M85 131.4c-.8-.1-1.5-.2-2.3-.4-1.2-.2-2.1-.7-2.6-1.8-.8-1.6-1.7-3.2-2.6-4.9l-1.8-1.8c-.8-.9-1.7-1.4-2.8-1.8-.3-.1-.7-.2-1.3.1l-2.2 2.2c-.4.2-1 .7-1.7 1-.8.4-1.5.8-2.3 1.2-1.1 2.8-1.1 2.8-2.6 4.2-.2.7-.5 1.4-.7 2.1-.3.7-.5 1.5-.9 2.2-.3.7-1 .9-1.6 1l-1.5-.6c-.4.1-.7.3-1 .4-.6.3-1.2.2-1.8 0-.8-.7-1.4-1.5-1.8-2.5-.3-.6-.7-1.2-1-1.8-1.4-.8-2.3-2.1-2.9-3.5h-1.3c-.1.4-.4.8-.7 1.2-.8.5-1.7.8-2.6.9-1 .1-2.1.2-3.1.3-1.2.4-2.1 1.2-2.8 2.2-.2.4-.6.7-.8 1-.5.7-1.2 1.2-2.1 1.5-.8.1-1.5.1-2.3-.1-.6-.2-1.1-.4-1.4-1.2 0-.7.1-1.5.3-2.2 0-.1-.1-.3-.1-.6-.5-.5-1.1-1-1.9-1.4-.9.5-1.9.5-3 .3-.8-.1-1.5-.2-2.3-.3L24 128c-.5-.1-1.1 0-1.5-.2-.9-.3-1.8-.5-2.7-.8-.9-.2-1.8-.5-2.7-1-.7.3-1.3.5-1.9.9-1.2.7-2.2 1.7-3.2 2.6-.5.5-.9 1-1.3 1.6-.6.8-1.3 1.4-2.4 1.5-.8-.2-1.6-.5-2.5-.3-.8.3-1.6.6-2.2 1.2-.1.1-.1.3-.1.4 0 .1.1.1.2.1.3 0 .7 0 1-.1.9-.2 1.7-.2 2.6-.1.3 0 .6.4.6.7 0 .5-.2 1-.6 1.4-.3.3-.7.6-1 .8-.4.2-.7.5-1 .8 0 .1-.1.2-.1.2 0 .2.1.3.3.3.4-.1.8-.2 1.3-.3.6-.4 1.2-.9 1.9-1.3.4-.2.7-.4 1.4-.4.3.1.8.4 1.3.5 1.7.6 3.4 1.2 5.2 1.5 1.5.7 3.2.7 4.8.9.6.1 1.2.1 1.8.1 2.8.1 5.7.4 8.6.1.7-.1 1.4-.1 2.1.1 1.3.3 2.6.2 3.9.2 2.8 0 5.5-.1 8.3 0 .8 0 1.6.1 2.3-.1 2.5-.4 5-.5 7.4-1.1 1.6-.4 3.2-.5 4.8-1 .8-.2 1.7-.3 2.6-.3 1 0 1.9-.2 2.8-.4.8-.2 1.7-.4 2.5-.5 3.2-.7 6.4-1.6 9.5-2.6h.5c.4.2.7.5.6 1 0 .2.2.4.3.6 1-.2 1-.2 2.5.3.1 0 .3-.1.4-.2.1-.1.2-.3.3-.5-.2-.6-1-1-1-1.7.3-.9 1.1-1.3 2-1.4.5-.1 1 0 1.5-.1.1 0 .2-.1.2-.2-.1.4-.2.2-.3.2z"/>
</svg>
