<svg xmlns="http://www.w3.org/2000/svg" width="91.1" height="133" style="overflow:visible;enable-background:new 0 0 91.1 133" xml:space="preserve">
    <style>
        .st0{fill:#7a6a56}.st2{fill:#adaaa7}.st3{fill:#fff}
    </style>
    <path class="st0" d="M25.7 38.5c.6-1.2 1.1-2.3 1.6-3.6 1.7-1 3.4-2.1 5.2-3.1 1.6-.9 3.3-1.7 4.8-2.5.7-.8.8-1.5.6-2.2-.8-3.5-1.2-7.1-1.5-10.7-.2-2.1-.7-4.1-1-6.1-.2-1.1-.4-2.3-.5-3.5 1.1-1.7 2-3.3 3-4.8C40.5.9 43.3.6 46 .1c3.3-.5 6.5.1 9.8.8 1.2.3 2.3.6 3.5 1 1.3.4 2.1 2 1.8 3.4-.1.5-.2 1.1-.4 1.5-.9 1.6-1.2 3.2-1 5 .4 4.3.6 8.6.4 12.7.4.4.7.6 1 .9 2.9.3 5.8.5 8.9.8.5.3 1 .7 1.7.9 3 1.2 5.3 3.2 7.4 5.6 1.3 1.4 2.3 3 3.9 4.1 1.3 2 2.9 3.9 4 6 2 4 3.2 8.4 3.5 12.9.1 1 0 2.1.2 3.1.4 1.9.4 3.8.3 5.7-.2 4.5-.4 9 .2 13.4.1.7 0 1.4 0 2.1-.3 6.6-.6 13.1-1 19.7-.1 2.6-.5 5.2-.7 7.7-.1 1.6-.7 3-1.4 4.4-.7 1.4-1.4 2.8-2.4 4-2.6 3.2-5.2 6.5-8.5 9.1-.5.1-1 .3-1.5.3-.7 0-1.4 0-2.1-.2-5.1-1.2-9 1.1-12.6 4.4-.6.6-1.2 1.2-1.6 1.7-1.1.4-2 .3-2.8-.1-1.9-1.2-3.9-1.2-6-.4-2.1.7-4.3 1-6.6 1.1-3.3.2-6.5.8-9.8 1.2-1.3-.4-2.6-.9-3.9-1.1-1.4-.2-2.7-.3-4.1-.3-2.1-.1-4.1-.1-6.2-.2h-3.6c-1.9 0-3.3-.8-4.5-2.2-.9-1.1-1.6-2.2-2.3-3.5-1.5-2.8-2.4-5.7-3.5-8.6-.8-2.1-1.3-4.3-2.1-6.4-.5-1.3-1.2-2.5-1.8-3.7-1.7-3.3-2.5-6.7-2.3-10.5l.6-12.9c.1-1.7.3-3.4.8-5.1.4-1.3.6-2.7.7-4.1.7-6.1 2.5-11.7 5.5-17.1 2.7-4.9 5.8-9.4 9.3-13.6 1.1-1.4 2.5-2.4 4.1-3.1 1.7-.7 3.3-1.3 4.8-2zm25.9 4.9c-1.7.6-3.2.3-4.7 0-4.4-.8-8.9-1.1-13.4-1.4-3.5-.2-6.9 0-10.2.8-2.1 1.1-3.7 2.6-5.1 4.4-2.2 2.9-4.2 5.9-6.1 9-1.5 2.3-3.1 4.6-3.9 7.3-1.3 3.9-3 7.7-3.1 12 0 .5-.2 1-.3 1.5-.7 2-.8 4.1-.9 6.1-.3 4.3-.5 8.6-.6 12.9-.3 3.6.7 7.4 2.5 10.8.3.6.7 1.2.9 1.9.9 3.1 2.4 6.1 3.3 9.2.8 3 2.2 5.8 4 8.4.5.7 1 1.4 1.9 1.8.4.1.9.2 1.4.2 2.2.1 4.5.2 6.7.3 5.8.3 5.8.3 10.9 1.5 5.9-1 12.1-1.5 18.2-2.7 1.2-.2 2.4-.2 3.5.4.4.2 1 .2 1.2.3 1.6-.4 1.7-1.9 2.7-3 .5-.2 1.3-.5 2-1 3.4-2.5 5.8-5.8 8.3-9.2.1-.1.2-.3.3-.4.8-1.5 1.7-3 2.3-4.6 1.4-3.7 2.9-7.4 3.2-11.4.3-5.9.7-11.7 1-17.6.1-2.4 0-4.8.2-7.2.2-2.4-.5-4.8-.5-7.2 0-.3-.1-.7-.2-1-1.1-2.9-2.5-5.7-4.2-8.3-.9-1.3-1.8-2.6-2.6-3.9-2.4-3.9-5.7-6.9-9.7-8.6-1.5-.2-2.7-.3-3.9-.5-.6-.1-1.2-.8-1.2-1.5 0-.6.7-1.3 1.3-1.4 2.5-.4 4.9.5 6.9 1.8 3.5 2.2 6.8 4.8 9 8.4.9 1.5 1.8 2.9 2.9 4.3 1.7 2.2 2.9 4.7 3.9 7.2.4.9.7 2 .8 3 .4 3.1.7 6.2.3 9.3-.1 1-.2 2.1-.2 3.1 0 6.9-.6 13.8-1.1 20.7-.2 2.8-.8 5.4-2 8-.1.3-.1.7-.1 1 .3.5.5.9.8 1.4-.1.7-.3 1.3-1 1.6-.6.3-1.2.7-1.8 1-1.2 3.5-4 6-5.7 9.3 1.5.7 3.1.5 4.5.7.7.1 1.4 0 2.1 0 1.3-1.2 2.5-2.4 3.8-3.6 4.1-4 6.6-8.8 6.7-14.6 0-.3 0-.7.1-1l.9-17.1c.2-4.1.5-8.3 0-12.4-.1-1 0-2.1 0-3.1.1-2.2.1-4.5.2-6.7v-3.1l-.6-5.7c-.5-4-1.8-7.7-3.5-11.3-.3-.6-.8-1.1-1.2-1.7-2.2-3.1-5-5.7-7.6-8.4-1.2-1.3-2.7-2.1-4.3-2.7-.8-.3-1.7-.3-2.5.2-2.1 1.2-4.2 2.5-5.9 4.1-1.4 1.3-2.8 2.6-4.2 3.8-1.4.7-2.8 1.4-4.1 2.1-.8.7-1.6 1.7-2.3 2.5zM38.4 9.5c0 .4 0 .9.1 1.4.3 2.2.8 4.4.8 6.6.1 2.8.9 5.4 1.3 8.1.1.9.6 1.6 1.6 2.1 2.5.5 5.3.8 8 .9 1.8 0 3.4-.5 4.9-1.3.9-.5 1.6-1.3 1.7-2.4.2-2.7.2-5.5.4-8.2.1-2.1-.2-4.1-.7-6.1-.3-.2-.5-.4-.8-.5-.3 0-.7 0-1 .1-2.7.8-5.4.6-8.1-.1-2.3-.6-4.7-.8-7.1-.7-.4-.3-.7-.1-1.1.1zm-9 28.3c-.2.7.2 1 .6 1.3.1.1.3.1.5.1 2.7-.1 5.5.8 8.2.3.8-.2 1.7.2 2.5.3 2.1.3 4.1.6 6.2.8 1.1.1 1.9-.2 2.4-1.4.2-.6.9-1.1 1.5-1.3 1.4-.6 2.9-1 4.4-1.5 1.3-1.1 2.6-2.3 3.9-3.4 1.5-1.2 3-2.3 4.5-3.5-.2-.2-.3-.4-.4-.4-1.5-.3-3-.5-4.6-.8-5.1 2.8-4.4 2.8-11.4 3.5-2.7-.4-5.2-1.1-7.7-.8-1.4.7-2.6 1.2-3.9 1.9-.4.2-.4.6-.2.8.1.1.3.3.4.3 3.6 0 7.2.4 10.9-.2 1.5-.3 3.1-.1 4.7-.1.3 0 .6.3.9.5 0 .3.1.7-.1.9-.4.8-1.1 1.4-2 1.5-2.1.1-4.2-.3-6.2.1-2.4.5-4.8.4-7.2.4-2.1 0-4.1-.1-6.1-.1-.6.3-1.3.6-1.8.8zM56.2 4c-1.6-.6-3.5-.8-5.4-.9-1.5-.1-3.1-.1-4.6.1-1.7.2-3.4.4-5 1.3-.3.2-.5.5-.6.8 0 .3.4.7.6.7 1.5.3 3.1.4 4.6.9 2.3.9 4.8.8 7.2.7 1.1 0 2.2-.6 3-1.6.5-.5.8-1.1.2-2z"/>
    <path d="M51.6 43.4c.7-.8 1.5-1.7 2.3-2.7 1.3-.7 2.7-1.4 4.1-2.1 1.4-1.3 2.8-2.5 4.2-3.8 1.8-1.7 3.9-2.9 5.9-4.1.8-.5 1.6-.5 2.5-.2 1.6.7 3.1 1.5 4.3 2.7 2.6 2.7 5.4 5.3 7.6 8.4.4.6.9 1.1 1.2 1.7 1.7 3.6 3 7.3 3.5 11.3l.6 5.7c.1 1 .1 2.1 0 3.1 0 2.2-.1 4.5-.2 6.7 0 1-.2 2.1 0 3.1.5 4.1.2 8.3 0 12.4l-.9 17.1c0 .3-.1.7-.1 1-.1 5.9-2.6 10.6-6.7 14.6-1.2 1.2-2.5 2.4-3.8 3.6-.7 0-1.4.1-2.1 0-1.5-.2-3.1-.1-4.5-.7 1.7-3.3 4.5-5.8 5.7-9.3.6-.4 1.2-.7 1.8-1 .7-.3 1-.9 1-1.6-.3-.4-.5-.9-.8-1.4 0-.3-.1-.7.1-1 1.2-2.5 1.8-5.2 2-8 .5-6.9 1.1-13.8 1.1-20.7 0-1 0-2.1.2-3.1.4-3.1 0-6.2-.3-9.3-.1-1-.4-2-.8-3-1-2.6-2.2-5-3.9-7.2-1.1-1.4-2-2.8-2.9-4.3-2.2-3.6-5.5-6.2-9-8.4-2-1.3-4.3-2.2-6.9-1.8-.6.1-1.3.8-1.3 1.4 0 .6.6 1.4 1.2 1.5 1.2.2 2.4.3 3.9.5 4 1.8 7.3 4.7 9.7 8.6.8 1.3 1.7 2.6 2.6 3.9 1.7 2.6 3.1 5.4 4.2 8.3.1.3.2.7.2 1 0 2.4.7 4.8.5 7.2-.2 2.4-.1 4.8-.2 7.2-.3 5.9-.7 11.7-1 17.6-.2 4-1.8 7.7-3.2 11.4-.6 1.6-1.5 3.1-2.3 4.6-.1.2-.2.3-.3.4-2.4 3.3-4.9 6.7-8.3 9.2-.7.5-1.5.8-2 1-1 1.1-1.1 2.6-2.7 3-.3-.1-.8-.1-1.2-.3-1.2-.5-2.4-.6-3.5-.4-6.1 1.2-12.3 1.7-18.2 2.7-5.1-1.2-5.1-1.2-10.9-1.5-2.2-.1-4.5-.2-6.7-.3-.5 0-1-.2-1.4-.2-.9-.4-1.5-1.1-1.9-1.8-1.7-2.6-3.1-5.4-4-8.4-.9-3.2-2.4-6.1-3.3-9.2-.2-.6-.5-1.3-.9-1.9-1.8-3.2-2.8-7-2.6-10.7.1-4.3.3-8.6.6-12.9.1-2 .2-4.1.9-6.1.2-.5.3-1 .3-1.5.1-4.2 1.9-8 3.1-12 .8-2.6 2.4-4.9 3.9-7.3 1.9-3 3.9-6.1 6.1-9 1.4-1.8 3-3.3 5.1-4.4 3.3-.8 6.7-1 10.2-.8 4.5.3 8.9.6 13.4 1.4 1.6.4 3.1.7 4.8.1zm20.9-3.5c1.5.7 2.5 2.5 4.3 2.3.6-.3.8-.8.6-1.3-.5-1.4-1.5-2.3-2.9-2.7-.3-.1-.7 0-1 .2-.6.4-1.1.8-1 1.6-.4-.3-.8-.7-1.2-.9-.4-.2-.9-.2-1.4-.2-1 1.3-.9 2.6-.2 3.8.7.3 1.4.2 1.8-.5.5-.7.7-1.6 1-2.3zm-53.4 65.8c1.1 1.3 1.5 1.9 1.9 2.4 1.5 1.7 3.4 2.9 5.5 3.7 1 .4 1.9.8 2.9 1.1 1.3.4 2.6.9 3.8 1.7 1.8 1.1 3.7 1.7 5 2.1 2.6-.2 4.5-.3 6.4-.5.8-.1 1.7-.2 2.5-.6 4.1-2.1 7.4-5.1 9.3-9.3.5-1.1 1-2.2 1.2-3.4.4-2.5 1-5.1 1-7.7 0-.9 0-1.7.1-2.6.2-1 .2-2.1.2-3.1-.1-2.8-.2-5.5-.3-8.3 0-3.1-.6-6.2-.9-9.3-.2-2.9-1.3-5.7-2.8-8.4-.5-.6-1-1.2-1.6-1.9-1.7-1.9-3.6-3.1-6.2-3.5-1.3-.2-2.6-.7-3.9-1-1.6.5-3.1.6-4.7-.1-1.7.7-3.5 1.4-5.4 1.7-1 .2-2 .5-3 .9-3.5 1.2-6.6 3-8.7 6.2-.5.7-1 1.4-1.2 1.8-.6 1.8-1.2 3.3-1.5 4.8-.6 3-1.2 6.1-1.5 9.2-.4 4.1-.6 8.3-.7 12.4.2 4.3 1.1 8.3 2.6 11.7zm48.8-44.8c.2-.3.4-.6.5-.9.1-.3.1-.7.1-1 0-1-.4-1.4-1.5-1.8-.3-.1-.6-.2-1.1-.3-.4-.5-.8-1-1.3-1.5-.5.1-1 .1-1.5.2-.2 0-.3.2-.4.3-.6.5-.7 1.9-.1 2.2.9.5 1.9.7 2.8 1.2.9.5 1.3 1.7 2.5 1.6zm-.5 10.3c.4-1.2 0-2.1-.7-2.9-.5-.6-1.6-.7-2.3-.2-.7.5-.8 1.4-.1 2.2.5.7 1.1 1.3 2 1.6.4-.2.8-.5 1.1-.7zm-8.6-15.1c-.1-.1-.1-.3-.2-.4-.9-1-2-1.2-3.2-1-.7.1-1.2.9-1 1.5.2.8.9 1.4 1.8 1.5 1.2.1 2.1-.3 2.6-1.1v-.5zm-.2 60.3c-.6-1.3-.7-1.6-1.2-1.6s-1 0-1.5.2c-.6.2-1 1-.9 1.6.1.6.6 1.3 1.3 1.3.5 0 1-.2 1.5-.3.3-.3.6-.8.8-1.2zm12.6-38.9c.4-1.2-.2-1.9-1.3-2.5-.4.1-.9.1-1.3.4-.6.3-.9 1.2-.8 1.7.2.5.8.9 1.6 1 .6.1 1.2-.1 1.8-.6zm-50-24c.1-.1.3-.2.4-.3.6-.5.7-1.2.4-1.8-.2-.5-1-.9-1.7-.8-.9.1-1.5.8-1.5 1.7 0 .6.6 1.2 1.4 1.3.3.1.6 0 1-.1zm38.1-2.4c0 .7.9 1.6 1.6 1.6.8 0 1.6-.8 1.6-1.6s-.7-1.6-1.5-1.6c-.9.2-1.7.9-1.7 1.6zM18 59.8c-.7-.1-1.4.3-1.6.9-.3.9.2 1.8 1.1 2 1 .3 1.8-.2 1.9-1.1.1-.8-.5-1.6-1.4-1.8zm-3.1 13.3c-.8 0-1.7-.1-2.5-.1-.3 0-.6.2-.9.5-.2.2-.4.6-.4.9 0 .2.3.6.5.7 1.2.5 2.3.4 3.3-.3.2-.2.5-.5.5-.8.1-.4-.3-.7-.5-.9zm45.9 36.1c.4 1 .9 1.8 2.2 1.6.8-.9.9-1.8.1-2.7-1.6-.2-1.6-.2-2.3 1.1zm7-5.7c-.5-.5-1-.9-1.8-.6-.3.1-.7.2-.8.5-.6.8-.4 1.6.2 2.2 1.9.2 2.3-.2 2.4-2.1z" style="fill:#e3e3e3"/>
    <path class="st2" d="M38.4 9.5c.4-.2.7-.4 1-.4 2.4 0 4.8.1 7.1.7 2.7.7 5.4.9 8.1.1.3-.1.7 0 1-.1.3.2.6.4.8.5.5 2 .8 4 .7 6.1-.2 2.7-.2 5.5-.4 8.2-.1 1.1-.8 1.9-1.7 2.4-1.5.9-3.1 1.4-4.9 1.3-2.8 0-5.5-.3-8-.9-1-.5-1.4-1.2-1.6-2.1-.4-2.7-1.2-5.3-1.3-8.1-.1-2.2-.6-4.4-.8-6.6V9.5z"/>
    <path class="st3" d="M29.4 37.8c.5-.2 1.1-.6 1.8-.9 2 0 4.1.1 6.1.1 2.4 0 4.8.1 7.2-.4 2-.4 4.1 0 6.2-.1.9 0 1.6-.6 2-1.5.1-.3.1-.6.1-.9-.3-.2-.6-.5-.9-.5-1.6 0-3.1-.2-4.7.1-3.6.6-7.2.2-10.9.2-.1 0-.3-.2-.4-.3-.2-.2-.2-.6.2-.8 1.2-.7 2.5-1.2 3.9-1.9 2.5-.3 5 .5 7.8.8 7-.7 6.4-.7 11.4-3.5 1.6.3 3.1.5 4.6.8.1 0 .2.2.4.4-1.5 1.2-3 2.3-4.5 3.5-1.3 1.1-2.6 2.3-3.9 3.4-1.5.5-3 .9-4.4 1.5-.6.2-1.3.8-1.5 1.3-.5 1.2-1.3 1.5-2.4 1.4-2.1-.3-4.1-.5-6.2-.8-.9-.1-1.7-.5-2.5-.3-2.8.6-5.5-.4-8.2-.3-.2 0-.3 0-.5-.1-.5-.1-.9-.4-.7-1.2z"/>
    <path class="st2" d="M56.2 4c.6.9.3 1.5-.2 2-.8 1-1.9 1.5-3.1 1.6-2.4.1-4.9.2-7.2-.7-1.5-.6-3-.7-4.6-.9-.2 0-.6-.4-.5-.6 0-.3.3-.7.6-.8 1.5-.9 3.3-1.1 5-1.3 1.5-.2 3.1-.2 4.6-.1 1.9 0 3.8.2 5.4.8z"/>
    <path class="st0" d="M19.1 105.7c-1.5-3.4-2.5-7.4-2.3-11.6.1-4.1.3-8.3.7-12.4.3-3.1.9-6.1 1.5-9.2.3-1.5.9-3 1.5-4.8.3-.4.8-1.1 1.2-1.8 2.1-3.2 5.2-5 8.7-6.2 1-.3 2-.7 3-.9 1.9-.3 3.6-1 5.4-1.7 1.6.7 3.1.6 4.7.1 1.3.3 2.6.8 3.9 1 2.5.4 4.5 1.6 6.2 3.5.6.6 1.1 1.3 1.6 1.9 1.4 2.7 2.5 5.5 2.8 8.4.3 3.1.8 6.1.9 9.3 0 2.8.2 5.5.3 8.3 0 1 0 2.1-.2 3.1-.1.9-.1 1.7-.1 2.6-.1 2.6-.7 5.1-1 7.7-.2 1.2-.7 2.3-1.2 3.4-2 4.2-5.2 7.3-9.3 9.3-.7.4-1.6.5-2.5.6-1.9.2-3.8.3-6.4.5-1.3-.4-3.3-1-5-2.1-1.2-.7-2.4-1.3-3.8-1.7-1-.3-1.9-.7-2.9-1.1-2.1-.9-4-2-5.5-3.7-.7-.6-1.1-1.2-2.2-2.5zm8.4-40.2c.9.1 1.7.1 2.6.3 1.7.4 3.4.3 5.1-.3 1-.4 2-.4 3.1-.4 1.4.1 2.7.1 4.1.2.5-.6.9-1.1 1.4-1.6.2-.2.6-.3.9-.4 1.7.4 1.7.4 1.9 1.8l-1.2 1.2c.3 1.4 2.1 1 2.7 2.2.2 2.1.3 4.3 1.5 6.2 1.1.5 2.6.3 2.9 1.9-.7.7-1.5 1.4-2.2 2.1.2.5.4 1 .6 1.3 1 .6 2.2 0 2.9 1 .3 1 0 1.7-.9 2.1-.5.2-1 .2-1.5.4-.3.1-.6.5-.6.8-.3 1.7-.5 3.4-.1 5 1.2 1 3.3.7 3.3 2.9-.4.2-.9.5-1.4.5-.7.1-1.4-.2-2.1.6-.4 1.2-.7 2.7-.6 4.2.3.3.5.5.8.7.4.3.9.5 1.3.8.4.3.5 1.1.2 1.4-.2.2-.5.4-.9.5-.8.2-1.7-.3-2.6.3-.5.9-1.2 1.9-1.8 3l1.2 2.7c-1 1.7-1.3 1.8-2.3 1.4-.7-.5-.9-1.5-1.8-1.7-.3 0-.7-.1-1 0-1.4.3-1.6.5-1.9 2-.1.3 0 .7-.1 1-.1.3-.4.6-.7.8-.3.2-1.2 0-1.4-.4-.2-.3-.4-.6-.5-.9-.1-.5-.2-.9-.3-1.5-1.4 0-2.8-.6-4.1.3 0 1.3.6 2.3 1.4 3.5.6.4 1.3.9 1.8 1.2 5.9.7 5.9.7 10.2-.9 1-.8 2-1.4 3-2.2 2.1-1.7 3.5-3.9 4.2-6.4 1.2-4.3 1.9-8.8 1.6-13.3-.2-2.8-.2-5.5-.2-8.3-.2-4.8-.5-9.6-1.7-14.1-1-2.1-2.6-3.4-3.8-4.8-1-.5-1.8-.8-2.6-1.2-2.7-.2-5.4-.8-8.2.1-.4.1-1-.2-1.5-.2-1.1-.1-2 .4-2.7 1.2-.3.3-.7.6-1 .8-1-.3-1.8-.5-2.6-.8-1 .5-2 .9-2.9 1.4-.3.2-.6.4-.8.7-.4.3-.5.7-.7.9-1.1.1-1.8.9-2.4 1.7-1.7 2.4-3 5-3.3 8-.1 1.4-.4 2.7-.8 4-.6 2.3-.7 4.7-.5 7.1 0 .4.4.6.7.5.3-.1.6-.3.8-.4.1-.1.2-.3.2-.4 0-.9.1-1.7.1-2.6-.1-.8-.4-1.6-.6-2.3.3-.9.7-1.7.9-2.5.4-1.3.8-2.6 1.1-4 .4-1.9 1.3-3.5 2.7-4.9.4-.3.6-.8.9-1.1.2-1.1.2-2.1.2-3.1zm-1.2 11.6c-.2 1.7-.5 3.1 1.3 3.9 1.7-.5 3.6-.8 5.5-.6 1.9.2 3.2 1.2 3.9 3 .2.6.1 1.3.7 1.8 1.3 0 1.5-1.2 2.3-1.8 1-.7 1.9-1.5 2.7-2.2 1.6-.6 3-1 4.5-1.5-.9-3.4-.9-7-3.1-9.7-1-.7-1.9-1.2-2.9-1.3-.3 0-.6.2-.8.4.2.6.5 1.3.7 2 .4.2.9.3 1.4.5.5.2.9.4 1.2.5.4 1 .4 1.8.2 2.7-.1.3-.4.7-.6.7-.8.2-1.6.3-2.4.5-.6.9-1.2 1.8-1.9 2.7l-3 .3c-.4-.8-.7-1.5-1-2.2-.7.1-1.4.3-1.9.4-.8-.4-1.3-1-1.4-1.7-.1-1 0-2.1.9-2.8 1.2-.7 2.8-.1 3.9-1.4.3-.6.6-1.4.9-2.2.1-.3-.2-.6-.6-.6-3.1.6-5.9 1.7-8.1 4.1-.1.9-.3 1.7-.4 2.6-.7.5-1.3 1.1-2 1.9zM47 93.2l-.7-.7c-1.6-.1-2.9.7-4.2 1.4-.1.1 0 .6-.1 1 1.3.5 2.7 1.1 4.1 1.7 1-1 1.1-2.2.9-3.4zm-15.7 14.4c-.9-1.5-2.3-1.8-3.9-1.4-.5.1-.9.4-1.4.6-.4.2-.4.5-.1.9.4.2 1 .5 1.6.9.1.1.3.2.5.2.5.1 1 .3 1.5.2.8-.1 1.4-.6 1.8-1.4zm-5.1-9.4c.3.6.6 1.2 1.7 1.6 1.4 0 3.3 0 5.2-.1.2 0 .4-.1.4-.2.2-.2.3-.5.5-.8 0-.1-.2-.2-.3-.4-.6-.5-1.3-.6-1.9-.3-1.7 1.1-3.2.8-4.7-.2-.1-.1-.3-.1-.4 0-.2.2-.4.3-.5.4zm15.7-11.1c1.6-1 3.2-2.4 4.9-3.5-.4-.2-.7-.5-.9-.4-2 .3-3.5 1.2-4.5 3-.2.2 0 .5.5.9zM21.2 99.3c1.6-.8 1.8-1.5.9-3.6-.3 0-.6-.1-1 0-.8.1-1.2.9-1 1.5.3.6.4 1.5 1.1 2.1zm.3 3.8c.5.7 1.1 1.6 1.7 2.3.1.2.6.1.9.1.7-1.2 1.1-2.5-.3-3.5-1.7-.2-1.7-.2-2.3 1.1zm17.2 1c-.7-.8-.2-1.9-1.4-2.6-1 .8-2.1 1.5-3.2 2.3 2 1 2 1 4.6.3zm-18.3-11c.5 0 .9-.1 1.4-.1.8-.7 1-1.4.4-2.3-.3-.5-.8-.6-1.3-.6s-.8.4-.9 1c0 .7 0 1.4.4 2zm26.3-5.6c-1.5 0-2.3 1-3.1 2 0 0 .2.3.3.3.9-.2 1.9-.4 2.8-.8.2-.1.4-.5.5-.8-.1-.1-.4-.4-.5-.7zM39 93.9c.6-1.5 1-2.4 1.4-3.4-.2-.3-.3-.6-.6-.8-.3-.2-.7-.1-.9.2-.6 1.1-.4 2.3.1 4zm-6.8-6.1c-.1.1-.3.1-.4.2-.3.7-.1 1.3.4 1.8.1.1.3.3.4.3.3 0 .5-.3.5-.7.2-.7-.2-1.3-.9-1.6zM31 94.1c-.1-.3-.2-.7-.4-.8-.2-.2-.6-.3-.8-.3-.4.1-.6.4-.4.8.1.3.4.5.7.6.3.1.6-.2.9-.3zm2.9-9.5c.2-.5-.1-.8-.7-1.1-.4-.2-.7-.1-.9.2-.1.2 0 .6.1.8.2.3.5.5.8.6.2 0 .4-.3.7-.5zm-7 7.3c-.5-.2-.8-.4-1-.4-.2 0-.4.4-.5.7-.1.4.3.7.5.6.4-.2.6-.5 1-.9zm18.3 8c-.1.1-.3.2-.3.3.1.4.4.5.7.3l.3-.3c-.3-.1-.5-.2-.7-.3zM43 103c-.2-.3-.4-.5-.8-.4-.1 0-.3.2-.4.3-.1.4.7.7 1.1.4.1 0 .1-.2.1-.3zM67.9 60.9c-1.2.1-1.6-1.1-2.4-1.5-.9-.5-1.9-.8-2.8-1.2-.6-.3-.6-1.8.1-2.2.1-.1.3-.2.4-.3.5-.1 1-.2 1.5-.2.5.6.9 1.1 1.3 1.5.4.1.7.2 1.1.3 1 .3 1.4.8 1.5 1.8 0 .3 0 .7-.1 1-.2.2-.4.5-.6.8zM67.4 71.2c-.3.2-.7.5-1.1.7-1-.3-1.5-.9-2-1.6-.6-.8-.6-1.7.1-2.2.7-.5 1.8-.4 2.3.2.7.8 1.2 1.6.7 2.9zM72.6 40c-.1-.8.4-1.3 1-1.6.3-.2.7-.3 1-.2 1.4.4 2.4 1.3 2.9 2.7.2.5-.1 1-.6 1.3-1.9.1-2.8-1.6-4.3-2.3v.1zM58.8 56.1c0 .1 0 .3-.1.4-.4.9-1.4 1.3-2.6 1.1-.9-.1-1.6-.7-1.8-1.5-.2-.6.3-1.3 1-1.5 1.2-.3 2.3 0 3.2 1 .1.2.2.3.3.5zM58.6 116.4c-.2.4-.5.8-.8 1.3-.5.1-1 .3-1.5.3-.7 0-1.3-.7-1.3-1.3-.1-.7.3-1.5.9-1.6.5-.2 1-.2 1.5-.2s.7.2 1.2 1.5zM71.2 77.5c-.5.5-1.1.7-1.8.6-.8-.1-1.4-.5-1.6-1-.2-.5.2-1.4.8-1.7.4-.2.9-.3 1.3-.4 1.1.6 1.6 1.4 1.3 2.5zM72.5 39.9c-.3.8-.5 1.6-.9 2.4-.4.7-1 .8-1.8.5-.7-1.3-.8-2.5.2-3.8.4.1 1 0 1.4.2.4.2.8.6 1.2.9l-.1-.2zM21.2 53.5c-.3 0-.7.1-1 .1-.8-.1-1.3-.6-1.4-1.3-.1-.9.6-1.6 1.5-1.7.7-.1 1.6.2 1.7.8.2.7.2 1.3-.4 1.8-.1.1-.3.2-.4.3zM59.3 51.1c0-.8.8-1.5 1.7-1.5.8 0 1.6.8 1.5 1.6 0 .8-.9 1.6-1.6 1.6-.7 0-1.6-.9-1.6-1.7zM18 59.8c.9.2 1.5 1 1.4 1.8-.1.8-.9 1.3-1.9 1.1-.8-.2-1.3-1.1-1.1-2 .2-.6.9-1 1.6-.9zM14.9 73.1c.2.2.5.5.5.7 0 .3-.2.7-.5.8-1 .7-2.2.8-3.3.3-.2-.1-.5-.5-.5-.7 0-.3.2-.6.4-.9.2-.2.6-.4.9-.5.9.2 1.7.3 2.5.3zM60.8 109.2c.7-1.3.7-1.3 2.3-1.1.8.9.7 1.8-.1 2.7-1.3.2-1.8-.6-2.2-1.6zM67.8 103.5c-.1 1.9-.5 2.2-2.4 2.1-.6-.7-.8-1.5-.2-2.2.2-.2.5-.4.8-.5.8-.2 1.3.1 1.8.6z"/>
    <path class="st3" d="M27.6 65.6c.1-.3.2-.6.4-.9.2-.3.5-.5.8-.7.9-.5 1.9-.9 2.9-1.4.8.2 1.6.5 2.6.8.3-.2.6-.5 1-.8.7-.8 1.6-1.2 2.7-1.2.5 0 1.1.3 1.5.2 2.7-.9 5.5-.2 8.2-.1.8.4 1.6.8 2.6 1.2 1.2 1.4 2.7 2.7 3.8 4.8 1.3 4.5 1.6 9.3 1.7 14.1.1 2.8.1 5.5.2 8.3.3 4.5-.3 9-1.6 13.3-.7 2.5-2.2 4.7-4.2 6.4-.9.8-1.9 1.4-3 2.2-4.3 1.7-4.3 1.7-10.2.9-.5-.4-1.2-.8-1.8-1.2-.7-1.2-1.4-2.2-1.4-3.5 1.3-.8 2.6-.2 4.1-.3.1.6.2 1.1.3 1.5.1.3.3.6.5.9.2.3 1.2.6 1.4.4.3-.2.5-.5.7-.8.1-.3.1-.7.1-1 .2-1.5.5-1.7 1.9-2 .3-.1.7 0 1 0 1 .2 1.2 1.2 1.8 1.7 1 .4 1.3.2 2.3-1.4l-1.2-2.7c.7-1.1 1.3-2.1 1.8-3 .9-.6 1.8-.1 2.6-.3.3-.1.6-.3.9-.5.3-.3.2-1.1-.2-1.4-.4-.3-.9-.5-1.3-.8-.3-.2-.5-.4-.8-.7-.1-1.5.1-3 .6-4.2.7-.9 1.4-.6 2.1-.6.5 0 .9-.4 1.4-.5 0-2.3-2.1-2-3.3-2.9-.4-1.6-.2-3.3.1-5 .1-.3.4-.6.6-.8.5-.2 1-.2 1.5-.4.9-.4 1.2-1.1.9-2.1-.7-1-1.9-.4-2.9-1-.2-.3-.4-.8-.6-1.3.8-.7 1.5-1.4 2.2-2.1-.3-1.7-1.8-1.4-2.9-1.9-1.2-1.9-1.2-4.1-1.5-6.2-.6-1.2-2.4-.8-2.7-2.2l1.2-1.2c-.2-1.4-.2-1.4-1.9-1.8-.3.1-.7.2-.9.4-.5.5-.9 1-1.4 1.6-1.4-.1-2.7-.2-4.1-.2-1 0-2.1 0-3.1.4-1.7.6-3.3.8-5.1.3-.6-.3-1.5-.3-2.3-.3zm22.7 5.1c.8 0 1.6-.5 1.8-1.4.2-.7-.6-1.5-1.5-1.5-.9.1-1.6.8-1.6 1.5.1.8.7 1.4 1.3 1.4z"/>
    <path class="st3" d="M26.3 77.1c.7-.8 1.3-1.4 1.9-2 .1-.9.3-1.7.4-2.6 2.2-2.4 5-3.5 8.1-4.1.4-.1.7.3.6.6-.3.8-.6 1.6-.9 2.2-1.1 1.3-2.7.8-3.9 1.4-1 .7-1.1 1.7-.9 2.8.1.7.5 1.2 1.4 1.7.5-.1 1.2-.2 1.9-.4.3.7.7 1.4 1 2.2 1.1-.1 2.1-.2 3-.3.6-.9 1.2-1.8 1.9-2.7.8-.1 1.6-.2 2.4-.5.3-.1.5-.4.6-.7.3-.8.2-1.7-.2-2.7-.3-.1-.8-.4-1.2-.5-.5-.2-.9-.3-1.4-.5-.3-.7-.5-1.4-.7-2 .3-.1.6-.4.8-.4 1 .1 1.9.6 2.9 1.3 2.2 2.7 2.3 6.2 3.1 9.7-1.5.5-2.9 1-4.5 1.5-.8.7-1.7 1.5-2.7 2.2-.8.6-1.1 1.9-2.3 1.8-.6-.5-.4-1.2-.7-1.8-.7-1.8-2-2.7-3.9-3-1.9-.3-3.8.1-5.5.6-1.8-.7-1.5-2.1-1.2-3.8zM27.5 65.5v3.2c-.3.3-.5.8-.9 1.1-1.4 1.3-2.3 3-2.7 4.9-.3 1.3-.7 2.7-1.1 4-.2.8-.6 1.6-.9 2.5.2.7.5 1.5.6 2.3.1.8 0 1.7-.1 2.6 0 .1-.1.3-.2.4-.3.2-.5.3-.8.4-.4.1-.7-.1-.7-.5-.2-2.4-.2-4.8.5-7.1.4-1.3.6-2.7.8-4 .3-3 1.6-5.6 3.3-8 .4-.9 1.1-1.7 2.2-1.8zM47 93.2c.1 1.2.1 2.3-.9 3.4-1.4-.6-2.8-1.1-4.1-1.7 0-.4-.1-.9.1-1 1.3-.8 2.6-1.5 4.2-1.4l.7.7zM31.3 107.6c-.4.8-1 1.3-1.8 1.4-.5.1-1-.1-1.5-.2-.2 0-.3-.1-.5-.2-.6-.3-1.2-.6-1.6-.9-.3-.4-.3-.7.1-.9.4-.3.9-.5 1.4-.6 1.6-.4 3-.1 3.9 1.4zM26.2 98.2c.1-.1.3-.3.4-.3.1-.1.3-.1.4 0 1.5 1 3.1 1.3 4.7.2.5-.4 1.3-.3 1.9.3.1.1.3.3.3.4-.1.3-.3.6-.5.8-.1.1-.3.2-.4.2-1.9 0-3.7.1-5.2.1-1-.4-1.3-1.1-1.6-1.7zM41.9 87.1c-.6-.4-.7-.6-.5-.9 1-1.8 2.6-2.7 4.5-3 .3 0 .6.3.9.4-1.7 1.1-3.2 2.4-4.9 3.5zM21.2 99.3c-.8-.5-.8-1.5-1.1-2.2-.2-.5.2-1.4 1-1.5h1c.9 2.2.7 2.9-.9 3.7zM21.5 103.1c.6-1.3.6-1.3 2.3-1.1 1.4 1.1.9 2.3.3 3.5-.3 0-.7 0-.9-.1-.6-.8-1.1-1.6-1.7-2.3zM38.7 104.1c-2.6.7-2.6.7-4.5-.2 1.1-.8 2.2-1.6 3.2-2.3 1.1.6.6 1.8 1.3 2.5zM20.4 93.1c-.5-.6-.5-1.3-.4-1.9.1-.6.4-1 .9-1s1 .1 1.3.6c.5.8.3 1.6-.4 2.3-.4-.1-.9-.1-1.4 0zM46.7 87.5c.1.3.4.6.4.8 0 .3-.2.7-.5.8-.9.3-1.8.5-2.8.8-.1 0-.3-.3-.3-.3.8-1.1 1.7-2.1 3.2-2.1zM39 93.9c-.5-1.7-.7-2.9 0-4 .2-.3.5-.4.9-.2.2.2.4.5.6.8-.5 1-.9 1.9-1.5 3.4zM32.3 87.8c.7.3 1 .9 1.1 1.6 0 .4-.2.7-.5.7-.1 0-.3-.1-.4-.3-.5-.5-.8-1.1-.4-1.8-.1-.1 0-.1.2-.2zM31 94.1c-.3.1-.6.3-.9.3-.3 0-.6-.3-.7-.6-.2-.4 0-.7.4-.8.3 0 .7 0 .9.2.1.2.2.6.3.9zM33.9 84.6c-.2.2-.5.5-.7.5-.3 0-.6-.3-.8-.6-.1-.2-.2-.6-.1-.8.2-.3.5-.4.9-.2.6.3.8.6.7 1.1zM26.9 91.9c-.4.3-.7.7-1 .9-.2.1-.5-.2-.5-.6 0-.3.3-.6.5-.7.2 0 .6.3 1 .4zM45.2 99.9c.2.1.5.2.7.4l-.3.3c-.3.1-.6 0-.7-.3-.1-.2.2-.3.3-.4zM43 103c0 .1 0 .3-.1.3-.4.3-1.1 0-1.1-.4 0-.1.2-.3.4-.3.4 0 .6.1.8.4z"/>
    <path class="st0" d="M50.3 70.7c-.6 0-1.2-.6-1.2-1.3-.1-.8.6-1.5 1.6-1.5.9-.1 1.7.7 1.5 1.5-.3.8-1.1 1.3-1.9 1.3z"/>
</svg>
