<!-- Generator: Adobe Illustrator 25.0.0, SVG Export Plug-In  -->
<svg version="1.1" xmlns="http://www.w3.org/2000/svg" xmlns:xlink="http://www.w3.org/1999/xlink" x="0px" y="0px" width="36.5px"
	 height="23px" viewBox="0 0 36.5 23" style="overflow:visible;enable-background:new 0 0 36.5 23;" xml:space="preserve">
<style type="text/css">
	.st0{fill:#7A6A56;}
	.st1{fill:#DEEDD8;}
	.st2{fill:#FFFFFF;}
</style>
<defs>
</defs>
<g>
	<path class="st0" d="M22.5,0c0.1,0,0.1,0,0.2,0.1c1.1,1,2.4,1.8,3.6,2.5c0.9,0.5,1.7,1,2.6,1.6c0.8,0.6,1.6,1,2.5,1.5
		C32.2,6,33,6.5,33.8,6.9c0.3,0.2,0.6,0.3,0.9,0.4c0.4,0.2,0.7,0.4,1.1,0.7c0.1,0.1,0.2,0.4,0.1,0.5c-0.1,0.1-0.1,0.3-0.2,0.4
		c-0.2,0.3-0.4,0.7-0.5,0.9c-0.2,0.6-0.2,1.1,0,1.6c0.2,0.4,0.4,0.6,0.7,0.9c0.2,0.2,0.4,0.4,0.5,0.7c0.1,0.1,0,0.3-0.1,0.4
		c-0.1,0.1-0.2,0.1-0.2,0.2c-0.1,0-0.3,0-0.4-0.1c-0.1,0-0.1,0-0.2,0c-0.3,0.1-0.6,0.3-0.9,0.4c-0.3,0.1-0.6,0.1-0.8,0.2
		c-0.5,0.3-1.1,0.5-1.7,0.8c-1.2,0.6-2.4,1.2-3.6,1.9c-0.6,0.3-1.3,0.7-1.9,0.9c-0.8,0.3-1.7,0.7-2.4,1.2c-1.1,0.7-2.3,1.2-3.4,1.9
		c-0.1,0.1-0.2,0.1-0.4,0.2c-1.3,0.5-2.4,1.2-3.5,1.9c-0.6,0-1.2,0-1.9,0c-0.7-0.3-1.4-0.7-2.1-1.1c-0.8-0.5-1.5-1-2.3-1.4
		c-0.2-0.1-0.3-0.2-0.5-0.3c-0.9-0.6-1.8-1.2-2.7-1.7c-0.9-0.5-1.9-0.9-2.8-1.5c-1.3-0.6-2.6-1.3-3.7-2.2c-0.1-0.1-0.3-0.2-0.5-0.3
		c-0.1-0.1-0.3-0.3-0.4-0.4C0,13.8,0,13.7,0,13.6c0-0.7,0-1.3,0-2c0-0.4,0.2-0.8,0.4-1.1C0.7,10.2,1,9.8,1.3,9.4
		c0.2-0.1,0.3-0.2,0.5-0.3c1.5-0.8,3-1.5,4.5-2.3C8,6,9.7,5.3,11.5,4.5c1.6-0.6,3.1-1.3,4.7-1.9c1.4-0.3,2.6-1.1,3.8-1.6
		C20.9,0.7,21.7,0.3,22.5,0z M21.9,19.2c0.2,0,0.5-0.1,0.6-0.3c0.1,0,0.2,0,0.3,0c0,0,0.1,0,0.1-0.1c0,0,0-0.1,0-0.1
		c-0.1,0-0.2,0-0.2,0c-0.1,0-0.1,0.1-0.1,0.2c-0.1,0-0.3,0-0.4,0C22,19,21.9,19.1,21.9,19.2c-0.1,0-0.2,0-0.4,0
		c-0.1,0-0.2,0.1-0.2,0.3c-0.2-0.1-0.5-0.1-0.7,0.1c-0.8,0.4-1.6,0.8-2.4,1.2c-0.5,0.3-1,0.5-1.5,0.7c-0.2,0.1-0.3,0.2-0.4,0.4
		c0,0,0,0.1,0.1,0.1c0.1,0,0.2,0.1,0.3,0c0.3-0.1,0.6-0.2,0.9-0.4c0.6-0.3,1.1-0.6,1.6-0.9c0.7-0.3,1.3-0.7,2-1.1
		c0.1,0,0.1-0.2,0.1-0.2C21.5,19.5,21.7,19.5,21.9,19.2z M26.5,16.9c0.1,0,0.2,0,0.3,0c0.2,0,0.2-0.1,0.1-0.1c0,0-0.1,0-0.1,0
		C26.6,16.8,26.6,16.9,26.5,16.9c0,0.1-0.1,0.1-0.2,0.1c-0.1,0-0.2,0-0.1,0.1c0,0,0.1,0,0.1,0C26.4,17,26.4,17,26.5,16.9z
		 M12.6,20.4c-0.1-0.2-0.3-0.3-0.6-0.3c0,0,0-0.1,0-0.1c-0.2-0.3-0.5-0.4-0.8-0.4c-0.1-0.1-0.1-0.2-0.2-0.2
		c-0.1-0.1-0.3-0.1-0.4-0.1c-0.2-0.3-0.4-0.6-0.8-0.6c0,0,0-0.1-0.1-0.1c-0.1-0.1-0.2-0.2-0.3,0c0,0,0.1,0,0.1,0c0.1,0,0.2,0,0.3,0
		c0,0.1,0,0.2,0.1,0.2c0.2,0.2,0.5,0.3,0.7,0.3c0.1,0.2,0.3,0.3,0.6,0.3c0,0.1,0,0.2,0.1,0.2c0.2,0.2,0.4,0.4,0.8,0.4
		c0,0.1,0.1,0.2,0.2,0.3C12.4,20.4,12.5,20.4,12.6,20.4C12.7,20.4,12.7,20.5,12.6,20.4c0.2,0.2,0.3,0.4,0.4,0.5
		c0.1,0.1,0.2,0.1,0.3-0.1C13.2,20.5,12.9,20.4,12.6,20.4z M4.8,15.8c-0.1-0.3-0.3-0.3-0.6-0.3c0-0.1,0-0.2-0.1-0.2
		c-0.5-0.4-1.1-0.8-1.5-1.3c-0.4-0.4-0.9-0.7-1.3-1.1c-0.1-0.1-0.3,0-0.3,0.2c0.1,0.1,0.1,0.3,0.3,0.5c0.7,0.7,1.5,1.3,2.4,1.8
		c0.2,0.1,0.4,0.1,0.7,0.1c0,0.1,0.1,0.2,0.2,0.2C4.6,15.7,4.7,15.7,4.8,15.8c0,0,0,0.2,0.1,0.2c0.4,0.4,0.8,0.6,1.4,0.6
		c0,0.1,0.1,0.2,0.2,0.3c0.1,0,0.2,0,0.2-0.1c0,0-0.1-0.1-0.1-0.1c-0.1,0-0.2,0-0.4,0c0-0.1,0-0.2-0.1-0.2c-0.4-0.2-0.7-0.4-1.1-0.6
		C5,15.8,4.9,15.8,4.8,15.8z M15.5,20.1c0.6-0.2,1.2-0.5,1.8-0.9c0.3-0.3,0.7-0.4,1.1-0.6c1-0.5,2.1-1,3.1-1.5
		c1.3-0.6,2.6-1.3,3.9-1.8c0.6-0.2,1.2-0.4,1.7-0.7c0.5-0.2,1-0.5,1.5-0.8c0.8-0.5,1.7-0.9,2.5-1.4c1-0.5,2-1.1,3-1.7
		c0.1-0.2,0.1-0.4-0.1-0.5c-0.6,0.3-1.2,0.6-1.9,0.7c-0.4,0.1-0.7,0.2-1.1,0.4c-1.3,0.5-2.5,1.1-3.8,1.8c-1.1,0.6-2.3,1.2-3.4,1.9
		c-0.6,0.3-1.2,0.6-1.8,1c-0.7,0.4-1.4,0.8-2.1,1.2c-1.3,0.7-2.7,1.3-4,2c0,0-0.1,0.1-0.1,0.1C15.6,19.4,15.4,19.7,15.5,20.1
		C15.5,20.1,15.4,20.1,15.5,20.1c-0.3,0.4-0.3,0.7,0,1.1c0.6-0.2,1.3-0.4,1.9-0.7c1.9-1,3.9-1.7,5.8-2.9c0.2-0.1,0.4-0.1,0.5-0.2
		c1.4-0.7,2.8-1.2,4.2-1.9c0.6-0.3,1.3-0.6,1.9-1c1.3-0.7,2.5-1.3,3.7-2.2c0.3-0.2,0.6-0.4,0.9-0.5c0,0,0.1-0.1,0.1-0.1
		c0,0,0-0.1,0-0.1c0,0-0.1-0.1-0.1-0.1c-0.5,0-0.9,0.3-1.3,0.5c-0.9,0.5-1.9,1-2.8,1.5c-1.5,0.9-3.1,1.7-4.8,2.3
		c-0.9,0.3-1.8,0.7-2.6,1.1c-0.7,0.4-1.5,0.7-2.2,1.1c-1.1,0.5-2.2,1-3.2,1.7c-0.3,0.2-0.7,0.4-1,0.5c-0.2,0.1-0.5,0.1-0.7,0
		C15.6,20.3,15.5,20.2,15.5,20.1z M2.2,9.9c0.1,0.1,0.2,0.3,0.3,0.4c0.4,0.4,0.9,0.7,1.4,0.9c0.6,0.3,1.3,0.7,1.9,1.1
		c1.3,0.8,2.5,1.6,3.8,2.3c0.7,0.4,1.3,0.7,2,1.2c1.3,0.9,2.6,1.6,3.8,2.5c0.3-0.1,0.5-0.1,0.7-0.2c0.2-0.1,0.5-0.1,0.7-0.2
		c2.1-1,5.2-2.6,7.3-3.8c1.9-1.1,3.8-2.1,5.7-3.1c0.3-0.2,0.7-0.3,1.1-0.4c0.8-0.3,1.6-0.6,2.4-0.9c0.5-0.2,1.1-0.5,1.5-0.9
		c-0.1-0.1-0.1-0.3-0.2-0.3c-0.9-0.7-2-1.2-3-1.7c-1-0.3-1.9-1-2.8-1.4c-0.2-0.1-0.3-0.2-0.5-0.3c-0.5-0.4-1-0.7-1.5-1
		c-0.9-0.5-1.8-1.1-2.7-1.7c-0.5-0.4-1.1-0.7-1.8-0.9c-0.3,0.1-0.6,0.1-0.8,0.2c-0.8,0.3-1.6,0.7-2.4,1c-0.7,0.3-1.5,0.7-2.3,0.9
		c-0.3,0.1-0.5,0.2-0.8,0.3c-0.4,0.2-0.8,0.4-1.2,0.5c-1.2,0.4-2.3,1-3.5,1.3c-0.7,0.2-1.3,0.5-2,0.8c-2.2,1-4.4,2.1-6.6,3.2
		C2.5,9.6,2.4,9.7,2.2,9.9z M14.8,19.1c-0.1-0.1-0.1-0.3-0.2-0.4c-0.2-0.2-0.4-0.3-0.6-0.4c-1.3-0.7-2.4-1.6-3.6-2.3
		c-0.7-0.4-1.4-0.8-2.1-1.2c-0.3-0.2-0.6-0.4-1-0.6c-0.1,0-0.2,0-0.3,0c0,0,0,0.1,0,0.1c0.5,0.6,1.1,1.1,1.8,1.5
		c0.4,0.3,0.9,0.6,1.2,1c0.6,0.6,1.4,1.1,2.1,1.5c0.5,0.3,1,0.6,1.5,0.8c0.3,0.2,0.6,0.3,1,0.3C14.6,19.3,14.7,19.2,14.8,19.1z
		 M8.8,16.9c0-0.1,0-0.1-0.1-0.2c-0.1-0.1-0.3-0.3-0.4-0.4c-0.5-0.3-1-0.7-1.4-1.2c-0.1-0.1-0.3-0.3-0.4-0.4c-1-0.8-2.1-1.5-3.1-2.3
		c-0.6-0.4-1.2-0.8-1.9-1c-0.1,0-0.2,0-0.2,0.1c0,0,0,0.1,0,0.1c0.3,0.3,0.6,0.6,0.9,0.9c0.7,0.3,1.1,0.9,1.7,1.4
		c0.2,0.2,0.4,0.3,0.6,0.4c1.3,0.8,2.6,1.5,3.9,2.5c0.1,0.1,0.2,0.1,0.3,0.1C8.6,16.9,8.7,16.9,8.8,16.9z M33.5,13.3
		c0.1,0.1,0.1,0.1,0.2,0.1c0.5-0.1,0.9-0.4,1.3-0.6c0,0,0-0.1,0-0.1c-0.1-0.2-0.2-0.3-0.4-0.3C34.2,12.6,33.9,13,33.5,13.3z
		 M23.8,18.3C23.8,18.2,23.7,18.2,23.8,18.3c-0.2-0.1-0.2,0-0.3,0c0,0,0.1,0.1,0.1,0.1C23.6,18.3,23.7,18.3,23.8,18.3z M14.1,21.3
		c0,0-0.1,0.1-0.1,0.1c0.1,0.1,0.2,0.2,0.3,0C14.3,21.4,14.2,21.3,14.1,21.3z"/>
	<path class="st1" d="M2.2,9.9c0.2-0.1,0.3-0.3,0.5-0.4c2.2-1.1,4.4-2.2,6.6-3.2c0.7-0.3,1.3-0.6,2-0.8c1.2-0.4,2.3-0.9,3.5-1.3
		c0.4-0.1,0.8-0.3,1.2-0.5c0.3-0.1,0.5-0.2,0.8-0.3c0.8-0.2,1.5-0.5,2.3-0.9c0.8-0.4,1.6-0.7,2.4-1c0.3-0.1,0.6-0.1,0.8-0.2
		c0.7,0.2,1.2,0.5,1.8,0.9c0.9,0.6,1.8,1.2,2.7,1.7c0.5,0.3,1.1,0.6,1.5,1c0.1,0.1,0.3,0.2,0.5,0.3c0.9,0.5,1.8,1.1,2.8,1.4
		c1,0.6,2,1.1,3,1.7c0.1,0.1,0.2,0.2,0.2,0.3c-0.4,0.5-1,0.7-1.5,0.9c-0.8,0.3-1.6,0.6-2.4,0.9c-0.4,0.1-0.7,0.2-1.1,0.4
		c-1.9,1-3.8,2-5.7,3.1c-2,1.2-5.2,2.8-7.3,3.8c-0.2,0.1-0.4,0.2-0.7,0.2c-0.2,0.1-0.5,0.1-0.7,0.2c-1.2-0.9-2.5-1.6-3.8-2.5
		c-0.6-0.4-1.3-0.8-2-1.2c-1.3-0.8-2.5-1.6-3.8-2.3c-0.6-0.4-1.2-0.7-1.9-1.1c-0.5-0.3-1-0.6-1.4-0.9C2.4,10.2,2.3,10,2.2,9.9z"/>
	<path class="st2" d="M15.5,20.1c-0.1-0.4,0-0.8,0.4-1c0,0,0.1-0.1,0.1-0.1c1.3-0.7,2.7-1.3,4-2c0.7-0.4,1.4-0.8,2.1-1.2
		c0.6-0.3,1.2-0.7,1.8-1c1.1-0.6,2.3-1.2,3.4-1.9c1.2-0.7,2.5-1.3,3.8-1.8c0.4-0.1,0.7-0.3,1.1-0.4c0.7-0.1,1.3-0.4,1.9-0.7
		c0.2,0.1,0.2,0.3,0.1,0.5c-1,0.6-2,1.1-3,1.7c-0.8,0.4-1.7,0.9-2.5,1.4c-0.5,0.3-1,0.6-1.5,0.8c-0.6,0.3-1.2,0.5-1.7,0.7
		c-1.4,0.5-2.6,1.1-3.9,1.8c-1,0.5-2.1,1-3.1,1.5c-0.4,0.2-0.8,0.4-1.1,0.6C16.7,19.6,16.1,19.9,15.5,20.1L15.5,20.1z"/>
	<path class="st2" d="M15.5,20.1c0.1,0.1,0.1,0.3,0.3,0.3c0.2,0.1,0.5,0.1,0.7,0c0.3-0.2,0.7-0.3,1-0.5c1-0.7,2.1-1.2,3.2-1.7
		c0.7-0.4,1.5-0.7,2.2-1.1c0.9-0.4,1.7-0.8,2.6-1.1c1.7-0.6,3.3-1.4,4.8-2.3c0.9-0.5,1.9-1,2.8-1.5c0.4-0.2,0.8-0.4,1.3-0.5
		c0,0,0.1,0.1,0.1,0.1c0,0,0,0.1,0,0.1c0,0,0,0.1-0.1,0.1c-0.3,0.1-0.6,0.3-0.9,0.5c-1.2,0.8-2.4,1.5-3.7,2.2
		c-0.6,0.3-1.3,0.6-1.9,1c-1.3,0.7-2.8,1.2-4.2,1.9c-0.2,0.1-0.4,0.1-0.5,0.2c-1.8,1.1-3.9,1.9-5.8,2.9c-0.6,0.3-1.2,0.5-1.9,0.7
		C15.2,20.8,15.2,20.5,15.5,20.1C15.4,20.1,15.5,20.1,15.5,20.1L15.5,20.1z"/>
	<path class="st2" d="M14.8,19.1c-0.1,0.1-0.2,0.2-0.3,0.3c-0.4,0-0.7-0.2-1-0.3c-0.5-0.3-1-0.5-1.5-0.8c-0.7-0.5-1.5-0.9-2.1-1.5
		c-0.4-0.4-0.8-0.7-1.2-1c-0.6-0.4-1.2-0.9-1.8-1.5c0,0,0-0.1,0-0.1c0.1,0,0.2,0,0.3,0c0.3,0.2,0.6,0.4,1,0.6
		c0.7,0.4,1.4,0.8,2.1,1.2c1.3,0.7,2.4,1.6,3.6,2.3c0.2,0.1,0.4,0.3,0.6,0.4C14.7,18.8,14.8,19,14.8,19.1z"/>
	<path class="st2" d="M8.8,16.9c-0.1,0-0.3,0.1-0.4,0.1c-0.1,0-0.2-0.1-0.3-0.1c-1.2-0.9-2.6-1.6-3.9-2.5c-0.2-0.1-0.4-0.3-0.6-0.4
		c-0.5-0.5-1-1-1.7-1.4c-0.3-0.3-0.6-0.6-0.9-0.9c0,0,0-0.1,0-0.1c0.1-0.1,0.1-0.1,0.2-0.1c0.7,0.3,1.3,0.6,1.9,1
		c1.1,0.7,2.1,1.5,3.1,2.3c0.2,0.1,0.3,0.2,0.4,0.4c0.4,0.5,0.9,0.8,1.4,1.2c0.2,0.1,0.3,0.3,0.4,0.4C8.8,16.7,8.8,16.8,8.8,16.9z"
		/>
	<path class="st2" d="M21.3,19.5c0,0.1-0.1,0.2-0.1,0.2c-0.7,0.4-1.3,0.8-2,1.1c-0.6,0.2-1.1,0.6-1.6,0.9c-0.3,0.1-0.6,0.3-0.9,0.4
		c-0.1,0-0.2,0-0.3,0c0,0,0-0.1-0.1-0.1c0.1-0.2,0.2-0.3,0.4-0.4c0.5-0.3,1-0.5,1.5-0.7c0.8-0.4,1.6-0.8,2.4-1.2
		C20.8,19.5,21.1,19.5,21.3,19.5L21.3,19.5z"/>
	<path class="st2" d="M4.3,15.5c-0.2,0.1-0.5,0-0.7-0.1c-0.8-0.5-1.6-1.1-2.4-1.8c-0.1-0.1-0.2-0.3-0.3-0.5c0.1-0.2,0.2-0.3,0.3-0.2
		c0.5,0.3,0.9,0.7,1.3,1.1c0.5,0.5,1,0.9,1.5,1.3C4.2,15.3,4.2,15.4,4.3,15.5L4.3,15.5z"/>
	<path class="st2" d="M33.5,13.3c0.4-0.3,0.7-0.7,1-0.9c0.3,0,0.4,0.1,0.4,0.3c0,0,0,0.1,0,0.1c-0.4,0.3-0.8,0.5-1.3,0.6
		C33.6,13.4,33.6,13.3,33.5,13.3z"/>
	<path class="st2" d="M4.8,15.8c0.1,0,0.2,0,0.3,0c0.4,0.2,0.7,0.4,1.1,0.6c0.1,0,0.1,0.2,0.1,0.2l0,0c-0.5,0-1-0.3-1.4-0.6
		C4.9,16,4.9,15.8,4.8,15.8L4.8,15.8z"/>
	<path class="st2" d="M12.1,20.1c-0.3,0.1-0.6-0.2-0.8-0.4c0,0,0-0.2-0.1-0.2c0,0,0,0,0,0c0.3,0,0.6,0.2,0.8,0.4
		C12,20,12,20.1,12.1,20.1C12,20.1,12.1,20.1,12.1,20.1z"/>
	<path class="st2" d="M10.6,19.2c-0.3-0.1-0.5-0.1-0.7-0.3c-0.1-0.1-0.1-0.2-0.1-0.2l0,0C10.1,18.7,10.4,18.9,10.6,19.2L10.6,19.2z"
		/>
	<path class="st2" d="M12.6,20.4c0.3,0,0.5,0.1,0.7,0.4c0,0.2-0.2,0.2-0.3,0.1C12.9,20.8,12.8,20.6,12.6,20.4
		C12.7,20.5,12.7,20.4,12.6,20.4L12.6,20.4z"/>
	<path class="st2" d="M4.2,15.5c0.2,0,0.5,0,0.6,0.3l0,0c-0.1,0-0.2,0-0.4,0C4.4,15.7,4.3,15.6,4.2,15.5L4.2,15.5z"/>
	<path class="st2" d="M6.3,16.7c0.1,0,0.3,0,0.4,0c0,0,0.1,0.1,0.1,0.1c0,0.1-0.1,0.1-0.2,0.1C6.4,16.8,6.3,16.8,6.3,16.7
		C6.3,16.6,6.3,16.7,6.3,16.7z"/>
	<path class="st2" d="M26.5,16.9c0.1-0.1,0.1-0.1,0.2-0.2c0,0,0.1,0,0.1,0c0.1,0.1,0.1,0.1-0.1,0.1C26.7,16.9,26.6,16.9,26.5,16.9
		L26.5,16.9z"/>
	<path class="st2" d="M26.5,16.9c-0.1,0.1-0.1,0.1-0.2,0.2c0,0-0.1,0-0.1,0c-0.1-0.1,0-0.1,0.1-0.1C26.3,17,26.4,17,26.5,16.9
		L26.5,16.9z"/>
	<path class="st2" d="M23.8,18.3c-0.1,0-0.2,0.1-0.2,0.1c0,0-0.1-0.1-0.1-0.1C23.6,18.2,23.6,18.2,23.8,18.3
		C23.7,18.2,23.8,18.2,23.8,18.3z"/>
	<path class="st2" d="M9.8,18.6c-0.1,0-0.2,0-0.3,0c0,0-0.1,0-0.1,0c0.1-0.2,0.2-0.1,0.3,0C9.7,18.6,9.7,18.6,9.8,18.6
		C9.7,18.7,9.8,18.6,9.8,18.6z"/>
	<path class="st2" d="M22.5,19c0-0.1,0-0.2,0.1-0.2c0.1,0,0.1,0,0.2,0c0,0,0,0.1,0,0.1c0,0-0.1,0.1-0.1,0.1
		C22.6,18.9,22.5,18.9,22.5,19L22.5,19z"/>
	<path class="st2" d="M22.4,18.9c-0.1,0.2-0.3,0.3-0.6,0.3l0,0c0-0.1,0.1-0.3,0.2-0.3C22.2,19,22.3,19,22.4,18.9L22.4,18.9z"/>
	<path class="st2" d="M11.2,19.5c-0.3,0-0.5-0.1-0.6-0.3l0,0c0.1,0,0.3,0,0.4,0.1C11.1,19.4,11.1,19.5,11.2,19.5L11.2,19.5z"/>
	<path class="st2" d="M21.3,19.5c0-0.1,0.1-0.2,0.2-0.3c0.1,0,0.3,0,0.4,0l0,0C21.7,19.5,21.5,19.5,21.3,19.5L21.3,19.5z"/>
	<path class="st2" d="M12.7,20.4c-0.1,0-0.3,0-0.4,0c-0.1,0-0.2-0.1-0.2-0.3l0,0C12.3,20.1,12.5,20.2,12.7,20.4L12.7,20.4z"/>
	<path class="st2" d="M14.1,21.3c0.1,0,0.3,0.1,0.2,0.1c-0.1,0.2-0.2,0.1-0.3,0C14,21.3,14,21.3,14.1,21.3z"/>
	<path class="st0" d="M10.4,10.1c0.1,0.3,0.3,0.5,0.6,0.6c0.2,0.1,0.5,0.1,0.7,0.2c0.1,0,0.2,0.2,0.2,0.3c-0.1,0.3-0.3,0.4-0.6,0.4
		c-0.2,0-0.5-0.1-0.7-0.2c-0.4-0.2-0.8-0.4-1.1-0.6c-0.5-0.2-1-0.2-1.4,0.2c0.4,0.3,0.8,0.5,1.3,0.7c0.1,0.1,0.2,0.2,0.3,0.3
		c0.1,0.1,0.1,0.3,0,0.4c-0.1,0.1-0.2,0.2-0.3,0.3c-0.8-0.3-1.6-0.7-2.3-1.1c-0.1-0.1-0.1-0.3-0.2-0.4C6.9,11,7,10.9,7.1,10.8
		c0.4-0.3,0.8-0.5,1.2-0.8c0.5-0.2,0.9-0.5,1.4-0.7c0.4-0.2,0.8-0.4,1-0.8c0-0.1,0.1-0.1,0.3-0.2c0.1,0,0.3,0,0.4,0.1
		c0.7,0.4,1.4,0.7,2.3,0.9c0.2,0,0.3,0.4,0.2,0.6c-0.1,0.2-0.3,0.3-0.5,0.3c-0.3-0.2-0.7-0.3-1.1-0.5c-0.5-0.2-1-0.2-1.5,0.1
		C10.6,9.9,10.5,10,10.4,10.1z"/>
	<path class="st0" d="M21.9,4.8C22.5,5.3,22.6,6,23,6.5c0,0.2,0,0.3,0,0.5c0,0.6-0.3,1-0.8,1.2c-0.8,0.4-1.7,0.4-2.5,0.4
		c-0.7,0-1.3-0.3-2-0.6c-0.1-0.1-0.2-0.3-0.4-0.5c-0.1-0.1-0.3-0.3-0.4-0.4c0-0.2,0.1-0.3,0.1-0.4c0.1-0.1,0.1-0.1,0.1-0.1
		C18.7,6,20.2,5.4,21.9,4.8z M21.4,5.9c-1.1,0.2-2,0.5-2.9,1c-0.1,0-0.1,0.1-0.2,0.2c0,0.2,0.1,0.4,0.3,0.4c0.4,0.1,0.8,0.2,1.3,0.3
		c0.6,0.1,1.2,0,1.8-0.3c0.3-0.1,0.5-0.5,0.3-0.8C22,6.4,21.8,6.1,21.4,5.9z"/>
	<path class="st0" d="M23.8,10.3c0.9-0.3,1.7-0.6,2.4-1.2c0.1-0.1,0.2-0.1,0.3-0.1c0.2,0,0.4-0.1,0.5,0.1c0.1,0.1,0.1,0.2,0.2,0.3
		c-0.1,0.2-0.2,0.4-0.4,0.4c-0.7,0.3-1.3,0.6-1.9,0.9C24.5,10.9,24,11,23.6,11c-0.2,0-0.5,0-0.7-0.1c-0.3-0.1-0.6-0.3-0.9-0.5
		c-0.2-0.2-0.4-0.4-0.4-0.4c0-0.6,0.2-0.8,0.3-1c0.7-0.6,1.6-1,2.4-1.5c0.2-0.1,0.3-0.2,0.5-0.2c0.3-0.1,0.6,0,0.8,0.4
		c-0.1,0.2-0.2,0.3-0.4,0.4c-0.9,0.3-1.6,0.8-2.4,1.3c-0.3,0.2-0.2,0.6,0.1,0.7c0.1,0,0.2,0.1,0.3,0.1c0,0,0.1,0,0.1,0
		C23.5,10.2,23.6,10.2,23.8,10.3z"/>
	<path class="st0" d="M18.8,14c-0.3-0.1-0.4-0.3-0.3-0.6c0.1-0.1,0.2-0.3,0.3-0.4c0.1-0.2,0.2-0.3,0.3-0.5c0-0.2-0.2-0.3-0.3-0.2
		c-0.6,0.2-1.3,0.4-1.9,0.5c-0.1,0-0.3,0-0.4-0.1c-0.1,0-0.1-0.1-0.1-0.2c0-0.1,0.1-0.3,0.2-0.4c0.3-0.1,0.6-0.1,0.8-0.2
		c0.8-0.2,1.7-0.5,2.4-0.8c0.5,0.1,0.6,0.4,0.6,0.7c-0.1,0.2-0.2,0.5-0.2,0.7c0.1,0.1,0.1,0.2,0.2,0.2c0.5,0,0.9-0.4,1.3-0.6
		c0.3-0.1,0.5-0.2,0.8-0.2c0.1,0,0.2,0.1,0.3,0.3c0.1,0.1,0,0.3-0.1,0.4c0,0-0.1,0.1-0.1,0.1c0,0-0.1,0.1-0.1,0.1
		c-1.1,0.2-2.1,0.7-3.1,1.2C19,14,18.9,14,18.8,14z"/>
	<path class="st0" d="M33.2,9.9c-0.8-0.7-1.8-0.9-2.8-1.4c-0.2-0.1-0.5-0.3-0.7-0.4c-0.1-0.1-0.1-0.2-0.1-0.3c0-0.3,0.2-0.6,0.5-0.5
		c0.1,0,0.2,0,0.3,0.1c0.9,0.6,1.9,0.9,2.8,1.5c0.1,0.1,0.2,0.1,0.4,0.2c0.3,0.2,0.2,0.5,0,0.7C33.4,9.8,33.3,9.8,33.2,9.9z"/>
	<path class="st0" d="M15.9,15.8c-0.1,0.4-0.4,0.4-0.7,0.4c-0.6-0.3-1.2-0.6-1.8-0.9c0,0-0.1-0.1-0.1-0.1c-0.1-0.1-0.1-0.3-0.1-0.4
		c0.1-0.1,0.2-0.2,0.3-0.2c0.2,0,0.4,0,0.6,0.1c0.5,0.2,1,0.6,1.5,0.8C15.8,15.5,15.9,15.7,15.9,15.8z"/>
	<path class="st0" d="M13.6,5.5c0.2,0.1,0.3,0.2,0.5,0.3c0.1,0.3,0,0.5-0.2,0.6c0,0-0.1,0.1-0.1,0.1C13.2,6.8,12.6,7,12,7.2
		c-0.2,0.1-0.5,0-0.6-0.2c-0.1-0.3,0-0.5,0.3-0.6c0.5-0.2,1.1-0.4,1.6-0.6C13.4,5.8,13.6,5.7,13.6,5.5L13.6,5.5z"/>
</g>
</svg>
