<svg xmlns="http://www.w3.org/2000/svg" width="154.4" height="201.2" style="overflow:visible;enable-background:new 0 0 154.4 201.2" xml:space="preserve">
    <style>
        .st0{fill:#d9dad9}.st1{fill:#7a6a56}.st2{fill:#fff}.st3{fill:#deedd8}
    </style>
    <path class="st0" d="M9.6 136.6c-.4-1.7-.3-3.3-.3-5-.3-7.1.8-14.2.7-21.4 0-.5.6-1 .9-1.5 1.9-.2 3.6-.4 5.4-.6 2.6-1.3 5.4-1 8.6-1.5.2 1 .4 1.6.4 2.2 0 3.6 0 7.1-.2 10.7-.3 8.2.8 16.3.7 24.5.6 2.7 0 5.5.5 8.1.7 4.4.5 8.8.4 13.2-.1 1.9-.1 3.8-.2 5.7-.1 1.3-.6 2.4-1.9 3.1-.6-.3-1.3-.7-2-.9-1.7-.6-3.4-.7-5.1.2-.4 1.1-.7 2.1-1.1 3-.8 1.8-.8 3.7-.5 5.6.2 1.7.9 3.2 2.7 3.8.5.2.9.7 1.3 1.1.5.5.3 1.9-.3 2.3-.5.3-1 .7-1.5.9-2.1.6-4.3.6-6.4.2-.2 0-.3-.3-.5-.5 1.1-3.1.9-6.4.6-9.7 0-.4-.2-.8-.4-1.2.1-1.1.1-2.5.1-3.6.2-.3.3-.6.4-.8-.2-2.9-.4-5.6-.5-8.3-.1-4.2.3-8.4-.7-12.5-.1-.4-.1-.8-.1-1.3l-.6-13.2c-.2-.9-.2-1.8-.4-2.6z"/>
    <path class="st1" d="M13.6 166.1c4-3 4.1-3 6.3-2.9 1 .9.9 2.2 1.4 3.3 0 1.3-.4 2.4-1.3 3.3-.3.2-.9.4-1 .3-1.4-1.1-2.9-2-4.6-2.5-.4-.1-.5-1-.8-1.5zM13.6 147.9c2-.9 3.7-1.7 5.3-2.4 1.2.1 1.7.6 2.1 1.3.3.5.3 1.5-.1 1.7-1.7.9-3.5 1.9-5.3 2.7-1.4.7-2.6-.5-2.4-2.2 0-.3.1-.4.4-1.1zM19 154.2c.9 0 1.5.5 1.7 1.4.2.6.1 1.3-.3 1.7-1.2 1-2.5 1.9-3.9 2.8-1.3.8-2.6-.3-2.6-2.1 0-.2.1-.4.2-.7 1.4-.9 2.9-1.9 4.3-2.9.2-.2.4-.2.6-.2zM13.9 139.1c1.5-.5 2.8-1 4.1-1.4.5-.1 1.2 0 1.7.2.3.1.6.6.6.9.1.4 0 .9-.2 1.2-.9 1.7-3.5 2.9-5.6 2.6-.7-.1-1.3-.9-1.3-1.8 0-.5.3-.9.7-1.7zM18.6 126c-1.7.4-3 .4-4.4-.3-.2-.5-.4-1-.6-1.6.5-.4.8-1 1.3-1.2 1.1-.4 2.2-.8 3.3-.9.5-.1 1 .4 1.4.6.6 1.4 0 2.4-1 3.4zM13.8 133.4c-.3-.5-.5-1.1-.8-1.7.5-.4.9-1 1.4-1.2 1.3-.6 2.7-.7 4-.6.2 0 .4.1.5.2.7.3.9 1.5.3 2.1-1.5 1.6-3.3 2-5.4 1.2zM14.3 119.8c-.4-.4-.8-.6-1.1-.9-.2-.9.2-1.6.9-2.1 1.2-.9 2.5-1.1 3.9-.8.5.1 1 .6 1.1 1.2.1.8-.4 1.9-1 2.1-.2.1-.4.2-.5.2-1.1.2-2.3.3-3.3.3z"/>
    <path class="st0" d="M131.4 181.6c-.2-.1-.5-.1-.5-.2-.8-1.9-1.6-3.7-2.4-5.6.7-.1 1.5-.2 2.3-.4.9-.2 1.4-1.8.8-2.5-.5-.6-1.1-1.1-1.7-1.7-.5-.7-.5-1.6-.4-2.4.3-2.3.3-4.6 1.1-6.8.6-1.6.7-3.3.2-5-.9-3.1-.6-6.3.1-9.3 1.1-4.4 1.1-8.7.7-13.1v-.6c1.1-1.7 2.6-3.1 3.3-5.2.4-1.3-.6-2.3-.9-3.8v-4.7c.4-1 .8-1.9 1.2-2.9.6-1.7.5-3.3-.5-4.8-.5-.7-1-1.3-1.4-1.9-.7-.2-1.2-.4-1.8-.6-.6-.2-1.2-.3-1.7-.5-.6-.2-1.1-.5-1.6-.7-.6-.2-1.1-.4-1.7-.4-.6-.1-1.2-.1-1.8-.1-1.7.7-3.3 1.5-4.9 2.2-1.7-.9-3.5 0-5.2-.6-1.4-.6-2.9-.9-4.3-1.4-.6-4.9-.6-4.9.3-6.8.9.2 1.8.4 2.8.5.5.1 1.2-.7 1.2-1.2 0-.4 0-.9-.2-1.2-.8-1.3-2.1-1.8-3.5-2.1-1-1.6-.8-3.1.3-4.5.9-.3 1.6.1 2.3.4 1 .4 1.9.4 2.9.1.9-.3 1.5.3 2 .8 1.1 2.9-.4 6.4 1.6 9.3 2 1.1 4.2 1.7 6.6 1.9 2.5.3 5.1.4 7.5 1.4.6.3 1.7-.6 1.8-1.2.1-.6.3-1.2.4-1.8.1-1.3.1-2.5.3-3.8.2-1.4.9-2.8.3-4.3 0-2.3-.4-4.6-1.4-6.7-.5-1.1-1.3-2-2.1-3-.9-.1-1.6-.3-2.4-.3-1 0-2-.1-2.8-.7-3.9-2.3-7.5-1.8-11 1-.3.3-.6.5-1 .8-.4.8-.9 1.7-1.3 2.6-1.8-.2-1.8-.2-3.7-1.5-.2-.4-.4-.8-.4-1.1 0-2.9-.5-5.8.3-8.7.1-.6.1-1.3 0-1.8-.5-1.6-.5-3.3-.4-5 .5-7.1.2-14.3.4-21.4 0-.6.1-1.3 0-1.9-.7-2.7-.4-5.4 0-8.1.1-.8.2-1.6.1-2.5-.2-4.2.2-8.4.4-12.6 0-.4.3-.8.5-1.2 1.7.2 3.5.5 5.4.7.7.6 1.4 1.2 2.2 1.9 1.4 1.2 3 2 4.8 2.2 1.2.1 2.4.2 3.5.5 1.3.4 2.6.9 3.5 2.6 0 1 0 2.2-.1 3.5 0 1-.4 2.2-.2 3.1.6 2.5 0 5-.2 7.4-.1 1 0 2.1.2 3.1.5 2.8 0 5.4-1.2 7.9-1.2 1.1-2.5 1.3-3.9 1.1-1-.2-1.9-.4-2.9-.5-1.2-.1-2.3.4-3.2 1.4-.8.9-1.5 1.9-1.8 3.2-.2.8-.3 1.6-.5 2.4-.9.1-1.7.2-2.4.4-.6.2-.8.9-.9 1.5 0 .7.3 1.1.8 1.5 1 .9 2.2.2 3.5.7.5 3-1 6.2.4 9.4.6.3 1.3.8 2.1.8 4.4.2 8.5 1.6 12.7 2.5 1.2.8 1.8 3 3.9 2 .3-.3.6-.6.7-.9.5-.9.9-1.9 1.2-2.7.4-2.9.7-5.6 1.1-8.3.1-.4.4-.7.6-1.3 1.1-.1 2.2-.2 3.4-.3.8-.1 1.1-1.3.6-2-.2-.3-.4-.8-.7-1-1.5-1-2.8-2.3-4.2-3.5-1.3-1.2-3.1-1.8-4.6-2.7-.2-.1-.3-.2-.4-.3-.8-.9-.9-1.9-.8-2.9.2-4.6.4-9.2.5-13.8 0-1 .2-2.2-.1-3.1-.9-3.2-.4-6.2.4-9.3v-.4c-.1-2.3-1.1-3.7-2.6-4.9.3-.5.6-1.1 1-1.8.1-4.5.2-9.1.4-13.7 0-.8 0-1.7 1-2.1 5.3 2.5 9.4 6.5 13 11.6 0 3.1-.1 6.2-.3 9.4-.1 2.5-.3 5 .2 7.5.3 1.2.2 2.5.2 3.8.1 3.3-.2 6.7.7 10 .1.4.1.8.1 1.3-.2 9 .7 18 .2 27-.1 2.3-.2 4.6.1 6.9.2 1.4.1 2.9.1 4.4l-.6 22c-.2 6.9-.6 13.8-1.3 20.7-.2 2.1-.3 4.2-.2 6.3.1 4.8 0 9.7-.1 14.5-.1 2.3-.3 4.6.3 6.9.1.2 0 .4 0 .6-.2 5.7-.3 11.3-.6 17 0 .4-.3.7-.6 1.1-1.1-.5-2.1-1-3.2-1.5-1.4-.1-1.9 1.3-3 1.7-.4-.1-.8-.1-1.1-.3-.8-.5-1.6-1.2-2.5-1.7-.7-.3-1.5-.5-2.3-.5-1-.1-2 .6-2.3 1.6-.3 1-.4 2-.6 3.1l-.1-.1zM119.8 38.4c.3-.4.6-.9.9-1.4-.3-.6-.6-1.1-.9-1.6-1.8-.8-3.6-1.5-5.4 0-.1 1.8.3 2.6 1.3 3 1.4.4 2.7.5 4.1 0zm22.8-13.5c.5-2.6.2-3.1-2.3-4-1.8.7-2.3 2.1-1.8 4 1.3 1.4 2.7 1.1 4.1 0zm-2 66c.2.5.4 1.1.7 1.6.7 1.1 1.7 1.6 2.8 2.1.6.3 1.5-.3 1.8-1.1.1-.4.1-.8.1-1.2-.7-1.3-1.8-2.1-3.3-2.3-.9-.2-1.5.1-2.1.9zm2.7 39.6c.5-.4 1-.8.8-1.5-.1-.6-.4-1.2-.8-1.6-1.1-1-2.5-1.1-3.9-.8-.4.1-1 1-.9 1.4.2.9.6 1.5 1.3 1.9 1.2.5 2.3.8 3.5.6zm-1.2-77.6c.3-.4.9-.8 1-1.3.3-1.9-1.5-3.5-3.3-3-.6.2-1 .6-1.2 1.2-.2.6-.1 1.2.3 1.7.8 1 1.8 1.5 3.2 1.4zm1.4-21.7c-1.1-.1-2.3-.2-3.4-.2-.7 0-1.4 1.1-1.2 1.8.2.6.5 1.1.9 1.6 1.8.1 3.6.6 4.7-1.6-.3-.4-.6-1-1-1.6zm1.4 86.2c-.2-.5-.2-.9-.5-1.2-1.3-1.2-2.8-1.5-4.4-.9-.3.1-.7.5-.8.8-.1.3.1.9.3 1.1 1.1 1.3 2.6 1.8 4.4 1.5.3-.5.7-.9 1-1.3zm-28.7-72.8h-1.6c-.4 0-.8.1-1.1.2-.4.1-1 .9-1 1.4-.1 1.4.9 2.5 2.1 2.1 1.2-.3 2.1-.9 2.8-2 .3-.5.1-1.3-.5-1.5-.3-.1-.4-.1-.7-.2zm22.4-3c.1 2.2.4 2.7 2.1 2.9h1.2c1-.1 1.6-1.4 1.1-2.3-.3-.5-.8-1-1.3-1.2-.7-.3-1.5-.3-2.1-.4l-1 1zm2.9 101.4c1.1-.2 1.8-.6 1.8-1.6 0-.9-.4-1.6-1.2-2-.9-.5-1.8-.7-2.8-.5-.5.1-1.2.8-1.1 1.3.1.4.2.9.5 1.1.9.7 2 1.2 2.8 1.7zm3-37c.2-.4.7-.9.8-1.4 0-.5-.3-1.2-.7-1.6-.9-.8-1.8-1.5-3.1-1.3-.6.5-1.2 1.1-.9 2 .2.5.6 1.1 1 1.4.8.6 1.7 1.1 2.9.9zm-31.9-32.9c-.2 1.6-.4 3-.6 4.3.3.5.5.9.8 1.1.4.3 1.3.1 1.5-.4.5-1.5 1-3 1.2-4.7-.7-.8-1.5-1.1-2.9-.3zm27.9 6.3c-.1 2.4.3 3 2.3 3.1.5 0 1.1-.1 1.6-.3.3-.1.5-.6.6-.9.2-.6 0-1.2-.4-1.7-1-1-2.4-1.1-4.1-.2zm-.8 75.9c1-.2 1.7-.6 2-1.5-.2-1.7-1.4-2.3-2.6-2.9-.4-.2-1.2.1-1.5.5-.5 1-.5 2.1.3 2.8.6.5 1.3.8 1.8 1.1zM128.8 40.2c-.2-.5-.3-1-.5-1.2-.7-1-1.6-1.2-2.5-.5-.5.3-.8.8-1.2 1.2-.1 1.3.3 2.1 1.2 2.6.6.3 1.2.3 1.6-.2.5-.7 1-1.3 1.4-1.9zm7.4 123.5c1 1.9 1.3 2.2 2.7 2.7.6.2 1.6-.3 1.7-1.1.1-.6 0-1.3-.3-1.7-.4-.6-1.2-.9-1.6-1.3-1.1.1-2 .4-2.5 1.4zM125.4 46.4c-.3-.6-.5-1.2-.9-1.6-.4-.4-1-.6-1.6-.4-.6.3-1 1.3-.8 2.1.2.6.5 1.1 1.1 1.2.4.1.8.2 1.1 0 .4-.3.7-.8 1.1-1.3zM42.7 177.7c-.7.1-1.1-.3-1.4-.8-1.1-1.6-2.7-2.4-4.5-2.9-1.6-.5-3.1-.2-4.5 1.9-.8 2.3-.9 5.2-.6 8.1.4 2.7 2.2 4.9 2.5 7.6-.2.1-.4.3-.5.3-1.6.4-3.1 0-4.7-.1-.7-.1-1.3-1.1-1-1.9.1-.4.2-.8.4-1.2.8-1.8.9-3.6.8-5.9-.7-1.8-1.5-4-2.3-6.1.3-.7.9-.4 1.4-.4.4 0 .8.1 1.1 0 .8-.1 1.6-1.1 1.3-1.8-.9-2.4-1-4.9-.8-7.4.3-5.5-.3-10.9-.3-16.3 0-.4 0-.9-.1-1.3-.8-3.9-.5-7.9-.6-11.9-.1-1.9 0-3.7-.5-5.6-.3-1.2-.2-2.5-.2-3.7 0-2.7.2-5.5.2-8.2 0-2.9.4-5.9-.3-8.8.1-5.9-.2-11.7.4-17.6 0-.2.2-.4.4-.5.2-.2.5.1.6.6.1.2.1.4.1.6.1 1.9 0 3.8.7 5.6.3.7.3 1.6.3 2.5 0 2.1-.1 4.2.4 6.2-.5 4.4.4 8.8-.1 13.1-.4 4.2.5 8.3 1.3 12.4.6 3.1 1.5 6.1 1.2 9.3-.1.6-.1 1.3.1 1.9.8 3.5.6 7.1.7 10.6 0 1.3.1 2.5.2 3.8.4 3.1.2 6.3-.4 9.4.2.5.4 1.2.6 1.7.2.4.4.8.8.9.5.2 1.2.3 1.7.2.5-.2 1-.7 1-1.4 0-1.2.1-2.5-.1-3.7-.6-3.3-.5-6.7-.5-10 0-2.1 0-4.2-.4-6.3-.2-1-.5-2.1.2-3 .5-.8 1.4-.5 2.1-.8 1.2-.5 2-1.4 2.2-2.7.2-.8-.5-1.8-1.2-1.7-1 .1-1.9.4-2.9.6-.2-.3-.5-.6-.6-1-.2-1.9-1.1-3.6-.7-5.5.9-1.4 2.3-1.4 3.6-1.9.6-.3.6-.3 1.8-1.7-.3-.5-.6-1-1-1.4-.6-.6-1.5-.5-2.3-.4-.9.1-1.7 1.1-2.9.6-.9-1.5-1.3-3.3-1.3-5.2 0-2.3 0-4.6.1-6.9 0-2.1.1-4.2-.3-6.3-.3-1.4-.2-2.9-.1-4.4.4-5.1-.4-10-1.1-15-.3-2.3-.5-4.6-.4-6.9.3-6.3.5-12.6.7-18.9.1-2.1 0-4.1-.4-6.2-.9-4.1-1.2-8.3-1-12.5.1-2.7.1-5.4-.4-8.1-.3-1.6-.1-3.3 0-5 0-.3.4-.8.7-.9 1.1-.3 2.3-.6 4.1-1 1.1-.7 2.8-1.8 4.4-2.8.7.2 1.3.3 2 .5 1.6-.4 3.3-.8 4.7-1.2 1.1.4 1.5 1.2 1.6 2 .1 1 .1 2.1 0 3.1-.3 7.1-.7 14-.9 21-.2 6.5-.3 13-.5 19.5l-.3 6.9c-.1 2.3.2 4.6-.2 6.9-.2.8-.2 1.7-.1 2.5.6 5.7-.1 11.3-.3 17-.1 3.5-.1 7.1-1 10.6-.3 1.2-.2 2.5-.1 3.7.3 2.1.2 4.2.1 6.3-.2 7.1-.3 14.3-.4 21.4 0 .4-.1.9 0 1.3.8 5 .4 10 .7 15.2-1 .8-2.2 1.6-3.2 2.6-.9.9-1.4 2.1-.8 3.4.5 1.2 1 2.3.6 3.6l.4-.2zM41 53.2c-1.6.7-3.5 1.3-5.1 2.5-.6.5-.7 1.5-.1 2.2.4.5.9.9 1.5.8 1.6-.2 3.1-.7 4.4-1.6.7-.4 1.1-1.2 1.1-2.1-.2-.8-.7-1.4-1.8-1.8zM42.3 74c-.5-.8-1.2-1.2-2-.8-1.5.9-3 1.9-4.4 2.9-.2.2-.3.7-.3 1.1.2 1.3 1.6 2.3 2.6 1.7 1.4-.8 2.9-1.3 4.1-2.7V74zm-.8 28.3c-.2-.4-.3-1.1-.7-1.4-.4-.4-1.1-.4-1.6-.1-1.4.8-2.6 1.8-3.6 3.1-.4.5-.3 1.7.2 2.3.5.5 1 .7 1.6.4 1.5-.6 2.6-1.7 3.7-2.9.1-.4.2-.9.4-1.4zm.1-37.7c-.4-.2-.8-.4-1.1-.4-.4-.1-.8-.1-1.1.1-1.3.5-2.6.8-3.4 2.1-.4.7-.4 1.5.2 2.2.6.7 1.4.8 2.1.6 1.5-.4 2.9-1 3.9-2.4.1-.2.1-.4.2-.7-.4-.5-.6-1-.8-1.5zm-.8 54.1c-1.6.4-3.4.8-4.6 2.3-.2.3-.4.7-.4 1.1-.1.9 1.2 2 2 1.8 1.8-.5 3.3-1.4 4.4-2.9.1-.2.1-.4.2-.6-.3-.8-.7-1.4-1.6-1.7zm-2.6-4.1c1.3-1 2.3-1.7 3.2-2.5.6-.6.9-1.4.5-2.3-.2-.3-.6-.5-1-.8-.8.3-1.8.5-2.7.9-.5.2-1 .7-1.4 1.1-.6.5-.7 1.6-.2 2.3.3.4.8.6 1.6 1.3zM34.9 95c.1.9.6 1.6 1.4 1.8.5.1 1.3.1 1.7-.1 1-.6 2-1.4 2.9-2.1.6-.5.5-1.6-.1-2.7-1.2-.4-2.3.2-3.3.8-1 .5-2.1.9-2.6 2.3zm6.2-11.4c-.2 0-.4-.2-.6-.1-1.1.3-2.2.6-3.3 1-1.5.6-1.8 2.1-.8 3.4.3.4.9.6 1.5.9 1.2-.8 2.3-1.6 3.3-2.4.5-.4.6-1.1.4-1.7-.1-.4-.3-.7-.5-1.1zm0-39.7c-.7.1-1.6.2-2.6.4-.6.1-1.1 1.3-.8 2 .2.6.6 1.1 1.2 1.2 1.6.3 3-.2 4.2-1.5.2-.2.3-.8.2-1.1-.1-.3-.5-.6-.8-.8-.4-.1-.8-.1-1.4-.2zM51.2 170.6c1 0 2 .1 3 .1.3-.6.7-1.2.8-1.7.2-1 .2-2.1.2-3.1.1-.8 0-1.7.1-2.5.7-4.5.6-4.5.4-8.5-.2-4-.1-8 0-11.9 0-3.3.6-6.7-.1-10-.3-1.4.2-2.9.2-4.4 0-5.7.3-11.3.5-17 0-.8.2-1.7.1-2.5-.1-2.5 1.4-4.9.5-7.4.1-2.3.1-4.6.2-6.9.1-2.5.3-5 .1-7.5-.3-3.5-.9-7-1.5-11.4 1-6.2 1.6-13.3 1.7-20.4 0-5.3.5-10.5 1-15.7.1-.6 0-1.3.2-1.9.6-2.3.8-4.5.3-6.8-.1-.4 0-.8.1-1.2.1-.4.3-.8.5-1.1.2-.3.5-.6 1-1.1 1.5-.4 3.2-.9 4.9-1.3.9-.2 2-.1 2.7 1.1.4 1.9-.1 4 .7 6 .3.7.1 1.6.1 2.5-.1 4.6-.2 9.2-.4 13.8-.6 12.1-1.3 24.3-1.7 36.4-.1 3.5-.3 7.1.3 10.6.2 1-.8 1.9-2 1.2-.2-.1-.3-.2-.5-.3-.4-.1-.8-.2-1.1-.3-1.1.5-2.2 1-2.8 2.2-.2.3-.1.8-.1 1.2 2 1.6 2.7 1.4 5.3-1.3.5 0 .8.2.9.6.1.6.3 1.2.3 1.8.1 6.7-.4 13.4-.8 20.3.3 1 .7 2.1 1.2 3.5-.1 1.7-.3 3.5-.4 5.2-1.3 1.9-3.4 1.4-4.7 2.7-.7.9-1 1.8-1 2.9-.4 5.4-.7 10.9-1.1 16.3-.3 5.2-.6 10.5-.9 15.7 0 .6-.2 1.2-.2 1.5-.4 1.4-1.5 1.7-2.2 2.5-.7.7-1.4 1.5-2 2.3-.7 1-1.2 2.1-1.7 3 .3 2.3.6 4.4.9 6.5.1.8.4 1.6.6 2.4.5 1.6 1.1 3.1 1.6 4.8-.4.5-.7 1.2-1.2 1.3-.9.2-1.9.2-2.8.2l-1-1c0-4.6 0-9.2.7-13.8.4-2.3.2-4.6-.9-6.7-.1-.1 0-.5 0-.9zM65.5 54.7c-.7-1.2-.7-1.2-2.4-1.8-1.3.5-2.7 1.2-4.2 1.8-.1.7-.3 1.4-.1 1.8.2.5.9.8 1.4 1 .5.2 1.2.2 1.7 0C63 57 64 56.4 65 55.8c.3-.2.4-.7.5-1.1zm-.7-9.5c0-.6-.5-1.1-1.1-1.2-1.6-.2-3 .3-4.2 1.4-.5.4-.5 1.1-.3 1.7.1.7 1 1.5 1.6 1.5 1.6-.1 3-.7 3.8-2.2.2-.4.1-.8.2-1.2zM60.7 77c.4 1 .9 1.8 2 1.8 1.1-.3 2.2-.8 3-1.7.5-1.1.4-2-.5-2.7-.7-.4-1.5-.3-2.2 0-1.2.5-2.1 1.2-2.3 2.6zm1.7-9.8c1.4-.9 2.5-1.6 3.6-2.5.2-.2.4-.7.3-1.1-.1-.3-.4-.7-.7-.9-1.6-.6-3-.3-4.3.8-.8.6-.9 1.7-.2 2.7.2.4.6.5 1.3 1zm2.7-29c-.2-.8-.7-1.4-1.5-1.6-.9-.3-1.9-.5-2.8 0-.9.5-1.5 1.2-1.1 2.4 1.5 1.1 1.5 1 2 1 1.4-.1 2.6-.5 3.4-1.8zm.2 49.1c.1-.4.2-.6.2-.8 0-1.6-.8-2.4-2.1-1.9-.9.4-1.8.8-2.5 1.6-.3 2-.3 2 1.4 2.7 1.1-.6 2.1-1.1 3-1.6zm-1.4 35.3c-.6-.7-1.2-.9-2.1-.6-1.3.4-1.8 1.5-2.2 2.7.2.3.3.8.6 1 .5.5 1 .6 1.6.2 1.3-.7 2.2-1.6 2.1-3.3zM61.8 111c-1.7.7-2 1-2.1 1.9-.1 1.3.7 1.7 1.9 2.1.5-.3 1.2-.6 1.8-1.1.5-.4.6-1.2.1-1.6-.5-.5-1.1-.9-1.7-1.3zM76 88c1.4-.8 2.5-1.3 3.5-2 .5-.3.8-.9 1.2-1.4.5-.7 0-1.8-.8-1.9-.4-.1-.8-.1-1.2 0-.6.1-1.1.4-1.7.6-.3-.2-.7-.4-.8-.7-.6-2.2-.9-4.5-.3-6.9.6-.2 1.4-.3 2-.7 1-.7 1.9-1.5 2.8-2.3.3-.3.5-.7.6-1 .1-.4.1-.8 0-1.2-.1-.4-1.1-.9-1.5-.7-1.2.6-2.5 1.3-3.7 1.9-.2-.4-.4-.8-.4-1.2 0-2.1-.3-4.2.1-6.1 1-2.2 3.2-2.7 4.5-4.3.2-.3.3-.8.2-1.1-.1-.3-.5-.6-.9-.7-.3-.1-.8-.1-1.1 0-.6.1-1.1.4-1.7.5-.4.1-.8.2-1.3.3-.6-2.9.6-5.8.1-7.9.6-1.6 1.3-2 2-2.3 1.1-.5 2.2-.9 3.1-1.9.2-.3.3-.7.4-1.1.1-.5-.5-1.1-1.1-1.2-.8-.1-1.6 0-2.3 0-.8 0-1.5-.8-1.5-1.6v-3.5c.5-1.1 1.2-1.4 2-1.5.8-.1 1.5-.5 2.1-1.1.5-.4.6-1.8 0-2.3-.5-.4-1-.7-1.5-.9-.6-.2-1.2-.1-1.8-.1-.1-.1-.3-.3-.3-.5-.5-1.9.3-3.7.2-5.2.9-1.5 2.1-1.9 3.2-2 2 0 3.9.1 6 .2.2.5.8 1.1.7 1.6-1.3 4.9-.9 10-1.3 15-.2 3.6-.3 7.1-.4 10.7-.1 2.3-.3 4.6-.3 6.9 0 2.3.3 4.6.4 6.9.1 3.6 0 7.1 0 10.7 0 3.6-.4 7.1.2 10.7v.6c-.6 4-.1 7.9-.3 11.9-.2 4.2-.2 8.4-.4 12.6-.1 4-.4 8-.5 12-.6.9-1.3 1.9-1.9 2.8-1.6.6-2.9.1-4.2.3-.4-.4-.7-.6-1.1-1 0-1.4 0-2.8-.1-4.3 0-1-.1-2.1-.2-3.1-.1-1.2-.4-2.5-.5-3.7 0-1.5.1-2.9.2-4.2.4-1.2 1.5-1.7 1.3-3l-1.8-2.4c-.1-.4-.3-.8-.3-1.2 0-1.9-.2-3.8.3-5.6 1-.7 2-1.3 2.9-2 1-.8.6-2.6-.5-3-.6-.2-1.2-.2-1.7-.4-.2-.3-.5-.6-.8-1 0-2 .1-3.9.2-6z"/>
    <path class="st2" d="M92.9 5.4c.5-.2 1-.6 1.5-.7 1.6-.3 3.2 0 4.6.7 1.9 1 3.8 2.2 5.6 3.4.3.2.4.7.7 1-.3.2-.7.5-1 .5-1.8.1-2.9 1.2-3.6 2.9-.1.2-.3.3-.5.5-.8.2-1.8.4-2.9.6-.2.4-.6.9-.7 1.5-.1.6.3 1.2.4 1.8.1 1.1-.2 2-1 2.8-.3.2-.5.6-.8 1-.5.8.3 1.5.3 2.4 0 .6.1 1.3 0 1.9-.9 4.4-.1 8.8-.7 13.2-.1.6-.2 1.3-.4 1.8-1 2.4-1.1 4.9-.7 7.4.4 2.5.4 5 .2 7.5-.2 4-.2 8-.3 11.9-.1 2.3-.2 4.6-1 6.8-.4 1.1-.5 2.5-.6 3.7-.3 3.3-.7 6.7-.8 10-.2 5.9-.1 11.7-.2 17.6.8 3.9.3 7.9.5 11.9.1 2.3 0 4.6.4 6.9.4 2 .3 4.2-.2 6.2 0 .2-.2.3-.4.5-2.5-.5-3.6-2.3-3.8-4.8-.1-.8-.1-1.7-.1-2.5.1-5.7.2-11.3.5-17 .1-2.5.3-5-.2-7.5-.2-1 0-2.1 0-3.1.3-12.4.7-24.7 1-37.1 0-.6.2-1.3 0-1.9-.9-2.5-.5-5-.4-7.5.2-5.7.5-11.3.8-17 0-.6 0-1.3.2-1.9 1.4-4.9 1.4-9.9 1.9-14.9.5-3.4.9-6.9 1.7-10.5zM51.2 170.6c-.9 0-1.5-.4-1.8-1.3-.2-.6-.3-1.2-.3-1.8-.2-4 .1-8-.7-11.9v-.6c-.2-12.8-.5-25.5.5-38.3.6-8.4.7-16.7 1.1-25.1.3-7.3.5-14.7.8-22 .1-2.1-.3-4.2-.1-6.2l.6-6.9c.2-2.1.3-4.2.4-6.3.4-9.6.7-19.3 1.1-28.9.1-1.9 0-3.8-.2-5.6 0-.2.2-.3.4-.6 2.1 2.6 3.6 5.4 4.8 8.5-.1 1.4-1.3 1.6-2 2.7-.7 1.2-.6 3-.2 4.6.9 4.2.2 8.3-.5 12.4-.4 2.3-.7 4.5-.8 6.8-.1 2.3-.2 4.6-.1 6.9 0 5.9-.5 11.7-1.5 17.6.5 3.2.5 6.5 1.2 9.8.3 1.6.2 3.3.1 5-.1 2.9-.2 5.8.1 8.8.3 3.1.1 6.3-.4 9.4-.3 1.6-.7 3.3-.5 5 .3 3.2-.1 6.2-.4 9.4-.4 3.3-.5 6.7-.1 10 .3 2.7.2 5.4.2 8.2 0 3.6-.3 7.1-.3 10.7 0 2.1.4 4.2.5 6.2 0 1.9-1 3.6-.8 5.6.1 1.4.1 2.9 0 4.3-.6 1.1-.9 2.3-1.1 3.6zM72.6 168.6c-.7-1-1.3-1.8-1.8-2.6-.1-.3-.2-.5-.2-.7 0-.2-.1-.4-.1-.6-.4-9.4-.2-18.8-.1-28.2 0-.6.2-1.2.4-1.9 2.6-1.4 5.4-2.5 8.4-2.6 2.5-.1 5.1 0 7.6 0 .3 0 .7.3 1.1.5-.5.4-.8 1.1-1.3 1.2-.9.2-1.9.3-2.9.3-1.6 0-2.5 1-3.1 2.4-.6 1.4-.8 2.8-.6 4.3.1.8.3 1.6.5 2.5-.3 1.2-.8 2.4-.8 3.6 0 1 .4 2 .6 3 .1.4.1.8.3 1.5-.3.8-.7 1.7-1.2 2.6-.3 3.3-.5 6.6-.8 9.8-.6.8-1 1.5-1.5 2.1.1 1.7.2 3.4.4 5 .1.6.1 1.3.3 1.8.7 1.9.3 3.7-.2 5.5.4 2.9.9 5.8 1.2 8.7.1 1.2.4 2.5-.7 3.8-1.4.2-2.9.5-4.3.7-.7-.5-1.2-.9-1.1-1.6.2-1 .5-2 .9-3 .7-2 1-4.1.3-6.1-.9-2.8-1.4-5.6-.9-8.6.2-1-.3-2.3-.4-3.4zm-.9-22.9c0 1.6.7 2.4 1.8 2.6.2 0 .4 0 .6-.1.7-.2 1.3-1 1.4-1.8 0-.7-.7-1.3-1.6-1.5-.9-.1-1.6.3-2.2.8z"/>
    <path class="st0" d="M15.4 34.4c1.6.4 3.3.9 4.9 1.4.2 0 .3.3.4.4.1.4.4.8.4 1.1 0 4.6.8 9.1 1.7 13.6.4 2.1.5 4.1 0 6.2 0 .2-.3.3-.4.4-1.2-.2-2.3-.5-3.4-.6-.8-.1-1.5.3-2.2.8-1.1.8-1.2 2.1-.1 3.1.3.3.7.4 1 .6 1.6-.2 3-1.1 4.5-1.8.3.4.8.9 1 1.4.6 1.8.4 3.7.4 5.6 0 2.7-.2 5.4.4 8.1-.5 2.8.4 5.4.7 8.1.1.6.2 1.2.2 1.9 0 2.1-.1 4.2-.2 6.3 0 .6-.2 1.2-.3 1.8-1.1.2-2-.2-2.7-.9-1-.9-1.9-2-3.1-3.2-1.2-.3-2.5-.6-3.8-.9-.3-.4-.6-.6-.7-1-.6-1.6-.7-3.3-.3-4.9 1.1-4.3.6-8.7.7-13.1-.6-2.7-.2-5.4-.2-8.1 0-1.5.2-3-.2-4.4-.5-2.1-.4-4.2-.3-6.2l.3-13.2c.3-.9.5-1.7 1.3-2.5zm2.4 37.1c.1 1.3.8 1.8 1.8 1.9 1.3.1 2.3-.5 2.8-1.7.3-.6-.2-1.9-.8-2-1.6-.2-3.1-.1-3.8 1.8zm-1.6-21.4c.3 1.7.3 1.7 2 2.8.6-.3 1.3-.5 1.9-.9.8-.5.7-2.1-.1-2.6-.3-.2-.7-.4-1-.5-1.4-.5-1.6-.4-2.8 1.2zM21.6 81c-.1-1.2-.6-1.7-1.5-2-.4.3-.9.6-1.3.9-.6 1.2-.7 2.4-.4 3.6.1.4.3.8.6 1 .5.4 1.1.1 1.6-.4.4-1.1.7-2.2 1-3.1zM99.3 127c.9 1.1 1.5 1.6 1.9 2.3.2.2 0 .7 0 1.2-1.7.5-3.3 1.1-5 1.3-.2-.4-.5-.8-.5-1.2-.1-1.2-.2-2.5-.1-3.8.1-3.1.1-6.3-.3-9.4-.2-1.9.1-3.8-.2-5.6-.7-4.4-.3-8.7-.3-13.1 0-1.3.1-2.5 0-3.8-.2-6.7.3-13.4 1.7-20 .3-1.6.4-3.3.5-5 .2-3.3.2-6.7.4-10 0-.6.3-1.2.4-1.8 1.4.2 2 1.3 2.6 2.6-.1 1-.2 2.3-.3 3.5-.1 1.3-.2 2.5-.3 3.8-.2 5.2-.4 10.5-.6 15.7-.1 3.1.6 6.2.3 9.4-.3 3.7-.2 7.5-.2 11.3 0 1.5 0 2.9.1 4.4.1 1.1.1 2.1-.1 3.1-.3 2.5-.6 5 .1 7.5.3 1 .1 2.1.1 3.1-.1 1.5-.2 2.9-.2 4.5z"/>
    <path class="st2" d="M102.9 126.7c-.7-5.2-.8-10.4-.5-15.6.2-4 .3-8 .4-11.9 0-2.1.1-4.2-.3-6.3.6-2.1.3-4.1.1-6.2-.1-1-.1-2.1-.1-3.1.1-7.3.6-14.7 1.2-22 .1-1.6 1.1-2 2.5-1.1.7.5 1.2 1.1 1.4 1.9.2.8.2 1.7.2 2.5-.3 10.3-.4 20.6-1 30.8-.5 8.2-.2 16.4-.9 24.5-.2 2.1-.4 4.2-.7 6.2 0 .3-.4.8-.7.9-.7.3-1.2 0-1.6-.6zM52.5 197.2c.3-.3.5-.8.8-.8 4.5-.6 8.9-1.4 13.4-2.2 1-.2 2-.1 2.9-.1 2.4 0 4.7.1 7.1.1 2.4 0 4.7.1 7-.7.9-.3 1.9-.2 2.9-.2 1-.1 2 .2 2.8.8.9.6 1.9.9 2.8.6 2.1-.7 4.3 0 6.4-.2 2.1-.3 4.3-.1 6.5-.3 1.6-.1 3.1-.4 4.8-.6 1.9.5 4 1.5 6.3 1 1.2-.6 2.5-1.3 3.9-2 1.2.1 2.6 0 4 .2 1.7.3 3.4 1.2 5.2.5 4.2 1.1 8.6.7 12.9 1.4.4.1.7.3 1.1.4-.3.9-1.1 1.1-1.8 1.4-1.7.6-3.5.7-5.2.1-2.1-.7-4.2-.7-6.4-.2-2.1.5-4.3.5-6.4 1-1.5.3-3.1.1-4.7 0-1.8-.1-3.5-.2-5.3-.4-1.6-.1-3.1 0-4.5.6-5.2-1-10.3-1.3-15.4-.5-2.3.3-4.7.4-7 .8-2.5.5-5.1.3-7.6-.3-4.8-1.1-9.7-1.3-14.6-.6-1.5.2-3.1.2-4.7.2-2.4-.1-4.7-.2-7.1-.3l-.1.3zM26.2 26.3c-.1 1.1.4 1.8.7 2.5.3.5.6 1.1 1 1.7 0 .9.1 2 0 3-.3 1.9-.5 3.7 0 5.6.5 1.8.5 3.7.5 5.6.1 5 .4 10 .5 15 0 .4 0 .9.1 1.2.9 3.1.7 6.2.5 9.3-.2 5.2-.5 10.5-.8 15.7 0 .2-.2.4-.3.6-.2-.3-.4-.5-.4-.7-.1-2.1-.1-4.2-.2-6.3-1.2-3.2-.6-6.6-.6-9.9 0-2.3.1-4.6-.4-6.9-.2-1-.3-2.1-.3-3.1-.1-2.7 0-5.4-.5-8.1-.5-2.4-.4-5-1-7.4-.5-2-.3-4.2-.8-6.2-.5-1.9.6-3.6.2-5.6-.4-2-.3-4.2-.3-6.2.1-1.9.5-3.7.7-5.6.1-.7 1.2-1.3 1.9-1.1.4.1.8.2 1.1.4 1.2.7 2.4 1.4 3.6 2.2 1.9 1.4 3.8 2.9 5.7 4.5.4.4.7 1 1 1.5-.8 1.3-1.9 2.2-3.1 2.9-.5.3-.9.2-2-.5.3-.8.7-1.5.9-2.3.2-.9-.2-1.6-1.1-2.1-1.6-.5-3.4-.4-5.2-.4-.5.1-1 .5-1.4.7z"/>
    <path class="st0" d="M103.3 41.3c1.2-1.5 1.2-1.5.1-3.2-1.2-.3-2.6-.5-3.9-.8-.3-.4-.7-.7-.7-1-.3-3.7-.3-7.5.5-11.3 2.2-1.5 4.5-2.5 7.2-2.1.3.3.6.5.9.8.2 2.3.6 4.5.6 6.8 0 4-.3 7.9-.5 11.9 0 .8-.2 1.6-.2 1.7-.4 1.2-.7 1.4-1.1 1.4-2.8.5-5.2 1.8-7.6 3.3-.4.3-1.2-.3-1.3-.9-.4-2.1-.3-4.2.4-6.2.2-.5.7-1 1-1.5 1.6.7 2.9 1.8 4.6 1.1z"/>
    <path class="st2" d="M74.1 129.2c-.1.2-.2.4-.4.5-.7.3-1.4.6-2.1.8-.3-.4-.8-.7-.8-.9 0-1.9.1-3.7.2-5.5-.7-2.1-1.3-4-1.1-6.2.3-4 .4-7.9.6-11.9 0-.8.1-1.7 0-2.5-.6-14.2-.5-22.3.4-35.7.1-2.3.6-4.6.1-6.9-.2-.9.1-1.6.2-2.4.4-2.5.6-5 .3-7.5 0-.4-.3-.9-.1-1.2 1.3-3.5.2-7.4 1.6-11.5.2 2.8.3 5.1.1 7.4-.8 8.6-.8 17.1-.8 25.7 0 2.9.5 5.8.4 8.8-.2 4.6-.3 9.2-.4 13.8-.1 2.3-.3 4.6 0 6.9.4 3.1.4 6.2.4 9.4 0 1.7.5 3.4.3 5-.3 1.9-.1 3.6.4 5.5.4 1.6.1 3.3 0 5 0 1.1.4 2.2.7 3.4z"/>
    <path class="st3" d="M17.3 92c1.4 1.4 3 2.9 4.8 4.7.5 1.6 1 3.6 2.2 5.2.3.4-.2 1.4-.7 1.4-.4.1-.8.2-1.1.2-2.2 0-4.3.1-6.4.8-1.3.4-2.7.3-4.2.5-1.2-.7-2.4-1.3-3.6-2-1.3-.7-2-1.9-2.4-3.4 0-1.1.7-1.9 1.5-2.5.3-.2.7-.5 1-.6 1.5-.6 2.8-1.5 3.8-2.9 1.3-1.6 3-1.9 5.1-1.4z"/>
    <path class="st2" d="M109 129.6c-.2-5.7.2-13.5.8-16.4 0-.2.2-.3.4-.5.5.1 1.1.2 1.6.3 1.1 1 .7 2.4 1.2 3.7.5.6 1.2 1.4 1.8 2.2l.3 1.2c0 1.2-.1 2.5-.1 3.7.1 1.3.7 2.4 2.1 3.1h4.4c2.8 0 5.4.5 7.8 2.3-.8 1.4-1.7 2.8-1.7 4.5 0 .3-.5.6-.7.9-1.1-.1-1.8-.8-2.5-1.5s-1.5-1.3-2.3-1.9c-1.2-.2-2.4-.5-3.5-.5-2.2-.1-4.3-.3-6.3-1.1-.9-.4-2 0-3.3 0zM67.7 167.9c-.8 1.4-1.6 2.8-2.3 4.1-.2 2.4-.4 4.7-.7 7 0 .1-.2.1-.4.2-1.2-1.9-1.7-4.2-2.7-6.3.2-1.5.4-3.2.6-4.8.2-1.5.5-2.9.6-4.4.2-1.5.2-2.9.3-4.4.3-5.2.5-10.5.9-15.7.1-1.9.4-3.7.8-5.6.2-.8.8-1.4 1.7-1.4.1.6.4 1.2.4 1.8.4 6.9.6 13.8.2 20.7-.1 1.3 0 2.5-.2 3.8-.2 1.8.4 3.4.8 5zM110.9 138.7c.4-.1 1-.5 1.5-.4 1 .2 1.9.6 2.8.9 2.4.9 4.8 1.8 7.4 1.9 1.8.1 3.4.8 5.1 1.6.1.5.3 1.1.3 1.7 0 1.7-.5 3.3-1.3 4.7-1.6.3-3.2.1-8.6-1.1-2.7-.6-5.3-1.2-8-1.8-.7-.5-.9-1.3-.7-2.2.4-1.6.9-3.4 1.5-5.3zM113.4 7.6c.8-.2 1.3-.4 1.8-.4 3.7.1 7.5.3 11.2.5 1.4.1 2.7.5 3.6 1.8.7 5.4.7 5.4-.4 14.9-1.9 1.1-3 1-5.3-.5 1.3-7.1 1.3-7.1-.2-10.9-.6-.8-1.5-1.4-2.4-1.7-2.9-.6-5.4-2.3-8.3-3.7zM136.2 70.2c.3.6.7 1.1.8 1.7.2 1.2 0 2.5-.4 3.7-.4 1-1.3 1.8-2.2 1.7-1.2-.1-2.4 0-3.5-.4-2.6-.8-5.3-1.4-8-1.9-1.1-.2-1.9-1.5-1.8-2.8.1-1.4.3-2.9.4-4.3.3-.2.7-.7.9-.6 1.2.1 2.3.4 3.4.7 3.5.7 6.9 1.5 10.4 2.2zM122.1 180.8c.7 2.7 1.5 5.5 2.2 8.3 0 .1-.1.3-.2.6-1.7.5-3.4.4-5.2-.1-2.1-3.1-.4-6.5-.6-9.9-.4-1-.8-2.2-1.3-3.3-.8-1.9-2.2-2.9-4.1-3.1-1-.1-2 0-2.8 0-1 .6-1.8 1.2-2.6 1.7-.7-.7-.5-1.5-.2-2.5.7-.4 1.5-1 2-1.3 2.5-.8 6.5-.2 12.4 1.7.9 4.5.9 4.5.4 7.9zM106.9 139.7c-.4 1.2-.6 1.8-.7 2.4-1 4.1-.8 4.7-5.7 6.5-.5 0-1.3.1-2.1 0-4.1-.4-8.2-.5-12.3.6-.4.1-.8.1-1.2.1-.9.1-1.6-.5-1.6-1.3 0-.5.5-1.2 1.1-1.3 2.4-.3 4.6-1.2 7-2.1 2.8 0 5.7-.2 8.6-1.3 2-1 3.6-3.4 6.9-3.6zM94.5 138.2c.4-.7 1-1.5 1.5-2.5 2.3-1 4.5-1 6.5 1.2-1.9 2.3-3.9 3.8-6.6 4.2-.4.1-.8.1-1.2.2-3.3.5-6.6.7-9.4 1.9-1.3-.3-1.9-.8-2.1-1.7-.3-1.2-.5-2.5.8-3.6 1-.1 2.1-.2 3.3-.4 1-.2 1.9-.5 2.7-.8 1.6.6 2.5 2.6 4.5 1.5z"/>
    <path class="st3" d="M20.6 30.9c-.3.3-.6.6-1.1 1-1-.2-2.2-.2-3.3-.7-1.7-.8-3.4-.8-5.1-.2-.3.1-.8 0-1.1 0-.5-.4-1-1-.6-1.5 1.1-1.5.7-3.2.9-4.8.3-.3.6-.6.8-.9 1.4-.2 2.9-.4 4 .4 1.5 1 3 .6 4.5.5.2 0 .4.1.6.2 1.1 1.9.3 4 .4 6z"/>
    <path class="st2" d="M80 166.2c.6-.5 1-1 1.5-1.3 1.1-.5 2.2-1 3.3-1.3 4.5-1.2 9.1-2.4 13.7-3.1 1.8-.3 3.5-.2 5.2.5.3.1.6.5.7.9 0 .3-.2.8-.5 1-.5.4-1 .7-1.5.9-.6.2-1.2.2-1.7.1-4.4-.9-8.5.3-12.6 2.1-2.2 1-4.5 1.3-6.8 1.3-.4.1-.8-.6-1.3-1.1zM122.1 100.2c-.3-2-1.6-3.8.1-5.6.5-.1 1.1-.3 1.6-.4 1-.1 2 0 2.7 0 .6.3 1 .4 1.3.7.9.8 1.6 1.9 2.5 2.6.9.7 2.1 1.1 2.9 1.5.4 1.3.3 2.3-.2 3.2-.3.2-.7.6-1 .6-1.6 0-7.1-1.3-8.6-1.8-.2-.2-.6-.4-1.3-.8z"/>
    <path class="st3" d="M94.2 177.8c.6 2.5.3 5 .1 7.4-.1 1.3-.6 2.4-1.1 3.5-.4.8-.9 1.3-1.8 1.4-1.1 0-1.9-.4-2.4-1.5-1.3-3-.9-6.4 1-8.7.8-.9 1.7-1.8 2.8-2.2.5-.1.9.1 1.4.1z"/>
    <path class="st2" d="M108.9 167.6c-1.1-.2-1.5-1.1-1.6-2.2-.1-1.4 0-1.4 1.3-4 .7-.5 1.4-.7 2.2-.6.6.1 1.2.1 1.7.3 3.8 1.7 7.7 2.8 11.9 2.9.4 0 .8.2 1.1.4.2.2.3.7.3 1 0 .1-.2.3-.4.4-1.3.6-2.7.4-4 0-2.4-.9-5-1-7.5-1.2h-1.8c-1.5.1-2.5.9-2.8 2.6 0 .1-.3.2-.4.4z"/>
    <path class="st3" d="M115.4 180.3c-.6 2.2-.6 4.2-.1 6.3.2 1 .2 2.1.1 3.1 0 .3-.4.7-.7.9-1.5.7-3.4-.2-3.8-1.8-.1-.4-.3-.8-.3-1.2.1-3.6.1-7.1.7-10.6.1-.6.9-.9 1.4-.6 1.4 1 1.4 1 2.7 3.9zM120 114.2c2.1-.9 3.5-2.7 5.6-2.7 3.1 1.1 3.1 1.1 6.4 3.9.3.7-.2 1.2-.6 1.5-.5.3-1.2.5-1.7.3-3.2-1.6-6.4-1.4-9.8-.7-1.2.2-2.3-.2-3.2-1.2-.3-.4-.4-.8-.2-1.1.2-.3.5-.6.8-.8.1-.1.4-.1.6 0 .8.2 1.3.4 2.1.8z"/>
    <path class="st2" d="M80.9 21.7c-1.3-1.6-2.4-3-3.6-4.5 1.6-1.3 3.4-1.1 5-1.5 1.5-.3 3.1-.4 4.6-.7.2.3.5.6.8 1-.1 1.3-.1 2.8-.2 4.2-.3.9-.8 1.4-1.6 1.6-1.5.5-3 .2-5-.1z"/>
    <path class="st3" d="M38.9 179.3c.2 2.5.3 4.7.4 7.3-.3 1.3-.5 3-1.5 4.4-.4-.4-1-.7-1.3-1.2-1.2-1.9-1.7-4.2-2.2-6.4-.3-1.2-.1-2.5.1-3.7.2-1.4 1.8-2.4 3.2-1.4.3.2.6.4 1.3 1zM58.8 176c.4.2 1 .4 1.3.8.5.6.8 1.4 1.2 2.3 0 2.7.3 5.6-.4 8.4-.2.8-.6 1.5-1.3 1.9-.1 0-.4 0-.4-.1-.9-1.6-1.7-3.2-2.3-4.3-.4-2.4-.3-4.3-.1-6.1 0-1.2.7-2.2 2-2.9z"/>
    <path class="st2" d="M96.5 173c1.3-.7 2.4-1.2 3.6-1.1.2.3.5.6.7.9 0 .4.1.9-.1 1.2-.7 2-1.6 3.9-2.2 5.8-.3 1-.4 2-.6 2.8.5 3.1 1.3 5.8 2.8 8.2-1.7 1-3 .9-4.1-.3-.4-1 .1-2 .1-3.1.1-.8.2-1.7.3-2.5.1-1 .1-2.1.2-3.1 0-1 .1-2.1.1-3.1 0-.8.1-1.7 0-2.5-.3-.9-.5-1.9-.8-3.2z"/>
    <path class="st3" d="M23.6 190.2c-1.3-1.8.1-4-.8-5.9-.6-1.2-2-1-3-1.7-.7-.5-1.1-1.2-1.2-2v-1.2c.1-1.1.3-2 1.4-2.5.8-.3 1.5.1 2.2.5.6.5 1.2 1.1 1.8 1.7.5 1.4 1.1 3 1.7 4.6-.2 1.5-.3 3.2-.6 4.8 0 1-.6 1.5-1.5 1.7z"/>
    <path class="st2" d="M130.9 121.8c.1 1.1.1 1.7.2 2.4-.5.2-1 .5-1.6.7-2.7-1.5-5.6-1.6-8.5-1.8-.8 0-1.5-.1-2.3-.2-.3-.6-.6-1.1-1-1.7.4-.5.7-1 1.1-1.5 2.5-.1 5-.2 7.6-.3 1.5.8 2.8 1.5 4.5 2.4zM109.6 150.6c2.8-.3 5.6-.2 8.2.6 2.8.9 5.9.6 8.2 3-.1.3-.1.9-.3 1-.7.4-1.4.6-2.1.9-2.3-.9-4.5-1.6-6.9-1.9-2.5-.3-4.9-1.5-7-3.1-.1 0-.1-.2-.1-.5z"/>
    <path class="st3" d="M128.4 90.7c-1.5-.1-2.7-.2-3.8-.1-1.2.1-2.3.5-3.5.7-.5-.2-1.1-.4-1.5-.7-1-.7-1-2 0-2.5.7-.4 1.4-.8 2.1-1 1.4-.5 2.7-.4 3.9.5.8.6 1.6 1.2 2.6 2 1.1 0 2.5.1 3.5.2 1.1.8 1.5 1.8 1.8 2.8.3.9-.2 1.5-1.6 2.1-1.1-1.3-2.2-2.5-3.5-4z"/>
    <path class="st2" d="M76.2 22.1c-1.3 1.3-2.3 2.3-3 3.1-1 3.3-.1 6.5-1.1 9.6-.6-1.6-.4-3.1-.4-4.5 0-1.9.2-3.7-.6-5.5-.2-.4-.2-.8-.2-1.2 0-2.3.1-4.6.2-6.8 0-.2.2-.5.3-.5.3 0 .8 0 1 .2 1.2 1.7 2.5 3.5 3.8 5.6zM86.8 178.4c-1.7-.9-2.4-2.5-2.6-4.4 1-2 2.9-2 4.6-2.8 1.8-.1 3.8-.4 5.7.4-.6 2.2-2.5 2.5-3.9 3.7-1.2 1.1-2.5 2.1-3.8 3.1zM28.4 195.3c-.5.2-.8.5-1.1.6-1.5.3-3.1.8-4.6.9-2.5.2-5.1.3-7.5-.8-1.2-.6-2.7-.6-4-.9-.5-.1-.9-.3-1.8-.6 3.5-.9 6.5-1.7 9.1-1.3 1.4.5 1.8 1.2 2.4 1.8.7.7 1.1.7 2.1.2.4-.2.7-.4 1.2-.6.8 0 1.8 0 2.8.1.2.1.7.4 1.4.6z"/>
    <path class="st3" d="M47.6 186c-1-1.9-.4-4-1-6-.6-1.8-1-3.6-1.3-5.4-.1-.5.4-1.1.6-1.5 2-.5 3.1.4 3.8 2.2-.1 6.3-.1 6.5-2.1 10.7zM103.6 175.9c1.6 2.3 1.8 4.8 1.6 7.5-.1 1.5-.4 2.1-2.2 4.2-1.8-.2-1.8-1.8-2.3-3.3.4-1.8.8-3.8 1.3-5.8.3-1 .8-1.9 1.6-2.6z"/>
    <path class="st2" d="M42.5 177.8c.3.3.6.5.8.8.2.4.2.8.2 1.2.1 3.4.7 6.6 2.1 9.7.2.6.3 1.2.5 1.7-.2 1.1-.9 1.5-1.7 1.6-.8.1-1.6 0-2.3-.1-.3-.1-.6-.5-1-.8 1.1-2.7 1.5-5.5 1.4-8.5-.1-1.9.2-3.8.3-5.6h-.3z"/>
    <path class="st3" d="M121.4 62.2c.2-.9.8-1.3 1.6-1.5.8.6 1.6 1.2 2.2 1.6 1.5.6 2.4-.7 4.3-.7 1.9.2 3.9 2 6.1 3.1.1.1.2.3.3.5 0 .1 0 .3-.1.4-.1.1-.3.3-.5.3-3.7-.2-7.3-.7-10.9-1.9-1.1-.4-2.2-.9-3-1.8z"/>
    <path class="st2" d="M48.9 23.1c.4 1 .4 2 0 2.9-2.2 1.6-2.2 1.6-5 1.6-.8-.6-1.7-1.3-2.6-2.1-.3-.2-.4-.7-.6-1 .8-1.4 2.1-.4 3.1-.6 1-.5 2.1-1.1 3.1-1.5.4-.3.5-.2 2 .7z"/>
    <path class="st3" d="M70 186.2c-.3-.2-.8-.3-1-.6-1.8-3.4-2.1-7-.9-10.7.2-.6.6-1 1-1.5.1-.1.3-.1.6-.2.1.8.2 1.7.2 2.5.1 1.8.1 3.7.8 5.5.6 1.5.5 3.2-.3 4.8-.1 0-.2.1-.4.2z"/>
    <path class="st2" d="M111 156.9c4.4 0 8.5.9 12.3 2.8 1.7.1 2.2-1.8 3.7-1.8.5 1.8-.1 3.1-1.6 3.1-1.4 0-2.8.1-4.1-.2-3.4-1-6.7-2.1-9.9-3.4-.1-.1-.2-.4-.3-.5h-.1zM94.3 157.2c-.2.3-.4.9-.6.9-1.1.3-2.3.3-3.5.6-2.2.7-4.7.6-6.8 1.7-.4.2-1.2-.4-1.4-.9-.1-.2-.2-.4-.2-.6v-1.2c.3-.3.6-.5.9-.8 3.9-.2 7.8.1 11.6.5v-.2z"/>
    <path class="st3" d="M116.4 20.1c-.3.1-.8.4-1.1.3-1.9-.5-3.7-1.3-5.3-2.5-1.1-.8-2.3-1.6-3.4-2.3-1-.5-2.1 0-2.8-1 2.3-.8 2.3-.8 7.8 1.1.9.7 1.7 1.6 2.7 2.2.9.7 1.7 1.2 2.1 2.2zM81.2 177.2c.5.3 1.2.4 1.4.8.5 1.1.8 2.3 1 3.2-.4 1.7-.7 3.1-1.6 4.3-.3-.2-.7-.3-.9-.5-1.1-2.3-1.1-4.7-.4-7.2.1-.2.3-.4.5-.6z"/>
    <path class="st2" d="M67.7 190.6c-1.2.9-2.5 1-3.8.4-.1-.2-.3-.3-.3-.5-.2-1.8-.1-3.7.6-5.4.1-.3.6-.5.9-.7.1-.1.4 0 .4.1.5 1.8 1.7 3.2 2.4 4.8 0 .5-.2.9-.2 1.3zM101 54c-.1-1.6.7-2.4 1.8-2.9.7-.3 1.5-.3 2.3-.4 1.7-.2 2.8.6 1.9 3.1-.8.8-1.8.9-2.7.9-1.2.2-2.3-.2-3.3-.7zM93.2 168.3c.7-1.4 1.9-1.6 3-1.8 2.3-.3 4.6.1 6.8.9.1 0 .2.3.2.5s-.1.4-.2.7c-3.2.8-6.5.5-9.8-.3zM113.2 134.3c2.1-.1 4.3-.2 6.4.1 1.6.3 2.9 1 4 2.3.2.3.3.7.4 1-.4.1-.8.2-1.1.1-3-.8-5.9-2.1-8.9-2.9-.3-.1-.5-.6-.7-.9l-.1.3z"/>
    <path class="st3" d="M127.2 188c-.9-2.5-1.5-3.8-1.8-5.2-.3-1.2-.3-2.5.9-3.5.4.3 1 .5 1.2 1 .9 2.1.6 4.3-.3 7.7z"/>
    <path class="st2" d="M63.6 23.1c-1.3-.7-1.6-1.8-1.6-3.1 1.5-.7 3-.2 4.5-.1.6.4.8 1 .6 1.6-.1.3-.5.7-.8.9-.9.3-1.8.8-2.7.7zM131.2 181.7c.3.3.7.5.8.8.5 2.3.3 4.5-.1 6.8-.1.3-.4.8-.7.9-.6.3-1.1-.2-1.5-.9.6-2.5 1.6-5 1.7-7.7l-.2.1zM135.4 181.3c.4.3.9.6 1.4.8.7 1.5.5 2.9 0 4.3-.1.3-.5.6-.8.9-.4.3-.8.2-1-.1-.6-1.8-.6-3.6-.1-5.4 0-.3.2-.4.5-.5zM97.3 152.7c-.2.3-.3.5-.4.5-3.9.5-4.9.4-8.6-.5l.3-.3c2.1-.7 4.3-.2 6.4-.2.7.1 1.4.3 2.3.5zM111.1 156.7c-1.3 0-2.7.2-4 .1-.7-.1-1.4-.6-1.6-1.5-.2-.9.3-1.5 1.3-1.8 1.4.6 2.6 1.9 4 2.8.1.1.1.4.1.6l.2-.2z"/>
    <path class="st3" d="M8.7 186.1c-1.6-1.1-2.7-2-3.8-2.8.4-1.8 1.9-.9 2.8-1.4.9.2 1.2 1.1 1.2 1.9 0 .5-.1 1.1-.2 2.3z"/>
    <path class="st2" d="M86.6 190c-.3.2-.6.6-.9.7-.3.1-.8 0-1.1-.3-.3-.2-.4-.6-.6-1 0-1.3.4-2.3 1.7-2.9.3.8.6 1.5.8 2.3.1.4.1.8.1 1.2z"/>
    <path class="st3" d="M118.7 15c1.1-.9 2.1-.5 3 .4.2.8.3 1.6-.3 2.2-1.2-.4-2.3-1.1-2.7-2.6z"/>
    <path class="st2" d="M139.5 187.8c.1 0 .3 0 .4.1.6.7.5 2.1-.2 2.6-.4.3-1.2.2-1.5-.2-.2-.3-.3-.7-.2-1 .2-.8.6-1.4 1.5-1.5zM106.5 191.4c-.2-.7-.4-1.3-.4-1.8 0-.3.3-.8.5-1 .2-.2.7-.1 1 .1.5.3.7 1.1.3 1.6-.3.4-.8.7-1.4 1.1zM94.4 157.4c.3-.6.8-.9 1.4-1 1.1-.1 2.3-.1 3.4-.1l-.1-.2c-.1.6-.4 1.1-1 1.1-1.3 0-2.5 0-3.8-.1l.1.3z"/>
    <path class="st2" d="M99.2 156.3c.4-1.4 1.6-1.5 2.6-1.8.1 0 .4.4.6.7.1.1 0 .4-.1.5-.1.1-.3.3-.5.3-.9.4-1.8.4-2.7 0l.1.3zM52.4 197c-.3.2-.5.6-.8.7-1.1.3-2.1.3-3.1-.1-.3-.1-.4-.5-.7-.8l-.2.2c1.6.1 3.2.2 4.9.2l-.1-.2zM58.8 16c-.6-.1-1.3-.6-1.2-.9 0-.2.3-.4.4-.4h1.1c.2 0 .3.2.4.3.1.1.2.3.1.4-.1.2-.2.3-.4.4 0 .2-.2.2-.4.2zM123 169.3c-.8.6-1.4.5-2.2-.1.8-.4 1.5-.4 2.2.1zM142.5 184.1c-.1-.2-.3-.3-.3-.5-.1-.5.1-.8.5-1 .4-.2.8-.1 1 .4.1.1-.1.5-.2.6-.3.2-.6.3-1 .5zM113.3 134.1c-.9.1-1.8.5-2.7-.2-.1-.1-.2-.3-.2-.4.1-.1.3-.3.4-.3 1-.1 1.9-.1 2.2 1.1l.3-.2z"/>
    <path class="st2" d="M47.8 196.8c-1-.2-2.1.2-3-.7 1.2-.6 2.1-.4 2.8.8l.2-.1zM105.6 132.3c-.1-.3-.4-.6-.4-.9 0-.3.4-.6.5-.9.1.3.4.6.4.9 0 .4-.3.7-.5.9zM74.3 12.6c-.1 0-.3-.2-.4-.3-.1-.1 0-.4 0-.4.3-.1.7-.1 1-.1.1 0 .2.3.3.4-.3.1-.6.3-.9.4zM115.5 12.8c-.2 0-.4.1-.5.1-.2 0-.3-.2-.5-.2.3-.1.6-.1.9-.2 0 0 0 .2.1.3z"/>
    <path class="st1" d="M119.8 38.4c-1.4.5-2.7.5-4 0-1-.4-1.4-1.2-1.3-3 1.8-1.5 3.6-.8 5.4 0 .3.5.6 1 .9 1.6-.5.4-.8.9-1 1.4zM142.6 24.9c-1.4 1.2-2.7 1.4-4.1 0-.5-1.9.1-3.3 1.8-4 2.5.9 2.8 1.4 2.3 4zM140.6 90.9c.5-.9 1.2-1.1 2-.9 1.4.3 2.5 1 3.3 2.3 0 .4 0 .8-.1 1.2-.2.9-1.2 1.4-1.8 1.1-1.1-.5-2.1-1.1-2.8-2.1-.2-.5-.4-1.1-.6-1.6zM143.3 130.5c-1.2.2-2.3 0-3.4-.5-.8-.4-1.2-1-1.3-1.9-.1-.4.5-1.4.9-1.4 1.4-.3 2.8-.2 3.9.8.4.4.7 1 .8 1.6.1.6-.4 1-.9 1.4zM142.1 52.9c-1.4.1-2.4-.4-3.2-1.4-.4-.5-.5-1.1-.3-1.7.2-.6.6-1 1.2-1.2 1.8-.5 3.6 1.1 3.3 3-.1.5-.7.9-1 1.3zM143.5 31.2c.4.6.7 1.2.9 1.7-1.2 2.2-2.9 1.7-4.7 1.6-.3-.6-.7-1.1-.9-1.6-.2-.7.5-1.8 1.2-1.8 1.3-.1 2.4 0 3.5.1zM144.9 117.4c-.3.4-.7.9-1 1.3-1.8.3-3.2-.1-4.4-1.5-.2-.3-.4-.8-.3-1.1.1-.3.4-.7.8-.8 1.6-.5 3.1-.2 4.4.9.3.2.3.7.5 1.2zM116.2 44.6c.3.1.5.2.6.2.5.1.8 1 .5 1.5-.7 1.1-1.6 1.7-2.8 2-1.2.3-2.2-.7-2.1-2.1 0-.5.6-1.3 1-1.4.4-.1.8-.2 1.1-.2h1.7zM138.6 41.6c.3-.3.5-.6.9-1 .7.1 1.4.1 2.1.4.5.2.9.7 1.3 1.2.6.9-.1 2.2-1.1 2.3-.4 0-.8.1-1.2 0-1.5-.2-1.9-.7-2-2.9zM141.5 143c-.8-.5-1.9-1-2.9-1.7-.3-.2-.4-.7-.5-1.1-.1-.5.6-1.1 1.1-1.3 1-.2 1.9 0 2.8.5.8.4 1.2 1.1 1.2 2 .1 1-.6 1.4-1.7 1.6zM144.5 106c-1.2.2-2-.3-2.8-.8-.4-.3-.8-.8-1-1.4-.4-.9.2-1.5.9-2 1.3-.3 2.2.5 3.1 1.3.4.4.7 1.1.7 1.6-.2.4-.7.9-.9 1.3zM112.6 73.1c1.4-.9 2.2-.6 2.8.4-.1 1.6-.6 3.1-1.2 4.7-.2.4-1.1.7-1.5.4-.3-.2-.4-.6-.8-1.1.2-1.3.4-2.7.7-4.4zM140.5 79.4c1.7-.9 3.1-.8 4.1.3.4.4.6 1 .4 1.7-.1.3-.3.8-.6.9-.5.2-1.1.3-1.6.3-1.9-.1-2.4-.8-2.3-3.2zM139.7 155.3c-.5-.3-1.2-.6-1.8-1.1-.8-.6-.9-1.8-.3-2.8.3-.5 1.1-.8 1.5-.5 1.2.6 2.4 1.3 2.6 2.9-.4.9-1 1.3-2 1.5zM128.8 40.2c-.4.6-.8 1.2-1.3 1.8-.4.5-1 .5-1.6.2-1-.5-1.4-1.4-1.2-2.6.3-.4.7-.9 1.2-1.2 1-.6 1.8-.4 2.5.5.1.3.2.8.4 1.3zM136.2 163.7c.5-1 1.4-1.3 2.6-1.4.5.4 1.2.7 1.6 1.3.3.4.3 1.1.3 1.7-.1.8-1.1 1.4-1.7 1.1-1.5-.5-1.8-.8-2.8-2.7zM125.4 46.4c-.4.5-.7 1-1.1 1.3-.3.2-.7.1-1.1 0-.6-.1-1-.6-1.1-1.2-.2-.7.2-1.8.8-2.1.6-.3 1.2-.1 1.6.4.3.4.5 1 .9 1.6zM41 53.2c1.1.4 1.6 1 1.8 1.8 0 .9-.5 1.6-1.1 2.1-1.3.9-2.8 1.4-4.4 1.6-.6.1-1.1-.3-1.5-.8-.6-.7-.5-1.7.1-2.2 1.6-1.3 3.5-1.8 5.1-2.5zM42.3 74c0 .8-.1 1.6-.1 2.2-1.2 1.4-2.7 2-4.1 2.7-1 .6-2.4-.4-2.6-1.7 0-.4.1-.9.3-1.1 1.4-1 2.9-2.1 4.4-2.9.9-.4 1.6 0 2.1.8zM41.5 102.3c-.2.6-.2 1-.5 1.3-1.1 1.2-2.2 2.3-3.7 2.9-.6.2-1.1 0-1.6-.4-.5-.5-.6-1.7-.2-2.3 1-1.3 2.2-2.3 3.6-3.1.6-.3 1.2-.3 1.6.1.4.4.6 1.1.8 1.5zM41.6 64.6c.2.5.5 1 .7 1.5-.1.3-.1.5-.2.7-1 1.4-2.4 2-3.9 2.4-.8.2-1.5.1-2.1-.6-.6-.7-.6-1.6-.2-2.2.8-1.3 2.2-1.6 3.4-2.1.3-.1.8-.1 1.1-.1.4.1.7.3 1.2.4zM40.8 118.7c.9.3 1.3.9 1.5 1.8-.1.2-.1.4-.2.6-1.1 1.5-2.6 2.4-4.4 2.9-.8.2-2-.9-2-1.8 0-.4.2-.8.4-1.1 1.3-1.5 3-1.9 4.7-2.4zM38.2 114.6c-.8-.6-1.3-.9-1.7-1.4-.5-.7-.4-1.8.2-2.3.5-.4.9-.8 1.4-1.1.9-.4 1.9-.6 2.7-.9.4.3.8.5 1 .8.4.8.1 1.7-.5 2.3-.7.9-1.8 1.5-3.1 2.6zM34.9 95c.4-1.3 1.5-1.8 2.6-2.4 1.1-.6 2.1-1.2 3.3-.8.6 1.1.7 2.2.1 2.7-.9.8-1.9 1.5-2.9 2.1-.5.3-1.2.3-1.7.1-.8-.1-1.2-.8-1.4-1.7zM41.1 83.6c.2.3.5.6.6 1 .2.6.1 1.3-.4 1.7L38 88.7c-.6-.3-1.2-.5-1.5-.9-1-1.3-.7-2.8.8-3.4 1.1-.4 2.2-.7 3.3-1 .1.1.3.2.5.2zM41.1 43.9c.7.1 1.1.1 1.4.3.3.2.7.4.8.8.1.3 0 .9-.2 1.1-1.1 1.3-2.5 1.8-4.2 1.5-.6-.1-1-.6-1.2-1.2-.3-.8.1-1.9.8-2 .9-.3 1.9-.4 2.6-.5zM65.5 54.7c-.2.4-.2.9-.5 1.1-1 .6-2 1.3-3.1 1.7-.5.2-1.2.2-1.7 0s-1.2-.5-1.4-1c-.2-.4.1-1.1.1-1.8 1.5-.6 2.9-1.3 4.2-1.8 1.7.6 1.7.6 2.4 1.8zM64.8 45.2c-.1.4 0 .9-.2 1.2-.9 1.5-2.2 2.2-3.8 2.2-.6 0-1.4-.7-1.6-1.5-.1-.6-.1-1.2.3-1.7 1.2-1.1 2.6-1.6 4.2-1.4.6 0 1.1.6 1.1 1.2zM60.7 77c.3-1.3 1.2-2 2.3-2.6.7-.4 1.5-.5 2.2 0 .9.6 1 1.6.5 2.7-.8.9-1.8 1.4-3 1.7-1.2 0-1.7-.9-2-1.8zM62.4 67.2c-.7-.5-1.1-.6-1.3-.9-.7-1-.6-2.1.2-2.7 1.3-1.1 2.8-1.4 4.3-.8.3.1.6.5.7.9.1.3-.1.9-.3 1.1-1.1.7-2.3 1.5-3.6 2.4zM65.1 38.2c-.8 1.3-2.1 1.7-3.5 1.8-.5 0-.5.1-2-1-.4-1.2.3-1.9 1.1-2.4.9-.5 1.9-.3 2.8 0 .9.2 1.4.7 1.6 1.6zM65.3 87.3c-.9.5-1.9 1-2.9 1.6-1.7-.7-1.7-.7-1.4-2.7.6-.9 1.5-1.3 2.5-1.6 1.3-.5 2.2.3 2.1 1.9 0 .2-.1.4-.3.8zM63.9 122.6c.1 1.7-.8 2.7-2.1 3.4-.5.3-1.1.3-1.6-.2-.3-.3-.4-.7-.6-1 .4-1.2.9-2.3 2.2-2.7.9-.4 1.6-.2 2.1.5zM61.8 111c.5.4 1.2.8 1.7 1.3.5.4.5 1.2-.1 1.6-.6.4-1.3.8-1.8 1.1-1.2-.4-2-.8-1.9-2.1.1-.9.5-1.3 2.1-1.9zM71.7 145.7c.6-.5 1.3-.9 2.1-.8.9.2 1.6.8 1.6 1.5 0 .8-.6 1.5-1.4 1.8-.2.1-.4.1-.6.1-1-.1-1.7-1-1.7-2.6zM17.8 71.5c.7-1.9 2.3-1.9 3.8-1.7.6.1 1.1 1.3.8 2-.5 1.2-1.5 1.8-2.8 1.7-1-.2-1.7-.8-1.8-2zM16.2 50.1c1.2-1.6 1.5-1.7 2.8-1.1.4.1.7.3 1 .5.8.5.9 2 .1 2.6-.6.4-1.4.6-1.9.9-1.7-1.2-1.7-1.2-2-2.9zM21.6 81c-.3.9-.6 2-.9 3-.6.5-1.1.8-1.6.4-.3-.2-.5-.6-.6-1-.3-1.2-.2-2.4.4-3.6.4-.3.9-.6 1.3-.9.8.3 1.3.9 1.4 2.1z"/>
    <path class="st1" d="M153.3 192.8c-1.4-.2-2.7-.2-4.1-.4-.5-.1-1.1-.4-1.6-.7-.2-1.3-.4-2.5-.6-3.6.6-.9 1.2-1.8 1.7-2.6.2-2 .4-3.8.7-5.7.4-2.9.6-5.8.6-8.7-.1-5.4.2-10.9.3-16.4.1-4.8.4-9.6-.2-14.4-.4-2.9 0-5.9.5-8.8.3-1.9.6-3.7.7-5.6.2-2.5.4-5 .5-7.5.4-6.7.8-13.4.2-20.1-.1-.6 0-1.3.1-1.9.6-2.3.3-4.6.2-6.8-.1-1.5-.1-2.9-.1-4.4.1-3.8.3-7.5.4-11.3.1-2.3.2-4.6-.1-6.9-.4-3.4-.3-6.7-.3-10 0-2.5-.1-5-.5-7.5-.7-4.1.1-8.4-.8-12.5-.1-.6 0-1.3 0-1.9 0-.2 0-.4.1-.6.2-5.2.3-10.5.5-15.9-.9-1.4-1.7-3.2-3-4.4-2.5-2.4-4.8-5-7.7-6.8-2.2-1.4-4.2-3-6.2-4.7-.4-.4-1.1-.4-1.5-.6-1 .8-2 1.6-2.8 2.2-1.7-.1-3.3-.3-4.9-.4-3-.1-5.9-.2-8.9-.1-1.2 0-2.3.4-3.5.4-1.1 0-2.3-.3-3.1-.4-1.3.4-2 1.5-3.5 1.2-3-1.5-5.8-4.4-9.9-4.9-1.9.3-4 .6-6.2.9-.3.1-.6.5-1.1.9-.1 1.7-.1 3.6-.2 5.5 0 .6-.1 1.3-.2 1.9-.1 1.2-1.1 1.9-2.1 1.3C84.3 9 81.6 8.4 78.9 8c-1.4-.2-2.8-.3-4.1-.2-1.4.1-2.5-1.4-3.9-.9-1.2.7-2.2 1.8-2.8 3.2-.1.9-.2 2-.3 3-.1.6-.3 1.2-.7 1.2-4.9-2.2-9.6-4.3-14.3-6.4-.4-.2-.7-.3-1.1-.3-1-.1-2 .1-2.8 1.2-.2 2.7-.1 5.5.3 8.7-1.2.6-2.2 1.5-3.7 1.5-2 0-4 .1-5.8-.8-1.1-.5-2.2-.8-3.4-.8-2.8-.1-5.4-.8-7.8-2.5-.6-.5-1.4-.8-2.1-1.1-.5-.3-1.1-.4-1.7-.6-.9-.3-1.9.3-2.4 1.3-.4.8-.6 1.5-.5 2.4.1.8.2 1.6.3 2.5.1.6-.6 1.1-1.2 1.1-2.2 0-4.3-.4-6.1-1.4-1.9.4-3.6.8-5.3 1.2-1 .3-1.7 1-2.2 2.1-.1.9-.3 2-.4 3-.5 1.4-2.2 1.9-2.1 3.6.9 3.5 4.1 4.9 6.3 7.4.1.8.2 1.6.2 2.4-.1 3.1-.3 6.3 0 9.4.3 3.1-.6 6.3.2 9.4-.3 5.2-.1 10.5.2 15.7.1 1-.1 2.1-.1 3.1-.2 2.9-.1 5.9-1 8.7-.4 1.2-.2 2.5.5 3.8-.8 1.4-1.6 2.8-2.4 4.1-1.2.6-2.2 1.1-3.3 1.8-.7.4-1.3 1-1.8 1.6-.6.6-.9 1.4-.6 2.3.4 1.4.9 2.7 1.8 3.9.7 1 1.4 2 1.9 2.8.2 6.8 0 13.3-.4 19.8-.1 1.9-.1 3.8 0 5.7.1 2.1.3 4.2.4 6.3.1 2.5.2 5 .4 7.5.1 3.3.2 6.7.4 10s.6 6.7.5 10c-.1 3.2.5 6.3.8 9.4-.6 2-1.7 4.6-1.7 4.6-1-.8-1.9-1.6-2.9-2.2-.8-.5-2.1-.1-2.7.6-1.1 1.4-1.2 3-.7 4.7.1.4.3.8.5 1.1 1.1 1.7 2.2 3.4 3.6 5.4-.2 2-.3 4.3.5 6.5.4 1.3 1 2.3 2.2 2.6 2.3.6 4.4 1.8 6.8 2.1 2.4 1.4 5 1.1 7.5.7 3.3-.6 6.6-1 9.9-1.9 3.2-.9 6.2-.9 9.2-.3 1.7 1 3.3 1.9 4.6 2.6 5.4.7 10.6.4 15.7.3 3.1-.9 6.3-.5 9.4-.4 3.5.1 7.1.4 10.6.6 3.5.2 7.1.4 10.6-.4 1.5-.3 3.1-.4 4.7-.2 7.7.5 15.4-.1 23.1.6.6 0 1.2.1 1.8 0 4.1-.8 8.3-.3 12.4-1 .7-.1 1.6.1 2.3.3 1.6.5 3.1.5 4.7.1 1.3-.3 2.7-.4 4.1-.5 1.8-.2 2.2-.6 2.8-2.7.2-.6.3-1.1.5-1.5 2.2-1.3 3.9 1.1 5.9.5.3-.3.6-.5.8-.9-.3-1.2-.7-2.5-1.7-2.6zM135.8 65.7c-.1.1-.3.3-.5.3-3.7-.2-7.3-.7-10.9-1.9-1.1-.4-2.2-.9-3-1.8.2-.9.8-1.3 1.6-1.5.8.6 1.6 1.2 2.2 1.6 1.5.6 2.4-.7 4.3-.7 1.9.2 3.9 2 6.1 3.1.1.1.2.3.3.5 0 .1 0 .3-.1.4zm.4 4.5c.3.6.7 1.1.8 1.7.2 1.2 0 2.5-.4 3.7-.4 1-1.3 1.8-2.2 1.7-1.2-.1-2.4 0-3.5-.4-2.6-.8-5.3-1.4-8-1.9-1.1-.2-1.9-1.5-1.8-2.8.1-1.4.3-2.9.4-4.3.3-.2.7-.7.9-.6 1.2.1 2.3.4 3.4.7 3.5.7 6.9 1.5 10.4 2.2zm-21-63c3.7.1 7.5.3 11.2.5 1.4.1 2.7.5 3.6 1.8.7 5.4.7 5.4-.4 14.9-1.9 1.1-3 1-5.3-.5 1.3-7.1 1.3-7.1-.2-10.9-.6-.8-1.5-1.4-2.4-1.7-2.9-.7-5.4-2.3-8.3-3.8.8-.1 1.3-.4 1.8-.3zm6.3 10.5c-1.3-.4-2.3-1.2-2.7-2.7 1.1-.9 2.1-.5 3 .4.2.8.3 1.6-.3 2.3zm-6-4.9c-.2 0-.4.1-.5.1-.2 0-.3-.2-.5-.2.3-.1.6-.1.9-.2 0 0 0 .2.1.3zm-3.9 3c.9.7 1.7 1.6 2.7 2.2.9.5 1.7 1.1 2.1 2.1-.3.1-.8.4-1.1.3-1.9-.5-3.7-1.3-5.3-2.5-1.1-.8-2.3-1.6-3.4-2.3-1-.5-2.1 0-2.8-1 2.4-.6 2.4-.6 7.8 1.2zm6.6 163.9c-.4-1-.8-2.2-1.3-3.3-.8-1.9-2.2-2.9-4.1-3.1-1-.1-2 0-2.8 0-1 .6-1.8 1.2-2.6 1.7-.7-.7-.5-1.5-.2-2.5.7-.4 1.5-1 2-1.3 2.5-.8 6.5-.2 12.4 1.7 1 4.5 1 4.5.4 8 .7 2.7 1.5 5.5 2.2 8.3 0 .1-.1.3-.2.6-1.7.5-3.4.4-5.2-.1-2.1-3.2-.4-6.6-.6-10zm-3 7c.2 1 .2 2.1.1 3.1 0 .3-.4.7-.7.9-1.5.7-3.4-.2-3.8-1.8-.1-.4-.3-.8-.3-1.2.1-3.6.1-7.1.7-10.6.1-.6.9-.9 1.4-.6 1.3.9 1.3.9 2.6 3.9-.4 2.1-.5 4.2 0 6.3zm-7.3 3.6c-.3.4-.8.7-1.4 1.2-.2-.7-.4-1.3-.4-1.8 0-.3.3-.8.5-1 .2-.2.7-.1 1 .1.5.3.7 1 .3 1.5zm12.9-21.2c.8-.3 1.5-.4 2.2.1-.8.7-1.5.5-2.2-.1zm.6-3.3c-2.4-.9-5-1-7.5-1.2h-1.8c-1.5.1-2.5.9-2.8 2.6 0 .2-.3.3-.5.4-1.1-.2-1.5-1.1-1.6-2.2-.1-1.4 0-1.4 1.3-4 .7-.5 1.4-.7 2.2-.6.6.1 1.2.1 1.7.3 3.8 1.7 7.7 2.8 11.9 2.9.4 0 .8.2 1.1.4.2.2.3.7.3 1 0 .1-.2.3-.4.4-1.2.6-2.7.4-3.9 0zm-10.5-27.1c.4-.1 1-.5 1.5-.4 1 .2 1.9.6 2.8.9 2.4.9 4.8 1.8 7.4 1.9 1.8.1 3.4.8 5.1 1.6.1.5.3 1.1.3 1.7 0 1.7-.5 3.3-1.3 4.7-1.6.3-3.2.1-8.6-1.1-2.7-.6-5.3-1.2-8-1.8-.7-.5-.9-1.3-.7-2.2.4-1.6.9-3.4 1.5-5.3zm-.4-5.2c.1-.1.3-.3.4-.3.9-.1 1.8-.1 2.2.9-.8.1-1.7.4-2.5-.2 0-.1-.1-.3-.1-.4zm2.9.8c2.1-.1 4.1-.2 6.2.2 1.6.3 2.9 1 4 2.3.2.3.3.7.4 1-.4.1-.8.2-1.1.1-3-.8-5.9-2.1-8.9-2.9-.2 0-.4-.4-.6-.7zm4.4 17c2.8.9 5.9.6 8.2 3-.1.3-.1.9-.3 1-.7.4-1.4.6-2.1.9-2.3-.9-4.5-1.6-6.9-1.9-2.5-.3-4.9-1.5-7-3.1-.1-.1 0-.3-.1-.6 2.8-.3 5.6-.1 8.2.7zm7.6 9.6c-1.4 0-2.8.1-4.1-.2-3.4-1-6.7-2.1-9.9-3.4-.1 0-.2-.2-.2-.4 4.3 0 8.4.9 12.1 2.8 1.7.1 2.2-1.8 3.7-1.8.5 1.7-.1 3-1.6 3zm.8 18.3c.4.3 1 .5 1.2 1 1 2.2.7 4.4-.2 7.8-.9-2.5-1.5-3.8-1.8-5.2-.3-1.2-.4-2.5.8-3.6zm3.3-54.3c-2.7-1.5-5.6-1.6-8.5-1.8-.8 0-1.5-.1-2.3-.2-.3-.6-.6-1.1-1-1.7.4-.5.7-1 1.1-1.5 2.5-.1 5-.2 7.6-.3 1.4.8 2.8 1.5 4.4 2.3.1 1.1.1 1.7.2 2.4-.5.4-1 .6-1.5.8zm.4-7.7c-3.2-1.6-6.4-1.4-9.8-.7-1.2.2-2.3-.2-3.2-1.2-.3-.4-.4-.8-.2-1.1.2-.3.5-.6.8-.8.1-.1.4-.1.6 0 .5.2 1.1.4 1.9.8 2.1-.9 3.5-2.7 5.6-2.7 3.1 1.1 3.1 1.1 6.4 3.9.3.7-.2 1.2-.6 1.5-.3.3-1.1.5-1.5.3zm-12.8 9.7h4.4c2.8 0 5.4.5 7.8 2.3-.8 1.4-1.7 2.8-1.7 4.5 0 .3-.5.6-.7.9-1.1-.1-1.8-.8-2.5-1.5s-1.5-1.3-2.3-1.9c-1.2-.2-2.4-.5-3.5-.5-2.2-.1-4.3-.3-6.3-1.1-.8-.3-1.9 0-3.2.1-.2-5.7.2-13.5.8-16.4 0-.2.2-.3.4-.5.5.1 1.1.2 1.6.3 1.1 1 .7 2.4 1.2 3.7.5.6 1.2 1.4 1.8 2.2l.3 1.2c0 1.2-.1 2.5-.1 3.7 0 1.2.6 2.3 2 3zm-6.2 29.4c.1.1.1.2.1.4-1.3.1-2.5.2-3.8.1-.7-.1-1.4-.6-1.6-1.5-.2-.9.3-1.5 1.3-1.8 1.4.6 2.6 1.9 4 2.8zm-13.7 22.5c0-.8.1-1.7 0-2.5-.1-1-.4-2-.7-3.3 1.3-.7 2.4-1.2 3.6-1.1.2.3.5.6.7.9 0 .4.1.9-.1 1.2-.7 2-1.6 3.9-2.2 5.8-.3 1-.4 2-.6 2.8.5 3.1 1.3 5.8 2.8 8.2-1.7 1-3 .9-4.1-.3-.4-1 .1-2 .1-3.1.1-.8.2-1.7.3-2.5.1-1 .1-2.1.2-3.1v-3zm-10.4-.4c-1.7-.9-2.4-2.5-2.6-4.4 1-2 2.9-2 4.6-2.8 1.8-.1 3.8-.4 5.7.4-.6 2.2-2.5 2.5-3.9 3.7-1.2 1.1-2.5 2.1-3.8 3.1zm-.2 11.6c-.3.2-.6.6-.9.7-.3.1-.8 0-1.1-.3-.3-.2-.4-.6-.6-1 0-1.3.4-2.3 1.7-2.9.3.8.6 1.5.8 2.3.1.4.1.8.1 1.2zm-5.3-22.6c-.4 0-.8-.7-1.2-1.1.6-.5 1-1 1.5-1.3 1.1-.5 2.2-1 3.3-1.3 4.5-1.2 9.1-2.4 13.7-3.1 1.8-.3 3.5-.2 5.2.5.3.1.6.5.7.9 0 .3-.2.8-.5 1-.5.4-1 .7-1.5.9-.6.2-1.2.2-1.7.1-4.4-.9-8.5.3-12.6 2.1-2.3 1-4.6 1.3-6.9 1.3zm2.4 13.8c-.4 1.7-.7 3.1-1.6 4.3-.3-.2-.7-.3-.9-.5-1.1-2.3-1.1-4.7-.4-7.2.1-.2.2-.3.4-.6.5.3 1.2.4 1.4.8.5 1 .8 2.3 1.1 3.2zm19.7-143c-1.2-.3-2.6-.5-3.9-.8-.3-.4-.7-.7-.7-1-.3-3.7-.3-7.5.5-11.3 2.2-1.5 4.5-2.5 7.2-2.1.3.3.6.5.9.8.2 2.3.6 4.5.6 6.8 0 4-.3 7.9-.5 11.9 0 .8-.2 1.6-.2 1.7-.4 1.2-.7 1.4-1.1 1.4-2.8.5-5.2 1.8-7.6 3.3-.4.3-1.2-.3-1.3-.9-.4-2.1-.3-4.2.4-6.2.2-.5.7-1 1-1.5 1.5.5 2.9 1.6 4.5.9 1.2-1.3 1.2-1.3.2-3zm2.4 82c-.2 2.1-.4 4.2-.7 6.2 0 .3-.4.8-.7.9-.6.3-1.1-.1-1.4-.6-.7-5.2-.8-10.4-.5-15.6.2-4 .3-8 .4-11.9 0-2.1.1-4.2-.3-6.3.6-2.1.3-4.1.1-6.2-.1-1-.1-2.1-.1-3.1.1-7.3.6-14.7 1.2-22 .1-1.6 1.1-2 2.5-1.1.7.5 1.2 1.1 1.4 1.9.2.8.2 1.7.2 2.5-.3 10.3-.4 20.6-1 30.8-.7 8.1-.4 16.3-1.1 24.5zm1.2-66.4c-.8.8-1.8.9-2.7.9-1.2.1-2.3-.2-3.3-.7-.1-1.6.7-2.4 1.8-2.9.7-.3 1.5-.3 2.3-.4 1.7-.1 2.8.7 1.9 3.1zM96.4 75c.3-1.6.4-3.3.5-5 .2-3.3.2-6.7.4-10 0-.6.3-1.2.4-1.8 1.4.2 2 1.3 2.6 2.6-.1 1-.2 2.3-.3 3.5-.1 1.3-.2 2.5-.3 3.8-.2 5.2-.4 10.5-.6 15.7-.1 3.1.6 6.2.3 9.4-.3 3.7-.2 7.5-.2 11.3 0 1.5 0 2.9.1 4.4.1 1.1.1 2.1-.1 3.1-.3 2.5-.6 5 .1 7.5.3 1 .1 2.1.1 3.1 0 1.5-.1 2.9-.2 4.5.9 1.1 1.5 1.6 1.9 2.3.2.2 0 .7 0 1.2-1.7.5-3.3 1.1-5 1.3-.2-.4-.5-.8-.5-1.2-.1-1.2-.2-2.5-.1-3.8.1-3.1.1-6.3-.3-9.4-.2-1.9.1-3.8-.2-5.6-.7-4.4-.3-8.7-.3-13.1 0-1.3.1-2.5 0-3.8-.1-6.8.4-13.4 1.7-20zm-1.9 63.2c.4-.7 1-1.5 1.5-2.5 2.3-1 4.5-1 6.5 1.2-1.9 2.3-3.9 3.8-6.6 4.2-.4.1-.8.1-1.2.2-3.3.5-6.6.7-9.4 1.9-1.3-.3-1.9-.8-2.1-1.7-.3-1.2-.5-2.5.8-3.6 1-.1 2.1-.2 3.3-.4 1-.2 1.9-.5 2.7-.8 1.6.6 2.5 2.6 4.5 1.5zm-11.7 18.7c3.8-.2 7.6.1 11.4.5-.2.3-.3.7-.5.8-1.1.3-2.3.3-3.5.6-2.2.7-4.7.6-6.8 1.7-.4.2-1.2-.4-1.4-.9-.1-.2-.2-.4-.2-.6v-1.2c.3-.4.6-.6 1-.9zm14.1-3.7c-3.9.5-4.9.4-8.6-.5l.3-.3c2.1-.7 4.3-.2 6.4-.2.8 0 1.5.3 2.4.4-.3.4-.4.6-.5.6zm2.2 3.1c-.1.5-.4 1-1 1-1.2 0-2.4 0-3.6-.1.3-.5.7-.7 1.3-.8 1.1 0 2.2 0 3.3-.1zm.2-.1c.4-1.3 1.5-1.4 2.6-1.7.1 0 .4.4.6.7.1.1 0 .4-.1.5-.1.1-.3.3-.5.3-.9.6-1.8.5-2.6.2zM90.2 180c.8-.9 1.7-1.8 2.8-2.2.3-.1.7 0 1.2 0 .6 2.5.3 5 .1 7.4-.1 1.3-.6 2.4-1.1 3.5-.4.8-.9 1.3-1.8 1.4-1.1 0-1.9-.4-2.4-1.5-1.2-2.9-.8-6.3 1.2-8.6zm3-11.7c.7-1.4 1.9-1.6 3-1.8 2.3-.3 4.6.1 6.8.9.1 0 .2.3.2.5s-.1.4-.2.7c-3.2.8-6.5.5-9.8-.3zm7.5 15.9c.4-1.8.8-3.8 1.3-5.8.3-1 .8-1.9 1.6-2.6 1.6 2.3 1.8 4.8 1.6 7.5-.1 1.5-.4 2.1-2.2 4.2-1.8-.1-1.8-1.7-2.3-3.3zm5.5-42c-1 4.1-.8 4.7-5.7 6.5-.5 0-1.3.1-2.1 0-4.1-.4-8.2-.5-12.3.6-.4.1-.8.1-1.2.1-.9.1-1.6-.5-1.6-1.3 0-.5.5-1.2 1.1-1.3 2.4-.3 4.6-1.2 7-2.1 2.8 0 5.7-.2 8.6-1.3 2.2-1.2 3.8-3.6 7.1-3.8-.6 1.4-.8 2-.9 2.6zm-.6-9.9c-.1-.3-.4-.6-.4-.9 0-.3.4-.6.5-.9.1.3.4.6.4.9 0 .4-.3.7-.5.9zM89.3 32.8c0-.6 0-1.3.2-1.9C90.9 26 90.9 21 91.4 16c.3-3.6.7-7.1 1.6-10.7.5-.2 1-.6 1.5-.7 1.6-.3 3.2 0 4.6.7 1.9 1 3.8 2.2 5.6 3.4.3.2.4.7.7 1-.3.2-.7.5-1 .5-1.8.1-2.9 1.2-3.6 2.9-.1.2-.3.3-.5.5-.8.2-1.8.4-2.9.6-.2.4-.6.9-.7 1.5-.1.6.3 1.2.4 1.8.1 1.1-.2 2-1 2.8-.3.2-.5.6-.8 1-.5.8.3 1.5.3 2.4 0 .6.1 1.3 0 1.9-.9 4.4-.1 8.8-.7 13.2-.1.6-.2 1.3-.4 1.8-1 2.4-1.1 4.9-.7 7.4.4 2.5.4 5 .2 7.5-.2 4-.2 8-.3 11.9-.1 2.3-.2 4.6-1 6.8-.4 1.1-.5 2.5-.6 3.7-.3 3.3-.7 6.7-.8 10-.2 5.9-.1 11.7-.2 17.6.8 3.9.3 7.9.5 11.9.1 2.3 0 4.6.4 6.9.4 2 .3 4.2-.2 6.2 0 .2-.2.3-.4.5-2.5-.5-3.6-2.3-3.8-4.8-.1-.8-.1-1.7-.1-2.5.1-5.7.2-11.3.5-17 .1-2.5.3-5-.2-7.5-.2-1 0-2.1 0-3.1.3-12.4.7-24.7 1-37.1 0-.6.2-1.3 0-1.9-.9-2.5-.5-5-.4-7.5.3-5.4.6-11.1.9-16.8zm-2.6 99.3c.3 0 .7.3 1.1.5-.5.4-.8 1.1-1.3 1.2-.9.2-1.9.3-2.9.3-1.6 0-2.5 1-3.1 2.4-.6 1.4-.8 2.8-.6 4.3.1.8.3 1.6.5 2.5-.3 1.2-.8 2.4-.8 3.6 0 1 .4 2 .6 3 .1.4.1.8.3 1.5-.3.8-.7 1.7-1.2 2.6-.3 3.3-.5 6.6-.8 9.8-.6.8-1 1.5-1.5 2.1.1 1.7.2 3.4.4 5 .1.6.1 1.3.3 1.8.7 1.9.3 3.7-.2 5.5.4 2.9.9 5.8 1.2 8.7.1 1.2.4 2.5-.7 3.8-1.4.2-2.9.5-4.3.7-.7-.5-1.2-.9-1.1-1.6.2-1 .5-2 .8-3 .7-2 1-4.1.3-6.1-.9-2.8-1.4-5.6-.9-8.6.2-1.2-.3-2.5-.4-3.6-.7-1-1.3-1.8-1.8-2.6-.1-.3-.2-.5-.2-.7 0-.2-.1-.4-.1-.6-.4-9.4-.2-18.8-.1-28.2 0-.6.2-1.2.4-1.9 2.6-1.4 5.4-2.5 8.4-2.6 2.6.1 5.2.1 7.7.2zM61.6 173c.2-1.5.4-3.2.6-4.8.2-1.5.5-2.9.6-4.4.2-1.5.2-2.9.3-4.4.3-5.2.5-10.5.9-15.7.1-1.9.4-3.7.8-5.6.2-.8.8-1.4 1.7-1.4.1.6.4 1.2.4 1.8.4 6.9.6 13.8.2 20.7-.1 1.3 0 2.5-.2 3.8-.3 1.7.3 3.3.8 5-.8 1.4-1.6 2.8-2.3 4.1-.2 2.4-.4 4.7-.7 7 0 .1-.2.1-.4.2-1.1-1.9-1.6-4.2-2.7-6.3zm-.8 14.6c-.2.8-.6 1.5-1.3 1.9-.1 0-.4 0-.4-.1-.9-1.6-1.7-3.2-2.3-4.3-.4-2.4-.3-4.3-.1-6.1.1-1.3.8-2.3 2.1-3 .4.2 1 .4 1.3.8.5.6.8 1.4 1.2 2.3 0 2.8.3 5.6-.5 8.5zm3.3-2.4c.1-.3.6-.5.9-.7.1-.1.4 0 .4.1.5 1.8 1.7 3.2 2.4 4.8.1.3-.1.8-.1 1.2-1.2.9-2.5 1-3.8.4-.1-.2-.3-.3-.3-.5-.2-1.7-.2-3.6.5-5.3zm4.1-10.3c.2-.6.6-1 1-1.5.1-.1.3-.1.6-.2.1.8.2 1.7.2 2.5.1 1.8.1 3.7.8 5.5.6 1.5.5 3.2-.3 4.8-.1.1-.3.2-.4.3-.3-.2-.8-.3-1-.6-1.8-3.5-2.1-7.1-.9-10.8zM82.4 15.8c1.5-.3 3.1-.4 4.6-.7.2.3.5.6.8 1-.1 1.3-.1 2.8-.2 4.2-.3.9-.8 1.4-1.6 1.6-1.5.3-3.1.1-5.1-.2-1.3-1.6-2.4-3-3.6-4.5 1.6-1.3 3.4-1.1 5.1-1.4zM75.6 51c.6-1.6 1.3-2 2-2.3 1.1-.5 2.2-.9 3.1-1.9.2-.3.3-.7.4-1.1.1-.5-.5-1.1-1.1-1.2-.8-.1-1.6 0-2.3 0-.8 0-1.5-.8-1.5-1.6v-3.5c.5-1.1 1.2-1.4 2-1.5.8-.1 1.5-.5 2.1-1.1.5-.4.6-1.8 0-2.3-.5-.4-1-.7-1.5-.9-.6-.2-1.2-.1-1.8-.1-.1-.1-.3-.3-.3-.5-.5-1.9.3-3.7.2-5.2.9-1.5 2.1-1.9 3.2-2 2 0 3.9.1 6 .2.2.5.8 1.1.7 1.6-1.3 4.9-.9 10-1.3 15-.2 3.6-.3 7.1-.4 10.7-.1 2.3-.3 4.6-.3 6.9 0 2.3.3 4.6.4 6.9.1 3.6 0 7.1 0 10.7 0 3.6-.4 7.1.2 10.7v.6c-.6 4-.1 7.9-.3 11.9-.2 4.2-.2 8.4-.4 12.6-.1 4-.4 8-.5 12-.6.9-1.3 1.9-1.9 2.8-1.6.6-2.9.1-4.2.3-.4-.4-.7-.6-1.1-1 0-1.4 0-2.8-.1-4.3 0-1-.1-2.1-.2-3.1-.1-1.2-.4-2.5-.5-3.7 0-1.5.1-2.9.2-4.2.4-1.2 1.5-1.7 1.3-3l-1.8-2.4c-.1-.4-.3-.8-.3-1.2 0-1.9-.2-3.8.3-5.6 1-.7 2-1.3 2.9-2 1-.8.6-2.6-.5-3-.6-.2-1.2-.2-1.7-.4-.2-.3-.5-.6-.8-1 .1-1.8.2-3.7.3-5.9 1.4-.8 2.5-1.3 3.5-2 .5-.3.8-.9 1.2-1.4.5-.7 0-1.8-.8-1.9-.4-.1-.8-.1-1.2 0-.6.1-1.1.4-1.7.6-.3-.2-.7-.4-.8-.7-.6-2.2-.9-4.5-.3-6.9.6-.2 1.4-.3 2-.7 1-.7 1.9-1.5 2.8-2.3.3-.3.5-.7.6-1 .1-.4.1-.8 0-1.2-.1-.4-1.1-.9-1.5-.7-1.2.6-2.5 1.3-3.7 1.9-.2-.4-.4-.8-.4-1.2 0-2.1-.3-4.2.1-6.1 1-2.2 3.2-2.7 4.5-4.3.2-.3.3-.8.2-1.1-.1-.3-.5-.6-.9-.7-.3-.1-.8-.1-1.1 0-.6.1-1.1.4-1.7.5-.4.1-.8.2-1.3.3-.7-3 .5-5.8 0-8zm-2.8 59.1c0 1.7.5 3.4.3 5-.3 1.9-.1 3.6.4 5.5.4 1.6.1 3.3 0 5-.1 1.3.3 2.4.6 3.6-.1.2-.2.4-.4.5-.7.3-1.4.6-2.1.8-.3-.4-.8-.7-.8-.9 0-1.9.1-3.7.2-5.5-.7-2.1-1.3-4-1.1-6.2.3-4 .4-7.9.6-11.9 0-.8.1-1.7 0-2.5-.6-14.2-.5-22.3.4-35.7.1-2.3.6-4.6.1-6.9-.2-.9.1-1.6.2-2.4.4-2.5.6-5 .3-7.5 0-.4-.3-.9-.1-1.2 1.3-3.5.2-7.4 1.6-11.5.2 2.8.3 5.1.1 7.4-.8 8.6-.8 17.1-.8 25.7 0 2.9.5 5.8.4 8.8-.2 4.6-.3 9.2-.4 13.8-.1 2.3-.3 4.6 0 6.9.5 3 .5 6.1.5 9.2zM74 11.9c.3-.1.7-.1 1-.1.1 0 .2.3.3.4-.3.1-.7.3-1 .3-.1 0-.3-.2-.4-.3 0 0 0-.3.1-.3zm-2.6 4.3c.3 0 .8 0 1 .2 1.3 1.8 2.5 3.7 3.9 5.7-1.3 1.3-2.3 2.3-3 3.1-1 3.3-.1 6.5-1.1 9.6-.6-1.6-.4-3.1-.4-4.5 0-1.9.2-3.7-.6-5.5-.2-.4-.2-.8-.2-1.2 0-2.3.1-4.6.2-6.8-.1-.3.1-.6.2-.6zm-4.8 3.7c.6.4.8 1 .6 1.6-.1.3-.5.7-.8.9-.9.3-1.8.8-2.7.7-1.3-.7-1.6-1.8-1.6-3.1 1.5-.7 3-.2 4.5-.1zm-6.2 7.6c1.5-.4 3.2-.9 4.9-1.3.9-.2 2-.1 2.7 1.1.4 1.9-.1 4 .7 6 .3.7.1 1.6.1 2.5-.1 4.6-.2 9.2-.4 13.8-.6 12.1-1.3 24.3-1.7 36.4-.1 3.5-.3 7.1.3 10.6.2 1-.8 1.9-2 1.2-.2-.1-.3-.2-.5-.3-.4-.1-.8-.2-1.1-.3-1.1.5-2.2 1-2.8 2.2-.2.3-.1.8-.1 1.2 2 1.6 2.7 1.4 5.3-1.3.5 0 .8.2.9.6.1.6.3 1.2.3 1.8.1 6.7-.4 13.4-.8 20.3.3 1 .7 2.1 1.2 3.5-.1 1.7-.3 3.5-.4 5.2-1.3 1.9-3.4 1.4-4.7 2.7-.7.9-1 1.8-1 2.9-.4 5.4-.7 10.9-1.1 16.3-.3 5.2-.6 10.5-.9 15.7 0 .6-.2 1.2-.2 1.5-.4 1.4-1.5 1.7-2.2 2.5-.7.7-1.4 1.5-2 2.3-.7 1-1.2 2.1-1.7 3 .3 2.3.6 4.4.9 6.5.1.8.4 1.6.6 2.4.5 1.6 1.1 3.1 1.6 4.8-.4.5-.7 1.2-1.2 1.3-.9.2-1.9.2-2.8.2l-1-1c0-4.6 0-9.2.7-13.8.4-2.3.2-4.6-.9-6.7-.2-.3-.1-.8-.1-1.2 1 0 1.9.1 3 .1.3-.6.7-1.2.8-1.7.2-1 .2-2.1.2-3.1.1-.8 0-1.7.1-2.5.7-4.5.6-4.5.4-8.5-.2-4-.1-8 0-11.9 0-3.3.6-6.7-.1-10-.3-1.4.2-2.9.2-4.4 0-5.7.3-11.3.5-17 0-.8.2-1.7.1-2.5-.1-2.5 1.4-4.9.5-7.4.1-2.3.1-4.6.2-6.9.1-2.5.3-5 .1-7.5-.3-3.5-.9-7-1.5-11.4 1-6.2 1.6-13.3 1.7-20.4 0-5.3.5-10.5 1-15.7.1-.6 0-1.3.2-1.9.6-2.3.8-4.5.3-6.8-.1-.4 0-.8.1-1.2.1-.4.3-.8.5-1.1.3 0 .7-.3 1.1-.8zm-2.3-12.8h1.1c.2 0 .3.2.4.3.1.1.2.3.1.4-.1.2-.2.3-.4.4-.1.2-.3.2-.5.2-.6-.1-1.3-.6-1.2-.9.1-.2.3-.4.5-.4zm-5.2.2c2.1 2.6 3.6 5.4 4.8 8.5-.1 1.4-1.3 1.6-2 2.7-.7 1.2-.6 3-.2 4.6.9 4.2.2 8.3-.5 12.4-.4 2.3-.7 4.5-.8 6.8-.1 2.3-.2 4.6-.1 6.9 0 5.9-.5 11.7-1.5 17.6.5 3.2.5 6.5 1.2 9.8.3 1.6.2 3.3.1 5-.1 2.9-.2 5.8.1 8.8.3 3.1.1 6.3-.4 9.4-.3 1.6-.7 3.3-.5 5 .3 3.2-.1 6.2-.4 9.4-.4 3.3-.5 6.7-.1 10 .3 2.7.2 5.4.2 8.2-.1 3.6-.3 7.1-.3 10.7 0 2.1.4 4.2.5 6.2 0 1.9-1 3.6-.8 5.6.1 1.4.1 2.9 0 4.3-.1 1.2-.4 2.4-.6 3.7-.9 0-1.5-.4-1.8-1.3-.2-.6-.3-1.2-.3-1.8-.2-4 .1-8-.7-11.9v-.6c-.2-12.8-.5-25.5.5-38.3.6-8.4.7-16.7 1.1-25.1.3-7.3.5-14.7.8-22 .1-2.1-.3-4.2-.1-6.2l.6-6.9c.2-2.1.3-4.2.4-6.3.4-9.6.7-19.3 1.1-28.9.1-1.9 0-3.8-.2-5.6-.5-.2-.3-.4-.1-.7zM47.6 186c-1-1.9-.4-4-1-6-.6-1.8-1-3.6-1.3-5.4-.1-.5.4-1.1.6-1.5 2-.5 3.1.4 3.8 2.2-.1 6.3-.1 6.5-2.1 10.7zM43.7 23.9c1-.5 2.1-1.1 3.1-1.5.5-.2.6-.2 2.1.7.4 1 .4 2 0 2.9-2.2 1.6-2.2 1.6-5 1.6-.8-.6-1.7-1.3-2.6-2.1-.3-.2-.4-.7-.6-1 .7-1.3 1.9-.4 3-.6zm-18.8-3.3c.1-.7 1.2-1.3 1.9-1.1.4.1.8.2 1.1.4 1.2.7 2.4 1.4 3.6 2.2 1.9 1.4 3.8 2.9 5.7 4.5.4.4.7 1 1 1.5-.8 1.3-1.9 2.2-3.1 2.9-.5.3-.9.2-2-.5.3-.8.7-1.5.9-2.3.2-.9-.2-1.6-1.1-2.1-1.6-.5-3.4-.4-5.2-.4-.5 0-1 .5-1.4.7-.1 1.1.4 1.8.7 2.5.3.5.6 1.1.9 1.7 0 .9.1 2 0 3-.3 1.9-.5 3.7 0 5.6.5 1.8.5 3.7.5 5.6.1 5 .4 10 .5 15 0 .4 0 .9.1 1.2.9 3.1.7 6.2.5 9.3-.2 5.2-.5 10.5-.8 15.7 0 .2-.2.4-.3.6-.2-.3-.4-.5-.4-.7-.1-2.1-.1-4.2-.2-6.3-1.2-3.2-.6-6.6-.6-9.9 0-2.3.1-4.6-.4-6.9-.2-1-.3-2.1-.3-3.1-.1-2.7 0-5.4-.5-8.1-.5-2.4-.4-5-1-7.4-.5-2-.3-4.2-.8-6.2-.5-1.9.6-3.6.2-5.6-.4-2-.3-4.2-.3-6.2.1-1.9.5-3.8.8-5.6zm-3.7 16.7c0 4.6.8 9.1 1.7 13.6.4 2.1.5 4.1 0 6.2 0 .2-.3.3-.4.4-1.1-.2-2.3-.5-3.4-.6-.8-.1-1.5.3-2.2.8-1.1.8-1.2 2.1-.1 3.1.3.3.7.4 1 .6 1.6-.2 3-1.1 4.5-1.8.3.4.8.9 1 1.4.6 1.8.4 3.7.4 5.6 0 2.7-.2 5.4.4 8.1-.5 2.8.4 5.4.7 8.1.1.6.2 1.2.2 1.9 0 2.1-.1 4.2-.2 6.3 0 .6-.2 1.2-.3 1.8-1.1.2-2-.2-2.7-.9-1-.9-1.9-2-3.1-3.2-1.2-.3-2.5-.6-3.8-.9-.3-.4-.6-.6-.7-1-.6-1.6-.7-3.3-.3-4.9 1.1-4.3.6-8.7.7-13.1-.6-2.7-.2-5.4-.2-8.1 0-1.5.2-3-.2-4.4-.5-2.1-.4-4.2-.3-6.2l.3-13.2c0-.9.2-1.6 1-2.4 1.6.4 3.3.9 4.9 1.4.2 0 .3.3.4.4.4.2.7.6.7 1zm-10.1-6.4c-.3.1-.8 0-1.1 0-.5-.4-1-1-.6-1.5 1.1-1.5.7-3.2.9-4.8.3-.3.6-.6.8-.9 1.4-.2 2.9-.4 4 .4 1.5 1 3 .6 4.5.5.2 0 .4.1.6.2 1.1 1.9.3 4 .3 6-.3.3-.6.6-1.1 1-1-.2-2.2-.2-3.3-.7-1.6-.8-3.3-.8-5-.2zm-2.8 72c-1.3-.7-2-1.9-2.4-3.4 0-1.1.7-1.9 1.5-2.5.3-.2.7-.5 1-.6 1.5-.6 2.8-1.5 3.8-2.9 1.2-1.7 3-1.9 5-1.4 1.4 1.4 3 2.9 4.8 4.7.5 1.6 1 3.6 2.2 5.2.3.4-.2 1.4-.7 1.4-.4.1-.8.2-1.1.2-2.2 0-4.3.1-6.4.8-1.3.4-2.7.3-4.2.5-1.1-.7-2.3-1.3-3.5-2zm1.3 33.7c-.4-1.7-.3-3.3-.3-5-.3-7.1.8-14.2.7-21.4 0-.5.6-1 .9-1.5 1.9-.2 3.6-.4 5.4-.6 2.6-1.3 5.4-1 8.6-1.5.2 1 .4 1.6.4 2.2 0 3.6 0 7.1-.2 10.7-.3 8.2.8 16.3.7 24.5.6 2.7 0 5.5.5 8.1.7 4.4.5 8.8.4 13.2-.1 1.9-.1 3.8-.2 5.7-.1 1.3-.6 2.4-1.9 3.1-.6-.3-1.3-.7-2-.9-1.7-.6-3.4-.7-5.1.2-.4 1.1-.7 2.1-1.1 3-.8 1.8-.8 3.7-.5 5.6.2 1.7.9 3.2 2.7 3.8.5.2.9.7 1.3 1.1.5.5.3 1.9-.3 2.3-.5.3-1 .7-1.5.9-2.1.6-4.3.6-6.4.2-.2 0-.3-.3-.5-.5 1.1-3.1.9-6.4.6-9.7 0-.4-.2-.8-.4-1.2.1-1.1.1-2.5.1-3.6.2-.3.3-.6.4-.8-.2-2.9-.4-5.6-.5-8.3-.1-4.2.3-8.4-.7-12.5-.1-.4-.1-.8-.1-1.3l-.6-13.2c-.2-.9-.2-1.8-.4-2.6zm13.3 47.6c-.6-1.2-2-1-3-1.7-.7-.5-1.1-1.2-1.2-2v-1.2c.1-1.1.3-2 1.4-2.5.8-.3 1.5.1 2.2.5.6.5 1.2 1.1 1.8 1.7.5 1.4 1.1 3 1.7 4.6-.2 1.5-.3 3.2-.6 4.8-.1.9-.7 1.4-1.6 1.6-1.3-1.6.1-3.9-.7-5.8zm-14.2 1.9c-1.6-1.1-2.7-2-3.8-2.8.4-1.8 1.9-.9 2.8-1.4.9.2 1.2 1.1 1.2 1.9 0 .5-.1 1.1-.2 2.3zm18.5 9.7c-1.5.3-3.1.8-4.6.9-2.5.2-5.1.3-7.5-.8-1.2-.6-2.7-.6-4-.9-.5-.1-.9-.3-1.8-.6 3.5-.9 6.5-1.7 9.1-1.3 1.4.5 1.8 1.2 2.4 1.8.7.7 1.1.7 2.1.2.4-.2.7-.4 1.2-.6.8 0 1.8 0 2.8.1.5.1 1.1.3 1.7.5-.7.4-1 .7-1.4.7zm10.6-4.8c-.4-.4-1-.7-1.3-1.2-1.2-1.9-1.7-4.2-2.2-6.4-.3-1.2-.1-2.5.1-3.7.2-1.4 1.8-2.4 3.2-1.4.3.2.6.5 1.3 1 .2 2.5.3 4.7.4 7.3-.3 1.2-.5 2.9-1.5 4.4zm3.4-14.1c-1.1-1.6-2.7-2.4-4.5-2.9-1.6-.5-3.1-.2-4.5 1.9-.8 2.3-.9 5.2-.6 8.1.4 2.7 2.2 4.9 2.5 7.6-.2.1-.4.3-.5.3-1.6.4-3.1 0-4.7-.1-.7-.1-1.3-1.1-1-1.9.1-.4.2-.8.4-1.2.8-1.8.9-3.6.8-5.9-.7-1.8-1.5-4-2.3-6.1.3-.7.9-.4 1.4-.4.4 0 .8.1 1.1 0 .8-.1 1.6-1.1 1.3-1.8-.9-2.4-1-4.9-.8-7.4.3-5.5-.3-10.9-.3-16.3 0-.4 0-.9-.1-1.3-.8-3.9-.5-7.9-.6-11.9-.1-1.9 0-3.7-.5-5.6-.3-1.2-.2-2.5-.2-3.7 0-2.7.2-5.5.2-8.2 0-2.9.4-5.9-.3-8.8.1-5.9-.2-11.7.4-17.6 0-.2.2-.4.4-.5.2-.2.5.1.6.6.1.2.1.4.1.6.1 1.9 0 3.8.7 5.6.3.7.3 1.6.3 2.5 0 2.1-.1 4.2.4 6.2-.5 4.4.4 8.8-.1 13.1-.4 4.2.5 8.3 1.3 12.4.6 3.1 1.5 6.1 1.2 9.3-.1.6-.1 1.3.1 1.9.8 3.5.6 7.1.7 10.6 0 1.3.1 2.5.2 3.8.4 3.1.2 6.3-.4 9.4.2.5.4 1.2.6 1.7.2.4.4.8.8.9.5.2 1.2.3 1.7.2.5-.2 1-.7 1-1.4 0-1.2.1-2.5-.1-3.7-.6-3.3-.5-6.7-.5-10 0-2.1 0-4.2-.4-6.3-.2-1-.5-2.1.2-3 .5-.8 1.4-.5 2.1-.8 1.2-.5 2-1.4 2.2-2.7.2-.8-.5-1.8-1.2-1.7-1 .1-1.9.4-2.9.6-.2-.3-.5-.6-.6-1-.2-1.9-1.1-3.6-.7-5.5.9-1.4 2.3-1.4 3.6-1.9.6-.3.6-.3 1.8-1.7-.3-.5-.6-1-1-1.4-.6-.6-1.5-.5-2.3-.4-.9.1-1.7 1.1-2.9.6-.9-1.5-1.3-3.3-1.3-5.2 0-2.3 0-4.6.1-6.9 0-2.1.1-4.2-.3-6.3-.3-1.4-.2-2.9-.1-4.4.4-5.1-.4-10-1.1-15-.3-2.3-.5-4.6-.4-6.9.3-6.3.5-12.6.7-18.9.1-2.1 0-4.1-.4-6.2-.9-4.1-1.2-8.3-1-12.5.1-2.7.1-5.4-.4-8.1-.3-1.6-.1-3.3 0-5 0-.3.4-.8.7-.9 1.1-.3 2.3-.6 4.1-1 1.1-.7 2.8-1.8 4.4-2.8.7.2 1.3.3 2 .5 1.6-.4 3.3-.8 4.7-1.2 1.1.4 1.5 1.2 1.6 2 .1 1 .1 2.1 0 3.1-.2 7.1-.6 14-.8 21-.2 6.5-.3 13-.5 19.5l-.3 6.9c-.1 2.3.2 4.6-.2 6.9-.2.8-.2 1.7-.1 2.5.6 5.7-.1 11.3-.3 17-.1 3.5-.1 7.1-1 10.6-.3 1.2-.2 2.5-.1 3.7.3 2.1.2 4.2.1 6.3-.2 7.1-.3 14.3-.4 21.4 0 .4-.1.9 0 1.3.8 5 .4 10 .7 15.2-1 .8-2.2 1.6-3.2 2.6-.9.9-1.4 2.1-.8 3.4.4 1.1 1 2.2.7 3.5-.5-.1-.8-.5-1.2-.9zm.9 15.7c-.3-.1-.6-.5-1-.8 1.1-2.7 1.5-5.5 1.4-8.5-.1-1.8.2-3.6.3-5.4.2.2.5.4.7.7.2.4.2.8.2 1.2.1 3.4.7 6.6 2.1 9.7.2.6.3 1.2.5 1.7-.2 1.1-.9 1.5-1.7 1.6-1 0-1.8 0-2.5-.2zm2.7 3.5c1.1-.6 2-.4 2.7.6-.9-.1-1.9.2-2.7-.6zm6.8 1.6c-1.1.3-2.1.3-3.1-.1-.2-.1-.4-.4-.5-.6 1.4.1 2.9.1 4.3.2-.3.2-.5.4-.7.5zm89.8-1.1c-1.7.6-3.5.7-5.2.1-2.1-.7-4.2-.7-6.4-.2-2.1.5-4.3.5-6.4 1-1.5.3-3.1.1-4.7 0-1.8-.1-3.5-.2-5.3-.4-1.6-.1-3.1 0-4.5.6-5.2-1-10.3-1.3-15.4-.5-2.3.3-4.7.4-7 .8-2.5.5-5.1.3-7.6-.3-4.8-1.1-9.7-1.3-14.6-.6-1.5.2-3.1.2-4.7.2-2.3 0-4.5-.2-6.8-.3.2-.3.4-.6.7-.6 4.5-.6 8.9-1.4 13.4-2.2 1-.2 2-.1 2.9-.1 2.4 0 4.7.1 7.1.1 2.4 0 4.7.1 7-.7.9-.3 1.9-.2 2.9-.2 1-.1 2 .2 2.8.8.9.6 1.9.9 2.8.6 2.1-.7 4.3 0 6.4-.2 2.1-.3 4.3-.1 6.5-.3 1.6-.1 3.1-.4 4.8-.6 1.9.5 4 1.5 6.3 1 1.2-.6 2.5-1.3 3.9-2 1.2.1 2.6 0 4 .2 1.7.3 3.4 1.2 5.2.5 4.2 1.1 8.6.7 12.9 1.4.4.1.7.3 1.1.4-.6 1-1.4 1.2-2.1 1.5zm-10.1-14.8c.3.2.6.4.7.7.5 2.3.3 4.5-.1 6.8-.1.3-.4.8-.7.9-.6.3-1.1-.2-1.5-.9.6-2.4 1.5-4.9 1.6-7.5zm3.6-.1c0-.2.3-.3.5-.5.4.3.9.6 1.4.8.7 1.5.5 2.9 0 4.3-.1.3-.5.6-.8.9-.4.3-.8.2-1-.1-.6-1.7-.7-3.6-.1-5.4zm3.1 7.6c.2-.8.5-1.5 1.5-1.5.1 0 .3 0 .4.1.6.7.5 2.1-.2 2.6-.4.3-1.2.2-1.5-.2-.1-.2-.2-.7-.2-1zm5.6-5.8c-.3.2-.7.4-1 .6-.1-.2-.3-.3-.3-.5-.1-.5.1-.8.5-1 .4-.2.8-.1 1 .4 0 .1-.1.4-.2.5zm2.5-4.2c-1.1-.5-2.1-1-3.2-1.5-1.4-.1-1.9 1.3-3 1.7-.4-.1-.8-.1-1.1-.3-.8-.5-1.6-1.2-2.5-1.7-.7-.3-1.5-.5-2.3-.5-1-.1-2 .6-2.3 1.6-.2 1-.4 1.9-.6 2.9-.2 0-.4-.1-.4-.2-.8-1.9-1.6-3.7-2.4-5.6.7-.1 1.5-.2 2.3-.4.9-.2 1.4-1.8.8-2.5-.5-.6-1.1-1.1-1.7-1.7-.5-.7-.5-1.6-.4-2.4.3-2.3.3-4.6 1.1-6.8.6-1.6.7-3.3.2-5-.9-3.1-.6-6.3.1-9.3 1.1-4.4 1.1-8.7.7-13.1v-.6c1.1-1.7 2.6-3.1 3.3-5.2.4-1.3-.6-2.3-.9-3.8v-4.7c.4-1 .8-1.9 1.2-2.9.6-1.7.5-3.3-.5-4.8-.5-.7-1-1.3-1.4-1.9-.7-.2-1.2-.4-1.8-.6-.6-.2-1.2-.3-1.7-.5-.6-.2-1.1-.5-1.6-.7-.6-.2-1.1-.4-1.7-.4-.6-.1-1.2-.1-1.8-.1-1.7.7-3.3 1.5-4.9 2.2-1.7-.9-3.5 0-5.2-.6-1.4-.6-2.9-.9-4.3-1.4-.6-4.9-.6-4.9.3-6.8.9.2 1.8.4 2.8.5.5.1 1.2-.7 1.2-1.2 0-.4 0-.9-.2-1.2-.8-1.3-2.1-1.8-3.5-2.1-1-1.6-.8-3.1.3-4.5.9-.3 1.6.1 2.3.4 1 .4 1.9.4 2.9.1.9-.3 1.5.3 2 .8 1.1 2.9-.4 6.4 1.6 9.3 2 1.1 4.2 1.7 6.6 1.9 2.5.3 5.1.4 7.5 1.4.6.3 1.7-.6 1.8-1.2.1-.6.3-1.2.4-1.8.1-1.3.1-2.5.3-3.8.2-1.4.9-2.8.3-4.3 0-2.3-.4-4.6-1.4-6.7-.5-1.1-1.3-2-2.1-3-.9-.1-1.6-.3-2.4-.3-1 0-2-.1-2.8-.7-3.9-2.3-7.5-1.8-11 1-.3.3-.6.5-1 .8-.4.8-.9 1.7-1.3 2.6-1.8-.2-1.8-.2-3.7-1.5-.2-.4-.4-.8-.4-1.1 0-2.9-.5-5.8.3-8.7.1-.6.1-1.3 0-1.8-.5-1.6-.5-3.3-.4-5 .5-7.1.2-14.3.4-21.4 0-.6.1-1.3 0-1.9-.7-2.7-.4-5.4 0-8.1.1-.8.2-1.6.1-2.5-.2-4.2.2-8.4.4-12.6 0-.4.3-.8.5-1.2 1.7.2 3.5.5 5.4.7.7.6 1.4 1.2 2.2 1.9 1.4 1.2 3 2 4.8 2.2 1.2.1 2.4.2 3.5.5 1.3.4 2.6.9 3.5 2.6 0 1 0 2.2-.1 3.5 0 1-.4 2.2-.2 3.1.6 2.5 0 5-.2 7.4-.1 1 0 2.1.2 3.1.5 2.8 0 5.4-1.2 7.9-1.2 1.1-2.5 1.3-3.9 1.1-1-.2-1.9-.4-2.9-.5-1.2-.1-2.3.4-3.2 1.4-.8.9-1.5 1.9-1.8 3.2-.2.8-.3 1.6-.5 2.4-.9.1-1.7.2-2.4.4-.6.2-.8.9-.9 1.5 0 .7.3 1.1.8 1.5 1 .9 2.2.2 3.5.7.5 3-1 6.2.4 9.4.6.3 1.3.8 2.1.8 4.4.2 8.5 1.6 12.7 2.5 1.2.8 1.8 3 3.9 2 .3-.3.6-.6.7-.9.5-.9.9-1.9 1.2-2.7.4-2.9.7-5.6 1.1-8.3.1-.4.4-.7.6-1.3 1.1-.1 2.2-.2 3.4-.3.8-.1 1.1-1.3.6-2-.2-.3-.4-.8-.7-1-1.5-1-2.8-2.3-4.2-3.5-1.3-1.2-3.1-1.8-4.6-2.7-.2-.1-.3-.2-.4-.3-.8-.9-.9-1.9-.8-2.9.2-4.6.4-9.2.5-13.8 0-1 .2-2.2-.1-3.1-.9-3.2-.4-6.2.4-9.3v-.4c-.1-2.3-1.1-3.7-2.6-4.9.3-.5.6-1.1 1-1.8.1-4.5.2-9.1.4-13.7 0-.8 0-1.7 1-2.1 5.3 2.5 9.4 6.5 13 11.6 0 3.1-.1 6.2-.3 9.4-.1 2.5-.3 5 .2 7.5.3 1.2.2 2.5.2 3.8.1 3.3-.2 6.7.7 10 .1.4.1.8.1 1.3-.2 9 .7 18 .2 27-.1 2.3-.2 4.6.1 6.9.2 1.4.1 2.9.1 4.4l-.6 22c-.2 6.9-.6 13.8-1.3 20.7-.2 2.1-.3 4.2-.2 6.3.1 4.8 0 9.7-.1 14.5-.1 2.3-.3 4.6.3 6.9.1.2 0 .4 0 .6-.2 5.7-.3 11.3-.6 17-.2.4-.6.8-.8 1.2zm-14.2-84.8c-1.1-1.2-2.2-2.3-3.5-3.8-1.5-.1-2.7-.2-3.8-.1-1.2.1-2.3.5-3.5.7-.5-.2-1.1-.4-1.5-.7-1-.7-1-2 0-2.5.7-.4 1.4-.8 2.1-1 1.4-.5 2.7-.4 3.9.5.8.6 1.6 1.2 2.6 2 1.1 0 2.5.1 3.5.2 1.1.8 1.5 1.8 1.8 2.8.2.7-.3 1.4-1.6 1.9zm1.4 4.5c.4 1.3.3 2.3-.2 3.2-.3.2-.7.6-1 .6-1.6 0-7.1-1.3-8.6-1.8-.4-.1-.7-.4-1.4-.7-.3-2-1.6-3.8.1-5.6.5-.1 1.1-.3 1.6-.4 1-.1 2 0 2.7 0 .6.3 1 .4 1.3.7.9.8 1.6 1.9 2.5 2.6 1 .6 2.1 1 3 1.4z"/>
</svg>
