<svg xmlns="http://www.w3.org/2000/svg" width="30" height="33.3" style="overflow:visible;enable-background:new 0 0 30 33.3" xml:space="preserve">
    <style>
        .st0{fill:#c8a78b}.st1{fill:#7a6a56}.st2{fill:#fff}.st3{fill:#f8f5f4}.st4{fill:#e7d9e0}
    </style>
    <path class="st0" d="M10.1 9.9c.2-.3.3-.5.6-.6.3-.2.6-.3 1-.5.1 0 .2-.1.3-.1l1.2-.6c.1.1.2.1.3.2.1.4.2.9.3 1.3v.4c.1.4.1.9 0 1.3-.1.2-.1.4-.1.6-.4.9-.8 1.7-1.7 2.2-.3.1-.6.2-.9.2h-.4c-.1 0-.3-.2-.4-.3v-.5c0-.4 0-.8-.2-1.1 0-.1-.1-.3-.1-.4 0-.5-.2-1.7 0-2 .1 0 .1 0 .1-.1 0 .1 0 0 0 0zM15.1 8.9c0-.1.1-.2.1-.2.4-.3.9-.4 1.3-.5 1.3 0 1.3 0 2 .4.3.5.3 1 .3 1.6 0 0 .3.6.2 1.4v.7c0 .6-.1 1.3-.2 1.9 0 .1-.1.2-.1.3-.3.2-.5.2-.8.1-.8-.2-1.5-.4-2-1-.2-.3-.5-.5-.6-.8-.1-.2-.2-.5-.2-.7s-.2-1.2-.1-1.6c-.1-.6 0-1.1.1-1.6z"/>
    <path class="st1" d="M11.9 9.7c.4 0 .7 0 1 .2.1.1.3.2.4.3.3.5.5 1.1.3 1.7-.1.2-.2.5-.4.6-.1.1-.2.2-.4.3-.2.2-.5.3-.8.2h-.4c-.2-.1-.3-.1-.5-.2-.4-.2-.7-.5-.8-.9-.1-.5-.1-.9.3-1.3.1-.1.2-.3.4-.4.2-.2.5-.4.9-.5zm-.9 1.5c0 .5 0 .5.1.7.1.2.3.3.5.4.5.1 1 0 1.2-.4.1-.2.2-.4.2-.6 0-.1 0-.3-.1-.5-.1-.3-.4-.5-.8-.5-.2.1-.4.1-.5.2-.2.3-.4.5-.6.7z"/>
    <path class="st2" d="M16.6 25.1c-.4.3-.8.4-1.2.6-.5 0-1 0-1.5-.1-.5-.2-.9-.5-1.3-.8-.2-.1-.5-.2-.7.1-.1 1.2-.5 2.3-.6 3.5 0 .3-.2.6-.3.8-.1.2-.4.4-.6.4-.5.1-.9.1-1.4 0l-.1-.1c0-.3 0-.7.1-1 0-.2.1-.4.1-.6-.1-.4 0-.9 0-1.4 0-.7.1-1.5-.1-2.2 0-.3-.1-.6 0-.9.1-.8 0-1.5.1-2.3v-.9c.1-.8.2-1.5.4-2.3.2-.9.5-1.7.9-2.5l.3.3c.4.3.7.7.7 1.2.1.5.3 1 .6 1.4.2.2.3.4.5.6.2.1.3.3.6.4.1.2.2.4.3.7-.1.4-.3.8-.4 1.2-.1.2-.1.5-.2.8-.1.4.1.6.4.8.5.3 1 .3 1.6.3.3-.2.6-.3.9-.5.6-.5.8-1.1 1-1.8 0-.5.1-1 .1-1.5.1-.1.2-.3.3-.4.5-.4.8-.9 1-1.6.1-.5.2-1.2.5-1.8 0-.1.3-.2.3-.1l.3.3.7.7c.2 0 .5.1.7.1.2 0 .3.2.3.4s.1.3.1.5c0 .9-.1 1.9-.2 2.8-.1.6-.2 1.1-.4 1.6-.1.4-.2.7-.2 1.1 0 .3 0 .6-.1.9 0 .1-.1.3 0 .4.1.5 0 .9 0 1.4v.4c.2 1 .1 2.1.3 3.1-.1.1-.2.2-.3.2-.3.1-.5 0-.7-.1-.2-.2-.4-.5-.5-.7-.3-.7-.5-1.5-.6-2.2-.1-.3-.1-.6-.2-.9 0-.3-.1-.5-.1-.7-.2-.4-.5-.4-.9-.2-.1.1-.3.3-.5.6zM27.3 2.6c.3-.4.7-.7 1-1 .1-.1.2-.1.3-.2.1-.1.2-.1.4-.1 0 .1.1.1.1.2 0 .5.1.9 0 1.4v.4c.1.6 0 1.3 0 1.9 0 .9-.1 1.7.1 2.6.1.5 0 .9 0 1.4 0 1-.1 2.1 0 3.1.1.7 0 1.4 0 2.1 0 .6-.1 1.2 0 1.8v.8c0 1.1-.1 2.2-.1 3.2 0 .4 0 .8.1 1.2.1.2 0 .5 0 .8V25.3c.1.4 0 .9 0 1.3-.1.4-.1.9-.1 1.3-.1 1-.1 2-.2 3 0 0 0 .1-.1.1h-.2c-.6-.4-1-.9-1.5-1.4-.2-.2-.2-.5-.2-.7.1-.3.2-.7.2-1 0-.1.1-.3 0-.4-.2-.8-.1-1.6 0-2.5 0-1.3.1-2.7.2-4v-.4c-.1-2 0-4 .1-5.9.1-1.3.1-2.6.1-3.9V7.2c-.1-.8-.2-1.6-.2-2.5-.2-.6-.1-1.1-.1-1.7 0-.1.1-.2.1-.4z"/>
    <path class="st3" d="M21.3 29.1c-.1-.4-.1-.7-.2-1-.1-.3-.1-.6-.1-.9 0-.3-.1-.7-.1-1v-1.6c-.2-.8 0-1.4.3-2.1.1-.1.2-.1.2-.1h.9c.5.1.9.1 1.4-.1.3-.1.7-.1 1 0 .6.2 1.1.3 1.7.4 0 .2.1.3.1.4 0 .6-.1 1.3-.1 1.9 0 1-.1 2.1 0 3.1-.1.4-.2.7-.3 1-.1.1-.2.1-.2.1H25c-.8 0-1.6 0-2.4.1-.3 0-.6 0-.9-.1-.2 0-.3-.1-.4-.1z"/>
    <path class="st2" d="M2.5 3.4c.2 1.2.2 2.3.1 3.5 0 .3 0 .6-.1.9 0 1.2-.1 2.4-.1 3.6v.4c.2 2 0 4-.1 5.9 0 .8-.1 1.6-.1 2.3 0 .6-.1 1.2.1 1.8v.3c0 .9 0 1.8.1 2.7.1.9 0 1.7 0 2.6v.5c.1.4 0 .8-.1 1.2-.1.4-.1.8-.1 1-.2.5-.4.8-.7 1-.1.1-.2.1-.3.1-.1-.3-.1-.5 0-.8.1-1.2.1-2.4.2-3.6 0-.8.1-1.6 0-2.5-.1-.7 0-1.5 0-2.2v-.8c-.2-.9-.1-1.7 0-2.6.1-1.9.2-3.8.2-5.7v-.3c-.2-.9-.1-1.9-.1-2.8 0-.8-.1-1.6-.1-2.4 0-.5-.1-.9-.2-1.4C1 5.7.9 5.2.9 4.7c0-.4 0-.8-.1-1.2-.1-.4 0-.9 0-1.3.1 0 .2-.1.2-.1h.2c.6.4 1 .8 1.3 1.3zM27.7 31.4c-.3.1-.7.1-1 0-1.1-.1-2.2-.2-3.4-.2-.3 0-.5-.1-.8-.1-1.3 0-2.7-.1-4-.2-.7 0-1.4-.1-2.1.1-.4.1-.8 0-1.2 0-.7 0-1.5 0-2.2.1-.9.1-1.8.2-2.7.2-.3 0-.7.1-1 .1l-2.4.3c-1 .1-2.1.2-3.1.5-.5.1-1 .2-1.5.2-.2 0-.5.1-.7-.1.1-.1.1-.2.2-.3L3 30.5c.2 0 .3-.1.4 0 1 .2 2 .1 3 .2h.5c.6-.2 1.2-.1 1.8-.1.6 0 1.2.1 1.8-.1H12.4c.5-.1.9-.1 1.4-.1.2 0 .4 0 .6-.1.9-.1 1.7-.2 2.6-.2 1.6.1 3.1.1 4.7.2h1.7c1-.1 2.1-.1 3.1.1 1.1.7 1.1.7 1.2 1z"/>
    <path class="st0" d="M23.6 11.7c-.2.8-.6 1.5-1.1 2.1-.3.4-.6.8-1 1.2-.2.2-.4.3-.6.5-.3.2-.8.2-1.1-.1l-.2-.2c0-.1-.1-.2-.1-.3 0-.3.1-.7.1-1.1 0-.4 0-.8.1-1.2.1-.7 0-1.4-.2-2 0-.1-.1-.2-.1-.4v-.9c0-.3-.1-.6.1-.9.3 0 .5.1.7.3.2.2.5.4.7.6.7.7 1.6 1.3 2.5 2 0 .1.1.3.2.4z"/>
    <path class="st3" d="M11.6 29.5c0-.3.1-.4.2-.6.2-.7.4-1.3.4-2 0-.3.1-.6.2-.9 0-.1.2-.2.3-.2.3.2.6.4 1 .5.1 0 .2.1.3.1 1.5.2 1.8.2 3.2-.6h.2c.1.6.3 1.2.4 1.7.1.5.3 1.1.5 1.6-.1.1-.1.2-.2.2h-.6c-1-.1-2 0-2.9.2-.2 0-.4.1-.6.1-.6 0-1.3 0-1.9.1-.3-.1-.4-.2-.5-.2z"/>
    <path class="st2" d="M16.3 14.7c.4.2.7.3 1.1.5.2.2.3.5.3.7 0 .4-.2.8-.3 1.2-.3.8-.9 1.3-1.9 1.3h-.9c-.2.1-.5.1-.7.2-.8-.3-1.3-.8-1.6-1.6-.2-.6-.5-1.3-.9-1.8.2-.1.3-.1.5-.1.8-.2 1.4-.7 1.8-1.3.2-.3.4-.7.6-1 .1-.1.1-.2.2-.3.6 1.2.6 1.2 1.8 2.2zm-.8.4c-.3 0-.6-.1-.9 0-.7.1-1.2.4-1.4 1.1 0 .1 0 .2.1.3.1.4.4.7.8.7.3 0 .7 0 1 .1.3-.1.5-.2.7-.4.5-.3.5-1 .1-1.3-.1-.3-.3-.4-.4-.5zM9.9 2.3s0-.1.1-.1.2-.1.4-.1c1 0 2.1-.1 3.1-.1.6 0 1.3 0 1.9-.1.8-.1 1.6-.1 2.4-.2.8-.1 1.6-.1 2.4-.3.8-.1 1.5-.2 2.3-.2.3 0 .7 0 1-.1.3-.1.5-.1.7-.2 1.1 0 2.1-.2 3.2-.1h.5s.1 0 .1.1V1c-.4.5-.9.9-1.7 1.1-.5 0-1 0-1.6-.1-1.1 0-2.2 0-3.3.3-.9.2-1.8.3-2.7.2-.8-.1-1.6-.1-2.4 0h-.6c-1.6-.1-3.3-.1-4.9-.2h-.9z"/>
    <path class="st0" d="M9.7 14.5c-.1.5-.2.8-.3 1.2 0 .2-.4.3-.5.2-.1-.1-.3-.2-.4-.4-.5-1-1.2-1.9-1.8-2.8-.1-.2-.3-.4-.4-.7v-.7c.1-.1.2-.2.4-.3.4-.3.8-.4 1.2-.5.4-.1.8-.2 1.3-.2.2 0 .3.1.3.3v.9c0 .4 0 .9.1 1.3 0 .5 0 1.1.1 1.7z"/>
    <path class="st2" d="M17.4 12.1h-.6c-.6-.1-1-.7-.6-1.2l.6-.6c.3-.1.5-.1.7 0 .2.1.4.4.4.6 0 .5-.1.6-.5 1.2zm-.5-1.2c-.1.1-.1.2-.2.3-.1.2 0 .4.2.4.2.1.4.1.5-.1.1-.1.2-.3.2-.5s-.2-.3-.4-.4c-.1.2-.2.2-.3.3z"/>
    <path class="st4" d="M15.2 21.7c0-.1-.1-.2-.1-.3.1-.6.1-1.2.2-1.8 0-.1.1-.2.1-.2.1-.1.1-.1.2-.1h.2l.1.1c.2.8 0 1.5-.5 2.2 0 .1-.1.1-.2.1zM14 19.4c.2-.1.4-.1.6-.2.1.8 0 1.2-.5 2.5v.4c-.3.1-.4.1-.6-.2v-.2c.1-.3.2-.6.3-.8.3-.5.3-.9.2-1.5z"/>
    <path class="st2" d="M4.6 2c.5.2.9.2 1.2.3v.1c-.6.1-1.3.2-2.1.3-.3-.1-.7-.2-1.1-.4-.1-.1 0-.2.1-.2.3 0 .5-.1.8-.1.3.1.7.1 1.1 0zM9.9 2.3c-.1 0-.1.1-.2.1h-.2c-.9 0-1.7 0-2.6-.1-.2 0-.3 0-.5-.2.1 0 .2-.1.3-.1 1.1.2 2.1.2 3.2.3zM11 11.2c.2-.2.4-.4.6-.7.1 0 .3-.1.5-.2.4 0 .6.2.8.5.1.2.1.3.2.5-.1.2-.1.4-.2.6-.2.4-.7.6-1.2.4-.2-.1-.4-.2-.5-.4-.2-.2-.2-.2-.2-.7zm1.4.3c.1-.2.1-.3 0-.5 0-.1-.1-.1-.2-.1-.2-.1-.4 0-.5.3.1.5.2.5.7.3z"/>
    <path class="st1" d="M15.5 15.1c.1.1.3.2.4.3.4.3.3 1.1-.1 1.3-.2.1-.5.2-.7.4-.3 0-.7 0-1-.1-.4 0-.7-.3-.8-.7 0-.1 0-.2-.1-.3.2-.7.8-1 1.4-1.1.3.1.6.1.9.2zM16.9 10.9c.1-.1.3-.1.4-.2.2.1.4.2.4.4s-.1.3-.2.5c-.1.1-.3.2-.5.1s-.3-.3-.2-.4c-.1-.2 0-.3.1-.4zM12.4 11.5c-.4.2-.6.1-.8-.3.2-.3.3-.3.5-.3.1 0 .1.1.2.1.2.2.1.4.1.5z"/>
    <path class="st1" d="M30 25.3c0-.4.1-.9-.1-1.3.1-.4 0-.9 0-1.3v-3.6c-.1-.4-.1-.8-.1-1.2 0-.9.1-1.8.1-2.7 0-.6.1-1.3-.1-1.9V6.7c-.2-1 0-2 0-3 0-.7 0-1.5.1-2.2 0-.5 0-.9-.2-1.4-.1 0-.2-.1-.3-.1-.9 0-1.7.1-2.6.1-.3 0-.6.1-.9.1-.8 0-1.6 0-2.3.2-.7 0-1.3.2-1.9.2-.7 0-1.3.1-1.9.2-1 .1-1.8.1-2.7.2-1 .1-2 .3-3 .2h-.5c-.5.1-1 .1-1.5.1h-1.3c-.8.2-1.6.2-2.5.2h-.9c-.5.1-1 0-1.5 0-1 0-2-.1-3-.1-.3 0-.7 0-1-.1-.3-.1-.6-.3-.9-.5C.8.7.5.8.4.9c-.1.1-.2.2-.3.4 0 .4-.1.8 0 1.3.1.6.1 1.2.1 1.8v.8c.1.5.1 1 .1 1.5 0 .3.1.6.1.9.1 1.1.3 2.3.2 3.4 0 .5 0 1 .1 1.5.1.3 0 .6 0 .9 0 2.1-.1 4.1-.3 6.2 0 .6-.1 1.2 0 1.8.1.3 0 .6 0 .9 0 .9-.1 1.8.1 2.7v.6c0 .6-.1 1.1-.1 1.7 0 1.5-.2 3-.2 4.5v.3c-.1.1-.1.2-.2.3v.1c-.1.2 0 .5.2.5.7.1 1.5.2 2.2.1.7-.1 1.5-.2 2.2-.4.2-.1.5-.1.8-.2 1.2-.2 2.4-.3 3.6-.4.6-.1 1.1-.1 1.7-.1.8 0 1.6-.1 2.5-.2.7-.1 1.5-.1 2.2-.1h1.2c.7-.1 1.5-.1 2.2-.1 1.5.1 2.9.1 4.4.2.3 0 .6.1.9.1 1 .1 2.1.2 3.1.2 1.1 0 1.1 0 2 .3.3 0 .5-.2.5-.5v-.3c.1-1.3.2-2.6.2-3.9 0-.7 0-1.5.1-2.4zM10 2.2c.1 0 .2-.1.4-.1 1 0 2.1-.1 3.1-.1.6 0 1.3 0 1.9-.1.8-.1 1.6-.1 2.4-.2.8-.1 1.6-.1 2.4-.3.8-.1 1.5-.2 2.3-.2.3 0 .7 0 1-.1.3-.1.5-.1.7-.2 1.1 0 2.1-.2 3.2-.1h.5s.1 0 .1.1V1c-.4.5-.9.9-1.7 1.1-.5 0-1 0-1.6-.1-1.1 0-2.2 0-3.3.3-.9.2-1.8.3-2.7.2-.8-.1-1.6-.1-2.4 0h-.6c-1.6-.1-3.3-.1-4.9-.2-.3 0-.6 0-.8-.1-.1 0 0 0 0 0zm16.6 16.4v.4c0 .9-.1 1.7-.1 2.6-.1.1-.2.1-.2.2-.3.1-.7 0-1 0-.8-.2-1.6-.1-2.4 0-.5-.1-.9-.1-1.3-.2-.1 0-.1-.1-.2-.2v-.3c.3-.7.3-1.3.4-2 0-.3 0-.7.1-1 .1-.6 0-1.1-.1-1.7v-.5c.1-.1.2-.3.3-.4 1.1-1.1 1.9-2.3 2.4-3.7 0-.3-.1-.6-.3-.8-.3-.4-.7-.8-1.2-1-.5-.3-1-.7-1.4-1.1-.5-.5-1-.9-1.5-1.3-.5-.1-.9 0-1.4.1-.6-.3-1.3-.3-2-.3-.7.2-1.5.4-2.2.6-.4 0-.6-.3-.8-.4-.2-.1-.4 0-.5 0-.4.2-.7.3-1 .5-.4.2-.8.5-1.3.5-.4.1-.7.3-1 .4-.2.1-.5.3-.7.4-.3.2-.6.3-.9.3-.3.1-.6.2-.9.2-.6.1-1.1.4-1.5.7-.4.4-.6.9-.4 1.4.1.4.3.7.5 1 .7 1 1.4 2 1.9 3 .1.2.3.3.4.5.1.1.3.2.4.3.1.4 0 .6-.1.9-.1.4-.2.7-.2 1.1-.1.9-.2 1.8-.2 2.7 0 .2 0 .4-.2.7-.4.1-.9-.1-1.3 0l-1.8.6H3.6c-.1 0-.2.1-.2.2s.1.3.2.3c.6.1 1.3.2 1.9 0l1.2-.3c.4 0 .9 0 1.3.1l.2.2v1.1c0 .4 0 .9.1 1.3.1.5.1 1 0 1.4-.1.6-.2 1.3-.3 1.9-.1.2-.3.5-.5.7-.1 0-.2.1-.3.1-1 .1-2.1 0-3.1-.1-.4 0-.7-.1-1-.4 0-.4.1-.7 0-1.1-.1-.4 0-.9 0-1.3v-2c-.1-.5-.1-1 0-1.5 0-.4 0-.9-.1-1.3-.1-.6-.1-1.1-.1-1.7l.3-6.6v-.5c-.1-.6-.1-1.1-.1-1.7 0-1 .1-2.1.1-3.1 0-.5.1-.9.1-1.4.1-.8.2-1.6 0-2.4-.1-.3 0-.7 0-1 .1-.1.2-.2.3-.2.5-.1.9-.1 1.4-.2h.3c1.1-.3 2.3 0 3.5-.2h.5c1.7.1 3.4.1 5 .2h1c.9-.1 1.8-.1 2.7 0 1.1.1 2.2 0 3.2-.2 1.4-.2 2.8-.3 4.3-.2.3 0 .5 0 .7.2.2.2.1.5.2.7.1.2.1.4.1.6 0 .5.1.9.1 1.4.1.5 0 .9 0 1.4v2.6c0 1.2-.1 2.3-.1 3.5v2c.1 1.1 0 2.2.1 3.3zm-.2 9.5c-.1.4-.2.7-.3 1-.1.1-.2.1-.2.1H25c-.8 0-1.6 0-2.4.1-.3 0-.6 0-.9-.1-.1 0-.2-.1-.3-.2-.1-.4-.1-.7-.2-1-.2-.2-.2-.5-.2-.8 0-.3-.1-.7-.1-1v-1.6c-.2-.8 0-1.4.3-2.1.1-.1.2-.1.2-.1h.9c.5.1.9.1 1.4-.1.3-.1.7-.1 1 0 .6.2 1.1.3 1.7.4 0 .2.1.3.1.4 0 .6-.1 1.3-.1 1.9-.1 1.1-.2 2.1 0 3.1zm-6.3-4.3c0 .1-.1.3 0 .4.1.5 0 .9 0 1.4v.4c.2 1 .1 2.1.3 3.1-.1.1-.2.2-.3.2-.3.1-.5 0-.7-.1-.2-.2-.4-.5-.5-.7-.3-.7-.5-1.5-.6-2.2-.1-.3-.1-.6-.2-.9 0-.3-.1-.5-.1-.7-.2-.4-.5-.4-.9-.2-.2.2-.4.5-.5.8-.4.3-.8.4-1.2.6-.5 0-1 0-1.5-.1-.5-.2-.9-.5-1.3-.8-.2-.1-.5-.2-.7.1-.1 1.2-.5 2.3-.6 3.5 0 .3-.2.6-.3.8-.1.2-.4.4-.6.4-.5.1-.9.1-1.4 0l-.1-.1c0-.3 0-.7.1-1 0-.2.1-.4.1-.6-.1-.6 0-1.1 0-1.6 0-.7.1-1.5-.1-2.2 0-.3-.1-.6 0-.9.1-.8 0-1.5.1-2.3v-.9c.1-.8.2-1.5.4-2.3.2-.9.5-1.7.9-2.5l.3.3c.4.3.7.7.7 1.2.1.5.3 1 .6 1.4.2.2.3.4.5.6.2.1.3.3.6.4.1.2.2.4.3.7-.1.4-.3.8-.4 1.2-.1.2-.1.5-.2.8-.1.4.1.6.4.8.5.3 1 .3 1.6.3.3-.2.6-.3.9-.5.6-.5.8-1.1 1-1.8 0-.5.1-1 .1-1.5.1-.1.2-.3.3-.4.5-.4.8-.9 1-1.6.1-.5.2-1.2.5-1.8 0-.1.3-.2.3-.1l.3.3.7.7c.2 0 .5.1.7.1.2 0 .3.2.3.4s.1.3.1.5c0 .9-.1 1.9-.2 2.8-.1.6-.2 1.1-.4 1.6-.1.4-.2.7-.2 1.1 0 .3 0 .6-.1.9zM18.3 29c-.1.1-.1.2-.2.2h-.6c-1-.1-2 0-2.9.2-.2 0-.4.1-.6.1-.6 0-1.3 0-1.9.1-.1 0-.2-.1-.3-.1 0-.3.1-.4.2-.6.2-.7.4-1.3.4-2 0-.3.1-.6.2-.9 0-.1.2-.2.3-.2.3.2.6.4 1 .5.1 0 .2.1.3.1 1.5.2 1.8.2 3.2-.6h.2c.1.6.3 1.2.4 1.7-.1.5.1 1 .3 1.5zM8.9 15.9c-.1-.1-.3-.2-.4-.4-.5-1-1.2-1.9-1.8-2.8-.1-.2-.3-.4-.4-.7v-.7c.1-.1.2-.2.4-.3.4-.3.8-.4 1.2-.5.4-.1.8-.2 1.3-.2.2 0 .3.1.3.3v.9c0 .4 0 .9.1 1.3.1.5.1 1.1.2 1.7-.1.5-.2.8-.3 1.2-.1.2-.5.3-.6.2zm1.2-6c.2-.3.3-.5.6-.6.3-.2.6-.3 1-.5.1 0 .2-.1.3-.1l1.2-.6c.1.1.2.1.3.2.1.4.2.9.3 1.3v.4c.1.4.1.9 0 1.3-.1.2-.1.4-.1.6-.4.9-.8 1.7-1.7 2.2-.3.1-.6.2-.9.2h-.4c-.1 0-.3-.2-.4-.3v-.5c0-.4 0-.8-.2-1.1 0-.1-.1-.3-.1-.4 0-.5-.2-1.7 0-2 .1 0 .1 0 .1-.1 0 .1 0 0 0 0zm5-1c0-.1.1-.2.1-.2.4-.3.9-.4 1.3-.5 1.3 0 1.3 0 2 .4.3.5.3 1 .3 1.6 0 0 .3.6.2 1.4v.7c0 .6-.1 1.3-.2 1.9 0 .1-.1.2-.1.3-.3.2-.5.2-.8.1-.8-.2-1.5-.4-2-1-.2-.3-.5-.5-.6-.8-.1-.2-.2-.5-.2-.7s-.2-1.2-.1-1.6c-.1-.6 0-1.1.1-1.6zm1.2 5.8c.4.2.7.3 1.1.5.2.2.3.5.3.7 0 .4-.2.8-.3 1.2-.3.8-.9 1.3-1.9 1.3h-.9c-.2.1-.5.1-.7.2-.8-.3-1.3-.8-1.6-1.6-.2-.6-.5-1.3-.9-1.8.2-.1.3-.1.5-.1.8-.2 1.4-.7 1.8-1.3.2-.3.4-.7.6-1 .1-.1.1-.2.2-.3.6 1.2.6 1.2 1.8 2.2zm-.8 6.9c-.1.1-.2.1-.3.1 0-.1-.1-.2-.1-.3.1-.6.1-1.2.2-1.8 0-.1.1-.2.1-.2.1-.1.1-.1.2-.1h.2l.1.1c.2.8 0 1.5-.4 2.2zm-1.4.5c-.3.1-.4.1-.6-.2v-.2c.1-.3.2-.6.3-.8.2-.4.2-.8.1-1.4.2-.1.4-.1.6-.2.1.8 0 1.2-.5 2.5.1.1.1.2.1.3zm6.8-6.6c-.3.2-.8.2-1.1-.1l-.2-.2c0-.1-.1-.2-.1-.3 0-.3.1-.7.1-1.1 0-.4 0-.8.1-1.2.1-.7 0-1.4-.2-2 0-.1-.1-.2-.1-.4v-.9c0-.3-.1-.6.1-.9.3 0 .5.1.7.3.2.2.5.4.7.6.7.7 1.6 1.3 2.5 2 .1.1.2.3.2.5-.2.8-.6 1.5-1.1 2.1-.3.4-.6.8-1 1.2-.1.1-.4.2-.6.4zM6.7 2.1c1 0 2.1.1 3.1.2 0 0-.1.1-.2.1h-.2c-.9 0-1.7 0-2.6-.1-.2 0-.3 0-.5-.2.2.1.3 0 .4 0zm-4 .1c.3 0 .5-.1.8-.1h1.2c.5.2.9.2 1.2.3v.1c-.7 0-1.4.1-2.2.2-.3-.1-.7-.2-1.1-.4-.1 0-.1-.1.1-.1zM1.2 31.3c-.1-.3-.1-.5 0-.8.1-1.2.1-2.4.2-3.6 0-.8.1-1.6 0-2.5-.1-.7 0-1.5 0-2.2v-.8c-.2-.9-.1-1.7 0-2.6.1-1.9.2-3.8.2-5.7v-.3c-.2-.9-.1-1.9-.1-2.8 0-.8-.1-1.6-.1-2.4 0-.5-.1-.9-.2-1.4-.2-.5-.3-1-.3-1.5 0-.4 0-.8-.1-1.2-.1-.4 0-.9 0-1.3.1 0 .2-.1.2-.1h.2c.5.3.9.8 1.2 1.3.2 1.2.2 2.3.1 3.5 0 .3 0 .6-.1.9 0 1.2-.1 2.4-.1 3.6v.4c.2 2 0 4-.1 5.9 0 .8-.1 1.6-.1 2.3 0 .6-.1 1.2.1 1.8v.3c0 .9 0 1.8.1 2.7.1.9 0 1.7 0 2.6v.5c.1.4 0 .8-.1 1.2-.1.4-.1.8-.1 1-.2.5-.4.8-.7 1 0 .1-.1.2-.2.2zm25.5.2c-1.1-.1-2.2-.2-3.4-.2-.3 0-.5-.1-.8-.1-1.3 0-2.7-.1-4-.2-.7 0-1.4-.1-2.1.1-.4.1-.8 0-1.2 0-.7 0-1.5 0-2.2.1-.9.1-1.8.2-2.7.2-.3 0-.7.1-1 .1l-2.4.3c-1 .1-2.1.2-3.1.5-.5.1-1 .2-1.5.2-.2 0-.5.1-.7-.1.1-.1.1-.2.2-.3L3 30.6c.2 0 .3-.1.4 0 1 .2 2 .1 3 .2h.5c.6-.2 1.2-.1 1.8-.1.6 0 1.2.1 1.8-.1H12.4c.5-.1.9-.1 1.4-.1.2 0 .4 0 .6-.1.9-.1 1.7-.2 2.6-.2 1.6.1 3.1.1 4.7.2h1.7c1-.1 2.1-.1 3.1.1 1.3.9 1.3.9 1.4 1.3-.5-.2-.9-.3-1.2-.3zm2.5-4.9c-.1.4-.1.9-.1 1.3-.1 1-.1 2-.2 3 0 0 0 .1-.1.1h-.2c-.6-.4-1-.9-1.5-1.4-.2-.2-.2-.5-.2-.7.1-.3.2-.7.2-1 0-.1.1-.3 0-.4-.2-.8-.1-1.6 0-2.5 0-1.3.1-2.7.2-4v-.4c-.1-2 0-4 .1-5.9.1-1.3.1-2.6.1-3.9V7.2c-.1-.8-.2-1.6-.2-2.5-.2-.6-.1-1.1-.1-1.7 0-.1 0-.3.1-.4.3-.4.7-.7 1-1 .1-.1.2-.1.3-.2.1-.1.2-.1.4-.1 0 .1.1.1.1.2 0 .5.1.9 0 1.4v.4c.1.6 0 1.3 0 1.9 0 .9-.1 1.7.1 2.6.1.5 0 .9 0 1.4 0 1-.1 2.1 0 3.1.1.7 0 1.4 0 2.1 0 .6-.1 1.2 0 1.8v.8c0 1.1-.1 2.2-.1 3.2 0 .4 0 .8.1 1.2.1.2 0 .5 0 .8V25.3c.1.4.1.9 0 1.3z"/>
    <path class="st1" d="M15.5 11.7c.1.3.2.5.4.7 1 .4 1 .4 1.4.4.6-.3.7-.4 1-1 0-.2.1-1.1.1-1.2 0-.3-.1-.5-.3-.7-.1-.1-.3-.2-.5-.3-.5-.1-.9-.1-1.3.2-.4.3-.7.5-.8 1 0 .1-.1.5 0 .9zm.7-.8.6-.6c.3-.1.5-.1.7 0 .2.1.4.4.4.6.1.5 0 .6-.4 1.2h-.6c-.7-.1-1.1-.7-.7-1.2z"/>
    <path d="M26.8 8.2V5.8c-.1-.5-.1-.9-.1-1.4 0-.2 0-.4-.1-.6-.1-.2 0-.5-.2-.7-.2-.2-.5-.1-.7-.2-1.4-.1-2.8 0-4.3.2-1.1.2-2.1.3-3.2.2-.9-.1-1.8-.1-2.7 0h-1c-1.7 0-3.4-.1-5-.2H9c-1.4.2-2.6-.1-3.8.2h-.3c-.4 0-.9.1-1.3.1-.1 0-.2.1-.3.2 0 .4-.1.7 0 1 .2.8.1 1.6 0 2.4 0 .5-.1.9-.1 1.4 0 1-.1 2.1-.1 3.1 0 .6-.1 1.1.1 1.7v.5l-.3 6.6c0 .6 0 1.1.1 1.7.1.3.1.6.1.9h.3v-.1c0-.1.2-.2.2-.2h1.3l1.8-.6c.5-.1.9.2 1.3 0 .2-.2.2-.4.2-.7 0-.9.1-1.8.2-2.7 0-.4.1-.8.2-1.1.1-.2.2-.5.1-.9-.2-.1-.3-.2-.4-.3-.1 0-.3-.1-.4-.3-.6-1-1.2-2-1.9-2.9-.2-.3-.4-.7-.5-1-.2-.5 0-1.1.4-1.4.4-.4.9-.7 1.5-.7.3 0 .6-.1.9-.2.3 0 .6-.2.9-.3.2-.2.5-.4.7-.5.3-.1.5-.3.8-.4.5-.1.9-.3 1.3-.5s.7-.3 1-.5c.2-.1.3-.1.5 0 .4 0 .5.3 1 .4.7-.2 1.4-.4 2.2-.6.7 0 1.4 0 2 .3.5 0 .9-.2 1.4-.1.5.4 1.1.8 1.5 1.3.4.5.9.9 1.4 1.1.5.3.8.6 1.2 1 .2.2.3.4.3.8-.5 1.4-1.3 2.6-2.4 3.7-.1.1-.2.3-.3.4v.5c.2.5.2 1.1.1 1.7 0 .3 0 .7-.1 1-.1.7-.1 1.4-.4 2v.3c.1.1.1.2.2.2.4.1.8.1 1.3.2.8-.2 1.6-.2 2.4 0 .3.1.7.1 1 0l.2-.2c0-.8.1-1.7.1-2.6v-.4c-.1-1.1 0-2.2.2-3.4.1-.3.1-.7 0-1v-1c0-1.2.1-2.3.1-3.5 0-.5 0-1-.1-1.5z" style="fill:#f1f8f6"/>
</svg>
