<svg xmlns="http://www.w3.org/2000/svg" width="23.6" height="37.7" style="overflow:visible;enable-background:new 0 0 23.6 37.7" xml:space="preserve">
    <style>
        .st0{fill:#7a6a56}.st1{fill:#fff}.st3{fill:#eacac6}.st4{fill:#f2edda}
    </style>
    <path class="st0" d="M20.3 19c.2 0 .4 0 .6-.1h.8c.2 0 .4.1.5.1.2.1.4.2.5.4.1.2.2.4.2.6 0 .2 0 .4.1.6-.1.3-.1.5-.2.8-.4.6-.4.6-1.1 1.3-.1.3-.1.7-.1 1.1.1.7 0 1.3-.2 2 0 .1-.1.2-.1.3 0 .3-.2.6-.2.9-.1.2-.1.3-.1.5s-.1.4-.2.6c-.1.2-.2.5-.2.7 0 .2-.1.4-.1.5-.2.6-.2.6-.5 1.2-.1.2-.2.4-.2.6 0 0 0 .1.1.1.1.1.2.2.3.2.6.4.7.5 1.1 1.1.1.1.1.2.2.3.1.3.3.5.5.7.2.1.3.1.5.2.4.1.7.3 1.1.5.1.1.2.2.3.4.1.1.1.3 0 .4-.1.1-.2.2-.3.4 0 .2.1.4.1.7-.2.3-.3.3-.6.4-.1 0-.2.1-.3.2-.5.3-1 .2-1.3-.1-.1-.1-.2-.3-.4-.4h-.2c-.2 0-.4.1-.7.1-.2 0-.3.1-.5.1-.4.1-.7.2-1.1.3-.3.1-.7.2-1 .3-.2 0-.4.1-.6.1-.3 0-.7.1-1 .1-.3 0-.6.1-.9.2-.2 0-.5.1-.7.1-.1 0-.3 0-.4.1-.3.1-.7.1-1 .1h-.2c-.6.1-1.1 0-1.7 0H7.6c-.5 0-1.1-.1-1.6-.1-.2 0-.5 0-.7-.1h-.1c-.7 0-1.3-.3-1.9-.4-.2-.1-.4-.1-.6-.2-.4 0-.5 0-.7.1-.3.1-.6.2-1 .2-.1 0-.2-.1-.4-.2-.1-.1-.2-.3-.1-.4.1-.2.2-.4.3-.5-.1-.1-.3-.2-.4-.3-.1-.1-.2-.2-.3-.4 0-.1-.1-.2 0-.3.2-.3.5-.6 1-.7.3-.1.6-.2.9-.2.2 0 .3-.1.4-.1l.9-.9c.1-.1.3-.2.5-.4 0 0 .1-.1 0-.2v-.1c-.1-.1-.2-.2-.2-.3-.3-.4-.3-.4-.7-.7-.1-.1-.2-.1-.3-.2-.3-.4-.6-.7-.7-1.1-.1-.5-.1-1-.2-1.5v-.8c0-.1 0-.2.1-.3l.3-1.2c.1-.2.2-.4.4-.5 0-.1-.1-.1-.1-.2-.1 0-.2-.1-.3-.2V24.7c0-.2.1-.4.2-.6.1-.2.3-.4.4-.5 0-.1-.1-.3-.1-.4 0-.1-.1-.2-.1-.3 0-.3 0-.6.1-.9v-1.1c0-.2-.1-.4-.1-.5 0-.3.3-.3.3-.5.1-.2.1-.4.1-.6 0-.3 0-.5.1-.7.1-.8.4-1.5.7-2.2.1-.1.1-.2.2-.4s.2-.3.3-.5c.2-.3.4-.7.7-1 .1-.2.3-.4.4-.5.1-.2.3-.3.4-.5.2-.2.4-.4.7-.6h.1c.4-.4.9-.6 1.3-.8V12c.1-.1 0-.3.1-.4 0-.2 0-.3.1-.5 0-.1.1-.2.1-.3 0-.3.1-.6.2-.9l.3-.6c0-.1.1-.2 0-.3-.4.2-.5.1-.6 0-.1-.1-.1-.2-.2-.4-.1-.1-.1-.2-.2-.3-.2-.2-.3-.5-.3-.7 0-.3-.1-.6-.1-1V5.3c.2-.3.3-.6.4-1 .1-.2.2-.4.3-.5.2-.2.4-.4.5-.6.3-.2.5-.3.7-.4 0-.1 0-.2-.1-.2 0-.1-.1-.1-.1-.2v-.2c.1-.2.1-.3.1-.5-.1-.3 0-.6.1-.9V.5c.1-.2.2-.3.4-.4.2-.1.4-.1.6-.1.3.1.5.2.6.5.1.3.2.6.2.9v.8c0 .1.1.1.2.2.2 0 .4 0 .5-.1.1-.2 0-.4.1-.7.1-.2.1-.4.2-.7l.3-.3c.3-.1.5 0 .8 0 .2.1.3.2.5.3.1.2.1.3.2.4v.2c0 .4 0 .8-.1 1.2 0 .3.1.6.3.9.1.2.3.4.4.6.1.1.1.2.2.4.3.6.3 1.3.3 1.9 0 .1 0 .2-.1.3 0 .1-.1.3-.1.4 0 .1-.1.2-.1.4 0 .1 0 .1.1.2.2.2.3.3.4.5.2.3.3.6.3.9 0 .5 0 1-.1 1.5-.1.3-.3.6-.3.9 0 .1-.1.2-.1.3-.1.1-.1.2-.2.4 0 .1 0 .2.1.2.4.1.7.3 1 .5.1.1.2.1.3.2l1.2 1.2c.2.2.3.5.5.7.1.2.2.3.3.5.2.4.4.7.5 1.1.1.4.2.7.3 1.1 0 .2.1.4.1.5.1.4.1.8.1 1.2h.1c.1 0 .1-.1.1-.1.4 0 .7-.2 1.1-.4zM12.1 7.1c.3-.1.5-.4.6-.6.1-.2.2-.4.3-.5 0-.2-.1-.5-.1-.6-.2-.4-.5-.6-.9-.8-.5-.2-1.1-.2-1.6 0-.1 0-.2.1-.3.2-.4.1-.7.4-.9.7-.1.1-.2.2-.2.3 0 .4.1.8.3 1.1.4.5.9.6 1.5.6.2 0 .4 0 .6-.1.2 0 .3-.1.5-.1l.2-.2c0 .1 0 0 0 0zM7.5 23.5c.5-.1.5-.1.8-.1.4 0 .8.1 1.2.1h.3c.4-.1.8-.1 1.2 0h.7c.3 0 .6-.1.9-.1h.4c.7 0 1.3 0 2-.1.4-.1.9-.1 1.3-.2s.7-.1 1.1-.2c.2 0 .3-.1.4-.2.2-.2.2-.3.3-.5 0-.2.2-.4.1-.7.1-.2.1-.5.1-.7.1-.3.1-.5 0-.8-.1-.3-.1-.7 0-1l-.3-1.2c-.2-.9-.6-1.7-1.2-2.4-.1-.1-.2-.2-.2-.3-.3-.4-.7-.7-1.1-1.1-.3-.2-.6-.4-.9-.5-.4-.1-.9-.3-1.3-.4-.3-.1-.6-.1-.9-.2-.3-.1-.7-.1-1-.2H11c-1.1-.2-1-.1-2 0-.2 0-.4.1-.5.1-.6.2-1.1.5-1.6.8-.2.1-.3.2-.4.3-.3.3-.7.7-1 1.1-.5.7-.9 1.3-1.2 2-.1.3-.3.6-.4.9-.2.5-.3 1-.3 1.5v.7c0 .1 0 .1-.1.2s-.2.1-.3.2c0 .1-.1.1 0 .2.1.4 0 .7.1 1.1v.3c0 .3 0 .6.1.9 0 .1.1.2.2.2h.1c.1 0 .2-.1.3-.1.8-.3 1.1-.3 2-.3h.1c.2 0 .3.1.5.1.1.2.5.5.9.6zM11 34.1c-.3.1-.6.3-.7.6-.1.1-.1.2-.2.3-.1.2-.3.3-.5.4H9c-.2 0-.3-.1-.4-.3 0-.2 0-.4.1-.6v-.1c-.1-.1-.3-.3-.5-.4h-.9c-.2 0-.4 0-.6-.1-.1 0-.3-.1-.4-.1h-.4c-.2-.1-.5-.1-.7-.2-.2-.1-.5-.1-.7-.3-.2.1-.4.1-.5.2-.3.2-.6.4-.9.7-.1.1-.2.3-.3.4-.1.2-.3.4-.6.4h-.7l-.6.3v.1H2c.1 0 .2.1.2.2-.2.2-.2.3-.3.4-.1.1-.2.2-.3.2-.1.1-.2.1-.3.2v.1s0 .1.1.1.2-.1.3-.1c.2-.1.3-.2.5-.4.2-.1.3-.1.4-.1.1 0 .2.1.3.1.5.1.9.3 1.4.4.4.2.8.2 1.3.2h.5c.8 0 1.5.1 2.3 0h.5c.3.1.7.1 1 0H12.7c.7-.1 1.3-.1 2-.3.4-.1.9-.1 1.3-.3.2-.1.4-.1.7-.1.3 0 .5 0 .7-.1.2-.1.4-.1.7-.1.8-.2 1.7-.4 2.5-.7h.1c.1.1.2.1.2.3 0 .1 0 .1.1.2.3-.1.3-.1.7.1h.1l.1-.1c-.1-.2-.3-.3-.3-.5.1-.2.3-.3.5-.4h.4s.1 0 0 0c0 0 0-.1-.1-.1-.2 0-.4-.1-.6-.1-.3 0-.5-.2-.7-.5-.2-.4-.4-.8-.7-1.3l-.5-.5c-.2-.2-.5-.4-.7-.5h-.3l-.6.6c-.1.1-.3.2-.5.3l-.6.3c-.3.7-.3.7-.7 1.1-.1.2-.1.4-.2.6-.1.2-.1.4-.2.6-.1.2-.3.2-.4.3-.1-.1-.3-.1-.4-.2-.1 0-.2.1-.3.1-.2.1-.3.1-.5 0-.2-.2-.4-.4-.5-.6-.1-.2-.2-.3-.3-.5-.4-.3-.7-.6-.9-1.1l-.3-.9c-.1-.2 0-.3.2-.4.2-.2.6-.1.6.2 0 .3.2.6.3.8 0 .1.1.1.1.2l.3.3h.1c.1-.1.1-.3.2-.5 0-.1.1-.1.1-.2h.4c.4.1.8 0 1.1-.1.1 0 .2-.1.3-.2 0-.2 0-.5.2-.7.1-.1.3-.2.5-.1.1.1.2.2.2.3.2 0 .3-.1.5-.2.3-.3.7-.7 1-1.1.2-.3.4-.6.5-.9.1-.1.1-.3.2-.4.1-.1.1-.2.1-.2.1-.3.2-.6.2-1 0-.2 0-.4.1-.6.1-.2.2-.4.3-.5.1-.2.1-.5.1-.7.1-.4.2-.7.3-1.1.1-.2.1-.5.1-.7 0-.6.1-1.1.1-1.7l-.1-.1c-.1 0-.2 0-.3-.1-.2 0-.3-.1-.4-.3 0-.1 0-.1-.1-.2 0-.2.1-.2.3-.3h1.1c.1 0 .2 0 .2-.1.1-.1.1-.2.2-.3.2-.2.3-.5.3-.8 0-.2 0-.4.1-.5 0-.1-.1-.2-.1-.2 0-.1-.1-.1-.1-.2-.1-.1-.3-.2-.5-.2h-.5c-.3 0-.5 0-.8.2-.2.1-.4.3-.6.5-.1.1-.1.2-.3.4h-.4c-.1.2-.1.2-.2 1.3-.1.5-.2.9-.2 1.4 0 .5-.1.9-.1 1.3-.1.2-.2.3-.2.5 0 .4-.1.8 0 1.2v.3c-.1.2-.1.4-.1.6 0 .2-.1.4-.2.7-.1.5-.3 1-.8 1.3-.1 0-.1.1-.1.1-.2.3-.5.5-.7.7-.5.2-1 .3-1.5.3-.3 0-.6.1-.9.2h-1c-.3 0-.7-.1-1 0h-1.1c-.1 0-.2 0-.3-.1-.3-.1-.5-.1-.8-.1h-.3c-.4 0-.7-.1-1.1-.1-.4-.1-.7-.2-.9-.5l-.2-.2-.1.1c-.1.2-.1.3-.2.5-.2.6-.4 1.1-.8 1.5 0 .4-.2.4-.4.4-.3 0-.5.1-.8 0-.1 0-.2 0-.2.2l.1.1c.5.4 1.1.7 1.7.7.4.1.7.1 1.1.2h.2c.1 0 .2-.1.2-.2v-.3l-.2-.2c0-.2.1-.4.3-.6.2-.1.3-.2.5 0 0 .2.1.4.1.6.1.3.2.6.5.8.1.1.2.2.4.2.1-.1.3-.2.4-.2h.3c.2.1.2.2.4.2s.3-.1.4-.2c.1-.2.3-.4.4-.5l.2-.2c.1-.1.2-.1.3-.1.1 0 .2.1.2.2 0 .2-.1.3-.1.5 0 0 0 .1.1.1.2-.1.4-.1.6-.2.1.1.2.1.2.2 0 .2-.1.3-.2.4-.2.1-.4.2-.7.2-.2.1-.5.1-.8.2zm6.5-8.7c-.1-.2-.2-.2-.3-.1-.2 0-.5.1-.7.1-.4.1-.9.2-1.4.1-.3 0-.5 0-.7.1-.3.1-.6.1-.9.1h-.2v.1l.2.2c.2.1.4.3.6.6 0 .1.1.2.1.2 0 .2.1.3.1.5v.7c0 .3-.2.6-.4.8-.2.2-.5.4-.7.6 0 0-.1 0-.1.1-.1 0-.3 0-.3.1-.3-.1-.6-.1-.8-.1-1-.5-1.2-.5-1.9-1.5-.1-.2-.1-.4-.2-.7 0-.2 0-.5.1-.8.1-.2.3-.4.4-.6 0-.1 0-.1-.1-.2s-.3-.1-.4-.1H8.8c-.2 0-.4-.1-.5-.3h-.1l-.1.1c-.2.3-.3.6-.6.9v.1c-.1.3-.3.5-.5.8v.5c0 .2.1.4.2.6.1.2.2.4.3.5l.3.3c.1.1.2.2.4.2.5 0 .9.2 1.3.2h.1c.8.2 1.6.2 2.4.2h.3c.3-.1.7-.1 1 0 .2 0 .4 0 .6-.1.2 0 .3-.1.5-.1.3 0 .6-.1.8-.1.3-.1.5-.2.6-.3.4-.3.7-.6 1-1 .2-.6.4-1.1.5-1.6v-.7c.2 0 .2-.2.2-.4zm-3.8-20c.1.5-.1.8-.2 1.1-.1.2-.2.4-.4.6l-.3.3c-.2.2-.4.4-.6.4l-.3.3h-.2c-.3 0-.6 0-.9.1h-.9c-.1-.2-.3-.3-.4-.3-.4-.1-.6-.4-.8-.6-.1-.1-.2-.3-.3-.5 0-.2-.1-.4-.1-.6 0-.1-.1-.3-.1-.4 0-.3 0-.6.3-.7h.1c.2-.3.4-.4.6-.7.2-.2.4-.3.6-.4.3-.1.5-.2.8-.3.2 0 .5-.1.7-.1.4 0 .8 0 1.1.3.2.1.3.2.5.2.1-.1.1-.3 0-.3-.2-.1-.4-.3-.6-.4-.1 0-.1-.1-.2-.1-.4-.1-.7-.1-1.1-.1-.2.1-.4.1-.7 0-.2 0-.3.1-.5.1-.4.2-.7.4-1.1.7-.1.1-.2.2-.3.4-.1.3-.3.6-.4.9-.1.5-.1.9-.1 1.3s.1.7.1 1c.4.8.5.9 1.1 1.4.2.4.2.4.1.7-.4.3-.6.7-.8 1.1v.5c.1.2.2.3.3.4h.7c.2-.1.5-.1.8 0 .6.1 1.2.1 1.8.2h.2c.4.1.8.2 1.3.3h.3l.4-.4c0-.2.1-.4.2-.6.2-.2.2-.5.3-.8.1-.3.1-.5 0-.8v-.2c0-.3-.1-.5-.2-.7-.4-.3-.5-.5-.7-.7-.1-.1-.2-.2-.3-.4.1-.1.2-.2.2-.3 0-.2.2-.3.3-.4.1-.2.1-.4.2-.5 0-.3 0-.5-.1-.7 0-.2 0-.3-.1-.5s-.3-.5-.4-.7c-.1-.1-.2-.2-.3-.2l-.1.1c.1.2.2.3.2.5.2.2.2.4.3.5zm-8 23.7c-.4-.1-.8-.1-1.2.1h-.4S4 29.1 4 29c-.1-.2-.1-.4.1-.5.1-.1.2-.2.4-.2.1 0 .1 0 .2-.1-.1-.1-.1-.1-.1-.2-.3.1-.5 0-.6-.1-.3-.4-.7-.6-1-1 0 0-.1-.1-.2-.1-.3.3-.4.8-.5 1.2.1.7 0 1.5.1 2.2.1.2.3.4.4.6.1 0 .2.1.4.2.1.1.3.2.5.2.5.1.9.1 1.4.1.2 0 .4-.1.5-.2.3-.2.4-.7.5-1.1.1-.3 0-.5-.2-.7l-.2-.2zm12.2-5.6h-.1c-.3.1-.6.1-.9.2-.2 0-.4.1-.6.1-.5.1-.9.1-1.4.3-.7 0-1.3.2-2 .2h-.1c-.2.1-.5.1-.7.1-.3 0-.5.1-.7.1h-.1c-.3 0-.7 0-1 .1H9.1c-.2 0-.4.2-.4.3v.3l.1.1c.3-.1.5 0 .8 0 .4 0 .9 0 1.3.1.5.1 1 .1 1.6 0 .3 0 .7-.1 1-.1.4 0 .7-.1 1.1-.1.3-.1.6-.1 1-.1h.4c.4-.1.8-.1 1.1-.2.2 0 .4 0 .5-.1.2-.1.3-.2.5-.3-.1-.7-.1-.7-.2-1zm-5.5 4.7c-.1.2-.3.3-.3.5h.6c.4-.2.6-.4.8-.8.1-.1.1-.3.1-.4 0-.5-.2-1-.7-1.2-.2-.1-.3-.2-.5-.4 0-.1-.1-.1-.1-.1-.3-.1-.6 0-.9.1-.1.2-.2.4-.4.5-.1.2-.3.4-.3.6 0 .3.1.6.2.8.2.2.3.4.6.5h.1v-.1c0-.2.1-.4 0-.6 0-.2-.1-.4-.1-.6.1-.2.3-.3.5-.3l.3.3c0 .3.1.5.1.8v.4zm-6.5-3.9v.6c.1.2.1.5.1.7v.5c0 .3.1.5.3.8H6.6c.4-.7.8-1.4 1.2-2v-.1c-.2-.3-.3-.5-.5-.6-.4-.2-.8-.4-1.2-.5h-.2c0 .1.1.2.1.3-.1.1-.1.2-.1.3zm-2.5-.2c-.1 0-.2.1-.3.2l-.3.3c-.3.4-.2.4.1.7 0 .1.1.3.1.4.3.4.5.8.9 1H4c.2 0 .2 0 .2-.1.1-.3.1-.6-.1-.9 0-.1-.1-.2-.1-.3 0-.2-.1-.3-.1-.5-.1-.2-.1-.4-.2-.5-.2 0-.2-.2-.3-.3zm2-.5c-.2 0-.3.1-.5 0-.3 0-.5.1-.7.1-.1 0-.1.1-.1.2.2.1.2.3.3.5.1.2.2.4.2.6.1.2.2.4.2.7 0 .3.1.5.2.7.1 0 .2.1.3.2 0 0 .2 0 .1-.1V24.8c-.1-.2-.1-.4-.2-.6v-.3c0-.1.1-.2.2-.3zm4.8-21.2c.2-.5.1-1 .1-1.5 0-.1-.1-.2-.1-.2-.1-.1-.2-.1-.2 0-.2.1-.3.2-.3.3v.7c0 .3.1.5.1.8v.2c.1-.1.2-.2.4-.3zm2.9.5.1-.1c0-.3.1-.6.1-.9 0-.2-.2-.5-.4-.5h-.3c-.1 0-.1.1-.2.2 0 .2 0 .4-.1.6 0 .1 0 .2.1.3l.1.1.6.3zm-7.8 25c.1 0 .1 0 0 0 0-.1 0-.1 0 0z"/>
    <path class="st1" d="M7.5 23.5c-.4-.1-.8-.4-1.3-.5-.2-.1-.3-.1-.5-.1h-.1c-.9-.1-1.2 0-2 .3-.1 0-.2.1-.3.1h-.1c-.1 0-.2-.1-.2-.2-.1-.3-.1-.6-.1-.9v-.3c-.1-.4 0-.7-.1-1.1v-.2c.1-.1.2-.1.3-.2 0-.1.1-.2.1-.2v-.7c0-.5 0-1 .3-1.5.3-.4.4-.7.5-1 .3-.7.8-1.4 1.2-2 .3-.4.6-.7 1-1.1.1-.1.3-.2.4-.3.5-.3 1-.6 1.6-.8.2-.1.4-.1.5-.1 1-.1.9-.2 2 0h.4c.3.1.7.1 1 .2.3.1.6.1.9.2.4.1.9.2 1.3.4.3.1.7.3.9.5.4.3.8.6 1.1 1.1.1.1.1.2.2.3.6.7 1 1.5 1.2 2.4L18 19v1.8c-.1.2 0 .5-.1.7.1.2-.1.4-.1.7 0 .2-.1.4-.3.5-.1.1-.3.1-.4.2-.4.1-.7.1-1.1.2-.4.1-.9.1-1.3.2-.7.1-1.3.2-2 .1h-.4c-.3 0-.6.1-.9.1H9.2c-.4 0-.8-.1-1.2-.1l-.5.1zm2.7-2.8h.2c.1 0 .3-.1.4-.1.5-.1 1.1-.8 1.1-1.4 0-.4 0-.7-.1-1.1-.1-.1-.1-.2-.2-.4-.1-.1-.2-.3-.2-.4-.1 0-.2-.1-.3-.1-.3-.2-.6-.2-.9-.2H10c-.4.2-.7.4-.9.8v1.1c0 .1.1.2.1.3v.2c0 .3.1.6.3.8.1.1.3.3.7.5zm4.1-2c0 .4-.1.8-.1 1.2.2.3.5.4.7.6 0 0 .1.1.2.1.3.2.6.3.9.2h.1c.3 0 .6-.2.8-.4.4-.5.8-1.1.8-1.8v-.2c-.1-.3-.2-.5-.4-.8-.2-.1-.4-.3-.6-.4H15.8c-.6.2-1.1.5-1.3 1.1-.1.2-.2.3-.2.4zm-7.1.9c-.1-.3-.1-.5-.2-.7-.3-.4-.7-.5-1.2-.6h-.9c-.3.1-.5.2-.8.3 0 .1-.1.2-.1.3-.1.1-.1.2-.2.4.1.1.1.3.1.5-.1.6 0 .6.3 1 0 .1.1.1 0 .1.3.3.6.5 1 .6h.6c.2-.1.4-.1.6-.2l.2-.2c.4-.4.5-.8.5-1.3.1 0 .1-.1.1-.2z"/>
    <path d="M17.5 25.4V26.7c-.1.5-.3 1.1-.5 1.6-.3.4-.6.7-1 1l-.6.3c-.2 0-.5.1-.8.1-.2 0-.3.1-.5.1-.2.2-.4.2-.6.2h-1.3c-.8 0-1.6-.1-2.4-.2h-.1c-.5.1-.9-.1-1.3-.2-.2 0-.3-.1-.4-.2l-.3-.3c-.1-.2-.2-.4-.3-.5-.3-.3-.4-.5-.4-.7v-.5c.2-.3.4-.5.5-.8v-.1c.3-.3.4-.6.6-.9 0-.1.1-.1.1-.1h.1c.1.3.3.3.5.3h1.1c.1 0 .3 0 .4.1.1 0 .1.1.1.2-.1.2-.3.4-.4.6v.7c.1.3.1.5.2.7.6.9.8.9 1.6 1.4.2 0 .5.1.8.1.1 0 .2 0 .3-.1.1 0 .1 0 .1-.1.2-.2.5-.4.7-.6.2-.2.4-.5.4-.8v-.7c0-.2-.1-.3-.1-.5 0-.1-.1-.1-.1-.2-.1-.3-.3-.5-.6-.6-.1 0-.1-.1-.2-.2v-.1h.2c.3 0 .6 0 .9-.1.2-.1.5-.1.7-.1.5 0 .9 0 1.4-.1.2 0 .5-.1.7-.1.3-.1.5 0 .5.1z" style="fill:#deedd8"/>
    <path class="st3" d="M13.7 5.4c0-.1-.1-.2-.2-.4s-.2-.3-.2-.5l.1-.1c.1 0 .2.1.3.2.1.2.2.4.3.7.1.1.1.3.1.5s0 .5.1.7c0 .1-.1.3-.2.5-.1.1-.3.2-.3.4 0 .1-.1.2-.2.3 0 .2.2.3.3.4.2.2.3.4.4.6.1.2.2.4.2.7v.2c0 .3.1.6 0 .8-.1.3-.1.5-.3.8-.1.2-.1.4-.2.6l-.4.4c-.1.1-.2 0-.3 0-.4-.1-.8-.2-1.3-.3h-.2c-.6-.1-1.2-.1-1.8-.2h-.8c-.2.1-.5.1-.7 0-.2-.1-.2-.3-.3-.4v-.5c.2-.4.4-.8.8-1.1.3-.3.3-.3.2-.7-.6-.5-.7-.6-1.1-1.4 0-.3-.1-.6-.1-1s0-.9.1-1.4c.1-.2.3-.5.4-.8.1-.2.2-.3.3-.4.3-.3.7-.5 1.1-.6.2 0 .3-.1.5-.1.2.1.4.1.7 0 .4 0 .7 0 1.1.1.1 0 .1 0 .2.1.2.1.4.2.6.4.1-.1.1.1 0 .2-.2 0-.4-.1-.5-.2-.3-.3-.7-.3-1.1-.3-.2 0-.5.1-.7.1-.3.1-.5.2-.8.3-.2.1-.4.2-.6.4-.2.3-.4.4-.6.7h-.1c-.3.2-.3.5-.3.7 0 .1 0 .3.1.4 0 .2.1.4.1.6 0 .2.1.3.3.5.2.2.4.5.8.6.2 0 .3.2.5.3.3.1.6 0 .9 0 .3-.1.6 0 .9-.1h.2c0-.1.1-.2.3-.2.2-.1.4-.3.6-.4l.3-.3c.1-.2.3-.4.4-.6-.1-.5.2-.8.1-1.2zm-3.4 4.7c.1-.3.1-.5.2-.7 0-.1 0-.1-.1-.2s-.2-.1-.2-.1c-.2 0-.3.1-.3.3 0 .1 0 .2-.1.3-.2.4-.2.7 0 1.1.1 0 .2.1.3.1.1 0 .2 0 .2-.1 0 0 .1 0 .1-.1.2-.1.2-.3.1-.5-.1.1-.1 0-.2-.1zm.8-.9c.1.4 0 .8 0 1.1.1.3.3.3.5.4.1 0 .2-.1.2-.1.1-.3.1-.3.1-.5 0-.1-.1-.2-.1-.2v-.8c0-.1-.1-.2-.2-.2-.2.1-.3.2-.5.3zm1.4.1c0 .2 0 .4.1.6v.2c-.1.3.1.5.3.5h.2c.1-.1.2-.2.3-.4.1-.3-.1-.7-.2-1-.5-.1-.5-.1-.7.1z"/>
    <path class="st1" d="M5.7 29.1c.1 0 .2.1.2.2.2.2.3.5.2.7-.1.4-.2.8-.5 1.1-.2.1-.3.2-.5.2-.5 0-1 0-1.4-.1-.2 0-.3-.1-.5-.2l-.3-.3c-.1-.2-.3-.4-.4-.6-.1-.7-.1-1.5-.1-2.2.1-.4.2-.8.5-1.2.1 0 .1 0 .2.1.3.4.7.6 1 1 .1.1.2.2.4.3.1 0 .1.1.1.2-.1 0-.1.1-.2.1s-.3.1-.4.2c-.2.1-.2.3-.1.5 0 .1.1.1.1.2h.4c.4-.3.8-.4 1.3-.2z"/>
    <path class="st3" d="M17.9 23.5c.1.4.1.4 0 .8-.1.1-.3.2-.5.3-.2.1-.3.1-.5.1-.4 0-.8.1-1.1.2h-.4c-.3 0-.6 0-1 .1h-1.1c-.3 0-.7.1-1 .1-.5.1-1 .1-1.6 0-.4 0-.9-.1-1.3-.1h-.8l-.1-.1v-.3c0-.2.2-.3.4-.3h1.2c.3-.1.7-.1 1-.1h.1c.2 0 .5-.1.7-.1.2 0 .5 0 .7-.1h.1c.7 0 1.3-.1 2-.2.5-.1.9-.1 1.4-.3.2-.1.4-.1.6-.1.3 0 .6-.1.9-.2.2.2.2.3.3.3z"/>
    <path class="st1" d="M12 7.2c-.2.1-.4.2-.5.2-.2 0-.4.1-.6.1-.6 0-1.1-.1-1.5-.6-.3-.3-.4-.7-.4-1.1 0-.1.1-.2.1-.3.3-.3.6-.6.9-.8.1-.1.2-.1.3-.2.5-.3 1-.3 1.6 0 .4.2.7.4.9.8 0 .2.1.4.1.6-.1.2-.2.3-.2.5-.1.3-.3.5-.7.8.1-.3.1-.6-.1-.7-.1-.1-.3 0-.4-.2-.1-.2-.1-.3-.1-.5h.3c.2 0 .4 0 .5-.2 0 0 0-.1.1-.1 0-.1 0-.2-.1-.2-.1-.2-.2-.3-.4-.3h-.3c-.1 0-.2.2-.2.3 0 .2.1.3.1.5-.2 0-.4 0-.6.1-.1.1-.2.3-.2.4-.1 0-.1.1-.1.1-.1 0-.1 0-.2.1-.1 0-.2.1-.2.1-.1 0-.2.2-.1.3.1.2.2.2.4.3.1-.1.3-.2.5-.2h.3c.3.1.5.2.8.2zm-2-2.1c0 .1-.1.1-.1.2v.3c0 .1.1.2.3.3.1.1.3 0 .4-.2 0-.1.1-.3 0-.4 0-.1-.1-.1-.1-.2-.2.1-.3 0-.5 0zM12.4 28.2v-.3c0-.3-.1-.5-.1-.8-.1-.1-.2-.1-.3-.2-.2 0-.4.1-.5.3 0 .2.1.4.1.6v.7h-.1c-.3-.1-.4-.4-.6-.5-.1-.3-.2-.5-.2-.8l.3-.6c.1-.2.2-.3.4-.5.3-.1.5-.2.9-.1l.1.1c.1.2.3.3.5.4.5.2.7.7.7 1.2 0 .1 0 .3-.1.4-.2.3-.4.6-.8.8h-.6c0-.4.2-.5.3-.7z"/>
    <path class="st4" d="M5.9 24.3c0-.1-.1-.2-.1-.3 0-.1-.1-.2-.1-.3h.2c.4.1.8.2 1.2.5.2.1.4.3.5.6v.1c-.4.7-.8 1.4-1.2 2 0 .1-.1.1-.2 0h-.1c-.2-.2-.3-.5-.3-.8v-1.5c.1-.1.1-.2.1-.3zM3.4 24.1c.1.1.1.3.3.4.1.1.2.3.2.5 0 .1.1.3.1.5 0 .1.1.2.1.3.1.3.1.6.1.9 0 .1 0 .1-.2.1h-.1c-.4-.3-.6-.7-.9-1-.1-.1-.1-.3-.2-.4-.2-.4-.3-.4 0-.8l.3-.3c.1-.1.2-.1.3-.2zM5.4 23.6c-.1.1-.2.2-.3.4v.3c0 .2.1.3.2.6V26.6c0 .1-.1.1-.1.1-.1-.1-.2-.1-.3-.2-.1-.3-.2-.5-.2-.7 0-.2-.1-.4-.2-.7-.1-.2-.1-.4-.2-.6 0-.3-.1-.5-.3-.6.1-.1.1-.1.1-.2.2-.1.5-.2.7-.1h.6z"/>
    <path class="st0" d="M12 7.2c-.3 0-.6 0-.9-.2h-.3c-.2.1-.3.1-.5.2-.2 0-.3-.1-.4-.3 0-.1 0-.2.1-.3.1-.1.1-.1.2-.1s.1 0 .2-.1c0 0 .1 0 .1-.1.1-.1.2-.3.2-.4.2-.2.4-.1.6-.1 0 .2.1.3.1.5.1.1.3.1.4.2.3.1.4.3.2.7.1-.1.1 0 0 0z"/>
    <path class="st1" d="M10.2 2.4c-.2.1-.3.2-.5.2v-.2c0-.2-.1-.4-.1-.7V1c0-.1.1-.2.3-.3h.2c.1.1.1.1.1.2.1.5.2 1 0 1.5zM13.1 2.9c-.2-.1-.4-.2-.6-.4l-.1-.1c-.1-.1-.1-.2-.1-.3 0-.2 0-.4.1-.6.1-.1.1-.2.2-.2s.2-.1.3 0c.2.1.4.3.4.5 0 .3 0 .6-.1.9 0 .1 0 .2-.1.2zM5.3 27.9c0-.1 0-.1 0 0 .1 0 .1 0 0 0z"/>
    <path class="st0" d="M10.2 20.7c-.3-.1-.5-.3-.7-.6-.2-.2-.3-.5-.3-.8v-.2c-.1-.1-.2-.2-.2-.3v-1.1c.2-.4.5-.6.9-.8h.2c.3 0 .6 0 .9.2.1.1.2.1.3.1.1.1.2.3.2.4.1.1.2.3.2.4.1.4.1.8.1 1.1 0 .5-.5 1.2-1.1 1.4-.1 0-.3.1-.4.1 0 .1-.1.1-.1.1zm-.4-1.4c0 .2 0 .2.2.5.1.1.2.2.4.3.2 0 .4-.1.5-.2.2-.2.3-.4.3-.7-.1-.1-.3-.1-.4-.1-.4.1-.7.1-1 .2zm.5-1.6c-.1.1-.2.1-.3.2-.1.1-.1.3-.1.4 0 .1.2.3.3.2.3-.1.6-.2.8-.3 0 0 0-.1.1-.1 0-.2-.1-.3-.2-.4-.2 0-.4-.1-.6 0zM14.3 18.7c.1-.2.1-.3.2-.4.3-.6.8-.9 1.3-1.1.1 0 .2-.1.3 0h.6c.2.1.4.3.6.4.2.2.3.5.4.8v.2c0 .7-.3 1.3-.8 1.8-.2.3-.5.4-.8.4H16c-.3.1-.6 0-.9-.2-.1 0-.1-.1-.2-.1-.2-.2-.5-.4-.7-.6 0-.4 0-.7.1-1.2zm2.8.1c-.1-.3-.2-.5-.4-.7-.1-.1-.3-.2-.4-.2-.2 0-.4.1-.5.2-.2.1-.4.3-.5.4-.2.2-.3.4-.3.6v.4c.1.2.3.4.5.6.1.1.2.1.3.1.4.1.7-.1.9-.4.1-.1.1-.2.1-.2 0-.3.2-.6.3-.8zM7.2 19.6v.4c0 .5-.2.9-.5 1.3l-.2.2c-.2.1-.4.1-.6.2h-.6c-.4-.1-.6-.3-1-.6V21c-.3-.4-.3-.4-.3-1 0-.2 0-.4-.1-.5 0-.3.1-.4.2-.5.1-.1.1-.2.1-.3.3-.1.5-.2.8-.3h.9c.4 0 .8.2 1.2.6 0 .1 0 .3.1.6zm-2.3-.4c-.1.3-.2.6-.2.9 0 .2.1.3.2.4.3.4.7.4 1.1.3 0 0 .1 0 .1-.1.1-.1.2-.2.3-.2.1-.2.1-.4.2-.5 0-.2-.1-.4-.1-.5 0-.1-.1-.2-.1-.2-.1 0-.2-.1-.3-.1-.4 0-.8-.1-1.2 0zM13.7 17.3c-.1.1-.2.3-.3.4-.1.1-.3.1-.4.1-.1 0-.2 0-.3-.1-.1-.1-.2-.3-.2-.5 0-.1 0-.2.1-.3l.3-.3c.1-.1.2-.1.3-.1h.2c.2.1.4.4.3.8zM8.1 16.3c.1 0 .1.1.2.1l.1.1c.1.2.1.3 0 .5 0 .1-.1.1-.1.2-.2.2-.4.3-.7.3-.2-.1-.3-.2-.4-.4-.1-.1-.1-.2 0-.3.1-.2.3-.3.5-.4h.2c0-.1.1-.1.2-.1zM10.3 10.1c.1.1.1.2.2.3.1.2 0 .4-.1.5 0 0-.1 0-.1.1-.1 0-.1 0-.2.1-.1 0-.2-.1-.3-.1-.2-.4-.2-.7 0-1.1 0-.1.1-.2.1-.3.1-.2.2-.3.3-.3.1 0 .2 0 .2.1.1 0 .1.1.1.2-.1 0-.1.2-.2.5zM11.1 9.2c.2-.2.3-.2.5-.2.1 0 .2.1.2.2v.8c0 .1.1.1.1.2.1.2.1.2-.1.5-.1 0-.2.1-.2.1-.2-.1-.4-.2-.5-.4 0-.4.1-.8 0-1.2zM12.5 9.3c.2-.2.2-.2.6-.1.2.3.3.6.2 1-.1.2-.2.3-.3.4h-.2c-.3 0-.4-.2-.3-.5v-.8zM11.4 5.8c0-.2-.1-.3-.1-.5 0-.1.1-.3.2-.3h.3c.1 0 .2.1.3.2 0 .1 0 .2.1.2 0 .1 0 .1-.1.1-.1.2-.3.2-.5.2-.1.1-.1.1-.2.1zM10 5.1h.5c0 .1.1.1.1.2v.4c-.1.1-.2.2-.4.2s-.3-.1-.3-.3v-.3c0-.1.1-.1.1-.2z"/>
    <path class="st4" d="M9.8 19.3c.3-.1.7-.1 1-.2.1 0 .3 0 .4.1 0 .3-.2.5-.3.7-.1.1-.3.2-.5.2s-.3-.1-.4-.3c-.2-.3-.2-.3-.2-.5zM10.3 17.7c.2 0 .4 0 .6.1.1.1.2.3.2.4 0 0 0 .1-.1.1-.3.2-.5.3-.8.3-.1 0-.3-.1-.3-.2 0-.2 0-.3.1-.4.1-.2.2-.3.3-.3z"/>
    <path class="st3" d="M17.1 18.8c-.1.3-.2.6-.4.9 0 .1-.1.2-.1.2-.2.3-.5.4-.9.4-.1 0-.2-.1-.3-.1-.2-.2-.3-.4-.5-.6-.1-.1 0-.3 0-.4 0-.2.1-.4.3-.6.2-.2.3-.3.5-.4.2-.1.3-.2.5-.2s.3 0 .4.2c.2 0 .4.2.5.6zM4.9 19.2c.4-.1.8 0 1.1-.1.1 0 .2.1.3.1 0 .1.1.2.1.2.1.2.1.4.1.5-.1.2-.1.3-.2.5-.1.1-.2.2-.3.2 0 0-.1 0-.1.1-.4.1-.8 0-1.1-.3-.1-.1-.2-.3-.2-.4.1-.2.2-.5.3-.8z"/>
    <path class="st1" d="M6.2 33c.4.1.7.1 1.1.2h.2c.1 0 .2-.1.2-.2v-.3l-.2-.2c0-.2.1-.4.3-.6.2-.1.3-.2.5 0 0 .2.1.4.1.6.1.3.2.6.5.8.1.1.2.2.4.2.1-.1.3-.2.4-.2h.3c.2.1.2.2.4.2s.3-.1.4-.2c.1-.2.3-.4.4-.5l.2-.2c.1-.1.2-.1.3-.1.1 0 .2.1.2.2 0 .2-.1.3-.1.5 0 0 0 .1.1.1.2-.1.4-.1.6-.2.1 0 .2.3.3.4h.3c-.1-.3-.3-.8-.3-1.1-.1-.2 0-.3.2-.4.2-.2.6-.1.6.2 0 .3.2.6.3.8 0 .1.1.1.1.2l.3.3h.1c.1-.1.1-.3.2-.5 0-.1.1-.1.1-.2h.4c.4.1.8 0 1.1-.1.1 0 .2-.1.3-.2 0-.2 0-.5.2-.7.1-.1.3-.2.5-.1.1.1.2.2.2.3.2 0 .3-.1.5-.2.3-.3.7-.7 1-1.1.2-.3.4-.6.5-.9.1-.1.1-.3.2-.4.1-.1.1-.2.1-.2.1-.3.2-.6.2-1 0-.2 0-.4.1-.6.1-.2.2-.4.3-.5.1-.2.1-.5.1-.7.1-.4.2-.7.3-1.1.1-.2.1-.5.1-.7 0-.6.1-1.1.1-1.7l-.1-.1c-.1 0-.2 0-.3-.1-.2 0-.3-.1-.4-.3 0-.1 0-.1-.1-.2 0-.2.1-.2.3-.3h1.1c.1 0 .2 0 .2-.1.1-.1.1-.2.2-.3.2-.2.3-.5.3-.8 0-.2 0-.4.1-.5 0-.1-.1-.2-.1-.2 0-.1-.1-.1-.1-.2-.1-.1-.3-.2-.5-.2H21c-.3 0-.5 0-.8.2-.2.1-.4.3-.6.5-.1.1-.1.2-.3.4h-.4c-.1.2-.1.2-.2 1.3-.1.5-.2.9-.2 1.4 0 .5-.1.9-.1 1.3-.1.2-.2.3-.2.5 0 .4-.1.8 0 1.2v.3c-.1.2-.1.4-.1.6 0 .2-.1.4-.2.7-.1.5-.3 1-.8 1.3-.1 0-.1.1-.1.1-.2.3-.5.5-.7.7-.5.2-1 .3-1.5.3-.3 0-.6.1-.9.2h-1c-.3 0-.7-.1-1 0h-1.1c-.1 0-.2 0-.3-.1-.3-.1-.5-.1-.8-.1h-.3c-.4 0-.7-.1-1.1-.1-.4-.1-.7-.2-.9-.5l-.2-.2-.1.1c-.1.2-.1.3-.2.5-.2.6-.4 1.1-.8 1.5-.3.3-.5.3-.7.3-.3 0-.5.1-.8 0-.1 0-.2 0-.2.2l.1.1c.5.4 1.1.7 1.7.7z"/>
    <path class="st3" d="M22.4 34.7c-.2 0-.4-.1-.6-.1-.3 0-.5-.2-.7-.5-.2-.4-.4-.8-.7-1.3l-.5-.5c-.2-.2-.5-.4-.7-.5h-.3l-.6.6c-.1.1-.3.2-.5.3l-.6.3c-.3.7-.3.7-.7 1.1-.1.2-.1.4-.2.6-.1.2-.1.4-.2.6-.1.2-.3.2-.4.3-.1-.1-.3-.1-.4-.2-.1 0-.2.1-.3.1-.2.1-.3.1-.5 0-.2-.2-.4-.4-.5-.6-.1-.2-.2-.3-.3-.5-.4-.2-.6-.5-.8-.9h-.3c0 .1-.1.2-.2.3-.2.1-.4.2-.7.2-.3 0-.5.1-.8.1-.3.1-.6.3-.7.6-.1.1-.1.2-.2.3-.1.2-.3.3-.5.4h-.6c-.2 0-.3-.1-.4-.3 0-.2 0-.4.1-.6v-.1c-.1-.1-.3-.3-.5-.4h-.8c-.2 0-.4 0-.6-.1-.1 0-.3-.1-.4-.1h-.4c-.2-.1-.5-.1-.7-.2-.2-.1-.5-.1-.7-.3-.2.1-.4.1-.5.2-.3.2-.6.4-.9.7-.1.1-.2.3-.3.4-.1.2-.3.4-.6.4h-.7l-.6.3v.1H2c.1 0 .2.1.2.2-.2.2-.2.3-.3.4-.1.1-.2.2-.3.2-.1.1-.2.1-.3.2v.1s0 .1.1.1.2-.1.3-.1c.2-.1.3-.2.5-.4.2-.1.3-.1.4-.1.1 0 .2.1.3.1.5.1.9.3 1.4.4.4.2.8.2 1.3.2h.5c.8 0 1.5.1 2.3 0h.5c.3.1.7.1 1 0H12.7c.7-.1 1.3-.1 2-.3.4-.1.9-.1 1.3-.3.2-.1.4-.1.7-.1.3 0 .5 0 .7-.1.2-.1.4-.1.7-.1.8-.2 1.7-.4 2.5-.7h.1c.1.1.2.1.2.3 0 .1 0 .1.1.2.3-.1.3-.1.7.1h.1l.1-.1c-.1-.2-.3-.3-.3-.5.1-.2.3-.3.5-.4h.4c0 .1 0 .1-.1 0 .1 0 .1 0 0 0z"/>
</svg>
