<svg xmlns="http://www.w3.org/2000/svg" width="27.9" height="36.4" style="overflow:visible;enable-background:new 0 0 27.9 36.4" xml:space="preserve">
    <style>
        .st0{fill:#7a6a56}.st1{fill:#ece1de}.st2{fill:#f2edda}.st3{fill:#fff}.st4{fill:#eacac6}
    </style>
    <path class="st0" d="M27 31.4c0 .2.1.3.1.5.1.2.2.3.3.5.1.1.2.3.3.4.2.3.2.6.1 1-.1.2-.2.3-.4.3s-.5 0-.8.1c-.1 0-.2.1-.3.1-.1 0-.2.1-.3.1-.3.1-.5.1-.7.1-.2.1-.2.2-.3.3l-.1.1c-.5.4-1.1.6-1.7.5-.2 0-.4-.1-.6-.3-.1-.1-.3-.2-.5-.3-.1 0-.2 0-.3.1-.2.1-.4.1-.6.2-.4.1-.7.2-1.1.2-.2 0-.4 0-.6.1-.2 0-.3 0-.5.1-.3 0-.5 0-.8.1h-.3c-.3-.1-.7-.1-1 0-.7.1-1.3.1-2 .1h-.3c-.3 0-.5-.2-.8-.1-.2.1-.5 0-.7.1-1 0-2.1.1-3.1 0h-.4c-.3-.1-.6-.1-.9-.1-.3 0-.5 0-.8-.1h-.1c-.4 0-.8-.1-1.1-.3h-.2l-.2.2c-.4.5-.9.9-1.4 1.2 0 0-.1 0-.1.1h-.1c-.3-.1-.5-.2-.5-.6V36c0-.1-.1-.1-.1-.1-.2.1-.3.2-.5.3h-.4c-.1-.1-.2-.1-.3-.2-.1-.2-.1-.3-.2-.5v-.2c.1-.3.1-.5.2-.7-.1-.1-.2-.1-.3-.1-.3.1-.5.2-.8.2-.1 0-.3-.1-.5-.1l-.4-.8v-.1c.1-.3.3-.6.4-.8.4-.6.9-1 1.5-1.4.1-.1.2-.2.2-.3.1-.3.2-.5.2-.8.3-.4.5-.9.9-1.2 0-.1.1-.2.1-.3 0-.1 0-.2-.1-.3-.2-.5-.2-1-.1-1.4v-.1c0-.6.4-1.1.8-1.5.1-.1.2-.1.2-.2.1-.1.3 0 .4.1 0 0 0 .1.1.1l.1.1c.2 0 .2 0 .5-.2.1-.1.1-.3.1-.5v-.3c.1-.1.2-.3.2-.5 0-.6.2-1.2.2-1.7-.1-.2-.2-.3-.4-.4-.4-.2-.7-.5-1-.7l-.3-.3-.6-.6c-.3-.3-.6-.6-.9-1-.1-.1-.2-.3-.2-.4-.3-.4-.5-.8-.7-1.2-.1-.3-.2-.5-.3-.8 0-.1-.1-.2-.1-.3 0-.1-.1-.1-.1-.2-.2-.1-.4-.2-.7-.3-.4-.2-.7-.4-.9-.7-.2-.2-.3-.4-.5-.7-.2-.3-.3-.6-.1-1 0-.1.1-.2.1-.3.1-.2.3-.4.4-.5.1-.2.3-.3.5-.4.4-.3.9-.5 1.3-.6.1 0 .2 0 .3-.1.4.2.8.3 1.3.4l.2-.2c.1-.4.3-.7.4-1.1.2-.5.4-.9.7-1.4.2-.3.4-.5.6-.8.6-.5 1-.9 1.5-1.3.4-.3.7-.6 1.1-.8.2-.2.5-.3.7-.4.2-.2.5-.4.7-.5.5-.2 1.1-.5 1.6-.6.1 0 .3-.1.4-.1.1 0 .3-.1.4-.1.1 0 .2 0 .3-.1.1-.1 0-.2 0-.3V2.9c0-.4.1-.8.4-1.1.1-.1.1-.2.1-.3.2-.3.4-.5.7-.6l.6-.3c.6 0 1 .3 1.3.7.2.3.3.6.4.9 0 .2.1.5.1.7V3c0 .2-.1.4 0 .6.1.2 0 .3 0 .5 0 .3.1.6.1.9h1.1c.2 0 .4 0 .7.1h.1L18 5v-.3c0-.7.1-1.4.3-2 0-.2 0-.3.1-.5.1-.3.2-.5.3-.8.1-.3.3-.5.5-.7l.2-.2c.1-.2.3-.3.6-.3-.2-.2-.1-.2 0-.2h.2c.4 0 .7.2 1 .4.1.1.3.2.4.3.2.1.3.3.3.5.1.6.2 1.2.2 1.8v.3c.1.4.1.8 0 1.2v.8c0 .2-.1.4 0 .6.2.2.3.3.6.4.5.2.8.6 1.2 1 .2.2.4.5.7.7.3.3.6.6.8 1 .2.3.5.7.7 1.1.2.3.3.7.4 1.1.1.3.2.5.2.8.1.3.1.5.1.8 0 .2.1.5.1.8 0 .3-.1.5-.1.9l-.3.6c-.2.7-.6 1.2-1 1.8-.1.2-.3.4-.4.6-.1.2-.3.4-.4.5-.2.2-.3.3-.5.4-.1.1-.3.2-.3.3.1.1.3.1.4.2.1.1.3.1.4.2.3-.1.4-.4.6-.5.1-.1.3-.1.4 0 .5.2.5.2.8.8 0 .2.1.4.1.6v.2c0 .4 0 .8-.1 1.2v.3c-.1.3-.1.7-.1 1 0 .2.1.3.2.5.1.1.2.3.3.5.2.6.4 1.3.6 2 .1.3.1.6.1.9.1.4.1.8.2 1.2 0 .3 0 .6-.1.9-.1.3-.1.6-.1.9 0 .3-.1.6-.2.9-.1.2-.2.5-.4.9zm-5.7-12.3c.1-.1.1-.3.2-.5s.2-.3.4-.3h.1c.5 0 .9-.1 1.2-.4.3-.2.6-.4.8-.6.3-.3.6-.7.9-1.1.2-.3.4-.5.6-.8.2-.4.3-.8.5-1.2V14c0-.5.1-1 0-1.5s-.1-.9-.4-1.3c-.1-.1-.1-.2-.1-.3-.1-.3-.2-.5-.4-.7-.1-.2-.3-.4-.4-.6-.1-.2-.2-.4-.4-.5-.5-.5-1-1.2-1.6-1.6h-.1c-.5-.4-1-.8-1.6-1-.4-.3-.8-.5-1.3-.5h-.5c-.5 0-.9 0-1.4-.1h-4.4c-.3 0-.5 0-.8.1-.3 0-.6 0-.9.1-.4.1-.9.2-1.3.3-.1 0-.1 0-.2.1-.7.4-1.4.7-2 1.3 0 0-.1 0-.2.1-.4.3-.8.7-1.2 1.1-.2.2-.3.4-.4.5-.5.6-.8 1.3-1.1 2-.3.5-.3 1-.5 1.5 0 .6-.1 1.2.1 1.8.1.1.1.2.1.4.2.3.3.6.5.9l.6.9c.7.7 1.5 1.2 2.5 1.4.1.1.3.2.4.4.1.2 0 .3 0 .5 0 .1 0 .1.1.2h.1c.7 0 1.4 0 2.1.1.4 0 .8 0 1.2-.2h.2c.3.1.5.3.7.5.1.1.2.2.3.2.1.1.3.1.4 0 .3-.2.5-.5.7-.6.4-.1.6-.3 1-.2l.1.1v.1c.1.2.1.3.3.2h1.6c.3 0 .5 0 .7.1.2-.1.4-.1.6-.2.1-.1.1-.3.2-.4.2-.3.4-.5.8-.5h.4c.1.1.3.1.4.2.1 0 .2.2.4.2zm-9 3.1c-.1-.2-.1-.3-.2-.4V21.2c0-.1-.1-.1-.2-.1-.2 0-.4.2-.6.1-.2.1-.3.1-.5.2H8.9c-.1 0-.2-.1-.3-.1-.2 0-.3-.2-.5-.2 0 .1-.2.2-.2.4 0 .1.1.2.1.3 0 .2-.1.4-.1.5l-.3.3c-.1.1-.1.2-.1.3 0 .6-.2 1.1-.3 1.7v.4c0 .1.1.3.3.3h.2c.1 0 .2.1.3.1.4.4.8.8 1 1.3.1.2.2.4.1.6v.6c0 .2 0 .4-.1.5.1.2.3.3.4.3.4.2.8.3 1.1.4.2 0 .4.1.6.1.1 0 .3.1.4.1.4 0 .8 0 1.2.1h1.5c.3-.1.7-.1 1-.1.4 0 .8 0 1.2-.1.6-.1 1.3-.2 1.9-.4 0 0 .1.1.2.1.1.2.1.4 0 .6l-.1.1c-.1 0-.2.1-.2.1h-.5c-.2 0-.3.1-.5.1s-.4.1-.6.1c-.3.1-.6.2-.9.1h-.2c-.2 0-.4.1-.7.1-.1 0-.3 0-.4.1-.3.1-.6.1-.9.1h-.7c-.5 0-1.1-.1-1.6-.1h-.1c-.4-.2-.9-.2-1.3-.3l-.6-.3c-.2-.1-.3-.3-.6-.3-.2.1-.3.3-.5.4-.4.3-.7.6-1.2.6-.1 0-.2.1-.3.1-.6 0-.6 0-1.4-.3-.1-.2-.3-.4-.4-.5 0 0-.1 0-.1.1-.3.3-.5.7-.7 1.1-.1.2-.2.5-.3.8-.1.1-.2.3-.3.3-.3.1-.4.2-.5.2-.5.4-.9.9-1.3 1.5v.1c0 .1 0 .1.1.1h.2c.4 0 .7-.2 1.1-.3.3-.1.5-.2.8-.4l.1-.1h.3s.1.1.1.2v.2c0 .1-.1.2-.2.2-.3.3-.4.8-.6 1.2-.1.1-.1.3.1.4h.2c.1-.1.3-.1.4-.2.3-.3.6-.7.8-1 .1-.1.2-.2.3-.2.1 0 .2.1.2.2.1.1.1.3.1.4 0 .2-.1.4-.2.5-.3.2-.4.3-.4.4 0 .1 0 .1.1.2.2-.1.4-.3.6-.5.2-.2.3-.4.5-.6.1-.1.2-.2.3-.2.5.1 1 .3 1.5.4.3.1.7.1 1 .1.4 0 .7 0 1.1.1h1.3c.5 0 .9 0 1.4-.1.2 0 .5-.1.7 0H15.3c.2 0 .4-.1.6 0h1.5c.2 0 .4 0 .7-.1h1c.3-.1.6-.1.9-.1.4 0 .8-.1 1.2-.2.3-.1.5-.2.7-.3.2-.1.4-.1.6-.1.2.2.4.3.5.5.1.1.2.2.4.2.3.1.6.1.9 0 .1 0 .3-.2.3-.3v-.2c0-.1.1-.2.1-.3.1-.2.2-.2.4-.2.2.1.3.1.5.1.1 0 .2-.1.3-.2 0-.1 0-.1.1-.2.1-.2.3-.2.4-.2.2.1.4.2.5.2h.3l.1-.1c-.1-.4-.3-.7-.5-.9-.1-.1-.2-.2-.4-.1-.1.1-.2.1-.3.2-.3.2-.6.4-1 .5-.3.1-.6.1-.9.2H22.4c-.3 0-.6-.1-.9-.2-.3-.1-.7-.3-1-.5-.1-.1-.3-.2-.4-.3-.4-.3-.7-.7-1-1.2-.1-.2-.2-.3-.3-.5V30c-.1-.4-.1-.8-.1-1.2 0-.4 0-.7-.1-1.1-.1-.4-.1-.9-.1-1.3s0-.9.1-1.3c.1-.5.2-1 .5-1.4.1-.2.2-.4.3-.7-.1-.2-.1-.3-.2-.5.1-.3.1-.5.1-.8 0-.3-.1-.5-.1-.8 0-.1-.1-.1-.1-.2h-.5c-.4.1-.8.1-1.2.1-.5 0-.5 0-.3.5s.4 1.1.5 1.6c.2.4.3.7.3 1.1 0 .5-.2 1-.3 1.5-.1.2-.2.3-.4.5s-.4.4-.7.6c-.2.3-.4.4-.5.4-.6.2-1.2.2-1.8.1-.3-.1-.7-.2-1-.3-.5-.2-.9-.5-1.3-.8-.5-.4-.7-1-.5-1.6.2-.5.4-1.1.6-1.6l.3-.6zm12.1 10.1c.1 0 .2-.1.3-.1.4-.1.7-.3 1-.5.2-.1.3-.2.4-.4.4-.6.7-1.2.8-1.9.1-.3.1-.5.2-.8.1-.6.1-1.1.1-1.7 0-.4-.1-.8-.2-1.2 0-.2-.1-.4-.1-.6-.1-.2-.1-.4-.1-.6-.2-.4-.4-.8-.6-1.3-.2-.4-.5-.7-.9-.9-.3-.1-.5-.3-.8-.3-.3-.1-.5-.1-.8 0-.3.1-.7.2-1 .2-.3 0-.6-.2-.9-.1l-.3.3-.1.1c-.3 0-.5.2-.8.4-.3.4-.7.8-.9 1.3-.2.7-.4 1.3-.4 2 0 .3 0 .5.1.8v1.2c0 .6 0 1.2.2 1.8.1.2.2.5.4.7.1.2.2.3.3.4.2.3.5.5.9.6.2.1.4.2.6.2.2.1.5.2.7.1h.4c.6.3 1 .3 1.5.3zm-8.5-11.2c-.1 0-.1.1-.2.1-.1.2-.2.4-.3.7-.1.2-.2.2-.4.2s-.3-.1-.5-.2c-.2-.2-.4-.3-.6-.5-.1-.1-.2-.1-.3-.1-.2.1-.3.2-.3.4-.2.4-.4.8-.7 1.2 0 0 0 .1-.1.1-.1.3-.2.5-.4.8-.1.1-.1.3-.2.5-.1.4-.1.8.2 1.1.1.1.3.2.4.3.2.2.4.3.6.4.2.1.4.2.7.3.4.1.7.1 1.1.2.1 0 .2 0 .3-.1.5-.1.8-.3 1.2-.6l.4-.4c.1-.1.1-.3.2-.4.2-.3.2-.6.1-.9 0-.1 0-.2-.1-.4-.2-.6-.4-1.1-.6-1.7-.1-.1-.2-.2-.2-.4-.1-.1-.2-.1-.3-.2 0 0 .2-.2 0-.4zM3.4 16.4c0 .1-.1.1-.1.2 0 .3.1.6.2.8.1.2.3.5.4.7.1.3.3.5.5.8.2.2.3.4.6.6.2.1.3.3.4.5.1.1.2.3.4.4l.3.3.3.3c.1.1.3.2.5.3.1 0 .2 0 .3-.1.3-.6.6-1.3 1-1.9v-.1c-.1-.2-.1-.2-.2-.2s-.3-.1-.5-.1l-.6-.3c-.4-.2-.8-.4-1.2-.8l-.6-.6c-.2-.4-.4-.7-.6-.9-.3 0-.7.1-1.1.1zM19.8.8l-.1.1c-.5.5-.9 1.5-.9 2.4v.3c-.1.4-.1.9-.1 1.3l.1.1c.5.1 1 .2 1.6.2.2 0 .4 0 .6.1h.1l.1-.1V5c.2-.5.2-.5.3-.9 0-.9 0-1.7-.2-2.5-.3-.4-.4-.5-.7-.7-.3-.1-.5-.1-.8-.1zM5.9 29.6c.2.1.4.1.7.1.2 0 .4 0 .6-.1.7-.3 1.1-.8 1.3-1.5 0-.1.1-.2.1-.3 0-.3-.1-.5-.1-.7-.1-.2-.3-.5-.5-.7-.1-.1-.3-.1-.4-.2-.3-.1-.6-.1-.9.1-.6.2-.6.2-1.2.2l-.1.1c-.3.1-.4.3-.4.4-.1.4-.2.8-.1 1.2.1.5.3.9.7 1.1l.3.3zM1.2 14.9c.4.3.8.7 1.3.7s1 0 1.5-.1c.2-.1.3-.1.2-.3-.1-.3-.1-.5-.1-.8v-1c0-.1 0-.1-.1-.2-.2-.1-.4-.2-.5-.4-.3-.1-.6-.2-1-.2-.9.3-1.2.5-1.6 1.2 0 0 0 .1-.1.1 0 .2 0 .3.1.5s.2.4.3.5zM15.1 5c.1-.1.2-.2.2-.3v-.3c0-.8 0-1.6-.2-2.4-.1-.1-.1-.2-.2-.3-.1-.2-.3-.3-.5-.3-.6.2-.6.2-.9.8-.1.2-.2.4-.2.6 0 .2-.1.3-.1.5.1.3.1.6.1.9v.5c0 .1.1.3.2.3.5.1 1-.1 1.6 0zm7.1 16.7c.5 0 1-.1 1.5-.3.2-.1.4-.2.5-.4.1-.2 0-.5.1-.7V20c0-.2 0-.3-.1-.4-.1-.1-.1-.2-.2-.2-.1-.1-.3-.2-.5-.2s-.4.1-.6.1c-.2 0-.3-.1-.5-.1-.1.1-.2.2-.4.3-.2.1-.3.2-.4.3-.2.2-.2.4-.2.6.1.3.1.5.1.8v.1c.4.2.5.3.7.4zm-2.4-.4c.1.1.1.4.1.6 0 .2.1.4.2.5.1 0 .2-.1.3-.1.1-.1.2-.1.3-.2.1-.1.2-.1.2-.1 0-.1-.1-.2-.1-.3-.1-.1-.1-.2-.1-.3-.1-.4-.1-.8 0-1.2 0-.1.1-.2 0-.3-.1-.1-.2-.3-.3-.4-.1-.1-.4-.1-.5.1 0 .1-.1.2-.1.3v1.4zm6 .5c0-.2.1-.3.1-.5v-.2c0-.6.1-1.1 0-1.7-.1-.1-.1-.2-.2-.3-.1-.1-.2-.1-.3 0-.1.1-.2.3-.3.4-.2.5-.3 1-.3 1.5v.3c.5.3.5.4 1 .5zM8.9 20.1c-.1 0-.2.1-.3.1-.1 0-.1.1-.2.2 0 .1 0 .2.1.2.3 0 .6.1.9.1h.9c.5 0 .9-.1 1.4-.2.1 0 .1-.1.1-.2-.1 0-.2-.1-.2-.1h-.4c-.8 0-1.6 0-2.3-.1zm5.5.6c.1.2.1.3.2.4.1.1.2.2.3.2.1 0 .2 0 .2-.1 0 0 0-.1.1-.1.1-.3.1-.7.1-1.1v-.1h-.1c-.4.3-.6.5-.8.8zm-1.7.5h.2c.1-.1.2-.2.2-.3.1-.2.1-.3 0-.4 0-.1-.1-.1-.2-.1-.1-.1-.2 0-.3.1 0 .2 0 .4.1.7z"/>
    <path class="st1" d="M21.3 19.1c-.2 0-.3-.2-.4-.3-.1-.1-.3-.1-.4-.2h-.4c-.3.1-.6.3-.8.5-.1.1-.1.3-.2.4-.2.1-.4.1-.6.2-.2-.1-.5-.1-.7-.1h-1.6c-.2 0-.2 0-.3-.2v-.1l-.1-.1c-.3-.1-.6.1-1 .2-.3.1-.5.4-.7.6-.1.1-.3.1-.4 0-.1-.1-.2-.2-.3-.2-.2-.2-.4-.4-.7-.5h-.2c-.4.1-.8.2-1.2.2-.7 0-1.4 0-2.1-.1h-.1c0-.1-.1-.1-.1-.2 0-.2.1-.3 0-.5-.1-.1-.3-.2-.4-.4-1-.2-1.8-.7-2.5-1.4-.3-.3-.5-.6-.6-.9-.1-.3-.3-.6-.5-.9 0-.1 0-.2-.1-.4-.2-.6-.1-1.2-.1-1.8.2-.4.2-.9.4-1.4.3-.7.6-1.4 1.1-2 .2-.1.3-.3.5-.5.4-.4.8-.8 1.2-1.1.1-.1.2-.1.2-.2.6-.5 1.3-.9 2-1.3.1 0 .1-.1.2-.1.4-.1.9-.2 1.3-.3.3 0 .6 0 .9-.1.3-.1.5-.1.8-.1h4.4c.5.1.9.1 1.4.1h.5c.5.1.9.3 1.3.5.6.2 1.1.6 1.6 1h.1c.7.4 1.1 1 1.6 1.6.2.2.3.3.4.5.1.2.3.4.4.6.1.2.3.5.4.7 0 .1.1.2.1.3.2.4.3.9.4 1.3.1.5.1 1 0 1.5v.2c-.2.4-.3.8-.5 1.2-.2.3-.3.6-.6.8-.3.3-.6.7-.9 1.1-.2.2-.5.5-.8.6-.4.2-.8.4-1.2.4h-.1c-.2.1-.3.1-.4.3-.2.3-.1.5-.2.6zm2.6-3.8c.5-.6.8-1.2.9-1.9.1-.4 0-.8-.2-1.2 0-.1-.1-.2-.1-.3-.3-.3-.5-.6-.9-.9-.2-.2-.4-.3-.7-.3-.2 0-.4-.1-.7-.1-.2 0-.3.1-.5.1-.8.3-1.4.7-1.6 1.5-.1.4-.2.8-.2 1.2v.1c.1.4.1.8.3 1.1 0 .1.1.2.1.3 0 .2.2.4.3.5.4.3.8.4 1.3.5.4 0 .7-.1 1.1-.2.2 0 .5-.2.9-.4zM9.1 12c-.4 0-.7-.1-1-.1h-1c-.2.2-.5.4-.7.5-.1.1-.2.2-.3.4-.1.2-.1.4-.2.5v1.3c.1.4.3.7.5 1 .5.5 1.1.6 1.7.8.4 0 .7-.1 1.1-.1.1-.1.2-.2.4-.2.3-.2.4-.5.6-.7.2-.6.4-1.1.1-1.7 0-.1-.1-.3-.1-.4-.1-.4-.3-.7-.6-.9-.2-.2-.3-.3-.5-.4z"/>
    <path class="st2" d="M24.4 32.3c-.4 0-.9 0-1.3-.1h-.4c-.3.1-.5 0-.7-.1-.2-.1-.4-.2-.6-.2-.4-.1-.7-.3-.9-.6-.1-.1-.2-.2-.3-.4-.1-.2-.2-.5-.4-.7-.2-.6-.2-1.2-.2-1.8v-1.2c-.1-.3-.1-.5-.1-.8 0-.7.1-1.4.4-2 .2-.5.6-.9.9-1.3.2-.2.5-.4.8-.4 0 0 .1 0 .1-.1l.3-.3c.3-.1.5.1.9.1.3-.1.6-.1 1-.2.3-.1.5-.1.8 0 .3 0 .6.1.8.3.4.2.7.5.9.9.2.4.4.9.6 1.3.1.3 0 .5.1.6.1.2.1.4.1.6.1.4.2.8.2 1.2.1.6 0 1.1-.1 1.7-.1.3 0 .5-.2.8-.1.7-.4 1.3-.8 1.9-.1.1-.2.3-.4.4-.3.2-.6.4-1 .5-.3-.2-.4-.2-.5-.1zm-.7-4.8c-.1 0-.3.1-.4.1-.4.2-.9.4-1.4.5-.1 0-.1 0-.2.1 0 0-.1.1-.1.2s.1.3.3.3c.1 0 .3 0 .4-.1l.6-.3s.1 0 .1.1v.1c-.3.4-.5.8-.9 1.1 0 0 0 .1-.1.1 0 .2.1.4.4.4.2-.1.4-.2.6-.4.2-.2.4-.3.6-.4.1 0 .2-.1.3-.1.2.1.2.2.2.4s-.1.3-.2.4c-.1.1-.3.1-.4.2v.1c.4.5.7.3.9-.1.1-.1.1-.2.1-.3.1-.2.1-.5.2-.7 0-.2-.1-.3-.1-.4 0-.1-.1-.2-.1-.2-.3-.1-.5 0-.7-.2 0-.3.2-.5.2-.7 0 0-.1-.1-.3-.2zm-.3-.6v-.6c0-.1 0-.2.1-.3l.6-.3c.3 0 .4 0 .4-.2s0-.3.1-.4c0 0 .1 0 .1-.1.1 0 .1 0 .2-.1.2-.1.2-.3.1-.4 0-.1-.1-.2-.3-.2h-.3c-.2.1-.1.4-.2.6-.2.1-.5.1-.7.3-.1.1-.2.1-.4.1 0 0-.1-.1-.1-.2s-.1-.1-.2-.1h-.1c-.1 0-.3.1-.4.2v.3c-.3.3-.8.3-1.2.4 0 .1-.1.1-.1.2s.1.1.1.2.1.2.3.2c.3-.1.7-.2 1-.2 0 .1.1.1.1.1v.4c0 .2.1.3.3.3.4.1.5 0 .6-.2zm-.4-3.3c-.2-.1-.3-.1-.4-.1-.2.1-.4.2-.5.4-.1.2-.2.3-.3.5-.1.1 0 .3.1.4.1.1.2.1.2.1.2 0 .4-.1.5-.3.1-.2.3-.3.4-.5 0 0 0-.1.1-.2 0 0 0-.2-.1-.3zm3.3 5.6c-.2 0-.4.1-.6.3.1.2.1.4.3.5 0 0 .1.1.2.1 0 0 .1 0 .1-.1v-.1c.1-.2.2-.4.3-.5 0 0-.2-.1-.3-.2zm-.8-2.9c-.1-.1-.3-.3-.4-.3H25c-.2.1-.2.2-.1.4l.3.3h.3c0-.1.1-.2 0-.4zm-5.3 1.6c-.1.1-.2.1-.2.2-.1.1-.1.2 0 .3 0 .1.1.2.1.3.1.1.2.2.3.2.1-.1.2-.2.2-.3 0-.1 0-.3-.1-.4-.1-.2-.2-.2-.3-.3zm4.9.4h.1c.2 0 .3-.1.3-.2v-.3c-.1-.2-.3-.2-.4-.2-.1 0-.2.1-.2.2.1.1 0 .3.2.5zm-4.8-2.8c.1 0 .1-.1.2-.1.1-.1.2-.2.1-.4 0-.1-.1-.2-.2-.2-.2-.1-.4 0-.5.1 0 .1-.1.1 0 .2.2.1.2.3.4.4zm.1 1.2h-.2c-.1 0-.2.1-.2.2s0 .2.1.3c0 .1.1.1.2.1.1.1.3 0 .3-.1s.1-.1.1-.2-.1-.3-.3-.3c.1 0 0 0 0 0zm.4 3.3c0-.1-.1-.2-.1-.2 0-.1-.1-.1-.2 0s-.3.2-.4.3c.1.3.1.3.5.3.1-.1.2-.3.2-.4z"/>
    <path class="st3" d="M15.9 21.1c.2.2 0 .3 0 .5.1 0 .2.1.3.2.1.1.2.2.2.4.2.5.4 1.1.6 1.7 0 .1.1.2.1.4 0 .3 0 .6-.1.9-.1.1-.1.3-.2.4l-.4.4c-.3.3-.7.5-1.2.6-.1 0-.2 0-.3.1-.3-.1-.7-.1-1.1-.2-.2-.1-.5-.2-.7-.3-.2-.1-.4-.2-.6-.4-.1-.1-.3-.2-.4-.3-.3-.3-.3-.7-.2-1.1 0-.2.1-.3.2-.5.1-.3.3-.5.4-.8 0 0 0-.1.1-.1.3-.4.5-.8.7-1.2.1-.2.2-.3.3-.4.1 0 .2 0 .3.1.2.2.4.3.6.5.1.1.3.2.5.2s.3 0 .4-.2c.1-.2.2-.5.3-.7.1-.1.2-.1.2-.2z"/>
    <path class="st1" d="M3.4 16.4c.4 0 .8-.1 1.2-.2l.6.9.6.6c.3.3.7.6 1.2.8l.6.3c.2 0 .3.1.5.1.1 0 .1.1.2.2v.1c-.4.6-.7 1.2-1 1.9 0 .1-.1.1-.3.1-.1-.1-.3-.2-.5-.3l-.3-.3-.3-.3c-.1-.1-.3-.2-.4-.4-.1-.2-.3-.4-.4-.5l-.6-.6c-.2-.2-.4-.5-.5-.8-.1-.2-.3-.5-.4-.7-.1-.3-.2-.5-.2-.8-.1.1-.1 0 0-.1zM19.8.8c.2-.1.5 0 .7.1.3.2.4.3.7.7.2.8.2 1.7.2 2.5 0 .4 0 .4-.3.9v.2s0 .1-.1.1h-.1c-.2-.1-.4-.1-.6-.1-.5 0-1.1-.1-1.6-.2 0-.1-.1-.1-.1-.1-.1-.4-.1-.9.1-1.3v-.3c.1-.9.4-1.9.9-2.4.1 0 .2 0 .2-.1zM5.9 29.6c-.1-.1-.2-.2-.3-.2-.4-.3-.7-.7-.7-1.1-.1-.4 0-.8.1-1.2 0-.2.1-.3.2-.5 0-.1.1-.1.1-.1.6 0 .6 0 1.2-.2.3-.1.6-.1.9-.1.1 0 .3.1.4.2.2.2.3.4.5.7 0 .2.1.5.1.7 0 .1-.1.2-.1.3-.1.7-.6 1.2-1.3 1.5-.2.1-.4.1-.6.1-.1 0-.3 0-.5-.1zM1.2 14.9c-.1-.2-.2-.3-.3-.5-.1-.2-.1-.3-.1-.5 0-.1 0-.1.1-.1.4-.6.7-.9 1.6-1.2.3 0 .6.2 1 .2.1.2.3.3.5.5 0 .1.1.1.1.2v1c0 .3 0 .5.1.8.1.2 0 .2-.2.3-.5.1-1 .2-1.5.1s-.9-.4-1.3-.8zM15.1 5c-.5-.1-1 .1-1.6 0-.1 0-.2-.2-.2-.3v-.5c0-.3 0-.6-.1-.9 0-.2.1-.3.1-.5s.1-.4.2-.6c.3-.5.4-.6.9-.8.2 0 .4.1.5.3.1.1.1.2.2.3.2.8.2 1.6.2 2.4v.3c0 .1-.1.2-.2.3zM22.2 21.7c-.2-.1-.4-.2-.5-.4v-.1c0-.3 0-.5-.1-.8-.1-.2 0-.4.2-.6.1-.1.2-.2.4-.3.1-.1.2-.2.4-.3.2 0 .3.1.5.1s.4-.1.6-.1c.2 0 .3 0 .5.2l.2.2c.1.1.1.3.1.4v.3c-.1.2-.1.5-.1.7-.1.2-.3.3-.5.4-.7.2-1.2.3-1.7.3z"/>
    <path class="st2" d="M19.8 21.3v-1.5c0-.1.1-.2.1-.3.1-.2.4-.2.5-.1.1.1.2.2.3.4.1.1 0 .2 0 .3-.1.4-.1.8 0 1.2 0 .1.1.2.1.3 0 .1.1.2.1.3-.1 0-.2.1-.2.1-.1.1-.2.1-.3.2-.1.1-.2.1-.3.1-.1-.2-.2-.3-.2-.5.1-.2 0-.4-.1-.5zM25.8 21.8c-.5-.2-.5-.2-.8-.5V21c0-.5.1-1 .3-1.5.1-.2.1-.3.3-.4.1-.1.2-.1.3 0 .1.1.1.2.2.3.1.6 0 1.1 0 1.7v.2c-.2.2-.2.4-.3.5z"/>
    <path class="st4" d="M8.9 20.1c.8.1 1.5.1 2.3.1h.4c.1 0 .1 0 .2.1-.1.1-.1.2-.1.2-.4.1-.9.2-1.4.2h-.9c-.3 0-.6-.1-.9-.1-.1 0-.1-.1-.1-.2s.1-.2.2-.2.2 0 .3-.1zM14.4 20.7c.2-.3.4-.5.7-.7h.1v.1c.1.4 0 .7-.1 1.1 0 0 0 .1-.1.1 0 0-.1.1-.2.1s-.2-.1-.3-.2c0-.2 0-.3-.1-.5zM12.7 21.2c-.1-.3-.1-.5-.1-.8 0-.1.2-.2.3-.1.1 0 .1.1.2.1.1.1.2.3 0 .4-.1.1-.1.2-.2.3 0 .1-.1.1-.2.1z"/>
    <path class="st0" d="M23.9 15.3c-.4.2-.7.4-1 .5-.4.1-.8.1-1.1.2-.4-.1-.9-.2-1.3-.5-.1-.1-.2-.3-.3-.5 0-.1-.1-.2-.1-.3-.2-.4-.2-.8-.3-1.1v-.1c.1-.4.1-.8.2-1.2.3-.8.9-1.3 1.6-1.5.2-.1.3-.1.5-.1s.4.1.7.1c.3 0 .5.2.7.3l.9.9c.1.1.1.2.1.3.1.4.2.8.2 1.2 0 .6-.3 1.2-.8 1.8zm-2.2-3.7c-.1.1-.2.1-.2.2-.4.2-.6.6-.7 1 0 .1 0 .1-.1.2-.1.2-.1.4-.1.6 0 .2.1.5.2.7 0 .1.1.1.1.2.3.2.4.5.7.6.5.1 1 0 1.5-.2.1 0 .2-.1.3-.1.2-.1.3-.3.4-.4.1-.2.2-.5.3-.7.1-.4 0-.7 0-1-.1-.1-.2-.3-.3-.4-.2-.3-.4-.5-.7-.6-.4-.1-.7-.3-1.1-.1-.1-.1-.2-.1-.3 0zM9.1 12c.2.1.3.2.4.3.3.2.5.5.6.9 0 .1.1.3.1.4.2.6.1 1.2-.1 1.7-.2.2-.3.5-.6.7-.1.1-.2.2-.4.2-.4 0-.7.1-1.1.1-.6-.2-1.2-.3-1.7-.8-.2-.2-.4-.6-.5-1-.1-.4 0-.8 0-1.3.2 0 .2-.2.3-.4.1-.2.2-.3.3-.4.2-.2.5-.4.7-.5h1c.4 0 .7.1 1 .1zm-1.8.9c-.5.3-.6.7-.7 1.2 0 .3 0 .5.2.7l.5.5c.3.2.6.3.9.3.2 0 .3-.1.5-.1.6-.1.9-.6 1-1.2v-.2c-.1-.4-.2-.8-.4-1.1-.1 0-.1-.1-.2-.1-.4-.2-.7-.2-1.1-.1-.3 0-.5 0-.7.1zM23.7 27.5c.2.1.3.2.3.3 0 .3-.2.5-.2.7.2.2.4 0 .7.2 0 0 .1.1.1.2s.1.3.1.4c0 .2-.1.5-.2.7 0 .1-.1.2-.1.3-.3.4-.5.5-.9.1v-.1c.1-.1.2-.2.4-.2.1-.1.2-.3.2-.4 0-.2 0-.3-.2-.4-.1 0-.2.1-.3.1-.2.1-.4.2-.6.4-.2.2-.4.3-.6.4-.2 0-.3-.2-.4-.4 0-.1 0-.1.1-.1.4-.3.7-.7.9-1.1v-.1c0-.1-.1-.1-.1-.1l-.6.3c-.1.1-.3.1-.4.1-.1 0-.3-.2-.3-.3 0-.1 0-.1.1-.2.1 0 .1-.1.2-.1.5-.1.9-.3 1.4-.5.1-.1.3-.2.4-.2zM23.4 26.9c-.1.2-.2.4-.4.4s-.3-.1-.3-.3v-.4s0-.1-.1-.1c-.3.1-.7.2-1 .2-.1 0-.2-.1-.3-.2 0-.1-.1-.1-.1-.2s.1-.1.1-.2c.4-.1.8-.1 1.2-.4v-.3c.1-.1.2-.2.4-.2h.1c.1 0 .1.1.2.1 0 .1.1.1.1.2.1 0 .3 0 .4-.1.2-.2.4-.2.7-.3.1-.2 0-.4.2-.6h.3c.1 0 .2.1.3.2.1.2 0 .3-.1.4-.1 0-.1.1-.2.1 0 0-.1 0-.1.1-.1.1-.1.3-.1.4 0 .2-.1.2-.4.2-.2.1-.4.1-.6.3-.1.1-.1.2-.1.3-.2 0-.2.2-.2.4zM23 23.6c.1.2.1.3.2.5 0 .1 0 .1-.1.2-.1.2-.3.3-.4.5-.1.2-.3.3-.5.3-.1 0-.2-.1-.2-.1-.1-.1-.2-.3-.1-.4.1-.2.2-.4.3-.5.1-.2.3-.3.5-.4 0-.2.1-.2.3-.1zM26.3 29.2c.1.1.2.1.3.3-.1.2-.2.4-.3.5v.1l-.1.1c-.1 0-.1-.1-.2-.1-.1-.1-.2-.3-.3-.5.2-.3.4-.3.6-.4zM25.5 26.3c.1.2 0 .3-.1.5-.1.1-.2.1-.3 0l-.3-.3c-.1-.2-.1-.3.1-.4h.1c.3-.1.4 0 .5.2zM20.2 27.9c.1 0 .2.1.2.1.1.1.1.3.1.4 0 .2-.1.3-.2.3s-.2-.1-.3-.2c0-.1-.1-.2-.1-.3v-.3c.1.1.2.1.3 0zM25.1 28.3c-.2-.1-.1-.3-.1-.5 0-.1.1-.2.2-.2.2 0 .3 0 .4.2v.3c0 .2-.1.2-.3.2h-.2zM20.3 25.5c-.2-.1-.3-.3-.4-.4v-.2c.1-.2.3-.2.5-.1.1 0 .1.1.2.2.1.2 0 .3-.1.4 0 0-.1.1-.2.1zM20.4 26.7s.1 0 0 0c.2 0 .3.2.3.3 0 .1-.1.1-.1.2-.1.1-.2.1-.3.1-.1 0-.1-.1-.2-.1-.1-.1-.1-.2-.1-.3 0-.1.1-.2.2-.2h.2zM20.8 30c0 .2-.1.3-.2.4-.3 0-.4 0-.5-.3.1-.2.2-.3.4-.3h.2s.1.1.1.2z"/>
    <path class="st3" d="M16.3 17.9c-.2 0-.5.1-.7.1-.2.1-.5.1-.7.1-.3-.1-.4-.2-.6-.3-.1-.1-.2-.2-.3-.2-.4-.1-.7-.4-1.1-.6l-.1-.1c-.5-1-.5-1.9-.2-2.9.1-.2.3-.5.4-.7.1-.3.3-.5.6-.7.3-.2.5-.3.9-.4h1.7c.3.1.6.2.8.3.2.1.4.2.6.4.2.2.4.4.6.5.1.2.2.3.3.5.1.2.2.3.3.5v.5c0 .6-.1 1.2-.4 1.7-.1.2-.2.3-.4.5s-.5.4-.8.5c-.4.1-.6.1-.9.3zm-1.1-5c-.2.1-.4.1-.6.2h-.1c-.2.1-.4.4-.4.6v.1c.1.1.1.2.2.3.1.1.2.1.3.1.1 0 .2.1.2.2-.2.7-.5 1-.9 1.3-.1 0-.2-.1-.3-.1-.1-.1-.2-.1-.3-.2-.2-.1-.4 0-.5.2-.1.2 0 .4.1.6.1.1.3.2.5.3.2.1.4.1.6.1h.4c.1 0 .2-.1.2-.1l.8-.8c.3 0 .4.3.6.4.4.1.8 0 1.2-.2l.3-.3c.1-.2.1-.3.2-.5 0-.1-.1-.1-.1-.2-.1-.1-.2-.1-.3-.1-.4.1-.7.4-1.1.4-.2-.2-.2-.2-.3-.4-.1-.3-.2-.6-.2-.9 0-.2.1-.4.1-.6 0-.1-.1-.3-.2-.4 0 .1-.2 0-.4 0zm0 4c-.1.1-.1.2-.1.3.1.2.2.3.5.3.1-.1.2-.1.4-.2.1 0 .3-.1.4-.1.1-.1.2-.2.2-.3.1-.1.1-.2 0-.3l-.1-.1c-.2-.1-.3-.1-.5 0-.1.1-.3.1-.4.2 0 .1-.2.1-.4.2z"/>
    <path class="st4" d="M21.7 11.6c.1 0 .2 0 .3-.1.4-.2.8-.1 1.1.1.3.1.5.3.7.6.1.1.2.3.3.4.1.3.1.6 0 1-.1.2-.2.4-.3.7-.1.2-.2.3-.4.4-.1.1-.2.1-.3.1-.5.1-1 .2-1.5.2-.3-.2-.5-.4-.7-.6-.1 0-.1-.1-.1-.2-.1-.2-.1-.5-.2-.7 0-.2 0-.4.1-.6 0-.1 0-.1.1-.2.1-.4.3-.8.7-1 0 0 .1-.1.2-.1zM7.3 12.9c.2-.1.4-.1.6-.2.4-.1.8-.1 1.1.1.1 0 .2.1.2.1.2.4.3.8.4 1.1v.2c-.1.5-.4 1-1 1.2-.2 0-.3.1-.5.1-.3 0-.6-.2-.9-.3l-.4-.4c-.1-.2-.2-.4-.2-.7.1-.5.2-.9.7-1.2z"/>
    <path class="st0" d="M15.2 12.9c.2 0 .4.1.6.2.1.1.2.2.2.4s0 .3-.1.6c.1.2.1.6.2.9 0 .1 0 .1.3.4.4 0 .7-.3 1.1-.4.1 0 .2.1.3.1.1 0 .1.1.1.2-.1.2-.1.3-.2.5l-.3.3c-.4.2-.8.3-1.2.2-.2-.1-.4-.3-.6-.4-.2.3-.5.5-.8.8-.1 0-.2.1-.2.1-.1.1-.3.1-.4 0-.2 0-.4-.1-.6-.1-.2-.1-.4-.2-.5-.3-.2-.2-.2-.4-.1-.6.1-.2.3-.3.5-.2.1 0 .2.1.3.2.1 0 .2.1.3.1.5-.2.7-.6.9-1.3 0-.1-.1-.2-.2-.2s-.2-.1-.3-.1c-.1-.1-.2-.1-.2-.3v-.1c0-.2.2-.5.4-.6h.1c0-.3.2-.3.4-.4z"/>
    <path class="st0" d="M15.2 16.9c.2-.1.3-.1.5-.2.1-.1.3-.1.4-.2.2-.1.3-.1.5 0l.1.1c.1.1.1.2 0 .3-.1.1-.2.2-.2.3-.1 0-.3.1-.4.1-.1 0-.3.1-.4.2-.2 0-.4-.1-.5-.3-.1-.1-.1-.2 0-.3z"/>
    <path class="st4" d="M26.7 32.4c-.1-.1-.2-.2-.4-.1-.1.1-.2.1-.3.2-.3.2-.6.4-1 .5-.3.1-.6.1-.9.2H22.3c-.3 0-.6-.1-.9-.2-.3-.1-.7-.3-1-.5-.1-.1-.3-.2-.4-.3-.4-.3-.7-.7-1-1.2-.1-.2-.2-.3-.3-.5v-.4c0-.2-.1-.4-.1-.5h-.2v.1l-.1.1c-.1 0-.2.1-.2.1h-.5c-.2 0-.3.1-.5.1s-.4.1-.6.1c-.3.1-.6.2-.9.1h-.2c-.2 0-.4.1-.7.1-.1 0-.3 0-.4.1-.3.1-.6.1-.9.1h-.7c-.5 0-1.1-.1-1.6-.1H11c-.4-.2-.9-.2-1.3-.3l-.6-.3c-.2-.1-.3-.3-.6-.3-.2.1-.3.3-.5.4-.4.3-.7.6-1.2.6-.1 0-.2.1-.3.1-.6 0-.6 0-1.4-.3-.1-.2-.3-.4-.4-.5 0 0-.1 0-.1.1-.3.3-.5.7-.7 1.1-.1.2-.2.5-.3.8-.1.1-.2.3-.3.3-.2-.1-.3 0-.4 0-.5.4-.9.9-1.3 1.5v.1c0 .1 0 .1.1.1h.2c.4 0 .7-.2 1.1-.3.3-.1.5-.2.8-.4l.1-.1h.3s.1.1.1.2v.2c0 .1-.1.2-.2.2-.3.3-.4.8-.6 1.2-.1.1-.1.3.1.4h.2c.1-.1.3-.1.4-.2.3-.3.6-.7.8-1 .1-.1.2-.2.3-.2.1 0 .2.1.2.2.1.1.1.3.1.4 0 .2-.1.4-.2.5-.3.2-.4.3-.4.4 0 .1 0 .1.1.2.2-.1.4-.3.6-.5.2-.2.3-.4.5-.6.1-.1.2-.2.3-.2.5.1 1 .3 1.5.4.3.1.7.1 1 .1.4 0 .7 0 1.1.1h1.3c.5 0 .9 0 1.4-.1.2 0 .5-.1.7 0H15.3c.2 0 .4-.1.6 0h1.5c.2 0 .4 0 .7-.1h1c.3-.1.6-.1.9-.1.4 0 .8-.1 1.2-.2.3-.1.5-.2.7-.3.2-.1.4-.1.6-.1.2.2.4.3.5.5.1.1.2.2.4.2.3.1.6.1.9 0 .1 0 .3-.2.3-.3v-.2c0-.1.1-.2.1-.3.1-.2.2-.2.4-.2.2.1.3.1.5.1.1 0 .2-.1.3-.2 0-.1 0-.1.1-.2.1-.2.3-.2.4-.2.2.1.4.2.5.2h.3l.1-.1c-.1-.2-.3-.6-.6-.8z"/>
    <path class="st1" d="M7.5 25.2h.2c.1 0 .2.1.3.1.4.4.8.8 1 1.3.1.2.2.4.1.6v.6c0 .2 0 .4-.1.5.1.2.3.3.4.3.4.2.8.3 1.1.4.2 0 .4.1.6.1.1 0 .3.1.4.1.4 0 .8 0 1.2.1h1.5c.3-.1.7-.1 1-.1.4 0 .8 0 1.2-.1.6-.1 1.3-.2 1.9-.4 0 0 .1.7.2.7l.2-.1c0-.4 0-1.4-.1-1.7-.1-.4-.1-.9-.1-1.3s0-.9.1-1.3c.1-.5.2-1 .5-1.4.1-.2.2-.4.3-.7-.1-.2-.1-.3-.2-.5.1-.3.1-.5.1-.8 0-.3-.1-.5-.1-.8 0-.1-.1-.1-.1-.2h-.5c-.4.1-.8.1-1.2.1-.5 0-.5 0-.3.5s.4 1.1.5 1.6c.2.4.3.7.3 1.1 0 .5-.2 1-.3 1.5-.1.2-.2.3-.4.5s-.4.4-.7.6c-.2.4-.4.5-.5.5-.6.2-1.2.2-1.8.1-.3-.1-.7-.2-1-.3-.5-.2-.9-.5-1.3-.8-.5-.4-.7-1-.5-1.6.2-.5.4-1.1.6-1.6l.3-.6c-.1-.2-.1-.3-.2-.4V21.2c0-.1-.1-.1-.2-.1-.2 0-.4.2-.6.1-.2.1-.3.1-.5.2H8.9c-.1 0-.2-.1-.3-.1-.2 0-.3-.2-.5-.2 0 .1-.2.2-.2.4 0 .1.1.2.1.3 0 .2-.1.4-.1.5l-.3.3c-.1.1-.1.2-.1.3 0 .6-.2 1.1-.3 1.7v.4c0 .1.1.2.3.2z"/>
    <path class="st0" d="M19.3 14.5c-.1-.6-.3-1.1-.7-1.6 0-.1-.1-.1-.1-.1l-.1-.1c0-.1-.1-.1-.2-.2l-.2-.2c-.6-.4-1.5-.7-1.5-.7-.1 0-.2 0-.3-.1-.6-.2-1.1-.1-1.7 0-.1 0-.2.1-.4.1-.1 0-.2.1-.4.1-1.1.2-1.6 1.3-1.6 1.3s-.1.1-.1.2c-.1.2-.1.4-.2.6-.1.4-.2.7-.2 1.1v.7c0 .2 0 .4.1.6.1.4.2.8.4 1.1.5.5 1 .9 1.6 1.1.1 0 .3.1.4.2.1.1.3.2.5.2.4.1.9.1 1.3-.1.2-.1.4-.1.6-.2.3 0 .5-.1.8-.2.4-.2.8-.4 1.1-.6.3-.3.6-.7.7-1.1.2-.5.3-.9.4-1.4-.1-.1-.1-.4-.2-.7zm-1 2.1c-.1.2-.2.3-.4.5s-.5.4-.8.5c-.2.1-.5.2-.8.3-.2 0-.5.1-.7.1-.2.1-.5.1-.7.1-.3-.1-.4-.2-.6-.3-.1-.1-.2-.2-.3-.2-.4-.1-.7-.4-1.1-.6l-.1-.1c-.5-1-.5-1.9-.2-2.9.1-.2.3-.5.4-.7.1-.3.3-.5.6-.7.3-.2.5-.3.9-.4h1.7c.3.1.6.2.8.3.2.1.4.2.6.4.2.2.4.4.6.5.1.2.2.3.3.5.1.2.2.3.3.5v.5c-.1.6-.3 1.2-.5 1.7zM19.8 8.9v.4c0 .2-.1.3-.3.3h-1c-.4.1-.7.1-1.1.1h-.6c-.2 0-.4-.1-.5-.2l-.1-.1c-.2-.2-.1-.4 0-.4.1-.1.3-.1.4-.1h1.3c.4 0 .9 0 1.3-.1h.4s.1 0 .2.1zM13.2 9.5c-.4 0-.8.2-1.2.2-.2 0-.3.1-.5.2-.1.1-.3 0-.4 0 0-.2-.1-.3-.1-.4-.1-.2 0-.4.2-.5.1 0 .1 0 .2-.1.3 0 .6-.1.9-.1.3-.1.7-.1 1-.3.1 0 .2-.1.3-.1.1.1.2.1.3.2l.1.1v.2c-.3.3-.5.4-.8.6zM11.9 10.9c.1-.1.1-.1.1-.2.1-.1.3-.1.5-.2.3 0 .6.1.7.4 0 .2 0 .3-.1.4l-.3.3c-.1.1-.2.1-.3.1-.1 0-.2 0-.3-.1-.1-.1-.2-.2-.2-.3 0 0-.1-.2-.1-.4zM18.7 10.7c.1.2.1.3.2.4v.2c0 .1-.1.2-.2.2-.1.1-.2.1-.3.2-.2 0-.5 0-.6-.1-.2-.1-.2-.3-.3-.6.3-.4.7-.4 1.2-.3z"/>
</svg>
