<svg xmlns="http://www.w3.org/2000/svg" width="11.5" height="18.8" style="overflow:visible;enable-background:new 0 0 11.5 18.8" xml:space="preserve">
    <style>
        .st0{fill:#7a6a56}.st2{fill:#fff}
    </style>
    <path class="st0" d="M.4 2.3C.3 2.2.2 2 .1 1.9c0-.2.1-.3.2-.5.1 0 .1-.1.2-.1.2 0 .3-.1.3-.3L.9.9c.1 0 .4-.1.6-.1.2 0 .4 0 .6-.1.4-.1.8-.2 1.1-.3.2 0 .3-.1.5-.1.5-.1.9-.2 1.3-.2.2 0 .3 0 .5-.1h1.6c.4 0 .8 0 1.3.1h.4c.3 0 .6.1.9.2.1.2.2.3.2.5s.1.3.1.5c0 .1 0 .1-.1.2-.1.2-.1.3 0 .5.2.5.3 1 .5 1.5 0 .1.1.2.1.3 0 .4.1.7.2 1.1 0 .2 0 .5.1.7.1.2.1.5.1.7v.1c0 .7.2 1.3.2 2 0 .3.1.6.1.9.1.3.1.6.1.9 0 .3 0 .7.1 1v.2c.2.6.1 1.1.2 1.7-.1.3-.2.6-.4.9-.4.9-.8 1.8-1.2 2.6-.1.3-.3.6-.5.9-.1.2-.3.4-.4.5-.2.1-.3.1-.5.1s-.3 0-.3.3v.1c0 .1-.1.2-.2.2-.9 0-1.8.1-2.7 0-.3 0-.5 0-.9.1-.3-.1-.6-.2-.9-.2-.3-.1-.5-.3-.7-.5-.1-.3-.3-.5-.5-.8-.1-.1-.1-.2-.2-.3 0-.2-.1-.4-.3-.5-.1-.1-.2-.2-.3-.4-.1-.2-.2-.4-.4-.6-.1-.1-.1-.2-.1-.3-.1-.1-.2-.2-.3-.4-.1-.1-.2-.3-.3-.4-.1-.1-.2-.3-.3-.5-.1-.3-.2-.7-.3-1 .2-.6.1-1 .1-1.5V5.8c0-.5 0-1 .1-1.6 0-.4.1-.7.1-1.1.1-.2.2-.5.2-.8zM2.3 12c.1.2.1.5.2.7.1.3.2.7.4.9.4.2.8.4 1.1.7.6.1.6.2 1 .1l.6-.9c.2-.1.4-.2.6-.2 0 0 .1 0 .2.1.3.1.5.2.7.4.1.1.2.2.4.2h.4c.6-.3.6-.2.9-.9.1-.3.2-.7.2-1 0-.6-.2-1.2-.2-1.8v-.1c-.1-.5-.2-1-.2-1.5 0-.2 0-.4-.1-.6-.1-.1-.2-.3-.2-.6 0-.2 0-.4-.1-.7 0-.2 0-.4-.1-.7-.1-.3-.2-.7-.2-1.1 0-.3 0-.6-.1-1 0-.2-.1-.3-.1-.5s-.1-.4-.1-.6c-.2-.1-.3-.3-.4-.5 0 0-.1 0-.1-.1-.2 0-.3.1-.5.1-.1 0-.2.1-.3.1-.5 0-1 .2-1.5.3-.6-.1-1.2-.1-1.8-.1h-.2c0 .1-.1.1-.1.2 0 .2 0 .4-.1.7-.1.2-.1.4-.2.7v.6c0 .4-.1.9-.1 1.3s0 .8-.1 1.3V8c0 .2.1.5 0 .7.1.4.2.8.1 1.2v.1c.1.3 0 .7.1 1v.6c-.1.1-.1.3-.1.4zm8.4 1.2V12c-.1-.5-.1-1-.1-1.5v-.2c-.1-.3-.1-.5-.1-.8 0-.2 0-.4-.1-.5-.1-.2-.1-.5-.1-.7 0-.3-.2-.5-.1-.8 0-.3-.1-.5-.1-.7 0-.2 0-.4-.1-.7v-.2c0-.2 0-.4-.1-.6-.2-.4-.2-.6-.2-.9 0-.3-.1-.6-.2-.9 0-.1-.1-.3-.1-.4 0-.3-.2-.6-.4-.9-.1-.2-.1-.3 0-.5v-.1s-.1 0-.1.1c-.2.1-.3.2-.5.3-.1 0-.2.1-.2.1-.1.4.1.7.1 1v.5c0 .2.1.4.1.6.1.3.1.6.1.9 0 .1 0 .2.1.4.2.5.3.9.4 1.4 0 .3.1.6.1.9 0 .3.1.6.1.9.1.5.2 1 .2 1.5 0 .2 0 .4.1.6.1.4.1.7.2 1.1.1.5 0 1-.2 1.5l-.3.9c-.1.1-.3.3-.4.5l-.3.6c-.2.4-.4.8-.7 1.2-.1.2-.3.3-.5.5-.3 0-.6.2-.9.1-.3 0-.6-.1-.9-.1-.2-.1-.4-.1-.6-.1-.4 0-.7-.1-1-.3-.1-.1-.2-.2-.3-.2-.1-.2-.3-.4-.4-.6-.1-.2-.2-.4-.4-.6-.4-.4-.6-.9-.8-1.4 0-.4 0-.6-.1-.7-.2-.3-.3-.6-.4-.9 0-.4 0-.8.1-1.1.1-.5.1-1 .1-1.5V7.6c0-.5.1-1 .1-1.6 0-.3 0-.7.1-1V3.6c0-.3.1-.6.1-.9 0-.1 0-.1-.1-.2-.2 0-.4-.1-.6-.1-.1 0-.2.1-.2.3-.1.2-.1.3-.1.5-.2.5-.1 1-.2 1.5v4.6c0 .9 0 1.7.1 2.6.1.5.2 1 .4 1.4.1.2.2.5.3.7.2.2.3.4.4.6.1.3.3.6.5.8l.3.6c.1.2.3.3.4.4.2.4.4.6.7.9.2.2.4.4.7.5h1.6c.6 0 1.3-.1 1.9-.2.1 0 .1-.1.2-.1.4-.3.8-.6.9-1.1 0 0 0-.1.1-.1.2-.2.3-.5.4-.8.2-.5.4-1.1.7-1.6.1-.1.2-.4.3-.7zM4.4 16c.3.1.5.2.8.2.5.1.9.1 1.4.1.1 0 .2 0 .3-.1.3-.2.6-.5.8-.9.1-.2.2-.3.2-.5-.2-.2-.4 0-.6-.1-.1-.1-.3-.1-.4-.3-.2-.1-.3-.3-.5-.4-.2 0-.3 0-.4.1-.1.2-.3.5-.4.8 0 0 0 .1-.1.1-.1.1-.3.2-.5.2-.4-.1-.9-.2-1.3-.4l-.1.1c0 .1.1.1.1.2.3.3.5.6.7.9zM4 1c-.4.1-.7.2-1 .3-.2.2-.4.2-.6.2-.1 0-.1.1-.2.1v.1c.2.1.5.2.8.2h.4c.1.1.3.1.4.1H5c.1 0 .3-.1.4-.1.3 0 .7-.1 1-.2.3-.1.5-.2.8-.2.3-.1.7-.2 1-.3.1 0 .1-.1.1-.1L8.2 1H5c-.4.1-.7 0-1 0z"/>
    <path d="M2.3 12c0-.1 0-.3.1-.4.1-.2.1-.4 0-.6-.1-.3 0-.7-.1-1v-.1c.1-.4 0-.8.1-1.2V7.5c0-.4.1-.8.1-1.3 0-.4 0-.9.1-1.3v-.6c-.1-.3-.1-.5 0-.8.1-.2.1-.4.1-.7 0-.1.1-.1.1-.2H3c.6.1 1.3 0 1.9.1l1.5-.3c.1 0 .2 0 .3-.1.2 0 .3-.1.5-.1.1 0 .1 0 .1.1l.3.6c0 .2.1.4.1.6 0 .2.1.3.1.5.1.3.1.6.1 1s.1.8.2 1.2c.1.2.1.5.1.7.1.2.1.4.1.7 0 .2 0 .4.1.7.1.2.1.4.1.6 0 .5.1 1 .2 1.5v.1c0 .6.2 1.2.2 1.8 0 .3-.1.7-.2 1-.2.7-.3.6-.9.9h-.4c-.1-.1-.3-.1-.4-.2-.2-.2-.4-.3-.7-.4-.1 0-.1-.1-.2-.1-.2 0-.4.1-.6.2-.2.3-.3.6-.6.9-.4 0-.4 0-1-.1-.4-.2-.7-.4-1.1-.7-.2-.2-.3-.6-.4-.9 0-.4-.1-.7-.1-.9zm4.3-7.8c0-.2-.1-.4-.3-.5H6c-.1 0-.2.1-.2.2-.2.1-.2.3 0 .5l.2.2c.1.1.2.1.4 0 .1-.1.1-.2.2-.4zM7 6.8c.1 0 .1-.1.1-.1.1-.2 0-.4 0-.6 0-.1-.1-.2-.2-.2-.3 0-.5.2-.6.4v.1c.1.1.1.2.2.2.2.1.4.2.5.2zm-1.6-.3c.3 0 .4-.2.4-.4v-.2c0-.1-.1-.1-.1-.2-.2-.1-.4-.1-.5 0-.2.2-.2.4 0 .6.1.1.2.1.2.2z" style="fill:#f1f8f6"/>
    <path class="st2" d="M10.7 13.2c-.1.4-.3.7-.4.9-.3.5-.5 1-.7 1.6-.1.3-.2.6-.4.8l-.1.1c-.1.5-.6.8-.9 1.1-.1 0-.1.1-.2.1-.6.1-1.2.2-1.9.2H4.5c-.4-.1-.6-.3-.7-.5-.2-.3-.5-.5-.7-.9-.1-.2-.2-.3-.4-.4 0-.2-.1-.4-.3-.6-.1-.3-.2-.6-.4-.9-.1-.2-.3-.4-.4-.6-.1-.2-.2-.4-.3-.7C1 13 .9 12.5.9 12c-.1-.9-.1-1.7-.1-2.6V4.8c.1-.5.1-1 .2-1.5 0-.3 0-.4.1-.6 0-.1.1-.2.2-.3.2 0 .4.1.6.1 0 .1.1.2.1.2 0 .3 0 .5-.1.8v1.4c-.2.4-.2.7-.2 1.1 0 .5-.1 1-.1 1.6V8c0 .3.1.6 0 .9v.8c0 .5 0 1-.1 1.5-.1.4 0 .7-.1 1.1.1.3.2.6.4.9.2.1.2.3.3.4.2.5.4 1 .8 1.4.2.2.3.4.4.6.1.2.2.4.4.6.1.1.2.1.3.2.3.2.6.4 1 .3.2 0 .4 0 .6.1.2.2.5.2.8.3.3 0 .6-.1.9-.1.2-.1.4-.3.5-.5.3-.4.6-.8.7-1.2l.3-.6c.1-.2.2-.3.4-.5l.3-.9c.2-.5.3-1 .2-1.5-.1-.4-.1-.7-.2-1.1 0-.2-.1-.4-.1-.6 0-.5-.2-1-.2-1.5 0-.3-.1-.6-.1-.9 0-.2-.1-.5-.1-.8-.1-.5-.2-.9-.3-1.4 0-.1-.1-.2-.1-.4 0-.3-.1-.6-.1-.9 0-.2-.1-.4-.1-.6v-.5c0-.3-.2-.6-.1-1.1 0 0 0-.1.2-.1s.3-.2.5-.3h.2v.1c-.3.2-.3.4-.2.5.2.3.3.6.4.9 0 .1.1.3.1.4.1.3.1.6.2.9 0 .2 0 .5.1.7.1.2.1.4.1.6v.2c.1.3.1.5.1.7 0 .2.2.5.1.7 0 .3.1.5.1.8 0 .2 0 .5.1.7.1.2 0 .3.1.5 0 .3 0 .5.1.8v.2c0 .5 0 1 .1 1.5v.3c.1.5.1.8.1 1.1z"/>
    <path class="st2" d="M4.4 16c-.2-.3-.4-.6-.5-.9 0-.1-.1-.1-.1-.2l.1-.1c.4.1.9.2 1.3.4.2 0 .4-.1.5-.2l.1-.1c.1-.3.3-.5.4-.8-.1-.1 0-.1.1-.1.2.1.3.3.5.4.1.1.3.2.4.3.2.1.5-.1.6.1 0 .2-.1.4-.2.5-.2.3-.5.6-.8.9-.1.1-.2.1-.3.1-.5 0-.9-.1-1.4-.1-.2 0-.4-.1-.7-.2zM4 1c.3 0 .7 0 1-.1h3.2c.1 0 .2.1.1.1 0 .1-.1.1-.1.1-.3.1-.6.2-1 .3-.3 0-.5.1-.8.2-.3.1-.7.2-1 .2-.1.1-.3.1-.4.2H3.8c-.1 0-.3 0-.4-.1H3c-.3 0-.5-.1-.8-.2v-.1c.1 0 .1-.1.2-.1.2 0 .4-.1.6-.1.3-.2.6-.2 1-.4z"/>
    <path class="st0" d="M6.6 4.2c0 .2-.1.3-.2.4-.1.1-.2 0-.4 0-.1 0-.2-.1-.2-.2-.2-.2-.2-.4 0-.5 0-.1.1-.2.2-.2h.3c.1.1.3.3.3.5zM7 6.8c-.1 0-.3-.1-.5-.2-.1 0-.2-.1-.2-.2v-.1c.1-.2.3-.4.6-.4.1 0 .2.1.2.2.1.2.1.4 0 .6 0 0 0 .1-.1.1zm-1.6-.3c0-.1-.1-.1-.2-.2-.2-.2-.2-.4 0-.5.1-.1.4-.2.5 0 .1 0 .1.1.1.2v.2c0 .1-.1.3-.4.3z"/>
</svg>
