<svg xmlns="http://www.w3.org/2000/svg" width="67.9" height="140.8" style="overflow:visible;enable-background:new 0 0 67.9 140.8" xml:space="preserve">
    <style>
        .st0{fill:#7a6a56}.st1{fill:#deedd8}.st2{fill:#fff}.st3{fill:#f1f8f6}.st4{fill:#eacac6}
    </style>
    <path class="st0" d="M19.1 7.1c.8-1.4 1.5-2.6 2.3-3.9C26 1.7 30.7.1 35.8 0c1.7 0 3.4.2 5.1.7.3.1.7.2 1 .4 1.3.6 2.1 1.6 1.5 2.9-1 2.3-.9 4.7-.8 7.1l.3 7.2c0 .5.3 1 .4 1.6.5-.3 1-.4 1.4-.7 2.4-2.2 4.8-4.5 7.2-6.7 1.3-1.2 2.7-2.2 4.3-2.9 1.3-.5 2.7-.7 4.1.4.5 1.1 1 2.3 1.7 3.8 1.1 1.3 2.3 2.7 3.5 4.2 1.1 1.3 2 2.8 2.4 4.9-.4 2.4-.7 5.1-.6 7.9 0 1-.2 2.1-.4 3.1-.5 2.5-1.1 5-1.5 6.6-.8 2.3-2.5 2.6-2.8 4.1.1.4 0 .8.2 1 1.6 2 2.3 4.2 2.3 6.7 0 3.4.2 6.9-.3 10.3-.1 1-.1 2.1.1 3.1.4 1.7.5 3.4.6 5.1.2 4 .4 7.9.5 11.9 0 2.2-.3 4.5-.3 6.7 0 3.3.2 6.6.3 9.8.1 3.1.2 6.2.2 9.3 0 1-.1 2.1-.4 3.1-.5 1.7-.6 3.4-.4 5.1.1 1.2.1 2.4.2 3.6.7 2.1 2 4.1 1.2 6.5-2.8 3.6-3.6 4.5-6.6 6.5-1.7 1.2-3.4 2.3-5.2 3.4-3.1 1.9-6.6 3-10.1 3.8-1.8.5-3.8.4-5.6-.2-.8-.3-1.7-.4-2.5-.8-2.4-1-4.7-.8-7.1 0-.7.2-1.3.5-1.9.7-1.2.4-2.4.5-3.6.2-3.3-.9-6.8-1.1-10-2.4-1.5-.6-2.9-1.1-4.1-2.1-1.6-1.3-3.3-2.5-5.2-3.8-.3-.6-.7-1.3-1-2.1-.5-1.7-.5-3.4.3-5 .7-1.4 1.6-2.7 1.9-4.7-.2-1.6-.4-3.6-.3-5.7.1-3.3 0-6.6 0-9.8 0-2.9.1-5.8.5-8.8.3-2.7.1-5.5.3-8.3.6-3.2.4-6.3.4-9.4 0-.5 0-1.1-.2-1.5-1.1-3-1-6.1-1.3-9.2-.4-2.9-.9-5.8-1.3-8.7-.1-.5 0-1-.1-1.5.5-1.9 2.4-3 2.6-5-1.3-2.2-2.3-4.6-4-6.6-2-2.5-2.8-5.5-2.8-8.7 0-2.2-.3-4.5.8-6.6.1-2.1.5-4.1 1.2-6 .7-1.8 1.2-3.6 1.8-5.2 1-1.3 2.1-1.3 3.3-.8 1.6.6 3.1 1.5 4.5 2.5 2.3 1.5 4.8 2.7 7.4 3.6.6.2 1.5-.4 1.5-1 0-.5.1-1 .1-1.5l-.3-5.7c-.1-1.9-.3-3.8-.5-5.7 0-1.2-.3-2.2-.6-3.6zm30.8 45.4c-2.3.9-5 .9-7.4 2-2.5 1.2-5.3 1.6-8 1.6-2.4 0-4.8.2-7.2.9-1 .3-2.1.4-3.1.3-4.4-.2-8.5 1.4-12.7 1.9-.5.1-1 .4-1.4.6-1.5.8-2.2 2.1-2.3 3.8 0 .5 0 1.1.1 1.5.6 2.3.9 4.7 1.1 7.1.1.7.2 1.4.4 2 .4 1.5.5 3.1.5 4.6.2 4.7-.3 9.3-.6 13.9-.2 2.1.1 4.1-.2 6.2-.1.8 0 1.7.1 2.6 0 .3.3.6.5.8.7.1 1.3.2 1.9.3.8.6 1.4 1.2 2 1.7.4.1.7.3 1 .3 1.3 0 2.3.6 2.9 1.8.3.6.9 1 1.6 1.1 1.5-.3 2.5-2 4.2-1.8.9.5 1.8.9 2.6 1.3 1 0 1.9 0 2.7-.1.9-.1 1.7-.2 2.5-.3 2.1-1.7 4.5-2.7 7.1-2.8 2.1-.1 4.1-.5 6-1.4 1.2-.6 2.6-.8 3.9-1.3 1.8-.7 3.6-1.3 5.1-2.5 1.2-1 2.7-1.4 4.3-1.7 1.2-.2 2.4-.3 3.6-.5.9-.1 1.6-.9 1.6-1.8.1-4 .7-7.9.5-11.9-.2-4.5-.3-9-.6-13.4-.3-4-.4-7.9-.3-11.9 0-1.7-.1-3.4-.2-5.2 0-.3-.3-.6-.5-.9-1.4-.2-2.7.2-4 .4-1.3.3-2.6.7-4.1 1.1-1.1.1-2.3-.1-3.6-.3zm-20.4 71.7c.1-.8.2-1.4.2-2.1 0-.9.3-1.7.7-2.4.4-.8 1.3-1.3 2.1-1.1.3 0 .7 0 1 .1 2.4.8 4.7.6 7.1-.2 1.3-.5 2.6-.9 3.9-1.3.8-.3 1.7-.4 2.5-.2.2.2.5.5.8.9.1 1.6.1 3.3.2 5 0 .5.4.9 1.3 1.1 3.6-1.7 7.7-3.1 11.3-5 .7-.8 1.2-1.5 1.7-2.2.1-1.1.2-2.1.4-3.1.2-1.2.4-2.4.5-3.6.1-1.6.1-3.1.4-4.6.3-1.4.2-2.7-.3-4.1-.2-.7-.6-1.2-1.5-1.6-2.6.6-5.5.8-8.2 2.3-1.2.7-2.5 1.1-3.9 1.5-3.2.8-6.1 2.3-8.7 3.8-.6.8-.6 1.5-.6 2.2 0 1.2.1 2.4 0 3.6-.1.7-.6 1.2-1.3 1.4-.2-.2-.6-.4-.7-.6-.5-1.1-.8-2.3-.4-3.5.3-1 .5-1.9.7-2.9 0-.1-.3-.2-.4-.3-2.8.3-5 2.2-7.7 2.9-.9 0-1.7.1-2.6.1-.9 0-1.7.1-2.2.1-1.5-.4-2.4-1.3-3.8-1.3-.5.4-1 .8-1.6 1.2-1.3.8-2.2.8-3.3-.2-.6-.6-1.2-1.2-1.9-2-2.2.8-3.6-1.6-5.7-1.3-.1.1-.3.2-.4.4-.4 1.5-.9 3-.7 4.6.5 3.2-.4 6.6.8 9.9 2.1 1.7 4.6 2.8 7 3.8 2.2.2 4.2.5 6.3.7 2.4-.1 4.6-.5 7-2zm32.8-2.3c-.4.1-.9.2-1.3.4-2.9 1.5-6 2.5-9.1 3.6-2 .7-3.9 1.2-6 1.6-3.9.6-7.8 1.2-11.8.4-2.2-.4-4.5-.4-6.6.5-2 .8-4.1.7-6.1.5-1.4-.2-2.7-.5-4.1-.6-1.2-.1-2.4-.5-3.5-1-1.4-.6-2.8-1.3-4.2-2-.4-.2-.9-.2-1.4-.3-1.6 1.4-1.8 3-.8 4.8 2.2 1.6 4.4 3.2 6.8 5 .3.1.8.3 1.2.5 2.6 1.1 5.3 1.5 8 2 1.7.4 3.4.2 5.1-.2.7-.2 1.3-.4 2-.6 2.2-.6 4.4-.6 6.6.1.8.3 1.6.5 2.5.8 1.3.5 2.7.5 4.1.3 1.2-.2 2.4-.5 3.5-.9 3.6-1.1 7-2.7 10.2-4.8 2.3-1.5 4.7-2.9 6.6-5.2.1-.5.3-1.2.5-1.9-.6-1.1-.9-2.3-2.2-3zM31.8 41.5c-.3-.2-.7-.4-.9-.6-.4-.3-.7-.8-1.1-1.1-.6-.5-1.9-.4-2.4.1-.4.5-.9 1.1-1.2 1.6-.9 1.5-1.8 3-2.6 4.4-.5.9-1.3 1.6-2.2 2.2-1 .6-2.1 1.2-3.2 1.8-1.4.7-2.7 1.4-4 2.4-1.6 1.3-3.4 2.3-5.4 2.8-.1 0-.3.2-.3.4 0 .3-.1.7 0 .9.3.4.9.6 1.4.4 2-.7 4-1.1 6-1.2.5 0 1-.2 1.5-.4 2.3-.9 4.7-1 7.1-1 1.7 0 3.5-.1 5.1-.5 1.9-.4 3.7-.7 5.6-.8 2.1-.1 4.1-.4 6-1.2 2.1-.8 4.2-1.4 6.5-1.6 1-.1 2-.4 3-.7 2.2.6 4.4.7 6.6-.3 1.2-.6 2.8-.1 3.9-1-1-1.1-2.6-.3-4.2-1.1-2.2-1.2-4.8-2.3-7.7-3.2-2.1-.6-4.3-1.3-6.2-2.5-.9-.5-1.9-.7-2.7-1-1.3-.1-2.2.3-3.2.7-1.7.8-3.6 1-5.4.5zm-6.1-14.9c4-1.7 4-1.7 9.4-1.6 1.4-.7 2.9-1.4 4.5-2.2.2-.7.4-1.4.5-2 .2-4-.3-11.7-.9-13.9 0-.1-.2-.2-.4-.4-1 .3-2 .6-2.9.9-1 .4-2 .6-3 .6-2.9 0-5.8.3-8.8-.2-.3 0-.6.2-1 .3-.2.3-.4.5-.8 1 .8 3.2.7 6.6 1 10 .1 1.4.2 2.8.1 4.1 0 .8-.4 1.6-.6 2.3.9 1 1.8 1 2.9 1.1zm17.4-2.2-2.3 2.3c-.1.1-.1.4 0 .5.2.3.4.6.6.6 4 .1 7.8-1.2 11.7-1.9 2.7-.5 5.3-1.4 7.9-2.1.3-.1.7-.1 1-.1.3.1.7.3.8.5.8 1.5 0 2.5-1.3 2.5-2.3 0-4.4.5-6.6 1.2-2.9.9-5.9 1.8-9 2-.2 0-.3.3-.6.5.6.1 1.1.2 1.6.2 1.7-.1 3.5 0 5.1-.3 3.5-.6 7.1-1 10.7-1.3.5 0 .9-.4 1.4-.6.4-1.5.7-3 1-4.5-.5-1.3-1-2.6-1.5-3.7-1.1-1.1-2.1-2.1-3.7-2.1-4.6 2.4-9.3 4.9-14.1 7.4-.7-.3-1.5-.6-2.7-1.1zm-12.9 4.5c-.2 2.2-.1 4.4.4 6.5.4 1.8 1.4 3.1 3.3 3.4 1.1-.3 2.3-.4 3.4-1.3 1-1.2.3-2.9.7-4.3-.4-1-.9-1.9-1.3-2.8.1-.4.2-.7.3-1 .1-.5.3-.9-.3-1.4h-2.9c-1 0-2-.1-2.9-.2-.3.5-.5.8-.7 1.1zm33.9 3.4c-4.8-.3-7.9-.1-12.2.7-2.2.4-4.4.7-6.7.6-.7 0-1.4-.1-2.1 0-.5 0-1 .1-1.5.2-.2 0-.3.2-.4.3-.3.2-.5.5-.3.9.1.2.5.5.7.5 2.5-.6 5.1-.8 7.7-.8 2.6 0 5.1.8 7.6 1.2 1.8.3 3.6.9 5.2 2.1.2.1.6-.1 1-.2.2-.4.4-.9.6-1.3.1-.3.2-.6.3-1 .1-.5.4-1 .4-1.5 0-.4-.2-.9-.3-1.7zm-36.9 1c.2-.4.4-.7.4-1 0-.6-.5-1.1-.9-1-.8.1-1.8 0-2.5.3-2 .8-4 1.1-6 1.3-.8.1-1.7.4-2.5.5-1 .2-2 .4-3 .5-1.9.2-3.8.2-5.6-.3-.8-.2-1.7-.1-2.5.2-.7.3-1.3 1.3-1.2 2.1.1.6.8 1.3 1.4 1.4.7 0 1.4.1 2 0 1-.2 1.9-.7 2.9-.9 1.5-.3 3.1-.3 4.6-.5 1.7-.3 3.4-.8 5.1-.9 2.6-.2 5.2-1.1 7.8-1.7zM7.6 46.9c1.9-1 3.3-2.9 5-4.2 1.9-1.5 3.8-2.8 5.8-4.3-1.3-.6-2.5-.4-3.7 0-1.7.4-3.4.7-5.1 1-1.7.3-3.3.8-5 1.3-.3.1-.5.4-.8.7.1 1.4 1 2.5 1.7 3.7.6.6 1.1 1.3 2.1 1.8zm15.7-8.1c-1.5.8-3.1 1.5-4.5 2.5-3.1 2.4-6.3 4.8-8.9 7.9-.1.1-.2.3-.3.4-.1.3-.2.7 0 .9.2.2.6.4.9.3.5-.1 1-.3 1.4-.6 1.8-1.4 3.6-2.6 5.8-3.2 1.2-.3 2.1-1.1 3-1.9 1.7-1.6 2.8-3.4 3.4-5.6-.2-.4-.4-.5-.8-.7zm20.8-.3c.3.4.6 1 1 1.1 2.8.8 5.5 1.9 8.3 2.9 1.3.5 2.6.9 3.9 1.3 1.1.3 2.3-.3 3.1-1.3.3-.5.3-1.5-.3-1.9-.4-.3-.8-.7-1.3-.8-2-.5-4.1-.8-6-1.4-2.6-.8-5.1-.6-7.7-.3-.3-.1-.6.2-1 .4zm-27.6-8c-2.1-1.2-3.5-1.8-4.7-2.8-1.2-.9-2.2-2.1-3.4-3.2-.6-.5-1.1-1.3-2.2-1.3-.3.4-.7.7-.9 1.2-.7 1.6-1.3 3.2-1.1 5 .7 1 1.3 1.5 1.9 1.5 2.6.1 5.2.5 7.7.1.7 0 1.3-.2 2.7-.5zM44.2 120c-.9.3-1.9.7-2.8.9-1.2.2-2.4.3-3.6.5-1.5.2-3 .5-4.4 1.2-.2.1-.4.5-.4.8 0 .3.2.7.4.9.8.6 1.8.9 2.9.9 1.7 0 3.4-.1 5.1-.1 2.8-.1 4-.8 3.5-4.2-.2-.2-.4-.5-.7-.9zM58.7 14.9c-.1-1.1-.4-2-1.7-2.2-1.5.3-2.9 1.1-4 2.2-2.3 2.3-4.6 4.6-6.9 6.8.1.1.3.3.4.2 3.7-1 7-2.8 10.1-4.9.8-.5 1.7-1 2.1-2.1zM27.6 3.8c-.1.6.2 1.1.6 1.1 2.9.5 5.8.3 8.7-.6.6-.2 1.4-.3 1.8-1-.4-.1-.9-.3-1.3-.3-3.1-.2-6.4.1-9.8.8z"/>
    <path class="st1" d="M49.9 52.5c1.3.2 2.5.4 3.6.5 1.4-.4 2.8-.8 4.1-1.1 1.3-.3 2.7-.6 4-.4.2.3.5.6.5.9.1 1.7.2 3.4.2 5.2 0 4 .1 7.9.3 11.9.3 4.5.4 9 .6 13.4.2 4-.4 7.9-.5 11.9 0 .8-.8 1.6-1.6 1.8-1.2.2-2.4.3-3.6.5-1.5.3-3 .7-4.3 1.7-1.5 1.2-3.3 1.8-5.1 2.5-1.3.5-2.7.7-3.9 1.3-1.9.9-3.9 1.3-6 1.4-2.6.1-5 1.1-7.1 2.8-.8.1-1.7.2-2.5.3-.9.1-1.7.1-2.7.1-.8-.4-1.7-.9-2.6-1.3-1.7-.2-2.7 1.5-4.2 1.8-.7-.1-1.3-.5-1.6-1.1-.6-1.2-1.6-1.8-2.9-1.8-.3 0-.7-.2-1-.3-.6-.5-1.3-1.1-2-1.7-.6-.1-1.2-.2-1.9-.3-.2-.3-.5-.5-.5-.8-.1-1-.2-1.9-.1-2.7.3-2 .1-4.1.2-6.2.3-4.6.8-9.3.6-13.9-.1-1.6-.1-3.1-.5-4.6-.2-.7-.3-1.3-.4-2-.2-2.4-.5-4.8-1.1-7.1-.1-.5-.1-1-.1-1.5.1-1.6.8-3 2.3-3.8.5-.2.9-.5 1.4-.6 4.3-.5 8.4-2.2 12.7-1.9 1 .1 2.1 0 3.1-.3 2.4-.7 4.8-.8 7.2-.9 2.8 0 5.5-.4 8-1.6 2.4-1.2 5.1-1.2 7.4-2.1zM31.6 70.2c.1-1.1-.3-1.8-1.2-2.1-1.7-.6-3.4-.5-5 .2-3.3 1.6-5.4 4.2-6.8 7.5-.5 1.1-.8 2.3-.9 3.5-.2 3.3-.3 6.5.2 9.8.6 3.7 2 6.9 5.4 9 .9.5 1.7 1.1 2.6 1.6.3.2.6.2 1.3.4 1.3-.2 2.8-.4 4-.5 1.8-1.1 3.2-2 4-3.3 1.6-3.6 1.6-7.2 1-10.8-.2-1.1-.7-1.9-2-2.2-1.5.6-3.1 1.2-4.6 1.7-1.6-.8-2.8-.5-3.5 1-.1.8.2 1.3.7 1.8.6.5 1.3.6 1.9.5.7-.1 1.3-.4 2-.6.7-.2 1.3-.3 1.9-.4l.8.8c.4 2 .5 4.1-.1 5.7-1.3 2.3-3 3.3-5.1 3.7-1.6-.3-2.8-1.3-4-2.2-1.2-.8-1.9-1.9-2.5-3.2-.5-1.1-.8-2.3-.9-3.5-.5-3.6-.2-7.2.1-10.7 1.1-2.7 2.8-4.9 5.1-6.5.3-.2.6-.3 1.2-.5 1.1 0 2.5.1 3.9.1.1-.4.3-.6.5-.8zm17.3 7.4c.8-1 1.6-1.9 2.2-2.9 1.1-1.6 1.5-3.4 1-5.4-.1-.6-.8-1.3-1.4-1.3-.7 0-1.4-.2-2 0-2.1.7-4.3 1.1-6.5 1.1-.6 0-.8.6-1 1.1.1 1.9.4 3.7.3 5.6-.2 3.1.2 6.2.2 9.3 0 2.6.1 5.2.2 7.7 0 .3.2.6.5 1.2 1.4-.1 1.7 1.8 3.3 1.8 3.2-1.1 3.7-1.4 4.7-2.8 2.4-3.4 3.3-7.1 2.7-11.2-.2-1.1-.7-2-1.5-2.6-.9-.5-1.8-1-2.7-1.6zm-19-16.7c-2-.8-3.9-.7-5.8-.2-.5.1-1.2 1-1.2 1.5 0 .6.4 1.4 1 1.7.2.1.3.2.5.2 1.5.5 3.1.6 4.6.1 1.8-.7 3.5-1.4 5.1-2.6.2-.2.6-.2 1.1-.3 1 .5 2 1.1 3 1.7 1.2-.4 2.4-.8 3.4-1.1.5.1.8.2 1.1.3.3.1.6.3.9.4 1.8.6 2.9.1 3.9-1.6.1-.2 0-.6 0-.9-.7-.7-1.7-.4-2.5-.6-1-.3-2-.6-2.8-.8-1.5.5-2.8 1-3.9 1.4-.6-.2-.9-.2-1.2-.4-1.7-.8-3.3-.8-4.9.2-.7.4-1.3.6-2.3 1zm26.2 5.3c1.9-.5 2.3-1 2.3-2.6 0-.7-.8-1.2-1.4-.9-.3.2-.6.3-.8.5-1 .9-1 1.7-.1 3zm2.8 11c-.3-.3-.5-.7-.9-.9-.7-.2-1.2.3-1.7.8-.3.4-.3.9-.1 1.4.3.8 1.3 1.1 2 .6.6-.5.7-1.1.7-1.9zm-1.1-19.8c-.5.5-.7 1.1-.7 1.7.1.5.4.8.8 1.1.3.2 1.1-.1 1.3-.4.4-.6.6-1.1.6-1.8-.4-1.1-1.2-.9-2-.6z"/>
    <path class="st2" d="M29.5 124.2c-2.4 1.6-4.6 1.9-6.9 1.7-2.1-.2-4.1-.5-6.3-.7-2.4-1-4.9-2.1-7-3.8-1.1-3.3-.3-6.6-.8-9.9-.2-1.6.3-3.1.7-4.6 0-.1.2-.2.4-.4 2.1-.3 3.6 2.1 5.7 1.3.7.7 1.3 1.4 1.9 2 1 1 2 1 3.3.2.6-.4 1.1-.8 1.6-1.2 1.3 0 2.3.9 3.8 1.3.5 0 1.4-.1 2.2-.1.9 0 1.7-.1 2.6-.1 2.6-.7 4.9-2.5 7.7-2.9.1.1.4.2.4.3-.2 1-.4 2-.7 2.9-.4 1.2-.1 2.4.4 3.5.1.3.5.4.7.6.8-.2 1.3-.7 1.3-1.4.1-1.2 0-2.4 0-3.6 0-.7 0-1.4.6-2.2 2.6-1.5 5.5-3 8.7-3.8 1.3-.3 2.7-.8 3.9-1.5 2.6-1.5 5.6-1.6 8.2-2.3 1 .4 1.3.9 1.5 1.6.5 1.3.6 2.7.3 4.1-.3 1.5-.4 3.1-.4 4.6 0 1.2-.3 2.4-.5 3.6-.1 1-.2 2-.4 3.1-.5.7-1.1 1.3-1.7 2.2-3.7 1.9-7.7 3.3-11.3 5-.9-.2-1.2-.6-1.3-1.1-.1-1.7-.1-3.4-.2-5-.4-.4-.6-.6-.8-.9-.9-.2-1.7 0-2.5.2-1.3.4-2.6.8-3.9 1.3-2.3.8-4.7 1-7.1.2-.3-.1-.7-.1-1-.1-.9-.1-1.7.4-2.1 1.1-.4.8-.7 1.6-.7 2.4-.1.9-.3 1.6-.3 2.4zm24.1-16.9c-.9 1-1.3 1.7-1.5 2.6-.2.8-.2 1.7-.2 2.6 0 1.3 1.3 2.7 2.6 2.9 1.2.2 2.4.2 3.6-.2.5-.1 1-.4 1.3-.8.5-.7.9-1.4 1.3-2.2.7-1.4.4-2.7-.6-3.8-.8-1-1.7-1.7-3.1-2-1 .1-2.2.5-3.4.9zm-36.7 11.6c1.1-.5 1.9-.8 2.6-1.2.4-.3.6-.8.5-1.3-.1-.7-.7-1.2-1.4-1.2h-1.4c-.9-.8 0-2.1-1-2.8-1.4 0-2.1.9-2.4 2.1-.3 1.3 0 2.4 1.1 3.1.6.5 1.2.8 2 1.3zm13.2-3c.1-1.5.1-2.7-.6-3.7-.2-.3-.5-.5-.8-.6-.3-.1-1.1.4-1.2.7-.1.2-.2.3-.2.5-.3 1.5-.5 3 0 4.5.1.3.4.6.6.7.3.1.7 0 .9-.3.6-.6 1-1.3 1.3-1.8zm-5.5 2.5c.5-.5.6-1.1.6-1.8-.1-1.4-.7-2.6-1.5-3.6-.2-.2-.6-.3-.9-.3-.3 0-.5.3-.8.5-.1.1-.2.3-.2.4-.1 1.4 0 2.7.7 3.9.4.8 1.1 1.2 2.1.9z"/>
    <path class="st1" d="M62.3 121.9c1.3.7 1.6 1.9 2.2 3-.2.7-.4 1.3-.5 1.9-1.9 2.3-4.3 3.6-6.6 5.2a39.6 39.6 0 0 1-10.2 4.8c-1.1.4-2.3.7-3.5.9-1.4.3-2.7.2-4.1-.3-.8-.3-1.6-.5-2.5-.8-2.2-.8-4.4-.7-6.6-.1-.7.2-1.3.5-2 .6-1.7.4-3.4.6-5.1.2-2.7-.6-5.4-.9-8-2-.5-.2-1-.4-1.2-.5-2.4-1.7-4.6-3.4-6.8-5-.9-1.8-.7-3.3.8-4.8.5.1 1 .1 1.4.3 1.4.6 2.8 1.3 4.2 2 1.1.5 2.2.9 3.5 1 1.4.1 2.7.4 4.1.6 2.1.2 4.1.3 6.1-.5 2.2-.8 4.4-.9 6.6-.5 4 .7 7.9.2 11.8-.4 2-.3 4-.9 6-1.6 3.1-1.1 6.2-2.1 9.1-3.6.4-.2.9-.3 1.3-.4z"/>
    <path class="st2" d="M31.8 41.5c1.8.5 3.7.3 5.5-.5 1-.4 1.9-.8 3.2-.7.8.3 1.8.5 2.7 1 1.9 1.2 4.1 1.8 6.2 2.5 2.8.8 5.5 2 7.7 3.2 1.7.8 3.2 0 4.3 1.2-1.1 1-2.7.5-3.9 1-2.1 1-4.3.9-6.6.3-1 .2-2 .6-3 .7-2.3.2-4.4.8-6.5 1.6-2 .7-4 1.1-6 1.2-1.9.1-3.7.3-5.6.8-1.7.4-3.4.5-5.1.5-2.4 0-4.8.1-7.1 1-.5.2-1 .3-1.5.4-2.1.1-4.1.5-6 1.2-.5.2-1.1 0-1.4-.4-.2-.2-.1-.6 0-.9 0-.1.2-.3.3-.4 2-.5 3.8-1.6 5.4-2.8 1.2-1 2.6-1.7 4-2.4 1.1-.5 2.1-1.2 3.2-1.8.9-.5 1.6-1.2 2.2-2.2.9-1.5 1.7-3 2.6-4.4.4-.6.8-1.1 1.2-1.6.5-.6 1.8-.6 2.4-.1.4.3.7.8 1.1 1.1 0 .1.3.3.7.5zm12.8 3.8c-.3 0-.7-.1-1 0-1 .2-1.3 1.2-.8 1.9.2.3.5.5.7.7.6.4 1.3.1 1.5-.7.4-.8.1-1.4-.4-1.9zM25.7 26.6c-1.1-.1-2-.1-2.8-.8.2-.7.5-1.5.6-2.3.1-1.4 0-2.8-.1-4.1-.3-3.4-.2-6.9-1-10 .4-.5.6-.7.8-1 .3-.1.7-.3 1-.3 2.9.5 5.8.2 8.8.2 1 0 2-.2 3-.6 1-.4 2-.6 2.9-.9.1-.1.3 0 .3.2.6 2.2 1.1 9.8.9 13.9 0 .7-.3 1.3-.5 2-1.6.8-3.1 1.5-4.5 2.2-5.3-.2-5.3-.2-9.4 1.5z"/>
    <path class="st3" d="M43.1 24.4c1.2.5 2 .9 2.8 1.2 4.7-2.5 9.4-5 14.1-7.4 1.6 0 2.6 1 3.7 2.1.4 1.1.9 2.4 1.5 3.7-.3 1.5-.7 3-1 4.5-.5.2-.9.5-1.4.6-3.6.3-7.1.7-10.7 1.3-1.7.3-3.4.2-5.1.3-.5 0-1-.1-1.6-.2.3-.3.4-.5.6-.5 3.1-.1 6.1-1.1 9-2 2.2-.7 4.3-1.2 6.6-1.2 1.3 0 2.1-1 1.3-2.5-.1-.2-.5-.4-.8-.5-.3-.1-.7 0-1 .1-2.7.7-5.3 1.6-7.9 2.1-3.9.7-7.7 2-11.7 1.9-.2 0-.5-.4-.6-.6-.1-.1 0-.4 0-.5.6-.9 1.3-1.6 2.2-2.4z"/>
    <path class="st4" d="M30.2 28.9c.2-.3.4-.6.8-1 .9.1 1.9.1 2.9.2h2.9c.6.5.5 1 .3 1.4-.1.3-.2.6-.3 1 .4.9.8 1.8 1.3 2.8-.4 1.4.3 3.1-.7 4.3-1 .9-2.2 1-3.4 1.3-1.9-.3-2.9-1.7-3.3-3.4-.6-2.2-.7-4.4-.5-6.6zM64.1 32.3c.1.7.3 1.2.3 1.7s-.2 1-.4 1.5c-.1.3-.2.7-.3 1-.2.5-.4.9-.6 1.3-.4.1-.8.3-1 .2-1.5-1.2-3.3-1.8-5.2-2.1-2.5-.4-5-1.2-7.6-1.2-2.6 0-5.1.2-7.7.8-.2 0-.6-.3-.7-.5-.2-.3 0-.7.3-.9.1-.1.3-.2.4-.3.5-.1 1-.2 1.5-.2h2.1c2.2.1 4.5-.2 6.7-.6 4.3-.8 7.4-1 12.2-.7zM27.2 33.3c-2.6.6-5.2 1.5-8 1.6-1.7.1-3.4.7-5.1.9-1.5.2-3.1.3-4.6.5-1 .2-1.9.7-2.9.9-.7.1-1.4.1-2 0-.6 0-1.2-.8-1.4-1.4-.1-.8.5-1.8 1.2-2.1.8-.3 1.7-.4 2.5-.2 1.9.5 3.8.5 5.6.3 1-.1 2-.3 3-.5.8-.2 1.7-.4 2.5-.5 2.1-.2 4.1-.5 6-1.3.8-.3 1.7-.2 2.5-.3.4 0 .9.4.9 1 .2.4-.1.7-.2 1.1z"/>
    <path class="st3" d="M7.6 46.9c-1-.4-1.5-1.1-2-1.9-.7-1.2-1.6-2.3-1.7-3.7.3-.2.5-.6.8-.7 1.7-.5 3.3-1 5-1.3 1.7-.3 3.4-.6 5.1-1 1.1-.3 2.4-.5 3.7 0-2 1.4-4 2.8-5.8 4.3-1.8 1.4-3.2 3.3-5.1 4.3z"/>
    <path class="st4" d="m23.3 38.8.9.6c-.6 2.2-1.7 4.1-3.4 5.6-.9.8-1.9 1.6-3 1.9-2.2.6-4 1.9-5.8 3.2-.4.3-.9.5-1.4.6-.3.1-.7-.1-.9-.3-.1-.2 0-.6 0-.9 0-.2.1-.3.3-.4 2.6-3 5.8-5.4 8.9-7.9 1.3-1 3-1.6 4.4-2.4z"/>
    <path class="st2" d="M44.1 38.5c.4-.2.7-.5 1-.5 2.6-.3 5.1-.4 7.7.3 2 .6 4 .9 6 1.4.5.1.9.5 1.3.8.5.4.6 1.4.3 1.9-.8 1.1-2 1.7-3.1 1.3-1.3-.4-2.6-.8-3.9-1.3-2.8-1-5.5-2.1-8.3-2.9-.4 0-.6-.6-1-1z"/>
    <path class="st3" d="M16.5 30.5c-1.3.3-2 .5-2.7.6-2.6.3-5.2 0-7.7-.1-.6 0-1.2-.5-1.9-1.5-.2-1.8.4-3.4 1.1-5 .2-.4.6-.8.9-1.2 1 0 1.6.7 2.2 1.3 1.2 1 2.2 2.2 3.4 3.2 1.2.8 2.6 1.5 4.7 2.7z"/>
    <path class="st1" d="M44.2 120c.3.4.5.6.7.9.5 3.4-.8 4.1-3.5 4.2-1.7.1-3.4.1-5.1.1-1 0-2-.3-2.9-.9-.2-.2-.4-.6-.4-.9 0-.3.2-.7.4-.8 1.4-.7 2.9-1 4.4-1.2 1.2-.1 2.4-.2 3.6-.5 1-.2 1.9-.6 2.8-.9z"/>
    <path class="st4" d="M58.7 14.9c-.3 1.1-1.3 1.6-2.1 2.1-3.1 2.1-6.4 4-10.1 4.9-.1 0-.3-.2-.4-.2 2.3-2.3 4.6-4.6 6.9-6.8 1.1-1.1 2.5-1.8 4-2.2 1.2.2 1.5 1.1 1.7 2.2z"/>
    <path class="st2" d="M27.6 3.8c3.4-.7 6.6-1 9.7-.9.5 0 .9.3 1.4.4-.4.7-1.2.8-1.8 1-2.8.9-5.7 1.1-8.7.6-.4 0-.7-.5-.6-1.1z"/>
    <path class="st0" d="m31.6 70.2-.7.7c-1.4 0-2.7-.1-3.9-.1-.6.2-.9.3-1.2.5-2.3 1.7-3.9 3.8-5.1 6.5-.3 3.5-.5 7.1-.1 10.7.2 1.2.4 2.4.9 3.5.6 1.3 1.4 2.4 2.5 3.2 1.3.9 2.4 1.9 4 2.2 2.1-.4 3.8-1.4 5.1-3.7.5-1.7.4-3.7.1-5.7l-.8-.8c-.6.1-1.3.3-1.9.4-.7.2-1.3.5-2 .6-.7.1-1.4 0-1.9-.5-.6-.5-.9-1-.7-1.8.8-1.5 2-1.8 3.5-1 1.6-.6 3.1-1.2 4.6-1.7 1.3.3 1.9 1 2 2.2.5 3.6.6 7.2-1 10.8-.8 1.4-2.3 2.3-4 3.3-1.2.2-2.7.4-4 .5-.6-.2-1-.2-1.3-.4-.9-.5-1.7-1.1-2.6-1.6-3.4-2-4.8-5.2-5.4-9-.5-3.3-.4-6.5-.2-9.8.1-1.2.4-2.4.9-3.5 1.4-3.2 3.5-5.9 6.8-7.5 1.6-.8 3.3-.9 5-.2 1 .4 1.5 1.1 1.4 2.2zM48.9 77.6c.9.6 1.7 1.1 2.5 1.6.9.6 1.3 1.5 1.5 2.6.7 4.1-.3 7.8-2.7 11.2-1 1.4-1.6 1.7-4.7 2.8-1.6 0-1.9-2-3.3-1.8-.3-.6-.5-.9-.5-1.2-.1-2.6-.2-5.2-.2-7.7 0-3.1-.3-6.2-.2-9.3.1-1.9-.2-3.8-.3-5.6.2-.5.5-1 1-1.1 2.2-.1 4.4-.4 6.5-1.1.6-.2 1.4-.1 2 0 .6 0 1.3.7 1.4 1.3.5 2 .1 3.8-1 5.4-.4 1-1.2 1.9-2 2.9zM44 82.3c-.3 2.8-.1 5.4 0 7.9.1 1.7 1.2 2.2 3 1.7.7-.2 1.2-.7 1.6-1.2 1.6-2 1.9-4.3 2.1-6.8.1-1.1-1.1-2.5-2.1-2.6-1.2-.2-2.4-.3-3.6.1-.3.2-.5.5-1 .9zm1-6c3-.7 3.9-1.6 4.3-4.7-.3-.2-.6-.5-.8-.4-1 .2-2 .5-2.9.9-.4.2-.8.6-1.2.9 0 .9 0 1.7-.1 2.5.3.3.5.6.7.8zM29.9 60.9c1-.4 1.6-.6 2.2-1 1.6-1 3.3-.9 4.9-.2.3.1.7.2 1.2.4 1.1-.4 2.4-.8 3.9-1.4.8.2 1.8.5 2.8.8.8.2 1.7-.1 2.5.6 0 .3.1.7 0 .9-1 1.7-2.1 2.1-3.9 1.6-.3-.1-.6-.3-.9-.4-.3-.1-.7-.2-1.1-.3-1 .3-2.2.7-3.4 1.1-1-.6-2.1-1.1-3-1.7-.4.1-.8.1-1.1.3-1.5 1.1-3.3 1.9-5.1 2.6-1.5.6-3 .5-4.6-.1-.2-.1-.3-.2-.5-.2-.6-.2-1-1-1-1.7 0-.6.7-1.4 1.2-1.5 2-.5 3.9-.5 5.9.2zM56.1 66.2c-1-1.3-.9-2.1.1-2.9.3-.2.5-.4.8-.5.6-.3 1.4.2 1.4.9.1 1.5-.4 2-2.3 2.5zM58.9 77.2c-.1.8-.2 1.4-.8 1.9-.7.5-1.7.3-2-.6-.2-.5-.2-1 .2-1.4.4-.5 1-1 1.7-.8.4.2.7.7.9.9zM57.8 57.4c.8-.3 1.6-.5 2.1.6.1.7-.2 1.3-.6 1.8-.2.3-1 .6-1.3.4-.4-.2-.8-.5-.8-1.1-.1-.7.1-1.2.6-1.7zM53.6 107.3c1.2-.4 2.4-.7 3.4-1 1.4.3 2.4 1 3.1 2 .9 1.2 1.3 2.4.6 3.8-.4.8-.8 1.5-1.3 2.2-.3.4-.8.7-1.3.8-1.2.4-2.4.4-3.6.2-1.3-.2-2.5-1.5-2.6-2.9 0-.9.1-1.7.2-2.6.2-.8.6-1.6 1.5-2.5zm2.1 4.9c.7 0 1.3-.2 1.8-.8.5-.6.6-1.2.2-1.8-.3-.6-1.1-.5-1.8.1-.4.3-.7.8-.8 1.3-.1.5.2.9.6 1.2zM16.9 118.9c-.9-.5-1.5-.8-2-1.2-1.1-.8-1.4-1.9-1.1-3.1.3-1.2 1-2.1 2.4-2.1 1 .7.1 2 1 2.8.4 0 .9-.1 1.4 0 .7 0 1.3.5 1.4 1.2.1.5 0 1.1-.5 1.3-.7.3-1.5.6-2.6 1.1zM30.1 115.9c-.3.5-.7 1.2-1.2 1.9-.2.2-.6.3-.9.3-.3-.1-.5-.4-.6-.7-.5-1.5-.3-3 0-4.5 0-.2.1-.3.2-.5.1-.3.9-.8 1.2-.7.3.1.6.3.8.6.6 1 .6 2.2.5 3.6zM24.6 118.4c-1 .4-1.6-.1-2.1-.9-.7-1.2-.8-2.5-.7-3.9 0-.2.1-.3.2-.4.2-.2.5-.5.8-.5.3 0 .7.1.9.3.9 1 1.4 2.3 1.5 3.6 0 .6-.2 1.3-.6 1.8zM44.6 45.3c.5.5.7 1.1.5 1.8-.2.8-.9 1.1-1.5.7-.3-.2-.5-.4-.7-.7-.6-.8-.2-1.7.8-1.9.2 0 .6.1.9.1z"/>
    <path class="st1" d="M44 82.3c.5-.4.7-.7 1-.8 1.2-.4 2.4-.3 3.6-.1 1 .1 2.2 1.5 2.1 2.6-.1 2.4-.5 4.8-2.1 6.8-.4.5-.9 1-1.6 1.2-1.8.5-2.9 0-3-1.7-.1-2.7-.3-5.2 0-8zM45 76.3c-.2-.2-.4-.5-.7-.8 0-.8 0-1.6.1-2.5.4-.3.8-.8 1.2-.9.9-.4 1.9-.7 2.9-.9.2-.1.5.3.8.4-.4 3.1-1.3 4.1-4.3 4.7z"/>
    <path class="st2" d="M55.7 112.2c-.4-.3-.8-.7-.6-1.3.2-.5.5-.9.8-1.3.6-.6 1.4-.7 1.8-.1.4.6.3 1.2-.2 1.8-.5.7-1.1.9-1.8.9z"/>
</svg>
