<svg xmlns="http://www.w3.org/2000/svg" width="105.9" height="137.9" style="overflow:visible;enable-background:new 0 0 105.9 137.9" xml:space="preserve">
    <style>
        .st0{fill:#7a6a56}.st1{fill:#ece1de}.st2{fill:#f2edda}.st3{fill:#fff}.st4{fill:#eacac6}
    </style>
    <path class="st0" d="M102.4 118.8c0 .7.2 1.3.6 1.8.4.6.8 1.2 1.3 1.8.4.5.7 1.1 1.1 1.6.8 1.2.8 2.5.3 3.7-.2.6-.8 1.1-1.4 1.2-.9.2-1.8.2-3 .3-.2.1-.6.4-1.1.5-.4.2-.9.4-1.3.4-1 .2-2 .3-2.7.4-.7.3-.8.8-1.1 1.2-.1.2-.2.3-.4.4-1.9 1.6-4 2.3-6.5 1.8-.8-.2-1.6-.5-2.2-1.1-.5-.5-1.1-.9-2-1.2-.2 0-.6.1-1 .2-.7.2-1.4.5-2.1.7-1.4.5-2.8.9-4.3.9-.7 0-1.5.1-2.2.3-.6.1-1.3.2-1.9.2-1 .1-2 0-3 .3-.3.1-.7.1-1.1 0-1.3-.3-2.6-.2-3.9-.1-2.5.3-5 .3-7.5.3-.4 0-.7 0-1.1-.1-1 0-2-.6-3-.3-.9.3-1.9-.2-2.8.2-3.9.1-7.8.3-11.7.1-.5 0-.9 0-1.4-.1-1.1-.3-2.2-.3-3.3-.3-1 0-2-.1-3-.4-.2-.1-.4-.1-.5-.2-1.5-.1-2.9-.5-4.3-1.1-.2-.1-.5-.1-.9-.1-.2.2-.5.4-.8.7-1.5 1.8-3.3 3.3-5.3 4.4-.2.1-.3.1-.5.2h-.5c-1.1-.3-1.9-.8-1.7-2.1 0-.1-.1-.2-.1-.2-.1-.2-.2-.3-.4-.2-.7.3-1.3.7-2 1h-1.4c-.4-.2-.8-.5-1.1-.7-.6-.6-.5-1.3-.8-1.8 0-.4 0-.6.1-.9.3-1 .4-2 .7-2.8-.4-.5-.8-.4-1.2-.3-1 .3-1.9.7-3.1.8-.6-.2-1.3-.4-1.8-.5-.8-.5-1.2-1.1-1.4-1.9v-.6c.4-1.2 1-2.2 1.7-3.2 1.5-2.2 3.4-3.9 5.5-5.5.3-.2.5-.5.8-.8l.9-3c1.3-1.4 2.1-3.4 3.6-4.7.2-.5.3-.8.4-1.2-.1-.3-.2-.7-.3-1.1-.6-1.8-.6-3.6-.2-5.5 0-.2.1-.4.1-.5.1-2.4 1.4-4.2 2.9-5.9.2-.3.6-.5.9-.7.5-.3 1.1-.2 1.5.3.1.2.2.3.3.5.1.2.2.3.3.4.9-.1.9-.1 1.9-.8.4-.6.6-1.1.3-1.8-.2-.5-.1-.9.2-1.3.4-.5.7-1.1.7-1.8.1-2.2.7-4.4.9-6.6-.3-.7-.8-1.2-1.5-1.6-1.4-.8-2.5-1.9-3.8-2.8-.4-.3-.9-.7-1.2-1.2-.7-.9-1.5-1.7-2.3-2.4-1.3-1.1-2.4-2.3-3.3-3.8-.3-.5-.6-.9-.9-1.4-1.1-1.4-1.9-3-2.5-4.6-.3-1-.6-1.9-1-2.9-.1-.3-.2-.7-.4-1-.1-.2-.3-.5-.4-.8-.8-.4-1.7-.8-2.5-1.1-1.4-.6-2.6-1.5-3.5-2.7-.6-.8-1.2-1.6-1.8-2.5-.8-1.1-1-2.4-.5-3.7.1-.4.3-.7.4-1 .6-.7 1.1-1.4 1.6-2.1.2.1.8-.4 1.5-.9 1.6-1 3.2-1.8 5.1-2.1.4-.1.7-.2 1.1-.3 1.6.7 3.2 1.3 4.9 1.5.3-.3.5-.5.6-.7.6-1.4 1.1-2.8 1.6-4.1.7-1.8 1.6-3.6 2.6-5.2.6-1 1.3-2 2.1-2.9 1.5-1.7 2.9-3.4 4.7-4.7 1.4-1.1 2.8-2.1 4.2-3.2.8-.6 1.7-1.1 2.5-1.7.9-.7 1.9-1.2 2.9-1.7 2-.9 4-1.8 6.2-2.3.5-.1 1.1-.2 1.6-.3.5-.1 1.1-.2 1.6-.4.4-.1.9-.1 1.2-.5.2-.4.2-.8.1-1.1-.1-2.3-.2-4.6-.1-7 0-1.5.4-2.9 1.4-4.1.2-.3.3-.7.4-1 .4-1.1 1.1-1.9 2.2-2.4.8-.4 1.7-.8 2.4-1.2 2.3-.1 3.8 1 4.9 2.7.7 1.1 1.3 2.3 1.5 3.6.1.9.3 1.8.5 2.7v.3c0 .7-.3 1.4 0 2.2.2.6.2 1.3.1 1.9 0 1.1.2 2.2.3 3.3.3.1.6.3.8.3.9 0 1.8-.2 2.8-.2.8 0 1.7.1 2.5.2.1 0 .2 0 .3-.1l.4-.4c.1-.4.1-.7.1-1.1 0-2.6.4-5.2 1-7.7.5-.6.5-1.3.7-1.9.3-1 .6-2 1-2.9.5-1 1.1-1.9 1.8-2.8.2-.3.5-.5.8-.8C73.4.7 74.1.3 75 .3c.3 0 .5-.1.9-.2.2 0 .4.1.7.1 1.4.1 2.7.6 3.7 1.6L81.8 3c.6.5 1 1.1 1.1 1.9.3 2.1.9 4.2.8 6.3 0 .4 0 .7.1 1.1.3 1.5.2 3 .1 4.4 0 .3-.1.6-.1.8 0 .7.1 1.5.1 2.2 0 .7-.4 1.4-.2 2.3.6.6 1.3 1.2 2.1 1.6 1.8.9 3.2 2.3 4.5 3.6.8.9 1.7 1.7 2.5 2.6 1.1 1.1 2.1 2.3 3.1 3.6.9 1.3 1.7 2.7 2.5 4 .7 1.3 1.3 2.7 1.7 4.1.3 1 .6 2 .9 2.9.3 1 .5 2 .5 3 0 .9.2 1.8.3 2.9-.1 1-.3 2.1-.4 3.4-.3.7-.7 1.5-1 2.4-.9 2.5-2.2 4.7-3.7 6.8-.5.8-1 1.6-1.6 2.3-.5.7-1 1.4-1.6 1.9-.6.6-1.3 1.1-1.9 1.6-.4.4-1 .6-1.1 1.2.6.3 1.1.5 1.7.8l1.5.6c1.1-.4 1.5-1.5 2.4-2 .5-.2 1.1-.2 1.6-.1 1.8.9 1.8.9 3 3.1.1.7.2 1.5.3 2.2v.8c-.1 1.5-.1 3-.2 4.4 0 .4 0 .8-.1 1.1-.4 1.3-.4 2.6-.5 3.8.1.7.5 1.3.9 1.7.5.6.8 1.2 1.1 1.9.9 2.5 1.6 4.9 2.2 7.5.3 1.2.3 2.4.6 3.6.3 1.5.4 3.1.6 4.7.1 1.2.1 2.4-.2 3.6-.3 1.2-.4 2.4-.6 3.6-.1 1.2-.5 2.4-.9 3.5-.5 1.5-1 2.8-1.5 4.1zM80.5 72.5c.5-.5.4-1.2.6-1.8.3-.7.8-1 1.4-1.2.2-.1.4-.1.5-.1 1.7.1 3.3-.5 4.7-1.4 1.1-.7 2.1-1.5 3-2.4 1.2-1.3 2.3-2.7 3.5-4 .9-1 1.6-2.1 2.2-3.2.8-1.4 1.2-2.9 1.8-4.4.1-.3.2-.5.2-.8.1-1.9.2-3.9-.1-5.8-.3-1.7-.5-3.5-1.3-5.1-.2-.4-.3-.9-.5-1.3-.3-1-.8-1.9-1.4-2.7-.5-.8-1-1.6-1.5-2.3-.5-.7-.9-1.4-1.5-2-2-2-3.7-4.4-6.2-5.9-.1 0-.1-.1-.2-.2-1.8-1.7-3.8-3-6.1-3.8-1.6-.6-3.3-1.2-5.1-1.4-.6-.1-1.3-.2-1.9-.2-1.8 0-3.5 0-5.3-.4-.5-.1-1.1-.1-1.7-.1-1.9 0-3.7.1-5.6 0-3.2-.1-6.3-.1-9.5 0-1 0-2 .2-3 .4-1.1.3-2.2.4-3.3.6-1.6.3-3.2.7-4.9 1.1-.3.1-.5.2-.8.3-2.5 1.5-5.2 2.8-7.5 4.8l-.9.6c-1.8 1.2-3.2 2.8-4.8 4.2-.6.5-1 1.3-1.5 2-1.8 2.3-3.1 4.8-4.2 7.5-.8 1.8-1.1 3.7-1.5 5.6 0 2.3-.3 4.6.4 6.9.1.4.1.9.2 1.3.6 1.2 1.3 2.3 1.8 3.5.6 1.3 1.4 2.4 2.4 3.4 2.7 2.7 5.9 4.5 9.7 5.3.5.4 1.1.9 1.6 1.4.3.7 0 1.3-.1 2 0 .2.2.5.3.7.1.1.2.1.3.1 2.6.1 5.2.1 7.8.2 1.5 0 3-.1 4.4-.6.3-.1.5-.1.9-.1 1 .4 1.9 1.1 2.7 1.9.3.3.7.6 1.1.9.4.3 1.1.3 1.5-.1 1-.8 1.8-1.9 2.8-2.4 1.3-.5 2.5-1 3.7-.8.1.1.3.2.4.3 0 .2.1.4.1.5.2.8.5 1 1.2.9.9-.1 1.8-.1 2.8 0 1.1.1 2.2.1 3.3 0 .9-.1 1.8.1 2.7.4.7-.2 1.5-.4 2.2-.6.3-.5.5-1 .8-1.4.7-1.1 1.6-1.8 2.8-2.1.4-.1.9-.1 1.4-.2.5.2 1 .5 1.6.7.7.4.9 1.1 1.6 1.3zm-34 11.8c-.3-.6-.4-1-.6-1.5 0-.5-.1-1-.1-1.6 0-.3-.1-.5-.2-.8 0-.2-.4-.4-.7-.4-.8.1-1.5.7-2.4.4l-1.8.6c-1.4.1-2.6.1-3.9-.2-.7-.2-1.5-.1-2.2.1-.4.1-.7.1-1.1.2-.4-.1-.7-.3-1.1-.4-.6-.1-1-.8-1.7-.9-.2.5-.7.9-.7 1.5l.3 1.2c-.2.8-.4 1.5-.5 2.1-.4.5-.8.8-1 1.1-.2.3-.3.7-.4 1-.2 2.1-.6 4.2-1.1 6.3-.1.4-.1.9-.1 1.4 0 .5.5 1.1 1 1.2.3.1.6 0 .8.1.3.1.7.2 1 .4 1.6 1.4 2.9 2.9 3.7 4.8.3.8.6 1.6.6 2.4v2.2c0 .7-.2 1.4-.2 2.1.4.7 1 1 1.6 1.3 1.5.6 2.9 1.1 4.2 1.6.8.1 1.5.2 2.1.3.5.1 1.1.3 1.6.3 1.5.1 3 .1 4.4.5 1.9 0 3.9.2 5.8-.2 1.3-.2 2.6-.3 3.9-.3 1.6 0 3.1-.2 4.7-.5 2.4-.5 4.9-.9 7.3-1.5.2 0 .5.2.7.3.3.8.3 1.5.1 2.2-.1.1-.2.3-.4.4-.3.2-.7.3-.9.4-.6 0-1.2-.2-1.7-.1-.6.1-1.3.3-1.9.3-.7.1-1.4.4-2.2.5-1.2.2-2.3.7-3.6.5-.3 0-.5.1-.8.2-.8.1-1.6.2-2.5.4-.6.1-1.1.1-1.7.2-1.2.3-2.4.3-3.6.3-.9 0-1.9-.1-2.8 0-2.1.1-4-.5-6.1-.5-.2 0-.4-.1-.5-.1-1.6-.6-3.2-.7-4.9-1-.8-.4-1.5-.8-2.3-1.2-.7-.3-1.3-1.1-2.2-1.1-.8.4-1.2 1.1-1.8 1.6-1.4 1.1-2.7 2.2-4.6 2.4-.4.1-.9.3-1.2.4-2.4-.2-2.4-.2-5.3-1.3-.3-.8-1-1.4-1.7-2-.2.1-.4.1-.5.3-1.1 1.2-2 2.7-2.8 4.1-.5.9-.7 1.9-1.1 2.9-.4.5-.8 1-1 1.3-.7.4-1.2.6-1.7.9-1.9 1.5-3.5 3.3-4.7 5.4 0 .1 0 .2-.1.3 0 .2 0 .4.2.4.3.1.5.2.8.1 1.4-.1 2.7-.6 4-1.1 1.1-.4 2.1-.8 2.9-1.6.1-.1.3-.2.5-.3.4-.1.8-.1 1 .2.2.2.3.5.3.7 0 .3 0 .6-.2.8l-.6.9c-1.1 1.3-1.7 2.9-2.3 4.4-.2.5-.3 1.1.2 1.6.2-.1.5-.1.8-.2.5-.2 1-.5 1.4-.7 1.1-1.3 2.2-2.5 3-3.8.3-.4.6-.7 1.1-.8.4.1.7.3.9.6.3.5.4 1.1.2 1.6-.2.7-.4 1.4-.8 2.1-.2.4-.4.8-.6 1.3-.1.2 0 .5.4.6.9-.5 1.5-1.2 2.2-2 .7-.8 1.3-1.6 1.9-2.4.3-.4.7-.6 1.3-.7 1.8.5 3.6 1.2 5.5 1.7 1.3.3 2.5.5 3.8.5 1.4-.1 2.8 0 4.2.3.6.1 1.3.1 1.9.2H43c1.8 0 3.5 0 5.3-.2.9-.1 1.8-.2 2.8-.2.6 0 1.1 0 1.7-.1 1-.1 2-.1 3.1 0 .7.1 1.5.1 2.2.2.8.1 1.5-.2 2.2-.2h5.8c.8 0 1.7-.2 2.5-.3.8-.1 1.6.1 2.5.2.4 0 .8 0 1.1-.1 1.1-.3 2.2-.2 3.3-.3 1.6-.1 3.1-.4 4.6-.9 1-.3 1.9-.7 2.8-1.1.7-.3 1.4-.5 2.1-.3.7.6 1.5 1.1 2.1 1.8.3.5.8.8 1.4.9 1.1.2 2.2.2 3.3 0 .5-.1 1-.6 1.1-1.2 0-.3 0-.6.1-.8.1-.4.2-.7.4-1 .3-.7.9-.9 1.6-.6.6.3 1.2.4 1.9.4.5 0 .9-.2 1-.7.1-.3.1-.5.3-.8.3-.6 1-.9 1.6-.7l2.1.9c.4.1.7.1 1.1-.1.1-.1.3-.3.3-.4-.2-1.4-1-2.6-2-3.6-.4-.4-.9-.6-1.6-.5-.3.2-.7.4-1.1.7-1.1.9-2.4 1.3-3.8 1.7-1.1.3-2.2.5-3.3.8-.8 0-1.6-.1-2.4-.1-1.5-.1-3-.1-4.5-.1-1.1 0-2.2-.3-3.2-.7-1.3-.5-2.5-1.2-3.7-1.8-.5-.3-.9-.6-1.4-.9-1.5-1.3-2.8-2.7-3.6-4.5-.3-.7-.7-1.3-1-1.9-.1-.5 0-1-.2-1.5-.4-1.5-.4-2.9-.4-4.4 0-1.4 0-2.8-.2-4.2-.2-1.7-.3-3.3-.5-5-.2-1.7 0-3.3.3-5 .3-1.8.8-3.6 1.8-5.2.5-.8.8-1.7 1.2-2.5-.3-.6-.6-1.2-.8-1.7.3-1 .4-2 .2-3.1-.1-1-.3-2-.4-3 0-.3-.2-.5-.4-.7-.7 0-1.3-.1-1.9 0-1.6.3-3.1.4-4.7.5-1.9.1-1.9.1-1.3 1.9.7 2 1.5 4 2 6.1.7 1.3 1 2.8 1.3 4.2-.1 1.9-.7 3.7-1.2 5.5-.5.6-.9 1.3-1.5 1.9-.8.8-1.7 1.4-2.6 2.1-.6.5-1.2.9-1.9 1.1-2.3.7-4.6.7-6.9.3-1.3-.2-2.5-.8-3.7-1.2-1.9-.7-3.4-1.8-5-3-2.1-1.6-2.7-3.7-1.8-6.2.7-2 1.4-4 2.4-5.9.3-.3.6-.9 1-1.7zm45.9 38c.4-.1.8-.4 1.3-.4 1.4-.3 2.6-1 3.8-1.7.6-.3 1-.8 1.4-1.3 1.4-2.2 2.7-4.4 3.1-7.1.4-1 .4-2 .6-3 .5-2.1.5-4.2.3-6.4-.2-1.6-.5-3.1-.8-4.7-.1-.7-.2-1.5-.5-2.2-.3-.7-.3-1.5-.5-2.4-.7-1.4-1.4-3.1-2.3-4.8-.8-1.4-1.9-2.5-3.3-3.3-1-.5-2-1-3.1-1-1-.4-2-.3-3 0-1.3.3-2.5.6-3.6.9-1.2-.2-2.1-.7-3.2-.4-.3.4-.6.8-1 1.2-.2.1-.4.2-.5.2-1.2 0-2.1.7-3 1.4-1.2 1.5-2.6 2.9-3.3 4.8-.9 2.5-1.5 5-1.4 7.6.1 1 .1 2 .5 3 .1 1.6.2 3.2.2 4.7 0 2.2 0 4.5.6 6.8l1.3 2.6c.6.6.9 1 1.3 1.4.9 1.1 2.1 1.9 3.4 2.3.8.3 1.6.6 2.3.9.8.4 1.7.6 2.7.4.5-.1 1.1-.1 1.7.1 1.7.6 3.3.5 5 .4zM60.3 80.1c-.2.2-.5.3-.6.5-.4.8-.7 1.7-1.1 2.6-.3.7-.8.9-1.6.7-.6-.1-1.2-.4-1.8-.8-.8-.6-1.6-1.3-2.4-1.9-.3-.2-.6-.4-1-.4-.6.3-1 .8-1.3 1.4-.8 1.5-1.5 3.2-2.6 4.6-.1.1-.2.3-.2.5-.4 1-.8 2.1-1.4 3-.3.6-.5 1.2-.7 1.8-.4 1.5-.4 2.9.6 4.2.6.3 1.2.6 1.7 1 .7.6 1.5 1 2.4 1.4.9.3 1.7.7 2.6 1 1.3.4 2.7.4 4 .7.5-.1.8-.2 1.2-.2 1.7-.3 3.1-1.1 4.4-2.3.5-.4.9-.9 1.4-1.4.2-.5.4-1 .7-1.5.6-1.1.6-2.3.5-3.5 0-.5-.1-.9-.3-1.4-.7-2.1-1.5-4.2-2.3-6.3-.2-.5-.6-.9-.9-1.3-.5-.2-.9-.4-1.3-.6 0-.5.7-1.2 0-1.8zM12.8 62.2c-.1.3-.4.6-.3.8.1 1.1.4 2.2.9 3.2.5.9 1.1 1.7 1.5 2.7.5 1.1 1.2 2.1 2 3 .7.7 1.3 1.5 2.1 2.2.7.5 1.1 1.2 1.7 1.8.4.5.8 1 1.4 1.3.5.3.8.7 1.2 1.2l1.2 1.2c.6.5 1.2.9 1.7 1.3.5.1.8-.1 1-.5 1.2-2.4 2.4-4.8 3.7-7.1.1-.2.1-.4.1-.5-.3-.6-.4-.8-.6-.8-.5-.1-1.1-.3-1.7-.4-.7-.4-1.5-.9-2.3-1.3-1.6-.7-3.1-1.7-4.4-2.9l-2.3-2.3c-.6-1.3-1.3-2.5-2.2-3.6-1.6.4-3.1.7-4.7.7zM75.1 3.1c-.2.1-.3.2-.5.3-1.8 2-3.3 5.6-3.5 9.2 0 .4 0 .7-.1 1.1-.5 1.6-.4 3.3-.2 5 0 .2.2.3.4.5 2 .2 3.9.7 6 .7.8 0 1.7.1 2.4.5.1.1.4.1.5 0 .1-.1.3-.2.3-.4 0-.3-.1-.5-.2-.7.9-1.9.9-1.9 1-3.5.2-3.3 0-6.5-.7-9.7-1.1-1.6-1.4-1.9-2.7-2.7-.9-.4-1.8-.6-2.7-.3zm-52.8 109c.9.3 1.7.4 2.5.4.7 0 1.5 0 2.2-.3 2.5-1.2 4.3-2.9 4.8-5.7.1-.5.2-.9.3-1.3-.2-1-.3-1.9-.4-2.8-.5-.9-1-1.8-1.8-2.6-.5-.2-.9-.6-1.5-.7-1.2-.2-2.4-.2-3.6.2-2.4.8-2.4.8-4.6.8-.2.2-.4.3-.5.5-.3.6-.6 1.2-.7 1.8-.3 1.5-.6 2.9-.4 4.4.3 1.9 1.2 3.3 2.8 4.3.2.3.6.7.9 1zM4.7 56.6c1.5 1.3 3 2.5 4.8 2.7 2.1.2 3.9 0 5.7-.5.8-.2 1-.5.8-1.2-.3-1-.5-2-.5-3 0-1.2 0-2.4-.1-3.6 0-.3-.2-.5-.3-.8-.7-.5-1.3-.9-1.9-1.3-1.3-.3-2.4-.9-3.6-.9-3.6 1-4.7 2-6.2 4.4-.1.2-.2.3-.2.5-.2.6-.1 1.2.3 1.8.4.6.8 1.3 1.2 1.9zm52.4-37.7c.6-.3.7-.7.8-1.1.1-.4.1-.7.1-1.1 0-3 0-5.9-.8-9-.2-.4-.5-.9-.8-1.3-.5-.7-1.2-1.2-2.1-1.2-2.1.8-2.3.9-3.4 2.9-.4.7-.7 1.5-.8 2.3-.1.6-.3 1.2-.5 1.9.3 1.2.4 2.4.5 3.6 0 .6 0 1.3.1 1.9.1.6.4 1.1.9 1.2 2 .3 4-.3 6-.1zm27.1 63.3c2-.1 3.9-.5 5.7-1.1.8-.3 1.5-.8 1.9-1.6.2-.9.1-1.8.5-2.7.1-.3.1-.7.1-1.1 0-.6-.1-1.1-.5-1.6-.2-.3-.5-.6-.7-.9-.5-.5-1.1-.8-1.8-.6-.7.1-1.4.3-2.2.5-.6-.1-1.3-.2-1.9-.4-.5.3-.9.8-1.4 1-.6.3-1.1.7-1.5 1.2-.6.7-.9 1.4-.7 2.3.3 1 .3 2 .4 3 0 .2.1.3.2.5.5.7 1 1.1 1.9 1.5zm-9-1.5c.3.6.6 1.3.6 2.2 0 .8.4 1.4.8 2.1.3-.2.6-.3 1-.5.4-.3.7-.6 1.1-.8.3-.2.6-.4.9-.5 0-.5-.2-.8-.4-1.1-.2-.4-.5-.8-.6-1.3-.2-1.5-.4-2.9 0-4.4.1-.3.3-.7.1-1.2-.2-.5-.6-1-1.1-1.4-.5-.4-1.5-.6-1.9.2-.2.3-.3.7-.5 1v5.7zm22.6 2 .6-1.8c.1-.3.1-.5.2-.8.2-2.1.2-4.2 0-6.4-.2-.4-.5-.8-.7-1.1-.2-.3-.7-.3-1-.1-.5.4-.8 1-1 1.6-.6 1.9-1 3.8-1.1 5.7v1c.9 1.2 1.1 1.3 3 1.9zm-64.1-6.4c-.3.1-.7.2-1 .3-.3.2-.6.5-.7.8-.1.3 0 .6.3.6 1.1-.2 2.1.5 3.3.3 1.1-.1 2.2-.2 3.3-.1 1.8.2 3.5-.4 5.2-.8.2 0 .3-.4.5-.6-.3-.1-.6-.2-.8-.3h-1.4c-3 .1-5.9.2-8.7-.2zm20.8 2.2c.3.6.5 1.1.8 1.6.3.4.7.6 1.2.7.2 0 .6-.2.7-.3.1-.2.2-.3.2-.5.4-1.3.5-2.5.3-4.1 0-.1-.1-.1-.2-.2-.2 0-.4 0-.5.1-.8.7-1.9 1.3-2.5 2.7zm-6.3 2c.2 0 .5 0 .7-.2.3-.3.6-.6.9-1 .5-.6.4-1.1-.1-1.7-.2-.2-.4-.4-.6-.5-.4-.3-.9-.1-1 .4-.2.9-.3 1.8 0 2.7 0 0 0 .1.1.3z"/>
    <path class="st1" d="M80.5 72.5c-.8-.1-1-.9-1.6-1.2-.5-.2-1-.5-1.6-.7-.4.1-.9.1-1.4.2-1.2.3-2.2 1-2.8 2.1-.3.5-.6 1-.8 1.4-.8.2-1.5.4-2.2.6-.9-.3-1.8-.4-2.7-.4-1.1.1-2.2 0-3.3 0-.9-.1-1.9-.1-2.8 0-.7.1-.9-.1-1.2-.9-.1-.2-.1-.4-.1-.5-.1-.1-.3-.2-.4-.3-1.3-.2-2.4.3-3.7.8-1 .5-1.8 1.5-2.8 2.4-.4.4-1.1.4-1.5.1-.4-.3-.7-.6-1.1-.9-.8-.8-1.7-1.4-2.7-1.9-.3 0-.6 0-.9.1-1.4.5-2.9.6-4.4.6-2.6 0-5.2-.1-7.8-.2-.1 0-.2-.1-.3-.1-.1-.2-.3-.5-.3-.7.1-.6.4-1.2.1-2-.5-.4-1.1-.9-1.6-1.4-3.8-.8-7-2.6-9.7-5.3-1-1-1.8-2.1-2.4-3.4-.5-1.2-1.2-2.3-1.8-3.5-.1-.4-.1-.9-.2-1.3-.7-2.3-.4-4.6-.4-6.9.4-1.9.8-3.8 1.5-5.6 1.1-2.7 2.4-5.2 4.2-7.5.5-.7.9-1.4 1.5-2 1.6-1.4 3-3 4.8-4.2l.9-.6c2.2-2 4.9-3.3 7.5-4.8.2-.1.5-.3.8-.3 1.6-.4 3.2-.8 4.9-1.1 1.1-.2 2.2-.3 3.3-.6 1-.2 2-.4 3-.4 3.2-.1 6.3-.1 9.5 0 1.9.1 3.7 0 5.6 0 .6 0 1.1-.1 1.7.1 1.7.4 3.5.3 5.3.4.6 0 1.3.1 1.9.2 1.8.2 3.4.8 5.1 1.4 2.3.9 4.3 2.1 6.1 3.8.2 0 .3 0 .3.1 2.5 1.6 4.2 3.9 6.2 5.9.6.6 1.1 1.3 1.5 2 .5.8 1 1.6 1.5 2.3.6.9 1 1.8 1.4 2.7.1.4.3.9.5 1.3.9 1.6 1.1 3.4 1.3 5.1.3 1.9.2 3.9.1 5.8 0 .3-.1.6-.2.8-.6 1.5-1 3-1.8 4.4-.7 1.1-1.3 2.2-2.2 3.2-1.2 1.3-2.2 2.7-3.5 4-.9.9-1.9 1.8-3 2.4-1.4.9-3 1.5-4.7 1.4-.2 0-.4 0-.5.1-.6.2-1.2.5-1.4 1.2-.3.5-.2 1.3-.7 1.8zm9.9-14.6c2-2.1 3-4.5 3.5-7.2.3-1.6-.2-3.1-.6-4.6-.1-.3-.3-.7-.5-1-1.1-1.2-2-2.4-3.2-3.4-.8-.7-1.7-1.1-2.7-1.3-.8-.1-1.6-.2-2.5-.4-.6.1-1.2.2-1.8.4-2.9 1.1-5.1 2.8-6.2 5.9-.5 1.5-.6 3.1-.9 4.6v.3c.3 1.4.3 2.9 1 4.3.2.3.3.7.4 1 .2.9.6 1.5 1 1.9 1.5 1.3 3.2 1.6 4.8 1.9 1.4-.2 2.8-.4 4.4-.6.8-.2 2-1.1 3.3-1.8zM34.6 45.5c-1.3-.1-2.5-.4-3.7-.3h-3.8c-.9.7-1.7 1.4-2.6 2-.5.4-.9.9-1.2 1.5-.3.7-.6 1.3-.9 1.9-.1 1.8-.2 3.3 0 4.8.4 1.5 1.2 2.8 1.9 3.7 2 1.8 4.3 2.3 6.4 3 1.4-.2 2.7-.4 4-.5.4-.3.9-.6 1.3-.9 1.1-.7 1.6-1.8 2.4-2.7.9-2.1 1.4-4.2.6-6.5-.2-.5-.4-1-.5-1.6-.4-1.4-1-2.6-2.3-3.3-.6-.3-1-.7-1.6-1.1z"/>
    <path class="st2" d="M92.4 122.3c-1.7.1-3.4.2-5-.3-.5-.1-1.1-.2-1.7-.1-1 .2-1.8 0-2.7-.4-.8-.4-1.5-.7-2.3-.9-1.4-.4-2.5-1.2-3.4-2.3-.4-.4-.8-.8-1.3-1.4l-1.3-2.6c-.6-2.3-.6-4.6-.6-6.8 0-1.6-.1-3.2-.2-4.7-.4-1-.4-2-.5-3-.2-2.7.4-5.1 1.4-7.6.7-1.9 2.1-3.2 3.3-4.8.9-.7 1.8-1.4 3-1.4.2 0 .3-.1.5-.2.3-.4.7-.9 1-1.2 1.1-.3 2.1.2 3.2.4 1.1-.3 2.4-.6 3.6-.9 1-.3 2-.4 3 0 1.1 0 2.1.5 3.1 1 1.4.8 2.6 1.8 3.3 3.3.9 1.6 1.6 3.3 2.3 4.8.2 1 .2 1.7.5 2.4s.4 1.4.5 2.2c.3 1.5.6 3.1.8 4.7.2 2.1.2 4.3-.3 6.4-.2 1-.2 2-.6 3-.5 2.6-1.7 4.9-3.1 7.1-.4.5-.8 1-1.4 1.3-1.2.7-2.4 1.4-3.8 1.7-.4 0-.8.2-1.3.3zm-2.6-18.1c-.5.2-1.1.3-1.6.5-1.6.9-3.4 1.5-5.1 2-.3.1-.5.2-.7.4-.2.2-.3.4-.4.7 0 .5.5 1.1 1 1.1.6 0 1.1 0 1.6-.2.8-.3 1.5-.7 2.3-1.1.2-.1.3 0 .4.2v.3c-.9 1.6-2 3.1-3.5 4.3-.1.1-.1.3-.2.5.2.8.5 1.3 1.4 1.5.9-.3 1.7-.9 2.3-1.6.6-.7 1.4-1.2 2.3-1.5.4-.1.9-.3 1.3-.4.6.3.8.8.8 1.4 0 .7-.4 1.2-.9 1.6-.4.3-1.1.4-1.3.9-.1.1-.1.4 0 .5 1.5 1.8 2.5 1.3 3.5-.2.2-.3.3-.7.5-1 .4-.9.5-1.8.6-2.6-.1-.6-.2-1.2-.4-1.7-.1-.4-.4-.8-.5-.9-1-.5-2-.1-2.7-.7 0-1 .9-1.8.8-2.8-.5-.6-.7-1-1.5-1.2zm-1.1-2.3c0-.7-.1-1.5-.1-2.4 0-.4.1-.7.4-1 .8-.4 1.6-.8 2.4-1 1.1.2 1.3.1 1.4-.6 0-.6.1-1.1.5-1.5.2-.1.3-.1.5-.2.3-.1.5-.2.8-.3.6-.4.8-1 .5-1.7-.2-.5-.5-.8-1-.8h-1c-.9.5-.3 1.5-.8 2.1-.8.2-1.7.4-2.5 1.1-.3.3-.8.5-1.3.5-.2-.2-.3-.4-.5-.6l-.6-.6c-.1-.1-.4-.1-.5-.1-.6.1-1.1.3-1.4.9-.1.4-.1.9-.2 1.3-1.3 1.1-2.9 1.2-4.4 1.6-.2.3-.3.5-.5.7.1.3.2.5.3.8.2.5.5.8 1 .9 1.2-.3 2.5-.6 3.7-.9.1.2.3.4.3.5.1.6.1 1.1.1 1.7.1.7.5 1.2 1.3 1.2.8-.3 1.3-.8 1.6-1.6zm-1.5-12.6c-.8-.3-1.2-.4-1.5-.2-.7.4-1.3.9-1.7 1.6-.3.7-.7 1.3-1 2-.2.6-.1 1.1.4 1.5l.9.6c.9-.1 1.6-.4 1.9-1.1.4-.8 1-1.3 1.5-2 .1-.1.1-.3.2-.6-.2-.5-.4-1.1-.7-1.8zm12.5 21.5c-.8.2-1.7.3-2.1 1.2.2.8.5 1.4 1 2 .2.2.4.3.6.4.1-.1.2-.1.3-.2l.2-.2c.4-.7.7-1.4 1-2.1 0-.6-.5-.8-1-1.1zm-3-11.2c-.5-.5-1-1-1.7-1-.1 0-.2.1-.3.1-.8.5-.9.9-.5 1.6.3.5.6.9 1.1 1.2.3.2.7.1 1-.2.5-.4.6-.9.4-1.7zm-20 6.3c-.4.1-.7.3-.9.6-.2.3-.2.7-.1 1 .1.3.2.7.4 1 .2.4.6.7 1.1.7.6-.3.8-.7.8-1.3 0-.5 0-1.1-.4-1.6-.3-.1-.6-.3-.9-.4zm18.4 1.2c.2 0 .4.1.5.1.7 0 1.1-.2 1.2-.8.1-.4.1-.9.1-1.2-.4-.7-1-.8-1.7-.9-.4.1-.6.4-.6.8 0 .7-.1 1.5.5 2zm-18-10.4c.3-.2.6-.3.8-.4.5-.4.6-.8.4-1.4-.1-.4-.3-.7-.7-.8-.7-.3-1.4 0-2 .5-.2.2-.2.6 0 .7.4.4.6 1.1 1.5 1.4zm.2 4.5c-.2 0-.5 0-.7.1-.4.1-.7.3-.8.7-.1.4 0 .7.3 1 .2.2.4.4.7.5.4.2 1 .1 1.3-.3.2-.2.3-.5.4-.7.2-.5-.2-1.2-.7-1.2-.3-.1-.4-.1-.5-.1zm1.6 12.4c-.1-.3-.3-.6-.5-.9-.1-.2-.6-.3-.7-.2-.5.3-1.1.7-1.3 1.3.3 1.1.5 1.2 1.7 1.2.4-.3.6-.8.8-1.4z"/>
    <path class="st3" d="M60.3 80.1c.7.6-.1 1.2.1 1.8.4.2.8.4 1.3.6.3.4.7.8.9 1.3.8 2.1 1.5 4.2 2.3 6.3.2.4.2.9.3 1.4.1 1.2.1 2.4-.5 3.5-.3.5-.5 1-.7 1.5l-1.4 1.4c-1.2 1.2-2.7 2-4.4 2.3-.4.1-.7.1-1.2.2-1.2-.3-2.6-.2-4-.7-.9-.3-1.7-.7-2.6-1-.9-.3-1.7-.8-2.4-1.4-.5-.4-1.1-.6-1.7-1-1.1-1.3-1-2.7-.6-4.2.2-.6.4-1.3.7-1.8.6-1 1-2 1.4-3 .1-.2.1-.4.2-.5 1.1-1.4 1.8-3 2.6-4.6.3-.6.7-1.1 1.3-1.4.4 0 .7.1 1 .4.8.6 1.6 1.3 2.4 1.9.5.4 1.1.6 1.8.8.8.2 1.2 0 1.6-.7.4-.8.7-1.7 1.1-2.6 0-.2.3-.3.5-.5z"/>
    <path class="st1" d="M12.8 62.2c1.6 0 3.1-.3 4.6-.9.9 1.1 1.6 2.3 2.2 3.6l2.3 2.3c1.3 1.2 2.8 2.2 4.4 2.9.8.4 1.6.9 2.3 1.3.7.2 1.2.3 1.7.4.3.1.3.2.6.8 0 .2-.1.4-.1.5-1.4 2.3-2.6 4.7-3.7 7.1-.2.4-.5.5-1 .5-.5-.4-1.2-.8-1.7-1.3-.4-.4-.8-.7-1.2-1.2-.4-.4-.7-.9-1.2-1.2-.6-.3-1-.8-1.4-1.3-.5-.6-1-1.4-1.7-1.8-.8-.6-1.4-1.4-2.1-2.2-.8-.9-1.5-1.8-2-3-.4-.9-1-1.8-1.5-2.7-.6-1-.8-2.1-.9-3.2 0 0 .3-.3.4-.6zM75.1 3.1c.9-.3 1.8-.1 2.6.4 1.3.8 1.7 1.1 2.7 2.7.7 3.2.9 6.4.7 9.7-.1 1.6-.1 1.6-1 3.5 0 .2.2.5.2.7 0 .1-.2.3-.3.4-.2.1-.4.1-.5 0-.8-.4-1.6-.5-2.4-.5-2 0-4-.5-6-.7-.2-.2-.3-.3-.4-.5-.2-1.7-.2-3.3.2-5 .1-.3.1-.7.1-1.1.2-3.5 1.7-7.1 3.5-9.2.3-.2.4-.3.6-.4zM22.3 112.1c-.3-.3-.6-.6-1-.9-1.5-1.1-2.5-2.5-2.8-4.3-.2-1.5.2-2.9.4-4.4.1-.6.4-1.2.7-1.8.1-.2.4-.4.5-.5 2.2-.1 2.3 0 4.6-.8 1.2-.4 2.4-.4 3.6-.2.5.1 1 .4 1.5.7.7.8 1.2 1.7 1.8 2.6.1.9.3 1.8.4 2.8-.1.4-.2.8-.3 1.3-.5 2.8-2.3 4.6-4.8 5.7-.7.3-1.4.4-2.2.3-.7-.2-1.6-.2-2.4-.5zM4.7 56.6l-1.2-1.8c-.4-.6-.5-1.2-.3-1.8.1-.2.1-.4.2-.5C4.9 50 6 49 9.6 48c1.2 0 2.3.6 3.6.9.6.4 1.3.9 1.9 1.3.1.3.3.6.3.8.1 1.2.1 2.4.1 3.6 0 1 .2 2 .5 3 .2.7 0 .9-.8 1.2-1.8.6-3.6.7-5.7.5-1.8-.3-3.3-1.5-4.8-2.7zM57.1 18.9c-2-.3-4 .4-6 .2-.6-.2-.8-.7-.9-1.2-.2-.7-.2-1.3-.2-2-.1-1.2-.2-2.4-.5-3.6.2-.6.4-1.2.5-1.9.1-.8.4-1.6.8-2.3 1.2-2 1.4-2.1 3.5-2.9.9 0 1.6.5 2.1 1.2.3.5.6 1 .8 1.3.8 3 .8 6 .8 9 0 .4 0 .7-.1 1.1-.1.5-.3.9-.8 1.1zM84.2 82.2c-.9-.4-1.4-.8-1.7-1.3-.1-.2-.2-.4-.2-.5 0-1-.1-2-.4-3-.2-.9.1-1.6.7-2.3.4-.5.9-.9 1.5-1.2.5-.2.9-.6 1.4-1 .6.1 1.3.2 1.9.4.7-.2 1.4-.4 2.2-.5.7-.1 1.3.1 1.8.6.2.3.5.6.7.9.3.5.5 1 .5 1.6 0 .4 0 .8-.1 1.1-.4.9-.3 1.8-.5 2.7-.4.8-1 1.3-1.9 1.6-2 .4-3.9.8-5.9.9z"/>
    <path class="st2" d="M75.2 80.7V75c.2-.4.3-.7.5-1 .4-.8 1.4-.6 1.9-.2.5.4.9.9 1.1 1.4.2.5 0 .9-.1 1.2-.4 1.5-.3 2.9 0 4.4.1.4.3.9.6 1.3.2.3.4.6.4 1.1-.3.2-.6.3-.9.5-.4.3-.7.6-1.1.8-.3.2-.6.4-1 .5-.5-.7-.8-1.3-.8-2.1-.1-.9-.3-1.7-.6-2.2zM97.8 82.7c-1.9-.6-2.1-.7-3.1-1.9v-1c.2-1.9.5-3.8 1.1-5.7.2-.6.5-1.2 1-1.6.3-.2.8-.2 1 .1.3.4.5.8.7 1.1.2 2.2.2 4.3 0 6.4 0 .3-.1.5-.2.8-.1.6-.3 1.2-.5 1.8z"/>
    <path class="st4" d="M33.7 76.3c2.9.4 5.7.3 8.6.3h1.4c.3 0 .5.2.8.3-.2.3-.3.6-.5.6-1.7.4-3.4.9-5.2.8-1.1-.1-2.2-.1-3.3.1-1.1.1-2.2-.5-3.3-.3-.3 0-.4-.3-.3-.6.2-.3.4-.6.7-.8.4-.2.7-.3 1.1-.4zM54.5 78.5c.6-1.3 1.6-2 2.6-2.7.1-.1.3-.1.5-.1l.2.2c.2 1.6.1 2.8-.3 4.1-.1.2-.2.3-.2.5-.1.2-.5.4-.7.3-.5-.1-.9-.3-1.2-.7-.3-.5-.6-1-.9-1.6zM48.2 80.5c-.1-.1-.1-.2-.2-.3-.3-.9-.2-1.8 0-2.7.1-.5.7-.7 1-.4.2.2.4.3.6.5.6.6.6 1 .1 1.7-.3.4-.6.7-.9 1 0 .1-.3.1-.6.2z"/>
    <path class="st0" d="M90.4 57.9c-1.4.7-2.5 1.6-3.6 1.9-1.6.2-3 .4-4.4.6-1.6-.3-3.3-.6-4.8-1.9-.4-.4-.9-1.1-1-1.9-.1-.4-.2-.7-.4-1-.7-1.4-.6-2.9-1-4.3V51c.2-1.5.3-3.1.9-4.6 1.1-3 3.4-4.8 6.2-5.9.6-.2 1.3-.3 1.8-.4.9.1 1.7.2 2.5.4 1 .2 1.9.6 2.7 1.3 1.2 1 2.2 2.3 3.2 3.4.2.3.4.6.5 1 .5 1.5.9 3 .6 4.6-.2 2.5-1.2 5-3.2 7.1zm-8.3-14.1c-.4.3-.6.6-.9.7-1.5.8-2.2 2.2-2.6 3.7-.1.3-.1.5-.2.8-.4.8-.4 1.6-.4 2.3 0 .9.3 1.8.6 2.7.1.3.2.5.4.7 1 .7 1.6 1.8 2.8 2.4 1.9.3 3.8-.1 5.7-.6.3-.1.7-.3 1-.6.6-.4 1.1-1 1.5-1.7.5-.9.9-1.8 1.3-2.5.3-1.4.1-2.6-.1-3.8-.3-.6-.6-1.1-1-1.7-.7-1-1.5-1.9-2.7-2.3-1.4-.5-2.8-1-4.3-.3-.4.1-.7.1-1.1.2zM34.6 45.5c.6.4 1 .8 1.5 1 1.3.8 1.9 1.9 2.3 3.3.1.5.3 1.1.5 1.6.8 2.2.4 4.4-.6 6.5-.8.9-1.3 2-2.4 2.7-.5.3-.9.6-1.3.9-1.4.2-2.6.4-4 .5-2.1-.7-4.4-1.2-6.4-3-.7-.9-1.5-2.2-1.9-3.7-.2-1.5-.1-3.1 0-4.8.2-.5.6-1.2.9-1.9.3-.6.7-1.1 1.2-1.5.9-.7 1.8-1.3 2.6-2 1.3 0 2.6.1 3.8 0 1.3.1 2.5.3 3.8.4zm-7 3.4c-1.7 1.3-2.4 2.8-2.5 4.5-.1 1 .2 1.8.7 2.6.5.8 1.2 1.4 2 1.9 1 .6 2.1 1.2 3.3 1.3.7-.2 1.3-.3 1.9-.5 2.2-.5 3.4-2.4 3.7-4.4v-.8c-.5-1.4-.7-2.9-1.5-4.3-.2-.1-.5-.3-.9-.5-1.4-.8-2.8-.9-4.3-.5-.9.2-1.7.5-2.4.7zM89.8 104.2c.8.2 1 .6 1.2 1.1.1 1-.8 1.8-.8 2.8.8.6 1.7.2 2.7.7.2.1.4.5.5.9.2.5.2 1.1.4 1.7-.1.8-.3 1.8-.6 2.6-.1.3-.2.7-.5 1-1 1.5-2 2-3.5.2-.1-.1 0-.4 0-.5.3-.5.9-.6 1.3-.9.6-.4.9-1 .9-1.6 0-.6-.1-1.1-.8-1.4-.4.1-.9.3-1.3.4-.9.3-1.7.7-2.3 1.5-.6.7-1.3 1.3-2.3 1.6-.8-.1-1.2-.7-1.4-1.5.1-.2.1-.4.2-.5 1.5-1.2 2.5-2.7 3.5-4.3 0-.1.1-.2 0-.3-.1-.2-.3-.3-.4-.2-.8.4-1.5.7-2.3 1.1-.5.2-1.1.3-1.6.2-.5 0-1.1-.6-1-1.1 0-.2.2-.5.4-.7.2-.2.5-.3.7-.4 1.8-.5 3.5-1.1 5.1-2 .8-.2 1.4-.2 1.9-.4zM88.7 101.9c-.3.9-.8 1.4-1.6 1.6-.8-.1-1.2-.5-1.3-1.2-.1-.5-.1-1.1-.1-1.7 0-.2-.2-.3-.3-.5-1.2.3-2.5.6-3.7.9-.6-.1-.8-.4-1-.9-.1-.3-.2-.5-.3-.8.1-.2.3-.5.5-.7 1.5-.4 3.1-.5 4.4-1.6.1-.4.1-.9.2-1.3.3-.5.8-.8 1.4-.9.2 0 .4 0 .5.1l.6.6c.2.2.4.4.5.6.5 0 1-.2 1.3-.5.7-.6 1.6-.8 2.5-1.1.5-.6-.1-1.6.8-2.1h1c.5 0 .8.4 1 .8.3.7.1 1.3-.5 1.7-.2.1-.5.2-.8.3-.2.1-.3.1-.5.2-.4.4-.5.9-.5 1.5s-.3.7-1.4.6c-.7.2-1.6.6-2.4 1-.3.3-.4.6-.4 1 0 .8 0 1.7.1 2.4zM87.2 89.3c.2.7.4 1.3.6 1.9-.1.2-.1.4-.2.6-.5.7-1.1 1.2-1.5 2-.4.7-1 1-1.9 1.1-.2-.2-.6-.3-.9-.6-.5-.4-.6-1-.4-1.5.3-.7.6-1.3 1-2 .4-.8 1-1.3 1.8-1.7.3-.2.7-.2 1.5.2zM99.7 110.8c.5.3.9.4 1 1.1-.3.6-.7 1.3-1 2.1 0 .1-.1.1-.2.2s-.1.1-.3.2c-.2-.1-.5-.2-.6-.4-.5-.6-.8-1.2-1-2 .5-.8 1.3-1 2.1-1.2zM96.7 99.6c.2.8.1 1.3-.4 1.7-.3.3-.7.3-1 .2-.5-.3-.8-.7-1.1-1.2-.4-.7-.2-1.1.5-1.6.1 0 .2-.1.3-.1.7 0 1.2.5 1.7 1zM76.7 105.9c.3.1.6.3.8.4.4.5.4 1.1.4 1.6 0 .6-.3 1-.8 1.3-.5 0-.9-.3-1.1-.7-.2-.3-.3-.7-.4-1-.1-.4-.1-.7.1-1 .3-.3.6-.5 1-.6zM95.1 107.1c-.6-.6-.5-1.3-.4-2 0-.4.2-.7.6-.8.6.1 1.2.2 1.7.9 0 .3-.1.8-.1 1.2-.1.6-.5.8-1.2.8-.2 0-.4 0-.6-.1zM77.1 96.7c-.9-.3-1.1-1-1.5-1.4-.2-.2-.1-.5 0-.7.5-.6 1.3-.8 2-.5.4.1.5.5.7.8.2.6.1 1.1-.4 1.4-.3.1-.5.2-.8.4zM77.3 101.2h.4c.6.1.9.7.7 1.2-.1.2-.3.5-.4.7-.3.3-.9.5-1.3.3-.2-.1-.5-.3-.7-.5-.3-.3-.4-.6-.3-1 .1-.4.4-.6.8-.7h.8zM78.9 113.6c-.1.6-.4 1.1-.8 1.4-1.2 0-1.4-.1-1.7-1.2.3-.6.8-1 1.3-1.3.2-.1.6 0 .7.2.2.3.3.6.5.9z"/>
    <path class="st3" d="M61.7 67.7c-.9 0-1.8.3-2.8.5-.9.2-1.8.3-2.6.5-1-.2-1.6-.7-2.3-1.2-.4-.2-.8-.6-1.2-.7-1.6-.4-2.8-1.4-4.1-2.3-.2-.1-.3-.2-.4-.3-1.9-3.8-1.9-7.1-.7-11.1l1.5-2.7c.5-1 1.2-1.9 2.1-2.6 1-.8 2.1-1.2 3.3-1.3 1.9-.2 3.7-.1 5.6-.1.3 0 .6 0 .8.1 1.1.3 2.1.6 3.2 1 .9.3 1.7.8 2.4 1.4.8.7 1.5 1.3 2.4 2 .3.6.6 1.2 1 1.9.3.7.7 1.3 1 1.9 0 .6.1 1.2.1 1.7.1 2.2-.5 4.4-1.5 6.4-.4.7-.8 1.2-1.4 1.7-.9.8-2 1.4-3.1 1.8-1.2.6-2 .9-3.3 1.4zm-4.3-18.8-2.1.6c-.1 0-.2.1-.3.1-.8.3-1.6 1.5-1.6 2.4 0 .2.1.4.1.5.2.4.5.8.9 1 .4.2.9.3 1.3.4.4.1.6.4.8.7-.8 2.7-1.7 3.9-3.5 4.8-.3-.1-.6-.3-1-.4-.4-.2-.8-.4-1.3-.6-.7-.3-1.5.1-1.8.8-.3.8-.1 1.7.6 2.3.5.5 1.2.9 1.9 1.1.7.2 1.4.4 2.2.5.6.1 1.1.1 1.6-.2.3-.2.7-.3.9-.4 1-1.1 2-2.1 2.9-3 1.1.1 1.6 1.1 2.5 1.4 1.6.3 3.1-.1 4.6-.7.4-.4.9-.8 1.3-1.2.2-.6.5-1.2.7-1.8-.2-.2-.3-.5-.5-.6-.4-.2-.9-.3-1.3-.4-1.5.5-2.7 1.4-4.2 1.4-.8-.8-.9-.8-1-1.3-.3-1.2-.6-2.3-.8-3.2.1-.9.2-1.5.3-2.2.1-.6-.3-1.1-.8-1.3-.7-.3-1.5-.6-2.4-.7zm.3 15c-.4.4-.4.8-.2 1.3.3.7.8 1.2 1.7 1.2.5-.2.9-.5 1.5-.6.5-.2 1.1-.3 1.6-.4.3-.4.6-.7.9-1.1.3-.4.3-.9 0-1.3-.1-.2-.2-.3-.3-.5-.6-.4-1.2-.3-1.9 0-.5.2-1 .5-1.5.8l-1.8.6z"/>
    <path class="st4" d="M82.1 43.8c.5-.1.8-.1 1-.2 1.5-.7 2.9-.2 4.3.3 1.2.4 2 1.3 2.7 2.3.3.5.7 1.1 1 1.7.3 1.2.4 2.4.1 3.8-.3.7-.8 1.6-1.3 2.5-.3.7-.8 1.2-1.5 1.7-.3.2-.6.5-1 .6-1.9.5-3.8.9-5.7.6-1.2-.6-1.8-1.7-2.8-2.4-.2-.2-.4-.4-.4-.7-.2-.9-.5-1.8-.6-2.7 0-.7-.1-1.5.2-2.2.1-.3.1-.5.2-.8.4-1.6 1.2-2.9 2.6-3.7.5-.2.8-.5 1.2-.8zM27.6 48.9c.7-.2 1.5-.5 2.3-.7 1.5-.3 3-.2 4.3.5.3.2.6.4.9.5.9 1.4 1.1 2.9 1.5 4.3.1.3.1.6 0 .8-.2 2-1.5 4-3.7 4.4-.6.1-1.3.3-1.9.5-1.2-.1-2.3-.7-3.3-1.3-.8-.5-1.5-1.1-2-1.9-.6-.8-.8-1.6-.7-2.6.2-1.8.9-3.3 2.6-4.5z"/>
    <path class="st0" d="M57.4 48.9c.9.1 1.6.4 2.4.7.5.2.9.8.8 1.3-.1.6-.2 1.3-.3 2.2.2.9.5 2.1.8 3.2.1.5.2.6 1 1.3 1.5-.1 2.7-.9 4.2-1.4.4.1.9.2 1.3.4.2.1.3.4.5.6-.3.6-.5 1.2-.7 1.8-.4.4-.8.8-1.3 1.2-1.4.6-2.9 1-4.6.7-.9-.3-1.4-1.2-2.5-1.4-.9 1-1.9 2-2.9 3-.3.1-.6.3-.9.4-.5.2-1.1.3-1.6.2-.7-.1-1.5-.3-2.2-.5-.7-.2-1.3-.6-1.9-1.1-.6-.6-.9-1.5-.6-2.3.3-.8 1.1-1.1 1.8-.8.4.2.8.4 1.3.6.3.2.7.3 1 .4 1.8-.9 2.7-2.1 3.5-4.8-.2-.4-.4-.6-.8-.7-.4-.2-.9-.2-1.3-.4s-.7-.6-.9-1c-.1-.2-.1-.3-.1-.5 0-.9.8-2.1 1.6-2.4.1 0 .2-.1.3-.1l2.1-.6zM57.7 63.9c.6-.2 1.2-.4 1.8-.7.5-.2 1-.5 1.5-.8.6-.3 1.2-.4 1.9 0 .1.2.2.3.3.5.3.4.3.9 0 1.3s-.6.7-.9 1.1c-.5.1-1.1.3-1.6.4l-1.5.6c-.9 0-1.4-.5-1.7-1.2-.2-.4-.2-.8.2-1.2z"/>
    <path class="st4" d="M101.3 122.7c-.4-.4-.9-.6-1.6-.5-.3.2-.7.4-1.1.7-1.1.9-2.4 1.3-3.8 1.7-1.1.3-2.2.5-3.3.8-.8 0-1.6-.1-2.4-.1-1.5-.1-3-.1-4.5-.1-1.1 0-2.2-.3-3.2-.7-1.3-.5-2.5-1.2-3.7-1.8-.5-.3-.9-.6-1.4-.9-1.5-1.3-2.8-2.7-3.6-4.5-.3-.7-.7-1.3-1-1.9-.1-.5 0-1-.2-1.5-.2-.7-.3-1.4-.3-2.1l-.7-.2v.3c-.1.1-.2.3-.4.4-.3.2-.7.3-.9.4-.6 0-1.2-.2-1.7-.1-.6.1-1.3.3-1.9.3-.7.1-1.4.4-2.2.5-1.2.2-2.3.7-3.6.5-.3 0-.5.1-.8.2-.8.1-1.6.2-2.5.4-.6.1-1.1.1-1.7.2-1.2.3-2.4.3-3.6.3-.9 0-1.9-.1-2.8 0-2.1.1-4-.5-6.1-.5-.2 0-.4-.1-.5-.1-1.6-.6-3.2-.7-4.9-1-.8-.4-1.5-.8-2.3-1.2-.7-.3-1.3-1.1-2.2-1.1-.8.4-1.2 1.1-1.8 1.6-1.4 1.1-2.7 2.2-4.6 2.4-.4.1-.9.3-1.2.4-2.4-.2-2.4-.2-5.3-1.3-.3-.8-1-1.4-1.7-2-.2.1-.4.1-.5.3-1.1 1.2-2 2.7-2.8 4.1-.5.9-.7 1.9-1.1 2.9-.4.5-.8 1-1 1.3-.7.4-1.2.6-1.7.9-1.9 1.5-3.5 3.3-4.7 5.4 0 .1 0 .2-.1.3 0 .2 0 .4.2.4.3.1.5.2.8.1 1.4-.1 2.7-.6 4-1.1 1.1-.4 2.1-.8 2.9-1.6.1-.1.3-.2.5-.3.4-.1.8-.1 1 .2.2.2.3.5.3.7 0 .3 0 .6-.2.8l-.6.9c-1.1 1.3-1.7 2.9-2.3 4.4-.2.5-.3 1.1.2 1.6.2-.1.5-.1.8-.2.5-.2 1-.5 1.4-.7 1.1-1.3 2.2-2.5 3-3.8.3-.4.6-.7 1.1-.8.4.1.7.3.9.6.3.5.4 1.1.2 1.6-.2.7-.4 1.4-.8 2.1-.2.4-.4.8-.6 1.3-.1.2 0 .5.4.6.9-.5 1.5-1.2 2.2-2 .7-.8 1.3-1.6 1.9-2.4.3-.4.7-.6 1.3-.7 1.8.5 3.6 1.2 5.5 1.7 1.3.3 2.5.5 3.8.5 1.4-.1 2.8 0 4.2.3.6.1 1.3.1 1.9.2H43c1.8 0 3.5 0 5.3-.2.9-.1 1.8-.2 2.8-.2.6 0 1.1 0 1.7-.1 1-.1 2-.1 3.1 0 .7.1 1.5.1 2.2.2.8.1 1.5-.2 2.2-.2h5.8c.8 0 1.7-.2 2.5-.3.8-.1 1.6.1 2.5.2.4 0 .8 0 1.1-.1 1.1-.3 2.2-.2 3.3-.3 1.6-.1 3.1-.4 4.6-.9 1-.3 1.9-.7 2.8-1.1.7-.3 1.4-.5 2.1-.3.7.6 1.5 1.1 2.1 1.8.3.5.8.8 1.4.9 1.1.2 2.2.2 3.3 0 .5-.1 1-.6 1.1-1.2 0-.3 0-.6.1-.8.1-.4.2-.7.4-1 .3-.7.9-.9 1.6-.6.6.3 1.2.4 1.9.4.5 0 .9-.2 1-.7.1-.3.1-.5.3-.8.3-.6 1-.9 1.6-.7l2.1.9c.4.1.7.1 1.1-.1.1-.1.3-.3.3-.4-.2-1.3-1-2.5-2-3.5z"/>
    <path class="st1" d="M28.4 95.6c.3.1.6 0 .8.1.3.1.7.2 1 .4 1.6 1.4 2.9 2.9 3.7 4.8.3.8.6 1.6.6 2.4v2.2c0 .7-.2 1.4-.2 2.1.4.7 1 1 1.6 1.3 1.5.6 2.9 1.1 4.2 1.6.8.1 1.5.2 2.1.3.5.1 1.1.3 1.6.3 1.5.1 3 .1 4.4.5 1.9 0 3.9.2 5.8-.2 1.3-.2 2.6-.3 3.9-.3 1.6 0 3.1-.2 4.7-.5 2.4-.5 4.9-.9 7.3-1.5.2 0 .5 2.6.7 2.7l.7-.2c0-1.4-.1-5.2-.3-6.5-.2-1.7-.3-3.3-.5-5-.2-1.7 0-3.3.3-5 .3-1.8.8-3.6 1.8-5.2.5-.8.8-1.7 1.2-2.5-.3-.6-.6-1.2-.8-1.7.3-1 .4-2 .2-3.1-.1-1-.3-2-.4-3 0-.3-.2-.5-.4-.7-.7 0-1.3-.1-1.9 0-1.6.3-3.1.4-4.7.5-1.9.1-1.9.1-1.3 1.9.7 2 1.5 4 2 6.1.7 1.3 1 2.8 1.3 4.2-.1 1.9-.7 3.7-1.2 5.5-.5.6-.9 1.3-1.5 1.9-.8.8-1.7 1.4-2.6 2.1-.6.5-1.2.9-1.9 1.1-2.3.7-4.6.7-6.9.3-1.3-.2-2.5-.8-3.7-1.2-1.9-.7-3.4-1.8-5-3-2.1-1.6-2.7-3.7-1.8-6.2.7-2 1.4-4 2.4-5.9.3-.7.6-1.3 1-2.1-.3-.6-.4-1-.6-1.5 0-.5-.1-1-.1-1.6 0-.3-.1-.5-.2-.8 0-.2-.4-.4-.7-.4-.8.1-1.5.7-2.4.4l-1.8.6c-1.4.1-2.6.1-3.9-.2-.7-.2-1.5-.1-2.2.1-.4.1-.7.1-1.1.2-.4-.1-.7-.3-1.1-.4-.6-.1-1-.8-1.7-.9-.2.5-.7.9-.7 1.5l.3 1.2c-.2.8-.4 1.5-.5 2.1-.4.5-.8.8-1 1.1-.2.3-.3.7-.4 1-.2 2.1-.6 4.2-1.1 6.3-.1.4-.1.9-.1 1.4.1.7.5 1.3 1.1 1.4z"/>
    <path class="st0" d="M73.3 55c-.4-2.2-1.2-4.3-2.7-6-.2-.2-.3-.4-.5-.5-.2-.1-.3-.3-.5-.5l-.6-.6c-.2-.2-.5-.5-.8-.7-2.3-1.7-5.6-2.8-5.6-2.8-.4-.1-.8-.1-1.1-.2-2.1-.6-4.2-.5-6.3-.1-.5.1-.9.2-1.4.2h-.1c-.4.1-.9.2-1.4.3-4.1.6-5.9 5-5.9 5l-.1-.1c-.3.5-.7.8-1 1.3-.3.9-.5 1.7-.8 2.5-.4 1.3-.7 2.7-.7 4.1v2.5c0 .7.1 1.5.3 2.2.3 1.4.7 2.9 1.4 4.3 1.8 1.9 3.8 3.3 6.1 4 .5.2 1 .4 1.4.8.4.5 1.1.8 1.7.9 1.6.2 3.3.5 4.9-.2.7-.3 1.4-.5 2.1-.6 1-.2 1.9-.6 2.9-.9 1.6-.6 3-1.5 4.3-2.2 1.2-1.2 2.2-2.5 2.7-4 .6-1.7 1.1-3.5 1.4-5.4.4-1.2.5-2.2.3-3.3zm-4.1 8c-.4.7-.8 1.2-1.4 1.7-.9.8-2 1.4-3.1 1.8-.9.3-1.7.7-3 1.2-.9 0-1.8.3-2.8.5-.9.2-1.8.3-2.6.5-1-.2-1.6-.7-2.3-1.2-.4-.2-.8-.6-1.2-.7-1.6-.4-2.8-1.4-4.1-2.3-.2-.1-.3-.2-.4-.3-1.9-3.8-1.9-7.1-.7-11.1l1.5-2.7c.5-1 1.2-1.9 2.1-2.6 1-.8 2.1-1.2 3.3-1.3 1.9-.2 3.7-.1 5.6-.1.3 0 .6 0 .8.1 1.1.3 2.1.6 3.2 1 .9.3 1.7.8 2.4 1.4.8.7 1.5 1.3 2.4 2 .3.6.6 1.2 1 1.9.3.7.7 1.3 1 1.9 0 .6.1 1.2.1 1.7-.2 2.4-.7 4.6-1.8 6.6zM74.9 33.7c-.1.6-.1 1.1-.2 1.6-.1.6-.5 1-1.1 1-.4 0-.7 0-1.1-.1-.9-.1-1.8 0-2.7.1-1.4.2-2.7.3-4.1.2-.8-.1-1.6.2-2.5.2-.8 0-1.5-.2-2-.8-.1-.1-.2-.3-.3-.5-.2-.5.1-1.2.5-1.5.5-.3 1-.5 1.6-.5 1.6 0 3.3-.1 4.9 0 1.7 0 3.3.1 4.9-.5.4-.1.9-.1 1.3.1.3.3.5.5.8.7zM50.2 36c-1.5.1-3 .6-4.5.7-.6 0-1.2.4-1.8.6-.5.2-1.1.2-1.7-.1-.2-.3-.5-.7-.7-1.1-.4-.7-.1-1.4.8-1.8.2-.1.5-.2.8-.2 1.2-.2 2.3-.3 3.5-.5 1.2-.2 2.5-.5 3.7-1 .3-.1.7-.2 1-.3.3.2.7.4 1 .6l.4.4c0 .2 0 .5-.2.7-.5.8-1.3 1.3-2.3 2zM45 41.3c.3-.3.4-.5.5-.6.6-.3 1.1-.5 1.8-.6 1.3-.1 2.3.3 2.8 1.6.1.6-.1 1.1-.4 1.7l-1.1 1.1c-.3.3-.8.5-1.2.5-.5.1-.9-.1-1.3-.4-.3-.3-.6-.7-.7-1.1-.1-.7-.2-1.5-.4-2.2zM70.9 40.6c.3.6.6 1.1.8 1.6 0 .3 0 .6-.2.8l-.6.9c-.3.3-.7.6-1 .8-.9.2-1.7 0-2.4-.5s-.9-1.3-1-2.2c.9-1.8 2.5-1.9 4.4-1.4z"/>
</svg>
