<svg xmlns="http://www.w3.org/2000/svg" width="22.8" height="33.3" style="overflow:visible;enable-background:new 0 0 22.8 33.3" xml:space="preserve">
    <style>
        .st0{fill:#7a6a56}.st2{fill:#adaaa7}.st3{fill:#fff}
    </style>
    <path class="st0" d="M6.4 9.6c.2-.3.3-.6.4-.9.4-.2.9-.5 1.3-.7.4-.3.9-.5 1.2-.7.2-.2.2-.3.2-.5-.2-.9-.3-1.8-.4-2.7 0-.5-.2-1-.3-1.5 0-.3-.1-.6-.1-.9.3-.4.5-.8.8-1.2.7-.3 1.4-.4 2-.5.8-.1 1.6 0 2.4.2l.9.3c.3.1.5.5.5.8 0 .1 0 .3-.1.4-.2.4-.3.8-.3 1.2.1 1.1.1 2.2.1 3.3.1.1.2.2.3.2.7.1 1.4.1 2.2.2.1.1.3.2.4.2.7.3 1.3.8 1.8 1.4.3.3.6.8 1 1 .3.5.7 1 1 1.5.5 1 .8 2.1.9 3.2 0 .3 0 .5.1.8.1.5.1.9.1 1.4 0 1.1-.1 2.2.1 3.4v.5c-.1 1.6-.2 3.3-.2 4.9 0 .6-.1 1.3-.2 1.9 0 .4-.2.8-.3 1.1-.2.3-.4.7-.6 1-.6.8-1.3 1.6-2.1 2.3-.1 0-.2.1-.4.1h-.5c-1.3-.3-2.3.3-3.1 1.1-.2.1-.3.3-.4.4-.3.1-.5.1-.7 0-.5-.3-1-.3-1.5-.1-.5.2-1.1.2-1.7.3-.8.1-1.6.2-2.5.3-.3-.1-.6-.2-1-.3-.3-.1-.7-.1-1-.1H4.2c-.5 0-.8-.2-1.1-.6l-.6-.9c-.4-.7-.6-1.4-.9-2.2-.2-.5-.3-1.1-.5-1.6-.1-.3-.3-.6-.5-.9-.4-.8-.6-1.6-.6-2.6.1-1.1.1-2.1.2-3.2 0-.4.1-.9.2-1.3.1-.3.1-.7.2-1 .2-1.5.6-2.9 1.4-4.3.7-1.2 1.5-2.3 2.3-3.4.3-.3.6-.6 1-.8.4-.1.7-.3 1.1-.5zm6.5 1.2c-.4.2-.8.1-1.2 0-1.1-.2-2.2-.3-3.3-.4-.9-.1-1.7 0-2.5.2-.5.3-.9.7-1.3 1.1-.6.8-1.1 1.6-1.6 2.3-.4.6-.8 1.2-1 1.8-.3 1-.8 1.9-.8 3 0 .1 0 .3-.1.4-.2.5-.2 1-.2 1.5-.1 1.1-.1 2.2-.2 3.2 0 .9.2 1.9.7 2.7.1.2.2.3.2.5.2.8.6 1.5.8 2.3.2.8.6 1.4 1 2.1.2.2.3.4.6.5.1 0 .2 0 .4.1.6 0 1.1.1 1.7.1 1.5.1 1.5.1 2.7.4 1.5-.3 3-.4 4.5-.7.3-.1.6 0 .9.1.1.1.2.1.3.1.4-.1.4-.5.7-.7.1-.1.3-.1.5-.2.9-.6 1.5-1.5 2.1-2.3 0 0 0-.1.1-.1l.6-1.2c.4-.9.7-1.8.8-2.8.1-1.5.2-2.9.3-4.4 0-.6 0-1.2.1-1.8.1-.6-.1-1.2-.1-1.8 0-.1 0-.2-.1-.3-.3-.7-.6-1.4-1-2.1-.2-.3-.4-.6-.6-1-.6-1-1.4-1.7-2.4-2.2-.4 0-.7-.1-1-.1-.1 0-.3-.2-.3-.4 0-.1.2-.3.3-.3.6-.1 1.2.1 1.7.5.9.6 1.7 1.2 2.3 2.1.2.4.5.7.7 1.1.4.5.7 1.2 1 1.8.1.2.2.5.2.7.1.8.2 1.5.1 2.3v.8c0 1.7-.1 3.4-.3 5.2-.1.7-.2 1.4-.5 2v.2c.1.1.1.2.2.3 0 .2-.1.3-.3.4-.2.1-.3.2-.5.3-.3.9-1 1.5-1.4 2.3.4.2.8.1 1.1.2h.5l.9-.9c1-1 1.7-2.2 1.7-3.7v-.3c.1-1.4.2-2.8.2-4.3 0-1 .1-2.1 0-3.1V15c0-.5-.1-.9-.1-1.4-.1-1-.4-1.9-.9-2.8-.1-.2-.2-.3-.3-.4-.5-.8-1.2-1.4-1.9-2.1-.3-.3-.7-.5-1.1-.7-.2-.1-.4-.1-.6 0-.5.3-1 .6-1.5 1-.3.3-.7.6-1.1 1-.4.2-.7.3-1 .5l-.7.7zM9.6 2.4v.3c.1.6.2 1.1.2 1.7 0 .7.2 1.3.3 2 0 .2.1.4.4.5.6.1 1.3.2 2 .2.4 0 .8-.1 1.2-.3.2-.1.4-.3.4-.6 0-.7.1-1.4.1-2.1 0-.5 0-1-.2-1.5-.1 0-.1-.1-.2-.1h-.3c-.7.2-1.3.1-2 0-.6-.2-1.2-.2-1.8-.2.1 0 0 0-.1.1zM7.4 9.5c-.1.2 0 .3.2.3h.1c.6 0 1.3.2 2 .1.2 0 .4.1.6.1.5.1 1 .1 1.5.2.3 0 .5-.1.6-.3.1-.1.2-.3.4-.3.4-.1.7-.3 1.1-.4.3-.3.6-.6 1-.8.4-.3.7-.6 1.1-.9l-.1-.1c-.4-.1-.8-.1-1.2-.2-1.2.6-1 .6-2.7.8-.7-.1-1.3-.3-1.9-.2-.4.1-.7.2-1.1.4v.2l.1.1c.9 0 1.8.1 2.7-.1.4-.1.8 0 1.2 0 .1 0 .1.1.2.1v.2c-.1.2-.3.4-.5.4-.5 0-1.1-.1-1.5 0-.6.1-1.2.1-1.8.1H7.9c-.3.1-.4.2-.5.3zM14.1 1c-.4-.2-.9-.2-1.4-.2h-1.2c-.4.1-.9.1-1.2.3-.1 0-.1.1-.1.2 0 0 .1.1.1.2.4.1.8.1 1.1.2.6.3 1.2.2 1.8.2.3 0 .6-.2.8-.4.1-.1.2-.3.1-.5z"/>
    <path d="M12.9 10.8c.2-.2.4-.4.6-.7.3-.2.7-.3 1-.5.3-.3.7-.6 1.1-1 .4-.4 1-.7 1.5-1 .2-.1.4-.1.6 0 .4.2.8.4 1.1.7.7.7 1.4 1.3 1.9 2.1.1.1.2.3.3.4.4.9.7 1.8.9 2.8.1.5.1.9.1 1.4v3.3c.1 1 .1 2.1 0 3.1-.1 1.4-.1 2.8-.2 4.3v.3c0 1.5-.6 2.7-1.7 3.7l-.9.9h-.5c-.4-.1-.8 0-1.1-.2.4-.8 1.1-1.4 1.4-2.3.2-.1.3-.2.5-.3.2-.1.2-.2.3-.4-.1-.1-.1-.2-.2-.3v-.2c.3-.6.5-1.3.5-2 .1-1.7.3-3.4.3-5.2v-.8c.1-.8 0-1.6-.1-2.3 0-.3-.1-.5-.2-.7-.3-.6-.6-1.3-1-1.8-.3-.3-.5-.7-.7-1.1-.6-.9-1.4-1.5-2.3-2.1-.5-.3-1.1-.5-1.7-.5-.1 0-.3.2-.3.3 0 .2.2.4.3.4.3 0 .6.1 1 .1 1 .4 1.8 1.2 2.4 2.2.2.3.4.6.6 1 .4.6.8 1.3 1 2.1v.3c0 .6.2 1.2.1 1.8-.1.6 0 1.2-.1 1.8-.1 1.5-.2 2.9-.3 4.4-.1 1-.4 1.9-.8 2.8l-.6 1.2s0 .1-.1.1c-.6.8-1.2 1.7-2.1 2.3-.2.1-.4.2-.5.2-.3.3-.3.6-.7.7-.1 0-.2 0-.3-.1-.3-.1-.6-.2-.9-.1-1.5.3-3.1.4-4.5.7-1.3-.3-1.3-.3-2.7-.4-.6 0-1.1-.1-1.7-.1-.1 0-.3 0-.4-.1-.2-.1-.4-.3-.5-.5-.4-.7-.8-1.3-1-2.1-.2-.8-.6-1.5-.8-2.3 0-.2-.1-.3-.2-.5C1 25.9.8 24.9.8 24c0-1.1.1-2.2.2-3.2 0-.5.1-1 .2-1.5 0-.1.1-.3.1-.4 0-1.1.5-2 .8-3 .2-.7.6-1.2 1-1.8.5-.8 1-1.5 1.5-2.2.3-.5.7-.8 1.3-1.1.8-.2 1.7-.2 2.5-.2 1.1.1 2.2.2 3.3.4.4-.1.8 0 1.2-.2zm5.2-.8c.4.2.6.6 1.1.6.1-.1.2-.2.2-.3-.1-.3-.4-.6-.7-.7h-.2c-.2.1-.4.2-.4.4-.1 0-.2-.1-.3-.2-.1 0-.2 0-.3-.1-.3.3-.2.6-.1 1 .2.1.4 0 .4-.1.2-.2.3-.4.3-.6zM4.8 26.4c.3.3.4.5.5.6.4.4.9.7 1.4.9.2.1.5.2.7.3.3.1.7.2.9.4.4.3.9.4 1.3.5.6 0 1.1-.1 1.6-.1.2 0 .4-.1.6-.1 1-.5 1.8-1.3 2.3-2.3.1-.3.3-.6.3-.8.1-.6.2-1.3.3-1.9v-.6c0-.3.1-.5.1-.8 0-.7-.1-1.4-.1-2.1 0-.8-.2-1.5-.2-2.3-.1-.7-.3-1.4-.7-2.1-.1-.1-.3-.3-.4-.5-.4-.5-.9-.8-1.5-.9-.3 0-.7-.2-1-.3-.4.1-.8.1-1.2 0-.4.2-.9.3-1.3.4-.3 0-.5.1-.7.2-.9.3-1.6.8-2.2 1.6-.1.2-.2.4-.3.5-.2.5-.3.8-.4 1.2-.2.8-.3 1.5-.4 2.3-.1 1-.1 2.1-.2 3.1 0 1 .2 2 .6 2.8zM17 15.2c0-.1.1-.1.1-.2v-.3c0-.2-.1-.4-.4-.4-.1 0-.2 0-.3-.1-.1-.1-.2-.2-.3-.4-.1 0-.2 0-.4.1 0 0-.1 0-.1.1-.2.1-.2.5 0 .6.2.1.5.2.7.3.3.1.4.3.7.3zm-.1 2.6c.1-.3 0-.5-.2-.7-.1-.2-.4-.2-.6 0-.2.1-.2.4 0 .6.1.2.3.3.5.4.1-.2.2-.3.3-.3zM14.7 14s0-.1-.1-.1c-.2-.2-.5-.3-.8-.2-.2 0-.3.2-.2.4.1.2.2.4.5.4s.5-.1.6-.3V14zm0 15.1c-.1-.3-.2-.4-.3-.4H14c-.2 0-.2.2-.2.4s.2.3.3.3c.1 0 .2 0 .4-.1l.2-.2zm3.1-9.7c.1-.3-.1-.5-.3-.6-.1 0-.2 0-.3.1-.1.1-.2.3-.2.4 0 .1.2.2.4.2.1 0 .3 0 .4-.1zm-12.5-6s.1-.1 0 0c.2-.2.3-.4.2-.5 0-.1-.3-.2-.4-.2-.2 0-.4.2-.4.4s.1.3.3.3h.3zm9.5-.6c0 .2.2.4.4.4s.4-.2.4-.4-.2-.4-.4-.4-.4.2-.4.4zM4.5 15c-.2 0-.4.1-.4.2-.1.2.1.4.3.5.2.1.5-.1.5-.3 0-.2-.2-.4-.4-.4zm-.8 3.3h-.6c-.1 0-.2.1-.2.1-.1.1-.1.1-.1.2s.1.1.1.2c.3.1.6.1.8-.1.1 0 .1-.1.1-.2.1-.1 0-.2-.1-.2zm11.5 9c.1.2.2.5.6.4.2-.2.2-.4 0-.7-.4 0-.4 0-.6.3zm1.7-1.4c-.1-.1-.3-.2-.4-.2-.1 0-.2.1-.2.1-.1.2-.1.4.1.6.4 0 .5 0 .5-.5z" style="fill:#e3e3e3"/>
    <path class="st2" d="M9.6 2.4c.1 0 .2-.1.3-.1.6 0 1.2 0 1.8.2.7.2 1.3.2 2 0h.3c.1 0 .1.1.2.1.1.5.2 1 .2 1.5 0 .7 0 1.4-.1 2.1 0 .3-.2.5-.4.6-.5.2-.9.3-1.3.3-.7 0-1.4-.1-2-.2-.2-.1-.4-.3-.4-.5-.1-.7-.3-1.3-.3-2 0-.6-.1-1.1-.2-1.7-.1-.1-.1-.2-.1-.3z"/>
    <path class="st3" d="M7.4 9.5c.1-.1.3-.1.5-.2h1.5c.6 0 1.2 0 1.8-.1.5-.1 1 0 1.5 0 .2 0 .4-.2.5-.4v-.2c-.1 0-.2-.1-.2-.1h-1.2c-.9.2-1.8 0-2.7.1 0 0-.1 0-.1-.1v-.2c.4-.3.7-.4 1-.6.6 0 1.3.2 2 .3 1.8-.2 1.6-.2 2.9-.9.4.1.8.1 1.2.2 0 0 .1 0 .1.1-.4.3-.8.6-1.1.9-.3.3-.7.6-1 .8-.4.1-.8.2-1.1.4-.1.1-.3.2-.4.3-.1.3-.3.4-.6.3-.5-.1-1-.1-1.5-.2-.2 0-.4-.1-.6-.1-.9.2-1.6 0-2.3 0h-.1c-.1-.1-.2-.2-.1-.3z"/>
    <path class="st2" d="M14.1 1c.2.2.1.4 0 .5-.2.2-.5.4-.8.4-.6 0-1.2.1-1.8-.2-.4-.1-.8-.2-1.1-.2-.1 0-.1-.1-.1-.2s.1-.2.1-.2c.4-.2.8-.3 1.2-.3.4-.1.8 0 1.2 0 .4 0 .8.1 1.3.2z"/>
    <path class="st0" d="M4.8 26.4c-.4-.8-.6-1.8-.6-2.9 0-1 .1-2.1.2-3.1.1-.8.2-1.5.4-2.3.1-.4.2-.7.4-1.2.1-.1.2-.3.3-.5.5-.8 1.3-1.2 2.2-1.6.2-.1.5-.2.7-.2.5-.1.9-.3 1.3-.4.4.2.8.2 1.2 0 .3.1.7.2 1 .3.6.1 1.1.4 1.5.9.1.2.3.3.4.5.4.7.6 1.4.7 2.1.1.8.2 1.5.2 2.3 0 .7.1 1.4.1 2.1 0 .3 0 .5-.1.8v.6c0 .6-.2 1.3-.3 1.9 0 .3-.2.6-.3.8-.5 1.1-1.3 1.8-2.3 2.3-.2.1-.4.1-.6.1-.5 0-.9.1-1.6.1-.3-.1-.8-.2-1.3-.5-.3-.2-.6-.3-.9-.4-.2-.1-.5-.2-.7-.3-.5-.2-1-.5-1.4-.9-.1 0-.2-.1-.5-.5zm2.1-10c.2 0 .4 0 .6.1.4.1.9.1 1.3-.1.2-.1.5-.1.8-.1.3 0 .7 0 1 .1.1-.1.2-.3.4-.4.1-.1.2-.1.2-.1.4.1.4.1.5.4l-.3.3c.1.4.5.2.7.5.1.5.1 1.1.4 1.6.3.1.6.1.7.5-.2.2-.4.3-.6.5.1.1.1.2.1.3.2.2.6 0 .7.3.1.2 0 .4-.2.5-.1.1-.3.1-.4.1-.1 0-.1.1-.2.2-.1.4-.1.8 0 1.3.3.2.8.2.8.7-.1 0-.2.1-.3.1-.2 0-.3-.1-.5.2-.1.3-.2.7-.1 1.1l.2.2c.1.1.2.1.3.2.1.1.1.3.1.3-.1.1-.1.1-.2.1-.2.1-.4-.1-.7.1-.1.2-.3.5-.5.7.1.2.2.5.3.7-.2.4-.3.5-.6.4-.2-.1-.2-.4-.5-.4h-.3c-.4.1-.4.1-.5.5v.3c0 .1-.1.1-.2.2s-.3 0-.4-.1c0-.1-.1-.1-.1-.2s-.1-.2-.1-.4c-.4 0-.7-.1-1 .1 0 .3.2.6.3.9.4-.1.5 0 .7.1 1.5.2 1.5.2 2.5-.2.3-.2.5-.4.7-.5.5-.4.9-1 1.1-1.6.3-1.1.5-2.2.4-3.3 0-.7 0-1.4-.1-2.1 0-1.2-.1-2.4-.4-3.5-.3-.5-.7-.9-.9-1.2-.3-.1-.5-.2-.7-.3-.7 0-1.4-.2-2 0h-.4c-.3 0-.5.1-.7.3-.1.1-.2.1-.2.2-.3-.1-.5-.1-.7-.2-.3.1-.5.2-.7.3-.1-.1-.2 0-.2.1 0 0-.1.1-.1.2-.3 0-.4.2-.6.4-.4.6-.8 1.3-.8 2 0 .3-.1.7-.2 1-.2.6-.2 1.2-.1 1.8 0 .1.1.2.2.1.1 0 .1-.1.2-.1l.1-.1v-.6c0-.2-.1-.4-.1-.6.1-.2.2-.4.2-.6.1-.3.2-.7.3-1 .1-.5.3-.9.7-1.2.1-.1.2-.2.2-.3-.1-.3-.1-.6-.1-.8zm-.3 2.9c-.1.4-.1.8.3 1 .4-.1.9-.2 1.4-.1.5.1.8.3 1 .7.1.2 0 .3.2.5.3 0 .4-.3.6-.5.2-.2.5-.4.7-.5.4-.1.8-.3 1.1-.4-.2-.9-.2-1.7-.8-2.4-.2-.2-.5-.3-.7-.3-.1 0-.1.1-.2.1.1.2.1.3.2.5.1 0 .2.1.3.1.1 0 .2.1.3.1.1.2.1.5 0 .7 0 .1-.1.2-.2.2-.2.1-.4.1-.6.1-.2.2-.3.4-.5.7-.2 0-.5 0-.8.1l-.3-.6c-.2 0-.3.1-.5.1-.1-.3-.2-.4-.2-.6 0-.3 0-.5.2-.7.3-.2.7 0 1-.4.1-.2.2-.3.2-.5 0-.1-.1-.2-.1-.1-.8.2-1.5.4-2 1 0 .2-.1.4-.1.7-.2.1-.4.3-.5.5zm5.2 4-.2-.2c-.4 0-.7.2-1 .4v.3c.3.1.7.3 1 .4.2-.3.2-.6.2-.9zm-4 3.6c-.2-.4-.6-.5-1-.4-.1 0-.2.1-.3.2-.1.1-.1.1 0 .2s.3.1.4.2c0 0 .1 0 .1.1.1 0 .2.1.4 0 .2 0 .3-.1.4-.3zm-1.2-2.3c0 .1.1.3.4.4h1.3s.1 0 .1-.1.1-.1.1-.2c0 0 0-.1-.1-.1-.1-.1-.3-.2-.5-.1-.4.3-.8.2-1.2 0h-.1v.1zm3.9-2.8 1.2-.9c-.1 0-.2-.1-.2-.1-.5.1-.9.3-1.1.7-.1.1-.1.2.1.3zm-5.2 3c.4-.2.4-.4.2-.9h-.2c-.2 0-.3.2-.3.4.1.2.1.4.3.5zm.1 1c.1.2.3.4.4.6H6c.2-.3.3-.6-.1-.9-.4-.1-.4-.1-.5.3zm4.3.2c-.2-.2-.1-.5-.3-.6-.3.2-.5.4-.8.6.4.2.4.2 1.1 0zm-4.6-2.7h.3c.2-.2.2-.4.1-.6-.1-.1-.2-.2-.3-.1-.1 0-.2.1-.2.3 0 .1 0 .2.1.4zm6.6-1.4c-.4 0-.6.2-.8.5l.1.1c.2-.1.5-.1.7-.2.1 0 .1-.1.1-.2s-.1-.2-.1-.2zm-2 1.6c.2-.4.3-.6.3-.8 0-.1-.1-.2-.1-.2-.1-.1-.2 0-.2 0-.1.3-.1.6 0 1zM8.1 22c-.1 0-.1 0 0 0-.2.2-.1.4 0 .5l.1.1c.1 0 .1-.1.1-.2 0-.2-.1-.4-.2-.4zm-.4 1.5c0-.1 0-.2-.1-.2 0 0-.1-.1-.2-.1s-.1.1-.1.2.1.1.2.1c.1.1.2.1.2 0zm.8-2.4c0-.1 0-.2-.2-.3-.1 0-.2 0-.2.1v.2c0 .1.1.1.2.1 0 .1.1 0 .2-.1zM6.7 23c-.1 0-.2-.1-.3-.1-.1 0-.1.1-.1.2s.1.2.1.1c.2 0 .2-.1.3-.2zm4.6 2s-.1 0 0 0c0 .2 0 .2.1.2 0 0 .1 0 .1-.1-.1-.1-.2-.1-.2-.1zm-.5.8c0-.1-.1-.1-.2-.1 0 0-.1 0-.1.1-.1.1.1.1.3 0-.1 0-.1 0 0 0zM17 15.2c-.3 0-.4-.3-.6-.4-.2-.1-.5-.2-.7-.3-.2-.1-.1-.4 0-.6l.1-.1c.1 0 .2 0 .4-.1.1.1.2.3.3.4.1 0 .2 0 .3.1.3.1.4.2.4.4v.3c-.1.2-.2.2-.2.3zM16.9 17.8c-.1.1-.2.1-.3.2-.2-.1-.4-.2-.5-.4-.2-.2-.1-.4 0-.6.2-.1.5-.1.6 0 .2.3.3.5.2.8zM18.2 10c0-.2.1-.3.2-.4.1 0 .2-.1.2 0 .3.1.6.3.7.7 0 .1 0 .2-.2.3-.4 0-.6-.5-.9-.6zM14.7 14v.1c-.1.2-.3.3-.6.3-.2 0-.4-.2-.5-.4 0-.2.1-.3.2-.4.3-.1.6 0 .8.2.1.1.1.2.1.2zM14.7 29.1c-.1.1-.1.2-.2.3-.1 0-.2.1-.4.1s-.3-.2-.3-.3c0-.2.1-.4.2-.4s.2-.1.4 0c.1-.1.1 0 .3.3zM17.8 19.4c-.1.1-.3.2-.5.1-.2 0-.4-.1-.4-.2s0-.3.2-.4c.1-.1.2-.1.3-.1.3.1.5.3.4.6zM18.1 10c-.1.2-.1.4-.2.6-.1.2-.3.2-.4.1-.2-.3-.2-.6.1-1 .1 0 .2 0 .3.1.1 0 .2.1.2.2zM5.3 13.4H5c-.2 0-.3-.2-.3-.3 0-.2.1-.4.4-.4.2 0 .4.1.4.2.1.1 0 .3-.2.5.1-.1 0 0 0 0zM14.8 12.8c0-.2.2-.4.4-.4s.4.2.4.4-.2.4-.4.4-.4-.2-.4-.4zM4.5 15c.2 0 .4.2.4.5 0 .2-.2.3-.5.3-.2-.1-.3-.3-.3-.5 0-.3.2-.4.4-.3zM3.7 18.3c0 .1.1.1.1.2s-.1.2-.1.2c-.3.2-.5.2-.8.1-.1 0-.1-.1-.1-.2s.1-.2.1-.2c.1-.1.1-.1.2-.1.2-.1.4 0 .6 0zM15.2 27.3c.2-.3.2-.3.6-.3.2.2.2.5 0 .7-.4.1-.5-.2-.6-.4zM16.9 25.9c0 .5-.1.6-.6.5-.2-.2-.2-.4-.1-.6 0-.1.1-.1.2-.1.3 0 .4.1.5.2z"/>
    <path class="st3" d="M6.9 16.4c0-.1 0-.2.1-.2 0-.1.1-.2.2-.2.2-.1.5-.2.7-.3.2.1.4.1.7.2.1-.1.2-.1.2-.2.2-.2.4-.3.7-.3.1 0 .3.1.4 0 .7-.2 1.4-.1 2 0 .2.1.4.2.7.3.3.4.7.7.9 1.2.3 1.1.4 2.3.4 3.5 0 .7 0 1.4.1 2.1.1 1.1-.1 2.2-.4 3.3-.2.6-.5 1.2-1.1 1.6-.2.2-.5.4-.7.5-1.1.4-1.1.4-2.5.2-.2 0-.3-.1-.5-.2-.2-.3-.3-.6-.3-.9.3-.2.7-.1 1-.1 0 .2 0 .3.1.4 0 .1.1.2.1.2.1.1.3.1.4.1.1 0 .1-.1.2-.2v-.3c.1-.4.1-.4.5-.5h.3c.2 0 .3.3.5.4.3.1.3.1.6-.4-.1-.2-.2-.4-.3-.7.2-.3.3-.5.5-.7.2-.2.5 0 .7-.1.1 0 .2-.1.2-.1.1-.1 0-.3-.1-.3-.1-.1-.2-.1-.3-.2-.1 0-.1-.1-.2-.2 0-.4 0-.8.1-1.1.2-.2.4-.1.5-.2.1 0 .2-.1.3-.1 0-.6-.5-.5-.8-.7-.1-.4-.1-.8 0-1.3 0-.1.1-.2.2-.2.1-.1.3-.1.4-.1.2-.1.3-.3.2-.5-.2-.3-.5-.1-.7-.3 0-.1-.1-.2-.1-.3.2-.2.4-.4.6-.5-.1-.4-.4-.4-.7-.5-.3-.5-.3-1-.4-1.6-.1-.3-.6-.2-.7-.5l.3-.3c0-.3-.1-.3-.5-.4-.1 0-.2 0-.2.1l-.4.4c-.3 0-.7 0-1-.1-.3 0-.5 0-.8.1-.4.2-.8.2-1.3.1-.4.1-.6.1-.8.1zm5.7 1.3c.2 0 .4-.1.5-.3.1-.2-.2-.4-.4-.4s-.4.2-.4.4c0 .1.1.3.3.3z"/>
    <path class="st3" d="M6.6 19.3c.2-.2.3-.4.5-.5 0-.2.1-.4.1-.7.5-.6 1.3-.9 2-1 .1 0 .2.1.1.1-.1.2-.2.4-.2.5-.3.3-.7.2-1 .4-.2.2-.3.4-.2.7 0 .2.1.3.3.4.1 0 .3-.1.5-.1l.3.6c.3 0 .5 0 .8-.1.2-.2.3-.4.5-.7.2 0 .4-.1.6-.1.1 0 .1-.1.2-.2.1-.2.1-.4 0-.7-.1 0-.2-.1-.3-.1-.1 0-.2-.1-.3-.1-.1-.2-.1-.3-.2-.5.1 0 .1-.1.2-.1.3 0 .5.2.7.3.6.7.6 1.6.8 2.4-.4.1-.7.2-1.1.4-.2.2-.4.4-.7.5-.2.2-.3.5-.6.5-.1-.1-.1-.3-.2-.5-.2-.4-.5-.7-1-.7-.5-.1-.9 0-1.4.1-.6-.1-.5-.4-.4-.8zM6.9 16.4v.8c-.1.1-.1.2-.2.3-.4.3-.6.7-.7 1.2-.1.3-.2.7-.3 1-.1.2-.1.4-.2.6 0 .2.1.4.1.6v.6s0 .1-.1.1-.1.1-.2.1-.2 0-.2-.1c-.1-.6 0-1.2.1-1.8.1-.3.2-.7.2-1 .1-.7.4-1.4.8-2 .2-.2.4-.4.7-.4zM11.8 23.3c0 .3 0 .6-.2.8-.3-.1-.7-.3-1-.4v-.3c.3-.2.7-.4 1-.4 0 .2.1.3.2.3zM7.8 26.9c-.1.2-.3.3-.5.4h-.4s-.1 0-.1-.1c-.1-.1-.2-.2-.3-.2-.1-.1-.1-.2 0-.2.1-.1.2-.1.3-.2.5-.2.8-.1 1 .3zM6.6 24.6l.1-.1h.1c.4.2.8.3 1.2 0 .1-.1.3-.1.5.1l.1.1c0 .1-.1.1-.1.2l-.1.1H7.1c-.4-.1-.5-.3-.5-.4zM10.5 21.8c-.1-.1-.2-.2-.1-.2.2-.4.6-.7 1.1-.7.1 0 .1.1.2.1-.4.2-.8.5-1.2.8zM5.3 24.8c-.2-.1-.2-.4-.3-.6 0-.1.1-.3.3-.4h.2c.3.6.2.8-.2 1zM5.4 25.8c.1-.3.1-.3.6-.3.3.3.2.6.1.9h-.2c-.2-.2-.4-.5-.5-.6zM9.7 26c-.7.2-.7.2-1.2 0 .3-.2.5-.4.8-.6.3.1.2.4.4.6zM5.1 23.3c-.1-.2-.1-.3-.1-.5 0-.1.1-.2.2-.3.1 0 .2 0 .3.1.1.2.1.4-.1.6-.1 0-.2.1-.3.1zM11.7 21.9c0 .1.1.1.1.2s-.1.2-.1.2c-.2.1-.5.1-.7.2l-.1-.1c.2-.3.4-.5.8-.5zM9.7 23.5c-.1-.4-.2-.7 0-1 0-.1.1-.1.2 0 .1 0 .1.1.1.2 0 .2-.1.4-.3.8zM8.1 22c.2.1.3.2.3.4 0 .1-.1.2-.1.2s-.1 0-.1-.1c-.2-.2-.3-.3-.1-.5-.1 0-.1 0 0 0zM7.7 23.5c-.1 0-.2.1-.2.1-.1 0-.1-.1-.2-.1-.1-.1 0-.2.1-.2s.2 0 .2.1c.1 0 .1.1.1.1zM8.5 21.1c-.1 0-.1.1-.2.1s-.2-.1-.2-.1c0-.1-.1-.1 0-.2 0-.1.1-.1.2-.1.1.1.2.2.2.3zM6.7 23c-.1.1-.2.2-.3.2-.1 0-.1 0-.1-.1s.1-.2.1-.2c.1 0 .2 0 .3.1zM11.3 25c.1 0 .1.1.2.1l-.1.1c-.1 0-.2-.1-.1-.2-.1 0 0 0 0 0zM10.8 25.8c-.1 0-.1 0 0 0-.1.2-.3.1-.3 0l.1-.1c0-.1.1 0 .2.1z"/>
    <path class="st0" d="M12.6 17.7c-.2 0-.3-.2-.3-.3 0-.2.2-.4.4-.4s.4.2.4.4c-.1.1-.3.3-.5.3z"/>
</svg>
