<svg xmlns="http://www.w3.org/2000/svg" width="46.1" height="75.3" style="overflow:visible;enable-background:new 0 0 46.1 75.3" xml:space="preserve">
    <style>
        .st0{fill:#7a6a56}.st2{fill:#fff}
    </style>
    <path class="st0" d="M1.7 9.2C1.2 8.6.7 8.1.3 7.7c.1-.8.4-1.4.9-2 .2-.1.5-.2.7-.3.7-.1 1.1-.5 1.3-1.1 0-.1.1-.2.2-.4.8-.5 1.7-.6 2.7-.7.8-.1 1.6-.1 2.3-.4 1.5-.5 3-.8 4.6-1.1.7-.1 1.3-.4 2-.5 1.7-.3 3.3-.6 5-.6.7 0 1.4-.2 2.1-.2.7 0 1.4.2 2 0 1.4-.4 2.8-.4 4.2-.4 1.7 0 3.4-.1 5 .4.6.2 1.2.1 1.8.2 1.2.1 2.3.4 3.4.7.5.6.7 1.3.9 1.9.2.7.3 1.3.5 2.1-.1.2-.1.5-.2.8-.2.6-.3 1.2-.1 1.7.8 1.9 1.3 3.9 1.9 5.9.1.4.3.8.3 1.2 0 1.5.4 2.9.6 4.4.2 1 .1 2 .4 2.9.3.9.2 2 .6 2.9.1.2.1.4.1.6-.1 2.7.8 5.3.8 8 0 1.2.3 2.3.5 3.5.2 1.2.4 2.3.4 3.5 0 1.4.1 2.8.2 4.2 0 .3 0 .6.1.9.7 2.2.3 4.5.7 6.8-.5 1.2-.9 2.5-1.4 3.6-1.7 3.5-3.1 7-4.7 10.6-.5 1.2-1.1 2.3-1.8 3.4-.5.8-1.1 1.4-1.4 1.9-.7.6-1.3.5-1.9.5-.9 0-1 .2-1.1 1.3v.3c-.2.4-.5.7-.9.6-3.7 0-7.3.4-11 .2-1.1-.1-2.2.1-3.5.2-1-.3-2.3-.6-3.5-.9-1.2-.3-2.1-1.1-2.7-2.2-.5-1.1-1-2.1-1.8-3-.3-.4-.5-.9-.6-1.3-.2-.8-.6-1.4-1.2-2-.4-.4-.8-.9-1-1.4-.5-.9-.9-1.8-1.6-2.5-.2-.2-.2-.7-.4-1.3-.3-.4-.7-.9-1.1-1.5-.4-.6-.7-1.2-1.1-1.8-.4-.6-.7-1.2-1.3-2.1C1.9 54 1.3 52.5 1 51c-.3-1.7-.7-3.5-.7-5.3 0-2-.1-4-.1-5.9 0-.9.1-1.8.1-2.7v-14c0-2.1-.2-4.2.2-6.2-.2-1.5.6-2.9.5-4.4.3-.9.5-2 .7-3.3zM9.1 48c.3.9.5 1.9.9 2.7.6 1.2.9 2.6 1.6 3.5 1.6 1 3.1 1.9 4.5 2.8 2.3.6 2.6.6 4 .4 1-1.1 1.6-2.4 2.3-3.6.8-.6 1.5-.9 2.4-.8.2.1.5.2.7.3 1 .4 2 .8 2.7 1.7.3.4 1 .7 1.5.9.3.1.8.1 1.2.1.2 0 .4-.1.6-.1 2.4-1.1 2.6-.9 3.6-3.6.5-1.3.7-2.7.7-4.1 0-2.4-.7-4.7-.9-7 0-.1-.1-.2-.1-.3-.2-1.9-.8-3.8-.8-5.8 0-.8 0-1.6-.2-2.3-.3-.9-.4-1.7-.4-2.6 0-.9 0-1.8-.3-2.6-.3-.9-.2-1.9-.6-2.9-.5-1.5-.9-3-.8-4.6.1-1.3-.1-2.6-.5-3.8-.2-.7-.3-1.3-.5-2-.1-.8-.3-1.6-.4-2.3-.6-.7-1.1-1.4-1.4-2.3 0-.1-.3-.2-.5-.3-.6.2-1.3.4-1.9.6-.4.1-.8.3-1.1.3-2 .1-3.9.7-5.8 1.1-2.5-.5-5.1-.2-7.7-.5-.2 0-.4.1-.6.1-.1.2-.3.5-.3.7-.2.9-.2 1.8-.5 2.6-.3.9-.2 2-.6 2.9-.1.2 0 .6 0 .9.1.5.1 1 0 1.5-.1 1.8-.2 3.6-.3 5.3 0 1.7-.1 3.4-.3 5-.1.7 0 1.4.1 2.1.1 1 .2 2 .1 3-.2 1.6.3 3.2-.2 4.7-.1.2 0 .4 0 .6.4 1.3 0 2.7.3 4.1.1.8 0 1.6-.2 2.4-.2.1-.3.6-.3 1.2zm33.8 4.7v-3.6c0-.4 0-.8-.1-1.2-.5-2-.5-4.1-.6-6.2 0-.3 0-.6-.1-.9-.5-1-.3-2.1-.4-3.2-.1-.7 0-1.4-.2-2.1-.3-1-.3-2-.5-2.9-.2-1.1-.6-2.1-.5-3.2.1-1-.5-1.9-.5-2.9-.1-.9-.1-1.8-.5-2.6-.1-.2-.1-.6-.1-.9.1-.8-.1-1.6-.3-2.3-.3-1-.4-1.9-.4-2.9 0-1.2-.3-2.4-.6-3.5-.2-.6-.4-1.1-.5-1.7-.2-1.3-.7-2.5-1.4-3.5-.5-.6-.4-1.3 0-1.9 0-.1 0-.2.1-.2-.2-.3-.5-.3-.8-.1-.7.4-1.2 1.1-2 1.2-.4.1-.6.4-.6.4-.3 1.8.4 3 .5 4.3 0 .7.1 1.4.2 2.1.1.8.3 1.5.5 2.3.3 1.3.6 2.5.6 3.8 0 .5.2 1 .3 1.5.2 1.9.8 3.6 1 5.5.1 1.2.3 2.3.4 3.5 0 1.2.2 2.4.4 3.5.3 2.1.8 4.1.9 6.2.1.8.2 1.6.4 2.3.3 1.4.5 2.9.7 4.4.3 2 0 3.9-.7 5.8-.4 1.1-.8 2.2-1.2 3.4-.5.6-1 1.1-1.4 1.8-.5.7-.9 1.6-1.2 2.4-.7 1.8-1.8 3.3-2.9 4.8-.5.7-1.1 1.4-2 2-1.1.2-2.3.6-3.6.5-1.2-.2-2.4-.3-3.5-.6-.8-.2-1.5-.4-2.3-.4-1.6.1-2.9-.4-4.1-1.4-.4-.3-.8-.6-1.1-.8-.5-.9-1-1.6-1.4-2.4-.4-.9-.9-1.8-1.5-2.5-1.5-1.7-2.4-3.6-3.2-5.6-.2-.6-.4-1.3-.8-1.9-.7-1.1-1-2.3-1.5-3.4.1-1.6 0-3.1.2-4.6.3-2 .4-3.9.3-5.9 0-1.1-.1-2.2 0-3.3.1-1.2 0-2.4-.2-3.6-.1-.6-.1-1.2 0-1.8.2-2.1.3-4.1.4-6.2.1-1.4.1-2.8.3-4.1.2-1.3.2-2.6.2-3.9 0-.6 0-1.2.2-1.8.3-1.1.4-2.1.4-3.2 0-.3-.1-.6-.2-.8-1.2-.5-1.9-.9-2.7-.8-.5.2-.8.6-1 1.1-.1.7-.1 1.4-.4 2-.7 2-.4 4.1-1 6.1-.1.2 0 .4 0 .6 0 3.5.1 6.9.1 10.4v7.7c0 3.6 0 7.1.5 10.5.3 2 .6 3.9 1.6 5.7l1.2 2.7c.7.8 1.3 1.6 1.8 2.5.6 1.1 1.2 2.3 1.9 3.3.5.9.9 1.8 1.1 2.6.5.6 1.1 1.1 1.4 1.7.6 1.4 1.7 2.4 2.6 3.6.7.9 1.5 1.5 2.9 1.9 2 .1 4.2.1 6.5.2 2.6 0 5.1-.5 7.7-.7.2-.2.5-.3.7-.5 1.5-1.3 3.2-2.4 3.7-4.5 0-.2.2-.3.3-.5.8-.9 1.2-2 1.6-3.2.7-2.1 1.7-4.2 2.7-6.2.6-1.3 1.2-2.5 1.7-3.9zM17.5 64c1.2.4 2.1.8 3.1.9 1.9.3 3.7.4 5.6.6.5 0 1-.2 1.4-.5 1.3-1 2.3-2.2 3.2-3.5.4-.6.8-1.3.7-2.2-.7-.7-1.5-.2-2.5-.4-.4-.3-1-.6-1.6-1-.7-.5-1.4-1.1-2-1.7-.3-.3-.7-.2-1.2.1-.5 1-1 2-1.5 3.1-.1.2-.2.3-.3.5-.3.5-1.2.9-1.8.7-1.7-.5-3.4-1-5.1-1.4-.1 0-.2.2-.4.4.1.2.2.5.4.8.6 1.1 1.3 2.3 2 3.6zM15.8 4.1c-1.4.5-2.8.7-4 1.3-.7.4-1.5.4-2.3.6-.3.1-.5.3-.8.5-.1.1 0 .3-.1.5 1 .3 2.1.6 3.2.6.6 0 1.2 0 1.8.1.6.1 1.1.3 1.5.4.7-.1 1.2-.3 1.7-.2 1.1.3 2.1.2 3.2 0l1.8-.3c1.4-.1 2.7-.4 4-.9 1-.4 2.1-.6 3.1-.8 1.4-.2 2.7-.7 4-1.2.3-.1.5-.3.6-.6 0-.2-.3-.5-.6-.6-.3 0-.6-.1-.9-.1-3.6-.1-7.3 0-10.9.1-.4 0-.8 0-1.2.2-1.4.5-2.8.5-4.1.4z"/>
    <path d="M9.1 48c.1-.6.1-1.1.2-1.5.2-.8.3-1.6.2-2.4-.2-1.4.2-2.8-.3-4.1-.1-.2-.1-.4 0-.6.5-1.5 0-3.1.2-4.7.1-1 0-2-.1-3-.1-.7-.1-1.4-.1-2.1.2-1.7.3-3.3.3-5 0-1.8.1-3.6.3-5.3v-1.5c0-.3-.1-.6 0-.9.4-.9.3-2 .6-2.9.3-.9.3-1.7.5-2.6.1-.3.2-.5.3-.7.2-.1.4-.2.6-.1 2.6.3 5.1 0 7.7.5 1.9-.3 3.8-.9 5.8-1.1.4 0 .8-.2 1.1-.3.7-.2 1.3-.4 1.9-.6.2.1.5.2.5.3.3.9.8 1.6 1.4 2.3.1.8.2 1.5.4 2.3.1.7.3 1.4.5 2 .3 1.3.5 2.5.5 3.8-.1 1.6.3 3.2.8 4.6.3 1 .3 2 .6 2.9.3.9.3 1.7.3 2.6 0 .9.1 1.8.4 2.6.2.7.2 1.6.2 2.3 0 2 .6 3.9.9 5.8 0 .1.1.2.1.3.2 2.4.9 4.7.9 7 0 1.4-.2 2.7-.7 4.1-1 2.7-1.2 2.5-3.6 3.6-.1.4-.3.4-.5.4-.4 0-.8 0-1.2-.1-.5-.2-1.2-.5-1.5-.9-.7-.9-1.7-1.3-2.7-1.7-.3-.1-.6-.2-.7-.3-.9-.1-1.6.2-2.4.8-.7 1.1-1.3 2.5-2.3 3.6-1.5.2-1.7.1-4-.4-1.4-.9-2.9-1.8-4.5-2.8-.7-.9-1.1-2.3-1.6-3.5-.6-.8-.8-1.8-1-2.7zm17.1-31.1c0-.9-.4-1.5-1.1-2-.3-.2-.7-.2-1.1-.1-.4.1-.7.4-.9.7-.5.6-.5 1.3 0 1.9.3.3.6.6.9.8.4.3.9.3 1.4.1.5-.3.8-.8.8-1.4zM28 27.2c.2-.2.5-.2.5-.4.3-.9.2-1.7-.2-2.6-.2-.4-.5-.6-.9-.6-1 0-1.9.6-2.2 1.6 0 .2 0 .4.1.5.2.3.5.6.8.8.7.4 1.3.5 1.9.7zM21.8 26c1-.1 1.5-.7 1.5-1.5 0-.3.1-.6 0-.9-.1-.3-.3-.5-.5-.7-.6-.5-1.6-.4-2.1.2-.6.7-.6 1.5 0 2.1.4.3.8.6 1.1.8z" style="fill:#f1f8f6"/>
    <path class="st2" d="M42.9 52.7c-.5 1.4-1.1 2.6-1.6 3.8-1 2-2 4.1-2.7 6.2-.4 1.1-.8 2.2-1.6 3.2-.1.2-.3.3-.3.5-.6 2.1-2.2 3.2-3.7 4.5-.2.2-.5.3-.7.5-2.6.3-5.1.7-7.7.7-2.3 0-4.5-.1-6.5-.2-1.4-.4-2.3-1-2.9-1.9-.9-1.2-2-2.2-2.6-3.6-.3-.6-.9-1.1-1.4-1.7-.2-.8-.5-1.7-1.1-2.6-.8-1.1-1.5-2.2-2.1-3.3-.5-.9-1.1-1.6-1.8-2.5-.4-.8-.7-1.8-1.2-2.7-.8-1.7-1.2-3.6-1.5-5.6-.5-3.4-.5-6.9-.4-10.4.1-2.6 0-5.2 0-7.7 0-3.5-.1-6.9-.1-10.4 0-.2-.1-.4 0-.6.6-2 .3-4.1 1-6.1.2-.6.2-1.4.4-2 .1-.5.4-.9 1-1.1.8-.1 1.5.2 2.3.5.1.2.2.5.2.8 0 1.1-.1 2.2-.4 3.2-.2.6-.2 1.2-.2 1.8 0 1.3 0 2.6-.2 3.9-.2 1.4-.2 2.8-.3 4.1-.1 2.1-.2 4.2-.4 6.2-.1.6-.1 1.2 0 1.8.2 1.2.3 2.4.2 3.6-.1 1.1-.1 2.2 0 3.3.1 2 0 3.9-.3 5.9-.2 1.5-.1 3-.2 4.6.5 1.1.8 2.3 1.5 3.4.4.6.6 1.3.8 1.9.8 2 1.7 4 3.2 5.6.6.7 1.1 1.6 1.5 2.5.4.8.9 1.5 1.4 2.4.3.2.7.5 1.1.8 1.2.9 2.6 1.5 4.1 1.4.8-.1 1.5.1 2.3.4 1.1.3 2.3.4 3.5.6 1.3.2 2.5-.3 3.6-.5.9-.6 1.5-1.2 2-2 1.1-1.5 2.2-3 2.9-4.8.3-.8.7-1.6 1.2-2.4.4-.7 1-1.2 1.4-1.8.4-1.2.7-2.3 1.2-3.4.7-1.9 1-3.8.7-5.8-.2-1.5-.4-2.9-.7-4.4-.2-.8-.3-1.5-.4-2.3-.1-2.1-.6-4.1-.9-6.2-.2-1.2-.3-2.4-.4-3.5 0-1.2-.2-2.4-.4-3.5-.2-1.9-.8-3.7-1-5.5l-.3-1.5c0-1.3-.3-2.5-.6-3.8-.2-.8-.4-1.5-.5-2.3-.1-.7-.1-1.4-.2-2.1-.1-1.3-.8-2.4-.5-4.3 0 .1.2-.3.6-.4.8-.2 1.3-.8 2-1.2.3-.1.6-.1.8.1 0 .1 0 .2-.1.2-.4.6-.5 1.3 0 1.9.8 1.1 1.3 2.2 1.4 3.5.1.6.3 1.1.5 1.7.3 1.1.6 2.3.6 3.5 0 1 .2 2 .4 2.9.2.8.4 1.5.3 2.3 0 .3 0 .6.1.9.4.8.4 1.7.5 2.6.1 1 .6 1.9.5 2.9-.1 1.1.3 2.1.5 3.2.2 1 .2 2 .5 2.9.2.6.2 1.4.2 2.1.1 1.1-.1 2.2.4 3.2.1.3.1.6.1.9.1 2.1 0 4.2.6 6.2.1.4.1.8.1 1.2.3 1.3.3 2.5.3 3.8z"/>
    <path class="st2" d="M17.5 64c-.8-1.3-1.5-2.4-2.2-3.6-.1-.2-.3-.5-.4-.8.2-.2.3-.4.4-.4 1.7.5 3.4.9 5.1 1.4.6.2 1.5-.2 1.8-.7.1-.2.2-.3.3-.5.5-1.1 1-2.1 1.5-3.1.4-.3.8-.4 1.2-.1.7.5 1.3 1.1 2 1.7.5.4 1.2.7 1.6 1 1 .2 1.8-.3 2.5.4.1.8-.3 1.5-.7 2.2-.8 1.3-1.9 2.5-3.2 3.5-.4.3-.9.5-1.4.5-1.9-.2-3.7-.3-5.6-.6-.8-.2-1.7-.6-2.9-.9zM15.8 4.1c1.3 0 2.6.1 4-.4.4-.1.8-.2 1.2-.2 3.6 0 7.3-.2 10.9-.1.3 0 .6.1.9.1.3 0 .6.4.6.6-.1.3-.3.5-.6.6-1.3.5-2.6.9-4 1.2-1.1.2-2.1.5-3.1.8-1.3.5-2.6.8-4 .9-.6 0-1.2.1-1.8.3-1.1.3-2.1.3-3.2 0-.4-.1-1 .1-1.7.2-.4-.1-.9-.3-1.5-.4-.6-.1-1.2-.1-1.8-.1-1.1 0-2.1-.4-3.2-.6 0-.2 0-.4.1-.5.4-.2.6-.4.9-.4.8-.2 1.6-.2 2.3-.6 1.2-.6 2.6-.9 4-1.4z"/>
    <path class="st0" d="M26.2 16.9c0 .6-.3 1.1-.9 1.4-.5.2-1 .1-1.4-.1-.3-.2-.6-.5-.9-.8-.5-.6-.5-1.3 0-1.9.2-.3.5-.6.9-.7.4-.1.8-.1 1.1.1.8.5 1.2 1.1 1.2 2zM28 27.2c-.6-.2-1.3-.3-1.9-.6-.3-.1-.6-.5-.8-.8-.1-.1-.1-.4-.1-.5.3-.9 1.2-1.6 2.2-1.6.4 0 .8.2.9.6.3.8.4 1.7.2 2.6 0 .1-.2.2-.5.3zM21.8 26c-.3-.3-.7-.5-1.1-.9-.6-.6-.6-1.4 0-2.1.5-.6 1.5-.7 2.1-.2.2.2.4.5.5.7.1.3 0 .6 0 .9 0 1-.5 1.5-1.5 1.6z"/>
</svg>
