<svg xmlns="http://www.w3.org/2000/svg" width="102.6" height="142.9" style="overflow:visible;enable-background:new 0 0 102.6 142.9" xml:space="preserve">
    <style>
        .st0{fill:#7a6a56}.st1{fill:#fff}.st2{fill:#ece1de}.st3{fill:#f1f8f6}.st4{fill:#eacac6}
    </style>
    <path class="st0" d="M19.2 6.1c4.4-1.9 9.2-4 14-5.9.6-.2 1.3-.2 2-.2.6 0 1.1.4 1.2.8.9 3.2 2.6 6 4.1 8.9 1.3 2.7 2.1 5.5 3.2 8.2.1.1.3.2.4.3.3.1.6 0 .8-.4.7-1.6 1-3.3 1.9-4.8.9-1.5 1.4-3.2 2-4.6 1.5-1.5 3-1.2 4.5-.7 1.7.6 3.2 1.3 4.8 2 .9.4 1.8 1 2.8 1.3.8.3 1.6.5 2.4.7 2.7 3.2 3.9 7 5 10.8.1.5.1 1 .2 1.5.2 3.8.7 7.6 0 11.4-.1.8-.1 1.7-.1 2.7.7.9 1.5 1.8 2.2 2.7.7 1 1.4 1.9 2.1 2.9.9 1.3 1.6 2.7 1.6 4.3.1 3 1.5 5.6 2.2 8.5 3.6 8.6 7.3 17.2 10.9 25.8 1.3 3 2.6 6 4 9 .5 1.1 1 2.2 1.7 3.2 1.3 1.9 2.2 3.9 2.8 6.1.8 2.7 2.3 5 3.8 7.3.4.6.8 1.1 1.3 1.6 2.6 3.2 1.8 7 .2 9.7-2 3.3-4.8 5.9-7.8 8.2-.8.6-1.6 1.3-2.5 1.9-1.7 1.2-3.2 2.7-5 3.7-2.6 1.4-5.3 2.7-8 3.6-3.5 1.2-6.8 2.5-10.1 4.1-2.9 1.4-5.9 2-9 2.1-2.9.1-5.9.1-8.8.1-.9 0-1.7-.2-2.4-1-.6-1.1.3-2.3.2-3.5 0-.3 0-.7-.2-1-1.7-5.1-3.9-10-6.1-14.9-1.9-4.4-3.9-8.9-5.7-13.3-2.7-6.6-5.5-13.1-8.5-19.5-1.4-3-2.8-5.9-3.8-9.1-1.4-.5-2.6-.9-3.8-1.3-1.2-1.5-1.4-2.9-.9-4.5.5-1.5 1-2.9 1.5-4.4.3-.8.6-1.6.5-2.4-1.5-.3-1.7 1.6-2.7 1.6-1.6.5-2.8.2-3.9-.1-2.7-.6-4.6-2.3-5.7-4.8-.8-1.9-1.6-3.8-2.6-6.2.1.1-.1-.2-.3-.4C3.2 55.7 2 53 2 49.7 2 46 .8 42.6 0 38.9c.1-1.2.2-2.6.4-4 .4-3 .5-3.2 2.9-6 4-.8 8.1-.4 12.3-.3.7 0 1.4.1 2.1.2 1.5.1 2.3-.9 1.8-2.3-.9-2.4-1.9-4.8-2.3-7.4-.2-1.5-1.1-2.9-1.7-4.5.1-3.1 1-6 3.7-8.5zm32.3 133.6c2.3 0 4.4 0 6.5-.1.9 0 1.7 0 2.6-.2 4.2-.9 8.4-2 11.7-4.6.5-.1.9-.2 1.2-.3 3.7-.8 7.4-2 10.6-4.1 3.6-2.3 7.1-4.9 10.2-7.9 1.4-1.3 2.6-2.8 3.6-4.4.7-1 1.1-2.1 1.4-3.3.2-.9.1-1.7-.4-2.5-.8-1.3-2-2.3-2.7-3.8-1-2.4-2.2-4.7-3.2-7.1-.8-1.9-1.6-3.8-2.5-5.7-.2-.4-.6-.8-.9-1.1-.4.1-.8 0-1.1.2-.8.6-1.6 1.3-2.3 2-1.9 2-4 3.7-6.4 5.3-3.6 2.4-7.2 4.7-10.9 7-2.4 1.5-4.8 2.7-7.3 3.8l-5.7 2.4c-2.1.9-4.1 1.7-6.3 2.2-1.8.4-3.6 1.1-5.3 1.7-.2.4-.3.7-.5 1 .2.5.3 1 .5 1.4 1.8 4.3 3.6 8.6 5.5 12.8.6 1.3.9 2.6.9 4 .1.6.4.8.8 1.3zM33 93.8c.1.6 0 1.2.2 1.6l6.3 14.7c.7 1.7 1.5 3.5 2.3 5.2.2.4.8.6 1.3.9l5.4-1.8c1.1-.4 2.3-.9 3.4-1.1 4.6-1.1 8.7-3.4 13-5 .5-.2.9-.5 1.4-.8 4.3-2.8 8.6-5.7 12.9-8.5 2.1-1.3 3.9-2.9 5.4-4.7.8-.9 1.5-1.9 2.6-2.5.2-.1.3-.6.5-.9-.2-1-.4-2-.5-2.6-.9-1.7-1.7-3-2.3-4.4-1.6-3.6-3.1-7.3-4.7-10.9-.5-1.1-1-2.2-1.5-3.2-.7-.5-1.2-.9-1.8-1.3-.8-.5-1.6-.6-2.5-.3-1.4.6-2.9 1-4.3 2-.5 1.5-1.1 3.1-1.4 4.9 1 4.4 3 8.4 5.6 12.1.8 1.1 1.6 2.3 1.9 3.6 0 .4 0 .7.1 1.1.3 2-.5 3.7-1.8 5.2-1.9 2-4 3.9-6.4 5.1-2.7 1.4-5.5 2.7-8.7 3-2.4.2-4.8.6-7.1 1.4-.6.2-1.4 0-2-.1-.6-.1-1.3-.9-1.3-1.4 0-1.2-.1-2.4-.1-3.6 0-1.8-.5-3.4-1.5-4.9-.5-.7-1.1-1.3-1.4-1.8-.3-2-.4-3.7-1.4-5.2-1.3-.5-2.5-1.2-3.9-1.2-.9.4-1 1.4-1.5 2.1-.6.8-1.3 1.6-1.9 2.3-1.6.4-2.9.7-4.3 1zm.3-3.5c1.1-.2 2 .2 2.8-.5.9-.7.9-1.8 1.3-2.8.5-1.2 2-1.4 2.5-2.5.6-2.4-.7-4.3-2-5.9-.2-1-.4-1.9-.5-2.7-.1-.9.3-1.7 1-2.2 1.9-1.2 4-2 6.1-2.8 1.8-.7 3.5-1.5 5-2.6 2-1.6 4.3-2.9 6.4-4.4.3-.2.6-.3.9-.4 1.1 0 2.2-.1 3.3.6.2.4.6.9.9 1.6.8 1.9 2.2 3.5 3.7 5 .2.2.6.4.8.6.4.2 1.3.1 1.4-.3.2-.5.3-1 .5-1.5.2-.8.4-1.7.7-2.5.2-.6.8-1.1 1.6-1 .5 0 1 .1 1.7.2 1.2-1.2 3-.9 4.6-1.3.6-1.6-.6-2.7-1-4-.4-1.3-.7-2.7-1.1-4-.5-1.5-1.1-2.9-1.8-4.3-.6-1.2-.7-2.7-1.7-3.7-.4-.1-.7-.4-1-.3-2.2.5-4.3 1.1-6.4 2-1.4.6-2.9 1.1-4.4 1.4-4.6.7-8.5 2.6-11.8 5.9-2.2 2.2-4.8 3.9-7.6 5.3-2.5 1.2-4.8 2.6-7.3 3.9-2.6 2.3-5.8 3.7-8.3 6.2-.1.4-.2.9-.4 1.5.6-.1 1.2-.1 1.5-.3 1.3-.9 2.4-2 3.8-2.6 2.3-1.1 4.6-2.3 6.7-3.8.3-.3 1-.1 1.4-.2.4 1.9.2 2.6-.9 3.1-2.8 1.3-5.4 3-8.1 4.6-.4.2-.7.7-1 1 0 3.2.8 6.2 2 9l2.4 5.1c.1.2.5.3.8.5.5-.1.9-.4 1.5-.9zm17.9 12.2c.5.2.8.4 1.1.4 2.1 0 4.1-.3 6.1-.6 4.6-.6 8.5-2.7 12.1-5.4 1-.7 1.7-1.7 2.2-2.8.5-1 .6-2 .2-3-.4-.9-.8-1.9-1.4-2.7-1.7-2.2-2.8-4.7-3.9-7.2-1-2.4-2-4.7-3.1-7.1-.9-.8-1.9-1.5-2.7-2.3-.8-.9-1.5-1.8-2.3-2.8-.4-.5-.9-1-1.4-1.5-.2-.2-.6-.2-1-.4-1.2.7-2.5 1.5-3.9 2.3-.3.2-.6.3-.9.5-.3.2-.5.4-.8.7-1.2 1.3-2.9 1.9-4.4 2.6-1.4.6-2.9 1.1-4.3 1.7-2.2 1-2.4 1.6-1.6 3.9.3.8.5 1.6.7 2.5.2.8.4 1.7 1.1 2.6.8.5 1.8 1.2 2.6 1.8.9 1.5 1.5 2.9 1.6 4.4.1 2 .9 3.6 2.2 5.1.2.2.4.6.6 1 .4 1.9.8 4 1.2 6.3zm-9.6-80c0-2.5-.9-5-1.6-7.4-.9-3.2-2.6-6-4.6-8.6-.1-.2-.7-.3-.9-.1-1 .7-1.8 1.6-2.9 2.1-3.5 1.8-6.6 4.3-10.4 5.8-1.3.5-1.8 1.7-1.5 2.9.3 1.2.5 2.3.8 3.5.6 2.9 1.7 5.6 3.3 7.7 2.8 1.6 5.4 3.1 7.9 4.6 1.5-.2 3.1.1 4.5-.4 1.2-.9 2.3-1.8 3.4-2.6 2.1-1.5 3-3.6 3.1-6.1-.3-.5-.7-.9-1.1-1.4zM24.1 69c2.2-1.4 3.9-2.2 5.4-3.4 3-2.3 6.5-4 9.7-5.9 2.1-1.2 4-2.7 5.9-4.2l2.7-2.4c.5-.4 1.1-.9 1.7-1.2 2.7-1.1 5.3-2.6 8.2-3 2-.3 4-.9 6-1.4 1.7-.4 3.2-1.3 4.3-2.7.6-.7.5-1.7-.1-2.3-1.1-1.2-2.4-1.8-4.2-1.5-4.6.8-9.1 2.1-13.7 2.3-.8 0-1.7.4-2.5.5-1.5 1.2-3 2.4-4.5 3.4-1.4 1-2.9 1.8-4.8 1.8-1.6 0-3 .7-4.4 1.4-3 3.5-6.2 6.9-8.5 11.3-.1.8-.2 1.8-.4 2.8-.1 1.5-.4 2.6-.8 4.5zM4.2 33.9c-.3.4-.6.6-.7.9-.7 1.8-.7 3.7-.5 5.6.1 1 .7 1.9.9 2.9.3 1.1.5 2.3.7 3.3.9.3 1.6.2 2.2-.1 3.1-1.6 6.5-2.1 9.9-2.6.5-.1 1-.1 1.5-.3.9-.4 2-.5 2.7-1.3-7.8-2.8-9-3.4-14.9-8-.5-.2-1.2-.3-1.8-.4zm24.8 6c0-.3.2-.7.1-1-.5-1.8-1.1-3.6-2.1-5.1-2.7-1.7-5.4-2.4-8.5-2-2.4.3-4.8.1-7.2.2-.4 0-.7.6-1.1.9.8.9 1.4 1.6 2.4 2.1 4.4 2.4 9.2 3.8 14 5.2.5.1 1 .1 1.5.1.3-.1.6-.3.9-.4zm15.1-4.4c.6-.1 1.1-.1 1.6-.2 2.6-1 5.1-2 7.9-2.5 1.2-.2 2.3-.8 3.3-1.4 3-1.9 6.2-3.6 8.9-6 .2-1.1-.2-2-.8-3-.4-.1-.9-.3-1.3-.2-1.7.5-3.1 1.4-4.5 2.4-2.5 1.9-4.9 3.8-7.6 5.2-1.5.8-2.9 1.8-4.3 2.8-1.3.8-2.5 1.6-3.2 2.9zm-9.2 9.6c.6.6 1.5.9 2.3 1.1.5.1 1 .1 1.5.1 1.2-.2 2.3-.8 3.2-1.6.8-.6 1.1-2 .5-2.8-1-1.2-1.7-2.6-2.2-3.9 0-.6.1-1.2.1-1.7 0-1.1-.7-1.8-1.5-1.4-1.7.9-3.6 1.2-5.4 1.5-.8.1-1.4 1.4-1 2.1.5 1.1 1.1 2.1 1.5 3.3.4 1 .6 2.1 1 3.3zM14.1 65.5c.2-.3.4-.5.5-.9 1.5-4.6 3.6-8.9 6.6-12.8.2-.3.4-.6.6-.8.3-.4.2-.6-.2-.7-.4.1-.9.3-1.4.5-3.5 1.5-6.5 3.8-9.9 5.5-.1.1-.3.2-.4.3-.4.3-.8 1.4-.6 1.9l2.4 5.7c.2.5.6.8.9 1.2.5.4 1 .4 1.5.1zm16.8-21.3c-.3.1-.5.2-.6.3-1.2 2.3-2.9 4.2-4.5 6.3-1.7 2.3-3.4 4.8-5 7.2-1.4 2-2.3 4.2-2.9 6.6.4 0 .9.1 1 0 1.3-1.4 2.6-2.8 3.6-4.3 2-3 4.3-5.8 6.6-8.6.7-.8 1.3-1.6 1.9-2.4.9-1.2 1-2.6.6-3.9.1-.5-.4-.8-.7-1.2zm20.3-18.4c.4 0 .8.2 1 .1.9-.4 1.9-.8 2.7-1.4 2.8-2 5.5-4 8.3-6 .5-.4.6-1.3.2-1.9-.6-.8-1.3-1.5-1.9-2.2-.6-.2-1.1-.4-1.6-.5-.5-.1-1-.3-1.7-.4-1.6 4.4-4.6 8.1-7 12.3zm3.9-13.3c-.2-.3-.4-.6-.6-.8-.3-.2-.6-.4-.9-.5-1.1-.4-2.2-.1-2.7.8-2.1 3.6-3.3 7.5-4.6 11.4-.4 1.1-.5 2.3-.8 3.5.6.3 1.1.3 1.5-.2 2.3-2.8 4.2-5.8 6-9 1-1.6 1.8-3.3 2.1-5.2zM22.8 45.8c-3.5-.2-6.4 1-9.4 1.5-1.5.3-2.9 1-4.3 1.6-1.4.6-2.7 1.5-3.6 2.8v1.5c.5.6 1 1.1 2 .9 2.2-1 4.7-2.2 7.2-3.3 2.7-1.2 5.4-2.7 8.1-5zm31.1-10.2c.1.3.2.5.3.6.2.2.5.5.8.6 3.4.4 6.7.8 10.2-.2 1.3-2.1 1.2-4.4.8-6.8-.4-.1-.7-.2-1.2-.4-3.1 2.7-7.2 4.1-10.9 6.2zm-21.7-31c-.4-.1-.7-.3-.9-.2-2.7 1.1-5.3 2.3-8 3.5-1.2.6-2.3 1.4-3.1 2.6-.1.1 0 .3-.1.4.3 0 .7.2 1 .1 4-1.5 7.7-3.6 11.1-6.4zm13 36.2c2.9.3 5.8-.6 8.6-.5.4-1 .3-1.2-.1-1.2-2.7-.4-5.5 0-8.2.1-.4 0-.7.3-.7.7.1.3.2.6.4.9z"/>
    <path class="st1" d="M51.5 139.7c-.4-.5-.8-.8-.8-1.1 0-1.4-.3-2.7-.9-4-1.9-4.3-3.7-8.6-5.5-12.8-.2-.5-.3-1-.5-1.4.2-.3.3-.7.5-1 1.7-.6 3.5-1.2 5.3-1.7 2.2-.5 4.3-1.3 6.3-2.2l5.7-2.4c2.5-1.1 5-2.3 7.3-3.8 3.7-2.3 7.3-4.6 10.9-7 2.3-1.5 4.4-3.3 6.4-5.3.7-.7 1.5-1.4 2.3-2 .2-.2.6-.1 1.1-.2.3.4.7.7.9 1.1.9 1.9 1.6 3.8 2.5 5.7 1.1 2.4 2.2 4.7 3.2 7.1.6 1.5 1.8 2.5 2.7 3.8.5.8.6 1.6.4 2.5-.3 1.2-.7 2.3-1.4 3.3-1 1.6-2.3 3.1-3.6 4.4-3.1 3-6.6 5.6-10.2 7.9-3.2 2-6.8 3.3-10.6 4.1-.3.1-.7.2-1.2.3-3.3 2.6-7.5 3.7-11.7 4.6-.8.2-1.7.2-2.6.2-2.1-.1-4.1-.1-6.5-.1zm26.1-19.5c-.2-.3-.3-.6-.5-.9-1.7-1.6-2.8-3.5-3.4-5.6-.1-.3-.3-.6-.5-.9-.4-.6-1.1-.8-1.9-.7-.2.4-.5.8-.7 1.2.2 1.1.4 2.1.6 3.1-1.2 0-1.3 0-1.7-.8-.4-.9-1-1.3-2.1-1.2-.4.4-.9.9-1.3 1.5 0 .5 0 1.1.1 1.5.9 2.6 2.2 5 2.6 7.8 0 .3.4.5.7.7.6.5 1.8 0 2-.9.3-1 .2-2 .1-3.1 0-.2.3-.5.5-.7 1.7 0 3 1.9 4.8 1.2.7-.5.9-1.2.7-2.2zm-25.7 1.7c-1.1 2.6 0 4.5.1 6.4 1.2 1.7 2.3 3.3 4.5 3.8.9 0 1.9-.1 2.8-.1 1.5-1.5 2-2.2 2.2-3.5.2-1.5-.4-2.7-1.5-3.8-1.2-.4-2.2 0-3.1 1-.3.4-.3 1 .1 1.4.4.4.8.6 1.1 1 .2.2.2.6-.1.9-.1.1-.3.2-.4.2-1 .2-1.7-.3-2.2-1-.8-1.2-1.1-2.5-1-3.9.1-.7.4-1.3 1.1-1.6.5-.2 1-.3 1.4-.6.7-.5 1.1-1.3.6-2.2-1.3-.4-2.4.2-3.6.5-.6.5-1.3 1-2 1.5zm37.5-9.2c.4-.7.7-1.3 1.2-1.8s1.1-.7 1.6-1.2c.2-.2.4-.6.4-.9-.1-1-.2-2.1-1.4-2.5-1.2.1-1.4 1.4-2.3 1.9-.8.3-1.6.7-2.4 1-.9.4-1.9.8-2.7 1.2-.4.9-.8 1.6-1.1 2.3-.4 0-.8.1-1.2.1-.3.3-.6.7-.9 1.1 0 1.4-.2 2.8.7 4 1.6.2 2 0 2.3-1.2.1-.5.2-.9.2-1.4.8.1 1.4.2 2.2.2.4-.9.8-1.9 1.2-2.8.7.1 1.2.1 2.2 0zm-26.2 4.6c-1.1 0-1.8.4-2 1.6 1 2.1 2 4.5 2.3 7 .1.7 1.2 1.4 2 1.3.8-.1 1.1-.7 1.3-1.3 0-.2.1-.3.1-.7-.8-2.2-1.6-4.6-2.7-6.9-.3-.4-.7-.7-1-1zm16.6 10c1.5 1 2.1 1 3.1-.1.3-.4.7-.8.9-1.2.1-.3.1-.7 0-1-.1-.2-.5-.5-.8-.5-1.7.3-3.1.8-3.2 2.8z"/>
    <path class="st2" d="M33 93.8c1.4-.3 2.7-.6 4.2-1 .6-.7 1.3-1.5 1.9-2.3.5-.7.6-1.7 1.5-2.1 1.4.1 2.6.7 3.9 1.2.9 1.5 1.1 3.2 1.4 5.2.4.5 1 1.1 1.4 1.8 1 1.5 1.5 3.1 1.5 4.9 0 1.2 0 2.4.1 3.6 0 .6.7 1.4 1.3 1.4.7.1 1.4.3 2 .1 2.3-.8 4.7-1.1 7.1-1.4 3.2-.3 6-1.6 8.7-3 2.4-1.3 4.5-3.1 6.4-5.1 1.3-1.5 2.1-3.1 1.8-5.2 0-.3 0-.7-.1-1.1-.3-1.3-1.1-2.5-1.9-3.6-2.5-3.7-4.5-7.7-5.6-12.1.3-1.8.9-3.4 1.4-4.9 1.4-1.1 2.9-1.5 4.3-2 .8-.3 1.7-.3 2.5.3.6.4 1.1.8 1.8 1.3.5 1 1 2.1 1.5 3.2 1.6 3.6 3.1 7.3 4.7 10.9.6 1.4 1.4 2.7 2.3 4.4.1.7.3 1.7.5 2.6-.2.4-.2.8-.5.9-1.1.6-1.8 1.6-2.6 2.5-1.6 1.8-3.4 3.4-5.4 4.7-4.4 2.8-8.6 5.7-12.9 8.5-.4.3-.9.6-1.4.8-4.3 1.6-8.4 3.9-13 5-1.2.3-2.3.8-3.4 1.1l-5.4 1.8c-.5-.3-1.1-.5-1.3-.9-.8-1.7-1.6-3.4-2.3-5.2l-6.3-14.7c-.1-.4-.1-1-.1-1.6zM84.1 86c-.9-.4-1.6-.1-2.1.7-.1.3-.2.7-.1.9.2.6 1.1 1 1.7.9.6-.1 1-.9.9-1.6-.1-.3-.3-.6-.4-.9zM33.3 90.3c-.6.5-1 .8-1.4 1.1-.3-.2-.7-.3-.8-.5-.8-1.7-1.7-3.4-2.4-5.1-1.3-2.8-2.1-5.8-2-9 .3-.3.6-.8 1-1 2.7-1.6 5.2-3.3 8.1-4.6 1.2-.5 1.3-1.3.9-3.1-.5 0-1.1-.1-1.4.2-2.1 1.5-4.4 2.8-6.7 3.8-1.4.7-2.6 1.7-3.8 2.6-.3.2-.9.2-1.5.3.2-.7.3-1.1.4-1.5 2.6-2.5 5.8-3.9 8.3-6.2 2.4-1.3 4.8-2.7 7.3-3.9 2.8-1.4 5.4-3.1 7.6-5.3 3.3-3.3 7.2-5.1 11.8-5.9 1.5-.2 3-.8 4.4-1.4 2.1-.8 4.2-1.5 6.4-2 .3-.1.6.2 1 .3 1 1 1.1 2.4 1.7 3.7.7 1.4 1.2 2.8 1.8 4.3.5 1.3.8 2.6 1.1 4 .4 1.3 1.5 2.4 1 4-1.6.4-3.4.1-4.6 1.3-.7-.1-1.2-.2-1.7-.2-.8 0-1.4.4-1.6 1-.2.8-.4 1.7-.7 2.5-.1.5-.3 1-.5 1.5-.1.3-1 .5-1.4.3-.3-.2-.6-.3-.8-.6-1.4-1.5-2.8-3-3.7-5-.3-.6-.7-1.2-.9-1.6-1.2-.7-2.2-.7-3.3-.6-.2.1-.6.2-.9.4-2.1 1.5-4.4 2.8-6.4 4.4-1.5 1.2-3.2 2-5 2.6-2.1.8-4.2 1.5-6.1 2.8-.7.5-1.2 1.3-1 2.2.1.9.3 1.7.5 2.7 1.3 1.6 2.5 3.5 2 5.9-.6 1.1-2 1.3-2.5 2.5-.4.9-.4 2-1.3 2.8-.9.5-1.8.1-2.9.3zm19.2-29.5c3.5-.8 3.5-.8 5.9-2.2 2.8-1.8 5.8-3 8.9-3.9.3-.1.6-.3.9-.4.6-.3.9-1.9.3-2.3-.4-.3-.9-.5-1.4-.4-1.9.2-3.7.9-5.3 2-3.2 2.1-6.6 3.6-10.1 5-1.4.6-2.9 1.3-4.1 2.2-2.4 1.9-4.8 3.9-6.8 6.2-.5.5-.7 1.1-.7 1.9.5.6 1.1.7 1.8.6 4.3-4.4 4.3-4.4 10.6-8.7z"/>
    <path class="st1" d="M51.2 102.5c-.4-2.4-.8-4.4-1.1-6.3-.3-.5-.4-.8-.6-1-1.3-1.4-2.1-3.1-2.2-5.1-.1-1.6-.7-3-1.6-4.4-.9-.6-1.9-1.3-2.6-1.8-.7-.9-.9-1.8-1.1-2.6-.2-.8-.4-1.7-.7-2.5-.8-2.4-.6-2.9 1.6-3.9 1.4-.6 2.9-1.1 4.3-1.7 1.6-.7 3.2-1.3 4.4-2.6.2-.2.5-.5.8-.7.3-.2.6-.4.9-.5 1.3-.8 2.6-1.6 3.9-2.3.4.2.8.2 1 .4.5.5 1 1 1.4 1.5.8.9 1.5 1.9 2.3 2.8.8.9 1.8 1.6 2.7 2.3 1 2.4 2 4.8 3.1 7.1 1.1 2.5 2.2 5 3.9 7.2.6.8 1 1.8 1.4 2.7.4 1 .3 2-.2 3-.6 1.1-1.2 2.1-2.2 2.8-3.6 2.7-7.5 4.8-12.1 5.4-2 .3-4.1.5-6.1.6-.4.1-.7-.2-1.2-.4zm-2.7-18.4c.9 1.8 1.5 3.4 2.4 4.9 1.3 2.2 3.9 2.8 6.2 1.4.3-.2.5-.4 1.1-.9.9-1.7 1.8-3.7 2.6-5.7-.1-.8-.1-1.5-.2-2.1-.8-.4-1.5-.1-1.8.5-.6 1.2-1 2.6-1.5 3.8-.4.9-1 1.8-1.9 2.3-.9-.1-1.7-.4-2.1-1.2-.6-1.2-1.3-2.5-1.6-3.8-.5-1.7-.4-3.4.6-5 .7.5 1.3 1 1.9 1.6 1.8-1.1 1.8-2.8 1.7-4.5-1-1.3-1-1.3-1.5-1.4-.7-.2-1.4 0-2 .3-.6.4-1.2.8-1.6 1.2-1 1.2-1.8 2.6-2 4.1-.1 1.4-.2 2.8-.3 4.5zm11.8 11.6c2.1.2 2.1.2 3.2 1.5.7.9 1.8.9 2.6 0 .5-.5.9-1.2.7-1.8-.4-1.1-.4-2.3-.7-3.5-.1-.2-.5-.5-.8-.5-.5 0-1.1 0-1.5.3-1.5.9-3.3 1-4.9 1.4-.9.8-1.9 1.6-2.7 2.4-.2.2-.5.5-.6.8-.1.3-.1.7 0 1 0 .4.8.8 1.2.7.5-.1 1.1-.2 1.4-.5.7-.4 1.3-1 2.1-1.8zM65.2 84c-1.5.9-2.5 1.6-3.5 2.3-.2.2-.3.6-.4.9-.1.4.5 1 .9 1.1 2 .4 3.4-.6 3.6-2.6.1-.5-.3-1-.6-1.7zM41.6 22.5c.4.5.7.9 1.1 1.4-.1 2.4-1 4.5-3.1 6.1-1.1.8-2.2 1.7-3.4 2.6-1.4.5-2.9.2-4.5.4-2.5-1.5-5.1-2.9-7.9-4.6-1.6-2.1-2.7-4.8-3.3-7.7-.2-1.2-.5-2.3-.8-3.5-.3-1.3.2-2.5 1.5-2.9 3.7-1.4 6.8-4 10.4-5.8 1-.5 1.9-1.5 2.9-2.1.2-.1.8 0 .9.1 2 2.6 3.7 5.4 4.6 8.6.8 2.4 1.7 4.9 1.6 7.4zM24.1 69c.4-1.9.7-3.1.9-4.3.2-1 .3-2 .4-2.8 2.3-4.4 5.5-7.8 8.5-11.3 1.4-.7 2.8-1.4 4.4-1.4 1.8 0 3.3-.8 4.8-1.8 1.6-1.1 3-2.3 4.5-3.4.8-.2 1.7-.5 2.5-.5 4.7-.3 9.1-1.6 13.7-2.3 1.7-.3 3 .3 4.2 1.5.6.6.6 1.7.1 2.3-1.1 1.4-2.6 2.2-4.3 2.7-2 .5-4 1-6 1.4-3 .5-5.5 1.9-8.2 3-.6.3-1.2.7-1.7 1.2-.9.8-1.8 1.7-2.7 2.4-1.9 1.5-3.8 2.9-5.9 4.2-3.3 1.9-6.7 3.6-9.7 5.9-1.6 1-3.3 1.9-5.5 3.2z"/>
    <path class="st3" d="M4.2 33.9c.6.1 1.3.2 1.8.3 5.9 4.6 7.1 5.2 14.9 8-.7.9-1.8 1-2.7 1.3-.5.2-1 .2-1.5.3-3.4.5-6.7 1.1-9.9 2.6-.6.3-1.3.4-2.2.1-.2-1-.4-2.2-.7-3.3-.3-1-.8-1.9-.9-2.9-.3-1.9-.3-3.8.5-5.6.2-.2.4-.4.7-.8z"/>
    <path class="st4" d="M29 39.9c-.3.1-.6.4-.9.4-.5 0-1.1 0-1.5-.1-4.8-1.4-9.6-2.8-14-5.2-.9-.5-1.6-1.2-2.4-2.1.4-.3.7-.9 1.1-.9 2.4-.1 4.8.1 7.2-.2 3.1-.4 5.8.4 8.5 2 1 1.4 1.6 3.2 2.1 5.1.1.3-.1.6-.1 1z"/>
    <path class="st1" d="M44.1 35.5c.7-1.3 1.9-2.1 3-2.9 1.4-1 2.8-2 4.3-2.8 2.8-1.4 5.2-3.4 7.6-5.2 1.4-1.1 2.8-2 4.5-2.4.4-.1 1 .1 1.3.2.7 1 1.1 1.9.8 3-2.7 2.4-5.9 4.1-8.9 6-1 .6-2.1 1.2-3.3 1.4-2.7.5-5.3 1.5-7.9 2.5-.3.1-.8.1-1.4.2z"/>
    <path class="st4" d="M34.9 45.1c-.3-1.1-.6-2.3-1-3.4s-1-2.2-1.5-3.3c-.3-.7.3-1.9 1-2.1 1.9-.3 3.7-.6 5.4-1.5.8-.4 1.5.3 1.5 1.4 0 .5 0 1-.1 1.7.5 1.4 1.2 2.7 2.2 3.9.6.8.3 2.2-.5 2.8-1 .8-2 1.3-3.2 1.6-.5.1-1 .1-1.5-.1-.9-.1-1.7-.4-2.3-1z"/>
    <path class="st3" d="M14.1 65.5c-.5.3-1 .3-1.4-.1-.4-.4-.7-.8-.9-1.2l-2.4-5.7c-.2-.4.2-1.6.6-1.9.1-.1.2-.3.4-.3 3.4-1.7 6.4-4 9.9-5.5.5-.2 1-.3 1.4-.5.4.1.5.3.2.7-.2.3-.4.6-.6.8-3 3.9-5.1 8.2-6.6 12.8-.2.4-.4.6-.6.9z"/>
    <path class="st4" d="M30.9 44.2c.3.3.8.6.9 1.1.4 1.4.3 2.7-.6 3.9-.6.8-1.3 1.6-1.9 2.4-2.3 2.8-4.6 5.6-6.6 8.6-1 1.6-2.4 2.9-3.6 4.3-.1.2-.6 0-1 0 .6-2.4 1.5-4.6 2.9-6.6 1.6-2.4 3.3-4.9 5-7.2 1.5-2.1 3.2-4 4.5-6.3-.1 0 .1 0 .4-.2z"/>
    <path class="st3" d="M51.2 25.8c2.3-4.2 5.4-7.9 7-12.4.8.2 1.3.3 1.7.4.5.1 1 .3 1.6.5.6.7 1.3 1.4 1.9 2.2.4.5.3 1.5-.2 1.9-2.8 2-5.5 4-8.3 6-.8.6-1.8 1-2.7 1.4-.2.2-.6 0-1 0z"/>
    <path class="st4" d="M55.1 12.5c-.3 1.9-1.1 3.6-2.1 5.2-1.8 3.1-3.7 6.2-6 9-.4.4-.9.4-1.5.2.2-1.1.4-2.3.8-3.5 1.3-3.9 2.5-7.8 4.6-11.4.5-.9 1.6-1.2 2.7-.8.3.1.6.3.9.5.2.2.4.5.6.8z"/>
    <path class="st1" d="M22.8 45.8c-2.6 2.4-5.3 3.8-8.2 5-2.5 1.1-5 2.3-7.2 3.3-1.1.1-1.5-.4-2-.9v-1.5c1-1.3 2.2-2.1 3.6-2.8 1.4-.6 2.8-1.3 4.3-1.6 3-.6 6-1.7 9.5-1.5z"/>
    <path class="st3" d="M53.9 35.6c3.7-2.1 7.8-3.5 10.9-6.3.5.2.8.3 1.2.4.4 2.3.5 4.6-.8 6.8-3.5 1-6.9.6-10.2.2-.3 0-.6-.3-.8-.6-.1-.1-.1-.2-.3-.5z"/>
    <path class="st1" d="M32.2 4.6c-3.4 2.8-7.1 4.9-11 6.4-.3.1-.7-.1-1-.1 0-.1 0-.3.1-.4.8-1.2 1.8-2 3.1-2.6 2.6-1.2 5.3-2.4 8-3.5.1-.1.4.1.8.2z"/>
    <path class="st4" d="M45.2 40.8c-.1-.3-.3-.6-.3-.9 0-.4.3-.7.7-.7 2.7-.1 5.5-.5 8.2-.1.4.1.5.2.1 1.2-3-.1-5.8.8-8.7.5z"/>
    <path class="st0" d="M77.6 120.2c.2.9 0 1.7-.7 2.3-1.9.7-3.1-1.3-4.8-1.2-.2.2-.5.5-.5.7.1 1 .2 2-.1 3.1-.2.8-1.4 1.4-2 .9-.3-.2-.6-.5-.7-.7-.4-2.8-1.6-5.2-2.6-7.8-.2-.5-.1-1-.1-1.5.5-.5.9-1 1.3-1.5 1.1-.2 1.6.3 2.1 1.2.4.8.5.8 1.7.8-.2-1-.4-2-.6-3.1.2-.4.5-.8.7-1.2.8-.1 1.4 0 1.9.7.2.3.4.6.5.9.7 2.2 1.8 4.1 3.4 5.6.2.2.3.6.5.8zM51.9 121.9c.7-.5 1.4-1.1 2-1.6 1.2-.3 2.3-.9 3.6-.5.5.9.1 1.6-.6 2.2-.4.3-1 .4-1.4.6-.6.3-1 .9-1.1 1.6-.2 1.4.2 2.8 1 3.9.5.7 1.2 1.2 2.2 1 .2 0 .3-.1.4-.2.3-.3.3-.7.1-.9-.3-.4-.8-.6-1.1-1-.4-.4-.4-1-.1-1.4.9-1 1.9-1.4 3.1-1 1 1.2 1.6 2.4 1.5 3.8-.2 1.3-.6 2.1-2.2 3.5-.9 0-1.9.1-2.8.1-2.1-.6-3.2-2.1-4.5-3.8-.1-1.7-1.2-3.7-.1-6.3zM89.4 112.7c-1 0-1.5.1-2 .1-.4.9-.8 1.8-1.2 2.8-.8-.1-1.5-.2-2.2-.2-.1.5-.1.9-.2 1.4-.3 1.2-.7 1.4-2.3 1.2-.9-1.2-.7-2.6-.7-4 .3-.4.6-.7.9-1.1.4 0 .8-.1 1.2-.1.3-.7.7-1.5 1.1-2.3.8-.4 1.8-.8 2.7-1.2.8-.3 1.6-.7 2.4-1 .9-.5 1.1-1.8 2.3-1.9 1.2.4 1.3 1.5 1.4 2.5 0 .3-.2.7-.4.9-.5.4-1.2.7-1.6 1.2-.6.4-.9 1.1-1.4 1.7zM63.2 117.3c.3.3.8.6 1 1 1.1 2.3 1.9 4.7 2.7 6.9-.1.4-.1.5-.1.7-.2.7-.6 1.3-1.3 1.3-.8.1-1.9-.6-2-1.3-.3-2.6-1.2-4.9-2.3-7 .2-1.2.9-1.6 2-1.6zM79.8 127.3c.1-2 1.6-2.5 3.2-2.7.2 0 .7.2.8.5.1.2.1.7 0 1-.2.5-.6.9-.9 1.2-1 1-1.6 1-3.1 0zM84.1 86c.1.3.3.6.4.9.1.7-.4 1.5-.9 1.6-.6.1-1.4-.3-1.7-.9-.1-.3-.1-.7.1-.9.5-.8 1.2-1.1 2.1-.7zM52.5 60.8c-6.3 4.3-6.3 4.3-10.6 8.6-.7.2-1.3 0-1.8-.6 0-.7.3-1.3.7-1.9 2-2.3 4.4-4.3 6.8-6.2 1.2-.9 2.6-1.6 4.1-2.2 3.5-1.4 7-2.9 10.1-5 1.6-1 3.3-1.8 5.3-2 .5 0 1 .2 1.4.4.6.4.3 1.9-.3 2.3-.3.2-.6.4-.9.4-3.2.9-6.2 2.1-8.9 3.9-2.3 1.5-2.3 1.5-5.9 2.3zM48.5 84.1c.1-1.7.2-3 .4-4.4.2-1.6.9-3 2-4.1.4-.5 1-.9 1.6-1.2.6-.4 1.3-.5 2-.3.4.1.4.1 1.5 1.4 0 1.7 0 3.4-1.7 4.5-.7-.5-1.3-1-1.9-1.6-1 1.6-1.1 3.3-.6 5 .4 1.3 1 2.5 1.6 3.8.4.8 1.2 1.2 2.1 1.2 1-.5 1.5-1.3 1.9-2.3.5-1.3.9-2.6 1.5-3.8.3-.6.9-1 1.8-.5.1.6.1 1.3.2 2.1-.8 2-1.7 4-2.6 5.7-.5.4-.8.7-1.1.9-2.3 1.3-5 .8-6.2-1.4-1-1.6-1.7-3.2-2.5-5zM60.3 95.7c-.8.8-1.4 1.4-2.1 1.9-.4.3-.9.4-1.4.5-.4.1-1.2-.4-1.2-.7 0-.3-.1-.7 0-1 .1-.3.3-.6.6-.8l2.7-2.4c1.6-.4 3.4-.4 4.9-1.4.4-.2 1-.3 1.5-.3.3 0 .7.3.8.5.4 1.1.3 2.3.7 3.5.2.6-.2 1.3-.7 1.8-.8.9-1.8.9-2.6 0-1.1-1.4-1.1-1.4-3.2-1.6zM65.2 84c.3.7.7 1.2.7 1.6-.2 2-1.6 3-3.6 2.6-.4-.1-1-.7-.9-1.1.1-.3.2-.7.4-.9.9-.7 1.9-1.3 3.4-2.2z"/>
</svg>
