<svg xmlns="http://www.w3.org/2000/svg" width="51.4" height="185.3" style="overflow:visible;enable-background:new 0 0 51.4 185.3" xml:space="preserve">
    <style>
        .st0{fill:#7a6a56}.st3{fill:#fff}
    </style>
    <path class="st0" d="M41.2 1.6c.4.2.7.4.8.8.3 1 .8 2 .9 3 .1.7.4 1.4.6 2 .1.3.2.7.3 1 .3 1.8.8 3.6 1.2 5.3.1.5.2 1 .3 1.6.3 1.3.5 2.5.9 3.8.5 1.8 1 3.5 1.5 5.3.1.3.2.7.4 1 .4.9.7 1.9.9 2.8l.6 2.4c.3 1 .5 1.9.8 2.9.3 1.1.5 2.3.6 3.5 0 .2 0 .5.1.7.1.5.2.9.3 1.4-.2.7-.1 1.4-.2 2.1-.5 1-1.4 1.6-2.4 2-1.6.7-3.2 1.4-4.9 1.9-.5.1-.9.2-1.3.4-1.6.6-3.2.9-4.8 1.2-.8.2-1.6.2-2.5.3-.4 0-.8 0-1.2.1-1.4.4-2.8.4-4.2.5-.5 0-.9 0-1.4-.1-.4-.1-.7.2-.7.6 0 .3-.1.6-.1.9 0 .6 0 1.3-.1 1.9-.1.7 0 1.4 0 2.1.1 1.5.1 2.9.1 4.4 0 1.1.1 2.1.1 3.2 0 .6 0 1.3-.1 1.9-.1.3-.1.7 0 1.1 0 .5 0 1.1-.1 1.6-.1.7-.1 1.4-.1 2 .2.6.4 1.1.6 1.5.2.2.4.3.6.4l.3 1.2c.1.5.1.9.1 1.4-.1.8-.2 1.6-.4 2.4-.2.6-.2 1.1-.3 1.7l-.3 2.4c-.1.8-.1 1.5-.2 2.3-.1.6-.1 1.2 0 1.8 0 .6.1 1.2-.1 1.8-.1.3 0 .6 0 .9 0 .6 0 1.2-.1 1.8-.1.3 0 .6 0 .9 0 .7-.1 1.4-.2 2.1-.1.9-.2 1.9-.2 2.8 0 .8 0 1.5-.2 2.3 0 1.2-.2 2.5-.2 3.7 0 .6-.1 1.2-.1 1.8 0 1.8-.2 3.5-.1 5.3.1 1.6.1 3.2 0 4.8 0 .9 0 1.8.1 2.6 0 .9.1 1.8-.1 2.6-.1.3 0 .7 0 1.1 0 .6-.1 1.2-.1 1.8 0 .8-.1 1.5 0 2.3.1 1.6-.1 3.2-.2 4.7 0 .2-.1.5-.1.7 0 1.2-.3 2.5-.2 3.7 0 .2 0 .5-.1.7 0 .4-.1.7-.1 1-.1.8 0 1.6-.2 2.5-.1.4 0 .8 0 1.2.1 1.4 0 2.7-.3 4 0 .2-.1.3-.1.5 0 1.6-.3 3.2-.2 4.8 0 .4 0 .7-.1 1-.1.2 0 .5 0 .7l.3 6c0 .4 0 .8-.1 1.2-.1.9 0 1.9 0 2.8 0 .5 0 .9-.1 1.4-.1.2-.1.5-.1.7 0 2.1-.1 4.2.1 6.4.1 1.3-.1 2.6-.3 3.9-.1.3-.1.7-.2 1-.2 1.2-.2 1.2.3 2.6.1.1.2.1.3.2.1 0 .2.1.3 0 1.5-.2 2.9.1 4.4.3 1.4.2 2.8.5 4.1 1 .2.1.5.1.7.2.5.1 1 .3 1.5.6.3.2.5.5.6.8v.2c0 .3 0 .6.1.9.1.2.2.4.3.7-.1.4-.2.9-.2 1.3 0 .5.1.9.1 1.4 0 .3 0 .7-.1 1.1-.2.1-.4.3-.6.4-1.2.7-2.3 1.4-3.6 1.8-1.5.5-2.9 1-4.4 1.1-.2 0-.4 0-.5.1-1.3.4-2.7.4-4 .5-.5 0-.9 0-1.4.1-1.5.2-3.1 0-4.6-.2-1.2-.1-2.5-.2-3.7-.4-1.3-.1-2.6-.3-3.8-.8l-1.5-.6c-.2-.1-.3-.2-.5-.2-.4-.2-.7-.6-.7-1.1v-1.6c0-.4.1-.8.2-1.2.1-.4.1-.8.2-1.2 0-.2-.1-.4-.1-.5-.1-.3 0-.5.1-.6.9-.8 1.9-1.4 3-1.7 2-.6 4.1-1 6.2-1.3.9-.1 1.9-.3 2.8-.5.1 0 .2-.1.3-.3-.2-1.1-.4-2.3-.4-3.5.1-.2.2-.3.3-.5.3-.3.4-.7.5-1.1v-.9c0-1.3.2-2.6.3-3.9 0-.1.1-.2 0-.3 0-1.1.1-2.1.1-3.2s0-2.1-.1-3.2c0-1.1-.1-2.1-.2-3.2-.1-.8-.1-1.6.1-2.5v-.2c.1-1.1 0-2.1.1-3.2.1-1 .2-2.1.1-3.2-.1-1.2 0-2.3-.1-3.5-.1-1.1-.1-2.2-.2-3.4-.1-1.2-.1-2.4-.2-3.5 0-.7-.1-1.4 0-2.1.1-.3 0-.7 0-1.1 0-1.1-.1-2.2-.1-3.4v-.7c.4-2.4.4-4.9.8-7.4-.1-1.3.2-2.6.2-3.9 0-.9.1-1.9.2-2.8.1-.6.1-1.3.1-1.9 0-.7.1-1.4.1-2.1 0-.7 0-1.4.1-2.1.1-.3 0-.6 0-.9v-1.8c.1-1.2 0-2.4 0-3.5 0-.8-.1-1.6-.1-2.5 0-.5-.1-1.1.1-1.6 0-.2.1-.4 0-.5 0-1.2 0-2.3.2-3.5.1-.8.2-1.5.2-2.3 0-.7.4-1.4.3-2.1-.1-.7.1-1.4.1-2.1 0-1.4.1-2.7.2-4 .1-.8 0-1.6.1-2.5.1-.6 0-1.2 0-1.8-.1-1.4-.1-2.7-.2-4.1-.1-1.3-.2-2.6 0-3.9 0 0 0-.1-.1-.1-.3-.3-.7.1-1-.3.1-.1.1-.3.2-.4.3-.2.7-.4 1.1-.6 0-.2.1-.3.1-.5 0-1.8 0-3.5.2-5.3v-2.2c.2-.9.1-1.9.1-2.8 0-.8-.1-1.5.1-2.3.1-.3 0-.7 0-1.1 0-.6 0-1.3.1-2-.3-1.1-.4-2.3-.2-3.5-.1-.1-.2-.2-.3-.2h-.9c-.9.1-1.9.1-2.8 0-.5-.1-.9-.1-1.4 0-1 .1-1.9-.2-2.8-.3-1.1-.2-2.2-.5-3.3-.8-1.4-.4-2.7-.7-4.1-1.1.2.6 0 .5-.3.4-.4-.1-.8-.3-1.2-.4-1.2-.3-2.2-.8-3.2-1.4-.4-.2-.7-.4-1.1-.6-.2-.1-.3-.1-.6-.2-.2.1-.5.1-.8.2-.7.1-1.1-.2-.9-.9.1-.5.3-.9.4-1.4.2-.7.3-1.4.5-2.1.3-1.2.6-2.4 1-3.6.9-2.4 2-4.8 3.3-7 1.3-2.3 2.5-4.7 3.5-7.1.5-1.1.8-2.2 1.2-3.3l.6-1.5c.2-.6.4-1.1.5-1.7.1-.5.3-1 .5-1.5.4-.9.7-1.7 1-2.6.6-1.3 1.4-2.5 2-3.8.1-.3.4-.5.5-.7.2-.4.4-.7.5-1 .1-.9.1-1.6.1-2.3.3-.4.5-.7.7-1 .3-.3.6-.2.9-.1.1 0 .3 0 .4-.1 2.4-.8 1.8-.7 4.3-.4 1 .3 2 .2 3-.1.7-.2 1.5-.4 2.2-.6 1.9-.5 3.8-.7 5.7-.7 1.1.1 2 .5 2.9.9.7.2 1.3.6 1.9 1l1.5.9c.3.2.6.1.8-.1.1-.1.3-.2.4-.4.3-.4.7-.5 1-.7zM27.6 42.1c-.2-.4-.7-.6-1-.9-.1-.1-.2 0-.3-.1-.5.3-.8.6-1.1 1.1-.1.7-.2 1.5-.2 2.2 0 .8 0 1.5-.1 2.3 0 .2 0 .3.1.5s.1.5 0 .7c-.1.4-.1.8-.1 1.2 0 .8.1 1.6.1 2.5 0 .4.1.8 0 1.2-.2.9-.1 1.9 0 2.8.1 1.1.1 2.2 0 3.3-.1 1-.1 2-.2 3 0 .9 0 1.8-.2 2.6-.1.3 0 .7 0 1.1 0 .5.1 1.1.1 1.6 0 .4-.1.7-.2 1 .4.5.6.5 1.2.4 0-.2-.1-.4-.1-.7.2-.1.3-.2.5-.2.1-.1.3-.2.4-.2.1-.8.1-1.5.2-2.2.1-1.1.2-2.2.2-3.3 0-2.3.1-4.6 0-6.9 0-.7-.1-1.4-.1-2.1-.1-.7.1-1.4.1-2.1 0-1.1-.1-2.1.1-3.2V47c0-.5-.1-1.1-.1-1.6 0-.9-.1-1.8-.1-2.6 0-.4.2-.6.6-.7h.2v.3c.1 1.1.1 2.2.2 3.3 0 .2.3.5.5.5.1 0 .2.1.3.1h1.6c.6 0 1.2.1 1.7-.1.2-.1.5 0 .7-.1 1.2-.1 2.3-.2 3.5-.3.4 0 .8-.1 1.2-.2.6-.2 1.3-.3 1.9-.4.3-.1.7-.2 1-.2 1.5-.3 2.9-.9 4.4-1.3 1.2-.4 2.4-.9 3.6-1.4.5-.2.9-.5 1.4-.8.3-.2.6-.4.7-.8-.1-.1-.2-.3-.3-.3-1.5-.6-3-1.3-4.5-2.1-1.1-.5-2.2-.9-3.4-.9-1.3-.1-2.7-.4-4-.3h-.3c-.6-.2-1.2-.1-1.8-.1-2.4.1-4.8.3-7.2.4-1.7.1-3.4.2-5.1.4-.1 0-.3 0-.3.2h.4c.8 0 1.6-.1 2.5.1.6.1 1.2.1 1.7-.1.6-.2 1.1-.2 1.7-.2.5 0 1.1.1 1.6 0 .8-.1 1.5-.1 2.3 0 1.1.1 2.1.2 3.2.3 1.5.1 2.9.3 4.4.5.8.1 1.6.3 2.4.6 1 .4 2.1.7 3.2 1 .6.2 1.3.3 1.8.6.1.1.2.3.1.5s-.2.4-.5.5c-.1 0-.3-.1-.4-.2-.7-.3-1.2-.6-1.8-.6-.7-.1-1.4-.3-2-.5-2.8-.9-3.8-1-6.7-1.2-1-.1-2-.1-3-.3-1.4-.2-2.8-.4-4.2-.2h-.7l-5.1.3H24c-.1 0-.3.2-.3.4-.1.7.3 1.1.8 1.5.4.3.8 0 1.1-.2.2-.1.3-.3.5-.5.1-.1.3-.1.4-.2.7.2 1.1.8 1.7 1.1.2.1.5.1.8.2.2-.1.4-.2.6-.4.1-.1.2-.2.3-.2h.3c.1 0 .1.2 0 .3-.6.9-1.3 1.3-2.4.8-.1.2-.2.2-.2.2zM39.8 4.8c-.4-.1-.5-.4-.7-.5-.2-.2-.4-.5-.6-.6-1.4-1.1-2.9-1.8-4.5-2.4-.7-.2-1.5-.4-2.3-.3-.5.1-.9.1-1.4.1-.8.1-1.6.2-2.4.4-1.3.3-2.5.6-3.8.9-.6.2-1.1.2-1.7.1-.6-.1-1.3-.2-1.9-.3-1-.1-1.9.2-2.8.5-.3.1-.6.3-.8.6-.2.6-.2 1.2-.5 1.7-.5 1.1-1 2.2-1.6 3.1-.6 1-1.1 2-1.5 3-.4 1-.8 2.1-1.1 3.1-.7 2.2-1.5 4.3-2.3 6.5-.7 2-1.6 3.9-2.6 5.8-.7 1.3-1.3 2.6-2.1 3.9-1.4 2.2-2.1 4.7-3.1 7.1v.2c-.1.7-.2 1.3-.4 2-.2.6-.2 1.2-.3 1.7v.2c0 .2.1.3.3.4.9-.2 1.7-.5 2.4-1 1.1-.6 2.3-1.2 3.5-1.7 1.1-.5 2.3-.9 3.6-1 .4 0 .8-.1 1.2-.2.9-.2 1.7-.3 2.6-.4 2.5-.2 5.1-.3 7.6-.6.6-.1 1.3 0 1.9-.3.2-.1.3-.1.5-.1 1.1 0 2.2-.2 3.4-.1.4 0 .8.1 1.2 0 .6-.2 1.3-.2 1.9-.3 1.8-.1 3.6-.2 5.5-.3.4 0 .8 0 1.2.1 1.2.1 2.3.2 3.5.3 1.3.1 2.7.4 3.9.9 1.1.5 2.2 1.1 3.4 1.6.3.1.7.2 1 .4.1-.2.2-.4.2-.5-.1-1.2 0-2.5-.5-3.6 0-.1 0-.2-.1-.3-.4-2.3-1.1-4.4-1.7-6.7-.4-1.5-1-3-1.4-4.5-.6-2-1.3-4-1.7-6.1-.4-1.1-.4-2.2-.7-3.3-.1-.8-.4-1.5-.5-2.2-.5-2.3-1.1-4.6-1.6-6.9-.1-.4-.2-.8-.5-1.1-.3 0-.5.3-.7.4-.5 0-.8.1-1 .3zM23.7 168.7c.3-.7.4-1.5.4-2.3v-2.6c0-.9.1-1.8 0-2.6-.2-1.9.2-3.9.1-5.8 0-.2.1-.3.1-.5v-.9c0-1 0-2-.1-3 0-1 0-2-.1-3-.1-.3 0-.7 0-1.1v-1.6c0-.7 0-1.4.1-2.1.1-.8 0-1.5.1-2.3 0-.1 0-.2.1-.3.1-.5.1-.9.2-1.4.1-1.3.3-2.6.2-3.9v-.5c.1-1.4.3-2.8.3-4.2 0-.2 0-.4.1-.5.1-.5.1-.9.1-1.4 0-1.1 0-2.1.2-3.2.1-.6.2-1.3.2-1.9 0-.6 0-1.3-.1-1.9v-.5c.2-1 0-2 .1-3v-.7c.2-1.1.1-2.2.1-3.3v-.9c.1-.8 0-1.6 0-2.5 0-1.4-.1-2.8-.1-4.2v-.5c.2-.9.1-1.8 0-2.6-.1-1.6.1-3.2.2-4.8l.3-3.9c0-1 .3-2 .2-3 0-.1 0-.2.1-.3.2-.5.1-1 .2-1.6 0-.5.1-1.1.1-1.6.3-2.2.3-2.6.2-4.9V82c.1-.9.2-1.9.3-2.8.1-.6.3-1.3.2-1.9 0-.9.2-1.7.3-2.6 0-.3.1-.6.2-.9 0-.1-.1-.2-.2-.2-.4.3-.7.2-.9-.2-.1-.2-.1-.5.1-.6.2-.1.4-.2.7-.1.2.1.4.3.6.1 0-.1.1-.1.1-.2v-1.2c0-.3-.1-.6-.1-.8-.3-.4-.6-.8-1.1-.9-.3-.1-.7.1-.7.4v.5c0 .3-.2.5-.5.7-.1-.1-.3-.1-.4-.2-.3-.4 0-.9-.4-1.2-.2.1-.4.2-.7.3 0 .2-.1.5-.1.7.1 1.8.2 3.5.3 5.3 0 .8.1 1.5.1 2.3-.3 1.4 0 2.8-.3 4.2-.1.3 0 .6 0 .9.1 2.1-.2 4.1-.4 6.2-.1 1.3-.3 2.7-.4 4 0 .3 0 .6-.1.9-.1.8-.1 1.6-.1 2.5v3.5c.1 1.9.3 3.8 0 5.6 0 1.1 0 2.2-.1 3.3.1 1.5-.2 2.9-.3 4.4-.1 1.2-.1 2.4-.3 3.5.1.5 0 1-.2 1.6-.1.2 0 .5 0 .7 0 .4.1.8 0 1.2-.1.8-.1 1.7-.3 2.5-.2.8-.1 1.6-.2 2.5-.1 1-.2 2.1-.2 3.2 0 1.9.2 3.9.3 5.8.1 2.1.4 4.2.2 6.3v.9c0 1.1.1 2.1.1 3.2v1.2c-.1.9-.1 1.9-.1 2.8 0 .8 0 1.5-.1 2.3-.1.4 0 .8 0 1.2.1 1.4.2 2.7.2 4.1v1.4c0 .2-.1.5-.1.7 0 1.4.1 2.7-.1 4-.1.6 0 1.3-.2 1.9-.1.3-.1.6-.1.9v1.1c-.2.8-.1 1.6-.1 2.5v.6c-.2.3-.4.5-.6.8.1 1.4.2 2.8.4 4.2 0 .1 0 .1.1.2s.2.3.3.4c.4 0 .7-.1 1.1-.1.5-.1.8-.3.8-.8v-1.1c0-.5-.1-.9-.3-1.4.1-.5.1-.9.1-1.4 0-.1-.1-.2-.1-.4l-.5-.5c-.3-.3-.2-.8.3-1-.2-.2 0-.2.2-.3zM3.6 42.5c0 .1 0 .2.1.3.1.1.3.3.4.3 2.5 1.1 5 1.9 7.7 2.6.7.2 1.4.4 2.1.5 1.1.3 2.3.5 3.4.8 1.1.3 2.2.3 3.3.3 1 .1 2-.1 3-.1.1 0 .3-.2.4-.4 0-.2.1-.3.1-.5 0-.8-.1-1.5.1-2.3.1-.3.1-.7 0-1.1 0-.3.3-.6.1-1-.1-.1-.2-.2-.3-.2-.7-.2-1-.7-1.2-1.4 0-.2-.2-.3-.2-.5-.1-.2-.2-.3-.4-.4-.2 0-.4 0-.5.1-.8.3-1.7.4-2.6.5-.5 0-1.1.1-1.6.1-1.8 0-3.6.5-5.4.8-.9.4-2 .4-3 .5l-2.7 1.2c-.2.3-.4.4-.5.4-.1 0-.2.1-.3.1-.3.1-.5-.1-.6-.3-.1-.2 0-.5.3-.6.5-.1 1-.4 1.5-.6 1.3-.6 2.6-1.1 4-1.3.5 0 1-.2 1.6-.3 1.1-.3 2.3-.5 3.5-.6 1.5-.1 2.9-.3 4.4-.4.3 0 .6-.1.9-.2.1-.1.2-.2.3-.4-.2-.1-.4-.2-.5-.2-2.1.2-4.2.3-6.3.5-1.4.1-2.8.5-4.2.7-.2 0-.3.1-.5.1-2.2.6-4.1 1.7-6 2.8-.4.1-.4.1-.4.2zm31.7 135c-.1-.2-.3-.3-.5-.2-.6.1-1.1.3-1.7.4-1.2.3-2.4.6-3.6.8-1.3.2-2.5.6-3.8.7-1.5.2-3.1.2-4.5.6-.2.1-.5 0-.7.1-1.8.2-3.5 0-5.3-.1-.5 0-.9-.1-1.4-.1-1.4-.1-2.8-.2-4.1-.8l-.6-.3c-.6.9-.4 1.8-.5 2.7.1.2.1.3.2.4.3.2.7.5 1 .7 1.5.7 3.1 1 4.8 1.2 1.3.1 2.6.2 3.9.4 1.1.1 2.2.3 3.3.2 1-.1 2-.1 3-.2s2.1-.1 3.1-.5c.1 0 .2-.1.3-.1 1.3-.1 2.5-.5 3.8-.9.9-.3 1.8-.6 2.6-1.1.6-.3 1.1-.7 1.4-1.3 0-1.1 0-1.1-.5-1.8-.1-.2-.1-.5-.2-.8zm-14.9-3.1c-.2 0-.3-.1-.5-.1-1.1.1-2.1.2-3.2.3-.2 0-.4 0-.5.1-.9.3-1.8.4-2.8.5-.2 0-.3.1-.5.1-.8.2-1.6.5-2.3.8-.3.1-.6.3-.9.5-.1.1-.2.3-.2.4.1.3.3.5.6.7.2.2.5.3.7.5.2.1.4.2.7.2 1.5.2 2.9.5 4.4.5.4 0 .7 0 1.1.1.6.1 1.2.1 1.8.1.5 0 1.1 0 1.6-.1 1.7-.1 3.4-.3 5.1-.5h.2c1.8-.4 3.7-.7 5.5-1.2 1-.3 2.1-.5 3.1-.7.3-.1.7-.2 1-.4.1-.1.2-.3.2-.5l-.4-.4c-.3-.2-.6-.3-1-.4-1.4-.5-2.9-.7-4.2-1.1-1.5-.1-2.9-.3-4.4-.2-.3 0-.4.1-.6.4 0 .3 0 .6-.1 1-.1.5-.2.9-.5 1.3-.2.2-.5.4-.8.3-.2 0-.3-.1-.5-.1-.3.1-.5.3-.9.2-.4-.1-.8-.2-1.2-.7-.6-.3-.4-1-.5-1.6z"/>
    <path d="M39.8 4.8c.3-.2.5-.4.7-.6.2-.2.4-.4.7-.4.3.3.4.7.5 1.1.6 2.3 1.2 4.6 1.6 6.9.2.7.5 1.5.5 2.2.4 1.1.4 2.2.7 3.3.4 2.1 1 4.1 1.7 6.1.5 1.5 1 3 1.4 4.5.6 2.2 1.4 4.4 1.7 6.7 0 .1 0 .2.1.3.5 1.2.4 2.4.5 3.6 0 .2-.1.3-.2.5-.4-.1-.7-.2-1-.4-1.1-.5-2.2-1.1-3.4-1.6-1.3-.5-2.6-.8-3.9-.9-1.2-.1-2.3-.2-3.5-.3-.4 0-.8-.1-1.2-.1-1.8.1-3.6.2-5.5.3-.6 0-1.3.1-1.9.3-.4.1-.8.1-1.2 0-1.1-.1-2.2.1-3.4.1-.2 0-.4 0-.5.1-.6.3-1.3.2-1.9.3-2.5.3-5 .4-7.6.6-.9.1-1.8.2-2.6.4-.4.1-.8.2-1.2.2-1.2.1-2.4.5-3.6 1-1.2.5-2.3 1.1-3.5 1.7-.8.4-1.6.8-2.4 1-.2-.1-.3-.2-.3-.4v-.2c.2-.6.2-1.2.3-1.7.5-.4.6-1 .7-1.6v-.2c1-2.4 1.7-4.9 3.1-7.1.8-1.3 1.4-2.6 2.1-3.9 1-1.9 1.9-3.8 2.6-5.8.8-2.1 1.6-4.3 2.3-6.5.3-1.1.7-2.1 1.1-3.1.4-1 .9-2 1.5-3s1.1-2.1 1.6-3.1c.2-.5.3-1.1.5-1.7.2-.3.5-.5.8-.6.9-.3 1.8-.6 2.8-.5.6.1 1.3.1 1.9.3.6.1 1.2.1 1.7-.1 1.3-.3 2.5-.6 3.8-.9.8-.2 1.6-.3 2.4-.4.5 0 .9 0 1.4-.1.8-.1 1.5 0 2.3.3 1.6.5 3.1 1.3 4.5 2.4l.6.6c.2.1.3.3.7.4zM8.9 36.2c.4 0 .5-.2.6-.5.3-1.3.7-2.6.9-4-.2-.4-.3-.7-.5-1.1.3-1.3.6-2.5 1.2-3.7.5-1.1 1-2.3 1.6-3.4.5-1 .9-2 1.6-3 .1-.1.2-.3.2-.5 1-2.3 2-4.6 2.8-7 .5-1.6 1-3.1 1.5-4.7.1-.3.1-.6.1-.9 0-.2-.1-.3-.2-.5-.5.2-.7.3-.7.7-.1.8-.3 1.5-.5 2.2-.2.6-.4 1.1-.6 1.7-.7 2.1-1.4 4.1-2.2 6.1-.5 1.3-1 2.5-1.7 3.7-1 1.6-1.6 3.3-2.4 4.9-.1.1-.1.2-.1.3-.4 1.1-.7 2.2-1.2 3.3 0 .5-.4 1-.2 1.6.2.3.6.4.6.9-.2.7-.4 1.5-.7 2.3-.1.5-.2.9-.1 1.4-.1 0 0 .1 0 .2zm35.8-1.4c-.1-.2-.1-.3-.2-.5-.5-.8-.8-1.7-1.1-2.6-.1-.4-.2-.9-.4-1.4-.2-.6-.5-1.1-.6-1.6-.1-.5-.4-1-.5-1.5-.1-.6-.4-1.1-.6-1.7-.1-.4-.3-.8-.4-1.2-.6-1.5-1.1-3.1-1.7-4.6-.2-.6-.3-1.1-.4-1.7-.1-1.4-.2-2.7-.3-4 0-.5-.1-1.1-.2-1.6-.3-1.3-.8-2.4-1.3-3.7-.1-.4-.4-.7-.7-1-.1-.1-.3-.1-.5-.1-.2.1-.4.3-.4.6l.9 1.2c.2.7.4 1.4.7 2.1.3.8.4 1.6.5 2.4.1 1.4.2 2.8.4 4.2.2 1.2.5 2.3.9 3.4.4 1 .8 2 1.1 3 .2.8.5 1.6.9 2.3.3.8.6 1.6.9 2.5l1.2 3.9c.2.7.5 1.3.9 1.9.1.1.3.1.5 0 .2 0 .3-.1.4-.3zM20.6 14c.3.4.5.8.5 1.3.1.5.1 1.1.1 1.6 0 .6 0 1.2-.1 1.7-.3 1.9-.7 3.7-.5 5.6v.2c-.2 1.1-.1 2.1 0 3.2s.1 2.2.1 3.4c0 .7 0 1.3-.2 1.9v.3c.1.2.3.3.6.2.3-.1.4-.4.4-.7 0-1.1-.1-2.2-.2-3.4-.1-1 .1-2-.1-3 .2-.6 0-1.2 0-1.8 0-1.4.2-2.7.2-4 0-.2.1-.3.1-.5.1-.7.3-1.4.3-2.1 0-.6.1-1.3.1-1.9.1-1-.2-2-.4-3-.1-.4-.1-.8 0-1.2 0-.2.1-.4.1-.5 0-.2-.1-.3-.3-.4-.1-.1-.2-.1-.3-.1-.2 0-.3-.1-.4-.3 0-.3.1-.6.1-.9 0-.2-.1-.5-.3-.6-.1-.1-.2-.1-.3-.1-.1 0-.4.2-.4.3 0 .5 0 .9-.1 1.4-.3 1.3-.3 2.6-.6 3.8-.1.2 0 .5.2.6.3 0 .6-.1.8-.3.3-.3.5-.5.6-.7zm6.8 17.7c.5-.2.5-.3.6-.5.1-.2.1-.5.1-.7-.1-.5-.4-1-.4-1.5-.1-1.1-.4-2.2-.3-3.3 0-.2-.1-.3-.1-.5-.1-.6-.2-1.2-.2-1.7-.1-.6-.1-1.3-.1-1.9-.1-1.6-.3-3.3-.4-4.9v-1.9c.1-.7.1-1.4-.1-2.1-.2-1.2-.4-2.4-.5-3.7 0-.1-.1-.2-.1-.3-.1-.2-.4-.3-.6-.2-.2.1-.3.4-.3.6.3 1 .4 1.9.5 2.9.1 1.8.3 3.6.2 5.5 0 .4 0 .8.1 1.2.4 1.5.4 3 .5 4.5.2 2.5.4 5 .6 7.6 0 .2.2.6.5.9zm5.2-23.9c-.2-.1-.3-.2-.4-.2-.4-.1-.8.3-.6.6.1.3.2.7.4 1 .3.6.6 1.3.8 2 .4 1.2.7 2.4.8 3.6.1.3 0 .7.1 1 .3 1 .4 2.1.5 3.1 0 .2 0 .5.1.7.2.6.3 1.1.4 1.7.1.3.1.6.2.9l1.5 5.4c0 .1.1.2.2.3.1.1.2.1.3.1.3-.1.5-.3.5-.7-.3-.9-.6-1.8-.9-2.6-.4-1.1-.5-2.3-.9-3.4-.3-.8-.4-1.6-.5-2.4-.1-.5-.1-1.1-.2-1.6-.4-1.5-.5-3-.8-4.5-.3-1.1-.4-1.9-.9-3-.1-.8-.3-1.4-.6-2zm-3.5 11.3c.1.2.2.3.3.5.1.2.2.4.2.7.1.9.6 1.8.6 2.7.2.6.4 1.2.5 1.9 0 .1.1.2.1.3.4.7.7 1.3 1.1 2 .1.1.3.2.4.3.1-.1.3-.2.4-.4.1-.1.1-.2.1-.3 0-.2-.1-.4-.1-.5-.3-.4-.6-.8-1-1.3-.1-.3-.3-.7-.3-1.1-.2-1-.4-2-.6-2.9-.2-1-.5-1.9-.9-2.8-.1-.3-.3-.5-.7-.6-.1 0-.3.1-.5.1-.2.4-.5.8-.7 1.2 0 .1 0 .1-.1.2v.2c0 .3 0 .6.2.9.1.2.3.2.5.2.1 0 .3-.2.4-.3 0-.4 0-.6.1-1zm-12.4 3.4c-.2-.5-.2-.9-.2-1.3 0-.1-.3-.3-.4-.2-.1.1-.2.1-.3.2-.5.9-.8 1.8-1 2.8 0 .1.1.3.3.4.1.1.4.1.5-.1.1-.1.3-.2.4-.4.2-.4.4-.9.7-1.4zm6.2-3.1c.1.9.1 1.8.2 2.8 0 .1 0 .1.1.2 0 .1.3.2.4.2.3-.1.5-.3.5-.6-.1-.8-.1-1.5-.2-2.3 0-.1-.1-.2-.1-.3-.1-.1-.2-.2-.3-.2-.3-.3-.4-.1-.6.2z" style="fill:#ece1de"/>
    <path d="M23.7 168.7c-.1.1-.3.1-.5.2-.4.2-.6.7-.3 1l.5.5c0 .1.1.3.1.4.1.5.1.9-.1 1.4.2.4.3.9.3 1.4v1.1c0 .5-.3.7-.8.8-.3 0-.7.1-1.1.1-.1-.1-.2-.2-.3-.4 0 0-.1-.1-.1-.2-.1-1.4-.2-2.8-.4-4.2.2-.2.3-.5.6-.8v-.6c0-.8-.1-1.6.1-2.5.1-.3 0-.7 0-1.1 0-.3 0-.6.1-.9.1-.6.1-1.3.2-1.9.1-1.4.1-2.7.1-4 0-.2 0-.5.1-.7 0-.5.1-.9 0-1.4-.1-1.4-.2-2.7-.2-4.1 0-.4-.1-.8 0-1.2.1-.8.1-1.5.1-2.3 0-.9-.1-1.9.1-2.8.1-.4 0-.8 0-1.2 0-1.1-.1-2.1-.1-3.2 0-.3-.1-.6 0-.9.2-2.1-.1-4.2-.2-6.3-.1-1.9-.2-3.9-.3-5.8 0-1.1.1-2.1.2-3.2.1-.8.1-1.6.2-2.5.2-.8.1-1.6.3-2.5.1-.4 0-.8 0-1.2 0-.2-.1-.5 0-.7.2-.5.2-1 .2-1.6.2-1.2.2-2.3.3-3.5.1-1.5.4-2.9.3-4.4.2-1.1.1-2.2.1-3.3.3-1.9.1-3.8 0-5.6v-3.5c0-.8 0-1.6.1-2.5 0-.3.1-.6.1-.9 0-1.4.2-2.7.4-4 .2-2 .5-4.1.4-6.2 0-.3-.1-.6 0-.9.3-1.4 0-2.8.3-4.2 0-.8-.1-1.5-.1-2.3-.1-1.8-.2-3.5-.3-5.3 0-.2.1-.5.1-.7.3-.1.5-.2.7-.3.4.3.1.8.4 1.2.1 0 .3.1.4.2.3-.2.5-.4.5-.7V70c0-.3.4-.5.7-.4.5.2.8.5 1.1.9 0 .2.1.5.1.8v1.2c0 .1 0 .1-.1.2-.2.2-.4 0-.6-.1-.2-.1-.5 0-.7.1-.2.1-.2.4-.1.6.3.3.5.4.9.2.1-.1.2 0 .2.2 0 .3-.1.6-.2.9-.1.9-.3 1.7-.3 2.6 0 .6-.2 1.3-.2 1.9-.1.9-.2 1.9-.3 2.8v1.4c.1 2.3.1 2.7-.2 4.9-.1.5-.1 1.1-.1 1.6s0 1.1-.2 1.6c0 .1-.1.2-.1.3.1 1-.2 2-.2 3 0 1.3-.2 2.6-.3 3.9-.1 1.6-.2 3.2-.2 4.8 0 .9.1 1.8 0 2.6v.5c0 1.4.1 2.8.1 4.2 0 .8.1 1.6 0 2.5v.9c0 1.1.1 2.2-.1 3.3v.7c-.1 1 .1 2-.1 3v.5c0 .6.1 1.3.1 1.9 0 .6-.1 1.3-.2 1.9-.2 1.1-.2 2.1-.2 3.2 0 .5 0 .9-.1 1.4 0 .2-.1.3-.1.5 0 1.4-.2 2.8-.3 4.2 0 .2-.1.4 0 .5.1 1.3 0 2.6-.2 3.9 0 .5 0 .9-.2 1.4 0 .1 0 .2-.1.3 0 .8 0 1.5-.1 2.3-.1.7-.1 1.4-.1 2.1v1.6c0 .4-.1.7 0 1.1.2 1 .1 2 .1 3s.1 2 .1 3v.9c0 .2-.1.4-.1.5.1 1.9-.2 3.9-.1 5.8.1.9-.1 1.8 0 2.6v2.6c.3.9.1 1.6-.1 2.4zM25.8 78c.3 0 .5-.2.5-.5 0-.2-.1-.4-.4-.5-.3-.1-.6.1-.6.4 0 .3.2.5.5.6zm-.3-3.7c.4-.2.5-.4.5-.8 0-.1-.2-.3-.3-.4-.2-.1-.4.1-.6.3-.1.2-.2.4 0 .6.1.2.3.2.4.3zm-.2 6.4c.1.1.1.2.2.3l.1.1c.1 0 .1 0 .2.1.1 0 .4-.1.4-.2.1-.2 0-.5-.2-.6-.2-.2-.5-.1-.7.3.1-.2 0-.1 0 0zM23 172.2c0-.2-.3-.4-.5-.3-.2.1-.3.3-.3.5s.3.4.5.3c.2-.1.4-.3.3-.5z" style="fill:#e6d0c3"/>
    <path class="st3" d="M27.6 42.1h.2c1 .5 1.8.1 2.4-.8.1-.1.1-.2 0-.3-.1 0-.2-.1-.3 0-.1 0-.2.1-.3.2-.2.1-.4.2-.6.4-.3-.1-.6-.2-.8-.2-.6-.3-1-1-1.7-1.1-.1.1-.3.1-.4.2-.2.1-.3.3-.5.5-.3.2-.7.5-1.1.2-.5-.3-.9-.8-.8-1.5 0-.1.2-.3.3-.4h.3l5.1-.3h.7c1.4-.2 2.8 0 4.2.2l3 .3c2.9.1 3.9.3 6.7 1.2.7.2 1.3.4 2 .5.6.1 1.1.3 1.6.6.1.1.3.1.4.2.3-.1.4-.3.5-.5.1-.2 0-.4-.1-.5-.6-.3-1.2-.4-1.8-.6-1.1-.3-2.2-.6-3.2-1-.8-.3-1.6-.4-2.4-.6-1.5-.2-2.9-.4-4.4-.5-1.1-.1-2.1-.2-3.2-.3-.8-.1-1.5-.1-2.3 0-.5.1-1.1 0-1.6 0-.6 0-1.2 0-1.7.2-.6.2-1.2.3-1.7.1-.8-.2-1.6-.1-2.5-.1h-.4c.1-.2.2-.2.3-.2 1.7-.2 3.4-.3 5.1-.4 2.4-.1 4.8-.3 7.2-.4.6 0 1.2-.1 1.8.1h.3c1.4-.1 2.7.2 4 .3 1.2.1 2.3.4 3.4.9 1.5.7 2.9 1.5 4.5 2.1l.3.3c-.2.4-.5.6-.7.8-.4.3-.9.6-1.4.8-1.2.5-2.4 1.1-3.6 1.4-1.5.4-2.9 1-4.4 1.3-.3.1-.7.2-1 .2-.6.1-1.3.2-1.9.4-.4.1-.8.1-1.2.2-1.2.1-2.3.2-3.5.3-.2 0-.5 0-.7.1-.6.2-1.2.1-1.7.1h-1.6c-.1 0-.2 0-.3-.1-.1 0-.4-.3-.5-.5-.1-1.1-.1-2.2-.2-3.3.1-.3.2-.4.2-.5zm12.5 0c-.1 0-.3.1-.5.1-.3.2-.4.5-.1.9.2.2.4.2.6 0 .3-.2.3-.5 0-1zm-3.9-.5c-.1-.1-.1-.3-.2-.5s-.3-.3-.6-.3-.4.2-.4.6c.1.1.3.3.5.4.3.3.5.2.7-.2zm1.9 1.1c-.1-.1-.3-.3-.4-.3-.2-.1-.4 0-.6.2-.1.1-.1.4.1.5.2.1.5.1.6 0 .1-.1.2-.3.3-.4zM35.8 44c-.1-.2-.3-.3-.6-.3-.2 0-.3.1-.3.3v.2c.2.2.5.3.8.1.1-.1.1-.2.1-.3zM3.6 42.5l.1-.1c1.9-1.2 3.9-2.2 6-2.8.2-.1.3-.1.5-.1 1.4-.2 2.8-.6 4.2-.7 2.1-.1 4.2-.3 6.3-.5.2 0 .3.1.5.2-.1.2-.2.4-.3.4-.3.1-.6.2-.9.2-1.5.2-2.9.3-4.4.4-1.2.1-2.3.4-3.5.6-.5.1-1 .3-1.6.3-1.4.1-2.7.7-4 1.3-.5.2-.9.5-1.5.6-.2 0-.4.4-.3.6.1.2.4.4.6.3.1 0 .2-.1.3-.1.4-.1.6-.2.8-.3l2.7-1.2c1-.2 2.1-.2 3-.5 1.8-.2 3.6-.7 5.4-.8.5 0 1.1-.1 1.6-.1.9-.1 1.8-.2 2.6-.5.2-.1.3-.1.5-.1.2.1.3.2.4.4 0 .2.2.3.2.5.2.7.6 1.1 1.2 1.4.1 0 .2.1.3.2.2.4-.1.7-.1 1v1.1c-.2.8-.1 1.5-.1 2.3 0 .2 0 .3-.1.5 0 .1-.3.3-.4.4-1 0-2 .2-3 .1-1.1-.1-2.2-.1-3.3-.3-1.1-.3-2.3-.5-3.4-.8-.7-.2-1.4-.3-2.1-.5-2.6-.7-5.2-1.5-7.7-2.6-.2-.1-.3-.2-.4-.3-.1-.3-.1-.4-.1-.5zm14 1.1c-.1-.3-.2-.4-.5-.4-.2-.1-.5 0-.6.2-.1.1-.1.2-.1.3.1.3.4.4.7.5.2 0 .5-.4.5-.6z"/>
    <path d="M35.3 177.5c0 .3.1.6.1.8.5.8.5.8.5 1.8-.3.6-.8 1-1.4 1.3-.8.4-1.7.8-2.6 1.1-1.2.4-2.5.8-3.8.9-.1 0-.2 0-.3.1-1 .4-2.1.4-3.1.5-1 .1-2 .1-3 .2-1.1.1-2.2-.1-3.3-.2-1.3-.2-2.6-.2-3.9-.4-1.6-.1-3.3-.4-4.8-1.2-.4-.2-.7-.4-1-.7-.1-.1-.1-.2-.2-.4.1-.9 0-1.8.5-2.7l.6.3c1.3.6 2.7.7 4.1.8.5 0 .9.1 1.4.1 1.8.1 3.5.3 5.3.1.2 0 .5 0 .7-.1 1.5-.4 3-.4 4.5-.6 1.3-.2 2.5-.5 3.8-.7 1.2-.2 2.4-.6 3.6-.8.6-.1 1.1-.3 1.7-.4.4-.1.5 0 .6.2z" style="fill:#f2edda"/>
    <path class="st3" d="M20.4 174.4c.1.6-.1 1.2.2 1.5.4.5.8.6 1.2.7.3.1.6-.1.9-.2.2 0 .3.1.5.1.3.1.6-.1.8-.3.3-.4.5-.8.5-1.3 0-.3.1-.7.1-1 .2-.3.3-.4.6-.4 1.5-.1 2.9.1 4.4.2 1.4.5 2.9.7 4.2 1.1.3.1.7.2 1 .4.1.1.3.2.4.4-.1.2-.1.4-.2.5-.3.2-.6.3-1 .4-1 .3-2.1.4-3.1.7-1.8.5-3.7.8-5.5 1.2h-.2c-1.7.2-3.4.3-5.1.5-.5 0-1.1 0-1.6.1-.6 0-1.2 0-1.8-.1-.3-.1-.7-.1-1.1-.1-1.5 0-2.9-.3-4.4-.5-.2 0-.5-.1-.7-.2-.3-.1-.5-.3-.7-.5-.2-.2-.5-.4-.6-.7.1-.1.1-.3.2-.4.3-.2.6-.4.9-.5.8-.3 1.6-.5 2.3-.8.2-.1.3-.1.5-.1.9-.1 1.9-.2 2.8-.5.2-.1.3-.1.5-.1 1.1-.1 2.1-.2 3.2-.3.5.1.7.2.8.2z"/>
    <path d="M27.6 42.1c-.1 0-.2.1-.3.1-.4.1-.6.3-.6.7 0 .9.1 1.8.1 2.6 0 .5.1 1.1.1 1.6v.7c-.2 1-.2 2.1-.1 3.2 0 .7-.2 1.4-.1 2.1.1.7.1 1.4.1 2.1.1 2.3 0 4.6 0 6.9 0 1.1-.1 2.2-.2 3.3 0 .7-.1 1.4-.2 2.2-.1.1-.2.2-.4.2-.1.1-.3.2-.5.2 0 .2.1.5.1.7-.6.2-.7.2-1.2-.4.1-.3.3-.6.2-1-.1-.5-.1-1.1-.1-1.6 0-.4-.1-.7 0-1.1.2-.9.1-1.8.2-2.6.1-1 .1-2 .2-3 .1-1.1.1-2.2 0-3.3 0-.9-.1-1.9 0-2.8.1-.4 0-.8 0-1.2 0-.8-.1-1.6-.1-2.5 0-.4 0-.8.1-1.2.1-.2.1-.5 0-.7 0-.2-.1-.3-.1-.5.1-.8 0-1.5.1-2.3 0-.8.1-1.5.2-2.2.3-.5.6-.9 1.1-1.1.1 0 .3 0 .3.1.4.2.9.4 1.1.8z" style="fill:#ebd8d5"/>
    <path class="st0" d="M8.9 36.2c-.1-.1-.1-.2-.2-.3 0-.5 0-.9.1-1.4.3-.8.5-1.6.7-2.3 0-.5-.5-.6-.6-.9-.2-.6.3-1.1.2-1.6l1.2-3.3c0-.1.1-.2.1-.3.9-1.6 1.5-3.3 2.4-4.9.7-1.1 1.2-2.4 1.7-3.7.8-2 1.6-4 2.2-6.1.2-.6.4-1.1.6-1.7.2-.7.4-1.5.5-2.2 0-.4.2-.5.8-.5.1.1.2.3.2.5 0 .3 0 .6-.1.9-.5 1.6-1 3.1-1.5 4.7-.8 2.4-1.8 4.7-2.8 7-.1.2-.1.3-.2.5-.6.9-1 2-1.6 3-.6 1.1-1 2.2-1.6 3.4-.5 1.2-.9 2.4-1.2 3.7.2.4.3.7.5 1.1-.2 1.4-.6 2.7-.9 4 .1.1-.1.4-.5.4zM44.7 34.8c-.1.1-.2.3-.3.4-.1.1-.4.1-.5 0-.4-.6-.7-1.2-.9-1.9l-1.2-3.9c-.3-.8-.5-1.7-.9-2.5-.3-.8-.6-1.5-.9-2.3-.3-1-.7-2-1.1-3-.4-1.1-.7-2.2-.9-3.4-.2-1.4-.4-2.8-.4-4.2 0-.8-.2-1.6-.5-2.4-.3-.7-.5-1.4-.7-2.1-.3-.5-.7-.9-.9-1.2 0-.4.1-.5.4-.6.2-.1.3 0 .5.1.3.3.6.6.7 1 .5 1.2.9 2.4 1.3 3.7.1.5.2 1 .2 1.6.1 1.3.2 2.7.3 4 0 .6.2 1.1.4 1.7.6 1.5 1.1 3.1 1.7 4.6.1.4.3.8.4 1.2.2.6.5 1.1.6 1.7.1.5.4 1 .5 1.5.2.6.4 1.1.6 1.6.1.4.2.9.4 1.4.3.9.6 1.8 1.1 2.6 0 .1 0 .2.1.4zM20.6 14c-.2.2-.3.5-.5.7-.2.2-.5.3-.8.3-.2-.1-.3-.4-.2-.6.3-1.3.4-2.6.6-3.8.1-.5.1-.9.1-1.4 0-.1.2-.3.4-.3.1 0 .2.1.3.1.2.2.3.4.3.6 0 .3-.1.6-.1.9.1.2.1.3.4.3.1 0 .3 0 .3.1.1.1.2.3.3.4 0 .2 0 .3-.1.5-.1.4-.1.8 0 1.2.2 1 .5 2.1.7 3.1 0 .6-.1 1.3-.1 1.9 0 .7-.2 1.4-.3 2.1 0 .2-.1.3-.1.5 0 1.4-.2 2.7-.2 4 0 .6.1 1.2 0 1.8.2 1 0 2 .1 3 .1 1.1.1 2.2.2 3.4 0 .3-.1.6-.4.7-.2.1-.4 0-.6-.2 0-.1-.1-.2 0-.3.2-.6.2-1.3.2-1.9 0-1.1-.1-2.2-.1-3.4-.1-1.1-.2-2.1 0-3.2v-.2c-.2-1.9.2-3.8.5-5.6.1-.6.2-1.2.1-1.7 0-.5-.1-1.1-.1-1.6-.4-.6-.5-1-.9-1.4zm-.1-2.2c.1-.2.1-.5 0-.6h-.1c-.1.1-.1.4 0 .6h.1zM27.4 31.7c-.3-.3-.5-.6-.5-1.1-.2-2.5-.4-5-.6-7.6-.1-1.5-.1-3.1-.5-4.5-.1-.4-.1-.8-.1-1.2.1-1.8-.1-3.6-.2-5.5-.1-1-.2-2-.5-2.9-.1-.2.1-.5.3-.6.2-.1.6 0 .6.2 0 .1.1.2.1.3.2 1.2.3 2.4.5 3.7.1.7.1 1.4.1 2.1-.1.6-.1 1.3 0 1.9.1 1.6.2 3.3.4 4.9 0 .6.1 1.3.1 1.9.1.6.1 1.2.2 1.7 0 .2.1.3.1.5-.1 1.1.2 2.2.3 3.3 0 .5.3 1 .4 1.5.1.2 0 .5-.1.7-.1.4-.1.4-.6.7zM32.6 7.8c.2.7.5 1.3.7 1.9.4 1.1.6 1.9.9 3 .4 1.5.5 3 .8 4.5.1.5.2 1 .2 1.6.1.8.2 1.6.5 2.4.4 1.1.6 2.3.9 3.4.3.9.6 1.8.9 2.6-.1.3-.3.5-.5.7-.1 0-.2 0-.3-.1-.1-.1-.2-.2-.2-.3L35 22.1c-.1-.3-.2-.6-.2-.9-.1-.6-.2-1.2-.4-1.7-.1-.2-.1-.5-.1-.7-.1-1-.2-2.1-.5-3.1-.1-.3-.1-.7-.1-1-.2-1.2-.5-2.4-.8-3.6-.2-.7-.4-1.3-.8-2-.2-.3-.3-.6-.4-1-.1-.3.2-.7.6-.6 0 .1.1.1.3.3zM29.1 19.1c-.1.4-.1.6-.1.9 0 .2-.2.3-.4.3s-.3-.1-.5-.2c-.2-.3-.2-.7-.2-.9V19c0-.1 0-.1.1-.2.2-.4.5-.8.7-1.2.2 0 .4-.1.5-.1.3.1.5.3.7.6.4.9.7 1.9.9 2.8.2 1 .4 2 .6 2.9.1.4.2.8.3 1.1.4.5.7.9 1 1.3.1.1.1.3.1.5 0 .1 0 .2-.1.3l-.4.4c-.2-.1-.3-.2-.4-.3-.4-.7-.7-1.3-1.1-2-.1-.1-.1-.2-.1-.3-.1-.6-.3-1.3-.5-1.9 0-1-.5-1.8-.6-2.7 0-.2-.1-.4-.2-.7-.1-.1-.2-.2-.3-.4zM16.7 22.5c-.3.5-.5 1-.7 1.5-.1.1-.2.3-.4.4-.1.1-.4.2-.5.1-.1-.1-.3-.3-.3-.4.2-1 .5-1.9 1-2.8 0-.1.2-.2.3-.2.1-.1.4.1.4.2 0 .2 0 .6.2 1.2zM22.9 19.4c.1-.3.3-.4.6-.3.1 0 .2.1.3.2.1.1.1.2.1.3.1.8.2 1.5.2 2.3 0 .3-.2.5-.5.6-.2.1-.4 0-.4-.2 0-.1-.1-.1-.1-.2-.1-.9-.1-1.8-.2-2.7zM25.8 78c-.3 0-.5-.3-.4-.6 0-.3.3-.5.6-.4.2 0 .4.3.4.5-.1.2-.3.5-.6.5zM25.5 74.3c-.1-.1-.3-.2-.4-.3-.1-.2-.1-.4 0-.6.1-.2.4-.3.6-.3.1 0 .3.2.3.4 0 .4-.1.7-.5.8zM25.3 80.7c0-.1 0-.1.1-.2.2-.3.5-.4.7-.3.2.1.2.4.2.6 0 .1-.3.3-.4.2-.1 0-.1 0-.2-.1l-.1-.1c-.2.1-.2 0-.3-.1zM23 172.2c0 .2-.1.4-.3.5-.2.1-.4-.1-.5-.3 0-.2.1-.5.3-.5.2-.1.5 0 .5.3zM40.1 42.1c.3.5.4.7 0 1-.2.2-.4.2-.6 0-.3-.3-.2-.7.1-.9.2 0 .3 0 .5-.1zM36.2 41.6c-.3.3-.5.4-.7.3-.2-.1-.3-.3-.5-.4 0-.3.1-.5.4-.6.2 0 .5 0 .6.3.1.1.2.3.2.4zM38.1 42.7c-.1.2-.1.3-.2.4-.1.2-.5.2-.6 0-.3-.1-.3-.4-.2-.6.1-.2.4-.3.6-.2l.4.4zM35.8 44c0 .1 0 .2-.1.3-.3.2-.6.1-.8-.1V44c0-.2.2-.3.3-.3.3 0 .5.1.6.3zM17.6 43.6c.1.3-.2.6-.5.6-.3-.1-.5-.2-.7-.5 0-.1 0-.2.1-.3.1-.2.4-.3.6-.2.2 0 .4.1.5.4z"/>
    <path class="st3" d="M20.5 11.8h-.1c-.1-.1-.1-.4 0-.6h.1c.1.2.1.5 0 .6z"/>
</svg>
