<svg xmlns="http://www.w3.org/2000/svg" width="205.6" height="741" style="overflow:visible;enable-background:new 0 0 205.6 741" xml:space="preserve">
    <style>
        .st0{fill:#7a6a56}.st3{fill:#fff}
    </style>
    <path class="st0" d="M164.9 6.6c1.7.7 2.8 1.6 3.2 3.1 1.1 4.1 3 7.9 3.7 12.1.4 2.8 1.5 5.4 2.3 8.1.4 1.4.8 2.7 1 4.1 1.3 7.2 3.1 14.2 4.8 21.3.5 2.1.8 4.2 1.3 6.2 1.2 5 2.1 10.1 3.5 15.1l6 21c.4 1.3 1 2.6 1.5 3.9 1.5 3.7 2.9 7.4 3.7 11.4.7 3.2 1.6 6.4 2.6 9.5 1.2 3.8 2 7.7 3.1 11.6 1.3 4.5 2.1 9.2 2.4 13.9.1.9.2 1.9.4 2.8.4 1.8.8 3.7 1.3 5.5-.8 2.7-.2 5.6-1 8.4-2.2 3.9-5.7 6.3-9.6 7.9-6.5 2.8-12.9 5.7-19.8 7.4-1.8.4-3.6 1-5.4 1.6-6.2 2.3-12.7 3.4-19.1 4.9-3.2.7-6.5.8-9.8 1.2-1.6.2-3.3.2-4.9.6-5.5 1.4-11.2 1.6-16.8 1.9-1.9.1-3.7.1-5.6-.3-1.5-.3-2.6.8-2.8 2.4-.1 1.2-.2 2.3-.2 3.5-.1 2.6-.1 5.1-.4 7.7-.3 2.8-.1 5.6.1 8.5.3 5.9.5 11.7.3 17.6-.2 4.2.2 8.5.3 12.7.1 2.6.1 5.2-.4 7.7-.3 1.4-.2 2.8-.2 4.2.1 2.1-.1 4.2-.3 6.3-.3 2.8-.3 5.6-.3 8.2.8 2.3 1.5 4.2 2.2 6.1.9.6 1.6 1.1 2.4 1.7.4 1.6.9 3.2 1.3 4.8.5 1.8.6 3.7.3 5.6-.5 3.2-.7 6.5-1.7 9.7-.7 2.3-.9 4.6-1.1 6.9-.3 3.3-.8 6.5-1.3 9.8-.5 3-.3 6.1-.9 9.1-.5 2.3-.2 4.7-.1 7 .1 2.4.3 4.7-.3 7-.3 1.1-.2 2.3-.2 3.5 0 2.4.1 4.7-.4 7-.3 1.1-.1 2.3-.1 3.5-.1 2.8-.3 5.6-.7 8.4-.6 3.7-.7 7.5-.9 11.2-.2 3.1.1 6.1-.7 9.1.1 5-.9 9.8-.9 14.8 0 2.3-.5 4.7-.5 7 0 7.1-.7 14.1-.3 21.2.4 6.3.5 12.7.1 19.1-.2 3.5.1 7.1.2 10.6s.4 7-.2 10.6c-.2 1.4-.1 2.8-.1 4.2-.1 2.3-.3 4.7-.4 7-.1 3.1-.3 6.1-.1 9.2.5 6.4-.4 12.7-.9 19-.1.9-.4 1.9-.3 2.8.1 4.9-1.1 9.8-.6 14.8.1.9-.1 1.9-.2 2.8-.2 1.4-.4 2.8-.5 4.2-.2 3.3-.1 6.6-.6 9.9-.2 1.6-.1 3.3 0 4.9.3 5.4-.2 10.8-1.1 16.1-.1.7-.3 1.4-.3 2.1-.1 6.3-1.1 12.7-.8 19 .1 1.4.1 2.8-.3 4.2-.2.9-.2 1.9-.1 2.8.3 8 .7 16 1.1 24 .1 1.6-.1 3.3-.2 4.9-.2 3.8-.1 7.5-.1 11.3 0 1.9.2 3.8-.3 5.6-.2.9-.3 1.9-.2 2.8.2 8.5-.5 17 .2 25.4.4 5.2-.4 10.3-1.2 15.4-.2 1.4-.5 2.8-.7 4.2-.7 4.8-.7 4.8 1.1 10.3.4.2.8.5 1.2.6.4.1.9.2 1.4.2 5.9-.7 11.7.4 17.5 1.3 5.6.8 11.1 2.1 16.4 4 .9.3 1.8.5 2.7.7 2.1.5 4 1.4 5.8 2.5 1.3.8 2.1 1.9 2.2 3.4 0 .2 0 .5.1.7.1 1.2.1 2.4.4 3.5.2.9.8 1.7 1.3 2.7-.2 1.7-.7 3.5-.7 5.4 0 1.9.4 3.7.4 5.6 0 1.4-.1 2.8-.2 4.3-.8.6-1.6 1.2-2.4 1.6-4.7 2.7-9.3 5.6-14.5 7.2-5.8 1.8-11.6 3.8-17.7 4.5-.7.1-1.4.2-2.1.4-5.2 1.6-10.7 1.8-16.1 2.2-1.9.1-3.8.1-5.6.3-6.1.7-12.2 0-18.3-.7-4.9-.5-9.8-1-14.7-1.4-5.1-.5-10.3-1.3-15.1-3.2-2-.8-3.9-1.6-5.9-2.4-.6-.3-1.3-.6-1.9-1-1.8-1-2.9-2.5-2.9-4.5 0-2.1 0-4.2.2-6.3.1-1.6.4-3.3.7-4.9.3-1.6.5-3.2.8-4.8-.2-.8-.3-1.5-.5-2.1-.4-1-.1-2 .6-2.6 3.5-3.3 7.5-5.7 12.1-7 8.2-2.3 16.4-4.2 24.9-5 3.7-.4 7.4-1.2 11.1-1.8.4-.1.7-.6 1.2-1-.8-4.5-1.6-9.1-1.5-13.8.4-.7.7-1.4 1.2-1.8 1.3-1.2 1.8-2.8 2-4.4.1-1.2.1-2.4.1-3.5.1-5.2.7-10.3 1.4-15.4.1-.5.2-.9.2-1.4-.1-4.2.2-8.5.4-12.7.2-4.2-.1-8.5-.3-12.7-.2-4.2-.5-8.5-.8-12.7-.2-3.3-.5-6.6.3-9.8.1-.2 0-.5.1-.7.3-4.2-.2-8.4.4-12.7.5-4.2.6-8.5.2-12.7-.5-4.7.2-9.4-.3-14.1-.4-4.4-.5-8.9-.7-13.4-.2-4.7-.4-9.4-.7-14.1-.1-2.8-.4-5.6.1-8.5.2-1.4 0-2.8-.1-4.2-.1-4.5-.3-8.9-.4-13.4 0-.9-.1-1.9 0-2.8 1.5-9.8 1.7-19.7 3.1-29.4-.2-5.2 1-10.3 1-15.5 0-3.7.4-7.5 1-11.2.4-2.6.5-5.1.6-7.7.1-2.8.5-5.6.5-8.4.1-2.8 0-5.6.6-8.4.2-1.1.1-2.3.1-3.5 0-2.4-.1-4.7.1-7.1.5-4.7.2-9.4 0-14.1-.1-3.3-.3-6.6-.4-9.9-.1-2.1-.3-4.2.3-6.3.2-.7.2-1.4.2-2.1-.2-4.7.2-9.4.7-14.1.3-3 .7-6.1.8-9.1.1-2.8 1.4-5.5 1-8.4-.4-2.9.4-5.6.4-8.4 0-5.4.5-10.8.8-16.2.2-3.3.1-6.6.4-9.9.2-2.3 0-4.7-.1-7.1-.3-5.4-.6-10.8-1-16.2-.4-5.2-.7-10.3 0-15.5 0-.2-.2-.4-.3-.6-1-1.1-2.9.3-3.9-1.3.2-.5.4-1.4.8-1.7 1.3-.9 2.8-1.7 4.3-2.5.1-.6.4-1.3.4-1.9.1-7.1.1-14.1.8-21.2.1-1.4 0-2.8.1-4.2 0-1.4-.2-2.9.1-4.2.7-3.7.5-7.5.4-11.3-.1-3.1-.2-6.1.2-9.2.2-1.4 0-2.8 0-4.2 0-2.6-.2-5.2.5-7.8-1.2-4.5-1.7-9.2-1-13.8-.5-.3-.9-.8-1.3-.8-1.2 0-2.3 0-3.5.1-3.8.3-7.5.5-11.3-.2-1.8-.3-3.8-.4-5.6-.2-3.8.3-7.5-.6-11.2-1.3-4.4-.9-8.7-2-13-3.1-5.4-1.4-10.9-3-16.3-4.5-.9-.3-1.7-.7-2.6-1-1.5-.6-3-1.3-4.6-1.7-4.6-1.1-8.8-3.3-12.9-5.7-1.4-.8-2.8-1.7-4.3-2.4-.6-.3-1.3-.5-2.3-.8-.9.2-2 .6-3.1.8-2.7.5-4.2-1-3.6-3.5.4-1.8 1-3.6 1.4-5.5.6-2.7 1.3-5.5 1.9-8.2 1-4.8 2.4-9.6 4.1-14.2 3.5-9.8 8.1-19.1 13.2-28.1 5.2-9.2 9.8-18.7 13.9-28.5 1.8-4.3 3.3-8.8 5-13.2.7-2 1.5-3.9 2.2-5.9.8-2.2 1.5-4.5 2.1-6.7.6-2 1.1-4.1 2-6 1.5-3.5 3-6.9 4.1-10.5 1.8-5.4 5.2-10 7.5-15.2.5-1.1 1.4-1.9 2-2.9.8-1.4 1.6-2.9 2.1-4 .2-3.5.4-6.5.6-9.4 1.1-1.6 2.1-2.9 2.9-3.9 1.3-1 2.5-.6 3.5-.4.5-.1 1-.1 1.5-.3 9.6-3.1 7.3-2.7 17.3-1.7 4 1.1 7.8.7 11.8-.4 2.9-.8 5.9-1.6 8.9-2.4C115.7 1 123.4 0 130.9 0c4.2.6 8 2.1 11.7 3.4 2.6.9 5.1 2.4 7.5 3.8 2.1 1.1 4 2.5 6 3.6 1.1.6 2.3.3 3.4-.3.6-.4 1-1 1.5-1.5 1.2-1.3 2.7-1.8 3.9-2.4zm-54.6 161.9c-.9-1.7-2.6-2.6-4-3.8-.3-.2-.9-.1-1.4-.2-1.9 1-3.4 2.4-4.4 4.5-.3 2.9-.8 5.9-.9 9-.1 3 .1 6.1-.3 9.1-.1.7.2 1.4.4 2.1.3.9.4 1.8.1 2.8-.5 1.6-.5 3.2-.4 4.9.1 3.3.4 6.6.5 9.8.1 1.6.3 3.3 0 4.9-.7 3.8-.4 7.5-.2 11.2.2 4.5.4 8.9-.2 13.4-.5 3.9-.6 8-.8 11.9-.2 3.5.1 7-.6 10.5-.3 1.4-.1 2.8 0 4.2.1 2.1.3 4.2.5 6.3.2 1.5-.4 2.8-1 4 1.8 2.1 2.2 2.2 4.7 1.4-.1-.8-.3-1.7-.5-2.7.6-.3 1.2-.6 1.8-1 .6-.3 1.1-.7 1.5-1 .3-3 .6-5.8.8-8.6.3-4.4.8-8.9.7-13.3-.1-9.2.3-18.3-.1-27.5-.1-2.8-.2-5.6-.5-8.4-.3-2.9.5-5.6.5-8.4-.1-4.2-.3-8.4.6-12.6.2-.9.1-1.9 0-2.8l-.3-6.3c-.1-3.5-.3-7-.4-10.6 0-1.5.8-2.4 2.5-2.8.5-.1.9-.2 1.3-.4-.1.5-.3.9-.2 1.4.2 4.5.5 8.9.8 13.4 0 .6 1.2 1.9 1.8 2 .5.1.9.2 1.4.2 2.1 0 4.2-.1 6.3-.1 2.3.1 4.7.2 7-.4.9-.3 1.9-.2 2.8-.3l14.1-1.2c1.6-.2 3.3-.3 4.9-.7 2.5-.7 5.1-1.1 7.6-1.5 1.4-.2 2.7-.6 4.1-.9 6-1.4 11.7-3.5 17.6-5.2 4.9-1.4 9.7-3.7 14.4-5.7 1.9-.8 3.7-2 5.5-3.2 1.1-.8 2.3-1.6 2.9-3.1-.4-.4-.8-1.1-1.4-1.4-6.2-2.4-12-5.3-17.9-8.3-4.3-2.2-8.8-3.4-13.5-3.7-5.4-.3-10.7-1.6-16.2-1.1-.5 0-1 0-1.4-.1-2.3-.6-4.7-.4-7-.2-9.6.6-19.3 1.3-28.9 1.8-6.8.4-13.6.8-20.4 1.6-.5.1-1.1-.1-1.3.7.6.1 1 .2 1.5.2 3.3 0 6.6-.3 9.8.4 2.3.5 4.7.2 7-.6s4.6-.8 7-.7c2.1.1 4.3.3 6.3-.1 3.1-.5 6.1-.4 9.1-.1 4.2.5 8.4.8 12.6 1.2 5.8.6 11.7 1.2 17.5 2.1 3.3.5 6.4 1.1 9.5 2.3 4.2 1.6 8.5 2.7 12.8 3.8 2.5.7 5.1 1.1 7.4 2.3.5.3.8 1.2.6 1.8-.4.9-1 1.6-2.1 2-.5-.2-1.2-.3-1.8-.6-2-1.3-4.3-2.1-6.6-2.4-2.8-.4-5.5-1.2-8.2-2.1-11.3-3.5-15.3-4.1-27-4.7-4-.2-8-.5-11.9-1-5.6-.7-11.2-1.7-16.8-.8-.9.1-1.9.1-2.8.1l-20.4 1.2c-.5 0-.9.1-1.4.2-.5.1-1.3.9-1.4 1.4-.4 2.7 1 4.5 3.1 5.8 1.7 1.1 3.2.1 4.6-.8.8-.5 1.4-1.3 2.1-1.8.6-.4 1.3-.6 1.7-.8 2.9.7 4.2 3.3 6.7 4.5.9.3 2 .6 3.2.9.9-.5 1.7-.9 2.5-1.4.4-.2.8-.6 1.2-.7.4-.1.9 0 1.3.2s.4.7.1 1.2c-2.3 3.7-5.4 5.1-9.6 3.2 0 .2-.3.2-.5.2zm48.8-149.1c-1.7-.5-2-1.4-2.6-2.1-.8-.9-1.5-1.9-2.4-2.6-5.4-4.2-11.4-7.4-18-9.4-2.9-.9-5.9-1.5-9-1.1-1.9.2-3.8.3-5.6.4-3.3.2-6.5.8-9.7 1.5-5 1.2-10 2.5-15 3.8-2.3.6-4.6.7-7 .3-2.5-.5-5.1-.8-7.7-1.1-3.8-.4-7.5.6-11 1.9-1.3.5-2.6 1.1-3.3 2.4-.6 2.3-.9 4.7-1.9 6.8-1.9 4.3-3.9 8.6-6.4 12.6-2.5 3.8-4.3 7.8-5.9 12-1.7 4.1-3.2 8.3-4.6 12.6-2.8 8.7-6 17.3-9.1 25.9-2.9 8-6.3 15.7-10.4 23.2-3 5.1-5.5 10.5-8.5 15.5-5.4 8.9-8.3 18.9-12.4 28.4-.1.2-.1.5-.2.7-.5 2.5-.9 5.1-1.7 7.6-.7 2.2-.6 4.6-1.3 6.9-.1.2 0 .5 0 .7-.1.8.5 1.2 1.1 1.5 3.5-.7 6.7-2.1 9.8-3.9 4.5-2.5 9.1-4.9 13.9-7 4.5-1.9 9.2-3.6 14.2-4 1.6-.1 3.3-.4 4.9-.8 3.4-.9 7-1.1 10.5-1.5 10.1-1 20.2-1.3 30.3-2.6 2.5-.3 5.2 0 7.6-1.2.6-.3 1.4-.3 2.1-.3 4.5-.2 8.9-.9 13.4-.4 1.6.2 3.4.3 4.9-.2 2.5-.8 5.1-1 7.7-1.2 7.3-.5 14.6-1 21.9-1.3 1.6-.1 3.3.1 4.9.2 4.7.4 9.4.8 14.1 1.3 5.4.6 10.7 1.6 15.7 3.7 4.6 1.9 8.9 4.3 13.4 6.3 1.3.6 2.6.9 4.1 1.4.2-.8.7-1.4.6-2.1-.4-4.9-.1-9.9-2.2-14.6-.2-.4-.2-.9-.3-1.4-1.5-9.1-4.5-17.8-6.9-26.6-1.7-6.1-3.8-12.1-5.7-18.2-2.4-8.1-5.1-16.1-6.6-24.5-1.6-4.2-1.5-8.8-3-13.1-.2-3.1-1.4-5.9-2-8.9-1.9-9.2-4.3-18.3-6.5-27.4-.4-1.6-.8-3.2-2.1-4.3-1.3.1-2 1.1-2.9 1.8-1.2.9-2.2 1.6-3.2 2.4zM94.6 674.7c1-3 1.6-6 1.5-9.1-.1-3.5-.1-7-.2-10.6-.1-3.5.4-7.1.1-10.6-.7-7.8.8-15.5.3-23.3 0-.7.2-1.4.3-2.1.1-1.2.1-2.3.1-3.5-.1-4-.1-8-.3-12-.2-4 .2-8-.6-12-.3-1.4 0-2.8 0-4.2.1-2.1.2-4.2.2-6.3 0-2.8 0-5.6.4-8.4.4-3 .2-6.1.3-9.2 0-.5.1-.9.2-1.4.6-1.8.4-3.7.6-5.6.5-5.1 1.1-10.3.7-15.5-.1-.7.1-1.4.2-2.1.3-5.6 1.3-11.2 1.2-16.9 0-.7.1-1.4.3-2.1.5-1.9.4-3.7.4-5.6-.1-4.2 0-8.5.7-12.7.4-2.5.7-5.1.8-7.7.1-2.6-.1-5.2-.2-7.8 0-.7-.2-1.4 0-2.1.7-4 .2-8 .5-12 .1-.9-.1-1.9.1-2.8.9-4.4.5-8.9.4-13.4 0-1.2-.1-2.4 0-3.5.4-3.3.2-6.6.1-9.9-.2-5.7-.4-11.3-.5-16.9 0-.7-.2-1.4 0-2.1.8-3.5.3-7 .2-10.6-.2-6.4.4-12.7.8-19 .3-5.2 1-10.3 1.2-15.5.2-4 1.3-7.9.8-11.9-.1-.4.1-1 .2-1.4.8-2 .6-4.2.6-6.3 0-2.1.3-4.2.5-6.3 1.1-8.8 1.1-10.5.8-19.7 0-.9-.1-1.9-.1-2.8 0-.9 0-1.9.1-2.8.4-3.7.8-7.5 1.3-11.2.3-2.6 1.1-5.1 1-7.7-.2-3.6 1-7 1.2-10.5.1-1.2.5-2.3.6-3.4 0-.5-.5-.9-.8-.6-1.5 1-2.6.7-3.6-.6-.6-.8-.5-1.9.3-2.5.8-.6 1.6-.8 2.6-.4.8.3 1.5 1.1 2.5.4.1-.2.3-.4.3-.7v-4.9c-.1-1.2-.3-2.3-.4-3.3-1.2-1.8-2.5-3-4.3-3.8-1-.4-2.6.4-2.7 1.5-.1.7 0 1.4 0 2.1 0 1.3-.7 2.2-1.9 2.8-.5-.2-1.2-.5-1.6-.7-1.2-1.5 0-3.5-1.7-4.7-.8.4-1.7.7-2.7 1.2-.1.9-.4 1.8-.3 2.7.3 7.1.8 14.1 1.1 21.2.2 3.1.3 6.1.4 9.2-1.1 5.6.2 11.3-1.1 16.9-.3 1.1 0 2.3 0 3.5.2 8.3-.9 16.4-1.7 24.6-.5 5.4-1.4 10.7-1.4 16.1 0 1.2-.2 2.3-.3 3.5-.4 3.3-.5 6.6-.3 9.9.2 3 0 6.1 0 9.2 0 1.6 0 3.3.1 4.9.3 7.5 1.1 15-.2 22.5.1 4.5.2 8.9-.5 13.4.4 5.9-.8 11.7-1.2 17.6-.4 4.7-.3 9.4-1.2 14.1.3 2.1 0 4.2-.7 6.2-.3.8-.1 1.9-.1 2.8 0 1.6.2 3.3 0 4.9-.5 3.3-.3 6.6-1 9.8-.7 3.3-.5 6.6-.9 9.8-.5 4.2-1 8.4-.9 12.7.1 7.8.7 15.5 1 23.3.3 8.5 1.6 16.9.7 25.4-.1 1.2.1 2.4.1 3.5.2 4.2.4 8.5.6 12.7.1 1.6.2 3.3-.1 4.9-.6 3.7-.5 7.5-.4 11.3.1 3.1.2 6.1-.4 9.2-.3 1.6-.1 3.3-.1 4.9.3 5.4.7 10.8.9 16.2.1 1.9-.1 3.8-.1 5.6 0 .9-.2 1.9-.2 2.8.1 5.4.2 10.8-.3 16.2-.3 2.6-.2 5.1-.8 7.7-.3 1.1-.3 2.3-.4 3.5-.1 1.4.1 2.9-.1 4.2-.6 3.3-.4 6.6-.4 9.9 0 .9-.1 1.9-.2 2.5-.8 1.2-1.5 2.1-2.2 3.1.5 5.7.9 11.3 1.4 17 0 .2.1.5.2.6.4.5.9 1 1.4 1.5 1.5-.2 2.9-.3 4.2-.5 2.1-.3 3-1.1 3.1-3 .1-1.4 0-2.8 0-4.2 0-1.9-.5-3.7-1.1-5.5.5-1.8.5-3.7.3-5.6-.1-.5-.2-.9-.4-1.5-.6-.5-1.3-1.1-1.9-1.8-1.2-1.4-.7-3.1 1.1-4 .3-.1.9-.4 1.5-.7zM14.3 170c.1.4.1 1 .4 1.3.4.5 1 1 1.6 1.3 9.9 4.4 20.2 7.8 30.6 10.4 2.7.7 5.5 1.5 8.2 2.1 4.6 1.1 9.2 2 13.8 3 4.4 1 8.9 1 13.3 1.4 4 .3 8-.3 12-.5.4 0 1.4-1 1.4-1.4.1-.7.3-1.4.3-2.1-.1-3.1-.2-6.1.4-9.1.3-1.4.2-2.8.2-4.2-.1-1.4 1.3-2.6.4-4-.4-.3-.7-.7-1.1-.9-2.7-1-4.2-2.9-4.9-5.6-.2-.7-.6-1.3-.8-2-.2-.8-.8-1.1-1.5-1.4-.7.1-1.4.1-2.1.3-3.3 1.3-6.8 1.7-10.4 2-2.1.2-4.2.5-6.3.5-7.3.1-14.4 2.1-21.7 3-3.8 1.4-7.8 1.5-12 2.2-3.5 1.5-7.1 3.2-10.8 4.8-.6.3-1.3.6-1.9.9-.4.2-.9.3-1.4.4-.8.2-1.8-.4-2.3-1.2-.4-.7.1-2.1 1-2.3 2.1-.4 4-1.5 5.9-2.4 5.1-2.4 10.3-4.6 16-5.1 2.1-.2 4.2-.8 6.2-1.3 4.6-1 9.1-2.1 13.9-2.5 5.9-.5 11.7-1.2 17.6-1.8 1.2-.1 2.3-.3 3.4-.7.5-.2.8-1 1.3-1.7-.9-.3-1.5-.7-2.1-.6-8.5.6-16.9 1.4-25.4 1.9-5.7.4-11.1 2-16.7 2.7-.7.1-1.4.4-2 .6-8.6 2.6-16.5 6.7-24.2 11.3 0 .3-.1.5-.3.7zm127 540c-.5-.6-1.1-1-1.8-.8-2.3.6-4.5 1.2-6.8 1.8-4.8 1.2-9.6 2.5-14.4 3.4-5.1 1-10.1 2.3-15.2 2.9-6.1.7-12.2.8-18.2 2.3-.9.2-1.9.2-2.8.3-7.1.7-14.1 0-21.1-.4-1.9-.1-3.7-.3-5.6-.4-5.7-.3-11.2-.9-16.5-3.2-.8-.4-1.7-.7-2.5-1-2.2 3.5-1.7 7.3-2.2 10.7.4.7.5 1.2.9 1.4 1.3 1 2.6 2 4.1 2.7 6 3 12.5 4.1 19.1 4.7 5.1.5 10.3.8 15.4 1.4 4.4.6 8.9 1.2 13.4.9 4-.3 8-.4 12-.7 4.2-.4 8.5-.4 12.5-2.1.4-.2.9-.2 1.4-.3 5.2-.5 10.1-2.1 15.1-3.6 3.6-1.1 7.1-2.6 10.4-4.2 2.3-1.1 4.5-2.6 5.5-5.1-.1-4.3-.1-4.3-2-7.3-.4-1.2-.6-2.3-.7-3.4zm-59.6-12.2c-.7-.2-1.4-.5-2-.5-4.2.3-8.4.7-12.7 1.1-.7.1-1.4.1-2.1.3-3.6 1.4-7.3 1.8-11 2.2-.7.1-1.4.2-2.1.4-3.1 1-6.3 2-9.4 3.1-1.3.5-2.5 1.3-3.6 2.2-.5.4-.7 1.2-.9 1.6.4 1.4 1.3 2.2 2.2 2.9.9.7 1.9 1.4 3 1.9.8.4 1.8.7 2.7.8 5.8.6 11.6 2 17.5 1.8 1.4 0 2.8.1 4.2.4 2.3.5 4.7.5 7 .4 2.1-.1 4.2-.1 6.3-.3l20.4-1.8c.2 0 .5-.1.7-.1 7.3-1.6 14.8-2.6 22-4.8 4-1.2 8.2-1.9 12.3-2.9 1.3-.3 2.6-1 3.8-1.7.5-.3.6-1.2.9-1.8-.6-.6-1-1.2-1.6-1.5-1.3-.6-2.6-1.2-3.9-1.6-5.6-1.9-11.4-2.7-17-4.5-5.9-.5-11.7-1.2-17.6-.7-1 .1-1.8.5-2.4 1.6-.1 1.2-.2 2.6-.4 4-.2 1.9-1 3.6-2.2 5.1-.8 1-1.8 1.4-3.1 1.2-.7-.1-1.4-.3-2.1-.4-1.1.4-2.1 1-3.5.8-1.5-.4-3.1-.9-4.9-3-1-1.3-.1-3.9-.5-6.2z"/>
    <path d="M159.1 19.4c1-.8 2-1.5 2.9-2.2.9-.7 1.6-1.7 2.9-1.8 1.3 1.1 1.7 2.7 2.1 4.3 2.2 9.1 4.6 18.2 6.5 27.4.6 3 1.8 5.8 2 8.9 1.5 4.2 1.4 8.8 3 13.1 1.5 8.3 4.2 16.4 6.6 24.5 1.8 6.1 4 12 5.7 18.2 2.4 8.8 5.4 17.5 6.9 26.6.1.5.1 1 .3 1.4 2 4.7 1.7 9.7 2.2 14.6.1.6-.4 1.3-.6 2.1-1.4-.5-2.8-.9-4.1-1.4-4.5-2-8.8-4.3-13.4-6.3-5.1-2.1-10.3-3.1-15.7-3.7-4.7-.5-9.4-.9-14.1-1.3-1.6-.1-3.3-.3-4.9-.2-7.3.4-14.6.8-21.9 1.3-2.6.2-5.1.3-7.7 1.2-1.5.5-3.3.4-4.9.2-4.5-.5-8.9.2-13.4.4-.7 0-1.5 0-2.1.3-2.4 1.2-5.1.8-7.6 1.2-10 1.3-20.2 1.6-30.3 2.6-3.5.3-7 .6-10.5 1.5-1.6.4-3.2.6-4.9.8-5 .4-9.7 2.1-14.2 4-4.7 2-9.4 4.4-13.9 7-3.1 1.8-6.3 3.2-9.8 3.9-.7-.3-1.2-.7-1.1-1.5v-.7c.7-2.3.7-4.7 1.3-6.9.8-2.5 1.2-5 1.7-7.6 0-.2.1-.5.2-.7 4.1-9.5 6.9-19.5 12.4-28.4 3.1-5 5.5-10.4 8.3-15.6 4.1-7.5 7.5-15.2 10.4-23.2 3.2-8.6 6.4-17.2 9.1-25.9 1.4-4.3 2.9-8.5 4.6-12.6 1.7-4.1 3.5-8.2 5.9-12 2.5-3.9 4.5-8.3 6.4-12.6.9-2.1 1.3-4.5 1.9-6.8.7-1.3 2-1.9 3.3-2.4 3.6-1.3 7.2-2.3 11-1.9 2.6.3 5.1.6 7.7 1.1 2.4.5 4.7.3 7-.3 5-1.3 10-2.6 15-3.8 3.2-.8 6.5-1.3 9.7-1.5 1.9-.1 3.8-.2 5.6-.4 3.1-.4 6.1.1 9 1.1 6.6 2.1 12.6 5.2 18 9.4.9.7 1.6 1.7 2.4 2.6 1.1.6 1.4 1.5 3.1 2zM35.8 144.6c1.5 0 2.1-.9 2.4-2.1 1.4-5.2 2.8-10.4 3.7-15.9-.6-1.4-1.3-2.9-2-4.3 1.1-5.1 2.5-10.1 4.7-14.8 2.1-4.5 3.9-9.1 6.3-13.4 2.1-3.9 3.7-8.2 6.2-11.8.4-.6.6-1.3.9-1.9 4.2-9.2 8.2-18.5 11.2-28.2 2-6.3 4.1-12.5 6-18.8.3-1.1.4-2.3.4-3.5 0-.6-.5-1.2-.8-1.8-2.3.3-3 .7-3.1 2.2-.2 3.1-1.2 6-2 8.9-.7 2.3-1.6 4.4-2.3 6.7-2.6 8.3-5.8 16.4-9 24.5-2 5-4.1 10-6.9 14.6-3.9 6.2-6.3 13.1-9.8 19.5-.2.4-.4.9-.5 1.3-1.4 4.5-2.9 9-4.7 13.3.1 2.1-1.8 3.9-1 6.3.6 1 2.2 1.5 2.4 3.5-.8 2.8-1.6 6-2.6 9.1-.6 1.8-.6 3.7-.6 5.6.5.4.8.7 1.1 1zm142.9-5.4c-.3-.7-.5-1.4-.9-2-2-3.2-3.3-6.7-4.5-10.3-.6-1.8-.9-3.7-1.5-5.4-.8-2.2-1.8-4.3-2.5-6.6-.6-2-1.6-3.9-2.1-6-.4-2.3-1.5-4.4-2.3-6.6-.6-1.5-1.1-3.1-1.7-4.6-2.2-6.2-4.4-12.4-6.7-18.5-.9-2.2-1.4-4.5-1.6-6.8-.4-5.4-.7-10.8-1.2-16.2-.2-2.1-.3-4.2-.9-6.3-1.3-5-3.3-9.8-5.1-14.6-.6-1.5-1.5-2.9-2.9-4-.6-.4-1.3-.6-2-.3-.9.4-1.6 1-1.5 2.4 1.1 1.4 2.4 3.1 3.8 4.9.9 2.7 1.8 5.7 2.9 8.5 1.2 3.1 1.7 6.4 1.9 9.7.2 5.6.8 11.2 1.8 16.8.8 4.7 2 9.1 3.7 13.5 1.5 3.9 3.2 7.8 4.2 12 .8 3.2 2.1 6.2 3.4 9.2 1.4 3.3 2.5 6.6 3.6 9.9 1.6 5.2 3.2 10.3 5 15.4.9 2.7 1.9 5.3 3.7 7.5.4.5 1.4.5 1.9 0 .8-.4 1.1-1 1.5-1.6zM82.5 55.9c1.3 1.5 1.9 3.3 2.2 5.2.3 2.1.4 4.2.6 6.3.2 2.4-.1 4.6-.5 7-1.3 7.4-2.8 14.8-2.1 22.4v.7c-.8 4.2-.3 8.4-.1 12.7.2 4.5.4 8.9.6 13.4.1 2.6-.1 5.2-.8 7.7-.1.4.1.9.2 1.3.6.8 1.4 1.3 2.4 1 1.1-.3 1.7-1.4 1.6-2.8-.2-4.5-.3-8.9-.6-13.4-.3-4 .3-8-.4-12 .6-2.3.2-4.7.2-7 0-5.4.9-10.8.9-16.2 0-.7.4-1.3.5-2 .4-2.8 1.2-5.5 1.3-8.4.1-2.6.3-5.2.5-7.6-1-4.2-2-8.3-2.9-12.4-.4-1.6-.4-3.3 0-4.9.2-.7.4-1.4.3-2.1-.1-.6-.6-1.3-1.1-1.7-.3-.3-.9-.4-1.3-.4-.9.1-1.2-.5-1.5-1.2.2-1.1.4-2.3.6-3.4.1-1-.2-1.9-1-2.5-.3-.3-.8-.4-1.2-.5-.6 0-1.4.8-1.5 1.3-.1 1.9 0 3.8-.4 5.6-1 5.1-1.3 10.2-2.5 15.3-.2 1 .1 1.8 1 2.4 1.3.2 2.3-.2 3.1-1.2.6-.7 1.2-1.6 1.9-2.6zm27.2 70.8c1.9-.9 2.1-1.2 2.5-2.2.4-.9.6-1.8.3-2.7-.5-2-1.5-4-1.6-6.1-.3-4.4-1.6-8.8-1.2-13.3.1-.7-.2-1.4-.3-2.1-.3-2.3-.6-4.6-.8-7-.2-2.6-.3-5.2-.5-7.7-.5-6.6-1.1-13.1-1.5-19.7-.2-2.6-.1-5.2.1-7.7.2-2.8.2-5.7-.3-8.4-.8-4.9-1.4-9.8-2.1-14.6-.1-.4-.3-.9-.5-1.3-.3-.7-1.7-1.1-2.5-.7-.9.5-1.4 1.4-1.2 2.3 1 3.9 1.7 7.8 1.9 11.8.4 7.3 1.1 14.5.7 21.8-.1 1.6-.1 3.3.3 4.9 1.5 6 1.4 12.1 2 18.2.9 10.1 1.6 20.1 2.4 30.2.3 1.8 1 3.2 2.3 4.3zm20.8-95.6c-.8-.5-1.2-.9-1.7-1-1.5-.3-3 1.1-2.5 2.4.5 1.3.9 2.7 1.6 3.9 1.3 2.5 2.2 5.2 3.1 7.9 1.4 4.7 2.6 9.5 3.4 14.4.2 1.4.2 2.9.6 4.2 1.2 4.1 1.6 8.3 2.1 12.5.1.9.2 1.9.5 2.8.9 2.2 1.1 4.6 1.6 6.9.2 1.2.5 2.3.8 3.4 2 7.2 4.1 14.4 6.2 21.6.1.4.4.9.7 1.1.3.2.9.5 1.2.3 1.1-.5 1.9-1.4 2.1-2.7-1.1-3.5-2.3-7-3.5-10.6-1.5-4.5-2.2-9.2-3.7-13.6-1.1-3.1-1.6-6.4-1.9-9.6-.2-2.1-.3-4.2-.9-6.3-1.5-5.9-1.8-12.1-3.4-18-1.1-4.3-1.7-7.7-3.4-12.1-1-2.5-1.9-4.9-2.9-7.5zm-14.1 45.4c.5.8 1 1.3 1.3 1.9.4.8.8 1.7 1 2.6.6 3.7 2.4 7.1 2.5 10.9.9 2.4 1.6 4.9 2 7.5.1.4.3.9.5 1.3 1.5 2.7 2.9 5.4 4.4 8 .3.5 1.1.8 1.7 1.2.6-.6 1.1-1 1.5-1.5.2-.4.4-.9.3-1.3-.1-.7-.2-1.4-.6-2-1.2-1.7-2.5-3.4-4-5.3-.4-1.2-1-2.7-1.4-4.3-.9-3.9-1.6-7.8-2.4-11.7-.8-3.9-2-7.7-3.7-11.3-.5-1.1-1.3-1.9-2.6-2.4-.5.1-1.2.3-1.9.4-.9 1.6-1.9 3.2-2.8 4.8-.1.2-.2.4-.3.7-.1.2-.1.5-.2.9 0 1.1-.1 2.6.9 3.8.5.6 1.1.8 1.8.9.6 0 1.3-.7 1.4-1.3.2-1.3.4-2.4.6-3.8zM66.8 89.9c-.8-2.1-.8-3.7-.7-5.3 0-.5-1.2-1.1-1.6-.8-.4.3-.9.5-1.1.9-1.9 3.5-3.1 7.3-4 11.2-.1.5.6 1.2 1.1 1.7.4.4 1.5.2 1.9-.2.5-.5 1.1-1 1.4-1.6 1.1-1.9 2-3.8 3-5.9zm24.9-12.5c.2 3.6.5 7.3.7 11.1 0 .2.2.4.2.6.1.5 1.1.9 1.7.7 1.3-.5 2.1-1.4 2-2.5-.3-3-.6-6.1-.9-9.1 0-.4-.3-.9-.5-1.3-.3-.3-.7-.6-1.1-.8-.9-.3-1.6.3-2.1 1.3z" style="fill:#ece1de"/>
    <path d="m94.6 674.7-1.8.9c-1.8.9-2.3 2.6-1.1 4 .6.7 1.3 1.3 1.9 1.8.2.6.4 1 .4 1.5.2 1.9.3 3.8-.3 5.6.6 1.8 1.1 3.6 1.1 5.5 0 1.4.1 2.8 0 4.2-.1 1.9-1 2.8-3.1 3-1.4.2-2.8.3-4.2.5-.5-.5-.9-1-1.4-1.5-.1-.2-.2-.4-.2-.6-.5-5.6-.9-11.2-1.4-17 .7-1 1.4-1.9 2.2-3.1 0-.7.2-1.6.2-2.5 0-3.3-.2-6.6.4-9.9.3-1.4.1-2.8.1-4.2.1-1.2.1-2.4.4-3.5.6-2.5.5-5.1.8-7.7.5-5.4.4-10.8.3-16.2 0-.9.2-1.9.2-2.8.1-1.9.2-3.8.1-5.6l-.9-16.2c-.1-1.6-.2-3.3.1-4.9.6-3.1.5-6.1.4-9.2-.1-3.8-.2-7.5.4-11.3.3-1.6.1-3.3.1-4.9-.2-4.2-.4-8.5-.6-12.7-.1-1.2-.2-2.4-.1-3.5.9-8.5-.4-16.9-.7-25.4-.3-7.8-.9-15.5-1-23.3-.1-4.2.4-8.5.9-12.7.4-3.3.2-6.5.9-9.8.7-3.2.5-6.5 1-9.8.3-1.6 0-3.3 0-4.9 0-.9-.2-2 .1-2.8.7-2.1 1-4.1.7-6.2.9-4.6.8-9.4 1.2-14.1.5-5.8 1.6-11.7 1.2-17.6.6-4.4.6-8.9.5-13.4 1.2-7.5.4-15 .2-22.5-.1-1.6-.1-3.3-.1-4.9 0-3.1.2-6.1 0-9.2-.2-3.3-.1-6.6.3-9.9.1-1.2.3-2.3.3-3.5 0-5.4.9-10.8 1.4-16.1.8-8.2 1.9-16.4 1.7-24.6 0-1.2-.3-2.4 0-3.5 1.3-5.6 0-11.3 1.1-16.9-.1-3.1-.3-6.1-.4-9.2-.4-7.1-.8-14.1-1.1-21.2 0-.9.2-1.8.3-2.7 1-.4 1.9-.8 2.7-1.2 1.7 1.2.5 3.2 1.7 4.7.4.2 1.1.5 1.6.7 1.2-.7 1.9-1.5 1.9-2.8v-2.1c.1-1.1 1.7-1.9 2.7-1.5 1.8.7 3.2 2 4.3 3.8.1 1 .4 2.1.4 3.3.1 1.6.1 3.3 0 4.9 0 .2-.2.4-.3.7-.9.7-1.7-.1-2.5-.4-1-.4-1.8-.1-2.6.4s-.9 1.7-.3 2.5c1 1.3 2.2 1.7 3.6.6.3-.2.9.1.8.6-.1 1.2-.6 2.3-.6 3.4-.2 3.5-1.4 6.9-1.2 10.5.1 2.5-.7 5.1-1 7.7-.5 3.7-.9 7.5-1.3 11.2-.1.9-.1 1.9-.1 2.8 0 .9.1 1.9.1 2.8.4 9.2.3 10.9-.8 19.7-.3 2.1-.5 4.2-.5 6.3 0 2.1.2 4.2-.6 6.3-.2.4-.3.9-.2 1.4.5 4-.7 7.9-.8 11.9-.2 5.2-.9 10.3-1.2 15.5-.3 6.3-1 12.7-.8 19 .1 3.5.6 7-.2 10.6-.1.7 0 1.4 0 2.1.2 5.6.4 11.3.5 16.9.1 3.3.3 6.6-.1 9.9-.1 1.2 0 2.4 0 3.5.1 4.5.5 8.9-.4 13.4-.2.9 0 1.9-.1 2.8-.3 4 .3 8-.5 12-.1.7 0 1.4 0 2.1.1 2.6.3 5.2.2 7.8-.1 2.6-.4 5.2-.8 7.7-.7 4.2-.8 8.4-.7 12.7 0 1.9.1 3.8-.4 5.6-.2.7-.3 1.4-.3 2.1.1 5.7-.9 11.2-1.2 16.9 0 .7-.2 1.4-.2 2.1.4 5.2-.2 10.3-.7 15.5-.2 1.9 0 3.8-.6 5.6-.1.4-.2.9-.2 1.4-.1 3.1.1 6.1-.3 9.2-.3 2.8-.4 5.6-.4 8.4 0 2.1-.1 4.2-.2 6.3 0 1.4-.3 2.9 0 4.2.8 4 .4 8 .6 12 .2 4 .2 8 .3 12 0 1.2-.1 2.4-.1 3.5 0 .7-.3 1.4-.3 2.1.5 7.8-1 15.5-.3 23.3.3 3.5-.2 7.1-.1 10.6s.1 7 .2 10.6c.4 3-.2 5.9-1.2 8.9zm8.5-362.9c1.1.1 2.1-.8 2.2-2 .1-.9-.5-1.8-1.4-1.9-1.2-.2-2.3.5-2.5 1.6-.2 1.1.6 2.2 1.7 2.3zm-1.1-14.6c1.6-.6 2.2-1.7 2-3.2 0-.6-.6-1.3-1.2-1.5-.7-.2-1.7.3-2.3 1.1-.5.7-.6 1.8 0 2.5.5.5 1.1.8 1.5 1.1zm-.7 25.4c.3.4.5.8.8 1.1.1.2.3.3.5.4l.6.3c.5.1 1.5-.4 1.7-.9.3-.9 0-2-.7-2.5-.9-.7-1.9-.3-2.8 1 0 .2 0 .4-.1.6zm-9.3 366c-.2-.9-1.2-1.6-2-1.4-.8.2-1.3 1.2-1.2 2.1.2 1 1.1 1.7 1.9 1.3 1-.3 1.5-1.1 1.3-2z" style="fill:#e6d0c3"/>
    <path class="st3" d="M110.3 168.5c.2 0 .5 0 .7.1 4.2 1.8 7.3.5 9.6-3.2.3-.5.3-1-.1-1.2-.4-.2-.9-.3-1.3-.2-.4.1-.8.5-1.2.7-.8.5-1.6.9-2.5 1.4-1.2-.3-2.3-.6-3.2-.9-2.5-1.2-3.9-3.8-6.7-4.5-.5.2-1.2.4-1.7.8-.8.5-1.4 1.3-2.1 1.8-1.4.9-2.9 1.9-4.6.8-2.1-1.3-3.5-3.1-3.1-5.8.1-.5.9-1.4 1.4-1.4.5-.1.9-.2 1.4-.2l20.4-1.2c.9-.1 1.9 0 2.8-.1 5.7-.9 11.2.1 16.8.8 4 .5 7.9.8 11.9 1 11.7.6 15.7 1.2 27 4.7 2.7.8 5.3 1.7 8.2 2.1 2.3.3 4.6 1.1 6.6 2.4.6.4 1.3.5 1.8.6 1.1-.4 1.8-1.1 2.1-2 .2-.6-.1-1.6-.6-1.8-2.3-1.2-4.9-1.6-7.4-2.3-4.3-1.1-8.6-2.3-12.8-3.8-3.1-1.2-6.3-1.8-9.5-2.3-5.8-1-11.6-1.5-17.5-2.1l-12.6-1.2c-3-.3-6-.5-9.1.1-2 .4-4.2.2-6.3.1-2.4-.1-4.7-.1-7 .7-2.2.8-4.7 1.1-7 .6-3.3-.7-6.6-.5-9.8-.4-.5 0-.9-.1-1.5-.2.2-.7.8-.6 1.3-.7 6.8-.8 13.6-1.2 20.4-1.6 9.6-.5 19.3-1.2 28.9-1.8 2.3-.1 4.7-.4 7 .2.4.1.9.2 1.4.1 5.4-.6 10.8.8 16.2 1.1 4.7.3 9.2 1.5 13.5 3.7 5.9 2.9 11.8 5.9 17.9 8.3.6.2.9.9 1.4 1.4-.7 1.5-1.8 2.4-2.9 3.1-1.8 1.2-3.5 2.4-5.5 3.2-4.7 2-9.5 4.3-14.4 5.7-5.9 1.7-11.6 3.8-17.6 5.2-1.4.3-2.7.7-4.1.9-2.6.4-5.1.8-7.6 1.5-1.6.4-3.2.6-4.9.7l-14.1 1.2c-.9.1-1.9 0-2.8.3-2.3.7-4.6.5-7 .4-2.1-.1-4.2.1-6.3.1-.5 0-.9-.1-1.4-.2-.6-.1-1.8-1.4-1.8-2-.3-4.5-.5-8.9-.8-13.4 0-.5.2-.9.2-1.4l-.1.1zm50 .1c-.6.2-1.3.3-1.9.6-1.3.7-1.4 2.2-.4 3.4.7.8 1.7.8 2.4.2 1.3-1.4 1.3-2.3-.1-4.2zm-15.4-2.1-.9-1.8c-.5-.9-1.4-1.2-2.4-1.1-1.1.2-1.5 1-1.4 2.3.5.5 1.2 1.2 1.9 1.7.9.6 1.8.3 2.8-1.1zm7.4 4.2c-.6-.5-1-1-1.6-1.4-.9-.5-1.8-.1-2.3.8-.5.8-.3 1.9.4 2.4s1.9.6 2.5-.1c.5-.4.7-1.1 1-1.7zm-9.1 5.2c-.3-.9-1-1.2-2.2-1-.7.1-1.3.6-1.4 1.3 0 .2 0 .5.1.7.8.9 2 1.1 3.1.3.4-.4.6-.8.4-1.3zM14.3 170c.1-.2.3-.4.4-.5 7.7-4.6 15.6-8.7 24.2-11.3.7-.2 1.3-.5 2-.6 5.6-.7 11-2.3 16.7-2.7 8.5-.5 16.9-1.3 25.4-1.9.6 0 1.3.4 2.1.6-.5.7-.8 1.5-1.3 1.7-1.1.4-2.3.6-3.4.7-5.9.6-11.7 1.3-17.6 1.8-4.7.4-9.3 1.5-13.9 2.5-2.1.5-4.1 1.1-6.2 1.3-5.7.5-10.9 2.7-16 5.1-1.9.9-3.7 2-5.9 2.4-.9.2-1.4 1.6-1 2.3.5.8 1.5 1.4 2.3 1.2.4-.1.9-.2 1.4-.4.7-.3 1.3-.6 1.9-.9 3.6-1.6 7.3-3.3 10.8-4.8 4.2-.7 8.2-.7 12-2.2 7.2-1 14.3-2.9 21.7-3 2.1 0 4.2-.3 6.3-.5 3.5-.3 7-.7 10.4-2 .6-.2 1.4-.2 2.1-.3.6.4 1.3.6 1.5 1.4.2.7.6 1.3.8 2 .7 2.7 2.3 4.6 4.9 5.6.4.2.7.6 1.1.9.9 1.4-.5 2.6-.4 4 .1 1.4.1 2.9-.2 4.2-.7 3-.6 6.1-.4 9.1 0 .7-.2 1.4-.3 2.1-.1.4-1 1.4-1.4 1.4-4 .2-8 .8-12 .5-4.4-.4-8.9-.4-13.3-1.4-4.6-1.1-9.2-2-13.8-3-2.7-.6-5.5-1.4-8.2-2.1-10.5-2.7-20.7-6.1-30.6-10.4-.6-.3-1.2-.8-1.6-1.3-.4-.5-.4-1.1-.5-1.5zm56 4.2c-.2-1-1-1.6-1.9-1.8-.9-.2-1.9 0-2.5.8-.2.3-.4.9-.2 1.2.5 1.1 1.5 1.7 2.7 2 1 .3 2.2-1.1 1.9-2.2z"/>
    <path d="M141.3 710c.1 1.1.3 2.2.4 3.4 1.9 3 1.9 3 2 7.3-1.1 2.5-3.2 4-5.5 5.1-3.4 1.7-6.8 3.1-10.4 4.2-4.9 1.5-9.9 3.1-15.1 3.6-.5 0-1 .1-1.4.3-4 1.7-8.3 1.7-12.5 2.1-4 .4-8 .4-12 .7-4.5.3-9-.3-13.4-.9-5.1-.7-10.3-1-15.4-1.4-6.6-.6-13.1-1.7-19.1-4.7-1.5-.7-2.8-1.8-4.1-2.7-.3-.3-.5-.8-.9-1.4.4-3.4-.1-7.3 2.2-10.7.8.3 1.7.7 2.5 1 5.2 2.3 10.8 3 16.5 3.2 1.9.1 3.7.3 5.6.4 7 .5 14.1 1.2 21.1.4.9-.1 1.9 0 2.8-.3 6-1.5 12.1-1.6 18.2-2.3 5.2-.6 10.2-1.9 15.2-2.9 4.8-.9 9.6-2.2 14.4-3.4 2.3-.6 4.5-1.2 6.8-1.8 1-.2 1.6.2 2.1.8z" style="fill:#f2edda"/>
    <path class="st3" d="M81.7 697.8c.3 2.4-.5 4.9.8 6 1.8 2 3.3 2.5 4.9 3 1.3.2 2.4-.4 3.5-.8.7.1 1.4.3 2.1.4 1.3.2 2.3-.2 3.1-1.2 1.2-1.5 2-3.2 2.2-5.1.2-1.4.2-2.8.4-4 .6-1.1 1.4-1.5 2.4-1.6 5.9-.5 11.7.2 17.6.7 5.6 1.9 11.4 2.7 17 4.5 1.3.4 2.7 1 3.9 1.6.6.3 1 .9 1.6 1.5-.3.6-.4 1.5-.9 1.8-1.2.7-2.5 1.4-3.8 1.7-4.1 1.1-8.3 1.8-12.3 2.9-7.2 2.1-14.7 3.2-22 4.8-.2.1-.5.1-.7.1l-20.4 1.8c-2.1.2-4.2.2-6.3.3-2.4.1-4.7.1-7-.4-1.4-.3-2.8-.4-4.2-.4-5.9.1-11.7-1.2-17.5-1.8-.9-.1-1.8-.4-2.7-.8-1-.5-2-1.2-3-1.9-.9-.7-1.8-1.5-2.2-2.9.3-.5.4-1.3.9-1.6 1.1-.8 2.3-1.7 3.6-2.2 3.1-1.1 6.2-2.1 9.4-3.1.7-.2 1.4-.4 2.1-.4 3.7-.4 7.5-.8 11-2.2.6-.2 1.4-.3 2.1-.3 4.2-.4 8.4-.8 12.7-1.1.4.2 1.1.5 1.7.7z"/>
    <path d="M110.4 168.3c-.4.1-.9.3-1.3.4-1.7.5-2.5 1.3-2.5 2.8.1 3.5.2 7 .4 10.6l.3 6.3c0 .9.1 1.9 0 2.8-.8 4.2-.7 8.4-.6 12.6.1 2.8-.8 5.6-.5 8.4.3 2.8.4 5.6.5 8.4.4 9.2 0 18.3.1 27.5 0 4.4-.4 8.9-.7 13.3-.2 2.8-.5 5.6-.8 8.6-.4.3-1 .6-1.5 1-.6.3-1.2.6-1.8 1 .2 1 .3 1.8.5 2.7-2.5.7-2.9.6-4.7-1.4.5-1.3 1.1-2.6 1-4-.2-2.1-.4-4.2-.5-6.3-.1-1.4-.2-2.9 0-4.2.7-3.5.4-7 .6-10.5.2-4 .3-8 .8-11.9.6-4.5.4-8.9.2-13.4-.2-3.7-.5-7.5.2-11.2.3-1.6 0-3.3 0-4.9-.1-3.3-.4-6.6-.5-9.8-.1-1.6-.1-3.3.4-4.9.3-.9.2-1.8-.1-2.8-.2-.7-.5-1.4-.4-2.1.4-3 .2-6.1.3-9.1.1-3 .6-6.1.9-9 1-2.1 2.5-3.5 4.4-4.5.5.1 1.1 0 1.4.2 1.4 1.2 3.1 2 4 3.8l-.1-.4z" style="fill:#ebd8d5"/>
    <path class="st0" d="M35.8 144.6c-.3-.3-.6-.7-.9-1-.1-1.9 0-3.7.6-5.6 1-3.1 1.8-6.3 2.6-9.1-.2-2-1.8-2.5-2.4-3.5-.8-2.4 1.1-4.2 1-6.3 1.8-4.4 3.3-8.8 4.7-13.3.1-.4.3-.9.5-1.3 3.4-6.4 5.9-13.3 9.8-19.5 2.9-4.6 4.9-9.6 6.9-14.6 3.2-8.1 6.4-16.2 9-24.5.7-2.2 1.6-4.4 2.3-6.7.9-2.9 1.8-5.8 2-8.9.1-1.5.9-1.9 3.1-2.2.3.6.7 1.2.8 1.8 0 1.2-.1 2.4-.4 3.5-2 6.3-4 12.5-6 18.8-3.1 9.7-7.1 19-11.2 28.2-.3.6-.5 1.3-.9 1.9-2.6 3.7-4.1 7.9-6.2 11.8-2.3 4.4-4.2 9-6.3 13.4-2.2 4.7-3.6 9.7-4.7 14.8.7 1.4 1.3 2.9 2 4.3-.8 5.5-2.3 10.7-3.7 15.9-.5 1.2-1.1 2.2-2.6 2.1zM178.7 139.2c-.4.6-.8 1.2-1.2 1.7-.5.6-1.5.5-1.9 0-1.8-2.2-2.8-4.9-3.7-7.5-1.7-5.1-3.4-10.3-5-15.4-1.1-3.4-2.2-6.7-3.6-9.9-1.3-3-2.6-6.1-3.4-9.2-1.1-4.1-2.7-8-4.2-12-1.7-4.4-2.9-8.9-3.7-13.5-1-5.6-1.5-11.2-1.8-16.8-.1-3.3-.7-6.5-1.9-9.7-1.1-2.8-2-5.8-2.9-8.5-1.4-1.8-2.7-3.5-3.8-4.9-.1-1.4.6-2 1.5-2.4.7-.3 1.4-.2 2 .3 1.4 1 2.3 2.4 2.9 4 1.8 4.8 3.8 9.6 5.1 14.6.5 2 .7 4.2.9 6.3l1.2 16.2c.2 2.4.7 4.6 1.6 6.8 2.4 6.1 4.5 12.4 6.7 18.5.6 1.5 1.1 3.1 1.7 4.6.8 2.2 1.8 4.4 2.3 6.6.4 2.1 1.5 4 2.1 6 .7 2.2 1.7 4.4 2.5 6.6.6 1.8.9 3.7 1.5 5.4 1.2 3.6 2.6 7.1 4.5 10.3.1.5.3 1.2.6 1.9zM82.5 55.9l-2.1 2.7c-.8 1-1.9 1.4-3.1 1.2-.9-.6-1.2-1.5-1-2.4 1.2-5 1.4-10.2 2.5-15.3.4-1.8.3-3.7.4-5.6 0-.5.9-1.4 1.5-1.3.4 0 .9.2 1.2.5.8.6 1.1 1.5 1 2.5-.1 1.2-.4 2.3-.6 3.4.4.6.6 1.3 1.5 1.2.4 0 1 .1 1.3.4.5.5.9 1.1 1.1 1.7.1.7-.1 1.4-.3 2.1-.4 1.6-.4 3.3 0 4.9.9 4.1 1.9 8.2 2.9 12.4-.2 2.5-.4 5.1-.5 7.6-.1 2.8-.9 5.6-1.3 8.4-.1.7-.5 1.4-.5 2 0 5.4-.9 10.8-.9 16.2 0 2.3.5 4.7-.2 7 .7 4 .2 8 .4 12 .3 4.5.4 8.9.6 13.4.1 1.4-.6 2.5-1.6 2.8-1 .3-1.8-.2-2.4-1-.1-.5-.3-.9-.2-1.3.7-2.5.9-5.1.8-7.7-.2-4.5-.3-8.9-.6-13.4-.2-4.2-.7-8.5.1-12.7v-.7c-.6-7.6.8-15 2.1-22.4.4-2.4.6-4.6.5-7-.2-2.1-.3-4.2-.6-6.3-.1-1.9-.6-3.7-2-5.3zm-.5-8.6c.5-.7.5-1.8-.1-2.4-.1-.1-.3-.1-.4 0-.5.6-.5 1.8 0 2.4.1.1.3 0 .5 0zM109.7 126.7c-1.3-1.1-2-2.5-2.2-4.2-.8-10.1-1.5-20.2-2.4-30.2-.6-6.1-.5-12.2-2-18.2-.4-1.6-.4-3.3-.3-4.9.4-7.3-.3-14.6-.7-21.8-.2-4-.9-7.9-1.9-11.8-.2-.9.3-1.8 1.2-2.3.8-.4 2.2 0 2.5.7.2.4.4.8.5 1.3.6 4.9 1.2 9.8 2.1 14.6.5 2.8.5 5.6.3 8.4-.2 2.6-.3 5.2-.1 7.7.4 6.6 1 13.1 1.5 19.7.2 2.6.3 5.2.5 7.7.2 2.3.5 4.7.8 7 .1.7.4 1.4.3 2.1-.4 4.5.9 8.8 1.2 13.3.1 2.1 1.1 4.1 1.6 6.1.3.9 0 1.9-.3 2.7-.5.9-.7 1.2-2.6 2.1zM130.5 31.1c1 2.6 1.8 5.1 2.8 7.5 1.7 4.5 2.3 7.8 3.4 12.1 1.5 5.9 1.9 12.1 3.4 18 .5 2 .6 4.2.9 6.3.4 3.3.8 6.5 1.9 9.6 1.6 4.4 2.2 9.1 3.7 13.6 1.2 3.5 2.4 7.1 3.5 10.6-.2 1.4-1 2.2-2.1 2.7-.3.1-.9-.1-1.2-.3-.3-.3-.6-.7-.7-1.1-2.1-7.2-4.1-14.4-6.2-21.6-.3-1.1-.6-2.3-.8-3.4-.4-2.3-.7-4.6-1.6-6.9-.3-.9-.4-1.8-.5-2.8-.5-4.2-.8-8.4-2.1-12.5-.4-1.3-.4-2.8-.6-4.2-.7-4.9-1.9-9.7-3.4-14.4-.8-2.7-1.7-5.4-3.1-7.9-.7-1.2-1.1-2.6-1.6-3.9-.5-1.3 1-2.7 2.5-2.4.6.1 1 .5 1.8 1zM116.4 76.5c-.2 1.4-.4 2.5-.6 3.6-.1.7-.9 1.4-1.4 1.3-.7 0-1.3-.2-1.8-.9-.9-1.2-.8-2.6-.9-3.8.1-.5.1-.7.2-.9.1-.2.1-.5.3-.7.9-1.6 1.9-3.2 2.8-4.8.7-.2 1.4-.3 1.9-.4 1.3.5 2.1 1.4 2.6 2.4 1.7 3.6 2.9 7.4 3.7 11.3l2.4 11.7c.4 1.6 1 3.1 1.4 4.3 1.5 2 2.8 3.6 4 5.3.4.5.5 1.3.6 2 .1.4-.1 1-.3 1.3-.4.6-1 1-1.5 1.5-.6-.4-1.4-.7-1.7-1.2-1.5-2.6-3-5.3-4.4-8-.2-.4-.5-.8-.5-1.3-.4-2.6-1.2-5-2-7.5 0-3.8-1.9-7.2-2.5-10.9-.1-.9-.6-1.8-1-2.6-.3-.4-.8-.9-1.3-1.7zM66.8 89.9c-1.1 2.1-2 4-3 5.8-.3.6-.9 1-1.4 1.6-.4.4-1.5.6-1.9.2-.5-.5-1.2-1.2-1.1-1.7.9-3.9 2.1-7.7 4-11.2.2-.4.7-.6 1.1-.9.5-.3 1.7.3 1.6.8-.1 1.7 0 3.3.7 5.4zM91.7 77.4c.5-1 1.2-1.6 2.2-1.3.4.1.8.4 1.1.8.3.3.5.8.5 1.3.3 3 .6 6.1.9 9.1.1 1.2-.7 2.1-2 2.5-.7.2-1.6-.2-1.7-.7-.1-.2-.2-.4-.2-.6-.3-3.8-.6-7.5-.8-11.1zM103.1 311.8c-1.1-.1-1.9-1.2-1.7-2.4.2-1.1 1.3-1.8 2.5-1.6.9.2 1.5 1 1.4 1.9-.1 1.3-1.1 2.2-2.2 2.1zM102 297.2c-.4-.3-1.1-.6-1.5-1.1-.6-.7-.5-1.8 0-2.5.6-.8 1.6-1.3 2.3-1.1.6.2 1.1.9 1.2 1.5.2 1.5-.4 2.6-2 3.2zM101.3 322.6c.1-.2.1-.5.2-.7.9-1.4 1.9-1.7 2.8-1 .6.5.9 1.7.7 2.5-.2.5-1.2 1.1-1.7.9-.2-.1-.4-.1-.6-.3-.2-.1-.4-.2-.5-.4-.4-.2-.6-.6-.9-1zM92 688.6c.2.8-.3 1.7-1.2 2.1-.8.3-1.7-.4-1.9-1.3-.1-.9.4-1.9 1.2-2.1.8-.2 1.8.5 1.9 1.3zM160.3 168.6c1.4 1.9 1.4 2.8.1 4.2-.6.7-1.7.6-2.4-.2-1.1-1.2-.9-2.7.4-3.4.6-.3 1.3-.4 1.9-.6zM144.9 166.5c-1.1 1.3-1.9 1.7-2.8 1.1-.7-.5-1.4-1.2-1.9-1.7-.1-1.3.3-2.1 1.4-2.3 1-.2 1.8.2 2.4 1.1.4.6.7 1.2.9 1.8zM152.3 170.7c-.3.7-.6 1.3-1 1.8-.6.6-1.8.6-2.5.1s-.9-1.6-.4-2.4c.5-.9 1.4-1.3 2.3-.8.6.2 1.1.8 1.6 1.3zM143.2 175.9c.2.5 0 .9-.4 1.2-1.1.7-2.3.6-3.1-.3-.1-.2-.2-.5-.1-.7.1-.7.7-1.2 1.4-1.3 1.2-.1 1.8.2 2.2 1.1zM70.3 174.2c.2 1.1-.9 2.4-1.9 2.2-1.2-.2-2.2-.8-2.7-2-.1-.3 0-.9.2-1.2.6-.9 1.5-1 2.5-.8.9.2 1.7.8 1.9 1.8z"/>
    <path class="st3" d="M82 47.3h-.4c-.5-.6-.5-1.8 0-2.4.1-.1.3-.1.4 0 .5.6.5 1.8 0 2.4z"/>
</svg>
