<svg xmlns="http://www.w3.org/2000/svg" width="94.6" height="193.9" style="overflow:visible;enable-background:new 0 0 94.6 193.9" xml:space="preserve">
    <style>
        .st0{fill:#f8f1ec}.st1{fill:#adaaa7}.st2{fill:#7a6a56}.st3{fill:#fff}.st4{fill:#dbdcd3}
    </style>
    <path class="st0" d="M32.3 20.8s1.1 10.7 3.1 13.5 4.7 2.6 4.3 4.6c-.3 2-.1 2.9-.1 2.9l5.6 5.6s3-.9 3.3-1.6c.3-.7 2-.5 3.1 2.5 1.2 3 1.9 4.4 1.9 4.4l7.1-3.5.7-1.1s-.6-4.8-2.1-5.9c-1.5-1.1-4.8-3.7-4.8-3.7s.5 1 1.3-.9 1.7-5.5 1.7-5.5 1.6-.2 2.4-1.2c1.4-1.7 1.5-4.5 1.5-4.5l-1.1-1.3s-.1-1.4 1.1-2.8c1.2-1.4.4-4.5.1-8.4s-1.9-7.6-1.9-7.6l-8-2.7s-6.4-.2-6.8.3c-.4.6-9.9 9.8-9.9 9.8l-2.5 7.1z"/>
    <path class="st1" d="M22.9 45.1c.1 0 .1-.1.2-.1 1.8-.6 2.9-1.3 4-1.9.4-.4 1-.6 1.6-.8.5-.1 1-.3 1.5-.4.2 0 .4-.1.6-.2.4-.2.8-.4 1.3-.5.9-.4 1.7-.8 2.6-1 .6-.1 1.2-.3 1.7-.6.2-.1.4-.2.5-.2.6-.2 1.2-.3 1.8-.3.1 0 .1.1.2.2-.1.2-.2.4-.2.5-.1.2-.2.4-.2.5v.9c0 .1.1.2.1.3 0 .5.3 1 .5 1.4 0 .1 0 .1.1.2v.4c0 .4-.1.7-.2 1.2.2.3.3.8.2 1.2 0 .4 0 .9-.4 1.3-.1 0-.2 0-.3.1-.2 0-.4.2-.5.4-.1.2-.2.3-.2.5 0 .3-.1.6-.1.8.1.3.2.7.3 1 .1.2 0 .4 0 .7-.1.5-.2 1-.3 1.4v.7c.2.7.4 1.3 1 1.9.3.3.6.7.9 1.2V58.3c0 .5.1.9.1 1.4.2.5.4 1.2.4 1.8.1.8.3 1.6.6 2.3.2.4.3.8.5 1.2.1.4.4.8.6 1.2l1.8 2.7c.3.4.6.8.6 1.4 0 .1.1.2.1.4.1.4.1.9.1 1.3-.1.2-.2.4-.3.5v.2c.1.3.1.6 0 1s-.2.7-.3 1.1c-.2.7-.1 1.5.1 2.2l.3.6c.2.4.2.8.2 1.2-.1.5-.1 1.1-.3 1.6-.1.4-.2.8-.2 1.2 0 .7-.1 1.4-.1 2.1 0 .2.1.4.1.7.1.3.5.4.7.2l.3-.3c.1-.1.1-.3.1-.5v-.2c-.2-.4-.2-.9-.2-1.4.1-.3.2-.6.2-1 0-.2 0-.3.1-.5 0-.1.1-.2.1-.3 0-.4.1-.8.2-1.2v-.4c0-.8 0-1.6-.4-2.3-.1-.1-.1-.2-.1-.4 0-.3-.1-.5-.1-.8.1-.5.1-1.1.3-1.6.1-.2.1-.5.2-.7 0-.1.1-.2.1-.3.1-.2.3-.3.5-.5.2-.5.5-1 .7-1.6 0-.1.1-.2.2-.4.3-.6.6-1.3.9-1.9.2-.5.5-1.1.7-1.6.1-.2.2-.5.4-.7.8-1.3 1.4-2.7 1.7-4.3l.6-4.2v-.6c0-.4 0-.8.2-1.2-.1-.3-.2-.5-.2-.8-.1-.3-.1-.6-.1-.8.1-.2.2-.3.3-.5 0-.3.1-.6.1-.9v-.2c.4-.3.8-.8 1-1.3 0-.1.1-.2.1-.3v.1c.1.1.1.3.1.5 0 .4.2.8.3 1.1-.1.3-.2.6-.3.8 0 .4-.1.8 0 1.2 0 .5.1 1 .1 1.5.2.4.1.8.2 1.2v.5c.1.5.1 1.1.1 1.6v.6c.2.5.2 1.1.5 1.6.2.2.3.4.5.5l.6.6.3.6V66c0 1.6-.1 1 .5 2.4.2.4.3.8.4 1.3.1.4.2.9.2 1.3-.1.5-.2 1.1 0 1.6v.2c0 .2 0 .3.1.5l.3.6c.2.2.3.4.4.7.1.3.3.5.5.7.1.1.2.3.3.5.2.4.3.7.4 1.1.1.2.1.4.1.6 0 .6.2 1.1.3 1.7l.3.9c.2.3.3.7.4 1.1.3 1 .7 2 1 3 0 .1 0 .1.1.2.2.4.3.7.5 1.1.3.8.3.8 1.2 1.4 0 .1.1.3.1.4 0 .1.1.2.2.4 0 0 .7.4 1.8.6.8.1 3 .9 4.8 1.3-1.4-.1-2.8-.2-3.3.1l-1.2-.6c-.4-.2-.9-.2-1.3-.3-.6.2-.9.2-1.3.2-.6 0-1.2.1-1.7 0-.4.2-.8.3-1.3.5-.3.2-.7.2-1 .4-.6 0-1.2.3-1.8.4h-.3c-.3-.1-.5-.2-.7-.3h-.2c0-.1.1-.2.1-.3 0-.3-.2-.6-.5-.7h-.8c-.3 0-.6 0-.9-.2-.7-.3-1.5-.5-2.3-.5h-.6c-.3 0-.6 0-.9-.1-.3.1-.7.1-1 .3-.6.2-1.1.3-1.7.2l-.6-.6c-.4-.4-.8-.6-1.4-.6H42.9c-.7-.6-1.3-1.1-1.9-1.7-.6-.3-.6-.3-1.4-.4-.2 0-.3-.1-.5-.1-.2-.1-.4-.2-.5-.2-.7-.3-1.4-.4-2.1-.1-.1 0-.5 0-.9.1-.3.1-.6.2-.9.2-.5.1-.9 0-1.3-.1-.6-.1-1.2-.3-1.7-.8-.3-.2-.5-.4-.8-.5-.5-.2-1.1-.5-1.6-.7-.5-.2-1-.4-1.5-.7-.3-.2-.6-.3-1-.4-.5 0-.9-.1-1.4 0-.1 0-.1 0-.2-.1.1-.2.2-.3.3-.5 0-.3.1-.7 0-1.1V80c.2-.7.1-1.5.1-2.2v-.4c.1-.8.1-1.6 0-2.4v-1.9c-.1-.2-.1-.4-.2-.6.1-.5.1-1 .1-1.5 0-.8 0-1.7.2-2.5 0-.6.1-1.1.2-1.6v-.5c0-.4 0-.8.1-1.3v-.3c0-.7 0-1.4-.1-2.1v-.6c0-.4 0-.7-.1-1.1 0-.5-.1-.9-.1-1.3-.1-1.1-.2-2.3-.2-3.4 0-.9 0-1.7.4-2.6.1-.1.1-.2.1-.4 0-.3.1-.6.1-.9.1-.5.1-1 .1-1.4 0-.4-.1-.7-.2-1.1-.1-.5-.2-1-.5-1.5-.1-.1-.1-.2-.1-.3-.2-.6-.6-1.2-.9-1.7-.3-.4-.7-.7-1.2-.8h-.2c-.2-.1-.3-.2-.5-.3.1.1.2-.1.3-.2z"/>
    <path class="st2" d="M47.1 74.7v-.6c0-.4.2-.8.6-1 .1 0 .2-.1.3-.1h.6c.3.2.4.4.4.7v.6c-.1.3-.2.4-.4.6-.2.1-.5.2-.8.3-.3 0-.5-.2-.7-.5zM48.1 81.8c-.6 0-.9-.4-1.1-.8.1-.4.1-.8.5-1.2.3-.1.6-.3 1-.2.3.1.4.3.5.5.1.4 0 .9-.2 1.3-.1 0-.1.1-.2.2-.2 0-.4.1-.5.2z"/>
    <path class="st1" d="M47.1 104.1c-.1-.4-.1-.9-.1-1.3.1-.5 0-1.1.1-1.6v-.2c0-.2-.2-.4-.5-.4-.2 0-.3 0-.5.1-.1 0-.1.1-.2.2 0 .4.1.7.1 1.1v.4c0 .1-.1.1-.1.2h-.1c-.6-.1-1 .1-1.4.6-.1.1-.2.1-.2.2-.2.2-.3.4-.3.6-.1.4.2 1 .6 1.2.3.1.6.3.9.4h.9c.1 0 .2-.1.3-.1.2-.6.3-1 .5-1.4zm35.7.4c-.3.2-.3.5-.1.8.1.1.1.2.2.3.2.3.4.7.5 1.1.1.3.4.5.7.6.2-.2.3-.5.5-.7-.1-.3-.1-.6-.3-.9-.1-.2-.2-.3-.3-.5l-.3-.6c-.3-.2-.6-.2-.9-.1zM81 99.7h-.3c-.1 0-.2.1-.2.2-.1.1-.1.3-.1.4.1.2.3.4.5.5.2.1.3.2.4.4.1.1 0 .3 0 .4-.1.1-.2.1-.2.2-.1.1-.1.2 0 .4s.2.3.5.3c.2-.1.4-.2.5-.3.1-.3.2-.5.4-.8-.1-.4-.3-.7-.4-1.1-.5-.2-.8-.4-1.1-.6zm4 50.8c-.1 0-.2 0-.3.1-.3.1-.4.3-.4.6v.1c0 .8 0 .8-.2 1.6.1.2.3.4.6.5.1 0 .3 0 .4-.1.2-.1.3-.3.3-.5.1-.6.1-1.1.1-1.7 0-.3-.2-.5-.5-.6zm-73.7-41c.1-.5.2-.9.2-1.3v-.5c0-.3-.3-.4-.6-.4-.2 0-.3.1-.4.3-.2.5-.4 1.1-.4 1.7.1.2.3.4.5.5.2-.1.4-.2.7-.3zm74 37.8c.1 0 .2-.1.2-.1.4-.2.5-.5.6-.8v-.7c0-.3-.4-.5-.7-.4-.1 0-.2.1-.2.2l-.3.6c-.1.2-.1.4-.1.7 0 .3.2.5.5.5zm-.6 11.6c0-.2-.1-.5-.1-.8 0-.1-.1-.2-.1-.3-.1-.2-.2-.2-.4-.3h-.3c-.2 0-.4.2-.4.4-.1.4 0 .8.1 1.2 0 .2.2.3.4.3h.4c.1 0 .1 0 .2-.1.1.1.2-.1.2-.4zm-2.1-1.7c0-.2.1-.4.1-.6 0-.1.1-.2.1-.4s-.1-.4-.3-.5c-.1 0-.2-.1-.3-.1-.1.1-.3.1-.4.1-.2.7-.2.7-.3 1.5 0 .1 0 .1.1.2.5.3.5.3 1-.2zm-65.6-.4c-.1 0-.3.1-.4.2-.2.1-.3.2-.3.5.1.2.3.4.4.6 0 .1.1.1.1.1.1.1.3.2.5.4.2-.1.3-.1.5-.3.2-.1.3-.3.3-.6-.1-.1-.1-.3-.2-.4-.3-.2-.6-.3-.9-.5zm4.8 7.4c.1.2.1.4.1.5v.6c0 .3.3.5.6.4.2-.1.3-.2.4-.3 0-.3.1-.7.1-1 0-.1-.1-.2-.1-.3-.1-.3-.5-.4-.7-.2-.1.1-.2.2-.4.3zm-1.8-6.3c.6.1.6.1 1-.3.1-.3-.1-.6-.2-.9 0-.1-.1-.1-.2-.2-.2-.1-.4-.1-.7-.1-.2 0-.4.1-.5.3 0 .2.1.3.2.4.1.1.2.2.2.3.1.3.2.4.2.5zm-3.3-5.8c-.2.1-.3.1-.3.1-.1 0-.2.1-.2.1-.2.2-.2.4 0 .6.2.2.5.4.8.6h.4c.3-.1.4-.3.3-.6-.1-.3-.2-.5-.4-.8h-.6zm3.6 12.6c.3-.1.3-.4.3-.6 0-.1-.1-.2-.1-.2-.1-.1-.2-.2-.4-.3-.2-.1-.4-.1-.5-.2l-.6.3c-.1.1-.1.3 0 .4.1.1.2.2.3.4.3 0 .6.2 1 .2zm-6.7-51.9c0-.1.1-.3.1-.4.1-.3 0-.6-.3-.7-.1-.1-.2-.1-.3-.1-.6.2-.6.2-.7.7l.3.6c.1.1.2.2.3.2.3-.2.4-.2.6-.3zm3.5 35.8c-.2-.1-.3-.1-.5 0s-.4.2-.5.5c0 .1.1.2.1.3.2.2.4.4.7.5.2.1.3.1.5 0 .1 0 .1-.1.2-.2-.1-.3-.2-.5-.3-.8-.1-.2-.2-.3-.2-.3zm64.7 15.9v-.8c0-.1-.1-.2-.3-.3-.2-.1-.5-.1-.6.1-.2.1-.4.3-.3.6.1.1.1.3.2.4.1.2.3.3.5.3s.3-.1.5-.3zm-4 4.9c-.1.1-.2.2-.1.4s.3.4.4.6c0 0 .1.1.2.1.2 0 .4 0 .6-.1 0 0 .1 0 .1-.1.1-.3 0-.6-.1-.9-.1-.2-.3-.3-.5-.2-.3 0-.4.1-.6.2zm4.3-1.3c.1 0 .1 0 .2-.1.5-.4.5-1-.1-1.3-.1 0-.2-.1-.3-.1-.5.3-.5.3-.6.8.1.1.1.3.2.4.2.1.4.3.6.3zm-58 2.7v-.4c0-.2-.1-.4-.3-.5-.1-.1-.3-.2-.4-.2-.2.1-.4.3-.5.5-.1.1-.1.2 0 .4s.3.4.5.4c.3 0 .5 0 .7-.2zM93.3 114v.4c-.2.8-.1 1.7-.2 2.5v2.2c-.1.6-.1 1.2-.1 1.8-.1.6-.1 1.2-.2 1.7v1.4c-.2.5-.1 1-.2 1.4 0 .5-.1 1-.1 1.5-.1.7-.1 1.4-.1 2.1 0 .4 0 .7-.1 1.1 0 .2 0 .4-.1.7 0 .8 0 1.6-.2 2.3v2.7c0 .5-.1 1-.1 1.4-.1.4-.1.9-.1 1.4v1.9c-.1.7-.1 1.5-.2 2.2 0 .5 0 1-.1 1.5-.1.4-.1.9-.1 1.4 0 .5-.2.9-.1 1.3-.1.4-.1.9-.2 1.3 0 .1-.1.3-.1.4 0 .3-.1.5-.1.8 0 .4 0 .7-.1 1.1v3.3c-.2.8-.2 1.7-.3 2.5-.1.5-.1 1.1-.2 1.6-.1.3 0 .6 0 1 0 .6 0 1.2-.1 1.7s-.1 1.1-.1 1.6v.6c-.2.6-.1 1.3-.1 1.9 0 .7-.1 1.4-.1 2-.1 1.3-.4 2.5-.7 3.7-.2.8-.4 1.6-.6 2.3-.1.2-.2.5-.3.7 0 0-.1.1-.2.1-.4 0-.7-.4-1.2-.4-.3 0-.4.3-.6.4h-.2c-.3 0-.6-.1-1-.1-.5-.1-1.1-.2-1.6-.2-.3 0-.6-.1-.9-.1-.4-.1-.9-.1-1.4-.1H80c-.5 0-1 0-1.4.1-.4.1-.9.1-1.4.1-.4 0-.8.1-1.2.1-.4 0-.8.1-1.3 0h-.5c-.5 0-1 .1-1.4-.1h-.2c-.5.1-1-.1-1.4-.3-.5-.1-.9-.3-1.4-.4-.4-.1-.8-.2-1.2-.4-.5-.2-1.1-.4-1.7-.5-.4-.1-.7-.1-1.1 0-.1 0-.1.1-.2.1-.5 0-1 .2-1.5.3-.3 0-.6-.1-.9-.1-.1.1-.2.1-.3.1-.1.1-.2.1-.2.2-.1.1-.3 0-.4-.2v-1.5c.2-.6.1-1.3 0-1.9 0-.2.1-.5.1-.7v-1.3c0-.4.1-.8.1-1.2 0-.1 0-.1.1-.2.1-.4.1-.8.1-1.3 0-.4.2-.8.2-1.2 0-.4.1-.8.1-1.2v-1.2c.1-.5.1-1 .2-1.5 0-.2.1-.4.2-.6.1-.6.2-1.2.2-1.7 0-.4.2-1.7.3-2.1.1-.6.3-1.2.3-1.8 0-.2.1-.4.1-.6.1-.4 0-.8.2-1.2v-.2c0-.9.2-1.7.2-2.6v-1.2c0-1.1 0-2.2.1-3.3v-.2c.2-.7.1-1.4.2-2.1 0-.5.1-1 .2-1.5 0-.4.1-.8.2-1.2.1-.4.2-.8.2-1.2 0-.4.2-.8.3-1.1.1-.4 0-.9.2-1.3v-.3c0-.6.1-1.2 0-1.7-.1-.9-.1-1.7-.3-2.6 0-.2-.1-.4-.1-.6 0-.6-.1-1.2-.3-1.7-.2-.5-.3-1.1-.4-1.6-.1-.4-.2-.8-.2-1.2-.1-.4-.1-.8-.1-1.2v-1c.1-.5.1-1 .2-1.4.1-.6.2-1.1.5-1.6.1-.1.1-.3.2-.4.1-.3.2-.6.3-.8.1-.1.1-.3.2-.4l.3-.9c0-.4-.2-.6-.5-.9-.2-.1-.5-.2-.6-.1-.1.1-.3.2-.4.3l-.9.6c-.2 0-.4.1-.5.1-.7 0-1.3.2-2 .4-.2.1-.5.1-.8.2-.2 0-.5 0-.7.1-.9.2-1.7 0-2.5-.3-.5-.2-1-.4-1.5-.5-.7-.3-1.4-.2-2.1 0-.7.2-1.3.5-2 .7-.7.3-1.4.4-2.2.4-.2-.3-.1-.7-.2-1-.2-.2-.4-.2-.6-.1-.2.1-.4.3-.6.5h-.5c-.2 0-.4.1-.6.2l-.5.5c-.2.1-.5.2-.7.3-.5.1-.9 0-1.3-.2-.3 0-.5.1-.8.2-.3.3-.6.6-1 .7-.8.1-.8.1-2.2-.1-.5.1-1 .3-1.4.5-.4.3-.9.5-1.4.7-.4.1-.9.1-1.3.2-.3 0-.6-.1-.9-.1-.7-.1-1.4 0-2.1.2-.3.1-.7.2-1 .4-.2.2-.7.2-1 .2h-.3c-.1 0-.2.1-.2.2-.1.2-.2.4-.2.7.3.6.3 1.3.4 1.9 0 .3.1.5.1.8 0 .2.1.3.1.5 0 .5.1 1 .2 1.4l.6 3.3c.2.9.3 1.8.4 2.8.2.7.1 1.4.3 2.1v.9c.2.8.2 1.7.3 2.6v.5c0 .4.1.8.1 1.2.1.4.1.9.2 1.3 0 .2.1.4.1.6 0 .1.1.2.1.3 0 .6.1 1.1.2 1.6.1.6.2 1.2.3 1.7.1.4.2.9.3 1.3l.6 3.3c.2 1 .4 2 .7 3 .1.3.2.7.4 1 .3.8.5 1.7.7 2.5 0 .1 0 .2.1.3.3.9.5 1.8.7 2.7.1.4.2.8.2 1.1 0 .5.1 1 .3 1.4.2.6.3 1.2.3 1.9v.5c.2.7.2 1.3.3 2 .1.8.2 1.6.2 2.4 0 .2 0 .3.1.5-.3.2-.6.2-.8.3H36.7c-.8-.1-1.4.3-2 .9-.3.5-.8.8-1.4 1.1h-1.5c-.4 0-.8.1-1.2.3-.6.3-1.1.7-1.7 1-.2.2-.3.3-.6.4-.5.4-1.1.6-1.7.9-.6.3-1.3.3-2 .1-.5-.1-.9-.1-1.4.1-.4.1-.8.3-1.1.5l-.6.3c-.2.1-.4.1-.5.3-.1.1-.2.1-.3.1-.4.1-.8.3-1.3.5-.2.1-.4.1-.7 0-.3-.6-.6-1.2-.7-2-.1-.5-.1-1-.2-1.4-.1-.6-.3-1.3-.5-1.9-.3-1-.6-2-.8-3-.1-.5-.1-1-.2-1.4-.1-.3-.1-.6-.2-.8-.3-1.1-.7-2.2-1.1-3.2-.1-.2-.1-.4-.2-.5-.1-.6-.4-1.2-.6-1.8-.2-.6-.4-1.2-.7-1.8l-.3-.6c-.1-.3-.2-.5-.4-.8-.1-.1-.1-.2-.2-.2-.5-1.1-1.2-2.1-1.6-3.2-.1-.2-.2-.5-.3-.7l-1.5-4.2c-.5-1.3-1-2.7-1.4-4-.1-.2-.1-.4-.2-.5-.3-.8-.5-1.7-.7-2.5-.2-1-.5-2-.7-3 0-.1-.1-.2-.1-.3-.1-.4-.3-.7-.3-1.1 0-.4-.2-.8-.3-1.2-.1-.4-.2-.8-.3-1.1-.1-.3-.1-.6-.2-.8-.4-1.2-.7-2.4-.9-3.6-.3-.6-.2-1.2-.4-1.8-.1-.2-.1-.4-.2-.6-.1-.2-.1-.3-.1-.6 0-.2 0-.3-.1-.5-.3-.7-.5-1.5-.8-2.3-.5-1.3-.9-2.6-1.4-3.9 0-.1-.1-.2-.1-.3-.1-.7-.4-1.3-.5-2-.2-.6-.2-1.2-.3-1.7 0-.4 0-.8.1-1.2 0-.2.1-.3.1-.5 0-.6 0-1.1.1-1.6 0-.8.2-1.5.4-2.3.2-.4.5-.8.6-1.2.1-.1.2-.3.2-.4.3-.5.7-1 1-1.4.1-.2.3-.4.4-.7.1-.2.2-.3.3-.5.1-.1.2-.2.2-.3.4-.7.7-1.4 1.1-2 0-.1.1-.1.1-.2.3-.8.8-1.4 1.3-2 .1-.2.3-.3.4-.4.8-.6 1.6-1 2.5-1.4.1-.1.2-.1.4-.1s.3 0 .5-.1c.4-.2.9-.2 1.3-.2.8 0 1.5-.2 2.1-.5.6-.3 1-.7 1.5-1 .2-.1.3-.3.4-.4.1-.2.2-.3.2-.5.2-.2.3-.2.5-.2h.7c.4 0 .8 0 1.2.1h.2c.2 0 .3-.1.5-.1h.4c.2 0 .3.1.4.1.4-.1.7-.1 1.1-.2.3 0 .6 0 .9.1.7.3 1.4.4 2.1.6.1.1.3 0 .5.1.2 0 .4.1.8.1.5-.1 1.1-.2 1.7-.2.7 0 1.4 0 2.1.2.5 0 .9.2 1.4.3.2.1.5.2.7.2l.9.3c.3.1.6.2.9.2.3 0 .6 0 .9.1.6.1 1.2.2 1.7.2h.5c.6-.1 1.2-.1 1.8.1l1.5.3c.3 0 .4-.4.6-.5h.1c.2.1.5.1.7.2h1.1c.7.2 1.5.1 2.2 0 .2 0 .5-.1.7-.1.3 0 .6-.2.9-.1.3.1.6-.1.9-.1h.3c.5-.2 1.1-.2 1.7-.2.1-.1.3-.1.4-.2.3-.2.6-.3.9-.4.2-.1.5-.2.7-.3.2.1.7.2 1.6.1 1.3-.2 2.2-.1 2.9-.2.4 0 .7-.1 1-.3.3-.1.5-.2.9-.2.5.2 1.1.3 1.7.5.6.2 1.1.5 1.6.7.1 0 .2.1.3.2.5.2.9.4 1.5.5.1 0 .3 0 .4.2 0 0 2 .5 2.5.5h.1c.6 0 1.1.2 1.6.3.5.1 1 .3 1.4.5.6-.2 1.3-.1 1.9-.4.1-.2.2-.3.3-.4.5-.1.9-.2 1.3-.3.4-.1.9-.1 1.3-.2.3-.2.1-.5.3-.7.1 0 .1-.1.2-.1.3 0 .6-.1.9-.1.1 0 .1-.1.2-.1.1-.2.2-.3.3-.5v-.3s-.6-1.1-1-1.3c-.2-.1-.5-.4-.8-.7-.2-.1-.3-.2-.5-.3v-.1c-.3-.2-.5-.4-.6-.4-.3-.1-1.1-.7-1.2-.9V95c-.1-.1-.2-.2-.3-.2-.8-.7-1.7-1.4-2.4-2.3-.1-.1-.2-.1-.3-.2-.1 0-.1-.1-.1-.1-.2-.2-.2-.5-.3-.7.4-.1.8-.1 1.3-.1 1.5.1 2.4 1.4 2.8 1.8.3.1.4.3.7.4.6.1 1.2 0 1.8-.1.9-.1.9-.1 1.9-.6.3-.1.5-.1.7 0 .2.2.5.3.7.5.5.3.9.7 1.5.9.2 0 .4.1.7.1 1-.1 2.1-.3 3.2-.4.1 0 .3.1.5.1.4 0 .7.2 1 .5.3.3.7.5 1 .8l1.5 1.2 1.1 1.1.6.6c.1.2.3.4.4.5 1.1 1.1 2 2.5 2.8 3.8.3.4.4.9.6 1.4l.3.9c.1.3.2.6.2.9 0 .1 0 .2.1.3.3.9.4 1.8.4 2.7 0 .4 0 .7.1 1.1.1.3.1.6.1.9.7.8.7 2 .6 3.2z"/>
    <path class="st3" d="M42.3 88.8c.4 0 .7 0 1.1.1.2-.1.5-.1.7-.2.2-.1.4 0 .6.2.1.1.2.1.2.2.3.4.7.6 1.1.7.1 0 .1 0 .2.1h1c.5-.3 1.2-.3 1.8-.5h1c.6 0 1.2.1 1.7.3.4.1.7.3 1.1.3.1 0 .2.1.3.3 0 .1 0 .2-.1.3-.1.3-.3.6-.3.9 0 .1-.1.3-.1.4-.2.3-.3.6-.4 1-.2.5-.3 1.1-.5 1.6-.1.3-.1.6-.2.9-.1.3-.1.6-.2.9-.3.5-.7.9-1.2 1.3-.6.5-1.3.9-2 1-.3 0-.6.1-.9.2-.7-.1-1.4.1-2.1.3-.4.1-.7.1-1.1.1h-.5c-.8.1-1.6 0-2.4-.2-.2-.1-.4-.3-.4-.5l.3-1.2c-.1-.4 0-.8.1-1.2 0-.3.1-.5.1-.8.2-.9.3-1.8.7-2.6.1-.3.2-.6.2-.9.1-.2.3-.5.5-.7.1-.2.1-.4 0-.6-.2-.4-.3-.5-.7-.5-.1 0-.1 0-.2.1-.1.2-.3.3-.4.5 0 .2.1.3.1.5v.2c-.3.7-.6 1.3-.8 2 0 .1-.1.2-.1.4 0 .1 0 .3-.1.4-.2.7-.3 1.4-.3 2.1 0 .4-.1.7-.1 1.1-.1.4-.2.7-.2 1.1 0 .2-.1.4-.2.5-.1.1-.2.2-.3.2h-.1c-.7-.3-1.5-.2-2.2-.1-.4 0-.7.1-1.1.1-.4 0-.7 0-1.1-.1-.2 0-.3-.1-.5-.1-.8 0-1.5-.2-2.3-.4-.8-.2-1.6-.4-2.4-.7-.2 0-.3-.1-.5-.1s-.3 0-.5-.1c-.8-.2-1.6-.2-2.4-.1-.5 0-1 .1-1.7.1-.9-.2-1.9-.5-2.9-.9h-1.2c-.5.1-1.1.1-1.6.1-.4 0-.8.1-1.3.1h-.2c-1-.2-2.1-.1-3.1-.1H14l-.9-.6c-.2-.1-.3-.3-.4-.4-.4-.5-.9-1-1.3-1.6-.1-.1-.2-.3-.3-.4-.6-.5-.9-1.1-1-1.8-.1-.6-.2-1.3-.3-1.9 0-.3-.1-.5-.2-.8-.1-.2-.1-.5 0-.8.1-.5.1-1.1.3-1.6.1-.2 0-.4 0-.6V83.7c0-.2-.2-.5-.4-.6h-.2c-.4.1-.7.2-1 .6-.1.1-.2.1-.3.2 0-.1-.1-.2-.1-.3 0-.6 0-1.1.1-1.6 0-.2.1-.3.1-.5 0-.8.1-1.6.1-2.4 0-.6-.1-1.3-.2-1.9-.1-.7-.2-1.3-.2-2v-1.3c.1-.8 0-1.5.1-2.3v-.4c-.1-.4 0-.7 0-1.1 0-.2.1-.5.1-.7 0-.6.1-1.2.2-1.8 0-.1 0-.2.1-.3.2-.6.3-1.2.5-1.8.1-.2.1-.4.1-.7 0-.2.1-.4.1-.6.3-1.3.8-2.4 1.3-3.7.1-.3.2-.5.2-.8.1-.7.3-1.5.6-2.1.2-.4.4-.9.5-1.4 0-.2.1-.3.2-.4.2-.5.4-1 .5-1.6.1-.5.2-.9.5-1.3.1-.1.2-.3.2-.4.2-.6.5-1.2.9-1.8.4-.3.9-.6 1-1.2v-.6c0-.3.1-.6.2-.9l.3-.3s.1-.1.2-.1c.5-.3.9-.7 1.3-1.2.2-.3.5-.4.8-.5.4 0 .8-.1 1.3-.2.5 0 1-.1 1.5.1.3.1.6.1.9.1.2.1.5.2.8.3.2.1.4.1.5.2.5.3.9.6 1.1 1.2l.3.6c.2.4.4.8.6 1.1.1.5.2.9.3 1.4.1.6 0 1.2-.1 1.7-.2.7-.3 1.3-.5 2-.2.9-.2 1.7-.1 2.6 0 .6.1 1.2.2 1.7 0 .4.1.8.2 1.2.1.7.1 1.5.2 2.2v2.8c.1 1.1.1 1.7 0 2.4-.1.5-.1 1-.2 1.4-.1.6-.1 1.2-.2 1.7 0 .3 0 .6-.1 1 .1.5.1 1.1.1 1.6V77.8c.1.8 0 1.7-.1 2.5 0 .2 0 .4-.1.6v.5c.1.2.2.3.2.5v.1c-.1.1-.2.1-.4 0h-.3c-.3.1-.5.3-.7.5v.2c0 .1.1.2.1.3.3.2.6.3.9.2.2 0 .3-.1.5-.1h.7c.3.1.6.1 1 .1.5 0 1 .1 1.4.4.3.3.7.4 1.1.5.1 0 .3 0 .4.1.8.4 1.6.7 2.3 1.2.1.1.2.1.3.2.6.2 1.2.4 1.9.6h.8c.9-.3 1.7-.5 2.5-.7.1 0 .3.1.4.1.3.1.5.3.8.4.7.1 1.3.2 1.9.2.1.1.3.1.4.2.6.3 1 .8 1.3 1.4.2.5.2.8.5 1zm-7.8 4.9-.4.4c-.2.2-.4.5-.4.9 0 .2 0 .4.2.5.4.4.9.6 1.5.5.1-.1.3-.2.5-.3.1-.1.2-.3.3-.4.1-.1.2-.3.3-.4 0-.4.1-.7-.1-1-.3-.3-.6-.3-1-.4-.4.1-.6.2-.9.2zM46.3 96c-.2-.2-.3-.3-.5-.4-.2-.2-.4-.2-.6-.1-.2.1-.4.1-.5.2-.5.2-.7.5-.8 1 0 .2-.1.4-.1.6l.3.3.6.3c.1.1.3.1.5.1.1 0 .3 0 .4-.1.2-.1.4-.2.5-.5.1-.4-.1-.9.2-1.4zM11.7 75.1c-.2.4-.2.8-.2 1.1.1.2.3.3.5.3s.4 0 .6-.2c.3-.3.5-.6.7-.9 0 0 .1-.1.1-.2.1-.3-.1-.6-.4-.6-.2 0-.3 0-.5.1s-.5.3-.8.4zm1.1-6.6c0-.1 0-.3-.1-.4-.1-.3-.2-.4-.6-.5-.1 0-.2.1-.3.2-.1 0-.1.1-.1.1-.2.3-.3.6-.4 1.1.1.1.2.2.3.2.3.1.6.1.9-.1.2-.2.2-.4.3-.6zm.9 12.9c.1-.3.1-.5 0-.6-.1-.6-.6-.8-1.1-.5-.1.1-.2.2-.2.3.1.6.1.6.4.9.2 0 .3.1.5.1h.1c.2-.1.2-.1.3-.2zm-.2-9.5c.1-.1.1-.2.2-.2.1-.3.1-.6 0-.8 0-.1-.2-.2-.3-.2-.2 0-.5 0-.6.2-.1.1-.2.3-.4.4 0 .1.1.2.1.3.1.3.3.4.6.4.1 0 .2-.1.4-.1zm2.1 11c.1.1.1.3.2.4.1.1.2.2.4.2.2-.1.4-.1.5-.2.3-.2.4-.6.1-.8-.3-.2-.5-.4-.9-.2l-.3.6zm-.8 3.5c-.1-.1-.1-.2-.2-.2-.2-.1-.4-.1-.5-.2-.3.1-.5.1-.7.2-.1.2-.1.4-.1.6.1.3.3.4.6.4s.5-.1.7-.3c0-.2.1-.3.2-.5zM62.9 67c0-.1 0-.3.1-.4V66c-.1-.4-.3-.7-.8-.7-.2 0-.5 0-.7.1-.3.1-.5.2-.7.5-.1.1-.1.2-.2.4v.9c0 .1 0 .1.1.2.1 0 .1.1.2.2.3.1.7.3 1 .3.2 0 .3 0 .5-.1.2-.3.4-.6.5-.8zm16.2-2.4c.1.3.2.5.4.6.1.2.3.3.5.4.1 0 .2.1.3.1.5-.1.7-.3.8-.7v-.8c0-.3-.3-.5-.5-.5-.5 0-.9.1-1.3.4-.1.1-.1.3-.2.5zm2 6.8c0 .3 0 .7-.2 1.1v.2c0 .2.1.4.2.5.2.1.3.3.6.3.3-.2.6-.5.6-.9-.1-.4-.1-.8-.2-1.2-.1-.2-.3-.4-.6-.4-.1 0-.3.2-.4.4zm1.1-12c-.2-.3-.3-.7-.5-1v-.1c-.1-.2-.3-.3-.5-.3-.3.1-.5.2-.6.5-.1.3-.1.6 0 .8.1.3.3.6.6.7.4.1.7 0 .9-.3 0 0 .1-.2.1-.3zm-1.8 16.4c-.3.1-.5.3-.6.6-.1.2-.1.3 0 .5s.3.4.6.3c.3-.1.5-.2.7-.5 0-.2 0-.4-.1-.6-.2-.3-.4-.3-.6-.3zm0-5.3c.2-.1.4-.2.5-.5v-.4c0-.1-.1-.2-.2-.2-.2-.1-.4-.2-.6-.1-.3.1-.5.6-.3.9.1.1.3.3.6.3zm-4-23.4c.8.3 1.6.8 2 1.7.3.2.6.4.8.6.3 0 .6.1.9.2.3.1.5.2.8.3.2.1.3.1.4.2.7.4 1.4.8 2 1.3.2.5.3 1 .6 1.5.2.4.4.9.5 1.4.1.2.1.3.1.5.1.4.2.9.3 1.3.2.6.3 1.3.4 1.9 0 .2.1.4.1.7 0 1.6.1 3.2.1 4.9v1.6c0 .3.1.6.1 1-.2.5-.1 1.1-.1 1.7v1.9c-.1 1-.1 2-.2 3 0 .5 0 1-.1 1.5s0 1-.1 1.5c0 .2 0 .4-.1.7-.1.2-.1.4-.1.7 0 .8-.1 1.7 0 2.5 0 .4-.1.7-.2 1-.1.3-.1.6-.1 1-.1.6-.2 1.2-.6 1.7 0 .1-.1.1-.1.2-.2.6-.6 1-1 1.4-.1.2-.1.3-.1.4 0 .1-.1.1-.1.2-.7.7-1.4 1.2-2.2 1.8-.3.2-.6.3-1 .3h-.7c-.6.2-1.1.5-1.6 1-.4.3-.8.7-1.3.8-.3 0-.6 0-1-.1 0 0-3-.1-4.9-.5-1.8-.4-5-1.1-6.1-1.6-.1-.1-.3-.1-.4-.2-.1-.1-.2-.2-.3-.4-.1-.2-.3-.4-.6-.5-.3-.1-.4-.3-.5-.5-.1-.2-.2-.5-.3-.7-.1-.4-.3-.9-.4-1.3-.1-.3-.3-.6-.3-.9v-.1c-.4-.6-.5-1.3-.7-2-.1-.2-.2-.3-.3-.5-.3-.5-.5-1-.5-1.6 0-.8-.3-1.5-.5-2.3-.1-.5-.4-.9-.7-1.4-.5-.5-.9-1.1-1.1-1.8-.1-.5-.1-.9 0-1.4.1-1.3-.2-2.4-.7-3.6-.2-.5-.4-1.1-.4-1.7v-2.9c0-.1.1-.1.2-.2h.2c.8-.3 1.6-.6 2.2-1.1.5-.4 1-.6 1.5-.9.6-.4 1.3-.8 1.9-1.2.1-.1.3-.2.4-.3.5-.3 1-.6 1.4-1 0 0 .1-.1.2-.1.2-.1.5-.1.6.1.2.4.4.8.5 1.3 0 .1.1.2.1.3.2.6.4 1.2.9 1.7.2.2.3.5.5.7.1.2.2.3.2.5.1.7.5 1.3.7 1.9.1.2.2.5.4.7.2.3.3.6.5.8.3.4.4.9.6 1.4.1.2.2.4.2.6.2.4.3.7.5 1.1.1.2.2.4.3.5.2.3.3.5.5.8.1.2.2.4.4.6.4.5.7 1.1.9 1.7.1.2.1.4.2.7 0 .3 0 .6-.1.8-.1.2.1.5.4.5.2 0 .4.1.7 0 .2-.2.2-.4.4-.7-.1-.2-.1-.4-.2-.6-.3-1-.6-2-1.2-2.8-.3-.5-.6-1.1-.9-1.7-.1-.2-.2-.5-.4-.7-.1-.3-.3-.6-.4-.9-.1-.2-.1-.4 0-.6l.3-.3v-.2c-.2-.5-.2-1-.2-1.4-.1-.7-.2-1.3-.4-2 0-.2-.1-.3-.1-.5V61.3c0-.5-.1-1 .1-1.4 0-.4 0-.7.1-1.1.1-.1.1-.2.2-.4.1-.4.1-.8.2-1.3.3-.3.4-.7.6-1.1.2-.7.5-1.4.7-2.1.1-.3.3-.6.4-1 .5-1.1.9-2.3 1.5-3.4.3-.7.8-1.4 1.2-2.1.2-.2.3-.4.5-.5h.2c0 .2.3.2.7.2zM23.7 180.3c.8-.8 1.3-1.8 1.5-2.9.1-.1.2-.1.3 0 .3.2.5.2.8 0 .2-.1.3-.2.5-.3l.6-.6.9-.6c.3-.1.5-.2.8-.4.5-.1 1.1-.1 1.7.1.3.1.7.1 1.1 0 .6-.1 1.1-.4 1.5-.8.1-.2.3-.3.5-.5.5-.4.9-.7 1.4-1.1.3-.2.5-.3.8-.5.4-.1.7-.1 1-.2.2-.1.3 0 .5.1.2 1 .5 2.1.7 3.1 0 .2.1.4.1.6 0 .9.2 1.8.3 2.7v.4c-.1.3-.3.6-.5.9-.3.2-.5.5-.8.7-.2.2-.5.3-.8.4-.6.2-1.2.5-1.7.9-.4.3-.8.5-1 .9-.1.1-.2.1-.2.2-.2.2-.5.3-.7.5-.2.1-.4.2-.5.3-.2.1-.3.3-.4.4-.2-.1-.3-.1-.5-.2-.1 0-.3 0-.4.1l-.3.3c-.2.2-.4.4-.7.5-.8.4-1.5.8-2.3 1-.3.1-.7.2-1 .4-.5.3-1.1.4-1.6.6-.3.1-.6.1-.8 0 .2-.3.2-.3 1-.5.4-.1.7-.3 1.1-.4.4 0 .8-.1 1.1-.2.3-.3.2-.5.1-.8 0-.1-.1-.1-.2-.2-.2-.1-.4-.1-.6 0-.2.1-.5.2-.7.3-.4.2-.9.4-1.3.7-.4.2-.8.3-1.1.5-.3.2-.7.4-1 .6-.5.3-1 .5-1.5.8-.5.3-1 .5-1.5.6-.3.1-.6.2-.9.4-.8.3-1.5.7-2.3 1.1-.1 0-.1.1-.2.1-.6.1-1.2.4-1.8.6-.3.1-.5.2-.8.3-.3.1-.7.2-1 .4-.1.1-.2.1-.4.1s-.4.1-.7.1c0 0-.1-.1-.1-.2v-2.7c0-.2 0-.4.1-.7.1-.3.1-.6.2-1s.2-.9.5-1.3c.1-.2.2-.3.3-.5.1-.2.3-.4.5-.6 1.1.4 1.1.4 2.2.4l2.1-.9c.3-.3.7-.5 1.2-.7.5-.2.9-.5 1.4-.7.6-.2 1.3-.2 1.9-.4h1.2c.3.2.5.3.8.5.2.1.5.1.8.2.2-.2.2-.5.3-.8-.1-.3-.4-.5-.5-.8-.1-.3-.3-.5-.5-.7-.5-.3-.5-.5-.5-.6zM35 179c0 .3-.1.6-.1.8.1.2.2.3.3.4.2.1.4.1.6 0 .2-.2.3-.4.5-.6 0-.2 0-.3-.1-.4-.2-.3-.4-.4-.7-.3-.1 0-.3.2-.5.1-.1-.2.1-.4.1-.6 0-.3-.1-.5-.4-.6-.1-.1-.2-.1-.4 0-.4.1-.7.4-1 .7 0 .2.1.5.2.7.2.1.3.2.5.2.5-.1.7-.4 1-.4zm2.8-2.8c-.1-.1-.1-.3-.2-.4v-.2c.1-.2 0-.3-.2-.4h-.5c-.1.1-.3.2-.4.2-.1.1-.2.2-.2.4.1.4.3.7.6.9.1.1.3.1.4 0 .3-.1.4-.3.5-.5zm-9.5 7.2c-.2.1-.2.3-.3.4-.1.1-.3.2-.4.4 0 .1.1.2.1.3.1.2.2.3.5.3h.3c.2 0 .4 0 .6-.2.1-.1.2-.1.2-.2.1-.1.1-.2.1-.2 0-.1 0-.2-.2-.3-.2 0-.3-.1-.5-.1-.2-.1-.3-.3-.4-.4zm3.2-2.3h-.7c-.2 0-.4.2-.4.5s.2.6.5.7c.1 0 .2.1.3.1.3-.1.4-.3.5-.6.1-.2.1-.4-.2-.7z"/>
    <path class="st1" d="M75.4 45.1c-.1.1-.1.2-.1.3-.2.2-.3.4-.5.6-.7.5-1.1 1.2-1.6 2 0 .1-.1.2-.1.3-.4.5-.6 1.1-.8 1.8 0 .1-.1.2-.1.3-.3.3-.4.7-.6 1.1-.1.2-.2.5-.3.7-.1.2-.1.5-.3.7-.1.1-.1.3-.2.4-.1.5-.3 1-.5 1.5-.3.6-.5 1.3-.7 1.9-.2.7-.4 1.4-.7 2.1-.1.4-.3.8-.4 1.2 0 .4 0 .9-.1 1.3v3.4h-.1c-.1-.2-.3-.3-.4-.5 0-.3-.1-.5-.1-.8-.3-.7-.6-1.4-1-1.9-.3-.4-.5-.9-.6-1.4-.2-.6-.4-1.2-.7-1.8-.1-.3-.2-.5-.3-.9.1-.3.2-.6.2-.9 0-.3 0-.6-.1-.9-.1-.1-.1-.3-.1-.4 0-.5-.1-1-.2-1.5 0-.3-.2-.7-.3-1-.1-.5-.3-.9-.3-1.4-.2-.6-.4-1.1-.6-1.6-.1-.3-.3-.6-.6-.9-.3-.3-.7-.5-1-.8-.2-.4-.2-.4-.1-.8-.6-.8-1.2-1.5-1.7-2.5-.1-.3-.1-.6-.4-1-.1-.1-.2-.3-.2-.4-.1-.4-.2-.7-.4-1-.1-.2-.2-.4-.4-.5-.1-.1-.1-.2-.2-.3.1-.3.2-.6.4-.9.1-.3.2-.5.4-.8.1-.2.4-.3.6-.3.7-.1 1.5-.2 2.2-.2.5.2.9.4 1.2.8l.4.4c.5.4.9.8 1.4 1.3.6.1 1.3.3 2 .4l1.2.3.6.3c.4.2.7.3 1.1.4.7.2 1.4.4 2 .7.4.2.8.3 1.2.4.3.1.6.2.8.3.4.1.7.2 1.1.5z"/>
    <path class="st3" d="M68.2 179.9c-.4-.3-.8-.5-1.2-.6-.3-.1-.6-.1-.9-.2-.4-.1-.8-.2-1.2-.4-.2-.1-.5-.2-.7-.3-.2-.1-.3 0-.5 0-.3.1-.4.4-.2.6.1.1.2.2.4.3.2.1.5.2.7.3l.1.1c-.1 0-.1.1-.2 0-.3-.1-.6-.1-.8-.2-.5-.3-1-.5-1.4-.9v-.4c.1-.3.2-.7.2-1 0-.3.1-.6.2-.9.1-.2.2-.4.2-.5.3-.9.7-1.8 1.2-2.7.3-.1.7-.1 1.1-.2.3-.1.7-.2 1-.2h.7c.3.1.6.1.9.1.5.3 1.1.5 1.8.6.1 0 .3.1.4.1.8.3 1.6.4 2.3.6.3.1.6.1 1 .1h2.6c.4-.1.8 0 1.2 0 .2 0 .3.2.4.3.1.1.3.2.4.4.1.1.2.3.1.4-.3.6-.6 1.1-1.1 1.6 0 0-.1 0-.1.1h-1.2c-.1.1-.3.1-.4.2-.3.2-.3.4-.2.8 0 .1.1.2.2.3.3.1.7.2 1 .2.4-.2.9-.3 1.2-.6.2-.2.5-.2.7-.1.4.1.8.3 1.1.6.6.4 1.3.8 2 .9.3.1.5.3 1 .4h.6c.4 0 .7 0 1-.2.2-.1.4-.2.6-.4.2.1.4.2.7.3.2.1.5.2.7.3.2.1.4.2.6.4.4.4.9.8 1.3 1.2.3.3.5.6.7.9.2.3.4.7.7 1 .1.5.3.9.3 1.4 0 .3 0 .5-.1.8 0 .1-.1.2-.2.2-.2 0-.5-.1-.7-.1-.2 0-.4-.1-.7-.2-.2-.1-.4-.2-.6-.2-.2-.1-.5-.2-.7-.2-.5-.1-1.1-.2-1.6-.4-.5-.1-1-.2-1.5-.2h-2.1c-.3 0-.6-.1-1-.1-.8-.2-1.5-.4-2.2-.6-1.5-.4-2.9-.9-4.4-1.3-.4-.1-.8-.3-1.3-.3-.3 0-.6-.2-.9-.3-.3-.1-.6-.3-1-.4-.3-.1-.6-.3-.9-.4-.5-.1-.8-.4-1-.8-.2.1-.3 0-.3-.2zm-1.3-5.1-.3-.3c-.2-.1-.4-.1-.5 0l-.3.3c-.1.1-.2.3-.3.5-.3 0-.5-.2-.8-.2-.2.1-.4.1-.6.4 0 0 0 .1.1.2.1.2.2.4.4.5.1.1.4.1.5 0 .1-.1.2-.3.3-.5 0-.1.1-.1.2-.2.2.1.4.1.6.2.2.1.4 0 .6-.1.1-.3.2-.5.1-.8zm4.3 4.2c0-.1 0-.2-.1-.4 0-.1-.1-.1-.1-.2-.4-.4-1-.3-1.3.1 0 .1-.1.2 0 .3.2.3.5.6.9.7.3.2.6 0 .6-.5zm-2-2c-.4-.5-.4-.5-.7-.6-.4-.2-.7.1-.8.4v.1c0 .3.2.5.3.7.3.1.3.1.6 0l.6-.6zm-2.7 0c-.1-.3-.3-.5-.6-.5h-.4c-.3 0-.4.2-.5.4-.1.2 0 .4.1.5.2.1.3.2.5.2.7-.2.7-.2.9-.6z"/>
    <path class="st0" d="M73.5 98.1c0-.2-.1-.3-.3-.4-.3-.3-.6-.5-1-.8-.2-.2-.5-.4-.7-.5-.2-.1-.4-.2-.6-.4-1-.8-1.9-1.6-2.9-2.5-.4-.4-.8-.7-1.3-1-.2 0-.7-.5-1-.6-.2-.1-.3-.3-.5-.5-.1-.1-.2-.1-.3-.2-.2-.1-.3-.2-.5-.3-.1-.1-.2-.1-.2-.1-.3 0-.5-.2-.7-.2-1-.3-2-.5-3.1-.3-.2 0-.4.1-.7.2-.9.4-1.8.6-2.8.8h-.2c-.7 0-1.3.3-2 .5h-.1c-.2-.1-.3-.2-.5-.4H54c-.2.1-.3.2-.5.3-.4 0-.9.8-.9 1.2 0 .4.1.7.3 1 .1.4-1.7 3.2-1.5 3.6.3.3 2.8-.5 2.9-.3.2.1.3-.1.4-.1.6-.1 1.1-.1 1.7-.2.4 0 .8 0 1.2.1h.2c.7.1 1.3.3 1.9.7.5.3 1 .5 1.6.8.2.1.5.2.8.4.3.1.7.2 1.1.4.4.1.7.2 1.1.2.7 0 1.3.2 2 .3.3 0 .6.1.8.2.4.1.8.3 1.2.4h.3c-.1-.2-.2-.2-.4-.3-.7-.3-1.3-.7-1.9-1.1-.5-.3-1-.6-1.5-.8-.4-.2-.8-.4-1.1-.6-.4-.2-.8-.4-1.2-.7-.2-.1-.3-.2-.4-.4.1-.3.4-.5.8-.5.4.1.8.5 1.3.5.8.5 1.6 1.1 2.6 1.4.3.1.6.3.8.5.5.4 1.1.6 1.7.9.3.1.5.1.9-.1 0-.1 0-.3-.1-.3l-.9-.6c-.5-.2-.9-.7-1.4-.9-.1-.1-.2-.2-.3-.2-.2-.2-.4-.3-.6-.5-.2-.1-.4-.4-.6-.5-.2-.2-.5-.3-.7-.5-.3-.1-.6-.3-.8-.5v-.3c.1-.4.5-.6.9-.5.2.1.4.1.5.3.3.3.7.5 1 .8.2.2.4.4.6.5.3.2.7.5 1 .8.1.1.2.2.3.2.5.2.8.6 1.3.8.2.1.3.2.5.2l.9.3c.3.1.5.1.8.2h.6c.1-.2.2-.2.3-.4 0 .1 0 .1 0 0z"/>
    <path class="st3" d="M61.7 49.2c1 .5 1.3 1.3 1.4 2.4.8 1.7 1.1 3.6.9 5.5-.2.3-.5.6-.7.8-.1.1-.2.2-.3.2l-2.4 1.5c-.4.2-.8.5-1.2.8-.2.1-.4.3-.7.4-.5.2-.8.5-1.2.8-.5.1-.9.2-1.3.4-.4 0-.8-.1-1.1-.2-.4-.2-.6-.5-.9-.8 0-.2 0-.4-.1-.6-.2-.7-.2-1.3-.2-2 0-.3 0-.6-.1-1 0-.2 0-.4-.1-.7 0-.2 0-.5-.1-.7-.2-.7-.1-1.3-.1-2 .1-.2.2-.4.4-.5v-.3l.2-.2c.1-.1.2-.1.4-.1.3 0 .6-.1.9-.2.5-.1.9-.2 1.4-.3.4-.3.9-.6 1.4-.7.2-.2.4-.3.6-.5.6-.3 1.1-.7 1.5-1.2.1-.1.2-.2.4-.3.4-.1.7-.3 1-.5zm-1.8 8.2v-.7c0-.3-.2-.6-.4-.7-.2-.1-.3-.2-.5-.1-.3.1-.7.2-1 .5-.1.2-.2.4-.2.6-.1.4-.1.8.3 1.2.2.2.3.3.5.4.3 0 .5.1.7-.1 0-.1.1-.1.2-.3.1-.3.2-.5.4-.8zM45.5 70.6c-.5-.4-.3-.9-.6-1.3.1-.2.2-.4.3-.5.1-.7.1-1.3.2-2-.1-.5-.3-1-.6-1.5.1-.2.3-.3.4-.5 0-.1 0-.2-.1-.3-.1-.1-.2-.3-.3-.4-.1-1-.3-2.1-.3-3.1 0-.3 0-.6-.1-.9 0-.3-.1-.6-.1-.9 0-.5 0-1.1.1-1.6.1-.4.1-.8.2-1.2.2 0 .3.2.5.3.6.2.9 0 1-.6v-.2c-.1-.3-.3-.4-.6-.5-.4.1-.5.6-.9.7 0-.1-.1-.2-.1-.3 0-.3-.1-.5-.1-.8-.1-.3-.1-.6 0-.9.1-.4.1-.7 0-1 0-.1 0-.1.1-.3.2-.1.5 0 .7.1.5.2 1.1.5 1.6.6.1 0 .1 0 .2.1.8.4 1.6.8 2.4 1.3 0 0 0 .1.1.1.1.9.2 1.8.1 2.7 0 .9-.2 1.7-.2 2.6-.2.4-.1.8-.2 1.2 0 .4-.1.8-.2 1.1-.2.5-.4 1.1-.7 1.6-.1.1-.2.3-.2.4-.2.4-.4.7-.5 1-.2.3-.3.7-.5 1-.1.2-.2.3-.2.5-.3.9-.7 1.9-1.2 2.8 0 .4-.1.5-.2.7zm-.1-10.8c.1 0 .1.1.2.1h.6c.3 0 .5-.2.5-.6 0-.3-.2-.6-.6-.7H46c-.5.3-.6.3-.6.8v.4zM40.8 55.1l.9-.6c.2-.2.5-.3.7-.5l.6-.6c0-.1.1-.1.2-.1 0 .1.1.1.1.2 0 .4.1.7.1 1.1 0 .8.1 1.5.1 2.3 0 .3 0 .6-.1 1-.2.6-.2 1.2 0 1.8.1.3.2.7.1 1.1v.1c.2.6.1 1.2.2 1.8.1.8.2 1.7.2 2.6 0 .1-.1.3-.2.5 0 .3.3.4.5.7.2.4.2.8.1 1.3 0 .1-.1.1-.1.2h-.1c-.1-.1-.2-.1-.2-.2-.4-.5-.8-1.1-1.2-1.7-.3-.4-.6-.9-.7-1.5-.3-.5-.4-1.1-.7-1.7-.1-.2-.2-.5-.2-.7-.1-.4-.1-.8-.2-1.1v-.4c0-.1 0-.3-.1-.4-.3-.6-.3-1.2-.3-1.8-.1-.7 0-1.4 0-2.1.1-.6.3-.9.3-1.3z"/>
    <path class="st4" d="M43.3 48.9c0 .1 0 .1 0 0v1.4c0 .1-.1.3-.2.3s-.2-.1-.2-.1c0-.2 0-.3.1-.5-.1-.1-.1-.2-.2-.3-.4-.2-.9-.3-1.4-.3-.3 0-.5.2-.6.4-.1.2 0 .5.2.6.2.1.4.1.7.1.1 0 .2.1.2.1 0 .2-.1.3-.2.4-.2.1-.4.2-.6.4-.1.1-.1.2-.1.2v.1c.2.2.4.3.6.5h.2c.1 0 .2-.1.3-.1.3-.1.4 0 .5.3-.2.5-.5.9-.9 1.1-.5.2-1 .6-1.5.8-.1 0-.2.1-.3.1-.1-.1-.2-.1-.2-.2-.2-.2-.3-.5-.5-.7-.4-.6-.5-1.3-.3-2.1 0-.2.1-.4.2-.7.1-.4.1-.8 0-1.2-.1-.2-.1-.4-.2-.7.1-.2.1-.3.2-.5.2-.1.3-.1.4-.1h1.9c.6 0 1.2.1 1.7.3 0 .3.1.3.2.4zM49.9 53.8c-.1-.1-.2-.1-.3-.2-.3-.3-.7-.5-1.1-.6-.1-.1-.3-.1-.4-.2-.2-.1-.4-.2-.6-.2-.2 0-.4-.1-.6-.3-.1-.1-.1-.2-.1-.3 0-.1.1-.2.1-.4 0-.1.1-.3.1-.4 0-.1 0-.2.1-.3 0-.1.1-.2.2-.3.2 0 .3.1.4.3v.1c-.2.2-.3.3-.5.4-.1.3 0 .4.1.6.2.1.4.2.5.1.1 0 .2-.1.3-.2.1-.1.3-.2.4-.3.1-.1.3-.2.4-.3.1-.1.1-.3.2-.4 0-.1.1-.2.1-.4 0-.1 0-.3-.1-.4-.3-.3-.6-.4-1-.4h-1l-.1-.1c0-.1 0-.1.1-.2.4-.2.8-.3 1.3-.4.2-.1.4 0 .6.2.1.1.2.3.4.3.6.2.6.5.6.8v.7c0 .2 0 .4.1.6.1.2.1.4.1.7-.1.4-.1.9-.3 1.5z"/>
    <path class="st3" d="M38.6 181.6c.2.3 0 .5 0 .8-.1.2-.3.4-.4.6-.5.3-.9.6-1.4.8-.6.1-1.1.5-1.6.8-.2.1-.4.3-.6.4-.2.2-.4.4-.7.5-.3.1-.4.4-.7.5-.2-.1-.4-.1-.5-.2-.4-.3-.3-.3-.2-.5.2 0 .3.1.4.1.1 0 .1 0 .2-.1.2-.1.4-.3.5-.4.3-.3.7-.6 1.1-.8.1-.1.2-.1.3-.2.3-.4.8-.6 1.1-.9.2-.2.4-.3.7-.4.5-.2 1-.5 1.5-.8.1-.1.2-.1.3-.2zM15 184c-.2-.1-.3-.1-.5-.2-.1-.2-.1-.4-.2-.6.1-.1.1-.2.2-.2.8-.4 1.5-.8 2.4-.9h.1c.7-.3 1.4-.4 2.1-.6.8-.3 1.6-.5 2.4-.6.2 0 .3 0 .5.1v.2s0 .1-.1.1c-.3.1-.5.2-.8.2-.5 0-1 .1-1.4.3-.2.1-.3.1-.5.1-.1 0-.2 0-.3.1-.5.4-1 .5-1.6.7-.2.1-.4.2-.6.4-.3.3-.7.5-1.1.7 0 0-.2 0-.6.2z"/>
    <path class="st4" d="M46.1 49.4c0 .9 0 1.7-.4 2.5-.1.1-.3.1-.4.1-.3 0-.6-.1-.8-.2 0-.1-.1-.1-.1-.2 0-.6-.1-1.2 0-1.8 0-.2.1-.3.2-.4.9-.3 1-.3 1.5 0z"/>
    <path class="st3" d="M82.2 178.4h-.7c-.3-.2-.7-.3-1.1-.5-.5-.5-1.1-.9-1.8-1-.2-.2-.2-.4 0-.6l.3-.3s.1 0 .2-.1c.1 0 .2.1.2.1.2.2.4.3.6.5.4.5.9.9 1.5 1.2.3.3.6.4.8.7zM31 174.5c-.2-.1-.5-.1-.5-.5.4-.3.9-.6 1.4-.8.5-.2.9-.2 1.4-.1v.2c-.3.5-.8.7-1.3 1-.1.1-.3.1-.5.1-.1.1-.3.1-.5.1zM15.9 191.3c.1-.1.1-.2.2-.2.7-.2 1.4-.5 2-.9.4-.2.7-.4 1.1-.6.1.1.1.1.1.2-.2.2-.5.4-.7.7 0 .1-.1.1-.1.1-.5.2-.9.6-1.4.7-.3.1-.6.1-.8.1-.3 0-.3 0-.4-.1zM62.1 180.1l.1-.1h.2c.4.3.8.5 1.2.6.1 0 .2.1.2.3-.2 0-.4 0-.6.1-.4-.3-.8-.5-1.1-.9zM82.2 178.4h.2c.1 0 .1.1.1.1h-.2s-.1 0-.1-.1zM36.5 171.5c-.1 0-.1 0-.2.1l-.1-.1h.3zM84.4 185.7h-.1.1z"/>
    <path class="st2" d="M47.1 104.1c-.2.4-.3.8-.4 1.2-.1 0-.2.1-.3.1h-.9c-.3-.1-.6-.2-.9-.4-.4-.2-.7-.8-.6-1.2 0-.2.1-.4.3-.6.1-.1.2-.1.2-.2.4-.4.8-.6 1.4-.6h.1c0-.1.1-.1.1-.2v-.4c-.1-.3-.1-.7-.1-1.1.1-.1.1-.2.2-.2.2 0 .3-.1.5-.1s.4.2.5.4v.2c0 .5 0 1.1-.1 1.6-.2.7-.2 1.1 0 1.5zm-1.7-.5c-.1 0-.2.1-.2.1-.1.2-.1.4.1.5.1 0 .2.1.3.1.1 0 .2-.1.2-.3-.1-.1-.2-.3-.4-.4zM82.8 104.5c.3-.1.6-.1.8 0l.3.6c.1.2.2.3.3.5.2.3.2.6.3.9-.2.3-.3.5-.5.7-.3-.1-.6-.3-.7-.6-.1-.4-.3-.7-.5-1.1-.1-.1-.1-.2-.2-.3-.1-.2-.1-.5.2-.7zM81 99.7c.4.2.7.4.9.7.1.3.3.6.4 1.1-.1.3-.2.5-.4.8-.2.1-.4.2-.5.3-.3 0-.4-.1-.5-.3-.1-.1 0-.3 0-.4.1-.1.2-.1.2-.2.1-.1.1-.2 0-.4s-.2-.3-.4-.4c-.3-.1-.4-.3-.5-.5-.1-.1 0-.3.1-.4.1-.1.2-.1.2-.2.2-.1.3-.1.5-.1zM85 150.5c.3.1.4.3.5.6.1.6 0 1.2-.1 1.7 0 .2-.1.4-.3.5-.1.1-.2.1-.4.1-.2-.1-.5-.2-.6-.5.2-.8.2-.8.2-1.6v-.1c0-.3.1-.5.4-.6.2-.1.3-.1.3-.1zM11.3 109.5c-.3.1-.5.2-.6.3-.3-.1-.4-.3-.5-.5 0-.6.2-1.2.4-1.7.1-.1.2-.2.4-.3.3-.1.6.1.6.4v.5c-.2.4-.2.8-.3 1.3zM85.3 147.3c-.3-.1-.5-.3-.5-.5s0-.5.1-.7l.3-.6c0-.1.1-.1.2-.2.3-.2.7 0 .7.4v.7c0 .4-.2.7-.6.8 0 .1-.1.1-.2.1zM84.7 158.9c0 .2-.1.4-.2.6-.1 0-.1.1-.2.1h-.4c-.2 0-.4-.2-.4-.3-.1-.4-.2-.8-.1-1.2 0-.2.2-.3.4-.4h.3c.2 0 .3.1.4.3 0 .1.1.2.1.3 0 .1.1.4.1.6zM82.6 157.2c-.5.5-.5.5-1.1.2 0-.1-.1-.1-.1-.2.1-.8.1-.8.3-1.5.1 0 .3-.1.4-.1.1 0 .2.1.3.1.2.1.3.3.3.5 0 .1 0 .3-.1.4.1.2 0 .4 0 .6zM17 156.8c.3.2.6.3.9.5.1.1.2.3.2.4 0 .3-.1.5-.3.6-.2.1-.3.2-.5.3-.2-.1-.3-.2-.5-.4l-.1-.1c-.1-.2-.3-.4-.4-.6 0-.2.2-.4.3-.5.1-.1.3-.2.4-.2zM21.8 164.2c.2-.1.3-.2.4-.3.3-.2.6-.1.7.2 0 .1.1.2.1.3 0 .3-.1.7-.1 1-.1.2-.2.3-.4.3-.3.1-.6-.1-.6-.4v-.6c.1-.1 0-.2-.1-.5zM20 157.9c-.1-.1-.1-.3-.2-.4-.1-.1-.1-.2-.2-.3-.1-.1-.2-.3-.2-.4.1-.2.3-.3.5-.3s.5 0 .7.1c.1 0 .2.1.2.2.2.3.3.6.2.9-.3.3-.4.4-1 .2zM16.7 152.1c.2 0 .3.1.5.1.1.3.3.5.4.8.1.2-.1.5-.3.6h-.4c-.3-.2-.5-.4-.8-.6-.2-.1-.2-.4 0-.6.1-.1.2-.1.2-.1.2-.2.3-.2.4-.2zM20.3 164.7c-.4 0-.7-.2-1-.2-.1-.1-.2-.2-.3-.4-.1-.1 0-.3 0-.4.2-.2.4-.3.6-.3.2 0 .4.1.5.2.1.1.3.2.4.3.1.1.1.2.1.2.1.2 0 .4-.3.6zM13.6 112.8c-.1.2-.3.2-.5.2-.1 0-.2-.1-.3-.2l-.3-.6c.1-.5.1-.5.7-.7.1 0 .2.1.3.1.3.2.4.4.3.7-.1.2-.2.3-.2.5zM17.1 148.6c0 .1.1.1.1.2.1.3.2.5.3.8-.1.1-.1.2-.2.2-.1.1-.3.1-.5 0-.3-.1-.5-.3-.7-.5 0-.1-.1-.2-.1-.3.1-.3.3-.4.5-.5.2-.1.4 0 .6.1zM81.8 164.5c-.2.2-.3.3-.6.3-.2 0-.4-.1-.5-.3-.1-.1-.2-.3-.2-.4 0-.3.1-.4.3-.6.2-.1.4-.1.6-.1.1 0 .2.1.3.3.2.3.1.5.1.8zM77.8 169.4c.2-.1.3-.1.5-.2s.4 0 .5.2c.2.3.2.6.1.9l-.1.1c-.2.1-.4.1-.6.1-.1 0-.1-.1-.2-.1-.2-.2-.3-.4-.4-.6 0-.2.1-.3.2-.4zM82.1 168.1c-.2 0-.4-.2-.6-.3 0-.1-.1-.3-.2-.4.2-.5.2-.5.6-.8.1 0 .2 0 .3.1.6.3.6.9.1 1.3-.1.1-.1.1-.2.1zM24.1 170.8c-.2.2-.4.2-.6.1-.2-.1-.4-.2-.5-.4-.1-.1-.1-.2 0-.4s.2-.4.5-.5c.2 0 .3.1.4.2.2.1.3.3.3.5-.1.2-.1.4-.1.5zM34.5 93.7c.3-.1.5-.1.8-.2.4.1.7.1 1 .4.1.3.1.6.1 1-.1.1-.2.2-.3.4-.1.1-.2.3-.3.4-.2.1-.3.2-.5.3-.6.1-1.1-.1-1.5-.5-.1-.2-.2-.3-.2-.5.1-.3.2-.6.4-.9.2-.1.3-.2.5-.4zM46.3 96c-.3.5-.1 1-.2 1.5-.1.2-.3.4-.5.5-.1 0-.2.1-.4.1s-.4 0-.7-.1l-.6-.3-.3-.3c0-.2 0-.4.1-.6.1-.5.4-.8.8-1 .2-.1.4-.1.5-.2.2-.1.4-.1.6.1.4 0 .5.1.7.3zM11.7 75.1c.3-.1.5-.2.8-.3.1-.1.3-.1.5-.1.3 0 .5.3.4.6 0 .1 0 .1-.1.2-.2.3-.5.6-.7.9-.2.1-.4.1-.6.2-.2-.1-.4-.1-.5-.3 0-.5.1-.8.2-1.2zM12.8 68.5c-.1.2-.1.5-.3.7-.3.1-.6.1-.9.1-.1 0-.2-.1-.3-.2.1-.5.2-.9.4-1.1l.1-.1c.1-.1.2-.1.3-.2.3 0 .5.2.6.5.1 0 .1.2.1.3zM13.7 81.4c-.1 0-.2.1-.3.1h-.1c-.2 0-.4-.1-.5-.1-.3-.3-.3-.3-.4-.9 0-.1.1-.2.2-.3.5-.3 1-.1 1.1.5.1.3.2.5 0 .7zM13.5 71.9H13c-.3 0-.5-.1-.6-.4 0-.1 0-.2-.1-.3.1-.1.2-.3.4-.4.2-.2.4-.2.6-.2.1 0 .3.1.3.2.1.3.1.6 0 .8 0 .2 0 .3-.1.3zM15.6 82.9c.1-.2.2-.5.4-.6.3-.2.6 0 .9.2.3.2.2.7-.1.8-.2.1-.4.1-.5.2-.2 0-.3-.1-.4-.2-.1-.1-.2-.2-.3-.4zM14.8 86.4c-.1.2-.2.3-.3.4-.2.2-.4.3-.7.3-.3 0-.5-.1-.6-.4 0-.2 0-.4.1-.6.2-.2.5-.1.7-.2.2.1.3.1.5.2s.2.2.3.3zM62.9 67c-.2.3-.4.5-.5.8-.2.1-.3.1-.5.1-.4 0-.7-.2-1-.3-.1 0-.2-.1-.2-.2s-.1-.1-.1-.2v-.9c.1-.1.1-.3.2-.4.2-.3.4-.4.7-.5.2-.1.4-.1.7-.1.5-.1.7.3.8.7v.6c0 .1 0 .2-.1.4zM79.1 64.6c.1-.2.1-.4.2-.5.4-.3.9-.4 1.3-.4.2 0 .5.2.5.5v.8c-.1.4-.3.7-.8.7-.1 0-.2 0-.3-.1-.2-.1-.4-.2-.5-.4-.2-.1-.3-.3-.4-.6zM81.1 71.4c.1-.2.3-.4.6-.4s.4.1.6.4c.1.4.1.8.2 1.2-.1.4-.3.7-.6.9-.3 0-.4-.2-.6-.3-.2-.1-.2-.3-.2-.5v-1.3zM82.2 59.4c-.1.1-.1.2-.2.3-.2.3-.5.4-.9.3-.3-.1-.4-.4-.6-.7-.1-.3-.1-.6 0-.8.1-.3.3-.4.6-.5.2 0 .4.1.5.3v.1c.3.4.5.7.6 1zM80.4 75.8c.2 0 .4.1.5.2.2.2.2.4.1.6-.1.3-.4.4-.7.5-.3 0-.4-.2-.6-.3-.1-.1-.1-.3 0-.5.2-.2.4-.4.7-.5zM80.4 70.5c-.3 0-.5-.1-.6-.4-.2-.3-.1-.8.3-.9.2-.1.4 0 .6.1l.2.2v.4c-.1.3-.3.5-.5.6zM35 179c-.3 0-.5.3-.9.3-.1 0-.3-.1-.5-.2-.2-.2-.2-.5-.2-.7.3-.3.6-.6 1-.7h.4c.3.1.4.4.4.6 0 .3-.2.5-.2.7zM37.8 176.2c-.2.2-.2.4-.4.5-.1.1-.3.1-.4 0-.3-.2-.6-.5-.6-.9 0-.2.1-.3.2-.4.1-.1.3-.2.4-.2h.5c.2 0 .3.1.2.4v.2c0 .1.1.2.1.4zM28.3 183.4c.1.1.2.3.3.4.2 0 .4.1.5.1.1.1.2.2.2.3 0 .1-.1.2-.1.2l-.2.2c-.2.2-.4.2-.6.2h-.3c-.2 0-.3-.2-.5-.3-.1-.1-.1-.2-.1-.3.1-.2.3-.3.4-.4.2-.1.2-.4.4-.4z"/>
    <path class="st2" d="M35 179c.2 0 .4-.1.5-.2.3-.1.5 0 .7.3.1.1.1.2.1.4-.1.2-.3.4-.5.6-.2.1-.4 0-.6 0-.2-.1-.3-.2-.3-.4 0-.1.1-.4.1-.7zM31.5 181.1c.2.3.3.5.3.7 0 .3-.2.5-.5.6-.1 0-.2-.1-.3-.1-.3-.1-.4-.4-.5-.7 0-.2.1-.5.4-.5h.6zM66.9 174.8c.1.3 0 .5-.1.7-.2.2-.4.2-.6.1-.2 0-.4-.1-.6-.2-.1.1-.2.1-.2.2-.1.2-.2.3-.3.5-.1.1-.4.1-.5 0-.2-.2-.3-.3-.4-.5 0-.1-.1-.3-.1-.2.3-.3.5-.3.6-.4.3 0 .5.1.8.2.1-.1.2-.3.3-.5l.3-.3c.2-.1.4-.1.5 0 .1.2.2.3.3.4zM71.2 179c0 .5-.3.7-.7.6-.4-.1-.7-.4-.9-.7v-.3c.3-.4 1-.5 1.3-.1 0 0 .1.1.1.2.2.1.2.3.2.3zM69.2 177c-.2.2-.4.4-.5.6-.3.1-.3.1-.6 0-.2-.2-.3-.4-.3-.7v-.1c.1-.3.4-.6.8-.4.2.1.2.1.6.6zM66.5 177c-.2.5-.2.5-.9.6-.2 0-.4-.1-.5-.2-.2-.1-.2-.3-.1-.5s.2-.4.5-.4h.4c.3 0 .5.1.6.5zM59.9 57.4c-.2.3-.3.5-.5.8-.1.1-.2.2-.2.3-.3.2-.5.1-.7.1-.2-.1-.3-.3-.5-.4-.3-.3-.4-.7-.3-1.2.1-.2.2-.4.2-.6.3-.3.7-.4 1-.5.2-.1.4 0 .5.1.2.2.4.4.4.7.1.3.1.5.1.7zM45.4 59.8c-.1-.1 0-.3 0-.5.1-.5.1-.5.6-.8h.1c.4.1.6.3.6.7 0 .4-.2.5-.5.6h-.6c0 .1-.1.1-.2 0z"/>
    <path class="st3" d="M45.4 103.6c.2.1.3.2.4.4 0 .1-.1.3-.2.3s-.2 0-.3-.1c-.2-.1-.3-.3-.1-.5 0 0 .1 0 .2-.1z"/>
    <path class="st2" d="M55.2 38.2H55l-.3.3c-.2.1-.4.1-.6.2l-.6.3h-.3c-.2-.1-.4-.1-.5-.3-.1-.3.1-.6.4-.8.2 0 .4 0 .6-.1.2 0 .4 0 .6-.1.2-.1.4-.2.7-.3.2-.2.4-.4.7-.6.1-.1.2-.3.4-.6.1-.5.2-.9.3-1.4.1-.2.2-.5.2-.7.1-.4.2-.8.2-1.2 0-.5.1-.9.1-1.4.3-.5.3-.5.6-.6.3 0 .6.3.9.3.2-.2.5-.3.8-.5l.1-.1c.2-.3.3-.5.5-.8.1-.1.2-.2.2-.4.1-.4.3-.7.4-1.1.2-.4.3-.8.4-1.2.1-.4.1-.9.1-1.3 0-.2-.1-.3-.4-.7-.1 0-.1-.1-.2-.1-.3 0-.6 0-.9.2-.2.2-.5.3-.7.4-.1 0-.3.1-.4 0-.1 0-.2-.1-.2-.1-.1-.2-.1-.4 0-.6 0-.1.1-.1.2-.2.4-.2.9-.4 1.4-.6h.2c.6 0 1.2.3 1.7.6.2.2.2.4.3.6.1.2.2.4.2.5.1.8-.2 1.5-.3 2.3-.1.2-.2.5-.4.7-.2.3-.1.6-.3.9-.1.2-.2.5-.2.8-.3.4-.5.7-.7 1-.3.2-.6.3-1 .5-.3.2-.6.2-.9.2h-.2c-.1.2 0 .4-.1.5-.1.2-.1.4-.1.6 0 .2-.1.3-.1.5s-.1.4-.1.6c0 .2-.1.4-.1.6l-.3.6c0 .4-.1.8-.2 1.2l-.1.1c-.6.5-1.7 1.4-1.8 1.3zM55.2 24.4c-.1.1-.1.3-.2.3-.4.4-.7.8-1.1 1.2-.3.1-.6.3-.8.4l-.9.3c-.3.1-.6.1-1 .2-.3-.1-.7-.1-1-.2-.6-.2-1.2-.3-1.7-.7-.1-.1-.2-.1-.2-.2-.2-.3-.5-.5-.8-.7-.1-.1-.2-.2-.1-.3 0-.1 0-.3.1-.3.4-.4.8-.9 1.3-1.2.2-.1.5-.3.8-.4.3-.1.5-.2.8-.3h.3c1.4-.1 2.2.1 3.6.8.3.2.7.5.9 1.1zm-6.2.1c.3.5.7.8 1.2.9.1 0 .1 0 .2-.1-.2-.5-.1-1 0-1.5-.1-.1-.1-.1-.2-.1-.4.2-.7.4-1 .7-.1-.1-.1 0-.2.1zm3.5-.7c-.1.3 0 .6-.1.8 0 .2-.1.5-.2.7.1.1.1.2.2.1.4-.1.7-.3 1-.6.1-.1.2-.3.1-.4 0-.1 0-.1-.1-.2-.3-.3-.3-.3-.9-.4zM36.6 25.7v-1c.3-.3.6-.6 1-.8.2-.1.4-.3.6-.4.5-.3.9-.5 1.5-.5.1 0 .2-.1.4-.1s.5-.1.7 0c.2.1.4.1.5.1.5.3.8.8 1.3.9.1.3.2.5.3.7 0 .5-.3.8-.6 1.1-.2.2-.5.4-.8.6-.4.1-.9.3-1.5.5-.8.2-1.6.2-2.3-.2-.1 0-.2-.1-.3-.1-.3-.2-.6-.4-.8-.8zm2.1-1.2c-.3.1-.5.3-.7.5-.1.3 0 .4.2.6.2 0 .5.1.7.1l.1-.1v-1c-.1 0-.2-.1-.3-.1zm2.1.3c0 .1 0 .2-.1.2 0 .1-.1.2 0 .3 0 .1.2.1.3 0 .1-.1.3-.2.4-.2.2-.1.2-.4 0-.5-.2-.2-.5-.3-.7-.5-.1 0-.1.1-.2.1v.3c.3.1.3.2.3.3zM34.1 25.1v1c.1.5.1 1.1.1 1.6 0 .4 0 .7.1 1.1.1.2.1.3.1.5.1.6.2 1.3.4 1.9.1.2.1.4.2.5.1.2.1.4.2.6.1.1.2.3.3.5.2.2.3.5.5.7.1.3.2.5.5.7.1.1.2.2.2.3.1.4.4.6.6 1l.3.3c.5.3.9.8 1.4 1 .3.1.3.5.1.8-.2.2-.3.3-.6.2-.3 0-.6-.2-.8-.5-.1-.1-.2-.3-.3-.4-.4-.3-.8-.7-1.1-.9-.8-1-1.3-2-1.9-3.1-.4-.9-.9-1.8-1-2.8 0-.3-.1-.6-.2-.9-.2-.6-.2-1.3-.3-1.9v-.4c0-.4 0-.9-.2-1.3-.1-.4.1-.8.5-.9.1-.1.3-.1.4 0 .2.2.3.2.5.4zM35.5 21.1c.4-.1.7-.3 1-.5.2-.2.5-.3.8-.5.2-.1.5-.3.8-.3h.3c.4-.2.8-.1 1.2-.1.8.2 1.7.3 2.4.6.2 0 .3-.1.5-.1.3.2.5.4.6.7.1.3.1.6 0 .9-.1.1-.2.2-.4.2-.1 0-.2 0-.3.1h-.2c-.2-.1-.3-.2-.5-.3-.7-.4-1.4-.6-2.1-.7h-.2c-.3-.1-.6-.2-.9-.1-.5.2-1 .3-1.4.8l-.4.4c-.3.3-.6.3-.9.3-.3-.1-.6-.3-.7-.6v-.2c.1-.2.3-.4.4-.6zM55 22.2c-.6-.1-.9-.5-1.3-.9-.2-.1-.5-.2-.7-.2-.4-.1-.7-.2-1.1-.2-.2 0-.4-.1-.7-.1-.7.1-1.2.5-1.8 1h-.7c-.1.1-.3.1-.5.2-.4 0-.6-.2-.8-.6 0-.2.1-.3.2-.5.7-.4 1.3-.8 2.1-1.1.8-.3 1.6-.4 2.5-.3 1 .1 1.9.5 2.6 1.1.2.2.4.4.6.7.1.3.1.5-.1.7-.2.2-.3.2-.3.2zM41.1 40.3c.1-.1.1-.2.2-.4.3-.1.6-.2.8-.3H42.4c.1.1.3.2.5.3.2.1.5.2.8.2.3.1.7.1 1.1.1.4 0 .8 0 1.2-.1.7-.2 1.4-.6 2-1.1.2-.2.4-.3.6-.5.3-.3.6-.3 1-.1 0 .1.1.2.1.2 0 .3-.1.5-.2.8-.4.4-1 .7-1.5 1-.6.4-1.3.6-2 1-.6 0-1.1.1-1.7.1h-.6c-.6-.1-1.2-.3-1.9-.5-.2-.1-.4-.2-.6-.4-.1 0-.1-.1-.1-.3zM48.8 34.1c-.6.3-1 .5-1.5.8-.4.2-.9.4-1.4.6-.3.1-.7.2-1 .2h-.7c-.7-.1-1.3-.3-1.9-.8 0-.1-.1-.2-.1-.4 0-.3.3-.6.6-.7h.3c.1 0 .2.1.3.2.2.1.3.2.5.4.2 0 .4.1.6.2h.5c.7-.1 1.4-.3 2.1-.6.1-.1.2-.2.4-.3.4-.3.7-.6 1.2-.8.1 0 .3 0 .3.1.1.1.2.3.3.4-.2.2-.5.4-.5.7zM44.3 28.4c-.1.4-.1.7-.2 1 0 .1 0 .2.1.3.2.2.4.2.6.2h.8c.1 0 .3.2.3.3v.4c0 .2-.2.3-.4.4-.4.1-.7.1-1.1 0-.5-.1-1-.3-1.5-.7 0 0-.1-.2-.2-.3 0-.4.2-.8.3-1.1.1-.4.2-.7.3-1.2.2-.4.5-.7.5-1.2 0-.2.2-.3.3-.3h.4c.2 0 .4.1.4.3 0 .1 0 .2.1.3-.1.3-.3.5-.4.8 0 .2-.1.5-.3.8z"/>
    <path class="st2" d="M59.6 27.6c0 .3-.1.6-.1.8v.8c-.1.2-.3.3-.5.4-.2.1-.4 0-.6-.1-.1-.1-.2-.1-.3-.3 0-.1.1-.2.1-.3.1-.1.1-.2.2-.3 0-.2.1-.4.1-.6 0-.2-.1-.5-.1-.7 0-.3 0-.5.4-.5.4.2.7.2.8.8zM32.2 22.3c.1.4.1.4-.2 1.2-.3.2-.5.1-.8 0-.1-.1-.2-.1-.3-.2-.3-.3-.3-.7.1-1 .1-.1.2-.1.2-.2.1-.1.2-.1.4 0 .2 0 .4.1.6.2z"/>
    <path class="st3" d="M34.4 8.9c.3-.3.6-.5.9-.8.5-.3 1.1-.6 1.6-.8l.9-.3c.1.2 0 .5.3.7 0 .2-.1.4-.3.5-.3-.1-.5-.2-.8-.3-.3.1-.6.3-.9.4-.2.1-.3.2-.5.4s-.4.4-.5.6c-.3.3-.5.6-.7.9 0 .4-.4.8-.4 1.2 0 .1-.1.2-.1.3-.2.3-.4.5-.6.8 0 0-.1.1-.2.1-.1.1-.3 0-.3-.1-.1-.4-.1-.8.1-1.1.1-.3.3-.6.4-.9.1-.2.2-.5.4-.6.4-.5.5-.7.7-1zM48.4 4.3h-.6c-.3-.1-.7-.3-1-.3-.5-.1-1-.1-1.4 0-.2.1-.4.1-.7 0-.7-.1-1.4-.1-2.2 0-.2 0-.3 0-.5-.1 0-.1 0-.2.1-.2.2-.1.4-.3.6-.4.3-.2.6-.3 1-.4.2-.1.5-.1.8 0 .2 0 .3.1.5.1.4 0 .7.1 1 .2.3 0 .4-.2.7-.3h.1c.6.3 1.1.6 1.6 1.1l.2.2c-.2 0-.2.1-.2.1zM48 7.6c-.1.3-.4.3-.5.6 0 .1 0 .2.1.3l.9.6c.1.3.2.6 0 .9-.2.1-.4-.1-.6-.1-.2 0-.4-.1-.5-.1-.3-.4-.5-.9-.6-1.3-.1-.2-.2-.2-.4-.2-.3 0-.6 0-.8-.1-.2-.2 0-.5-.1-.7 0-.1-.2-.2-.3-.3L45 7c0-.2.1-.3.2-.4.5.1.9.2 1.3.5.1.1.4.2.5.2.2 0 .3 0 .5-.1.3.1.4.2.5.4zM48.7 1.8c.6.3 1 .7 1.5 1.1.2.1.3.3.4.4.2.2.4.4.8.3.1 0 .1 0 .2.1.3.1.3.4.1.6 0 0-.1.1-.2.1s-.1 0-.2-.1-.3-.3-.5-.4c-.3-.2-.6-.3-.9-.3h-.3c-.6-.8-1.6-1.3-2.4-1.9-.2 0-.4-.1-.5-.1-.1 0-.2-.1-.2-.2.1-.1.2-.1.2-.1.4.1.9.1 1.3.4.3 0 .5.1.7.1zM38.4 11.3c-.3-.1-.5-.2-.7-.5.2-.6.5-1.2.9-1.8.3-.4.7-.7 1-1h.9v.2c-.3.2-.5.5-.8.7-.2.2-.3.4-.4.7 0 .1 0 .1-.1.2-.3.4-.5 1-.6 1.5h-.2zM32.2 15.5c0 .1.1.1.1.2 0 .8.3 1.5.4 2.2 0 .1.1.2.1.3.2.2.2.5.2.7-.1.2-.3.2-.4.3-.1.1-.1.2-.2.3 0 .1 0 .1-.3.3-.1-.2-.1-.4-.1-.7.1-.4.4-.7.4-1.1-.2-.4-.6-.3-.8-.4-.1-.1-.2-.2-.1-.3.2-.6.3-1.2.7-1.8 0 .1 0 .1 0 0zM58.2 12c.3.1.5.3.8.4.2 0 .4-.1.6-.1.2 0 .3.1.4.2.1.2 0 .3-.1.4-.1.1-.2.1-.3.1-.2.1-.3.2-.3.5v.2l-.1.1c-.1 0-.2-.1-.4-.1s-.3.1-.5.1c0-.1-.1-.1-.1-.2V12zM40.4 10.3c0-.4.1-.7.4-.9l.3-.3c.5-.6 1.2-.9 1.9-1.1.2-.1.5 0 .7 0 .3 0 .5.2.7.2v.1c-.3.1-.7.2-1 .2-.2 0-.3.1-.5.1-.5.1-1 .3-1.4.6-.3.3-.5.7-.8.9-.1.2-.2.2-.3.2zM58 14.3c.2.4.2.4.5.6-.1.6-.2 1.2-.6 1.9-.2.3-.5.6-.9.8h-.1c-.1 0-.1-.1 0-.2.2-.3.3-.6.4-1 .1-.2.1-.4.2-.5.1-.3.2-.5.2-.8 0-.2.2-.5.3-.8zM60.8 11.5l-.9-.3H59c-.3.1-.5.2-.8.4-.3-.2-.3-.2-.5-.9H59.1c.5.1 1 .3 1.5.5.1 0 .2.1.3.2.1-.1.1 0-.1.1zM59.6 16c.1.1.2.1.2.1.1.3.3.6.5.8v.1c-.2 0-.3.1-.5.1-.2.1-.2.3-.2.4 0 .1-.1.2-.2.2-.1.1-.3.1-.3-.1 0-.3-.1-.5-.2-.7v-.1c.3-.2.4-.6.7-.8zM39.9 16.3c-.1 0-.2-.1-.3-.2-.1-.2-.2-.3-.2-.5-.1-.4-.1-.9-.2-1.3 0-.5 0-1 .2-1.4 0-.1.1-.2.1-.2.1.1.2.2.2.4 0 .1-.1.3-.1.5-.1.9.1 1.8.3 2.7zM59.7 14.7v-.4c.1-.1.1-.2.2-.1.1 0 .3.1.4.1.3.1.5.4.8.5.1 0 .2.2.3.3.1.3.2.5.3.8v.5l-.1.1c-.1 0-.1 0-.2-.1 0-.1-.1-.2-.1-.3v-.5c0-.2 0-.4-.3-.4-.5-.1-.9-.3-1.3-.5zM38.2 12.8c0 .5 0 .5-.2.8-.4 0-.7-.3-1-.4l-.3-.3c.1-.1.1-.2.2-.2.2-.1.3-.2.5-.2s.3.1.5.2c.1 0 .2 0 .3.1zM38.6 5.4c.2-.5.5-.8.9-1.1.2-.1.3-.3.5-.5 0-.1.1-.1.2-.2s.2-.1.4 0c0 .2-.1.3-.2.4-.3.3-.6.5-.9.8 0 .1.1.2.1.4s-.2.3-.4.4c-.3.1-.4.1-.6-.2 0 .1 0 0 0 0zM59.5 22.7l.3-.3h.9c.2 0 .3.2.3.4 0 .1-.1.1-.1.2-.2 0-.4.1-.6.1-.2.2-.3.4-.5.6-.1 0-.2 0-.2-.1s0-.3.1-.4c-.1-.1-.2-.3-.2-.5zM55.2 11.1c.1.1.2.1.2.2.3.3.5.8.5 1.2.1.4.1.9 0 1.4 0 .1-.1.1-.1.3-.1-.3-.2-.6-.2-.9-.1-.4-.2-.9-.2-1.3 0-.1-.1-.2-.1-.4-.1-.2-.1-.3-.1-.5zM41.3 11.5h.1c.3.1.5.2.8.4v.2c-.2.2-.5.2-.7.3-.2.1-.4.3-.6.4h-.1v-.1c0-.1.1-.3.1-.4 0-.3.2-.6.4-.8zM49.1 6.5c0 .1-.1.1 0 0-.3.1-.6.1-.9.1-.3-.2-.3-.4-.3-.7 0-.2.1-.3.3-.3.2 0 .4 0 .4.2 0 .3.3.5.5.7zM61.7 8.5c0 .1 0 .2-.1.2h-.1c-.4-.3-.6-.7-.7-1.1v-.1c.1 0 .1-.1.2-.1.4.1.6.3.7.7v.4zM40.4 10.3v.2l-.6 1.5c0 .1-.1.1-.2.2 0-.7.2-1.2.6-1.7l.2-.2zM56.5 15.6c.1.4-.1.6-.1.9-.2.2-.4.2-.6.2 0 0-.1 0-.1-.1v-.1c.2-.3.4-.6.8-.9zM53.7 4.8v-.2c.3-.3.6-.4.9-.3h.1v.2c-.2.4-.5.5-1 .3.1.1.1.1 0 0zM42.1 5.2c-.2.3-.4.5-.8.4l-.1-.1v-.1c.2-.2.4-.3.7-.3.1 0 .2.1.2.1zM62.6 7.4c.2 0 .4.1.4.3v1l-.1.1s-.1 0-.1-.1v-.2c0-.3-.1-.7-.2-1.1zM59.4 5.7c.1.2.2.3.2.5 0 0 0 .1-.1.2-.2-.1-.4-.3-.5-.5.2-.2.2-.2.4-.2zM61.8 19.4c-.1.1-.1.3-.2.4-.1.1-.2.1-.2 0-.1-.1-.1-.3.1-.4 0-.1.1-.1.3 0zM34.9 13.9l-.1-.1c0-.2 0-.4.2-.6h.1v.1c0 .2-.1.4-.2.6z"/>
    <path class="st3" d="M55.2 11.1c-.4-.1-.6-.3-.8-.6h.3c.2.2.4.4.5.6zM52.6 5.5c0 .1-.1.2-.2.1-.1 0-.2-.1-.1-.2 0-.1.1-.2.2-.1.1 0 .2.1.1.2zM55.6 15c0 .1 0 .3-.1.4h-.2c-.1-.1-.1-.1 0-.2.2-.1.2-.1.3-.2zM60.4 9.4s-.1.1 0 0l-.1.1c-.1 0-.1-.1-.1-.2 0 0 0-.1.1-.1-.1.1 0 .1.1.2zM36.7 9.9c0-.1 0-.1 0 0 .1-.1.2 0 .2 0 0 .1 0 .1-.1.2h-.1v-.2zM55.9 5c.1-.1.1-.1.2-.1s.1.1.1.1H55.9zM55.3 1.9s-.1 0 0 0h-.1c0-.1 0 0 .1 0zM36.5 11.5s0 .1-.1.1 0-.1.1-.1zM57.1 12.6v.2l-.1.1c0-.2 0-.2.1-.3-.1 0-.1 0 0 0zM54.6 1.9h-.2l-.1-.1c.1.1.1.1.3.1-.1-.1-.1 0 0 0zM62.6 7.4l-.1-.1v-.2l.1.1v.2zM55.6 15V14.7c.1 0 .1 0 0 .1.1.1 0 .2 0 .2zM49 24.5c0-.1.1-.2.1-.2.3-.2.6-.5 1-.7.1 0 .2 0 .2.1 0 .5-.2 1 0 1.5 0 .1-.1.1-.2.1-.4 0-.7-.3-1.1-.8zM52.5 23.8c.6.2.6.2 1 .5 0 .1 0 .1.1.2 0 .2 0 .3-.1.4-.3.2-.6.4-1 .6-.1 0-.2 0-.2-.1 0-.2.1-.4.2-.7 0-.4-.1-.6 0-.9zM38.7 24.5c.1 0 .2.1.2.2v1l-.1.1c-.2 0-.5-.1-.7-.1-.1-.3-.2-.5-.1-.7.2-.2.4-.4.7-.5zM40.8 24.8c0-.1-.1-.2-.1-.3v-.3c.1 0 .1-.1.2-.1.2.2.4.3.7.5.2.1.2.4 0 .5-.1.1-.3.2-.4.2-.1.1-.3.1-.3 0-.1-.1 0-.2 0-.3-.1 0-.1-.1-.1-.2z"/>
    <path class="st2" d="M59.9 24.5zM62.1 22.8c.3-.5.7-1.8.6-4.3-.1-2.7 1.4-4.1 1.6-4.3 0-.3.1-.5.2-.8.1-.3.1-.6.1-1-.2-.8-.4-1.5-.5-2.3.1-.2.1-.4.2-.6V8.1c0-.5-.1-1-.3-1.5-.1-.1-.1-.1-.1-.2-.5-.5-1-1-1.4-1.6-.1-.1-.1-.2-.2-.2-.3-.2-.5-.5-.8-.7-.2-.2-.4-.4-.7-.5-.4-.2-.7-.4-1-.7-.3-.3-.5-.6-.7-1-.2-.2-.5-.4-.7-.5-.5-.2-1-.5-1.5-.7-.2-.1-.5-.1-.7-.1-.3-.1-.7-.2-1-.1h-.4c-1.1.3-2 .9-2.9 1.3-.4-.1-.7-.2-1-.3-.1-.1-.1-.2-.2-.3-.2-.3-.5-.5-.8-.6-.4-.1-.7-.2-1-.3-.7 0-.9-.1-1-.1h-1.6c-.4 0-.7.1-1 .2-.2.1-.5.2-.7.3-.5.1-.9.3-1.3.7-.2.2-.6.3-.9.3-.3 0-.6.1-.9.2-.7.2-1.2.5-1.7 1-.1.1-.2.2-.4.3-.8.6-1.4 1.2-1.8 2.1-.1.1-.1.2-.3.3h-.4c-.4 0-.7.2-1 .3-.3.3-.6.3-.9.5-.2.1-.4.2-.6.4-.4.4-.8.8-1.3 1.2-.6.5-.9 1.2-1 1.9-.1.4-.2.9-.3 1.3-.1.3-.1.5-.1.8v1c-.2.3-.5.6-.7.9-.1.2-.2.3-.3.5-.3.6-.5 1.4-.6 2.1 0 .1 0 .3-.1.4v.5c0 .3-.1.5-.1.8.1.5.1 1.1.4 1.6.1.1.4.2.4.4s0 .5.1.8c.1.2.2.3.3.4.2.3.4.4.7.5.1 0 .2.1.4.1s.4.1.6.2c.1 0 .2 0 .3.1.3-.1.5-.2.7-.5 0-.2-.1-.3-.1-.5l.1-.1c.2 0 .4 0 .6-.1.1-.1.4-.3.3-.6-.1-.1-.2-.3-.3-.5-.1-.4-.1-.9-.2-1.3 0-.1 0-.1.1-.1l.3-.3c-.1-.5-.1-1-.2-1.4V16.1c0-.1.1-.1.1-.1.1 0 .1.1.2.1v.5c.1.3.3.6.4.8.2.1.4.2.6.4.1 0 .3-.1.4-.1.2-.1.2-.2.2-.4 0-.1 0-.3-.1-.4-.1-.1-.2-.3-.2-.4-.1-.6-.1-1.2 0-1.8 0-.2.1-.3.3-.4.5 0 .5 0 .8.2.4.3.7.4 1.2.2 0 .1.1.2.1.3.2.7.6 1.4.9 2l.3.6c0 .1.1.1.1.1h.6c.2-.1.2-.2.2-.3 0-.4-.1-.4-.4-1v-.2c.1.1.2.1.3.2.1.1.2.1.4.1.1-.1.2-.3.3-.4 0 0 .1-.1.1-.2.1-.3-.1-.6-.1-.8 0-.5.3-.9.5-1.3.2-.3.4-.6.8-.7.3-.1.5-.3.8-.5h.4c.2 0 .3-.1.4-.2.1 0 .1-.1.2-.2.1-.3 0-.6 0-.9v-.1l-.5-.5c-.1-.2-.1-.4-.2-.6.1-.1.1-.2.2-.1.3.1.5.3.7.6.3.4.6.6 1.1.9.4-.1.6-.3.8-.6v-.5c0-.1-.1-.2-.2-.3-.1-.1-.3-.1-.5-.2-.2 0-.3-.1-.4-.1-.3-.3-.3-.3-.4-.5h.9c.1 0 .1 0 .2.1.3.2.4.6.8.7h.6c.2.4.5.7 1 .8h.5l.2-.2c0-.2.1-.4.1-.5.3 0 .4.3.8.3.1-.1.4-.1.6-.2.2-.1.2-.2.2-.4s0-.4-.2-.5c-.2-.2-.4-.3-.6-.5l-.6-.9-.1-.1v-.2h.1c.3.1.4.3.6.4.1.1.3.2.5.2.1-.1.3-.2.4-.3.2 0 .3.1.5 0l.3-.6c.1-.2 0-.3-.1-.4-.3-.2-.6-.4-.7-.8-.3-.3-.6-.7-.9-1-.1-.1-.2-.1-.3-.2-.1 0-.3.1-.5.1-.1 0-.2 0-.3-.1-.1-.5-.1-.5-.3-1h.5c.2 0 .4 0 .6-.1.2.7.4.9.7 1.1.2.1.3.3.4.5v.4c0 .1.1.2.3.3.2 0 .4-.1.6-.1.2.3.2.7.3 1 .1.1.3.2.4.2.2 0 .3 0 .5-.1.3-.2.7-.3 1-.4.4-.1.7-.1.9-.2.4-.2.9-.3 1.3-.3.5.1 1 .3 1.5.5l.1.1H56.2c-.3.1-.7.3-1.1.2-.1 0-.2 0-.3.1-.3.2-.6.1-.9.2l-.9.3c-.2.1-.4.2-.5.3 0 0 0 .1-.1.2.1.2.2.3.3.4.2.1.4.1.7 0 .7-.2 1.4-.3 2.2-.4.3.1.5 0 .8-.1h1.1c.2 0 .3 0 .5.1-.1.1-.2.1-.3.1-.3 0-.6.1-.9.2-.2.1-.5.1-.7.2-.4.1-.7.3-1.1.4-.2.1-.3.2-.3.3 0 .1.1.2.1.4 0 .1-.1.2-.1.4v.4l-.1-.1c0-.1-.1-.2-.1-.4-.2-.1-.3-.2-.5-.2-.8.1-.8.1-1 .6h-.2c-.2 0-.3-.2-.2-.3 0-.2.1-.3.1-.5v-.2c-1-.2-1-.2-1.3 0v.7c-.1.1-.2.2-.2.3-.1.3-.4.5-.4.9v.2c.1.2.3.4.6.5.1-.1.3-.1.5-.2s.5-.1.8-.1h1.2c.1 0 .1 0 .2.1.1.2.3.4.5.5 0 .2-.1.2-.3.3-.2-.1-.3-.2-.5-.3-.2 0-.4 0-.5-.1-.2 0-.4-.1-.6-.1-.3.1-.7.1-1 .2-.1.1-.1.2-.2.2 0 .1 0 .1.1.2.1.3.3.5.6.6.2.1.4.1.7.1.4 0 .8.1 1.2.3-.1 1.1-.1 1.1 0 1.8-.1.2-.1.2-.1.4-.2.2-.3.4-.5.6-.2.1-.3.3-.4.5-.1.2 0 .4.2.5.1 0 .2.1.3.1h.9c.3-.2.5-.3.8-.4.2.1.3.2.3.4 0 .1 0 .3-.1.4-.1.2-.2.3-.3.5.1.2.2.3.4.3.3-.1.5-.2.6-.4l.3-.3c.1-.1.1 0 .2 0 0 .1 0 .2.1.3.1.3.2.4.5.4.2 0 .4 0 .6-.1.3-.2.6-.3 1-.3.1 0 .1 0 .2-.1.3.2.6.5 1 .5.1.1.3.2.4.3v.2c-.2.1-.3.2-.5.2-.5-.5-.5-.5-1-.6-.3.1-.4.3-.5.6 0 .1.1.2.1.4-.1 0-.1 0-.2.1-.2.1-.3.2-.5.3-.1 0-.1.3-.1.4.1.2.2.3.4.5s.5.3.7.4c.4.1.7 0 1-.2.3-.2.4-.5.6-.7.3-.1.7-.1.9-.1.3.1.4.2.5.4-.1.1-.1.3-.2.4-.3.1-.5 0-.8.1-.2.1-.5.2-.8.3-.1.1-.2.2-.2.3h-.1c-.5-.2-.9-.1-1.3.2l-.2.2.3.6c0 .2-.2.4-.2.7 0 .2.1.4.1.7-.1.1-.2.2-.2.4.1.2.1.4.3.6.3 0 .7-.2.9-.2.2-.1.4-.3.6-.3h.1V25c.4-.5.9-.8 1.4-1 0-.8.2-1 .5-1.2zm.9-15v1l-.1.1s-.1 0-.1-.1v-.2c0-.4-.1-.7-.2-1.1.2 0 .4.1.4.3zm-.5-.6s.1 0 0 0c.1.1.1.2.1.2s-.1 0-.1-.1c-.1 0 0-.1 0-.1zM41.3 5.4c.2-.2.4-.3.7-.3.1 0 .1.1.2.1-.2.3-.4.5-.8.4-.1 0-.1 0-.1-.2-.1.1 0 0 0 0zm-1.8-1.1c.2-.1.3-.3.5-.5 0-.1.1-.1.2-.2s.2-.1.4 0c0 .2-.1.3-.2.4-.3.3-.6.5-.9.8 0 .1.1.2.1.4s-.2.3-.4.4c-.2.1-.3.1-.5-.1v-.1c.1-.5.4-.8.8-1.1zm-6.9 14.9c-.1.1-.1.2-.2.3 0 .1 0 .1-.3.3-.1-.2-.1-.4-.1-.7.1-.4.4-.7.4-1.1-.2-.4-.6-.3-.8-.4-.1-.1-.2-.2-.1-.3.1-.6.3-1.2.6-1.7h.1c0 .1.1.1.1.2 0 .8.3 1.5.4 2.2 0 .1.1.2.1.3.2.2.2.5.2.7-.1.1-.3.1-.4.2zm2.3-5.3-.1-.1c0-.2 0-.4.2-.6h.1v.1c0 .2-.1.4-.2.6zm.8-5.3c-.2.2-.4.4-.5.6-.3.3-.5.6-.7.9 0 .4-.4.8-.4 1.2 0 .1-.1.2-.1.3-.2.3-.4.5-.6.8 0 0-.1.1-.2.1-.1.1-.3 0-.3-.1-.1-.4-.1-.8.1-1.1.1-.3.3-.6.4-.9.1-.2.2-.5.4-.6.2-.2.4-.5.5-.8.3-.3.6-.5.9-.8.5-.3 1.1-.6 1.6-.8l.9-.3c.1.2 0 .5.3.7 0 .2-.1.4-.3.5-.2-.2-.4-.3-.7-.4-.3.1-.6.3-.9.4-.1.1-.3.2-.4.3zm.7 3.1c-.1-.1-.1-.1 0-.2l.1.1-.1.1zm.4-1.9c.1 0 .1 0 .1.1s0 .1-.1.2h-.1c0-.1 0-.2.1-.3-.1 0-.1 0 0 0zm1.2 3.8c-.4 0-.7-.3-1-.4l-.3-.3c.1-.1.1-.2.2-.2.2-.1.3-.2.5-.2s.3.1.5.2c.1.1.3.1.4.2 0 .4 0 .4-.3.7zm.6-2.4c-.1 0-.2.1-.2.1-.3-.1-.5-.2-.7-.5.2-.6.5-1.2.9-1.8.3-.4.7-.7 1-1h.9v.2c-.3.2-.5.5-.8.7-.2.2-.3.4-.4.7 0 .1 0 .1-.1.2-.3.4-.4.9-.6 1.4zm1 5c-.1-.2-.2-.3-.2-.5-.1-.4-.1-.9-.2-1.3 0-.5 0-1 .2-1.4 0-.1.1-.2.1-.2.1.1.2.2.2.4 0 .1-.1.3-.1.5 0 .9.2 1.9.4 2.8-.3-.2-.4-.3-.4-.3zm.2-4.2c0 .1-.1.1-.2.2 0-.7.2-1.2.6-1.7.1 0 .2-.1.3-.2v.2c-.3.6-.5 1-.7 1.5zm2.3 0c-.2.2-.5.2-.7.3-.2.1-.4.3-.6.4h-.1v-.1c0-.1.1-.3.1-.4.1-.3.3-.6.5-.8h.1c.3.1.5.2.8.4-.1.1-.1.1-.1.2zm2.3-3.6c-.3.1-.7.2-1 .2-.2 0-.3.1-.5.1-.5.1-1 .3-1.4.6-.3.3-.5.7-.8.9-.1.1-.1.1-.2.1 0-.4.1-.7.4-.9l.3-.3c.5-.6 1.2-.9 1.9-1.1.2-.1.5 0 .7 0 .3 0 .5.2.7.2-.1.1-.1.2-.1.2zm.3-4.4c-.7-.1-1.4-.1-2.2 0-.2 0-.3 0-.5-.1 0-.1 0-.2.1-.2.2-.1.4-.3.6-.4.3-.2.6-.3 1-.4.2-.1.5-.1.8 0 .2 0 .3.1.5.1.4 0 .7.1 1 .2.3 0 .4-.2.7-.3h.1c.6.3 1.1.6 1.6 1.1l.2.2v.2c-.2 0-.4 0-.5-.1-.3-.1-.7-.3-1-.3-.5-.1-1-.1-1.4 0-.5.1-.7.1-1 0zm3.8 6.1c-.2.1-.4-.1-.6-.1-.2 0-.4-.1-.5-.1-.3-.4-.5-.9-.6-1.3-.1-.2-.2-.2-.4-.2-.3 0-.6 0-.8-.1-.2-.2 0-.5-.1-.7 0-.1-.2-.2-.3-.3l-.2-.2c0-.2.1-.3.2-.4.5.1.9.2 1.3.5.1.1.4.2.5.2.2 0 .3 0 .5-.1.2 0 .3.1.4.3-.1.3-.4.3-.5.6 0 .1 0 .2.1.3l.9.6c.2.4.4.7.1 1zm0-4.3c.1.3.4.5.5.8 0 0 0 .1-.1.1-.3.1-.6.1-.9 0-.3-.2-.3-.4-.3-.7 0-.2.1-.3.3-.3.3-.1.5-.1.5.1zm3.2-1.5s-.1.1-.2.1-.1 0-.2-.1-.3-.3-.5-.4c-.3-.2-.6-.3-.9-.3h-.3c-.6-.8-1.6-1.3-2.4-1.9-.2 0-.4-.1-.5-.1-.1 0-.2-.1-.2-.2.1-.1.2-.1.2-.1.4.1.9.1 1.3.4.2.1.4.1.6.2.6.3 1 .7 1.5 1.1.2.1.3.3.4.4.2.2.4.4.8.3.1 0 .1 0 .2.1.3 0 .4.3.2.5zm.9 1.2c0 .1-.1.2-.2.1-.1 0-.2-.1-.1-.2 0-.1.1-.2.2-.1.1 0 .2.1.1.2zm1.9-3.7s0 .1 0 0c0 .1 0 .1-.1.1l-.1-.1c.1.1.1.1.2 0zm.3 2.8c-.3.3-.6.4-.9.3 0 0-.1 0-.1-.1v-.2c.3-.3.6-.4.9-.3h.1v.3zm.4-2.7c-.1 0-.1 0 0 0 0-.1 0 0 0 0 .1 0 .1 0 0 0 .1 0 0 0 0 0zm1 3.1s0 .1 0 0h-.3c.1-.1.1-.1.2-.1s.1.1.1.1zm-1.1 6.1c-.3-.1-.5-.3-.7-.5h.2c.3.1.5.3.5.5.1 0 .1 0 0 0zm.2.5c-.1-.1-.1-.3 0-.4.1.1.2.1.2.2.3.3.5.8.5 1.2.1.4.1.9 0 1.4 0 .1-.1.1-.1.3-.1-.3-.2-.6-.2-.9-.1-.4-.2-.9-.2-1.3-.1-.3-.2-.4-.2-.5zm.1 3.8c-.1-.1-.1-.1 0-.2s.1-.1.2-.1c0 .1 0 .3-.1.4 0-.1-.1-.1-.1-.1zm.2-.4v-.2c.1 0 .1 0 0 .2.1-.1.1-.1 0 0zm.8 1.5c-.2.2-.4.2-.6.2 0 0-.1 0-.1-.1v-.1c.2-.4.4-.7.8-1 0 .5-.1.8-.1 1zm4.6 6.3c0 .1-.1.1-.1.2-.2 0-.4.1-.6.1-.2.2-.3.4-.5.6-.1 0-.2 0-.2-.1s0-.3.1-.4c-.1-.2-.1-.4-.2-.6l.3-.3h.9c.2.1.3.3.3.5zm-.2-15.3c.1 0 .1-.1.2-.1.4.1.6.3.7.7v.3c0 .1 0 .2-.1.2h-.1c-.4-.2-.6-.5-.7-1.1 0 .1 0 .1 0 0zm-.7 1.8s.1-.1 0 0h.2v.2h-.1s-.1-.1-.1-.2zm-.7-3.6c.1.2.2.3.2.5 0 0 0 .1-.1.2-.2-.1-.4-.3-.5-.5.2-.2.2-.2.4-.2zm-1.5 4.9h1.3c.5.1 1 .3 1.5.5.1 0 .2.1.3.2.1.1.1.1-.1.2l-.9-.3h-.9c-.3.1-.5.2-.8.4-.3-.3-.3-.3-.4-1-.1 0-.1 0 0 0zm-.8 2v.2l-.1.1c0-.2 0-.2.1-.3-.1 0-.1 0 0 0zm.8 4.2c-.2.3-.5.6-.9.8h-.1c-.1 0-.1-.1 0-.2.2-.3.3-.6.4-1 .1-.2.1-.4.2-.5.1-.3.2-.5.2-.8 0-.3.2-.5.3-.8.2.4.2.4.5.6-.1.7-.3 1.3-.6 1.9zm.4-3c0-.1-.1-.1-.1-.2 0-.6 0-1.1.1-1.7.3.1.5.3.8.4.2 0 .4-.1.6-.1.2 0 .3.1.4.2.1.2 0 .3-.1.4-.1.1-.2.1-.3.1-.2.1-.3.2-.3.5v.2l-.1.1c-.1 0-.2-.1-.4-.1-.3.2-.5.2-.6.2zm2.1 3.2c-.2 0-.3.1-.5.1-.2.1-.2.3-.2.4 0 .1-.1.2-.2.2-.1.1-.3.1-.3-.1 0-.3-.1-.5-.2-.7v-.1c.2-.3.4-.6.7-.9.1.1.2.1.2.1.1.3.3.6.5.8v.2zm.6-1.8c-.4-.1-.8-.3-1.3-.5v-.4c.1-.1.1-.2.2-.1.1 0 .3.1.4.1.3.1.5.4.8.5.1 0 .2.2.3.3.1.3.2.5.3.8v.5l-.1.1c-.1 0-.1 0-.2-.1 0-.1-.1-.2-.1-.3v-.5c0-.2-.1-.3-.3-.4zm.6 4.5c-.1.1-.2.1-.2 0-.1-.1-.1-.3.1-.4.1 0 .2 0 .4.1-.2.1-.3.2-.3.3z"/>
    <path class="st3" d="m56.8 39.7-1.5-.6c-.1 0-.2-.1-.2-.1l.4-.6s2.1.9 2.5 1.1c.3.1.1.5 0 .8-.5-.4-.8-.6-1.2-.6zM48.6 45.8s.1 0 .1.1c.3.3.6.7.9 1.1l.6.6c.4.4.8.8 1.1 1.3.1.1.2.3.2.4.1.4.2.7.3 1-.1.4-.4.9-.8 1.3 0-.1 0-.2-.1-.4s0-.4 0-.7v-.9c0-.3-.1-.6-.2-.8-.3-.2-.7-.3-.9-.6-.1-.1 0-.3-.2-.4-.2-.1-.5 0-.8 0-.6.2-1.1.4-1.6.4-.2-.2-.4-.4-.7-.6.6-.5 1.5-1.3 2.1-1.8zM43.9 46.3c.5.4.8.9.8 1.2h-.1c-.3.1-.5.2-.8.4h-.1c-.3-.1-.5-.1-.8-.2-.3 0-.6-.1-.9-.1h-1.3c-.1 0-.3 0-.4-.1-.2 0-.3-.3-.3-.5.2-.6.2-1.2.2-1.8 0-.3-.1-.6-.1-1 0-.1.1-.3.1-.4v-.5c.3.2.6.4.9.5.8.4 1.7 1.7 2.8 2.5z"/>
    <path class="st2" d="M94.6 110.6c-.1-.9-.1-1.7-.1-2.6 0-.7 0-1.3-.2-1.9-.2-.7-.4-1.4-.6-2.2-.3-.8-.6-1.7-1-2.4s-.8-1.5-1.4-2.1c-.4-.7-.9-1.2-1.3-1.8-.6-.7-1.1-1.3-1.8-1.9-.2-.1-.3-.3-.5-.5-.5-.5-1.1-1-1.7-1.3l-1.5-.9c-.4-.2-.8-.4-1.2-.4-.2 0-.3-.1-.5-.1-.3 0-.6-.1-1 0-.7 0-1.4.1-2 .1h-.7c-.8-.4-1.5-.9-2.2-1.3-.3 0-.7-.1-1-.1-.5.3-1 .5-1.6.6h-.4c-.1.1-.3.2-.4.2h-.3c-.2-.1-.3-.2-.4-.3 0 0-.8-1.1-2.1-1.6 1.4 0 2.8.2 3.2.2h1.3c.3 0 .5 0 .8-.1.2-.1.5-.2.7-.3.1-.1.2-.1.3-.2.4-.3.8-.7 1.2-1 .1-.1.2-.2.3-.2h.5c.3 0 .5 0 .8-.1.5-.2 1-.4 1.5-.8.2-.2.5-.3.7-.5.2-.2.4-.3.6-.5.2-.3.5-.5.7-.8.3-.4.7-.8 1-1.2.4-.6.8-1.3 1.1-1.9.1-.5.1-1 .2-1.6v-.3c.3-1.1.3-1.7.3-2.8 0-.8.1-1.6.1-2.3v-.2c.2-.4.2-.8.1-1.1 0-.6.1-1.3 0-1.9.2-.7.1-1.4.1-2 0-.3 0-.5.1-.8.1-.4.1-.8.1-1.3 0-1.4.1-2.7.1-4.1v-5.7c0-.7-.1-1.5-.2-2.2-.2-1.1-.4-2.2-.8-3.2-.1-.3-.2-.6-.3-.8-.2-.4-.4-.9-.5-1.3-.1-.3-.3-.7-.5-1-.3-.2-.6-.3-.9-.5-.4-.2-.7-.4-1.1-.6-1.2-.6-1.2-.6-2.4-.8-.3-.2-.5-.4-.7-.6l-.5-.5c-.4-.2-.7-.5-.9-.7-.4-.1-.6-.2-.9-.3-.1 0-.2-.1-.2-.3 0-.3.3-.4.3-.7-.2-.9-.2-.9-.6-1.5-.2-.1-.4-.1-.6-.2-.6-.1-1.2-.3-1.8-.5l-.9-.3c-1-.4-1.9-.7-2.9-1.1-.8-.3-1.6-.6-2.5-.8-.4-.1-.9-.2-1.3-.4-.6-.2-1-.5-1.4-1-.4-.4-.8-.9-1.2-1.1-.6-.3-1.2-.4-1.7-.3-.6 0-1.3 0-1.9.1h-.3c-.3-.1-.5-.3-.9-.3-.2.1-.4.3-.6.5-.8-.3-1.9-.6-2.3-.7-.3-.1-.9.4-1.3.9 0 0-.1 0-.1-.1-.4-.2-.7-.3-1-.5-.8 0-1.5.2-2.2.7 0 0-.1.1-.1.2 0 .3 0 .5.1.7.1.2.2.2.4.3h.2c.4-.2.7-.6 1.2-.7.1 0 .3.1.5.2.1 0 .2.1.3.2.4.3.9.6 1.4.8.1 0 .1 0 .2.1.2 0 .3 0 .4.1.2.2.4.3.6.4.2.1.4.2.6.2.6.7 1.1 1.5 1.6 2.2.2.7.6 1.4.9 2.2.2.5.4 1.1.8 1.5 0 0 .1.1.1.2.2.3.2.7.1 1-.2.4-.4.8-.8 1.1-.2.2-.4.3-.5.4-.3.3-.7.5-1.1.7-.3.1-.5.3-.8.4-.4.2-.7.3-1.1.5-.1.1-.2.1-.4.1-.3 0-.6.1-.9.2-.4.1-.7.1-1.1.2h-.2l-.2-.2c-.1-.1-.1-.3-.2-.5-.3-.9-.6-1.7-1-2.5-.3-.5-.6-1-1-1.4-.5-.5-1-1-1.4-1.6-.1-.1-.2-.2-.2-.3-.1-.2-.3-.4-.6-.5-.1-.1-.3-.2-.4-.2h-.5c-.6 0-1.2-.1-1.8-.2-.1 0-.1 0-.2-.1V44c.1-.1.2-.1.3-.1.2 0 .4.1.5.1.3-.1.5-.1.6-.3.1-.4.3-.6.6-.6.4 0 .9-.1 1.3-.2.6.1 1.2.2 1.7.3.8.4 1.3 1 2 1.3h.2c.2 0 .3-.1.4-.2 0-.1.1-.2.1-.3.1-.2 0-.5-.2-.6l-1.5-.9c-1.1-.6-2.3-1-3.5-.8h-.5c-.1 0-.1-.1-.1-.2.5-.3 1-.4 1.5-.5h.4c.4.1.9.2 1.3.3l.9.3c.5.1 1 .4 1.3.8.3.3.5.6.9.8.3.2.5.3.6.6.1.1.2.2.3.2.4.2.7.1.8-.4v-.2c0-.1-.1-.2-.1-.4-.2-.2-.4-.4-.7-.6-.5-.3-.9-.7-1.3-1.2-.1-.2-.3-.3-.5-.4-.2-.1-.5-.2-.7-.3-.8-.2-1.6-.5-2.4-.7-.7-.2-1.3-.3-2 .1-.1.1-.3.1-.5.1-.2.1-.5.2-.7.3-.2.3-.4.5-.6.7 0 0 0 .1-.1.2 0 .2.2.3.1.5-.5 0-.8.3-1 .8-.2.1-.5.2-.7.3-.2.2-.5.4-.6.5-.2.3-.2.6-.1.9.1.3.3.5.6.6l.9.3c.3 0 .6.1.9.1-.9.7-2 1.9-2 1.9.6-1.6-5.6-5.6-5.6-5.6 0-.2-.1-.3-.1-.5-.1-.2-.1-.3-.1-.5v-.4s-.1-.1 0-.2c.1-.2.2-.4.4-.5.2-.3-.3-1.9-.3-1.9h-.3c-.3 0-.6-.1-.9-.1-.4.4-1 .3-1.5.7-.2.3-.5.5-.9.5h-.8c-.2 0-.4 0-.7.1-.5.3-1 .4-1.5.7-.1.1-.2.1-.3.1-.4.1-.8.3-1.2.4-.4.1-.8.2-1.2.5-.1.1-.2.1-.3.1-.5.1-1 .3-1.5.4l-.9.3c-.6.4-1.3.8-1.9 1.1-.1.1-.3.2-.4.2-.8.3-1.5.7-2.3 1-.4.1-.8.3-1.2.5-.1.2-.2.4-.3.5-.2.1-.4.1-.5.1h-.2c-.7-.1-1.5-.2-2.2 0-.2 0-.4 0-.6.1-.4.1-.7.1-1 .2-.3.1-.5.2-.6.4-.1.1-.2.3-.3.4-.1.2-.3.4-.6.5-.1.1-.3.2-.4.3-.2.2-.4.4-.6.7-.1.3-.4.5-.4.9 0 .3-.2.6-.3.8 0 0 0 .1-.1.1-.2.2-.4.4-.5.6-.2.2-.3.5-.5.7-.1.2-.2.5-.3.7-.1.3-.3.6-.5.9l-.3.6-.3.9c0 .2-.1.4-.1.6-.3 1-.7 2-1 2.9.6 1.1.2 2.1.1 3.1-.1.6-.3 1.1-.5 1.7-.2.4-.3.8-.5 1.3-.1.4-.3.8-.3 1.2 0 .1 0 .3-.1.4-.2.5-.2 1.1-.5 1.7v.2c-.1.8-.4 1.6-.4 2.4v.3c-.2.5-.1 1-.1 1.4V72c0 1.2-.1 2.5-.1 3.7 0 .6 0 1.3.2 1.9.1.7.2 1.4.2 2.1 0 .9-.2 1.8-.2 2.7-.2.8 0 1.6.1 2.4 0 .3.2.6.4.9.1.2.3.2.5.2s.3-.1.5-.2.3.1.3.2v.7c-.2.6-.2 1.4-.4 2.2.1.6.1 1.2.3 1.7v.3c0 .7.2 1.4.4 2.1.1.3.2.6.3.7.4.5.8.9 1.1 1.2.4.4.8.9 1.1 1.3.2.2.4.5.6.7.3.3.7.5 1.1.8.4.3.8.4 1.3.3h.1c.1 0 .2.1.2.2-.2.3-.4.5-.8.7-.5.3-1 .5-1.4.7h-1.7c-.6 0-1.1.1-1.6.4-.6.3-1.1.5-1.6.8-.6.3-1.2.7-1.8 1.1-.5.6-.9 1.3-1.2 2-.2.5-.5 1-.8 1.4-.2.3-.4.6-.5.9-.1.2-.2.4-.3.5-.2.3-.5.7-.7 1-.3.4-.5.8-.7 1.1L1 110.5c-.2.4-.4.8-.5 1.3-.1.4-.2.9-.2 1.3s-.1.8-.2 1.3v2c-.1 1.3.1 2.6.5 3.8.3.9.5 1.8.9 2.7.1.1.1.3.1.5.1.2.2.5.2.7.1.3.2.5.3.8.2.5.3 1.1.6 1.5 0 .1.1.2.1.3 0 .4.2.7.3 1.1.3.9.5 1.7.7 2.6 0 .4.1.7.2 1 .1.3.2.6.2.8l.3 1.2c.2.9.5 1.7.8 2.6 0 .1 0 .2.1.3.1.7.2 1.4.5 2.1.1.2.1.3.1.5 0 .4.2.8.3 1.1.1.2.1.4.2.6l.9 3.6c.1.3.2.7.3 1 .5 1.5.9 3 1.5 4.4.1.3.2.5.3.8.1.2.2.4.2.6.2.6.4 1.2.6 1.9.2.5.3 1 .6 1.4.4.8.8 1.6 1.3 2.4.2.5.5.9.8 1.4.2.5.5.9.6 1.4.2.5.4 1 .5 1.5.1.5.3 1 .5 1.5.2.7.5 1.4.8 2 .3.7.4 1.4.6 2.1.2.6.3 1.2.4 1.8.1.9.3 1.8.6 2.7.2.5.3 1 .4 1.5.2.9.4 1.7.5 2.6.1.8.4 1.6.6 2.4.1.2.2.3.4.3.4-.1.9-.2 1.3-.3.3-.1.7-.2 1-.4.8-.4 1.7-.7 2.5-1.2.2-.1.4-.2.6-.2 0 0 .1.1.2.1-.1.3-.2.5-.2.8 0 .2 0 .3-.1.5-.2.6-.4 1.2-.7 1.8-.5.4-1.1.4-1.5.7-.6.1-1 .1-1.5.2s-1 .2-1.5.4-1 .4-1.6.5l-1.2.3c-.5.2-1 .3-1.6.5-.2.1-.4.3-.5.4-.4.3-.8.6-1.1 1.1-.1.2-.2.3-.4.4-.3.3-.6.7-.8 1.1-.1.3-.3.6-.4.9-.1.2-.2.5-.3.7-.2.7-.3 1.5-.4 2.2-.1 1.1-.1 2.1.1 3.2.1.4.1.9.2 1.3 0 .3.2.6.4.8.1.1.2.1.2.2.5-.1 1-.2 1.5-.5.6-.3 1.1-.5 1.7-.7.6 0 1.1 0 1.7-.2.2-.1.5 0 .7-.1.7-.2 1.3-.5 1.8-1 .8-.7 1.6-1.3 2.5-1.8.4-.3.9-.5 1.4-.6.4-.1.8-.2 1.2-.4.3-.2.7-.3 1-.3.6 0 1.2-.3 1.8-.4.1 0 .2-.1.3-.1.3-.2.6-.3.9-.4.2-.1.5-.2.7-.3.4-.2.8-.4 1.3-.5.2-.1.4-.1.6-.3.3-.2.6-.2.9-.4.1-.1.1-.1.2 0l.3.3c.2.3.4.4.7.4.4 0 .7.1 1.1.1.1-.1.3-.1.4-.2.3-.2.5-.5.8-.7.3-.3.6-.6 1-.8.2-.1.4-.1.5-.3.4-.3.8-.5 1.3-.6.5-.2.9-.4 1.2-.7.2-.1.3-.3.5-.4 0-.1.1-.2.1-.3.1-.2.2-.5.3-.7.1-.3.1-.6.2-.9 0-.3.1-.5.1-.8v-.6c-.2-.8-.1-1.6-.3-2.3-.1-.5-.1-1.1-.2-1.6-.1-1-.2-1.9-.5-2.9 0-.1-.1-.2-.1-.3 0-.5-.1-1-.2-1.4 0-.1 0-.3.2-.4.5 0 1-.2 1.5-.2.2 0 .3-.2.5-.4.1-.4.1-.9.1-1.3-.1-.5-.1-1.1-.2-1.6v-.5c-.1-.7-.2-1.3-.3-2 0-.2-.1-.4-.1-.7 0-.3-.1-.5-.1-.8 0-.2-.1-.3-.1-.5s-.1-.4-.1-.7c-.2-.9-.5-1.8-.6-2.7-.1-.6-.2-1.2-.4-1.8-.1-.4-.3-.9-.4-1.3-.2-.8-.5-1.7-.7-2.5-.2-.5-.3-.9-.4-1.4-.1-.8-.5-1.5-.5-2.4-.2-.7-.4-1.4-.4-2.1v-.2c-.1-.4-.2-.8-.2-1.1-.1-.5-.3-1.1-.3-1.6-.2-.7-.2-1.5-.5-2.3 0-.1 0-.3-.1-.4-.1-.9-.4-1.7-.3-2.6v-.2c-.1-.6-.1-1.3-.3-1.9v-.4c0-.7-.2-1.5-.2-2.2v-.2c-.2-.7-.3-1.5-.3-2.2 0-.2 0-.4-.1-.6-.1-.3-.1-.6-.1-1 0-.2-.1-.4-.1-.7 0-.2-.1-.4-.1-.6-.1-1-.2-1.9-.5-2.9 0-.2-.1-.3-.1-.5-.1-.5-.2-1.1-.2-1.6l-.3-1.8v-.6c0-.2.1-.4.3-.5h.1c.6-.2 1.2-.4 1.8-.7.1-.1.2-.1.4-.1h.9c.7.1 1.5 0 2.2 0 .5-.1.9-.4 1.4-.6.5-.3 1.1-.6 1.7-.6.7.1 1.4.2 2.1.1.5-.2.9-.5 1.4-.7.8.2 1.6.2 2.4 0 .2.2.4.3.6.5.1.1.3.1.4 0 .2-.3.5-.5.7-.8.1-.1.2-.3.3-.4.1-.1.4-.1.5 0 .2.3.4.5.6.7 0 0 .1 0 .2.1 1.1-.7 2.3-1.2 3.5-1.7.3-.1.7-.1 1.1-.2.2 0 .5.1.7.1.2 0 .4.1.5.2.3.1.6.3 1 .4.4.2.8.3 1.3.3h.5c.9.1 1.7-.1 2.5-.3l1.2-.3c.4-.1.9-.2 1.3-.2.1 0 .1-.1.2-.1.1-.1.3-.3.5-.3 0 .1.1.2.1.2-.1.4-.2.8-.4 1.2-.3.7-.6 1.4-.7 2.1-.1.5-.1 1-.2 1.5-.1 1.6.1 3.2.6 4.7.1.2.1.4.2.6.2.8.4 1.5.4 2.3v.3c.1.3.1.6.1.9 0 .4.1.7.1 1.1.1.5.1 1.1 0 1.6-.1.4-.1.9-.2 1.3-.2.9-.4 1.8-.5 2.7-.1.3-.1.6-.2 1-.1.5 0 1.1-.2 1.6 0 .4 0 .7-.1 1.1v.6c-.2.7-.1 1.3-.2 2v2.5c0 .4 0 .8-.1 1.3 0 .4 0 .8-.1 1.3 0 .4-.1.7-.1 1.1-.1.8-.3 1.5-.3 2.3 0 .1 0 .3-.1.4-.2.9-.4 1.9-.5 2.9 0 .1 0 .2-.1.3-.1.2-.1.4-.1.7 0 .5 0 .9-.2 1.3-.1.9-.2 1.7-.3 2.6-.1.5 0 1.1-.1 1.6 0 .2 0 .3-.1.5-.1.3 0 .6-.1 1-.1.3-.1.7-.1 1.1-.1 1.2-.2 2.3-.2 3.5v1.7c0 .7-.1 1.5-.2 2.2 0 .2-.2.4-.1.6.2.3.4.4.7.3.2 0 .4-.1.5-.1 0 .1.1.1.1.2 0 .2-.1.3-.1.5-.4 1-.8 2.1-1.1 3.1-.1.2-.1.4-.1.7 0 .4 0 .7-.1 1.1-.1.3-.1.6-.1 1 0 .2.1.3.1.5.1.2.2.4.4.5.4.3.8.7 1.2 1 .1 0 .2 0 .3.1.4.1.7 0 1-.2.5-.3 1-.4 1.5-.5.2 0 .4-.1.5-.2.1-.1.2-.1.4-.1.4.1.8.3 1.2.7.2.3.4.7.6 1 .3.1.6.2.8.3.2.1.5.2.7.2.4.1.9.2 1.3.2.2 0 .4.1.6.1.5.1 1.1.3 1.6.3.1 0 .2 0 .3.1.2.1.4.1.7.1.2 0 .4.1.7.1.2.1.5.1.7.2.5.1.9.3 1.4.5.5.2.9.4 1.4.6.5.2 1 .3 1.6.5.4.1.7.2 1.1.3.2 0 .4.1.7.2.6.2 1.2.3 1.8.4.1 0 .3 0 .4.1.6.2 1.2.3 1.8.4.3 0 .6.2.8.2.3 0 .6.1 1 .2.8-.4 1.6-.7 2.4-1.1.4-.6.3-1.3.5-1.9l-.3-.9c-.2-.8-.5-1.5-1-2-.1-.1-.2-.3-.3-.4-.4-.6-.8-1.1-1.5-1.5-.1-.1-.2-.2-.4-.3-.6-.5-1.2-.9-1.9-1.1-.5-.2-1-.3-1.5-.5l-.6-.3c-.7-.4-1.4-.9-1.9-1.4l-.4-.4c-.5-.4-1-.8-1.6-1.1-.1 0-.1-.1-.2-.2.1 0 .1-.1.2-.1.6-.1 1.2 0 1.8-.1h.3c.2 0 .3.1.5.1.7 0 1.4.1 2.1.3.7.2 1.5.2 2.1.5h1.5c.5 0 1 .1 1.5 0l.3-.3c.1-.2.1-.4.1-.5 0-.1.1-.3.1-.4 0-.2.1-.3.2-.5 0-.2.1-.3.1-.5.2-.8.3-1.5.5-2.3.1-.4.2-.8.2-1.1 0-.2.1-.4.1-.6.1-.4.2-.9.2-1.3.1-.5 0-1 .2-1.4v-.3c0-.9.1-1.9.1-2.8 0-.5 0-1 .1-1.5.1-.3 0-.7 0-1.1 0-.4.1-.7.1-1.1 0-.5 0-1 .1-1.5.1-.6 0-1.1.1-1.6V155.1c.2-.6.2-1.3.3-1.9.1-.9 0-1.9.2-2.8v-.8c.1-.3.1-.6.1-1 0-.5.1-.9.1-1.4.1-.9.2-1.7.2-2.6 0-.4.1-.7 0-1.1 0-.2.1-.5.1-.8v-1.5c0-.4 0-.8.1-1.2.1-.5.1-1 .1-1.4 0-.7 0-1.4.1-2.1.1-.5.1-1.1.1-1.6 0-.9 0-1.7.2-2.6v-.8c0-.5 0-.9.1-1.4 0-.2.1-.4.1-.7v-1.9c0-.3 0-.7.1-1 .1-.4.1-.8.1-1.3s0-1.1.2-1.6v-.5c0-.3.1-.6.1-1 0-.3.1-.6.1-1 0-.7 0-1.5.1-2.2v-1.7c0-.7 0-1.5.1-2.2.1-.7.1-1.5.1-2.2 0-.3 0-.5.1-.8.1-.4 0-.9 0-1.4zM57.8 40.1c-.3-.2-.7-.4-1.1-.4l-1.5-.6c-.1 0-.2-.1-.2-.1l.4-.6s2.1.9 2.5 1.1c.3-.1.1.3-.1.6zm.3.1c-.1 0-.1 0 0 0 0-.1.1-.1.2-.2l-.2.2zm18.3 6.9c.8.3 1.6.8 2 1.7.3.2.6.4.8.6.3 0 .6.1.9.2.3.1.5.2.8.3.2.1.3.1.4.2.7.4 1.4.8 2 1.3.2.5.3 1 .6 1.5.2.4.4.9.5 1.4.1.2.1.3.1.5.1.4.2.9.3 1.3.2.6.3 1.3.4 1.9 0 .2.1.4.1.7 0 1.6.1 3.2.1 4.9v1.6c0 .3.1.6.1 1-.2.5-.1 1.1-.1 1.7v1.9c-.1 1-.1 2-.2 3 0 .5 0 1-.1 1.5s0 1-.1 1.5c0 .2 0 .4-.1.7-.1.2-.1.4-.1.7 0 .8-.1 1.7 0 2.5 0 .4-.1.7-.2 1-.1.3-.1.6-.1 1-.1.6-.2 1.2-.6 1.7 0 .1-.1.1-.1.2-.2.6-.6 1-1 1.4-.1.2-.1.3-.1.4 0 .1-.1.1-.1.2-.7.7-1.4 1.2-2.2 1.8-.3.2-.6.3-1 .3h-.7c-.6.2-1.1.5-1.6 1-.4.3-.8.7-1.3.8-.3 0-.6 0-1-.1 0 0-3-.1-4.9-.5-1.8-.4-5-1.1-6.1-1.6-.1-.1-.3-.1-.4-.2-.1-.1-.2-.2-.3-.4-.1-.2-.3-.4-.6-.5-.3-.1-.4-.3-.5-.5-.1-.2-.2-.5-.3-.7-.1-.4-.3-.9-.4-1.3-.1-.3-.3-.6-.3-.9v-.1c-.4-.6-.5-1.3-.7-2-.1-.2-.2-.3-.3-.5-.3-.5-.5-1-.5-1.6 0-.8-.3-1.5-.5-2.3-.1-.5-.4-.9-.7-1.4-.5-.5-.9-1.1-1.1-1.8-.1-.5-.1-.9 0-1.4.1-1.3-.2-2.4-.7-3.6-.2-.5-.4-1.1-.4-1.7v-2.9c0-.1.1-.1.2-.2h.2c.8-.3 1.6-.6 2.2-1.1.5-.4 1-.6 1.5-.9.6-.4 1.3-.8 1.9-1.2.1-.1.3-.2.4-.3.5-.3 1-.6 1.4-1 0 0 .1-.1.2-.1.2-.1.5-.1.6.1.2.4.4.8.5 1.3 0 .1.1.2.1.3.2.6.4 1.2.9 1.7.2.2.3.5.5.7.1.2.2.3.2.5.1.7.5 1.3.7 1.9.1.2.2.5.4.7.2.3.3.6.5.8.3.4.4.9.6 1.4.1.2.2.4.2.6.2.4.3.7.5 1.1.1.2.2.4.3.5.2.3.3.5.5.8.1.2.2.4.4.6.4.5.7 1.1.9 1.7.1.2.1.4.2.7 0 .3 0 .6-.1.8-.1.2.1.5.4.5.2 0 .4.1.7 0 .2-.2.2-.4.4-.7-.1-.2-.1-.4-.2-.6-.3-1-.6-2-1.2-2.8-.3-.5-.6-1.1-.9-1.7-.1-.2-.2-.5-.4-.7-.1-.3-.3-.6-.4-.9-.1-.2-.1-.4 0-.6l.3-.3v-.2c-.2-.5-.2-1-.2-1.4-.1-.7-.2-1.3-.4-2 0-.2-.1-.3-.1-.5V61.3c0-.5-.1-1 .1-1.4 0-.4 0-.7.1-1.1.1-.1.1-.2.2-.4.1-.4.1-.8.2-1.3.3-.3.4-.7.6-1.1.2-.7.5-1.4.7-2.1.1-.3.3-.6.4-1 .5-1.1.9-2.3 1.5-3.4.3-.7.8-1.4 1.2-2.1.2-.2.3-.4.5-.5h.2c0 .2.3.2.7.2zm-16.1-2.5c-.1-.3-.1-.6-.4-1-.1-.1-.2-.3-.2-.4-.1-.4-.2-.7-.4-1-.1-.2-.2-.4-.4-.5-.1-.1-.1-.2-.2-.3.1-.3.2-.6.4-.9.1-.3.2-.5.4-.8.1-.2.4-.3.6-.3.7-.1 1.5-.2 2.2-.2.5.2.9.4 1.2.8l.4.4c.5.4.9.8 1.4 1.3.6.1 1.3.3 2 .4l1.2.3.6.3c.4.2.7.3 1.1.4.7.2 1.4.4 2 .7.4.2.8.3 1.2.4.3.1.6.2.8.3.3.2.7.4 1.1.6-.1.1-.1.2-.1.3-.2.2-.3.4-.5.6-.7.5-1.1 1.2-1.6 2 0 .1-.1.2-.1.3-.4.5-.6 1.1-.8 1.8 0 .1-.1.2-.1.3-.3.3-.4.7-.6 1.1-.1.2-.2.5-.3.7-.1.2-.1.5-.3.7-.1.1-.1.3-.2.4-.1.5-.3 1-.5 1.5-.3.6-.5 1.3-.7 1.9-.2.7-.4 1.4-.7 2.1-.1.4-.3.8-.4 1.2 0 .4 0 .9-.1 1.3v3.4h-.1c-.1-.2-.3-.3-.4-.5 0-.3-.1-.5-.1-.8-.3-.7-.6-1.4-1-1.9-.3-.4-.5-.9-.6-1.4-.2-.6-.4-1.2-.7-1.8-.1-.3-.2-.5-.3-.9.1-.3.2-.6.2-.9 0-.3 0-.6-.1-.9-.1-.1-.1-.3-.1-.4 0-.5-.1-1-.2-1.5 0-.3-.2-.7-.3-1-.1-.5-.3-.9-.3-1.4-.2-.6-.4-1.1-.6-1.6-.1-.3-.3-.6-.6-.9-.3-.3-.7-.5-1-.8-.2-.4-.2-.4-.1-.8-.6-.9-1.3-1.6-1.7-2.6zm-6.2 8.9v-.3l.2-.2c.1-.1.2-.1.4-.1.3 0 .6-.1.9-.2.5-.1.9-.2 1.4-.3.4-.3.9-.6 1.4-.7.2-.2.4-.3.6-.5.6-.3 1.1-.7 1.5-1.2.1-.1.2-.2.4-.3.2-.2.5-.3.8-.5 1 .5 1.3 1.3 1.4 2.4.8 1.7 1.1 3.6.9 5.5-.2.3-.5.6-.7.8-.1.1-.2.2-.3.2l-2.4 1.5c-.4.2-.8.5-1.2.8-.2.1-.4.3-.7.4-.5.2-.8.5-1.2.8-.5.1-.9.2-1.3.4-.4 0-.8-.1-1.1-.2-.4-.2-.6-.5-.9-.8 0-.2 0-.4-.1-.6-.2-.7-.2-1.3-.2-2 0-.3 0-.6-.1-1 0-.2 0-.4-.1-.7 0-.2 0-.5-.1-.7-.2-.7-.1-1.3-.1-2 .3-.1.4-.3.6-.5zm-5.5-7.7s.1 0 .1.1c.3.3.6.7.9 1.1l.6.6c.4.4.8.8 1.1 1.3.1.1.2.3.2.4.1.4.2.7.3 1-.1.4-.4.9-.8 1.3 0-.1 0-.2-.1-.4s0-.4 0-.7v-.9c0-.3-.1-.6-.2-.8-.3-.2-.7-.3-.9-.6-.1-.1 0-.3-.2-.4-.2-.1-.5 0-.8 0-.6.2-1.1.4-1.6.4-.2-.2-.4-.4-.7-.6.6-.5 1.5-1.3 2.1-1.8zm-1.8 5.8c0-.1.1-.3.1-.4 0-.1 0-.2.1-.3 0-.1.1-.2.2-.3.2 0 .3.1.4.3v.1c-.2.2-.3.3-.5.4-.1.3 0 .4.1.6.2.1.4.2.5.1.1 0 .2-.1.3-.2.1-.1.3-.2.4-.3.1-.1.3-.2.4-.3.1-.1.1-.3.2-.4 0-.1.1-.2.1-.4 0-.1 0-.3-.1-.4-.3-.3-.6-.4-1-.4h-1l-.1-.1c0-.1 0-.1.1-.2.4-.2.8-.3 1.3-.4.2-.1.5 0 .6.2.1.1.2.3.4.3.7.2.7.5.7.8v.7c0 .2 0 .4.1.6.1.2.1.4.1.7-.1.5-.1 1-.2 1.5l-.1.1c-.1-.1-.2-.1-.3-.2-.3-.3-.7-.5-1.1-.6-.1-.1-.3-.1-.4-.2-.2-.1-.4-.2-.6-.2-.2 0-.4-.1-.6-.3-.1-.1-.1-.2-.1-.3-.1-.2 0-.3 0-.5zm.2 2c.1 0 .1 0 .2.1.8.4 1.6.8 2.4 1.3 0 0 0 .1.1.1.1.9.2 1.8.1 2.7 0 .9-.2 1.7-.2 2.6-.2.4-.1.8-.2 1.2 0 .4-.1.8-.2 1.1-.2.5-.4 1.1-.7 1.6-.1.1-.2.3-.2.4-.2.4-.4.7-.5 1-.2.3-.3.7-.5 1-.1.2-.2.3-.2.5-.3.9-.7 1.9-1.2 2.8-.1.1-.1.2-.2.4-.5-.4-.3-.9-.6-1.3.1-.2.2-.4.3-.5.1-.7.1-1.3.2-2-.1-.5-.3-1-.6-1.5.1-.2.3-.3.4-.5 0-.1 0-.2-.1-.3-.1-.1-.2-.3-.3-.4-.1-1-.3-2.1-.3-3.1 0-.3 0-.6-.1-.9 0-.3-.1-.6-.1-.9 0-.5 0-1.1.1-1.6.1-.4.1-.8.2-1.2.2 0 .3.2.5.3.6.2.9 0 1-.6v-.2c-.1-.3-.3-.4-.6-.5-.4.1-.5.6-.9.7 0-.1-.1-.2-.1-.3 0-.3-.1-.5-.1-.8-.1-.3-.1-.6 0-.9.1-.4.1-.7 0-1 0-.1 0-.1.1-.3.2-.1.5 0 .7.1.5.5 1 .7 1.6.9zm-.9-4.2c0 .9 0 1.7-.4 2.5-.1.1-.3.1-.4.1-.3 0-.6-.1-.8-.2 0-.1-.1-.1-.1-.2 0-.6-.1-1.2 0-1.8 0-.2.1-.3.2-.4.9-.3 1-.3 1.5 0zM41 60.1c-.3-.6-.3-1.2-.3-1.8-.1-.7 0-1.4 0-2.1 0-.4.1-.8.2-1.1l.9-.6c.2-.2.5-.3.7-.5l.6-.6c0-.1.1-.1.2-.1 0 .1.1.1.1.2 0 .4.1.7.1 1.1 0 .8.1 1.5.1 2.3 0 .3 0 .6-.1 1-.2.6-.2 1.2 0 1.8.1.3.2.7.1 1.1v.1c.2.6.1 1.2.2 1.8.1.8.2 1.7.2 2.6 0 .1-.1.3-.2.5 0 .3.3.4.5.7.2.4.2.8.1 1.3 0 .1-.1.1-.1.2h-.1c-.1-.1-.2-.1-.2-.2-.4-.5-.8-1.1-1.2-1.7-.3-.4-.6-.9-.7-1.5-.3-.5-.4-1.1-.7-1.7-.1-.2-.2-.5-.2-.7-.1-.4-.1-.8-.2-1.1v-.4c.1-.3.1-.4 0-.6zM40.1 47c.2-.6.2-1.2.2-1.8 0-.3-.1-.6-.1-1 0-.1.1-.3.1-.4v-.5c.3.2.6.4.9.5.7.3 1.6 1.6 2.7 2.4.5.4.8.9.8 1.2h-.1c-.3.1-.5.2-.8.4h-.1c-.3-.1-.5-.1-.8-.2-.3 0-.6-.1-.9-.1h-1.3c-.1 0-.3 0-.4-.1-.1 0-.3-.2-.2-.4zm-.8 1.4h1.9c.6 0 1.2.1 1.7.3.1 0 .2.1.3.2V50.3c0 .1-.1.3-.2.3s-.2-.1-.2-.1c0-.2 0-.3.1-.5-.1-.1-.1-.2-.2-.3-.4-.2-.9-.3-1.4-.3-.3 0-.5.2-.6.4-.1.2 0 .5.2.6.2.1.4.1.7.1.1 0 .2.1.2.1 0 .2-.1.3-.2.4-.2.1-.4.2-.6.4-.1.1-.1.2-.1.2v.1c.2.2.4.3.6.5h.2c.1 0 .2-.1.3-.1.3-.1.4 0 .5.3-.2.5-.5.9-.9 1.1-.5.2-1 .6-1.5.8-.1 0-.2.1-.3.1-.1-.1-.2-.1-.2-.2-.2-.2-.3-.5-.5-.7-.4-.6-.5-1.3-.3-2.1 0-.2.1-.4.2-.7.1-.4.1-.8 0-1.2-.1-.2-.1-.4-.2-.7.1-.2.1-.3.2-.5.1 0 .2.1.3.1zm-16.4-3.3c.1 0 .1-.1.2-.1 1.8-.6 2.9-1.3 4-1.9.4-.4 1-.6 1.6-.8.5-.1 1-.3 1.5-.4.2 0 .4-.1.6-.2.4-.2.8-.4 1.3-.5.9-.4 1.7-.8 2.6-1 .6-.1 1.2-.3 1.7-.6.2-.1.4-.2.5-.2.6-.2 1.2-.3 1.8-.3.1 0 .1.1.2.2-.1.2-.2.4-.2.5-.1.2-.2.4-.2.5v.9c0 .1.1.2.1.3 0 .5.3 1 .5 1.4 0 .1 0 .1.1.2v.4c0 .4-.1.7-.2 1.2.2.3.3.8.2 1.2 0 .4 0 .9-.4 1.3-.1 0-.2 0-.3.1-.2 0-.4.2-.5.4-.1.2-.2.3-.2.5 0 .3-.1.6-.1.8.1.3.2.7.3 1 .1.2 0 .4 0 .7-.1.5-.2 1-.3 1.4v.7c.2.7.4 1.3 1 1.9.3.3.6.7.9 1.2V58.3c0 .5.1.9.1 1.4.2.5.4 1.2.4 1.8.1.8.3 1.6.6 2.3.2.4.3.8.5 1.2.1.4.4.8.6 1.2l1.8 2.7c.3.4.6.8.6 1.4 0 .1.1.2.1.4.1.4.1.9.1 1.3-.1.2-.2.4-.3.5v.2c.1.3.1.6 0 1s-.2.7-.3 1.1c-.2.7-.1 1.5.1 2.2l.3.6c.2.4.2.8.2 1.2-.1.5-.1 1.1-.3 1.6-.1.4-.2.8-.2 1.2 0 .7-.1 1.4-.1 2.1 0 .2.1.4.1.7.1.3.5.4.7.2l.3-.3c.1-.1.1-.3.1-.5v-.2c-.2-.4-.2-.9-.2-1.4.1-.3.2-.6.2-1 0-.2 0-.3.1-.5 0-.1.1-.2.1-.3 0-.4.1-.8.2-1.2v-.4c0-.8 0-1.6-.4-2.3-.1-.1-.1-.2-.1-.4 0-.3-.1-.5-.1-.8.1-.5.1-1.1.3-1.6.1-.2.1-.5.2-.7 0-.1.1-.2.1-.3.1-.2.3-.3.5-.5.2-.5.5-1 .7-1.6 0-.1.1-.2.2-.4.3-.6.6-1.3.9-1.9.2-.5.5-1.1.7-1.6.1-.2.2-.5.4-.7.8-1.3 1.4-2.7 1.7-4.3l.6-4.2v-.6c0-.4 0-.8.2-1.2-.1-.3-.2-.5-.2-.8-.1-.3-.1-.6-.1-.8.1-.2.2-.3.3-.5 0-.3.1-.6.1-.9v-.2c.4-.3.8-.8 1-1.3 0-.1.1-.2.1-.3v.1c.1.1.1.3.1.5 0 .4.2.8.3 1.1-.1.3-.2.6-.3.8 0 .4-.1.8 0 1.2 0 .5.1 1 .1 1.5.2.4.1.8.2 1.2v.5c.1.5.1 1.1.1 1.6v.6c.2.5.2 1.1.5 1.6.2.2.3.4.5.5l.6.6.3.6V66c0 1.6-.1 1 .5 2.4.2.4.3.8.4 1.3.1.4.2.9.2 1.3-.1.5-.2 1.1 0 1.6v.2c0 .2 0 .3.1.5l.3.6c.2.2.3.4.4.7.1.3.3.5.5.7.1.1.2.3.3.5.2.4.3.7.4 1.1.1.2.1.4.1.6 0 .6.2 1.1.3 1.7l.3.9c.2.3.3.7.4 1.1.3 1 .7 2 1 3 0 .1 0 .1.1.2.2.4.3.7.5 1.1.3.8.3.8 1.2 1.4 0 .1.1.3.1.4 0 .1.1.2.2.4 0 0 .7.4 1.8.6.8.1 3 .9 4.8 1.3-1.4-.1-2.8-.2-3.3.1l-1.2-.6c-.4-.2-.9-.2-1.3-.3-.6.2-.9.2-1.3.2-.6 0-1.2.1-1.7 0-.4.2-.8.3-1.3.5-.3.2-.7.2-1 .4-.6 0-1.2.3-1.8.4h-.3c-.3-.1-.5-.2-.7-.3h-.2c0-.1.1-.2.1-.3 0-.3-.2-.6-.5-.7h-.8c-.3 0-.6 0-.9-.2-.7-.3-1.5-.5-2.3-.5h-.6c-.3 0-.6 0-.9-.1-.3.1-.7.1-1 .3-.6.2-1.1.3-1.7.2l-.6-.6c-.4-.4-.8-.6-1.4-.6H42.9c-.7-.6-1.3-1.1-1.9-1.7-.6-.3-.6-.3-1.4-.4-.2 0-.3-.1-.5-.1-.2-.1-.4-.2-.5-.2-.7-.3-1.4-.4-2.1-.1-.1 0-.5 0-.9.1-.3.1-.6.2-.9.2-.5.1-.9 0-1.3-.1-.6-.1-1.2-.3-1.7-.8-.3-.2-.5-.4-.8-.5-.5-.2-1.1-.5-1.6-.7-.5-.2-1-.4-1.5-.7-.3-.2-.6-.3-1-.4-.5 0-.9-.1-1.4 0-.1 0-.1 0-.2-.1.1-.2.2-.3.3-.5 0-.3.1-.7 0-1.1V80c.2-.7.1-1.5.1-2.2v-.4c.1-.8.1-1.6 0-2.4v-1.9c-.1-.2-.1-.4-.2-.6.1-.5.1-1 .1-1.5 0-.8 0-1.7.2-2.5 0-.6.1-1.1.2-1.6v-.5c0-.4 0-.8.1-1.3v-.3c0-.7 0-1.4-.1-2.1v-.6c0-.4 0-.7-.1-1.1 0-.5-.1-.9-.1-1.3-.1-1.1-.2-2.3-.2-3.4 0-.9 0-1.7.4-2.6.1-.1.1-.2.1-.4 0-.3.1-.6.1-.9.1-.5.1-1 .1-1.4 0-.4-.1-.7-.2-1.1-.1-.5-.2-1-.5-1.5-.1-.1-.1-.2-.1-.3-.2-.6-.6-1.2-.9-1.7-.3-.4-.7-.7-1.2-.8h-.2c-.2-.1-.3-.2-.5-.3.1.1.2-.1.3-.2zm42.8 50.5c.3.1.5.3.7.5.2.2.4.4.6.5.2.1.5.2.6.5.1.1.2.2.3.2.5.3.9.7 1.4.9l.9.6c.1.1.2.2.1.3-.4.2-.6.2-.9.1-.6-.3-1.2-.5-1.7-.9-.3-.2-.5-.4-.8-.5-.9-.4-1.7-.9-2.6-1.4-.5 0-.9-.4-1.3-.5-.4 0-.7.2-.8.5.1.2.2.3.4.4.4.2.8.4 1.2.7.4.2.7.4 1.1.6.5.2 1.1.5 1.5.8.6.4 1.3.8 1.9 1.1.1.1.3.1.4.3-.1 0-.2.1-.3 0-.4-.1-.8-.3-1.2-.4-.3-.1-.6-.2-.8-.2-.7-.1-1.3-.2-2-.3-.4 0-.8-.1-1.1-.2-.4-.2-.8-.3-1.1-.4-.3-.2-.5-.3-.8-.4-.5-.3-1.1-.4-1.6-.8-.6-.4-1.2-.6-1.9-.7h-.2c-.4-.1-.8-.1-1.2-.1-.5.1-1.1.1-1.7.2 0 0-2.1.3-2.6.3H52c.1-.2.2-.3.2-.3.3-.3.5-.6.5-1s.1-.7.2-1c.1-.4.2-.8.3-1.3.3-.3.3-.8.6-1.2.1-.1.1-.3.1-.5s0-.3.1-.5c0-.1 0-.2.1-.3h.1c.2.1.4.3.5.4h.1c.6-.2 1.3-.5 2-.5h.2c.9-.2 1.9-.5 2.8-.8.2-.1.4-.1.7-.2 1-.1 2.1 0 3.1.3.2.1.5.2.7.2.1 0 .2.1.2.1.2.1.3.2.5.3.1.1.2.1.3.2.2.1.2.4.5.5.2.1.8.6 1 .6.4.3.9.7 1.3 1 .9.9 1.9 1.7 2.9 2.5.2.1.4.3.6.4.3.1.5.3.7.5.3.3.6.6 1 .8.1.1.2.2.3.4v.1s-.1.1-.2.1c-.2.1-.4.1-.6 0-.3 0-.5-.1-.8-.2l-.9-.3c-.2-.1-.3-.2-.5-.2-.5-.2-.8-.6-1.3-.8-.1 0-.2-.1-.3-.2-.3-.3-.6-.6-1-.8-.2-.1-.4-.3-.6-.5-.3-.3-.6-.5-1-.8-.2-.1-.3-.2-.5-.3-.4-.1-.8.1-.9.5v.3c.1.6.4.7.7.8zm-51.1 1.2h-.2l-.9-.6c-.2-.1-.3-.3-.4-.4-.4-.5-.9-1-1.3-1.6-.1-.1-.2-.3-.3-.4-.6-.5-.9-1.1-1-1.8-.1-.6-.2-1.3-.3-1.9 0-.3-.1-.5-.2-.8-.1-.2-.1-.5 0-.8.1-.5.1-1.1.3-1.6.1-.2 0-.4 0-.6V83.7c0-.2-.2-.5-.4-.6h-.2c-.4.1-.7.2-1 .6-.1.1-.2.1-.3.2 0-.1-.1-.2-.1-.3 0-.6 0-1.1.1-1.6 0-.2.1-.3.1-.5 0-.8.1-1.6.1-2.4 0-.6-.1-1.3-.2-1.9-.1-.7-.2-1.3-.2-2v-1.3c.1-.8 0-1.5.1-2.3v-.4c-.1-.4 0-.7 0-1.1 0-.2.1-.5.1-.7 0-.6.1-1.2.2-1.8 0-.1 0-.2.1-.3.2-.6.3-1.2.5-1.8.1-.2.1-.4.1-.7 0-.2.1-.4.1-.6.3-1.3.8-2.4 1.3-3.7.1-.3.2-.5.2-.8.1-.7.3-1.5.6-2.1.2-.4.4-.9.5-1.4 0-.2.1-.3.2-.4.2-.5.4-1 .5-1.6.1-.5.2-.9.5-1.3.1-.1.2-.3.2-.4.2-.6.5-1.2.9-1.8.4-.3.9-.6 1-1.2v-.6c0-.3.1-.6.2-.9l.3-.3s.1-.1.2-.1c.5-.3.9-.7 1.3-1.2.2-.3.5-.4.8-.5.4 0 .8-.1 1.3-.2.5 0 1-.1 1.5.1.3.1.6.1.9.1.2.1.5.2.8.3.2.1.4.1.5.2.5.3.9.6 1.1 1.2l.3.6c.2.4.4.8.6 1.1.1.5.2.9.3 1.4.1.6 0 1.2-.1 1.7-.2.7-.3 1.3-.5 2-.2.9-.2 1.7-.1 2.6 0 .6.1 1.2.2 1.7 0 .4.1.8.2 1.2.1.7.1 1.5.2 2.2v2.8c-.3 1.1-.3 1.7-.4 2.4-.1.5-.1 1-.2 1.4-.1.6-.1 1.2-.2 1.7 0 .3 0 .6-.1 1 .1.5.1 1.1.1 1.6V77.8c.1.8 0 1.7-.1 2.5 0 .2 0 .4-.1.6v.5c.1.2.2.3.2.5v.1c-.1.1-.2.1-.4 0h-.3c-.3.1-.5.3-.7.5v.2c0 .1.1.2.1.3.3.2.6.3.9.2.2 0 .3-.1.5-.1h.7c.3.1.6.1 1 .1.5 0 1 .1 1.4.4.3.3.7.4 1.1.5.1 0 .3 0 .4.1.8.4 1.6.7 2.3 1.2.1.1.2.1.3.2.6.2 1.2.4 1.9.6h.8c.9-.3 1.7-.5 2.5-.7.1 0 .3.1.4.1.3.1.5.3.8.4.7.1 1.3.2 1.9.2.1.1.3.1.4.2.6.3 1 .8 1.3 1.4.1.2.2.5.5.7.4 0 .7 0 1.1.1.2-.1.5-.1.7-.2.2-.1.4 0 .6.2.1.1.2.1.2.2.3.4.7.6 1.1.7.1 0 .1 0 .2.1h1c.5-.3 1.2-.3 1.8-.5h1c.6 0 1.2.1 1.7.3.4.1.7.3 1.1.3.1 0 .2.1.3.3 0 .1 0 .2-.1.3-.1.3-.3.6-.3.9 0 .1-.1.3-.1.4-.2.3-.3.6-.4 1-.2.5-.3 1.1-.5 1.6-.1.3-.1.6-.2.9-.1.3-.1.6-.2.9-.3.5-.7.9-1.2 1.3-.6.5-1.3.9-2 1-.3 0-.6.1-.9.2-.7-.1-1.4.1-2.1.3-.4.1-.7.1-1.1.1h-.5c-.8.1-1.6 0-2.4-.2-.2-.1-.4-.3-.4-.5L41 97c-.1-.4 0-.8.1-1.2 0-.3.1-.5.1-.8.2-.9.3-1.8.7-2.6.1-.3.2-.6.2-.9.1-.2.3-.5.5-.7.1-.2.1-.4 0-.6-.2-.4-.3-.5-.7-.5-.1 0-.1 0-.2.1-.1.2-.3.3-.4.5 0 .2.1.3.1.5v.2c-.3.7-.6 1.3-.8 2 0 .1-.1.2-.1.4 0 .1 0 .3-.1.4-.2.7-.3 1.4-.3 2.1 0 .4-.1.7-.1 1.1-.1.4-.2.7-.2 1.1 0 .2-.1.4-.2.5-.1.1-.2.2-.3.2h-.1c-.7-.3-1.5-.2-2.2-.1-.4 0-.7.1-1.1.1-.4 0-.7 0-1.1-.1-.2 0-.3-.1-.5-.1-.8 0-1.5-.2-2.3-.4-.8-.2-1.6-.4-2.4-.7-.2 0-.3-.1-.5-.1s-.3 0-.5-.1c-.8-.2-1.6-.2-2.4-.1-.5 0-1 .1-1.7.1-.9-.2-1.9-.5-2.9-.9-.4-.1-.8 0-1.2 0-.5.1-1.1.1-1.6.1-.4 0-.8.1-1.3.1h-.2c-.7.2-1.7.2-2.7.2zm0 86.2c.8-.4 1.5-.8 2.4-.9h.1c.7-.3 1.4-.4 2.1-.6.8-.3 1.6-.5 2.4-.6.2 0 .3 0 .5.1v.2s0 .1-.1.1c-.3.1-.5.2-.8.2-.5 0-1 .1-1.4.3-.2.1-.3.1-.5.1-.1 0-.2 0-.3.1-.5.4-1 .5-1.6.7-.2.1-.4.2-.6.4-.3.3-.7.5-1.1.7-.2.1-.5.2-.8.3-.2-.1-.3-.1-.5-.2-.1-.2-.1-.4-.2-.6.3-.2.3-.2.4-.3zm4.6 6.8c-.2.2-.5.4-.7.7 0 .1-.1.1-.1.1-.5.2-.9.6-1.4.7-.3.1-.6.1-.8.1-.1 0-.1-.1-.2-.1.1-.1.1-.2.2-.2.7-.2 1.4-.5 2-.9.4-.2.7-.4 1.1-.6-.1.1-.1.2-.1.2zm19.4-7.4c-.1.2-.3.4-.4.6-.5.3-.9.6-1.4.8-.6.1-1.1.5-1.6.8-.2.1-.4.3-.6.4-.2.2-.4.4-.7.5-.3.1-.4.4-.7.5-.2-.1-.4-.1-.5-.2-.4-.3-.3-.3-.2-.5.2 0 .3.1.4.1.1 0 .1 0 .2-.1.2-.1.4-.3.5-.4.3-.3.7-.6 1.1-.8.1-.1.2-.1.3-.2.3-.4.8-.6 1.1-.9.2-.2.4-.3.7-.4.5-.2 1-.5 1.5-.8.1-.1.2-.1.3-.1.2.2 0 .4 0 .7zm.2-3.3v.4c-.1.3-.3.6-.5.9-.3.2-.5.5-.8.7-.2.2-.5.3-.8.4-.6.2-1.2.5-1.7.9-.4.3-.8.5-1 .9-.1.1-.2.1-.2.2-.2.2-.5.3-.7.5-.2.1-.4.2-.5.3-.2.1-.3.3-.4.4-.2-.1-.3-.1-.5-.2-.1 0-.3 0-.4.1l-.3.3c-.2.2-.4.4-.7.5-.8.4-1.5.8-2.3 1-.3.1-.7.2-1 .4-.5.3-1.1.4-1.6.6-.3.1-.6.1-.8 0 .2-.3.2-.3 1-.5.4-.1.7-.3 1.1-.4.4 0 .8-.1 1.1-.2.3-.3.2-.5.1-.8 0-.1-.1-.1-.2-.2-.2-.1-.4-.1-.6 0-.2.1-.5.2-.7.3-.4.2-.9.4-1.3.7-.4.2-.8.3-1.1.5-.3.2-.7.4-1 .6-.5.3-1 .5-1.5.8-.5.3-1 .5-1.5.6-.3.1-.6.2-.9.4-.8.3-1.5.7-2.3 1.1-.1 0-.1.1-.2.1-.6.1-1.2.4-1.8.6-.3.1-.5.2-.8.3-.3.1-.7.2-1 .4-.1.1-.2.1-.4.1s-.4.1-.7.1c0 0-.1-.1-.1-.2V189c0-.2 0-.4.1-.7.1-.3.1-.6.2-1s.2-.9.5-1.3c.1-.2.2-.3.3-.5.1-.2.3-.4.5-.6 1.1.4 1.1.4 2.2.4l2.1-.9c.3-.3.7-.5 1.2-.7.5-.2.9-.5 1.4-.7.6-.2 1.3-.2 1.9-.4h1.2c.3.2.5.3.8.5.2.1.5.1.8.2.2-.2.2-.5.3-.8-.1-.3-.4-.5-.5-.8-.1-.3-.3-.5-.5-.7-.1-.1-.1-.2-.1-.4.8-.8 1.3-1.8 1.5-2.9.1-.1.2-.1.3 0 .3.2.5.2.8 0 .2-.1.3-.2.5-.3l.6-.6.9-.6c.3-.1.5-.2.8-.4.5-.1 1.1-.1 1.7.1.3.1.7.1 1.1 0 .6-.1 1.1-.4 1.5-.8.1-.2.3-.3.5-.5.5-.4.9-.7 1.4-1.1.3-.2.5-.3.8-.5.4-.1.7-.1 1-.2.2-.1.3 0 .5.1.2 1 .5 2.1.7 3.1 0 .2.1.4.1.6-.5.7-.3 1.6-.1 2.5zm-8.3-5c.4-.3.9-.6 1.4-.8.5-.2.9-.2 1.4-.1v.2c-.3.5-.8.7-1.3 1-.1.1-.3.1-.5.1h-.7c0-.1-.3-.1-.3-.4zm5.8-2.6c.1 0 .1 0 .2-.1l.1.1c-.2 0-.2.1-.3 0 0 .1 0 0 0 0zm26.9 9.5c-.4-.3-.9-.4-1.2-.9l.1-.1h.2c.4.3.8.5 1.2.6.1 0 .2.1.2.3-.1 0-.3.1-.5.1zm21.2 4.7c-.1 0-.1 0 0 0zm-.6-6.1c.2-.1.4-.2.6-.4.2.1.4.2.7.3.2.1.5.2.7.3.2.1.4.2.6.4.4.4.9.8 1.3 1.2.3.3.5.6.7.9.2.3.4.7.7 1 .1.5.3.9.3 1.4 0 .3 0 .5-.1.8 0 .1-.1.2-.2.2-.2 0-.5-.1-.7-.1-.2 0-.4-.1-.7-.2-.2-.1-.4-.2-.6-.2-.2-.1-.5-.2-.7-.2-.5-.1-1.1-.2-1.6-.4-.5-.1-1-.2-1.5-.2h-2.1c-.3 0-.6-.1-1-.1-.8-.2-1.5-.4-2.2-.6-1.5-.4-2.9-.9-4.4-1.3-.4-.1-.8-.3-1.3-.3-.3 0-.6-.2-.9-.3-.3-.1-.6-.3-1-.4-.3-.1-.6-.3-.9-.4-.5-.1-.8-.4-1-.8-.1-.1-.2-.3-.2-.4-.4-.3-.8-.5-1.2-.6-.3-.1-.6-.1-.9-.2-.4-.1-.8-.2-1.2-.4-.2-.1-.5-.2-.7-.3-.2-.1-.3 0-.5 0-.3.1-.4.4-.2.6.1.1.2.2.4.3.2.1.5.2.7.3l.1.1c-.1 0-.1.1-.2 0-.3-.1-.6-.1-.8-.2-.5-.3-1-.5-1.4-.9v-.4c.1-.3.2-.7.2-1 0-.3.1-.6.2-.9.1-.2.2-.4.2-.5.3-.9.7-1.8 1.2-2.7.3-.1.7-.1 1.1-.2.3-.1.7-.2 1-.2h.7c.3.1.6.1.9.1.5.3 1.1.5 1.8.6.1 0 .3.1.4.1.8.3 1.6.4 2.3.6.3.1.6.1 1 .1H76c.4-.1.8 0 1.2 0 .2 0 .3.2.4.3.1.1.3.2.4.4.1.1.2.3.1.4-.3.6-.6 1.1-1.1 1.6 0 0-.1 0-.1.1h-1.2c-.1.1-.3.1-.4.2-.3.2-.3.4-.2.8 0 .1.1.2.2.3.3.1.7.2 1 .2.4-.2.9-.3 1.2-.6.2-.2.5-.2.7-.1.4.1.8.3 1.1.6.6.4 1.3.8 2 .9.3.1.5.3 1 .4h.6c.2.2.6.2.9 0zm-1.4-1.1c.1 0 .1 0 0 0 0 .1 0 .1 0 0-.1.1-.2 0-.2 0 .1-.1.1-.1.2 0zm-3.5-2.5s.1 0 .2-.1c.1 0 .2.1.2.1.2.2.4.3.6.5.4.5.9.9 1.5 1.2.3.2.6.3.8.6h-.6c-.3-.2-.7-.3-1.1-.5-.5-.5-1.1-.9-1.8-1-.2-.2-.2-.4 0-.6l.2-.2zm14.4-62v.4c-.2.8-.1 1.7-.2 2.5v2.2c-.1.6-.1 1.2-.1 1.8-.1.6-.1 1.2-.2 1.7v1.4c-.2.5-.1 1-.2 1.4 0 .5-.1 1-.1 1.5-.1.7-.1 1.4-.1 2.1 0 .4 0 .7-.1 1.1 0 .2 0 .4-.1.7 0 .8 0 1.6-.2 2.3v2.7c0 .5-.1 1-.1 1.4-.1.4-.1.9-.1 1.4v1.9c-.1.7-.1 1.5-.2 2.2 0 .5 0 1-.1 1.5-.1.4-.1.9-.1 1.4 0 .5-.2.9-.1 1.3-.1.4-.1.9-.2 1.3 0 .1-.1.3-.1.4 0 .3-.1.5-.1.8 0 .4 0 .7-.1 1.1v3.3c-.2.8-.2 1.7-.3 2.5-.1.5-.1 1.1-.2 1.6-.1.3 0 .6 0 1 0 .6 0 1.2-.1 1.7s-.1 1.1-.1 1.6v.6c-.2.6-.1 1.3-.1 1.9 0 .7-.1 1.4-.1 2-.1 1.3-.4 2.5-.7 3.7-.2.8-.4 1.6-.6 2.3-.1.2-.2.5-.3.7 0 0-.1.1-.2.1-.4 0-.7-.4-1.2-.4-.3 0-.4.3-.6.4h-.2c-.3 0-.6-.1-1-.1-.5-.1-1.1-.2-1.6-.2-.3 0-.6-.1-.9-.1-.4-.1-.9-.1-1.4-.1H80c-.5 0-1 0-1.4.1-.4.1-.9.1-1.4.1-.4 0-.8.1-1.2.1-.4 0-.8.1-1.3 0h-.5c-.5 0-1 .1-1.4-.1h-.2c-.5.1-1-.1-1.4-.3-.5-.1-.9-.3-1.4-.4-.4-.1-.8-.2-1.2-.4-.5-.2-1.1-.4-1.7-.5-.4-.1-.7-.1-1.1 0-.1 0-.1.1-.2.1-.5 0-1 .2-1.5.3-.3 0-.6-.1-.9-.1-.1.1-.2.1-.3.1-.1.1-.2.1-.2.2-.1.1-.3 0-.4-.2v-1.5c.2-.6.1-1.3 0-1.9 0-.2.1-.5.1-.7v-1.3c0-.4.1-.8.1-1.2 0-.1 0-.1.1-.2.1-.4.1-.8.1-1.3 0-.4.2-.8.2-1.2 0-.4.1-.8.1-1.2v-1.2c.1-.5.1-1 .2-1.5 0-.2.1-.4.2-.6.1-.6.2-1.2.2-1.7 0-.4.2-1.7.3-2.1.1-.6.3-1.2.3-1.8 0-.2.1-.4.1-.6.1-.4 0-.8.2-1.2v-.2c0-.9.2-1.7.2-2.6v-1.2c0-1.1 0-2.2.1-3.3v-.2c.2-.7.1-1.4.2-2.1 0-.5.1-1 .2-1.5 0-.4.1-.8.2-1.2.1-.4.2-.8.2-1.2 0-.4.2-.8.3-1.1.1-.4 0-.9.2-1.3v-.3c0-.6.1-1.2 0-1.7-.1-.9-.1-1.7-.3-2.6 0-.2-.1-.4-.1-.6 0-.6-.1-1.2-.3-1.7-.2-.5-.3-1.1-.4-1.6-.1-.4-.2-.8-.2-1.2-.1-.4-.1-.8-.1-1.2v-1c.1-.5.1-1 .2-1.4.1-.6.2-1.1.5-1.6.1-.1.1-.3.2-.4.1-.3.2-.6.3-.8.1-.1.1-.3.2-.4l.3-.9c0-.4-.2-.6-.5-.9-.2-.1-.5-.2-.6-.1-.1.1-.3.2-.4.3l-.9.6c-.2 0-.4.1-.5.1-.7 0-1.3.2-2 .4-.2.1-.5.1-.8.2-.2 0-.5 0-.7.1-.9.2-1.7 0-2.5-.3-.5-.2-1-.4-1.5-.5-.7-.3-1.4-.2-2.1 0-.7.2-1.3.5-2 .7-.7.3-1.4.4-2.2.4-.2-.3-.1-.7-.2-1-.2-.2-.4-.2-.6-.1-.2.1-.4.3-.6.5h-.5c-.2 0-.4.1-.6.2l-.5.5c-.2.1-.5.2-.7.3-.5.1-.9 0-1.3-.2-.3 0-.5.1-.8.2-.3.3-.6.6-1 .7-.8.1-.8.1-2.2-.1-.5.1-1 .3-1.4.5-.4.3-.9.5-1.4.7-.4.1-.9.1-1.3.2-.3 0-.6-.1-.9-.1-.7-.1-1.4 0-2.1.2-.3.1-.7.2-1 .4-.2.2-.7.2-1 .2h-.3c-.1 0-.2.1-.2.2-.1.2-.2.4-.2.7.3.6.3 1.3.4 1.9 0 .3.1.5.1.8 0 .2.1.3.1.5 0 .5.1 1 .2 1.4l.6 3.3c.2.9.3 1.8.4 2.8.2.7.1 1.4.3 2.1v.9c.2.8.2 1.7.3 2.6v.5c0 .4.1.8.1 1.2.1.4.1.9.2 1.3 0 .2.1.4.1.6 0 .1.1.2.1.3 0 .6.1 1.1.2 1.6.1.6.2 1.2.3 1.7.1.4.2.9.3 1.3l.6 3.3c.2 1 .4 2 .7 3 .1.3.2.7.4 1 .3.8.5 1.7.7 2.5 0 .1 0 .2.1.3.3.9.5 1.8.7 2.7.1.4.2.8.2 1.1 0 .5.1 1 .3 1.4.2.6.3 1.2.3 1.9v.5c.2.7.2 1.3.3 2 .1.8.2 1.6.2 2.4 0 .2 0 .3.1.5-.3.2-.6.2-.8.3H36.7c-.8-.1-1.4.3-2 .9-.3.5-.8.8-1.4 1.1h-1.5c-.4 0-.8.1-1.2.3-.6.3-1.1.7-1.7 1-.2.2-.3.3-.6.4-.5.4-1.1.6-1.7.9-.6.3-1.3.3-2 .1-.5-.1-.9-.1-1.4.1-.4.1-.8.3-1.1.5l-.6.3c-.2.1-.4.1-.5.3-.1.1-.2.1-.3.1-.4.1-.8.3-1.3.5-.2.1-.4.1-.7 0-.3-.6-.6-1.2-.7-2-.1-.5-.1-1-.2-1.4-.1-.6-.3-1.3-.5-1.9-.3-1-.6-2-.8-3-.1-.5-.1-1-.2-1.4-.1-.3-.1-.6-.2-.8-.3-1.1-.7-2.2-1.1-3.2-.1-.2-.1-.4-.2-.5-.1-.6-.4-1.2-.6-1.8-.2-.6-.4-1.2-.7-1.8l-.3-.6c-.1-.3-.2-.5-.4-.8-.1-.1-.1-.2-.2-.2-.5-1.1-1.2-2.1-1.6-3.2-.1-.2-.2-.5-.3-.7l-1.5-4.2c-.5-1.3-1-2.7-1.4-4-.1-.2-.1-.4-.2-.5-.3-.8-.5-1.7-.7-2.5-.2-1-.5-2-.7-3 0-.1-.1-.2-.1-.3-.1-.4-.3-.7-.3-1.1 0-.4-.2-.8-.3-1.2-.1-.4-.2-.8-.3-1.1-.1-.3-.1-.6-.2-.8-.4-1.2-.7-2.4-.9-3.6-.3-.6-.2-1.2-.4-1.8-.1-.2-.1-.4-.2-.6-.1-.2-.1-.3-.1-.6 0-.2 0-.3-.1-.5-.3-.7-.5-1.5-.8-2.3-.5-1.3-.9-2.6-1.4-3.9 0-.1-.1-.2-.1-.3-.1-.7-.4-1.3-.5-2-.2-.6-.2-1.2-.3-1.7 0-.4 0-.8.1-1.2 0-.2.1-.3.1-.5 0-.6 0-1.1.1-1.6 0-.8.2-1.5.4-2.3.2-.4.5-.8.6-1.2.1-.1.2-.3.2-.4.3-.5.7-1 1-1.4.1-.2.3-.4.4-.7.1-.2.2-.3.3-.5.1-.1.2-.2.2-.3.4-.7.7-1.4 1.1-2 0-.1.1-.1.1-.2.3-.8.8-1.4 1.3-2 .1-.2.3-.3.4-.4.8-.6 1.6-1 2.5-1.4.1-.1.2-.1.4-.1s.3 0 .5-.1c.4-.2.9-.2 1.3-.2.8 0 1.5-.2 2.1-.5.6-.3 1-.7 1.5-1 .2-.1.3-.3.4-.4.1-.2.2-.3.2-.5.2-.2.3-.2.5-.2h.7c.4 0 .8 0 1.2.1h.2c.2 0 .3-.1.5-.1h.4c.2 0 .3.1.4.1.4-.1.7-.1 1.1-.2.3 0 .6 0 .9.1.7.3 1.4.4 2.1.6.1.1.3 0 .5.1.2 0 .4.1.8.1.5-.1 1.1-.2 1.7-.2.7 0 1.4 0 2.1.2.5 0 .9.2 1.4.3.2.1.5.2.7.2l.9.3c.3.1.6.2.9.2.3 0 .6 0 .9.1.6.1 1.2.2 1.7.2h.5c.6-.1 1.2-.1 1.8.1l1.5.3c.3 0 .4-.4.6-.5h.1c.2.1.5.1.7.2h1.1c.7.2 1.5.1 2.2 0 .2 0 .5-.1.7-.1.3 0 .6-.2.9-.1.3.1.6-.1.9-.1h.3c.5-.2 1.1-.2 1.7-.2.1-.1.3-.1.4-.2.3-.2.6-.3.9-.4.2-.1.5-.2.7-.3.2.1.7.2 1.6.1 1.3-.2 2.2-.1 2.9-.2.4 0 .7-.1 1-.3.3-.1.5-.2.9-.2.5.2 1.1.3 1.7.5.6.2 1.1.5 1.6.7.1 0 .2.1.3.2.5.2.9.4 1.5.5.1 0 .3 0 .4.2 0 0 2 .5 2.5.5h.1c.6 0 1.1.2 1.6.3.5.1 1 .3 1.4.5.6-.2 1.3-.1 1.9-.4.1-.2.2-.3.3-.4.5-.1.9-.2 1.3-.3.4-.1.9-.1 1.3-.2.3-.2.1-.5.3-.7.1 0 .1-.1.2-.1.3 0 .6-.1.9-.1.1 0 .1-.1.2-.1.1-.2.2-.3.3-.5v-.3s-.6-1.1-1-1.3c-.2-.1-.5-.4-.8-.7-.2-.1-.3-.2-.5-.3v-.1c-.3-.2-.5-.4-.6-.4-.3-.1-1.1-.7-1.2-.9V95c-.1-.1-.2-.2-.3-.2-.8-.7-1.7-1.4-2.4-2.3-.1-.1-.2-.1-.3-.2-.1 0-.1-.1-.1-.1-.2-.2-.2-.5-.3-.7.4-.1.8-.1 1.3-.1 1.5.1 2.4 1.4 2.8 1.8.3.1.4.3.7.4.6.1 1.2 0 1.8-.1.9-.1.9-.1 1.9-.6.3-.1.5-.1.7 0 .2.2.5.3.7.5.5.3.9.7 1.5.9.2 0 .4.1.7.1 1-.1 2.1-.3 3.2-.4.1 0 .3.1.5.1.4 0 .7.2 1 .5.3.3.7.5 1 .8l1.5 1.2 1.1 1.1.6.6c.1.2.3.4.4.5 1.1 1.1 2 2.5 2.8 3.8.3.4.4.9.6 1.4l.3.9c.1.3.2.6.2.9 0 .1 0 .2.1.3.3.9.4 1.8.4 2.7 0 .4 0 .7.1 1.1.1.3.1.6.1.9.7.8.7 2 .6 3.2z"/>
</svg>
