<svg xmlns="http://www.w3.org/2000/svg" width="772.4" height="842.5" style="overflow:visible;enable-background:new 0 0 772.4 842.5" xml:space="preserve">
    <style>
        .st0{fill:#fff}.st1{fill:#7a6a56}.st2{fill:#f8f1ec}
    </style>
    <path class="st0" d="M353 101.9s-12.3 3.1-13 8.5c-.7 5.5-2.6 10.2-2.1 12.8.5 2.6 3.2 14.8 7.4 15.3 4.1.5 10.6 4.9 12.8 3.7 2.2-1.3 7.2-13.6 7.2-13.6l-6.2-16.5-6.1-10.2z"/>
    <path class="st1" d="M356.4 93c.6 0 1.3 0 2 .1.4 0 .5.4.5.7 0 .5.2.7.5.7l1.8-.3c.2.2.5.5.8.7-.1.9-.3 1.7-.4 2.5-.6.8-1.4 1.3-2.1 1.6-.9.1-1.4-.3-2-.4-.4.1-.9.1-1.3.3-2.4 1.1-4.8 2.3-6.8 3.9-.3.2-.6.4-.8.7-1.2 1.4-2.4 2.8-3.5 4.2 0 0 0 .2.1.3.2.2.4.2.6 0 .2-.1.4-.3.5-.4 1.3-1.3 3-2.3 4.7-3.2 1.4-.8 2.9-1.3 4.4-1.5 2.3-.3 4.5-1 6.7-1.7.7-.2 1.4-.4 2.1-.5h.4c.7.8.6 1.9.8 2.9-2 1-4.2 1.1-6.3 1.8-2 .6-3.9 1.2-6.1 1.5-1.3.9-2.7 1.9-4.1 2.8-1.1.7-2 1.7-2.8 2.6-.2.2-.1.5.1 1.2.2-.1.5-.2.7-.3 1.8-1.4 3.7-2.5 5.9-3.4 3.9-2.2 8.3-3.3 12.7-4.4.4-.1 1 .2 1.2.6.2.4.3.8.3 1.3-.1.5-.3.8-.8 1.1-.2.1-.4.2-.7.2-1.7.3-3.3 1-4.9 1.5-1.7.6-3.4 1.3-5.1 1.9-1.7.6-3.4 1.3-4.7 2.5-.6.5-1.3 1-2 1.5-1 .7-1.8 1.5-2.5 2.4-.5.6-1 1.3-1.6 1.8-1 .9-1.6 1.9-2.1 3.1-.5 1.5-1 3-1.1 4.5-.1.8.3 1.5 1 2 .1.1.4.1.6.1.7-.9.4-2 1-3.2.5-.8 1.2-1.8 1.9-2.9 1.1-1.5 2.3-2.9 3.9-3.9 1.5-1 2.8-2.1 4-3.4 1.9-2.1 4.5-3.4 7.1-4.6.8-.3 1.6-.4 2.3-.6.9.1 1.3.5 1.5 1 .3.7.1 1.3-.5 1.9-.8.2-1.7.5-2.5.8-.2.2-.3.5-.1.6 1.2.6 2.1 1.5 3 2.4 1.2 1.3 2.6 2.3 4.5 2.8.5.1.7.9.6 1.4-.2.7-.7 1.1-1.3 1.5-.4.3-.9.4-1.4.1-.6-.3-1.3-.7-1.8-1.1-1.2-1-2.3-2-3.5-2.9-.1-.1-.4-.1-.6-.1-.1 0-.2.1-.2.2-.1 1.2 0 2.4.6 3.6.6 1.1 1.1 2.2 1.6 3.3.2.4.4.8.6 1.1 1 1 2.2 1.7 3.5 1.7.7.6.4 1.3.4 1.9-.4.5-.7 1-1 1.5-.2.3-1 .4-1.3.3-.9-.4-1.8-.9-2.3-1.6-.6-.9-1.4-1.5-2.1-2.3-.5-.5-.9-1.1-1.2-1.7-1.3-2.3-2.2-4.7-2.3-7.3 0-.6-.1-1.1-.7-1.5-1 .1-1.6.8-2.5 1.2-.5.3-.9.7-1.1 1.3.5.3 1 .5 1.5.8.5.7.6 1.5.5 2.3-.1 2.1.6 3.9 1.6 5.7.1.1.1.2.2.5.3.4.9.8 1.3 1.4 1.1 1.4 2.6 2.3 4.5 2.6.9.1 1.6.6 2.1 1.2.1.1.2.4.3.6l-.9 1.8c-.5.1-.9.3-1.4.4-.6-.2-1.2-.4-1.7-.6-.3-.1-.8.2-.7.5 0 .3.2.6.2 1 0 .7-.2 1.3-.3 2-.3.5-.9.6-1.5.4-.2-.1-.5-.1-.7-.3-1.4-1-2.9-1.1-4.5-.9-1.3.1-2.7.3-3.9.5-2.1-.7-3.9-1.6-5.5-2.7-2.4-3.3-2.4-3.3-5.4-5.5-.5-1.2-1-2.5-1.6-3.7-.5-.5-1-.9-1.5-1.4-.8-.8-1.2-1.7-1.1-2.7.1-1.8.3-3.5.7-5.3.2-.3.3-.6.5-.8 1-1.2 1.6-2.5 1.7-4 .2-1.3.4-2.6.5-3.8 1.2-2.7 2.9-5.1 4.2-7.6.3-.5.7-.9 1.1-1.3.5-.5 1-1 1.3-1.6.2-.4.5-.7.9-1.1.7-.7 1.5-1.4 2.3-2.1 1.6-1.4 3.3-2.7 5.3-3.5 1.2 0 2.1-.6 3.2-1.2zm-14.8 25c.4.1.7-.1.9-.3.6-.6 1.2-1.3 1.8-1.9.2-.2.3-.3.1-.5-.1-.2-.7-.2-.9 0-.5.4-1 .9-1.5 1.2-.1.3-.3.5-.3.7 0 .3 0 .6-.1.8-.7.4-.7.4-.4 1.1.3-.2.4-.7.4-1.1zm7.8 7.9c.3.4.8.8 1 1.3.3.5.4 1.1.4 1.6.3 1.5 1.1 2.9 1.7 4.3.9 2 2.4 3.6 4.7 4.4.6.2 1 .6 1.7.7.2-.1.5-.2.5-.4.1-.2-.1-.5-.2-.6-.9-.8-1.8-1.5-2.7-2.2-.9-.7-1.7-1.6-2.3-2.5-1.1-1.8-2.1-3.7-2.6-5.8 0-1 .1-2 .1-3-.3 0-.6 0-.7.1-.6.6-1.2 1.2-1.6 2.1zm-1.9 4.7c-.6 0-.9.4-.9.8 0 .5.2 1.1.4 1.6.2.6.1 1.1 0 1.7.4.9.8 1.8 1.2 2.6.9.7 1.9 1.1 3 1.2.2 0 .5-.1.6-.3.2-.2.1-.4-.1-.6-.4-.4-.8-.8-1.3-1.2-.3-.6-.7-1.3-1.1-2l-.9-1.8c-.2-.7-.2-1.5-.9-2z"/>
    <path class="st2" d="M445.3 73.8s-4.5 15.9-8 33.7-10.3 27.3-15.9 31.3-1.9 19.7 10.3 24.2 40.4 6.9 54.7 29.3c14.3 22.4 7.8 100.7 7.8 100.7l-4.1 38.9-27.1 20.2-39.4 3.6-106.4 3.1s-16.6 5.4-20.6 9.7-14.6 18.4-19.2 18.6c-4.6.2-6.7-4.2-6.7-4.2l2.2-9.3s3.1-2.1 2.6-3.4c-.6-1.3 1.7-8.8 1.7-8.8s2.4-8.6 3.4-9.8c1-1.1 2.8-4.4 14-8.9 11.2-4.4 30.2-12.7 30.2-12.7l2.5-9.1s-5.9-13.5-10.6-16.2c-4.7-2.6-42.1-48.1-44.1-79.5-2.1-31.4 11.7-50.1 28.6-55.2 16.9-5.1 54.2-12.5 58.3-24.1 4.1-11.6-3.6-29.9-6-33s-12.6-6.2-12.4-20 3.9-17.6 3.9-17.6.4-8.2 11.7-19.6C368 44.4 396.4 32.2 401.2 30s35.3 10.7 38.2 21c2.8 10.4 5.9 22.8 5.9 22.8z"/>
    <path class="st0" d="M338.8 229.4c-.9 3.5-2.1 6.9-3.6 10.2-.2.5-.5 1-.5 1.5-.1 1.7-.9 3.2-1.4 4.8-1.3 4.2-2.7 8.4-4.1 12.5-.3.9-.4 1.7-.4 2.6 0 .5-.4.9-1 .8-2.1-3.6-3.1-6-4-9.2-.3-1.1-.6-2.2-1-3.3-.5-1.6-1.3-3.2-1.5-4.8-.3-1.9-1.2-3.7-1.2-5.7 0-.4-.2-.8-.3-1.1-1.2-2.2-1.6-4.6-2-6.9l4.4-1.1c1.5.3 2.9.6 3.9.8 3.7.3 6.6-.4 9.5-.8 1.7-.3 2.1-2.3 3.7-2.7.1.2.2.4.2.7-.1.6-.5 1.1-.7 1.7zM327.2 321c.4.2.7.6 1 .9 1.9 2.1 4.4 2.6 7.1 2.3.9-.1 1.8-.4 2.6-.6 2-.5 3.8-1.5 5.4-3 2.4-2.2 4.6-4.6 6.2-7.4 1-1.8 2.1-3.5 3.6-4.8.5-1.3.8-2.4 1.3-3.4.6-1.4 1.1-2.9 1.4-4.4.3-1.4.6-2.8 1.1-4.1.8-2.2 1.5-4.4 2.2-6.6 1.1-3.2 1.9-6.5 2.5-9.8.5-2.7.7-5.4 1.6-8 .1-.2.1-.5.2-.8.3-2.4.9-4.8 1.3-7.3.3-2.2.8-4.3 1.5-6.4.6-1.8 1.1-3.7 1.2-5.7.1-1.5.2-3.1.6-4.6.6-1.8.6-3.6.9-5.3.3-2.3.5-4.6 1.2-6.9.5-1.6.9-3.3 1.1-4.9v-.2c2 .5 4.7 1.2 6.8 1.7.3.2.7.3 1.2.4.6 0 1.1.1 1.7.1h.7c.9 0 1.8.1 2.7.5 1.5.7 3 .7 4.6.5 2.2-.3 4.4-.2 6.6.3 1.4.3 2.7.7 4.1 1.1.9.7 1.8 1.5 2.5 2.1 1.2.2 2.2.4 3.2.6.9.2 1.8 0 2.6-.5 1.2-.7 2.3-1.7 3.8-2.1 1.3-.1 2.8-.1 3.8-.2 1.9.3 3.4.7 5 .9 2.4.3 4.6 0 6.8-1.1 1.2-.6 2.3-1.1 3.6-1.6 1-.3 2-.5 3-.7.6-.1 1.3-.2 1.9-.3 2.2-.2 4.4-.5 6.5-1 1.1-.6 2.3-.4 3.5-.7 1.6-.2 6.4-1.4 6.4-1.4 2.3 2.2 3.9 4.8 5.6 7.4 1.1 1.8 1.8 3.7 2 5.8.1.8.2 1.6.4 2.3.8 2.4.6 4.8.4 7.3-.3 3.2-.6 6.4-1.3 9.6-.3 1.5-.5 3.1-.8 4.6-.3 1.4-.6 2.8-1.2 4.1-.6 1.3-1 2.7-1.4 4-.2.7-.4 1.5-.7 2.2-1.2 2.6-2.3 5.2-2.6 8.1 0 .3-.1.5-.2.7-1.4 2.9-2.6 5.9-4.8 8.4l-2.7 3.3c-.2.3-.3.7-.4 1 .7 1.3.7 1.3 2 1.9.4-.1 1-.2 1.4-.4.5-.3 1.1-.8 1.4-1.3l2.1-3c.4 1 .5 2.5.5 3.8l-.2.2c-.4 1.8-.9 3.5-2 4.8-.2 1.2-.2 2.3-.5 3.2-.3 1 0 2.1-.6 3-.1.1-.2.2-.3.2-3.8 1.4-7.5 2.7-11.3 4-.7.3-1.5.4-2.2.6-1.3.3-2.6.5-3.7 1-1.7.7-3.4 1.1-5.2 1.4-1.3.2-2.5.6-3.8.9-2.8.7-5.5 1.6-8.3 1.8-1.6.6-3.3.4-5 .8-1.6.4-3.3.6-4.9 1.1-2 .6-4 .9-6.1 1.2-1.1.2-2.3.2-3.5.4-4.4.5-8.7 1.4-13 2-4.3.6-8.7 1.4-13 1.9-.6.1-1.3.3-1.9.3-1.2 0-2.3.1-3.5-.1-1.2-.2-2.3.5-3.5.4h-.4c-3.6-.3-7.2.1-10.8.6-3.5.5-7 .2-10.4.8-.4.1-.8.1-1.2 0-1.4-.2-2.8.1-4.2.4-1.1.2-2.3.5-3.4.8-.6.1-1.2.3-1.8.3.1-.6.1-1.4-.1-2.4-.1-.7-.2-1.3-.2-1.9.4-.2.7-.5.9-.9-.1-.8-.4-1.5-.6-2.2-.5-.7-.2-1.5 0-2z"/>
    <path class="st1" d="M348.7 74.5c-.6.4-1.2.8-1.5 1.1-.3 1 0 1.8.2 2.5-.6 1.1-1.4 1.9-2.6 2.2-1.1-.3-2.2-.7-3.5-1-.4-.6-.8-1.4-1.5-2-.9-.9-1.5-1.8-1.2-2.8-.2-1-.8-1.3-1.3-1.8-1-1-1.5-2.2-1.4-3.5.2-3 .3-5.9.8-8.9.1-.5.3-1 .2-1.5-.1-1.2 0-2.3.4-3.4.2-.4-.1-1-.1-1.6 0-.1.1-.4.1-.6.3-1.2.6-2.5 1-3.7.5-1.2 1.2-2.3 1.7-3.5.3-.7.7-1.4.9-2.2.7-2.5 1.8-4.8 2.9-7.2.3-.6.7-1.1 1-1.6.4-.5.7-1 1-1.4.3-1.9-.5-3.5-.8-5.1 0-.3.1-.6.1-.8.1-3.3 1.7-5.9 3.8-8.3 3-3.4 6.2-6.5 9.8-9.4 1-.8 2.1-1.5 3-2.5 2.4-2.4 5.4-3.5 8.3-4.9 3.1-.5 5.9-1.9 9.1-1.8 2.8-.7 5.7-.2 8.5-.6 1.1-.2 2.3 0 3.5.2 2.2.4 4.3.9 6.4 1.4.5.1 1 .4 1.4.6.4.5.8 1 1.3 1.6.5.1 1.2.3 1.6.4.4-.1.7 0 .9-.1 2.2-1 4.5-1.2 6.8-1 3.3.3 6.7.6 10.1.8.9.5 1.8 1 2.7 1.4 1 .5 2.1 1.1 3.2 1.4 1.2.4 2.3 1.1 3.5 1.6 1.6.7 2.8 1.8 4 3.1 2.4 2.7 4.6 5.6 6.8 8.4.7 2.1 1.3 4.2 2.3 6.2.8 1.6 1.3 3.4 1.7 5.1.6 2.5 1.6 4.9 2.6 7.3.9 1.9 1.6 3.8 1.8 5.9 0 .4.1.8.3 1.1 1.4 2.2 1.4 5 2.8 7.2 0 .9 0 1.9.2 2.7.4 1.7.1 3.4 0 5 0 .3 0 .5-.1.8-.4 1.4-.9 2.7-1.3 4-.4 1.2-.3 2.5-1 3.7-.4.6-.4 1.5-.6 2.2-.5 1.7-1.7 2.5-3.5 2.5-3.1 0-5.8-1.2-8.1-3.2-.4-.3-.7-.7-1.1-1.1-.9-.8-1.4-1.8-1.7-3-.5-2.5-1.4-5-2.1-7.4-.6-1.9-1.6-3.5-3.1-4.8-.9-.8-1.8-1.5-2.4-2.5-2.4-2.1-4.7-4.5-7.5-6.1-.6-.3-1.2-.6-1.7-.9-.6-.3-1.3-.5-1.7-.9-1.8-2-4.6-2.4-6.7-3.9-1.9-.4-3.6-1.4-5.5-2-1.4-2.1-3-3.9-5.2-5.3-.3.1-.7.1-1 .3-1.4.9-2.8 1.8-4 3.1-.5.5-1.2 1-1.9 1.3-2.7 1.3-5 3.2-7.7 4.5-.3.2-.6.4-.9.7-1.4 1.2-3 2.1-4.6 2.9-1.4.7-2.7 1.6-4.3 1.8-3.7 1.6-7.3 3.2-10.2 6.2-1.8 1.9-3.7 3.6-5.2 5.7-.3.4-.7.8-1 1.1-1.9 1.6-3.3 3.6-4.6 5.7-.4.7-.8 1.3-1.3 1.9-1.2 2-2.1 4.1-2.8 6.7zm20.1-46.6c1.3.4 2.2-.4 3.1-1 .1 0 .1-.2.1-.4 1 .2 2 .1 2.7-.8-1.3-.1-1.3-.1-2.6.9-1.1-.2-2 0-2.9.7-.2.2-.2.5-.4.6-.8-.1-1.4.4-2 1 .1.5.4.5.8.4.6-.2 1.1-.6 1.2-1.4zM431.7 43c-.1 1.2.2 1.6 1.3 1.7.1 0 .2-.1.3-.2.1-.1.1-.2 0-.3-.4-.7-.9-1.1-1.7-1.1-.1-.6-.2-1.3-.6-1.8-1.6-2.2-3.6-4-5.9-5.4-.8-.5-1.5-1-2.2-1.6-1-.9-2.2-1.8-3.2-2.7-1.2-.5-2.4-1-3.5-1.6-2.4-1-4.7-1.9-7.4-1.9-.6 0-1.3-.2-1.9-.2-.2 0-.5 0-.8.1l-1.8 1.2c-.9.1-1.6.1-2.5.2-.2.3-.3.5-.5.8 1.2.3 2.4.6 3.5.8 1.1.9 2.5.5 3.7.8.2.1.5.1.7.2 1.1.7 2.4 1 3.7 1.1.4 0 .8.2 1.1.3 1.3.5 2.7.9 3.9 1.7 1.3.8 2.6 1 4 1.4.2.1.5.2.7.4 2.9 1.9 6 3.5 8.6 5.8 0 .1.2.2.5.3zm-75.6-12.2c.7-.3 1.4-.5 2.1-.9 1.1-.7 2.1-1.4 3.2-2.2 2.3-1.7 4.7-3.2 7.3-4.4 3-1.3 5.9-2.5 8.8-4 .8-.4 1.6-.7 2.5-1.1.5-.2 1-.3 1.4-.6 3.5-2 7.3-3.3 11.1-4.5.1 0 .2-.1.4-.1.9-.2 1.8-.4 2.5-.5.4.2.6.3.9.4.9.5 1.1 1.5.5 2.3-.8 1.1-1.8 1.9-3.1 2.2-1 .3-2 .5-3 .9-1.3.5-2.7.9-4 1.5-2.6 1.2-5.1 2.4-7.8 3.5-.5.2-.9.5-1.3.8-.3.2-.3.4-.2.6.1.1.2.2.3.2.6-.1 1.3-.1 1.9-.3.9-.3 1.7-.8 2.6-.9 2.1-.3 4-1 6-1.7 1.2-.4 2.5-.8 3.7-1.1.5-.1 1-.1 1.4.4.2.7.4 1.4.6 2.2 1.1.7 2.2 1.4 3.2 2.1.4 0 .7 0 .9-.1 1.6-.4 3.2-.9 4.8-1.3 1.4-.4 2.7-.8 4.2-.7 3.5.3 6.9.8 10.2 2 1.7.7 3.3 1.4 4.8 2.5.9.7 1.8 1.4 2.9 2 2.1 1.1 3.7 2.8 5.4 4.4 1.3 1.1 2.3 2.4 3.3 3.5 1.1 1.7 2 3.2 3 4.7 1 1.6 2.1 3.3 3.1 4.9.3.4.6.8 1.3 1 .1-.3.4-.7.3-1-.1-.6-.2-1.3-.6-1.8-1.8-3.1-3-6.6-5.1-9.5-.5-.6-.7-1.4-1-2.1-.3-.6-.6-1.1-.9-1.7-.9-.6-1.7-1.3-2.5-1.9-.6-.4-1.3-.9-2-1.2-2-.6-3.7-1.9-5.2-2.9-.9-.2-1.7-.3-2.4-.6-2.9-1.4-6-2.4-9-3.6-1-.4-1.9-.7-3-.8-.9-.1-1.8-.3-2.7-.5-.2 0-.5.1-.9.1-.4.9-1.2 1.5-2.2 1.9-1.4.1-2.8 0-4.2-.3-.5-.1-1-.3-1.4-.6-.7-.5-.9-1.1-.6-2 .1-.4.4-.7.6-1.1.7-.3 1.4-.6 2.2-.9 1 .1 2 .2 2.9.2 1.1-.5 2-1 2.8-1.3.8.1 1.5.1 2.1.2 1.4.1 2.9 0 4.2.3 1.4.3 2.6 1 4 1.5 2.1.7 4.1 1.7 6 2.7 1.1.6 2.3 1.2 3.5 1.6 1 .3 1.9.7 2.8 1.2 1 .6 2.1 1 3.1 1.5.4.2.9.1 1.1-.2.3-.3.2-.7.1-1.1-.1-.4-.2-.8-.4-1.1-.4-.7-.9-1.3-1.3-1.8-1-.6-1.9-1.1-2.8-1.6-1.3-.8-2.7-1.5-4.2-1.9-1.5-.4-3-.9-4.4-1.5-2.2-1-4.4-2.2-6.5-3.3-1.8-.3-3.7 0-5.2-.6-.9-1-.5-2.2-1.1-3.1-.2-.1-.4-.3-.7-.3-.2 0-.5.1-.6.3-.4.5-.7 1.1-.9 1.4 0 .8.5 1 .8 1.4.6.8.7 1.6.3 2.5-.1.2-.3.4-.4.7-1.1.8-2.3 1-3.9.5-.6-.6-1.3-1.4-1.9-2.1-.1-.1-.1-.2-.2-.3-.3-.4-.2-1.1.1-1.4.6-.7 1.6-.9 1.8-1.9-.1-.2-.2-.5-.4-.7-1-.7-2-1-3.2-1.2-.3.5-.7 1.1-1.1 1.8-.6.3-1.3.6-2 .8-.6.2-1.2.5-1.8.6-3.2.4-6.2 1.7-9.2 2.9-1.4.6-2.9 1.1-4.4 1.4-3.6.8-6.9 2.2-10.1 3.9-.5.2-.9.5-1.3.8-1.9 1.7-4.2 3-6 4.9-.5.6-1.2.9-1.9 1.4-.8.6-1.7 1.2-2.6 1.7-.7.5-.9 1.2-.8 2-.5 0-1 0-1.4.4-.1.1-.2.2-.1.3.1.3.3.5.5.2-.2-.1.1-.5.4-.9zM367 15.7c1.1-.6 2.3-1.1 3.5-1.7.5-.2.9-.5 1.4-.6 2-.4 4-1 6-1.7 1.1-.4 2.3-.6 3.4-.7 1.4-.2 2.8-.6 4-1.3.8-.4 1.7-.8 2.5-1 2.3-.5 4.4-1.5 6.7-1.8.1 0 .3-.1.3-.2.1-.2.2-.4.3-.7-2.8-.8-5.6-.7-8.5-.9-1.6.5-3.3.4-5 .6-.2 0-.4.3-.6.4-.1.5-.1 1-.2 1.5-.4.1-.8.3-1.1.3-.9-.1-1.8-.3-2.7-.4-.9-.1-1.8.5-1.5 1.7.1.3 0 .7 0 1.2-1.5 1.2-3.2.7-4.7.7-.7-.4-1.3-.7-1.9-1.1-2.3.6-4.2 2-5.9 3.5-2 1.7-3.6 3.7-5.3 5.7-1.3 1.6-2.5 3.3-3.3 5.2-.1.2.1.5.3.8 1.2-.6 2-1.7 3.1-2.3 1-.6 2-1.2 2.7-2.1.9-1 2-1.6 3.1-2.4 1-.9 2-1.7 3.4-2.7zm-14.1 33.6c1-.4 1.2-.5 1.4-.6 2-1.8 4-3.6 6.5-4.9.3-.2.7-.4.9-.7.9-1.1 2.3-1.7 3.3-2.7 1.3-1.3 2.9-2.1 4.6-2.8 2-.9 4-1.9 5.9-2.9 1.5-.8 3-1.6 4.5-2.2 2.2-.8 4.2-1.9 6.3-3 1.1-.6 2.4-1 3.5-1.6.2-.1.4-.3.7-.5.1-.5.2-1.1.3-1.6-.3-.7-.9-.8-1.4-.6-2.4 1.1-4.9 1.7-7.3 2.5-.8.3-1.8.4-2.6.8-2.7 1.2-5.4 2.4-8 3.9-1.1.6-2.4 1-3.4 1.8-2.4 1.7-5 3.3-7.1 5.3-2.5 2.4-4.9 4.9-6.9 7.8-.2.4-.5.9-1.2 2zm58.4-40.1c1.2.3 2.4.6 3.6 1 1.3.5 2.6 1.1 3.9 1.7 1.9.8 3.8 1.6 5.6 2.4.3.1.7 0 1.1 0-.1-.6-.4-1-.8-1.3-1.1-.7-2.2-1.3-3.3-1.9-1.1-.6-2.3-1.1-3.8-1.9-1.5 0-3.4-.3-5.3-.9-.2-.1-.5 0-.7 0-.4.2-.6.5-.3.9zm-61.1 44.1c-.2.1-.6 0-.7.2-.6.7-1.2 1.3-1.6 2.1-.7 1.5-1.4 3-2.4 4.4-.6.9-.6 1.9-.3 3 .2.7.7 1.1 1.5 1 .8-1.3.7-3 1.4-4.6.4-.8 1-1.8 1.6-2.8.5-.8.7-1.7.7-2.6.1-.2-.1-.5-.2-.7zm31.6-15.5c-.6-.5-1.2-.4-1.8-.1-2.3 1.2-4.5 2.4-6.8 3.5-.2.1-.4.4-.5.6-.1.1 0 .2-.1.3.4.5.9.4 1.4.3.4-.1.7-.2 1.1-.4 1-.6 1.9-1.3 2.9-1.9 1.1-.6 2.3-1.1 3.4-1.7.2-.1.3-.4.4-.6zm-24.9-.2c2.2-1.4 4.3-3.1 6.1-5.1.2-.2 0-.5-.3-.7-2.3 1.2-4.2 2.9-5.9 4.7-.4.3-.3.7.1 1.1zm84.6 27.6c-.1-.9-.8-1.6-1.3-2.3-.2-.3-.5-.6-.8-.8-.2-.2-.5-.2-.6 0-.1.1-.2.2-.2.3-.1 1.2.6 2.2 1.4 3.1.2.2.7.3 1.1.3.1-.2.2-.5.4-.6zm-95.9 4.9c.4-.5.3-1 .3-1.5 0-.4.2-.9-.3-1.3-.2.8-.3 1.6-.4 2.4l.4.4zm5.2-25.9c.2-.1.4-.3.6-.4.3-.2.3-.4.2-.6-.2-.2-.4-.2-.6 0-.3.3-.5.6-.2 1zm-1.5 2.4c-.1-.1-.1-.2-.2-.3-.1.2-.3.4-.3.6 0 .1.1.3.2.3.2-.1.3-.3.3-.6zM370.8 85c.3 0 .5 0 .7-.1.1 0 .2-.1.3-.2 0-.2.1-.5.1-.7 0-.2-.2-.5-.2-.7 0-.7.1-1.2.7-1.6.6-.5 1.4-.7 2.1-.3.8.4 1.4 1 2.2 1.4.4.3.9.3 1.4-.1 0-.3.1-.7.1-1 0-.7.4-1.2 1-1.4 1-.4 2-.2 2.8.3.2.1.4.4.4.6.2.8.3 1.7.5 2.6 0 .2.3.2.5.4.5-.5.3-1.2.4-1.7.4-2 2.6-2.9 4.3-1.7.5.4.8 1 .8 1.6 0 1-.2 2-.7 2.8-.3.5-.6 1.1-.8 1.5.1 1.2 1.2 1.8 1.4 3.1 0 .2-.1.7-.3 1.1-.3.8-.6 1.6-.9 2.7-.7.8-1.5 1.8-2.4 2.9-2.3.6-4.4 1.9-6.7 2.2-5.3-.2-5.3-.2-9-1.1-.7-.5-1.5-1-2.3-1.5-.7-.4-1.6-.7-2.2-1-.9-1.2-1.1-2.4-1.6-3.5.1-1.1.8-1.8 1.5-2.5.7-.6 1.3-1.2 1.5-2.2-.1-.3-.1-.6-.2-1 0-.2-.1-.5-.1-.7.2-1.1.7-1.9 1.9-2 1.4 0 1.9 1.3 2.8 1.8zm2.9 8.6c-.3-1.3-.2-2.4.1-3.5 0-.2-.1-.5-.3-.6-.2-.1-.5-.1-.7 0-.9.5-1.7 1-2.5 1.4-.2 1-.1 1.5.3 1.7.9.5 1.6 1 3.1 1zm6.1-5.3c.3 1.7.5 2.8.8 3.8 0 .2.1.5.3.6.2.1.4.3.6.3.9-.2 1.5-.7 1.9-1.9-.8-.9-2-1.5-3.6-2.8zm48.3.8c.7 3.7-.7 5.8-3.5 7.2-1.1.5-2.2 1.2-3.3 1.7-1 .5-2.1.8-3.2.7-.4 0-.8 0-1.1.1-1.6.6-3.2.2-4.8-.2-1.7-.5-3.2-1.3-4.8-1.9-.4-.5-.9-.9-1.3-1.4-.4-.4-.8-.9-1.3-1.4-.2-1-.3-2.1-.5-3.3.8-1.5 1.4-3.1 2.8-4 .1-1.4-.7-2.4-.2-3.6.8-1 1.9-1 3-.9.6.5 1.2 1 1.8 1.4.3.2.7.1.9.1.5-.5.1-1 .1-1.5-.1-1.3.2-1.7 1.5-2.1.4-.1.7-.1 1.1-.2.6.3 1.1.5 1.7.8.3-.1.7-.1 1-.3.6-.2 1.2-.4 1.8-.3.8.1 1.5.4 1.7 1.2.3.9.6 1.9.9 2.9.3.1.6.3 1 .5.4-.7.7-1.4 1-2 .5-.9 1.2-1.2 2.2-1.1.5 0 1 .1 1.5.3.8.2 1.1.8 1.1 1.7-.1.6-.2 1.2-.6 1.7-.4.5-.8.9-1.2 1.3 0 .3-.1.6 0 .8.1.7.4 1.4.7 1.8zm-14.9 3.7c-.1-.7-.1-1.4-.2-2.2-.1-.7.4-1.4-.1-2.1-1.1-.2-1.8.7-2.5 1.2-.5.4-.8.9-.9 1.6.2.3.3.6.6.8.8.6 1.7.9 2.7 1.1 0 .1.2-.2.4-.4zm7.4-3.4c-.6.8-.8 1.7-.7 4.1 1.1.1 1.8-.6 2.6-1.2.5-.4.8-.9.9-1.5-1-.9-1-.9-2.8-1.4zM350.8 115c-.9-.4-1.7-.8-2.5-1.2-1.6-.8-3.1-1.8-4.1-3.4-.4-.6-1.1-1.1-1.6-1.7-1.2-1.5-2.3-3.1-3.1-4.9-.4-.9-.9-1.9-1.2-2.9-.4-1.5-1-2.9-1.4-4.4-.8-2.7-.8-5.3 0-8.2 1.3-2.1 2.5-4.3 4.3-6 1.7-.6 3.3-.1 4.7-.7 1 .4 1.9.6 2.7 1 1 .5 1.4 1.7.9 2.6-.2.3-.4.7-.7 1-.3.3-.6.5-.9.8-1.2 0-2.5-.1-3.8-.1-1.3.8-2 2-2.6 3.4-.4.9-.4 1.8-.2 2.7.3 1.5.7 3 1.1 4.5.1.3.1.5.2.7 1.7 4.6 1.4 5.1 6 9.5 1.2.6 2.6 1.2 4 1.8.8.8.4 1.8 1.1 3.4.1.3 1.3.4 2.2 1.6.8 1.4 1.5 3.2 2.2 5 .6 1.6 1.4 3.1 2.1 4.6.7 1.5 1.6 3 2.2 4.5 1.1 2.8 1.8 5.7.5 8.8.1.8.3 1.7.4 2.6.1.9.1 1.8.4 2.7.3.9 0 1.8-.6 2.5-.2.2-.3.4-.5.6-.8 1.1-2.1 1.2-3 .3-.3-.3-.5-.6-.7-.9-.2-.3-.3-.7-.5-1.1.6-2.5.9-5 1.1-7.6.1-1.8-.2-3.6-1-5.3-1.3-2.5-2.1-5.3-3.7-7.7-.1-.2-.3-.5-.3-.7-.6-2.3-1.8-4.3-2.9-6.3-.5-.6-.6-1.1-.8-1.5zm88.5-32.8c.5-.4.9-.8 1.4-1 1.3-.6 2.9.2 3.1 1.9 0 .3.1.5 0 .8-.5 2.3 0 4.6-.2 7-.1 1.3.6 2.5.7 4.3-.4 4-1.5 8.5-1.4 12.7-1.9 3.7-3.6 7.2-5.1 11.2-1.3 1.8-2.5 4-3.8 6.2-1.5 2.3-3 4.5-5.2 6.2-.8.6-1.5 1.4-2.3 2.1-.8.7-1.8 1.1-2.8 1.2-1.9.2-2.8-.5-3.1-2.6 0-.2.1-.5.2-.7 0-.1.1-.2.2-.3 2.2-1.4 3.9-3.4 5.9-4.7 1.2-1.6 2.3-3 3.4-4.4.6-.8 1.3-1.6 1.6-2.6.1-.5.5-.9.8-1.3.6-1 1.3-2 1.4-3.2 0-.2.1-.5.3-.7 1.6-2 2-4.5 3-6.7.3-.6.5-1.2.5-1.9 0-2.1.6-4.1 1-6.1.4-1.9.6-3.8.3-5.8-.3-1.8-.4-3.6-.4-5.4 0-2 .3-3.9.5-6.2zm-53.5 59.5c1.4 1.2 2.9 2 4.2 3 1.2.9 2.7 1.5 3.9 2 3.3.7 6.2.1 9-1 2.2-.8 4.3-1.9 6.2-3.2.8-.6 1.6-1.3 2.4-2 1.3-.5 2.7-.8 4 .6.1.5.2 1.1.3 1.6-.7 1.4-1.7 2.4-3 3.1-1.6.9-3.1 1.8-4.7 2.7-1.7 1-3.3 2-5.2 2.5-1 .3-1.8.9-2.7 1.4-.3.1-.6.1-.8.2-4.1.3-7.9-.9-11.4-3-2-1.2-3.9-2.5-5.7-4-.8-.7-1-1.5-.6-2.5.1-.3.4-.7.7-.9.8-.6 1.3-.6 3.4-.5zm51.3 112.4c1 0 2.1-.1 3.1-.2l2.7-.3c1 .3 1.8.9 2.6 1.6.3.3.5 1.1.3 1.4-.6 1.1-1.2 2.3-1.9 3.3-.5.7-1.3 1.2-1.9 1.6.1.9.2 1.7.2 2.4 0 .8-.7 1.5-1.4 1.6-.5.1-1 .2-1.5.2-1.3 0-2-.8-2-2.2v-1.1c-.5-.7-1-.9-1.7-.9-.5 0-1 .1-1.5.2-2.2.2-2.4.2-5-.3-1-.8-.9-2.1-.9-2.8.3-2.2 2.4-3 2.9-5-.2-.4-.3-.9-.5-1.3-.4-.7-.5-1.5-.5-2.2-.2-2 .2-2.5 2.4-3.4.3.1.7.2 1 .3.4.1.7.4 1 .5.2.2.4.4.4.6.4 1.3.8 2.7 1.3 4 .2.6.5 1.2.8 1.7-.2.1 0 .2.1.3zm.8 4.1c0 .2 0 .5.2.7.1.2.4.3.6.3 1.3.1 1.7-.2 2.2-1.5-.2-.1-.4-.3-.6-.4-.8.3-1.8.3-2.4.9z"/>
    <path class="st1" d="M406.3 73.9c-1.1.2-2.1.3-2.9-.4-1-.8-1.8-1.7-1.6-3.2.2-.2.4-.6.7-.8.5-.3 1.1-.6 1.6-.9 2.2-.9 4.3-1.9 6.5-2.8 1.2 0 2.4 0 3.7-.2 1.1-.1 2.2-.5 3.2-.8 3.2.9 6.1 2.2 8.8 4.1 1.2.9 2.5 1.5 3.9 2.2.9.5 1.5 1.2 1.8 2.3-.2.9-.8 1.5-1 2.1-1 .5-1.7.3-2.4 0-.8-.4-1.5-.8-2.2-1.4-1.7-1.3-3.7-2.1-5.6-2.9-1.4-.6-2.9-.8-4.4-.7-2.2.2-4.5.2-6.6 1.2-.4.2-.9.3-1.7.6-.4.5-1 1-1.8 1.6zm-33-6.3c2.3.3 4.3.6 6.2 1.2.9.3 1.9.4 2.9.5 1.6.1 3.1.8 4.6 1.5.3.1.5.5.8.7.2 1 .4 2 0 2.9-.5.7-1.3.7-2 .9-1.4 0-2.5-.9-3.7-1.6-.7-.1-1.4-.3-2.1-.5-1.7-.4-3.4-.5-5.1 0-.5.1-1 .1-1.5.1-1.9 0-3.7.5-5.4 1.3-1.1.5-2.3 1-3.4 1.6-.8.4-1.6.7-2.4 1.1-.6.4-1.2.9-1.6 1.2-1.1.3-1.8-.1-2.6-.7-.6-.5-.7-.5-1-1.5.2-.3.4-.6.7-.8 1.4-.8 2.3-2.2 3.8-2.9 2.1-1 4.2-2.2 6.3-3.3.3-.2.7-.3 1-.4 1.6-.2 3.3-.5 4.5-1.3zm47.8 126.9c-.7.2-1.4.5-2.1.7-.2.1-.5 0-.8 0-1-.2-1.8-1.2-1.6-2.3v-.4c.3-.8.6-1.7 1-2.6.4-.4.9-.8 1.5-1.3.2-.6.5-1.3.8-1.8l.4-.4c2.1-.9 4-2.3 5.9-3.7.8-.6 1.7-1.1 2.6-1.7 1.7-1.2 3.6-2.1 5.7-2.3 1.2-.2 2.1-1 3.6-1.2.6.1 1.5.2 2.2.4 1.4 1.2.8 2.5.5 3.7-.6.9-1.5 1.1-2.4 1.2-.9.2-1.8.1-2.7.3-2.3.5-4.4 1.5-6.3 2.8-.4.3-.8.7-1.2.9-3 1.6-4.7 4.3-6.4 7.1-.2.1-.3.2-.7.6zm-34.8-67.2c-.4-.7-.6-1.3-.9-1.8.4-1.3 1-2.3 2.4-2.5 1.8.1 3.2 1.3 4.6 2.1.5.1.8.2 1.2.3 1.4.1 2.6.8 4 .6 2-.3 3.9-.6 5.8-1.2 1-.3 1.8-.8 2.6-1.4.5-.4.9-.8 1.4-1.2.8-.7 1.7-1 2.9-.9.3.2.7.5 1 .8.4.4.6.8.6 1.3 0 .6-.1 1.2-.3 1.8-.1.3-.4.6-.7.8-.5.3-1.1.5-1.7.7-1.9.7-3.8 1.3-5.5 2.2-.5.3-1.2.3-1.8.5l-1.5.3c-4.9.9-9.6.3-14.1-2.4zM372 301.8c.2-.4.4-.9.5-1.4.3-.8.6-1.5 1.5-1.6 1.4-.2 2.6.1 3.4 1.4l1.2 2.4c3.2-1.6 3.2-1.6 5.5-2 1.3.6 1.3.6 1.5 2.4-.4 1.4-1.3 2.5-2 3.8.1.3.2.7.4 1 .4.5.9.9 1.4 1.4.5.5.6 1.1.6 1.9-.7 1.2-1.7 1.6-3.2 1.3-.7-.7-1.5-1.4-2.2-2.2-.7-.7-.6-1.5.2-2.3.2-.2.4-.3.6-.5-.2-.8-1.2-1-1.6-1.6-.4-.5-.7-1.1-1.1-1.6-.8.1-1.1.9-1.8 1.3-.2.1-.3.4-.4.7l1.5 1.5c.5 1 .4 1.9-.2 2.6-.4.5-.8 1-1.2 1.4-1.4.7-2.7 1.3-4.1 1.4-.3-.1-.5-.1-.8-.2-.9-.5-1.3-1.6-.9-2.3.6-1 1.2-2 1.9-2.9.3-.4.7-.7 1.2-1 .4-.3.9-.4 1.2-1-.2-.9-1.4-.8-1.8-1.7-.4-.9-1.2-1.3-1.3-2.2zm55.4 3.2c-1 1.2-1.6 2.4-1.9 3.9-.3 1.4-1 2.6-1.5 3.9-.7.8-1.5 1.1-2.4 1.2-.9.1-1.4 0-2.6-.6.1-.3 0-.8.2-1.1.4-.8.9-1.6 1.3-2.4.2-.4.3-1 .4-1.5-.6-.7-1.2-1.4-1.7-2-.1-1.5 1.2-1.7 1.7-2.5.6-1.5.6-3.1.8-4.6.1-.9.9-1.6 1.9-1.5.6 0 1.3.1 1.6.1 1 .4 1.2 1.1 1.5 1.6.2.3.5.5.7.8 1.4 0 2.4-1.3 3.7-.8.7.7.8 1.6 1.3 2.5-.2.3-.3.7-.5.9-.7.8-1.7 1.2-2.6 1.6-.8.2-1.4.3-1.9.5zm-35.5-192.3c.1-1.1 1-1.6 2-2.1h2.3c.6-.3 1.3-.7 1.9-1.1.6-1 .5-1.9.4-2.8-.1-.3-.2-.6-.4-1-.9-1.5-1.6-3.1-1.7-4.9.1-.5.4-.9 1-1.2.8-.1 1.8-.1 2.8-.2.5.2.9.4 1.1.9.4 1.2.8 2.3 1.1 3.5.4 1.2.7 2.4 1.1 3.9 0 .6-.1 1.6-.1 2.6-.7.9-1.5 1.7-2.3 2.7l-4.2 2.1c-.9 0-1.8-.1-2.6-.1-1.1-.1-1.8-.7-2.3-1.6 0-.2 0-.5-.1-.7zM404.6 247c1.4-.6 2.7-.6 3.8.6.8 2.1.8 4.4 1.8 6.2.7.3 1.1.1 1.6 0s1-.2 1.5-.2c1 0 1.8.7 1.9 1.6.1.8.1 1.5-.4 2.4-.3.2-.7.6-1.1.8-.9.5-1.8.9-2.8 1.3-.3.2-.7.4-1.1.4-1.5 0-2.8.7-4.3.9-1-.1-2.1-.5-3.1-1.1-.5-.3-.7-1.2-.2-1.7.9-.9 1.9-1.7 2.5-2.3.7-1.1.3-1.9.4-2.6.1-.8.3-1.5.4-1.9 0-1.7-1.5-2.8-.9-4.4zm-60.8-70.3c-.5.6-1 1.2-1.6 1.7-.6.5-1.5.8-2.2.5-1.7-.7-3.5-.8-5.2-1.2-1.2-.2-2.1-1-2.6-2.1-.4-1-.1-2.1.7-2.7.7-.6 1.5-.9 2.6-1 .5.3 1.2.7 1.9 1.2h3c.8 0 1.5.4 2 1 .7.5 1.3 1.2 1.4 2.6zm4.7-78.5c1 .9 1.8 1.5 2.5 2.3l1.2 1.5c.3.4.1 1.1-.3 1.4-.7.3-1.4.7-2.1.9-.8.2-1.6.1-2.1-.6-.8-1-1.7-1.9-2.4-3-.9-1.3-1.3-2.8-1.2-4.4 0-.8.1-1.5.3-2.3.1-.3.5-.6.8-.7.9-.2 1.8-.1 2.6.4.5.3.8.7.8 1.2-.1 1.1-.1 2.1-.1 3.3zm66 181.9c.7 0 1.1 0 1.5.1 1.2.1 1.9.8 2.3 1.8.4 1.3.8 2.7.8 4.2 0 .9-.8 1.8-1.7 1.8-.6 0-1.3 0-1.9-.2-1.2-.3-2.5-.7-3.8-1.1-.8-.6-1.5-1.3-1.5-2.6 1.4-1.3 2.8-2.6 4.3-4zm-33.1-20.6c-.6-.5-1.5-1.1-2.3-1.8-.1-.1-.1-.2-.1-.4.1-.2.3-.5.4-.6.8-.4 1.6-.8 2.3-1.1 1.1.1 2 .2 2.9.2.8.1 1.5 0 1.8 0 1 .4 1.3.9 1.5 1.3.4 1.1.8 2.2 1 3.3.1.6-.1 1.3-.1 1.9-.5.8-1.3.8-2 1-.5.1-1 .1-1.5 0-.7-.2-1-.7-1.3-1.4.2-.7.3-1.4.5-2.1-.9-.3-1.7.1-3.1-.3zm35.5 10.7c.6.9 1.1 1.6 1.6 2.3 0 1.1.1 2.1.1 3.1 0 1.1-.5 2-1.5 2.4-.2.1-.5.2-.9.3-2-.6-3.5-1.8-3.8-4.2 0-.6.2-1.2.4-1.8.2-.5.4-.9.6-1.4.9-.7 1.3-.8 3.5-.7zm-.3-122c.9.1 1.8.1 2.6.2.7.3 1.1.9 1.1 1.5.2 1.8.7 3.5 1.1 5.2 0 .6-.3 1-.7 1.4-.6.4-1.2.4-1.9.3-1.7-.3-3.2-1.8-3.2-3.4 0-1.4.1-2.8.2-4.2.2-.3.6-.6.8-1zm-24.8 166.5c.2-1.2.3-2.5.5-3.8 0-.2.2-.5.2-.7.3-.6.9-1 1.5-1.2 1-.4 2.2.1 2.5 1.1.7 2 1.1 3.9.8 6-.3.7-.8 1-1.5 1.2-.5.1-1 0-1.5-.3-.6-.4-1.3-.8-1.9-1.3-.2-.2-.3-.6-.6-1zm-66.7-73.5c-.3-1-.6-2.1-.9-3.1.1-.9.7-1.1 1.3-1.4.9-.4 1.8-.3 2.7 0 1.1.7 2.1 1.7 3 2.8.4.5.5 1.2.3 1.8-.3.8-1.2 1.5-2 1.5-1.6.1-3.1-.4-4.4-1.6zm61.1 5.7c.7 2 1.5 3.7 1.4 5.8-.2.9-.9 1.1-1.8 1.1s-1.8-.3-2.5-.5c-1-1-1.4-2-1.2-3.3.1-.5.1-1 .2-1.5.1-.8.4-1.5 1.1-1.9.9-.5 1.4-.4 2.8.3zm62.7-7.7c.2-.8.4-1.4.6-2.1.1-.2.2-.4.4-.7.5-.5 1.2-.6 1.8-.5.7.1 1.3.2 1.8.9.3 1.2.3 2.6.4 3.8-.2 1.2-.7 1.9-1.3 2.6-.6.7-1.6.8-2.5.4-.5-.3-.9-.6-.9-1.2-.2-1-.2-2-.3-3.2zm-12.3 40.3c0-1 0-2.1.1-3 .5-.8 1-1.1 1.6-1.2.5-.1 1-.1 1.5.1 1.1.4 1.9 1.3 2.4 2.3-.1 1-.6 1.7-1 2.5-.4.9-1.7 1.3-2.7.8-.8-.3-1.4-.7-1.9-1.5zm-14.1.4c-.4-.5-.7-.7-.9-1-.2-.3-.4-.7-.5-1 .5-1.2 1.4-1.8 2.7-1.8 1 0 2 .1 3 .3.9.1 1.5.9 1.7 1.8.1.5-.1 1-.5 1.4-.2.2-.4.3-.6.5-.5.2-.9.4-1.3.6-1.3.1-2.3-.5-3.6-.8zm-62.4 36.7c.3-1.1 1.2-1.3 2.1-1.6.8-.2 1.5-.1 2.2.3.2.1.4.3.6.5.4.6.8 1.3 1.1 2-.2.4-.4.8-.6 1-.9.5-1.8 1-3 .6-1-.7-2.1-1.4-2.4-2.8zm34.6-23.7c.1-.7.5-1.1 1-1.7 1.4-.5 2.9-.2 4.3.6.2.1.4.4.5.6.5 1-.4 2.6-1.4 2.7-1.7.2-3.3-.1-4.3-1.8 0-.1 0-.2-.1-.4zM376.2 240c1-1.2 2.3-1.3 3.8-.7.8 1.2 1.4 2.4 1.2 3.8-.5.5-.9.6-1.5.5-1.2 0-2.2-.6-3-1.4-.7-.5-.8-1.3-.5-2.2z"/>
    <path class="st0" d="M760.2 788.3c-1.3.2-2.2.5-2.4 1.3-.3 1-1.3 1.6-1.8 2.5-.1 3.5-1.3 7-2.7 10.4-.3.6-.5 1.2-.7 1.8-.4 1.2-.8 2.5-1.3 3.7-.3.7-.8 1.3-1.4 1.9-1 .9-2 1.7-3.2 2.3-2 1.1-3.7 2.4-5.2 3.8-1.3 1.2-2.7 2.3-4.4 3.1-.7.3-1.3.7-1.9 1.1-.5.3-1.1.6-1.7.7-2 .5-3.8 1.2-5.8 1.5-2.1 0-4.2-.1-6.3-.1-2.3-.3-4.4-1.1-6.8-1.1-.6 0-1.2-.3-1.8-.5-2.4-.8-5-1-7.6-1.1-1.4 0-2.8-.1-4.3-.2-.6 0-1.3-.1-1.9 0-1.3.2-2.6.2-3.9.1-1.3-.1-2.6.1-3.8.4-1.5.3-3 .5-4.5.8-1.4.3-2.7.6-4.1.9-6.4 1.2-12.3 3.3-17.7 6.2-2 1.1-4.1 1.8-6.3 2.4-1.5.4-3 .7-4.5 1-3.2.8-6.5 1.3-9.9 1.5-1.8.1-3.6.3-5.4.5-2.8-.2-5.6-.9-8.4-1.2-.8-.1-1.5-.3-2.2-.6-2-.7-4.1-1.3-6-2.2-3.9-1.7-8.2-2.6-12.5-3.3-2-.3-4.1-.7-6.1-1-.5-.1-1-.2-1.5-.2-2.7-.2-5.4-.4-7.9-.5-.7-.3-.8-.7-1-1.1-.4-.7-1-1.2-1.7-1.7-1-.7-2-.9-3.4-.4-.5.6-1.1 1.3-1.5 1.9-.6 1.2-.2 2.5-.8 3.6-.2.1-.4.3-.6.3-1 .1-2 .3-3 .7-.7.3-1.4.6-2.1.8-1.9.7-3.5 1.8-4.9 3.1-1.4 1.3-2.8 2.5-4 3.5-.5.3-.7.4-1 .5-1.6.5-2.9 1.4-4.6 1.6-2.5.3-5 .8-7.6 1-3.6.2-7.2.3-10.8.9-1 .2-2.1.1-3.1-.1-2.5-.6-5.1-.8-7.7-1-4-.3-8-.5-12-.7l-3.9-.3c-1.2-.1-2.3-.2-3.5 0-2.5.3-4.9-.1-7.3-.4-.5-.1-1-.3-1.5-.3-1.7-.1-3.2-.7-4.7-1.4-1.4-.6-2.8-1.1-4.5-1.8-1.7-1.3-4-2.5-6.3-3.7-2.4-1.3-4.7-2.6-7-3.9-2-1.1-4.1-2.2-6-3.5-1.5-1-3.3-1.7-4.9-2.5-1.1-.5-2.2-1.1-3.3-1.6-3.9-1.9-8-3.4-12.3-4.6-2-.5-3.9-1-5.9-1.5-1.5-.3-3.1-.4-4.6-.3-1.7.2-3.4.1-5.2.1-1.5.3-3 .9-4.7 1-.6 0-1.2.3-1.8.5-2.5.9-5 1.8-7.3 2.9-2.1 1-4.4 1.8-6.7 2.6-2.9 1-5.8 1.8-8.6 2.8-1.3.5-2.8.6-4.1 1-1.3.4-2.7.7-4.1.9-2.1.4-4.3.7-6.4 1.4-.7.3-1.5.4-2.3.4-.4 0-.8 0-1.2.1-3.4.9-6.9.6-10.4.9-1.4.1-2.9-.1-4.2-.4-3-.7-6-1.4-8.7-2.6-1.9-.9-3.9-1.6-5.8-2.6-3-1.5-6.1-2.8-9.3-3.8-1.1-.4-2.2-.6-3.4-.8-.9-.1-1.8-.3-2.7-.4-.4-.1-.8-.1-1.1-.1-1.8.2-3.6 0-5.4-.2-1.8-.1-3.6-.3-5.4 0-.8.1-1.5 0-2.3 0-1.6 0-3.1-.1-4.7-.1-.5 0-1.1-.1-1.5.1-1.9.5-3.8.4-5.7.8-1.9.4-3.8.6-5.7 1-2.5.5-5 1.2-7.3 2.2-1.7.7-3.3 1.7-4.7 2.8-1.1.8-2.1 1.5-3.3 2.2-1.9 1.1-3.6 2.4-5.1 3.9-.8.8-1.8 1.5-2.8 2.2-.8.5-1.6 1-2.4 1.7-1.3 1.1-2.8 1.8-4.4 2.6-3 1.5-6.4 2.3-9.7 3.1-.6.1-1.3.1-1.9.1-1 0-2.1.1-3.1.2-2.8.5-5.6.9-8.4 1.3-.6.1-1.3.1-1.9.1-1.4 0-2.8 0-4.2.3-1.3.3-2.6.1-3.9 0-3.1-.3-6.2-.3-9.3-.2-.6-.2-1.2-.3-2-.5-.4 0-1.1.2-1.7.2-1 0-2.1.2-3.1 0-3.2-.7-6.4-.7-9.6-1.1-1.5-.2-3.1-.3-4.6-.7-.7-.2-1.5-.2-2.3-.3-1.9-.2-3.9-.2-5.7-.9-.8-.3-1.8-.3-2.7-.3-1.6-.1-3.1-.2-4.5-.7-.6-.2-1.2-.3-1.9-.3-1-.1-2-.3-3-.6-.5-.2-1-.3-1.5-.3-2.2-.1-4.2-1.1-6.4-1.3-.8-.4-1.7-.4-2.6-.6-.8-.1-1.6-.2-2.2-.5-1.8-.9-3.9-1.2-5.9-1.6-1.8-.4-3.4-1-5.2-1.3-1.8-.3-3.5-.8-5.2-1.2-1-.2-2-.4-3-.5-1-.1-2-.4-3-.6-1.5-.2-3-.5-4.5-.9-1.1-.3-2.2-.6-3.4-.7-.4 0-.8-.1-1.1-.3-1.6-.4-3.1-1-4.8-1.3-1.6-.3-3.2-.7-4.9-1-2.4-.5-4.8-1-7-1.8-2.6-.9-5.2-1.2-7.9-1.6-4-.7-8-.5-11.9.4-.9.2-1.8.3-2.6.7-2 .9-4.2 1.6-6.3 2.4-2.5 1-4.8 2.1-6.9 3.6-.3.2-.6.5-.9.6-1.7.6-3 1.7-4.4 2.6-2.2 1.4-4.5 2.5-7.1 3.2-1.5.4-2.8 1.1-4.4 1.2-.4 0-.8.2-1.1.2-1.7-.1-3.3.3-5 .3-1.4.1-2.8-.1-4.2.3-2.1-.1-4.1-.1-6.1-.6-.6-.2-1.2-.4-1.9-.4-1.7-.1-3.3-.6-4.9-.9-1.5-.3-2.9-.8-4.4-1.3-1.9-.7-3.8-1.3-5.9-1.5-.6-.1-1.3-.2-1.9-.2-1.6 0-3.1-.1-4.7-.1-1.8.1-3.6.2-5.2 1-.6.3-1.2.3-1.9.4-.8.1-1.5.2-2.7.4-.9-.1-2.1-.3-3.6-.5-2.7.4-5.7.5-8.6-.3-2-.5-3.8-1.3-5.6-2.2-2.3-1.2-4.9-1.9-7.4-2.7-.8-.3-1.7-.4-2.6-.5-3-.2-5.9-.6-8.9-.3-.5 0-1-.2-1.1-.7 0-.1 0-.2.1-.3 1.4-1.2 2.9-2.4 4.3-3.6 1.9-.8 3-2.3 4.4-3.5 1.2-.9 2.1-2.2 3.6-2.9 1.3-1.3 2.6-2.6 3.9-4 .2-.2.3-.6.5-.9.2-.4.5-.8.7-1.1 1-1.5 2.3-2.8 3.3-4.3.9-1.5 2.3-2.8 3.5-4.3 1.3-2.8 2.5-5.7 3.8-8.6.1-.3.3-.6.5-.9 2.3-3.1 4.3-6.3 6.2-9.5.6-1 1.2-2.1 2-3.1.8-.9 1.4-2 1.9-3.1s1.3-2.1 2.4-2.8c1.1-2.7 2.5-5.2 4.6-7.3.2-.2.5-.5.6-.8 1-1.9 2.1-3.6 3.4-5.4.2-.3.2-.6.4-.9 2.3-2.6 3.4-5.7 5.7-8.3.3-.3.4-.8.7-1.1.5-.8 1-1.5 1.5-2.2 1.1-1.6 2.2-3.1 3.3-4.7.2-.3.3-.6.5-.8.8-1.2.7-2.7 1.9-3.8.7-1.3 1.4-2.5 2.2-4 .5-.5 1.2-1.1 1.8-1.8.8-.9 1.8-1.8 2.2-3 2-2.6 3.3-5.5 5.4-8.1.3-.3.6-.7.7-1.1.8-1.9 2.1-3.6 3-5.5.2-.4.4-.8.7-1.1.9-1.1 1.5-2.2 2.1-3.4.2-.5.4-1 .8-1.5 1.3-1.6 2-3.4 2.3-5.4 1.6-1.9 2.5-4 3.5-6 .7-1.5 1.5-2.9 2.1-4.4.7-1.6 1.7-3.1 2.6-4.6.3-.6.8-1.1 1-1.7.9-2.6 2.4-4.9 3.7-7.3.5-1 .8-2 1.3-3 .6-1.4.7-2.9 1.9-4.1 0-.6-.1-1.1-.1-1.6 1.3-2.1 2.6-4.1 3.3-6.4.1-.5.6-.9.8-1.4.6-1.2 1.3-2.3 1.6-3.6.5-1.9 1.3-3.6 1.9-5.5.4-1.2 1.1-2.3 1.9-3.8.1-.7.2-1.6.3-2.7.5-.7 1.1-1.6 1.7-2.5.2-.7.5-1.6.7-2.4.2-.7.5-1.4 1-2 .7-.9 1.2-1.9 1.3-3 .2-1.2.7-2.2 1.2-3.3.7-1.6 1.7-3.1 2.3-4.7.4-1.2.8-2.5.8-3.7 0-.4.1-.8.2-1.4 2.1-2.2 3.2-4.7 3.9-7.5.1-.5.5-1 .6-1.5.3-1.9 1.3-3.7 1.9-5.5.5-1.5 1.2-3 1.5-4.6.3-1.6.9-3.1 1.6-4.6.6-1.2.5-2.5 1.3-3.7.7-1 1.2-2.1 1.7-3.2.9-1.9 1.8-3.7 2.7-5.6.3-.6.7-1.2 1.1-1.7 1.2-1.3 2-2.7 2.8-4.2.6-1.2 1.4-2.3 2.3-3.3 1.6-1.8 3.1-3.7 4.6-5.5.4-.4.8-.9 1.1-1.3.7-1 1.4-2 2.6-2.8.3-.2.5-.5.8-.7.2-.3.5-.5.6-.8.9-1.7 2.4-3 3.4-4.6.6-.9 1.2-1.9 1.6-2.9.4-1 1-2 1.5-2.9.6-1.2.5-2.5 1.4-3.6.8-1 .7-2.2 1.2-3.3.6-1.2.9-2.4 1.3-3.7.2-.5.3-1 .3-1.6.4-3.2 1.3-6.3 1.9-9.4.1-.3.1-.6.2-.9.9-2.7 1.2-5.4 1.5-8.2.1-.7.3-1.5.4-2.2.1-.5.3-1 .4-1.6.4-2.6 1-5.2 2.2-7.7.3-1.8 1.2-3.5 1.5-5.2.2-1.2 1.2-2.1 1.2-3.3 0-.3.3-.6.5-.8.3-.5.8-.9 1-1.4 1.1-3 2.8-5.7 4.6-8.4.4-.6.8-1.1 1.1-1.7 1.1-1.9 2.6-3.6 3.6-5.6 1.1-1.2 2.1-2.4 3.3-3.5.7-.7 1.3-1.3 1.8-2.1 1-1.5 2.3-2.8 3.7-4.1.4-.4.9-.8 1.1-1.3.7-1.3 1.7-2.4 2.7-3.5 2.5-2.7 6.2-7.8 7.6-10.3l.9-1.8c.4-1 .8-2 1.5-2.9.4-.5.7-1.2.8-1.8.4-1.7 1.2-3.2 1.5-4.9.3-1.5 1.2-2.8 1.3-4.3 1-2.2 1-4.6 1.9-6.8.2-.6.3-1.3.4-1.9.5-2.4 1-4.8 2-7.1l.3-.9c.2-1.4.4-2.7 1-4 .5-1.2.4-2.5 1.2-3.7.3-1.7 1.2-3.2 1.4-4.9.1-.5.2-1.1.5-1.5.6-.9.9-1.8.9-2.7 0-.7.3-1.2.5-1.8.5-1.3 1-2.6 1.4-4 1-3.6 2.8-6.8 4.6-10.1 1.3-2.2 2.7-4.3 3.9-6.6 1.7-3.2 3.9-6.2 6.4-9.1 1.6-1.9 3.4-3.7 4.9-5.7 1.2-1.6 2.6-3.2 4.1-4.6.3-.3.6-.7 1-1 2-1.5 3.9-3.1 5.8-4.6 2.1-1.6 4.5-2.8 6.8-4.2.4-.3.9-.4 1.4-.6 1.9-.7 3.8-1.3 5.9-2.1 2.1.1 4.4.5 6.5-.2.6.2.9.5.6.8-1.1 1.2-2.3 2.3-3.5 3.4-1.6 1.5-3.3 3-4.4 4.8-.1.2-.1.4-.2.6.1.8.8 1.1 1.6 1.2.7.1 1.5 0 2.3 0 .2.1.3.3.1.6-3 3-4.1 6.5-4.7 10.3-.1.6.2 1 .8 1.3 1.1.6 2.3.9 4 .8 2.2-.9 4.6-1.9 6.5-3.5.4-.4 1-.6 1.6-.9 1-.5 2.1-.9 3.2-1.3 1.3-1.6 3.2-2.7 4.6-4.3.8-.9 1.7-1.9 2.7-2.7 1.1-.8 2.4-1.2 3.6-1.8 5.1-2.5 10.2-5 15.7-7 2.6-.9 5.3-1.7 8.1-2.2 3.3-.6 6.6-.9 9.9-1.5 1.6-.3 3.3-.1 5-.1 1.8.1 3.6.2 5.4.1 1.2 0 2.3-.2 3.4.2.6.2 1.3.2 1.9.2 3.4-.2 6.7.1 10.1.2 2.1.1 4.1.2 6.2 0 2.1-.2 4.1-.1 6.2-.3.6-.1 1.3 0 1.9 0 2.6 0 5.2.3 7.8.1.6-.1 1.3 0 1.9.1 1.7.2 3.4.2 5-.1.4-.1.8-.2 1.1-.1 4.3.1 8.5-.4 12.8 0 2.7.3 5.4 0 8.1-.3 2.8-.3 5.6-.7 8.5-.6 2.3.1 4.6-.2 7-.1h.8c1.9-.5 3.8-.3 5.8-.2 1.4.1 2.8.1 4.3-.1.6-.1 1.3-.1 1.9-.1 1.6.1 3.1-.1 4.6-.2 1.5-.1 3.1.2 4.6-.2.2-.1.5-.1.8-.1 2.6.4 5.2-.1 7.7-.4 3.1-.3 6.1-.8 8.9-1.9 2-.8 4-1.5 6.1-2.1 1.5-.4 2.8-1 4.1-1.8 1.3-.8 2.7-1.6 4.1-2.4.3-.2.7-.3 1.2-.4 2.3.3 4.5 1.4 7.1 1.8.4-.1 1.1-.1 1.7-.3 1.7-.5 3.6-.6 5.4-.5 2.2 0 4.4.3 6.6.5 1.4.1 2.8.5 4.1.9 2.6.9 5.3 1.6 8 2.5 2 .7 4.1 1.3 6 2.2 3.2 1.5 6.5 2.7 9.6 4.2 1 .5 2.1.9 3.1 1.3.6.2 1.2.4 1.7.7 1.5 1.1 3.3 1.7 4.9 2.5 2 1 3.9 2 5.6 3.4 1.2 1 2.6 1.8 3.8 2.7 1.2.8 2 2 3.4 2.6.5.2.9.8 1.3 1.2 1.5 1.7 2.7 3.7 3.6 5.6 3 6.2 6.1 12.4 8.6 18.7.2.4.3.8.5 1.2 1.8 3.1 3 6.3 4.9 9.3 2.1 3.4 3.9 6.9 5.6 10.5.1.3.2.6.4.9 2.7 4.1 4.6 8.5 6.6 12.9 1.8 3.9 4.1 7.5 7.1 10.9.8.9 1.6 1.9 2.5 2.9l1.2 1.2c3.3 2.7 6.1 5.8 8.9 8.8 1.4 1.5 2.5 3.2 4 4.7 1.6 3 3.8 5.8 5.3 8.8.7 1.4 2 5.4 2.3 7 .1.4.2.8.3 1.3.5 2.8 1.5 5.6 3.2 8.1 1.3 2.1 2.4 4.2 3.9 6.2.7.9 1.1 1.9 1.7 2.9l3.6 6c.1.1.1.2.2.3 1.9 1.8 2.9 4 4.7 5.8 2.3 2.4 4.6 4.9 7.4 6.9 1.7 1.2 3.3 2.3 5 3.5l.9.6c3.3 1.6 5.9 3.7 8.8 5.7.2.1.4.3.6.4 3.5 3.4 7 6.8 9.4 10.9.2.3.4.6.5.9 1.1 2.9 2.9 5.7 3.6 8.7 1.1 2.4 1.7 4.9 2.3 7.4 1.2 4.6 3 9 5.2 13.3 1.6 3 3 6.1 4.4 9.2 1.9 4.5 4.1 8.9 6.2 13.4 1 2.2 2.2 4.3 3.3 6.5.2.4.5.7.8 1.1 1.6 2.2 3.1 4.4 4.2 6.8.2.4.4.8.7 1.1 1.8 2.5 3.2 5.1 5.2 7.4.3.3.6.7.7 1.1.8 1.8 2.1 3.4 3.1 5.1 1.1 1.8 2.1 3.6 3.2 5.4 1.4 2.5 2.9 5 4.3 7.5.6 1.1 1.3 2.1 1.7 3.2.7 1.8 1.6 3.6 2.3 5.4 1 2.6 2.4 5.1 3.1 7.8.1.4.4.8.6 1.2.2.3.4.6.5.9.8 1.9 1.5 3.8 2.6 5.6 1.1 1.8 1.8 3.7 2.6 5.7 1.1 2.5 2.1 5 3.1 7.5.2.5.4 1 .5 1.5 1.2 4.7 3.1 9.2 5.2 13.7.3.6.5 1.2.7 1.8.5 1.2 1 2.4 1.6 3.6.6 1.3 1.3 2.5 1.7 3.9.2.7.6 1.4 1 2.1 1.2 2.1 2.4 4.2 3.6 6.4.4.7.7 1.4 1.1 2 .8 1.5 1.6 2.9 2.6 4.2.8 1 1.6 2 2.2 3 1.1 1.9 2.4 3.7 3.5 5.7 2.2 3.7 4.5 7.4 6.4 11.2 1.9 3.8 3.4 7.8 4.5 11.8.6 2.1 1.1 4.1 1.6 6.2.4 1.8.8 3.5 1.1 5.3.3 2.3 1.1 4.6 1.1 6.9.6 1.6.6 3.4 1 5 .8 3.4 1.3 6.9 1.8 10.4.2 1.6.5 3.1.8 4.7.4 2.3.9 4.6 1.3 6.9.2.8.2 1.7 0 2.5-.3 1-.4 2.1-.6 3.1-.3 1.2-2.1 2.1-3.6 1.8-1.1-.3-2-.5-2.9-.7zM516.3 453c1.4.9 2.6 1.7 4.2 2 .5.1 1 .3 1.4.5 1.6.8 3.3 1.2 5.1 1.5 1.3.2 2.5.5 3.8.8 3.2.7 6 1.9 8.4 3.8 1.2.9 2.2 1.8 2.9 2.9 2.1 3.1 3.9 6.2 4.7 9.7.1.5.3 1 .4 1.5 1.1 3.9 2.3 7.8 3.2 11.8.2.9.3 1.9.6 2.8.8 1.9 1.4 3.8 1.9 5.8.3 1.6 1.1 3 1.7 4.6.6 1.6 1.8 3 2.3 4.7l.3.6c.2.3.4.6.6.8.6.6 1 1.2 1.4 1.9 1.1 1.7 2.3 3.3 3.8 4.8 2.1 2.1 4.1 4.4 6.2 6.5.2.2.3.3.4.5 1.7 2.3 3.5 4.4 5.4 6.6.4.5.8 1.1 1.2 1.6 1.4 2 2.8 4.1 4.3 6 .9 1.1 1.6 2.2 2.1 3.4.3.7.6 1.4 1.2 2 1.1 1 1.6 2.2 2.1 3.4 1.1 2.6 2 5.3 3.1 7.8 1.2 2.7 2.2 5.4 3.3 8.1.8 2 1.9 4 2.6 6 1.2 3.2 3.2 6 5.2 8.9.4.6 1 1.3 1.6 1.8 2.3 1.9 4.7 3.7 7.3 5.2 2 1.2 4.1 2.3 5.7 3.8 3.7 2.4 6.1 5.7 8.9 8.8.8.8 1.3 1.8 1.8 2.8.9 2 2.2 3.8 3.3 5.7.4.7.8 1.3 1.1 2 1 2.3 2.1 4.5 3 6.9.8 2 1.9 4 2.5 6 .6 2.1 1.5 4 2.2 6.1.5 1.6 1.2 3.3 2 4.8.6 1.2 1.2 2.3 1.7 3.5.7 1.9 1.6 3.8 2.6 5.6.6 1.1 1 2.2 1.8 3.2.3.4.5.8.6 1.2.3 1 .9 2 1.4 3 .5 1.1.8 2.2 1.3 3.3 1.8 3.9 3.2 7.8 5.5 11.5 1.8 3 3.3 6.2 4.2 9.5.2.7.4 1.4.7 2.1.8 2 1.8 4 2.1 6.1 1.1 2.9 2.1 5.9 3.5 8.8.4.8.8 1.6 1 2.4.4 1.1 1 2.2 1.5 3.3.5 1.1 1.2 2.1 1.8 3.2 2.1 3.8 3.9 7.6 6.3 11.3.1.1.1.2.2.3.7 1.7 1.7 3.3 2.8 4.9 1.5 2.2 2.4 4.7 4.1 6.9.9 2.6 2.7 4.8 4 7.2 1.5 2.8 3.2 5.5 4.9 8.3.9 1.5 1.9 3 2.8 4.6 1.1 2.2 2.6 4.2 4.1 6.1 1.5 2.1 3.2 4.1 4.8 6.2.2.3.5.5.7.7 1.3 1.1 2.6 2.1 3.9 3.1 1 .8 2.3 1.4 3.7 1.7.7.2 1.6-.2 1.8-.9.2-.5 0-1-.5-1.5-.7-.2-1.5-.4-2.1-.7-2.3-1.4-4.4-2.9-5.8-5.1-.8-1.3-1.8-2.6-3-3.7-1.1-1.1-2-2.2-2.8-3.4-1.6-2.5-3.2-5.1-4.7-7.7-1.2-2.1-2.4-4.2-3.8-6.2-1.7-3.5-4.1-6.8-5.8-10.4-1-2.2-2.4-4.2-3.5-6.3-1.1-2.1-2.8-4.1-3.6-6.3-.1-.3-.3-.6-.6-.8-.9-.9-1.4-2-1.9-3.1-.9-1.8-1.6-3.6-2.7-5.3-2.3-3.5-4-7.1-5.6-10.8-.3-.6-.4-1.2-.8-1.8-1.3-2-1.3-4.3-2.5-6.3-.1-.1 0-.2 0-.3-.1-1.9-.9-3.7-1.9-5.5-.4-.7-.6-1.4-.6-2.1 0-1-.4-1.9-1-2.7-.5-.7-.9-1.5-1.2-2.3-1.4-3.3-3.5-6.4-4.8-9.7-.2-.5-.5-1-.8-1.4-.2-.4-.5-.8-.6-1.2-.7-2.2-1.5-4.3-2.5-6.3-.9-1.9-1.7-3.8-2.5-5.7l-.6-1.2c-.7-1.3-1.4-2.5-2.1-3.8-.7-1.4-1.4-2.7-2-4.1-1.4-2.8-2.5-5.6-3.4-8.4-.7-2.2-1.5-4.5-2.4-6.7-.9-2.2-1.9-4.4-2.9-6.6-1-2.2-1.9-4.4-2.9-6.6-.1-.3-.3-.6-.4-.9-1.9-2.7-3-5.6-5.3-8.1-.2-.2-.4-.6-.6-.8-1.1-1.8-2.6-3.4-4.3-4.9-1.3-1.1-2.6-2-3.7-3.3-.4-.4-.9-.8-1.4-1.1-1.8-1.1-3.5-2.2-5.4-3.1-1.9-1-3.5-2.2-5.1-3.4-1.6-1.2-3-2.7-4.1-4.2-1-1.4-1.9-2.8-2.8-4.2-.4-.6-.7-1.2-.8-1.8-.5-2.1-2-3.9-2.2-6.1 0-.4-.4-.8-.6-1.2-2.3-4.1-1.4-2.6-3.5-8.3-.6-1.5-.9-3.1-1.7-4.6-1.1-1.8-1.8-3.7-2.8-5.6-.5-.9-1.3-1.6-1.7-2.5-.5-1.3-1.4-2.3-2.3-3.3-.6-.7-1-1.5-1.5-2.2-.8-1.4-1.8-2.8-2.8-4.2-1.1-1.4-2.6-2.7-3.3-4.3-.2-.4-.6-.7-.9-1-1.7-1.9-3.4-3.7-5.1-5.6-.2-.3-.4-.5-.6-.8-.7-1-1.6-1.9-2.6-2.8-1.6-1.5-3.2-3.1-4.4-4.9-1.2-1.9-2.4-3.8-3.5-5.7-.5-.9-1-1.7-1.2-2.7-.4-2.1-1.4-4-2-6.1-.6-2.3-1.5-4.5-2.2-6.8-.4-1.4-1-2.9-.8-4.2-.4-.9-.8-1.7-1.2-2.5.2-1.5-.2-2.8-.7-4.1-.8-1.9-1.5-3.8-2.2-5.8-.2-.7-.1-1.5-.7-2.1-.7-.7-.7-1.6-1.3-2.3-.6-.7-1.1-1.4-1.5-2.2-1.2-2.1-3-3.7-5.3-4.9-1.2-.6-2.3-1.3-3.6-1.9-.8-.4-1.6-.8-2.4-1-1.7-.4-3.5-.8-5.3-1-1.5-.2-3-.5-4.5-.9-3.3-.8-4.2-1.4-5.9-3.8-.6-.8-1.3-1.6-1.4-2.6-.1-1.6-1.1-3.1-.8-4.7.1-.3-.1-.6-.2-.9-.2-.6-.1-1.2-.1-1.9.1-1.3.2-2.6 0-3.8-.2-1.4-.3-2.8-.2-4.1.1-1.5-.1-3-.2-4.4 0-.8-.3-1.7-.4-2.5-.2-1.4-.4-2.7-.7-4.1-.2-1-.6-2.1-1-3.1-.2-.5-.4-1-.7-1.5-1.6-2.7-3.7-5.1-5.8-7.5-1.3-1.5-2.9-2.7-4.3-4.1-2.2-.8-3.9-2.1-6.5-2.4-.5.1-1.1.2-1.5.3-.9.7-1.5 1.4-1.7 2.2.2.2.4.3.5.5 1.2-.1 2.3-.1 3.4-.2 3.4 1.2 6.2 2.9 8.2 5.3.9 1.1 2.1 2.1 2.9 3.4.3.5.9.8 1.3 1.2.9 1.8 1.9 3.7 2.9 5.7 0 1.4.4 2.8.8 4.2.6 1.8.9 3.7.7 5.7-.2 1.2-.1 2.3 0 3.5.2 1.2.1 2.3.2 3.5.2 2.8 0 5.5.4 8.3.9 2.3 1.7 4.7 3.3 6.9zM280.2 553.6c.8-1.5 1.5-2.5 1.9-3.6.6-1.7 1-3.5 1.5-5.3.4-1.4.7-2.9 1.2-4.3.3-.7.6-1.4.6-2.1.1-1.2.3-2.3 1-3.4.3-.4.4-.8.4-1.2.1-1.3.9-2.4 1.5-3.5-.2-2.3-.2-2.3 1.5-4.9.1-1.4.5-2.8 1.1-4.2.3-.8.7-1.6 1-2.4.3-.8.3-1.7.4-2.5.2-1.6.3-3.1 1-4.7.5-1.1.5-2.3.7-3.4.3-2.5 0-5.1-.5-7.6-.2-1.2-.7-2.5-1.6-3.6-1-1.1-1.6-2.5-3.1-3.2-1.9-2-3.7-4.1-4.6-6.7.1-2.3.2-4.7 1.1-7.1.2-.5.2-1 .3-1.6.1-.5.2-1.1.4-1.6 1.1-2.3 1.5-4.7 2.7-6.8 0-.6 0-1.2-.1-1.5.4-.8 1-1.5 1.1-2.2.2-1.3.7-2.5 1.5-3.6.4-.7.7-1.4 1-2.1.4-.8.7-1.6 1.1-2.4.3-.7.7-1.4.9-2.1.2-.7.3-1.4.4-2.1.5-.8 1.3-1.2 1.5-2 .1-.3.2-.6.4-.9.9-1.3 1.8-2.6 2.2-4 .1-.3.3-.6.5-.9 2.1-3.4 4.2-6.8 6.4-10.2.9-1.4 1.8-2.8 3-4.1.9-.9 1.6-1.9 2.4-2.9.4-.5.8-1.1 1.3-1.6 1.6-1.4 2.7-3.1 3.9-4.8 1.3-.8 2.4-1.9 3.3-3 .9-1.1 1.9-2.3 3.2-3.1.3-.2.5-.5.7-.8.4-.6.5-1.2-.3-1.7-.7-.2-1.4-.3-2.3 0-1.7 2-4.2 3.7-5.7 5.9-.1.2-.3.3-.5.5-1.2 1-2.1 2.2-3 3.3-.4.4-.6 1-1.1 1.3-1.4 1-2.2 2.3-3.2 3.6-1.4 1.7-2.7 3.3-4.1 5-.8 1-1.6 2-2.1 3-.8 1.7-2 3.2-3 4.8-1 1.7-2.2 3.4-2.9 5.2-1.1 2.7-2.7 5.3-3.8 8-.6 1.5-1.6 2.9-1.7 4.5 0 .3-.2.6-.4.9-.5.9-.9 1.8-1.4 2.6-1.1 1.7-1.8 3.5-2 5.4-.1 1.6-.7 3.1-1.6 4.6-.4.6-.6 1.2-.7 1.8-.2.9-.1 1.9-.5 2.8-.5 1.1-.7 2.3-1.2 3.3-.7 1.6-.9 3.3-.9 5 .1 2.9 1.1 5.4 3.6 7.5 1.2 1 2 2.2 3.1 3.2.7.6 1 1.5 1.4 2.3.4.8.8 1.6 1.2 2.2.6 3.7.5 7.3-.3 10.9-.2.7-.3 1.5-.4 2.2-.1.8-.3 1.4-.6 2.2-.7 1.7-1.4 3.4-1.6 5.2-.1 1.2-.4 2.3-.8 3.4-.6 1.7-1.2 3.5-2 5.2-.3.6-.5 1.2-.6 1.8-.1 2-1.2 3.9-1.5 5.9-1.2 2.8-2.1 5.7-2.9 8.6l-.3.9c-.7 1-.9 2.2-1.2 3.3-.3 1.3-.7 2.7-1.3 4-.3.8-.5 1.6-.7 2.5-.2.8-.6 1.6-.9 2.4-.1.2-.1.4-.1.6-.1 1.9-1.3 3.7-1.4 5.6-.8 1.5-1 3.1-1.2 4.6-.2.9-.4 1.9-.7 2.8-.2.7-.3 1.5-.5 2.2-.1.6-.2 1.3-.4 1.9-.5 1.2-.6 2.5-.8 3.8-.4 3-.7 5.9-1.2 8.9-.2 1.2-.4 2.3-.3 3.5 0 .9 0 1.7-.4 2.5-.5 1.1-.6 2.3-.6 3.4 0 1.3-.1 2.5-.4 3.8-.1.4-.2.8-.2 1.3-.1 3.5-.8 7-1.2 10.5-.3 2.7-.4 5.5-1.4 8.2-.2.5-.1 1.1-.2 1.6-.2.8-.2 1.7-.5 2.5-.6 1.6-.8 3.3-1.1 5-.1.6-.2 1.3-.4 1.9-.6 1.5-.8 3.1-1 4.7-.3 1.9-1 3.7-1.2 5.6-1.2 3.2-1.2 6.7-2.6 9.9-.1.2-.1.4-.1.6-.1 1.1-.4 2.1-.8 3.1-.3.8-.4 1.7-.6 2.5-.2.9-.3 1.9-.6 2.8-.5 1.4-.6 2.9-.9 4.4-.3 1.5-.9 2.9-1.3 4.3-.9 3.4-1.7 6.9-2.5 10.3l-.3.9c-.8 2-1.3 4.1-1.9 6.2-.7 2.5-1.2 5-2.2 7.4-.6 1.3-1.2 2.6-1.3 4 0 .3-.2.6-.4.9-.8 1.6-1.4 3.2-2 4.8-.5 1.5-1.3 3-2.2 4.4-.7 1-1.4 2.1-1.8 3.2-.6 1.4-1.4 2.7-2.3 4-1.8 2.7-3.8 5.3-5.4 8.1-.1.1-.1.2-.2.3-2.2 2.7-4 5.7-6 8.5-1.8 2.5-3.5 5-5.4 7.4l-.3 1.5c-.1.6.2 1 .9 1.2.2.1.5.1.7.2 2-.8 2.4-1.1 3-2.3.3-.6.6-1.2.9-1.7 1.8-2.8 3.7-5.6 5.6-8.4 4-5.7 7.8-11.5 11.2-17.4 1.5-2.7 3-5.4 4-8.3.1-.4.3-.8.5-1.2 1-2.2 1.9-4.4 2.6-6.7.4-1.4 1-2.8 1.5-4.3.5-1.4 1.1-2.8 1.3-4.3.3-2.2 1.6-4.3 1.7-6.5 1.5-3.1 1.5-6.4 2.7-9.6.2-1.9.9-3.7 1.4-5.6.6-2.8 1.6-5.6 1.8-8.5 0-.3.1-.7.2-.9.9-1.6 1.1-3.3 1.3-5 .1-1.1.3-2.1.9-3.1.4-.7.6-1.4.7-2.1.4-3.5 1.8-6.8 2-10.3.1-1 .8-2 .6-3.1-.1-.4.3-.8.4-1.2.2-.7.5-1.4.6-2.2.2-1.3.4-2.5.8-3.7.4-1.2.4-2.5.6-3.8.1-.7.1-1.5.4-2.2.7-1.5.8-3.1.9-4.7 0-.6.1-1.3.3-1.9.4-1.4.7-2.9.7-4.4.1-1.6.5-3.1.7-4.7.3-2.4.7-4.8 1.1-7.2.1-.9.2-1.9.3-2.8.1-.7 0-1.5.1-2.2.3-2.5.6-5.1.9-7.6.3-2.5.6-5.1.7-7.6 0-.9.2-1.9.6-2.8.5-.9.5-1.8.7-2.8.1-.6.1-1.3.4-1.9.3-.6.4-1.2.3-1.9-.1-.3 0-.6.2-.9.4-.7.5-1.4.5-2.2.1-.8.3-1.4.8-2.1.3-.5.5-1 .7-1.5.6-1.6 1-3.3 1.2-5 .1-.5.1-1.1.4-1.5 1.5-1 1.7-2.1 1.5-3.2zM429.9 483l-.6 4.5c-.2 1.4-.2 2.7-.8 4.1-.4.9-.4 1.9-.5 2.8-.1 2.4-.2 4.9-.6 7.3-.2 1.5-.1 3 .2 4.4.4 1.9 1 3.7 1.1 5.6 0 .3.2.6.3.9.3.8.5 1.6.8 2.5.4 1.3.7 2.7 1.4 4 .5 1 .7 2 1.1 3 .4 1.1.8 2.2 1.2 3.4.2.5.3 1 .5 1.5 1.4 3.6 3 7.2 3.7 11 .1.3.3.6.4.9.5 1.6 1.1 3.3 1.3 4.9.4 2.4.6 4.9 1 7.3.4 2.1-.1 4.2.8 6.3.1.3 0 .6 0 .9 0 1.3-.1 2.5-.1 3.9.3.7.6 1.5.9 2.3-.1 1.6-.1 3.2-.1 4.8 0 .3.1.6.2.9.4 2.2.8 4.4.6 6.6-.1.6.1 1.3.3 1.9.5 2.4.7 4.8 1 7.3.2 1.3.2 2.5.4 3.8.2 1.4.5 2.7.6 4.1.1 3.1.7 6.1.7 9.2 0 .4.2.8.3 1.2.1 1.4.7 2.7.8 4.1 0 1.4.5 2.7.5 4.1.1 2.8.5 5.5.9 8.2.2 1.7.5 3.4.8 5 .4 2.3.8 4.6 1.1 6.9.2 1.5.6 2.9.8 4.4.2 1.4.3 2.8.6 4.1.4 1.5.3 3 .5 4.4.2 1.7.4 3.4.9 5 .2.5.2 1 .3 1.6.3 1.5.4 2.9.6 4.4.5 2.9.9 5.9 1.1 8.8.2 1.7.3 3.4.7 5 .3 1.6.7 3.1.6 4.7 0 .7.2 1.5.3 2.2.4 2.3.9 4.6 1.3 6.9.2 1.4.5 2.7.6 4.1.1 1.5.5 2.9.7 4.4.4 2.3.7 4.6 1.1 6.9.2 1.5.3 3 .7 4.4.7 2.7.9 5.5 1.4 8.2.1.7.3 1.5.3 2.2 0 1.6.3 3.2 1 4.7-.3 2.5.3 4.9.6 7.3.4 3.2 1 6.3 1 9.5 0 1.7.2 3.4.3 5.1 0 .2.1.4.2.6.4.9.3 1.9.3 2.8 0 .6-.2 1.3 0 1.9.4 1.2.1 2.3.4 3.5.4 1.3.2 2.5.2 3.8 0 .3 0 .7.1.9.4 1 .3 2.1.2 3.2 0 .4-.1.9.1 1.3.4 1.3.3 2.5.4 3.8 0 1.4.2 2.8.4 4.1.4 2.4 1 4.8 1 7.2 0 .4.2.8.3 1.3.2.9.8 1.5 2 1.7 1-.1 1.3-.6 1.4-1.3 0-.5 0-1.1-.1-1.6-.4-2.3-1.1-4.6-1-6.9-.5-1.3 0-2.8-.5-4.1-.5-1.7-.4-3.4-.8-5-.3-1.8-.8-3.6-.4-5.4 0-.2 0-.4-.1-.6-.6-2.1-.3-4.2-.6-6.3-.2-.9-.1-1.9-.4-2.8-.2-.8.1-1.7-.1-2.5-.6-2-.2-4-.8-6-.1-3.1-.7-6.1-1.1-9.2-.2-2-.9-4-.6-6 .1-.5-.1-1-.2-1.6-.1-.6-.2-1.3-.2-1.9 0-1.5-.3-3-.8-4.4-.1-.4-.3-.8-.2-1.2.2-1.3-.2-2.5-.5-3.8-.5-2.7-1.1-5.4-1.4-8.2-.3-2.4-1-4.8-.9-7.3-.7-1.9-.5-3.8-.3-5.6-.3-.9-.6-1.7-.9-2.3-.1-1.3-.1-2.5-.4-3.6-.5-1.8-.7-3.6-.9-5.3-.3-3.2-1.2-6.3-1.5-9.4-.1-1.6-.3-3.2-.7-4.7-.3-1.4-.5-2.7-.4-4.1 0-1-.1-1.9-.4-2.8-.5-1.4-.7-2.9-.5-4.4.1-.8-.1-1.5-.2-2.2-.2-1.7-1-3.3-.7-5 .1-.3-.1-.6-.2-.9-.3-1.9-.8-3.7-.8-5.7 0-.9-.1-1.9-.4-2.8-.5-1.4-.6-2.9-.8-4.4-.1-1.1-.6-2.1-.7-3.1-.4-2.9-.7-5.9-1.3-8.8-.1-.7 0-1.5-.2-2.2-.4-1-.3-2.1-.4-3.1-.2-1.5-.1-3-.6-4.4-.6-1.8-.7-3.5-.8-5.3 0-1.1-.1-2.1-.3-3.2-.1-.6-.4-1.2-.5-1.8-.1-.6.1-1.3.1-1.9 0-.4-.1-.9-.2-1.3-.2-.6-.2-1.2-.3-1.9 0-.6-.1-1.3-.3-1.9-.3-.9-.5-1.9-.3-2.8.1-.3.1-.6 0-.9-.4-1.4-.2-2.8-.5-4.1-.4-2.1-.3-4.2-.9-6.3-.6-2.2-.9-4.4-.7-6.6.1-1 0-1.9-.3-2.8-.4-1.3-.6-2.7-.4-4.1.2-1.6.4-3.2 0-4.8-.4-1.6-.5-3.1-.6-4.7-.1-.7-.1-1.5-.2-2.2-.6-2.5-1.2-5-1.5-7.5 0-.4-.2-.8-.4-1.2-.8-2.2-1.6-4.5-2.1-6.8-.1-.5-.3-1.1-.6-1.5-.6-1-.9-2-1.2-3-.4-1.1-.8-2.2-1.4-3.3-.7-1.5-1.3-3-1.6-4.6-.1-.6-.4-1.2-.7-1.8-.3-.6-.4-1.2-.6-1.8-.7-2.6-1-5.2-2.1-7.7-.2-1.5-.9-2.9-.7-4.4.1-.4.1-.9-.1-1.3-.5-1.4-.3-2.7-.1-4.1l.6-6c.2-1.6.3-3.2.7-4.7.5-2 1-3.9 1.3-5.9 0-.3.2-.6.3-.9 1-1.5 1.3-3.2 2.6-4.6.3-.3.5-.8.7-1.1 1.2-2 2.5-3.9 4.7-5.4.2-.1.4-.3.6-.4.7-.6 1-1.2 1-2 0-.4-.1-.8-.1-1.2-.3-.3-.4-.6-.7-.9-2.1-2.1-3.1-4.6-3.6-7.3-.4-2.3-.7-4.6-.9-6.9-.1-.6.1-1.3.2-1.9.2-2.5.3-5.1.4-7.6 0-.2-.1-.4-.1-.6-.1-1.1-.1-2.1-.2-3.2 0-.2-.1-.4-.1-.6-.6-.7-.8-1.6-1.7-2.1-1.3.2-1.4.3-1.7.6-.4.5-.4 1-.2 1.5.3.8.7 1.6 1 2.4.1 1.4.3 2.8.4 4.1-.3.7-.5 1.3-.7 1.9.2.6.4 1.1.6 1.7 0 .4-.1.8-.1 1.2-.2 1.5-.2 3 .1 4.4.3 1.9.3 3.8.5 5.7.1 1.5.5 2.9 1.3 4.3.6 1 1.2 2.1 1.7 3.2.5 1 .4 1.9-.5 2.7-2.2 1.8-3.8 4-5.5 6.2-.5 1.6-1.4 3.6-2.9 5.9zM183.8 639.4c.6 1.9.5 3.8.3 5.7-.2 2.5-.5 5.1-.3 7.6 0 .3 0 .6-.1.9-.3.6-.2 1.2-.2 1.9-.1 2-.3 4-.3 6 0 2.1-1.1 4.1-.8 6.3 0 .3-.2.6-.3.9-.6 1.8-1.1 3.7-1.5 5.6-.4 1.8-.9 3.5-1.5 5.2-.5 1.3-1 2.6-1.6 3.9-.4 1-.9 2-1.4 3-.5 1.1-1.1 2.1-1.6 3.2-1.7 3.7-3 7.4-5.1 11-.1.2-.1.4-.2.6-.4.9-.8 1.8-1.3 2.7-.7 1.4-1.7 2.6-2.2 4-.5 1.3-1.2 2.5-1.9 3.8-1.2 2.2-2.4 4.4-3.8 6.6-.4.7-.8 1.3-1 2.1-.7 2.2-2.2 4.1-3.4 6-.8 1.3-1.8 2.6-2.4 4-.2.4-.4.8-.7 1.1-1.2 1.4-1.9 3-2.8 4.5-.4.7-.7 1.4-1.2 2-3 4.4-5.9 8.7-8.9 13-3.3 4.8-6.7 9.5-10.4 14.2-1.2 1.5-2.3 3-3.4 4.6-1.5 2.2-3.3 4.3-5.6 6-1.4 1.1-2.7 2.3-4.1 3.4-.4.3-.6.7-.5 1.2.2.8 1.6 1.4 2.4 1.1.9-.4 1.8-.8 2.7-1.1 1.6-1.6 2.7-3.3 4-4.8 2.6-2.9 5.2-5.8 7.2-9 .1-.1.1-.2.2-.3 3.7-4.5 7-9.1 10.1-13.9.9-1.5 2-3 3-4.4 1.2-1.6 2.6-3.2 3.3-5 .1-.2.2-.4.4-.6 1.6-2.2 2.8-4.5 4.4-6.7 1.2-1.6 2.4-3.3 3.1-5.1.2-.4.4-.8.7-1.1 1.2-1.4 1.9-3 2.8-4.5 1.5-2.6 2.5-5.3 4.2-7.8 1.3-1.8 2.5-3.7 3.2-5.8.1-.4.4-.8.6-1.2.7-1.4 1.2-2.8 2.1-4.1 1-1.3 1.5-2.7 2.1-4.1 1.6-3.1 3.3-6.2 4.6-9.5.9-2.2 2.1-4.3 3.1-6.5.2-.5.5-1 .5-1.5.2-1.3.7-2.5 1.3-3.7 0-1.3 1.1-2.4 1.6-3.5.1-1.4.2-2.8.8-4.1.2-.5.1-1.1.3-1.6.6-1.4.6-2.9 1.1-4.3.7-2 .6-4 1-6 .1-.5-.2-1-.3-1.3.2-.8.5-1.4.6-2 .2-1.9.3-3.8.5-5.7.1-.6.3-1.3.2-1.9-.4-1.4-.1-2.7.1-4.1.2-1.1.3-2.1.1-3.2-.2-1 .1-1.9-.1-2.8-.2-1.1.3-2.1.6-3.1.1-.6.3-1.3.3-1.9.1-1.6.6-3.1 1.3-4.6.2-.5.3-1 .5-1.5.2-.7.4-1.4.7-2.1.8-2.3 1.8-4.7 3.3-6.8.5-.7.8-1.6 1.2-2.3 1.1-2.1 2.1-4.3 4.1-6.1.3-.2.3-.6.5-.8 1.1-1.6 2.1-3.2 3.3-4.7.7-.9 1.2-1.9 2-2.7.9-.5 1.8-.9 2.6-1.4.6-.3.8-.8.8-1.5-.2-.2-.4-.5-.6-.8-1-.1-2-.1-3-.2-1 .4-1.8 1-2.3 1.7-1.2 2.1-2.9 4-4 6.2-.1.3-.3.6-.5.8-1.3 1.2-2.1 2.7-3.1 4-1.9 2.6-3.9 5.2-5 8.2-.1.4-.4.8-.6 1.2-.5.9-.9 1.7-1.3 2.7-.6 1.6-1.1 3.3-1.8 4.9-.8 1.8-1.3 3.7-1.5 5.6-.2 1.3-.6 2.7-1.2 4.3zm116.7-1.3c.9 1.6 1.9 3.5 3.1 5.2 1.3 1.9 2 3.9 2.6 6 .4 1.5.8 3.1 1.1 4.7.2 1.3.5 2.5.3 3.8-.1 1 0 2.1.2 3.2.1.7.2 1.5.1 2.2-.1.8 0 1.7 0 2.5-.1 1.2.3 2.3 0 3.5-.2 1.2-.3 2.3-.4 3.5-.4 4.3-.7 8.7-1 13-.1 1.5-.1 3-.2 4.5.5 1.3.2 2.5 0 3.8-.2 2.6-.4 5.3-.6 7.9 0 .7.1 1.5.1 2.2 0 .6.1 1.3.1 1.9-.2 2.4-.4 4.9-.5 7.3-.1 1.7-.3 3.4.1 5.1.1.5 0 1 0 1.6 0 .5-.2 1.1-.1 1.6.3 2.7-.2 5.5.6 8.2.1.3.1.6.1 1-.2 1.7.2 3.4.1 5.1-.1.9.1 1.9.2 2.9.3 2.1.6 4.2.6 6.3 0 .7.2 1.5.3 2.2.1.6.2 1.3.2 1.9-.1 1.9.1 3.8.4 5.7.8.7 1.7.9 2.7.4.4-.6.8-1.1 1.1-1.5.2-1.1-.1-1.8-.5-2.7-.7-1.5-1.1-3-1.2-4.6-.1-2.1-.7-4.2-.4-6.3 0-.2-.1-.4-.2-.6-.8-1.5-.6-3.1-.6-4.7.1-1.1 0-2.1-.1-3.2-.1-.6-.1-1.3-.1-1.9 0-2.3-.6-4.6-.1-7 .1-.7-.1-1.5-.2-2.2 0-.6-.1-1.3.1-1.9.1-.6.2-1.2.1-1.9-.1-1.1-.1-2.1-.1-3.2-.8-1.1.4-2.3.1-3.4.2-.8.5-1.6.1-2.5-.1-.3-.1-.6-.1-.9.1-1.5-.2-3 .3-4.4.2-.8-.5-1.7 0-2.5.1-1.6-.1-3.2.2-4.7.1-.4-.2-.8-.3-1.2-.2-.7-.2-1.5.3-2.2.4-.6.5-1.2.5-1.8 0-1.2.2-2.3.4-3.5.2-1.2.1-2.3.2-3.5-.7-1 .1-2.1-.2-3.1.6-1.6.3-3.2.4-4.7.1-.8 0-1.7 0-2.5 0-.6 0-1.3.2-1.9.4-2 .6-4 .6-6s.6-4-.2-6c0-.1-.1-.2 0-.3.5-1.4-.2-2.7-.4-4.1-.2-1.3-.4-2.5-.7-4.1-.7-1.4-1.7-3.2-2.2-5-.1-.4-.4-.8-.7-1.1-.7-.7-.8-1.6-1.3-2.3-.6-.8-1.2-1.6-1.7-2.5-.9-1.6-1.7-3.3-1.2-5.2.1-.2 0-.4 0-.6-.3-3.6.7-6.9 2.1-10.2-.1-.6-.1-1.1-.2-1.7 1.3-3.4 2.7-6.8 3.4-10.3.8-1 1.3-1.9 1.6-2.9.6-1.6.8-3.3 1.8-4.8.1-.2.1-.4.2-.6.1-.9.5-1.6.9-2.4.6-1.2 1.2-2.3 1.8-3.5-.1-.6-.4-1-1.1-1.3-1 .1-1.7.5-2.3 1.2-.4 1.2-.8 2.4-1.4 3.6-.7 1.6-1.2 3.2-1.7 4.9-.4 1.3-.8 2.7-1.4 4-1.1 2.4-1.5 4.9-2.6 7.3-.9 4-2 7.9-3.1 11.8-.1.5-.2 1-.3 1.6-.5 2.1-.7 4.9.1 7.8zm71.4-82.5c.1.4.2.7.3 1 1.1 2.2 1.6 4.5 1.9 6.8.2 1.7.3 3.4.4 5.1 0 .3 0 .7-.1.9-.6 1.2-.5 2.5-.3 3.8.1.5.1 1.1 0 1.6-.3 3.1-.5 6.1-.8 9.2-.3 3.1-.7 6.1-1 9.2-.3 3.1-.9 6.1-1 9.2 0 1.2-.3 2.3-.6 3.5-.3.9-.5 1.9-.5 2.8-.1 1.9-.5 3.8-.8 5.7-.2 1.9-.4 3.8-.9 5.7 0 .2.2.4.2.6.7.4 1.4.9 2.4.7 1.8-.8 1.8-.8 2.5-1.9-.2-.3-.5-.5-.5-.8-.1-.8-.2-1.7-.3-2.5 0-.4.1-.8.2-1.2.1-.3.2-.6.2-.9-.4-1.7.1-3.4.4-5 .4-2.3.6-4.6.9-7 0-.4 0-.8-.1-1.3-.2-1-.1-1.9.3-2.8.5-1.3.6-2.7.7-4.1 0-.6 0-1.3.1-1.9.4-3.3 1-6.5.9-9.8 0-.4 0-.9.2-1.3.3-1 0-1.9 0-2.8.1-.9.5-1.9.6-2.8.1-.4 0-.8-.1-1.3-.1-2.5-.1-5.1.2-7.6.2-1 .1-2.1-.1-3.2-.3-1.6-.4-3.2-.6-4.7-.3-1.7-.8-3.3-1.9-4.8-1.1-1.6-2.3-3.1-3.6-4.5-.9-.9-1.6-1.9-2-3.3.2-1.7.4-3.6.7-5.5.3-1.9.7-3.8 1.1-5.6.7-3.1.8-6.3 1.4-9.5.4-2.4.1-8.6-.2-11.1-.1-.9-.4-1.7-1.1-2.3-.3-.2-.6-.4-1-.4-.3 0-.7.2-1.1.3-.1.4-.3.9-.2 1.3.2 1.4.2 2.7.2 4.1 0 .6 0 1.3.1 1.9.3 1.3.2 2.5.1 3.8-.2 2.4-.4 4.9-.1 7.1-.3.9-.7 1.6-.6 2.4.1.4 0 .8-.1 1.3-.5 2.4-.5 4.9-1.6 7.2-.1.3-.1.6-.1.9-.3 1.8-.7 3.6-1 5.3 0 .2 0 .4-.1.8.4.8.8 1.7 1 2.3 1.9 1.6 3.6 3.4 5.4 5.4zm232.7 209.1c.1.2.2.4.4.5 1.6 1.1 2.9.9 3.9-.4.3-.5.6-.9.9-1.4.4-.8.7-1.6 1-2.4.2-.8.2-1.7.5-2.5.3-.9 1-1.7 1-2.7 0-.4.1-.9.3-1.2.6-1.1.7-2.2.8-3.4.1-1.1.3-2.1.8-3.1.4-.7.4-1.4.6-2.2.2-.8.1-1.7.4-2.5.6-1.5.8-3.1 1-4.7.2-1.3.2-2.5.9-3.7.2-.3.2-.6.2-.9 0-2.3.6-4.6.7-7 .1-1.6.2-3.2.2-4.8 0-1.1-.2-2.1-.2-3.2s-.5-2.1-.5-3.2c0-.7-.4-1.4-.5-2.2-.1-.8-.2-1.7-.3-2.5-.3-2.3-.8-4.6-1.7-6.8-.4-1-.5-2.1-.8-3.1-.1-.5-.2-1-.4-1.5-.5-1.3-.9-2.7-1.3-4-.5-1.6-.7-3.3-1.3-5-.5-1.2-.5-2.5-.2-3.8.4-1.5.9-3.1 1.3-4.5 2.9-3.2 1.9-2.8 6.4-4.6.1 0 .2-.1.2-.2.1-.1.1-.2.1-.3-3-.9-3.9-.8-6.1.6-.2.1-.4.3-.6.4-2.2 1.3-3.5 3.1-4 5.3-.8 3.5-1 6.9.3 10.4.8 2.2 1.3 4.5 2.1 6.8 1.4 4 2.5 8 3.3 12.1.5 2.4 1 4.8.8 7.3-.1.8.1 1.7.2 2.5 0 .7.2 1.5 0 2.2-.5 3-.6 6.1-1.2 9.2-.3 1.4-.7 2.7-.7 4.1-.1 2.1-.8 4.2-1.3 6.3-.5 2.3-1.6 4.5-2 6.8 0 .3-.3.6-.3.9-.5 2-1.7 3.8-1.9 5.8-.7 1.7-1.1 3.5-2.6 4.9-.3.3-.5.7-.7 1.1.3.2.4.4.3.6zm31.5-74.7c.5.6 1.1.8 1.7 1 .7.3 1.7-.1 1.9-.7.4-1.5.6-2.9.4-4.4-.2-1.6-.5-3.1-.9-4.7-.4-1.7-.8-3.3-1.1-5-.3-1.2-.5-2.5-.8-3.7-.9-3.3-1.8-6.6-2.8-9.9-.2-.7-.4-1.4-.4-2.2 0-.1-.1-.2-.1-.3l-.2-.2c-.2.1-.5.1-.7.2-.2.1-.3.4-.3.5.4 1.2.1 2.5.3 3.8.4 2.7.6 5.5 1.5 8.1.3.8.3 1.7.5 2.5.1.5.1 1.1.4 1.5.8 1.4.8 2.9 1.2 4.3.1.5 0 1.1.2 1.6.3.7.4 1.4.5 2.2.1.8.2 1.7.3 2.3-.4 1.3-1.3 2-1.6 3.1zM356.2 30.9c-.1-.8.1-1.5.8-2 .9-.6 1.7-1.2 2.6-1.7.6-.4 1.3-.8 1.9-1.4 1.8-1.9 4.1-3.2 6-4.9.4-.3.8-.6 1.3-.8 3.2-1.7 6.5-3.1 10.1-3.9 1.5-.3 3-.8 4.4-1.4 3-1.2 6-2.4 9.2-2.9.6-.1 1.2-.3 1.8-.6.7-.3 1.4-.6 2-.8.4-.7.8-1.2 1.1-1.8 1.2.2 2.3.6 3.2 1.2.2.1.3.4.4.7-.2 1-1.3 1.2-1.8 1.9-.3.4-.4 1-.1 1.4.1.1.1.2.2.3.7.8 1.4 1.5 1.9 2.1 1.5.5 2.8.3 3.9-.5.1-.2.3-.4.4-.7.4-.9.4-1.7-.3-2.5-.3-.4-.8-.6-.8-1.4.2-.4.6-.9.9-1.4.1-.2.4-.3.6-.3.2 0 .4.2.7.3.6.9.3 2.1 1.1 3.1 1.6.6 3.4.3 5.2.6 2.1 1.1 4.3 2.3 6.5 3.3 1.4.6 2.9 1.1 4.4 1.5 1.5.4 2.9 1 4.2 1.9.9.6 1.8 1 2.8 1.6.4.5.9 1.1 1.3 1.8.2.3.3.7.4 1.1.1.4.1.7-.1 1.1-.2.2-.7.3-1.1.2-1-.5-2.1-1-3.1-1.5-.9-.5-1.8-.9-2.8-1.2-1.2-.4-2.4-1-3.5-1.6-1.9-1.1-3.9-2-6-2.7-1.3-.5-2.6-1.2-4-1.5-1.4-.3-2.8-.2-4.2-.3-.6 0-1.3-.1-2.1-.2-.8.4-1.7.8-2.8 1.3-.9-.1-1.9-.2-2.9-.2-.8.3-1.5.6-2.2.9-.2.4-.5.7-.6 1.1-.3.9-.1 1.5.6 2 .4.3.9.5 1.4.6 1.4.3 2.8.4 4.2.3 1-.4 1.9-1 2.2-1.9.4-.1.7-.2.9-.1.9.1 1.8.4 2.7.5 1 .1 2 .4 3 .8 3 1.2 6.1 2.2 9 3.6.7.3 1.5.4 2.4.6 1.6 1 3.2 2.3 5.2 2.9.7.2 1.4.7 2 1.2.9.6 1.7 1.2 2.5 1.9.3.5.6 1.1.9 1.7.4.7.6 1.5 1 2.1 2.2 2.9 3.3 6.4 5.1 9.5.3.5.5 1.2.6 1.8 0 .3-.2.7-.3 1-.6-.2-1-.6-1.3-1-1.1-1.6-2.1-3.3-3.1-4.9-1-1.5-1.9-3.1-3-4.7-1-1.1-2.1-2.4-3.3-3.5-1.7-1.5-3.3-3.2-5.4-4.4-1-.6-1.9-1.3-2.9-2-1.5-1.1-3.1-1.8-4.8-2.5-3.3-1.3-6.7-1.7-10.2-2-1.4-.1-2.8.3-4.2.7-1.6.5-3.2.9-4.8 1.3-.2.1-.5.1-.9.1-1-.6-2.1-1.3-3.2-2.1-.2-.8-.4-1.5-.6-2.2-.4-.5-.9-.5-1.4-.4-1.2.3-2.5.7-3.7 1.1-1.9.7-3.9 1.4-6 1.7-.9.1-1.7.6-2.6.9-.6.2-1.3.2-1.9.3-.1 0-.2-.1-.3-.2-.2-.2-.1-.4.2-.6.4-.3.9-.6 1.3-.8 2.6-1 5.2-2.3 7.8-3.5 1.3-.6 2.6-1 4-1.5l3-.9c1.3-.3 2.3-1.1 3.1-2.2.6-.8.4-1.8-.5-2.3-.2-.1-.5-.2-.9-.4-.7.2-1.6.3-2.5.5-.1 0-.2.1-.4.1-3.8 1.2-7.6 2.5-11.1 4.5-.4.2-1 .4-1.4.6-.8.4-1.7.7-2.5 1.1-2.8 1.5-5.8 2.8-8.8 4-2.6 1.1-5 2.7-7.3 4.4-1 .8-2.1 1.5-3.2 2.2-.6.4-1.4.6-2.1.9h.6zM366.5 16c-1.3 1.1-2.3 1.9-3.3 2.7-1 .8-2.2 1.4-3.1 2.4-.8.9-1.7 1.5-2.7 2.1-1.1.6-1.9 1.7-3.1 2.3-.1-.4-.3-.6-.3-.8.8-1.9 2-3.6 3.3-5.2 1.6-2 3.3-4 5.3-5.7 1.8-1.5 3.7-2.8 5.9-3.5.6.4 1.2.7 1.9 1.1 1.5 0 3.2.6 4.7-.7 0-.4.1-.8 0-1.2-.3-1.2.5-1.8 1.5-1.7.9.1 1.8.3 2.7.4.4 0 .7-.2 1.1-.3.1-.5.2-1 .2-1.5.2-.1.4-.4.6-.4 1.7-.2 3.4-.1 5-.6 2.8.1 5.7 0 8.5.9-.1.3-.2.5-.3.7-.1.1-.2.2-.3.2-2.3.3-4.4 1.3-6.7 1.8-.9.2-1.7.5-2.5 1-1.3.7-2.6 1.1-4 1.3-1.1.2-2.3.3-3.4.7-2 .7-3.9 1.3-6 1.7-.5.1-1 .4-1.4.6-1.3.5-2.5 1.1-3.6 1.7z"/>
    <path class="st0" d="M352.9 49.3c.7-1.1 1-1.6 1.3-2 2-2.8 4.4-5.4 6.9-7.8 2.2-2 4.7-3.6 7.1-5.3 1-.7 2.3-1.2 3.4-1.8 2.6-1.4 5.3-2.6 8-3.9.8-.4 1.7-.5 2.6-.8 2.4-.8 4.9-1.5 7.3-2.5.5-.2 1-.1 1.4.6-.1.5-.2 1.1-.3 1.6-.3.2-.5.4-.7.5-1.2.5-2.4.9-3.5 1.6-2.1 1.1-4.1 2.1-6.3 3-1.5.6-3 1.4-4.5 2.2-1.9 1-3.9 2-5.9 2.9-1.7.7-3.2 1.6-4.6 2.8-1 1-2.4 1.6-3.3 2.7-.2.3-.6.5-.9.7-2.5 1.2-4.4 3.1-6.5 4.9-.3.1-.5.2-1.5.6zm78.8-6.3c-.2-.1-.5-.2-.7-.4-2.6-2.4-5.7-4-8.6-5.8-.2-.1-.4-.3-.7-.4-1.3-.5-2.7-.6-4-1.4-1.2-.7-2.6-1.1-3.9-1.7-.4-.1-.7-.3-1.1-.3-1.3-.1-2.5-.4-3.7-1.1-.2-.1-.5-.2-.7-.2-1.2-.3-2.6.1-3.7-.8-1.1-.3-2.2-.5-3.5-.8.2-.3.4-.6.5-.8.8-.1 1.6-.1 2.5-.2l1.8-1.2c.3 0 .6-.1.8-.1.6.1 1.3.2 1.9.2 2.6 0 5 .9 7.4 1.9 1.2.5 2.4 1 3.5 1.6 1.1.9 2.2 1.8 3.2 2.7.7.6 1.4 1.1 2.2 1.6 2.3 1.4 4.3 3.2 5.9 5.4.4.5.5 1.2.6 1.8h.3zm-81.5 10.3c.1.2.2.5.2.7 0 .9-.2 1.8-.7 2.6-.6 1-1.2 2-1.6 2.8-.8 1.6-.7 3.3-1.4 4.6-.8.1-1.3-.3-1.5-1-.3-1-.3-2.1.3-3 .9-1.4 1.7-2.9 2.4-4.4.4-.8 1-1.5 1.6-2.1.2-.2.5-.2.7-.2zm31.6-15.5c-.1.2-.2.5-.4.6-1.1.6-2.3 1.1-3.4 1.7-1 .6-1.9 1.3-2.9 1.9-.3.2-.7.4-1.1.4-.5.1-1 .2-1.4-.3 0-.1 0-.2.1-.3.1-.2.3-.5.5-.6 2.3-1 4.6-2.3 6.8-3.5.6-.3 1.2-.4 1.8.1zm-24.9-.2c-.4-.4-.4-.8-.2-1.1 1.8-1.8 3.7-3.5 5.9-4.7.3.2.5.5.3.7-1.7 2-3.8 3.6-6 5.1zm84.6 27.6c-.2.2-.3.5-.5.5-.4 0-.8 0-1.1-.3-.8-.9-1.4-1.8-1.4-3.1 0-.1.1-.2.2-.3.2-.2.4-.2.6 0 .3.3.6.5.8.8.6.8 1.3 1.4 1.4 2.4zm-10-22.1c.8 0 1.4.4 1.7 1.1v.3c-.1.1-.2.2-.3.2-1 0-1.3-.4-1.3-1.7l-.1.1zm-85.9 27c-.1-.1-.4-.3-.4-.4.1-.8.3-1.5.4-2.4.5.4.3.9.3 1.3 0 .5.1 1.1-.3 1.5zm22.9-47.9c.1-.2.2-.5.3-.6.9-.6 1.8-.9 2.9-.7l-.1-.1c0 .1 0 .3-.1.4-.8.6-1.8 1.4-3 1zm.3 5.7c-.1.7-.6 1.1-1.2 1.4-.3.1-.7.1-.8-.4.6-.6 1.2-1.1 2-1zm-18 16.3c-.3-.4-.2-.7.2-.9.2-.2.4-.2.6 0 .2.2.1.4-.2.6-.2 0-.4.2-.6.3zm5.3-13.4c-.3.4-.6.8-.9 1.1-.2.2-.4.1-.5-.2 0-.1.1-.3.1-.3.4-.4.9-.4 1.4-.4l-.1-.2zm-6.8 15.8c.1.3 0 .5-.3.5-.1 0-.2-.2-.2-.3l.3-.6c0 .2.1.3.2.4z"/>
    <path class="st2" d="M395.6 169.6c-.6-.6-1-1.1-1.6-1.7-.6-.1-1.4-.3-2.1-.4-2.3-.2-4.6-.3-7-.4-1 .3-1.9.8-2.3 1.8 0 1.3.8 2.1 1.6 3-.9.7-1.9 1.3-2.8 2-2.3 2.1-4.8 4-6.9 6.2-.4.5-1 .8-1.6 1.1-1.5 1-2.4 2.3-2.7 4.1-.2 1-.3 2.1-.6 3-.3 1-.9 1.9-1.3 2.8-.2 1.3-.4 2.6-.6 4 .2.6.5 1.3.6 2.1.1.9 1.2.9 1.3 1.7-1.4.7-2.9 1.3-4.4 1.4-1.9.2-3.8.7-5.8.5-1.8-.2-3.6-.4-5.4-.5-1.7-.2-3.2-.8-4.8-1.5-.1 0-.1-.2-.2-.3 0-.9.8-1.3 1.2-1.9.1-.2.2-.5.3-.7.2-1.1.1-2.3.9-3.3.2-.3.3-.7.3-1.1.1-.2.2-.5.1-.8-.5-1.5.3-3.1 0-4.6l-.3-1.2c.3-.9.7-1.9.8-2.9.2-1.6 1-2.9 1.9-4.2 1.6-2 3.2-4.1 4.9-6.3 1.4-1 2.9-2.2 4-3.8 2.5-2.5 4.6-5.3 7.1-7.7.4-.3.6-.8.9-1.2 1.5-2.1 3.1-4.1 5.2-5.8.7 0 1.5-.1 2.2 0 5.6.6 5.6.6 8.8 1.7 1.6 1.2 3.3 2.4 5.3 3 1.2.4 2.3 1.2 3.5 1.7 1.8.7 3.7 1.1 5.6 1.4 1.3.2 2.5.5 3.7 1.1.1.5-.1.8-.5.8-1.3 0-2.5-.4-3.8-.7-2.3-.5-4.5-1.1-6.8-1.3-.5 0-1.1-.1-1.5-.3-1.7-.8-3.5-.7-5-1-1.1.2-1.8.4-2.4 1.1.1 1.2.4 2.4 1.5 3.3 1 .6 2 .6 3 .7 2.1.1 4.1.4 6.1.9.9.2 1.8.4 2.7.5.9.1 1.8.4 2.6.6 1.2.4 2.5.5 3.7.8.4.1.5.7.2.9-1.9 1-4 .9-6 1.3-.7.2-2 .1-3.6.1z"/>
    <path d="M369.5 205c.1.8-.3 1.4-.9 1.7-.6.3-1.2.5-1.8.7-.6.2-1.3.2-1.8.6-.8.6-1.7.7-2.6.7-1.2.1-2.3.2-3.5.1-3-.2-5.9-.2-8.9-.3-.3 0-.5 0-.8-.1-1.9-.7-4-.9-5.9-1.7-1.7-.8-3.1-1.8-3.8-3.6-.2-.5-.5-.9-.7-1.3 0-1 .5-1.7 1.3-2.4.3.1.8.1 1 .4 1.1 1.6 2.7 2.4 4.3 3.2 1.7.9 3.6 1.4 5.5 1.8 3.6.6 7.2.6 10.8.9.9.1 1.8-.1 2.7-.3 1.4-.3 2.7-.8 4.2-.7.3 0 .6.2.9.3z" style="fill:#deedd8"/>
    <path class="st0" d="M373.7 93.6c-1.5 0-2.2-.6-3-.9-.5-.2-.6-.7-.3-1.7.8-.5 1.6-1 2.5-1.4.2-.1.5-.1.7 0 .2.1.3.4.3.6-.4 1-.5 2.1-.2 3.4zm6.1-5.3c1.6 1.3 2.8 1.9 3.6 2.9-.4 1.1-1 1.6-1.9 1.9-.2 0-.5-.1-.6-.3-.2-.2-.3-.4-.3-.6-.2-1.1-.4-2.1-.8-3.9zm33.4 4.5c-.2.2-.4.5-.5.4-1-.2-1.9-.5-2.7-1.1-.3-.2-.4-.6-.6-.8.1-.7.4-1.2.9-1.6.8-.5 1.4-1.4 2.5-1.2.5.7.1 1.4.1 2.1.2.8.3 1.5.3 2.2zm7.4-3.4c1.8.4 1.8.4 3 1.3-.1.7-.4 1.2-.9 1.6-.8.6-1.5 1.4-2.6 1.3-.3-2.4-.2-3.3.5-4.2zm17.3 168.8c.7-.7 1.6-.6 2.5-.9.2.1.4.3.6.4-.6 1.3-1 1.6-2.2 1.5-.2 0-.5-.2-.6-.3-.3-.1-.3-.4-.3-.7z"/>
    <path class="st1" d="M516.3 453c-1.6-2.2-2.4-4.6-2.7-7-.4-2.8-.2-5.5-.4-8.3-.1-1.2 0-2.3-.2-3.5-.2-1.2-.2-2.3 0-3.5.3-1.9-.1-3.8-.7-5.7-.4-1.4-.9-2.9-.8-4.2-1-2-2-3.9-2.9-5.7-.5-.4-1.1-.8-1.3-1.2-.8-1.2-2-2.2-2.9-3.4-2-2.5-4.7-4.2-8.2-5.3-1 0-2.2.1-3.4.2-.2-.1-.3-.3-.5-.5.2-.8.9-1.5 1.7-2.2.5-.1 1.1-.2 1.5-.3 2.6.3 4.4 1.6 6.5 2.4 1.4 1.4 3 2.6 4.3 4.1 2.1 2.4 4.1 4.9 5.8 7.5.3.5.5 1 .7 1.5.4 1 .8 2 1 3.1.3 1.3.5 2.7.7 4.1.1.8.4 1.7.4 2.5.1 1.5.3 2.9.2 4.4-.1 1.4 0 2.7.2 4.1.2 1.2.1 2.5 0 3.8-.1.6-.2 1.3.1 1.9.1.3.3.6.2.9-.4 1.6.6 3.1.8 4.7.1 1 .8 1.8 1.4 2.6 1.7 2.4 2.6 3 5.9 3.8 1.5.4 3 .7 4.5.9 1.8.2 3.5.6 5.3 1 .9.2 1.7.6 2.4 1 1.2.6 2.4 1.3 3.6 1.9 2.3 1.3 4.1 2.9 5.3 4.9.4.8.9 1.5 1.5 2.2.7.7.7 1.6 1.3 2.3.6.6.5 1.4.7 2.1.7 1.9 1.4 3.9 2.2 5.8.5 1.3.9 2.7.7 4.1.4.8.7 1.5 1.2 2.5-.2 1.4.4 2.8.8 4.2.6 2.3 1.6 4.5 2.2 6.8.5 2.1 1.5 4 2 6.1.2.9.7 1.8 1.2 2.7 1.1 1.9 2.3 3.8 3.5 5.7 1.1 1.8 2.7 3.3 4.4 4.9.9.9 1.9 1.8 2.6 2.8.2.3.4.6.6.8 1.7 1.9 3.4 3.7 5.1 5.6.3.3.7.7.9 1 .7 1.6 2.2 2.9 3.3 4.3 1 1.3 2 2.7 2.8 4.2.4.8.9 1.5 1.5 2.2.9 1 1.8 2 2.3 3.3.3.9 1.2 1.6 1.7 2.5 1 1.8 1.8 3.8 2.8 5.6.8 1.4 1.1 3 1.7 4.6 2.2 5.7 1.2 4.3 3.5 8.3.2.4.5.8.6 1.2.1 2.2 1.6 4 2.2 6.1.2.6.5 1.2.8 1.8.9 1.4 1.8 2.8 2.8 4.2 1.1 1.6 2.5 3 4.1 4.2 1.6 1.2 3.3 2.4 5.1 3.4 1.8 1 3.6 2.1 5.4 3.1.5.3 1.1.6 1.4 1.1 1 1.2 2.4 2.2 3.7 3.3 1.7 1.5 3.2 3.1 4.3 4.9.2.3.3.6.6.8 2.3 2.5 3.4 5.5 5.3 8.1.2.3.3.6.4.9 1 2.2 1.9 4.4 2.9 6.6 1 2.2 2 4.4 2.9 6.6.9 2.2 1.7 4.5 2.4 6.7 1 2.9 2.1 5.7 3.4 8.4.7 1.4 1.3 2.8 2 4.1.7 1.3 1.4 2.5 2.1 3.8l.6 1.2c.8 1.9 1.7 3.8 2.5 5.7.9 2.1 1.8 4.2 2.5 6.3.1.4.4.8.6 1.2.3.5.6.9.8 1.4 1.3 3.4 3.4 6.4 4.8 9.7.3.8.7 1.6 1.2 2.3.6.8.9 1.8 1 2.7 0 .8.3 1.5.6 2.1 1 1.7 1.8 3.5 1.9 5.5v.3c1.2 2 1.2 4.3 2.5 6.3.4.6.5 1.2.8 1.8 1.6 3.7 3.3 7.4 5.6 10.8 1.1 1.7 1.8 3.5 2.7 5.3.5 1.1 1 2.2 1.9 3.1.2.2.5.5.6.8.8 2.3 2.4 4.2 3.6 6.3 1.1 2.1 2.5 4.2 3.5 6.3 1.7 3.6 4.1 6.9 5.8 10.4 1.5 2 2.6 4.1 3.8 6.2 1.5 2.6 3.1 5.1 4.7 7.7.8 1.2 1.7 2.4 2.8 3.4 1.2 1.1 2.1 2.4 3 3.7 1.4 2.1 3.4 3.7 5.8 5.1.6.4 1.4.5 2.1.7.5.5.6 1 .5 1.5-.2.7-1 1.1-1.8.9-1.4-.3-2.6-.9-3.7-1.7-1.3-1-2.6-2.1-3.9-3.1-.3-.2-.5-.5-.7-.7-1.6-2.1-3.2-4.1-4.8-6.2-1.5-2-2.9-4-4.1-6.1-.8-1.6-1.9-3-2.8-4.6-1.6-2.8-3.4-5.5-4.9-8.3-1.3-2.4-3.1-4.7-4-7.2-1.7-2.2-2.5-4.6-4.1-6.9-1.1-1.6-2.2-3.1-2.8-4.9 0-.1-.1-.2-.2-.3-2.5-3.6-4.3-7.5-6.3-11.3-.6-1.1-1.2-2.1-1.8-3.2-.5-1.1-1.2-2.1-1.5-3.3-.3-.8-.6-1.6-1-2.4-1.4-2.9-2.3-5.8-3.5-8.8-.3-2.1-1.3-4.1-2.1-6.1-.3-.7-.5-1.4-.7-2.1-.9-3.3-2.4-6.5-4.2-9.5-2.3-3.7-3.7-7.7-5.5-11.5-.5-1.1-.7-2.3-1.3-3.3-.5-1-1.1-1.9-1.4-3-.1-.4-.4-.8-.6-1.2-.8-1-1.2-2.1-1.8-3.2-1-1.9-1.8-3.7-2.6-5.6-.5-1.2-1.1-2.4-1.7-3.5-.8-1.6-1.5-3.2-2-4.8-.7-2.1-1.5-4-2.2-6.1-.6-2-1.7-4-2.5-6-.9-2.3-2-4.6-3-6.9-.3-.7-.8-1.3-1.1-2-1.1-1.9-2.4-3.7-3.3-5.7-.4-1-1-2-1.8-2.8-2.8-3-5.2-6.3-8.9-8.8-1.7-1.5-3.7-2.6-5.7-3.8-2.7-1.5-5.1-3.3-7.3-5.2-.6-.5-1.2-1.1-1.6-1.8-2-2.9-4-5.7-5.2-8.9-.7-2-1.8-4-2.6-6l-3.3-8.1c-1.1-2.6-2-5.2-3.1-7.8-.5-1.2-1-2.4-2.1-3.4-.6-.6-.9-1.3-1.2-2-.5-1.2-1.3-2.3-2.1-3.4-1.6-1.9-2.9-4-4.3-6-.4-.5-.7-1.1-1.2-1.6-1.9-2.2-3.7-4.3-5.4-6.6-.1-.2-.3-.4-.4-.5-2.2-2.1-4.1-4.4-6.2-6.5-1.5-1.5-2.7-3.1-3.8-4.8-.4-.7-.8-1.3-1.4-1.9-.2-.2-.4-.5-.6-.8l-.3-.6c-.5-1.7-1.7-3.1-2.3-4.7-.6-1.5-1.3-3-1.7-4.6-.4-2-1.1-3.9-1.9-5.8-.4-.9-.4-1.9-.6-2.8-.9-4-2.1-7.9-3.2-11.8-.1-.5-.3-1-.4-1.5-.8-3.5-2.7-6.6-4.7-9.7-.8-1.1-1.8-2.1-2.9-2.9-2.4-1.8-5.2-3.1-8.4-3.8-1.2-.3-2.5-.5-3.8-.8-1.8-.3-3.5-.7-5.1-1.5-.4-.2-.9-.5-1.4-.5-2.2-.2-3.4-1-4.8-1.9zM280.2 553.6c.2 1.1.1 2.2-.6 3.3-.3.4-.3 1-.4 1.5-.2 1.7-.6 3.4-1.2 5-.2.5-.4 1-.7 1.5-.5.7-.7 1.4-.8 2.1-.1.7-.1 1.5-.5 2.2-.2.3-.2.6-.2.9.1.7 0 1.2-.3 1.9-.2.6-.2 1.3-.4 1.9-.2.9-.3 1.9-.7 2.8-.4.9-.6 1.9-.6 2.8-.1 2.5-.4 5.1-.7 7.6-.3 2.5-.6 5.1-.9 7.6-.1.7-.1 1.5-.1 2.2-.1 1-.2 1.9-.3 2.8-.4 2.4-.8 4.8-1.1 7.2-.2 1.6-.6 3.1-.7 4.7-.1 1.5-.3 3-.7 4.4-.2.6-.3 1.3-.3 1.9-.1 1.6-.2 3.2-.9 4.7-.3.7-.3 1.5-.4 2.2-.2 1.3-.2 2.6-.6 3.8-.4 1.2-.6 2.5-.8 3.7-.1.7-.4 1.4-.6 2.2-.1.4-.5.8-.4 1.2.2 1.1-.5 2.1-.6 3.1-.3 3.5-1.6 6.9-2 10.3-.1.7-.4 1.5-.7 2.1-.5 1-.7 2-.9 3.1-.2 1.7-.4 3.4-1.3 5-.2.3-.2.6-.2.9-.2 2.9-1.2 5.6-1.8 8.5-.4 1.9-1.1 3.7-1.4 5.6-1.2 3.1-1.2 6.5-2.7 9.6-.1 2.2-1.5 4.3-1.7 6.5-.2 1.5-.8 2.9-1.3 4.3s-1.1 2.8-1.5 4.3c-.7 2.3-1.6 4.5-2.6 6.7-.2.4-.4.8-.5 1.2-1 2.9-2.5 5.6-4 8.3-3.4 6-7.2 11.7-11.2 17.4-1.9 2.8-3.7 5.6-5.6 8.4-.4.6-.6 1.2-.9 1.7-.7 1.2-1 1.5-3 2.3-.2-.1-.5-.1-.7-.2-.7-.2-1-.7-.9-1.2l.3-1.5c2-2.4 3.6-5 5.4-7.4 2-2.8 3.8-5.8 6-8.5.1-.1.1-.2.2-.3 1.6-2.8 3.7-5.4 5.4-8.1.9-1.3 1.7-2.6 2.3-4 .5-1.1 1.2-2.1 1.8-3.2.9-1.4 1.7-2.9 2.2-4.4.5-1.6 1.2-3.2 2-4.8.1-.3.3-.6.4-.9.1-1.4.8-2.7 1.3-4 1-2.4 1.5-4.9 2.2-7.4.6-2.1 1.1-4.1 1.9-6.2l.3-.9c.8-3.4 1.6-6.9 2.5-10.3.4-1.5 1-2.9 1.3-4.3.3-1.5.4-2.9.9-4.4.3-.9.4-1.9.6-2.8.2-.8.3-1.7.6-2.5.4-1 .7-2 .8-3.1 0-.2 0-.4.1-.6 1.4-3.2 1.3-6.7 2.6-9.9.2-1.9.9-3.7 1.2-5.6.2-1.6.4-3.2 1-4.7.2-.6.3-1.2.4-1.9.3-1.7.5-3.4 1.1-5 .3-.8.4-1.7.5-2.5.1-.5.1-1.1.2-1.6 1-2.7 1.1-5.4 1.4-8.2.4-3.5 1.1-6.9 1.2-10.5 0-.4.1-.8.2-1.3.4-1.2.5-2.5.4-3.8 0-1.2.1-2.3.6-3.4.4-.8.4-1.7.4-2.5-.1-1.2.1-2.3.3-3.5.4-3 .8-5.9 1.2-8.9.2-1.3.3-2.5.8-3.8.2-.6.3-1.2.4-1.9.2-.7.3-1.5.5-2.2.2-.9.5-1.9.7-2.8.3-1.6.4-3.2 1.2-4.6.1-1.9 1.3-3.7 1.4-5.6 0-.2 0-.4.1-.6.3-.8.7-1.6.9-2.4.2-.8.4-1.6.7-2.5.6-1.3 1-2.6 1.3-4 .3-1.2.5-2.3 1.2-3.3.2-.3.3-.6.3-.9.8-2.9 1.6-5.8 2.9-8.6.3-2 1.4-3.9 1.5-5.9 0-.6.3-1.2.6-1.8.7-1.7 1.4-3.4 2-5.2.4-1.1.7-2.2.8-3.4.1-1.8.8-3.5 1.6-5.2.3-.7.5-1.4.6-2.2.1-.7.2-1.5.4-2.2.8-3.6.9-7.2.3-10.9-.4-.7-.8-1.5-1.2-2.2-.4-.8-.8-1.6-1.4-2.3-1.1-1-1.9-2.3-3.1-3.2-2.6-2-3.6-4.6-3.6-7.5-.1-1.7.2-3.4.9-5 .5-1.1.7-2.2 1.2-3.3.4-.9.4-1.9.5-2.8.1-.6.3-1.2.7-1.8.9-1.4 1.4-2.9 1.6-4.6.2-1.9.9-3.7 2-5.4.5-.9 1-1.7 1.4-2.6.2-.3.4-.6.4-.9.1-1.6 1.1-3 1.7-4.5 1.1-2.7 2.6-5.3 3.8-8 .8-1.8 1.9-3.5 2.9-5.2 1-1.6 2.2-3.1 3-4.8.5-1.1 1.4-2 2.1-3 1.3-1.7 2.7-3.4 4.1-5 1-1.2 1.9-2.5 3.2-3.6.5-.3.7-.9 1.1-1.3.9-1.1 1.8-2.3 3-3.3.2-.1.4-.3.5-.5 1.5-2.3 3.9-3.9 5.7-5.9.8-.4 1.6-.3 2.3 0 .8.5.7 1.1.3 1.7-.2.3-.4.6-.7.8-1.4.9-2.3 2-3.2 3.1-.9 1.2-2 2.2-3.3 3-1.1 1.8-2.3 3.4-3.9 4.8-.5.5-.9 1-1.3 1.6-.8 1-1.6 2-2.4 2.9-1.2 1.3-2.1 2.7-3 4.1-2.2 3.4-4.3 6.8-6.4 10.2-.2.3-.4.6-.5.9-.5 1.5-1.4 2.7-2.2 4-.2.3-.3.6-.4.9-.2.8-.9 1.3-1.5 2-.1.6-.2 1.4-.4 2.1-.2.7-.6 1.4-.9 2.1-.4.8-.7 1.6-1.1 2.4-.3.7-.6 1.4-1 2.1-.7 1.1-1.3 2.3-1.5 3.6-.1.7-.7 1.3-1.1 2.2 0 .4 0 .9.1 1.5-1.2 2.1-1.6 4.6-2.7 6.8-.2.5-.3 1-.4 1.6-.1.5-.1 1.1-.3 1.6-.9 2.4-1 4.8-1.1 7.1.9 2.6 2.7 4.7 4.6 6.7 1.5.8 2.1 2.1 3.1 3.2.9 1.1 1.4 2.3 1.6 3.6.5 2.5.8 5 .5 7.6-.2 1.2-.2 2.4-.7 3.4-.7 1.5-.8 3.1-1 4.7-.1.8-.1 1.7-.4 2.5-.3.8-.7 1.6-1 2.4-.6 1.4-1 2.8-1.1 4.2-1.7 2.6-1.7 2.6-1.5 4.9-.7 1.1-1.4 2.2-1.5 3.5 0 .4-.2.9-.4 1.2-.7 1-.9 2.2-1 3.4-.1.7-.4 1.4-.6 2.1-.6 1.4-.8 2.9-1.2 4.3-.5 1.8-.9 3.5-1.5 5.3-1.3 1-2 2-2.8 3.5zM429.9 483c1.4-2.3 2.3-4.4 3.1-6.5 1.7-2.2 3.3-4.4 5.5-6.2.9-.8 1-1.7.5-2.7-.5-1.1-1.1-2.1-1.7-3.2-.8-1.4-1.1-2.8-1.3-4.3-.2-1.9-.2-3.8-.5-5.7-.2-1.5-.2-3-.1-4.4 0-.4.1-.8.1-1.2-.2-.6-.4-1.1-.6-1.7.2-.6.4-1.2.7-1.9-.1-1.3-.3-2.6-.4-4.1-.3-.8-.7-1.6-1-2.4-.2-.5-.2-1 .2-1.5.3-.3.3-.4 1.7-.6.9.5 1.1 1.4 1.7 2.1.1.2.1.4.1.6.1 1.1.1 2.1.2 3.2 0 .2.1.4.1.6-.1 2.5-.3 5.1-.4 7.6 0 .6-.2 1.3-.2 1.9.3 2.3.5 4.6.9 6.9.5 2.7 1.5 5.2 3.6 7.3.2.2.4.5.7.9 0 .3.1.8.1 1.2 0 .8-.4 1.4-1 2-.2.2-.4.3-.6.4-2.2 1.4-3.5 3.3-4.7 5.4-.2.4-.4.8-.7 1.1-1.3 1.4-1.6 3.1-2.6 4.6-.2.3-.3.6-.3.9-.2 2-.8 4-1.3 5.9-.4 1.5-.5 3.2-.7 4.7l-.6 6c-.1 1.4-.4 2.7.1 4.1.1.4.1.8.1 1.3-.2 1.5.5 2.9.7 4.4 1.1 2.5 1.4 5.2 2.1 7.7.2.6.3 1.2.6 1.8.3.6.6 1.2.7 1.8.3 1.6.8 3.1 1.6 4.6.5 1.1 1 2.2 1.4 3.3.4 1 .7 2 1.2 3 .3.5.4 1 .6 1.5.5 2.3 1.3 4.5 2.1 6.8.2.4.4.8.4 1.2.2 2.5.9 5 1.5 7.5.2.7.2 1.5.2 2.2.1 1.6.2 3.2.6 4.7.4 1.6.2 3.2 0 4.8-.2 1.4 0 2.8.4 4.1.3.9.4 1.9.3 2.8-.2 2.2 0 4.4.7 6.6.6 2.1.5 4.2.9 6.3.2 1.4 0 2.8.5 4.1.1.3.1.6 0 .9-.2 1-.1 1.9.3 2.8.2.6.3 1.3.3 1.9 0 .6 0 1.3.3 1.9.2.4.2.8.2 1.3 0 .6-.2 1.3-.1 1.9.1.6.4 1.2.5 1.8.1 1.1.2 2.1.3 3.2.1 1.8.3 3.6.8 5.3.4 1.4.4 2.9.6 4.4.1 1 .1 2.1.4 3.1.2.7.1 1.5.2 2.2.5 2.9.9 5.9 1.3 8.8.1 1.1.6 2.1.7 3.1.2 1.5.3 2.9.8 4.4.3.9.4 1.9.4 2.8 0 1.9.5 3.8.8 5.7.1.3.2.6.2.9-.3 1.7.5 3.4.7 5 .1.7.3 1.5.2 2.2-.2 1.5.1 3 .5 4.4.3.9.4 1.9.4 2.8-.1 1.4.1 2.8.4 4.1.4 1.6.5 3.1.7 4.7.3 3.2 1.2 6.3 1.5 9.4.2 1.8.4 3.6.9 5.3.3 1.1.3 2.3.4 3.6.2.7.6 1.5.9 2.3-.2 1.9-.3 3.8.3 5.6-.1 2.5.7 4.8.9 7.3.3 2.7.9 5.4 1.4 8.2.2 1.3.7 2.5.5 3.8-.1.4.1.8.2 1.2.5 1.4.8 2.9.8 4.4 0 .6.2 1.3.2 1.9.1.5.3 1.1.2 1.6-.3 2 .3 4 .6 6 .4 3.1 1 6.1 1.1 9.2.5 2 .1 4 .8 6 .3.8-.1 1.7.1 2.5.3.9.3 1.9.4 2.8.4 2.1 0 4.2.6 6.3.1.2.1.4.1.6-.3 1.8.1 3.6.4 5.4.3 1.7.2 3.4.8 5 .4 1.3 0 2.8.5 4.1-.1 2.3.5 4.6 1 6.9.1.5.2 1.1.1 1.6 0 .7-.4 1.2-1.4 1.3-1.2-.2-1.8-.8-2-1.7-.1-.4-.3-.8-.3-1.3.1-2.5-.5-4.8-1-7.2-.2-1.4-.4-2.7-.4-4.1 0-1.3 0-2.5-.4-3.8-.1-.4-.1-.8-.1-1.3.1-1.1.2-2.1-.2-3.2-.1-.3-.1-.6-.1-.9 0-1.3.2-2.5-.2-3.8-.3-1.1-.1-2.3-.4-3.5-.2-.6-.1-1.3 0-1.9 0-1 .1-1.9-.3-2.8-.1-.2-.1-.4-.2-.6-.1-1.7-.3-3.4-.3-5.1 0-3.2-.6-6.3-1-9.5-.3-2.4-.9-4.8-.6-7.3-.7-1.5-1-3-1-4.7 0-.7-.2-1.5-.3-2.2-.5-2.7-.8-5.5-1.4-8.2-.4-1.4-.5-2.9-.7-4.4-.4-2.3-.7-4.6-1.1-6.9-.2-1.5-.6-2.9-.7-4.4-.1-1.4-.4-2.7-.6-4.1-.4-2.3-.9-4.6-1.3-6.9-.1-.7-.3-1.5-.3-2.2 0-1.6-.3-3.2-.6-4.7-.3-1.7-.5-3.4-.7-5-.3-3-.6-5.9-1.1-8.8-.3-1.5-.3-2.9-.6-4.4-.1-.5-.2-1.1-.3-1.6-.5-1.7-.7-3.3-.9-5-.2-1.5-.1-3-.5-4.4-.4-1.3-.4-2.7-.6-4.1-.3-1.5-.6-2.9-.8-4.4-.3-2.3-.7-4.6-1.1-6.9-.3-1.7-.5-3.4-.8-5-.4-2.7-.8-5.5-.9-8.2 0-1.4-.5-2.7-.5-4.1 0-1.4-.7-2.7-.8-4.1 0-.4-.3-.8-.3-1.2 0-3.1-.7-6.1-.7-9.2 0-1.4-.3-2.7-.6-4.1-.2-1.3-.3-2.5-.4-3.8-.3-2.4-.4-4.9-1-7.3-.1-.6-.3-1.3-.3-1.9.2-2.2-.2-4.4-.6-6.6-.1-.3-.2-.6-.2-.9 0-1.6.1-3.2.1-4.8-.3-.8-.6-1.6-.9-2.3 0-1.4.1-2.6.1-3.9 0-.3.1-.7 0-.9-.9-2.1-.4-4.2-.8-6.3-.5-2.4-.6-4.8-1-7.3-.3-1.7-.9-3.3-1.3-4.9-.1-.3-.4-.6-.4-.9-.7-3.8-2.3-7.4-3.7-11-.2-.5-.3-1-.5-1.5-.4-1.1-.7-2.2-1.2-3.4-.4-1-.6-2-1.1-3-.7-1.3-1-2.6-1.4-4-.3-.8-.5-1.6-.8-2.5-.1-.3-.3-.6-.3-.9-.1-1.9-.7-3.8-1.1-5.6-.3-1.5-.4-2.9-.2-4.4.3-2.4.4-4.9.6-7.3 0-1 .1-1.9.5-2.8.6-1.3.6-2.7.8-4.1.1-.9.2-2.4.4-3.9zM183.8 639.4c.6-1.6 1-2.9 1.2-4.3.2-1.9.7-3.7 1.5-5.6.7-1.6 1.2-3.2 1.8-4.9.3-.9.8-1.8 1.3-2.7.2-.4.5-.8.6-1.2 1-3 3.1-5.6 5-8.2 1-1.4 1.7-2.9 3.1-4 .3-.2.4-.5.5-.8 1-2.2 2.8-4 4-6.2.4-.8 1.3-1.3 2.3-1.7 1 .1 2 .1 3 .2.2.3.4.6.6.8-.1.6-.3 1.1-.8 1.5-.8.5-1.7.9-2.6 1.4-.8.8-1.2 1.8-2 2.7-1.2 1.5-2.2 3.1-3.3 4.7-.2.3-.3.6-.5.8-2 1.8-3 3.9-4.1 6.1-.4.8-.7 1.6-1.2 2.3-1.5 2.1-2.4 4.5-3.3 6.8-.3.7-.4 1.4-.7 2.1-.2.5-.3 1-.5 1.5-.8 1.5-1.2 3-1.3 4.6 0 .6-.2 1.3-.3 1.9-.2 1-.8 2-.6 3.1.2.9-.1 1.9.1 2.8.2 1 .1 2.1-.1 3.2-.2 1.4-.6 2.7-.1 4.1.2.6-.1 1.3-.2 1.9-.2 1.9-.3 3.8-.5 5.7-.1.6-.3 1.2-.6 2 .1.3.4.9.3 1.3-.4 2-.3 4-1 6-.5 1.4-.5 2.9-1.1 4.3-.2.5-.1 1.1-.3 1.6-.6 1.3-.7 2.7-.8 4.1-.5 1.2-1.6 2.2-1.6 3.5-.6 1.2-1.1 2.4-1.3 3.7-.1.5-.3 1-.5 1.5-1 2.2-2.2 4.3-3.1 6.5-1.3 3.2-3 6.3-4.6 9.5-.7 1.4-1.2 2.8-2.1 4.1-.9 1.3-1.4 2.7-2.1 4.1l-.6 1.2c-.7 2.1-1.9 3.9-3.2 5.8-1.7 2.5-2.7 5.3-4.2 7.8-.9 1.5-1.5 3.1-2.8 4.5-.3.3-.5.7-.7 1.1-.7 1.8-1.9 3.5-3.1 5.1-1.6 2.2-2.9 4.5-4.4 6.7-.1.2-.3.4-.4.6-.7 1.8-2.1 3.4-3.3 5-1.1 1.5-2.1 2.9-3 4.4-3 4.8-6.3 9.5-10.1 13.9-.1.1-.2.2-.2.3-2 3.2-4.6 6.1-7.2 9-1.4 1.5-2.4 3.3-4 4.8-.8.3-1.7.7-2.7 1.1-.9.3-2.2-.3-2.4-1.1-.1-.4.1-.8.5-1.2 1.3-1.1 2.7-2.3 4.1-3.4 2.3-1.8 4.1-3.8 5.6-6 1.1-1.6 2.2-3.1 3.4-4.6 3.7-4.6 7.1-9.4 10.4-14.2 3-4.3 6-8.7 8.9-13 .4-.6.7-1.3 1.2-2 .9-1.5 1.7-3.1 2.8-4.5.3-.3.6-.7.7-1.1.6-1.4 1.6-2.7 2.4-4 1.2-2 2.7-3.9 3.4-6 .2-.7.6-1.4 1-2.1 1.3-2.2 2.6-4.4 3.8-6.6.7-1.3 1.4-2.5 1.9-3.8.5-1.4 1.5-2.7 2.2-4 .5-.9.9-1.8 1.3-2.7.1-.2.1-.4.2-.6 2.1-3.5 3.4-7.3 5.1-11 .5-1.1 1.1-2.2 1.6-3.2s1-2 1.4-3c.6-1.3 1.1-2.6 1.6-3.9.6-1.7 1.1-3.5 1.5-5.2.4-1.9.9-3.7 1.5-5.6.1-.3.3-.6.3-.9-.3-2.1.8-4.2.8-6.3 0-2 .2-4 .3-6 0-.6 0-1.3.2-1.9.1-.3.2-.6.1-.9-.2-2.5 0-5.1.3-7.6.2-1.9.3-3.8-.3-5.7zm116.7-1.3c-.8-3-.6-5.7-.2-8.5.1-.5.1-1.1.3-1.6 1.1-3.9 2.2-7.8 3.1-11.8 1-2.4 1.4-4.9 2.6-7.3.6-1.3 1-2.6 1.4-4 .5-1.6 1-3.3 1.7-4.9.5-1.2.9-2.4 1.4-3.6.6-.7 1.3-1.1 2.3-1.2.7.2 1 .6 1.1 1.3-.6 1.1-1.2 2.3-1.8 3.5-.4.8-.8 1.6-.9 2.4 0 .2 0 .4-.2.6-1 1.5-1.2 3.2-1.8 4.8-.4 1-.9 2-1.6 2.9-.7 3.5-2.2 6.9-3.4 10.3.1.6.1 1.1.2 1.7-1.4 3.3-2.4 6.7-2.1 10.2 0 .2.1.4 0 .6-.5 1.9.3 3.5 1.2 5.2.5.9 1.1 1.7 1.7 2.5.5.7.6 1.6 1.3 2.3.3.3.6.7.7 1.1.5 1.9 1.6 3.6 2.2 5 .3 1.6.5 2.9.7 4.1.2 1.4.9 2.7.4 4.1v.3c.7 2 .2 4 .2 6s-.2 4-.6 6c-.1.6-.2 1.3-.2 1.9v2.5c-.1 1.6.2 3.2-.4 4.7.3 1-.5 2.1.2 3.1-.1 1.2 0 2.3-.2 3.5-.2 1.2-.4 2.3-.4 3.5 0 .6-.1 1.3-.5 1.8-.4.7-.5 1.4-.3 2.2.1.4.4.8.3 1.2-.3 1.6-.1 3.2-.2 4.7-.5.8.3 1.7 0 2.5-.4 1.5-.2 3-.3 4.4 0 .3-.1.7.1.9.4.9.2 1.7-.1 2.5.4 1.1-.8 2.3-.1 3.4 0 1.1 0 2.1.1 3.2.1.6 0 1.2-.1 1.9-.1.6-.1 1.3-.1 1.9 0 .7.3 1.5.2 2.2-.4 2.3.1 4.7.1 7 0 .6.1 1.3.1 1.9.1 1.1.2 2.1.1 3.2-.1 1.6-.2 3.2.6 4.7.1.2.2.4.2.6-.3 2.1.3 4.2.4 6.3.1 1.6.5 3.1 1.2 4.6.4.8.7 1.6.5 2.7-.3.4-.7.9-1.1 1.5-1 .6-1.9.3-2.7-.4-.3-1.9-.6-3.8-.4-5.7 0-.6-.1-1.3-.2-1.9-.1-.7-.3-1.5-.3-2.2.1-2.1-.3-4.2-.6-6.3-.1-.9-.3-1.9-.2-2.9.2-1.7-.2-3.4-.1-5.1 0-.3 0-.6-.1-1-.8-2.7-.3-5.5-.6-8.2-.1-.5.1-1.1.1-1.6s.2-1.1 0-1.6c-.5-1.7-.2-3.4-.1-5.1.1-2.4.4-4.9.5-7.3 0-.6 0-1.3-.1-1.9 0-.7-.1-1.5-.1-2.2.2-2.6.4-5.3.6-7.9.1-1.3.4-2.5 0-3.8.1-1.5.1-3 .2-4.5.3-4.3.7-8.7 1-13 .1-1.2.2-2.3.4-3.5.2-1.2-.1-2.3 0-3.5.1-.8-.1-1.7 0-2.5.1-.7 0-1.5-.1-2.2-.2-1-.3-2.1-.2-3.2.2-1.3-.1-2.5-.3-3.8-.3-1.6-.7-3.1-1.1-4.7-.6-2.1-1.4-4.1-2.6-6-1.1-1-2.1-2.9-3-4.5zm71.4-82.5c-1.8-1.9-3.5-3.7-5.4-5.7-.3-.6-.7-1.5-1-2.3 0-.3 0-.6.1-.8.3-1.8.7-3.6 1-5.3.1-.3 0-.7.1-.9 1-2.3 1.1-4.8 1.6-7.2.1-.4.1-.8.1-1.3-.1-.8.3-1.5.6-2.4-.3-2.2-.1-4.7.1-7.1.1-1.3.3-2.5-.1-3.8-.2-.6-.1-1.3-.1-1.9 0-1.4 0-2.8-.2-4.1-.1-.4.1-.8.2-1.3.4-.1.8-.3 1.1-.3.3 0 .7.2 1 .4.7.6 1 1.5 1.1 2.3.3 2.5.6 8.7.2 11.1-.5 3.2-.6 6.3-1.4 9.5-.4 1.9-.8 3.8-1.1 5.6-.3 1.9-.5 3.8-.7 5.5.4 1.4 1.1 2.4 2 3.3 1.4 1.4 2.5 2.9 3.6 4.5 1.1 1.5 1.6 3.1 1.9 4.8.3 1.6.3 3.2.6 4.7.2 1.1.2 2.1.1 3.2-.4 2.5-.4 5.1-.2 7.6 0 .4.1.9.1 1.3-.2.9-.5 1.9-.6 2.8-.1.9.3 1.9 0 2.8-.1.4-.2.8-.2 1.3.1 3.3-.5 6.6-.9 9.8-.1.6 0 1.3-.1 1.9-.1 1.4-.1 2.8-.7 4.1-.4.9-.5 1.9-.3 2.8.1.4.2.8.1 1.3-.3 2.3-.5 4.7-.9 7-.3 1.7-.8 3.3-.4 5 .1.3-.1.6-.2.9-.1.4-.2.8-.2 1.2 0 .8.1 1.7.3 2.5.1.3.3.5.5.8-.7 1-.7 1-2.5 1.9-1 .2-1.7-.3-2.4-.7-.1-.2-.3-.4-.2-.6.5-1.9.7-3.8.9-5.7.2-1.9.7-3.8.8-5.7 0-.9.2-1.9.5-2.8.4-1.1.6-2.3.6-3.5.1-3.1.7-6.1 1-9.2.3-3.1.7-6.1 1-9.2.3-3.1.6-6.1.8-9.2 0-.5.1-1.1 0-1.6-.2-1.3-.3-2.5.3-3.8.1-.3.1-.6.1-.9-.1-1.7-.2-3.4-.4-5.1-.3-2.3-.8-4.6-1.9-6.8-.1 0-.2-.4-.3-.7zm232.7 209.1c0-.2 0-.4.1-.6.2-.4.4-.8.7-1.1 1.5-1.4 1.9-3.2 2.6-4.9.2-2 1.4-3.8 1.9-5.8.1-.3.3-.6.3-.9.3-2.3 1.4-4.5 2-6.8.5-2.1 1.1-4.1 1.3-6.3.1-1.4.5-2.7.7-4.1.6-3 .7-6.1 1.2-9.2.1-.7 0-1.5 0-2.2 0-.8-.2-1.7-.2-2.5.2-2.5-.4-4.9-.8-7.3-.8-4.1-1.9-8.1-3.3-12.1-.8-2.2-1.3-4.5-2.1-6.8-1.3-3.5-1-6.9-.3-10.4.5-2.1 1.9-3.9 4-5.3.2-.1.4-.3.6-.4 2.2-1.4 3.1-1.4 6.1-.6 0 .1 0 .2-.1.3-.1.1-.1.2-.2.2-4.6 1.7-3.5 1.4-6.4 4.6-.4 1.4-.9 2.9-1.3 4.5-.3 1.3-.3 2.6.2 3.8.6 1.6.8 3.3 1.3 5 .4 1.3.8 2.7 1.3 4 .2.5.3 1 .4 1.5.3 1 .4 2.1.8 3.1.9 2.2 1.4 4.5 1.7 6.8.1.8.2 1.7.3 2.5.1.7.5 1.5.5 2.2-.1 1.1.5 2.1.5 3.2s.2 2.1.2 3.2c0 1.6-.1 3.2-.2 4.8-.1 2.3-.7 4.6-.7 7 0 .3-.1.7-.2.9-.7 1.2-.7 2.5-.9 3.7-.2 1.6-.4 3.2-1 4.7-.3.8-.3 1.7-.4 2.5-.1.7-.2 1.5-.6 2.2-.5 1-.7 2-.8 3.1-.1 1.2-.2 2.3-.8 3.4-.2.4-.3.8-.3 1.2-.1 1-.7 1.8-1 2.7-.3.8-.3 1.7-.5 2.5s-.6 1.6-1 2.4c-.2.5-.5 1-.9 1.4-1 1.3-2.3 1.5-3.9.4-.5-.1-.6-.3-.8-.5zM380.5 492.5c-1.3.9-2.6 1.8-4.3 2-.8-.1-1.5-.3-1.7-1.1.2-.2.4-.5.7-.6.7-.5 1.4-.9 2.1-1.3 1.2-.8 2.2-1.8 2.7-2.9.5-1 1.1-2 1.4-3.1.2-.7.5-1.3.8-2 .5-1 1.1-2 1.1-3.2 0-.1 0-.2.1-.3 1.2-1.8 1-3.7 1.4-5.6.1-.4.2-.8.1-1.2-.2-2.1 0-4.2 0-6.3 0-2.5-.3-5-.1-7.5.1-.9-.3-1.8-.2-2.7.2-1.2-.1-2.4-.1-3.6.1-1.1 0-2.2-.1-3.3-.1-1.1-.1-2.2 0-3.3.2-2.7.5-5.4.8-8.1.1-.8.1-1.6.3-2.4.2-1.2-.3-2.4.1-3.6.5-1.3.3-2.6.6-3.9.2-1.2.5-2.4.7-3.6.2-1 .5-2 1-2.9.5-.8.9-1.7 1.3-2.5.5-.8 1.1-1.6 2-2.2.3-.2.9-.3 1.1-.1.2.2.6.5.6.7-.1.7-.2 1.4-.6 2-1 1.4-1.3 3.1-2.2 4.5-.1.1-.1.2-.1.3-.5 2.7-1.6 5.3-1.8 8-.5 4.9-.9 9.8-1.3 14.7-.1.7-.1 1.4.1 2.1.1.5.1 1 .1 1.5-.1 2-.2 4 .1 6 .1.5.1 1 0 1.5-.2 2.5 0 5 .2 7.5.2 1.8.2 3.6 0 5.4-.3 1.9-.3 3.8-.5 5.7-.2 2.2-1 4.3-1.9 6.4-.5 1.2-1.2 2.4-1.3 3.8-.1.5-.3 1-.6 1.4-.9 1.4-1.8 2.7-2.6 3.8zM636.1 690c.2-1.1 1.1-1.8 1.5-3-.1-.6-.3-1.4-.3-2.3 0-.7-.2-1.5-.5-2.2-.2-.5-.1-1.1-.2-1.6-.4-1.4-.4-2.9-1.2-4.3-.3-.5-.3-1-.4-1.5-.2-.8-.2-1.7-.5-2.5-.9-2.7-1.1-5.4-1.5-8.1-.2-1.2.1-2.5-.3-3.8 0-.2.1-.4.3-.5.2-.1.4-.2.7-.2.1 0 .2.1.2.2.1.1.1.2.1.3 0 .7.2 1.4.4 2.2 1 3.3 1.9 6.6 2.8 9.9.3 1.2.6 2.5.8 3.7.4 1.7.8 3.3 1.1 5 .3 1.6.7 3.1.9 4.7.2 1.5 0 3-.4 4.4-.1.6-1.1 1-1.9.7-.5-.3-1.1-.5-1.6-1.1zM270.5 226.1c1.1 3.1 1.6 6.2 2.3 9.2.5 2.1 1 4.3 1.7 6.4 1 3.1 1.8 6.2 2.8 9.4.5.6 1.2 1.3 1.6 2.1 1 2 2 3.9 2.7 6 1 3.1 2.5 6 3.8 8.9.9 2 2 3.9 3.4 5.6 1 1.3 2 2.7 2.7 4.2.4.8 1 1.5 1.5 2.2.5.7 1.1 1.5 1.6 2.2.7.9 1.5 1.8 2.2 2.7.7 1.1 1.3 2.2 2 3.3 1.4 2 2.7 4.1 4.1 6.1 3.5 5 6.9 10 11.2 14.4 1.6 1.7 3.1 3.4 4.6 5.2 1.4 1.7 2.8 3.3 4.6 4.7-.1.6-.3 1.3-.3 2.1-.4.3-.7.6-1 1.1 0 .5 0 1.3-.1 2.1.3.3.5.7.8 1-.1 2.3 0 4.6 0 6.2-.8.2-1.6.3-2.4.3-1.5.8-3.3.7-4.9 1.1-1.2.3-2.6.3-3.7 1.1-.5.3-1.2.4-1.8.6-2.9.7-5.8 1.4-8.7 2-2 .4-4 .9-6 1.5-1.9.5-3.7 1.2-5.6 1.4-.6.4-1 .9-1.6 1.2-.5.3-1.1.6-1.7.9-.2.1-.5.3-.6.4-2.3 2.1-4.7 4.1-6.3 6.8l-3.3 5.7c-.2.4-.3 1-1 1.2 0 0-.2 3.9 1.2 5.1.6.3.9.7.6 1-1.1 1.4-2.3 2.8-3.5 4.1-1.6 1.9-3.3 3.6-4.4 5.9-.1.2-.1.5-.2.7.1 1 .8 1.3 1.6 1.5.7.1 1.5 0 2.3 0 .2.2.3.4.1.7-3 3.7-4.1 8-4.7 12.5-.1.7.2 1.2.8 1.6 1.1.7 2.3 1.1 4 1 2.2-1.1 4.6-2.3 6.5-4.3.4-.4 1-.8 1.6-1.1 1-.6 2.1-1.1 3.2-1.6 1.3-1.9 3.2-3.3 4.6-5.2.8-1.1 1.7-2.4 2.7-3.3 1.1-.9 2.4-1.5 3.6-2.2 5.1-3 10.2-6.1 15.7-8.5 2.6-1.2 5.3-2 8.1-2.7 3.3-.8 6.6-1.1 9.9-1.9 1.6-.4 3.3-.2 5-.1 1.8.1 3.6.3 5.4.2 1.2-.1 2.3-.2 3.4.2.6.2 1.3.3 1.9.2 3.4-.3 6.7.1 10.1.3 2.1.1 4.1.2 6.2 0 2.1-.2 4.1-.1 6.2-.4.6-.1 1.3 0 1.9 0 2.6.1 5.2.4 7.8.1.6-.1 1.3.1 1.9.1 1.7.2 3.4.2 5-.1.4-.1.8-.2 1.1-.2 4.3.2 8.5-.5 12.8.1 2.7.4 5.4 0 8.1-.3 2.8-.4 5.6-.8 8.5-.7 2.3.1 4.6-.2 7-.2h.8c1.9-.7 3.8-.4 5.8-.3 1.4.1 2.8.2 4.3-.1.6-.1 1.3-.1 1.9-.1 1.6.1 3.1-.1 4.6-.3 1.5-.2 3.1.2 4.6-.3.2-.1.5-.1.8-.1 2.6.4 5.2-.1 7.7-.4 3.1-.4 6.1-.9 8.9-2.4 2-1 4-1.8 6.1-2.5 1.5-.5 2.8-1.2 4.1-2.2 1.2-.9 2.4-1.8 3.6-2.6 0-.3.3-.7.8-.9 2.2-1 5.9-4.6 5.9-4.6.8-.9 1.9-1.7 2.9-2.5 2.5-1.8 4.3-4 5.9-6.6.2-.9.5-1.8.6-2.7.1-.6.1-1.3.2-1.9.1-.6.2-1.3.4-1.9.4-1 .4-2 .6-3 .3-2.8.2-5.7.9-8.5.2-.7.1-1.5.2-2.3.1-2.1.2-4.1.3-6.2.1-2.1.4-4.1.1-6.2.6-2 .6-4.1.9-6.1.1-.5.1-1 .1-1.5.2-2.3.4-4.6.5-7 .1-1.8.3-3.6.3-5.4 0-1.7-.1-3.3.3-5 .2-1 .2-2 .2-3.1-.1-2.1-.2-4.2.1-6.2.5-3.6.5-7.2.8-10.8.1-1.5.2-3.1-.2-4.5.2-.9.4-1.7.5-2.1v-4.2c0-1.6.2-3.1 0-4.7-.2-2 0-3.9.1-5.8.1-2.1.2-4.1.3-6.2.1-2.3.4-4.7-.5-6.9-.1-.4-.1-.8-.1-1.2-.1-2.7-.2-5.4-.2-8.1.1-4.6-.7-9-1.8-13.4-.2-1-.6-2-1.1-2.9-1.8-3.7-4.3-6.7-7.8-9-2.1-1.4-3.9-2.9-5.7-4.7-1.6-1.5-3-3.2-5.1-4-1.3-1.3-3.1-1.8-4.6-2.8-2.4-1.6-4.9-2.8-7.6-3.9-1.8-.8-3.6-1.5-5.3-1.7-4.2-2.3-4.2-2.3-9.6-3.6-.4-.1-.8-.2-1.1-.4-1.7-.9-3.6-1.4-5.3-2.5-.7-.5-1.6-.9-2.5-1.1-1.7-.3-3.1-1.2-4.4-2.3-.3-.6-.7-1.2-1-1.8-.8-.3-1.5-.9-2.5-.9-1.2.3-2 1.1-2.6 2.4.1.8-.5 1.8.1 2.9 1 .7 2 1.5 3.1 2.2.4.3.8.6 1.3.8 2.7 1 5 2.8 7.8 3.3 3.6 1.3 7.3 2.7 10.8 4.3.9.4 1.9.8 3 .9 1.4.2 2.7.7 4 1.4 1.6.9 3.2 1.7 5 2.1.4.1.7.3 1.1.4 4.4 2.5 8.5 5.4 12.7 8.3.2.1.4.3.6.5 1.3 1.1 2.5 2.2 3.9 3.2 1.7 1.3 3.2 2.7 4.6 4.1.7 1.1 1.3 2.3 2 3.3 1.2 1.6 1.8 3.4 2.3 5.3.4 1.6.8 3.3 1.2 5 0 1-.1 2-.1 3 .2 1.8.2 3.6.1 5.4 0 .5 0 1 .1 1.5.2.9.2 1.8.2 2.7 0 .9 0 1.8.1 2.7.2 1.8.3 3.6.2 5.4-.1 2.1-.4 4.1-.3 6.2.2 2.7-.1 5.4-.2 8.1-.1 1.3 0 2.6.2 3.9.1 1.1.1 2.1-.1 3.1-.2.9-.4 1.8-.6 2.6.3 1.3.5 2.6.2 3.9-.2 1-.1 2.1-.2 3.1 0 .9.1 1.8-.1 2.7-.5 2.6-.4 5.2-.6 7.7-.1.9 0 1.8-.2 2.7-.5 3.5-.1 7-.7 10.4-.1.4 0 .8 0 1.2.3 2.3.1 4.7-.1 7-.2 2.7-.6 5.4-.8 8.1-.2 5-.6 10.1-1.1 15.1-.2 2.6-.2 5.2-1 7.6-.2.7.1 1.6-.1 2.3-.4 1.4-.4 2.8-.6 4.2-.1 1.2-.3 2.3-.4 3.1-.9 2.1-2.2 3.4-3.5 4.6-2.3 2-4.7 4.1-7.1 6-1.1.9-2.2 1.8-3.4 2.6-1.6 1.1-3.1 2.3-4.5 3.2-2.8 1.2-5.5 2.3-8 3.5-.9.4-1.9.8-2.9 1.1-2.4.7-4.8 1.1-7.2 1.7-1.9.5-3.8.7-5.8.7-1.8 0-3.6-.1-5.4 0-2.3.1-4.7.1-7 .3-1.2.1-2.3.2-3.5.1-1.9-.3-3.9-.3-5.8.1-1 .2-2.1.1-3.1.2-1.3.1-2.6.1-3.9.3-2.2.3-4.4.6-6.6.4-.6-.1-1.3 0-1.9.2-1 .3-2 .3-3.1.2H399c-1.2 0-2.3.1-3.5.1-4 .1-8-.3-12 .4-.7.1-1.5 0-2.3-.1-1.7 0-3.4-.2-5-.1-2.2.2-4.4.1-6.6-.1-2.2-.1-4.4-.4-6.6.1-.6.1-1.3.1-1.9.1-1-.1-2.1-.1-3.1.1-.6.1-1.3.2-1.9.1-4-.2-8-.4-12-.7-2.3-.2-4.6-.4-7-.5-1.5-.1-3.1.5-4.6-.2-2.2.1-4.4 0-6.6.5-3.3.8-6.6 1.3-9.9 1.2-.8.3-1.4.8-2.2 1-.9.2-1.8.3-2.5.4-1.1.9-2.2 1.5-3.4 2-1.9.7-3.8 1.7-5.6 2.6-.5.2-.9.5-1.3.8-1.4 1.2-3 2-4.5 3-2.1 1.4-4.5 2.5-6.6 4.1-2 .9-3.3 2.4-4.3 4.3-1.3 2.4-3.5 4.1-5.5 6-1 .3-2 .6-2.8.8-1 .9-1.9 1.6-2.8 2.3-.2.1-.5.1-.7 0-.2-.1-.2-.4-.3-.6.3-.8.7-1.7 1-2.5.5-1.4 1.3-2.6 2.2-3.7 1.2-1.5 2.5-3 3.8-4.4.9-1.1 2-2 3.2-2.8.9-.6 1.7-1.2 2.4-2 .6-.7 1.4-1.2 2-1.8 1.3-1.1 2.5-2.2 3.7-3.4.5-.4.7-1.1.8-1.7-.4-1.1-.4-1.1-1.5-1.6-.8.2-1.7.3-2.6.5-1.5 1.6-3.5 2.7-4.8 4.5-.2.3-.5.6-.8.8-2.5 1.7-4.6 3.7-6.7 5.8-.2.2-.4.3-.7.4-.1-.2-.3-.5-.3-.6.8-1.1 1.7-2.2 2.5-3.4 1.6-2.3 3.7-4 5.6-5.9.9-.9 2-1.7 3.1-2.4s2.3-1.2 3.4-1.9 1.8-1.9 3.1-2.3c.4-.1.7-.3 1-.5l.9-.6c.6-.8.6-1.5 0-2.2-.4-.5-.9-.9-1.7-1.1-2.2.7-4.4 1.8-6.5 3.1-.8.5-1.6.9-2.2 1.5-1.5 1.6-3.5 2.6-5.1 4-.6-.1-.8-.5-.6-.9 1.8-3.5 4.2-6.5 6.8-9.4 1.3-1.6 3-2.8 5-3.6 1.3-.5 2.6-1.2 3.8-1.9.8-.5 1.6-.8 2.5-1 1.5-.3 3-.5 4.6-.8 1.3-.2 2.5-.4 3.7-1 .7-.3 1.5-.4 2.2-.6 2.4-.9 5-1.2 7.5-2.1 1.3-.5 2.8-.6 3.6-.6 1.6.1 2.5.9 3.7.7.3-.2.7-.5 1.1-.8.6-.5 1.3-.8 2.1-1 2.8-.5 5.5-1.5 8.4-1.2.4 0 .8.1 1.2 0 1.1-.4 2.3-.3 3.5-.4 1.2-.1 2.3-.3 3.4-.5.8-.1 1.5-.4 2.3-.4 3-.2 5.9-.3 8.9-.8.5-.1 1 0 1.5 0 .9 0 1.8.1 2.5.1 3-1 3-1 5.9-.9 1.9.1 3.9.3 5.8-.4 1.4.1 2.8-.4 4.2-.5 3-.1 5.9-.6 8.5-1.7 1.5 0 2.7 0 4-.3 1.8-.4 3.6-.6 5.4-.5 1.3 0 2.6-.1 3.8-.5 1.6-.6 3.3-.4 5-.9 1.6-.4 3.3-.8 4.9-1.2.1 0 .3 0 .4-.1 1.8 0 3.6-.6 5.5-1.1 1.9.2 4-.2 6-.8.9-.2 1.7-.5 2.6-.8 1.2-.4 2.4-.8 3.8-.8.6 0 1.3-.2 1.9-.4 2.1-.6 4.3-.9 6.4-1.7.8-.3 1.7-.6 2.6-.7 1.6-.1 3-.6 4.5-1.2 3-1.1 6.1-2.2 9.1-3.3 1.3-.5 2.7-1 3.7-2.2.1-.4.2-1 .4-1.4 1.1-2.3 2.4-4.6 2.9-7.1.1-.5.5-.9.7-1.4.3-.6.6-1.1.9-1.6-.1-.6-.1-1.1-.2-1.6 0-.2-.2-.5-.3-.7.9-4.2-.5-8.3-1.1-9.9 1.3-2.5 2.2-5.1 2.7-7.9.1-.5.3-1 .5-1.5.7-1.2 1.1-2.6 1.6-4 .4-1.2.8-2.4 1.3-3.7.4-1.2.9-2.4 1.4-3.6.5-1.2.3-2.5.7-3.8.6-2.2.7-4.6 1.5-6.8.1-.2.1-.5.1-.8.2-3.2.4-6.4.7-9.7.1-1-.1-2-.2-3.1-.3-3-1.4-5.8-2.2-8.6-.8-2.6-2.5-4.8-3.9-7.1-.1-.2-.3-.4-.5-.6-.9-.7-1.6-1.6-2.4-2.6-.2-.3-.5-.6-.8-.8-.9-.6-1.9-.7-3-.4-.2.1-.4.2-.5.4-1.8-.1-4.3.3-6.1.5-.3-.3-.7-.5-1.3-.6-1.8 1.1-4.1 1.6-6.6 2.2-.3 0-1-.1-1.6-.1-2.4-.1-4.6.4-6.7 1.6-.5.3-1.2.5-1.8.7-.7.3-1.5.5-2.2.8-1.7.8-3.4 1.1-5.3.9-2.7-.4-5.4-.4-8.2-.4-1.4.5-2.9 1-4.3 1.5-1.2.4-2.3.5-3.4 0-2-.9-4-1.7-5.8-3.4-.3-.7-.6-1.6-.8-2.5-.5-1.9-1.4-3.6-2.4-5.3-.3-.5-.7-.8-1.2-.9-.8 0-1.5.1-2.2.5-.6.3-1 .8-1 1.7.8 1.9 2.7 3.6 2.7 6.1-.3.2-.5.5-.7.5-2.2 0-4.4 0-6.5-.8-1.3-.6-2.8-.7-4.2-.5-.9.1-1.8.3-2.7.6-2.5.1-6.6 0-7.7-1.8 0-.1-.1-.1-.1-.1.4-3.7.7-7.5 1.1-11.2.1-.5 0-1 0-1.5-.4-.6-.8-1.1-1.1-1.7-.1-.1 0-.3 0-.5 2.2-2.5 3.2-5.5 3.1-8.8-.4-1.4-1.2-2.3-2.6-2.7-.5-.1-.8-.6-.7-1.2 1.1-.7 1.9-1.6 2-3.1.1-.7.5-1.4.8-2.4-.2-1.3-.4-2.9.2-4.4.2-.2.4-.6.6-.9 2.9-3.7 6.6-6.6 9.8-9.9.3-.3.6-.5.9-.7.9-.8 2-1.2 3.1-1.4 2.4-.4 4.9-.7 7.3-1.2 1.9-.4 3.8-.6 5.8-.5 1.6.1 3.1-.2 4.6-.7 1-.3 1.9-.7 2.9-1.1.7-.3 1.4-.8 1.8-1.4.4-.5.8-1 1.1-1.6.4-.8.9-1.6 1.7-2.1 1.2-.8 1.9-2.1 2.6-3.3.3-.6.2-1.3-.1-1.9-.3-.6-.7-1.1-1.3-1.3-1-.3-1.3-1.2-2.1-1.8-.4-.1-.9-.3-1.4-.4-1.4-.3-2.8-.5-4.1-1.1-1.2-.5-2.5-.7-3.7-1-2.3-.4-4.6-.9-6.7-1.9-1.2-.6-2.2-1.3-3.1-2.3-.5-.6-1-1.2-1.4-1.7-1.9-.8-3.7-1.4-5.7-1.5-1-.1-2.1-.2-3.1-.4-1.1-.2-2.3-.5-3.5-.7-1.2.1-2.5.2-3.9.3-.8.4-1.7.9-2.6 1.4-.3.2-.6.5-.9.8-2.3 2.4-4.8 4.7-6.5 7.6-.4.7-.9 1.2-1.4 1.8-1.8 2.1-3.5 4.1-5.5 6-1.9 1.8-3.7 3.6-5.6 5.4-.4.4-.8.7-1.1 1.1-.8 1.6-2.1 2.9-3.3 4.3-.5.6-.8 1.3-1.2 1.8-.1.7-.2 1.2-.2 1.7-.1 1.5-.3 3.1-.9 4.6-.5 1.2-.5 2.5-.4 3.8.1 1 0 2.1 0 3.1 0 1.3-.3 2.5-1.1 3.6-.3 0-.6.1-.7 0-.5-.4-.9-.9-1.3-1.4-2-.6-3.9-.3-5.6.4-1.6 1.5-2.7 3.2-3.6 5.1-.7 1.6-1.2 3.2-.5 5 1.2 1.4 2.4 2.9 3.7 4.3.3.4.8.7 1.2 1 1 .8 2.1 1.5 3.3 2 .3.1.6.4 1 .7-.3 1.8-.2 3.6-1 5.3-.2.5-.2 1-.3 1.5-.1.5-.2 1.1-.5 1.5-.9 1.2-1.1 2.6-1.4 3.8-.3.3-.6.4-.8.6l-3.9-.3c-.2 0-.5.1-.9.1-.7.4-1.5.9-2.2 1.3-2.4.4-4.7.4-7 .1-1.4-.2-2.8-.2-4.4 0l-.1.1-2.2.1c.2-.6.4-1.2.7-1.8.2-.3.2-.7.3-1.1.2-1.1.3-2.3.5-3.5.2-1.2-1-2.5-2.5-2.7-.8.3-1.7.6-2.6.9-.3.4-.5.8-.7 1.1 0 1.1.1 2.3 0 3.5-.1 1-.3 2-.5 3.1s-.4 2.3-.6 3.4c.1 3 .5 6 .9 9.1 1 1.6 1.5 3.6 2 5.6.8 3.8 1.4 7.7 3.4 11.1.7 2.7 2.2 5 3.1 7.5.4 1.2 1.1 2.3 1.9 3.3.7.8 1.2 1.7 1.8 2.5.1.2.1.5.2.7-.3.5-.9 1-1 1.6-.2 1.3-.9 2.4-1.6 3.5-.7 1.2-1.6 2.3-2.1 3.7.5 1.3 1.2 2.3 2.4 2.8 1.1-.2 2.1-.3 3-.9 0-.5-.1-1-.1-1.6 1.9-1.6 2.5-3.9 2.8-6 .5-1 1-1.7 1.4-2.5.6-2.6 1.2-5.3 2-7.9.8-2.7 1.2-5.6 1.7-7.8.8-2.1 1.6-3.6 1.9-5.3.3-1.4.8-2.7 1.3-4 .6-1.4 1.2-2.9 1.8-4.3.3-.7.6-1.4.7-2.2.2-1.2.7-2.2.9-3.4.3-1.3 1.1-2.4 1.3-3.6.3-1.4.9-2.7 1.2-4.1.4-1.9 1.4-3.6 1.4-5.6 0-.4.1-.8.3-1.1.8-2.1 1.5-4.1 2.4-6.2.1-.3.4-.6.7-.9 2.6.1 5.2.8 7.7.1 1.8.8 3.5.7 5.3.3.8-.2 1.5-.4 2.3-.5.5-.1 1-.1 1.5-.1.3.2.6.3.7.6.4.7.7 1.4 1.2 2.3-.2 1.8-.4 3.5-.6 5.1-.1.5-.2 1-.1 1.5.1 1.6 0 3.1-.5 4.6-.1.4-.2.8-.2 1.1.1 2.4-.6 4.6-1.2 6.9-.2.9-.4 1.8-.5 2.7-.2 2.2-.5 4.4-1.1 6.5-.2.6-.1 1.3-.2 1.9-.4 3.5-.5 7-1.7 10.3-.1.4-.2.8-.2 1.1 0 2-.6 3.8-1.1 5.7-.5 1.9-1.1 3.7-1.2 5.7 0 .5-.1 1-.3 1.5-.9 1.9-1 4-1.3 6.1-.2 1.2-.2 2.4-.5 3.4-1 3.2-1.5 6.5-2.9 9.6-.3.6-.4 1.2-.5 1.9-.3 2.5-.9 4.8-2.2 6.7-.4 3.4-.5 3.4-1.5 5.8-.7 1.8-1.7 3.5-2.9 5-1.8 2.4-3.6 4.7-5.5 7.1-1.8 1.2-3.7 2.4-5.3 3.4-.5.1-.8.2-1 .2-2.8.2-3 0-4.9-2.4-1.4-.8-2.9-1.6-4.4-2.4-.2-.1-.4-.3-.6-.5-.2-.4-.4-.9-.6-1.4-2.2-1.4-2.2-1.4-3.7-3.3-.5-.6-.9-1.3-1.5-1.8-1.2-.8-2.1-1.9-2.9-3.1-.6-.9-1.5-1.4-2.3-2.2-1-1.6-1.8-3.4-3.2-4.7-1.4-1.4-2.1-3.3-3.4-4.7-.5-.6-1-1.2-1.3-1.9-.2-.5-.5-.9-.9-1.2-1.7-1.5-2.8-3.3-3.9-5.3-1.5-2.6-3-5.2-4.9-7.4-.7-.8-1.2-1.7-1.8-2.6-1-1.7-1.6-3.6-3.3-4.8-.1-.1-.2-.2-.2-.3-1-1.8-2-3.6-2.9-5.5-.4-.8-.7-1.7-1.2-2.5-.9-1.6-1.6-3.2-2.1-4.9-.5-1.6-1.1-3.2-1.8-4.7-1.6-3.1-2.5-6.5-3.9-9.7-.5-1.2-.7-2.5-.9-3.8-.1-1-.4-2-.7-3-.7-2.3-1.4-4.7-2.1-7.1-.1-.2-.1-.5-.1-.8-.2-1.7-.3-3.4-.7-5-.4-1.7-.4-3.3-.5-5-.2-2.4-.3-4.9 0-7.4.2-1.5.4-3.1.5-4.6.2-1.7.4-3.3 1-4.9.3-.7.4-1.5.4-2.3.1-1.9.7-3.5 1.6-5.2.4-.8.9-1.6 1.2-2.4.9-2.7 2.8-4.6 5-6.3 2.5-2 5.3-3.7 8-5.5.5-.3 1.1-.7 1.7-.9 1.6-.6 3.1-1.2 4.7-1.7s2.9-1.7 4.5-2.2c1.4-.4 2.7-1 4-1.5.5-.2 1-.4 1.5-.5 3.9-.9 7.6-2.4 11.2-4.3 3.2-1.7 6.3-3.6 9.8-4.6.4-.1.7-.3 1.1-.4 2.6-1.3 5.2-2.2 7.9-3.3 1.6-.6 3.1-1.3 4.6-2.1 1.5-.8 3-1.5 4.6-2.1.5-.2 1-.3 1.4-.6 1.9-1.1 3.8-2.2 5.7-3.4.3-.2.5-.6.7-.9l-.9-1.8c0-.5.1-1 .1-1.4-.6-.6-1.2-.6-1.9-.5-1 .2-2 .4-2.9.9-1.1 1.4-1.4 1.7-2.6 2.2-2.3.8-4.5 1.9-6.7 3-2.4 1.2-4.9 2.2-7.4 3.3-.4.2-.7.2-1.1.4-.9.3-1.7.5-2.5.9-3.1 1.4-6.1 2.8-9.2 4.2-.6.3-1.2.6-1.7.9-2.5 1.8-5.2 2.7-8.1 3.5-3.2.9-6.4 2-9.5 3.4-2.1.9-4.3 1.9-6.5 2.4-.7.2-1.5.5-2.2.9-2.5 1.4-5 2.8-7.4 4.3-2.1 1.3-4 2.9-5.9 4.3-.5.6-.8 1.2-1.2 1.7-1.7 2.1-3.1 4.4-4 7-.4 1.2-1.1 2.3-1.4 3.6-.3 1-.4 2-.7 3-.3.9-.3 1.8-.4 2.7-.1 1-.6 2-.7 3-.2 1.3-.4 2.6-.8 3.8-.2.5-.3 1-.4 1.5-.4 4.1-.7 8.3.4 12.3.8 3.5 1.1 5.4 1 7.2zm68.3 3.3c-.9 3.5-2.1 6.9-3.6 10.2-.2.5-.5 1-.5 1.5-.1 1.7-.9 3.2-1.4 4.8-1.3 4.2-2.7 8.4-4.1 12.5-.3.9-.4 1.7-.4 2.6 0 .5-.4.9-1 .8-2.1-3.6-3.1-6-4-9.2-.3-1.1-.6-2.2-1-3.3-.5-1.6-1.3-3.2-1.5-4.8-.3-1.9-1.2-3.7-1.2-5.7 0-.4-.2-.8-.3-1.1-1.2-2.2-1.6-4.6-2-6.9l4.4-1.1c1.5.3 2.9.6 3.9.8 3.7.3 6.6-.4 9.5-.8 1.7-.3 2.1-2.3 3.7-2.7.1.2.2.4.2.7-.1.6-.5 1.1-.7 1.7zm11.6-32.7c.1-.2.2-.5.3-.7.2-1.1.1-2.3.9-3.3.2-.3.3-.7.3-1.1.1-.2.2-.5.1-.8-.5-1.5.3-3.1 0-4.6l-.3-1.2c.3-.9.7-1.9.8-2.9.2-1.6 1-2.9 1.9-4.2 1.6-2 3.2-4.1 4.9-6.3 1.4-1 2.9-2.2 4-3.8 2.5-2.5 4.6-5.3 7.1-7.7.4-.3.6-.8.9-1.2 1.5-2.1 3.1-4.1 5.2-5.8.7 0 1.5-.1 2.2 0 5.6.6 5.6.6 8.8 1.7 1.6 1.2 3.3 2.4 5.3 3 1.2.4 2.3 1.2 3.5 1.7 1.8.7 3.7 1.1 5.6 1.4 1.3.2 2.5.5 3.7 1.1.1.5-.1.8-.5.8-1.3 0-2.5-.4-3.8-.7-2.3-.5-4.5-1.1-6.8-1.3-.5 0-1.1-.1-1.5-.3-1.7-.8-3.5-.7-5-1-1.1.2-1.8.4-2.4 1.1.1 1.2.4 2.4 1.5 3.3 1 .6 2 .6 3 .7 2.1.1 4.1.4 6.1.9.9.2 1.8.4 2.7.5.9.1 1.8.4 2.6.6 1.2.4 2.5.5 3.7.8.4.1.5.7.2.9-1.9 1-4 .9-6 1.3-1.3.2-2.6.1-4.1.1-.6-.6-1-1.1-1.6-1.7-.6-.1-1.4-.3-2.1-.4-2.3-.2-4.6-.3-7-.4-1 .3-1.9.8-2.3 1.8 0 1.3.8 2.1 1.6 3-.9.7-1.9 1.3-2.8 2-2.3 2.1-4.8 4-6.9 6.2-.4.5-1 .8-1.6 1.1-1.5 1-2.4 2.3-2.7 4.1-.2 1-.3 2.1-.6 3-.3 1-.9 1.9-1.3 2.8-.2 1.3-.4 2.6-.6 4 .2.6.5 1.3.6 2.1.1.9 1.2.9 1.3 1.7-1.4.7-2.9 1.3-4.4 1.4-1.9.2-3.8.7-5.8.5-1.8-.2-3.6-.4-5.4-.5-1.7-.2-3.2-.8-4.8-1.5-.1 0-.1-.2-.2-.3.5-.9 1.3-1.3 1.7-1.9zm16.4 10.7c-.6.2-1.3.2-1.8.6-.8.6-1.7.7-2.6.7-1.2.1-2.3.2-3.5.1-3-.2-5.9-.2-8.9-.3-.3 0-.5 0-.8-.1-1.9-.7-4-.9-5.9-1.7-1.7-.8-3.1-1.8-3.8-3.6-.2-.5-.5-.9-.7-1.3 0-1 .5-1.7 1.3-2.4.3.1.8.1 1 .4 1.1 1.6 2.7 2.4 4.3 3.2 1.7.9 3.6 1.4 5.5 1.8 3.6.6 7.2.6 10.8.9.9.1 1.8-.1 2.7-.3 1.4-.3 2.7-.8 4.2-.7.4 0 .7.2 1 .4.1.8-.3 1.4-.9 1.7-.6.2-1.3.4-1.9.6zm-40.3 115.8c.2-.9.5-1.6.8-2.2.4.2.7.6 1 .9 1.9 2.1 4.4 2.6 7.1 2.3.9-.1 1.8-.4 2.6-.6 2-.5 3.8-1.5 5.4-3 2.4-2.2 4.6-4.6 6.2-7.4 1-1.8 2.1-3.5 3.6-4.8.5-1.3.8-2.4 1.3-3.4.6-1.4 1.1-2.9 1.4-4.4.3-1.4.6-2.8 1.1-4.1.8-2.2 1.5-4.4 2.2-6.6 1.1-3.2 1.9-6.5 2.5-9.8.5-2.7.7-5.4 1.6-8 .1-.2.1-.5.2-.8.3-2.4.9-4.8 1.3-7.3.3-2.2.8-4.3 1.5-6.4.6-1.8 1.1-3.7 1.2-5.7.1-1.5.2-3.1.6-4.6.6-1.8.6-3.6.9-5.3.3-2.3.5-4.6 1.2-6.9.5-1.6.9-3.3 1.1-4.9v-.2c2 .5 4.7 1.2 6.8 1.7.3.2.7.3 1.2.4.6 0 1.1.1 1.7.1h.7c.9 0 1.8.1 2.7.5 1.5.7 3 .7 4.6.5 2.2-.3 4.4-.2 6.6.3 1.4.3 2.7.7 4.1 1.1.9.7 1.8 1.5 2.5 2.1 1.2.2 2.2.4 3.2.6.9.2 1.8 0 2.6-.5 1.2-.7 2.3-1.7 3.8-2.1 1.3-.1 2.8-.1 3.8-.2 1.9.3 3.4.7 5 .9 2.4.3 4.6 0 6.8-1.1 1.2-.6 2.3-1.1 3.5-1.6 1-.3 2-.5 3-.7.6-.1 1.3-.2 1.9-.3 2.2-.2 4.4-.5 6.5-1 1.1-.6 2.3-.4 3.5-.7 1.6-.2 6.4-1.4 6.4-1.4 2.3 2.2 3.9 4.8 5.6 7.4 1.1 1.8 1.8 3.7 2 5.8.1.8.2 1.6.4 2.3.8 2.4.6 4.8.4 7.3-.3 3.2-.6 6.4-1.3 9.6-.3 1.5-.5 3.1-.8 4.6-.3 1.4-.6 2.8-1.2 4.1-.6 1.3-1 2.7-1.4 4-.2.7-.4 1.5-.7 2.2-1.2 2.6-2.3 5.2-2.6 8.1 0 .3-.1.5-.2.7-1.4 2.9-2.6 5.9-4.8 8.4l-2.7 3.3c-.2.3-.3.7-.4 1 .7 1.3.7 1.3 2 1.9.4-.1 1-.2 1.4-.4.5-.3 1.1-.8 1.4-1.3l2.1-3c.4 1 .5 2.5.5 3.8l-.2.2c-.4 1.8-.9 3.5-2 4.8-.2 1.2-.2 2.3-.5 3.2-.3 1 0 2.1-.6 3-.1.1-.2.2-.3.2-3.8 1.4-7.5 2.7-11.3 4-.7.3-1.5.4-2.2.6-1.3.3-2.6.5-3.7 1-1.7.7-3.4 1.1-5.2 1.4-1.3.2-2.5.6-3.8.9-2.8.7-5.5 1.6-8.3 1.8-1.6.6-3.3.4-5 .8-1.6.4-3.3.6-4.9 1.1-2 .6-4 .9-6.1 1.2-1.1.2-2.3.2-3.5.4-4.4.5-8.7 1.4-13 2-4.3.6-8.7 1.4-13 1.9-.6.1-1.3.3-1.9.3-1.2 0-2.3.1-3.5-.1-1.2-.2-2.3.5-3.5.4h-.4c-3.6-.3-7.2.1-10.8.6-3.5.5-7 .2-10.4.8-.4.1-.8.1-1.2 0-1.4-.2-2.8.1-4.2.4-1.1.2-2.3.5-3.4.8-.6.1-1.2.3-1.8.3.1-.6.1-1.4-.1-2.4-.1-.7-.2-1.3-.2-1.9.4-.2.7-.5.9-.9-.7-.6-1.1-1.3-1.3-2z"/>
    <path class="st1" d="M771.7 782.4c-.4-.4-.9-.8-1.2-1.1-.6-3.4-1-6.7-1.8-9.9-.4-1.8-.5-3.6-.8-5.4-.3-1.9-1.1-3.7-1.2-5.6 0-.5-.2-1-.3-1.6-.1-.4 0-.9-.1-1.3-.8-2.4-1-4.8-1.3-7.2-.2-1.7-.9-3.3-.7-5-.6-2.6-1-5.2-1.8-7.8-.6-2.2-1.4-4.3-2-6.5-.5-1.7-1-3.3-1.8-4.9-.5-1-1-1.9-1.6-2.9-.6-.9-.8-2-1.3-3-.5-1.1-1.1-2.2-1.8-3.2-.9-1.2-1.5-2.4-2.2-3.7-1-1.8-1.7-3.8-3.3-5.4-.5-.5-.7-1.1-1.1-1.7s-.6-1.2-1-1.7c-1.1-1.5-2.1-2.9-2.8-4.5-.7-1.6-2-3-2.9-4.5-.1-.1-.1-.2-.1-.3-.9-1.9-1.8-3.8-3-5.5-.3-.4-.4-.8-.5-1.2-.8-2.1-1.7-4.2-2.9-6.2-.3-.5-.5-1-.6-1.5-.2-1.2-.9-2.2-1.3-3.3-.9-2.2-2.2-4.3-2.6-6.6-.6-1.3-.9-2.6-1.2-4-.1-.6-.3-1.3-.6-1.8-.8-1.5-1.3-3-1.8-4.5-.4-1.2-.9-2.4-1.5-3.6-1.6-3.3-3.2-6.5-4.7-9.7-.8-1.6-1.5-3.1-2.2-4.7-.6-1.3-1-2.6-1.5-3.9-.4-1-.9-2-1.2-3-.9-3.1-2.5-6-4.3-8.8-.4-.6-.7-1.1-1-1.7-.7-1.5-1.6-2.9-2.6-4.3-.9-1.2-1.5-2.4-2.1-3.7-.8-1.7-1.3-3.4-2.7-4.9-.5-.5-.7-1.1-1-1.7-.5-.8-1-1.5-1.5-2.2-.8-1.1-1.6-2.2-2.3-3.3-.8-1.4-1.6-2.9-2.9-4.1-.2-.2-.4-.5-.6-.8-.9-1.9-2.2-3.6-3.5-5.3-.3-.4-.6-.7-.7-1.1-.5-1.6-1.6-2.9-2.5-3.9-.4-1-.5-1.6-.8-2.2-1.1-2.4-2.3-4.7-3.3-7.1-.6-1.4-1.4-2.8-2.1-4.1-.3-.5-.5-1-.6-1.5-.2-.6-.4-1.2-.8-1.8-1-1.6-1.6-3.3-2.3-5-.9-2.1-1.7-4.2-3-6.2-1-1.6-1.8-3.3-2.2-5.1-.2-.8-.5-1.6-1-2.4-.7-1.3-1.1-2.6-1.4-4-.3-1-.6-2.1-.9-3.1-1-3.1-1.9-6.2-3-9.5-.4-.6-1-1.4-1.3-2.3-.5-1.8-1.7-3.3-2.7-4.9-.6-.9-1.2-1.9-1.8-2.8-.7-1.1-1.3-2.3-2.7-3.1-1.4-.7-1.6-2.1-2.8-3-1.9-1.3-3.6-2.8-5.4-4.1-2.5-1.7-4.9-3.4-7.6-4.9-2.3-1.2-4.3-2.7-6.1-4.4-.8-.7-1.3-1.6-2.1-2.3-2.4-2.1-4-4.7-6.2-6.9-.2-.2-.4-.6-.6-.8-1.7-2.7-3.5-5.4-5.2-8.2-.7-1-1.2-2.1-1.9-3.1-2.3-3.2-3.9-6.7-5.1-10.3-.3-.9-.5-1.9-.7-2.8-1-4.2-2.9-8.1-5-12-.6-1.1-1.1-2.2-1.9-3.1-.7-.8-1.2-1.6-1.8-2.4-1.2-1.5-2.2-3.1-3.7-4.5-1-.9-1.9-2-2.9-3-1.5-1.7-3.3-3.3-5.1-4.8-1-.8-1.9-1.8-2.7-2.7-1.6-1.8-2.8-3.8-4.2-5.7-1.5-2-2.5-4.2-3.8-6.3-.6-.9-1.1-1.9-1.5-2.9-1.2-2.8-2.9-5.4-4.5-8.1-.5-.8-.9-1.5-1.2-2.3-.9-2.4-2-4.8-3.4-7.1-2-3.2-3.5-6.6-5.4-9.8-.1-.2-.3-.4-.3-.6-.1-1.3-1-2.4-1.6-3.6-.3-.6-.7-1.1-.9-1.7-1-2.8-2.4-5.6-3.6-8.4-1-2.3-1.9-4.6-3.2-6.8-.4-.7-.5-1.4-1-2-1.1-1.4-1.6-3.1-2.7-4.6-.3-1.4-1.5-2.4-2.6-3.5-1.1-1-2.2-2.1-3.5-3-3-2.3-6.2-4.5-9.3-6.5-3.6-1-6.6-2.8-9.6-4.4-2.3-1.2-4.7-2.3-7.1-3.2-.8-.3-1.6-.6-2.4-1-2.2-1-4.2-2-6.7-2.4-.6-.1-1.2-.4-1.8-.6-.6-.2-1.2-.5-1.8-.6-2.3-.7-4.6-1.3-6.8-2.3-1.4-.6-2.9-.9-4.5-.9-1.5 0-3.1.1-4.6-.3-.3-.1-.8 0-1.1 0-1.5.1-3.1.3-4.6.4-.8.1-1.6 0-2.4 0-2.9 1-3.3 3-3.3 3h-.2c.9.3 1.8.5 2.7.6.4-.1 1.1-.1 1.7-.3 1.7-.5 3.6-.6 5.4-.5 2.2 0 4.4.3 6.6.5 1.4.1 2.8.5 4.1.9 2.6.9 5.3 1.6 8 2.5 2 .7 4.1 1.3 6 2.2 3.2 1.5 6.5 2.7 9.6 4.2 1 .5 2.1.9 3.1 1.3.6.2 1.2.4 1.7.7 1.5 1.1 3.3 1.7 4.9 2.5 2 1 3.9 2 5.6 3.4 1.2 1 2.6 1.8 3.8 2.7 1.2.8 2 2 3.4 2.6.5.2.9.8 1.3 1.2 1.5 1.7 2.7 3.7 3.6 5.6 3 6.2 6.1 12.4 8.6 18.7.2.4.3.8.5 1.2 1.8 3.1 3 6.3 4.9 9.3 2.1 3.4 3.9 6.9 5.6 10.5.1.3.2.6.4.9 2.7 4.1 4.6 8.5 6.6 12.9 1.8 3.9 4.1 7.5 7.1 10.9.8.9 1.6 1.9 2.5 2.9l1.2 1.2c3.3 2.7 6.1 5.8 8.9 8.8 1.4 1.5 2.5 3.2 4 4.7 1.6 3 3.8 5.8 5.3 8.8.7 1.4 2 5.4 2.3 7 .1.4.2.8.3 1.3.5 2.8 1.5 5.6 3.2 8.1 1.3 2.1 2.4 4.2 3.9 6.2.7.9 1.1 1.9 1.7 2.9l3.6 6c.1.1.1.2.2.3 1.9 1.8 2.9 4 4.7 5.8 2.3 2.4 4.6 4.9 7.4 6.9 1.7 1.2 3.3 2.3 5 3.5l.9.6c3.3 1.6 5.9 3.7 8.8 5.7.2.1.4.3.6.4 3.5 3.4 7 6.8 9.4 10.9.2.3.4.6.5.9 1.1 2.9 2.9 5.7 3.6 8.7 1.1 2.4 1.7 4.9 2.3 7.4 1.2 4.6 3 9 5.2 13.3 1.6 3 3 6.1 4.4 9.2 1.9 4.5 4.1 8.9 6.2 13.4 1 2.2 2.2 4.3 3.3 6.5.2.4.5.7.8 1.1 1.6 2.2 3.1 4.4 4.2 6.8.2.4.4.8.7 1.1 1.8 2.5 3.2 5.1 5.2 7.4.3.3.6.7.7 1.1.8 1.8 2.1 3.4 3.1 5.1 1.1 1.8 2.1 3.6 3.2 5.4 1.4 2.5 2.9 5 4.3 7.5.6 1.1 1.3 2.1 1.7 3.2.7 1.8 1.6 3.6 2.3 5.4 1 2.6 2.4 5.1 3.1 7.8.1.4.4.8.6 1.2.2.3.4.6.5.9.8 1.9 1.5 3.8 2.6 5.6 1.1 1.8 1.8 3.7 2.6 5.7 1.1 2.5 2.1 5 3.1 7.5.2.5.4 1 .5 1.5 1.2 4.7 3.1 9.2 5.2 13.7.3.6.5 1.2.7 1.8.5 1.2 1 2.4 1.6 3.6.6 1.3 1.3 2.5 1.7 3.9.2.7.6 1.4 1 2.1 1.2 2.1 2.4 4.2 3.6 6.4.4.7.7 1.4 1.1 2 .8 1.5 1.6 2.9 2.6 4.2.8 1 1.6 2 2.2 3 1.1 1.9 2.4 3.7 3.5 5.7 2.2 3.7 4.5 7.4 6.4 11.2 1.9 3.8 3.4 7.8 4.5 11.8.6 2.1 1.1 4.1 1.6 6.2.4 1.8.8 3.5 1.1 5.3.3 2.3 1.1 4.6 1.1 6.9.6 1.6.6 3.4 1 5 .8 3.4 1.3 6.9 1.8 10.4.2 1.6.5 3.1.8 4.7.4 2.3.9 4.6 1.3 6.9.2.8.2 1.7 0 2.5-.3 1-.4 2.1-.6 3.1-.3 1.2-2.1 2.1-3.6 1.8-.9-.2-1.7-.4-2.6-.6-1.3.2-2.2.5-2.4 1.3-.3 1-1.3 1.6-1.8 2.5-.1 3.5-1.3 7-2.7 10.4-.3.6-.5 1.2-.7 1.8-.4 1.2-.8 2.5-1.3 3.7-.3.7-.8 1.3-1.4 1.9-1 .9-2 1.7-3.2 2.3-2 1.1-3.7 2.4-5.2 3.8-1.3 1.2-2.7 2.3-4.4 3.1-.7.3-1.3.7-1.9 1.1-.5.3-1.1.6-1.7.7-2 .5-3.8 1.2-5.8 1.5-2.1 0-4.2-.1-6.3-.1-2.3-.3-4.4-1.1-6.8-1.1-.6 0-1.2-.3-1.8-.5-2.4-.8-5-1-7.6-1.1-1.4 0-2.8-.1-4.3-.2-.6 0-1.3-.1-1.9 0-1.3.2-2.6.2-3.9.1-1.3-.1-2.6.1-3.8.4-1.5.3-3 .5-4.5.8-1.4.3-2.7.6-4.1.9-6.4 1.2-12.3 3.3-17.7 6.2-2 1.1-4.1 1.8-6.3 2.4-1.5.4-3 .7-4.5 1-3.2.8-6.5 1.3-9.9 1.5-1.8.1-3.6.3-5.4.5-2.8-.2-5.6-.9-8.4-1.2-.8-.1-1.5-.3-2.2-.6-2-.7-4.1-1.3-6-2.2-3.9-1.7-8.2-2.6-12.5-3.3-2-.3-4.1-.7-6.1-1-.5-.1-1-.2-1.5-.2-2.7-.2-5.4-.4-7.9-.5-.7-.3-.8-.7-1-1.1-.4-.7-1-1.2-1.7-1.7-1-.7-2-.9-3.4-.4-.5.6-1.1 1.3-1.5 1.9-.6 1.2-.2 2.5-.8 3.6-.2.1-.4.3-.6.3-1 .1-2 .3-3 .7-.7.3-1.4.6-2.1.8-1.9.7-3.5 1.8-4.9 3.1-1.4 1.3-2.8 2.5-4 3.5-.5.3-.7.4-1 .5-1.6.5-2.9 1.4-4.6 1.6-2.5.3-5 .8-7.6 1-3.6.2-7.2.3-10.8.9-1 .2-2.1.1-3.1-.1-2.5-.6-5.1-.8-7.7-1-4-.3-8-.5-12-.7l-3.9-.3c-1.2-.1-2.3-.2-3.5 0-2.5.3-4.9-.1-7.3-.4-.5-.1-1-.3-1.5-.3-1.7-.1-3.2-.7-4.7-1.4-1.4-.6-2.8-1.1-4.5-1.8-1.7-1.3-4-2.5-6.3-3.7-2.4-1.3-4.7-2.6-7-3.9-2-1.1-4.1-2.2-6-3.5-1.5-1-3.3-1.7-4.9-2.5-1.1-.5-2.2-1.1-3.3-1.6-3.9-1.9-8-3.4-12.3-4.6-2-.5-3.9-1-5.9-1.5-1.5-.3-3.1-.4-4.6-.3-1.7.2-3.4.1-5.2.1-1.5.3-3 .9-4.7 1-.6 0-1.2.3-1.8.5-2.5.9-5 1.8-7.3 2.9-2.1 1-4.4 1.8-6.7 2.6-2.9 1-5.8 1.8-8.6 2.8-1.3.5-2.8.6-4.1 1-1.3.4-2.7.7-4.1.9-2.1.4-4.3.7-6.4 1.4-.7.3-1.5.4-2.3.4-.4 0-.8 0-1.2.1-3.4.9-6.9.6-10.4.9-1.4.1-2.9-.1-4.2-.4-3-.7-6-1.4-8.7-2.6-1.9-.9-3.9-1.7-5.8-2.6-3-1.5-6.1-2.8-9.3-3.8-1.1-.4-2.2-.6-3.4-.8-.9-.1-1.8-.3-2.7-.4-.4-.1-.8-.1-1.1-.1-1.8.2-3.6 0-5.4-.2-1.8-.1-3.6-.3-5.4 0-.8.1-1.5 0-2.3 0-1.6 0-3.1-.1-4.7-.1-.5 0-1.1-.1-1.5.1-1.9.5-3.8.4-5.7.8-1.9.4-3.8.6-5.7 1-2.5.5-5 1.2-7.3 2.2-1.7.7-3.3 1.7-4.7 2.8-1.1.8-2.1 1.5-3.3 2.2-1.9 1.1-3.6 2.4-5.1 3.9-.8.8-1.8 1.5-2.8 2.2-.8.5-1.6 1-2.4 1.7-1.3 1.1-2.8 1.8-4.4 2.6-3 1.5-6.4 2.3-9.7 3.1-.6.1-1.3.1-1.9.1-1 0-2.1.1-3.1.2-2.8.5-5.6.9-8.4 1.3-.6.1-1.3.1-1.9.1-1.4 0-2.8 0-4.2.3-1.3.3-2.6.1-3.9 0-3.1-.3-6.2-.3-9.3-.2-.6-.2-1.2-.3-2-.5-.4 0-1.1.2-1.7.2-1 0-2.1.2-3.1 0-3.2-.7-6.4-.7-9.6-1.1-1.5-.2-3.1-.3-4.6-.7-.7-.2-1.5-.2-2.3-.3-1.9-.2-3.9-.2-5.7-.9-.8-.3-1.8-.3-2.7-.3-1.6-.1-3.1-.2-4.5-.7-.6-.2-1.2-.3-1.9-.3-1-.1-2-.3-3-.6-.5-.2-1-.3-1.5-.3-2.2-.1-4.2-1.1-6.4-1.3-.8-.4-1.7-.4-2.6-.6-.8-.1-1.6-.2-2.2-.5-1.8-.9-3.9-1.2-5.9-1.6-1.8-.4-3.4-1-5.2-1.3-1.8-.3-3.5-.8-5.2-1.2-1-.2-2-.4-3-.5-1-.1-2-.4-3-.6-1.5-.2-3-.5-4.5-.9-1.1-.3-2.2-.6-3.4-.7-.4 0-.8-.1-1.1-.3-1.6-.4-3.1-1-4.8-1.3-1.6-.3-3.2-.7-4.9-1-2.4-.5-4.8-1-7-1.8-2.6-.9-5.2-1.2-7.9-1.6-4-.7-8-.5-11.9.4-.9.2-1.8.3-2.6.7-2 .9-4.2 1.6-6.3 2.4-2.5 1-4.8 2.1-6.9 3.6-.3.2-.6.5-.9.6-1.7.6-3 1.7-4.4 2.6-2.2 1.4-4.5 2.5-7.1 3.2-1.5.4-2.8 1.1-4.4 1.2-.4 0-.8.2-1.1.2-1.7-.1-3.3.3-5 .3-1.4.1-2.8-.1-4.2.3-2.1-.1-4.1-.1-6.1-.6-.6-.2-1.2-.4-1.9-.4-1.7-.1-3.3-.6-4.9-.9-1.5-.3-2.9-.8-4.4-1.3-1.9-.7-3.8-1.3-5.9-1.5-.6-.1-1.3-.2-1.9-.2-1.6 0-3.1-.1-4.7-.1-1.8.1-3.6.2-5.2 1-.6.3-1.2.3-1.9.4-.8.1-1.5.2-2.7.4-.9-.1-2.1-.3-3.6-.5-2.7.4-5.7.5-8.6-.3-2-.5-3.8-1.3-5.6-2.2-2.3-1.2-4.9-1.9-7.4-2.7-.8-.3-1.7-.4-2.6-.5-3-.2-5.9-.6-8.9-.3-.5 0-1-.2-1.1-.7 0-.1 0-.2.1-.3 1.4-1.2 2.9-2.4 4.3-3.6 1.9-.8 3-2.3 4.4-3.5 1.2-.9 2.1-2.2 3.6-2.9 1.3-1.3 2.6-2.6 3.9-4 .2-.2.3-.6.5-.9.2-.4.5-.8.7-1.1 1-1.5 2.3-2.8 3.3-4.3.9-1.5 2.3-2.8 3.5-4.3 1.3-2.8 2.5-5.7 3.8-8.6.1-.3.3-.6.5-.9 2.3-3.1 4.3-6.3 6.2-9.5.6-1 1.2-2.1 2-3.1.8-.9 1.4-2 1.9-3.1s1.3-2.1 2.4-2.8c1.1-2.7 2.5-5.2 4.6-7.3.2-.2.5-.5.6-.8 1-1.9 2.1-3.6 3.4-5.4.2-.3.2-.6.4-.9 2.3-2.6 3.4-5.7 5.7-8.3.3-.3.4-.8.7-1.1.5-.8 1-1.5 1.5-2.2 1.1-1.6 2.2-3.1 3.3-4.7.2-.3.3-.6.5-.8.8-1.2.7-2.7 1.9-3.8.7-1.3 1.4-2.5 2.2-4 .5-.5 1.2-1.1 1.8-1.8.8-.9 1.8-1.8 2.2-3 2-2.6 3.3-5.5 5.4-8.1.3-.3.6-.7.7-1.1.8-1.9 2.1-3.6 3-5.5.2-.4.4-.8.7-1.1.9-1.1 1.5-2.2 2.1-3.4.2-.5.4-1 .8-1.5 1.3-1.6 2-3.4 2.3-5.4 1.6-1.9 2.5-4 3.5-6 .7-1.5 1.5-2.9 2.1-4.4.7-1.6 1.7-3.1 2.6-4.6.3-.6.8-1.1 1-1.7.9-2.6 2.4-4.9 3.7-7.3.5-1 .8-2 1.3-3 .6-1.4.7-2.9 1.9-4.1 0-.6-.1-1.1-.1-1.6 1.3-2.1 2.6-4.1 3.3-6.4.1-.5.6-.9.8-1.4.6-1.2 1.3-2.3 1.6-3.6.5-1.9 1.3-3.6 1.9-5.5.4-1.2 1.1-2.3 1.9-3.8.1-.7.2-1.6.3-2.7.5-.7 1.1-1.6 1.7-2.5.2-.7.5-1.6.7-2.4.2-.7.5-1.4 1-2 .7-.9 1.2-1.9 1.3-3 .2-1.2.7-2.2 1.2-3.3.7-1.6 1.7-3.1 2.3-4.7.4-1.2.8-2.5.8-3.7 0-.4.1-.8.2-1.4 2.1-2.2 3.2-4.7 3.9-7.5.1-.5.5-1 .6-1.5.3-1.9 1.3-3.7 1.9-5.5.5-1.5 1.2-3 1.5-4.6.3-1.6.9-3.1 1.6-4.6.6-1.2.5-2.5 1.3-3.7.7-1 1.2-2.1 1.7-3.2.9-1.9 1.8-3.7 2.7-5.6.3-.6.7-1.2 1.1-1.7 1.2-1.3 2-2.7 2.8-4.2.6-1.2 1.4-2.3 2.3-3.3 1.6-1.8 3.1-3.7 4.6-5.5.4-.4.8-.9 1.1-1.3.7-1 1.4-2 2.6-2.8.3-.2.5-.5.8-.7.2-.3.5-.5.6-.8.9-1.7 2.4-3 3.4-4.6.6-.9 1.2-1.9 1.6-2.9.4-1 1-2 1.5-2.9.6-1.2.5-2.5 1.4-3.6.8-1 .7-2.2 1.2-3.3.6-1.2.9-2.4 1.3-3.7.2-.5.3-1 .3-1.6.4-3.2 1.3-6.3 1.9-9.4.1-.3.1-.6.2-.9.9-2.7 1.2-5.4 1.5-8.2.1-.7.3-1.5.4-2.2.1-.5.3-1 .4-1.6.4-2.6 1-5.2 2.2-7.7.3-1.8 1.2-3.5 1.5-5.2.2-1.2 1.2-2.1 1.2-3.3 0-.3.3-.6.5-.8.3-.5.8-.9 1-1.4 1.1-3 2.8-5.7 4.6-8.4.4-.6.8-1.1 1.1-1.7 1.1-1.9 2.6-3.6 3.6-5.6 1.1-1.2 2.1-2.4 3.3-3.5.7-.7 1.3-1.3 1.8-2.1 1-1.5 2.3-2.8 3.7-4.1.4-.4.9-.8 1.1-1.3.7-1.3 1.7-2.4 2.7-3.5 2.5-2.7 6.2-7.8 7.6-10.3l.9-1.8c.4-1 .8-2 1.5-2.9.4-.5.7-1.2.8-1.8.4-1.7 1.2-3.2 1.5-4.9.3-1.5 1.2-2.8 1.3-4.3 1-2.2 1-4.6 1.9-6.8.2-.6.3-1.3.4-1.9.5-2.4 1-4.8 2-7.1l.3-.9c.2-1.4.4-2.7 1-4 .5-1.2.4-2.5 1.2-3.7.3-1.7 1.2-3.2 1.4-4.9.1-.5.2-1.1.5-1.5.6-.9.9-1.8.9-2.7 0-.7.3-1.2.5-1.8.5-1.3 1-2.6 1.4-4 1-3.6 2.8-6.8 4.6-10.1 1.3-2.2 2.7-4.3 3.9-6.6 1.7-3.2 3.9-6.2 6.4-9.1 1.6-1.9 3.4-3.7 4.9-5.7 1.2-1.6 2.6-3.2 4.1-4.6.3-.3.6-.7 1-1 2-1.5 3.9-3.1 5.8-4.6 2.1-1.6 4.5-2.8 6.8-4.2.4-.3.9-.4 1.4-.6 1.9-.7 3.8-1.3 5.9-2.1.8.1 1.6.1 2.4.2.2-.8.8-4.8-2.1-4.3-1.1.6-2.2 1.1-3.4 1.4-2.5.7-4.7 1.8-7 2.8-.3.1-.6.4-.9.6-2.7 1.9-5.3 3.7-7.9 5.6-.2.1-.4.3-.5.5-1.5 1.3-3.1 2.6-4.6 3.9-1.2 1-2.3 2-3.2 3.2-2.3 2.7-4.3 5.5-6.9 8.1-.2.2-.4.5-.6.8-2.4 3.5-5 6.9-7.1 10.6-.9 1.5-1.9 3-2.7 4.6-.5 1-1 1.9-1.5 2.9-.8 1.7-1.5 3.4-2.3 5.1l-1.8 4.5c-.7 2-1.2 4.1-1.9 6.2-.7 2.2-.7 4.4-1.6 6.5-.3.7-.3 1.5-.6 2.2-.9 1.9-1.4 3.9-1.9 5.8-.2.7-.4 1.4-.6 2.2-.6 2.3-1.5 4.5-1.7 6.8-.2 2.1-.9 4.2-1.6 6.2-.2.6-.6 1.2-.6 1.8-.1 2-1 4-1.6 5.9-.7 2-1.6 4-2.7 6-1 1.7-2 3.5-3.1 5.1-3.7 5.3-7.4 10.7-12.1 15.6-.3.3-.6.7-.9 1-1.5 1.9-3.2 3.6-5 5.1-.8 1.8-1.8 3.4-3 5-1.6 2.3-3.1 4.6-4.6 7-.1.2-.2.4-.2.6-.1.9-.8 1.6-1.2 2.3-.3.6-.7 1.1-.9 1.7-.8 1.7-1.6 3.4-2.3 5.1-.2.5-.5 1-.5 1.5 0 1.4-.7 2.7-1.1 4-.4 1.4-1.2 2.8-1.4 4.3-.2 1.6-.9 3.1-1.1 4.7-.2 1.4-.7 2.7-1 4.1-.2.7-.4 1.5-.4 2.2-.2 3.9-1.8 7.7-2.1 11.6 0 .2-.1.4-.2.6-.5 1.2-.6 2.5-.9 3.7-.2.7-.3 1.5-.5 2.2-.7 2-1.5 4-2.1 6.1-.3.9-.8 1.8-1.2 2.7-.6 1.3-1.4 2.5-2 3.8-.6 1.5-1.5 2.9-2.5 4.3-1.5 2.1-3.4 4-5 6-.6.8-1.3 1.6-2.1 2.3-2.5 2.2-4 4.9-6.2 7.3-.2.2-.4.6-.5.9-.4.7-.7 1.4-1.2 2-1.9 2.4-2.9 5.2-4.8 7.6-.3.3-.4.8-.5 1.2-.6 1.6-1.4 3.2-1.9 4.8-.6 1.7-1 3.5-2.2 5.1-.1 1.4-1 2.6-1.2 4-.2 1.3-.8 2.5-1.2 3.7l-.6 1.5c-.7 2.6-1.3 5.2-2.5 7.7-.1.2-.2.4-.2.6-.4 2.5-1.5 4.7-2.8 6.9-.8 1.5-1.4 3-1.9 4.5s-.9 3.1-1.4 4.6c-.4 1.4-.8 2.9-1.8 4.2-.3.4-.4.8-.5 1.2-.9 3.2-2.5 6.2-3.5 9.4-.5 1.5-1.1 3.1-1.7 4.5-.7 1.5-1.3 3-1.9 4.5-.3.8-.8 1.6-1.1 2.4-.7 2.1-1.1 3.1-2.2 5-.2.3-.3.6-.4.9-.2.7-.6 1.4-.9 2.1-1 2.1-2.1 4.1-2.9 6.2-.6 1.4-1.2 2.8-2 4.1-.6 1.2-1.1 2.4-1.7 3.6-.3.7-.6 1.4-1.1 2-1.4 1.7-2.1 3.6-3.3 5.4-.4.6-.8 1.1-.9 1.7-.3 1.1-1 1.9-1.7 2.8-.2.7-.3 1.3-.5 1.9-.3.7-.7 1.3-1.1 2l-.6 1.5c-.3.6-.5 1.2-.8 1.8-1.4 3.1-3.1 6.1-4.9 9-.9 1.5-1.6 3.1-2.4 4.7-.8 1.7-2.1 3.2-3.2 4.7-.2.3-.3.6-.5.9-.8 1.2-1.6 2.4-2.5 3.6-1.8 2.7-3.7 5.3-5.5 8-.9 1.3-1.6 2.6-2.4 4-.8 1.4-1.6 2.9-2.5 4.3-1.7 2.5-3.4 5-5.2 7.5-.4.6-.9 1.1-1.2 1.6-1.3 2.8-3.7 5.1-4.9 7.9-.1.3-.4.5-.6.8-.5.8-1.1 1.7-1.6 2.5-.8 1.2-1.5 2.5-2.3 3.7-.5.9-1.1 1.7-1.6 2.6-.8 1.7-2 3.2-3.3 4.7-.5.5-.8 1.1-1.1 1.6-.5.9-1.2 1.6-1.7 2.5-.6.8-1.1 1.7-1.6 2.6-1.3 2.4-3.4 4.5-4.5 7-.2.5-.7.9-1 1.3-.3.4-.7.7-.8 1.1-.9 2.1-2.4 4-3.7 5.9-.6.9-1.1 1.9-1.3 3-.1.6-.3 1.2-.4 1.9-1.9 2.2-3.7 4.4-5.7 6.7-.2.4-.6 1.1-.9 1.8-.3.6-.7 1.2-1.2 1.6-1.4 1.1-2.4 2.5-3.7 3.6-1 .8-1.9 1.7-2.6 2.7-.4.5-1 1-1.5 1.4-.8.5-1.5 1.1-2.2 1.8-1 .9-2 1.7-3.1 2.4-.7.5-1.3 1-1.9 1.6-1.5 1.3-2.3 3-3.7 4.5-.3.3-.4.8-.5 1.1.2.7.6 1.2 1.5 1.5.9-.1 1.9-.1 3-.2.4 0 .8 0 1.2-.1 1.9-.5 3.9 0 5.8-.4.2-.1.5 0 .7.1 1.2.5 2.6.1 3.9.2 1.6.6 3.2 1.2 4.9 1.7 1.4.4 2.6.8 3.7 1.6.5.3 1.1.7 1.7.7 1.6.1 2.8 1 4.3 1.4.6 0 1.3-.1 1.9-.1.6.2 1.2.4 1.9.6.7-.1 1.5-.4 2.2-.3 1.7.2 3.4 0 5 .1 2 .1 3.8-.1 5.7-.5 2-.5 4-.8 6.1-.5.9.1 1.8 0 2.7-.3.9-.2 1.8-.1 2.6.2 2.7.8 5.3 1.6 8 2.4.5.1 1 .3 1.5.3 2.9.2 5.5 1.2 8.4 2 1.1.1 2.5.2 4 .3 1.5.1 3.1.2 4.6 0 .6-.1 1.3-.1 1.9-.1 1 0 2-.1 3.1-.3 2.4-.5 4.7-1.1 7.2-1.4 1-.1 2-.5 2.9-.9 1.6-.7 3.1-1.5 4.7-2.3 2-.9 4-2 5.6-3.4.9-.8 2-1.4 3.1-1.8 1.7-.7 3.5-1.4 5.2-2.2.6-.2 1.1-.6 1.7-.7 2.2-.3 4.1-1.2 6.2-1.8.9-.2 1.7-.4 2.7-.4 1.7.1 3.3-.3 5 0 1.6.3 3.3.2 4.9.6.9.2 1.9.1 2.6.5 1.2.5 2.5.5 3.7.9 1.1.4 2.3.2 3.4.6 1 .4 2.1.8 3.2 1.1 1.9.6 3.9 1.1 5.9 1.5 2.8.5 5.6 1 8.2 1.9 1.2.4 2.5.6 3.8.7.8.1 1.5.2 2.3.4 2.4.5 4.8 1 7.1 1.5 2.5.6 5 1.2 7.4 1.8 2.3.6 4.6 1.4 7 1.8.4.1.7.2 1.1.3 1.5.6 3.2.9 4.8 1.2 2.9.5 5.8 1 8.7 1.6 1.5.3 3.1.4 4.6.6 1.5.2 3 .6 4.5.9.8.1 1.6.1 2.3.3 1.6.5 3.3.6 5 .7 1.3.1 2.6.2 3.8.4 2.1.4 4.3.6 6.5.8 3.7.4 7.4.8 11.2.4.8-.1 1.5 0 2.3 0 3.9.2 7.7.5 11.6.2.8-.1 1.6 0 2.3.1.5 0 1.1.1 1.5 0 2.3-.5 4.6-.4 6.9-.8 1.3-.3 2.5-.4 3.8-.6 4.2-.5 8.3-1.5 12.3-2.8 2.4-.8 4.7-1.8 6.7-3.2l7.2-5.4c1.4-1.1 2.6-2.4 4.2-3.2 1.4-1.3 3.1-2.2 4.7-3.3 2.1-1.5 4.5-2.5 7.2-3 2.1-.4 4.3-.9 6.4-1.1 3.7-.4 7.5-.5 11.2-.7 1.4-.1 2.8-.2 4.3-.2 5.2.1 10.4.3 15.4.9 1.2.5 2.3 1 3.5 1.4 3.2 1.1 6.3 2.4 9.3 4 .6.3 1.2.5 1.8.6 2.4.7 4.8 1.5 7.2 2.3 1.6.3 3.3.6 4.9.8 2.5.3 5.1.8 7.7.2.5-.1 1 0 1.5-.1 2.3-.3 4.6-.5 6.9-.8 1.1-.2 2.2-.7 3.3-.8 1.8-.1 3.5-.7 5.3-1 1.5-.2 2.8-1.1 4.4-1.2 2.9-.9 5.9-1.5 8.7-2.6 2-.8 4-1.5 6.1-2.1 1.6-.4 3.2-1 4.6-1.7 1.7-.9 3.8-1.4 5.4-2.4.7-.4 1.6-.7 2.5-.8 3.2-.5 6.3-1.3 9.6-.7h.8c1.9.1 3.9.1 5.6.9.1.1.2.1.4.1 3.7.6 7.1 1.9 10.5 3.3 2 .8 3.9 1.7 5.8 2.5 1.9.9 3.9 1.6 5.5 2.9.4.3.9.4 1.3.7 2.3 1.3 4.7 2.6 7 3.9.6.8 1.3 1.4 2.2 1.8 1.4.7 2.8 1.5 4.2 2.2 2.9 1.6 5.6 3.4 8.9 4.4.2.1.5.2.7.3 1.6 1.1 3.6 1.6 5.6 2 .5.1 1 .2 1.4.4 1.3.6 2.8.4 4.2.7.6.1 1.3-.1 1.9-.1h1.9c1.2 0 2.3.2 3.5.1 2.5-.2 4.9 0 7.4.2 1.4.1 2.8.2 4.3.2 2.1 0 4.1.3 6.2.6.9.1 1.8.2 2.7.2 1 0 2 .2 3.1.3h5c2.2 0 4.4-.1 6.5-.5.8-.1 1.5-.2 2.3-.2 2.1-.1 4.1-.2 6.2-.4 1.1-.1 2.3-.4 3.3-.8 3.3-1.2 6.6-2.5 8.8-5.1.1-.1.2-.1.5-.3.5 0 1.1 0 1.7-.1 1.5-.4 3-.7 4.6-.7.8 0 1.5-.2 2.2-.6.9-.4 1.7-.9 2.5-1.3.5-.7.7-1.4 1.3-1.8 1.3-.8 2-2 2.9-3 .5-.5 1.2-.8 2.1-.9 1.2.2 2.4.4 3.7.6 2.8.3 5.7.5 8.4 1.2 1.4.3 2.8.3 4.2.5 1.5.3 3 .7 4.5.9.9.2 1.8.4 2.6.7.8.3 1.7.6 2.5.9 2.2.9 4.6 1.5 6.7 2.5.6.3 1.4.5 2.2.6 2.9.6 5.8 1.1 8.2 1.5h7.9c.8 0 1.6 0 2.3-.1 3.7-.6 7.4-1.1 10.9-2.3.8-.3 1.7-.6 2.6-.7 1.8-.3 3.4-.9 5-1.7 3-1.5 6.2-2.6 9.3-4 2.1-.9 4.2-1.6 6.4-2.2 2.3-.6 4.7-1.2 7.1-1.5 2.6-.3 5-.9 7.7-.8 1.3 0 2.6-.2 3.9-.2 3 .2 6 .2 8.9.5 2.9.3 5.9.8 8.7 1.5 2.8.6 5.6.9 8.4.9 1 0 2.1.1 3.1.1 1.8-.4 3.7-.8 5.6-1.2 1.1-.2 2.2-.6 3.2-1.2 1.7-1 3.5-1.8 5.1-2.9 1.2-.8 2.5-1.5 3.4-2.6.3-.3.7-.6 1.1-.9 1.9-1 3.3-2.3 5.1-3.5 1.8-1.2 2.9-2.6 3.7-4.4.5-1.1 1-2.2 1.2-3.3.1-.5.3-1 .4-1.4.5-.7 1-1.2 1.3-1.6.2-1.3.4-2.4.7-3.6.3-1.2.7-2.5 1-3.7.3-.9.8-1.8 1.6-2.5.7 0 1.3.1 1.9.1 1.9 0 3.5-.6 4.8-1.8 1.1-.9 2.1-1.9 2.7-3.1.3-.6.8-1.1 1.2-1.7.1-.8.2-1.7.2-2.5-.3.1-.5-.4-1-.8z"/>
</svg>
