<svg xmlns="http://www.w3.org/2000/svg" width="123.1" height="115.1" style="overflow:visible;enable-background:new 0 0 123.1 115.1" xml:space="preserve">
    <style>
        .st0{fill:#7a6a56}.st1{fill:#fff}
    </style>
    <path class="st0" d="M16.2 32.5c-1.4-1-2.5-1.5-3.7-1.6-2.7-.2-4.9-1.6-7-3.2-1.6-1.3-3.2-2.6-4.9-3.8-.1-.1-.2-.3-.3-.4-.4-.4-.5-1.5-.1-1.9.6-.6 1.1-1.3 1.8-1.8 2.3-1.6 4.4-3.4 6.5-5.2 1-.9 2.1-1.7 3.3-2.5 2.4-1.4 4.8-2.8 7.2-4.1 1.7-.9 3.4-1.6 5.3-2.1C28.2 5 32 4 35.9 3 41.6 1.5 47.4.8 53.3.8H58c1 0 2.1 0 3.1-.2 4.1-.8 8.2-.7 12.3 0 2.5.4 5.2.4 8.1.6.8.3 1.9.8 3 1.2 5.4 2.1 9.2 6 11.4 11.3.8 2.1 1.7 4.1 3 6.1 2.2 1.6 5 2.1 7.6 2.7 1.2.3 2.4.3 3.6.6 1.1.3 2.3.7 3.4 1.1.4-.4.8-.7 1.1-1.1l1.5-2.1c.3-.5 1.4-.3 1.8.2.2.3.5.6.6.9 1.2 4.1 2.8 8.1 2.7 12.6-.1 1.9.3 3.8.6 5.6.7 4.9 1.7 9.9 1.1 14.9-.1 1.4 0 2.8 0 4.1 0 .9.1 1.8-.1 2.6-.7 3.1-.8 6.2-.8 9-.6 2.3-1.8 3.5-3.5 4.5-3.7 2.3-7.7 3.8-11.7 5.4-.6.3-1.3.5-1.9.8-.4 1-1 1.9-1.2 2.9-.5 1.9-1.4 3.5-2.1 5.3-1.5 3.8-3.9 6.9-6.7 9.7-3.6 3.5-7.3 6.8-11.7 9.3-2.4 1.3-4.8 2.7-7.6 3.3-1.2.2-2.3.7-3.4 1.1-4.1 1.7-8.4 2-12.7 1.9-1.7 0-3.5-.2-5.2-.1-3.3.2-6.5-.9-9.7-1.4-.2 0-.3-.1-.5-.2-3.8-1.7-7.5-3.5-11.1-5.6-.3-.2-.6-.4-.8-.6-5.5-5-10.5-10.5-13.4-17.5-1-2.4-2.1-4.7-2.6-7.3-.1-.7-.4-1.3-.5-2-.7-4.4-1.5-8.8-1.9-13.3-.4-4.3-.3-8.6.3-12.9.5-3.7 1.6-7.4 1.6-11.3 0-.5 0-1.1.2-1.5.7-2.9.3-5.8.3-8.9zM6.1 23.2c.2.6.2 1.2.5 1.5 1.4 1 2.8 1.9 4.2 2.8 2.6.5 5.1 1.2 7.5 2.3.3 1.6.6 3.1.7 3.8-.2 2.7-.3 4.6-.5 6.4-.2 2.6-.4 5.1-.9 7.7-.9 4.7-1.6 9.5-1.2 14.4v1c0 2.6.2 5.1.6 7.7.4 2.7 1 5.4 1.3 8.2.2 1.6.6 3 1.1 4.5 2.5 7.3 6.1 13.9 12.1 19 1.6 1.9 3.6 3.1 5.8 4.2 1.2.6 2.5 1.2 3.7 1.9 3.5 2.1 7.4 2.8 11.4 3.1 4.1.3 8.3.3 12.4.1 1.2-.1 2.4-.3 3.5-.7 2.3-.8 4.6-1.5 6.9-2.3 3.5-1.1 6.7-2.7 9.7-4.8 4.2-2.8 7.6-6.4 11-10.1.7-.8 1.2-1.7 1.7-2.6.8-1.5 1.6-3 2.3-4.6 2.1-4.9 3.6-10 3.7-15.5 0-5.2.1-10.3 0-15.5 0-2.1-.1-4.2-.4-6.2-.6-3.9-1.1-7.8-1.9-11.7-.7-3.9-2-7.7-3-11.5 0-.2-.1-.3-.1-.5-.7-2-1.4-3.9-2.5-5.7-.2-.4-.8-.6-1.2-.9-.5.4-.9.7-1.2 1-3.4 3.5-7.7 5.3-12.3 6.2-3.4.7-6.8.8-10.3 1.1-3.1.2-6.2.2-9.3.6-1.7.2-3.4.4-5.1.4h-7.8c-1 0-2.1 0-3.1-.2-4.4-.9-8.8-1.6-13.2-2.4-3.2-.6-6.2-2-9.4-2.7-.8-.2-1.5-.7-2.3-1.2l-2.1-1.5c-.9-.6-1.8-.9-3.1-.8-1.3.5-2.7 1-4.2 1.5-1.7.7-3.4 1.2-5 2zM80.6 4.1c-2.8-.2-5.7-.2-8.6-.9-.8-.2-1.7-.2-2.6-.2-2.6 0-5.2 0-7.7.5-1 .2-2.1.2-3.1.2-3.1.1-6.2.2-9.3.2C45.4 3.8 41.8 5 38 5.3c-4.1 1.5-8.4 1.9-12.4 3.6-3 .4-5.5 2-8.1 3.4-2.7 1.5-5.2 3.4-7.8 5.1-.1.1-.2.3-.3.5.2.2.5.5.6.5 1.8-.5 3.6-1 5.5-1.5s3.8-.3 5.3 1.2c.7.7 1.5 1.4 2 1.9 2.9.9 5.5 1.8 8.2 2.6 3.5 1 7.1 1.5 10.6 2.1 2.5.5 5.1.8 7.7.9 3.6.2 7.2.1 10.9.1.9 0 1.8 0 2.6-.2 2.9-.7 5.8-.7 8.8-.7 3.7 0 7.2-.5 10.8-1.2 4-.8 7.5-2.5 10.1-5.8.2-.3.3-.6.6-1.1-.1-1.1-.2-2.5-.3-3.9-.7-.8-1.2-1.7-2-2.4-1.4-1.3-2.9-2.4-4.4-3.5-1.8-1.3-3.7-2.1-5.8-2.8zm23.2 31.4c-.4 1.1.4 2 .5 3 .2 2.9.2 5.8 1.2 8.7.4 5.5 1.3 10.9 1.1 16.4-.1 2.2-.1 4.5 0 6.7 0 .3.3.6.5.8 2.6-.7 4.7-1.6 6.5-3 .2-2.3.4-4.7 0-7.1-.3-1.9-.3-3.8-.4-5.6-.1-2.2-.2-4.5-.2-6.7-.1-4.6-.6-9.3-1-13.9-.2-.2-.4-.5-.7-.8-.8.2-1.6.6-2.4.7-1 .1-2.1 0-3.1 0-.3 0-.7 0-1 .1-.5.2-.8.5-1 .7zm14.8 36.3c.5-.6.5-1.2.5-1.9.1-1.4.1-2.8.4-4.1.5-2 .5-4.1.5-6.1 0-2.9 0-5.8.1-8.8 0-2.2-.1-4.5-.5-6.7-.3-1.5-.4-3.1-.6-4.6-.1-1.2-.3-2.4-.4-3.6-.2-1.5-.4-3.1-.6-4.6-.1-.9-.1-1.7-.3-2.6 0-.3-.3-.6-.6-.7-.4-.2-.7-.1-.8.3l-1.2 3.3c0 4.2.1 8.3.5 12.4.6 6.3.6 12.7.5 19.1 0 2.5.4 4.8 1.1 7.1.2.7.6 1.3 1.4 1.5zm-9.1-40c.8-1.2 1.4-2.2 2.1-3.2.1-.1.1-.3.2-.5.2-.4-.1-1.2-.5-1.3-2.5-1.2-5.4-.9-8-2-.5-.2-1-.2-1.5-.1-.3 0-.6.3-.9.6.4 1.6.9 3.3 1.3 4.9.2.7.6 1.2 1.4 1.7 1.7-.1 3.5-.1 5.9-.1zm-3.3 46.4c1.6-.6 3.2-1.1 4.7-1.8.9-.4 1.9-.8 2.8-1.3.6-.3 1-.9 1.2-1.6.2-.7 0-1.3-.6-1.8-3 .7-4.5 1.3-8.2 3.6-.7 1.1-.9 2 .1 2.9z"/>
    <path class="st1" d="M6.1 23.2c1.6-.8 3.3-1.3 4.9-1.8 1.5-.5 2.9-1.1 4.2-1.5 1.3-.2 2.2.2 3.1.8l2.1 1.5c.7.5 1.5 1 2.3 1.2 3.2.7 6.2 2.2 9.4 2.7 4.4.8 8.8 1.5 13.2 2.4 1 .2 2.1.2 3.1.2h7.8c1.7 0 3.4-.2 5.1-.4 3.1-.4 6.2-.3 9.3-.6 3.4-.3 6.9-.4 10.3-1.1 4.6-.9 8.9-2.7 12.3-6.2.4-.4.8-.7 1.2-1 .4.3.9.5 1.2.9 1.1 1.8 1.8 3.7 2.5 5.7.1.2.1.3.1.5 1 3.8 2.3 7.6 3 11.5.7 3.9 1.2 7.8 1.9 11.7.3 2 .4 4.1.4 6.2v15.5c0 5.4-1.5 10.5-3.7 15.5-.7 1.6-1.5 3.1-2.3 4.6-.5.9-1 1.8-1.7 2.6-3.4 3.7-6.8 7.3-11 10.1-3 2-6.2 3.7-9.7 4.8-2.3.7-4.6 1.5-6.9 2.3-1.2.4-2.3.6-3.5.7-4.1.2-8.3.2-12.4-.1-4-.3-7.9-1-11.4-3.1-1.2-.7-2.5-1.2-3.7-1.9-2.2-1.1-4.2-2.3-5.8-4.2-6-5.1-9.5-11.7-12.1-19-.5-1.5-.9-2.9-1.1-4.5-.3-2.7-.9-5.4-1.3-8.2-.4-2.6-.6-5.1-.6-7.7v-1c-.4-4.9.4-9.7 1.2-14.4.5-2.6.7-5.1.9-7.7.1-1.9.3-3.8.5-6.4-.1-.7-.4-2.2-.7-3.8-2.4-1.1-4.8-1.9-7.5-2.3-1.4-.9-2.8-1.8-4.2-2.8-.2-.5-.2-1.1-.4-1.7zm42.7 83.4c3.9 0 8.1 0 12.2.1 3.3 0 6.5-.3 9.7-1 1.5-.3 3-.7 4.4-1.5 3.8-2 7.5-4.2 11.2-6.5 2.6-1.7 5-3.8 6.8-6.3 2.4-3.4 4.5-6.9 5.5-11.1.9-1.7.8-3.7 1.2-5.5 1.2-6.9 1.4-13.7-1-20.4-.3-.8-.4-1.7-.7-2.5-.9-1.9-.8-3.6.2-5.4.2-.3.1-.7.1-1 0-.3-.2-.7-.4-.9-.5-.4-1.1-.9-1.8-1-1.8-.4-3.7-.7-5.6-1-.5-.1-1-.1-1.5 0-2.9.4-5.8.6-8.7 1.2-4.9 1-9.6 2.7-14.6 3.1-.3 0-.7.2-1 .3-4.1.8-8.1 1.5-12.3 1.5-2.6 0-5.2.1-7.8.2-.9 0-1.7 0-2.6.2-2.2.5-4.5.5-6.7.6-4 .1-7.9.5-11.8 1.3-1 .8-2.3 1.5-3 2.8-.2 1.5-.3 3-.5 4.5.8 4.6.2 9.3 1.4 13.9.2.8.2 1.7.3 2.6.2 3.5 1.2 6.8 2.6 10 2.2 4.9 5 9.4 8.8 13.3 3.6 3.7 7.6 6.4 12.6 7.6.8.1 1.8.5 3 .9zM27 39.8c.7 1.4 1.5 1.8 2.8 1.3.4-.1.7-.9.5-1.3-.3-.7-.8-1.1-1.4-1.3-.3-.1-.7 0-.9.2-.4.4-.7.8-1 1.1zm3.9-5.4c.1-1.3-.2-2.3-1.4-2.9-.9.2-1.5.7-1.6 1.6-.1.7.4 1.3.9 1.6.4.3.9.4 1.3.5.4-.3.6-.6.8-.8zm2.2 4.4c0 1.4 0 1.4 1.5 2.1.3-.1.7-.2.9-.4.8-.6.7-1.6-.1-2-.9-.4-1.6-.4-2.3.3z"/>
    <path d="M80.6 4.1c2.1.7 4 1.5 5.7 2.7 1.5 1.1 3 2.3 4.4 3.5.8.7 1.3 1.6 2 2.4.1 1.4.2 2.8.3 3.9-.3.5-.4.9-.6 1.1-2.6 3.3-6.1 5-10.1 5.8-3.6.7-7.1 1.2-10.8 1.2-2.9 0-5.9 0-8.8.7-.8.2-1.7.2-2.6.2-3.6 0-7.3.1-10.9-.1-2.6-.1-5.2-.5-7.7-.9-3.6-.6-7.2-1.1-10.6-2.1-2.6-.8-5.2-1.7-8.2-2.6-.5-.5-1.3-1.2-2-1.9-1.5-1.5-3.3-1.7-5.3-1.2-1.8.4-3.6 1-5.5 1.5-.2 0-.4-.3-.6-.5.1-.2.2-.4.3-.5 2.6-1.7 5.1-3.6 7.8-5.1 2.5-1.4 5.1-3 8.1-3.4 4-1.7 8.4-2.1 12.4-3.6 3.8-.3 7.4-1.5 11.3-1.4 3.1 0 6.2-.1 9.3-.2 1 0 2.1 0 3.1-.2 2.7-.4 5.2-.4 7.8-.4.9 0 1.8 0 2.6.2 2.9.7 5.8.7 8.6.9z" style="fill:#c8a78b"/>
    <path class="st1" d="M118.6 71.8c-.7-.2-1.2-.8-1.4-1.4-.7-2.3-1.1-4.6-1.1-7.1.1-6.4.1-12.7-.5-19.1-.4-4.1-.5-8.2-.5-12.4.4-1 .8-2.2 1.2-3.3.2-.4.5-.6.8-.3.3.2.6.4.6.7.1.8.2 1.7.3 2.6.2 1.5.4 3.1.6 4.6.1 1.2.3 2.4.4 3.6.2 1.5.3 3.1.6 4.6.4 2.2.5 4.4.5 6.7 0 2.9 0 5.8-.1 8.8 0 2.1 0 4.1-.5 6.1-.3 1.3-.3 2.7-.4 4.1-.1.5-.1 1.2-.5 1.8zM109.5 31.8h-5.9c-.9-.4-1.3-1-1.4-1.7-.5-1.6-.9-3.3-1.3-4.9.4-.2.6-.5.9-.6.5-.1 1.1-.1 1.5.1 2.6 1 5.5.7 8 2 .3.2.6 1 .5 1.3-.1.2-.1.3-.2.5-.7 1.1-1.4 2.1-2.1 3.3zM106.2 78.2c-1-.9-.7-1.8-.2-2.8 3.7-2.3 5.2-3 8.2-3.6.6.5.8 1.1.6 1.8-.1.7-.5 1.3-1.2 1.6-.9.5-1.8.9-2.8 1.3-1.5.6-3.1 1.2-4.6 1.7z"/>
    <path class="st0" d="M48.8 106.6c-1.2-.4-2.2-.8-3.2-1-5-1.2-9-3.9-12.6-7.6-3.8-3.9-6.7-8.3-8.8-13.3-1.4-3.2-2.4-6.5-2.6-10 0-.9 0-1.8-.3-2.6-1.2-4.6-.6-9.3-1.4-13.9.2-1.5.3-3.1.5-4.5.7-1.3 2-2 3-2.8 3.9-.8 7.8-1.2 11.8-1.3 2.2-.1 4.5-.1 6.7-.6.8-.2 1.7-.2 2.6-.2 2.6-.1 5.2-.2 7.8-.2 4.2.1 8.2-.7 12.3-1.5.3-.1.7-.3 1-.3 5-.4 9.7-2.1 14.6-3.1 2.9-.6 5.8-.8 8.7-1.2.5-.1 1 0 1.5 0 1.9.3 3.7.6 5.6 1 .6.1 1.2.6 1.8 1 .2.2.3.6.4.9 0 .3.1.7-.1 1-1 1.8-1 3.6-.2 5.4.4.8.4 1.7.7 2.5 2.5 6.7 2.3 13.5 1 20.4-.3 1.9-.3 3.8-1.2 5.5-1 4.1-3.1 7.7-5.5 11.1-1.8 2.6-4.1 4.6-6.8 6.3-3.6 2.4-7.4 4.5-11.2 6.5-1.4.7-2.9 1.1-4.4 1.5-3.2.7-6.5 1.1-9.7 1h-12zm44.5-56.9c-.3 0-.7-.1-1-.1-2.9.7-5.8.7-8.7 1-3.3.3-6.5.8-9.7 1.3-3.7.6-7.4 1.6-11.2 2-.7.1-1.3.3-2 .4-2 .4-4 1-6 1.3-6.2.8-12.3 1.4-18.6 1.2-3.6-.1-7.2.3-10.8-.8-1.3-.3-2.3.6-2.4 2 0 .5-.1 1-.1 1.5.4 2.9.5 5.8.9 8.7.4 2.7.8 5.4 1.2 8.2.3 2.6 1.1 5 2.2 7.4 2.1 4.6 4.6 8.9 8.4 12.3 2.7 3.4 6.3 5.2 10.4 6.3 3.3.9 6.7 1.4 10.2 1.2 2.9-.1 5.9-.4 8.8-.3 1.9 0 3.8-.3 5.6-.8 2.3-.6 4.7-1.2 6.7-2.6 2-1.4 4.2-2.4 6.2-3.7.7-.5 1.5-.8 2.2-1.4 6.7-5.5 10.8-12.4 11.8-21.1.1-1 .4-2 .5-3 .4-2.4.6-4.8.2-7.2-.7-4.1-1.7-8.1-3.1-12-.3-.7-.8-1.4-1.7-1.8zm-66.2 3.2c.7 1.1 1.4 1.4 2 1.4 2.4-.2 4.8.8 7.1 0 3.3.5 6.5-.5 9.7-.4h1c2.9-.1 5.8-.3 8.7-.9 4.4-1 8.8-1.5 13.2-2.3 4.7-.9 9.5-1.6 14.3-2.3 2-.3 4.1-.5 6.1-.7 1.2-.1 2.4-.1 3.5-.7.4-.2.8-.6.5-1.4-2 0-4-.1-6.1-.1-.7 0-1.4 0-2.1.1l-8.1 1.5c-4.1.8-8.1 1.6-12.1 2.4-3.6.7-7.1 1.1-10.7 1.4-1.2.1-2.4-.2-3.6 0-3.1.6-6.2.4-9.3.6-2.1.1-4.1.3-6.2.5-1.7.2-3.4.4-5.1.5-.7.2-1.6.3-2.8.4zM27 39.8c.3-.3.6-.8 1-1.1.2-.2.7-.3.9-.2.7.2 1.2.7 1.4 1.3.2.4-.1 1.1-.5 1.3-1.2.5-2 .2-2.8-1.3zM30.9 34.4c-.2.3-.4.5-.7.8-.4-.2-.9-.2-1.3-.5-.5-.4-1-.9-.9-1.6.1-.9.7-1.4 1.6-1.6 1.1.6 1.4 1.6 1.3 2.9zM33.1 38.8c.7-.6 1.5-.7 2.3-.3.8.4.9 1.4.1 2-.3.2-.6.2-.9.4-1.5-.8-1.5-.8-1.5-2.1z"/>
    <path d="M93.3 49.7c.9.4 1.4 1.1 1.7 1.9 1.4 3.9 2.4 7.9 3.1 12 .4 2.4.2 4.8-.2 7.2-.2 1-.4 2-.5 3-.9 8.7-5.1 15.6-11.8 21.1-.7.5-1.5.9-2.2 1.4-2 1.3-4.2 2.3-6.2 3.7-2 1.4-4.4 2-6.7 2.6-1.8.5-3.7.8-5.6.8-2.9-.1-5.9.2-8.8.3-3.5.2-6.9-.3-10.2-1.2-4.1-1.1-7.7-2.9-10.4-6.3-3.8-3.4-6.3-7.7-8.4-12.3-1.1-2.4-1.9-4.8-2.2-7.4-.4-2.7-.8-5.5-1.2-8.2-.4-2.9-.5-5.8-.9-8.7-.1-.5 0-1 .1-1.5.1-1.4 1.1-2.3 2.4-1.9 3.6 1 7.2.6 10.8.8 6.2.2 12.4-.4 18.6-1.2 2-.3 4-.8 6-1.3.7-.1 1.3-.4 2-.4 3.8-.4 7.4-1.4 11.2-2 3.2-.5 6.5-1 9.7-1.3 2.9-.3 5.8-.3 8.7-1 .3-.2.7-.1 1-.1zM61 78.5c-.3 2.2.3 4.4.6 6.5-.2.5-.5.7-.8.6-1.8-1-3.5-2.2-5.2-3.4-1-.7-2-1.3-3.3-1.4-.4 0-1.2.3-1.3.6-.1.3-.2.7-.1 1 1.1 3 3.2 4.8 6.3 5.5.8.2 1.7.3 2.5.5.8.3 1.7-.5 2.7.4.3.6.8 1.5 1.3 2.4.3.6.7 1.2 1.1 1.7 1 1.2 2.3 1.4 3.7 1 .4-.1.9-.5 1.1-1 .3-.6.4-1.3.5-2 .2-1.5-.1-3.1.4-4.7.5-.3 1-.7 1.6-1.1 1.4-.8 2.4-1.9 3.4-3.1 1.8-2.2 2.1-5 2.8-7.6.1-.4-.2-1-.4-1.4-.3-.4-.8-.7-1.1-.9-1.2-.1-2.2.1-3.3.9-1.1 1.8-2.3 3.9-3.4 6-.6 1.2-1.2 2.5-2.3 3.3-.3.2-.6.3-1 .1-.4-.2-.9-1-.8-1.2.2-.5.3-1 .6-1.4 1.6-1.9 2.3-4.2 2.5-6.6v-1.5c0-.5-.4-.9-.8-1.1-.3-.2-1.1.4-1.2.8-.1.5-.2 1-.2 1.5 0 1.6-.7 3-1.2 4.5-.2.6-.7 1.1-1.1 1.8-.6-.5-1.1-1-1.6-1.4-.5-.5-1.2-.2-2 .7zM42.5 94.6c.6.9 1.3 2.1 2.1 3.2 2 2.6 4.5 4.1 8 4.2.3-.3.9-.6 1-1 .7-3.1-.1-5.8-2-8.2-.7-.9-1.8-1.6-2.4-2.2-1.9-.7-3.4-.4-4.8.4-1.4.6-2.2 1.7-1.9 3.6zm43.9-10.3c2.1-2.2 2.9-4.4 3.3-6.9-.2-1.3-.8-2.2-2.3-2.4-1.4.5-2.8 1.1-4.2 1.7-.6.3-1.3.6-1.8 1-1.5 1.4-2.7 3.1-3.3 5.1-.3 1.1-.1 2.1.7 2.8.7.7 1.6 1.3 2.4 2 1.7-1.1 3.5-2.2 5.2-3.3zm-5.3-24.1c-.7.4-1 1-.9 1.7.1.9.3 1.7.4 2.6.1 1.8.8 3.4 1.3 5 .5 1.3 1.4 2.3 2.5 3.2.7.5 1.5.8 2.4.9.7.1 1.4.1 2-.4.6-.4.9-1 .9-1.8-.8-2.6-1.6-5.2-2.3-7.9-.7-3-2.2-3.8-5.3-3.5-.3 0-.6.1-1 .2zM69.9 97.3c-1.7.1-3.2.1-4.8.2-.3 0-.7.1-.9.3-.3.2-.5.5-.6.8-.2.4.2 1.1.6 1.2.2.1.3.2.5.2 1.7.4 3.4.5 5.1.2 1.2-.2 2.3-.7 3.4-1.1.7-.3 1-.9 1-1.6-.1-.8-.7-1.1-1.7-1.2-.7.2-1.5.5-2.6 1zm11.6-5.9c.1-.4-.5-1.2-1.1-1.3-1.1-.1-2 1.1-1.7 2.4.1.4.8.7 1.2.6.8-.2 1.3-.8 1.6-1.7zm-23.4-29c.4 1 .9 1.8 2.3 1.5.2-.4.4-.8.5-1.3.1-.7-.5-1.3-1.1-1.5-.5-.1-1 0-1.3.4-.2.3-.3.6-.4.9zm-7 2.2c-.2-.4-.5-.9-.8-1.2-.2-.2-.6-.2-.9-.2-.5.1-.9.5-.9 1 0 .7.3 1.3.9 1.6.4.3 1 .2 1.3-.3.2-.2.2-.5.4-.9zm-13.4 5c-1.2-.3-1.8.2-2.1 1.4.2.3.3.6.5.9.5.6 1.3.7 1.7.3.5-.4.7-1.1.4-1.8-.1-.2-.4-.5-.5-.8zm18.9 29.1c.1.2.1.3.2.5.3.6.8.9 1.2.7.5-.2.8-.6.9-1.1.1-.5-.2-1.1-.6-1.3-.6-.3-1.3 0-1.6.7 0 .2 0 .3-.1.5z" style="fill:#e6d0c3"/>
    <path class="st1" d="M27.1 52.9c1.2-.1 2.1-.2 2.9-.3 1.7-.2 3.4-.4 5.1-.5 2.1-.2 4.1-.4 6.2-.5 3.1-.2 6.2 0 9.3-.6 1.2-.2 2.4 0 3.6 0 3.6-.2 7.2-.6 10.7-1.4 4-.8 8.1-1.6 12.1-2.4l8.1-1.5c.7-.1 1.4-.1 2.1-.1 2.1 0 4.1.1 6.1.1.3.8-.1 1.1-.5 1.4-1.1.7-2.3.6-3.5.7-2.1.2-4.1.4-6.1.7-4.8.7-9.5 1.4-14.3 2.3-4.4.8-8.8 1.3-13.2 2.3-2.9.6-5.8.9-8.7.9h-1c-3.3-.1-6.5.8-9.7.4-2.4.8-4.8-.1-7.1 0-.6-.1-1.4-.4-2.1-1.5z"/>
    <path class="st0" d="M61 78.5c.7-.9 1.5-1.2 2.1-.7.5.4 1 .8 1.6 1.4.4-.6.9-1.2 1.1-1.8.5-1.4 1.1-2.9 1.2-4.5 0-.5.1-1 .2-1.5.1-.4.8-.9 1.2-.8.5.2.8.6.8 1.1 0 .5.1 1 0 1.5-.2 2.4-.9 4.7-2.5 6.6-.3.4-.4.9-.6 1.4-.1.3.3 1 .8 1.2.3.2.7.1 1-.1 1.2-.9 1.7-2.1 2.3-3.3 1.1-2.1 2.3-4.2 3.4-6 1.1-.8 2.1-1 3.3-.9.3.3.8.5 1.1.9.3.4.5 1 .4 1.4-.7 2.6-1 5.4-2.8 7.6-1 1.2-2 2.4-3.4 3.1-.6.3-1.1.7-1.6 1.1-.6 1.6-.2 3.2-.4 4.7-.1.7-.2 1.4-.5 2-.2.4-.7.8-1.1 1-1.4.4-2.7.2-3.7-1-.4-.5-.8-1.1-1.1-1.7-.5-.9-1-1.8-1.3-2.4-1-1-1.9-.2-2.7-.4-.8-.3-1.7-.3-2.5-.5-3.1-.7-5.2-2.6-6.3-5.5-.1-.3 0-.7.1-1 .1-.3 1-.6 1.3-.6 1.2.1 2.3.7 3.3 1.4 1.7 1.2 3.4 2.4 5.2 3.4.3.2.6-.1.8-.6-.4-2.1-1-4.3-.7-6.5zm6.7 7.2c-.2 1.2-.4 1.7-.4 2.1 0 .5.2.7.4.5.1-.1.2-.3.2-.4 0-.5 0-1-.2-2.2zM42.5 94.6c-.3-1.9.4-2.9 1.8-3.6 1.4-.8 2.9-1.1 4.8-.4.7.6 1.7 1.3 2.4 2.2 1.9 2.4 2.8 5.1 2 8.2-.1.4-.6.7-1 1-3.5 0-6-1.6-8-4.2-.7-1.1-1.4-2.3-2-3.2zm6.8 2.7c-.2.2-.5.2-.5.3-.2.6.3.8.6 1.1.3.3.6.3.8 0 .1-.1.1-.4.1-.4l-1-1zM86.4 84.3c-1.7 1.1-3.5 2.2-5.3 3.4-.9-.7-1.7-1.3-2.4-2-.8-.8-1-1.8-.7-2.8.6-2.1 1.8-3.7 3.3-5.1.5-.5 1.1-.8 1.8-1 1.4-.6 2.9-1.1 4.2-1.7 1.5.2 2.1 1.1 2.3 2.4-.3 2.4-1.1 4.6-3.2 6.8zM85 81.1c0 .1.2.2.3.4.1-.1.2-.2.3-.4.2-.3.2-.6-.1-.9-.1-.1-.3 0-.3 0-.1.3-.2.6-.2.9zM81.1 60.2c.3-.1.6-.2 1-.2 3.1-.3 4.6.5 5.3 3.5.7 2.7 1.5 5.3 2.3 7.9 0 .8-.4 1.4-.9 1.8-.6.4-1.3.4-2 .4-.9-.1-1.7-.3-2.4-.9-1.1-.8-2.1-1.9-2.5-3.2-.6-1.6-1.3-3.2-1.3-5 0-.9-.3-1.7-.4-2.6-.1-.8.3-1.4.9-1.7zm4.3 6.4c.3-.2.4-.5.4-.9-.2-.9-.5-1.6-1.2-2.2-.1-.1-.3-.2-.4-.1-.4.2-.5.5-.4.8.2 1 .8 1.8 1.6 2.4zM69.9 97.3c1.1-.5 1.9-.8 2.5-1.1 1 .1 1.6.4 1.7 1.2.1.7-.3 1.4-1 1.6-1.1.5-2.2.9-3.4 1.1-1.7.3-3.4.2-5.1-.2-.2 0-.3-.2-.5-.2-.4-.2-.8-.9-.6-1.2.2-.3.4-.6.6-.8.3-.2.6-.3.9-.3 1.7 0 3.2 0 4.9-.1zM81.5 91.4c-.2.9-.8 1.5-1.6 1.7-.4.1-1.1-.3-1.2-.6-.3-1.3.5-2.5 1.7-2.4.6.1 1.1.9 1.1 1.3zM58.1 62.4c.1-.3.2-.6.4-.9.3-.4.8-.5 1.3-.4.6.1 1.1.8 1.1 1.5-.1.5-.3.9-.5 1.3-1.3.3-1.9-.5-2.3-1.5zM51.1 64.6c-.1.4-.2.7-.4 1-.4.5-.9.6-1.3.3-.6-.4-1-.9-.9-1.6 0-.5.4-1 .9-1 .3 0 .7 0 .9.2.3.2.5.7.8 1.1zM37.7 69.6c.2.3.4.5.5.8.3.7.1 1.4-.4 1.8-.4.3-1.2.2-1.7-.3-.2-.2-.3-.6-.5-.9.2-1.1.9-1.6 2.1-1.4zM56.6 98.7c0-.2.1-.3.1-.5.3-.7 1-1 1.6-.7.4.2.7.8.6 1.3-.1.5-.4.9-.9 1.1-.4.2-.9-.1-1.2-.7 0-.2-.1-.3-.2-.5z"/>
    <path class="st1" d="M67.7 85.7c.2 1.2.2 1.7.3 2.2 0 .1-.1.3-.2.4-.2.1-.4-.1-.4-.5 0-.5.1-.9.3-2.1zM49.3 97.3c.3.3.7.6 1 1 .1.1 0 .3-.1.4-.2.4-.5.4-.8 0-.3-.3-.8-.6-.6-1.1 0-.1.2-.1.5-.3zM85 81.1c0-.3.1-.6.2-.9 0 0 .3-.1.3 0 .3.2.3.5.1.9-.1.1-.2.3-.3.4-.1-.1-.3-.3-.3-.4zM85.4 66.6c-.8-.6-1.4-1.4-1.6-2.4-.1-.4 0-.7.4-.8.1 0 .3 0 .4.1.7.6 1 1.3 1.2 2.2 0 .4-.1.7-.4.9z"/>
</svg>
