<svg xmlns="http://www.w3.org/2000/svg" width="30.8" height="28.8" style="overflow:visible;enable-background:new 0 0 30.8 28.8" xml:space="preserve">
    <style>
        .st0{fill:#7a6a56}.st1{fill:#fff}
    </style>
    <path class="st0" d="M4.1 8.1c-.4-.2-.7-.4-1-.4-.7 0-1.2-.4-1.7-.8L.2 6l-.1-.1c-.1-.1-.1-.4 0-.5.1-.2.3-.3.5-.4.6-.4 1.1-.8 1.6-1.3.2-.3.5-.5.8-.7.6-.4 1.2-.7 1.8-1 .4-.2.9-.4 1.3-.5C7.1 1.2 8 1 9 .8c1.4-.4 2.9-.6 4.4-.5h1.2c.3 0 .5 0 .8-.1 1-.2 2.1-.2 3.1 0 .6.1 1.3.1 2 .1.2.1.5.2.8.3 1.4.5 2.3 1.5 2.8 2.8.2.5.4 1 .7 1.5.6.4 1.2.5 1.9.7.3.1.6.1.9.1l.9.3.3-.3c.1-.2.2-.4.4-.5.1-.1.4-.1.5 0 0 .1.1.1.1.2.3 1 .7 2 .7 3.1 0 .5.1.9.2 1.4.2 1.2.4 2.5.3 3.7v1.6c-.2.8-.2 1.5-.2 2.2-.1.6-.5.9-.9 1.1-.9.6-1.9.9-2.9 1.4-.2.1-.3.1-.5.2-.1.2-.2.5-.3.7-.1.5-.4.9-.5 1.3-.4.9-1 1.7-1.7 2.4-.9.9-1.8 1.7-2.9 2.3-.6.3-1.2.7-1.9.8l-.9.3c-1 .4-2.1.5-3.2.5h-1.3c-.8 0-1.6-.2-2.4-.3h-.1c-1.3-.2-2.2-.6-3.1-1.1-.1 0-.1-.1-.2-.2-1.4-1.3-2.6-2.6-3.4-4.4-.2-.6-.5-1.2-.7-1.8 0-.2-.1-.3-.1-.5-.2-1.1-.4-2.2-.5-3.3-.1-1.1-.1-2.1.1-3.2.1-.9.4-1.9.4-2.8v-.4c.4-.8.2-1.5.3-2.3zM1.5 5.8c0 .1 0 .3.1.4.3.3.7.5 1 .7.8.1 1.4.3 2 .6.1.4.2.8.2 1 0 .7-.1 1.1-.1 1.6 0 .6-.1 1.3-.2 1.9-.2 1.2-.4 2.4-.3 3.6v.3c0 .6.1 1.3.1 1.9.1.7.3 1.4.3 2 0 .4.1.8.3 1.1.6 1.8 1.5 3.5 3 4.7.4.5.9.8 1.5 1.1.3.2.6.3.9.5.9.5 1.9.7 2.8.8 1 .1 2.1.1 3.1 0 .3 0 .6-.1.9-.2.6-.2 1.1-.4 1.7-.6.9-.3 1.7-.7 2.4-1.2 1.1-.7 1.9-1.6 2.8-2.5.2-.2.3-.4.4-.6l.6-1.2c.5-1.2.9-2.5.9-3.9v-3.9c0-.5 0-1-.1-1.5-.2-1-.3-2-.5-2.9-.2-1-.5-1.9-.8-2.9v-.1c-.2-.5-.3-1-.6-1.4-.1-.1-.2-.1-.3-.2l-.3.3c-.8.9-1.9 1.3-3.1 1.5-.8.2-1.7.2-2.6.3-.8.1-1.6 0-2.3.1-.4.1-.9.1-1.3.1h-2.7c-1.1-.3-2.2-.5-3.3-.7-.8-.1-1.5-.5-2.3-.7-.2 0-.4-.2-.6-.3-.2-.1-.3-.2-.5-.3-.2-.2-.5-.3-.8-.2-.3.1-.7.3-1 .4-.4.1-.9.2-1.3.4zM20.2 1c-.7 0-1.5 0-2.2-.2-.2-.1-.4 0-.6 0-.6 0-1.3 0-1.9.1-.3 0-.5.1-.8.1-.8 0-1.6.1-2.3 0-1 0-1.9.3-2.8.4-1 .4-2.1.5-3.1.9-.9 0-1.5.4-2.1.8-.7.4-1.3.8-2 1.2 0 0 0 .1-.1.1.1 0 .1.1.2.1.5 0 .9-.2 1.4-.3.5-.1.9-.1 1.3.3l.5.5c.7.2 1.4.5 2 .7.9.2 1.8.3 2.7.5.6.1 1.3.2 1.9.2H15.6c.7-.2 1.5-.2 2.2-.2.9 0 1.8-.1 2.7-.3 1-.2 1.9-.6 2.5-1.5.1-.1.1-.2.1-.3 0-.3 0-.6-.1-1 0-.1-.1-.4-.3-.5-.4-.3-.7-.6-1.1-.9-.4-.3-.9-.5-1.4-.7zm5.7 7.9c-.1.3.1.5.1.7.1.7.1 1.5.3 2.2.1 1.4.3 2.7.3 4.1v1.7c0 .1.1.1.1.2.7-.2 1.2-.4 1.6-.7 0-.6.1-1.2 0-1.8-.1-.5-.1-.9-.1-1.4 0-.6 0-1.1-.1-1.7 0-1.2-.2-2.3-.3-3.5l-.2-.2c-.2.1-.4.2-.6.2h-1.1c.2.1.1.1 0 .2zm3.7 9c.1-.1.1-.3.1-.5 0-.3 0-.7.1-1 .1-.5.1-1 .1-1.5v-2.2c0-.6 0-1.1-.1-1.7-.1-.4-.1-.8-.1-1.1 0-.3-.1-.6-.1-.9 0-.4-.1-.8-.1-1.1 0-.2 0-.4-.1-.6 0-.1-.1-.1-.2-.2s-.2 0-.2.1c-.1.3-.2.6-.3.8 0 1.1 0 2.1.1 3.1.2 1.6.1 3.2.1 4.8 0 .6.1 1.2.3 1.8.1 0 .3.2.4.2zm-2.2-10c.2-.3.4-.6.5-.8V7c0-.1 0-.3-.1-.3-.6-.3-1.4-.2-2-.5h-.4c-.1 0-.1.1-.2.1l.3 1.2c0 .2.1.3.4.4h1.5zm-.9 11.7c.4-.1.8-.3 1.2-.4.2-.1.5-.2.7-.3.2-.1.3-.2.3-.4s0-.3-.2-.5c-.8.2-1.1.3-2.1.9 0 .2-.1.4.1.7z"/>
    <path class="st1" d="M1.5 5.8c.4-.2.8-.3 1.2-.5.4-.1.7-.3 1-.4.3 0 .6.1.8.2.2.1.3.3.5.4.2.1.4.3.6.3.9.2 1.6.6 2.4.7l3.3.6H14c.4 0 .9 0 1.3-.1.8 0 1.6 0 2.4-.1.9-.1 1.7-.1 2.6-.3 1.2-.2 2.2-.7 3.1-1.5l.3-.3c.1.1.2.1.3.2.3.4.5.9.6 1.4v.1c.3 1 .6 1.9.8 2.9.2 1 .3 2 .5 2.9.1.5.1 1 .1 1.5v3.9c0 1.4-.4 2.6-.9 3.9l-.6 1.2c-.1.2-.3.5-.4.6-.8.9-1.7 1.8-2.8 2.5-.8.5-1.6.9-2.4 1.2-.6.2-1.1.4-1.7.6-.3.1-.6.2-.9.2-1 0-2.1.1-3.1 0s-2-.3-2.8-.8c-.3-.2-.6-.3-.9-.5-.5-.3-1.1-.6-1.5-1.1-1.5-1.3-2.4-2.9-3-4.7-.1-.4-.2-.7-.3-1.1-.1-.7-.2-1.4-.3-2-.1-.6-.1-1.3-.1-1.9v-.3c-.1-1.2.1-2.4.3-3.6.1-.6.2-1.3.2-1.9 0-.5.1-.9.1-1.6 0-.2-.1-.6-.2-1-.7-.2-1.3-.4-2-.5-.3-.3-.7-.5-1-.7-.1-.1-.1-.3-.2-.4zm10.7 20.8h3.1c.8 0 1.6-.1 2.4-.3.4-.1.8-.2 1.1-.4.9-.5 1.9-1 2.8-1.6.7-.4 1.2-.9 1.7-1.6.6-.8 1.1-1.7 1.4-2.8.2-.4.2-.9.3-1.4.3-1.7.4-3.4-.3-5.1-.1-.2-.1-.4-.2-.6-.2-.5-.2-.9 0-1.4v-.3c0-.1 0-.2-.1-.2-.1-.1-.3-.2-.4-.2-.5-.1-.9-.2-1.4-.2h-.4c-.7.1-1.5.2-2.2.3-1.2.2-2.4.7-3.7.8-.1 0-.2.1-.2.1-1 .2-2 .4-3.1.4h-2.5c-.6.1-1.1.1-1.7.1-1 0-2 .1-3 .3-.3.2-.6.4-.8.7 0 .4-.1.8-.1 1.1.2 1.1 0 2.3.4 3.5.1.2.1.4.1.6 0 .9.3 1.7.6 2.5.5 1.2 1.3 2.3 2.2 3.3.9.9 1.9 1.6 3.2 1.9.2.4.5.4.8.5zM6.8 10c.2.4.4.4.7.3.1 0 .2-.2.1-.3-.1-.2-.2-.3-.4-.4H7c-.1.2-.2.3-.2.4zm.9-1.4c0-.3 0-.6-.3-.7-.3 0-.4.1-.4.4 0 .2.1.3.2.4.1.1.2.1.3.1.1-.1.2-.1.2-.2zm.6 1.1c0 .3 0 .3.4.5.1 0 .2 0 .2-.1.2-.1.1-.4-.1-.5-.2-.1-.4-.1-.5.1z"/>
    <path d="M20.2 1c.5.2 1 .4 1.4.7.4.3.7.6 1.1.9.2.1.3.4.5.6 0 .4 0 .7.1 1-.1.1-.1.2-.1.3-.6.8-1.5 1.2-2.5 1.5-.9.2-1.8.3-2.7.3-.7 0-1.5 0-2.2.2H12.5c-.6 0-1.3-.1-1.9-.2-1.1-.3-2-.4-2.8-.7-.7-.1-1.4-.4-2.1-.6l-.5-.5c-.4-.4-.8-.4-1.3-.3-.5.1-.9.3-1.4.4 0 0-.1-.1-.2-.1 0 0 0-.1.1-.1.6-.4 1.3-.9 1.9-1.3.6-.4 1.3-.7 2-.8 1-.4 2.1-.5 3.1-.9 1-.1 2-.4 2.9-.4h2.3c.3 0 .5 0 .8-.1.6-.1 1.3-.1 1.9-.1h.6c.8.2 1.6.2 2.3.2z" style="fill:#c8a78b"/>
    <path class="st1" d="M29.6 17.9c-.2 0-.3-.2-.3-.4-.2-.5-.3-1.1-.3-1.7 0-1.6 0-3.2-.1-4.8-.1-1-.1-2.1-.1-3.1.1-.3.2-.5.3-.8 0-.1.1-.1.2-.1s.1.1.2.2c0 .2 0 .4.1.6 0 .4.1.8.1 1.1 0 .3.1.6.1.9 0 .4.1.8.1 1.1.1.6.1 1.1.1 1.7v2.2c0 .5 0 1-.1 1.5-.1.3-.1.7-.1 1 0 .3 0 .5-.2.6zM27.4 7.9h-1.5c-.2-.1-.3-.2-.4-.4l-.3-1.2c.1-.1.2-.1.2-.1h.4c.6.3 1.4.2 2 .5.1 0 .2.2.1.3v.1c-.2.3-.3.5-.5.8zM26.5 19.6c-.2-.2-.2-.5 0-.7.9-.6 1.3-.7 2.1-.9.1.1.2.3.2.5s-.1.3-.3.4c-.2.1-.5.2-.7.3-.5.1-.9.2-1.3.4z"/>
    <path class="st0" d="M12.2 26.6c-.3-.1-.5-.2-.8-.3-1.3-.3-2.3-1-3.2-1.9-.9-1-1.7-2.1-2.2-3.3-.3-.8-.6-1.6-.6-2.5 0-.2 0-.4-.1-.6-.3-1.1-.1-2.3-.3-3.4 0-.4.1-.8.1-1.1.2-.3.5-.5.8-.7 1-.2 2-.3 3-.3.6 0 1.1 0 1.7-.1h.6c.6 0 1.3-.1 1.9 0 1 0 2.1-.2 3.1-.4.1 0 .2-.1.2-.1 1.3-.1 2.4-.5 3.7-.8.7-.1 1.4-.2 2.2-.3h.4c.5.1.9.1 1.4.2.2 0 .3.1.4.2.1 0 .1.1.1.2v.3c-.2.4-.3.9 0 1.4.1.2.1.4.2.6.6 1.7.6 3.4.3 5.1-.1.5-.1 1-.3 1.4-.2 1-.8 1.9-1.4 2.8-.4.6-1 1.2-1.7 1.6-.9.6-1.8 1.1-2.8 1.6-.3.2-.7.3-1.1.4-.8.2-1.6.3-2.4.3-1.2-.2-2.2-.2-3.2-.3zm11.1-14.2H23c-.7.2-1.4.2-2.2.3l-2.4.3c-.9.1-1.8.4-2.8.5-.2 0-.3.1-.5.1-.5.1-1 .3-1.5.3-1.5.2-3.1.3-4.6.3-.9 0-1.8.1-2.7-.2-.3-.1-.6.1-.6.5v.4c.1.7.1 1.5.2 2.2.1.7.2 1.4.3 2 .1.6.3 1.3.5 1.8.5 1.1 1.2 2.2 2.1 3.1.7.9 1.6 1.3 2.6 1.6.8.2 1.7.3 2.6.3.7 0 1.5-.1 2.2-.1.5 0 .9-.1 1.4-.2.6-.2 1.2-.3 1.7-.7.5-.3 1-.6 1.6-.9.2-.1.4-.2.5-.3 1.7-1.4 2.7-3.1 2.9-5.3 0-.3.1-.5.1-.8.1-.6.1-1.2 0-1.8-.2-1-.4-2-.8-3 .1-.1-.1-.3-.3-.4zm-16.5.8c.2.3.4.4.5.3.6 0 1.2.2 1.8 0 .8.1 1.6-.1 2.4-.1h.2c.7 0 1.4-.1 2.2-.2l3.3-.6 3.6-.6c.5-.1 1-.1 1.5-.2.3 0 .6 0 .9-.2.1-.1.2-.1.1-.3h-2c-.7.1-1.4.2-2 .4l-3 .6c-.9.2-1.8.3-2.7.3h-.9c-.8.2-1.5.1-2.3.2-.5 0-1 .1-1.5.1-.4 0-.9.1-1.3.1-.3.2-.5.2-.8.2zM6.8 10c0-.1.1-.2.2-.3.1 0 .2-.1.2 0 .2 0 .3.2.4.3 0 .1 0 .3-.1.3-.4.1-.6 0-.7-.3zM7.7 8.6c0 .1-.1.1-.2.2-.1 0-.2-.1-.3-.1-.1-.1-.2-.3-.2-.4 0-.3.1-.4.4-.4.3.1.4.4.3.7zM8.3 9.7c.2-.2.4-.2.6-.1.2.1.2.4 0 .5-.1 0-.2.1-.2.1-.4-.2-.4-.2-.4-.5z"/>
    <path d="M23.3 12.4c.2.1.4.3.4.5.3 1 .6 2 .8 3 .1.6 0 1.2 0 1.8 0 .3-.1.5-.1.8-.2 2.2-1.3 3.9-2.9 5.3-.2.1-.4.2-.5.3-.5.3-1.1.6-1.6.9-.5.3-1.1.5-1.7.7-.5.1-.9.2-1.4.2-.7 0-1.5 0-2.2.1-.9 0-1.7-.1-2.6-.3-1-.3-1.9-.7-2.6-1.6-1-.8-1.6-1.9-2.1-3.1-.3-.6-.5-1.2-.5-1.8-.1-.7-.2-1.4-.3-2-.1-.7-.1-1.5-.2-2.2v-.4c0-.4.3-.6.6-.5.9.3 1.8.2 2.7.2 1.6 0 3.1-.1 4.6-.3l1.5-.3c.2 0 .3-.1.5-.1.9-.1 1.9-.3 2.8-.5.8-.1 1.6-.3 2.4-.3.7-.1 1.5-.1 2.2-.3.1-.1.1-.1.2-.1zm-8 7.2c-.1.6.1 1.1.2 1.6-.1.1-.1.2-.2.1-.5-.2-.9-.5-1.3-.8-.2-.2-.5-.3-.8-.3-.1 0-.3.1-.3.2s-.1.2 0 .2c.3.7.8 1.2 1.6 1.4.2 0 .4.1.6.1.2.1.4-.1.7.1l.3.6c.1.1.2.3.3.4.3.3.6.4.9.2.1 0 .2-.1.3-.2.1-.1.1-.3.1-.5.1-.4 0-.8.1-1.2.1-.1.3-.2.4-.3.3-.2.6-.5.8-.8.4-.6.5-1.2.7-1.9 0-.1 0-.3-.1-.4-.1-.1-.2-.2-.3-.2-.3 0-.5 0-.8.2l-.9 1.5c-.2.3-.3.6-.6.8-.1.1-.2.1-.2 0-.1-.1-.2-.2-.2-.3 0-.1.1-.3.1-.3.4-.5.6-1 .6-1.7v-.4c0-.1-.1-.2-.2-.3-.1 0-.3.1-.3.2s0 .3-.1.4c0 .4-.2.8-.3 1.1-.1.2-.2.3-.3.4-.2-.1-.3-.2-.4-.3-.1.1-.3.2-.4.4zm-4.7 4c.2.2.3.5.5.8.5.6 1.1 1 2 1 .1-.1.2-.2.2-.3.2-.8 0-1.4-.5-2-.2-.2-.4-.4-.6-.5-.5-.2-.8-.1-1.2.1-.3.2-.4.5-.4.9zm11-2.5c.5-.5.7-1.1.8-1.7 0-.3-.2-.6-.6-.6-.3.1-.7.3-1.1.4-.2.1-.3.1-.4.3-.4.4-.7.8-.8 1.3-.1.3 0 .5.2.7.2.2.4.3.6.5.4-.4.9-.7 1.3-.9zM20.3 15c-.2.1-.3.2-.2.4 0 .2.1.4.1.6 0 .4.2.8.3 1.2.1.3.4.6.6.8.2.1.4.2.6.2.2 0 .4 0 .5-.1.1-.1.2-.2.2-.4-.2-.6-.4-1.3-.6-2-.2-.7-.5-.9-1.3-.9-.1.2-.1.2-.2.2zm-2.8 9.3h-1.2c-.1 0-.2 0-.2.1-.1 0-.1.1-.2.2 0 .1 0 .3.2.3 0 0 .1 0 .1.1.4.1.8.1 1.3 0 .3-.1.6-.2.8-.3.2-.1.3-.2.2-.4 0-.2-.2-.3-.4-.3-.2.1-.3.2-.6.3zm2.9-1.4c0-.1-.1-.3-.3-.3-.3 0-.5.3-.4.6 0 .1.2.2.3.2.2-.2.3-.3.4-.5zm-5.9-7.3c.1.2.2.4.6.4 0-.1.1-.2.1-.3 0-.2-.1-.3-.3-.4-.1 0-.3 0-.3.1 0 0 0 .1-.1.2zm-1.7.5c-.1-.1-.1-.2-.2-.3 0 0-.2-.1-.2 0-.1 0-.2.1-.2.3 0 .2.1.3.2.4.1.1.2 0 .3-.1 0-.1 0-.2.1-.3zm-3.4 1.3c-.3-.1-.5.1-.5.3 0 .1.1.2.1.3.1.1.3.2.4.1.1-.1.2-.3.1-.4 0-.2 0-.2-.1-.3zm4.8 7.3v.1c.1.1.2.2.3.2.1-.1.2-.1.2-.3 0-.1 0-.3-.1-.3-.2-.1-.3 0-.4.2v.1z" style="fill:#e6d0c3"/>
    <path class="st1" d="M6.8 13.2c.3 0 .5 0 .7-.1.4 0 .9-.1 1.3-.1.5 0 1-.1 1.5-.1.8 0 1.5 0 2.3-.2.3-.1.6 0 .9 0l2.7-.3 3-.6c.7-.1 1.4-.3 2-.4h2c.1.2 0 .3-.1.3-.3.2-.6.2-.9.2-.5 0-1 .1-1.5.2-1.2.2-2.4.3-3.6.6-1.1.2-2.2.3-3.3.6-.7.2-1.4.2-2.2.2h-.2c-.8 0-1.6.2-2.4.1-.6.2-1.2 0-1.8 0-.1 0-.2-.1-.4-.4z"/>
    <path class="st0" d="M15.3 19.6c.2-.2.4-.3.5-.2.1.1.2.2.4.3.1-.2.2-.3.3-.4.1-.4.3-.7.3-1.1 0-.1 0-.3.1-.4 0-.1.2-.2.3-.2.1.1.2.1.2.3v.4c-.1.6-.2 1.2-.6 1.7-.1.1-.1.2-.1.3 0 .1.1.2.2.3h.2c.3-.2.4-.5.6-.8.3-.5.6-1.1.9-1.5.3-.2.5-.2.8-.2.1.1.2.1.3.2.1.1.1.2.1.4-.2.7-.3 1.4-.7 1.9-.2.3-.5.6-.8.8-.1.1-.3.2-.4.3-.1.4-.1.8-.1 1.2 0 .2-.1.3-.1.5-.1.1-.2.2-.3.2-.4.1-.7 0-.9-.2-.1-.1-.2-.3-.3-.4-.1-.2-.2-.5-.3-.6-.3-.2-.5 0-.7-.1-.5-.3-.7-.3-.9-.3-.8-.2-1.3-.6-1.6-1.4v-.2c0-.1.2-.2.3-.2.3 0 .6.2.8.3.4.3.8.6 1.3.8.1 0 .2 0 .2-.1 0-.5-.1-1 0-1.6zm1.6 1.8c-.1.3-.1.4-.1.5 0 .1.1.2.1.1l.1-.1c0-.1 0-.2-.1-.5zM10.6 23.6c-.1-.5.1-.7.4-.9.4-.2.7-.3 1.2-.1.2.1.4.3.6.5.5.6.7 1.3.5 2 0 .1-.2.2-.2.3-.9 0-1.5-.4-2-1-.1-.2-.3-.5-.5-.8zm1.7.7c-.1 0-.1.1-.1.1 0 .1.1.2.2.3.1.1.2.1.2 0v-.1l-.3-.3zM21.6 21.1c-.4.3-.9.6-1.3.8-.2-.2-.4-.3-.6-.5-.2-.2-.2-.4-.2-.7.1-.5.5-.9.8-1.3.1-.1.3-.2.4-.3.4-.2.7-.3 1.1-.4.4.1.5.3.6.6-.1.7-.3 1.2-.8 1.8zm-.4-.8s.1 0 0 0c.1.1.1 0 .2 0v-.2h-.1s-.1.1-.1.2zM20.3 15c.1 0 .2-.1.2-.1.8-.1 1.1.1 1.3.9.2.7.4 1.3.6 2 0 .2-.1.3-.2.4-.1.1-.3.1-.5.1s-.4-.1-.6-.2c-.3-.2-.5-.5-.6-.8-.1-.4-.3-.8-.3-1.2 0-.2-.1-.4-.1-.6-.1-.2 0-.4.2-.5zm1.1 1.6c.1-.1.1-.1.1-.2 0-.2-.1-.4-.3-.5h-.1c-.1 0-.1.1-.1.2 0 .2.2.4.4.5zM17.5 24.3c.3-.1.5-.2.6-.3.2 0 .4.1.4.3 0 .2-.1.3-.2.4-.3.2-.6.3-.9.3-.4.1-.8.1-1.3 0 0 0-.1 0-.1-.1-.1 0-.2-.2-.2-.3 0-.1.1-.1.2-.2.1 0 .2-.1.2-.1h1.3zM20.4 22.9c-.1.2-.2.4-.4.4-.1 0-.3-.1-.3-.2-.1-.3.1-.6.4-.6.1 0 .3.2.3.4zM14.5 15.6c0-.1 0-.2.1-.2.1-.1.2-.1.3-.1.2 0 .3.2.3.4 0 .1-.1.2-.1.3-.3 0-.5-.1-.6-.4zM12.8 16.1c0 .1 0 .2-.1.2-.1.1-.2.1-.3.1-.2-.1-.2-.2-.2-.4 0-.1.1-.2.2-.3h.2c.1.2.1.4.2.4zM9.4 17.4c0 .1.1.1.1.2.1.2 0 .3-.1.4-.1.1-.3.1-.4 0-.1-.1-.1-.1-.1-.2.1-.3.2-.5.5-.4zM14.2 24.7v-.1c.1-.2.2-.3.4-.2.1.1.2.2.1.3 0 .1-.1.2-.2.3-.1 0-.2 0-.3-.2v-.1z"/>
    <path class="st1" d="M16.9 21.4c0 .3.1.4.1.6 0 0 0 .1-.1.1 0 0-.1 0-.1-.1 0-.2.1-.3.1-.6zM12.3 24.3c.1.1.2.2.2.3v.1c0 .1-.1.1-.2 0s-.2-.1-.2-.3c.1 0 .2 0 .2-.1zM21.2 20.3c0-.1 0-.1.1-.2h.1c.1.1.1.1 0 .2h-.2c.1 0 0 0 0 0zM21.4 16.6c-.2-.2-.4-.3-.4-.6 0-.1 0-.2.1-.2h.1c.2.1.3.3.3.5s-.1.3-.1.3z"/>
</svg>
