<svg version="1.1" id="圖層_1" xmlns="http://www.w3.org/2000/svg" x="0" y="0" viewBox="0 0 43.2 55.4" style="enable-background:new 0 0 43.2 55.4" xml:space="preserve">
    <style>
        .st0{fill:#7a6a56}.st2{fill:#deedd8}.st3{fill:#eacac6}.st4{fill:#fff}
    </style>
    <path class="st0" d="M9.4 20.2v-.3c-.1-.3-.3-.6-.5-.9-.1-.9.1-1.8 0-2.6.1-.6.4-1 .7-1.5s.7-.7 1.3-.5c0 0 .1 0 .1-.1.2-.9.6-1.7 1.3-2.4.8-.6 1.7-.5 2.6-.1.3-.1.5-.2.8-.3.5.2 1.1.4 1.7.3.5 0 1 .2 1.5.4.3.1.6.3.9.4.2.1.4.4.5.6.1.2.1.4.2.7-.1.5-.1.9-.1 1.2.1.4.2.5.4.7.2.3.4.7.6 1.1s.2.8 0 1.2v.1c.2.1.3.1.5.2.1.3.3.5.5.8.2 0 .2 0 .4-.3-.3-1.1-.3-1.1-1.2-2.5l.3-.3h.3c.2.1.4.3.5.5.3.5.4 1 .7 1.5.2 0 .2-.2.1-.3-.2-1.3-.7-2.5-1.9-3.2-.1 0-.1-.1-.2-.2-.1-.4 0-.5.3-.6.1 0 .2 0 .3-.1.1 0 .1-.1.1-.2-.1-.4-.3-.7-.6-.9-.9-.7-1.8-1.5-2.8-2.2-.1-.1-.2-.1-.4-.2-.8-.1-1.5 0-2.3.1-.3.1-.6.1-1 .2-.7.1-1 0-1.7-.3-.4 0-.9 0-1.4-.1-.2 0-.4-.1-.7-.4 0-.2.1-.3.1-.5-1 0-1.6-.2-2.3-.4 0 0-.1 0-.1-.1l-.3-.3c0-.1.1-.3.2-.3C9 8 9 8 9.1 8s.3-.1.4-.1v-.4c.4-.5 1-.6 1.5-.9 0-.2-.1-.4.1-.5.1-.1.2-.2.4-.2.1 0 .3-.1.4 0 .9.1 1.7-.1 2.6 0 .3 0 .5.1.8 0 .5-.1 1 0 1.4.4.5.4 1.1.6 1.7.9.4-.4.4-.9.7-1.3.1-.8-.3-1.5.1-2.3.4-.2.7-.5 1-.9l.3-.3c.3-.4.8-.7 1.3-.8l.9-.9c.2-.2.4-.4.7-.4L24 0h.4c.3.1.6.2.9.2.5.5.9 1 1.3 1.4.6.4 1.2.7 1.7 1 .7.4 1 1 1.3 1.8l.3 1.2c.1.4.1.8-.1 1.1-.3.7-.7 1.4-1.4 1.9L28 9c.1.3.3.3.6.4.2 0 .5 0 .7-.1s.5-.1.7 0c.5.2 1 .2 1.5.1h.5c.2 0 .4.1.5.2.3.2.5.4.6.7s.3.6.5.8c.4.5.7 1 .9 1.6 0 .5.1 1.1 0 1.7-.3.6-.6 1.1-1.1 1.5-.1.1-.2.2-.1.4 0 0 0 .1.1.1.1.1.2.1.2.1.4-.1.4-.5.7-.6.4-.2.9-.2 1.4-.1.5.1 1.1.3 1.6.5.1 0 .2.1.2.2.1.1.1.2.1.4 0 .1-.1.3-.2.3h-.3c-.8-.6-1.6-.6-2.5-.3-.1 0-.3.1-.4.1-.5.2-1 .5-1.3 1l-.3.3c-.2.1-.3.2-.5.2-.7.1-1.2.4-1.7.8-.1.1-.3 0-.3-.1s0-.3-.1-.4c0-.1-.2-.2-.3-.1l-.1.1c.2.5.2 1 .4 1.4.5.3 1 0 1.4.1.1.1.1.1.1.2s-.1.2-.1.2c-.1.1-.2.1-.4.2-.3.1-.6.1-1 .2-.3.1-.5.2-.6.6.1.1.1.2.2.3l.9.3c.4-.4.8-.7 1.2-1.1.1-.4 0-.8.2-1.1.2-.4.5-.8.9-1 .7-.4 1.5-.7 2.3-.9.2-.1.4-.1.7-.2.3.1.7.1 1 .1.3.1.4.3.7.5.1.1.3.1.6.2.4.2.8.4 1.1.8.4.4.8.7 1.3 1 .4.2.8.5 1.2.8.2.6.5 1.1.8 1.6.1.1.1.2.2.4 0 .1.1.2.1.3-.1.4-.1.4-.4.9-.1 0-.2.1-.3.1h-1c-1 0-1 0-2.1-.3-.2.1-.5.3-.6.4-.6.2-1-.1-1.3-.2-.4 0-.5.1-.7.2s-.5.1-.7 0c-.3-.1-.6-.3-.9-.5-.3 0-.6 0-.9-.1-.8-.8-.8-.8-1.2-2.2-.5.1-.5.1-2 1.2-.1.2-.1.3-.1.5v.6c0 .2-.1.4.1.5.4 0 .3-.5.6-.5.6-.2 1.2 0 1.7.4.2.1.3.3.4.6 0 .1-.1.2-.2.3-.1.2-.3.2-.5.2-.1 0-.2-.1-.3-.1-.6-.3-1.2-.2-1.8 0-.1 0-.2.1-.3.2-.1.1-.2.2-.2.3-.2.5-.6.8-1 1.1-.1.1-.2.2-.3.4 1 .2 2.1-.1 3 .3.5-.1 1-.4 1.5-.5.6-.2 1.3-.2 1.9 0l1.2.3c.4.2.7.4.8.9 0 .2-.1.4-.1.7.2.3.5.6.7.8.1.3.2.6.4.9.1.3.3.5.5.9 0 .4 0 .8.1 1.2.1.3.3.5.4.8.1.3.2.5.1.8 0 .2-.1.4-.4.5-.7.1-1.4-.3-2.2-.3-.4-.2-.8-.4-1.1-.5-.4 0-.6.4-.9.4-.5 0-.8-.5-1.2-.7h-.3c-.5.3-1 .2-1.4-.2-.2-.4-.3-.8-.4-1.3-.3-.5-.6-1-.7-1.3-.2-.6 0-1.1-.2-1.5-.4-.3-.9 0-1.3-.2l-2.1.6c0 .1 0 .1.1.2s.1.2.2.2c.3.2.6.5.9.6s.6.3.8.6c.2.3.4.5.5.8v.3c0 .1-.1.2-.1.2-.3.1-.4.5-.7.6-.1 0-.2 0-.2-.1s-.1-.2-.1-.3c0-.8-.4-1.4-1-1.9-.3-.2-.7-.3-1-.2 0 0-.1 0-.1.1-.2.9-.8 1.6-1.3 2.3-.6.9-.9 1.8-1.1 2.8.1.1.1.2.1.3l.3.3c1.2.8 2 2 2.6 3.3.5 1.1.9 2.3 1.1 3.5.2 1.1.2 2.1.1 3.2 0 .2-.1.4-.2.5-.4 1.1-.8 2.3-1.3 3.3-.4.9-1.1 1.7-1.8 2.4-.6.6-1.4 1-2.3 1.3-.7.2-1.4.5-2.1.7-.5 0-1 0-1.5.1-1 .1-1.9-.1-2.9-.3-.2 0-.3-.1-.5-.2-.9-.4-1.7-.9-2.5-1.5l-.3-.3c-1.4-1-2.3-2.4-2.8-4-.2-.6-.4-1.2-.5-1.8.1-2 .5-3.9 1.3-5.8.5-1 1.1-2 1.8-2.9.8-.9 1.6-1.8 2.3-2.8.2-.3.4-.6.5-.8.2-.8-.1-1.5-.1-2.2-.1-.6-.2-1.3-.3-1.9.2-.7 1-.8 1.4-1 .1-.1.1-.2 0-.3-.4-.3-1-.5-1.5-.7-.6-.2-1.2-.1-1.7.2-.2.1-.3.2-.5.3-.2.1-.4.2-.7.3-.3.3-.2.8-.2 1.2-.3 1.1-1.1 1.8-2.1 2.5-.3 0-.7 0-1.1.1-.4.2-.8.4-1.1.6-.4.2-.8.3-1.2.5-.3 0-.7 0-1.2-.1-.2.1-.5.1-.7.2-.4-.1-.7-.2-1.1-.2H1.9c-.2 0-.3-.2-.4-.3.1-.4.5-.4.7-.6.8-.2 1-.4 1.2-.6.1-.5.5-.9.4-1.5-.1-.1-.2-.1-.2-.2-.4-.3-.4-.6-.1-.9.4-.3.7-.6 1.1-.9.1-.1.1-.3 0-.4l-.3-.3c0-.1 0-.2.1-.3.2-.2.5-.3.6-.5.2-.2.3-.4.5-.6.4-.3.9-.4 1.3-.4.2-.2.4-.3.6-.5h1s.1 0 .2.1c.4.2.8.4 1.3.5s.9.3 1.2.7c.2.2.4.4.7.4.3-.2.6-.3.9-.5.3-.2.7-.3.9-.5.8-.1 1.6 0 2.4.2s1.5.5 2 1.2c0 0 .1 0 .1.1 0 0 .1 0 .1-.1 0-.3-.1-.6-.3-.9 0-.1-.1-.2-.2-.2-.7-.6-1.3-1.1-2.3-1.2-.5-.1-1-.1-1.5.1-.3.2-.5.3-.8.4-.2 0-.3-.1-.3-.2v-.8c.3-.4.7-.7 1.1-.9.1-.1.2-.2.1-.3-.9-.4-1.9-.4-2.8-.6-.8-.2-1.7-.2-2.5 0-.1 0-.3.2-.3.4v.6c-.2.5-.5.8-1 1.1-.4.1-.8.2-1.2.2-.4.2-.6.6-1.2.7-.4 0-1-.1-1.5-.1s-1-.2-1.4-.4c-.1-.1-.2-.2-.2-.3 0-.3.2-.5.3-.8 0-.2-.1-.3-.2-.4-.4-.2-.9-.5-1.3-.8l-.6-.6c-.2-.3-.3-.6-.1-1l.7-.7c0-.1.1-.1 0-.2 0-.3-.1-.5-.1-.9.1-.2.2-.5.3-.9l.6-.6c.2-.2.5-.3.8-.3.5 0 1 0 1.5.2.2.1.4.1.5.1s.2-.1.4-.1c-.3-.2-.5-.3-.7-.5-.1-.2-.1-.4 0-.7.2-.3.4-.6.7-.9.2-.1.4-.1.6-.2.1 0 .2 0 .3.1.3.1.5.2.7.4l1.9 1.9c.4.2.8.6 1.2.9.4.5.7 1.1.9 1.8 0 .1.1.1.2.2.3.1.7.2 1 0l.1-.1c0-.2.1-.4.1-.7 0-.2-.2-.3-.3-.4-.6-.3-1.1-.6-1.7-.9-.1.1-.2.1-.3.1zm3.9 8.3H13c-.1 0-.2.1-.1.1l.1.1h.1l.2-.2c.1-.1.2-.1.4-.1.1 0 .1-.1.2-.2h2.2c.1.3.3.3.6.3 0 .1.1.2.2.3.1 0 .2 0 .2-.1l-.1-.1h-.4c0-.1-.1-.2-.2-.2H16c-.1-.1-.1-.2-.2-.2-.6-.1-1.2-.2-1.9 0-.1 0-.1.1-.1.2h-.3c0-.1-.1 0-.2.1zm5.3-2.2v.3c0 .1.1.1.1.2l.1-.1v-.1c-.1-.2-.2-.2-.2-.3v-.4c0-.2-.1-.3-.3-.4.1-.6-.2-1.1-.3-1.7 0-.1-.1-.1-.2-.1s-.3.1-.3.2v.3c.2.4.4.9.7 1.3h.1v.6c.1.1.2.2.3.2zm7.2 1.4c.4 0 .6-.2.7-.6 0-.1-.1-.2-.1-.2-.1-.1-.2 0-.2.1-.2.2-.3.5-.4.7h-.4c-.1 0-.1.1-.1.2h.1c.2 0 .3-.1.4-.2zm0-3.6c.1 0 .3 0 .4-.1.2-.2.3-.4.3-.7 0 0 0-.1-.1-.1l-.6.6v.3c-.3 0-.5.2-.7.5.5 0 .6 0 .7-.5zM6.4 18.8c.1.3.3.6.4.9s.2.6.3 1c.1-.1.1-.2.1-.2v-1c-.1-.2-.2-.4-.3-.5-.2-.2-.3-.2-.5-.2v-.1c-.2-.3-.4-.5-.6-.7-.2-.1-.4-.1-.6 0-.1.1-.1.1 0 .2.2.5.7.6 1.2.6zM22.5 4.9c-.2.2-.2.4-.5.5h-.3c0 .1-.1.2-.1.2 0 .1.1.1.2.2.6.1 1.1-.1 1.5-.4l.1-.1c0-.1 0-.2-.1-.2-.2-.2-.5-.2-.8-.2v-.4c.6-.7 1.2-1.4 2.1-1.6-.1-.2-.2-.3-.5-.4-.2.1-.5.1-.7.2-.4.1-.7.4-1 .7-.3.4-.3.9-.1 1.4.1.1.1.1.2.1zM28.3 21c-.1-.2-.4-.3-.6-.3 0-.2 0-.4-.2-.5-.1-.1-.3-.1-.4-.1-.5-.2-.9-.4-1.2-.9-.2-.3-.6-.5-.9-.4-.7.1-1.3.4-1.8 1-.1.2-.4.3-.5.4-.2.2-.4.4-.4.7 0 .1 0 .3.1.4 0 0 0 .1.1.1s.2 0 .2-.1c.3-.8.8-1.2 1.6-1.4.9 0 .9 0 1.5.5h.1c.5.1 1 .3 1.5.1.1 0 .3.1.4.1.1.3.3.4.5.4.1.1.1.2.1.4l.6 1.5c.1.2.1.4.1.5-.7 1.1-.7 1.2-1.7 1.9.3.1.5.1.6.1.2-.1.4-.3.6-.4.4-.3.6-.7.7-1.1.1-.5.2-1.1.1-1.7-.3-.4-.7-.8-1.1-1.2zm-3.1 9.5c-.2.1-.3.1-.5.2h-.4c-.1-.2-.2-.3-.3-.5h-.3c-.4.3-.7.7-1 1.1.2.2.4.3.6.3.8.2 1.7.2 2.3 0l-.2-.2c-.5-.1-.5-.2-.3-.6.1 0 .1-.2.1-.3.1 0 .1-.1.2-.1.4 0 .7-.2.9-.5.6-.1 1.3-.3 1.9-.5.7-.2 1.3-.3 2-.3h1.4c.1 0 .1-.1.1-.2s-.1-.2-.1-.2c-.4-.2-.9-.2-1.2-.2-.3 0-.6.1-.8.1-1.1.1-2.1.5-3 1-.1 0-.2.1-.2.2v.3c-.5-.2-.9 0-1.2.4zM16.7 23c-.4 0-.7-.2-1-.4-.3-.1-.3-.3-.3-.7 0-.2 0-.2-.3-.3-.1.1-.2.2-.3.2h-.2c-.6 0-1.2 0-1.9-.2-.1.1-.1.1-.1.2s.1.2.1.2c.1.1.2.1.2.1.8.4 1.7.8 2.6 1 .3 0 .6-.1.9-.1.1.1.2 0 .3 0 .5.1 1 0 1.3-.5.1-.2.1-.5.2-.7-.2-.1-.3-.1-.4 0-.3.5-.6.9-1.1 1.2 0-.1 0 0 0 0zm-4.2-7.3c.3-.1.6-.3.9-.4.4-.2.8-.2 1.2 0 0 0 .1 0 .1.1.3.1.5 0 .8-.2.2-.2.4-.4.3-.7-.5-.3-1-.5-1.6-.6-.2.1-.3.1-.3.1-.6.3-1 .8-1.3 1.4-.1.1-.1.2-.1.3 0 .1-.1.1 0 0-.3.6-.4.9-.4 1.5l-.1.1c-.2.1-.3.1-.5 0-.1-.1-.2-.2-.2-.3-.1-.1-.3-.1-.3.1-.1.2-.1.4-.1.6.3.6.7.9 1.2 1.1.3-.1.3-.3.4-.5l.3-.6c.1-.2.2-.4.2-.6-.3-.5-.7-.8-.5-1.4zm-9.4 5.6h-.3c-.6.4-1.1.8-1.6 1.2-.2.2-.3.3-.3.5v.1c.4.6 1 .9 1.6 1.2.2.1.4 0 .5-.2 0-.1 0-.2-.1-.4-.2-.2-.5-.3-.7-.4-.1-.3.1-.5.2-.7.1-.3.2-.5.3-.8.2-.1.3-.3.4-.5h.1c.4-.1.8-.3 1.2-.6 0 0 0-.1.1-.1 0-.1-.1-.2-.1-.4-.1-.2-.5-.3-.5 0-.2.4-.4.7-.7 1-.1 0-.1.1-.1.1zM26.3 2.5c-.3-.5-.7-.9-1.1-1.4-.2-.2-.4-.3-.7-.3-.4 0-.8.1-1.1.5.1.1.1.3.2.3.8.1 1.6.4 2.4.8.1.1.2 0 .3.1 0 0 0 .2.1.2.4.4.9.8 1.3 1.4.1.2.2.6.3.9 0 .2.1.4 0 .5-.1.3-.1.5 0 .8 0 .2 0 .4-.1.5l-.6.9c0 .2 0 .5.2.6.7-.2 1.1-.7 1.4-1.1.5-.9.5-1.8.2-2.6 0-.1 0-.2-.1-.3-.1-.2-.2-.5-.4-.7-.8-.5-1.4-1-2.3-1.1zm9.5 20.4c0 .2 0 .4.1.5l.5.5c.2-.1.2-.2.1-.3-.2-.2-.5-.4-.7-.7-.2-.2-.4-.5-.5-.8-.1-.2 0-.4.1-.5.1 0 .3.1.3.2.3.4.6.8 1 1.2.1.1.2 0 .3-.2 0-.1-.1-.3-.1-.4v-.3c0-.1.1-.1.2-.2.1 0 .2 0 .2.1.4.5.5 1.2.7 1.8.1 0 .2.1.3.2.4-.3 0-.7.2-1h.2l.6.3c.7.6 1.6.7 2.5.5l.1-.1c0-.2-.2-.3-.4-.4s-.5-.1-.7-.2c-.7-.5-1.5-.8-2.2-1.1-1.3-.6-2.7-.8-4.2-.6-.1 0-.2.1-.2.1-.1.3-.1.5-.1.8 0 .2.1.4.1.5 0 .2.3.3.4.3.6-.2.9-.1 1.2-.2zm-19 9.1c-.1.1-.1.2-.1.3 0 .5 0 .9.1 1.4 0 .2.1.4.1.5.1.7 0 1.4-.4 2l-.9 1.2-1.8 2.1c-.1.1-.2.3-.3.4-.7.9-1.2 1.9-1.6 2.9-.4 1.1-.6 2.2-.9 3.3v.4c0 .8.2 1.6.4 2.3.5 1.5 1.5 2.7 2.7 3.8.9.6 1.8 1.1 2.7 1.6.2.1.4.2.6.2.4.1.8.2 1.2.2.4.1.8-.2 1.3-.3 1.5-.2 2.7-.7 4-1.4.6-.3.8-1 1.2-1.6.5-.8.9-1.5 1.2-2.4.4-.9.4-1.2.5-2.2 0-.1.5-.6.5-.7 0-.3-.4-.6-.4-.8-.1-1.6-.1-2.4-.7-3.8-.1-.3-.1-.8-.3-1-.6-.9-1-1.8-1.9-2.5-.4-.3-1.4-.9-1.5-1.4.2-.6.5-1.4.8-2 .3-.6.1-.6.4-1.2l.9-.2c-1.1-.2-1.7-.2-2.8-.5l-2.8-.5c-.8 0-1.5 0-2.2-.1zm3.8-1.3c.6-.8.7-1.1 1.4-3.5-.1-.5-.2-.9-.3-1.4-.3-.3-.7-.5-1-.8s-.5-.6-.7-1v-.7c.2-.4.6-.6.7-1v-.2c0-.4.1-.5.5-.4.1 0 .2.1.3-.1 0-.1-.1-.2-.1-.3-.1-.1-.1-.2-.2-.4s-.1-.4.1-.6c.1-.1.3-.2.4-.4-.1-.4-.3-.8-.6-1H21l-.1.1c0 .7-.3 1.4-.6 2.1-.2.5-.6.8-1.1 1-.1 0-.2.1-.3.1-.3.4-.3.8-.2 1.2l.6 2.1c.1.3.2.5.3.8.1.2.2.4.4.6.3-.2.7-.4 1-.6.1-.1.3-.1.4-.1.2 0 .3.1.3.4-.3.3-.8.5-1.1.8-.2.3-.4.5-.3.9 0 .8.1 1.5.3 2.4zm-13.8.2c-.2-.1-.4-.1-.5-.2-.1 0-.2-.2-.2-.3 0-.1.1-.2.2-.2.4-.2.8-.2 1.2-.1.2 0 .3.1.5 0 .1-.1.3-.2.4-.4-.1-.2-.3-.1-.5-.2-.3-.1-.5-.1-.8-.2-.1 0-.2-.2-.2-.3 0-.2.2-.4.4-.3h.1c.3.1.6.1.9.3.3.1.5.2.7.4l.9-.3.9-.3c0-.4-.3-.6-.6-.7-.2-.1-.5-.1-.8-.2-.4-.4-.8-.7-1.4-.5-.1.2-.3.3-.4.5h-.5c-.2 0-.4 0-.6.1-.3.3-.5.6-.8.8-.1.3-.1.6-.1.8-.2.4-.6.5-.7.9-.1.3 0 .5.1.7-.4.8-.7 1.5-1 2.2 0 .1 0 .2.1.2.2-.1.4-.2.5-.4.7-.7 1.5-1.4 2.2-2.1.1 0 0-.2 0-.2zm25.6-.9c-.1.1-.2.2-.2.3-.1.6.1 1.2.5 1.6.1.1.2.1.4.2h.3c.1 0 .2.2.2.3-.1.3-.3.5-.3.8 0 .1.1.2.1.2.1 0 .2 0 .2-.1.1-.1.1-.1.1-.2 0-.2.1-.4.1-.5l.1-.1c.2-.1.4-.1.5 0 .2.3.3.7.5 1 .1.2.3.2.5.2.1-.2.2-.5.3-.7h.5l.5.5.4.4c.6.4 1.2.5 1.8.4.1 0 .1-.1.2-.2 0-.2-.1-.4-.3-.5-.1-.1-.2-.1-.4-.2-.5-.1-.8-.4-1.1-.8l-.3-.3c-.3 0-.5.2-.7.1-.1-.1-.2-.3-.1-.5.1-.1.1-.2.2-.4-.1-.3-.3-.5-.5-.6-.1-.1-.4 0-.4.1-.1.2-.1.4-.2.7 0 .1-.2.2-.3.2s-.3-.1-.3-.3v-.5l.3-.9s-.1-.1-.2-.1-.2.1-.2.1c-.2.2-.2.4-.3.6 0 .2-.2.3-.4.4-.2 0-.3-.1-.4-.4 0-.2.1-.4.2-.6 0-.2-.1-.4-.3-.4-.3.1-.7.1-1 .2zM9.5 32.2c.2.2.4.3.6.5.1 0 .2 0 .3-.1.3-.3.6-.7.9-1l.3-.6c.1-.1 0-.4-.1-.5-.3-.2-.5-.5-.8-.7h-.3c-.2.7-.1 1.5-.5 2.1-.2.2-.4.1-.6-.2.1-.3.1-.5.2-.8v-.4c0-.1-.1-.1-.2-.1-.1.1-.2.1-.3.2 0 .4-.1.8-.1 1.1-.1.1-.1.2-.1.3 0 .1-.1.2-.1.2-.1.1-.2.2-.2.3l-.2.2h-.4c-.1 0-.2-.2-.2-.3 0-.4.2-.6.3-.8l-.1-.2c-.1 0-.2 0-.2.1-.8.6-1.4 1.3-2.1 2-.1.1 0 .2.2.3.2-.1.4-.2.6-.2.2.1.5.2.7.3.3-.2.6-.5.8-.7h.5c.5-.3.6-.8 1.1-1zm22.1-21v.3c-.1.7.3 1.2.3 1.9 0 .1 0 .2.1.3.1.1.2.3.4.4.4.2.7.5.8.9 0 0 .1 0 .1.1.4-.1.5-.4.6-.7.1-.4.1-.9.1-1.4 0-.4-.2-.7-.4-1-.4-.4-.6-.9-1-1.3-.1-.2-.3-.4-.4-.5-.3-.2-.6-.3-.9 0 0 .3.1.6.3 1zm5.2 8.7c.9.3 1.7.6 2.5 1 .5.3 1 .4 1.5.6.1 0 .2-.1.2-.1-.4-.4-.5-.5-1.8-1.2-.1-.2-.3-.5-.4-.6-.3-.2-.5-.3-.8-.3h-.8c-.1 0-.2-.1-.2-.1-.1-.2.1-.5-.2-.7H36c-.1 0-.3 0-.4.1-.7.3-1.4.6-2 1-.2.1-.4.3-.4.5 0 .1 0 .2.1.2 1.9-.4 1.9-.4 3.5-.4zM25 13.5c-.2-.2-.5-.3-.6-.2-.4.2-.7.5-1.1.8-.2.1-.3.4-.3.6 0 .2 0 .4.1.5.3.6.7 1.2 1.3 1.5 0 0 .1 0 .1-.1l-.3-.6c-.1-.2-.2-.5-.3-.8-.1-.2.1-.3.3-.5.2.1.3.2.4.4.2.6.5 1.1 1 1.5.2.1.3.3.4.5 0 0 0 .1-.1.1l-.2.2c-.3.1-.6.2-.9.2-.1.2 0 .3.2.3.3.1.6.1 1 0 .2-.2.5-.4.6-.8-.1-.3-.3-.5-.4-.8 0-.1 0-.2.1-.3 0-.1.1-.2.1-.3 0 0 0-.1-.1-.1-.3-.1-.5-.2-.7-.2-.3-.4-.6-.8-.7-1.3-.1 0 0-.3.1-.6zm-6.7-5.7c-.3-.1-.7-.3-1.1-.5s-.7-.6-1.1-.7h-.2c-.2.1-.3.2-.5.2-.4-.2-.8-.3-1.2-.5-.3.1-.5.2-.7.2s-.4-.1-.7-.1c-.2-.1-.4-.2-.6-.1-.4.3-.2.7-.5.8-.6.1-1.1.3-1.6.8.3.1.5.1.6 0 .8-.2 1.5-.2 2.3-.2h.3v-.1c-.1-.1-.2-.2-.2-.3.1-.2.2-.3.4-.3.3 0 .6.2.9.4.2.1.3.3.5.4.3.2.6.3.9 0 0-.1 0-.2.1-.3.1-.3.4-.4.6-.1.2.2.4.5.5.7l1.5.6c.2-.3 0-.6-.2-.9zm5.5 14.8c-.1-.3-.3-.5-.2-.9.2-.2.4-.5.6-.8 0-.1-.1-.1-.2-.1s-.3.1-.3.2c-.2.2-.4.5-.5.8-.1.4-.3.7-.7.8-.2-.1-.4-.1-.6-.2l-.9.6c-.2.1-.3.6-.2.8.2.4.4.7.7 1 .1.1.5.1.6-.1.2-.3.3-.5.4-.9 0-.1.1-.3.2-.4s.3-.2.5 0l.1.1v.5c-.1.3-.3.6-.4.9v.3c.3.2.7.4 1 .7h.2c.2-.1.2-.3.2-.5-.2-.3-.7-.4-.8-.9.1-.2.1-.5.2-.7-.1-.2-.2-.4-.2-.5.2-.3.3-.5.3-.7zm-10.3-13c.1.1.2.1.2.2l.2.2c.2.3.5.3.7.2.4-.1.8-.3 1.2-.4h1.5c.3 0 .5 0 .8.1 0 0 .1 0 .1-.1.1-.1 0-.2 0-.2-.6-.4-1.5-.8-2.1-.8 0 0-.1 0-.1.1.1.1 0 .3-.2.4-.3.1-.7.2-1.1.1-.2-.1-.3-.4-.5-.4s-.4 0-.7.1c-.1-.1-.3-.2-.4-.3 0-.1 0-.2.1-.4-.1 0-.2-.1-.3-.1-.4.1-.9.2-1.3.3-.1 0-.1.1-.2.1.3.2.8 0 1.1.3 0 .2 0 .3-.1.5l.1.1c.3.2.6-.1 1 0zm16.7 7.7c-.6-.2-1-.7-1.5-1h-.3c-.1 0-.2.1-.3.2 0 .1 0 .3.2.3.9.5 1.8.9 2.8 1.1.5-.3.9-.6 1.4-.8.1 0 .1-.1.2-.2.2-.7-.1-1.2-.3-1.8-.2.1-.3.4-.4.6-.2.4-.4.8-.8 1.1-.2.3-.5.5-1 .5zm-12.5-4.6c-.5.1-.5.5-.9.5-.2-.1-.3-.3-.5-.4-.1 0-.1 0-.2.1-.2.2-.4.5-.4.9 0 .1.1.2.1.3.3-.1.6-.2.8-.2.4-.1.8 0 1.1.4.1.1.2.2.3.2h.6c.3.1.4.4.8.4.1-.5.1-.7 0-.9-.2-.3-.4-.5-.7-.7-.2-.3-.6-.4-1-.6zM3.1 25.6c.1.2.2.4.4.4.4.1.8.1 1.2.2H5c.1-.1.3-.2.4-.2l.3-.6.6-.3c-.2-.2-.4-.4-.6-.5-.1-.3 0-.6-.3-.7-.4 0-.7.1-1.1.4-.1.4-.4.8-.8 1-.2 0-.3.2-.4.3zm23.8-6.2c.6-.1 1.1.3 1.6.8.1.1.3.2.4.3.1 0 .2 0 .2-.1.2-.1.2-.3.2-.5-.1-.4-.2-.7-.3-1.1-.1-.3-.3-.5-.5-.6s-.5-.2-.8-.3c-.2-.1-.5 0-.6.2-.2.2-.3.3-.4.5-.1.3-.1.5.2.8zm1.2 7.6c.2 0 .3-.1.5-.1.8-.1 1.3-.6 1.6-1.3.3-.8.4-1.6.1-2.4h-.1c-.1.1-.2.2-.2.3-.1.4-.1.7-.2 1.1 0 .1-.1.2-.1.3-.2.2-.5.5-.6.7-.6.3-1.1.5-1.5.8-.1 0-.1.2-.1.2 0 .1.1.2.1.2.2.1.3.2.5.2zm-2.8-15.5c.3-.1.5-.5.9-.4l.5.5h.9c.3-.2.5-.4.7-.7 0-.2.1-.5.1-.8-.2-.2-.4-.3-.6-.3-.5 0-.9.1-1.3.2-.6.2-.9.7-1.1 1.2-.1 0-.1.2-.1.3zm-9.6 6.1c-.4-.2-.8-.3-1.2-.4-.1 0-.3 0-.4.1-.2.1-.5.3-.5.6.2.5.5.9 1.2 1 .4 0 .7.1 1.1 0 .5-.3.8-.6.9-1.1 0-.1 0-.2-.2-.2-.2-.1-.5 0-.9 0zm2.8-1c-.2-.4-.3-.8-.5-1.2s-.5-.7-.8-.9c-.2-.1-.4-.1-.5.1-.2.2-.3.4-.2.7.2.2.5.4.8.6.2.1.3.3.3.6 0 .1.1.3.1.3-.1.4-.1.8-.1 1.2 0 .1.1.1.1.2.3-.1.5-.2.6-.5 0-.4.1-.7.2-1.1zM34.8 29c.6 0 1.2.1 1.8 0 .1 0 .3 0 .4-.1.1 0 .1-.1.2-.2 0-.1 0-.2-.1-.2-.3-.3-.7-.4-1.1-.5-.7-.1-1.5-.1-2.2.1v.2c0 .1 0 .2.1.2.3.1.6.3.9.5zM21.9 10c-.6-.2-1.3-.4-1.8-.8 0 0-.2 0-.2.1-.1.1-.1.2-.1.2 0 .2.1.3.2.5.7.6 1.3 1.2 1.9 1.9 0 .1.1.1.3.1.1-.6.1-1.1 0-1.6-.1-.1-.2-.2-.3-.4zm-.7-.9c.6.1 1.1.1 1.6.1h.1c0-.1.1-.2.1-.2-.1-.4-.5-.5-.7-.9-.4-.3-.8-.6-1.3-.5-.1.1-.2.1-.3.1-.3.2-.3.5-.1.7.2.2.4.4.6.7zm6.4 6c-.1-.3-.4-.6-.6-.8-.1-.1-.2-.3-.3-.5.2-.4.3-.8.5-1.2 0-.1 0-.3-.2-.3l-.2.2c-.2.5-.6.9-1 1.3-.1.1-.2.3-.3.4.1.4.2.7.5.9.4.1.8.2 1.2.1.2.1.3 0 .4-.1zM19 30.7c-.1-.3-.2-.6-.3-.8 0-.1-.2-.1-.2 0l-.1.1c0 .1.1.2.2.4 0 .1.1.2 0 .3l-.3.3c-.2-.2-.4-.3-.6-.5-.2.1-.4.1-.5.2-.2.1-.3.1-.5.2-.1.1-.1.3 0 .3.1.1.2.2.4.2.4 0 .7.1 1.1.1.5 0 1 0 1.5-.1.1 0 .1-.1.1-.2s0-.2-.1-.2c-.3-.3-.5-.3-.7-.3zm5.4-22.2c0 .3-.1.5-.1.8 0 .2 0 .3.2.3.6.2 1.1-.1 1.6-.4l.3-.6c0-.1 0-.3-.2-.4-.3-.1-.7 0-1.1-.1-.1 0-.2 0-.3.1-.2.1-.3.2-.4.3zm-3.7 9.3c-.1-.4-.2-.8-.5-1.1 0-.1-.2 0 0 0-.4.2-.6.4-.9.5.2.5.2 1 .2 1.6v.1c0 .1.1.2.2.2s.2 0 .2-.1c.3-.3.6-.7.8-1.2zm18 14.5c-.3-.6-.7-1-1-1.4-.1-.2-.1-.5-.2-.6-.2-.3-.5-.4-.8-.5-.2 0-.3.1-.4.4l.3.3c.2.2.3.5.4.7.3.6.7 1.2 1.3 1.5.1 0 .1 0 .2-.1s.1-.2.2-.3zM9.8 18.2c-.2.2-.2.5-.1.8.1.3.3.6.6.7.2.1.5.3.7.4.3.1.5.3.9.3.3-.1.3-.3.3-.6-.1-.1-.3-.2-.4-.3-.6-.4-1.3-.7-1.7-1.3h-.3zm17-12.6c-.3-.2-.5-.1-.7.1-.1.3-.3.5-.5.8-.1.2-.2.5-.1.8.1 0 .1.1.2.1.6.1 1-.2 1.3-.6s0-.7-.1-1c0-.1 0-.1-.1-.2zM9.6 22c-.1-.5-.3-.9-.6-1.2-.2-.2-.4-.4-.6-.5-.1-.1-.3 0-.4 0-.2.4-.2.6 0 .8.4.3.6.7.7 1.2 0 .1.1.1.2.2.3-.1.6-.1.7-.5zm9.9-14.4c.3 0 .5-.2.7-.4.3-.1.6-.3.8-.4 0-.6 0-.6-.4-1.5-.7.4-1 1.1-1.3 1.8.1.1.2.3.2.5zm5.7-2.9c.2.1.3.1.5.2.2-.1.5-.1.6-.3-.3-.4-.5-.6-.8-.9-.2-.2-.5-.2-.8-.1-.3.1-.6.3-.8.7 0 .3.2.5.5.6.2-.1.5-.1.8-.2zm-12.8 9.7c.2-.1.4-.3.5-.4.8-.7 1-.7 2.1-.4.2-.3.2-.4-.1-.5-.4 0-.5-.5-.9-.6-.1 0-.2 0-.3.1-.7.4-1.2.8-1.4 1.6-.1-.1 0 0 .1.2zm.6 6.1c.1.1.1.2.2.3l.3.3c.2.1.4.2.6.2.2 0 .3-.1.4-.4-.1-.1-.2-.2-.3-.4-.1-.1-.2-.3-.3-.4.1-.2.1-.3.2-.5-.2-.1-.3-.2-.5-.3h-.3c-.1.4-.3.7-.4 1.1.1 0 .1.1.1.1zm3-1c-.6.2-.9 0-1.2.3l.3.6c.2.3.4.5.7.6.1 0 .3 0 .4-.1v-.5c.1-.5.6-.7.8-1.1l-.2-.2c-.4.1-.7.3-.8.4zm15.5-5c-.3.1-.6.2-.8.5-.2.4-.5.8-.7 1.1-.1.1 0 .3.1.4.2.1.3.1.6 0 .2-.3.5-.6.7-.9-.1-.4.2-.7.1-1.1zM21 4.5c.3-.2.5-.4.5-.7.1-.5.4-.9.7-1.3.1-.1.1-.2.1-.3-.1 0-.3-.1-.4 0-.2 0-.4.2-.6.3-.3.3-.6.7-.8 1.1.2.4.3.6.5.9zm10 8c-.1-.1-.1-.2-.2-.3l-.2-.2c-.5-.3-1-.5-1.5-.5-.1 0-.2 0-.3.1-.1 0-.1.1-.2.2s0 .3.1.4c.4.2.7.3 1.1.5.4-.2.4-.2.8 0 .1 0 .3 0 .4-.2zm-8.1 16-.2-.2c-.1 0-.2 0-.2.1-.4.6-.8 1.7-1 2.7 0 0 0 .1.1.1h.1c.1-.1.2-.1.2-.2.3-.9.7-1.7 1-2.5zm2.9-2.2c.1-.3.5-.1.6-.4-.1-.2-.2-.4-.4-.5-.1-.1-.3-.1-.4 0s-.2.1-.3.2c-.1.3-.3.6-.4.9v.2c.1.1.1.2.2.3.3 0 .5 0 .7-.2v-.5zM17 20.4c.8-.1 1.2-.4 1.5-.9.2-.3.4-.6.2-1h-.2c-.2.1-.4.3-.5.5-.2.4-.4.8-.8 1.1 0 0-.1.1-.2.3zm-9.4 1.5c-.4.1-.8.5-1.2.6-.2.1-.4.3-.5.4s-.1.2-.1.2c-.1.1 0 .3.1.4h.3c.4-.3.8-.5 1.2-.7.2-.1.3-.2.5-.3.1-.1.2-.2.1-.4-.3-.1-.4-.1-.4-.2zm2.8-6.6c-.1 0-.2 0-.3.1-.4.4-.6.8-.7 1.3 0 .2.1.3.4.3.2-.2.4-.5.6-.7.1-.3.2-.6 0-1zm5.9.9c-.5-.2-.6-.2-.9-.2-.3.1-.6.2-.8.4.1.1.2.1.4.2.4.2.8.3 1.3.2.2 0 .3-.2.3-.4-.2 0-.2-.1-.3-.2zm7 10.7c-.2.2-.3.4-.1.6.2.1.3.3.5.4s.4.2.6.1.2-.4.1-.7c0-.1-.1-.1-.2-.2-.3-.3-.6-.2-.9-.2zm5.5-12.2c.1-.9.1-.9 0-1.6h-.1c-.4.2-.6.5-.7.9 0 .2.1.4.3.6.1.1.3.2.5.1zm-1.9 7.4c.3.4.7.8 1.1 1.2l.1.1.1-.1c-.1-.5-.2-1-.5-1.5-.1-.1-.3-.2-.5-.1-.1.1-.3.2-.3.4zm-3.6-12c-.2-.1-.3 0-.3.1 0 .7 0 1.4.1 2.1 0 .3 0 .5-.1.8 0 .1.1.1.2 0 .1 0 .2-.1.2-.2v-2.3c-.1-.2-.1-.3-.1-.5zm-1.1-3c0 .1.1.2.1.2.4.2.8.4 1.2.4.2-.2.5-.2.6-.5h-.8c-.3-.1-.6-.2-.9-.2 0-.1-.1 0-.2.1zM6 21.6c.2-.6.1-1 0-1.3-.1-.2-.2-.4-.5-.4-.2.1-.3.2-.3.4.1.1.3.3.4.5.1.1.2.4.4.8zm23.5-7.9c0 .4-.1.8 0 1.2 0 0 0 .1.1.1 0 0 0 .1.1.1s.2 0 .2-.1c.3-.4.2-.8 0-1.2-.1 0-.2 0-.4-.1zM19.6 30c0-.2.1-.3.1-.4 0-.5-.2-1-.4-1.5 0-.1-.1-.1-.3.1.1.6.2 1.3.6 1.8zm4.9-24.4c-.3.2-.7.4-1 .6v.2l.1.1c.6.1.8-.2 1-.8 0 0-.1 0-.1-.1zM20 20.2c-.2-.2-.3-.2-.8.3 0 .2-.1.5.1.8.1-.1.3-.1.3-.2.1-.4.2-.7.4-.9zm-18.5.7s.1 0 .1-.1c.3-.3.6-.7.9-1v-.1l-.1-.1c-.5.1-.9.5-1.1 1 .1.2.2.3.2.3zm15.1 1c-.1.1-.4-.1-.6.2.3.1.6.1.9-.1.2-.2.4-.4.5-.6 0-.1 0-.2-.1-.2h-.1c-.2.1-.4.4-.6.7zm7.6-11.4c0 .1-.1.2-.1.3v1.4c0 .1.1.2.1.2.1.1.2 0 .3-.1-.2-.5-.1-1.1 0-1.6 0-.1-.2-.1-.3-.2zM4.9 23.1c0-.2-.3-.2-.4-.2-.2-.1-.3-.1-.5-.2s-.3-.2-.5-.2c0 .1-.1.2-.1.2 0 .1.1.2.1.2.3.2.6.3.9.3.2.1.3.1.5-.1zm22.4 1.5c.3-.3.2-.6.1-.9h-.1c-.1 0-.2.1-.2.2l-.3.6c.1.1.3.1.5.1zm-4.1 5c.4-.2.7-.4 1-.5.1 0 .1-.1.1-.2-.2-.1-.4-.1-.7 0-.2.1-.4.3-.4.7zm2.8-7.4v-.8c0-.1-.1-.1-.1-.2l-.1-.1c-.1 0-.2.1-.1.2 0 .2.1.4 0 .6s.1.4.3.3zm.7 5.9c.1 0 .3.1.4.1.3-.1.6-.1.8-.4-.3-.1-.6-.2-.9 0l-.3.3zm3.9-16.9c.1-.1.1-.1.1-.2-.2-.3-.4-.4-.8-.4-.1 0-.1.1-.2.1.3.3.6.4.9.5zM7.8 24.8c-.1-.3-.2-.4-.3-.2-.1.1-.3.2-.4.4-.1 0-.1.3 0 .3h.2c.2-.2.3-.4.5-.5zm3.4-9c.1.1.2.1.3.1s.2-.1.2-.1c0-.1.1-.3.1-.4 0 0 0-.1-.1-.1h-.2c-.2.2-.3.4-.3.5zm15.9.7.1-.1c0-.1.1-.2.1-.2 0-.1-.2-.1-.4-.1-.1 0-.2.2-.1.3.1 0 .2 0 .3.1zM4.4 21.6c-.1.1-.2.1-.2.2-.1.1.1.3.1.3.1 0 .3-.1.4-.3 0-.1-.1-.2-.3-.2zm12.4 2.6s0-.1-.1-.1c-.1-.1-.1-.1-.2-.1l-.1.1c0 .2.1.2.2.2s.1 0 .2-.1zM26 12.4c.1-.1.2-.2.2-.3.1-.1 0-.1-.1-.2H26c-.1.1-.2.2-.2.3 0 0 0 .1.1.1 0 .1 0 .1.1.1zm6.8 16.8c.2.1.2.1.4 0-.2-.1-.2-.1-.4 0z"/>
    <path d="M16.3 32c.7 0 1.4.1 2.2.1h2.8c1.1.3 2.2.3 3.3.5.1 0 .1.1.2.2-.3.6-.6 1.1-.9 1.7-.3.6-.5 1.2-.7 1.8 0 .5.4.9.8 1.2.9.7 1.6 1.6 2.1 2.5.1.2.3.5.4.7.6 1.5 1 3 1.1 4.5 0 .2.1.5.1.7 0 .1-.1.2-.1.4-.1 1-.5 1.9-.8 2.8-.4.9-.8 1.8-1.3 2.6-.4.6-1.2 1.3-1.8 1.6-1.3.7-2.7 1.1-4.2 1.3-.4.1-.9 0-1.4 0-.4-.1-.8-.2-1.2-.2-.2 0-.5-.1-.6-.2-.9-.5-1.8-1.1-2.7-1.6-1.2-1-2.2-2.3-2.7-3.8-.3-.7-.4-1.5-.4-2.3v-.4c.3-1.1.4-2.3.9-3.3.4-1 .9-2 1.6-2.9.1-.1.2-.3.3-.4l1.8-2.1.9-1.2c.5-.6.6-1.2.4-2 0-.2-.1-.4-.1-.5 0-.5-.1-.9-.1-1.4-.1-.1 0-.2.1-.3zm7.5 15.9-.2-.2c-.2-.1-.4 0-.5.2s-.1.4.1.5c.1.1.3.2.5.2.3-.2.2-.4.1-.7zm.3-5c.2 0 .3-.2.3-.4s-.1-.4-.2-.5c-.2-.1-.4 0-.5.1s-.1.4-.1.5c.1.3.4.4.5.3zm-.6 1.2c-.2.4-.1.7.3.7.2 0 .3-.1.3-.2s0-.2-.1-.3c0-.1-.2-.2-.5-.2zm.4 6.4c0-.2.1-.4-.1-.5h-.2c-.1 0-.2.1-.2.1-.1.1-.1.3 0 .5.1.1.1.1.5-.1zm1.5-5.8c0-.2-.2-.3-.4-.4h-.1c-.1.1-.2.3-.2.5.1.2.2.3.4.3s.4-.2.3-.4z" style="fill:#ece1de"/>
    <path class="st2" d="M6.8 30.9v.3c-.7.7-1.4 1.4-2.2 2.1-.2.2-.4.3-.5.4-.1-.1-.1-.2-.1-.3.3-.7.6-1.4 1-2.2-.1-.2-.1-.5-.2-.7.1-.4.5-.5.7-.9 0-.2.1-.5.1-.8l.8-.8c.2-.1.4-.1.6-.1h.5c.2-.2.3-.4.4-.5.6-.2 1 .1 1.4.5.4.1.7.1 1 .1.3.2.6.3.6.7l-.9.3-.9.3c-.2-.1-.5-.3-.7-.4l-.9-.3h-.1c-.1 0-.4.2-.4.3 0 .1.1.3.2.3.3.1.5.2.8.2.2 0 .4 0 .5.2 0 .2-.2.3-.4.4s-.4 0-.5 0c-.4-.1-.8-.1-1.2.1-.1 0-.1.1-.2.2 0 .1 0 .3.2.3.1.1.3.2.4.3zm25.6-.9c.4-.1.8-.1 1.1 0 .2 0 .3.3.3.4 0 .2-.1.4-.2.6.1.2.2.3.4.4.2-.1.3-.2.4-.4.1-.2.1-.5.3-.6.1-.1.2-.1.2-.1.1 0 .1.1.2.1l-.3.9v.5c0 .1.2.2.3.3.2 0 .3-.1.3-.2.1-.2.1-.4.2-.7 0-.2.3-.3.4-.1.2.2.4.4.5.6-.1.1-.1.3-.2.4-.1.2-.1.3.1.5.2.1.4-.1.7-.1.1.1.2.1.3.3.2.4.6.7 1.1.8.1 0 .3.1.4.2.2.1.3.3.3.5l-.2.2c-.6.1-1.2 0-1.8-.4l-.4-.4-.5-.5h-.5c-.1.2-.2.5-.3.7-.2 0-.4 0-.5-.2-.2-.3-.3-.7-.5-1-.1-.1-.3-.2-.5 0l-.1.1c0 .2 0 .4-.1.5 0 .1-.1.2-.1.2-.1 0-.2.1-.2.1-.1 0-.1-.1-.1-.2 0-.3.2-.5.3-.8 0-.1-.1-.3-.2-.3h-.3c-.1 0-.3-.1-.4-.2-.4-.5-.6-1-.5-1.6-.1-.3 0-.4.1-.5zm3.4-7.1c-.3.1-.6-.1-.9.1-.1.1-.4-.1-.4-.3 0-.2-.1-.4-.1-.5 0-.3-.1-.5.1-.8.1 0 .1-.1.2-.1 1.4-.2 2.9 0 4.2.6.7.3 1.5.6 2.2 1.1.2.1.4.1.7.2.2.1.3.2.4.4 0 0 0 .1-.1.1-.9.2-1.7.1-2.5-.5l-.6-.3h-.2c-.2.3.1.7-.2 1-.1-.1-.2-.1-.3-.2-.2-.6-.3-1.3-.7-1.8-.1-.1-.2-.1-.2-.1-.4.2-.4.2-.5.3v.3c0 .1.1.3.1.4s-.2.2-.3.2c-.3-.4-.6-.8-1-1.2-.1-.1-.2-.1-.3-.2-.2.2-.2.3-.1.5.1.3.3.6.5.8zM9.5 32.2c-.5.2-.6.8-1.1 1h-.5c-.2.2-.5.4-.8.7-.2-.1-.4-.2-.7-.3-.2.1-.4.1-.6.2-.1-.1-.3-.2-.2-.3.7-.7 1.3-1.4 2.1-2 .1 0 .2-.1.2-.1.1 0 .1.1.1.2-.1.2-.3.5-.4.7 0 .2 0 .3.2.3h.4c.1 0 .2-.1.2-.2.1-.1.2-.2.2-.3.1-.1.1-.1.1-.2s.1-.2.1-.3c0-.3 0-.7.1-1.1.1-.1.2-.2.3-.2l.2.1v.4c-.1.3-.1.5-.2.8.1.3.3.3.6.2.4-.6.3-1.4.5-2.1h.3c.3.2.6.5.8.7.1.1.2.4.1.5l-.3.6c-.3.4-.6.7-.9 1-.1.1-.2.1-.3.1-.1-.1-.2-.2-.5-.4z"/>
    <path class="st3" d="M31.6 11.2c-.2-.4-.3-.7-.5-1 .3-.3.6-.2.9 0 .2.1.3.3.4.5.3.5.6.9 1 1.3.3.3.4.6.4 1 .1.5.1.9-.1 1.4-.1.3-.2.6-.6.7 0 0-.1 0-.1-.1-.1-.4-.4-.7-.8-.9l-.4-.4c-.1-.1-.1-.2-.1-.3.1-.6-.4-1.2-.3-1.9.2-.1.2-.2.2-.3z"/>
    <path class="st2" d="M36.8 19.9c-1.6 0-1.6 0-3.6.4-.1-.1-.1-.1-.1-.2.1-.2.2-.4.4-.5.6-.4 1.3-.7 2-1 .1 0 .3-.1.4-.1h.8c.3.2.1.5.2.7.1.1.1.1.2.1h.8c.3 0 .5.1.8.3.1.2.3.4.4.6 1.4.7 1.4.7 1.8 1.2-.1 0-.2.1-.2.1l-1.5-.6c-.7-.4-1.6-.7-2.4-1z"/>
    <path class="st3" d="M25 13.5c-.1.3-.1.6-.2.9.1.5.4.9.7 1.3.2.1.5.1.7.2l.1.1c0 .1 0 .2-.1.3 0 .1 0 .2-.1.3.1.3.3.5.4.8-.1.4-.4.6-.6.8-.4.1-.7.1-1 0-.1 0-.2-.1-.2-.3.3-.1.6-.1.9-.2.1 0 .2-.1.2-.2 0 0 0-.1.1-.1-.1-.2-.2-.4-.4-.5-.5-.4-.8-.9-1-1.5-.1-.2-.2-.3-.4-.4-.3.1-.4.3-.3.5.1.3.2.5.3.8l.3.6c-.1 0-.1.1-.1.1-.6-.3-1-.9-1.3-1.5v-.8c0-.2 0-.5.3-.6.4-.2.7-.5 1.1-.8.1-.1.3 0 .6.2z"/>
    <path class="st2" d="M18.3 7.8c.2.3.4.6.2.9-.5-.2-.9-.4-1.5-.6-.1-.2-.3-.4-.5-.7-.2-.3-.5-.2-.6.1 0 .1 0 .2-.1.3-.3.2-.6.1-.9 0-.2-.1-.3-.3-.5-.4-.3-.2-.5-.4-.9-.4-.2 0-.3.1-.4.3.1.1.2.2.2.3v.1H13c-.8 0-1.6.1-2.3.2-.2 0-.4.1-.5-.1.4-.4 1-.6 1.6-.8.2 0 0-.4.4-.6.1 0 .3.1.6.1.2.1.4.1.7.1.2-.1.5-.1.7-.2.4.1.8.3 1.2.5.2-.1.3-.2.5-.2h.2c.4.1.7.5 1.1.7.4.1.7.3 1.1.4z"/>
    <path class="st3" d="m23.8 22.6-.3.6c.1.1.1.3.2.5-.1.2-.1.5-.2.7.1.5.5.6.8.9 0 .2 0 .4-.2.5-.1 0-.2.1-.2 0-.3-.3-.7-.5-1-.7 0-.1-.1-.2 0-.3.1-.3.3-.6.4-.9.1-.2 0-.4 0-.5l-.1-.1c-.2-.1-.4-.1-.5 0s-.1.2-.2.4c-.1.3-.2.6-.4.9-.1.2-.4.2-.6.1-.3-.3-.5-.6-.7-1-.1-.2 0-.6.2-.8l.9-.6c.2.1.4.1.6.2.4-.2.6-.5.7-.8s.3-.6.5-.8c.1-.1.2-.2.3-.2.1 0 .2 0 .2.1-.2.3-.4.6-.6.8-.1.5.1.7.2 1zm2.5-20.1c.8.2 1.5.7 2 1.3.2.2.3.5.4.7 0 .1 0 .2.1.3.3.9.4 1.7-.2 2.6-.3.4-.7.9-1.4 1.1-.2-.2-.1-.4-.2-.6l.6-.9c.1-.2.2-.3.1-.5v-.8c.1-.2 0-.4 0-.5-.1-.4-.2-.7-.3-.9-.4-.6-.9-1-1.3-1.4.3-.3.3-.4.2-.4z"/>
    <path class="st2" d="M13.5 9.6c-.4 0-.7.2-1.1 0l-.1-.1c0-.2 0-.4.1-.5-.3-.3-.7-.1-1.1-.3.1 0 .1-.1.2-.1.5 0 .9-.1 1.3-.3.1 0 .2 0 .3.1 0 .1 0 .2-.1.4.1.1.3.2.4.3.4-.1.6-.1.8-.2.3 0 .3.3.5.4.4.1.7 0 1.1-.1.2 0 .3-.2.1-.5l.1-.1c.6 0 1.6.4 2.1.8.1.1.1.1 0 .2l-.1.1c-.3 0-.5-.1-.8-.1h-1.5c-.4.2-.8.3-1.2.4-.3.1-.6 0-.7-.2-.1-.1-.1-.2-.2-.2 0 .1 0 0-.1 0z"/>
    <path class="st3" d="M27.7 20.7c-.1 0-.3-.1-.4-.1-.5.1-1-.1-1.5-.1h-.1c-.6-.5-.6-.5-1.5-.5-.8.2-1.3.7-1.6 1.4 0 .1-.1.1-.2.1l-.1-.1c0-.1-.1-.3-.1-.4 0-.3.2-.5.4-.7.2-.1.4-.2.5-.4.5-.6 1.1-.9 1.8-1 .4 0 .7.1.9.4.3.5.7.7 1.2.9.1 0 .3.1.4.1.3.1.3.3.3.4zm2.5-3.4c.5 0 .8-.2 1-.5.3-.3.6-.7.8-1.1.1-.2.1-.4.4-.6.3.6.5 1.2.3 1.8l-.2.2c-.5.3-.9.6-1.4.8-1-.2-2-.5-2.8-1.1-.1-.1-.2-.2-.2-.3.1-.1.2-.2.3-.2h.3c.5.4.9.8 1.5 1zm-12.5-4.6c.3.1.8.3 1.2.5.3.1.5.4.7.7.1.2.1.4 0 .9-.3 0-.4-.3-.8-.4h-.6c-.1-.1-.3-.2-.3-.2-.3-.3-.7-.4-1.1-.4-.3 0-.5.1-.8.2 0-.1-.1-.2-.1-.3 0-.3.2-.6.4-.9 0 0 .1 0 .2-.1.1.1.3.3.5.4.2.2.2-.3.7-.4zM3.1 25.6c.1-.1.2-.3.4-.4.4-.3.6-.6.8-1 .4-.2.7-.4 1.1-.4.3.1.2.5.3.7.2.2.4.3.6.5l-.6.3-.3.6c-.1.1-.3.2-.4.2h-.3c-.4 0-.8-.1-1.2-.1-.2-.1-.3-.2-.4-.4z"/>
    <path class="st4" d="M26.9 19.4c-.4-.3-.4-.5-.3-.7s.3-.4.4-.5c.2-.2.4-.2.6-.2.3.1.5.2.8.3.2.1.4.4.5.6.1.3.2.7.3 1.1 0 .2 0 .4-.2.5-.1 0-.2.1-.2.1-.2-.1-.3-.2-.4-.3-.3-.6-.8-1-1.5-.9z"/>
    <path class="st3" d="M28.1 27c-.2-.1-.4-.1-.5-.2 0-.1-.1-.2-.1-.2 0-.1 0-.2.1-.2.5-.3 1-.5 1.5-.8.2-.2.4-.5.6-.7.1-.1.1-.2.1-.3.1-.4.1-.7.2-1.1 0-.1.1-.2.2-.3h.1c.3.8.2 1.6-.1 2.4-.3.7-.8 1.2-1.6 1.3-.1 0-.3.1-.5.1zm-2.8-15.5c0-.1-.1-.3 0-.4.2-.5.5-1 1.1-1.2.4 0 .9-.1 1.3-.2.2 0 .4.1.6.3 0 .2-.1.5-.1.8-.2.3-.4.6-.7.7h-.9l-.5-.5c-.3 0-.4.4-.8.5zm-9.6 6.1c.4-.1.7-.1.9-.2.1.1.2.1.2.2-.1.5-.5.9-.9 1.1-.4.1-.7.1-1.1 0-.6-.1-1-.4-1.2-1 .1-.4.3-.5.5-.6.1-.1.3-.1.4-.1.4.3.8.5 1.2.6zm2.8-1c-.1.4-.1.7-.2 1s-.4.4-.6.5c-.1-.1-.2-.1-.1-.2 0-.4.1-.7.1-1.2 0-.1 0-.2-.1-.3l-.3-.6c-.3-.2-.5-.4-.8-.6-.1-.3 0-.5.2-.7.2-.1.3-.1.5-.1.4.2.7.5.8.9.2.5.3.9.5 1.3zm-6-.8v-.4c.3-.6.8-1 1.3-1.4.1 0 .2-.1.3-.1.5.1 1.1.3 1.6.6 0 .3-.1.6-.3.7-.2.2-.5.3-.8.2 0 0-.1 0-.1-.1-.4-.2-.8-.2-1.2 0-.3.2-.5.3-.8.5zm4.1 7.1c-.1.1-.1.2-.2.2-.3.1-.6.1-.9.1-1-.2-1.8-.6-2.6-1-.1 0-.2-.1-.2-.1-.1-.1-.1-.1-.1-.2s.1-.1.1-.2c.6.2 1.2.3 1.9.2h.2c.1-.1.2-.2.3-.2.3.1.3.1.3.3-.1.4 0 .6.3.7.2.1.6.2.9.2.1.1 0 0 0 0z"/>
    <path class="st2" d="m34.8 29-.9-.6c-.1 0-.1-.2-.1-.2V28c.7-.2 1.4-.2 2.2-.1.4.1.8.2 1.1.5.1.1.1.2.1.2 0 .1-.1.2-.2.2-.1.2-.3.2-.4.2-.6.1-1.2 0-1.8 0z"/>
    <path class="st4" d="M21.9 10c.1.1.2.3.2.4.1.5.1 1.1 0 1.6-.1 0-.2-.1-.3-.1-.6-.7-1.2-1.3-1.9-1.9-.1-.1-.2-.3-.2-.5 0-.1 0-.2.1-.2s.2-.1.2-.1c.6.5 1.3.7 1.9.8zm4.5 19.9v-.3c0-.1.1-.1.2-.2.9-.5 1.9-.9 3-1 .2 0 .5-.1.8-.1.3.1.8 0 1.2.2.1 0 .1.1.1.2s-.1.2-.1.2h-1.4c-.7 0-1.4.1-2 .3-.6.4-1.2.6-1.8.7zm-1.2.5c0 .2 0 .4-.1.5-.2.5-.2.5.3.6.1 0 .1.1.2.2-.6.2-1.5.2-2.3 0-.2 0-.3-.1-.6-.3.3-.4.6-.8 1-1.1h.3c.1.1.2.3.3.5h.4c.2-.2.4-.3.5-.4z"/>
    <path class="st3" d="M12.5 15.7c-.1.5.2.9.4 1.3-.1.2-.2.4-.2.6l-.3.6c-.1.2-.1.5-.4.5-.5-.2-.9-.5-1.2-1.1 0-.2.1-.4.1-.6 0-.1.2-.2.3-.1s.2.2.2.3c.1.1.3.2.5 0l.1-.1c.1-.4.2-.8.5-1.4-.1.1 0 .1 0 0zm8.7-6.6c-.2-.2-.4-.4-.6-.7-.2-.2-.1-.5.1-.7.1-.1.2-.1.3-.1.5 0 .9.3 1.3.5.2.3.6.5.7.9 0 .1-.1.2-.1.2h-.1c-.5 0-1-.1-1.6-.1zm6.4 6c-.1.1-.2.2-.3.2-.4 0-.8 0-1.2-.1-.3-.2-.4-.5-.5-.9.1-.1.1-.3.3-.4.4-.4.8-.8 1-1.3 0-.1.1-.1.2-.2.2 0 .2.2.2.3-.2.4-.3.8-.5 1.2 0 .3.1.4.3.5.1.2.3.4.5.7z"/>
    <path class="st4" d="M19 30.7c.3.1.4.1.6.1.1 0 .1.1.1.2s0 .2-.1.2c-.5.1-1 .1-1.5.1-.4 0-.7 0-1.1-.1-.1 0-.2-.1-.4-.2-.1-.1-.1-.3 0-.3.2-.1.3-.1.5-.2s.3-.1.5-.2c.2.1.4.3.6.5l.3-.3v-.3c0-.1-.1-.3-.2-.4 0 0 0-.1.1-.1.1-.1.2 0 .2 0 .2.4.2.6.4 1zM9.4 20.2h.3c.6.3 1.1.6 1.7.9.2.1.3.2.3.4s-.1.4-.1.7l-.1.1c-.3.2-.7.1-1 0l-.2-.2c-.2-.7-.5-1.3-.9-1.9z"/>
    <path class="st3" d="M24.4 8.5c.1-.1.2-.2.3-.2.1 0 .2-.1.3-.1.4 0 .8 0 1.1.1.2.1.2.3.2.4l-.3.6c-.5.3-1 .6-1.6.4-.1-.1-.2-.2-.2-.3.1-.4.2-.6.2-.9zm-3.7 9.3c-.2.5-.5.9-.8 1.3-.1.1-.2.1-.2.1-.1 0-.1-.1-.2-.2v-.1c0-.5.1-1.1-.2-1.6.3-.2.5-.3.9-.5-.2 0-.1-.1 0 0 .2.3.4.6.5 1zm7.6 3.2c.5.3.8.7 1.1 1.2.1.6 0 1.1-.1 1.7-.1.5-.3.9-.7 1.1-.2.1-.4.3-.6.4-.1.1-.3.1-.6-.1 1-.7 1.1-.8 1.7-1.9 0-.1 0-.3-.1-.5l-.6-1.5c-.1-.1-.1-.3-.1-.4z"/>
    <path class="st2" d="M38.7 32.3c-.1.1-.1.2-.2.3 0 0-.1 0-.2.1-.6-.4-1-.9-1.3-1.5-.1-.2-.3-.5-.4-.7l-.3-.3c0-.2.2-.3.4-.4.3.1.6.2.8.5 0 .2.1.4.2.6.3.4.7.8 1 1.4z"/>
    <path class="st3" d="M9.8 18.2h.2c.4.6 1.1 1 1.7 1.3.1.1.3.2.4.3 0 .3-.1.5-.3.6-.3 0-.6-.2-.9-.3-.2-.1-.5-.3-.7-.4-.3-.2-.5-.4-.6-.7 0-.4 0-.6.2-.8z"/>
    <path class="st4" d="M26.8 5.6c0 .1.1.1.1.2.1.3.4.7.1 1-.3.4-.7.7-1.3.6-.1 0-.1-.1-.2-.1-.1-.3 0-.5.1-.8.2-.3.4-.5.6-.8.1-.2.3-.3.6-.1z"/>
    <path class="st3" d="M9.6 22c-.1.4-.5.4-.8.3l-.2-.2c-.1-.4-.3-.8-.6-1.1-.2-.2-.2-.3 0-.8h.4c.2.1.5.3.6.5.3.5.5.9.6 1.3zm9.9-14.4c0-.2-.1-.3-.1-.5.3-.7.6-1.3 1.3-1.8.4.9.4.9.4 1.5-.3.1-.5.3-.8.4s-.5.4-.8.4zm5.7-2.9c-.3.1-.6.1-.8.2-.3-.1-.5-.2-.5-.6.2-.3.5-.5.8-.7.3-.1.6-.1.8.1l.8.8c-.1.3-.4.3-.6.3s-.3-.1-.5-.1z"/>
    <path class="st4" d="M12.4 14.4c0-.1-.1-.2-.1-.3.2-.7.7-1.2 1.4-1.6.1-.1.3 0 .3-.1.4.1.5.5.9.6.3 0 .3.2.1.5-1.2-.3-1.3-.2-2.1.4-.2.2-.4.3-.5.5zm14-12H26c-.8-.4-1.6-.7-2.4-.8-.1 0-.2-.2-.2-.3.3-.4.7-.5 1.1-.5.3 0 .5.1.7.3.4.5.8.9 1.2 1.3zM13 20.5v-.2c.1-.4.3-.8.4-1.1h.3c.2.1.3.2.5.3-.1.2-.1.4-.2.5 0 .2.1.3.3.4.1.1.2.3.3.4-.1.3-.2.3-.4.4-.2 0-.5 0-.6-.2l-.3-.3c-.2 0-.2-.1-.3-.2z"/>
    <path class="st3" d="M22.5 4.9s-.1 0-.1-.1c-.3-.5-.2-1 .1-1.4.2-.4.6-.6 1-.7.3-.1.5-.1.7-.2.2.1.4.2.5.4-.9.2-1.5.9-2.1 1.6-.1.2-.1.3-.1.4zM16 19.5c.2-.1.5-.3.8-.4.1.1.1.2.2.2-.1.5-.6.7-.8 1.1v.5c-.1.2-.2.2-.4.1-.3-.1-.5-.3-.7-.6l-.3-.6c.2-.3.6-.1 1.2-.3z"/>
    <path class="st4" d="M31.5 14.5c.2.4-.1.7-.1 1.1-.2.3-.5.6-.7.9-.2.1-.4.1-.6 0-.1-.1-.2-.3-.1-.4.2-.4.5-.7.7-1.1.1-.3.4-.4.8-.5zM21 4.5c-.1-.3-.3-.5-.4-.8.2-.4.5-.8.8-1.1.2-.2.4-.3.6-.3h.4c-.1.1-.1.2-.1.3-.4.4-.6.8-.7 1.3-.2.2-.3.4-.6.6z"/>
    <path class="st3" d="M31 12.5c-.1.1-.2.1-.4.1-.4-.1-.4-.1-.8 0-.3-.1-.7-.3-1.1-.5-.1 0-.2-.3-.1-.4 0-.1.1-.1.2-.2.1 0 .2-.1.3-.1.6 0 1.1.2 1.5.5.1 0 .1.1.2.2.1.2.1.3.2.4z"/>
    <path class="st4" d="M22.9 28.5c-.3.9-.7 1.7-1.1 2.5 0 .1-.1.1-.2.2h-.1l-.1-.1c.3-1 .7-2 1-2.7.1-.1.1-.1.2-.1.2 0 .2.1.3.2z"/>
    <path class="st3" d="M25.8 26.3c0 .1-.1.2-.1.4-.2.2-.4.2-.7.2-.1-.1-.1-.2-.2-.3v-.2c.1-.3.3-.6.4-.9.1-.1.2-.2.3-.2.1-.1.3 0 .4 0 .2.1.3.3.4.5.1.4-.3.2-.5.5z"/>
    <path class="st4" d="M17 20.4c.1-.2.1-.3.2-.4.4-.3.6-.6.8-1.1.1-.2.3-.4.5-.5h.2c.2.4-.1.7-.2 1-.3.6-.7.9-1.5 1z"/>
    <path class="st3" d="M7.6 21.9c0 .1.1.1.1.2.1.1 0 .3-.1.4s-.3.2-.5.3c-.4.2-.7.4-1.1.7h-.3c-.1 0-.2-.2-.1-.4 0-.1.1-.2.1-.2.2-.2.3-.4.5-.4.6-.1.9-.5 1.4-.6z"/>
    <path class="st4" d="M10.4 15.3c.1.3.1.7 0 1.1-.2.2-.4.4-.6.7-.3-.1-.4-.2-.4-.3.1-.5.3-1 .7-1.3.1-.1.2-.1.3-.2zm5.9.9c.1.1.1.2.2.4s-.1.3-.3.4c-.5 0-.9 0-1.3-.2-.1-.1-.2-.1-.4-.2.2-.2.5-.3.8-.4.4-.2.5-.2 1 0z"/>
    <path class="st3" d="M23.3 26.9c.3 0 .6-.1.9.1l.2.2c.1.4.1.7-.1.7-.2.1-.4.1-.6-.1-.2-.1-.4-.3-.5-.4-.2-.1-.1-.3.1-.5z"/>
    <path class="st4" d="M28.8 14.7c-.2.1-.3 0-.5-.1s-.3-.3-.3-.6c0-.4.2-.8.7-.9h.1c.1.7.1.7 0 1.6zM22.5 5c.3-.1.6 0 .9.1.1 0 .1.1.1.2 0 0 0 .1-.1.1-.5.3-1 .5-1.5.4-.1 0-.2-.1-.2-.2s0-.2.1-.2h.3c.2 0 .2-.3.4-.4zm4.4 17.1c0-.2.1-.3.3-.4.2-.1.4-.1.5.1.2.5.4 1 .5 1.5l-.1.1s-.1 0-.1-.1c-.4-.4-.7-.8-1.1-1.2zm-3.6-12c0 .2.1.3.1.5v2.3c0 .1-.1.1-.2.2s-.2 0-.2 0c0-.3.1-.6.1-.8 0-.7-.1-1.4-.1-2.1-.1-.1.1-.2.3-.1zm-1.1-3c.1 0 .2-.1.2-.1.3.1.6.2.9.2h.8c-.1.3-.4.3-.6.5-.4 0-.8-.2-1.2-.4 0 0 0-.2-.1-.2z"/>
    <path class="st3" d="M6 21.6c-.2-.4-.3-.6-.5-.8-.1-.2-.3-.4-.4-.5 0-.3.1-.4.3-.4.3 0 .4.2.5.4.3.3.3.7.1 1.3zm-2.9-.3v-.1c.2-.3.5-.6.7-1 .1-.2.4-.2.5 0 .1.1.1.2.1.4 0 .1 0 .1-.1.1-.3.3-.7.5-1.1.6h-.1z"/>
    <path class="st4" d="M16.7 23s0-.1.1-.1c.5-.2.9-.6 1.1-1.1.1-.1.1-.1.4 0-.1.2-.1.5-.2.7-.5.5-.9.6-1.4.5zm12.8-9.3c.2.1.3.1.4.2.2.4.2.8 0 1.2-.1.1-.1.1-.2.1l-.1-.1-.1-.1c-.1-.5 0-.9 0-1.3zM18.3 25.4h-.1c-.3-.4-.5-.9-.7-1.3v-.3c0-.1.1-.3.3-.2.1 0 .2.1.2.1.1.6.4 1.2.3 1.7zm1.3 4.6c-.5-.6-.5-1.2-.7-1.8.2-.2.3-.2.3-.1.2.5.3.9.4 1.5.1.1 0 .2 0 .4zm4.9-24.4c0 .1.1.1.1.1-.2.6-.5.9-1 .8 0 0-.1 0-.1-.1v-.2c.3-.2.6-.4 1-.6zM6.4 18.8c-.5 0-1-.1-1.3-.5-.1-.1 0-.2 0-.2.2-.1.4-.1.6 0 .3.2.5.4.7.7 0-.1 0 0 0 0zm0 0c.2 0 .4 0 .5.2.1.1.2.3.3.4v1c0 .1-.1.1-.1.2-.1-.3-.2-.7-.3-1-.1-.2-.3-.5-.4-.8zM20 20.2c-.1.3-.2.6-.4.9-.1.1-.2.2-.3.2-.2-.3-.1-.5-.1-.8.5-.5.5-.6.8-.3zm-3.4 1.7.7-.7h.1c.1.1.1.1.1.2-.1.3-.3.5-.5.6-.3.2-.6.2-.9.1 0-.4.4-.1.5-.2zm7.6-11.4c.1 0 .2.1.3.1-.2.6-.2 1.1 0 1.6-.1.1-.2.2-.3.1-.1 0-.1-.1-.1-.2v-1.4s.1-.1.1-.2zM4.9 23.1c-.1.1-.3.2-.5.1-.3 0-.6-.1-.9-.3-.1 0-.1-.1-.1-.2s.1-.2.1-.2c.2 0 .3.1.5.2s.3.1.5.2c.1.1.3 0 .4.2zm22.4 1.5c-.2.1-.3.1-.5-.1l.3-.6c0-.1.1-.1.2-.2h.1c0 .3.2.6-.1.9zm-11.2 3.6h-2.2c0-.1.1-.2.1-.2.6-.2 1.2-.1 1.9 0 .1.1.1.2.2.2zm7.1 1.4c0-.4.2-.7.4-.8.2-.1.4-.1.7 0 0 .1 0 .2-.1.2-.3.3-.6.4-1 .6zm2.8-7.4c-.3 0-.4-.1-.4-.3.1-.2 0-.4 0-.6 0-.1 0-.2.1-.2 0 0 .1 0 .1.1.1.1.1.1.1.2.1.3.1.6.1.8zm.7 5.9.3-.3c.3-.2.6-.1.9 0-.2.3-.5.3-.8.4-.1 0-.2-.1-.4-.1zm3.9-16.9c-.3-.1-.7-.2-.9-.5.1 0 .1-.1.2-.1.3 0 .6.1.8.4.1 0 0 .1-.1.2zm-4.8 12.9c0-.1 0-.3.1-.4l.6-.6c0 .1.1.1.1.1 0 .3-.2.5-.3.7-.2.2-.3.2-.5.2zm10-1.1c.2.2.5.4.7.6.1.1.1.2-.1.3l-.5-.5c-.1-.1-.1-.3-.1-.4zm-28 1.8c-.1.1-.3.3-.5.4h-.2c-.1 0-.1-.2 0-.4.1-.1.2-.3.4-.4.1 0 .2.1.3.4zm18 2.9c.1-.3.2-.5.3-.8 0-.1.1-.1.2-.1s.1.1.1.2c0 .4-.2.6-.6.7zM11.2 15.8c.1-.2.1-.3.2-.5h.2l.1.1c0 .1 0 .3-.1.4 0 .1-.1.1-.2.1-.1.1-.1 0-.2-.1zm14 14.7c.3-.3.7-.5 1.1-.5-.2.4-.5.5-.9.5 0-.1-.1-.1-.2 0 0-.1 0 0 0 0zm.6-6.4c-.1.5-.2.6-.7.5.2-.3.4-.5.7-.5zm1.3-7.6c-.1 0-.2-.1-.2-.1-.1-.1-.1-.3.1-.3.2-.1.4 0 .4.1s-.1.2-.1.2c-.1 0-.2 0-.2.1zM4.4 21.6c.2 0 .3.1.3.3 0 .2-.2.3-.4.3-.1 0-.2-.2-.1-.3.1-.2.2-.2.2-.3zm14.2 4.7c-.1 0-.3-.1-.3-.2v-.6c.2.1.2.3.3.4v.4zm-1.8-2.1-.1.1c-.2 0-.3-.1-.2-.2l.1-.1c.1 0 .2.1.2.1v.1zM26 12.4h-.1l-.1-.1c.1-.1.1-.2.2-.3h.1c.1 0 .1.1.1.2-.1 0-.1.1-.2.2zm1.7 8.4c.2 0 .4.1.6.3l-.6-.3zm-9.1 5.5.2.2v.1s0 .1-.1.1c0-.1-.1-.1-.1-.2v-.2zm-1.9 2.2c-.3 0-.5.1-.6-.3h.4c0 .1.1.2.2.3zm16.1.7c.2-.1.2-.1.4 0-.2.1-.2.1-.4 0zm-7-1.5c-.1.1-.2.2-.3.2h-.1c-.1-.1-.1-.2.1-.2h.3z"/>
    <path class="st4" d="M16.6 28.5h.4l.1.1c0 .1-.1.1-.2.1-.2 0-.2-.1-.3-.2zm-3.3 0-.2.2H13s-.1 0-.1-.1 0-.1.1-.1h.3zm0 0c0-.2.2-.2.3-.2h.3l-.2.2h-.4z"/>
    <path class="st0" d="M23.8 47.9c.1.3.2.5-.1.7-.2 0-.4-.1-.5-.2-.1-.1-.1-.3-.1-.5.1-.2.3-.3.5-.2.1.1.2.1.2.2zm.3-5c-.2 0-.4-.1-.5-.2-.1-.1 0-.4.1-.5s.3-.2.5-.1c.1.1.2.3.2.5s-.1.3-.3.3zm-.6 1.2c.3-.1.4.1.6.3 0 .1.1.2.1.3s-.1.2-.3.2c-.5 0-.6-.3-.4-.8zm.4 6.4c-.3.2-.4.2-.6.1-.1-.1-.2-.4 0-.5.1 0 .2-.1.2-.1h.2c.2.2.2.4.2.5zm1.5-5.8c0 .2-.1.4-.3.4-.2 0-.3-.1-.4-.3s0-.4.2-.5h.1c.2.1.4.2.4.4z"/>
</svg>
