<svg xmlns="http://www.w3.org/2000/svg" width="172.9" height="221.8" style="overflow:visible;enable-background:new 0 0 172.9 221.8" xml:space="preserve">
    <style>
        .st0{fill:#7a6a56}.st2{fill:#deedd8}.st3{fill:#eacac6}.st4{fill:#fff}
    </style>
    <path class="st0" d="M37.6 80.9c0-.4.1-.8 0-1.1-.6-1.1-1.2-2.3-2-3.5-.4-3.5.4-7.2-.1-10.5.6-2.4 1.6-4.1 2.8-5.8 1.2-1.9 2.9-2.8 5.2-2.1.1 0 .3-.1.6-.2.7-3.6 2.6-6.8 5.1-9.7 3.2-2.4 6.8-2 10.3-.3 1.1-.4 2.1-.7 3.3-1.2 2.1.7 4.4 1.4 6.9 1.4 2-.1 4 .7 5.8 1.5 1.2.5 2.3 1.1 3.5 1.8 1 .6 1.7 1.4 2 2.5.3.9.5 1.8.7 2.7-.2 1.8-.4 3.6-.6 5 .2 1.5.9 2.1 1.5 2.8 1 1.4 1.7 2.9 2.3 4.4.7 1.6.8 3.2 0 4.8 0 .1.1.3.1.4.7.3 1.3.5 2.1.9.6 1 1.2 2.1 1.9 3.1.8.1.8.1 1.7-1.2-1.3-4.4-1.3-4.4-4.8-9.9.3-.4.7-.8 1.1-1.1.3-.2.8-.2 1 0 .8.4 1.5 1.1 2 1.9 1.2 1.9 1.8 4 2.6 6 .6-.2.6-.7.6-1.2-.7-5.4-2.8-9.9-7.7-12.7-.3-.2-.6-.5-.8-.7-.3-1.7-.2-1.9 1.3-2.3.3-.1.7-.1 1.1-.2.4-.2.6-.5.4-.9-.5-1.4-1.2-2.7-2.4-3.6-3.8-3-7.4-6.2-11.3-8.8l-1.5-.9c-3.1-.5-6.2 0-9.2.5-1.3.2-2.5.5-3.8.7-2.6.3-3.9 0-7-1.3-1.8-.1-3.6-.2-5.5-.3-.7 0-1.5-.5-2.9-1.5.2-.7.3-1.4.5-2.2-2.8-1-5.5-1.9-8.3-2.9-.2-.1-.4-.1-.5-.3-.3-.4-.6-.9-.9-1.3-.1-.3.5-1.1 1-1.2.4-.1.7-.1 1.1-.2.5-.1 1-.3 1.5-.4V30c1.4-2 4-2.4 5.9-3.8.1-.7-.3-1.5.4-2.1.4-.3.9-.6 1.4-.8.5-.2 1.1-.3 1.6-.2 3.5.4 7-.6 10.5 0 1.1.2 2.2.3 3.3.1 2.1-.4 4.1.2 5.8 1.4 2.1 1.6 4.4 2.6 6.9 3.5 1.6-1.4 1.7-3.6 2.8-5.1.2-3.1-1-6 .4-9.1 1.4-.8 2.9-1.9 3.9-3.5.3-.5.7-.9 1.1-1.3 1.3-1.6 3.1-2.6 5.3-3 1.1-1.1 2.3-2.3 3.5-3.4.8-.8 1.7-1.5 2.8-1.8.9-.3 1.7-.6 2.6-.8.5-.1 1.1-.1 1.7 0 1.3.3 2.5.6 3.7 1 1.8 2 3.6 3.8 5.1 5.4 2.5 1.5 4.7 2.9 7 4.2 2.8 1.6 4.2 4.1 5 7 .5 1.6.8 3.2 1.1 4.8.3 1.5.1 2.9-.6 4.3-1.3 2.9-2.9 5.6-5.4 7.6-.6.5-1.1 1-1.5 1.5.5 1.1 1.4 1.3 2.3 1.5.9.1 1.8-.1 2.7-.4.9-.3 1.9-.4 2.7-.1 2 .7 4 .7 6 .5.7-.1 1.5-.1 2.2.1.7.1 1.4.4 2 .8 1.1.7 2.1 1.6 2.6 2.8.5 1.2 1.2 2.3 2 3.3 1.7 1.8 2.7 3.9 3.7 6.5.2 2.1.4 4.5.1 6.8-1.1 2.3-2.4 4.4-4.2 5.9-.4.3-.7.8-.6 1.4 0 .2.1.4.3.5.3.2.6.3.9.5 1.4-.3 1.7-1.9 2.9-2.5 1.8-.6 3.6-.7 5.4-.2 2.1.5 4.2 1.3 6.3 1.9.3.1.7.3.9.6.3.4.5 1 .6 1.5.1.4-.4 1.3-.8 1.3-.3.1-.8.1-1 0-3.1-2.4-6.4-2.5-10-1.3-.5.2-1.1.2-1.6.4-2.2.7-4 1.8-5.3 3.8-.3.5-.6.9-1 1.4-.6.3-1.2.8-1.9.9-2.6.5-4.9 1.5-6.9 3.3-.3.3-1.3-.1-1.4-.5-.1-.5-.1-1.1-.2-1.6s-.6-.7-1.3-.5c-.2.1-.3.3-.4.4.7 1.9.9 3.9 1.7 5.5 2 1 3.8.1 5.7.4.2.3.6.5.6.8 0 .3-.3.7-.5.9-.4.3-1 .6-1.5.7-1.3.2-2.6.3-3.8.6-1.2.2-2 .9-2.2 2.2.3.4.6.9.9 1.3l3.6 1.2c1.7-1.5 3.3-3 4.8-4.3.6-1.6.2-3.1.9-4.5.9-1.7 2-3.1 3.6-4 2.9-1.7 6-2.8 9.2-3.6.9-.2 1.8-.4 2.8-.7 1.3.2 2.8.4 3.9.6 1.3.3 1.8 1.2 2.8 2 .5.2 1.4.6 2.2.9 1.7.7 3.3 1.7 4.5 3.1 1.5 1.7 3.3 3 5.2 4.1 1.6 1 3.1 2 4.6 3.1.6 2.4 1.8 4.4 3.4 6.3.3.4.6.9.8 1.4.2.3.2.7.4 1-.3 1.8-.3 1.8-1.5 3.4-.3.1-.7.3-1 .4-1.3.1-2.6.1-3.9.1-3.8 0-4.2-.1-8.2-1.2l-2.4 1.6c-2.3.9-3.9-.5-5-.6-1.5-.1-2 .4-2.6.7-.9.5-1.8.6-2.7.2-1.2-.6-2.2-1.3-3.5-2.1-1.1-.1-2.3-.2-3.4-.3-3.1-3.4-3.1-3.4-5-8.6-2 .6-2 .6-7.9 4.9-.5.6-.5 1.4-.4 2.1v2.2c0 .7-.2 1.5.2 2.1 1.5.2 1-1.8 2.3-2 2.4-.7 4.6 0 6.7 1.4.8.5 1.2 1.4 1.5 2.5-.2.4-.4.9-.6 1.3-.4.7-1.1.9-1.9.8-.4 0-.7-.2-1-.4-2.3-1.2-4.7-.8-7-.2-.5.1-1 .5-1.4.9-.4.4-.7.9-1 1.3-1 1.8-2.4 3.2-4.2 4.3-.4.2-.6.8-1 1.4 4.1.8 8.3-.6 12.1 1 2.1-.5 3.9-1.5 5.9-2 2.6-.7 5.1-.9 7.6-.1 1.6.5 3.2.7 4.8 1.4 1.7.7 2.7 1.8 3.3 3.5-.2.9-.3 1.8-.5 2.8l2.7 3.3c.5 1.3.9 2.6 1.4 3.7.6 1.1 1.4 2.2 2.2 3.5.1 1.5.1 3.1.2 4.9.6 1 1.2 2.1 1.8 3.3.5 1 .7 2.1.6 3.2-.1.8-.4 1.4-1.5 1.9-2.8.4-5.8-1.3-8.8-1.2-1.6-.8-3.1-1.5-4.4-2.1-1.7-.2-2.3 1.5-3.6 1.7-2-.1-3.1-1.8-4.8-2.7-.3 0-.7-.1-1 0-2 1.3-3.8.9-5.6-.8-1-1.4-1.1-3.3-1.5-5-1.1-2-2.2-3.9-3-5.2-.8-2.4-.1-4.3-.8-6.2-1.7-1.1-3.6-.1-5.4-.6-2.9.9-5.7 1.7-8.5 2.6.1.3.1.5.2.7.2.3.4.6.7.8 1.2.8 2.3 1.8 3.6 2.4 1.2.5 2.3 1.2 3 2.3.7 1.1 1.5 2.1 2.2 3.1 0 .4.1.8 0 1.2-.1.3-.3.8-.5.9-1.2.5-1.5 2.1-2.8 2.5-.4.1-.7 0-.9-.5-.1-.3-.3-.7-.3-1 .1-3.3-1.7-5.6-4.1-7.4-1.2-.9-2.7-1.2-4.2-.8-.2.1-.4.2-.5.3-1 3.5-3.2 6.2-5.2 9.1-2.3 3.4-3.6 7.2-4.4 11.1.2.5.3.9.6 1.1.4.4.8.8 1.2 1.1 5 3.3 7.9 8.1 10.4 13.4 2.1 4.5 3.6 9.3 4.6 14.2.8 4.2.6 8.5.3 12.7-.1.7-.4 1.4-.6 2.1-1.5 4.6-3.3 9-5.2 13.4-1.7 3.8-4.3 6.9-7.2 9.7-2.6 2.4-5.8 3.9-9.1 5.1-2.8 1-5.6 1.9-8.6 2.9-1.8.1-3.9.1-5.9.3-3.9.3-7.7-.3-11.5-1.3-.7-.2-1.4-.5-2.1-.7-3.6-1.5-6.8-3.7-10-5.9-.5-.3-.8-.8-1.3-1.1-5.8-3.9-9-9.6-11.4-15.9-.9-2.4-1.4-5-2.2-7.4.3-8.1 2.1-15.8 5.4-23.1 1.9-4.2 4.3-8.1 7.4-11.6 3.2-3.6 6.6-7 9.2-11.1.8-1.2 1.5-2.5 1.9-3.3.8-3.4-.2-6.1-.6-8.8-.3-2.6-.8-5.1-1.2-7.8 1-2.8 3.8-3 5.8-4 .4-.6.4-.9 0-1.2-1.8-1.4-3.8-2.2-5.9-2.9-2.5-.8-4.7-.4-6.9.8-.6.4-1.2.9-1.8 1.3-.8.4-1.7.7-2.6 1.1-1.1 1.3-.7 3.1-1 4.9-1.3 4.2-4.5 7.2-8.3 9.9l-4.2.3c-1.6.8-3 1.6-4.5 2.3-1.5.7-3 1.4-4.9 2.2-1.3-.1-2.9-.1-4.8-.2-.8.2-1.9.5-2.9.8-1.5-.2-2.9-.7-4.4-.6-1.8.1-3.7-.1-5.5-.2-.8-.1-1.3-.6-1.6-1.4.3-1.5 1.9-1.6 2.7-2.5.8-.8 1.6-1.5 2.5-2.4.5-2 2.2-3.8 1.7-6.1-.4-.3-.7-.6-1-.8-1.6-1.1-1.7-2.3-.2-3.4 1.4-1.2 2.9-2.3 4.3-3.4.4-.3.4-1.1.1-1.5-.3-.4-.7-.8-1-1.2.2-.4.2-.8.4-1 .8-.7 1.8-1.3 2.6-2 .8-.8 1.4-1.7 2-2.5 1.7-1.1 3.5-1.5 5.3-1.7.7-.6 1.4-1.2 2.2-1.9h3.9c.2 0 .5.1.9.3 1.7.8 3.3 1.6 5.2 1.9 1.9.2 3.4 1.2 4.7 2.7.7.8 1.5 1.7 2.9 1.6 1.1-.6 2.4-1.4 3.7-2.1 1.3-.7 2.6-1.3 3.8-1.9 3.4-.5 6.5.1 9.5.8 3.1.7 5.9 2.1 7.8 4.8.1.1.3.1.5.2.1-.1.4-.2.4-.3-.1-1.3-.5-2.5-1.2-3.6-.2-.3-.4-.7-.6-.9-2.7-2.2-5.3-4.6-9.1-5-2-.2-4-.3-6.1.2-1.1.6-2.2 1.2-3.1 1.7-1 .1-1.3-.5-1.4-1-.1-1.1 0-2.2 0-3.2 1.1-1.7 2.6-2.7 4.3-3.6.4-.2.8-.7.6-1.2-3.7-1.5-7.6-1.8-11.4-2.6-3.3-.7-6.6-.7-9.9 0-.6.1-1.3.9-1.3 1.6-.1.9-.1 1.8-.1 2.5-.8 2-2 3.3-4 4.5-1.5.3-3.3.7-4.9 1-1.6.9-2.6 2.4-4.9 2.9-1.7-.1-3.9-.3-6.1-.4-2.1-.1-3.9-.9-5.8-1.8-.4-.2-.7-.8-1-1.1-.1-1.4.9-2.1 1.2-3.3-.2-.4-.4-1-.8-1.2-1.8-1-3.5-2.1-5.1-3.4-.8-.7-1.6-1.5-2.3-2.4C0 93-.3 91.8.3 90.2c.9-.8 1.9-1.8 2.8-2.7.1-.4.2-.6.2-.8-.2-1.1-.4-2.2-.6-3.6.3-1 .6-2.2 1-3.5.8-.6 1.5-1.4 2.3-2.2.8-.8 1.9-1.1 3-1.1 2 0 4.1 0 6 .8.7.2 1.4.4 2.2.4.5 0 1-.2 1.7-.5-1.1-.7-2-1.3-2.9-1.9-.6-.9-.5-1.8 0-2.6.7-1.3 1.7-2.4 3-3.6.6-.2 1.5-.5 2.3-.8.5.1.9.1 1.2.2 1.1.3 2 .9 2.8 1.7 2.4 2.3 4.8 4.6 7.8 7.5 1.3.5 2.9 2.1 4.7 3.3 1.4 2.3 2.7 4.7 3.3 7.4.1.3.4.6.6.9 1.3.5 2.7.7 4.1.1.2-.1.3-.3.4-.4.2-.9.3-1.8.5-2.6-.2-.8-.6-1.3-1.3-1.7-2.2-1.2-4.5-2.4-6.7-3.5-.3-.3-.7-.1-1.1-.1zm15.7 33.3h-1.1c-.5.1-.7.3-.6.6 0 .1.2.2.4.2s.4 0 .5-.2c.2-.2.4-.6.6-.8.5-.1 1.1-.2 1.6-.4.3-.1.5-.5.7-.7h9c.2 1.3 1.2 1.3 2.2 1.1 0 .6.3.9.9 1 .4.1.7 0 .8-.4 0 0-.2-.3-.3-.3-.5-.1-1-.1-1.5-.2-.1-.5-.4-.9-.8-1-.5-.1-.9-.1-1.4-.1-.2-.3-.4-.7-.7-.7-2.5-.5-5-.7-7.4-.1-.2.1-.4.5-.5.8-.4.1-.7.1-1.1.2-.6.1-1.1.4-1.3 1zm21.1-9.1c0 .4 0 .7.1 1 .1.2.3.5.4.7.1-.1.2-.3.2-.4 0-.2 0-.4-.1-.5-.2-.3-.5-.5-.8-.7v-1.6c-.1-.7-.3-1.4-1.1-1.7.3-2.4-.9-4.5-1.4-6.8 0-.2-.5-.5-.8-.5-.5-.1-1.1.5-1.1 1 0 .4-.1.8.1 1 1 1.7 1.7 3.5 2.8 5.1.1.1.3 0 .5.1v2.5c.2.5.7.7 1.2.8zm28.7 5.5c1.5-.1 2.4-.9 2.7-2.3.1-.2-.2-.6-.5-.8-.3-.3-.8-.1-.9.2-.4 1-.8 2-1.1 3-.5 0-1.1-.1-1.6 0s-.6.4-.2.7c.1.1.3.1.5.1.5 0 .9-.3 1.1-.9zm.1-14.2c.6.1 1.1-.1 1.5-.5.8-.8 1.3-1.8 1.4-2.9 0-.2-.2-.3-.3-.6-.8.8-1.6 1.5-2.2 2.4-.3.4-.3 1-.4 1.6-1.3.1-2.1.9-2.8 1.9 2.1.3 2.5 0 2.8-1.9zM25.6 75.2c.5 1.2 1.1 2.3 1.6 3.5.4 1.2.7 2.4 1.1 3.8.2-.4.5-.7.5-.9.1-.9.1-1.8.2-2.7 0-.4 0-.8-.2-1.1L27.6 76c-.5-.6-1.2-.8-2-.6 0-.2.1-.4 0-.5-.5-1.1-1.4-2-2.4-2.7-.7-.5-1.7-.4-2.5.1-.3.2-.5.6-.2.9 1.2 1.5 3 2.2 5.1 2zm64.3-55.4c-.6.6-.8 1.6-1.8 1.9-.4-.1-.7-.1-1.1-.2-.1.3-.3.7-.2 1 .1.3.5.6.8.6 2.3.5 4.3-.2 6.2-1.5.1-.1.3-.3.3-.4.1-.4-.1-.7-.5-.9-1.2-.6-2.4-.7-3.7-.4.1-.5.2-1.1.2-1.7 2.3-2.8 4.6-5.5 8.4-6.5-.3-.9-.9-1.2-1.9-1.5-.8.2-1.9.4-2.9.8-1.6.5-2.9 1.5-3.8 2.9-1.1 1.8-1.4 3.7-.4 5.6 0 .1.3.2.4.3zm23.2 64.4c-.6-.8-1.4-1.1-2.4-1.1.2-.8 0-1.5-.7-1.9-.5-.3-1-.4-1.5-.5-2-.6-3.7-1.6-4.8-3.4-.9-1.3-2.3-1.8-3.8-1.8-2.9.5-5.3 1.7-7.1 4-.6.7-1.5 1-2.2 1.6-.9.7-1.4 1.7-1.6 2.8-.1.5.1 1.1.2 1.6 0 .2.2.3.3.4.4.2.8.1.9-.3 1.1-3 3.2-4.9 6.3-5.6 3.4.1 3.4.1 6 2h.6c2 .3 3.9 1.1 5.9.6.5-.1 1 .3 1.6.4.6.8 1.5.9 2.4 1 .1.5.1 1.1.3 1.6.8 2.1 1.6 4.1 2.4 6.2.3.7.3 1.4.4 2-2.7 4.5-3 4.8-6.9 7.7 1.3.5 2.1.6 2.6.2.8-.5 1.5-1 2.3-1.5 1.6-1.1 2.5-2.7 2.9-4.5.4-2.2.7-4.4.3-6.7-1.1-1.9-2.5-3.5-4.4-4.8zM101 121.9c-.7.2-1.4.5-2.1.7-.5.1-1 0-1.5 0-.5-.7-.9-1.3-1.3-1.8-.4.1-.8 0-1.1.2-1.7 1.2-2.9 2.8-3.9 4.5.9.9 1.4 1.2 2.2 1.4 3.1.7 6.7.7 9.1 0-.3-.2-.5-.5-.8-.6-2.1-.6-2.1-.6-1.4-2.4.3-.7.5-1.3.5-2.1.4 0 .7-.1 1.1-.1 1.6 0 2.7-.7 3.5-2.1 2.6-.3 5-1 7.5-1.9 2.6-1 5.3-1.4 8.1-1.4h3.9c.5 0 1.1 0 1.6-.2.3-.1.6-.5.6-.8 0-.3-.3-.7-.5-.9-1.7-.7-3.6-.7-5-.9-1.3.2-2.2.4-3.1.4-4.3.3-8.3 1.8-11.9 4-.3.2-.6.5-.8.8-.2.3-.1.7-.2 1-1.9 0-3.3.8-4.5 2.2zm-34.4-30c-1.5-.2-2.8-.8-4.1-1.5-1.1-.5-1.4-1.2-1.1-2.7.1-.9.1-.9-1-1.2-.5.3-.9.6-1.4.9-.2.1-.4.1-.7.2-2.4.2-5 0-7.4-.9-.2.3-.6.6-.6.8 0 .3.2.7.5.9l.9.6c3.3 1.8 6.7 3 10.5 4 1.1-.1 2.3-.2 3.6-.4.3 0 .5-.5.7-.7 2.1.6 4 .1 5.5-1.9.2-.8.5-1.9.8-2.9-.9-.6-1.2-.6-1.4-.1-1.1 1.9-2.4 3.7-4.5 4.5-.2 0-.2.3-.3.4zM49.9 63c1.1-.5 2.3-1.1 3.4-1.6 1.6-.6 3.2-.8 4.8 0 .2.1.3.2.5.2 1.2.4 2.2 0 3-.7.8-.7 1.5-1.6 1.3-2.9-2-1.1-4.1-2.1-6.3-2.4-.6.2-.9.3-1.2.5-2.2 1.4-4 3.2-5.3 5.4-.2.4-.1 1-.1 1.6-.2 0-.5 0-.5.2-.9 2-1.2 3.5-1.2 5.7-.1.1-.2.3-.3.4-.8.6-1.4.6-1.9 0-.4-.4-.6-.9-1-1.3-.4-.5-1.1-.3-1.3.3-.2.9-.4 1.7-.6 2.4 1.1 2.3 2.7 3.7 4.9 4.4 1.1-.3 1.1-1.4 1.5-2.1.4-.8.8-1.6 1.1-2.5.3-.8.6-1.7.9-2.5-.9-1.7-2.3-3.1-1.7-5.1zM12.3 85.3c-.4 0-.8-.1-1.1.1C9 87 6.8 88.6 4.6 90.3c-.6.4-1 1.1-1.1 1.9 0 .2 0 .4.1.5 1.6 2.4 4 3.6 6.5 4.8.7.3 1.4 0 1.9-.8-.1-.4-.2-1-.3-1.5-.9-.6-1.8-1.2-2.6-1.8-.2-1.2.4-1.9.7-2.8.4-1 .8-2 1.2-3.1.5-.7.9-1.5 1.3-2.2h.5c1.8-.3 3.4-1.1 4.7-2.3.1-.1.2-.3.3-.6-.2-.4-.3-1-.5-1.4-.6-.9-1.8-1-2.2-.2-.7 1.5-1.8 2.7-2.7 4-.2.1-.1.3-.1.5zm93.1-75.4c-1.6-1.8-3.1-3.5-4.7-5.3-.8-.8-1.8-1.2-2.9-1.3-1.7-.1-3.2.4-4.5 1.8.3.4.5 1.1.9 1.1 3.5.4 6.7 1.8 9.8 3.4.4.2 1.1 0 1.6 0 0 .3 0 .8.2 1 1.6 1.7 3.6 3.1 5 5.7.3 1 .7 2.4 1.1 3.8.2.7.4 1.5.1 2.1-.4 1.1-.4 2.1-.2 3.2.1.8-.2 1.5-.6 2.1l-2.4 3.6c0 .9-.2 1.9.6 2.6 2.7-.7 4.2-2.8 5.5-4.3 2.1-3.8 1.9-7.1.6-10.5-.1-.3-.1-.7-.3-1-.5-1-1-2-1.7-2.8-2.1-2.6-4.7-4.6-8.1-5.2zm37.8 81.8c-.1.7 0 1.5.5 2 .6.7 1.3 1.3 1.9 1.9.7-.4.8-1 .4-1.4-.9-.9-1.9-1.6-2.9-2.4-.7-1.1-1.4-2.2-2-3.3-.4-.7-.1-1.4.6-2.1.4.2 1.1.3 1.4.6 1.3 1.5 2.5 3.2 3.9 4.6.4.4.9-.1 1.1-.6-.2-.6-.4-1.1-.5-1.6-.1-.3-.1-.8.1-1.1.1-.3.4-.6.7-.7.4-.2.7 0 1 .3 1.6 2.1 2 4.7 2.9 7.2.4.2.9.4 1.4.6 1.5-1.2 0-2.9 1-4.2.3 0 .7-.2 1-.1.8.4 1.7.8 2.4 1.3 3 2.3 6.3 2.8 9.9 2 .1 0 .2-.2.3-.3-.1-.8-.7-1.3-1.4-1.5-.9-.3-1.9-.2-2.6-.7-2.7-2-5.9-3.1-8.9-4.5-5.3-2.5-10.9-3.2-16.7-2.6-.3 0-.6.4-.9.6-.5 1-.3 2.1-.3 3.2 0 .7.2 1.4.4 2.2.1.7 1.2 1.4 1.6 1.1 1.2-.7 2.5-.2 3.7-.5zm-76.1 36.4c-.2.4-.5.7-.5 1 0 1.8.1 3.7.2 5.5.1.7.4 1.4.5 2.2.5 2.9.1 5.5-1.8 7.8-1.3 1.6-2.4 3.3-3.7 4.8-2.4 2.8-4.8 5.6-7.3 8.4-.5.6-.9 1.2-1.3 1.8-2.6 3.6-4.6 7.5-6.3 11.7-1.7 4.3-2.4 8.9-3.4 13.3-.1.5 0 1.1-.1 1.7-.1 3.2.7 6.2 1.7 9.2 2.1 6.1 6 11 10.8 15.1 3.6 2.2 7.2 4.4 10.9 6.6.8.5 1.7.8 2.6.9 1.6.3 3.3.6 4.9.9 1.8.3 3.7.4 5.5.1 5.8-.9 11.5-2.5 16.8-5.2 2.6-1.4 5.7-4.1 7.3-6.5 2.2-3.2 3.9-6.7 5.3-10.3 1.4-3.6 3-7.2 3.2-11.1 0-.5.2-1.1.3-1.5-.1-1.1-.3-2-.3-2.9-.2-6.4-2.1-12.3-4.4-18.2-.4-1-.9-2-1.5-3-2.4-3.8-5-7.3-8.6-10-1.7-1.3-2.9-2.8-3.1-5 .7-2.5 1.5-5 2.7-7.3 1.1-2.3 2.3-4.6 3.4-6.9-.4-.3-.6-.7-.9-.7-4.4-.7-8.8-1-13.1-2.1-.7-.2-1.5-.1-2.2-.1-3 0-5.9.1-8.9 0-3 .1-5.9-.1-8.7-.2zm15.3-5.2c2.2-3.3 2.7-4.4 5.7-13.9-.4-2-.7-3.8-1-5.5-1.4-1.1-2.7-2.2-3.9-3.3-1.2-1.1-2.2-2.5-2.8-4.1-.4-1.1-.6-2.1-.3-3.2.6-1.6 2.2-2.5 2.7-4 0-.3-.1-.5-.1-.6 0-1.6.4-1.9 1.9-1.5.5.1 1 .3 1.2-.4-.1-.3-.2-.7-.4-1-.2-.5-.6-1-.8-1.4-.5-1-.3-1.8.4-2.5.5-.5 1.3-.8 1.5-1.6-.3-1.6-1-3-2.2-4.2-.1-.1-.4-.1-.5-.1-.1.1-.3.2-.3.4-.2 3-1.1 5.7-2.5 8.4-1 1.9-2.3 3.3-4.3 4.1-.5.2-1 .4-1.4.6-1.1 1.6-1.2 3.2-.7 4.9.8 2.8 1.7 5.7 2.2 8.5.2 1.1.6 2.1 1 3.2.3.9.8 1.7 1.6 2.4 1.4-.8 2.7-1.7 4.2-2.5.5-.2 1.1-.2 1.6-.3.7-.1 1 .4 1.1 1.5-1.4 1.1-3 2-4.3 3.4-.9 1-1.4 2.2-1.2 3.5.5 2.8 1 5.7 1.6 9.2zm-55.1.5c-.7-.2-1.4-.4-2.1-.7-.4-.2-.8-1-.6-1.4.2-.3.4-.7.7-.8 1.6-.8 3.2-.7 4.8-.2.7.2 1.4.5 2.2.2.6-.4 1.2-.7 1.4-1.5-.6-.6-1.3-.5-2-.7-1.1-.2-2.1-.5-3.2-.9-.4-.1-.8-1-.8-1.4.1-.6.9-1.4 1.5-1.4.2 0 .4-.1.5 0 1.2.4 2.5.7 3.7 1.2 1 .4 2 1 2.9 1.5 1.3-.4 2.5-.9 3.7-1.3 1.2-.4 2.4-.7 3.7-1.1-.1-1.6-1.2-2.2-2.3-2.8-1.3-.1-2.5-.2-3.8-.4-1.5-1.5-3.1-2.7-5.4-2-.6.7-1.1 1.4-1.8 2.2-.7 0-1.4-.1-2.1-.1-.7 0-1.5-.1-2.3.4l-3.3 3.3c-.2 1.2-.4 2.3-.5 3.1-.8 1.6-2.5 2-3 3.5.3 1 .6 2 .9 2.8-1.4 3.1-2.7 5.9-4 8.7-.2.4 0 .7.5.9.7-.5 1.5-1 2.1-1.6 2.9-2.8 5.8-5.6 8.7-8.5.1-.1-.1-.6-.1-1zm102.1-3.5c-.2.4-.6.8-.7 1.3-.5 2.6.4 4.7 2.1 6.6.3.4 1 .4 1.5.6.3.1.7.1 1.1.2.4.1.8.9.7 1.3-.2 1.1-1.2 1.9-1 3.1 0 .3.3.7.6.8.2.1.7-.1.9-.3.3-.2.4-.6.5-.9.2-.7.2-1.4.3-2.1.2-.2.2-.4.4-.5.6-.4 1.6-.4 1.9.2.6 1.3 1.2 2.7 1.9 4 .4.7 1 1 1.9.8.4-1 .9-1.9 1.3-2.9.7 0 1.2-.1 1.9-.1l1.9 1.9c.7.6 1.3 1.3 1.8 1.7 2.3 1.4 4.6 2 7.1 1.6.3 0 .6-.4.8-.6 0-.8-.4-1.4-1-1.8-.5-.3-1-.5-1.5-.6-1.9-.5-3.3-1.5-4.3-3.2-.3-.5-.8-.8-1.1-1-1.1-.2-1.8.8-2.8.2-.6-.5-.8-1.1-.3-1.9.3-.4.5-1 .7-1.5-.5-1-1.1-1.9-2.1-2.6-.6-.4-1.6-.2-1.8.6l-.6 2.7c-.1.4-.8.7-1.4.7-.5 0-1.2-.6-1.2-1 0-.7-.2-1.5 0-2.2.3-1.2.8-2.4 1.3-3.7-.2-.1-.5-.4-.7-.4-.3 0-.7.3-.9.5-.7.7-.9 1.6-1.1 2.5-.2.8-.7 1.3-1.4 1.6-.8-.1-1.3-.5-1.6-1.4.2-.7.4-1.6.6-2.5.1-.6-.5-1.5-1.1-1.7-1.6-.4-3-.4-4.6 0zm-91.3 8.7c1 .8 1.7 1.4 2.4 1.9.4-.1.8-.1 1-.4 1.3-1.3 2.5-2.7 3.7-4.1.6-.7.9-1.6 1.3-2.4.3-.6.1-1.7-.4-2.1-1.1-1-2.2-2-3.3-2.9-.2-.2-.7 0-1.2 0-.8 2.7-.4 5.8-2.1 8.4-1 .6-1.7.4-2.3-.6.2-1 .5-2.1.7-3.1.1-.5.1-1.1 0-1.6-.1-.2-.6-.6-.8-.5-.5.2-.9.6-1.3.9-.1 1.6-.2 3-.3 4.3-.2.6-.3.9-.5 1.2-.2.3-.3.7-.5 1-.3.5-.6.9-1 1.3-.2.3-.6.6-.9.6-.5.1-1.1.2-1.6 0s-.7-.7-.6-1.4c.6-.9 1.2-1.8 1.7-2.8.1-.2-.2-.6-.4-.9-.3.1-.7.2-1 .4-3.1 2.3-5.8 5.2-8.4 8-.4.4.2 1 .7 1.2.8-.3 1.7-.6 2.4-.9 1 .4 1.8.7 2.7 1.1 1.2-1 2.3-1.9 3.2-2.7 1 .1 1.7.1 2.1.2 2.2-1 2.7-3.1 4.7-4.1zm88.4-83.9v1.4c-.4 2.6 1.3 4.9 1 7.5 0 .3.1.7.3 1 .4.6.8 1.3 1.4 1.6 1.6.8 2.6 1.9 3.1 3.6 0 .1.3.2.4.3 1.4-.4 2-1.5 2.4-2.8.5-1.8.5-3.6.2-5.4-.2-1.5-.7-2.9-1.7-4-1.5-1.6-2.6-3.5-3.8-5.3-.5-.8-1.1-1.5-1.8-2.1-1.1-.8-2.3-1.1-3.6 0 .7 1.4 1.3 2.7 2.1 4.2zm20.6 34.9c3.5 1.3 6.8 2.5 9.9 4.2 1.9 1 4.1 1.7 6.1 2.5.2.1.6-.2.9-.4-1.5-1.8-1.8-2-7.3-4.7-.6-.9-1.2-1.8-1.7-2.5-1.1-.8-2.2-1.2-3.3-1.2-1.1 0-2.2 0-3.3-.1-.3 0-.6-.4-.9-.6-.5-.8.4-1.9-.9-2.6-.8-.2-1.9-.1-3 0-.5.1-1.1.2-1.6.4-2.8 1-5.4 2.3-8 3.9-.8.5-1.4 1.2-1.8 2-.2.4 0 .7.4.9 8.2-1.9 8.2-1.9 14.5-1.8zM99.9 54c-1-.9-1.8-1.1-2.5-.7-1.6.9-3 2.1-4.5 3.1-.8.5-1.1 1.4-1 2.4.1.7.1 1.5.4 2.2 1.1 2.6 2.6 4.8 5.2 6.1.1.1.3-.1.6-.2-.4-.8-.9-1.5-1.3-2.2-.5-1-.8-2-1.2-3.1-.2-.7.3-1.4 1.4-1.9.7.3 1.3.8 1.5 1.6.7 2.4 2.1 4.3 3.9 5.9.7.6 1.4 1.2 1.6 2.1-.1.2-.1.4-.3.5-.3.2-.5.5-.9.6-1.2.4-2.4.6-3.6.9-.2.8.1 1.3.6 1.4 1.2.2 2.5.5 4.1 0 .6-.9 1.9-1.7 2.3-3.3l-1.8-3.3c.1-.4.2-.8.3-1.1.1-.4.2-.7.2-1.1 0-.1-.2-.3-.3-.4-1-.3-2-.6-2.9-.9-1.4-1.5-2.3-3.1-2.8-5 .5-1.2.7-2.4 1-3.6zM73.1 31.3c-1.3-.6-2.8-1.3-4.3-1.9-1.7-.7-2.8-2.3-4.4-2.8-.4 0-.6-.1-.8 0-.7.3-1.3.6-2.1 1-1.6-.6-3.3-1.2-4.9-1.8-1.1.4-2 .6-2.9.9-.8-.2-1.7-.3-2.6-.5-.9-.2-1.7-.7-2.2-.6-1.7.6-.8 2.3-1.9 2.9-2.3.6-4.5 1.3-6.3 3.1.7.5 1.5.4 2.2.2 3.1-.7 6.2-.9 9.3-1 .4 0 .7-.1 1.1-.2.1 0 .1-.2.2-.3-.3-.4-.6-.9-.9-1.3.2-.8.8-1.1 1.6-1.3 1.3.1 2.4.8 3.4 1.6.7.6 1.3 1.3 2.1 1.8 1.1.7 2.3 1.1 3.5.1.1-.4.1-.7.2-1.1.4-1.3 1.6-1.5 2.5-.5.8 1 1.6 2 2.1 2.8 2.2.9 4 1.7 5.8 2.5 1.1-1.4 0-2.4-.7-3.6zm22.3 59.1c-.5-1-1.4-1.9-.9-3.4.7-.9 1.6-2.1 2.5-3.2-.1-.3-.4-.6-.8-.5-.5.2-1.1.4-1.4.8-.8 1-1.5 2-1.8 3.3-.3 1.5-1.1 2.7-2.7 3.4-.8-.2-1.6-.5-2.5-.7-1.2.7-2.5 1.4-3.7 2.2-.8.5-1.2 2.2-.8 3 .7 1.5 1.6 2.8 2.8 4 .6.6 1.9.4 2.4-.4.6-1.1 1.4-2.2 1.6-3.5.1-.5.4-1 .6-1.5.3-.6 1.2-.7 1.9-.2.1.1.2.3.5.6 0 .6.1 1.3-.2 2-.4 1.2-1 2.3-1.5 3.5-.1.3.1.7.2 1.1 1.4.8 2.9 1.5 4 2.7.1.1.7 0 1-.2.6-.4 1-1.1.8-1.9-1-1.3-2.8-1.8-3.1-3.8.2-.9.5-2 .7-2.8-.4-.9-.7-1.6-.9-2.1.5-.9.9-1.7 1.3-2.4zM53.9 38.2l.9.6c.3.3.5.6.7.9.7 1.1 1.9 1.2 2.9.9 1.6-.4 3.1-1.1 4.7-1.8h6c1.1 0 2.2.2 3.3.2.1 0 .3-.2.4-.3.2-.3.1-.7-.2-.9-2.4-1.7-6.1-3-8.6-3.2-.1 0-.2.2-.3.3.7 1 .2 1.7-.7 2.3-1.4.3-2.8.8-4.2.2-.8-.5-1-1.6-2.1-1.8-.9.2-1.8.4-2.8.7-.5-.4-1.1-.9-1.5-1.3.1-.5.2-.9.3-1.4-.5-.1-1-.4-1.4-.3-1.8.6-3.5.9-5.4 1-.3 0-.5.3-.8.4 1.3.9 3-.1 4.2 1.3-.1.6-.1 1.3-.2 2 .1.1.3.2.4.3 1.6.7 3-.2 4.4-.1zm66.8 31.2c-2.4-.9-4.1-2.7-5.9-3.9-.3-.1-.5-.1-.7-.1h-.5c-.6.1-1 .4-1.2.9-.2.4.1 1.1.6 1.4 3.4 2.2 7.2 3.4 11.3 4.3 1.8-1.1 3.7-2.2 5.5-3.4.3-.2.5-.5.8-.8.8-2.7-.2-5-1.4-7.3-1 .5-1.1 1.5-1.4 2.3-.7 1.7-1.8 3.2-3 4.6-.9 1-2.1 1.8-4.1 2zM71 50.9c-2 .3-2.1 2.1-3.5 1.9-.6-.6-1.3-1.1-1.9-1.7-.3.1-.5.2-.6.3-1 .9-1.5 2.1-1.6 3.4 0 .4.3.9.4 1.2 1.2-.3 2.2-.8 3.3-.9 1.7-.2 3.3.2 4.6 1.5.4.4.9.6 1.4 1h2.3c1.4.4 1.8 1.8 3.1 1.6.5-2.2.5-2.8 0-3.7-.6-1.2-1.4-2.2-2.7-2.7-1.7-.6-3.4-1.3-4.8-1.9zm-58.5 51.5c.3.9.8 1.4 1.6 1.5 1.6.3 3.3.5 4.9.7.3 0 .7-.1 1.1-.1.4-.2.9-.4 1.4-.7.4-.8.7-1.6 1.1-2.4.8-.4 1.6-.8 2.5-1.2-.9-.8-1.8-1.4-2.6-2.1-.3-1.1-.1-2.3-1.3-2.9-1.6-.2-2.8.6-4.2 1.5-.5 1.6-1.5 3.1-3.1 4.1-.5.4-.9 1.1-1.4 1.6zm95.3-24.8c2.6-.5 4.5 1.3 6.2 3.3.5.5 1.1 1 1.7 1.4.2.1.7-.1 1-.2.7-.4 1-1.2.8-1.9-.3-1.4-.7-2.9-1.3-4.2-.4-1-1.2-1.9-2.2-2.4-1-.5-2-.9-3-1.3-.9-.3-1.9 0-2.6.7-.7.6-1.3 1.3-1.8 2.1-.3.5-.2 1.3 1.2 2.5zm4.8 30.4c.7-.1 1.4-.3 2.1-.4 3.2-.5 5.3-2.4 6.5-5.3 1.3-3.1 1.7-6.4.6-9.7 0-.1-.2-.1-.5-.1-.2.4-.6.9-.7 1.4-.4 1.4-.6 2.9-.9 4.3-.1.4-.3.7-.5 1.2-.8.9-1.8 2-2.6 2.8-2.3 1.2-4.2 2.2-6.2 3.2-.3.1-.4.6-.4.9 0 .3.3.6.4 1 .7.3 1.4.5 2.2.7zm-11.2-61.9c1.3-.6 1.9-2 3.6-1.6.6.6 1.2 1.2 1.9 1.8h3.6c1.4-.8 2.1-1.8 2.8-3 .1-1 .3-2 .4-3-.7-.8-1.6-1.1-2.5-1-1.8.2-3.6.4-5.3.6-2.4.9-3.7 2.6-4.6 4.7-.2.4 0 .9.1 1.5zM62.8 70.5c-1.6-.6-3.1-1.3-4.6-1.8-.5-.1-1.1 0-1.6.2-1 .5-1.9 1.1-2.2 2.6.7 2.1 2.1 3.6 4.6 3.8 1.5.1 2.9.2 4.4-.2 1.8-1 3.2-2.5 3.7-4.5.1-.3-.1-.6-.7-.8-.9.2-2 .4-3.6.7zm11-4.1c-.7-1.7-1.2-3.3-1.9-4.8s-1.8-2.8-3.4-3.5c-.7-.3-1.4-.3-2 .2-.9.8-1.3 1.8-.7 3 1 .7 2 1.4 3 2.2.8.6 1.2 1.4 1.4 2.3.1.5.2 1.1.3 1.3-.2 1.7-.4 3.2-.6 4.6 0 .2.4.5.6.8 1.1-.4 2-.9 2.5-2 .3-1.1.5-2.4.8-4.1zm65.3 49.6c2.5.1 4.9.3 7.3 0 .5-.1 1.1-.2 1.6-.4.3-.1.6-.5.6-.8 0-.3-.1-.8-.3-1-1.2-1.2-2.8-1.8-4.4-2-2.9-.5-5.8-.4-8.7.3-.1.3-.2.5-.1.6.1.3.2.8.4 1 1.1.9 2.4 1.6 3.6 2.3zM87.7 40.1c-2.6-.7-5.2-1.4-7.4-3.2-.2-.1-.7 0-.9.2-.2.2-.4.6-.4.9 0 .8.4 1.4 1 1.9 2.7 2.4 5.4 4.9 7.6 7.8.2.2.6.3 1.1.4.3-2.2.2-4.4-.2-6.5-.1-.4-.5-.9-.8-1.5zm-3.1-3.7c2.5.2 4.5.4 6.5.6.2 0 .3-.1.5-.2.1-.3.5-.7.4-.9-.4-1.5-1.9-2.2-2.6-3.4-1.7-1.1-3.3-2.3-5.4-2.2-.4.2-.8.4-1.1.6-1 .8-1.2 1.9-.5 2.9.7.8 1.4 1.6 2.2 2.6zm25.7 24c-.5-1.4-1.5-2.2-2.5-3-.6-.5-1-1.1-1.1-2.1.6-1.4 1.4-3.1 2-4.8.2-.4 0-1-.7-1.1-.2.3-.6.5-.7.8-.9 2.1-2.3 3.7-3.9 5.2-.5.5-.8 1.2-1.1 1.6.3 1.5.8 2.6 1.9 3.5 1.5.5 3.2.6 4.8.5.4 0 .9-.3 1.3-.6zm-34.5 62.2c-.5-1.3-.8-2.3-1.3-3.3-.2-.4-.6-.4-.8-.2-.1.1-.3.3-.2.4l.6 1.5c.1.3.2.8.1 1-.3.4-.8.7-1.2 1-.9-.7-1.8-1.4-2.4-1.9-.8.3-1.5.6-2.2.8-.7.3-1.4.5-2 .8-.5.2-.5 1.1-.1 1.3.5.3.9.7 1.4.8 1.5.2 2.9.3 4.4.3 2 .1 4 .1 6-.5.4-.1.5-.4.6-.8 0-.4 0-.8-.4-.9-.7 0-1.4-.1-2.5-.3zM97.6 34c-.1 1.1-.3 2.2-.4 3.3-.1.6.1 1 .7 1.3 2.3.7 4.3-.4 6.4-1.6.3-.6.8-1.4 1-2.3.2-.5.1-1.1-.8-1.6-1.3-.3-2.9-.1-4.5-.2-.3 0-.7.1-1.2.2-.3.2-.8.5-1.2.9zM82.7 71.4c-.2-1.7-1-3.1-2.1-4.4-.2-.2-.6-.2.1 0-1.5.9-2.5 1.5-3.7 2.2 1 2 .9 4.2.7 6.3 0 .2 0 .4.1.5.2.3.4.7.6.7.3 0 .8-.1 1-.3 1.5-1.4 2.6-3 3.3-5zm72.1 57.8c-1.1-2.4-2.7-3.9-3.9-5.6-.2-.9-.4-1.8-.6-2.6-.8-1.3-2.1-1.5-3.3-2-.7.1-1.4.4-1.6 1.4.3.3.8.6 1.1 1.1.6.9 1.2 1.9 1.7 2.8 1.3 2.4 2.9 4.6 5.2 6.2.3-.1.5-.1.6-.2.3-.3.5-.6.8-1.1zM39.3 72.6c-.9.9-.9 1.9-.5 3 .5 1.2 1.3 2.2 2.4 2.9.9.6 1.8 1.2 2.8 1.6 1.1.5 2.1 1.4 3.5 1.3 1-.4 1.3-1.2 1.3-2.3-.5-.3-1.1-.7-1.7-1-2.5-1.5-5-2.9-6.8-5.3-.2-.2-.7-.1-1-.2zm68.1-50.1c-1.3-.7-2.2-.4-2.8.3-.8 1-1.5 2.1-2.1 3.2-.5 1-.8 2-.4 3.1.3.2.6.5.9.6 2.2.2 3.9-.9 5.2-2.5 1.1-1.4.1-2.8-.4-4.1-.2-.2-.3-.3-.4-.6zM38.5 88c-.4-1.8-1.3-3.4-2.5-4.9-.7-.9-1.5-1.6-2.5-2.1-.4-.2-1-.1-1.5-.2-.8 1.7-.8 2.4-.1 3.1 1.4 1.3 2.2 2.9 2.8 4.7.1.3.5.5.6.7 1.4.3 2.6.4 3.2-1.3zM78 30.3c1.3 0 2-1 3-1.5 1.1-.6 2.2-1.2 3.3-1.7 0-2.5 0-2.5-1.7-5.9-2.7 1.6-3.9 4.2-5 7 .1.7.3 1.4.4 2.1zm22.8-11.6c.8.3 1.3.4 1.8.6.8-.3 1.8-.3 2.4-1.3-1-1-2-2.1-3.1-3.1-.9-.8-2-.9-3.1-.5-1.3.6-2.6 1.4-3.4 2.7-.1 1.3.8 1.9 2 2.3 1.1-.1 2.1-.4 3.4-.7zM49.4 57.4c.7-.6 1.5-1.1 2.2-1.7 3.3-2.6 3.9-3 8.5-1.8 1-1.1.9-1.7-.2-1.8-1.7-.1-2.1-1.9-3.8-2.3-.3 0-1 0-1.4.2-2.7 1.4-4.7 3.4-5.7 6.3 0 .3.3.7.4 1.1zM52 82.1l.9 1.2c.4.4.8.8 1.2 1.1.8.6 1.7.7 2.6.6.8-.1 1.4-.5 1.6-1.5-.4-.4-.8-1-1.3-1.5s-1-1.1-1.1-1.7c.3-.7.6-1.4.9-2.2-.7-.5-1.2-.9-1.9-1.2-.3-.1-.7 0-1.1.1-.6 1.4-1.2 2.9-1.8 4.5v.6zM63.8 78c-2.2.9-3.6 0-4.6 1.3.4.8.7 1.7 1.2 2.4.7 1.1 1.6 2 2.9 2.4.5.2 1.1.1 1.5-.5 0-.6-.1-1.3-.1-2 .5-1.9 2.6-2.6 3-4.5-.2-.3-.4-.6-.7-.9-1.3.7-2.5 1.4-3.2 1.8zm62-20c-1.2.4-2.4.6-3.1 1.9-.9 1.6-1.9 3-2.9 4.5-.2.4 0 1 .4 1.4.6.6 1.3.5 2.2.1.9-1.1 1.9-2.4 2.8-3.5.1-1.5 1.2-2.7.6-4.4zM83.9 17.9c1.1-.6 1.8-1.5 2-2.6.4-2.1 1.4-3.7 2.9-5.2.2-.2.3-.6.5-1-.6-.1-1.1-.2-1.6-.1-.9.1-1.7.6-2.4 1.3-1.2 1.3-2.3 2.8-3.1 4.4.7 1.1 1.2 2.2 1.7 3.2zm40 32.3c-.3-.4-.5-.9-.8-1.4-.2-.3-.5-.5-.8-.7-1.9-1.2-3.9-2-6.2-1.8-.4 0-.7.1-1 .2-.3.2-.5.5-.7.8-.2.3.1 1.3.5 1.4 1.5.6 3 1.3 4.3 1.8 1.7-.7 1.7-.7 3.3-.1.5.2 1 .3 1.4-.2zm-32.3 63.6c-.3-.3-.5-.6-.8-.7-.3-.2-.7 0-.9.4-1.5 2.6-3.1 6.7-4.1 10.6 0 .1.1.4.3.5.1.1.3 0 .4-.1.3-.2.6-.4.8-.7 1.6-3.2 3.3-6.5 4.3-10zm11.7-8.7c.5-1.2 2.2-.4 2.6-1.7-.3-.9-.9-1.6-1.6-2.2-.4-.3-1-.4-1.5-.2s-.9.6-1.4.9c-.5 1.2-1 2.4-1.5 3.5-.1.2-.1.4-.1.7.2.4.5.8.7 1.2 1 .1 1.9 0 2.6-.7 0-.5.2-1 .2-1.5zM68.1 81.7c3-.5 4.7-1.7 5.9-3.7.7-1.2 1.8-2.4 1-4.1-.3.1-.7.1-.9.2-.8.4-1.5 1.1-1.9 1.9-.8 1.7-1.8 3.2-3.3 4.3-.3.2-.4.6-.8 1.4zm-37.9 5.8c-1.7.6-3.1 1.9-4.9 2.4-.8.2-1.5 1-2.2 1.6-.3.2-.4.6-.6.9-.3.5-.1 1.3.3 1.4.3.1.8.2 1 0 1.5-1.1 3.1-2 4.7-2.9.6-.3 1.3-.7 1.9-1.2.4-.3.8-.9.5-1.5 0-.1-.4-.3-.7-.7zm11.4-26.2c-.4.1-.8.2-1 .4-1.4 1.5-2.3 3.3-2.7 5.4-.1.7.2 1.1 1.4 1.3.8-.9 1.7-1.8 2.5-2.6.3-1.7.4-3.1-.2-4.5zm23.7 3.4c-2.1-.8-2.4-.9-3.6-.5-1.2.4-2.4.8-3.4 1.7.5.3 1 .5 1.4.8 1.6.9 3.4 1.1 5.2.9.8-.1 1.3-.7 1-1.4-.1-.6-.4-1.1-.6-1.5zm27.8 42.8c-.8.8-1.1 1.8-.5 2.2.7.6 1.4 1.2 2.2 1.6.8.5 1.6.7 2.5.2.7-.4.8-1.5.2-3-.1-.3-.4-.5-.7-.8-1.2-.5-2.5-.3-3.7-.2zM115 58.9c.6-3.6.6-3.6 0-6.3-.2 0-.3-.1-.5 0-1.7.7-2.5 1.9-2.6 3.7-.1 1 .3 1.8 1.2 2.2.6.3 1.2.7 1.9.4zm-7.2 29.4 4.2 4.8c.1.1.3.3.4.3.1 0 .3-.2.3-.3-.2-2.2-1-4.2-1.9-6.2-.3-.6-1.2-.7-1.9-.4-.6.5-1.1.9-1.1 1.8zM93 40.4c-.7-.3-1.3-.1-1.3.4 0 2.7.2 5.5.2 8.2 0 1.1-.1 2.2-.2 3.4.1.2.5.4.8.2.3-.2.6-.5.7-.8.1-3.1.1-6.2.1-9.3 0-.8-.2-1.5-.3-2.1zm-4-12.2c.2.3.2.8.5.9 1.6.8 3.2 1.6 5 1.7.9-.6 2.1-.6 2.4-2-1.1-.1-2.2 0-3.3-.2-1.2-.2-2.4-.7-3.7-.9-.3 0-.6.4-.9.5zM24 86.3c.6-2.2.6-3.8-.2-5.4-.4-.8-1-1.6-2-1.7-.7.3-1.2.6-1.2 1.7.4.6 1 1.3 1.5 2 .6.9 1.1 1.9 1.9 3.4zm94-31.7c0 1.8-.3 3.3-.1 5 0 .2.1.3.2.5.1.1.2.3.3.4.4.1.7 0 .9-.3 1-1.5.8-3 .1-4.6-.3-.4-.7-.6-1.4-1zM78.5 120c.1-.7.3-1.2.2-1.8-.2-2-.9-3.9-1.6-5.8-.2-.4-.4-.4-1.3.4.6 2.5.9 5 2.7 7.2zm19.4-97.5c-1.4.8-2.8 1.6-4.1 2.5-.2.1-.1.6-.1.9 0 .1.3.3.4.3 2.2.2 3.4-.7 4.2-3.2.1-.2-.2-.3-.4-.5zM79.8 80.7c-1-.9-1.1-.9-3 1.2.1.9-.5 2 .3 3.1.4-.3 1-.5 1.2-.9.6-1.1 1.1-2.3 1.5-3.4zM6.2 83.8c.1-.1.3-.1.4-.3 1.3-1.3 2.5-2.6 3.8-4 .1-.1.1-.3.1-.4-.2-.1-.3-.3-.5-.2-2.1.5-3.5 1.8-4.2 3.9 0 .3.2.7.4 1zm60 3.6c-.2.6-1.8-.5-2.4.9 1.3.5 2.6.5 3.7-.3.9-.6 1.6-1.5 2.1-2.5.2-.4.1-.7-.3-.9-.1-.1-.4 0-.5.1-.7.7-1.4 1.5-2.6 2.7zm30.7-45.3c-.2.5-.4.8-.4 1.1-.1 1.8-.1 3.7 0 5.5 0 .3.2.8.5.9.6.2 1-.1 1.3-.6-.7-2.1-.6-4.3 0-6.5-.5-.2-.9-.3-1.4-.4zM19.5 92.6c-.1-1-1-.7-1.6-.9-.7-.3-1.3-.6-2-.8-.7-.2-1.2-.7-2-.7-.2.3-.4.6-.5.9 0 .3.2.7.4.9 1.1.7 2.3 1.1 3.6 1.2.8 0 1.5-.1 2.1-.6zm89.6 5.6c1.1-1.1.6-2.3.2-3.5-.2 0-.3 0-.5.1-.3.2-.7.4-.8.6-.4.8-.7 1.6-1 2.4.7.7 1.4.7 2.1.4zm-16.3 20.4c1.7-.9 2.9-1.5 4-2.1.2-.1.3-.6.4-.9-.9-.4-1.8-.6-2.7-.2-1 .5-1.5 1.4-1.7 3.2zm11.3-29.7c0-1 .1-2.1-.1-3.1-.1-.3-.4-.6-.6-.8-.1-.1-.3-.2-.5-.2-.4 0-.7.2-.6.6.2.8.5 1.6.2 2.6-.2.5.5 1 1.6.9zm2.9 23.5c.6.1 1.1.4 1.5.3 1.2-.2 2.4-.3 3.1-1.6-1.2-.6-2.3-.7-3.6 0-.3.4-.6.8-1 1.3zm15.5-67.7c.4-.2.6-.6.4-.9-.7-1.2-1.7-1.7-3.1-1.6-.3 0-.5.3-.8.5.9 1.3 2.2 1.6 3.5 2zM31 99.2c-.4-1.4-.6-1.5-1.2-1-.5.4-1 .9-1.5 1.5-.4.4-.3 1.4 0 1.4s.7 0 .9-.1c.7-.6 1.3-1.2 1.8-1.8zm13.6-35.9c.4.2.7.5 1 .5.3 0 .7-.3.8-.6.2-.5.2-1 .3-1.5 0-.1-.2-.4-.3-.4-.3 0-.7 0-.9.2-.3.5-.6 1.2-.9 1.8zm63.7 2.5c.1-.1.3-.2.4-.4.2-.3.4-.6.4-1s-.8-.6-1.4-.4c-.6.2-.7.7-.2 1.2.2.4.5.5.8.6zM17.7 86.4c-.3.2-.7.5-1 .8-.2.3.2 1.1.6 1.3.6.2 1.3-.4 1.4-1.1.1-.4-.3-.9-1-1zm49.4 10.5c-.1-.2-.1-.4-.2-.5l-.9-.6s-.3.3-.3.4c0 .7.2 1 1 .9.2.1.3-.1.4-.2zm36.8-47.3c.3-.3.7-.7 1-1.1.2-.3.1-.6-.3-.7-.1 0-.4 0-.5.1-.3.4-.6.7-.9 1.1 0 .1.1.3.3.4 0 .1.2.1.4.2zm27.3 67.2c.8.4.8.4 1.7.1-.9-.5-.9-.5-1.7-.1z"/>
    <path d="M67.1 128.1c2.9.1 5.8.3 8.7.4 3 .1 5.9 0 8.9 0 .7 0 1.5-.1 2.2.1 4.3 1.1 8.7 1.3 13.1 2.1.3.1.6.4.9.7-1.1 2.3-2.3 4.6-3.4 6.9-1.2 2.3-1.9 4.8-2.7 7.3.2 2.2 1.5 3.7 3.1 5 3.6 2.7 6.2 6.3 8.6 10 .6.9 1.1 1.9 1.5 3 2.3 5.8 4.2 11.8 4.4 18.2 0 .9.2 1.8.3 2.9-.1.4-.3.9-.3 1.5-.2 3.9-1.8 7.5-3.2 11.1-1.4 3.6-3.1 7.1-5.3 10.3-1.7 2.5-4.7 5.2-7.3 6.5-5.3 2.8-10.9 4.4-16.8 5.2-1.8.3-3.7.2-5.5-.1-1.6-.3-3.3-.6-4.9-.9-.9-.2-1.8-.5-2.6-.9-3.6-2.2-7.3-4.4-10.9-6.6-4.9-4.1-8.7-9-10.8-15.1-1-3-1.8-6-1.7-9.2 0-.6-.1-1.1.1-1.7 1-4.5 1.7-9 3.4-13.3 1.7-4.1 3.7-8.1 6.3-11.7.4-.6.8-1.2 1.3-1.8 2.4-2.8 4.9-5.5 7.3-8.4 1.3-1.5 2.4-3.3 3.7-4.8 1.9-2.3 2.3-5 1.8-7.8-.1-.7-.4-1.4-.5-2.2-.1-1.8-.2-3.7-.2-5.5-.1-.5.3-.8.5-1.2zm30.2 63.5c-.3-.2-.5-.5-.8-.7-.7-.3-1.6 0-1.8.7-.3.7-.2 1.5.3 2.1.5.6 1.1 1 1.9.9 1.1-.9.8-1.9.4-3zm1.2-19.9c.7-.1 1.1-.6 1.3-1.5.1-.7-.3-1.6-.8-1.8-.6-.3-1.5-.1-1.9.5-.4.5-.6 1.4-.3 2 .2.5 1 .9 1.7.8zm-2.4 4.9c-1 1.8-.5 2.9 1.4 2.9.6 0 1.1-.3 1.2-.9 0-.3 0-.7-.2-1-.6-.8-1.4-1.2-2.4-1zm1.4 25.5c.1-.7.2-1.4-.4-2-.3 0-.7-.1-1 0-.3.1-.7.2-1 .4-.6.3-.6 1.3 0 1.8.9.7 1.1.7 2.4-.2zm6.2-23.3c-.1-.7-.7-1.3-1.5-1.4-.2 0-.4 0-.5.1-.6.2-.8 1.2-.6 1.9.3.8.8 1.3 1.6 1.1.5-.2 1.1-1.1 1-1.7z" style="fill:#ece1de"/>
    <path class="st2" d="M27.3 123.4c0 .4.1.9 0 1-2.9 2.9-5.7 5.7-8.7 8.5-.7.6-1.5 1.1-2.1 1.6-.5-.2-.7-.5-.5-.9 1.3-2.8 2.6-5.7 4-8.7-.3-.8-.6-1.8-.9-2.8.5-1.5 2.2-2 3-3.5.1-.8.3-1.9.5-3.1 1.1-1.1 2.2-2.3 3.3-3.3.8-.5 1.6-.4 2.3-.4.7 0 1.4.1 2.1.1.6-.8 1.2-1.5 1.8-2.2 2.3-.7 3.9.5 5.4 2 1.3.1 2.5.2 3.8.4 1.1.6 2.3 1.2 2.3 2.8-1.2.4-2.4.7-3.7 1.1-1.2.4-2.4.8-3.7 1.3-1-.5-1.9-1.1-2.9-1.5-1.2-.5-2.4-.8-3.7-1.2h-.5c-.6-.1-1.4.8-1.5 1.4 0 .4.5 1.3.8 1.4 1.1.3 2.1.6 3.2.9.7.1 1.5.1 2 .7-.2.8-.8 1.1-1.4 1.5-.8.3-1.4 0-2.2-.2-1.6-.5-3.3-.6-4.8.2-.3.1-.5.5-.7.8-.2.4.2 1.2.6 1.4.8.3 1.5.5 2.2.7zm102.1-3.5c1.6-.3 3-.4 4.5.1.6.2 1.3 1.1 1.1 1.7-.2.9-.4 1.8-.6 2.5.3.9.8 1.4 1.6 1.4.8-.3 1.2-.8 1.4-1.6.2-.9.4-1.8 1.1-2.5.3-.2.6-.5.9-.5.3 0 .6.3.7.4-.4 1.2-1 2.4-1.3 3.7-.2.7 0 1.5 0 2.2 0 .4.7 1 1.2 1 .6 0 1.3-.2 1.4-.7l.6-2.7c.2-.7 1.2-1 1.8-.6.9.7 1.5 1.5 2.1 2.6-.2.5-.4 1-.7 1.5-.5.8-.3 1.3.3 1.9 1 .6 1.7-.4 2.8-.2.3.3.8.6 1.1 1 1 1.7 2.5 2.7 4.3 3.2.5.1 1.1.3 1.5.6.7.4 1.1 1 1 1.8-.3.2-.5.6-.8.6-2.5.4-4.8-.2-7.1-1.6-.5-.5-1.1-1.1-1.8-1.7-.7-.6-1.3-1.3-1.9-1.9-.7 0-1.2.1-1.9.1-.4 1-.9 1.9-1.3 2.9-.8.1-1.5-.1-1.9-.8-.7-1.3-1.2-2.7-1.9-4-.2-.5-1.3-.6-1.9-.2-.1.1-.2.3-.4.5l-.3 2.1c-.1.3-.3.7-.5.9-.2.2-.7.4-.9.3-.3-.1-.5-.5-.6-.8-.2-1.2.8-2 1-3.1.1-.4-.3-1.2-.7-1.3-.4-.1-.7-.1-1.1-.2-.5-.2-1.1-.3-1.5-.6-1.7-1.9-2.6-4-2.1-6.6.2-.6.6-1 .8-1.4zm13.8-28.2c-1.2.3-2.6-.3-3.7.6-.5.3-1.5-.4-1.6-1.1-.2-.7-.4-1.4-.4-2.2-.1-1.1-.3-2.2.3-3.2.3-.2.6-.5.9-.6 5.8-.6 11.4.1 16.7 2.6 3 1.4 6.2 2.4 8.9 4.5.7.5 1.7.5 2.6.7.7.2 1.3.7 1.4 1.5-.1.1-.2.3-.3.3-3.6.9-6.9.3-9.9-2-.7-.6-1.6-1-2.4-1.3-.3-.1-.6 0-1 .1-.9 1.2.5 3-1 4.2-.5-.2-.9-.4-1.4-.6-.9-2.5-1.3-5.1-2.9-7.2-.3-.3-.6-.5-1-.3-.3.2-.6.4-.7.7-.1.3-.1.7-.1 1.1.1.5.3 1.1.5 1.6-.2.5-.8 1-1.1.6-1.4-1.5-2.6-3.1-3.9-4.6-.3-.4-.9-.4-1.4-.6-.7.6-.9 1.4-.6 2.1.6 1.1 1.3 2.2 2 3.3l.1-.2zM38.1 128.6c-2 1-2.5 3.1-4.5 4-.5 0-1.2-.1-2.1-.2-1 .8-2.1 1.8-3.2 2.7-.9-.4-1.7-.7-2.7-1.1-.7.3-1.6.6-2.4.9-.5-.2-1.1-.8-.7-1.2 2.6-2.9 5.2-5.7 8.4-8 .3-.2.6-.3 1-.4.1.3.5.7.4.9-.5 1-1.1 1.9-1.7 2.8-.1.6.1 1.2.6 1.4.5.2 1.1.1 1.6 0 .3-.1.7-.4.9-.6.4-.4.7-.9 1-1.3.2-.3.4-.6.5-1 .2-.3.3-.7.5-1.2.1-1.2.2-2.7.3-4.3.4-.3.8-.7 1.3-.9.2-.1.7.3.8.5.1.5.1 1.1 0 1.6-.2 1.1-.5 2.1-.7 3.1.6 1 1.3 1.3 2.3.6 1.8-2.5 1.3-5.7 2.1-8.4.5 0 1-.1 1.2 0 1.1.9 2.2 1.9 3.3 2.9.5.4.7 1.5.4 2.1-.4.8-.7 1.7-1.3 2.4-1.1 1.4-2.4 2.8-3.7 4.1-.2.2-.6.2-1 .4-.9-.4-1.6-1-2.6-1.8z"/>
    <path class="st3" d="M126.5 44.7c-.7-1.6-1.4-2.9-2-4.2 1.3-1.1 2.5-.8 3.6 0 .7.6 1.3 1.3 1.8 2.1 1.2 1.8 2.3 3.7 3.8 5.3 1 1.1 1.5 2.5 1.7 4 .2 1.8.3 3.7-.2 5.4-.3 1.2-1 2.4-2.4 2.8-.1-.1-.4-.2-.4-.3-.5-1.7-1.5-2.8-3.1-3.6-.6-.3-1-1-1.4-1.6-.2-.3-.4-.7-.3-1 .2-2.6-1.5-4.9-1-7.5-.1-.3-.1-.7-.1-1.4z"/>
    <path class="st2" d="M147.1 79.6c-6.3-.1-6.3-.1-14.4 1.8-.4-.2-.5-.5-.4-.9.4-.9 1-1.6 1.8-2 2.5-1.6 5.2-2.8 8-3.9.5-.2 1.1-.3 1.6-.4 1.1-.1 2.2-.1 3 0 1.3.8.4 1.9.9 2.6.3.2.6.5.9.6 1.1.1 2.2 0 3.3.1 1.1 0 2.2.4 3.3 1.2.5.7 1.1 1.6 1.7 2.5 5.5 2.7 5.8 2.9 7.3 4.7-.3.1-.7.5-.9.4-2.1-.8-4.2-1.5-6.1-2.5-3.3-1.7-6.5-2.9-10-4.2z"/>
    <path class="st3" d="M99.9 54c-.3 1.2-.5 2.4-.8 3.6.5 1.9 1.4 3.5 2.8 5 .9.3 1.9.6 2.9.9.1.2.3.3.3.4 0 .4-.2.7-.2 1.1-.1.3-.2.7-.3 1.1l1.8 3.3c-.4 1.6-1.7 2.4-2.3 3.3-1.6.6-2.9.3-4.1 0-.5-.1-.8-.6-.6-1.4 1.1-.3 2.4-.6 3.6-.9.3-.1.6-.4.9-.6.1-.1.2-.3.3-.5-.2-.9-.9-1.5-1.6-2.1-1.8-1.6-3.2-3.5-3.9-5.9-.2-.7-.8-1.2-1.5-1.6-1.1.5-1.6 1.2-1.4 1.9.4 1 .7 2.1 1.2 3.1.4.8.8 1.5 1.3 2.2-.3.1-.5.3-.6.2-2.6-1.3-4.1-3.6-5.2-6.1-.3-.7-.3-1.4-.4-2.2-.1-1 .2-1.9 1-2.4 1.6-1 3-2.1 4.5-3.1.5-.4 1.3-.2 2.3.7z"/>
    <path class="st2" d="M73.1 31.3c.7 1.3 1.7 2.3.8 3.7-1.9-.8-3.7-1.6-5.8-2.5-.6-.7-1.3-1.8-2.1-2.8-.9-1-2.1-.8-2.5.5-.1.3-.2.7-.2 1.1-1.2 1-2.4.5-3.5-.1-.8-.5-1.4-1.2-2.1-1.8-1-.8-2.1-1.5-3.4-1.6-.8.2-1.4.5-1.6 1.3.3.4.6.9.9 1.3-.1.1-.1.3-.2.3-.4.1-.7.2-1.1.2-3.1.1-6.2.2-9.3 1-.7.2-1.5.2-2.2-.2 1.8-1.7 4-2.5 6.3-3.1 1.1-.6.2-2.3 1.9-2.9.5-.1 1.3.3 2.2.6.9.2 1.8.3 2.6.5 1-.3 1.8-.6 2.9-.9 1.5.6 3.2 1.2 4.9 1.8.7-.3 1.4-.7 2.1-1 .2-.1.4 0 .8 0 1.6.5 2.7 2.1 4.4 2.8 1.4.5 2.9 1.2 4.2 1.8z"/>
    <path class="st3" d="M95.4 90.4c-.4.8-.7 1.6-1.2 2.5.2.6.5 1.2.9 2.1-.2.8-.5 1.8-.7 2.8.3 2 2.2 2.5 3.1 3.8.2.8-.2 1.5-.8 1.9-.3.2-.8.3-1 .2-1.2-1.2-2.7-1.9-4-2.7-.1-.4-.3-.8-.2-1.1.5-1.2 1.1-2.3 1.5-3.5.2-.7.1-1.4.2-2-.2-.3-.3-.5-.5-.6-.7-.5-1.6-.4-1.9.2-.2.5-.6 1-.6 1.5-.2 1.3-.9 2.4-1.6 3.5-.5.8-1.8 1-2.4.4-1.2-1.2-2.2-2.5-2.8-4-.4-.8.1-2.5.8-3 1.2-.8 2.5-1.5 3.7-2.2.8.3 1.7.5 2.5.7 1.6-.7 2.4-1.9 2.7-3.4.3-1.3 1-2.3 1.8-3.3.3-.4.9-.6 1.4-.8.4-.1.7.1.8.5-.9 1.2-1.8 2.3-2.5 3.2-.6 1.4.2 2.3.8 3.3zm10-80.5c3.4.7 6 2.7 8.2 5.2.7.8 1.1 1.9 1.7 2.8.2.3.2.7.3 1 1.3 3.4 1.5 6.8-.6 10.5-1.3 1.5-2.9 3.6-5.5 4.3-.8-.7-.6-1.6-.6-2.6l2.4-3.6c.4-.6.7-1.3.6-2.1-.2-1.1-.2-2.1.2-3.2.2-.6 0-1.5-.1-2.1-.3-1.4-.8-2.8-1.1-3.8-1.4-2.5-3.4-3.9-5-5.7-.2-.2-.1-.6-.2-1l-.3.3z"/>
    <path class="st2" d="M53.9 38.2c-1.4-.2-2.8.8-4.3.2-.2-.1-.3-.2-.4-.3.1-.7.1-1.4.2-2-1.2-1.4-3-.4-4.2-1.3.3-.2.5-.4.8-.4 1.8-.1 3.6-.5 5.4-1 .4-.1.9.2 1.4.3-.1.5-.2.9-.3 1.4.5.4 1 .8 1.5 1.3 1-.2 1.9-.5 2.8-.7 1 .2 1.3 1.3 2.1 1.8 1.4.6 2.8.1 4.2-.2.9-.6 1.4-1.3.7-2.3.1-.1.2-.3.3-.3 2.5.2 6.2 1.5 8.6 3.2.3.2.4.6.2.9-.1.1-.3.3-.4.3-1.1-.1-2.2-.2-3.3-.2h-6c-1.6.6-3.1 1.3-4.7 1.8-1.1.3-2.2.1-2.9-.9-.2-.3-.4-.6-.7-.9-.4-.3-.7-.4-1-.7z"/>
    <path class="st3" d="M110.9 83c-.5-.2-1.1-.5-1.6-.4-2.1.5-4-.3-5.9-.6h-.6c-2.6-1.9-2.6-1.9-6-2-3.1.8-5.2 2.6-6.3 5.6-.1.4-.5.5-.9.3-.1-.1-.3-.2-.3-.4-.1-.5-.3-1-.3-1.5.2-1.1.7-2.1 1.6-2.8.7-.6 1.6-1 2.2-1.6 1.9-2.3 4.3-3.4 7.1-4 1.5 0 2.9.5 3.8 1.8 1.2 1.8 2.9 2.8 4.8 3.4.5.2 1.1.3 1.5.5.7.4.9 1.1.7 1.9l.2-.2zm9.8-13.6c1.9-.2 3.2-1 4.2-2.1 1.2-1.4 2.3-2.9 3-4.6.4-.8.5-1.8 1.4-2.3 1.1 2.3 2.1 4.7 1.4 7.3-.3.3-.5.6-.8.8-1.9 1.2-3.7 2.3-5.5 3.4-4.1-.8-7.9-2.1-11.3-4.3-.5-.3-.8-1-.6-1.4.2-.5.6-.9 1.2-.9h.5c.2 0 .4.1.7.1 1.7 1.3 3.4 3 5.8 4zM71 50.9c1.4.5 3.1 1.2 4.8 1.9 1.3.5 2.1 1.5 2.7 2.7.5.9.5 1.6 0 3.7-1.3.1-1.7-1.2-3.1-1.6h-2.3c-.5-.3-1-.6-1.4-1-1.3-1.3-2.8-1.7-4.6-1.5-1.1.2-2.1.6-3.3.9-.1-.3-.4-.8-.4-1.2.1-1.3.6-2.5 1.6-3.4.1-.1.3-.1.6-.3.6.5 1.2 1.1 1.9 1.7 1.4.3 1.4-1.5 3.5-1.9zm-58.5 51.5c.4-.5.9-1.1 1.4-1.5 1.6-1 2.6-2.5 3.1-4.1 1.4-.9 2.7-1.7 4.2-1.5 1.2.6 1 1.8 1.3 2.9.8.7 1.7 1.3 2.6 2.1-.9.4-1.7.8-2.5 1.2-.3.8-.7 1.6-1.1 2.4-.5.2-1 .5-1.4.7-.4 0-.8.1-1.1.1-1.6-.2-3.3-.4-4.9-.7-.8-.2-1.2-.8-1.6-1.6z"/>
    <path class="st4" d="M107.8 77.6c-1.4-1.2-1.5-2-1.1-2.6.5-.8 1.1-1.5 1.8-2.1.7-.7 1.6-1 2.6-.7 1 .3 2.1.7 3 1.3 1 .5 1.8 1.4 2.2 2.4.5 1.4 1 2.8 1.3 4.2.1.7-.1 1.5-.8 1.9-.3.2-.8.3-1 .2-.6-.4-1.2-.8-1.7-1.4-1.8-1.9-3.7-3.7-6.3-3.2z"/>
    <path class="st3" d="M112.6 108c-.8-.2-1.5-.4-2.2-.6-.2-.4-.4-.7-.4-1 0-.3.2-.8.4-.9 1.9-1.1 3.9-2 6.2-3.2.7-.8 1.7-1.9 2.6-2.8.2-.6.4-.9.5-1.2.3-1.4.5-2.9.9-4.3.1-.5.5-.9.7-1.4.2.1.5 0 .5.1 1.2 3.3.7 6.5-.6 9.7-1.2 2.9-3.3 4.8-6.5 5.3-.8.1-1.5.2-2.1.3zm-11.2-61.9c-.1-.6-.3-1.1-.1-1.6.9-2.1 2.2-3.8 4.6-4.7 1.7-.2 3.5-.4 5.3-.6.9-.1 1.8.3 2.5 1-.1 1-.3 2-.4 3-.7 1.2-1.4 2.2-2.8 3h-3.6c-.7-.6-1.3-1.3-1.9-1.8-1.7-.3-2.4 1.1-3.6 1.7zM62.8 70.5c1.6-.3 2.7-.5 3.7-.7.6.2.8.5.7.8-.5 2.1-1.9 3.5-3.7 4.5-1.5.4-2.9.3-4.4.2-2.5-.2-3.9-1.7-4.6-3.8.2-1.5 1.2-2.1 2.2-2.6.5-.2 1.1-.4 1.6-.2 1.4.6 2.9 1.2 4.5 1.8zm11-4.1c-.3 1.7-.5 2.9-.7 4.1-.5 1.2-1.4 1.7-2.5 2-.2-.3-.6-.5-.6-.8.1-1.5.3-2.9.6-4.6-.1-.3-.2-.8-.3-1.3-.2-.9-.6-1.7-1.4-2.3-1-.8-2.1-1.5-3-2.2-.5-1.2-.2-2.2.7-3 .6-.5 1.4-.6 2-.2 1.5.8 2.7 2 3.4 3.5.7 1.5 1.2 3.1 1.8 4.8zM50 63.1c0-.5-.1-1.2.1-1.6 1.3-2.2 3.1-4.1 5.3-5.4.3-.2.7-.3 1.2-.5 2.2.3 4.3 1.2 6.3 2.4.2 1.3-.5 2.2-1.3 2.9-.8.7-1.9 1.1-3 .7-.2-.1-.3-.1-.5-.2-1.6-.9-3.2-.7-4.8 0-1.2.5-2.3 1.1-3.4 1.6l.1.1zm16.5 28.7c-.2.3-.4.7-.7.7-1.3.2-2.6.3-3.6.4-3.8-1-7.3-2.2-10.5-4-.3-.2-.7-.3-.9-.6-.2-.2-.5-.6-.5-.9 0-.3.4-.5.6-.8 2.4 1 5 1.1 7.4.9.4-.1.6-.1.7-.2.5-.3.9-.6 1.4-.9 1.2.3 1.2.3 1 1.2-.2 1.5 0 2.2 1.1 2.7 1.3.7 2.7 1.3 4.1 1.5 0 .1-.1 0-.1 0z"/>
    <path class="st2" d="M139.1 116c-1.2-.7-2.5-1.5-3.7-2.3-.3-.2-.3-.6-.4-1 0-.1.1-.3.1-.6 2.8-.7 5.7-.8 8.7-.3 1.6.3 3.2.9 4.4 2 .2.2.4.7.3 1 0 .3-.3.7-.6.8-.5.2-1 .3-1.6.4-2.4.4-4.7.1-7.2 0z"/>
    <path class="st4" d="M87.7 40.1c.3.6.7 1 .8 1.5.4 2.1.5 4.3.2 6.5-.5-.2-.9-.2-1.1-.4-2.2-2.9-4.9-5.4-7.6-7.8-.6-.5-1-1.1-1-1.9 0-.3.2-.7.4-.9.2-.2.8-.4.9-.2 2.2 1.8 4.8 2.5 7.4 3.2zm17.8 79.6c.1-.3 0-.7.2-1 .2-.3.5-.6.8-.8 3.7-2.2 7.6-3.7 11.9-4 .9-.1 1.8-.2 3.1-.4 1.4.2 3.3.2 5 .9.3.1.5.6.5.9 0 .3-.3.7-.6.8-.5.2-1.1.2-1.6.2h-3.9c-2.8 0-5.5.4-8.1 1.4-2.4.9-4.9 1.6-7.5 1.9l.2.1zm-4.7 2c.1.7-.2 1.4-.5 2.1-.8 1.8-.7 1.8 1.4 2.4.3.1.5.4.8.6-2.4.7-6 .7-9.1 0-.8-.2-1.3-.5-2.2-1.4 1-1.7 2.2-3.3 3.9-4.5.2-.2.7-.1 1.1-.2.4.5.8 1.1 1.3 1.8.4 0 1 .1 1.5 0 .7-.2 1.4-.5 2.1-.7l-.3-.1z"/>
    <path class="st3" d="M49.9 63c-.6 2 .8 3.4 1.8 5-.3.8-.6 1.7-.9 2.5-.3.8-.7 1.7-1.1 2.5-.4.8-.3 1.8-1.5 2.1-2.1-.7-3.7-2.1-4.9-4.4.2-.7.3-1.6.6-2.4.2-.6.9-.7 1.3-.3.3.4.6.9 1 1.3.6.6 1.1.6 1.9 0 .1-.1.2-.3.3-.4 0-2.2.3-3.6 1.2-5.7 0-.1.3-.1.5-.2h-.2zm34.7-26.6c-.8-1-1.6-1.8-2.2-2.7-.7-1-.5-2 .5-2.9.3-.2.6-.4 1.1-.6 2.1-.1 3.7 1.1 5.4 2.2.7 1.3 2.2 2 2.6 3.4.1.3-.3.6-.4.9-.2.1-.3.2-.5.2-2-.1-4-.3-6.5-.5zm25.7 24c-.4.2-.9.6-1.3.6-1.6.1-3.3 0-4.8-.5-1.1-.8-1.6-2-1.9-3.5.3-.5.6-1.2 1.1-1.6 1.7-1.5 3.1-3.1 3.9-5.2.1-.3.5-.5.7-.8.7 0 .9.6.7 1.1-.6 1.7-1.4 3.3-2 4.8.1 1.1.5 1.6 1.1 2.1 1 .8 2 1.7 2.5 3z"/>
    <path class="st4" d="M75.8 122.6c1 .2 1.7.3 2.4.5.4.1.5.5.4.9 0 .4-.2.7-.6.8-2 .6-4 .5-6 .5-1.5 0-2.9-.1-4.4-.3-.5-.1-1-.5-1.4-.8-.5-.3-.4-1.1.1-1.3.7-.3 1.3-.6 2-.8.7-.3 1.3-.5 2.2-.8.7.5 1.5 1.2 2.4 1.9.4-.4.9-.6 1.2-1 .2-.2 0-.7-.1-1l-.6-1.5c0-.1.1-.3.2-.4.2-.2.7-.2.8.2.6.8 1 1.8 1.4 3.1zM37.6 80.9c.4 0 .8-.2 1-.1 2.3 1.1 4.5 2.4 6.7 3.5.7.4 1.1.9 1.3 1.7-.2.9-.3 1.8-.5 2.6-.1.1-.2.3-.4.4-1.4.6-2.8.4-4.1-.1-.2-.3-.6-.6-.6-.9-.6-2.7-1.9-5.1-3.3-7.4.1.2-.1.3-.1.3z"/>
    <path class="st3" d="M97.6 34c.4-.3.9-.7 1.2-.9.5-.1.8-.2 1.2-.2 1.6.2 3.3-.1 4.5.2.9.5 1 1.1.8 1.6-.3.8-.7 1.6-1 2.3-2.1 1.3-4.1 2.3-6.4 1.6-.5-.3-.8-.7-.7-1.3.1-1.1.3-2.2.4-3.3zM82.7 71.4c-.6 2-1.8 3.6-3.2 5-.2.2-.7.4-1 .3-.2 0-.4-.4-.6-.7-.1-.1-.1-.4-.1-.5.1-2.2.3-4.3-.7-6.3 1.2-.7 2.2-1.3 3.7-2.2-.8-.2-.3-.2-.1 0 1 1.3 1.7 2.7 2 4.4zm30.4 12.8c1.9 1.3 3.3 2.9 4.4 4.8.4 2.3.1 4.5-.3 6.7-.4 1.9-1.3 3.4-2.9 4.5-.8.5-1.5 1-2.3 1.5-.5.3-1.3.3-2.6-.2 4-3 4.2-3.3 6.9-7.7-.1-.5-.2-1.3-.4-2-.8-2.1-1.6-4.1-2.4-6.2-.2-.5-.2-1.1-.3-1.6l-.1.2z"/>
    <path class="st2" d="M154.8 129.2c-.3.5-.5.8-.7 1.1-.1.1-.3.1-.6.2-2.3-1.5-3.9-3.7-5.2-6.2-.5-1-1.1-1.9-1.7-2.8-.3-.4-.8-.7-1.1-1.1.2-1 .8-1.3 1.6-1.4 1.2.4 2.5.7 3.3 2 .2.8.4 1.6.6 2.6 1.2 1.7 2.8 3.2 3.8 5.6z"/>
    <path class="st3" d="M39.3 72.6c.3.1.8 0 1 .2 1.8 2.4 4.3 3.8 6.8 5.3.6.4 1.2.7 1.7 1 0 1.2-.3 2-1.3 2.3-1.3.1-2.3-.8-3.5-1.3-1-.5-1.9-1-2.8-1.6-1.1-.7-1.9-1.7-2.4-2.9-.4-1-.5-2.1.5-3z"/>
    <path class="st4" d="M107.4 22.5c.2.3.3.5.3.6.6 1.3 1.5 2.7.4 4.1-1.3 1.6-2.9 2.8-5.2 2.5-.3 0-.6-.4-.9-.6-.3-1.1-.1-2.2.4-3.1.6-1.1 1.3-2.2 2.1-3.2.7-.7 1.6-1 2.9-.3z"/>
    <path class="st3" d="M38.5 88c-.5 1.7-1.8 1.6-3.3 1.4-.2-.2-.5-.4-.6-.7-.5-1.8-1.3-3.4-2.8-4.7-.7-.7-.7-1.4.1-3.1.5.1 1.1 0 1.5.2 1 .5 1.8 1.2 2.5 2.1 1.2 1.4 2.1 3 2.6 4.8zM78 30.3c-.1-.7-.3-1.4-.4-2.1 1.1-2.8 2.3-5.4 5-7 1.7 3.4 1.7 3.4 1.7 5.9-1.1.5-2.2 1.1-3.3 1.7-1 .5-1.6 1.4-3 1.5zm22.8-11.6c-1.3.3-2.4.6-3.3.8-1.2-.4-2.1-1-2-2.3.8-1.4 2-2.2 3.4-2.7 1.1-.5 2.2-.3 3.1.5 1.1 1 2.1 2.1 3.1 3.1-.5 1-1.5 1-2.4 1.3-.5-.3-1.1-.4-1.9-.7z"/>
    <path class="st4" d="M49.4 57.4c-.1-.4-.4-.8-.4-1.1.9-2.9 3-4.9 5.7-6.3.4-.2 1-.2 1.4-.2 1.6.4 2.1 2.2 3.8 2.3 1.2.1 1.2.7.2 1.8-4.7-1.2-5.2-.8-8.5 1.8-.7.6-1.4 1.1-2.2 1.7zm56.1-47.7c-.5 0-1.2.2-1.6 0-3.1-1.5-6.3-2.9-9.8-3.4-.3 0-.6-.8-.9-1.1 1.3-1.4 2.7-2 4.5-1.8 1.1.1 2.2.4 2.9 1.3 1.6 1.7 3.1 3.5 4.7 5.3l.2-.3zM52 82.1c0-.3-.1-.5 0-.6l1.8-4.5c.5 0 .9-.2 1.1-.1.6.3 1.2.8 1.9 1.2-.3.8-.6 1.4-.9 2.2.1.7.6 1.2 1.1 1.7.5.5.9 1.1 1.3 1.5-.2 1-.8 1.4-1.6 1.5-.9.1-1.8 0-2.6-.6-.4-.3-.8-.7-1.2-1.1l-.9-1.2z"/>
    <path class="st3" d="M89.9 19.8c-.2-.1-.4-.1-.5-.3-1-1.9-.8-3.8.4-5.6.9-1.4 2.3-2.4 3.8-2.9 1-.4 2.1-.6 2.9-.8 1 .3 1.6.6 1.9 1.5-3.7 1-6.1 3.7-8.4 6.5-.1.6-.2 1.2-.2 1.7l.1-.1zM63.8 78c.7-.4 1.9-1.1 3.2-1.8.3.4.5.6.7.9-.4 1.9-2.5 2.6-3 4.5 0 .7.1 1.4.1 2-.4.6-1 .7-1.5.5-1.3-.4-2.2-1.3-2.9-2.4-.5-.7-.8-1.6-1.2-2.4 1-1.3 2.4-.4 4.6-1.3z"/>
    <path class="st4" d="M125.8 58c.6 1.6-.5 2.9-.6 4.5-.9 1.1-1.9 2.4-2.8 3.5-.9.4-1.6.5-2.2-.1-.4-.4-.7-1.1-.4-1.4 1-1.5 2-3 2.9-4.5.7-1.3 1.9-1.6 3.1-2zM83.9 17.9c-.5-1.1-1-2.1-1.6-3.2.7-1.6 1.8-3.1 3.1-4.4.6-.7 1.4-1.2 2.3-1.3.5-.1 1 .1 1.6.1-.2.4-.3.8-.5 1-1.5 1.4-2.5 3.1-2.9 5.2-.2 1.1-.9 2-2 2.6z"/>
    <path class="st3" d="M123.9 50.2c-.5.6-1 .4-1.5.2-1.5-.6-1.5-.6-3.3.1-1.3-.6-2.8-1.2-4.3-1.8-.4-.2-.7-1.1-.5-1.4.2-.3.4-.6.7-.8.3-.2.7-.2 1-.2 2.3-.2 4.3.7 6.2 1.8.3.2.6.4.8.7.5.4.7.9.9 1.4z"/>
    <path class="st4" d="M91.6 113.8c-1 3.5-2.7 6.7-4.4 9.9-.2.3-.5.5-.8.7-.1.1-.3.2-.4.1-.1-.1-.3-.3-.3-.5 1-3.9 2.7-8.1 4.1-10.6.2-.4.6-.6.9-.4.4.3.6.6.9.8z"/>
    <path class="st3" d="m103.3 105.1-.3 1.5c-.7.7-1.6.8-2.6.7-.2-.4-.5-.9-.7-1.2.1-.3 0-.5.1-.7.5-1.2 1-2.3 1.5-3.5.5-.3.9-.6 1.4-.9.5-.3 1.1-.2 1.5.2.7.6 1.3 1.2 1.6 2.2-.3 1.3-2 .5-2.5 1.7z"/>
    <path class="st4" d="M68.1 81.7c.4-.8.5-1.3.7-1.4 1.5-1.1 2.6-2.6 3.3-4.3.4-.8 1-1.5 1.9-1.9.3-.1.6-.1.9-.2.8 1.6-.3 2.9-1 4.1-1 2-2.7 3.2-5.8 3.7z"/>
    <path class="st3" d="M30.2 87.5c.3.3.6.6.8.9.2.6-.1 1.1-.5 1.5-.5.5-1.2.8-1.9 1.2-1.6.9-3.2 1.8-4.7 2.9-.2.2-.7.1-1 0-.4-.1-.6-.9-.3-1.4.2-.3.3-.7.6-.9.7-.6 1.4-1.4 2.2-1.6 1.7-.7 3.1-2 4.8-2.6z"/>
    <path class="st4" d="M41.6 61.3c.6 1.4.4 2.8.2 4.5-.8.8-1.6 1.7-2.5 2.6-1.2-.3-1.5-.6-1.4-1.3.4-2 1.2-3.9 2.7-5.4.3-.2.7-.3 1-.4zm23.7 3.4c.2.4.5.9.6 1.4.3.8-.2 1.4-1 1.4-1.8.2-3.6 0-5.2-.9-.5-.3-.9-.5-1.4-.8 1-.9 2.2-1.3 3.4-1.7 1.2-.3 1.5-.3 3.6.6z"/>
    <path class="st3" d="M93.1 107.5c1.2-.1 2.5-.3 3.7.3.2.3.6.5.7.8.6 1.5.5 2.6-.2 3-.9.4-1.8.2-2.5-.2-.8-.5-1.5-1-2.2-1.6-.6-.5-.3-1.5.5-2.3z"/>
    <path class="st4" d="M115 58.9c-.7.3-1.3-.1-1.9-.4-.9-.5-1.3-1.2-1.2-2.2.1-1.8 1-3 2.6-3.7.1-.1.3 0 .5 0 .6 2.7.6 2.7 0 6.3zm-25.2-39c1.3-.2 2.5-.1 3.7.4.4.2.6.5.5.9 0 .2-.1.3-.3.4-1.9 1.3-3.9 2-6.2 1.5-.3-.1-.7-.4-.8-.6-.1-.3.1-.6.2-1 .4.1.7.1 1.1.2 1-.3 1.2-1.3 1.8-1.9v.1zm18 68.4c0-.9.5-1.3 1.2-1.7.7-.4 1.6-.2 1.9.4.9 2 1.6 4 1.9 6.2 0 .1-.2.3-.3.3-.2 0-.3-.2-.4-.3-1.5-1.7-2.9-3.3-4.3-4.9zM93 40.4c.1.6.2 1.4.2 2.1 0 3.1-.1 6.2-.1 9.3 0 .3-.4.6-.7.8-.3.2-.7.1-.8-.2.1-1.2.3-2.3.2-3.4 0-2.7-.2-5.5-.2-8.2.1-.5.7-.7 1.4-.4zm-4-12.2c.3-.2.6-.5.9-.4 1.2.3 2.4.7 3.7.9 1.1.2 2.2.1 3.3.2-.3 1.4-1.5 1.3-2.4 2-1.7-.1-3.4-.9-5-1.7-.3-.2-.4-.7-.5-1z"/>
    <path class="st3" d="M24 86.3c-.8-1.5-1.3-2.5-1.9-3.4-.5-.8-1.1-1.5-1.5-2 0-1.1.6-1.4 1.2-1.7 1.1.2 1.6.9 2 1.7.8 1.5.9 3.1.2 5.4zm-11.7-1v-.5c1-1.3 2.1-2.4 2.7-4 .4-.8 1.6-.7 2.2.2.3.4.4 1 .5 1.4-.1.3-.2.5-.3.6-1.4 1.2-2.9 2-4.7 2.3-.1 0-.3-.1-.4 0z"/>
    <path class="st4" d="M66.6 91.9c.1-.2.1-.4.2-.5 2.2-.8 3.4-2.6 4.5-4.5.3-.5.5-.5 1.4.1-.3 1-.6 2-.8 2.9-1.5 2-3.4 2.4-5.5 1.9l.2.1zM118 54.6c.7.4 1.1.6 1.5.8.7 1.6.9 3.2-.1 4.6-.2.3-.5.5-.9.3-.1 0-.2-.2-.3-.4-.1-.1-.2-.3-.2-.5-.3-1.4 0-3 0-4.8zm-44.7 47.1c-.2 0-.5 0-.5-.1-1.2-1.6-1.8-3.4-2.8-5.1-.2-.3-.1-.7-.1-1 0-.5.6-1 1.1-1 .3 0 .8.3.8.5.5 2.3 1.7 4.4 1.4 6.8l.1-.1zm5.2 18.3c-1.8-2.2-2.1-4.7-2.6-7.2.9-.8 1.1-.9 1.3-.4.7 1.9 1.4 3.8 1.6 5.8 0 .6-.2 1.1-.3 1.8zm19.4-97.5c.2.2.4.4.4.5-.8 2.6-1.9 3.4-4.2 3.2-.2 0-.4-.2-.4-.3 0-.3-.1-.8.1-.9 1.4-.9 2.8-1.7 4.1-2.5zM25.6 75.2c-2.1.2-3.9-.5-5.2-2.1-.3-.3-.1-.7.2-.9.8-.5 1.8-.6 2.5-.1 1.1.7 1.9 1.6 2.4 2.7.1.1 0 .4 0 .5l.1-.1z"/>
    <path class="st4" d="M25.5 75.3c.8-.2 1.5.1 2 .6s.9 1.1 1.2 1.8c.2.3.2.7.2 1.1 0 .9-.1 1.8-.2 2.7 0 .3-.3.5-.5.9-.4-1.4-.6-2.6-1.1-3.8-.4-1.2-1-2.3-1.6-3.5.1.1 0 .2 0 .2zm54.3 5.4c-.5 1.1-.9 2.3-1.5 3.4-.2.4-.8.6-1.2.9-.8-1.1-.2-2.2-.3-3.1 1.9-2.1 2-2.1 3-1.2zm-13.6 6.7c1.1-1.2 1.9-2 2.6-2.8.1-.1.4-.2.5-.1.4.2.5.6.3.9-.5 1-1.1 1.9-2.1 2.5-1.1.8-2.4.8-3.7.3.7-1.3 2.2-.2 2.4-.8zm30.7-45.3c.5.1.9.2 1.4.4-.6 2.3-.8 4.4 0 6.5-.3.5-.8.8-1.3.6-.3-.1-.5-.6-.5-.9v-5.5c0-.3.2-.6.4-1.1zM19.5 92.6c-.6.5-1.3.6-2 .6-1.3-.1-2.5-.5-3.6-1.2-.2-.2-.5-.6-.4-.9 0-.3.3-.6.5-.9.8-.1 1.3.4 2 .7.7.3 1.3.6 2 .8.5.2 1.4-.1 1.5.9zm89.6 5.6c-.7.3-1.4.3-2-.4.3-.8.6-1.6 1-2.4.1-.3.5-.5.8-.6.1-.1.3 0 .5-.1.3 1.2.8 2.4-.3 3.5zm-44.7 14.6h-9l.1.1c.2-.3.3-.8.5-.8 2.5-.6 5-.4 7.4.1.3.1.5.5.7.7l.3-.1zm28.4 5.8c.2-1.8.7-2.7 1.7-3.2.9-.4 1.8-.3 2.7.2-.1.3-.2.7-.4.9-1.1.6-2.2 1.1-4 2.1zm11.3-29.7c-1.1.1-1.8-.4-1.6-1.1.3-1 0-1.7-.2-2.6-.1-.4.2-.6.6-.6.2 0 .4.1.5.2.2.3.5.5.6.8.2 1.2.1 2.3.1 3.3zm2.9 23.5c.4-.5.7-.9 1-1.3 1.2-.7 2.4-.5 3.6 0-.7 1.3-1.9 1.4-3.1 1.6-.5.1-1-.1-1.5-.3zm15.5-67.7c-1.3-.4-2.6-.7-3.4-2.1.3-.2.5-.4.8-.5 1.4-.2 2.4.4 3.1 1.6.1.4-.1.8-.5 1zm-19.4 51.6c.1-.5.2-1.1.5-1.5.7-.8 1.5-1.6 2.2-2.4.1.3.3.4.3.6-.1 1.2-.6 2.1-1.4 2.9-.4.4-.9.6-1.6.4zm40-4.4c1 .8 2 1.6 2.9 2.4.4.4.3 1-.4 1.4-.6-.6-1.3-1.2-1.9-1.9-.5-.6-.6-1.3-.5-2l-.1.1zM31 99.2c-.6.5-1.1 1.2-1.8 1.7-.2.2-.6.2-.9.1-.4 0-.4-1 0-1.4l1.5-1.5c.6-.4.8-.2 1.2 1.1zm72.3 11.6c.4-1 .7-2 1.1-3 .2-.4.6-.5.9-.2.2.2.5.6.5.8-.3 1.4-1.2 2.2-2.7 2.3l.2.1zM44.6 63.3c.3-.6.6-1.3.9-1.8.1-.2.6-.2.9-.2.1 0 .3.3.3.4-.1.5-.1 1.1-.3 1.5-.1.3-.5.5-.8.6-.2 0-.5-.3-1-.5zm56.4 58.6c1.2-1.4 2.7-2.2 4.5-2.2l-.1-.1c-.7 1.4-1.9 2.1-3.5 2.1-.4 0-.7 0-1.1.1 0-.1.2.1.2.1zm2.2-25.5c-.4 2-.8 2.2-2.8 1.9.7-1.1 1.5-1.8 2.8-1.9zm5.1-30.6c-.3-.2-.6-.3-.8-.5-.5-.5-.4-1 .2-1.2.7-.2 1.5 0 1.4.4 0 .3-.2.7-.4 1-.1.1-.3.2-.4.3zM17.7 86.4c.7.1 1.1.6 1 1-.1.7-.8 1.3-1.4 1.1-.4-.1-.8-1-.6-1.3.3-.3.7-.6 1-.8zm56.7 18.7c-.5 0-1-.3-1.1-.8-.1-.8 0-1.7 0-2.5l-.1.1c.7.3 1 1 1.1 1.7.1.5 0 1.1 0 1.6l.1-.1zm-7.3-8.2c-.1.1-.3.3-.4.3-.7 0-1-.2-1-.9 0-.1.3-.4.3-.4l.9.6c.1 0 .2.2.2.4zm36.8-47.3c-.2-.1-.4-.1-.5-.2-.1-.1-.3-.3-.3-.4.3-.4.6-.8.9-1.1.1-.1.3-.1.5-.1.4.2.6.4.3.7-.2.4-.6.7-.9 1.1zm6.9 33.5c.9 0 1.8.2 2.4 1.1l.2-.2c-.9-.1-1.8-.3-2.4-1l-.2.1zm-36.5 22.1c.3.2.5.4.8.7.1.1.1.3.1.5 0 .1-.1.3-.2.4-.1-.2-.4-.4-.4-.7-.1-.3 0-.7-.1-1l-.2.1zm-7.7 8.8c-1 .1-2 .2-2.2-1.1l-.2.2c.5 0 1 0 1.4.1.5.1.8.5.8 1l.2-.2zm64.6 2.8c.8-.4.8-.4 1.7.1-.9.3-.9.3-1.7-.1z"/>
    <path class="st4" d="M103.1 110.6c-.2.5-.6.9-1.2 1-.1 0-.3 0-.5-.1-.4-.3-.3-.6.2-.7.5-.1 1.1 0 1.6 0l-.1-.2zm-36.6 3.5c.5.1 1 .1 1.5.2.1 0 .4.2.3.3-.2.4-.5.5-.8.4-.5-.1-.9-.4-.9-1l-.1.1zm-13.3-.1c-.2.3-.4.6-.6.8-.1.1-.3.2-.5.2-.1 0-.3-.1-.4-.2-.1-.3.1-.5.6-.6h1.1c-.1 0-.2-.2-.2-.2z"/>
    <path class="st4" d="M53.3 114.2c.2-.6.6-.8 1.2-1 .4-.1.7-.1 1.1-.2l-.1-.1c-.2.2-.4.6-.7.7-.5.2-1 .3-1.6.4l.1.2z"/>
    <path class="st0" d="M97.3 191.6c.3 1.1.6 2.1-.5 3-.8.1-1.5-.3-1.9-.9-.5-.6-.6-1.3-.3-2.1.3-.6 1.2-1 1.8-.7.4.2.7.5.9.7zm1.2-19.9c-.7.1-1.5-.3-1.8-.9-.3-.6-.1-1.5.3-2 .5-.5 1.3-.7 1.9-.5.5.2.9 1.1.8 1.8-.1 1-.5 1.5-1.2 1.6zm-2.4 4.9c1-.2 1.8.2 2.3 1 .2.3.3.7.2 1 0 .5-.6.9-1.2.9-1.8 0-2.3-1.2-1.3-2.9zm1.4 25.5c-1.3.8-1.5.8-2.3.2-.6-.5-.6-1.5 0-1.8.3-.2.7-.3 1-.4.3-.1.7 0 1 0 .5.6.4 1.3.3 2zm6.2-23.3c.1.7-.4 1.6-1.1 1.7-.7.1-1.3-.3-1.6-1.1-.2-.7.1-1.7.6-1.9.2-.1.4-.1.5-.1.8.1 1.5.7 1.6 1.4z"/>
</svg>
