<svg xmlns="http://www.w3.org/2000/svg" width="12.2" height="12.6" style="overflow:visible;enable-background:new 0 0 12.2 12.6" xml:space="preserve">
    <style>
        .st0{fill:#7a6a56}.st2{fill:#fff}
    </style>
    <path class="st0" d="M9.2 10.3c.2.4.4.8.5 1.1.1.2.1.4 0 .6 0 .1-.1.1-.2.2h-.3c-.3 0-.6-.1-.9 0-1.2.1-2.5.2-3.7.2-.6 0-1.1.1-1.7.2-.2 0-.4-.1-.6-.3v-.2l.3-.3c.1-.2.3-.3.4-.5.1-.1.1-.2.2-.3-.1-.1-.1-.2-.1-.2-.4-.3-.8-.5-1.2-.8C1.4 9.3 1 8.5.7 7.6.6 7.1.5 6.5.4 6 .1 4.9.1 3.8.2 2.8 0 1.4 0 1.4.1.8.2.8.3.7.4.7 1.3.5 2.1.3 3 .2c.5-.1.9-.1 1.4-.1.9-.1 1.7-.2 2.6 0h.4c1.1 0 2.2.2 3.3.6.3.1.6.2 1 .4.3.3.3.8.5 1.2v.5c0 1-.2 2.1-.3 3.1-.2 1-.6 1.8-1.1 2.6-.6.6-1.1 1.2-1.6 1.8zM1.1 3.1c-.1 0-.1.1-.1.1v1.6l.3 1.8c.2.9.5 1.8 1.1 2.6.1.1.3.2.5.3.4.3.9.6 1.4.7.2 0 .3.1.5.1.5.1 1 .1 1.5.1.6-.1 1.2-.3 1.7-.4.7-.3 1.2-.8 1.6-1.3.2-.3.4-.5.6-.8.3-.4.5-.8.6-1.3.1-.4.3-.7.3-.9.1-.7.1-1.1.2-1.6 0-.4.1-.8.1-1.2 0-.2 0-.4-.2-.6-.2 0-.4.1-.6.2-1.1.4-2.3.6-3.5.5-1.3 0-2.5 0-3.8.1-.6 0-1.3.1-1.9-.1-.1-.1-.2 0-.3.1zm1-.7c1.5-.1 2.9-.1 4.4 0h2.1c.7 0 1.4-.2 2-.5.1 0 .1-.1.1-.2s-.1-.2-.1-.2C9.3 1 8 .8 6.7.8H5.1c-.7 0-1.5.1-2.2.2-.6 0-1.1.1-1.6.3-.2 0-.3 0-.4.1l-.1.1c0 .1.1.2.1.3l1.2.6zm6.6 8.8c-.1-.2-.2-.4-.4-.4-.8.2-1.6.3-2.3.5-.5 0-1-.1-1.4-.1-.2 0-.4 0-.6.1-.1.1-.1.1 0 .3 3.6.1 2.9.1 4.5-.1.1-.1.2-.2.2-.3z"/>
    <path d="M1.1 3.1c.1-.1.2-.2.3-.1.6.2 1.3.1 1.9.1C4.6 3 5.8 3 7.1 3c1.2.1 2.4-.1 3.6-.5.2-.1.4-.2.6-.2.2.1.2.4.2.6 0 .4-.1.8-.1 1.2 0 .5-.1.9-.2 1.6-.1.2-.2.5-.3.9-.1.5-.4.9-.6 1.3-.2.3-.4.5-.6.8-.5.5-1 1-1.7 1.3-.5.1-1.1.3-1.7.4-.5 0-1 0-1.5-.1-.2 0-.3-.1-.5-.1-.5-.1-1-.3-1.4-.7-.2-.1-.4-.3-.5-.3-.6-.9-.9-1.7-1.1-2.7L1 4.7V3.1c0 .1 0 0 .1 0zM4 4.8c-.2-.3-.6-.3-.9-.3-.1-.1-.3 0-.3.1-.1.1 0 .4.1.5.3.1.5.4.9.5.3-.2.2-.5.2-.8zm.3 2.1c.3-.1.4-.3.4-.6 0-.2 0-.4-.3-.5-.1 0-.2 0-.2.1 0 0-.1.1-.1.2-.1 0-.1.1-.1.2 0 .3 0 .5.3.6zM4 8c-.1.2-.1.4.1.5.1 0 .1.1.2.1.2 0 .4-.2.4-.4s-.2-.4-.4-.3c-.1 0-.2 0-.3.1zm-.7-1.4c-.1.1-.2.1-.3.2-.2.1-.2.2-.1.3 0 .2.2.3.3.3.2 0 .5-.3.3-.5 0-.1-.1-.2-.2-.3z" style="fill:#f1f8f6"/>
    <path class="st2" d="M2.1 2.4.9 1.8c0-.1-.1-.2-.1-.3l.1-.1c.1 0 .2-.1.4-.1.5-.2 1-.3 1.6-.4C3.6.8 4.3.7 5.1.7h1.6c1.3.1 2.6.3 3.8.7.1 0 .1.1.1.2s-.1.2-.1.2c-.6.3-1.3.4-2 .5-.7 0-1.4.1-2.1 0-1.4 0-2.8 0-4.3.1zM8.7 11.2c-.1.1-.1.2-.2.3-1.6.2-.9.3-4.5.1-.1-.2-.1-.2 0-.3.2-.1.4-.1.6-.1.5 0 .9.1 1.4.1.7-.2 1.5-.3 2.3-.5.3 0 .4.2.4.4z"/>
    <path class="st0" d="M4 4.8c0 .3.1.6-.3.8-.3-.1-.5-.4-.8-.5-.1 0-.1-.3-.1-.5 0-.1.2-.2.3-.1.3 0 .7 0 .9.3zM4.3 6.9C4 6.8 4 6.6 4 6.3c0-.1 0-.2.1-.2 0-.1.1-.1.2-.2.1 0 .2-.1.2-.1.2.1.3.3.3.5-.1.3-.2.5-.5.6zM4 8c.1 0 .1-.1.2-.1.2 0 .4.1.4.3 0 .2-.2.4-.4.4-.1 0-.2 0-.2-.1-.1-.1-.1-.3 0-.5zM3.3 6.6c.1.1.2.2.2.3.1.2-.1.6-.3.5-.2.1-.3-.1-.3-.3 0-.1 0-.3.1-.3.1-.1.2-.1.3-.2z"/>
</svg>
