<svg xmlns="http://www.w3.org/2000/svg" width="46.3" height="49.4" style="overflow:visible;enable-background:new 0 0 46.3 49.4" xml:space="preserve">
    <style>
        .st0{fill:#7a6a56}.st2{fill:#fff}
    </style>
    <path class="st0" d="M45.7 5.9c.2 1 .4 1.7.5 2.4.1.3.2.7.1 1-.4 3.8.3 7.6-.2 11.3-.2 1.5-.5 3.1-.8 4.6-.2.8-.5 1.7-.7 2.5-.4 1.3-1 2.6-1.3 3.9-.5 2.4-1.6 4.5-3.8 7-.7.4-2 1.1-2.9 1.6-.8 1.1-.8 1.8-.5 2.5.7 1.2 1.3 2.4 2.1 3.7.3 1 .1 2-.7 2.8-.3.1-.6.3-.9.3-1.2 0-2.4-.1-3.6 0-3.1.1-6.2 0-9.3-.2-4.8-.3-9.6-1.1-14.4-1-.7 0-1.4-.1-2-.3-.9-.3-1.4-.9-1.3-1.9.4-.9 1.2-1.2 2-1.5.9-.6 2-.6 2.8-1.3.3-.3.4-.8.7-1.3-1.7-1.1-3.3-2-5-3.1-1-1.3-2-2.7-3.1-4.1-1.2-1.6-1.7-3.3-1.9-5.3-.3-4.8-.5-9.6-.4-14.5.1-2.2-.6-4.5.5-6.4C1 7.5.5 6.6 0 5.6c.1-.4.3-.9.4-1.3.8-.5 1.6-.9 2.3-1.3C3.4 2.2 4 1.5 4.6.8c.5-.2.8-.4 1.2-.4C8.7 0 11.6.1 14.5 0h1c3.2.5 6.5.6 9.8 1 4.3.5 8.5 1.5 12.7 2.3 1 .2 2 .5 3 .8 1.5.5 2.9 1.1 4.7 1.8zM4.8 30.2c.4.8.6 1.6 1.1 2.3 1.3 2 2.7 4 4.9 5.2 5.3 2.9 11 4 16.9 2.8 4.7-.9 8.7-3.1 11.6-6.6.6-1.8 1.1-3.2 1.7-4.7 1.5-3.5 2.1-7.3 2.5-11 .2-1.9-.1-3.8-.2-5.6 0-.7-.4-1.3-.6-2-.6.1-1.1.2-1.6.4-2.9.8-5.7 1.1-8.7.5-2-.4-4.1-.6-6.2-.5-1 .1-2.1-.2-3.1-.3-1.2-.1-2.4-.4-3.6-.3-1.9.2-3.8-.2-5.6-.5-2.5-.4-5.1-.7-7.6-1.6-.3-.1-.7-.1-1 .1-.2.2-.5.4-.6.7-.5 1.3 0 2.7-.2 4.1-.6 5.7-.2 11.3.3 17zm35.5-23c-.4-.2-.7-.5-1-.5-2.9-.6-5.7-1.3-8.6-1.8-2.4-.4-4.8-.9-7.2-1-2.2-.1-4.4-.4-6.7-.6-3.1-.2-6.2-.2-9.3.3-.4.1-1 .9-.8 1.1.2.3.4.7.6.7 3.6 1.2 7.4 1.9 11.1 2.1 2.2.1 4.5.3 6.7.5.7.1 1.4.3 2 .2 3-.3 5.8.3 8.7.9 1.2-.3 2.4-.5 3.5-.8.5-.1.7-.7 1-1.1zm-8.1 35.2c-8.8 2.9-10 2.1-16.5 1.1-.2.1-.3.1-.5.2-.2.2-.6.5-.6.7 0 .2.3.6.5.7.8.2 1.7.4 2.5.4 3.8.1 7.6.6 11.3 1.3 1.4.3 2.7 0 4.1-.4.3-.1.4-.4.6-.7-.3-2-.3-2-1.4-3.3z"/>
    <path d="M4.8 30.2c-.5-5.7-.9-11.3-.3-17 .1-1.4-.4-2.8.2-4.1.1-.3.4-.5.7-.7.3-.1.7-.2 1-.1 2.5.8 5 1.2 7.6 1.6 1.9.3 3.7.7 5.6.5 1.2-.1 2.4.2 3.6.3 1 .1 2.1.4 3.1.3 2.1-.1 4.1.1 6.2.5 2.9.5 5.8.3 8.7-.5.5-.1 1-.2 1.6-.4.2.7.5 1.3.6 2 .1 1.9.4 3.8.2 5.6-.4 3.8-.9 7.5-2.5 11-.6 1.4-1.1 2.9-1.7 4.7-2.9 3.5-6.9 5.6-11.6 6.6-6 1.2-11.6.1-16.9-2.8-2.2-1.2-3.6-3.2-4.9-5.2-.5-.7-.8-1.5-1.2-2.3zm9-6.9c1.4-.9 1.9-2.3 1.8-3.9 0-.3-.2-.6-.3-.9-.2-.4-.9-.6-1.3-.3-.3.2-.6.4-.7.7-.6 1.2-.8 2.5-.3 3.8.1.3.5.4.8.6zM8.4 18c.7 0 1.3-.3 1.5-1 .2-.8.4-1.6.5-2.5.1-.8-1.1-1.5-1.8-1-.6.4-1 .9-1 1.6-.1 1.1.1 2 .8 2.9zm4 13.4c.5-.3 1-.4 1.3-.8.6-.6.4-1.7-.2-2.3-.8-.7-2.1-.5-2.7.3-.3.5-.2 1.3.3 1.8.4.5.8.7 1.3 1zm5.5-3.9c.9-.9 1.3-1.7 1-2.8-.1-.3-.3-.6-.6-.7-.5-.2-1-.1-1.4.2-.4.3-.8.7-.7 1.2.1.9.5 1.5 1.7 2.1zm-7.3-3.8c-.2-.9-.5-1.6-1.4-1.9-.7-.3-1.3-.2-1.9.2-.2 1.7.1 2.4 1.3 2.8 1 .3 1.6-.2 2-1.1z" style="fill:#f1f8f6"/>
    <path class="st2" d="M40.3 7.2c-.3.4-.5.9-.8 1.1-1.1.4-2.3.6-3.5.8-2.9-.5-5.8-1.1-8.7-.9-.7.1-1.4-.2-2-.2-2.2-.2-4.4-.4-6.7-.5-3.9-.2-7.6-.8-11.3-2.1-.2 0-.4-.4-.6-.7-.2-.3.4-1 .9-1.1 3.1-.6 6.2-.6 9.3-.3 2.2.2 4.4.5 6.7.6 2.4.1 4.8.6 7.2 1 2.9.5 5.7 1.2 8.6 1.8.2.1.5.3.9.5zM32.2 42.4c1.1 1.4 1.1 1.4 1.5 3.4-.2.2-.4.6-.6.7-1.3.4-2.7.6-4.1.4-3.7-.7-7.5-1.3-11.3-1.3-.9 0-1.7-.2-2.5-.4-.2-.1-.6-.5-.5-.7 0-.3.4-.5.6-.7.1-.1.3-.1.5-.2 6.4.9 7.6 1.6 16.4-1.2z"/>
    <path class="st0" d="M13.8 23.3c-.3-.2-.6-.3-.8-.6-.6-1.3-.3-2.6.3-3.8.1-.3.5-.5.7-.7.4-.3 1.1-.1 1.3.3.1.3.3.6.3.9 0 1.6-.4 3-1.8 3.9zM8.4 18c-.6-.9-.8-1.8-.8-2.9 0-.8.4-1.3 1-1.6.7-.4 1.9.3 1.8 1-.1.8-.2 1.7-.5 2.5-.2.7-.8 1-1.5 1zM12.4 31.4c-.5-.3-.9-.6-1.3-.9-.6-.6-.7-1.4-.3-1.8.7-.9 1.9-1 2.7-.3.6.6.8 1.7.2 2.3-.3.3-.8.5-1.3.7zM17.9 27.5c-1.2-.6-1.6-1.2-1.7-2.1-.1-.5.3-.9.7-1.2.4-.3.9-.4 1.4-.2.3.1.5.4.6.7.3 1-.1 1.9-1 2.8zM10.6 23.7c-.4.9-1 1.3-2 1.1-1.2-.3-1.5-1.1-1.3-2.8.6-.4 1.2-.5 1.9-.2.9.4 1.2 1.1 1.4 1.9z"/>
</svg>
