<svg xmlns="http://www.w3.org/2000/svg" width="11.6" height="12.3" style="overflow:visible;enable-background:new 0 0 11.6 12.3" xml:space="preserve">
    <style>
        .st0{fill:#7a6a56}.st2{fill:#fff}
    </style>
    <path class="st0" d="M11.4 1.5c.1.3.1.4.1.6v.3c-.1.9.1 1.9 0 2.8 0 .4-.1.8-.2 1.1 0 .2-.1.4-.2.6-.1.3-.3.6-.3 1-.1.6-.4 1.1-.9 1.7-.2.1-.5.3-.7.4-.2.3-.2.5-.1.6.2.3.3.6.5.9.1.2 0 .5-.2.7-.1 0-.2.1-.2.1h-.9c-.8 0-1.5 0-2.3-.1-1.3 0-2.5-.2-3.7-.2h-.5c-.2-.1-.4-.2-.3-.5.1-.2.3-.3.5-.4.2-.1.5-.1.7-.3.1-.1.1-.2.2-.3-.5-.3-.9-.5-1.3-.8-.2-.3-.5-.7-.8-1-.2-.4-.4-.8-.4-1.3C.3 6.2.3 5 .3 3.8c0-.6-.1-1.1.1-1.6-.1-.3-.3-.6-.4-.8 0-.1.1-.2.1-.3C.3 1 .5.9.7.7c.1-.1.3-.3.4-.5.1 0 .2-.1.3-.1C2.2 0 2.9 0 3.6 0h.3c.8.1 1.6.1 2.4.2 1.1.1 2.1.4 3.2.6.3.1.5.2.8.2.3.2.7.3 1.1.5zm-10.2 6 .3.6c.3.5.7 1 1.2 1.3 1.3.7 2.7 1 4.2.7 1.2-.2 2.2-.8 2.9-1.6.2-.5.3-.8.5-1.2.4-.9.5-1.8.6-2.8 0-.5 0-.9-.1-1.4 0-.2-.1-.3-.1-.5-.2 0-.3.1-.4.1-.7.3-1.5.3-2.2.2-.5-.1-1-.2-1.5-.1-.3 0-.5 0-.8-.1-.3 0-.6-.1-.9-.1-.5.1-.9 0-1.4-.1-.6-.1-1.3-.2-1.9-.4h-.3c-.1 0-.2.1-.2.2-.1.3 0 .7 0 1-.1 1.4 0 2.8.1 4.2zm8.9-5.7c-.1-.1-.2-.1-.3-.1-.7-.2-1.4-.3-2.1-.5-.6-.1-1.2-.2-1.8-.2C5.3 1 4.8.9 4.2.8c-.8 0-1.5 0-2.3.1-.1 0-.3.2-.2.3 0 .1.1.2.2.2.9.3 1.8.5 2.8.5.5 0 1 .1 1.6.1.2 0 .3.1.5.1.7-.1 1.5 0 2.2.2.3-.1.6-.1.9-.2.1-.1.1-.2.2-.3zm-2 8.8c-2.2.7-2.5.5-4.1.3 0 0-.1 0-.1.1-.2 0-.2 0-.2.1s.1.2.1.2c.2.1.4.1.6.1 1 0 1.9.1 2.8.3.4.1.7 0 1-.1.1 0 .1-.1.2-.2-.1-.5-.1-.5-.3-.8z"/>
    <path d="M1.2 7.5c-.1-1.4-.2-2.8-.1-4.2 0-.3-.1-.7 0-1 0-.1.1-.1.2-.2h.3c.6.2 1.3.3 1.9.4.5.1.9.2 1.4.1.3 0 .6.1.9.1.3 0 .5.1.8.1.5 0 1 0 1.5.1.7.1 1.5.1 2.2-.1.1 0 .2-.1.4-.1.1.2.1.3.1.5 0 .5.1.9.1 1.4-.1.9-.2 1.9-.6 2.8-.2.3-.3.6-.5 1.1-.7.9-1.7 1.4-2.9 1.6-1.5.3-2.9 0-4.2-.7-.6-.3-.9-.8-1.2-1.3l-.3-.6zm2.2-1.7c.3-.2.5-.6.5-1 0-.1 0-.2-.1-.2 0-.1-.2-.1-.3-.1-.1 0-.1.1-.2.2-.1.3-.2.7 0 1l.1.1zM2.1 4.5c.2 0 .3-.1.4-.3.1-.2.1-.4.1-.6 0-.2-.3-.4-.5-.3-.1.2-.2.3-.2.5s0 .5.2.7zm1 3.4c.1-.1.2-.1.3-.2.1-.1.1-.4-.1-.6-.1-.2-.4-.1-.6.1-.1.1-.1.3.1.4l.3.3zm1.4-1c.2-.2.3-.4.2-.7 0-.1-.1-.2-.1-.2-.2-.1-.3 0-.4 0-.1.1-.2.2-.1.4 0 .2.1.3.4.5zm-1.8-1c0-.2-.1-.4-.4-.5-.2 0-.3 0-.5.1-.1.4 0 .6.3.7.3.1.5-.1.6-.3z" style="fill:#f1f8f6"/>
    <path class="st2" d="M10.1 1.8c-.1.1-.1.2-.2.3-.3.1-.6.1-.9.2-.7-.2-1.5-.3-2.2-.2-.2 0-.3-.1-.5-.1-.6 0-1.1-.1-1.7-.1-.9 0-1.9-.2-2.8-.5-.1 0-.1-.1-.2-.2 0-.1.1-.2.2-.3C2.6.8 3.3.8 4.1.8c.7.1 1.2.2 1.8.2.6 0 1.2.1 1.8.2.7.1 1.4.3 2.1.5.1 0 .2 0 .3.1zM8.1 10.6c.3.3.3.3.4.9-.1.1-.1.2-.2.2-.3.1-.7.2-1 .1-.9-.2-1.9-.3-2.8-.3-.2 0-.4-.1-.6-.1-.1 0-.1-.1-.1-.2s.1-.1.2-.2c0 0 .1 0 .1-.1 1.4.2 1.7.4 4-.3z"/>
    <path class="st0" d="M3.4 5.8c-.1 0-.2-.1-.2-.1-.1-.3 0-.7.1-1 0-.1.1-.1.2-.2s.3 0 .3.1.1.2.1.2c0 .5-.1.8-.5 1zM2.1 4.5c-.2-.2-.2-.5-.2-.7 0-.2.1-.3.2-.4.2-.1.5.1.5.3 0 .2-.1.4-.1.6-.1.1-.2.2-.4.2zM3.1 7.9l-.3-.3c-.2-.1-.2-.3-.1-.4.2-.2.5-.3.7-.1.2.1.2.4.1.6-.2 0-.3.1-.4.2zM4.5 6.9c-.3-.2-.4-.3-.4-.5-.1-.2 0-.3.1-.4.1 0 .2-.1.4 0 .1 0 .1.1.2.2 0 .2-.1.5-.3.7zM2.7 5.9c-.1.2-.3.4-.5.3-.3-.1-.4-.3-.4-.7.2-.1.3-.1.5 0 .2 0 .3.2.4.4z"/>
</svg>
