<svg xmlns="http://www.w3.org/2000/svg" width="459.5" height="262.4" style="overflow:visible;enable-background:new 0 0 459.5 262.4" xml:space="preserve">
    <style>
        .st0{fill:#7a6a56}
    </style>
    <path class="st0" d="M76.3 248.7c-1.4-1.6-3-3.4-4.4-5.2-2.1-2.6-3.4-5.6-4.3-8.8-1.5-5.2-3.5-10.2-5.7-15.1-2.8-6.2-5-12.6-6.9-19.2-1.9-6.8-4.7-13.2-8.4-19.3-5.8-9.6-11.6-19.3-17.9-28.7-1.7-2.5-3.6-4.9-5.6-7.7-.2-.7-.5-1.9-.8-3.2-1.1-1-2.3-2.1-3.5-3.2-1.2-1.1-2.3-2.3-3.5-3.5-2.5-2.5-4.7-5.3-6.4-8.4-2.3-4.1-4.4-8.3-6-12.7-.7-1.7-1.4-3.5-1.5-5.4-.1-1.2-.3-2.3-.6-3.5-1-3-.7-6-.1-9 .3-1.8.7-3.7.8-5.6.6-7.1 2.9-13.7 5.9-20.1 1.1-2.3 2.6-4.4 4.4-6.4 3-3.3 6-6.6 8.5-10.3.1-.2.3-.4.5-.5 5.1-5.5 10.2-11.1 15.3-16.5 1-1 2.1-1.9 3.2-2.7.7-.6 1.6-1.1 2.3-1.6 2.5-1.8 4.7-3.9 7.3-5.4 6.7-3.9 13.2-8 20.3-11.2 7.3-3.2 14.7-6.1 22.4-8.3 2.3-.6 4.6-1.1 6.8-1.8 5.8-1.9 11.9-2.5 17.9-3.8.7-.1 1.4-.2 2.1-.2 5.4-.2 10.8-.7 16.1-1.2 9.9-.9 19.7.2 29.2 3.1 8.7 2.7 17.4 5.4 26.1 8.3 1.6.5 3.1.9 4.7 1.4 10.4 2.8 20.6 6.4 30.3 11.1 4 1.9 7.9 4 11.4 6.9 1.4 1.2 3.1 2.1 4.8 3 9.3 5.1 19 9.1 28.9 12.8 2.4.9 4.9 1.7 7.4 2.1 4.6.7 9.2 1.9 13.9 1.9 6.8 0 13.6.5 20.4-.3 5.4-.6 10.7-1 16.1-1.3 1.2-.1 2.3-.3 3.5-.5.9-.2 1.8-.6 2.7-.6 4.7-.1 9.3-1.1 14-1.7 4.6-.6 9.3-1.3 13.9-1.9 1.2-.2 2.3-.4 3.5-.4 12-.7 23.9-1.1 35.9-.2 6.3.5 12.5 1.6 18.1 5 2 1.2 4.1 2.3 6.1 3.4 3.4 2 6.7 4.3 9.6 7.1 5.1 4.9 10.1 9.8 14.7 15.2 2 2.3 3.6 4.9 5.3 7.5 1.4 2.2 2.4 4.7 2.7 7.2.8 5.6 1.8 11.1 1.6 16.8-.1 3.8-.6 7.5-1.6 11.1-1 3.6-2.4 7.1-5.1 9.9-1 1-1.6 2.3-1.9 3.7-.1.6-.6 1.3-1 1.8-3.1 3.3-5.3 7.1-7.1 11.2-2.2 5.2-4.7 10.2-6.2 15.7-.4 1.3-1 2.6-1.6 3.9-3.7 7.3-7.4 14.6-11.1 22-1.7 3.3-3.5 6.6-5.1 10-2.1 4.4-4.3 8.8-6.1 13.4-2 5.2-4.4 10.3-7.4 15.1-1.2 2-2.4 4-3.5 6.1-3.1 6.2-7.5 11.3-12.4 16-5.3 2.5-10.7 3.8-16.5 3.8-1.9 0-3.7.2-5.6.5-2.3.4-4.7.5-7 .5h-28.9c-.9 0-1.9-.1-2.8 0-7.8.3-15.4-.8-23.2-1.4-1.2-.1-2.3-.3-3.5-.6-1.8-.5-3.7-.7-5.6-.7-1.2 0-2.4 0-3.5-.3-4.6-1.3-9.3-.9-14-1.1-3.7-.2-7.5-.2-11.2-1-1.4-.3-2.8-.3-4.2-.3-2.8-.1-5.6 0-8.5-.1-6.9-.1-13.5 1.1-20.2 2.6-6 1.3-11.8 3.1-17.5 5.2-3.5 1.3-7.1 2.4-10.8 2.9-5.3.8-10.6 2.2-16 2.1-2.1 0-4.2.4-6.3.6-1.9.2-3.7.5-5.6.6-2.6.2-5.1.3-7.7 1-1.3.4-2.8.3-4.2.4-1.4.1-2.8 0-4.2.3-9.1 1.9-18.2 1.2-27.4 1.1-3.8-.1-7.5-.3-11.2-.9-1.8-.3-3.7-.4-5.6-.5-4.2-.2-8.3-1.3-12.4-2.2-2.5-.5-5.1-1.1-7.5-2-6.5-2.7-13.4-4.2-19.9-6.9-.5-.2-1.1-.5-1.9-.9zM38.8 43.2c-.3 1-1 1.6-2 1.8-1.7.3-3.1.9-4.4 2.1-1.9 1.8-3.9 3.4-5.6 5.3-4.5 5.1-8.9 10.3-13.3 15.4-.5.5-.8 1.1-1.2 1.7-2.6 4.2-4.4 8.8-5.4 13.7-1 4.6-1.7 9.2-2.5 13.8-.2.9-.2 1.9-.2 2.8.1 4.3.8 8.4 2.5 12.3 1 2.4 1.8 4.8 3 7.1 2 4 4.1 7.9 7.1 11.3 4 4.4 8.1 8.5 13 11.8 1.8 1.1 3.7 2.1 5.3 3.4 4.9 3.8 10.2 6.7 15.6 9.5 4.8 2.5 9.6 4.9 14.9 6.2 5 1.3 9.9 3 14.9 4.2 4.5 1.1 9.1 2.4 13.8 2.3 1.6 0 3.3.2 4.9.4 2.3.3 4.7.6 7 .8 1.4.2 2.8.1 4.2.5 5.1 1.2 10.3 1.2 15.4 1.2 4.2 0 8.4-.5 12.6-1.3 5.3-1.1 10.7-1.6 15.9-2.8 3.7-.8 7.3-1.9 10.9-2.8 3.7-.8 7.3-1.6 10.8-2.9.6-.2 1.4-.3 2.1-.5 4.9-1.5 10-2.5 15.1-3.5 6.2-1.3 12.3-2.9 18.6-3.9 2.8-.4 5.5-1.1 8.3-1.7 6.9-1.4 13.8-2.4 20.8-3.4 2.3-.3 4.7-.4 7-.4 3.5 0 7 .2 10.6.2 2.4 0 4.7.3 7 .8 4.1.8 8.3 1.4 12.5 1.8 3 .3 6 .8 9 1.5 3.2.7 6.4 1.3 9.6 2.3 8.5 2.7 17.2 4.6 26.2 5.1 1.2.1 2.4.1 3.5.4 2.8.7 5.6.8 8.4 1 1.9.1 3.7.4 5.6.6 1.4.1 2.8.4 4.2.4 11 .1 22.1.1 33.1.2 2.1 0 4.2-.1 6.3-.8.9-.3 1.8-.3 2.8-.4 8.2-.9 16.1-2.8 23.7-6.1.6-.3 1.3-.6 1.9-.8 5-1.6 9.3-4.4 13.8-7 3.1-1.8 5.5-4.4 8.4-6.4 5-3.5 9.3-7.8 13.5-12.3 3.1-3.3 5.2-7.3 6-11.8 1.3-6.9 1.9-13.9.5-21-.3-1.6-.4-3.3-.5-4.8-1.4-4.9-3.8-9.1-7.3-12.7-1-1-1.7-2.2-2.7-3.3-1.7-1.9-3.3-4-5.2-5.7-5.4-4.9-10.9-9.6-17.1-13.5-7.1-4.5-14.7-7.3-23.1-7.7-.9 0-1.9.1-2.8-.2-5.4-1.2-10.8-.4-16.1-.4-4.4.9-8.9.7-13.3.8-2.6.1-5.2.2-7.7.6-2.1.4-4.2.6-6.3.8-1.6.2-3.3.2-4.9.6-2.1.6-4.2.7-6.3.8-2.1.1-4.2.2-6.3.9-1.5.5-3.2.5-4.9.6-1.6.2-3.3.2-4.9.5-2.3.5-4.6.6-7 .7-2.8.1-5.7.1-8.4.6-6.8 1.1-13.6.8-20.4.2-2.3-.2-4.7-.5-7-.7-.9-.1-1.9 0-2.8-.3-6.3-1.8-12.9-2.7-18.7-5.9-.8-.4-1.7-.7-2.6-1-5.4-2.3-10.8-4.6-16.1-7.1-3.6-1.7-7.1-3.6-10.3-6.1-1.8-1.4-3.9-2.6-6-3.7-8.6-4.9-17.8-8.3-27.2-11.2-5.8-1.8-11.7-3.3-17.5-5.2-8.5-2.8-17-5.3-25.6-7.7-2.5-.7-5-1.2-7.6-1.3-4.9 0-9.9-.1-14.8 0-4.7.1-9.4.3-14 1.2-5.2-.1-10.2 1.7-15.3 2.2C95 10.1 86 12 77.7 16l-.6.3c-9.5 3.5-18.3 8.5-26.8 13.9-4.6 2.9-8.8 6.2-12.8 9.9-.3.3-.4.8-.6 1.3.6.5 1.2 1.1 1.9 1.8zm347.4 200.2c2.3-1.3 4.3-3.3 6-5.6 1.9-2.4 3.9-4.7 5-7.6.5-1.3 1.2-2.5 1.9-3.7 3.2-5.4 6.4-10.9 8.9-16.8 1.3-3 2.5-6.1 3.9-9 3.5-7.2 7.2-14.3 10.8-21.4 2.8-5.7 5.7-11.3 8.5-17 .5-1 1-2.1 1.4-3.2 1.8-5.8 4.1-11.4 6.3-17.1 0-.1-.3-.5-.5-.5-.4.1-.9.2-1.3.4-3.8 3.2-7.6 6.3-11.8 8.9-6.3 4-9.6 5.6-16.4 8.1-9.5 3.6-19.3 5.8-29.5 6.2-2.6.1-5.2-.1-7.7.4-5.4 1.1-10.8-.1-16.1.2-2.3-.7-4.7-.5-7-.5-4.9-.1-9.9-.3-14.8-.4-1.2 0-2.4.1-3.5-.2-5.2-1.5-10.8-.9-16-2.4-7.1-.6-13.8-2.4-20.6-4.4-4.3-1.3-8.5-2.7-13-2.9-3.4-1-6.9-1.3-10.4-1.4-.7 0-1.4-.2-2.1-.3-7.1-1.5-14.4-2.3-21.7-2-1.6.1-3.2.3-4.9.6-3.2.7-6.4 1.3-9.7 1.7-2.6.3-5.1.4-7.6 1.2-2.7.8-5.6.6-8.3 1.3-2.9.7-5.9 1.3-8.9 1.8s-6 1.2-8.9 2c-3 .8-6 .8-8.9 1.8-2.4.8-5.1.7-7.5 1.9-2.6 1.3-5.5 1.3-8.2 2.1-5.9 1.7-11.8 3.2-17.7 4.6-2.7.7-5.5 1.4-8.3 1.5-4.5.2-8.7 1.7-13.2 2-5.3 1.5-10.7 1.4-16.1.9-5.1-.6-10.3-1.2-15.4-1.9-2.6-.4-5.1-.7-7.7-.7-5.5.1-10.7-.9-15.9-2.5-4.7-1.5-9.4-3-14.2-4.1-5.8-1.3-11.1-3.7-16.2-6.5l-7.5-3.9c-2.1-1.1-4.1-2.3-5.9-3.8-1.2-1-2.6-1.8-3.9-2.7-.7.4-.9.8-.6 1.3 1.2 1.7 2.6 3.3 3.8 5.1 3.5 5.5 7 11.1 10.4 16.7 1.9 3.2 3.7 6.5 5.6 9.7 4.5 7.6 6.9 15.9 9.3 24.2.7 2.3 1.5 4.4 2.4 6.6l6.3 14.1c.6 1.3 1 2.6 1.3 4 .8 3.5 2.1 6.7 4.1 9.7 1.9 2.8 4.2 5.1 7.3 6.4 2.6 1.1 5.2 2 7.9 3 1.3.5 2.7.8 4 1.3 5.3 1.8 10.7 3.5 16.2 4.7 5.8 1.3 11.6 1.4 17.4 2.5 11.3.6 22.5.8 33.8 0 2.6-.2 5.1-.6 7.7-.8 3.3-.3 6.5-.5 9.8-1.2 3.4-.6 7-.7 10.5-1 .5 0 .9-.2 1.4-.3 1.2-.2 2.3-.5 3.5-.5 4 .1 7.9-.8 11.8-1.5 4-.7 7.7-2 11.5-3.1 1.6-.5 3.1-1.1 4.6-1.6 7.8-2.7 15.6-4.9 23.9-5.7 2.8-.3 5.6-.8 8.4-.8h12c1.6 0 3.3.1 4.9.4 3 .6 6.1.7 9.1.7 4.5 0 8.9.1 13.3 1.1.7.2 1.4.2 2.1.2 5.9.3 11.6 1.6 17.5 2.1 2.8.2 5.6.6 8.4.7 8.2.1 16.4.3 24.7.3 6.6 0 13.2-.1 19.7-.2.9 0 1.9 0 2.8-.2 5.9-1.1 11.6-1 17.8-3z"/>
    <path d="M38.8 43.2c-.7-.6-1.3-1.2-2-1.8.2-.5.3-1 .6-1.3 4-3.6 8.2-7 12.8-9.9 8.5-5.4 17.3-10.4 26.8-13.9l.6-.3c8.3-4 17.3-5.8 26-8.5 5.1-.6 10.1-2.4 15.3-2.2 4.6-.9 9.3-1.1 14-1.2 4.9-.1 9.9 0 14.8 0 2.6 0 5.1.5 7.6 1.3 8.6 2.5 17.1 5 25.6 7.7 5.8 1.9 11.7 3.4 17.5 5.2 9.4 2.9 18.6 6.4 27.2 11.2 2 1.2 4.1 2.3 6 3.7 3.2 2.5 6.7 4.4 10.3 6.1 5.3 2.5 10.7 4.7 16.1 7.1.9.4 1.8.6 2.6 1 5.8 3.2 12.4 4.1 18.7 5.9.9.3 1.9.2 2.8.3 2.3.2 4.7.5 7 .7 6.8.6 13.6.9 20.4-.2 2.8-.5 5.6-.5 8.4-.6 2.3-.1 4.7-.2 7-.7 1.6-.4 3.3-.4 4.9-.5 1.6-.2 3.3-.2 4.9-.6 2.1-.6 4.2-.7 6.3-.9 2.1-.1 4.2-.3 6.3-.8 1.6-.4 3.2-.5 4.9-.6 2.1-.2 4.2-.4 6.3-.8 2.5-.5 5.1-.5 7.7-.6 4.5-.2 8.9.1 13.3-.8 5.4 0 10.8-.8 16.1.4.9.2 1.9.1 2.8.2 8.4.4 16 3.2 23.1 7.7 6.2 3.9 11.7 8.6 17.1 13.5 1.9 1.7 3.5 3.8 5.2 5.7.9 1.1 1.7 2.3 2.7 3.3 3.5 3.6 5.9 7.8 7.3 12.7.2 1.6.2 3.2.5 4.8 1.4 7 .8 14-.5 21-.8 4.5-2.9 8.4-6 11.8-4.1 4.5-8.5 8.8-13.5 12.3-2.9 2-5.3 4.6-8.4 6.4-4.5 2.6-8.8 5.4-13.8 7-.7.2-1.3.6-1.9.8-7.6 3.3-15.5 5.2-23.7 6.1-.9.1-1.9.1-2.8.4-2 .7-4.1.8-6.3.8-11 0-22.1-.1-33.1-.2-1.4 0-2.8-.2-4.2-.4-1.9-.2-3.7-.4-5.6-.6-2.8-.2-5.6-.3-8.4-1-1.1-.3-2.3-.3-3.5-.4-8.9-.5-17.6-2.4-26.2-5.1-3.1-1-6.3-1.7-9.6-2.3-3-.6-6-1.1-9-1.5-4.2-.5-8.4-1.1-12.5-1.8-2.3-.4-4.6-.7-7-.8-3.5-.1-7-.2-10.6-.2-2.3 0-4.7 0-7 .4-7 1-13.9 2-20.8 3.4-2.8.5-5.5 1.2-8.3 1.7-6.3 1-12.4 2.7-18.6 3.9-5.1 1-10.1 2-15.1 3.5-.7.2-1.4.2-2.1.5-3.5 1.3-7.2 2.1-10.8 2.9-3.7.8-7.2 1.9-10.9 2.8-5.3 1.2-10.7 1.7-15.9 2.8-4.2.8-8.4 1.3-12.6 1.3-5.2 0-10.3.1-15.4-1.2-1.4-.3-2.8-.3-4.2-.5-2.3-.3-4.7-.6-7-.8-1.6-.2-3.3-.4-4.9-.4-4.8.1-9.3-1.2-13.8-2.3-5-1.2-9.9-3-14.9-4.2-5.3-1.3-10.1-3.7-14.9-6.2-5.4-2.8-10.8-5.7-15.6-9.5-1.7-1.3-3.5-2.3-5.3-3.4-5-3.2-9.1-7.4-13-11.8-3-3.3-5.1-7.3-7.1-11.3-1.2-2.3-2-4.8-3-7.1-1.6-3.9-2.4-8.1-2.5-12.3 0-.9 0-1.9.2-2.8.8-4.6 1.5-9.3 2.5-13.8 1-4.8 2.8-9.4 5.4-13.7.4-.6.7-1.2 1.2-1.7 4.4-5.2 8.8-10.4 13.3-15.4 1.7-1.9 3.7-3.6 5.6-5.3 1.2-1.2 2.7-1.8 4.4-2.1 1.2-.4 1.9-1.1 2.2-2z" style="fill:#f7f5ef"/>
    <path d="M386.2 243.4c-6.3 2-12 1.9-17.5 3.1-.9.2-1.9.2-2.8.2-6.6.1-13.2.2-19.7.2-8.2 0-16.4-.2-24.7-.3-2.8 0-5.6-.4-8.4-.7-5.9-.5-11.6-1.8-17.5-2.1-.7 0-1.4-.1-2.1-.2-4.4-1-8.8-1.1-13.3-1.1-3.1 0-6.1-.1-9.1-.7-1.6-.3-3.3-.4-4.9-.4-4-.1-8-.1-12 0-2.8 0-5.6.6-8.4.8-8.2.8-16.1 3-23.9 5.7-1.6.5-3.1 1.2-4.6 1.6-3.8 1.1-7.5 2.5-11.5 3.1-3.9.7-7.8 1.5-11.8 1.5-1.2 0-2.3.3-3.5.5-.5.1-.9.3-1.4.3-3.5.3-7.1.3-10.5 1-3.3.6-6.5.9-9.8 1.2-2.6.2-5.1.6-7.7.8-11.3.8-22.5.7-33.8 0-5.8-1.1-11.6-1.2-17.4-2.5-5.5-1.2-10.9-2.9-16.2-4.7-1.3-.5-2.7-.8-4-1.3-2.6-1-5.3-1.9-7.9-3-3.1-1.3-5.4-3.6-7.3-6.4-2-3-3.3-6.2-4.1-9.7-.3-1.4-.7-2.7-1.3-4l-6.3-14.1c-1-2.1-1.8-4.3-2.4-6.6-2.4-8.3-4.9-16.7-9.3-24.2-1.9-3.2-3.7-6.5-5.6-9.7-3.5-5.7-6.9-11.3-10.5-16.8-1.1-1.8-2.5-3.4-3.8-5.1-.3-.5-.1-.9.6-1.3 1.2.8 2.7 1.6 3.9 2.7 1.8 1.6 3.8 2.8 5.9 3.8l7.5 3.9c5.2 2.8 10.4 5.2 16.2 6.5 4.8 1.1 9.5 2.6 14.2 4.1 5.2 1.6 10.5 2.6 15.9 2.5 2.6 0 5.1.3 7.7.7 5.1.8 10.2 1.4 15.4 1.9 5.4.6 10.8.6 16.1-.9 4.5-.3 8.7-1.8 13.2-2 2.8-.2 5.6-.8 8.3-1.5 5.9-1.5 11.8-3 17.7-4.6 2.7-.8 5.6-.8 8.2-2.1 2.3-1.2 5-1.1 7.5-1.9 2.9-1 6-1 8.9-1.8 2.9-.8 5.9-1.5 8.9-2s6-1.1 8.9-1.8c2.8-.7 5.6-.5 8.3-1.3 2.5-.7 5.1-.9 7.6-1.2 3.3-.4 6.5-1 9.7-1.7 1.6-.4 3.2-.6 4.9-.6 7.3-.2 14.5.6 21.7 2 .7.1 1.4.3 2.1.3 3.5.1 7 .4 10.4 1.4 4.5.2 8.8 1.6 13 2.9 6.7 2 13.5 3.9 20.6 4.4 5.2 1.6 10.8.9 16 2.4 1.1.3 2.3.2 3.5.2 4.9.1 9.9.3 14.8.4 2.3.1 4.7-.1 7 .5 5.4-.4 10.7.8 16.1-.2 2.5-.5 5.1-.3 7.7-.4 10.2-.4 20-2.6 29.5-6.2 6.8-2.6 10-4.1 16.4-8.1 4.2-2.6 8-5.8 11.8-8.9.3-.3.8-.4 1.3-.4.1 0 .5.4.5.5-2.2 5.7-4.5 11.3-6.3 17.1-.3 1.1-.8 2.2-1.4 3.2-2.8 5.7-5.7 11.3-8.5 17-3.6 7.1-7.2 14.2-10.8 21.4-1.4 2.9-2.6 6-3.9 9-2.5 5.8-5.6 11.3-8.9 16.8-.7 1.2-1.4 2.4-1.9 3.7-1.1 2.9-3.2 5.2-5 7.6-1.9 2.3-3.9 4.3-6.2 5.6zm4.7-47c-1.7 1.4-3.4 2.8-2.9 5.5 1.9 1.3 2.9 1.2 3.9-.4l.3-.6.3-.6c.9-1.7.7-2.3-1.6-3.9zM78 185.5c-.4.4-1 .8-1.4 1.3-.2.3-.3.9-.2 1.3.7 1.5 1.7 2.8 3.4 3.2.5.1.9-.1 1.2-.6.5-.9.5-1.8.2-2.7-.6-1.4-1.5-2.3-3.2-2.5zm-8.5.2c.2-.6.7-1.3.6-1.8-.2-1.4-1.1-2.5-2.3-3.3-.7-.4-1.8-.3-2.5.4-.5.5-.7 1.3-.3 1.8 1 1.5 2.4 2.7 4.5 2.9zM81 201.6c0-.2 0-.5-.1-.7-.6-1.3-1.9-2-3.4-1.9-1.1.1-2 1.5-1.5 2.6.7 1.6 3.6 1.9 4.7.5.2 0 .2-.3.3-.5zm24.2.6c-.1-1.7-.7-2.8-2.4-3-1.3-.1-2 .8-2.2 2.4.4.6.9 1.3 1.4 2 .4.5 1.3.5 1.9 0 .5-.4.9-.9 1.3-1.4zm-17.8-6c.8 1.4 1.2 2.8 2.5 3.5.5.3.9.1 1.2-.3.9-1 .7-2.1.5-3.3-.2-1-1-1.6-1.9-1.7-1-.1-1.9.2-2.3 1.8zm25.6.5c.4-.2.8-.4 1.1-.6.2-.1.3-.3.5-.5.6-.7.6-1.8 0-2.5-.8-1-2-1.3-2.9-.6-.5.4-.9.9-1.4 1.3.5 1.5 1.2 2.7 2.7 2.9zm-12.2 25c-.4.2-.9.3-1.2.6-1.4 1.1-1.4 2.4 0 3.5.4.3.8.5 1.2.7.5.2 1.5-.3 1.7-.8.5-1.9.1-3-1.7-4zm273.5 13.5c1.6.3 2.6-.4 3.2-1.8.5-1.1.1-2.2-.8-3-1.3-.5-2.2.1-2.7 1.2-.6 1.2-1.1 2.5.3 3.6zm-5.8-9.1c.4 1.3 1.1 2.1 2.3 2.3.9.2 1.8-.4 2.1-1.2.2-.7-.2-1.9-.8-2.4-.6-.5-1.9-.7-2.5-.1-.4.3-.7.9-1.1 1.4zM144 219.6c.1.8 0 1.5.3 2.1.4.9 1.6 1.3 2.3.9.6-.3 1.1-.8 1.1-1.6 0-.5-.1-.9-.1-1.5-.5-.2-1.1-.7-1.7-.7-.6-.1-1.2.4-1.9.8zm239.7-6.2c.6.7 1.3 1.3 2.4 1 1.3-.3 1.8-1.2 2.1-2.3-.2-.4-.3-.9-.6-1.2-1-1-2-.9-3 0-.7.8-1 1.6-.9 2.5zm-2.1-2.7c.3-1.2 0-2.2-1.2-2.8-.6-.3-1.3-.3-1.9 0-.7.4-1.1 1.6-.8 2.4.3.6.8 1.1 1.5 1.2 1 .2 1.7-.1 2.4-.8zm-277.9 28.1c-.3.4-.6.7-.8 1-.4.9 0 1.9.7 2.4 1 .6 2.5.5 3-.3.2-.3.3-.9.2-1.2-.4-1.5-1.5-2.2-3.1-1.9z" style="fill:#f2edda"/>
    <path class="st0" d="M390.9 196.4c2.3 1.6 2.5 2.3 1.7 4l-.3.6-.3.6c-1 1.6-2 1.7-3.9.4-.6-2.8 1.1-4.2 2.8-5.6zM78 185.5c1.7.2 2.6 1.2 3.2 2.5.4.9.3 1.8-.2 2.7-.3.5-.7.7-1.2.6-1.7-.4-2.8-1.6-3.4-3.2-.2-.4-.1-1 .2-1.3.4-.6.9-.9 1.4-1.3zM69.5 185.7c-2.2-.2-3.5-1.3-4.6-2.9-.4-.5-.2-1.3.3-1.8.7-.7 1.8-.8 2.5-.4 1.2.8 2.1 1.9 2.3 3.3.2.5-.3 1.1-.5 1.8zM81 201.6c-.1.2-.1.5-.2.6-1.1 1.4-4 1.1-4.7-.5-.5-1.1.3-2.5 1.5-2.6 1.5-.1 2.8.6 3.4 1.9v.6zM105.2 202.2c-.4.4-.8 1-1.3 1.4-.6.5-1.4.5-1.9 0-.6-.7-1-1.5-1.4-2 .2-1.6.9-2.5 2.2-2.4 1.7.2 2.3 1.3 2.4 3zM87.4 196.2c.4-1.6 1.3-1.9 2.2-1.7 1 .1 1.7.7 1.9 1.7.2 1.1.4 2.3-.5 3.3-.3.4-.7.6-1.2.3-1.2-.8-1.7-2.2-2.4-3.6zM113 196.7c-1.6-.2-2.2-1.4-2.7-2.8.4-.4.9-.9 1.4-1.3 1-.7 2.1-.4 2.9.6.6.7.6 1.7 0 2.5-.1.2-.3.3-.5.5-.3.1-.7.3-1.1.5zM100.8 221.7c1.8 1 2.2 2.1 1.6 3.9-.2.5-1.2 1-1.7.8-.4-.2-.9-.4-1.2-.7-1.3-1-1.3-2.4 0-3.5.4-.2.9-.3 1.3-.5zM374.3 235.2c-1.4-1.1-.9-2.4-.3-3.6.5-1.1 1.5-1.7 2.7-1.2.9.8 1.3 1.9.8 3-.6 1.3-1.6 2.1-3.2 1.8zM368.5 226.1c.3-.5.7-1.1 1.1-1.5.6-.5 1.9-.4 2.5.1.6.5 1 1.7.8 2.4-.3.8-1.2 1.4-2.1 1.2-1.2-.2-1.9-1-2.3-2.2zM144 219.6c.7-.3 1.3-.8 1.9-.8.6 0 1.2.5 1.7.7 0 .6.1 1.1.1 1.5 0 .8-.5 1.3-1.1 1.6-.7.4-2-.1-2.3-.9-.3-.6-.2-1.4-.3-2.1zM383.7 213.4c-.2-1 .1-1.8.8-2.5.9-.9 2-1 3 0 .3.3.4.8.6 1.2-.3 1.2-.8 2.1-2.1 2.3-1 .3-1.6-.3-2.3-1zM381.6 210.7c-.7.7-1.4 1-2.4.8-.7-.2-1.2-.6-1.5-1.2-.3-.8 0-2 .8-2.4.6-.4 1.3-.3 1.9 0 1.2.6 1.5 1.5 1.2 2.8zM103.7 238.8c1.6-.3 2.6.3 3.1 1.8.1.4 0 .9-.2 1.2-.5.8-2 1-3 .3-.7-.5-1.1-1.5-.7-2.4.2-.2.6-.5.8-.9z"/>
</svg>
