<svg xmlns="http://www.w3.org/2000/svg" width="114.9" height="65.6" style="overflow:visible;enable-background:new 0 0 114.9 65.6" xml:space="preserve">
    <style>
        .st0{fill:#7a6a56}
    </style>
    <path class="st0" d="M19.1 62.2c-.4-.4-.7-.8-1.1-1.3-.5-.6-.9-1.4-1.1-2.2-.4-1.3-.9-2.5-1.4-3.8-.7-1.6-1.3-3.2-1.7-4.8-.5-1.7-1.2-3.3-2.1-4.8-1.5-2.4-2.9-4.8-4.5-7.2-.4-.6-.9-1.2-1.4-1.9 0-.2-.1-.5-.2-.8-.3-.3-.6-.5-.9-.8l-.9-.9c-.6-.6-1.2-1.3-1.6-2.1-.6-1-1.1-2.1-1.5-3.2-.2-.4-.3-.9-.4-1.4 0-.3-.1-.6-.2-.9-.2-.8-.2-1.5 0-2.3.1-.5.2-.9.2-1.4.2-1.8.7-3.4 1.5-5 .3-.4.7-.9 1.1-1.4.7-.8 1.5-1.6 2.1-2.6l.1-.1c1.3-1.4 2.5-2.8 3.8-4.1.2-.3.5-.5.8-.7.2-.1.4-.3.6-.4.6-.4 1.2-1 1.8-1.4 1.7-1 3.3-2 5.1-2.8 1.8-.8 3.7-1.5 5.6-2.1.6-.2 1.1-.3 1.7-.5 1.5-.5 3-.6 4.5-.9.2 0 .3 0 .5-.1 1.3 0 2.7-.2 4-.3 2.5-.2 4.9 0 7.3.8 2.2.7 4.4 1.4 6.5 2.1l1.2.3c2.7.8 5.3 1.7 7.7 2.8 1 .5 2 1 2.9 1.7.4.3.8.5 1.2.7 2.3 1.3 4.8 2.3 7.2 3.2.6.2 1.2.4 1.9.5 1.2.2 2.3.5 3.5.5 1.7 0 3.4.1 5.1-.1 1.3-.2 2.7-.2 4-.3.3 0 .6-.1.9-.1.2 0 .5-.1.7-.1 1.2 0 2.3-.3 3.5-.4 1.2-.2 2.3-.3 3.5-.5.3 0 .6-.1.9-.1 3-.2 6-.3 9 0 1.6.1 3.1.4 4.5 1.3l1.5.9c.9.5 1.7 1.1 2.4 1.8 1.3 1.2 2.5 2.5 3.7 3.8.5.6.9 1.2 1.3 1.9.4.6.6 1.2.7 1.8.2 1.4.4 2.8.4 4.2 0 .9-.2 1.9-.4 2.8-.3.9-.6 1.8-1.3 2.5-.2.3-.4.6-.5.9 0 .2-.1.3-.3.4-.8.8-1.3 1.8-1.8 2.8-.6 1.3-1.2 2.6-1.5 3.9-.1.3-.3.7-.4 1-.9 1.8-1.9 3.7-2.8 5.5-.4.8-.9 1.7-1.3 2.5-.5 1.1-1.1 2.2-1.5 3.4-.5 1.3-1.1 2.6-1.9 3.8l-.9 1.5c-.8 1.5-1.9 2.8-3.1 4-1.3.6-2.7.9-4.1 1-.5 0-.9.1-1.4.1-.6.1-1.2.1-1.8.1h-7.9c-1.9.1-3.9-.2-5.8-.4-.3 0-.6-.1-.9-.2-.5-.1-.9-.2-1.4-.2-.3 0-.6 0-.9-.1-1.1-.3-2.3-.2-3.5-.3-.9-.1-1.9 0-2.8-.3-.3-.1-.7-.1-1.1-.1h-2.1c-1.7 0-3.4.3-5 .6-1.5.3-2.9.8-4.4 1.3-.9.3-1.8.6-2.7.7-1.3.2-2.6.5-4 .5-.5 0-1 .1-1.6.2-.5.1-.9.1-1.4.2-.6 0-1.3.1-1.9.2-.3.1-.7.1-1 .1-.4 0-.7 0-1.1.1-2.3.5-4.6.3-6.8.3-.9 0-1.9-.1-2.8-.2-.5-.1-.9-.1-1.4-.1-1.1 0-2.1-.3-3.1-.5-.6-.1-1.3-.3-1.9-.5-1.6-.7-3.4-1-5-1.7-.1-.2-.2-.2-.4-.3zM9.7 10.8c-.1.2-.3.4-.5.4-.4.1-.8.2-1.1.5-.5.4-1 .9-1.4 1.3l-3.3 3.9c-.1.1-.2.3-.3.4-.7 1.1-1.1 2.2-1.4 3.4-.2 1.1-.4 2.3-.6 3.5v.7c0 1.1.2 2.1.6 3.1.2.6.5 1.2.7 1.8.5 1 1 2 1.8 2.8 1 1.1 2 2.1 3.3 2.9.4.3.9.5 1.3.9 1.2.9 2.6 1.7 3.9 2.4 1.2.6 2.4 1.2 3.7 1.6 1.3.3 2.5.8 3.7 1.1 1.1.3 2.3.6 3.5.6.4 0 .8.1 1.2.1.6.1 1.2.1 1.7.2.3 0 .7 0 1 .1 1.3.3 2.6.3 3.9.3 1.1 0 2.1-.1 3.1-.3 1.3-.3 2.7-.4 4-.7.9-.2 1.8-.5 2.7-.7.9-.2 1.8-.4 2.7-.7.2-.1.3-.1.5-.1 1.2-.4 2.5-.6 3.8-.9 1.5-.3 3.1-.7 4.6-1 .7-.1 1.4-.3 2.1-.4 1.7-.3 3.5-.6 5.2-.8.6-.1 1.2-.1 1.8-.1.9 0 1.8 0 2.6.1.6 0 1.2.1 1.7.2 1 .2 2.1.3 3.1.5.8.1 1.5.2 2.3.4.8.2 1.6.3 2.4.6 2.1.7 4.3 1.1 6.5 1.3.3 0 .6 0 .9.1.7.2 1.4.2 2.1.2.5 0 .9.1 1.4.1.3 0 .7.1 1 .1h8.3c.5 0 1.1 0 1.6-.2.2-.1.5-.1.7-.1 2.1-.2 4-.7 5.9-1.5.2-.1.3-.2.5-.2 1.2-.4 2.3-1.1 3.4-1.7.8-.5 1.4-1.1 2.1-1.6 1.2-.9 2.3-2 3.4-3.1.8-.8 1.3-1.8 1.5-2.9.3-1.7.5-3.5.1-5.2-.1-.4-.1-.8-.1-1.2-.3-1.2-.9-2.3-1.8-3.2-.2-.2-.4-.6-.7-.8-.4-.5-.8-1-1.3-1.4-1.3-1.2-2.7-2.4-4.3-3.4-1.8-1.1-3.7-1.8-5.8-1.9h-.7c-1.3-.3-2.7-.1-4-.1-1.1.2-2.2.2-3.3.2-.6 0-1.3 0-1.9.2-.5.1-1 .2-1.6.2-.4 0-.8 0-1.2.2-.5.1-1 .2-1.6.2-.5 0-1 .1-1.6.2-.4.1-.8.1-1.2.2-.4 0-.8 0-1.2.1-.6.1-1.2.2-1.7.2-.7 0-1.4 0-2.1.1-1.7.3-3.4.2-5.1.1-.6-.1-1.2-.1-1.7-.2-.2 0-.5 0-.7-.1-1.6-.5-3.2-.7-4.7-1.5-.2-.1-.4-.2-.7-.3-1.3-.6-2.7-1.1-4-1.8-.9-.4-1.8-.9-2.6-1.5-.5-.4-1-.6-1.5-.9-2.2-1.2-4.5-2.1-6.8-2.8-1.5-.5-2.9-.8-4.4-1.3-2-1.1-4.1-1.7-6.2-2.4-.7-.1-1.3-.3-2-.3h-3.7c-1.2 0-2.3.1-3.5.3-1.3 0-2.5.4-3.8.6-2.2.6-4.4 1.1-6.5 2.1-.1 0-.1.1-.2.1-2.4.9-4.6 2.1-6.7 3.5-1.1.7-2.2 1.6-3.2 2.5-.1.1-.1.2-.2.3.3.1.4.2.6.4zm86.9 50c.6-.3 1.1-.8 1.5-1.4.5-.6 1-1.2 1.3-1.9.1-.3.3-.6.5-.9.8-1.4 1.6-2.7 2.2-4.2.3-.8.6-1.5 1-2.3.9-1.8 1.8-3.6 2.7-5.3l2.1-4.2c.1-.3.3-.5.3-.8.4-1.5 1-2.9 1.6-4.3l-.1-.1c-.1 0-.2 0-.3.1-.9.8-1.9 1.6-2.9 2.2-1.6 1-2.4 1.4-4.1 2-2.4.9-4.8 1.4-7.4 1.5-.6 0-1.3 0-1.9.1-1.3.3-2.7 0-4 .1-.6-.2-1.2-.1-1.8-.1-1.2 0-2.5-.1-3.7-.1-.3 0-.6 0-.9-.1-1.3-.4-2.7-.2-4-.6-1.8-.1-3.5-.6-5.1-1.1-1.1-.3-2.1-.7-3.3-.7-.8-.3-1.7-.3-2.6-.3-.2 0-.3 0-.5-.1-1.8-.4-3.6-.6-5.4-.5-.4 0-.8.1-1.2.2-.8.2-1.6.3-2.4.4-.6.1-1.3.1-1.9.3-.7.2-1.4.1-2.1.3-.7.2-1.5.3-2.2.5-.8.1-1.5.3-2.2.5-.7.2-1.5.2-2.2.5-.6.2-1.3.2-1.9.5-.6.3-1.4.3-2 .5-1.5.4-2.9.8-4.4 1.2-.7.2-1.4.3-2.1.4-1.1.1-2.2.4-3.3.5-1.3.4-2.7.4-4 .2-1.3-.1-2.6-.3-3.8-.5-.6-.1-1.3-.2-1.9-.2-1.4 0-2.7-.2-4-.6-1.2-.4-2.3-.7-3.5-1-1.5-.3-2.8-.9-4.1-1.6-.6-.3-1.2-.7-1.9-1-.5-.3-1-.6-1.5-1-.3-.3-.7-.5-1-.7-.2.1-.2.2-.1.3.3.4.7.8.9 1.3.9 1.4 1.8 2.8 2.6 4.2.5.8.9 1.6 1.4 2.4 1.1 1.9 1.7 4 2.3 6.1.2.6.4 1.1.6 1.6.5 1.2 1 2.4 1.6 3.5.1.3.2.7.3 1 .2.9.5 1.7 1 2.4s1.1 1.3 1.8 1.6c.6.3 1.3.5 2 .8.3.1.7.2 1 .3 1.3.5 2.7.9 4.1 1.2 1.4.3 2.9.4 4.3.6 2.8.2 5.6.2 8.5 0 .6 0 1.3-.2 1.9-.2.8-.1 1.6-.1 2.4-.3.9-.2 1.7-.2 2.6-.2.1 0 .2-.1.3-.1.3 0 .6-.1.9-.1 1 0 2-.2 3-.4s1.9-.5 2.9-.8c.4-.1.8-.3 1.2-.4 1.9-.7 3.9-1.2 6-1.4.7-.1 1.4-.2 2.1-.2h3c.4 0 .8 0 1.2.1.8.2 1.5.2 2.3.2 1.1 0 2.2 0 3.3.3.2 0 .3 0 .5.1 1.5.1 2.9.4 4.4.5.7.1 1.4.2 2.1.2 2.1 0 4.1.1 6.2.1 1.6 0 3.3 0 4.9-.1h.7c1.2-.5 2.6-.4 4.2-1z"/>
    <path d="m9.7 10.8-.5-.5c.1-.1.1-.2.2-.3 1-.9 2.1-1.7 3.2-2.5 2.1-1.4 4.3-2.6 6.7-3.5.1 0 .1 0 .2-.1 2.1-1 4.3-1.5 6.5-2.1 1.3-.1 2.5-.6 3.8-.6 1.1-.1 2.3-.2 3.5-.2H37c.6 0 1.3.1 1.9.3 2.1.7 4.2 1.3 6.3 2 1.4.5 2.9.8 4.4 1.3 2.4.7 4.7 1.6 6.8 2.8l1.5.9c.8.6 1.7 1.1 2.6 1.5 1.3.6 2.7 1.2 4 1.8.2.1.4.1.7.3 1.5.8 3.1 1 4.7 1.5.2.1.5 0 .7.1.6.1 1.2.1 1.7.2 1.7.2 3.4.2 5.1-.1.7-.1 1.4-.1 2.1-.1.6 0 1.2 0 1.7-.2.4-.1.8-.1 1.2-.1.4 0 .8 0 1.2-.2.5-.2 1-.2 1.6-.2.5 0 1-.1 1.6-.2.4-.1.8-.1 1.2-.2.5 0 1-.1 1.6-.2.6-.1 1.3-.1 1.9-.2 1.1 0 2.2 0 3.3-.2 1.3 0 2.7-.2 4 .1.2.1.5 0 .7 0 2.1.1 4 .8 5.8 1.9 1.5 1 2.9 2.1 4.3 3.4.5.4.9.9 1.3 1.4.2.3.4.6.7.8.9.9 1.5 2 1.8 3.2 0 .4 0 .8.1 1.2.4 1.8.2 3.5-.1 5.2-.2 1.1-.7 2.1-1.5 2.9-1 1.1-2.1 2.2-3.4 3.1-.7.5-1.3 1.2-2.1 1.6-1.1.7-2.2 1.3-3.4 1.7-.2.1-.3.1-.5.2-1.9.8-3.9 1.3-5.9 1.5-.2 0-.5 0-.7.1-.5.2-1 .2-1.6.2H86c-.4 0-.7-.1-1-.1-.5 0-.9-.1-1.4-.1-.7-.1-1.4-.1-2.1-.2-.3-.1-.6-.1-.9-.1-2.2-.1-4.4-.6-6.5-1.3-.8-.3-1.6-.4-2.4-.6-.7-.2-1.5-.3-2.3-.4-1-.1-2.1-.3-3.1-.5-.6-.1-1.2-.2-1.7-.2-.9.2-1.8.2-2.6.2-.6 0-1.2 0-1.8.1-1.7.2-3.5.5-5.2.8-.7.1-1.4.3-2.1.4-1.6.3-3.1.7-4.6 1-1.3.3-2.5.5-3.8.9-.2.1-.4.1-.5.1-.9.3-1.8.5-2.7.7-.9.2-1.8.5-2.7.7-1.3.3-2.7.4-4 .7-1 .2-2.1.3-3.1.3-1.3 0-2.6 0-3.9-.3-.3-.1-.7-.1-1-.1-.6-.1-1.2-.1-1.7-.2-.4 0-.8-.1-1.2-.1-1.2 0-2.3-.3-3.5-.6-1.3-.3-2.5-.7-3.7-1.1-1.3-.3-2.5-.9-3.7-1.6-1.3-.7-2.7-1.4-3.9-2.4-.4-.3-.9-.6-1.3-.9-1.2-.8-2.3-1.8-3.3-2.9-.8-.8-1.3-1.8-1.8-2.8-.3-.6-.5-1.2-.7-1.8-.4-1-.6-2-.6-3.1v-.7c.2-1.2.4-2.3.6-3.5.3-1.2.7-2.4 1.4-3.4.1-.1.2-.3.3-.4l3.3-3.9c.4-.5.9-.9 1.4-1.3.3-.3.7-.5 1.1-.5.1.1.3-.1.4-.3z" style="fill:#f7f5ef"/>
    <path d="M96.6 60.8c-1.6.5-3 .5-4.4.8h-.7c-1.6 0-3.3.1-4.9.1-2.1 0-4.1 0-6.2-.1-.7 0-1.4-.1-2.1-.2-1.5-.1-2.9-.4-4.4-.5-.2 0-.4 0-.5-.1-1.1-.3-2.2-.3-3.3-.3-.8 0-1.5 0-2.3-.2-.4-.1-.8-.1-1.2-.1h-3c-.7 0-1.4.1-2.1.2-2.1.2-4 .8-6 1.4-.4.1-.8.3-1.2.4-1 .3-1.9.6-2.9.8-1 .2-2 .4-3 .4-.3 0-.6.1-.9.1-.1 0-.2.1-.3.1-.9.1-1.8.1-2.6.2-.8.2-1.6.2-2.4.3-.6.1-1.3.2-1.9.2-2.8.2-5.6.2-8.5 0-1.4-.3-2.9-.3-4.3-.6s-2.7-.7-4.1-1.2c-.3-.1-.7-.2-1-.3-.7-.2-1.3-.5-2-.8-.8-.3-1.4-.9-1.8-1.6-.5-.7-.8-1.6-1-2.4-.1-.3-.2-.7-.3-1-.5-1.2-1-2.4-1.6-3.5-.2-.5-.4-1.1-.6-1.6-.6-2.1-1.2-4.2-2.3-6.1-.5-.8-.9-1.6-1.4-2.4-.9-1.4-1.7-2.8-2.6-4.2-.3-.4-.6-.8-.9-1.3-.1-.1 0-.2.1-.3.3.2.7.4 1 .7.4.4.9.7 1.5 1 .6.3 1.3.6 1.9 1 1.3.7 2.6 1.3 4.1 1.6 1.2.3 2.4.6 3.5 1 1.3.4 2.6.6 4 .6.6 0 1.3.1 1.9.2 1.3.2 2.6.3 3.8.5 1.3.1 2.7.2 4-.2 1.1-.1 2.2-.4 3.3-.5.7 0 1.4-.2 2.1-.4 1.5-.4 3-.7 4.4-1.2.7-.2 1.4-.2 2-.5.6-.3 1.3-.3 1.9-.5.7-.3 1.5-.2 2.2-.5.7-.2 1.5-.4 2.2-.5.7-.1 1.5-.3 2.2-.5.7-.2 1.4-.1 2.1-.3.6-.2 1.3-.2 1.9-.3.8-.1 1.6-.2 2.4-.4.4-.1.8-.1 1.2-.2 1.8-.1 3.6.1 5.4.5.2 0 .3.1.5.1.9 0 1.8.1 2.6.3 1.1 0 2.2.4 3.3.7 1.7.5 3.4 1 5.1 1.1 1.3.4 2.7.2 4 .6.3.1.6 0 .9.1 1.2 0 2.5.1 3.7.1.6 0 1.2 0 1.8.1 1.3-.1 2.7.2 4-.1.6-.1 1.3-.1 1.9-.1 2.5-.1 5-.6 7.4-1.5 1.7-.6 2.5-1 4.1-2 1-.7 2-1.4 2.9-2.2.1-.1.2-.1.3-.1l.1.1c-.5 1.4-1.1 2.8-1.6 4.3-.1.3-.2.5-.3.8l-2.1 4.2c-.9 1.8-1.8 3.6-2.7 5.3-.4.7-.7 1.5-1 2.3-.6 1.5-1.4 2.8-2.2 4.2-.2.3-.4.6-.5.9-.3.7-.8 1.3-1.3 1.9-.3.8-.8 1.3-1.3 1.6zm1.1-11.7c-.4.4-.9.7-.7 1.4.5.3.7.3 1-.1l.1-.1.1-.1c.2-.5.1-.7-.5-1.1zm-78.2-2.7c-.1.1-.3.2-.4.3-.1.1-.1.2 0 .3.2.4.4.7.9.8.1 0 .2 0 .3-.1.1-.2.1-.4 0-.7-.1-.3-.4-.6-.8-.6zm-2.1 0c.1-.2.2-.3.1-.5-.1-.4-.3-.6-.6-.8-.2-.1-.5-.1-.6.1-.1.1-.2.3-.1.5.3.4.6.7 1.2.7zm2.8 4v-.2c-.2-.3-.5-.5-.8-.5-.3 0-.5.4-.4.7.2.4.9.5 1.2.1v-.1zm6.1.2c0-.4-.2-.7-.6-.7-.3 0-.5.2-.6.6.1.1.2.3.4.5.1.1.3.1.5 0 .1-.2.2-.3.3-.4zm-4.5-1.5c.2.4.3.7.6.9.1.1.2 0 .3-.1.2-.2.2-.5.1-.8-.1-.3-.2-.4-.5-.4-.1-.1-.3 0-.5.4zm6.5.1c.1 0 .2-.1.3-.2l.1-.1c.2-.2.2-.4 0-.6-.2-.3-.5-.3-.7-.2l-.3.3c0 .4.2.7.6.8zm-3.1 6.2c-.1 0-.2.1-.3.1-.3.3-.3.6 0 .9.1.1.2.1.3.2.1.1.4-.1.4-.2.2-.4 0-.7-.4-1zm68.4 3.4c.4.1.7-.1.8-.4.1-.3 0-.5-.2-.8-.3-.1-.5 0-.7.3-.2.3-.3.6.1.9zm-1.5-2.3c.1.3.3.5.6.6.2 0 .5-.1.5-.3.1-.2 0-.5-.2-.6-.2-.1-.5-.2-.6 0-.1 0-.2.2-.3.3zM36 54.9c0 .2 0 .4.1.5.1.2.4.3.6.2.2-.1.3-.2.3-.4v-.4c-.1-.1-.3-.2-.4-.2-.3.1-.4.2-.6.3zm59.9-1.5c.2.2.3.3.6.3.3-.1.5-.3.5-.6-.1-.1-.1-.2-.2-.3-.2-.2-.5-.2-.7 0-.1.1-.2.3-.2.6zm-.5-.7c.1-.3 0-.6-.3-.7-.2-.1-.3-.1-.5 0s-.3.4-.2.6c.1.2.2.3.4.3s.4-.1.6-.2zm-69.5 7c-.1.1-.2.2-.2.3-.1.2 0 .5.2.6.3.2.6.1.8-.1 0-.1.1-.2 0-.3-.1-.4-.4-.6-.8-.5z" style="fill:#f2edda"/>
    <path class="st0" d="M97.7 49.1c.6.4.6.6.4 1 0 .1-.1.1-.1.1l-.1.1c-.2.4-.5.4-1 .1 0-.6.4-1 .8-1.3zM19.5 46.4c.4.1.7.3.8.6.1.2.1.4 0 .7-.1.1-.2.2-.3.1-.4-.1-.7-.4-.9-.8v-.3c.1-.1.3-.2.4-.3zM17.4 46.4c-.5 0-.9-.3-1.2-.7-.1-.1-.1-.3.1-.5s.5-.2.6-.1c.3.2.5.5.6.8.1.2-.1.4-.1.5zM20.2 50.4c0 .1 0 .1-.1.2-.3.3-1 .3-1.2-.1-.1-.3.1-.6.4-.7.4 0 .7.1.8.5.2 0 .1 0 .1.1zM26.3 50.6c-.1.1-.2.2-.3.4-.1.1-.4.1-.5 0-.1-.2-.3-.4-.4-.5.1-.4.2-.6.6-.6.4-.1.6.2.6.7zM21.8 49.1c.1-.4.3-.5.6-.4.2 0 .4.2.5.4.1.3.1.6-.1.8-.1.1-.2.1-.3.1-.4-.3-.5-.6-.7-.9zM28.3 49.2c-.4-.1-.6-.3-.7-.7l.3-.3c.2-.2.5-.1.7.2.1.2.1.4 0 .6l-.1.1s-.1 0-.2.1zM25.2 55.4c.4.3.6.5.4 1 0 .1-.3.3-.4.2-.1 0-.2-.1-.3-.2-.3-.3-.3-.6 0-.9.1 0 .2 0 .3-.1zM93.6 58.8c-.4-.3-.2-.6-.1-.9.1-.3.4-.4.7-.3.2.2.3.5.2.8-.2.3-.4.5-.8.4zM92.1 56.5c.1-.1.2-.3.3-.4.1-.1.5-.1.6 0 .2.1.3.4.2.6-.1.2-.3.3-.5.3-.3 0-.5-.2-.6-.5zM36 54.9c.2-.1.3-.2.5-.2.1 0 .3.1.4.2v.4c0 .2-.1.3-.3.4-.2.1-.5 0-.6-.2v-.6zM95.9 53.4c0-.2 0-.4.2-.6.2-.2.5-.2.7 0 .2 0 .2.1.2.2-.1.3-.2.5-.5.6-.2.1-.4-.1-.6-.2zM95.4 52.7c-.2.2-.4.3-.6.2-.2 0-.3-.1-.4-.3-.1-.2 0-.5.2-.6.2-.1.3-.1.5 0 .3.1.4.4.3.7zM25.9 59.7c.4-.1.7.1.8.5v.3c-.1.2-.5.2-.8.1-.2-.1-.3-.4-.2-.6.1-.1.2-.2.2-.3z"/>
</svg>
