<svg xmlns="http://www.w3.org/2000/svg" width="771.6" height="153.6" style="overflow:visible;enable-background:new 0 0 771.6 153.6" xml:space="preserve">
    <style>
        .st0{fill:#c9a063}
    </style>
    <path class="st0" d="M135.8 65.1c-.6-1.3-1.6-1.3-2.6-.9-1.4.6-2.8 1.4-4.2 2.1-.6 1.5.1 3.4-2 4.2-.6-.3-1.2-.7-1.9-1.1-.2 0-.4 0-.5.1-1.6 1.2-3.2 1.3-5 .3-.7-.4-1.5-.5-2.1-.7-.3-2.5.6-4.3 2.5-5.2.5-.3 1.1-.4 1.7-.6 1-.3 2-.8 2.8-1.5 1.5-1.4 3.3-2.1 5.3-2.5 1.5-.3 3-.9 4.5-1.4.8-.3 1.6-.8 2.2-1.2.9-1.3 1.5-2.5 1.6-3.9.1-1 .6-2.1 1-3.4-.1-.5-.2-1.2-.4-2.1.5-.7 1-1.5 1.5-2.3.1-.7.1-1.5.2-2.4.3-.5.6-1.1.9-1.6-.1-.5-.2-1-.2-1.5.2-.4.3-.7.6-1 1.3-1.7 1.9-3.7 1.6-5.8-.1-.9.1-1.7.4-2.6.6-1.3 1-2.6 1.6-4.2.2-.2.7-.6 1.4-1.2.1-.6.3-1.4.4-2.3 2.1-1.4 3.5-3.7 6.1-4.7.1-.9.1-1.8.2-3 .3-.4.8-1.1 1.4-2 .5.5.9.9 1.4 1.3.9 0 1.4-.6 1.6-1.6-.6-.4-1.2-.8-2-1.3.1-.5.1-1.1.5-1.5 2-2.6 4-5.2 6.5-7.3 1-.8 2-1.6 3.2-2.4.4.1 1.1.1 1.6.2 2 .8 4 1.7 5.6 3.2.8.7 1.8 1.3 2.7 1.9 1 .7 2 1.3 2.5 2.5-.6 1.1-1.1 2.3-2.1 3.3-.8-.6-1.6-1.1-2.6-1.7-1.2.8-1.7 2.3-2.8 3.2-1 .9-1.7 2.1-2.6 3.2-.9 1.2-1.8 2.3-2.9 3.6-1.1 3.5-1.1 3.5-4.2 5.1-.4 1.2-.7 2.5-1.2 4.2-.8.8-1.3 2.1-1.8 3.6-.2.7-.4 1.4-.9 1.9-.9 1.1-1.4 2.4-1.7 3.4-.9 1.2-2.5.8-3.2 2 .1.9 1.2 1.3 1.5 2.2 0 .1.1.4.1.7-.2 1.1-.4 2.1 0 3-.4.9-.8 1.6-1.1 2.4.2.3.4.6.8 1 2.4-1.4 5.3-1.7 7.5-3.5 2.3.1 4.3-.6 6.4-1.3 2.8-.9 5.7-1.5 8.6-2.2 2.2-.5 4.4-1 6.6-1.4 2-.4 4-1 6.1-.9 2.2.2 4.3-.6 6.3-1.4 2.4-1.1 4.8-.8 7.1-1 .9 1.1.7 1.8-.1 2.7-1.9.9-4 1.8-6.3 2.9-.9.9-.3 2.5-1 3.9-1.1.7-2.3 1.5-3.6 2.4-.6-.1-1.3 0-1.9-.2-1.2-.5-2.3-.6-3.4.1-1 .7-2.2.8-3.4.8-1.1.1-2.2.2-3.1.7-1.4.8-3 1-4.6.9h-1.8c-.7.6-1.4 1.1-2.1 1.7-2.1-.1-4.1.2-6.1.8-1.9.5-3.8 1.1-5.4 2.3-.4.3-.8.5-1.3.7-2.3.8-4.2 2.1-6 4 0 .2-.2.6-.2 1-.1 3.1-.7 6-1.6 9-.2.8-.4 1.6-.1 2.3.9 2.3 0 4-1.6 5.5-.3.3-.5.6-.8 1 .3.4.5.8.8 1.2.3.4.6.8.8 1.2.1 1.9.5 3.7-.3 5.6-.3.7-.1 1.7-.1 2.1-.9 2.4-1.6 4.3-2.3 6.2-.2.6-.3 1.4-.3 2 0 1.6-.5 2.9-1.5 4.1.6 3.6-.6 6.8-2.3 9.8-.8 1.4-1.3 2.8-2.6 3.9-.5.5-.7 1.4-1.1 2.1-2 .6-4.1 1.2-6.1 1.8-.9-.5-1.7-1-2.3-1.3-1-.2-1.7 0-2.5.3-.9.3-1.7.2-2.6-.2-1.4-.7-2.9-1.2-3.6-2.7.2-1.5.2-2.9.5-4.2.3-2 .3-4.1 1.5-5.9.1-.1.1-.2.1-.3.4-1.2.7-2.5 1.2-3.6s.9-2.1 1.3-3.3c.5-1.6 1.2-3.2 2.1-4.6 1-1.6 1.5-3.2 1.6-5 0-.4.1-.8.1-1.2.4-.7.8-1.4 1.3-2.1 0-.2.1-.5.2-.8.1-1.6.5-3.1 1-4.6.1-.2.3-.4.2-.5-.2-2.9 1.7-5.5 1.2-8.4 1.2-1.6.9-4 1.6-6.1zM219 75.2c-1.5.2-3.1-.4-4.1.5-2.9-.3-5.4-.6-8.1-1-.5.1-1 .5-1.3 1.2-.4 1-.8 2-1.3 3 .1 2.1.1 2.1-1.4 5.3-.2 4.2-.6 6.2-1.9 8.5-.3 2.4.6 4.5 1.4 6.6.3.8.9 1.5 1.5 2.1 1.1 1.1 2.3 2.1 3.5 3.2.4.4 1 .7 1.5 1 2.7 1.5 5.5 2.1 8.7 1.6 2-.6 4.1-1.3 6.8-2.2.3 0 1.2-.1 2.3-.1 1.5-.9 3.1-1.8 4.7-2.7 1.6-.9 3.2-1.9 4.9-2.8 1.6-.9 3.4-1.6 5.3-1.6 1.1 0 2.2-.3 3.1-.8 1.6-.7 3.2-1.1 4.9-.9 1.4-.5 2.5-1.7 4.1-.9 1.4-1.4 2.9-2 4.7-2.1 1-.1 1.9-.5 2.8-.7 1.4.8 1.4.8 1.5 2.6-.5 1-1.4 1.5-2.4 2.2-1.8.2-3.5.9-5.2 1.8-1.5.8-3 1.4-4.7 2.1v2.3c-3.2 3.4-6.9 5.9-11.5 7-.6.6-1.1 1.3-1.7 2-3 1.2-6 2.5-9.3 3.8-2.3.3-5.1.3-7.5 1.8h-4.9c-.6-.3-1.2-.6-1.8-.8-.5-.2-1.2-.5-1.7-.4-1.9.2-3.5-.5-5.1-1.2-1.5-.7-3.1-1.2-4.7-1.8-1.9-.7-3.5-1.9-4.9-3.3-1.3-1.3-2.5-2.6-3.8-3.7-1.5-1.3-2.3-2.9-3-4.7-.4-1.2-.8-2.4-1.3-3.6-.5-1.2-.6-2.5-.4-3.8 1-5.2 1.7-10.5 3.5-15.5 1.3-3.6 2.6-7.2 4-10.8.1-.3.2-.6.3-.8 1.7-2.7 2.5-5.8 4-8.5.9-1.7 2.1-3.4 3.4-4.8 3.6-3.8 7.3-7.5 10.9-11.3l4.5-4.8c.6 0 1.3-.1 2-.1 1.4 1.2 2.8 2.2 4.6 2.7 1.2.3 2.3 1.1 3.4 1.8.6.4 1.2.9 1.4 1.4.6 1.3 1.7 2.1 2.6 3 1.2 2.4 1.9 5.1 3.5 7.3 0 .9-.5 1.6-1.2 2.2-1.7 1.3-2.7 3.1-3.6 5-.7 1.4-1.7 2.7-2.1 4.2-.1.5-.6 1-1 1.4-.8.9-1.4 1.8-1.9 3-.8 1.8-2.1 3-4 3.7-1.4.1-2.6.8-4 1.4zm2.6-24.5c-2.1 1.4-4.1 2.9-5.7 4.8-2.2 2.4-3.5 5.5-6 7.7-.4.4-.6 1-.9 1.5-.6 1.3-1.1 2.5-1.6 3.8-.1.3 0 .7 0 1.2.5.1 1 .3 1.4.3 1.4 0 2.8 0 4.1-.1 3.5-.2 5.9-1.9 7.4-5.1.5-1.2 1.1-2.4 1.8-3.4 1.1-1.7 1.6-3.6 2.2-5.5.2-.6 0-1.3 0-2-.7-.8-1.5-1.8-2.7-3.2zM400.3 80.6c2.2 1.7 2.7 4 2.4 6.6-.3 2.1-.5 4.3-.7 6.5-.1 1.1-.7 2-1.2 3.1-.7 0-1.3.1-2 .1-1.1.7-.8 2-1.4 3-1.4 1.8-2.8 3.6-4.5 5.3-1.4 1.3-2.8 2.5-4.7 2.8-.3 0-.5.2-.9.4-.5.6-1.1 1.2-1.3 1.5-1.8 1-3 1.8-4.5 2.6h-2.2c-.5.7-1 1.4-1.6 2.4-3.6 1-7.5 1.5-11.4 2.4-.5-.4-1-.8-1.6-1.2-.6 0-1.3-.1-2-.1-.1-.3-.4-.5-.4-.8-.1-.8-.1-1.6-1.1-2-.4.1-.9.2-1.5.3-1.3-1.2-3-1.6-4.8-1.5-1.2-1.1-2.4-2.1-3.5-3.1.1-1.3.2-2.4.3-3.8.8-.4 1.7-.7 2.6-1.1.2-1 .4-1.9.6-2.9 1.3-.5 2.6-.9 3.9-1.4.8.4 1.5.8 2.4 1.2.6-.5 1.1-.9 1.7-1.5 2.3 1 4.6.5 6.9.2 1-.6 2.1-1.2 3.1-1.8.8.2 1.5.4 2.2.6 1.5-.7 2.7-1.6 3.7-3s2.1-2.6 3.6-3.5c1.5-.9 2.6-2.1 3.3-3.7.3-.6.6-1.3 1-1.8 1.4-1.7 1.7-3.7 1.4-6.1-2-2-4.1-4-7-4.8-2 .3-4 .6-6.1.9-1.5-.5-3.2-.7-5-.6-1.8.1-3.5-.8-5-1.7-2-1.1-3.9-2.3-5.5-4.1-.5-1.6-.9-3.3-1.5-5-.7-2.4-.7-2.4-.1-4.9-.1-.2-.1-.4-.2-.5-1-1.2-1-2.5-.2-3.9.3-.6.7-1.2.9-1.8.4-.9.8-1.8 1.3-3 .4-.3 1.1-.9 1.9-1.5.2-.4.5-.8.5-1.3.2-1.8 1.2-3.1 2.3-4.4 1-1 1.9-2 2.5-3.3 0-.1.1-.2.2-.2l5.4-6.3c.9-1 1.8-1.8 2.7-2.8 1.2-1.3 2.5-2.3 4.1-2.9 1.3-.5 2.4-1.2 3.4-2.2 1-1.2 2.3-1.9 4.1-1.4 2.9 3.9 7 6.9 10.3 10.8-.8 1.7-1.9 2.8-3.9 2.7-1.2-1-2.4-2.1-3.4-3-3.2.3-5.9 1.4-8.2 3.4-1.7 3.1-1.9 3.4-5.6 6.4l-1.5 3.9c-.7.6-1.4 1.1-2.1 1.7-.3 2-1.4 3.6-2.9 4.9-.3 1.9-.5 3.8-.2 5.7.2 1.2 0 2.4 0 3.5.9 1.9 2.8 1.8 4.2 2.4 2.5-.7 4.9-.6 7.4-.6.4 0 .8 0 1.2.2 1 .5 2 .7 3.1.5 2.2.8 4.6 1.2 6.5 2.7l3 2.4c2.9 2 4.5 4.9 5.6 8.4zM720.6 42.1c2.8.4 4.5 2 5.9 4.2-.1.8-.2 1.6-.4 2.4.7.7 1.3 1.5 2 2.3.1.8.3 1.7.4 2.6 1 2.1 2.2 4.1 2.6 6.7 1.4 1.5 2.8 3.2 2.3 5.4.7 1.6 1.2 2.9 1.9 4.6.6.3 1.5.7 2.4 1.2 2.1-1.2 3.9-2.7 5-4.9.3-.6.6-1.3.9-1.9.9-1.6 1.6-3.2 1.9-5l.3-1.2c.4-1.5 1.2-2.5 3.1-2.2-.1-.6-.3-1.2-.2-1.7.1-.6.4-1.1.7-1.6 1.1-1.7 2.2-3.3 3.5-4.8 1.7-1.9 3.1-4.1 4.7-6.1.7-.9 1.5-1.8 2.3-2.7.8-.9 1.6-1.8 2.3-2.7 1.3-1.6 1.7-1.9 4.4-2.4 1.8 1 4.2 1.4 5.1 4-.4 1.5-1.9 2.2-2.8 3.4-1 1.2-2.5 1.6-3.9 2.4-.2.6-.5 1.3-.8 2-.8 1.7-1.7 3.3-3.2 4.5-1.3.9-2.4 2.1-3.2 3.5-.3.6-.9 1.1-1.3 1.6-1 1.2-2 2.5-2.4 4.1-1.4 1.2-2.4 2.7-3.2 4.5-.8 1.9-2.1 3.5-3.1 5.3-.7 1.2-1.3 2.5-1.9 3.7-.6 1.2-1.1 2.3-1.7 3.5.1.7.2 1.3.3 1.9-.7 1.4-1.3 2.6-2.1 4.3-.4.5-1.1 1.4-2.1 2.6-.3.1-.9.4-1.5.8l-.3 2.4c-1.8 1.6-3.6 3.3-5.4 4.9-.6 4.1-3.6 6.4-6.1 9-.5 1.1-.9 2.3-1.5 3.7.1.6.2 1.4.4 2.4-.9 1.3-.7 3-1.1 4.7-.4.1-.8.3-1.1.4-2.6.3-4.3 1.7-5.2 4.2-.7 2-2 3.6-3.5 5.1-1.7 1.6-2.6 3.6-3.4 5.7.5.6 1 .4 1.4.1 1.6-1.6 3.1-3.3 4.7-4.9.7-.8.7-.9 2.4-1.6.6.3.6.8.3 1.2-.3.6-.8 1.1-1.3 1.6-1 1.1-2.1 2.1-3.2 3.1-1.4 1.3-2.5 2.8-3.2 4.6v2l-2.4 1.8c-.7.6-1.3 1.2-2.2 2-.4 1.1-.6 2.8-2.5 3.5.1.8.3 1.4.3 2.1 0 .7-.2 1.3-.3 2.1.2.3.4.5.6.8 3.2-1.5 6.3-2.9 9.5-4.4.9.1 1.7.8 2.3 2-.9 1.2-2 2.3-3.6 2.7-1.5.4-2.9 1.1-4.2 2.1-.5.4-1 .6-1.6.8-1.3.3-2.3 1.1-3.2 2h-3c-.7.5-1.3 1-1.9 1.4-.4-.1-.8 0-1-.2-1.5-1.2-3.2-1.9-5-2.5-1-.3-2-.9-2.6-2.4 0-.6.1-1.6.2-2.8-.5-1.8-2.2-3.5-1.9-6 .7-1.4 1.8-2.6 3.1-3.7 2.1-1.8 4-3.8 5.7-6 .8-1.1 1.5-2.1 1.7-3.4.2-1.2.7-2.2 1.3-3.3.3-.5.7-1 .8-1.6.5-2.2 1.9-3.9 2.9-5.8.8-1.4 1.6-3 2.2-4.5 1-3 2.6-5.7 4.5-8.3.8-1.1 1.4-2.4 2.1-3.6.4-.7.7-1.4 1.3-2 2.2-2 4.2-4.2 6.6-6 1.8-1.3 3.5-2.8 5.7-4.6.3-.7.9-1.8 1.5-2.9.5-.9.6-1.8.2-2.8-.4-1.2-.7-2.4-1.1-3.5.1-.5.1-.8.2-1 .8-2.1.3-3.9-1-5.5-.8-1-1.7-1.9-1.7-3.3-2.1-2.9-2.6-6.3-3.6-9.6-.3-1-.7-2-1.2-3-1.4-2.9-2.1-5.9-2.3-9.1-.2-2.1 0-2.7 1.5-4.4zm26.1 24.7c.4-.9 1.4-1.8.7-3.2-1.1.6-1.8 1.4-2.1 2.3 0 .7.3 1.1 1.4.9zm-19.3-10.6c-.6 1.2-.7 1.2-.5 1.8.1.2.4.4.6.6.6-.8.7-1.5-.1-2.4zM711 130c-1.3.6-1.3.6-1.1 1.8 0 .1.3.2.5.3.7-.3.8-1 .6-2.1zM504.8 40.8c-.7.3-1.4.5-2.2.9-.7-.2-1.5-.4-2.4-.7-.6.4-1.4.9-2.2 1.5-.6.1-1.4.2-2.1.3-1.2 1-2.4 1.9-3.5 2.8-.3.7-.5 1.3-.8 1.9-.3.5-.6 1.1-1 1.4-1.7 1.3-3.4 2.7-5.5 3.5-.5.7-.9 1.5-1.4 2.2-.9 1.3-1.5 2.8-1.6 4.4-.1.9-.3 1.7-.6 2.6-.2.4-.5.9-.5 1.4-.1 1.3-.8 2.4-1.5 3.5-.5.9-1.1 1.9-1.3 2.9-.3 1.7-1 3.2-1.6 4.3-.4 2.5-.7 4.7-1.1 6.9.6 1.2 1.2 2.4 1.5 3.7.5 1.9 1.8 3.2 3.6 4.1 1.4.6 2.8 1.4 4.6 2.3.2 0 .7-.1 1.3-.2.6-.1 1.2-.3 1.7-.3 2.8.1 5.2-.9 7.6-2.2 2.7-1.5 5.4-2.9 8-4.4 2.1-.1 4.2-.2 6.5-.4 1 .5 2.3 1 3.3 1.5 4-.3 7.5-1.9 10.9-3.2 1.6-.6 3.3-1.3 5.1-1.9l1.8 1.5c-.2.8-.3 1.4-.4 2-.4.3-.6.5-.8.6-2.2.9-4.4 1.8-6.2 3.3-.4.3-.9.6-1.3.6-1.6 0-2.8.9-4.1 1.5-1.2 1.3-2.3 2.7-3.5 4.1l-2.7-.6c-.2.2-.5.3-.6.5-.5.8-.9 1.7-1.4 2.6-1.3.4-2.3 1.1-3.4 1.8-2.6 1.6-5.2 3.2-7.9 4.5-.3.1-.6.2-.8.3-2 .3-4.1.7-6.1 1-.8-.5-1.5-1-2.2-1.4-1 .1-.9 1.1-1.4 1.5-.2.1-.4.2-.5.2-1.7-.2-3.5-.1-5.2-.4-.9-.1-1.7-.3-2.6-.6-3.8-1.5-7.3-3.5-10.7-5.7-1.5-1-2.7-2.3-3.2-4.1-.8-2.7-2.4-5.1-4.2-7.5v-3.4c-.4-.8-.8-1.4-1.1-2.1-.2-4.7.4-6.9 2.8-9.7-.3-1.5-.9-3 0-4.7.6-.3 1.2-.7 1.9-1 .7-1.1 1.4-2.2 2.1-3.2.4-1.5.8-2.9 1.3-4.6-.1-.3-.2-.8-.4-1.4.1-.2.1-.4.2-.6.8-1.4 1.5-2.8 2.4-4.1 2.1-3 4.2-6 6.3-8.9 2.5-1.9 4.2-4.7 7-6.4.9-.5 1.6-1.5 2.5-2.4.3-.1.9-.3 1.4-.5 1-.4 1.9-1 2.5-2 .5-.7 1.1-1.3 1.8-2.1.8.2 1.5.4 2.2.6.2-.1.4-.2.5-.3.4-.6.7-1.2 1.1-1.8.3-.5.5-.5 2-.7 2 1.5 2.8 4.1 5.3 5.9.4.2 1.2.5 1.6.7 2.4 2.1 4.5 3.9 6.5 5.8.5.4.7 1.1 1.1 1.6-.7 1.9-2.3 1.9-3.7 2.1-2.1.4-3.3-.9-4.7-1.3zM17.4 120.8c-1.9.3-3.2-.3-4.6-1-1.4 0-2.8-.1-4.2-.7-.8-.4-1.7-.5-2.6-.7-1.9-.5-3.4-1.5-4.5-3.2-.5-.9-1-1.7-1.5-2.5-.2-1.6 0-3 .3-4.5.3-1.9.8-3.6 1.4-5.4.4-1 .5-2.1.7-3.2.4-2 .6-4.1 1.9-5.8C5.5 92.1 6 90 6.5 88.1c.3-.9.5-1.9.8-2.8.5-1.7 1.1-3.4 1.7-5 .4-1.1.4-2.1 0-3.2.4-.8.6-1.7 1.1-2.4 1.7-2.1 2.7-4.6 4.2-6.8 1-1.4 1.7-2.8 2.1-4.5.5-1.8 1.6-3.4 2.8-4.8.4-.5.8-.9 1.2-1.3.1-.7.2-1.4.4-2.2 1.9-2.4 3-5.4 4.2-8.3 1.7-4 3.9-7.8 5.9-11.6.3-.5.8-1 .8-1.6.1-1.8 1.2-3.1 2-4.6 1.2-2.2 2.4-4.3 3-6.7.3-1.2.9-2.4 1.4-3.6.1-.3.5-.6.7-.9 1.8.1 2.5 1.5 3.5 2.5v3.2c-.6 2.3-1.2 4.3-1.7 6.4.4 1.9.3 3.8-.7 5.7-.4.7-.3 1.7-.5 2.6-.8 1.3-1.6 2.7-2.5 4.1.2.5.4 1.1.6 1.6-1.1 1.5-2.2 3-3.4 4.6.9 5.4-1.2 10.2-4.1 14.6.1.7.2 1.2.3 2-.3.7-.7 1.4-1.1 2.2-.7.4-1.3.7-1.8 1.1-.4.7-.7 1.4-1.1 2.1-.4.5-1 .9-1.3 1.3-.9 1.6 0 3.1-.4 4.9-1 1-2.2 2.1-3.4 3.4.3.5.4 1 .7 1.4.2.3.4.7.5.9.2 1.4-.7 2.4-.8 3.1-.9 1.2-2.6 1.2-2.6 2.8.3.5.8 1 1.2 1.6-.3.7-.7 1.4-1 2.2 0 .2-.1.5 0 .8.3 1 .1 2-.7 2.7-1.1 1.1-1.6 2.5-1.4 4.1.2 2-.5 3.7-1.2 5.4-1 2.2-1.3 4.5-1.7 6.8 0 .2.1.3.2.5.3.4.7.3 1.1.2 1-.4 2.1-.6 3.2-.7 2.3-.2 4.4-.7 6.4-1.9 1.4-.9 3-1.5 4.5-2.3 2.2-1.1 4.4-2.3 6.6-3.4 1.1-.5 2.2-.9 3.7-1.6.3-.2 1-.7 1.2-.9 3.4-1 6.2-1.9 9.1-2.8 2.5-.8 5.1-1.6 7.6-2.3.8-.2 1.8-.2 2.9-.3.5-.2 1.2-.5 1.9-.8 1-.4 2.1-.4 3.2-.2.4.1.7.4 1 .6.1.1.3.3.3.5.1.4.1.8.1 1.2-1.4 1.3-2.9 2.2-4.8 2.2-1.7 0-2.9 1-4.3 1.8-.4.6-.7 1.2-1 1.8-.3.2-.5.4-.8.5-.6.4-1.3.6-1.7 1.2-1.6 2-3.7 2.9-6.2 3.1-2.3.2-4.3 1.2-6.2 2.6-.6.5-1.3.8-2 1.2-1.2.6-2.5 1.2-3.8 1.7-1.3.4-2.3 1.2-2.9 2.2-1.2.5-2.3 1-3.3 1.5s-1.9 1-2.9 1.6c-1.7.2-3.5 0-5.2.4-1.8.3-3.4.6-4.7 1.3zm-1.1-45.3c-1.2.6-1.4.9-1.2 1.8.3.1.7.2 1 .3.7-.7.9-1.4.2-2.1z"/>
    <path class="st0" d="M663.7 73.3c-.9-.3-1.4-.4-2.4-.7-.3-.4-.7-1-1.1-1.5-1-.1-1.8-.1-2.6-.2-.9-1-1.7-1.9-2.6-2.9.7-2.4 2.7-2.4 4.5-2.6 3 .5 5.6 1.9 8.1 3.1.9-.2 1.4-.6 1.7-1.3 1.4-3 3.5-5.4 5.6-8 1.4-1.8 3-3.4 4.4-5.1 1.9-2.2 3.9-4.4 6-6.5.2-.2.2-.5.5-1.1-.2-.1-.4-.3-.7-.3-2-.2-3.9-.3-5.9-.5H678c-3.3 1.2-6.6 2.4-10.3 3.8-.3.5-.9 1.2-1.4 1.9-.1-.1-.2-.2-.3-.4-1.7.6-3.4 1.1-5 1.8s-3.1 1.7-4.6 2.6c-1.7-1.4-3.3-2.6-5.1-4.1-.4-1.2.2-2.3 1.3-3 .7-.5 1.6-.8 2.4-1.1 2.9-.7 5.5-2.2 8.2-3.4 2.2-1 4.4-1.6 6.8-1.8 1.9-.2 3.7-.7 5.5-1 2.6-.4 5.2-.9 7.9-.8 2.3.1 4.5 0 6.6 0 2.1 1 2.8 3 4.1 4.1.4 1.1.3 2-.2 2.8l-2.1 3.9c-.5.9-1 1.7-1.7 2.4-3.7 3.9-6.8 8.4-10.8 12.1-.4.3-.7.7-.9 1.1-1 1.6-2.1 3.1-3.7 4.3.2.4.4.7.6 1.1h3.3c1.3 0 2.5.3 3.7.9 1.3.7 2.7 1.3 3.8 2.3.4.4 1 .6 1.5.9.7-.2 1.2-.3 1.8-.4 1.2.6 2.4 1.1 3.7 1.7.4 1.8-1.1 2.2-2.1 3-2.2-.5-4.4-1-6.6-1.4-.7-.1-1.4-.2-2-.3-.9-.1-1.7-.3-2.6-.5-1.4-.4-2.8-.9-4.3-1-1.1-.1-2.2-.7-3.3-1.1-1 .4-1.7 1.1-2.3 1.9-1.5 2.1-3.4 3.8-5 5.8-.5.6-1.1 1.2-1.4 1.9-.9 1.8-2.2 3.3-3.7 4.5-1.7 1.4-2.5 3.2-3.3 5.1.2.2.3.5.4.5 1.7.3 3.3.3 4.9-.3 1.2-.5 2.4-.8 3.7-.7 1.2.1 2.3-.2 3.5-.6 2.1-.6 4.2-1.2 6.3-1.7 1.1-.3 2.4-.1 3.5-.3.9-.1 1.8-.2 2.5-.7 2.5-1.7 5.2-1.6 8-1.6.8 0 1.6.2 2.4.1.7 0 1.3-.3 2-.5.8.3 1.6.7 2.6 1.1 2.2 0 4.6.2 6.9-.4.6-.1 1.2-.1 1.8 0 1.1.2 2.1.5 3.3.8.1.6.2 1.1.3 1.7-1.4.8-2.7 1.4-4.1 2.2-.5-.1-.9-.2-1.4-.3-1.6-.5-3.1-.5-4.6.3-1.4.7-2.9 1.2-4.8 1.9h-2.3c-.7.3-1.5.6-2.3 1-.2 0-.4.1-.6.1-2.3-.3-4.5.5-6.6 1.1-1.6.5-3.2 1-4.9 1.2-1.1.2-2.3.7-3.4 1-.8.3-1.7.7-2.5.8-2.4.2-4.7.3-7 .6-2.2.3-4.5.7-6.4.9-4.5-.2-8.5-1-11.9-4V95c.9-.9 2-1.8 2.7-3 .8-1.2 1.7-2.1 2.8-3.1.3-.3.5-.6.7-.9 1.2-2.4 2.8-4.5 4.6-6.4 1.5-1.6 2.6-3.5 4.1-5 .6-.6 1.3-1.3 1.8-1.9.8-.3.9-.7 1.2-1.4zM553.4 63.4c-1.2 2.8-2.5 5.7-2.6 8.9 0 .4 0 .8-.2 1.2-.8 1.7-.6 3.5 0 5.3-.4 1.2-.9 2.4-1.3 3.6.2.7.5 1.4.7 2.1.1 2.3-1 4.5.1 6.8-.4.8-.8 1.6-1.2 2.5-.1 1.1.5 2.2.2 3.4-.2.6 0 1.4.3 2 .7 1.4.7 2.8.6 4.3-.1.9 0 1.8 0 2.6-1.2.5-1.8-.8-3-.6 0 .6-.1 1.2-.1 1.8-.4.5-.9.4-1.3.1-.5-.4-1-1-1.5-1.4-1-1-2.1-1.4-3.5-.8l-.9.3c-1.8-1.1-3.6-2.3-5.5-3.5-.3-1.7.1-3.4.6-5.1.6-2.2 1.3-4.3 1.9-6.5.2-.9.2-1.9.3-3.1.3-.7.8-1.4 1.2-2.3 0-.3.1-.6.1-.8-.1-2.3-.4-4.5.4-6.7.1-.3.2-.6.1-.9-.8-2.8.6-5.5.2-8.2-.1-.4 0-.8.1-1.2.9-2.5.5-5.1.7-8 .6-1.5 1.3-3.5 1.1-5.6V53c.6-3 1.1-6 1.8-9 .2-1 .6-1.9 1-2.8.7-1.6 1-3.2.9-4.9 0-1.6.7-2.6 1.9-3.5 2.1.4 3.8 1.4 5.2 3 .8.9 1.2 2.1.7 3.3-.5 1.1-.4 2.3-.4 3.5.1 2.6.1 5.1.2 7.7 0 .4.1.8.1 1 .7.6 1.3.4 1.7 0 1.4-1.2 2.8-2.5 4.6-4.1.9-.2 2.2-.9 3.2-2.1.6-.7 1.6-1.2 2.4-1.6 3.5-1.5 6.7-3.7 10-5.7.3-.2.5-.3.8-.4 1.8-.2 3.5.1 5.2.7 2.1.7 4.3 1.3 6.5 1.9.8-.2 1.5-.4 2.2-.6 1 .4 1.6 1 1.9 2-.1.3-.2.7-.4 1.1-.7.2-1.5.3-2.2.6-.7.3-1.4.6-2.2 1-.7-.2-1.5-.4-2.3-.6-.2 0-.4 0-.5.1-1.1.7-2.1 1.4-3.5 1.4-.3 0-.6.1-.8.2-3.7 1.8-7.5 3.5-10.7 6.2-.2.1-.3.2-.5.4-3.7 3.7-8.2 6.4-11.9 10.1-.7.4-1.4.8-2.4 1.5zM624.8 61v6.4c-.7 1.7-1.5 3.6-2.3 5.6-.2 3.6-.4 7.2-2.7 10.3.2.2.3.4.5.6 1.3-.2 2.6-.6 3.9-.7 1.3-.1 2.6 0 4 0 .1.1.5.3.7.6.3.3.5.6.6.8.3 1.3-.3 2-1.5 2.6-1.6-.2-3.3.1-4.9 1.1-.7.4-1.5.5-2.2.8-.8.3-1.6.8-2.4 1.2-.3 1.7-.6 3.4-.9 5.3-.2.3-.6.9-.9 1.4 0 .1-.1.2-.1.3-.2 2.1-.5 4.3-.6 6.4-.1.9 0 1.8-.4 2.6-.4.7-.4 1.5-.2 2.3.5 2.4 1.1 4.8 1.7 7.3-1.6.5-3.1.8-4.6.7-.4 0-.8-.2-1.1-.4-1.3-.8-2.6-1.5-3.7-2.4-1.3-.9-2.4-2-3.7-3-.1-.1-.2-.3-.4-.7 1.3-3.9 2.8-7.8 3.5-12 0-.1-.1-.1-.3-.4-1.1.1-2.4.3-3.5 1-1.7 1-3.3.8-5.1 0-4.4-1.8-5.3-2.8-6.9-7.9.4-2.1.5-4.3.4-6.6-.2-3.1 1-5.8 2-8.6 1-2.5 2.3-4.8 4.5-6.5.6-.5 1.1-1.1 1.8-1.8.5.2 1.3.2 1.5.6 1.3 2.1 3.4 3 5.3 4.1 1.7.9 3.2 2 4.2 3.7.4-.2.7-.3 1-.4.1-.4.2-.7.1-1-.2-1.3.1-2.5.9-3.6 1.2-1.7 1.7-3.5 1.6-5.6 0-1 .2-2 .2-2.9 0-1.1-.1-2.2-.1-3.1-1-1.6-2.3-2.6-3.7-3.6-.9-.7-2.2-.9-3.4-1l-3.6-.3c-2.3.6-3.6 2.8-5.8 4-1.1-.6-2.2-1.2-3.5-1.8-.8-.1-1.7-.1-2.4-.2-.9-.7-.9-1.4-.6-2.5.8-.9 1.8-2 2.6-3 .4-.1.6-.3.8-.3 4.6.1 9-.8 13.5-1.5 1.1-.2 2.1-.2 3.2.2 1.6.5 3.2 1 4.7 1.7 1 .4 1.8 1.2 2.6 1.9 1.7 1.5 3.2 3.2 4 5.4.5 1 1.1 1.9 1.7 2.9zm-16.2 26c-1.1-1.3-1.7-2.5-1.8-3.9 0-.4-.2-.8-.4-1.1-.7-1.4-1.3-2.8-2-4.3-2.4-1.3-2.9-1.2-5.1 1.1-.5 2.1-1.1 4.3-1.6 6.5-.1.6-.1 1.2 0 1.8.1 1.1.3 2.2.5 3.2.1.5.5 1 .8 1.5 1.6.4 3.1.3 4.3-.7 1.4-1.2 2.9-2.1 4.4-2.9.3-.3.5-.7.9-1.2zM320.5 118c-2.2-.7-4.4-1.4-7-2.2-1.1-.7-1.8-2.2-2.8-3.7.6-1.1.6-2.4.5-3.7-.1-1.6-.3-3.2.4-4.7.1-.3.2-.6.1-.9-.3-3.2.8-6.2 1.3-9.3.2-1.1.4-2.1.6-3.2.3-1.9.8-3.9 1.2-5.8.5-2.8 1.6-5.5 1.8-8.3.1-1.8 1-3.6 1.5-5.4.8-2.8 1.4-5.7 2.3-8.5.6-1.9.6-4.1.9-6.1.2-1.1.4-2.1.6-3 1.5-1.5 2.9-1.2 4.5-.3.4.7.9 1.4 1.3 2.2 0 .7-.1 1.4-.1 2.1-.1 2-.4 3.9.1 5.9.3 1 .2 2.2.2 3.2-.1 1-.4 1.9-.7 3.2.2 3.6.1 7.5-.4 11.4-.1.8 0 1.6.1 2.3.1.9 0 1.8-.3 2.6-.4 1.2-.8 2.4-1.3 3.8-.4.3-.9.6-1.6 1.1.5.8.9 1.5 1.3 2.2 0 .3.1.5 0 .7-.8 1.7-1.1 3.3-.4 5.1.2.6.2 1.3.3 2.4-.6.4-1.3.9-2.1 1.5.5 1.8-.1 3.7 1.3 5.2.4-.2.8-.3 1-.6.6-.7 1-1.5 2.2-1.6.4.2 1 .5 1.5.7.4 1 .1 1.7-.5 2.3-.6.7-1.1 1.3-1.4 2.2-.4.9-1.2 1.5-1.9 2.4-.3.9.4 2.1-.6 3.1-1.1.6-2.4 1.1-3.9 1.7zM86.2 133.4c-4.7.4-8.5-1.2-12-4.1-.3-.3-.4-.8-.6-1.2.2-.3.3-.4.5-.7.6.2 1.2.4 2 .6.4-.5.8-1 1.3-1.5-1-3.5-.1-6.5 2.3-9.1l-.3-2.7c1.1-1.9 2-4 1.9-6.2.7-1.4 1.4-2.6 2-3.8.3-.5.5-1.1.6-1.7.3-2.5 1.4-4.7 2.5-7.1-.4-.8-.8-1.7-1.1-2.4 0-1.4 1.3-1.9 1.7-2.7.1-1.1-1-1.3-1.2-2 0-.2-.1-.4 0-.6.4-1 .7-2 1.2-3 1.3-2.9 2.6-5.8 3.9-8.6l2.1-4.2c1.3-2.7 2.5-5.3 3.8-8 .4-.8.8-1.6 1.2-2.3.2-.4.7-.7 1.1-1.1 1.7.8 3.2 1.5 4.7 2.7.1 2.8.1 5.5-1.3 8-1.8 3.4-2.9 7.1-4.5 10.5-.3.7-.5 1.5-.7 2.3-.2.9-.3 1.8-.7 2.6-.3.8-.9 1.5-1.4 2.5.2.7.5 1.5.8 2.4l-.9 1.2c-.7-.1-1.2-.2-1.9-.3-.4 1.1.6 1.6.9 2.7.5 1.9-.7 3.9-.5 5.9-1.3 1.2-3.3.5-3.9 2.3 0 .6.4.8 1 .8.6-.1 1.1-.2 1.8-.4.3.2.6.5.8.6.1.3.1.5.1.7-.1.4-.2.8-.4 1.1-1.1 1.3-2.1 2.6-2.6 4.4-1-.2-1.9-.4-2.8-.5-.2.2-.5.3-.7.5-.1.1-.1.4-.2.7.2.3.5.7.7 1.2h2.7c.1.1.2.3.3.4-1.7 2.9-1.7 2.9-4.3 5.2-.7 2.2.1 4.6-.3 6.9.4.4.8.7 1.1 1 .3-.1.6-.1.7-.2 1.3-1 2.7-2 4-3 1-.8 2.1-1.1 3.3-.7.4.1.8.5 1 .7-.1.9-.7 1.1-1.2 1.4-.9.4-1.7 1-2.2 1.9-1.2 2-2.8 3.5-4.8 4.7-.3.1-.5.4-.7.6-.3.3-.5.9-.8 1.6zm6-47.2c.1.6.4 1 1.4.9.2-.4.5-.8.7-1.3-1.4-.7-1.4-.7-2.1.4zM331.3 13.5c1.4-.2 2.4.5 3.5.8.9.7 1.6 1.5 1.9 2.7-.2.5-.4 1.2-.6 2 .2.6.4 1.3.5 1.7-.2 2-.3 3.6-.4 5.1v.6c-.9 2.6-1.1 5.4-1.5 8.1-.2 1.2-.5 2.5-.8 3.6-.9.7-1.7 1.3-2.4 1.9v1.1c.7.4 1.4.9 2.2 1.4.7.9 1.1 1.8.2 2.9-2.1.4-4.1-.6-6.1-.4-2.6-1.7-3.4-4.4-3.9-7.1-.5-2.5 0-4.9 1-7.2.7-1.5 1.3-3.1 1.5-4.8.3-2 1.1-4 1.9-5.9.4-1 .8-2 .8-3.1 0-1.6.9-2.7 2.2-3.4zM105.8 36.2c.6 1 1 1.7 1.5 2.5-1.2 1.4-2.8 1.5-4.3 2.2-3.2-1.6-4.6-4.1-4.7-7.6 0-3.1.6-6 2-8.8.8-1.7 1.4-3.4 1.7-5.3.2-1.4 1-2.7 1.5-4 .5-.1.8-.3 1-.2 2.4.7 4.4 2.1 6.2 3.8.2.2.3.5.5.9-.8 2.4-1.3 5-1.7 7.6-.1.8-.6 1.6-.9 2.2-.3 1.9-.5 3.5-.8 5.1-.5.3-.8.5-1.1.8-.1.1-.4.4-.9.8z"/>
</svg>
