<svg xmlns="http://www.w3.org/2000/svg" xmlns:xlink="http://www.w3.org/1999/xlink" width="124.2" height="103" style="overflow:visible;enable-background:new 0 0 124.2 103" xml:space="preserve">
    <style>
        .st1{fill:#7a6a56}.st2{clip-path:url(#SVGID_4_)}.st4{fill:#deedd8}.st5{fill:#eacac6}.st6{fill:#fff}
    </style>
    <path d="M0 54.1c.1 6.3 1.9 12.9 6.1 18 3 3.7 7.1 6.5 11.4 8.9 14.1 7.9 30.4 11.4 46.8 11.8 3.8.6 7.7-.1 11.5-.2 5.3-.2 10.6.7 15.9.8 5.3 0 10.9-1 15-4.4 0 0 3.9-1 7-4.1 3.3-3.2 4.6-7.9 6.2-12.2 2-5.4 2.9-11.3 3.5-17 .8-7.3 1.2-14.7 0-21.9-1.2-7.2-4.2-14.4-9.4-19.5-3.8-3.7-8.6-6.2-13.5-8.1-25.2-10-54-7-79.4 2.4-5.1 1.9-10.2 4.1-13.8 8.2C2.8 22 1.7 29.3 1 36.1c-.3 3.3-.6 6.7-.4 10-.4 2.6-.6 5.3-.6 8z" style="fill:#ece1de"/>
    <path class="st1" d="M88.3 31.3c-.1.2-.2.3-.4.3h-.3c0-.1-.1-.2-.1-.2v-.7c0-.2 0-.4.1-.6.1-.3.2-.6.1-.9v-.1c.1-.4.1-.8.2-1.1 0-.3.1-.6.2-.9 0-.7.3-1.4.5-2.2v-.8c-.1 0-.1 0-.2-.1-.2.3-.5.6-.9.8-.2.1-.3.3-.4.4-.3.5-.7.9-1.2 1.3h-.1c-.1 0-.2-.1-.2-.1-.1-.2-.2-.4-.2-.5v-.8c-.3-.4-.5-1-1-1.3-.3.2-.4.4-.5.7-.2.5-.3.9-.5 1.5 0 .6 0 .6-.4 1.4 0 .3.1.6 0 .8-.1.5-.2 1.1-.5 1.6l-.6.6h-.2c-.2-.2-.2-.4-.2-.6 0-.4.1-.8.2-1.2.2-.5.3-1 .4-1.4.1-.4.2-.9.6-1.2v-.6c.1-.1.1-.2.2-.3v-1l.3-.3c0-.2-.1-.3-.1-.5.1-.1.2-.2.2-.3h.1c.1.1.2.2.3.4.2 0 .3-.3.6-.4.4-.1.8.1 1.1.5.3.4.5.8.6 1.3 0 .1.1.2.2.3 0 0 .1-.1.2-.1.2-.5.6-.8.9-1.1.3-.3.7-.6 1.1-.8.2-.1.4-.2.6-.1.4.2.5.6.4 1-.1.4-.1.8-.2 1.2-.1.6-.2 1.1-.3 1.7-.1.6-.3 1.3-.3 1.9 0 .3-.1.6-.1 1 0 .6-.1 1-.2 1.5zM70.6 30c0 .2.1.4.1.6l-.1.1c-.3 0-.3-.4-.6-.5-.5.1-.7.6-1.2.9.1.1.1.3.1.3.4.4.8.6 1.4.3.3-.2.7-.3 1-.5v-.3c0-.1-.1-.2-.1-.3 0-.2 0-.4.3-.5.2.1.4.1.7.2.3.3.7.6 1.2.8h.7c.4 0 .8-.1 1.1-.4.1-.1.2-.1.3-.2.2-.2.4-.2.7-.1.2.1.2.3.2.4 0 .2-.1.3-.2.3-.4.2-.7.4-1.1.6-.2.3-.4.3-.6.3h-.9c-.2 0-.5 0-.7-.1-.2-.1-.5-.2-.7-.3-.1.1-.2.1-.3.1-.4.3-.8.5-1.3.7-.2.1-.4.1-.6.1h-.4c-.5 0-.9-.1-1.3-.5-.3-.3-.5-.7-.3-1.1l.3-.6.6-.6c.2-.1.5 0 .6-.3-.2-.6-.6-1.1-.8-1.7-.2-.6-.4-1.2-.4-1.8.2-.3.6-.4.9-.6h.8c.3 0 .5 0 .8.1.4.1.7.3 1 .6l.2.2.3.6c0 .2.1.4.1.6.1.4 0 .7-.3 1-.3.4-.7.7-1 1-.1.1-.3.2-.5.3.2.2.1.2 0 .3zm-.5-.7c.1 0 .2 0 .3-.1.3-.2.7-.5 1-.7.2-.1.3-.2.4-.4.1-.2.2-.3.2-.6-.1-.2-.1-.5-.2-.7-.4-.4-.9-.5-1.4-.6-.4 0-.8 0-1.1.3 0 .1-.1.1-.1.2.1.5.2.9.3 1.4.2.3.3.8.6 1.2zm-52.7-5.1c.1.1.2.1.3.2h.1c.6-.3 1.2-.4 1.8-.5.4-.1.7-.1 1.1-.2.2 0 .3-.1.5 0 .4.1.8.1 1.1 0h1.2c.2.1.3.3.4.5v.2c-.1.2-.1.2-.5.4-.2-.1-.3-.1-.5-.2h-.7c-.5 0-1 .4-1.1.9-.1.5-.2 1-.2 1.5s0 1-.1 1.5v.2c-.2.8-.4 1.5-.8 2.2-.1.1-.1.3-.2.4-.4.4-.8.9-1.3 1.2-.5.3-1 .7-1.5 1-.2.1-.3.2-.5.2-.3 0-.5.1-.8.2 0 0-.1 0-.2-.1-.1 0-.1-.1-.2-.2-.1-.4 0-.8.2-1.2.1.1.2.1.3.2.1.1.2.3.3.4h.3c.8-.4 1.7-.9 2.4-1.5.5-.4.8-1 1.1-1.6l.3-.9c.1-.2.1-.4 0-.6.1-.3.3-.6.2-1-.1-.7-.1-1.4.1-2.1.1-.2.4-.3.4-.6-.1 0-.1-.1-.2-.1-.6 0-1.1 0-1.7.2-.4.1-.7 0-1.1.1-.2-.2-.5-.2-.6-.5-.1-.2-.1-.2.1-.2zm31.2 5.9c-.2 0-.3 0-.5-.2-.1-.3-.1-.6.1-.9.4-1 .8-1.9 1.2-2.9.1-.2.1-.2.3-.3.1 0 .2.1.3.2.1 0 .5-.1.8-.4h.5c.5.4.5.4.6 1 .1 0 .2 0 .2.1.2-.2.4-.5.7-.7.2-.2.5-.3.7-.5.3 0 .6-.1.9 0 .2.1.4.2.6.4.2.3.3.7.3 1 .1.8 0 1.5-.3 2.3-.1.3-.1.3-.5.6-.2 0-.3-.1-.4-.2-.1-.1-.1-.3 0-.4 0-.1.1-.2.1-.3.2-.3.2-.6.3-.9v-.1c-.1-.3 0-.7 0-1-.1-.2-.2-.4-.5-.6-.3.1-.5.2-.8.4-.3.3-.6.5-.8.9l-.6 1.2c-.1.2-.1.3-.1.5-.2.2-.4.4-.7.3-.2-.2-.2-.4-.2-.6l.3-.6c.1-.2.1-.4.1-.6 0-.4 0-.8-.1-1.2v-.3c0-.3 0-.3-.3-.3-.5.3-.8.8-1.1 1.3-.1.2-.2.4-.3.7-.1.2-.2.4-.2.7-.1.4-.2.7-.3 1.1-.1 0-.1.2-.3.3zm49.5-1c.1.3.2.6.5.8.4.1.8 0 1.1-.1.3-.1.6-.3.9-.4.3.4.3.6-.1 1-.5 0-.8.3-1.3.4-.3 0-.6-.1-.9-.1-.4-.1-.6-.5-.9-.9v-.7c.2-.5.3-1 .5-1.5.1-.4.1-.6-.3-1-.1 0-.1.1-.2.1v.2c.1.7-.1 1.3-.4 1.9-.1.1-.1.3-.2.4-.7.9-1 1-1.7 1-.3-.2-.6-.5-.8-.9-.1-.2-.1-.5 0-.7 0-.1.1-.2.1-.3-.1-.5.2-1 .4-1.4.2-.5.6-.8 1-1.1.1-.1.3-.1.4-.2.1 0 .2 0 .3.1 0 .3.1.6.1 1 0 0-.1.1-.1.2h-.1c-.1-.1-.1-.3-.2-.4 0-.1-.1-.1-.1-.2-.1.1-.1.1-.2.1-.3.7-.8 1.3-1 2 0 .3.1.7.4.9.1.1.3.1.4 0 .1-.1.2-.1.3-.2.2-.2.4-.5.6-.8.1-.1.1-.2.2-.4v-.2c.2-.5.3-1.1.2-1.6.2-.3.4-.3.7-.2.2 0 .3.1.4.1.1.1.3.2.4.4.2.4.4.8.2 1.1-.3.4-.4 1-.6 1.6zm-55.7-3.6c.5.1.7.5 1 .8v.7c-.6 1.2-1.6 1.6-2.9 1.3-.1-.1-.2-.2-.4-.3-.3.3-.2.6-.3.9.1.7.4 1.2 1.2 1.4h.6c.4 0 .7-.1 1.1-.2.5-.2 1.1-.4 1.6-.5.4.1.4.1.5.3 0 .3-.2.5-.5.6-.4.1-.7.3-1.1.3-.1 0-.3.1-.4.1-.6.2-1.2.2-1.8.2-.7 0-1.6-.7-1.9-1.5-.1-.2-.1-.5 0-.8 0-.3 0-.5.1-.8 0-.2.1-.4.2-.6.2-.3.5-.6.8-.8.5-.5 1.2-1.1 2.2-1.1zm-.7.6-.3.3c-.4.2-.8.4-1.1.8.1.2.3.3.4.4h1.1c.3-.2.5-.4.8-.6 0-.1.1-.3.1-.4-.1-.2-.2-.4-.4-.5-.1 0-.3-.1-.6 0zm-16.7 3c-.1.7-.1.8.4 1.5.2.1.4.2.6.4h1.8c.4 0 .7-.2 1-.5l.4-.4c.2 0 .3.1.3.2s.1.2 0 .3c-.1.3-.2.5-.4.6-.5.3-1 .6-1.6.5-.5 0-.9.1-1.4 0h-.6c-.6-.3-1-.7-1.3-1.2-.3-.6-.1-1.2-.1-1.7 0-.1.1-.3.2-.4.3-.4.5-.8.8-1.1.4-.6 1-1 1.6-1.3.3-.1.6-.1.9.2l.2.2c.6.6.5 1.3 0 2-.2.2-.4.4-.7.5-.1 0-.3.1-.4.2-.4.2-.9.3-1.3.1-.1-.3-.2-.3-.4-.1zm.4-.9c.3.2.5.3.8.1.3-.1.6-.3.9-.4.3-.1.4-.4.5-.7.1-.2.1-.3 0-.5s-.2-.3-.4-.3-.4 0-.6.1c0 .1-.1.1-.1.1-.1.3-.4.5-.6.8-.1.1-.3.2-.4.4 0 .1-.1.2-.1.4zm31.7 8.5c-.2-.2-.3-.3-.3-.6 0-.1 0-.1.1-.2.5-.8.9-1.6 1.4-2.3.2-.2.3-.5.5-.8.4-.8.9-1.5 1.4-2.2.3-.4.5-.9.8-1.3.2-.4.4-.7.7-1.1.2-.3.4-.6.5-1 0-.1.1-.2.1-.3.1-.3.3-.6.4-.9.1-.1.2-.1.3 0 .1.1.2.2.2.3 0 .2 0 .5-.1.7-.1.4-.3.8-.4 1.2v.1c-.6 1-1.2 2.1-1.9 3.1-.4.5-.6 1.1-1 1.6 0 .1-.1.1-.1.2-.1.3-.3.7-.6.9-.1.1-.2.3-.3.5-.2.5-.5 1-.7 1.4-.3.3-.6.5-1 .7zM109 25.1c.2 0 .3-.1.5.1v.1c0 .1-.1.2-.2.3-.3.4-.5.8-.7 1.3-.1.2-.2.5-.3.8-.5 1.1-.9 2.2-1.5 3.3-.3.6-.6 1.3-.8 2 0 .1-.1.2-.1.3 0 .1-.1.3-.1.4-.3.6-.6 1.1-.9 1.7-.1.1-.2.3-.3.4-.3 0-.6 0-.8-.2 0-.1 0-.2.1-.2.2-.4.5-.8.7-1.1.1-.2.3-.4.3-.7.3-.9.6-1.7 1.1-2.5 0-.1.1-.1.1-.2.2-.1.3-.2.4-.3.1-.1.1-.2.1-.3-.1-.1-.1-.2-.2-.3.1-.4.3-.8.5-1.1l.3-.6c.3-.6.5-1.2.7-1.8.4-.6.6-1.1 1.1-1.4zm-75.8 1.1c.2-.1.4-.3.6-.4.1 0 .3.1.4.1h.1c.3-.2.9-.3 1.5-.5.2-.1.5-.1.8-.1.2.1.6.1.7.5 0 .1-.1.2-.1.2-.3.1-.7.2-1 .2H36c-.6.2-1.2.3-1.8.6-.2.1-.3.3-.4.5 0 .5-.1.9-.2 1.4v.5c0 .1.1.3.1.4-.1.4-.3.5-.7.5-.1 0-.1-.1-.2-.1 0-.5-.1-.9.1-1.4 0-.1.1-.3 0-.4 0-.2 0-.5.1-.7v-.9c.1-.1.1-.2.2-.4zm72.3 0v.9c.2.3.3.7.5.9.4 0 .6-.5 1-.5 0 0 .1 0 .1.1v.2c-.2.3-.4.5-.6.8-.2.3-.5.4-.8.3 0-.1-.1-.2-.2-.4-.1-.1-.2-.1-.3-.2-.1-.3-.3-.6-.4-.9v-1.1c0-.3.1-.5.3-.7.1-.1.2-.1.4-.1.1 0 .2.1.2.3 0 .1-.1.1-.1.2s-.1.2-.1.2zm-45.2 2.9c-.3.1-.3.1-.8 0-.4-.4-.5-1-.8-1.5 0-.4.1-.8.3-1.2h.2c.1 0 .1.1.1.1.1.1.1.2.1.4.1.5.3.9.5 1.3l.3.6c.1.1.1.2.1.3z"/>
    <defs>
        <path id="SVGID_1_" d="M0 54.1c.1 6.3 1.9 12.9 6.1 18 3 3.7 7.1 6.5 11.4 8.9 14.1 7.9 30.4 11.4 46.8 11.8 3.8.6 7.7-.1 11.5-.2 5.3-.2 10.6.7 15.9.8 5.3 0 10.9-1 15-4.4 0 0 3.9-1 7-4.1 3.3-3.2 4.6-7.9 6.2-12.2 2-5.4 2.9-11.3 3.5-17 .8-7.3 1.2-14.7 0-21.9-1.2-7.2-4.2-14.4-9.4-19.5-3.8-3.7-8.6-6.2-13.5-8.1-25.2-10-54-7-79.4 2.4-5.1 1.9-10.2 4.1-13.8 8.2C2.8 22 1.7 29.3 1 36.1c-.3 3.3-.6 6.7-.4 10-.4 2.6-.6 5.3-.6 8z"/>
    </defs>
    <clipPath id="SVGID_2_">
        <use xlink:href="#SVGID_1_" style="overflow:visible"/>
    </clipPath>
    <defs>
        <path id="SVGID_3_" d="M0 54.1c.1 6.3 1.9 12.9 6.1 18 3 3.7 7.1 6.5 11.4 8.9 14.1 7.9 30.4 11.4 46.8 11.8 3.8.6 7.7-.1 11.5-.2 5.3-.2 10.6.7 15.9.8 5.3 0 10.9-1 15-4.4 0 0 3.9-1 7-4.1 3.3-3.2 4.6-7.9 6.2-12.2 2-5.4 2.9-11.3 3.5-17 .8-7.3 1.2-14.7 0-21.9-1.2-7.2-4.2-14.4-9.4-19.5-3.8-3.7-8.6-6.2-13.5-8.1-25.2-10-54-7-79.4 2.4-5.1 1.9-10.2 4.1-13.8 8.2C2.8 22 1.7 29.3 1 36.1c-.3 3.3-.6 6.7-.4 10-.4 2.6-.6 5.3-.6 8z"/>
    </defs>
    <clipPath id="SVGID_4_">
        <use xlink:href="#SVGID_3_" style="overflow:visible"/>
    </clipPath>
    <g class="st2">
        <path class="st1" d="M76.5 60.6c0-.1.1-.2 0-.3-.1-.4-.2-.7-.4-1.1.1-1 .5-2 .6-3 .3-.6.7-1.1 1.1-1.5.5-.5 1-.6 1.6-.3h.2c.4-1 1.1-1.8 2-2.5 1-.5 2-.2 2.9.5.3 0 .6-.1 1-.1.6.3 1.2.6 1.9.8.6.1 1.1.4 1.6.8.3.2.6.4.9.7.3.2.4.5.4.8v.8c-.2.5-.3 1-.4 1.4 0 .4.1.6.3.9.2.4.3.9.4 1.4.1.5 0 1-.3 1.4v.1c.2.1.3.2.5.4.1.3.2.7.3 1 .2.1.2.1.5-.2-.1-1.3-.1-1.3-.8-3.1.1-.1.2-.2.4-.2h.3c.2.2.4.4.5.6.2.6.3 1.2.4 1.9.2 0 .2-.2.2-.3.1-1.6-.2-3-1.5-4 0-.3-.1-.4-.1-.5 0-.5.1-.6.5-.6h.3c.1 0 .2-.1.2-.2 0-.4-.2-.8-.5-1.2-.9-1-1.7-2.2-2.7-3.1-.1-.1-.2-.2-.4-.3-.8-.3-1.7-.3-2.6-.4h-1.1c-.8-.1-1.1-.2-1.9-.8-.5-.1-1-.2-1.5-.4-.2-.1-.4-.2-.7-.6l.3-.6c-.7-.4-1.5-.9-2.2-1.3l-.1-.1c-.1-.1-.1-.3-.2-.4 0-.1.2-.3.3-.3h.8c0-.2.1-.3.1-.5.5-.5 1.3-.5 1.9-.7.1-.2 0-.4.2-.6.1-.1.3-.1.4-.1h.5c1 .3 2 .2 3 .6.3.1.6.2.9.2.6 0 1.2.3 1.5.7.5.6 1.1 1 1.7 1.4.5-.3.7-.9 1.1-1.3.2-.9 0-1.8.6-2.6.4-.1.9-.4 1.3-.8.1-.1.2-.2.4-.3.5-.4 1-.6 1.7-.6.4-.2.8-.5 1.2-.8.3-.2.6-.3.9-.3.3 0 .5-.1.8-.1.2 0 .3 0 .5.1.3.1.7.3 1 .5.4.7.8 1.3 1.1 1.8.6.6 1.2 1.1 1.7 1.6.7.6 1 1.4 1 2.3v1.4c0 .4-.1.8-.4 1.2-.5.7-1.1 1.4-2 1.8-.2.1-.4.2-.5.3.1.3.3.5.6.5.3.1.5.1.8 0 .3 0 .5 0 .8.1.5.3 1.1.4 1.7.5.2 0 .4.1.6.1.2.1.4.2.5.3.3.3.5.6.6.9.1.4.2.7.4 1 .4.6.5 1.3.7 2-.1.6-.1 1.3-.3 1.9-.5.6-.9 1.1-1.5 1.4-.1.1-.2.2-.2.4v.1c.1.1.2.1.2.2.4 0 .6-.4 1-.6.5-.1 1.1 0 1.5.2.6.3 1.1.6 1.7.9.1 0 .2.1.2.2.1.1.1.3.1.5 0 .1-.2.3-.3.3-.1 0-.2 0-.3-.1-.7-.8-1.7-1.1-2.7-.9h-.5c-.7.1-1.2.3-1.7.8-.1.1-.2.2-.4.3-.2.1-.4.2-.6.2-.8 0-1.5.1-2.1.5-.1.1-.4-.1-.4-.2v-.5c0-.2-.1-.2-.3-.2l-.1.1c.1.6 0 1.1.2 1.7.5.4 1.1.2 1.6.4 0 .1.1.2.1.3 0 .1-.1.2-.2.2-.1.1-.3.1-.5.1h-1.1c-.3 0-.6.1-.7.5.1.1.1.3.2.4.3.2.6.4 1 .5.6-.3 1.1-.7 1.6-1 .3-.4.2-.9.5-1.2.4-.4.7-.8 1.3-.9.9-.3 1.9-.5 2.8-.5h.8c.4.1.8.3 1.1.4.4.2.4.4.7.7.1.1.4.2.6.4.4.3.8.7 1.1 1.1.3.6.8 1 1.2 1.5l1.1 1.1c0 .7.3 1.4.6 2 .1.1.1.3.2.5v.3c-.2.5-.2.5-.6.9-.1 0-.2.1-.3 0-.4 0-.7-.1-1.1-.2-1.1-.2-1.2-.3-2.2-.8-.3.1-.6.2-.8.3-.7.1-1.1-.4-1.4-.5-.4-.1-.6 0-.8.1-.3.1-.5.1-.8-.1-.3-.2-.6-.5-.9-.8-.3-.1-.7-.2-1-.3-.7-1.1-.7-1.1-.9-2.7-.6.1-.6.1-2.5.9-.2.2-.2.4-.2.6 0 .2-.1.4-.1.6 0 .2-.2.4 0 .6.4.1.4-.5.8-.4.7-.1 1.3.3 1.8.8.2.2.3.5.3.8l-.3.3c-.2.2-.4.2-.6.1-.1 0-.2-.1-.3-.2-.6-.5-1.3-.5-2-.4-.1 0-.3.1-.4.2l-.3.3c-.4.5-.9.8-1.4 1-.1 0-.2.2-.4.3 1.1.5 2.4.3 3.4 1 .6 0 1.2-.2 1.8-.2.8 0 1.5 0 2.2.4.4.2.9.4 1.3.7.4.3.7.7.7 1.2-.1.2-.2.5-.3.8.2.4.4.7.6 1.1.1.4.1.8.2 1.1.1.4.3.7.4 1.1-.1.4-.1.9-.2 1.4.1.3.2.7.3 1 .1.3.1.6 0 .9-.1.2-.2.4-.5.4-.8-.1-1.6-.7-2.4-.8-.4-.3-.8-.6-1.1-.9-.5-.1-.7.3-1.1.3-.6-.1-.8-.7-1.2-1-.1 0-.2-.1-.3-.1-.6.2-1.1 0-1.5-.5-.2-.5-.1-1-.1-1.5-.2-.6-.4-1.2-.6-1.6-.1-.7.2-1.2.1-1.8-.4-.4-1-.2-1.5-.5-.9.1-1.7.2-2.5.2v.2c0 .1.1.2.2.3.3.3.6.7.9.9.3.2.6.5.7.8.1.3.3.7.4 1 0 .1 0 .2-.1.3 0 .1-.1.2-.2.2-.4.1-.5.5-.9.6-.1 0-.2 0-.2-.2v-.3c.2-.9-.2-1.7-.7-2.3-.3-.3-.7-.5-1.1-.5-.1 0-.1 0-.2.1-.5.9-1.3 1.6-2 2.3-.8.8-1.4 1.8-1.9 2.9 0 .2 0 .3.1.4.1.1.2.3.3.4 1.2 1.2 1.8 2.7 2.2 4.4.3 1.4.5 2.8.5 4.3 0 1.2-.3 2.4-.6 3.6l-.3.6c-.7 1.2-1.4 2.4-2.2 3.5-.7 1-1.6 1.7-2.6 2.3-.9.5-1.9.8-2.9.9-.8.1-1.7.2-2.6.3-.5-.1-1.1-.2-1.7-.3-1.1-.1-2.2-.5-3.2-1-.2-.1-.4-.2-.5-.3-.9-.6-1.7-1.4-2.5-2.2-.1-.1-.2-.3-.3-.4-1.4-1.4-2-3.2-2.3-5.1-.1-.7-.1-1.5-.2-2.2.5-2.3 1.5-4.3 2.8-6.2.8-1.1 1.7-2.1 2.7-2.9 1.1-.8 2.2-1.6 3.2-2.6.3-.3.6-.6.7-.8.4-.9.3-1.7.3-2.5 0-.7.1-1.5.1-2.3.4-.7 1.3-.6 1.9-.8.2-.1.2-.2.1-.3-.4-.5-1-.8-1.5-1.1-.7-.4-1.3-.4-2-.2l-.6.3c-.8.5-1.1.5-1.4.6-.4.3-.4.8-.6 1.3-.6 1.1-1.7 1.8-2.9 2.3-.4-.1-.8-.1-1.2-.2-.5.1-.9.3-1.4.4-.5.1-.9.2-1.5.3-.4-.1-.8-.2-1.3-.3-.2 0-.6 0-.9.1-.4-.1-.8-.4-1.2-.4-.5-.1-1-.2-1.6-.4-.2-.1-.3-.2-.4-.5.2-.4.6-.4.9-.5.3-.2.5-.3.8-.5.3-.5.8-1 .8-1.6-.1-.1-.2-.2-.2-.3-.4-.4-.3-.7.1-1 .5-.2.9-.5 1.4-.7.1-.1.2-.3.1-.4-.1-.1-.1-.3-.2-.4.1-.1.1-.2.2-.3.3-.2.6-.3.8-.4.3-.2.5-.4.7-.6.5-.2 1.1-.2 1.6-.2.2-.1.5-.3.7-.4.3.1.7.1 1.1.2 0 0 .1.1.2.1.4.3.8.6 1.4.8.5.2.9.5 1.2 1 .2.3.3.6.7.6.4-.1.7-.3 1.2-.4l1.2-.3c1 .1 1.8.4 2.6.8s1.6.9 1.9 1.8l.1.1s.1 0 .1-.1c0-.4 0-.7-.1-1.1 0-.1-.1-.2-.1-.3-.6-.8-1.3-1.6-2.3-1.9-.6-.2-1.1-.3-1.7-.3-.3.1-.7.2-1 .3-.3 0-.3-.2-.3-.3 0-.3.1-.6.2-.9.4-.4.9-.6 1.4-.8.1 0 .3-.2.2-.3-1-.6-2-.9-3.1-1.4-.9-.4-1.8-.6-2.8-.6-.2 0-.4.2-.5.4-.1.3-.1.5-.2.7-.3.5-.8.8-1.4 1h-1.4c-.5.2-.9.5-1.5.5-.5-.1-1.1-.3-1.7-.5-.6-.1-1.1-.5-1.5-.8-.1-.1-.2-.3-.2-.4 0-.4.4-.5.5-.9 0-.1-.1-.3-.2-.4-.5-.4-.9-.8-1.2-1.2-.2-.2-.4-.5-.5-.8-.2-.4-.2-.7.1-1.1.3-.2.6-.4 1-.6.1-.1.1-.2.1-.2v-1c.1-.3.3-.6.5-.9.3-.2.5-.4.8-.5.3-.2.6-.2.9-.1.6.1 1.1.2 1.7.5.2.1.4.2.6.2h.5l-.7-.7c-.1-.3 0-.5.1-.7.3-.3.6-.6 1-.8.2 0 .5-.1.7-.1.1.1.2.1.3.1.3.1.5.4.7.6.5.8 1.1 1.6 1.8 2.5.6.4 1 1 1.4 1.4.3.7.6 1.4.6 2.2 0 .1.1.2.1.3.4.2.7.4 1.2.3l.1-.1c.1-.2.2-.5.3-.7 0-.2-.1-.4-.3-.5-.6-.5-1.1-.9-1.7-1.4-.1-.1-.2 0-.3-.1zM79 70.9c-.1 0-.2 0-.3-.1-.1 0-.2 0-.2.1l.1.1h.2c.1 0 .1-.1.2-.1.1-.1.3-.1.4-.1.1 0 .2-.1.2-.2.8.2 1.7.3 2.5.5 0 .4.3.4.6.4 0 .2 0 .3.2.3.1 0 .2 0 .3-.1 0 0 0-.1-.1-.1-.1-.1-.3-.1-.4-.1 0-.1-.1-.3-.2-.3-.1-.1-.3-.1-.4-.1 0 0 0-.1-.1-.1-.7-.3-1.4-.5-2.1-.4-.1 0-.1.1-.2.2h-.3c-.1-.1-.3-.1-.4.1zm6.5-1.4v.3c0 .1 0 .1.1.2l.1-.1v-.1c-.1-.1-.2-.2-.2-.3v-.4c0-.2 0-.4-.2-.6.2-.7 0-1.3 0-2 0-.1-.1-.2-.2-.2s-.3.1-.4.2c0 .1-.1.2 0 .3.2.5.3 1.1.5 1.6h.1c0 .2-.1.5-.1.7 0 .3.2.4.3.4zm7.8 3.2c.4.1.7-.1.9-.5 0-.1 0-.2-.1-.3-.1-.1-.2-.1-.3 0-.1.3-.3.6-.5.8h-.4c-.2 0-.2.1-.1.2l.1.1c.2-.1.3-.2.4-.3zm.8-4c.2.1.3 0 .5-.1.3-.2.5-.4.6-.7 0 0 0-.1-.1-.2-.3.2-.5.3-.8.5-.1.1-.1.3-.2.5-.4 0-.7.1-.9.4.6.2.7.1.9-.4zM73.4 58.4c.1.4.2.7.2 1.1.1.4.1.7.1 1.1l.2-.2c.1-.3.1-.5.2-.8v-.3c-.1-.3-.1-.4-.2-.6-.2-.2-.3-.3-.5-.3v-.1c-.1-.4-.3-.7-.5-.9-.2-.2-.5-.2-.7-.1-.1 0-.2.1-.1.2.2.5.7.8 1.3.9zm21.3-12.1c-.2.1-.3.4-.6.4-.1 0-.2-.1-.3-.1 0 .1-.1.2-.1.3 0 .1.1.2.2.2.6.3 1.2.2 1.8-.1l.1-.1c0-.1 0-.2-.1-.3-.4-.2-.7-.3-1-.3 0-.1.1-.3.1-.4.8-.7 1.6-1.3 2.7-1.4 0-.3-.2-.4-.4-.5-.2 0-.6 0-.9.1-.5.1-.9.3-1.2.6-.4.4-.6 1-.4 1.6 0-.1 0 0 .1 0zm2.9 19.5c-.1-.3-.3-.4-.6-.4.1-.2.1-.4-.1-.6-.1-.1-.3-.2-.4-.2-.5-.3-.9-.7-1.2-1.2-.2-.4-.5-.6-1-.7-.8 0-1.6.2-2.2.7-.2.2-.5.2-.7.3-.3.2-.5.4-.6.7v.5s0 .1.1.1c.1.1.2.1.3 0 .5-.8 1.2-1.2 2.1-1.2 1 .2 1 .2 1.6.9h.2c.5.2 1 .5 1.6.5.1 0 .3.1.4.2.1.2.3.3.5.4v.4c.1.6.2 1.2.3 1.9v.6c-1 1.1-1.1 1.2-2.4 1.8.3.2.6.3.7.2.2-.1.5-.2.7-.3.5-.2.9-.6 1.1-1.1.2-.6.4-1.2.5-1.9-.1-.6-.4-1.1-.9-1.6zm-5.5 10c-.2 0-.4.1-.6.1-.1 0-.3-.1-.4-.1l-.3-.6h-.3c-.5.2-1 .6-1.3 1.1.2.3.3.4.6.5.8.4 1.9.6 2.6.5-.1-.1-.1-.2-.2-.2-.6-.3-.6-.3-.3-.8 0-.2.1-.4.2-.5h.3c.5.1.8 0 1.1-.4.7 0 1.5 0 2.2-.1.8-.1 1.6-.1 2.4.1.4.1.7.1 1.1.2.2 0 .3.1.5 0 .1 0 .2-.1.2-.2s0-.2-.1-.3c-.4-.3-1-.4-1.4-.5-.4 0-.7 0-.9-.1-1.2-.2-2.4 0-3.6.5-.1 0-.2.1-.3.2-.1.1-.1.2-.1.3-.6-.2-1-.1-1.4.3zM84 65.4c-.4-.1-.8-.4-1.1-.6-.3-.2-.3-.4-.2-.8.1-.2.1-.2-.2-.4-.2.1-.3.1-.4.2h-.2c-.7-.1-1.4-.3-2-.7-.1.1-.2.1-.2.2s0 .2.1.3c.1.1.2.1.2.2.8.7 1.7 1.2 2.7 1.7.3 0 .7.1 1 .1.1-.1.2-.2.3-.2.5.2 1.1.2 1.6-.3.1-.2.3-.5.4-.8-.2-.2-.3-.2-.4-.1-.4.5-.9.9-1.5 1 0 .1 0 .1-.1.2zm-3.1-9.1c.4-.1.7-.2 1.1-.3.5-.1.9-.1 1.3.3l.1.1c.3.2.6.1.9 0 .3-.2.5-.4.5-.8-.5-.4-1-.8-1.6-1-.2 0-.3 0-.4.1-.7.3-1.3.7-1.8 1.2 0 .1 0 .3-.1.4 0 0-.1 0-.1.1-.4.5-.5.9-.6 1.5l-.1.1c-.3.1-.4.1-.5-.1-.1-.1-.1-.3-.2-.4-.1-.2-.3-.1-.4 0-.1.2-.2.5-.3.7.2.7.6 1.2 1.1 1.5.3 0 .4-.3.5-.5.2-.2.3-.4.5-.6.1-.2.3-.4.4-.7-.2-.6-.6-1.1-.3-1.6zm-11.8 4.1c-.1 0-.2-.1-.3 0-.7.3-1.4.7-2.1 1-.2.1-.3.2-.4.5v.2c.3.8.9 1.2 1.6 1.7.2.1.4.1.6-.1v-.4c-.2-.2-.4-.5-.6-.6 0-.3.2-.5.3-.7.2-.3.3-.5.5-.8 0-.4.2-.6.4-.8h.1c.5 0 1-.1 1.5-.4l.1-.1c0-.1 0-.3-.1-.4-.1-.3-.5-.4-.6-.2-.3.4-.6.7-1 1v.1zm30.5-16c-.3-.6-.7-1.2-1-1.8-.2-.3-.4-.4-.8-.5-.5-.1-.9-.1-1.4.3.1.1.1.3.2.4 1 .3 1.8.9 2.6 1.5.1 0 .3 0 .4.1v.3c.4.6.8 1.1 1.1 1.9 0 .3.1.7.1 1.1 0 .2 0 .4-.1.6-.2.3-.2.6-.2.9 0 .2-.1.4-.3.6l-.9.9c0 .3-.1.5 0 .8.8 0 1.3-.5 1.8-.9.8-.9.9-1.9.8-2.9v-.3l-.3-.9c-.5-1.1-1.1-1.8-2-2.1zm6.1 25.2c-.1.2-.1.4 0 .6.1.2.3.4.4.6.2-.1.3-.2.2-.4-.2-.2-.4-.5-.6-.8-.2-.3-.3-.7-.4-1-.1-.2 0-.4.3-.6.1.1.3.1.4.2.3.5.5 1 .8 1.5.1.1.3 0 .4-.1v-.5c0-.1 0-.2.1-.3.1-.1.2-.1.2-.2.1 0 .2 0 .3.1.3.7.3 1.4.4 2.2.1.1.2.2.4.3.5-.2.2-.8.5-1.1h.3c.2.2.4.3.6.5.7.8 1.6 1.2 2.7 1.1 0 0 .1 0 .1-.1 0-.2-.1-.4-.3-.5-.2-.1-.5-.2-.7-.4-.6-.7-1.5-1.2-2.3-1.8-1.4-1-2.9-1.5-4.6-1.7-.1 0-.2.1-.3.1-.2.3-.2.6-.3.9v.6c0 .2.2.5.4.4.3.2.6.4 1 .4zm-23.6 6c-.1.1-.2.2-.2.3-.1.5-.2 1-.2 1.6v.6c0 .8-.3 1.6-.9 2.1-.5.4-.9.8-1.3 1.2-.8.7-1.7 1.3-2.5 2-.2.1-.3.3-.5.4-.9.9-1.7 1.9-2.4 2.9-.7 1.1-1.2 2.4-1.7 3.6-.1.1-.1.3-.1.5-.2.9-.2 1.8 0 2.7.3 1.8 1.1 3.4 2.2 4.9.9.8 1.8 1.7 2.7 2.5.2.2.4.3.7.4.4.2.9.4 1.3.5.5.2 1 .3 1.5.3 1.7.1 3.4 0 5-.5.8-.2 1.8-.8 2.4-1.4.8-.8 1.5-1.7 2.1-2.6.6-.9 1.2-1.9 1.5-3 0-.2.1-.3.2-.4 0-.3 0-.6.1-.8.3-1.8.1-3.6-.2-5.4-.1-.3-.1-.6-.3-.9-.5-1.2-1-2.3-1.9-3.3-.4-.4-.7-1-.6-1.6.3-.7.7-1.3 1.2-1.9.5-.6.9-1.2 1.4-1.7-.1-.1-.1-.2-.2-.3-1.2-.5-2.4-.8-3.6-1.3-.2-.1-.4-.1-.6-.2-.8-.2-1.7-.3-2.5-.5-1-.3-1.8-.5-2.6-.7zm4.7-.6c.8-.8 1-1.1 2.4-3.6v-1.6c-.3-.4-.6-.8-.9-1.1-.3-.4-.5-.8-.6-1.3-.1-.3-.1-.6.1-.9.3-.4.8-.6 1-1v-.2c.1-.5.2-.5.6-.3.1.1.3.1.4-.1 0-.1 0-.2-.1-.3 0-.2-.1-.3-.1-.5-.1-.3 0-.5.3-.7.2-.1.4-.1.5-.4 0-.5-.1-.9-.4-1.3 0 0-.1 0-.1-.1 0 0-.1 0-.1.1-.2.8-.6 1.6-1.2 2.2-.4.5-.8.8-1.4.9-.2 0-.3.1-.4.1-.4.4-.5.8-.5 1.3.1.8.2 1.7.2 2.5 0 .3.1.6.1.9 0 .3.1.5.3.8.4-.2.9-.3 1.3-.5h.5c.2 0 .3.2.2.5-.4.2-1 .4-1.4.7-.3.2-.5.5-.5.9-.2 1.1-.2 2-.2 3zm-15.6-2.9-.6-.3c-.1-.1-.2-.3-.1-.4.1-.1.1-.2.2-.2.5-.1.9 0 1.4.2.2.1.4.2.6.2.2-.1.4-.1.5-.3-.1-.2-.3-.2-.5-.3-.3-.1-.6-.3-.9-.4-.1 0-.2-.3-.2-.4.1-.2.3-.4.5-.3h.2c.3.2.7.3 1 .5.3.2.5.4.7.6.4-.1.8-.1 1.1-.2.4 0 .7-.1 1.1-.1.1-.5-.2-.7-.5-.9-.3-.1-.7-.2-1.1-.3-.3-.5-.7-.9-1.4-.9-.2.2-.4.3-.6.5-.2 0-.4-.1-.6-.1-.2 0-.4-.1-.7 0-.3.2-.7.5-1.1.8-.1.3-.2.6-.3.8-.3.4-.8.4-1 .8 0 .3.1.6.1.9-.6.8-1.1 1.5-1.6 2.2-.1.1 0 .2.1.3.2-.1.5-.2.7-.3 1-.6 2-1.3 2.9-1.9.1-.3 0-.4.1-.5zm29 4.7-.3.3c-.3.7-.2 1.4.2 2 .1.1.2.2.4.3.1 0 .2.1.3.1.1.1.2.3.1.4-.1.3-.4.5-.5.8 0 .1 0 .2.1.3h.3c.1 0 .2-.1.2-.2.1-.2.1-.4.2-.6.1 0 .1-.1.1-.1.2-.1.5 0 .5.2l.3 1.2c.1.2.2.3.5.3.2-.2.4-.5.5-.8.2 0 .3.1.5.1.1.2.3.4.4.6.1.2.3.4.4.6.6.5 1.2.8 1.9.9.1 0 .2-.1.3-.1.1-.2 0-.4-.2-.6-.1-.1-.3-.2-.4-.3-.5-.2-.9-.6-1-1.1 0-.1-.2-.3-.2-.3-.3-.1-.6.1-.8-.1-.1-.2-.2-.4 0-.5.1-.1.2-.2.3-.4-.1-.3-.2-.6-.4-.8-.1-.2-.4-.1-.5.1-.1.2-.2.5-.3.7-.1.1-.3.2-.4.1-.1 0-.3-.2-.3-.3 0-.2 0-.4.1-.6.2-.3.4-.6.6-1l-.2-.2c-.1 0-.2 0-.3.1-.2.1-.3.4-.5.6-.1.2-.3.3-.5.4-.2-.1-.3-.2-.4-.5.1-.2.2-.4.3-.7.1-.2-.1-.5-.2-.5-.2-.4-.6-.4-1.1-.4zm-26.3-2.7c.2.3.4.5.6.7h.3c.4-.3.9-.6 1.3-1 .2-.2.3-.4.5-.6.1-.1.1-.5 0-.6-.3-.3-.5-.7-.8-1-.1-.1-.2 0-.3-.1-.4.7-.4 1.6-1.1 2.2-.3.1-.5 0-.6-.3.1-.3.3-.6.4-.8.1-.1.1-.3.1-.5 0-.1-.1-.2-.2-.2s-.3.1-.4.2l-.3 1.2c-.1.1-.1.2-.2.3-.1.1-.1.2-.2.2l-.3.3c-.1.1-.2.1-.3.1-.2 0-.3 0-.4-.1-.1-.1-.2-.3-.1-.4.2-.2.4-.5.6-.7 0 0 0-.2-.1-.3-.1 0-.2 0-.3.1-1 .5-1.9 1.1-2.8 1.8-.1.1 0 .3.1.4.3 0 .5-.1.7-.1.3.2.5.3.7.5.4-.2.7-.4 1.1-.6.3.1.5.1.6.2.5-.1.8-.7 1.4-.9zm29.7-18.7c0 .2 0 .3-.1.4-.3.7.1 1.5-.1 2.2v.3c.1.2.2.4.3.5.4.3.6.7.7 1.2l.1.1c.4 0 .7-.3.8-.6.2-.5.3-1 .4-1.5 0-.4 0-.9-.3-1.2-.3-.5-.5-1.1-.8-1.7-.1-.2-.2-.5-.4-.7-.3-.3-.6-.4-1-.2.2.3.3.7.4 1.2zm3.9 11c.9.6 1.8 1.1 2.6 1.7.5.4 1 .7 1.6 1.1.1 0 .2 0 .3-.1-.3-.6-.4-.7-1.8-1.7-.1-.3-.2-.6-.3-.8-.3-.3-.6-.5-.9-.5-.3-.1-.6-.1-.9-.2-.1 0-.2-.1-.2-.2-.1-.2.2-.5-.1-.8-.2-.1-.5-.1-.9-.2h-.5c-.8.1-1.7.3-2.5.6-.3.1-.5.3-.6.5-.1.1-.1.2 0 .3 2.4-.1 2.4-.1 4.2.3zm-11.9-9.9c-.2-.3-.5-.4-.7-.3l-1.5.6c-.3.1-.4.3-.4.6 0 .2-.1.4 0 .6.2.8.5 1.5 1.1 2h.2c-.1-.2-.2-.5-.2-.7-.1-.3-.1-.6-.2-.9 0-.2.2-.4.5-.5.2.1.3.3.3.5.1.7.3 1.3.8 1.9.2.2.3.4.3.7l-.1.1c-.1.1-.2.1-.3.1-.4 0-.7 0-1.1.1-.1.2 0 .4.1.4.3.1.7.3 1.2.2.2-.2.6-.4.8-.8-.1-.3-.2-.7-.3-1 .1-.1.1-.2.1-.3 0-.1.1-.2.1-.3 0 0 0-.1-.1-.1-.3-.1-.5-.3-.8-.4-.3-.5-.5-1-.5-1.6.4-.2.5-.6.7-.9zm-6.3-7.9c-.3-.2-.7-.5-1.1-.8-.4-.3-.7-.8-1.1-1-.1 0-.2-.1-.2 0-.2 0-.4.1-.6.2-.4-.3-.9-.5-1.3-.8-.3 0-.6.1-.9.1-.2-.1-.5-.2-.7-.3-.2-.1-.4-.3-.6-.3-.5.1-.4.6-.7.7-.7 0-1.3.1-1.9.5.2.2.4.2.6.2.9 0 1.8.1 2.7.2h.3l.1-.1c-.1-.1-.1-.3-.2-.4.1-.2.3-.3.5-.3.4.1.6.4.9.7.2.2.3.4.5.6.3.2.6.4 1 .2 0-.1.1-.2.1-.3.2-.3.5-.3.7 0 .2.3.3.7.4.9.6.4 1 .7 1.5 1 .3-.3.1-.6 0-1zm2.9 17.9c-.1-.3-.3-.6-.1-1 .2-.2.6-.5.9-.8 0-.1-.1-.2-.2-.2s-.3.1-.4.2c-.3.2-.5.5-.7.8-.2.4-.5.7-.9.8-.2-.1-.4-.2-.7-.3-.4.1-.8.3-1.2.4-.2.1-.5.6-.4.8.1.5.3.9.6 1.3.1.2.5.2.7 0 .2-.3.5-.5.6-.9.1-.1.2-.3.3-.4.1-.1.4-.1.5.1 0 0 0 .1.1.2 0 .2-.1.4-.2.6l-.6.9v.3c.3.3.7.6 1 1h.3c.2-.1.3-.2.3-.5-.2-.4-.7-.7-.7-1.2.1-.2.3-.5.4-.7-.1-.3-.1-.5-.1-.6.2-.4.4-.6.5-.8zm-8.8-17c.1.1.2.1.2.2.1.1.1.2.1.3.2.3.5.4.8.4.5 0 .9-.1 1.4-.2.6.1 1.1.2 1.7.3.3.1.6.2.9.2 0 0 .1 0 .1-.1.1-.1.1-.2 0-.3-.6-.6-1.5-1.2-2.2-1.4 0 0-.1 0-.1.1.1.3 0 .5-.3.6-.4 0-.8.1-1.2-.2-.2-.2-.2-.5-.5-.6h-.8c-.1-.2-.3-.3-.4-.4.1-.1.1-.2.2-.4-.1.1-.2 0-.3 0-.5.1-1.1.1-1.6 0-.1 0-.2.1-.2.1.3.3.9.1 1.1.6-.1.2-.1.4-.2.6l.1.1c.4.2.8 0 1.2.1zM100.6 62c-.6-.4-1-1-1.5-1.4-.1 0-.1-.1-.2-.1h-.2c-.2 0-.3.1-.4.2-.1.1 0 .3.1.4.8.8 1.8 1.4 3 1.8l1.8-.6c.1 0 .2-.1.3-.2.4-.7.2-1.4 0-2.1-.3.1-.4.4-.5.6-.3.4-.7.8-1.1 1.1-.4.2-.8.4-1.3.3zm-13-8c-.6 0-.7.5-1.1.3-.1-.2-.3-.4-.4-.6h-.2c-.3.2-.5.5-.6.9 0 .1 0 .3.1.4.4 0 .7-.1 1-.1.5 0 .9.2 1.2.7.1.1.2.2.3.4.3 0 .5.1.7.1.4.2.4.6.8.6.3-.6.3-.8.2-1-.1-.4-.3-.7-.6-.9-.6-.2-1.1-.5-1.4-.8zM68.2 65.3c0 .3.2.4.4.5.4.2.9.3 1.3.5h.3c.1 0 .3-.1.4-.1.1-.2.3-.4.4-.6.3-.1.5-.1.8-.2-.2-.3-.4-.5-.6-.7 0-.3.1-.7-.2-.9-.4-.1-.8 0-1.3.2-.2.4-.6.8-1.1 1-.1 0-.3.2-.4.3zm28.3-1.7c.8 0 1.2.6 1.6 1.3.1.2.3.3.4.5h.3c.2-.1.3-.3.3-.5 0-.4 0-.8-.1-1.3-.1-.3-.2-.6-.5-.8-.2-.2-.5-.4-.8-.5-.2-.1-.5-.1-.8 0-.2.1-.4.3-.6.5-.1.2-.2.4.2.8zm-.4 8.9h.6c.9 0 1.6-.4 2.1-1.1.5-.8.8-1.7.7-2.7 0 0-.1 0-.1-.1l-.3.3c-.2.4-.3.8-.5 1.2 0 .1-.1.2-.2.3-.3.2-.6.5-.9.7-.7.2-1.3.4-1.9.6-.1 0-.2.1-.2.2s0 .2.1.3l.6.3zm.3-18.1c.4-.1.7-.5 1.1-.3.1.2.3.4.4.6.4.1.7.1 1 .2.4-.1.7-.4 1-.7.1-.3.2-.6.3-.8-.2-.3-.4-.4-.7-.4-.5-.1-1.1-.1-1.5-.1-.7.1-1.2.5-1.6 1.1v.4zm-12.3 4.7c-.4-.3-.8-.5-1.2-.8-.1-.1-.3-.1-.5 0-.3.1-.6.2-.8.6.1.6.4 1.1 1.1 1.3.4.1.8.2 1.2.2.6-.2 1-.5 1.3-1.1 0-.1 0-.2-.1-.3-.2.1-.5.1-1 .1zm3.4-.5c-.1-.5-.1-1-.3-1.5-.1-.5-.4-.9-.7-1.2-.2-.1-.4-.2-.6 0-.3.2-.5.4-.4.8.2.3.5.5.7.8.2.2.3.5.3.7v.4c-.2.5-.3.9-.4 1.3 0 .1.1.2.1.2.3 0 .6-.1.8-.4.2-.3.3-.7.5-1.1zm15.6 17.6c.7.2 1.4.4 2.1.4h.5c.1 0 .2-.1.2-.2v-.3c-.3-.4-.7-.7-1.1-.8-.8-.3-1.6-.4-2.5-.4 0 .1-.1.1-.1.2s0 .2.1.3c.2.3.6.6.8.8zM92.9 51.9c-.7-.4-1.4-.7-1.9-1.3h-.3c-.1 0-.2.2-.2.2 0 .2 0 .4.2.6.6.8 1.2 1.7 1.7 2.6 0 .1.2.1.3.2.2-.6.3-1.2.3-1.8 0-.1-.1-.3-.1-.5zm-.7-1.2c.7.2 1.3.4 1.8.5h.1l.2-.2c0-.4-.4-.7-.6-1.1-.4-.4-.8-.8-1.4-.9-.1 0-.2.1-.3.1-.3.2-.5.5-.3.8.2.2.4.5.5.8zm5.9 8.2c-.1-.4-.3-.7-.5-1-.1-.2-.2-.4-.2-.7.3-.4.6-.8.8-1.2.1-.1.1-.3-.1-.3-.1.1-.2.1-.2.2-.4.5-.8.9-1.4 1.2-.2.1-.3.3-.4.4 0 .4.1.8.3 1.1.4.2.9.4 1.3.4.2 0 .3 0 .4-.1zM84.9 74.6c-.1-.4-.1-.7-.2-1 0-.1-.1-.1-.2-.1l-.1.1c0 .2.1.3.1.5v.3c-.1.1-.3.1-.4.2-.2-.3-.4-.5-.6-.7-.3 0-.5.1-.7.1-.2 0-.4.1-.6.1-.1 0-.2.3-.1.4.1.1.2.2.4.3l1.2.3c.6.1 1.1.3 1.7.2.1 0 .2-.1.2-.2s0-.2-.1-.3c-.1-.1-.3-.1-.6-.2zM96 50.7l-.3.9c-.1.2 0 .3.1.4.6.3 1.2.1 1.9-.1.1-.2.3-.4.4-.6.1-.1.1-.3-.1-.5-.3-.2-.8-.2-1.3-.3h-.3c-.1.1-.2.2-.4.2zm-6.3 9.8c0-.5-.1-.9-.3-1.4 0-.1-.2-.1 0 0-.5.2-.8.3-1.2.4.2.6 0 1.2-.2 1.8v.2c0 .1.1.2.1.2h.3c.6-.3 1-.7 1.3-1.2zm17.2 20.3c-.2-.7-.5-1.2-.8-1.8v-.8c-.2-.4-.5-.6-.8-.7-.2 0-.4 0-.5.3.1.1.2.2.3.4l.3.9c.2.8.6 1.5 1.1 2h.2c0-.1 0-.1.2-.3zM77.4 58.4c-.3.2-.4.5-.3.8.1.4.2.7.5 1 .2.2.5.4.7.6.3.2.5.5.9.6.3 0 .4-.3.5-.6-.1-.1-.3-.2-.4-.4-.6-.6-1.3-1.1-1.6-1.9-.1-.1-.2-.1-.3-.1zm22-10.4c-.3-.3-.6-.2-.8-.1-.3.2-.5.5-.8.8-.2.2-.3.5-.3.9.1.1.1.2.2.2.6.2 1.1 0 1.6-.4.4-.3.2-.8.1-1.2.1 0 .1-.1 0-.2zM76.3 62.7c0-.5-.2-1-.4-1.5-.1-.3-.3-.5-.6-.7-.1-.1-.3-.1-.4-.1-.3.4-.4.6-.2.9.3.4.5.9.5 1.5 0 .1.1.2.1.2.4 0 .8.1 1-.3zm14.4-14.1c.4.1.6-.2.9-.3.3-.1.7-.2 1-.3.1-.7.1-.7-.1-1.8-.8.3-1.3 1-1.8 1.7v.7zm7.1-2c.2.1.4.2.5.3.3 0 .5 0 .7-.2-.2-.3-.4-.7-.7-1-.2-.3-.5-.4-.8-.3-.4.1-.8.2-1.1.6-.1.4.1.6.4.8.3-.2.6-.2 1-.2zm-16.7 8.1c.2-.1.5-.2.7-.4 1.1-.5 1.3-.6 2.5 0 .3-.3.4-.4 0-.5-.5-.1-.5-.7-.9-.9-.1 0-.3-.1-.4 0-.8.2-1.5.7-2 1.5 0 0 .1.1.1.3zm-.6 7.1c.1.1.1.3.2.4.1.1.2.3.3.4.2.2.4.3.7.3.2 0 .4-.1.5-.3-.1-.1-.2-.3-.3-.5-.1-.2-.2-.4-.2-.6.1-.2.2-.4.4-.6-.2-.2-.3-.3-.5-.4-.1-.1-.2 0-.3 0-.2.4-.5.8-.7 1.2-.1-.1-.1 0-.1.1zm3.5-.5c-.7.1-1-.2-1.4.1.1.3.1.5.2.8.1.3.3.7.7.8.1.1.3.1.5-.1 0-.2.1-.4.1-.6.2-.5.9-.6 1.1-1.1 0-.1-.1-.2-.1-.3-.5.2-.9.3-1.1.4zm18.6-2.2c-.4 0-.7 0-1 .4-.3.4-.7.7-1.1 1.1-.1.1-.1.3 0 .4.1.2.3.2.6.2.3-.3.7-.6 1-.8.2-.5.6-.8.5-1.3zm-9.5-13.7c.4-.1.6-.3.7-.6.2-.6.6-1 1.1-1.3.1-.1.1-.2.2-.3-.2 0-.3-.1-.4-.1-.3 0-.5.1-.7.2-.4.3-.8.7-1.1 1.1 0 .4.1.7.2 1zm9.5 11.4c0-.1-.1-.3-.2-.4 0-.1-.1-.2-.2-.3-.5-.4-1-.8-1.6-.9h-.3c-.1 0-.2.1-.2.2-.1.1 0 .4.1.4.4.3.8.5 1.1.8.5-.1.5-.1.9.2.1.1.2.1.4 0zM89.9 73c-.1-.1-.1-.2-.2-.2-.1-.1-.2 0-.3.1-.6.6-1.3 1.7-1.8 2.8v.1h.1c.1 0 .2-.1.3-.2.7-.9 1.4-1.7 1.9-2.6zm3.8-1.8c.2-.3.6 0 .8-.3 0-.3-.2-.5-.3-.7-.2-.2-.3-.3-.5-.2-.2 0-.3.1-.4.2l-.6.9s0 .1-.1.2c0 .1.1.3.1.4.3.1.5.1.8 0 .1-.3.1-.4.2-.5zM85 62.6c.9 0 1.4-.2 1.9-.7.3-.3.6-.6.5-1.1h-.3c-.3.1-.5.2-.6.4-.3.4-.7.8-1.2 1-.1 0-.1.2-.3.4zm-11-.5c-.5.1-1 .4-1.5.4-.2 0-.5.2-.7.3-.1.1-.1.2-.2.2-.1.1-.1.4 0 .4s.2.1.3.1l1.5-.6c.2-.1.4-.1.6-.2.1-.1.3-.2.2-.4l-.2-.2zm4.7-6.8c-.1 0-.2 0-.3.1-.5.3-.8.8-1.1 1.4-.1.2 0 .3.3.5.3-.2.6-.4.8-.6.3-.6.4-1 .3-1.4zm6.5 2.3c-.5-.4-.6-.4-1-.3-.4 0-.7.1-1 .3.1.1.2.2.4.3.4.4.9.5 1.4.5.2 0 .4-.1.4-.4-.1-.1-.2-.3-.2-.4zm5.4 13.7c-.3.2-.4.4-.3.6.2.2.3.4.5.6.2.2.4.3.7.2.2-.1.3-.4.2-.8 0-.1-.1-.2-.1-.3-.2-.3-.6-.3-1-.3zm9-12.6c.4-1 .4-1 .3-1.8h-.1c-.5.1-.8.4-1 .9-.1.3 0 .5.2.7.2.1.3.3.6.2zm-3.7 8c.3.5.6 1.1.9 1.6l.1.1s.1 0 .1-.1c.1-.6 0-1.2-.2-1.8 0-.2-.3-.3-.5-.2-.2 0-.4.1-.4.4zm-1.5-14.4c-.2-.1-.4-.1-.4 0-.2.8-.3 1.6-.4 2.3l-.3.9c0 .1.1.1.2.1s.2-.1.2-.2c.2-.9.4-1.7.6-2.6.1-.1.1-.3.1-.5zm-.5-3.7c0 .1 0 .2.1.3.4.3.8.6 1.3.8.3-.1.6-.1.8-.4-.3-.1-.6-.1-.9-.2-.3-.1-.7-.3-1-.5-.1-.1-.2 0-.3 0zM72.3 61.4c.3-.6.4-1 .2-1.5-.1-.3-.2-.5-.5-.6-.2 0-.4.1-.4.4.1.2.2.4.3.7.2.2.3.5.4 1zm28.3-3.7c-.1.5-.3.9-.3 1.4v.1s0 .1.1.1c.1.1.2 0 .3 0 .4-.4.4-.8.3-1.3-.1 0-.2-.1-.4-.3zM85.8 74c.1-.2.1-.3.2-.5.1-.6 0-1.2-.1-1.7 0-.1-.1-.1-.4 0 0 .7-.1 1.5.3 2.2zm11-26.5c-.4.2-.9.3-1.3.5-.1 0-.1.2-.1.3l.1.1c.6.2 1 0 1.4-.7 0-.1-.1-.1-.1-.2zm-8.4 15.4c-.2-.3-.3-.3-.9.2 0 .3-.3.5-.1.9.1-.1.3-.1.4-.2l.6-.9zm-21-3.2h.1c.4-.3.9-.6 1.3-.9 0 0 0-.1.1-.1l-.1-.1c-.6 0-1.1.3-1.4.9-.1 0 0 .1 0 .2zm16.8 4.4c-.1.2-.5-.2-.7.1.3.2.7.3 1.1.1.3-.1.5-.3.7-.6.1-.1.1-.2 0-.3h-.1c-.4.2-.6.4-1 .7zM95.4 53c-.1.1-.2.2-.2.3l-.3 1.5c0 .1 0 .2.1.3.1.1.3 0 .4-.1-.1-.6.1-1.2.4-1.8-.2-.1-.3-.1-.4-.2zm-24.7 9.9c0-.3-.2-.3-.4-.4-.2-.1-.3-.2-.5-.3-.2-.1-.3-.3-.5-.3-.1.1-.2.1-.2.2s0 .2.1.3c.3.3.6.4.9.5.2.1.4.1.6 0zm25 6.6c.4-.2.3-.6.3-1h-.1c-.1 0-.2.1-.3.1-.2.2-.3.4-.4.6.1.3.3.4.5.3zm-5.8 4.9c.5-.2.9-.3 1.2-.4.1 0 .1-.1.2-.2-.2-.2-.5-.3-.7-.2-.3.1-.5.3-.7.8zm4.9-7.8c.1-.3.1-.6.1-.9 0-.1-.1-.2-.1-.3l-.1-.1c-.1 0-.2 0-.2.1 0 .2 0 .5-.1.7-.1.3.1.5.4.5zm-.5 6.8c.2.1.3.2.4.2.3 0 .7 0 1-.3-.3-.2-.6-.3-1-.2-.2.1-.3.2-.4.3zm8.2-18.2c.1 0 .2-.1.2-.2-.1-.4-.4-.6-.8-.6-.1 0-.2.1-.2.1.1.3.4.5.8.7zM73.6 65.4c0-.4-.1-.5-.3-.3-.2.1-.3.2-.5.3-.1.1-.2.4-.1.4h.3c.2-.1.4-.2.6-.4zm5.8-9.3c.1.1.2.2.3.2.1 0 .2 0 .3-.1.1-.1.1-.3.2-.4 0 0 0-.1-.1-.1h-.3c-.1 0-.3.2-.4.4zm17.9 4.2s.1 0 .1-.1c.1-.1.1-.2.2-.2 0-.1-.2-.2-.4-.2s-.2.2-.1.3c0 .1.1.2.2.2zm-26.8.8c-.1 0-.2.1-.3.2-.1.1 0 .3.1.4.2.1.4 0 .5-.2 0-.2-.1-.4-.3-.4zm13.4 5.7v-.1l-.2-.2-.1.1c-.1.2 0 .3.2.3l.1-.1zm13-11.3c.1-.1.2-.2.3-.2.1-.1.1-.2-.1-.2H97l-.3.3v.1c.1-.1.2 0 .2 0zm4 20.5c.2.2.2.2.5.1-.3-.1-.3-.1-.5-.1z"/>
        <path d="m82.1 75.6 2.4.6c.8.2 1.7.3 2.5.5.2 0 .4.1.6.2 1.2.5 2.4.9 3.6 1.3.1 0 .1.2.2.3-.4.6-.9 1.2-1.4 1.7-.5.6-.8 1.2-1.2 1.9-.1.6.2 1.1.6 1.6.9 1 1.4 2.1 1.9 3.3l.3.9c.3 1.8.5 3.6.2 5.4 0 .3 0 .5-.1.8 0 .1-.1.2-.2.4-.3 1.1-.9 2-1.5 3-.6.9-1.3 1.8-2.1 2.6-.6.6-1.6 1.2-2.4 1.4-1.6.5-3.3.6-5 .5-.5 0-1.1-.2-1.5-.3-.4-.2-.9-.4-1.3-.5-.2-.1-.5-.2-.7-.4-.9-.8-1.8-1.6-2.7-2.5-1.1-1.4-2-3-2.2-4.9-.1-.9-.2-1.8 0-2.7 0-.2 0-.3.1-.5.5-1.2 1-2.5 1.7-3.6s1.5-2.1 2.4-2.9c.2-.1.3-.3.5-.4.8-.7 1.7-1.3 2.5-2 .5-.4.9-.8 1.3-1.2.7-.6.9-1.3.9-2.1v-.6c.1-.5.1-1.1.2-1.6.2 0 .3-.1.4-.2zm5 19.7c-.1-.1-.1-.2-.2-.2-.2-.1-.5-.1-.6.1-.1.2-.1.4 0 .6.1.2.3.3.5.4.4-.3.4-.6.3-.9zm1.5-5.6c.2 0 .4-.1.4-.4.1-.2 0-.5-.1-.6-.2-.1-.4-.1-.6 0-.1.1-.2.4-.2.5.1.3.3.5.5.5zm-1 1.2c-.4.4-.3.8.2.9.2 0 .3 0 .4-.2v-.3c-.1-.2-.3-.4-.6-.4zm-1 7.3c.1-.2.1-.4 0-.6-.1 0-.2-.1-.3-.1-.1 0-.2 0-.3.1-.2.1-.2.3-.1.5.2.3.3.3.7.1zm3-6.2c0-.2-.1-.4-.3-.5h-.2c-.2 0-.3.3-.3.5 0 .3.2.4.4.4s.4-.2.4-.4z" style="fill:#f1f8f6"/>
        <path class="st4" d="M71.2 72.1c0 .1 0 .2-.1.3-1 .6-1.9 1.3-2.9 1.9-.2.1-.5.2-.7.3-.1-.1-.2-.2-.1-.3.5-.7 1-1.5 1.6-2.2 0-.2-.1-.6-.1-.9.2-.4.7-.4 1-.8.1-.2.2-.5.3-.8.4-.3.8-.5 1.1-.8.3-.1.5 0 .7 0 .2 0 .4.1.6.1.2-.2.4-.4.6-.5.7-.1 1.1.4 1.4.9.4.1.7.2 1.1.3.3.2.6.5.5.9-.4 0-.7.1-1.1.1-.4 0-.7.1-1.1.2-.2-.2-.5-.4-.7-.6-.3-.2-.6-.4-1-.5h-.2c-.2 0-.4.1-.5.3 0 .1.1.4.2.4.3.1.6.3.9.4.2.1.4.1.5.3-.1.2-.3.3-.5.3s-.4-.1-.6-.2c-.4-.2-.9-.3-1.4-.2-.1 0-.2.1-.2.2-.1.1 0 .4.1.4.2.3.4.4.6.5zm29 4.7c.5 0 .9.1 1.3.3.2.1.3.4.2.5-.1.2-.2.5-.3.7 0 .3.2.4.4.5.2 0 .4-.2.5-.4.1-.2.2-.5.5-.6.1-.1.2-.1.3-.1.1 0 .1.1.2.2-.2.3-.4.6-.6 1-.1.2-.1.4-.1.6 0 .1.1.3.3.3.2 0 .4 0 .4-.1.1-.2.2-.5.3-.7.1-.2.4-.2.5-.1.2.2.4.5.4.8-.1.1-.2.3-.3.4-.2.2-.2.4 0 .5.2.2.5 0 .8.1.1.1.2.2.2.3.2.5.5.9 1 1.1.1.1.3.2.4.3.2.1.2.3.2.6-.1 0-.2.1-.3.1-.7 0-1.3-.3-1.9-.9-.1-.2-.3-.4-.4-.6-.1-.2-.3-.4-.4-.6-.2 0-.3-.1-.5-.1-.2.2-.4.5-.5.8-.2 0-.4-.1-.5-.3l-.3-1.2c0-.2-.3-.2-.5-.2l-.1.1c-.1.2-.1.4-.2.6 0 .1-.1.2-.2.2s-.2.1-.3 0c-.1 0-.1-.2-.1-.3 0-.3.3-.5.5-.8 0-.1 0-.4-.1-.4s-.2-.1-.3-.1c-.1-.1-.3-.1-.4-.3-.4-.6-.5-1.3-.2-2-.1 0 0-.1.1-.2zm5.5-7.2c-.4 0-.7-.2-1.1 0-.2.1-.4-.2-.4-.4v-.6c0-.3 0-.6.3-.9.1 0 .2-.1.3-.1 1.7.2 3.2.7 4.6 1.7.8.6 1.6 1 2.3 1.8.2.2.5.2.7.4.2.1.3.3.3.5l-.1.1c-1.1 0-2-.3-2.7-1.1-.2-.2-.4-.4-.6-.5h-.3c-.3.3 0 .9-.5 1.1-.1-.1-.2-.2-.4-.3-.1-.8-.1-1.5-.4-2.2-.1-.1-.1-.2-.3-.1-.1 0-.2.1-.2.2-.1.1-.1.2-.1.3v.5c-.1.1-.3.2-.4.1-.3-.5-.6-1-.8-1.5-.1-.1-.2-.2-.4-.2-.2.1-.3.3-.3.6.2 0 .3.3.5.6zm-31.8 4.5c-.6.2-.9.7-1.5.9-.1 0-.3-.1-.6-.2-.3.2-.7.4-1.1.6-.2-.1-.4-.3-.7-.5-.2 0-.5.1-.7.1-.1-.1-.3-.3-.1-.4.9-.7 1.8-1.3 2.8-1.8.1 0 .2 0 .3-.1 0 .1.1.2.1.3-.2.2-.4.5-.6.7-.1.2 0 .3.1.4.1.1.3.1.4.1.1 0 .2-.1.3-.1l.3-.3c.1-.1.1-.2.2-.2.1-.1.1-.2.2-.3.1-.3.2-.8.3-1.2.1-.1.3-.2.4-.2.1 0 .2.1.2.2 0 .2 0 .3-.1.5-.1.3-.3.6-.4.8.1.3.3.4.6.3.6-.6.7-1.5 1.1-2.2.1 0 .3 0 .3.1.3.3.5.7.8 1 .1.1.1.5 0 .6-.2.2-.3.4-.5.6-.4.3-.8.7-1.3 1-.1.1-.2 0-.3 0-.1-.2-.2-.4-.5-.7z"/>
        <path class="st5" d="M103.6 55.4c-.1-.5-.2-.9-.3-1.3.4-.2.8-.1 1 .2.2.2.3.4.4.7.2.6.4 1.2.8 1.7.2.4.3.8.3 1.2 0 .5-.1 1.1-.4 1.5-.2.3-.4.6-.8.6l-.1-.1c0-.5-.3-.9-.7-1.2-.2-.1-.2-.3-.3-.5 0-.1-.1-.2 0-.3.2-.7-.1-1.5.1-2.2-.1 0-.1-.1 0-.3z"/>
        <path class="st4" d="M107.5 66.4c-1.8-.4-1.8-.4-4.2-.3-.1-.1-.1-.2 0-.3.2-.2.4-.4.6-.5.8-.3 1.6-.5 2.5-.6h.5c.3 0 .6.1.9.2.3.3 0 .6.1.8.1.1.1.2.2.2.3.1.6.1.9.2.3.1.6.2.9.5.1.2.2.5.3.8 1.4 1.1 1.5 1.1 1.8 1.7-.1 0-.2.1-.3.1-.5-.3-1.1-.7-1.6-1.1-.9-.6-1.7-1.1-2.6-1.7z"/>
        <path class="st5" d="M95.6 56.5c-.1.3-.3.7-.4 1 0 .6.2 1.1.5 1.6.2.1.5.3.8.4l.1.1c0 .1-.1.2-.1.3 0 .1-.1.2-.1.3.1.3.2.7.3 1-.2.4-.6.6-.8.8-.5.1-.8-.1-1.2-.2-.1-.1-.2-.2-.1-.4.3 0 .7 0 1.1-.1.1 0 .2-.1.3-.1l.1-.1c0-.3-.2-.5-.3-.7-.4-.6-.7-1.2-.8-1.9 0-.2-.1-.4-.3-.5-.3.1-.5.3-.5.5 0 .3.1.6.2.9.1.2.2.5.2.7h-.2c-.7-.5-1-1.2-1.1-2v-.6c0-.3.2-.5.4-.6l1.5-.6c-.1-.2.1-.1.4.2z"/>
        <path class="st4" d="M89.3 48.6c.1.4.4.7 0 1.1-.5-.3-1-.6-1.5-1-.1-.2-.3-.6-.4-.9-.2-.3-.5-.3-.7 0-.1.1-.1.2-.1.3-.4.2-.7 0-1-.2-.2-.2-.3-.4-.5-.6-.2-.3-.5-.6-.9-.7-.2 0-.4.1-.5.3.1.1.1.3.2.4 0 0 0 .1-.1.1h-.3c-.9-.2-1.8-.3-2.7-.2-.2 0-.4 0-.6-.2.6-.4 1.3-.5 1.9-.5.3-.1.2-.6.7-.7.1 0 .4.2.6.3.2.1.5.2.7.3.3 0 .5-.1.9-.1.4.2.8.5 1.3.8.2-.1.4-.1.6-.2h.2c.4.2.7.7 1.1 1 .3.2.7.5 1.1.7z"/>
        <path class="st5" d="M92.2 66.5c-.1.2-.3.4-.5.6 0 .2.1.4.1.6-.1.2-.2.5-.4.7 0 .6.5.8.7 1.2 0 .2-.1.4-.3.5h-.3c-.3-.4-.6-.7-1-1v-.3l.6-.9c.1-.2.1-.4.2-.6-.1-.1-.1-.2-.1-.2-.2-.2-.4-.2-.5-.1-.1.1-.2.2-.3.4-.1.4-.4.6-.6.9-.2.2-.6.2-.7 0-.3-.4-.5-.8-.6-1.3-.1-.2.2-.7.4-.8.4-.2.8-.3 1.2-.4.2.1.5.2.7.3.5-.1.8-.4.9-.8.2-.4.4-.6.7-.8.1-.1.3-.1.4-.2.1 0 .2.1.2.2-.3.3-.6.6-.9.8-.1.6 0 .9.1 1.2zm7.4-22.1c.9.4 1.5 1.1 2 1.9.2.3.2.6.3.9v.3c.2 1 .1 2-.8 2.9-.5.4-1 .9-1.8.9-.2-.2-.1-.5 0-.8l.9-.9c.1-.2.3-.3.3-.6s.1-.6.2-.9c.1-.2.1-.4.1-.6 0-.4-.1-.8-.1-1.1-.3-.8-.7-1.3-1.1-1.9v-.1z"/>
        <path class="st4" d="M83.4 49.5c-.4-.1-.8.1-1.2-.2l-.1-.1c.1-.2.1-.4.2-.6-.3-.5-.8-.3-1.1-.6.1 0 .2-.1.2-.1.5.1 1.1.1 1.6 0 .1 0 .2.1.4.2-.1.1-.1.2-.2.4.1.1.2.3.4.4h.8c.3.1.3.4.5.6.4.2.8.2 1.2.2.3-.1.5-.3.3-.6l.1-.1c.7.2 1.7.8 2.2 1.4.1.1.1.2 0 .3l-.1.1c-.3-.1-.6-.2-.9-.2-.6-.1-1.1-.2-1.7-.3-.5.1-1 .2-1.4.2-.3 0-.6-.1-.8-.4 0-.1-.1-.2-.1-.3-.1-.2-.2-.2-.3-.3z"/>
        <path class="st5" d="M97 65.3c-.1-.1-.3-.2-.4-.2-.6 0-1.1-.3-1.6-.5h-.2c-.6-.7-.6-.7-1.6-.9-.9.1-1.6.4-2.1 1.2 0 .1-.1.1-.2.1l-.1-.1v-.5c.1-.3.3-.5.6-.7.2-.1.5-.2.7-.3.7-.5 1.4-.7 2.2-.7.4.1.8.3 1 .7.2.6.7.9 1.2 1.2.1.1.3.1.4.2.2.1.2.4.1.5zm3.6-3.3c.6.1.9-.1 1.3-.4.4-.3.8-.7 1.1-1.1.1-.2.2-.5.5-.6.2.7.3 1.4 0 2.1-.1.1-.2.1-.3.2l-1.8.6c-1.1-.5-2.1-1-3-1.8-.1-.1-.2-.3-.1-.4.1-.1.2-.2.4-.2h.2c.1 0 .1 0 .2.1.5.6.9 1.1 1.5 1.5zm-13-8c.4.2.8.5 1.3.8.3.2.5.5.6.9.1.3 0 .5-.2 1-.4 0-.4-.4-.8-.6-.2 0-.4-.1-.7-.1-.1-.1-.3-.2-.3-.4-.3-.4-.7-.6-1.2-.7-.3 0-.6 0-1 .1 0-.1-.1-.2-.1-.4.1-.4.3-.7.6-.9h.2c.1.2.3.4.4.6.4.2.6-.3 1.2-.3zM68.2 65.3c.2-.1.3-.3.5-.3.5-.2.9-.6 1.1-1 .5-.2.8-.3 1.3-.2.3.2.2.6.2.9.2.2.4.5.6.7-.3.1-.5.1-.8.2-.1.2-.3.4-.4.6-.2 0-.3.1-.4.1H70c-.4-.2-.9-.3-1.3-.5-.4-.1-.5-.2-.5-.5z"/>
        <path class="st6" d="M96.5 63.6c-.3-.4-.3-.6-.2-.8.2-.2.4-.4.6-.5.2-.1.5-.2.8 0 .3.2.5.3.8.5.2.2.4.5.5.8.1.4.1.8.1 1.3 0 .2-.1.4-.3.5-.1 0-.2.1-.3 0-.2-.1-.3-.3-.4-.5-.4-.7-.9-1.3-1.6-1.3z"/>
        <path class="st5" d="m96.1 72.5-.6-.3c0-.1-.1-.2-.1-.3 0-.1.1-.2.2-.2.6-.2 1.2-.4 1.9-.6.3-.2.6-.4.9-.7.1-.1.2-.2.2-.3.2-.4.3-.8.5-1.2l.3-.3c.1 0 .1 0 .1.1.2 1-.2 1.9-.7 2.7-.5.8-1.2 1.2-2.1 1.1h-.6zm.3-18.1c0-.2 0-.3.1-.4.4-.5.8-1 1.6-1.1.5 0 1 .1 1.5.1.3 0 .5.2.7.4-.1.3-.2.6-.3.8-.3.3-.5.5-1 .7-.3-.1-.7-.1-1-.2-.2-.2-.3-.4-.4-.6-.5-.2-.8.2-1.2.3zm-12.3 4.7h1.1c.1.1.2.2.1.3-.3.6-.7.9-1.3 1.1-.4 0-.8-.1-1.2-.2-.7-.2-1-.7-1.1-1.3.1-.4.4-.5.8-.6h.5c.3.2.7.5 1.1.7zm3.4-.5c-.2.5-.3.8-.4 1.1-.2.3-.5.4-.8.4 0-.1-.1-.2-.1-.2.1-.4.3-.8.4-1.3v-.4c0-.3-.1-.5-.3-.7-.2-.3-.5-.5-.7-.8-.1-.4.1-.6.4-.8.2-.1.4-.1.6 0 .4.3.6.7.7 1.2 0 .5.1 1 .2 1.5zM81 56.3c0-.1 0-.3.1-.4.5-.5 1.1-1 1.8-1.2.1 0 .2 0 .4-.1.6.2 1.1.6 1.6 1 0 .4-.3.6-.5.8-.3.2-.6.2-.9 0l-.1-.1c-.4-.3-.9-.4-1.3-.3-.5.1-.8.2-1.1.3zm3 9-.2.2c-.4 0-.7-.1-1-.1-1-.5-1.9-1-2.7-1.7-.1-.1-.2-.1-.2-.2-.1-.1-.1-.2-.1-.3 0-.1.1-.1.2-.2.6.4 1.4.6 2 .7h.2c.1-.1.3-.1.4-.2.3.2.3.2.2.4-.2.4-.1.6.2.8.3.3.6.5 1 .6 0 .1 0 0 0 0z"/>
        <path class="st4" d="m103.1 76.2-.9-.9c-.1-.1-.1-.2-.1-.3 0 0 0-.1.1-.2.8-.1 1.7.1 2.5.4.4.2.9.4 1.1.8.1.1.1.2 0 .3 0 .1-.1.2-.2.2h-.5c-.6.1-1.3-.1-2-.3z"/>
        <path class="st6" d="M92.9 51.9c.1.2.1.3.1.5 0 .6-.1 1.2-.3 1.8-.1-.1-.2-.1-.3-.2-.5-.9-1.1-1.8-1.7-2.6-.1-.2-.2-.4-.2-.6 0-.1.1-.2.2-.2s.2-.1.3 0c.5.6 1.2 1 1.9 1.3zm.6 23.5c0-.1 0-.2.1-.3.1-.1.2-.1.3-.2 1.2-.4 2.4-.6 3.6-.5.3 0 .5 0 .9.1s.9.2 1.4.5c.1 0 .1.2.1.3 0 .1-.1.2-.2.2h-.5c-.4-.1-.7-.1-1.1-.2-.8-.2-1.6-.2-2.4-.1-.8.1-1.5.2-2.2.2zm-1.5.3c0 .2-.1.4-.3.6-.3.5-.3.5.3.8.1 0 .1.1.2.2-.7.1-1.7-.1-2.6-.5-.2-.1-.4-.2-.6-.5.4-.4.8-.8 1.3-1.1h.3l.3.6c.1 0 .3.1.4.1.3-.1.6-.1.7-.2z"/>
        <path class="st5" d="M80.9 56.3c-.3.5 0 1 .2 1.5-.1.2-.3.4-.4.7-.1.2-.3.4-.5.6-.1.2-.2.5-.5.5-.6-.3-.9-.8-1.1-1.5.1-.2.2-.4.3-.7.1-.2.3-.2.4 0 .1.1.1.3.2.4.1.2.3.2.5.1l.1-.1c.1-.6.3-1 .6-1.5h.2zm11.3-5.6c-.2-.3-.3-.6-.5-.9-.1-.3 0-.6.3-.8.1 0 .2-.1.3-.1.6.1 1 .5 1.4.9.1.4.5.7.6 1.1 0 .1-.1.2-.2.2H94c-.5 0-1.1-.2-1.8-.4zm5.9 8.2c-.1.1-.2.1-.4.1-.5-.1-.9-.2-1.3-.4-.3-.3-.3-.7-.3-1.1.1-.1.2-.3.4-.4.6-.3 1-.7 1.4-1.2.1-.1.2-.1.2-.2.2.1.2.2.1.3-.3.4-.6.9-.8 1.2 0 .3.1.5.2.7.2.3.5.6.5 1z"/>
        <path class="st6" d="M84.9 74.6c.3.1.5.2.6.3.1.1.1.2.1.3 0 .1-.1.2-.2.2-.6 0-1.2-.1-1.7-.2l-1.2-.3c-.1 0-.2-.2-.4-.3-.1-.1-.1-.3.1-.4.2 0 .4-.1.6-.1.2 0 .4-.1.7-.1.2.2.4.4.6.7.1-.1.3-.1.4-.2.1-.1 0-.2 0-.3 0-.2-.1-.3-.1-.5 0 0 0-.1.1-.1s.2 0 .2.1c.1.2.2.5.2.9zm-8.4-14h.3c.6.5 1.1.9 1.7 1.4.2.1.3.3.3.5-.1.2-.2.5-.3.7l-.1.1c-.4.1-.8 0-1.2-.3 0-.1-.1-.2-.1-.3-.1-.6-.3-1.4-.6-2.1z"/>
        <path class="st5" d="M96 50.7c.1-.1.3-.1.4-.2h.3c.4.1.9.2 1.3.3.2.2.2.4.1.5-.1.2-.3.4-.4.6-.7.2-1.3.4-1.9.1-.1-.1-.2-.2-.1-.4l.3-.9zm-6.3 9.8c-.3.5-.7.9-1.2 1.2-.1.1-.2.1-.3 0-.1 0-.1-.1-.1-.2v-.2c.2-.6.3-1.2.2-1.8.4-.1.7-.2 1.2-.4-.2-.1-.1-.1 0 0 .1.4.2.9.2 1.4zm7.9 5.3c.5.5.8 1 1 1.6 0 .7-.2 1.3-.5 1.9-.2.5-.6.9-1.1 1.1-.2.1-.5.2-.7.3-.2.1-.4 0-.7-.2 1.3-.6 1.4-.7 2.4-1.8v-.6c-.1-.6-.2-1.2-.3-1.9-.1-.1 0-.3-.1-.4z"/>
        <path class="st4" d="m106.9 80.8-.3.3h-.2c-.6-.6-.9-1.3-1.1-2l-.3-.9c-.1-.1-.2-.3-.3-.4.1-.3.3-.3.5-.3.3.2.7.3.8.7v.8c.3.6.7 1.1.9 1.8z"/>
        <path class="st5" d="M77.4 58.4c.1 0 .2 0 .3.1.4.8 1 1.3 1.6 1.9l.4.4c-.1.3-.2.5-.5.6-.4-.1-.6-.3-.9-.6-.3-.2-.5-.4-.7-.6-.3-.3-.4-.6-.5-1-.1-.3 0-.6.3-.8z"/>
        <path class="st6" d="M99.4 48c0 .1 0 .1.1.2.1.4.3.8-.1 1.2-.5.4-1 .6-1.6.4-.1 0-.1-.1-.2-.2 0-.3.1-.6.3-.9.2-.3.5-.6.8-.8.1-.1.4-.1.7.1z"/>
        <path class="st5" d="M76.3 62.7c-.2.4-.6.3-1 .2 0-.1-.1-.1-.1-.2 0-.5-.2-1-.5-1.5-.2-.2-.1-.4.2-.9.1 0 .3.1.4.1.3.2.4.4.6.7.2.6.4 1.1.4 1.6zm14.4-14.1V48c.5-.7 1-1.4 1.8-1.7.3 1.1.3 1.1.1 1.8-.3.1-.7.2-1 .3-.3 0-.5.3-.9.2zm7.1-2h-1c-.3-.2-.5-.4-.4-.8.3-.3.7-.5 1.1-.6.3-.1.6 0 .8.3.3.3.5.7.7 1-.2.3-.5.2-.7.2-.2.1-.3 0-.5-.1z"/>
        <path class="st6" d="M81.1 54.7c0-.1-.1-.3 0-.3.4-.8 1.1-1.2 2-1.5h.4c.4.2.5.7.9.9.3.1.3.3 0 .5-1.2-.6-1.4-.5-2.5 0-.3.1-.5.2-.8.4zm18.5-10.4c-.2 0-.3 0-.5-.1-.8-.6-1.6-1.2-2.6-1.5-.1 0-.1-.2-.2-.4.4-.3.9-.4 1.4-.3.3.1.6.2.8.5.4.7.7 1.3 1.1 1.8zM80.5 61.8v-.2c.2-.4.5-.8.7-1.2h.3c.2.1.3.3.5.4-.1.2-.2.4-.4.6 0 .2.1.4.2.6.1.2.2.3.3.5-.1.3-.3.3-.5.3-.3 0-.5-.1-.7-.3-.1-.1-.2-.2-.3-.4 0-.1-.1-.2-.1-.3z"/>
        <path class="st5" d="m94.7 46.3-.1-.1c-.2-.6 0-1.1.4-1.6.3-.4.8-.5 1.2-.6.3 0 .6 0 .9-.1.3.1.4.3.4.5-1.1.1-1.9.7-2.7 1.4-.1.2-.1.4-.1.5zM84 61.3c.2-.1.6-.2 1-.3.1.1.1.2.1.3-.2.5-.9.6-1.1 1.1 0 .2-.1.4-.1.6-.2.2-.3.1-.5.1-.3-.2-.5-.5-.7-.8-.1-.2-.1-.5-.2-.8.5-.4.8-.1 1.5-.2z"/>
        <path class="st6" d="M102.6 59.1c.1.5-.3.8-.4 1.2-.3.3-.7.6-1 .8-.3 0-.5 0-.6-.2-.1-.1-.1-.3 0-.4l1.1-1.1c.2-.2.6-.2.9-.3zm-9.5-13.7c-.1-.3-.2-.6-.3-1 .3-.4.7-.8 1.1-1.1.2-.2.5-.2.7-.2.1 0 .3.1.4.1-.1.1-.1.2-.2.3-.5.3-.9.7-1.1 1.3 0 .3-.3.5-.6.6z"/>
        <path class="st5" d="M102.6 56.8c-.2.1-.3.1-.4 0-.4-.3-.4-.2-.9-.2-.3-.2-.7-.5-1.1-.8-.1-.1-.1-.4-.1-.4.1-.1.2-.1.2-.2h.3c.7.1 1.2.4 1.6.9.1.1.1.2.2.3.1.1.1.2.2.4z"/>
        <path class="st6" d="M89.9 73c-.5.9-1.1 1.7-1.8 2.6-.1.1-.2.1-.3.2h-.1s-.1-.1 0-.1c.5-1 1.2-2.1 1.8-2.8.1-.1.2-.1.3-.1-.1 0 0 .1.1.2z"/>
        <path class="st5" d="M93.7 71.2c-.1.1-.1.3-.2.4-.2.2-.5.1-.8 0 0-.1-.1-.3-.1-.4 0-.1 0-.1.1-.2l.6-.9c.1-.1.3-.1.4-.2.2 0 .3 0 .4.1.2.2.3.4.3.7-.1.5-.5.1-.7.5z"/>
        <path class="st6" d="M85 62.6c.2-.2.2-.3.3-.4.5-.2.9-.6 1.2-1 .2-.2.4-.4.6-.4h.3c.1.5-.3.8-.5 1.1-.4.4-1 .7-1.9.7z"/>
        <path class="st5" d="M74 62.1c.1.1.2.2.2.3 0 .2-.1.3-.2.4-.2.1-.4.2-.6.2-.5.2-1 .3-1.5.6-.1 0-.2 0-.3-.1-.1-.1-.1-.3 0-.4.1-.1.1-.2.2-.2.2-.1.5-.3.7-.3.5-.1 1-.4 1.5-.5z"/>
        <path class="st6" d="M78.7 55.3c.1.4 0 .8-.2 1.3-.3.2-.6.4-.8.6-.3-.1-.4-.3-.3-.5.2-.6.6-1 1.1-1.4h.2zm6.5 2.3c0 .1.1.3.1.4 0 .2-.1.4-.4.4-.5 0-1-.2-1.4-.5-.1-.1-.2-.2-.4-.3.3-.2.7-.3 1-.3.4-.1.5 0 1.1.3z"/>
        <path class="st5" d="M90.6 71.3c.4 0 .7.1 1 .3.1.1.1.2.1.3.1.5 0 .8-.2.8-.3.1-.5 0-.7-.2-.2-.2-.4-.4-.5-.6-.1-.2.1-.5.3-.6z"/>
        <path class="st6" d="M99.6 58.7c-.2.1-.4-.1-.5-.2-.2-.2-.3-.4-.2-.7.1-.5.4-.8 1-.9h.1c-.1.9-.1.9-.4 1.8zm-5-12.4c.4 0 .7.1 1 .3.1.1.1.2.1.3l-.1.1c-.6.3-1.2.3-1.8.1-.1 0-.2-.1-.2-.2s.1-.2.1-.3c.1 0 .2.1.3.1.3 0 .5-.3.6-.4zm1.3 20.4c.1-.3.2-.3.4-.4.2-.1.5 0 .5.2.1.6.2 1.2.2 1.8l-.1.1-.1-.1c-.3-.6-.6-1.1-.9-1.6zm-1.5-14.4c0 .2 0 .4-.1.6-.2.9-.4 1.8-.6 2.6 0 .1-.1.1-.2.2-.1 0-.2 0-.2-.1l.3-.9c.1-.8.2-1.6.4-2.3 0-.2.2-.2.4-.1zm-.5-3.7c.1 0 .2-.1.3-.1.3.1.7.3 1 .5.3.1.6.2.9.2-.2.4-.5.3-.8.4-.5-.1-.9-.4-1.3-.8-.1.1-.1-.1-.1-.2z"/>
        <path class="st5" d="M72.3 61.4c-.2-.5-.2-.8-.4-1.1-.1-.2-.2-.5-.3-.7.1-.3.2-.4.4-.4.3.1.4.3.5.6.2.5.1 1-.2 1.6zm-3.2-1v-.1c.3-.3.7-.6 1-1 .2-.2.5-.1.6.2.1.1.1.3.1.4 0 .1-.1.1-.1.1-.5.3-.9.4-1.5.4-.1.1-.1 0-.1 0z"/>
        <path class="st6" d="m84 65.4.1-.1c.7-.1 1.1-.5 1.5-1 .1-.1.2-.1.4.1-.1.3-.3.5-.4.8-.5.4-1 .4-1.6.2zm16.6-7.7c.2.1.3.2.4.3.1.5.1.9-.3 1.3-.1.1-.2.1-.3 0l-.1-.1v-.1c.1-.5.2-.9.3-1.4zM85.4 68.5h-.1c-.2-.5-.3-1.1-.5-1.6v-.3c0-.1.2-.3.4-.2.1 0 .2.1.2.2-.1.6.2 1.3 0 1.9zm.4 5.5c-.4-.7-.3-1.5-.3-2.2.3-.2.4-.2.4 0 .1.6.2 1.1.1 1.7 0 .1-.1.3-.2.5zm11-26.5c0 .1.1.1.1.2-.4.7-.7.9-1.4.7l-.1-.1c0-.1 0-.2.1-.3.4-.2.8-.3 1.3-.5zM73.4 58.4c-.6-.1-1.1-.4-1.4-.9-.1-.1 0-.2.1-.2.2-.1.5-.1.7.1.3.3.4.6.5.9.1 0 0 0 .1.1zm-.1 0c.2 0 .4.1.5.3l.3.6v.3c-.1.3-.1.5-.2.8 0 .1-.1.1-.2.2 0-.4 0-.8-.1-1.1 0-.4-.1-.8-.3-1.1.1 0 0 0 0 0zm15.1 4.5-.6.9c-.1.1-.3.1-.4.2-.2-.4.1-.6.1-.9.6-.5.7-.5.9-.2zm-4.2 1.2c.4-.3.6-.5.9-.7h.1c.1.1.1.2 0 .3-.2.3-.4.5-.7.6-.4.2-.7.1-1.1-.1.3-.4.7 0 .8-.1zM95.4 53c.1.1.2.1.4.2-.3.6-.5 1.2-.4 1.8-.1.1-.3.2-.4.1-.1 0-.1-.2-.1-.3l.3-1.5c0-.1.1-.2.2-.3zm-24.7 9.9c-.2.1-.4.1-.6.1-.4-.1-.7-.3-.9-.5-.1-.1-.1-.2-.1-.3 0-.1.1-.2.2-.2.2 0 .4.2.5.3.2.1.3.2.5.3.1.1.4 0 .4.3zm25 6.6c-.2 0-.4 0-.6-.2.1-.2.3-.4.4-.6.1-.1.2-.1.3-.1h.1c.1.3.2.7-.2.9zm-13.5 1.7c-.8-.2-1.7-.3-2.5-.5.1-.1.1-.2.2-.2.7 0 1.4.2 2.1.4.1.1.1.2.2.3zm7.7 3.2c.1-.5.3-.7.7-.8.3-.1.5 0 .7.2-.1.1-.1.2-.2.2l-1.2.4zm4.9-7.8c-.3 0-.5-.2-.4-.4.1-.3.1-.5.1-.7 0-.1.1-.2.2-.1l.1.1c.1.1.1.2.1.3 0 .2-.1.5-.1.8zm-.5 6.8c.1-.1.3-.2.4-.3.4-.1.7 0 1 .2-.3.3-.6.3-1 .3-.1 0-.3-.1-.4-.2zm8.2-18.2c-.3-.2-.7-.3-.9-.8.1 0 .2-.1.2-.1.4 0 .7.3.8.6.1.1 0 .2-.1.3zm-8.4 13.4c.1-.1.1-.3.2-.4.2-.2.5-.4.8-.5 0 .1.1.1.1.2-.1.3-.3.6-.6.7-.2.1-.3.1-.5 0zm11.5 1c.2.3.5.6.7.9.1.1 0 .3-.2.4-.1-.2-.3-.4-.4-.6-.1-.3-.1-.5-.1-.7zm-32-4.2c-.2.1-.4.3-.6.4h-.3c-.1 0-.1-.3.1-.4.2-.1.3-.2.5-.3.2-.1.2-.1.3.3zm19.7 7.4c.2-.3.3-.5.5-.8.1-.1.2-.1.3 0 .1.1.1.2.1.3-.2.3-.5.5-.9.5zM79.4 56.1c.1-.2.2-.3.4-.5h.3l.1.1c0 .1-.1.3-.2.4 0 .1-.2.1-.3.1-.1 0-.2-.1-.3-.1zm12.7 19.7c.4-.3.9-.5 1.4-.4-.3.4-.6.5-1.1.4-.2-.1-.3-.1-.3 0-.1-.1 0 0 0 0zm2-7.1c-.2.5-.3.6-.9.4.3-.3.5-.5.9-.4zm3.2-8.4c-.1-.1-.2-.1-.2-.2-.1-.2 0-.3.1-.3.2 0 .4.1.4.2s-.1.2-.2.2c0 .1-.1.1-.1.1zm-26.8.8c.2.1.3.2.2.4-.1.2-.3.3-.5.2-.1-.1-.2-.3-.1-.4.2-.1.3-.2.4-.2zm15 8.4c-.1 0-.3-.1-.3-.3 0-.2.1-.5.1-.7.2.1.2.3.2.6v.4zm-1.6-2.7-.1.1c-.2 0-.3-.1-.2-.3l.1-.1c.1.1.2.1.2.2v.1zm13-11.3c-.1 0-.1 0-.1-.1 0 0-.1-.1 0-.1l.3-.3h.1c.1.1.1.2.1.2-.1.1-.3.2-.4.3zm.1 9.9c.3.1.5.2.6.4h.1c-.3-.1-.5-.2-.7-.4zm-11.5 4.2c.1.1.1.2.2.2v.1l-.1.1c0-.1-.1-.1-.1-.2v-.2z"/>
        <path class="st6" d="M82.8 71.6c-.3 0-.6-.1-.6-.4h-.1c.1 0 .3.1.4.1.2.1.3.2.3.3zm18.1 4.4c.3-.1.3-.1.5.1-.3.1-.3.1-.5-.1zm-7.6-3.3c-.1.1-.2.2-.4.2 0 0-.1 0-.1-.1-.1-.1-.1-.2.1-.2.1.1.3.1.4.1z"/>
        <path class="st6" d="M82.8 71.6c.1 0 .3.1.4.1l.1.1c-.1.2-.2.2-.3.1-.2 0-.2-.1-.2-.3zm-3.8-.7-.2.2h-.2l-.1-.1c0-.1.1-.1.2-.1h.3zm0 0c.1-.2.2-.2.4-.2h.3c-.1.1-.2.1-.2.2H79z"/>
        <path class="st1" d="M87.1 95.3c0 .3.1.6-.3.8-.2 0-.4-.2-.5-.4-.1-.2-.1-.4 0-.6.1-.2.4-.2.6-.1.1.1.2.2.2.3zm1.5-5.6c-.2 0-.4-.2-.5-.3 0-.2 0-.4.2-.5.2-.1.4-.1.6 0 .1.1.2.4.1.6-.1.1-.2.2-.4.2zm-1 1.2c.3 0 .5.2.6.4v.3c0 .2-.2.2-.4.2-.5-.1-.6-.4-.2-.9zm-1 7.3c-.4.2-.5.2-.7-.1-.1-.2-.1-.4.1-.5.1 0 .2-.1.3-.1.1 0 .2 0 .3.1.1.2.1.4 0 .6zm3-6.2c0 .2-.2.4-.4.4s-.4-.2-.4-.4.1-.5.3-.5h.2c.2.1.3.3.3.5z"/>
    </g>
    <g class="st2">
        <path class="st1" d="M36.4 54.3c.5.3.9.4 1.3.5 1.7.2 3.4.7 5 1.2h.3c.1 0 .2-.1.3-.1.1-.2.3-.3.3-.5.6-1.8 1.6-3.4 3-4.8.2-.2.3-.4.5-.6.2-.2.5-.4.9-.4 1.3-.1 2.6-.2 3.9.1.8.2 1.6.1 2.4.1.2 0 .4-.1.7 0 .1.1.2.3.3.5l.1.1c.2-.1.4-.1.5-.1.5.1.6.5.9.7.6.3 1 .9 1.6 1.2.4.2.7.6 1 1 .6 1.1 1.2 2.1 1.8 3.2.1 1.6.2 3.2-.1 4.7-.1.3 0 .6-.1.9-.1.9-.2 1.9-.4 2.8-.3 1.5-1 2.8-2 4-.2.3-.5.5-.7.8-.5.7-1.2 1.1-2 1.5-.9.4-1.8.7-2.7.9-.4.1-.9.1-1.3 0-.6-.1-1.2-.2-1.7-.4-.4-.1-.8-.2-1.3-.1-1 .1-1.9.1-2.9-.2-.6-.1-1.2-.2-1.8-.1-.4 0-.7.1-1.1.2-.4-.3-.7-.6-1.1-.9-.3-1-.5-1.9-.5-2.9 0-.4 0-.9-.1-1.3-.1-.3-.1-.7 0-1 .3-1.2.2-2.4.3-3.5-.1-.3-.2-.4-.4-.5-.7-.2-1.3-.4-2-.6-.2 0-.3-.1-.5-.1-1.4-.1-2.8-.4-4.1-.8l-.2.2c-.3 1.3-.9 2.4-1.6 3.5-1 1.6-2.5 2.7-4.4 3.3-.3.1-.6.1-.9.2-.5.1-1 .1-1.6.1-.7 0-1.5-.5-2.4-.7-.4 0-.8 0-1.3-.1-.5 0-1 0-1.4-.2-.1 0-.2-.1-.3-.1-.8 0-1.6-.2-2.4-.5-.8-.5-1.2-1.3-1.5-2.1-.2-.7-.5-1.3-.5-2 0-.2-.1-.5-.1-.7-.2-.7-.1-1.5 0-2.2.1-.6.2-1.3.3-1.9.5-2 1.2-3.9 2.2-5.7.5-.8 1-1.5 1.7-2.1.6-.5 1.1-1.1 1.7-1.6.5-.5 1-.7 1.7-.8.5 0 1-.1 1.5-.1.7 0 1.4 0 2.1.1h.6c.8.2 1.7.2 2.5.3.6.2.7.7 1 1 .1 0 .1.1.1.1.8 0 1.4.4 2 .9.2.1.3.3.5.4.7.5 1.2 1.2 1.4 1.9.3.8.6 1.6.8 2.4.2.1.2.5.2.9zm19.9-2.4c-.3 0-.6.1-.8 0-.6-.1-1.1 0-1.6.1-.8.2-1.5.5-2.2.9l-2.4 1.5c-1.1.7-1.8 1.7-2.3 2.8-.4 1.1-.7 2.2-.7 3.3v.9c-.2 1-.2 2.1 0 3.1.1.3.1.6.1.9.1 1.1.5 2.1 1.2 3 .1.2.3.4.5.6.6.5 1.2.9 1.9 1 .2.2.4.4.5.4 1.1.5 2 .5 3 .2.2 0 .3-.1.5-.1 1.3-.3 2.4-.8 3.3-1.8.6-.6 1.1-1.3 1.6-2.1s.9-1.7 1-2.6c.2-1.1.3-2.2.5-3.4.1-.7 0-1.4.2-2.1.1-.3.1-.6 0-.9-.1-.6-.3-1.1-.5-1.7-.3-.8-.8-1.5-1.2-2.3-.3-.6-.8-1-1.4-1.4-.4.1-.8-.1-1.2-.3zm-27.5-3.3c-.4.2-.8.4-1.3.5-.7.3-1.3.7-1.8 1.2-.9.8-1.6 1.7-2.2 2.7-.8 1.2-1.2 2.6-1.7 4-.1.2-.1.4-.1.6v1.9c.1.6.2 1.2.4 1.7 0 .1.1.3.2.4.5 1.4 1.5 2.6 2.7 3.6.3.3.7.4 1.2.5 1 .1 1.9-.1 2.8-.5.6-.3 1.2-.7 1.7-1.1.5-.3.9-.8 1.2-1.2.7-1 1.2-2.1 1.5-3.3.1-.3 0-.5-.3-.6-.5 0-1.1 0-1.6-.2-.8-.2-1.6-.5-2.4-.8-.2-.5-.2-1-.2-2.7.2-.3.4-.7.6-1.1.2-.4.6-.6 1.2-.6s1.2.1 1.8.1c.6 0 1.3 0 1.9.3.1.1.3 0 .5.1.2 0 .4-.2.4-.4v-.4c-.1-.3-.2-.7-.3-1-.4-1.6-1.5-2.8-3-3.6-1.1-.2-2.1-.2-3.2-.1zm-8 16.6h2c.1 0 .1-.1.2-.2v-.1c-.6-.6-1-1.3-1.4-2-.5-.9-.8-1.9-.9-2.9-.1-1 0-2 0-2.9.5-1.6 1.1-3 1.9-4.4.4-.7.9-1.4 1.5-2l.9-.9c.6-.6 1.3-1.2 2.2-1.5.5-.2 1.1-.4 1.6-.7.1 0 .1-.1.2-.2-.4-.1-.9-.2-1.3-.3h-.3c-1.2 0-2.5-.1-3.7 0-.2.1-.3.1-.5.2-.6.3-1.1.7-1.5 1.1-.9.9-1.8 1.7-2.3 2.8-.3.5-.5 1.1-.8 1.6-.4.7-.6 1.5-.9 2.2-.3.8-.2 1.6-.5 2.3-.1.9-.1 1.9-.1 2.8 0 .8.3 1.6.4 2.5 0 .1.1.3.2.4.2.6.6 1 1.2 1.4.5.4 1.1.6 1.9.8zm26.8 4.7c-.3-.2-.5-.4-.6-.5-.2-.2-.3-.4-.5-.6-.7-1.1-1.1-2.3-1.2-3.6 0-.3 0-.6-.1-.9-.1-.5-.1-1.1-.1-1.6 0-.9.1-1.9.2-2.8.1-1 .4-2 .8-3s1-1.8 1.8-2.6c.2-.2.4-.3.6-.5l3-1.8c.6-.4 1.2-.7 1.9-.8.2-.1.5-.1.7-.5-1.2 0-2.4 0-3.5-.3-.5.3-1 .5-1.4.7-1.1.5-2 1.1-2.9 1.9-.6.5-1.1 1.1-1.4 1.8-.7 1.5-1.2 3.1-1.7 4.6-.1.5-.2 1-.4 1.4-.2.7-.2 1.5-.3 2.2 0 .6-.1 1.3-.1 1.9 0 1 .1 2.1.1 3.1.1.4.3.7.4 1 .1.2.2.4.4.5 1.5.4 2.4.4 4.3.4zm-4.7-12.8c-.1-.1-.2-.3-.3-.3-.9-.3-1.7-.5-2.6-.8-1.2-.3-2.4-.6-3.6-.8l-2.7-.6c-.6-.1-1.2-.2-1.8-.2-.4 0-.9-.1-1.3.1-.5.4-.5 1-.7 1.5.1.4.1.8.4 1.2 1.3.4 2.6.8 4 1 1.3.2 2.5.5 3.8.6.2 0 .4.1.6.2.9.2 1.8.5 2.6.7.3.1.5 0 .7-.2.3-.7.6-1.5.9-2.4z"/>
        <path d="M56.3 51.9c.4.2.8.3 1.1.5.6.3 1.1.8 1.4 1.4.4.8.9 1.5 1.2 2.3.2.6.4 1.1.5 1.7.1.3.1.6 0 .9-.2.7-.1 1.4-.2 2.1-.2 1.1-.3 2.3-.5 3.4-.2.9-.5 1.8-1 2.6-.4.7-1 1.4-1.6 2.1-.9.9-2 1.5-3.3 1.8-.2 0-.3 0-.5.1-1 .3-1.9.2-3-.2-.1-.1-.3-.2-.5-.4-.7-.1-1.3-.5-1.9-1-.2-.2-.4-.3-.5-.6-.7-.9-1.1-1.9-1.2-3 0-.3 0-.6-.1-.9-.2-1-.2-2.1 0-3.1.1-.3 0-.6 0-.9 0-1.2.3-2.3.7-3.3.5-1.1 1.2-2.1 2.3-2.8l2.4-1.5c.7-.4 1.4-.7 2.2-.9.5-.1 1-.2 1.6-.1.4-.1.7-.1.9-.2zm-.4 6.1c-.3-.3-.6-.5-1-.4-.4.1-.8.3-.9.7-.1.2-.1.4-.2.6-.2.9-.2 1.7.2 2.6.3.5 1 .7 1.5.3.6-.5 1-1 1-1.8 0-.4 0-.8-.2-1.1-.2-.3-.3-.7-.4-.9zm-2.5 7.1c.5.2.6.2.7.1.1-.1.3-.2.3-.3.2-.4.2-.8 0-1.3l-.1-.1h-.4c-.1.1-.2.2-.2.4-.2.4-.1.8-.3 1.2zm-4 .1c0 .3 0 .6.2.8.3.4.5.4.9.1.1-.1.1-.2.1-.3 0-.4-.2-.8-.5-1.2-.4.2-.4.2-.7.6zm6.3-1.7c-.2 0-.3.1-.5.1-.1.1-.2.2-.2.3 0 .1-.1.2-.1.3.1.3 0 .7.1 1 0 .1.2.2.3.3.2-.1.4-.3.4-.5.1-.3.1-.7.1-1 .1-.2 0-.4-.1-.5zm-4.1.5c0 .3-.2.7 0 1.1l.2.2h.2c.1-.1.3-.2.3-.3.2-.4.2-.7 0-1.1 0-.1-.2-.1-.2-.2-.2 0-.3.1-.5.3zm-.1 5.3c.4.1.7 0 .9-.3 0-.3-.2-.4-.5-.5-.4 0-.6.1-.7.5l.3.3zm2.6-1.2c-.2-.2-.3-.2-.6-.2-.2 0-.4.2-.4.4s.1.4.3.4c.3.1.6-.1.7-.3.1 0 0-.2 0-.3zM28.8 48.6c1.1-.2 2.1-.1 3.2 0 1.5.8 2.6 2 3 3.6.1.3.2.7.3 1v.4c0 .2-.2.4-.4.4s-.3 0-.5-.1c-.6-.3-1.3-.3-1.9-.3-.6 0-1.2 0-1.8-.1-.6 0-.9.2-1.2.6-.2.4-.4.8-.6 1.1-.1 1.7 0 2.2.2 2.7.8.3 1.6.5 2.4.8.5.1 1.1.2 1.6.3.3.1.3.4.3.6-.4 1.3-.9 2.4-1.5 3.4-.3.5-.7.9-1.2 1.2-.6.4-1.1.8-1.7 1.1-.9.4-1.8.6-2.8.5-.4 0-.8-.2-1.2-.5-1.3-1-2.2-2.2-2.7-3.6-.1-.1-.1-.3-.2-.4-.1-.6-.3-1.2-.4-1.7-.1-.6 0-1.3 0-1.9 0-.2 0-.4.1-.6.4-1.4.9-2.7 1.7-4 .6-1 1.4-1.9 2.2-2.7.5-.5 1.1-.9 1.8-1.2.5-.2.9-.4 1.3-.6zm-3 9.7c.3.4.5.5.9.3.1-.1.3-.2.3-.3 0-.2-.1-.4-.3-.4h-.5c-.3 0-.4.2-.4.4zm4.3 3.3c-.3-.3-.6-.3-.9-.2-.1 0-.3.3-.2.4l.3.3c.2.2.5.1.7-.1 0-.2 0-.3.1-.4zm-2.4 1c.4-.2.5-.4.4-.6-.1-.2-.4-.3-.6-.3-.3.1-.4.3-.2.6 0 .1.2.2.4.3zm-2.4-.2c0 .2.1.4.4.4.4.1.6-.1.7-.4 0-.1-.1-.2-.2-.3-.2-.2-.5-.3-.7-.1 0 .2-.1.3-.2.4zm.8-2c-.2 0-.4.1-.5.3-.1.2 0 .3.1.4.1.1.3.2.4.2.1 0 .2 0 .3-.1.2-.1.2-.3.1-.5 0-.1-.2-.3-.4-.3z" style="fill:#e7d9e0"/>
        <path class="st6" d="M20.8 65.2c-.8-.2-1.4-.4-2-.6-.6-.4-1-.8-1.2-1.4-.1-.1-.1-.3-.2-.4-.1-.8-.4-1.6-.4-2.5 0-.9 0-1.9.1-2.8.3-.8.2-1.6.5-2.3.3-.7.6-1.5.9-2.2.3-.5.5-1.1.8-1.6.5-1.1 1.5-2 2.3-2.8.4-.4.9-.8 1.5-1.1.1-.1.3-.1.5-.2 1.2-.1 2.5 0 3.7 0h.3c.4.1.8.2 1.3.3-.1.1-.1.2-.2.2-.5.2-1.1.4-1.6.7-.8.4-1.6.9-2.2 1.5l-.9.9c-.6.6-1.1 1.2-1.5 2-.8 1.4-1.4 2.9-1.9 4.4 0 1-.1 1.9 0 2.9s.3 1.9.8 2.8c.4.7.8 1.4 1.4 2v.1c-.1.1-.1.2-.2.2-.5-.1-1.1-.1-1.8-.1zm26.8 4.7c-2 0-2.8-.1-4.4-.3-.2-.1-.3-.3-.4-.5-.1-.3-.2-.6-.4-1 0-1-.1-2-.1-3.1 0-.6.1-1.3.1-1.9 0-.7.1-1.5.3-2.2.1-.5.2-1 .4-1.4.4-1.6 1-3.1 1.7-4.6.3-.7.8-1.3 1.4-1.8.9-.8 1.8-1.4 2.9-1.9.5-.2.9-.5 1.4-.7 1.1.3 2.3.3 3.5.3-.2.3-.5.4-.7.5-.7.2-1.3.5-1.9.8l-3 1.8c-.2.1-.4.3-.6.5-.7.8-1.4 1.7-1.8 2.6-.4 1-.7 2-.8 3-.1.9-.2 1.9-.2 2.8 0 .5 0 1.1.1 1.6.1.3.1.6.1.9.1 1.3.5 2.5 1.2 3.6.1.2.3.4.5.6.3.1.5.2.7.4z"/>
        <path d="M42.9 57.1c-.3.9-.5 1.7-.8 2.6-.2.2-.5.3-.7.2-.9-.2-1.8-.5-2.6-.7-.2-.1-.4-.1-.6-.2-1.3-.1-2.5-.4-3.8-.6-1.4-.2-2.7-.7-4-1-.4-.4-.4-.8-.5-1.3.2-.5.1-1.1.7-1.5.5-.2.9-.2 1.3-.1.6 0 1.2.1 1.8.2.9.1 1.8.4 2.7.6 1.2.2 2.4.5 3.6.8.9.2 1.8.5 2.6.8.1-.1.2.1.3.2z" style="fill:#dbdcd3"/>
        <path class="st1" d="M55.9 58c.1.3.2.6.4.9.2.4.2.8.2 1.1 0 .7-.4 1.3-1 1.8-.5.3-1.3.2-1.5-.3-.4-.8-.5-1.7-.2-2.6 0-.2.1-.4.2-.6.2-.4.5-.6.9-.7.4-.1.7 0 1 .4zm-.9.7c-.3 0-.4.2-.4.4-.1.6-.1 1.2 0 1.7 0 0 0 .1.1.1s.2.1.3.1c.2 0 .3-.1.4-.2.3-.6.3-1.2 0-1.8-.1-.1-.3-.2-.4-.3zm-1.6 6.4c.3-.4.2-.8.2-1.2 0-.1.1-.3.2-.4.1-.1.3 0 .4 0l.1.1c.2.4.2.8 0 1.3 0 .1-.2.2-.3.3 0 .1-.1.1-.6-.1zm-4 .1c.3-.4.3-.4.7-.4.3.3.5.7.5 1.2 0 .1-.1.2-.1.3-.4.3-.7.3-.9-.1-.2-.5-.2-.7-.2-1zm6.3-1.7c.1.1.2.3.2.4 0 .3-.1.7-.1 1 0 .2-.2.3-.4.5-.1-.1-.3-.2-.3-.3 0-.3 0-.7-.1-1 0-.1 0-.2.1-.3 0-.1.1-.2.2-.3h.4zm-4.1.5c.2-.2.3-.3.5-.3.1 0 .2.1.2.2.2.4.2.7 0 1.1l-.3.3h-.2l-.2-.2c-.2-.4 0-.7 0-1.1zm-.1 5.3c-.1-.1-.1-.2-.2-.3.1-.4.3-.5.7-.5.3 0 .5.2.5.5-.3.2-.6.4-1 .3zm2.6-1.2v.4c-.1.2-.4.3-.7.3-.2 0-.3-.3-.3-.4 0-.2.2-.3.4-.4.3-.1.5-.1.6.1zm-28.3-9.8c.1-.2.1-.4.4-.4h.5c.2 0 .3.3.3.4 0 .2-.1.3-.3.3-.5.2-.7.1-.9-.3zm4.3 3.3c0 .1 0 .3-.1.4-.1.2-.5.3-.7.1l-.3-.3c-.1-.1.1-.3.2-.4.3-.1.6-.1.9.2zm-2.4 1c-.2-.1-.4-.2-.4-.3-.1-.3 0-.5.2-.6.3-.1.5.1.6.3.1.2 0 .4-.4.6zm-2.4-.2c.1-.1.1-.2.3-.3.2-.2.5-.1.7.1.1.1.1.2.2.3-.1.3-.3.5-.7.4-.3-.1-.5-.2-.5-.5zm.8-2c.2 0 .4.1.5.3.1.2 0 .4-.1.5-.1 0-.2.1-.3.1-.1 0-.3-.1-.4-.2-.1-.1-.2-.2-.1-.4 0-.1.2-.3.4-.3z"/>
        <path class="st6" d="m55 58.7.3.3c.3.6.3 1.2 0 1.8-.1.1-.2.2-.4.2-.1 0-.2-.1-.3-.1l-.1-.1c-.1-.6-.1-1.2 0-1.7.1-.2.3-.4.5-.4z"/>
        <path class="st1" d="M52.4 61c.1.3.1.5.2.8 0 .3-.3.4-.4.6-.3 0-.3 0-.6-.2v-.1c.1-.6.1-1.3.1-1.9v-.3c.1-.6 0-1.2 0-1.8v-.2l.1-.1c.1-.1.2-.1.4-.1.1 0 .2.1.3.2 0 .4.1.7 0 1.1 0 .3.1.7-.1 1v.2c.1.1.1.5 0 .8z"/>
    </g>
</svg>
