<svg xmlns="http://www.w3.org/2000/svg" width="46.4" height="61.3" style="overflow:visible;enable-background:new 0 0 46.4 61.3" xml:space="preserve">
    <path d="M7.4 55.2v3.3c0 2.1-1.4 2.9-4.3 2.9C.9 61.3 0 60.7 0 59c0-5.9.4-11.9.4-35.6C.4 15.6.4 7.8.1 0c4 1.6 4.5 1.9 8.4 4.1h27.9C39.4.9 40 .4 40.6.4c.7 0 1.3.4 4.2 2.9C46 4.5 46.4 5 46.4 5.5c0 .7-.5 1.2-2.2 2.3V16c0 21.7.4 36.7.4 41.7 0 2.1-1.6 3-4.5 3-2.3 0-3.1-.7-3.1-2.4v-3.2H7.4zM37.2 5.8H7.4v22.4h29.7V5.8zm0 24H7.4v23.7h29.7V29.8z" style="fill:#604c3f"/>
</svg>
