<svg xmlns="http://www.w3.org/2000/svg" width="65.2" height="65.8" style="overflow:visible;enable-background:new 0 0 65.2 65.8" xml:space="preserve">
    <path d="M6.9 53.9c0 1.9-1.4 2.7-3.8 2.7-2.2 0-3-.6-3-2.2 0-5.1.3-10.4.3-31C.4 16.6.4 10 0 3.3 3.6 4.9 4.2 5.1 7.4 7h6.2c2.4-2.9 3-3.3 3.5-3.3.7 0 1.4.4 4 2.4 1.2.9 1.6 1.4 1.6 1.9 0 .6-.4 1.1-1.9 2.2V17c0 17.9.4 30.2.4 34.3 0 1.9-1.4 2.8-4 2.8-1.9 0-2.7-.6-2.7-2.2v-2.6H6.9v4.6zm7.5-45.3H6.9v18.1h7.5V8.6zm0 19.8H6.9v19.3h7.5V28.4zm29.6-4h9.9c3.2-4 4-4.5 4.5-4.5.6 0 1.4.6 4.8 3.2 1.4 1.2 2 1.8 2 2.3s-.2.7-.9.7H27.1c-1.3 0-2.5.1-4.2.4l-.8-2.7c1.9.4 3.4.6 4.8.6h10.2V13.5H29c-1.2 0-2.4.1-4.1.4l-.8-2.7c1.9.4 3.3.6 4.8.6h8.3V5.7c0-1.9-.1-3.7-.4-5.7 8.7.8 9.5 1.6 9.5 2.3 0 .7-.8 1.4-2.3 1.9v7.6h6.8c3.1-3.9 4-4.5 4.5-4.5.6 0 1.4.6 4.8 3.1 1.5 1.2 2.1 1.8 2.1 2.3s-.2.7-.9.7H44v11zm9.7 21.8c0 2.7.2 8.9.2 11.5 0 3-.3 4-1.7 5.4-1.7 1.7-4 2.7-6.9 2.7-.6 0-1-.3-1.2-.9-.6-3.7-2.6-4.8-8.3-6.2-.4-.1-.4-.9 0-.9 3.7.2 7.1.3 9.8.3 1 0 1.3-.2 1.3-1.2V38.3H27.3c-1.3 0-2.5.1-4.2.4l-.8-2.7c1.9.4 3.4.6 4.8.6H47v-3.2c0-2.5-.1-3.2-.4-5.8 7.1.6 9.3 1.2 9.3 2.2 0 .7-.6 1.2-2.2 2v4.8h1.7c2.7-3.2 3.5-3.7 4-3.7.6 0 1.4.6 3.9 2.7 1 .9 1.6 1.5 1.6 2s-.2.7-.9.7H53.7v7.9zm-17.8 7.9c-1.9 0-2.6-1.2-3.5-4.6-.9-3.6-2.1-5.5-4.2-7.2-.3-.2.1-.6.4-.6 7.8 1.6 11.2 4.2 11.2 7.9 0 2.8-1.4 4.5-3.9 4.5z" style="fill:#604c3f"/>
</svg>
