<svg xmlns="http://www.w3.org/2000/svg" width="68.6" height="64.7" style="overflow:visible;enable-background:new 0 0 68.6 64.7" xml:space="preserve">
    <path d="M28 6C20.7 19.7 13.6 27 .7 33.7c-.3.1-.9-.6-.6-.8 7.3-6.1 13.5-14.3 17.4-22.4 1.7-3.6 3-7.1 3.7-10.5C28.7 2.4 31 3.5 31 4.5s-.8 1.4-3 1.5zm3.8 24.4C29.9 49.3 21 59.5 1.8 64.7c-.4.1-.6-.7-.4-.9 14.8-8.3 21.2-17.6 22.8-33.5h-5.5c-1.8 0-3.6.1-6 .6l-.7-2.8c2.7.5 4.6.6 6.6.6h27.3c2.8-2.7 3.4-3.2 4-3.2.7 0 1.3.4 4.1 2.9 1.3 1.2 1.7 1.7 1.7 2.3 0 .5-.1.7-2.1 2.1-.6 9.7-1.5 18.6-3.7 24.3-.8 2-1.8 3.7-3.3 4.9-1.6 1.3-3.8 2-6.2 2-1.8 0-2.2-.1-2.7-2-.5-2.3-2.5-3.7-8.2-5.5-.4-.1-.2-1.3.1-1.2 4.9.8 8.3 1.2 10.7 1.2 2 0 2.8-1.2 4-6 1.2-4.7 1.9-10.9 2.4-20.2H31.8zm36.5-4.8c-2.3.5-3.4 1.7-4.2 5-.4 1.7-.6 2.1-1.2 2.1-.5 0-1.7-.6-3.2-1.6-2.8-1.9-5.4-4.2-7.8-6.6C47 19.3 44.4 14.4 40.3 4c-.1-.4-.4-.9-.9-1.3-.4-.2-.6-.6-.6-.8 0-.6 1.9-1.3 2.8-1.3.4 0 .7.2.7.6 0 .1-.4.9-.4 1.3s.1.9.4 1.6c2.3 5.1 6.3 9.8 10.6 13.4 4.2 3.4 8.9 5.5 15.3 7.1.5 0 .4.9.1 1z" style="fill:#604c3f"/>
</svg>
