<svg xmlns="http://www.w3.org/2000/svg" width="68.2" height="66.4" style="overflow:visible;enable-background:new 0 0 68.2 66.4" xml:space="preserve">
    <path d="M18.6 32c0 14.9.1 29 .1 31.5 0 2.1-1.2 2.9-4 2.9-2 0-2.9-.6-2.9-2.4 0-3.3.7-17 .9-29.4C8.2 42.8 5.9 45.9.8 51c-.3.3-1-.4-.8-.6C5.7 41 9.2 32.8 11.6 23h-5c-1.2 0-2.3.1-3.9.4l-.8-2.7c1.9.4 3.2.6 4.7.6h5.8V10.4c-3 .6-6.3 1-9.7 1.3-.4 0-.6-.8-.3-.9 6.2-2 11.7-4.5 15.8-7.1 1.9-1.2 3.6-2.4 4.8-3.6 5 3.7 6.3 4.8 6.3 5.5 0 1-1.2 1.2-3.5.7-2.4 1-4.8 1.8-7.1 2.5v12.5H20c2.4-3.4 3.3-4 3.8-4 .6 0 1.4.6 3.9 2.8 1 .9 1.6 1.6 1.6 2.1s-.2.7-.9.7h-9.7v6.3c2.8.8 5.6 1.8 7.8 3.8 2.1-3.9 4-8.8 5.2-13.4.6-2.6 1.2-5 1.3-7.2 7.5 2.6 8.4 3 8.4 3.8 0 .9-.8 1.4-2.4 1.6-3.5 7.8-6.4 12-11.4 16.4.6.9 1 1.9 1 3.1 0 2-1.7 3.8-3.5 3.8-1.2 0-1.7-.6-2.2-2.7-1-3.2-2.4-6-4.1-7.8V32zm43.8 6c-9.2 15.8-22.2 24-40.5 27.1-.4.1-.6-.8-.2-.9 14.2-5.4 25.3-14 31.7-25.1 1.4-2.5 2.7-5.2 3.7-8 8.4 4 8.7 4.5 8.7 5.3-.1 1-1.1 1.5-3.4 1.6zM43.2 9.5c0-4.3-.1-5.4-.4-8.7 7.6.8 9.4 1.2 9.4 2.3 0 .7-.6 1.2-2.2 1.9v18.4c0 7 .2 11.6.2 13.6 0 1.4-.1 2.7-.6 3.7-1.3 2.4-3.2 3.5-7.1 3.5-.7 0-1.1-.4-1.3-1.4-.4-2.4-1.7-3.3-6.6-4.7-.4-.1-.4-.9 0-.9 2.8.2 5.4.4 7.6.4.9 0 1.1-.2 1.2-1.1v-27zm21.4 21.4c-2.1 0-2.7-.7-4.1-4.6-1.7-4.9-4.7-9.6-7.5-12.1-.3-.2.1-.9.5-.7 9 3.2 14.7 8.1 14.7 12.9 0 2.8-1.4 4.5-3.6 4.5z" style="fill:#604c3f"/>
</svg>
