<svg xmlns="http://www.w3.org/2000/svg" width="748.3" height="206.5" style="overflow:visible;enable-background:new 0 0 748.3 206.5" xml:space="preserve">
    <style>
        .st0{fill:#604c3f}
    </style>
    <path class="st0" d="M168.8 202.8c-9.9-14.1-20-28.1-30.2-42-10.2-13.9-20.6-27.6-31.2-41.2C96.8 106 86.1 92.4 75.3 79 64.5 65.6 53.5 52.4 42.4 39.3 31.9 27 21.5 14.2 8.7 4.1 7.1 2.8 5.4 1.5 3.8.4 2.7-.4 1 .2.3 1.3c-.7 1.3-.2 2.6.9 3.4 13 9.2 23.4 21.6 33.7 33.6C46 51.3 57 64.4 67.8 77.6s21.5 26.6 32 40.1c10.5 13.4 20.8 27 30.9 40.7 10.2 13.7 20.2 27.6 30.1 41.5 1.2 1.8 2.5 3.5 3.7 5.3.8 1.1 2.2 1.6 3.4.9 1.1-.6 1.7-2.2.9-3.3zM168.3 65.7c2.6-2.9 3.1-3.4 3.7-3.4.7 0 1.2.5 4 3 1.3 1.2 1.6 1.9 1.6 2.5 0 .8-.4 1-2.5 2.1-1.1 13.4-3.3 23.7-7.1 32.2 5.5 4.2 8.8 8.5 8.8 12 0 2.1-1.1 3.6-2.8 3.6-1.9 0-2.5-.7-5.2-5.4-1-1.8-2.2-3.5-3.3-5.1-4.6 7.8-11 14.3-20 20.6-.6.4-1.5-.7-1-1.1 8.1-7.8 13.6-15.2 17.4-24-2.4-2.5-4.9-4.7-7.6-6.8-.5 1.5-.9 3-1.4 4.3-.6 1.4-1.4 1.9-3 1.9-2.7 0-3.6-.6-3.6-1.8 0-.8.2-1.4.9-3.2 2.5-6.5 5.2-17.2 7.4-29h-1.5c-2.7 0-4.7.2-7.1.7l-.9-3.8c2.6.6 5.1.8 8 .8h1.9c.6-2.8.9-5.7 1.4-8.6.8-5.1 1.1-9.3 1.2-13.3 8.1 1.5 9.2 2 9.2 2.8 0 .8-.6 1.3-3 2.3-.8 5.9-1.5 11.4-2.5 16.8h7zm-7.6 2.3c-1.7 8.9-3.5 17.8-6.1 26.4 3 1.3 5.9 2.6 8.7 4.3 3-8.4 4.7-18.1 5.7-30.8h-8.3zm21.4-6.9c0-3.9 0-6.5-.5-10.9 3.1 1.1 4.5 1.8 7.4 3.5 9.1-2.1 16-4.7 21.4-7.3 2.4-1.1 4.5-2.5 6.2-4.1 6 4.5 7 5.5 7 6.3 0 .8-1.7 1.3-5 .5-4.4 1.9-9.1 3.3-14.5 4.3 4.9.5 5.9.9 5.9 1.7s-.4 1.1-2.2 2.1c.3 3.3.8 6.1 1.4 8.7l9.2-.3c3.7-4.3 4.3-4.8 4.9-4.8.7 0 1.4.4 5.9 4.1.9.8 1.3 1.3 1.3 1.9 0 .5-.4.8-1 .8l-19.5.6c.8 2.1 1.7 4 2.8 5.8 1.9 2.9 4.9 5.9 8.6 8.1 1.7 1 2.6 1.6 3.3 1.6s2-1.3 4.7-8.1c.1-.4.9-.1.9.3-.4 3.4-1 7.3-1 7.9 0 .9.1 1.4 1.3 2.6.8.7.9 1.3.9 2.1 0 1.7-1.4 3-3.4 3-2.1 0-4.8-.9-7.6-2.5-5.2-2.8-10.6-8-14.1-14.4-1.1-2.2-2.1-4.2-2.7-6.2l-15.4.4v13c5.9-.8 11.2-1.8 18.5-3.5.6-.1.9 1 .4 1.3-8.6 4.2-16.9 6.8-26.5 9.1-.5 2.1-.9 2.7-1.7 2.7-1.1 0-1.5-1-3.5-8.8 2.3 0 4.6-.1 6.5-.3V61.1zm7.3 65.8c0 2.2-1.3 3.3-3.9 3.3-2.2 0-2.9-.8-2.9-2.6 0-1.9.3-5.7.3-18.2 0-9.3 0-14.4-.4-20.6 3.3 1.5 4.6 2.3 7.6 4h23.7c2.5-2.7 2.9-3.1 3.5-3.1.7 0 1.1.4 4.1 2.7 1.3 1.1 1.7 1.8 1.7 2.4 0 .7-.3 1-2.2 2.3v7.6c0 13.6.4 20.4.4 22.4s-1.2 3.2-3.9 3.2c-2.3 0-3-.9-3-2.6v-2.4h-25v1.6zm13.8-60.7c-.7-2.4-1.1-4.9-1.4-8-.2-2-.4-3.1-.7-4.1-3.8.6-7.9 1-12.7 1.4v11l14.8-.3zm11.2 28.9h-25v12.1h25V95.1zm-25 27.7h25v-13.3h-25v13.3zM257 118.2c3.5-9.6 4.5-17.5 4.5-33.1 0-4-.1-5.4-.4-8.9 6.8.9 8.8 1.4 8.8 2.5 0 .8-.6 1.3-2.7 2.4 0 19.4-2.2 28-9 37.8-.3.4-1.4-.1-1.2-.7zm7.4-49.8c-2 0-3.6.2-6 .6l-.9-3.6c2.7.5 4.5.7 6.9.7H280c3.5-4.3 4.2-4.7 4.7-4.7.7 0 1.3.5 4.8 3.7 1.7 1.3 2.1 2 2.1 2.5s-.3.9-1.2.9H278v27.2c0 15 .3 27.4.3 31.1 0 2-1.4 2.9-3.8 2.9-2.1 0-2.8-.8-2.8-2.4 0-1.9.5-8.8.5-23.4V68.4h-7.8zm-3.9-19.9c3 .6 4.9.7 7.4.7h10.5c3.4-3.9 4.2-4.3 4.7-4.3s1.2.5 4.7 3.3c1.4 1.2 1.9 2 1.9 2.5 0 .6-.3.9-1.2.9h-20.6c-2.1 0-3.7.2-6.4.6l-1-3.7zM288 88c0 14.4.3 21.7.3 24 0 1.7-1.1 2.5-3.4 2.5-1.7 0-2.5-.6-2.5-2.2 0-1.5.4-7.4.4-20.5 0-10.9-.1-12.5-.5-16 7 1 8.3 1.5 8.3 2.6 0 .8-.6 1.3-2.6 2.2V88zm45.6 36.9c3.8-4.3 4.5-4.8 5.1-4.8.7 0 1.2.5 5.1 3.5 1.7 1.5 2.1 2.2 2.1 2.7 0 .7-.3.9-1.2.9h-49.8c-2.4 0-4 .1-6.7.6l-1-3.6c3 .5 5 .7 7.6.7h24.8c1.5-3 2.7-5.9 3.5-8.3.8-2.1 1.1-3.8 1.3-5.2 6.4 2.3 8.3 3.3 8.3 4.4 0 1-.9 1.5-3.5 1.7-3 3.3-4.7 5.2-7.2 7.4h11.6zm-42.9-39.7c2.8.5 4.6.7 7.1.7H334c3.2-3.7 3.9-4.2 4.5-4.2.7 0 1.3.5 4.9 3.1 1.5 1.3 2 1.9 2 2.5 0 .7-.4.9-1.2.9H298c-2.2 0-3.7.1-6.3.6l-1-3.6zm16.5-31.4c0-4 0-6.5-.3-9.2 7.4.9 8.2 1.6 8.2 2.5 0 .8-.6 1.3-2.5 2.1V55h7.6v-1.2c0-4-.1-6.4-.4-9.1 7.6.9 8.3 1.5 8.3 2.4 0 .8-.6 1.3-2.5 2.1v5.9h7c2.3-2.9 2.7-3.3 3.3-3.3.7 0 1.2.4 3.7 2.7 1.3 1.1 1.7 1.7 1.7 2.3 0 .7-.2 1-2.2 2.6V64c0 9.3.3 13.4.3 14.7 0 1.6-1.5 2.4-3.6 2.4-1.7 0-2.4-.7-2.4-2h-33.6v.6c0 2.1-1.1 3-3.4 3-1.9 0-2.5-.6-2.5-2.5s.3-4.9.3-16c0-6 0-9.2-.5-13.2 2.9 1.4 4 2.2 6.7 3.9h6.8v-1.1zm-4.3 56.3c0 2.1-1.2 2.8-3.7 2.8-1.9 0-2.7-.6-2.7-2.2 0-1.2.3-2.8.3-9.4 0-4-.1-6.1-.4-9.7 2.9 1.2 4.3 1.8 7.1 3.4h25.7c2.5-2.6 3-3 3.6-3 .7 0 1.1.4 3.8 2.6 1.3 1.1 1.8 1.6 1.8 2.3s-.7 1.3-2.5 2.5v2.1c0 5.1.2 7.1.2 7.6 0 2.1-1.2 2.8-3.7 2.8-1.9 0-2.5-.6-2.5-2.2h-26.8v.4zm-3-52.8v8.3h7.4v-8.3h-7.4zm7.3 10.7h-7.4v8.8h7.4V68zm-1.8 52.6c-.4-3.1-1.4-6-2.9-8.1-.2-.3.2-.8.6-.6 5.3 2.2 8.8 5.5 8.8 8.5 0 2.1-1.6 3.6-3.8 3.6-1.7 0-2.4-.9-2.7-3.4zm24.3-23.3h-26.8v10h26.8v-10zm-17.1-40v8.3h7.6v-8.3h-7.6zm7.7 19.4V68h-7.6v8.8h7.6zm5.3-11.1h7.8v-8.3h-7.8v8.3zm7.9 11.1V68h-7.8v8.8h7.8zM385 90.9c0 22.4.1 32.9.1 36.1 0 2.2-1.4 3.2-4.2 3.2-2.2 0-3-.8-3-2.8 0-2 .4-8.8.6-30.9 0-5.7 0-11.4.1-17.5-2.8 4.3-5.9 8.3-9.2 11.7-.4.4-1.3-.5-1-.9 6.2-9.5 12.4-24.5 15-35.8.9-3.7 1.4-7.1 1.7-10.6 8.1 2 10.2 2.9 10.2 4.1 0 .9-.7 1.3-3.7 2.1-2.2 7.9-5.4 16-9.3 23.2 4.6.8 5.4 1.1 5.4 2.1 0 .7-.5 1.2-2.6 2.3v13.7zm27.3 21.1c5.9-1.1 11.5-2.5 15.6-3.9.6-.2.9.9.5 1.2-10.1 5-20 8.4-32.3 11.5-.5 2.5-.9 3.3-1.8 3.3-1 0-1.6-.8-4.2-9.4 1.9 0 3.5-.1 5.5-.3 3.1-.3 6.8-.8 10.5-1.3V95.9h-8.2c-1.7 0-3.1.2-5.4.6l-1-3.6c2.6.6 4.2.7 6.4.7h8.2v-2.1c0-5.3-.2-8.7-.4-11.9 8.4.9 9.3 1.6 9.3 2.6 0 .8-.6 1.4-2.7 2.3v9.1h5.8c2.9-3.9 3.7-4.3 4.2-4.3.6 0 1.2.5 4.4 3.3 1.4 1.2 1.9 2 1.9 2.5s-.4.8-1.3.8h-15V112zM411 54.1c-2.5 6.5-5.7 12.9-9.5 18.9 6.5-.3 12.9-.8 19.4-1.7-1.1-3.8-2.5-7.1-5-10.1-.3-.4.5-.9.8-.7 7.6 4.7 11.8 10.3 11.8 14.7 0 2.5-1.5 4.3-3.4 4.3-1.8 0-2.5-.9-3.2-4.5-.1-.6-.3-1.1-.4-1.7-8.3 2.7-16.1 4.6-25.4 6-.6 2-1.1 2.7-1.9 2.7-1 0-1.5-1.1-3.6-9.1 2.2.1 3.7.1 4.9.1 1.1 0 2.2-.1 3.3-.1 2-6.2 3.6-12.5 4.4-19h-2.9c-2 0-3.3.1-5.6.5l-.9-3.6c2.5.6 4.2.8 6.5.8h18.6c3.2-4.1 3.9-4.5 4.4-4.5.7 0 1.3.5 4.9 3.4 1.6 1.3 2 1.9 2 2.5 0 .8-.3 1-1.2 1h-18zm27.6 17.1c0 21 .5 31 .5 34.1 0 2.1-1.3 3-4 3-2.2 0-2.9-.8-2.9-2.6 0-2.2.4-9.6.4-28.3 0-14.9-.1-21-.5-23.6 8.6.9 9.4 1.2 9.4 2.5 0 .8-.6 1.4-2.9 2.4v12.5zm14.5 11.4c.1 25.3.4 33.3.4 37.8 0 3.6-1 5.2-3.1 6.5-1.6.9-3.5 1.6-5.2 1.6-1.5 0-2.1-.5-2.3-1.9-.4-2.7-1.8-4-9.4-5.7-.6-.1-.6-1.4 0-1.3 5.1.5 9.2.8 11.7.8 1.1 0 1.5-.4 1.5-1.6V60.7c0-10.6 0-12.4-.6-15.9 9 1.1 9.8 1.4 9.8 2.7 0 .8-.4 1.3-2.8 2.5v32.6zM523.5 79.8c2.3-2.5 2.6-2.8 3.3-2.8.7 0 1.1.3 3.7 2.4 1.3 1 1.7 1.7 1.7 2.3 0 .7-.5 1.2-2.4 2.5v1.9c0 4.8.3 6.7.3 7.3 0 1.9-1.2 2.6-3.7 2.6-1.7 0-2.4-.6-2.4-2.2v-1.3h-28.9v1.8c0 1.9-1 2.7-3.4 2.7-1.8 0-2.5-.7-2.5-2.3 0-1 .3-2.9.3-9.2 0-3.5-.1-5.5-.5-8.9 2.7 1 4 1.7 6.7 3.2h10.9v-6.5H497v.2c0 1.8-1.1 2.6-3.2 2.6-1.9 0-2.6-.7-2.6-2.3 0-1.2.2-3.7.3-9.8h-1.7c-1.7 0-2.9.2-5 .6l-.9-3.6c2.4.5 3.8.7 5.9.7h1.7v-.9c0-4.8 0-7.5-.3-11.4 2.7 1.1 3.9 1.8 6.5 3.4h9v-1c0-2.4-.2-4.6-.6-7.5 8.2.9 9.1 1.7 9.1 2.7 0 .7-.7 1.3-2.7 2.3v3.5h9.4c2.4-2.8 2.8-3.1 3.4-3.1.7 0 1.3.2 3.8 2.2 1.3 1 1.6 1.7 1.6 2.4 0 .6-.4 1-2.2 2.4v5.2h1c2.3-3.3 2.8-3.8 3.4-3.8.6 0 1.1.5 3.8 2.8 1 .9 1.4 1.7 1.4 2.5 0 .6-.3.8-1.2.8h-8.4c.1 4.9.3 8 .3 8.9 0 2-1.2 2.8-3.6 2.8-1.8 0-2.5-.7-2.5-2.3v-.2h-10.3v6.5h11.1zm-33.7 27.7c-.4 1.9-.8 2.8-1.8 2.8-.9 0-1.8-2.7-3.2-8.4 3.6.1 6.3.1 9.5 0 2 0 4.2-.1 6.4-.1l.9-2.3c1-2.4 1.7-4.5 2.1-6.4 7.4 1.8 8.2 2.2 8.2 3.3 0 .9-.8 1.2-3.4 1.8-.6 1.1-1 2.3-1.5 3.4 9.1-.4 18.9-.8 26.4-1.6.6-.1.9 1.2.3 1.3-3.9.8-8.1 1.6-12.7 2.4 4.4 1.7 5 2.2 5 2.9 0 .8-.8 1.2-2.9 1.5-1.5 3.1-3.3 6-5.6 8.6 5.2 1.8 8 4.1 8 6.6 0 1.8-1.2 3-2.7 3-1 0-1.4-.2-4.1-2.1-1.9-1.3-3.6-2.5-5.4-3.6-7.8 6.4-16.7 8.7-26.9 9.7-.8.1-.9-1.1-.3-1.3 9.3-2.2 16.8-5.6 22.5-10.9-2.7-1.2-5.6-2.4-8.6-3.2l-1.5 2.5c-.8 1.3-1.7 1.5-2.9 1.5-2 0-3.3-.8-3.3-1.9 0-.5.2-1.1.6-1.7 2-2.8 3.8-5.9 5.4-8.8l-8.5 1zM506.7 90v-7.8h-11.5V90h11.5zm0-28.4V55h-9.6v6.6h9.6zm0 9.3V64h-9.6v6.9h9.6zm11.3 33.3c-4.2.7-8.5 1.1-12.9 1.7-1.2 2.6-2.5 5.1-4 7.6 4.1.5 7.6 1 10.7 1.7 1.8-2 3.3-4.3 4.5-6.8.8-1.5 1.2-2.8 1.7-4.2zM512.4 55v6.6h10.3V55h-10.3zm10.3 15.9V64h-10.3v6.9h10.3zm-10.3 11.2V90H524v-7.8h-11.6zm51.7-13.7c-1.4 14.1-4.9 26.3-10.9 36.5 5.3 7.4 11.7 13 19.8 16.5.6.3.4.9-.2 1.1-1.7.5-2.7 1.6-3.7 4.9-.4 1.3-.9 1.8-1.4 1.8-.5 0-1.1-.4-2.5-1.4-5.7-4.2-11.1-10.7-15.3-17.8-6.2 8.8-14.6 15.7-25.3 20.6-.5.2-1.1-.8-.7-1.1 9.8-6.8 17.5-15.2 22.9-25.1-3.3-7.1-5.6-15.4-7.4-26.3-2.2 3.5-4.5 6.6-7.2 9.6-.4.4-1.3-.3-1-.8 4.8-8.2 8.6-19.7 10.9-31.6.8-4.4 1.1-7.5 1-10.6 8.6 1.9 10.4 2.5 10.4 3.6 0 1-.4 1.4-3.5 2.3-1.3 5.8-2.8 10.9-4.6 15.5h15c3.7-4.7 4.4-5.1 5-5.1.7 0 1.3.4 5.2 3.9 1.7 1.5 2.2 2.2 2.2 2.7s-.3.9-1.2.9h-7.5zm-19.5 0c-1 2.5-2.3 4.8-3.5 7 1.7 9 4.6 17 8.5 23.8 4.2-9.2 6.7-19.5 7.7-30.8h-12.7zM575.8 193.5c8.4-14.3 17.4-28.2 26.9-41.8 9.5-13.5 19.6-26.6 30.2-39.2 10.7-12.7 21.9-24.9 33.6-36.7 11.7-11.7 23.9-23 36.5-33.7 12.5-10.6 25.5-20.7 38.9-30.3l5.1-3.6c1.1-.8 1.6-2.2.9-3.4-.6-1.1-2.3-1.7-3.4-.9-13.8 9.6-27.1 19.8-40.1 30.5-12.8 10.6-25.2 21.8-37 33.5-11.9 11.7-23.3 23.9-34.2 36.6-10.9 12.7-21.2 25.8-31 39.4-9.7 13.5-18.9 27.4-27.5 41.7-1.1 1.8-2.1 3.6-3.2 5.4-1.7 2.8 2.7 5.3 4.3 2.5z"/>
</svg>
