<svg xmlns="http://www.w3.org/2000/svg" viewBox="0 0 295.7 68.8" style="enable-background:new 0 0 295.7 68.8" xml:space="preserve">
    <path d="M20.2 4.4h-7.5v25.5H8.1V0h12.1v4.4zM9.3 1.2v27.6h2.3V3.2h7.5v-2H9.3zM40.7 18.2c1.7 2.7 3.6 4.7 5.9 6.4 2.8 2.1 6.1 3.5 10 4.6.1 0 .1.3 0 .3-1.1.3-1.4.6-2 1.9-.1.4-.3.5-.6.5-.2 0-.7-.2-1.3-.5-2.5-1.3-4.9-2.9-6.9-4.9-1.9-2-3.5-4.1-5.1-7.2.2 8.2.3 11.8.3 13.3 0 .8-.5 1.2-1.6 1.2-.9 0-1.3-.3-1.3-1.1 0-1.4.1-4.7.3-11.3-4.3 5.3-8.9 8.3-15.1 10.6-.2.1-.3-.3-.2-.4 6.3-3.4 11.2-7.8 14.9-14.4V7.6H26.8c-.9 0-1.5.1-2.6.2l-.4-1.4c1.2.2 1.9.3 3 .3h11.3V5.1c0-2.6-.1-3.3-.2-4.6 3.3.4 4 .6 4 1 0 .3-.2.5-1.2 1v4.1h10c1.7-1.9 1.9-2.1 2.1-2.1.3 0 .5.2 2.3 1.5.8.6.9.9.9 1.1s-.1.3-.5.3H40.7v10.8zm-15.9 2.9c-.2.1-.5-.2-.4-.4 2.3-2.4 4.2-5.6 5.3-8.7.4-1.2.7-2.4.8-3.3 2.8.8 3.7 1.3 3.7 1.7s-.4.6-1.4.8c-.4 1-.9 1.9-1.4 2.8 3.2.9 4.9 2.3 4.9 3.7 0 .9-.5 1.5-1.2 1.5-.6 0-.8-.3-1.3-1.4-.6-1.3-1.5-2.3-2.7-3.2-1.8 2.7-3.9 4.9-6.3 6.5zm17.5-1.6c-.2.1-.5-.1-.4-.3 1.8-2.1 3.3-4.8 4.1-7.3.4-1.2.7-2.3.8-3.2 3 .9 3.7 1.2 3.7 1.7 0 .4-.4.7-1.4.8-.5 1.1-1 2.1-1.7 3 3.8 1.4 6.2 3.3 6.2 5.1 0 .9-.5 1.5-1.3 1.5-.6 0-1-.3-1.6-1.6-.9-1.8-2.1-3.2-3.7-4.4-1.2 1.7-2.8 3.3-4.7 4.7zM59 31.8c0-.7.3-1.1 1-1.5 1.3-.8 2.1-2 2.3-4 0-.2.4-.2.5 0 .6 3.9-.6 6.9-2.4 6.9-.8 0-1.4-.7-1.4-1.4zm10-17.5v3.9h2.3c1.2-1.4 1.5-1.5 1.7-1.5s.5.1 1.8 1.2c.5.4.7.6.7.9s-.1.4-.5.4h-6v3.6c2.2-.3 4.4-.6 6.3-1 .2 0 .3.4.1.4-3.6 1.5-8.1 2.6-14 3.4-.2.9-.3 1.1-.7 1.1-.3 0-.5-.4-1.3-3.4h2.1c1.5 0 3.3-.1 5.4-.4V19H63c-.8 0-1.3 0-2.3.2l-.4-1.3c1.1.2 1.8.3 2.7.3h3.9v-3.9h-3.8v.5c0 .7-.5.9-1.3.9-.7 0-1-.2-1-.8 0-.9.2-2.6.2-7.5 0-2.6 0-4-.2-5.7 1.1.5 1.6.6 2.6 1.3h9.1c.9-1 1-1.2 1.3-1.2.2 0 .4.1 1.4.9.5.4.6.6.6.8 0 .3-.1.5-.9 1.1v2.3c0 4.4.1 6.8.1 7.5 0 .6-.5.9-1.3.9-.6 0-.9-.2-.9-.8v-.3H69v.1zm-2.1-.9V3.9h-3.8v9.5h3.8zm-2.5-3c0-1.5-.2-3.1-.8-4.5 0-.1.2-.3.3-.2 1.5 1.4 2.2 3.3 2.2 4.5 0 .8-.4 1.4-.9 1.4s-.8-.4-.8-1.2zm.8 21.1c0-.6.1-1.7.1-2.3 0-.9-.1-1.9-.5-3 0-.2.3-.3.4-.2 1.6 1.7 2.3 3.5 2.3 4.8 0 1.2-.5 1.9-1.4 1.9-.5-.1-.9-.5-.9-1.2zm4.2-1.6c-.2-1.8-.5-2.8-1.4-4.4-.1-.1.2-.3.3-.2 2.3 1.5 3.3 3.1 3.3 4.4 0 1-.6 1.7-1.2 1.7-.7.1-1-.3-1-1.5zm3.4-22.7c-.1.1-.4.2-.8.3-.8 1.8-1.4 3-2.4 4.4-.1.1-.4 0-.3-.2.4-1.2.7-2.7.9-4.1.1-.6.2-1.3.2-1.9 1.4.6 2.1.8 2.3 1V3.9h-3.9v9.5h3.9l.1-6.2zm.5 21.7c-.3-1.5-.9-2.7-2-3.9-.1-.1.1-.3.3-.3 2.8 1.4 4 2.7 4 4.1 0 .8-.5 1.6-1.2 1.6-.6.1-.9-.3-1.1-1.5zm8.6-22.1c0-2.9 0-4.3-.2-5.9 3.6.4 4 .6 4 1 0 .3-.3.6-1.2 1v6.8h3.3c1.5-1.9 1.8-2.1 2-2.1.3 0 .5.2 2.1 1.6.6.6.8.8.8 1s-.1.3-.5.3h-7.7V19h3.4c1-1.2 1.2-1.4 1.4-1.4s.4.1 1.5 1.1c.6.5.7.8.7 1 0 .3-.1.5-.9 1v3c0 5.2.2 7.7.2 8.5s-.5 1.1-1.6 1.1c-.8 0-1.1-.3-1.1-.9v-1.7h-8.9v1.8c0 .7-.6 1-1.5 1-.8 0-1.1-.3-1.1-.9 0-1 .2-2.6.2-8.4 0-3 0-4.7-.1-6.7 1.3.5 1.8.8 3 1.5h2.2V6.8zm6.3 13.1h-8.9v9.9h8.9v-9.9zM104.5 9.1c1-1.1 1.2-1.3 1.4-1.3.3 0 .5.2 1.5 1.2.5.5.6.7.6.9 0 .3-.1.4-.9.8-.4 5.1-1.3 9-2.7 12.3 2.1 1.6 3.3 3.2 3.3 4.6 0 .8-.4 1.4-1.1 1.4s-1-.3-2-2.1c-.4-.7-.8-1.3-1.3-1.9-1.8 3-4.2 5.4-7.6 7.8-.2.1-.6-.3-.4-.4 3.1-3 5.2-5.8 6.6-9.1-.9-1-1.9-1.8-2.9-2.6-.2.6-.4 1.2-.5 1.7-.2.5-.5.7-1.2.7-1 0-1.4-.2-1.4-.7 0-.3.1-.5.3-1.2 1-2.5 2-6.6 2.8-11.1h-.6c-1 0-1.8.1-2.7.3L95.3 9c1 .2 1.9.3 3.1.3h.7c.2-1.1.4-2.2.5-3.3.3-1.9.4-3.5.5-5.1 3.1.6 3.5.8 3.5 1.1s-.2.5-1.2.9c-.3 2.2-.6 4.4-.9 6.4h3v-.2zm-2.9.9c-.6 3.4-1.3 6.8-2.3 10.1 1.2.5 2.3 1 3.3 1.7 1.2-3.2 1.8-6.9 2.2-11.7h-3.2V10zm8.2-2.7c0-1.5 0-2.5-.2-4.1 1.2.4 1.7.7 2.8 1.3 3.5-.8 6.1-1.8 8.2-2.8.9-.4 1.7-1 2.4-1.5 2.3 1.7 2.7 2.1 2.7 2.4s-.6.5-1.9.2c-1.7.7-3.5 1.3-5.5 1.7 1.9.2 2.3.4 2.3.6s-.1.4-.8.8c.1 1.3.3 2.3.5 3.3l3.5-.1c1.4-1.6 1.7-1.8 1.9-1.8.3 0 .5.1 2.2 1.5.4.3.5.5.5.7s-.1.3-.4.3l-7.4.2c.3.8.6 1.5 1.1 2.2.7 1.1 1.9 2.3 3.3 3.1.6.4 1 .6 1.3.6s.8-.5 1.8-3.1c0-.1.3 0 .3.1-.1 1.3-.4 2.8-.4 3 0 .4 0 .5.5 1 .3.3.4.5.4.8 0 .6-.5 1.2-1.3 1.2s-1.8-.4-2.9-.9c-2-1.1-4-3.1-5.4-5.5-.4-.8-.8-1.6-1-2.4l-5.9.1v5c2.2-.3 4.3-.7 7.1-1.3.2 0 .3.4.1.5-3.3 1.6-6.4 2.6-10.1 3.5-.2.8-.4 1-.6 1-.4 0-.6-.4-1.3-3.3.9 0 1.8 0 2.5-.1V7.3h-.3zm2.7 25.1c0 .8-.5 1.3-1.5 1.3-.8 0-1.1-.3-1.1-1s.1-2.2.1-6.9c0-3.5 0-5.5-.1-7.8 1.3.6 1.8.9 2.9 1.5h9c.9-1 1.1-1.2 1.3-1.2.3 0 .4.1 1.5 1 .5.4.6.7.6.9 0 .3-.1.4-.8.9V24c0 5.2.1 7.8.1 8.5s-.5 1.2-1.5 1.2c-.9 0-1.2-.4-1.2-1v-.9h-9.5v.6h.2zm5.3-23.1c-.3-.9-.4-1.9-.5-3.1-.1-.8-.1-1.2-.3-1.5-1.4.2-3 .4-4.8.5v4.2l5.6-.1zm4.3 11h-9.5v4.6h9.5v-4.6zm-9.6 10.6h9.5v-5.1h-9.5v5.1zM131.2 30.7c.9-1.9 1.5-4.3 1.9-6.5.2-1.2.3-2.5.3-3.6 2.3.6 3.3.9 3.3 1.3 0 .3-.3.5-1.1.7-1 3.4-1.8 5.7-3.9 8.3-.2.2-.7 0-.5-.2zm6.2-13.1c-1 .2-2.3.4-3.9.8-.3.8-.5 1-.7 1-.4 0-.6-.6-1.2-3.4.8.1 1.1.1 1.7.1h1.7c1.6-2 3.3-4.7 4.6-7.1.8-1.4 1.3-2.6 1.5-3.4 2.3 1 3.2 1.6 3.2 2 0 .3-.2.6-1.3.6-2.8 3.6-3.8 5-7 7.9 2-.1 4-.2 6-.4-.3-1-.7-2-1.4-2.9-.1-.1.1-.3.3-.2 2.3 1.2 3.8 3.1 3.8 4.8 0 .9-.5 1.7-1.3 1.7-.6 0-.9-.4-1.1-1.9 0-.2-.1-.5-.1-.7-.9.3-1.7.5-2.6.7V24c0 4 .1 7.5.1 8.6 0 .8-.5 1.1-1.5 1.1-.8 0-1.1-.3-1.1-.9 0-.6.2-3 .2-7.4v-7.8h.1zm-.1-7c0 .9-.5 1.6-1.3 1.6-.6 0-.8-.2-1.2-1.5-.5-1.5-1.1-2.7-2.5-4.1-.1-.1.1-.3.3-.3 1 .4 1.9.8 2.6 1.2.7-1.4 1.2-2.7 1.7-4 .3-1.1.6-2.1.6-3 2.8 1 3.5 1.4 3.5 1.8s-.1.5-1.3.6c-1.2 2-2 3.1-3.9 5 1 .9 1.5 1.8 1.5 2.7zm5.2 15.5c-.1-1.8-.6-3.7-1.4-5.1-.1-.1.2-.3.3-.2 2.3 1.7 3.6 3.9 3.6 5.8 0 .9-.6 1.8-1.4 1.8-.9-.1-1-.5-1.1-2.3zm-.4 6.5c6.9-2.3 13-7.3 16.1-13.7.6-1.2 1.1-2.3 1.4-3.4 2.6 1.1 3.5 1.6 3.5 2.1 0 .4-.4.6-1.5.7-4 8.3-10.7 13.1-19.4 15-.2 0-.4-.6-.1-.7zm2.4-13.5c1.1-2.2 2-5.4 2.6-8.6.2-1.3.4-2.6.4-3.7 2.8.7 3.8 1 3.8 1.5 0 .4-.4.7-1.3.8-1.1 4-2.4 7-5 10.3-.2.2-.6-.1-.5-.3zm10.9-8.4c0 5.5.1 7 .1 8.3 0 1.2-.4 1.9-1 2.4-.5.4-1.3.6-2.1.6-.4 0-.5-.1-.6-.6-.2-1.1-.9-1.7-3.4-2.1-.2 0-.2-.5 0-.5 1.7.2 3 .2 3.8.2.4 0 .6-.1.6-.6V6.3c0-3.2 0-3.7-.2-5.3 3.3.4 3.9.6 3.9 1 0 .3-.2.5-1.2.9l.1 7.8zm5.9 2.8c-.9-2.3-2.3-4.5-4-6-.1-.1.1-.4.3-.4 4.2 1.7 6.8 4.4 6.8 6.5 0 1-.5 1.8-1.3 1.8-.9 0-1.3-.4-1.8-1.9zM168.6 31.4c0-.9.5-1.4 1.7-1.8 1.8-.5 2.8-1.9 3.2-4 0-.2.5-.1.5.1.3 4.3-1.8 7.2-3.9 7.2-.9 0-1.5-.6-1.5-1.5zm3.6-8.4c0 .8-.5 1.1-1.5 1.1-.8 0-1.1-.3-1.1-.9 0-1.5.1-4 .1-12.7 0-4.5 0-6.8-.2-9 1.3.5 1.8.7 2.9 1.4h4.3c1-1.2 1.2-1.3 1.4-1.3.3 0 .5.1 1.5 1 .6.4.7.6.7.9s-.1.4-.9 1v4.7c0 8 .1 11.8.1 13 0 .9-.5 1.3-1.5 1.3-.8 0-1.1-.3-1.1-.9v-.8H172V23h.2zm4.9-19.1h-4.9v7.6h4.9V3.9zm0 8.5h-4.9v8.5h4.9v-8.5zm2 19c0-.5.1-1.1.1-2.1 0-1.4-.1-2.3-.5-3.7 0-.1.2-.2.3-.1 2.3 1.7 3.2 4.3 2.8 5.8-.2.8-.8 1.4-1.6 1.4s-1.1-.4-1.1-1.3zM190 3.7c-.8 5.5-3.9 8.6-9.5 10.2-.2.1-.4-.3-.3-.4 4.2-2.1 6.4-5 7.1-9.8h-3.2c-.9 0-1.5 0-2.4.3l-.4-1.4c1.1.1 1.8.2 2.8.2h11.6c1.1-1.2 1.3-1.3 1.5-1.3.3 0 .5.1 1.6 1.2.5.5.7.6.7.9 0 .2-.2.4-1 .9-.3 2.8-.6 4.7-1 5.8-.3.9-.8 1.5-1.4 1.9-.6.4-1.3.6-2 .6-.5 0-.7-.1-.8-.5-.1-1-.6-1.4-3-2-.2 0-.2-.5 0-.5 1.6.3 2.8.3 3.5.3.9 0 1.2-.4 1.5-1.6s.5-2.7.7-4.9h-6v.1zm-4.7 20.1c0 .7-.5 1.1-1.5 1.1-.8 0-1.1-.3-1.1-.8 0-.6.1-1.3.1-4.6 0-2.4 0-4.2-.1-6 1.2.5 1.8.7 3 1.4h9.1c1-1.1 1.3-1.2 1.5-1.2s.5.1 1.5 1c.5.4.6.6.6.9s-.1.4-.9.9v1.9c0 3.5.1 4.8.1 5.3 0 .8-.6 1.1-1.5 1.1-.8 0-1.1-.2-1.1-.9v-.6h-9.8l.1.5zm9.8-8.2h-9.8v6.6h9.8v-6.6zm-7.6 15.2c-.2-1.8-.8-3.7-1.6-4.9-.1-.1.1-.3.3-.3 2.5 1.3 4.1 3.5 4.1 5.3 0 1-.7 1.8-1.5 1.8-.9.1-1.2-.6-1.3-1.9zm8.6.2c-.5-1.9-1.7-3.9-3-5-.1-.1.1-.4.3-.4 3.5 1.3 5.7 3.4 5.7 5.4 0 .9-.6 1.7-1.4 1.7-.8 0-1.2-.4-1.6-1.7zM212 20c-2.2 2.8-4.9 5-8.3 6.8-.2.1-.5-.3-.3-.4 4.2-3.3 7.7-7.7 9.9-12.6h-6.7c-.9 0-1.5 0-2.5.2l-.4-1.3c1.2.2 1.9.3 2.9.3h7.1c.4-.9.7-1.8 1.2-3.4h-6.4c-.8 0-1.3.1-2.3.2l-.4-1.3c1 .2 1.7.3 2.6.3h6.7c.3-1.1.6-2.3.8-3.4-2.7.2-5.7.3-9.1.3-.3 0-.3-.6 0-.6 6.7-.6 12.5-1.5 16.6-2.7 2.1-.6 3.7-1.2 4.8-1.9 2.2 1.6 3 2.3 3 2.7 0 .2-.3.3-.6.3s-.8-.1-1.3-.3c-3.7 1-7.4 1.7-11.6 2.1 1.8.5 2.2.7 2.2 1 0 .4-.3.6-1.3.8l-.5 1.7h10.8c1.4-1.7 1.7-1.9 1.9-1.9.3 0 .5.2 2 1.4.6.5.8.8.8 1 0 .3-.1.4-.5.4h-15.4c-.4 1.2-.9 2.3-1.3 3.4H231c1.5-1.9 1.8-2 2-2 .3 0 .5.2 2.1 1.5.7.6.9.8.9 1s-.1.4-.5.4H216c-.6 1.2-1.2 2.3-1.9 3.5h13.4c1-1.2 1.3-1.4 1.5-1.4s.5.1 1.7 1.1c.6.5.7.7.7.9 0 .3-.1.5-1.1 1.1v3.4c0 6 .1 9 .1 9.9s-.5 1.3-1.5 1.3c-.8 0-1.1-.4-1.1-1.1v-.9h-13.1v.7c0 .9-.5 1.3-1.5 1.3-.8 0-1.2-.4-1.2-1.2 0-.9.1-2.5.1-8L212 20zm15.6-1.9h-13.1v3.5h13.1v-3.5zM214.5 26h13.1v-3.5h-13.1V26zm0 4.7h13.1v-3.8h-13.1v3.8zM248 20c-2.2 2.8-4.9 5-8.3 6.8-.2.1-.5-.3-.3-.4 4.2-3.3 7.7-7.7 9.9-12.6h-6.7c-.9 0-1.5 0-2.5.2l-.4-1.3c1.2.2 1.9.3 2.9.3h7.1c.4-.9.7-1.8 1.2-3.4h-6.4c-.8 0-1.3.1-2.3.2l-.4-1.3c1 .2 1.7.3 2.6.3h6.7c.3-1.1.6-2.3.8-3.4-2.7.2-5.7.3-9.1.3-.3 0-.3-.6 0-.6 6.7-.6 12.5-1.5 16.6-2.7 2.1-.6 3.7-1.2 4.8-1.9 2.2 1.6 3 2.3 3 2.7 0 .2-.3.3-.6.3s-.8-.1-1.3-.3c-3.7 1-7.4 1.7-11.6 2.1 1.8.5 2.2.7 2.2 1 0 .4-.3.6-1.3.8l-.5 1.7h10.8c1.4-1.7 1.7-1.9 1.9-1.9.3 0 .5.2 2 1.4.6.5.8.8.8 1 0 .3-.1.4-.5.4h-15.4c-.4 1.2-.9 2.3-1.3 3.4H267c1.5-1.9 1.8-2 2-2 .3 0 .5.2 2.1 1.5.7.6.9.8.9 1s-.1.4-.5.4H252c-.6 1.2-1.2 2.3-1.9 3.5h13.4c1-1.2 1.3-1.4 1.5-1.4s.5.1 1.7 1.1c.6.5.7.7.7.9 0 .3-.1.5-1.1 1.1v3.4c0 6 .1 9 .1 9.9s-.5 1.3-1.5 1.3c-.8 0-1.1-.4-1.1-1.1v-.9h-13.1v.7c0 .9-.5 1.3-1.5 1.3-.8 0-1.2-.4-1.2-1.2 0-.9.1-2.5.1-8L248 20zm15.6-1.9h-13.1v3.5h13.1v-3.5zM250.5 26h13.1v-3.5h-13.1V26zm0 4.7h13.1v-3.8h-13.1v3.8zM275.6 29.7h7.4V4.2h4.6v29.9h-12.1v-4.4h.1zm10.9 3.2V5.3h-2.3v25.5h-7.5v2.1h9.8zM0 62.8c.7.1 1.2.1 1.8.1h14.5c.9-1.1 1.1-1.2 1.2-1.2s.3.1 1.3.9c.4.4.5.5.5.6 0 .1-.1.2-.3.2H1.8c-.6 0-1 0-1.6.1l-.2-.7zm.1 4.6c1.8-.6 3.7-1.5 4.9-2.4.4-.3.8-.7 1-1 1.7.9 2 1.1 2 1.3 0 .3-.2.4-1.1.3-1.6 1-4.1 1.9-6.8 2.2-.1-.1-.1-.3 0-.4zm5.2-5.9c0 .5-.3.7-.9.7-.5 0-.7-.1-.7-.5 0-.6.1-1.8.1-5.2 0-1.8 0-2.6-.1-3.8.8.3 1.1.5 1.8.9h3.1v-2H2.3c-.5 0-.9 0-1.5.1l-.2-.8c.7 0 1.1.1 1.7.1h6.2v-.2c0-.9 0-1.5-.1-2.4 2.1.2 2.3.4 2.3.6 0 .2-.1.3-.7.5V51h5.7c.9-1.1 1-1.2 1.2-1.2.1 0 .3.1 1.3.9.4.3.5.5.5.6 0 .1-.1.2-.3.2H10v2h3.4c.7-.7.8-.7.9-.7s.3.1.9.6c.3.3.4.4.4.5 0 .1-.1.3-.5.6v1.7c0 3.1.1 4.6.1 5.1s-.3.7-1 .7c-.5 0-.7-.1-.7-.5v-.2H5.3v.2zm8.2-7.5H5.3v1.8h8.3V54zm-8.2 4.2h8.3v-1.8H5.3v1.8zm8.2.5H5.3v1.9h8.3v-1.9zm2.3 8.3c-1.2-1.1-3-2.1-4.9-2.6-.1 0-.1-.3 0-.3 4.3.3 6.7 1.4 6.7 2.7 0 .5-.3.8-.7.8-.3.1-.5 0-1.1-.6zM23.5 65.7c0 .5-.3.7-.9.7-.5 0-.6-.2-.6-.5 0-.9.1-2.2.1-7.7 0-3.1 0-4.6-.1-6.1.7.3 1.1.5 1.8.9h.5c.3-.8.5-1.7.6-2.5.1-.7.2-1.3.2-1.6 1.8.5 2.3.6 2.3.9 0 .2-.1.3-.8.5-.6 1.2-1 1.8-1.7 2.8h2.2c.7-.7.8-.8.9-.8.1 0 .3.1.9.6.3.3.4.4.4.5 0 .1-.1.3-.5.6v3.1c0 5.1.1 7.5.1 8.2 0 .5-.3.7-.9.7-.4 0-.6-.2-.6-.6v-.8h-3.6v1.1zm3.6-12.3h-3.6V58h3.6v-4.6zm-3.6 10.5h3.6v-5.4h-3.6v5.4zm14.1-11c.7-.8.8-.9.9-.9.1 0 .3.1 1 .8.3.3.4.4.4.6s-.1.2-.6.5c-.1 5.6-.5 8.4-1 10.5-.3 1.2-.7 2-1.2 2.4-.4.4-1 .6-1.6.6-.3 0-.5-.1-.5-.4-.1-.6-.4-.9-2.4-1.3-.1 0-.1-.3 0-.3 1.5.1 2.2.2 2.6.2 1 0 1.2-.4 1.5-1.7.6-1.9.9-5.1 1-10.5h-5.6c-.8 1.6-1.8 2.9-3 4-.1.1-.3-.1-.2-.2 1.2-1.6 2.2-4.2 2.8-6.4.2-.8.3-1.6.4-2.1 1.9.4 2.3.6 2.3.9 0 .2-.1.3-.8.5-.3 1-.7 2-1.2 2.9h5.2zM33.3 60c-.3-1.5-.8-2.6-1.8-3.6-.1-.1 0-.2.1-.2 2 .8 3.3 2.3 3.3 3.5 0 .6-.4 1.1-.9 1.1-.3.1-.6-.2-.7-.8zM42.3 67.1c2-1.2 4-3.3 5.1-5.2.3-.5.6-1.1.8-1.7 1.7.7 2.1 1 2.1 1.2 0 .2-.2.3-.9.4-1.7 2.6-3.8 4.3-7 5.5-.1.1-.2-.1-.1-.2zm4.3-8c0 .5-.3.8-1 .8-.5 0-.7-.2-.7-.6 0-.6.1-1.7.1-5.1 0-2.2 0-3.4-.1-4.8.8.3 1.2.5 1.9 1h9.5c.7-.8.8-.9.9-.9s.3.1 1 .7c.3.3.4.4.4.5 0 .2-.1.3-.6.6v7.8c0 .5-.3.7-1 .7-.5 0-.7-.2-.7-.6v-.7h-9.8v.6zm9.9-8.3h-9.8V58h9.8v-7.2zm.8 14.9c-.9-1.9-2.1-3.5-3.9-5-.1-.1.1-.3.2-.3 3.3 1.6 5.8 4.1 5.8 5.7 0 .6-.3 1-.8 1-.6.1-.7-.2-1.3-1.4zM67.8 57.4c-1.3 1.4-2.7 2.5-4.5 3.5-.1.1-.4-.2-.3-.3 2.6-2.1 4.9-4.9 6.2-8.1H65c-.5 0-1 0-1.6.1l-.2-.8c.7.1 1.2.2 1.8.2h4.6c.1-.3.2-.5.3-.8.3-.9.5-1.8.7-2.8 1.8.4 2.3.6 2.3.9 0 .2-.2.4-.8.5-.2.8-.5 1.5-.8 2.2H79c1-1.1 1.1-1.2 1.2-1.2.1 0 .3.1 1.3.9.5.4.6.5.6.7 0 .1-.1.2-.3.2H70.9c-.4 1-1 2-1.6 2.9l.2.1h7.2c.7-.7.8-.8.9-.8.1 0 .3.1 1 .7.3.3.4.4.4.6 0 .2-.1.3-.6.6v2.5c0 5.3.1 6 .1 6.8 0 .8-.2 1.1-.7 1.4-.3.2-.9.4-1.3.4-.2 0-.3-.1-.4-.4-.1-.6-.5-.9-2.2-1.3-.1 0-.1-.3 0-.3 1.2.1 1.9.1 2.6.1.3 0 .4-.1.4-.4v-3.1h-7.5v4.7c0 .5-.5.7-1 .7s-.7-.2-.7-.5c0-.5.1-2.5.1-5.2v-4.7zm9.1-1.4h-7.5v2.5h7.5V56zm-7.6 5.7h7.5V59h-7.5v2.7zM84.2 57.5c.8.1 1.4.2 2.1.2h13.2c1.2-1.4 1.4-1.5 1.5-1.5.1 0 .3.1 1.5 1.1.6.5.7.6.7.7s-.1.2-.3.2H86.3c-.7 0-1.2 0-1.9.1l-.2-.8zM104.8 66.6c0-.4.1-.7.6-.9.7-.4 1.2-1.2 1.3-2.4 0-.1.3-.1.3 0 .4 2.2-.4 4-1.4 4-.5.1-.8-.2-.8-.7zm5.8-10.2v2.2h1.4c.7-.8.9-.9 1-.9s.3.1 1 .7c.3.2.4.4.4.5 0 .2-.1.2-.3.2h-3.5v2.1c1.3-.1 2.5-.4 3.7-.6.1 0 .2.2.1.3-2.1.9-4.7 1.5-8.1 2-.1.5-.2.7-.4.7s-.3-.3-.7-2h1.2c.9 0 2-.1 3.1-.2v-2.2H107c-.5 0-.8 0-1.3.1l-.2-.8c.6.1 1 .1 1.6.1h2.3v-2.2h-2.2v.3c0 .4-.3.5-.8.5-.4 0-.6-.1-.6-.5 0-.5.1-1.5.1-4.4 0-1.5 0-2.3-.1-3.3.7.3.9.4 1.5.8h5.3c.5-.6.6-.7.8-.7.1 0 .3.1.8.5.3.2.4.3.4.5s-.1.3-.5.6V52c0 2.5.1 4 .1 4.3 0 .4-.3.5-.8.5-.4 0-.5-.1-.5-.4v-.2h-2.3zm-1.2-.5v-5.5h-2.2v5.5h2.2zm-1.5-1.7c0-.9-.1-1.8-.4-2.6 0-.1.1-.2.2-.1.8.8 1.3 1.9 1.3 2.6 0 .5-.3.8-.5.8-.5 0-.6-.3-.6-.7zm.5 12.3c0-.4.1-1 .1-1.4 0-.5-.1-1.1-.3-1.7 0-.1.2-.2.2-.1.9 1 1.3 2 1.3 2.8 0 .7-.3 1.1-.8 1.1-.3-.1-.5-.3-.5-.7zm2.4-.9c-.1-1-.3-1.6-.8-2.5 0-.1.1-.1.2-.1 1.3.9 1.9 1.8 1.9 2.6 0 .6-.3 1-.7 1-.4-.1-.6-.4-.6-1zm2-13.3c-.1.1-.2.1-.5.1-.5 1.1-.8 1.7-1.4 2.5 0 .1-.2 0-.2-.1.2-.7.4-1.6.5-2.4.1-.4.1-.7.1-1.1.8.3 1.2.5 1.4.6v-1.6h-2.3v5.5h2.3v-3.5zm.3 12.7c-.2-.9-.5-1.6-1.2-2.3-.1-.1.1-.2.1-.1 1.6.8 2.4 1.6 2.4 2.4 0 .5-.3.9-.7.9-.3 0-.5-.3-.6-.9zm5-13c0-1.7 0-2.5-.1-3.4 2.1.2 2.3.4 2.3.6 0 .2-.2.3-.7.6v4h2c.9-1.1 1-1.2 1.2-1.2.1 0 .3.1 1.2.9.4.3.5.5.5.6 0 .1-.1.2-.3.2h-4.5v4.9h2c.6-.7.7-.8.8-.8s.3.1.9.6c.3.3.4.4.4.6 0 .1-.1.3-.5.6V62c0 3 .1 4.5.1 5 0 .4-.3.7-.9.7-.5 0-.6-.2-.6-.5v-1h-5.2v1c0 .4-.3.6-.9.6-.4 0-.6-.2-.6-.5 0-.6.1-1.5.1-4.9 0-1.8 0-2.8-.1-3.9.8.3 1 .4 1.7.9h1.3V52zm3.7 7.7h-5.2v5.8h5.2v-5.8zM125.8 66.6c0-.4.1-.7.6-.9.7-.4 1.2-1.2 1.3-2.4 0-.1.3-.1.3 0 .4 2.2-.4 4-1.4 4-.5.1-.8-.2-.8-.7zm5.8-10.2v2.2h1.4c.7-.8.9-.9 1-.9s.3.1 1 .7c.3.2.4.4.4.5 0 .2-.1.2-.3.2h-3.5v2.1c1.3-.1 2.5-.4 3.7-.6.1 0 .2.2.1.3-2.1.9-4.7 1.5-8.1 2-.1.5-.2.7-.4.7s-.3-.3-.7-2h1.2c.9 0 2-.1 3.1-.2v-2.2H128c-.5 0-.8 0-1.3.1l-.2-.8c.6.1 1 .1 1.6.1h2.3v-2.2h-2.2v.3c0 .4-.3.5-.8.5-.4 0-.6-.1-.6-.5 0-.5.1-1.5.1-4.4 0-1.5 0-2.3-.1-3.3.7.3.9.4 1.5.8h5.3c.5-.6.6-.7.8-.7.1 0 .3.1.8.5.3.2.4.3.4.5s-.1.3-.5.6V52c0 2.5.1 4 .1 4.3 0 .4-.3.5-.8.5-.4 0-.5-.1-.5-.4v-.2h-2.3zm-1.2-.5v-5.5h-2.2v5.5h2.2zm-1.5-1.7c0-.9-.1-1.8-.4-2.6 0-.1.1-.2.2-.1.8.8 1.3 1.9 1.3 2.6 0 .5-.3.8-.5.8-.5 0-.6-.3-.6-.7zm.5 12.3c0-.4.1-1 .1-1.4 0-.5-.1-1.1-.3-1.7 0-.1.2-.2.2-.1.9 1 1.3 2 1.3 2.8 0 .7-.3 1.1-.8 1.1-.3-.1-.5-.3-.5-.7zm2.4-.9c-.1-1-.3-1.6-.8-2.5 0-.1.1-.1.2-.1 1.3.9 1.9 1.8 1.9 2.6 0 .6-.3 1-.7 1-.4-.1-.6-.4-.6-1zm2-13.3c-.1.1-.2.1-.5.1-.5 1.1-.8 1.7-1.4 2.5 0 .1-.2 0-.2-.1.2-.7.4-1.6.5-2.4.1-.4.1-.7.1-1.1.8.3 1.2.5 1.4.6v-1.6h-2.3v5.5h2.3v-3.5zm.3 12.7c-.2-.9-.5-1.6-1.2-2.3-.1-.1.1-.2.1-.1 1.6.8 2.4 1.6 2.4 2.4 0 .5-.3.9-.7.9-.3 0-.5-.3-.6-.9zm5-13c0-1.7 0-2.5-.1-3.4 2.1.2 2.3.4 2.3.6 0 .2-.2.3-.7.6v4h2c.9-1.1 1-1.2 1.2-1.2.1 0 .3.1 1.2.9.4.3.5.5.5.6 0 .1-.1.2-.3.2h-4.5v4.9h2c.6-.7.7-.8.8-.8s.3.1.9.6c.3.3.4.4.4.6 0 .1-.1.3-.5.6V62c0 3 .1 4.5.1 5 0 .4-.3.7-.9.7-.5 0-.6-.2-.6-.5v-1h-5.2v1c0 .4-.3.6-.9.6-.4 0-.6-.2-.6-.5 0-.6.1-1.5.1-4.9 0-1.8 0-2.8-.1-3.9.8.3 1 .4 1.7.9h1.3V52zm3.7 7.7h-5.2v5.8h5.2v-5.8zM150.2 64.8c0 1.6-.9 2.8-2.2 3.2-.1 0-.2.1-.3.1-.1 0-.1-.1-.1-.1 0-.1 0-.1.1-.2.9-.4 1.4-1.1 1.4-1.8 0-.4-.2-.5-.5-.5-.6 0-1.2-.4-1.2-1.2 0-.8.6-1.3 1.3-1.3.9-.1 1.5.7 1.5 1.8zM159.7 52.6c-.5 0-.8 0-1.4.1l-.2-.8c.7.1 1 .1 1.6.1h2.7v-.6c0-1.3 0-2.2-.1-2.9 2.1.2 2.4.4 2.4.6 0 .1-.1.3-.7.6V52h5.9v-.6c0-1.2 0-2.2-.1-2.9 2.1.2 2.4.4 2.4.6 0 .1-.1.3-.7.6V52h1.9c.9-1 1-1.1 1.2-1.1.1 0 .3.1 1.2.8.4.3.5.5.5.6 0 .1-.1.2-.3.2h-4.5v9.2h2.4c.9-1.1 1-1.2 1.2-1.2.1 0 .3.1 1.3.9.4.3.5.5.5.6 0 .1-.1.2-.3.2h-17.4c-.5 0-.8 0-1.4.1l-.2-.8c.7.1 1.1.1 1.6.1h3.3v-9.2h-2.8zm-1.8 15c1.6-.8 3.2-1.8 4.3-2.9.6-.6 1-1.1 1.3-1.6 1.7.8 2.2 1 2.2 1.2 0 .2-.3.4-1.1.3-1.6 1.5-3.5 2.6-6.5 3.3-.2 0-.4-.3-.2-.3zm11.9-15h-5.9v2.6h5.9v-2.6zm-5.9 5.7h5.9v-2.6h-5.9v2.6zm0 3.4h5.9v-3h-5.9v3zm9 5.2c-.9-1.2-2.4-2.4-4.3-3.3-.1-.1 0-.3.1-.3 3.9.7 6.1 2.2 6.1 3.5 0 .5-.3.9-.8.9-.3.1-.6-.2-1.1-.8zM182.3 58.9v8c0 .5-.3.7-.9.7-.4 0-.7-.1-.7-.6 0-.4.1-2 .1-6.9v-3.9c-.7 1-1.5 1.8-2.4 2.7-.1.1-.3-.1-.3-.2 1.6-2 3.3-5.4 4-8.2.2-.7.3-1.4.4-2 1.5.4 2.3.7 2.3 1 0 .2-.2.4-.8.5-.7 1.9-1.4 3.5-2.3 5 .9.2 1.1.3 1.1.5 0 .1-.1.3-.6.5v2.9zm7.4-3.3v-2.8c0-2.5 0-3.4-.1-4.2 2.1.3 2.2.3 2.2.6 0 .2-.1.3-.7.5v5.4l3.3-1.1c.6-.8.7-.9.9-.9.2 0 .4.1 1.1.7.2.2.3.4.3.5 0 .2-.1.3-.6.6-.1 2.8-.2 4.5-.4 5.5-.1.8-.4 1.2-.7 1.5-.3.3-.6.4-1 .4s-.5-.1-.5-.4c-.1-.5-.3-.8-1.7-1.2-.1 0-.1-.3 0-.3 1 .1 1.3.1 1.7.1.6 0 .8-.2.9-1.1.1-.9.2-2.5.3-5l-3.6 1.2c0 4.4.1 6.4.1 7.2 0 .5-.3.7-.9.7-.5 0-.7-.1-.7-.6 0-.7 0-2.5.1-6.8l-2.8.9v7.3c0 1.1.4 1.3 3.3 1.3 3.2 0 4.4-.1 4.9-.5.4-.3.7-.7 1.3-2.9 0-.1.3-.1.3 0 0 .7-.1 1.7-.1 2.1 0 .4.1.5.3.6.2.1.3.3.3.6 0 .5-.4.9-1.2 1.1-.9.3-2.5.4-6.1.4-3.4 0-4.5-.4-4.5-2.6 0-1 0-2.4.1-7l-.7.2c-.5.2-.7.3-1.2.6l-.5-.7c.7-.1 1-.2 1.5-.3l.8-.3v-1.4c0-2.6 0-3.5-.1-4.2 2.1.2 2.2.3 2.2.6 0 .2-.1.3-.7.5v4l2.9-.8zM204.8 53.4c.6-.7.7-.8.8-.8.1 0 .3.1.9.7.3.3.4.4.4.5 0 .2-.1.2-.5.5-.3 3-.7 5.3-1.6 7.2 1.2.9 2 1.9 2 2.7 0 .5-.3.8-.6.8-.4 0-.6-.1-1.2-1.2-.2-.4-.5-.8-.7-1.1-1 1.7-2.5 3.2-4.5 4.6-.1.1-.3-.1-.2-.3 1.8-1.7 3-3.4 3.9-5.3-.5-.6-1.1-1-1.7-1.5-.1.3-.2.7-.3 1-.1.3-.3.4-.7.4-.6 0-.8-.1-.8-.4 0-.2 0-.3.2-.7.6-1.4 1.2-3.8 1.6-6.4h-.3c-.6 0-1 0-1.6.1l-.2-.8c.6.1 1.1.2 1.8.2h.4c.1-.6.2-1.3.3-1.9.2-1.1.3-2.1.3-3 1.8.3 2 .4 2 .6 0 .2-.1.3-.7.5-.2 1.3-.3 2.5-.5 3.7h1.5zm-1.7.5c-.4 2-.8 3.9-1.4 5.9.7.3 1.3.6 1.9 1 .7-1.9 1-4 1.3-6.8h-1.8zm4.8-1.5c0-.9 0-1.4-.1-2.4.7.3 1 .4 1.6.8 2-.5 3.5-1.1 4.8-1.6.5-.3 1-.6 1.4-.9 1.3 1 1.6 1.2 1.6 1.4s-.4.3-1.1.1c-1 .4-2 .7-3.2 1 1.1.1 1.3.2 1.3.4s-.1.3-.5.5c.1.7.2 1.4.3 1.9l2-.1c.8-.9 1-1.1 1.1-1.1.1 0 .3.1 1.3.9.2.2.3.3.3.4 0 .1-.1.2-.2.2l-4.3.1c.2.5.4.9.6 1.3.4.7 1.1 1.3 1.9 1.8.4.2.6.4.7.4.1 0 .4-.3 1-1.8 0-.1.2 0 .2.1-.1.8-.2 1.6-.2 1.8 0 .2 0 .3.3.6.2.1.2.3.2.5 0 .4-.3.7-.8.7s-1.1-.2-1.7-.5c-1.2-.6-2.4-1.8-3.1-3.2-.3-.5-.5-.9-.6-1.4l-3.4.1V57c1.3-.2 2.5-.4 4.1-.8.1 0 .2.2.1.3-1.9.9-3.8 1.5-5.9 2-.1.5-.2.6-.4.6-.3 0-.3-.2-.8-2 .5 0 1 0 1.4-.1v-4.6zm1.6 14.6c0 .5-.3.7-.9.7-.5 0-.7-.2-.7-.6 0-.4.1-1.3.1-4.1 0-2.1 0-3.2-.1-4.6.7.3 1 .5 1.7.9h5.3c.5-.6.7-.7.8-.7.1 0 .3.1.9.6.3.3.4.4.4.5 0 .1-.1.2-.5.5v1.7c0 3 .1 4.5.1 5 0 .4-.3.7-.9.7-.5 0-.7-.2-.7-.6v-.5h-5.6v.5zm3-13.5c-.1-.5-.3-1.1-.3-1.8 0-.4-.1-.7-.1-.9-.8.1-1.8.2-2.8.3v2.5l3.2-.1zm2.5 6.4h-5.6v2.7h5.6v-2.7zm-5.5 6.2h5.6v-3h-5.6v3zM220.3 65.1c.8-2.1 1-3.9 1-7.4 0-.9 0-1.2-.1-2 1.5.2 2 .3 2 .6 0 .2-.1.3-.6.5 0 4.3-.5 6.2-2 8.4-.1.1-.3 0-.3-.1zM222 54c-.4 0-.8 0-1.3.1l-.2-.8c.6.1 1 .1 1.5.1h3.5c.8-.9.9-1 1-1 .1 0 .3.1 1.1.8.4.3.5.4.5.6s-.1.2-.4.2H225v6c0 3.3.1 6.1.1 6.9 0 .4-.3.7-.8.7s-.6-.2-.6-.5c0-.4.1-2 .1-5.2V54H222zm-.9-4.4c.7.1 1.1.1 1.6.1h2.3c.8-.9.9-1 1-1s.3.1 1 .7c.3.3.4.4.4.6 0 .1-.1.2-.3.2h-4.6c-.5 0-.8 0-1.4.1v-.7zm6.1 8.8c0 3.2.1 4.8.1 5.3 0 .4-.3.6-.8.6-.4 0-.5-.1-.5-.5 0-.3.1-1.6.1-4.6 0-2.4 0-2.8-.1-3.5 1.6.2 1.8.3 1.8.6 0 .2-.1.3-.6.5v1.6zm10.1 8.2c.8-1 1-1.1 1.1-1.1.1 0 .3.1 1.1.8.4.3.5.5.5.6 0 .1-.1.2-.3.2h-11.1c-.5 0-.9 0-1.5.1l-.2-.8c.7.1 1.1.1 1.7.1h5.5c.3-.7.6-1.3.8-1.8.2-.5.3-.8.3-1.2 1.4.5 1.8.7 1.8 1 0 .2-.2.3-.8.4-.7.7-1 1.2-1.6 1.6h2.7zm-9.5-8.9c.6.1 1 .1 1.6.1h8c.7-.8.9-.9 1-.9.1 0 .3.1 1.1.7.3.3.4.4.4.5 0 .1-.1.2-.3.2h-10.3c-.5 0-.8 0-1.4.1l-.1-.7zm3.7-6.9c0-.9 0-1.4-.1-2 1.6.2 1.8.4 1.8.5 0 .2-.1.3-.6.5V51h1.7v-.3c0-.9 0-1.4-.1-2 1.7.2 1.8.3 1.8.5s-.1.3-.6.5V51h1.6c.5-.7.6-.7.7-.7.1 0 .3.1.8.6.3.3.4.4.4.5 0 .1 0 .2-.5.6v1c0 2.1.1 3 .1 3.3 0 .4-.3.5-.8.5-.4 0-.5-.1-.5-.4h-7.5v.1c0 .5-.3.7-.8.7-.4 0-.6-.1-.6-.5s.1-1.1.1-3.5c0-1.3 0-2-.1-2.9.7.3.9.5 1.5.9h1.5v-.4zm-1 12.5c0 .5-.3.6-.8.6-.4 0-.6-.1-.6-.5 0-.3.1-.6.1-2.1 0-.9 0-1.4-.1-2.2.7.3 1 .4 1.6.8h5.7c.6-.6.7-.7.8-.7.1 0 .3.1.8.6.3.3.4.4.4.5s-.1.3-.6.5V63c0 .5-.3.6-.8.6-.4 0-.6-.1-.6-.5l-5.9.2zm-.7-11.8v1.8h1.6v-1.8h-1.6zm1.7 2.4h-1.6v2h1.6v-2zm-.4 11.7c-.1-.7-.3-1.3-.7-1.8 0-.1 0-.2.1-.1 1.2.5 2 1.2 2 1.9 0 .5-.4.8-.8.8s-.6-.2-.6-.8zm5.4-5.2h-6v2.2h6v-2.2zm-3.8-8.9v1.8h1.7v-1.8h-1.7zm1.7 4.4v-2h-1.7v2h1.7zm1.2-2.5h1.7v-1.8h-1.7v1.8zm1.7 2.5v-2h-1.7v2h1.7zM257.1 65.8c1.1-1.3 1.3-1.4 1.4-1.4s.3.1 1.4 1c.5.5.6.6.6.7s-.1.2-.3.2h-16.5c-.6 0-1.1 0-1.8.1l-.2-.8c.8.1 1.3.1 2 .1h5.8V53.2c0-2.2 0-3.5-.1-4.3 2.3.2 2.5.4 2.5.6 0 .2-.1.4-.8.6v6.3h4.2c1-1.3 1.2-1.4 1.3-1.4.1 0 .3.1 1.4 1 .5.4.6.5.6.7 0 .1-.1.2-.3.2h-7.2v8.8h6zM267.5 59.8c-1.3 1.6-2.9 2.9-4.8 4-.1.1-.3-.2-.2-.3 2.5-2 4.5-4.5 5.8-7.3h-3.9c-.5 0-.9 0-1.5.1l-.2-.8c.7.1 1.1.1 1.7.1h4.1c.2-.5.4-1.1.7-2h-3.7c-.5 0-.8 0-1.3.1l-.2-.8c.6.1 1 .1 1.5.1h3.9c.2-.7.3-1.3.4-2-1.6.1-3.3.2-5.3.2-.1 0-.2-.3 0-.4 3.9-.4 7.3-.9 9.7-1.6 1.2-.4 2.2-.7 2.8-1.1 1.3.9 1.7 1.3 1.7 1.6 0 .1-.1.2-.4.2-.2 0-.4 0-.7-.1-2.2.6-4.3 1-6.8 1.2 1 .3 1.3.4 1.3.6 0 .2-.2.3-.8.4l-.3 1h6.3c.8-1 1-1.1 1.1-1.1.2 0 .3.1 1.2.8.4.3.5.5.5.6 0 .1-.1.2-.3.2h-9c-.2.7-.5 1.3-.8 2h8.5c.9-1.1 1-1.2 1.2-1.2.1 0 .3.1 1.2.9.4.3.5.5.5.6s-.1.2-.3.2h-11.4c-.3.7-.7 1.4-1.1 2h7.8c.6-.7.7-.8.9-.8s.3.1 1 .6c.3.3.4.4.4.5 0 .2-.1.3-.6.6v2c0 3.5.1 5.3.1 5.8s-.3.8-.9.8c-.5 0-.7-.2-.7-.6v-.5H269v.4c0 .5-.3.8-.9.8-.5 0-.7-.2-.7-.7 0-.5.1-1.5.1-4.7v-2.4zm9.1-1.1H269v2h7.6v-2zm-7.6 4.5h7.6v-2H269v2zm0 2.8h7.6v-2.2H269V66zM286.8 57c0 .7-.6 1.3-1.3 1.3-.7 0-1.3-.6-1.3-1.3 0-.7.6-1.3 1.3-1.3.8.1 1.3.6 1.3 1.3zm0 7.5c0 .7-.6 1.3-1.3 1.3-.7 0-1.3-.6-1.3-1.3 0-.8.6-1.3 1.3-1.3.8 0 1.3.5 1.3 1.3zM293.4 52.5c.9 1.8 1.4 3.6 1.4 5.5s-.4 3.7-1.4 5.5c-.9 1.7-2.3 3.3-4 4.6-.1 0-.1.1-.2.1s-.1-.1-.1-.1c0-.1 0-.1.1-.2 2.8-2.9 4.2-6.1 4.2-9.9 0-3.7-1.3-7-4.2-9.9 0 0-.1-.1-.1-.2s0-.1.1-.1h.2c1.7 1.4 3.1 3 4 4.7z"/>
</svg>
