<!-- Generator: Adobe Illustrator 25.0.0, SVG Export Plug-In  -->
<svg version="1.1" xmlns="http://www.w3.org/2000/svg" xmlns:xlink="http://www.w3.org/1999/xlink" x="0px" y="0px" width="279.6px"
	 height="34.1px" viewBox="0 0 279.6 34.1" style="overflow:visible;enable-background:new 0 0 279.6 34.1;" xml:space="preserve">
<defs>
</defs>
<g>
	<path d="M12.1,4.4H4.6v25.5H0V0h12.1V4.4z M1.2,1.2v27.6h2.3V3.2h7.5V1.2H1.2z"/>
	<path d="M32.6,18.2c1.7,2.7,3.6,4.7,5.9,6.4c2.8,2.1,6.1,3.5,10,4.6c0.1,0,0.1,0.3,0,0.3c-1.1,0.3-1.4,0.6-2,1.9
		c-0.1,0.4-0.3,0.5-0.6,0.5c-0.2,0-0.7-0.2-1.3-0.5c-2.5-1.3-4.9-2.9-6.9-4.9c-1.9-2-3.5-4.1-5.1-7.2c0.2,8.2,0.3,11.8,0.3,13.3
		c0,0.8-0.5,1.2-1.6,1.2c-0.9,0-1.3-0.3-1.3-1.1c0-1.4,0.1-4.7,0.3-11.3C26,26.7,21.4,29.7,15.2,32c-0.2,0.1-0.3-0.3-0.2-0.4
		c6.3-3.4,11.2-7.8,14.9-14.4V7.6H18.7c-0.9,0-1.5,0.1-2.6,0.2l-0.4-1.4c1.2,0.2,1.9,0.3,3,0.3H30V5.1c0-2.6-0.1-3.3-0.2-4.6
		c3.3,0.4,4,0.6,4,1c0,0.3-0.2,0.5-1.2,1v4.1h10c1.7-1.9,1.9-2.1,2.1-2.1c0.3,0,0.5,0.2,2.3,1.5c0.8,0.6,0.9,0.9,0.9,1.1
		c0,0.2-0.1,0.3-0.5,0.3H32.6V18.2z M16.7,21.1c-0.2,0.1-0.5-0.2-0.4-0.4c2.3-2.4,4.2-5.6,5.3-8.7c0.4-1.2,0.7-2.4,0.8-3.3
		c2.8,0.8,3.7,1.3,3.7,1.7c0,0.4-0.4,0.6-1.4,0.8c-0.4,1-0.9,1.9-1.4,2.8c3.2,0.9,4.9,2.3,4.9,3.7c0,0.9-0.5,1.5-1.2,1.5
		c-0.6,0-0.8-0.3-1.3-1.4c-0.6-1.3-1.5-2.3-2.7-3.2C21.2,17.3,19.1,19.5,16.7,21.1z M34.2,19.5c-0.2,0.1-0.5-0.1-0.4-0.3
		c1.8-2.1,3.3-4.8,4.1-7.3c0.4-1.2,0.7-2.3,0.8-3.2c3,0.9,3.7,1.2,3.7,1.7c0,0.4-0.4,0.7-1.4,0.8c-0.5,1.1-1,2.1-1.7,3
		c3.8,1.4,6.2,3.3,6.2,5.1c0,0.9-0.5,1.5-1.3,1.5c-0.6,0-1-0.3-1.6-1.6c-0.9-1.8-2.1-3.2-3.7-4.4C37.7,16.5,36.1,18.1,34.2,19.5z"/>
	<path d="M50.9,31.8c0-0.7,0.3-1.1,1-1.5c1.3-0.8,2.1-2,2.3-4c0-0.2,0.4-0.2,0.5,0c0.6,3.9-0.6,6.9-2.4,6.9
		C51.5,33.2,50.9,32.5,50.9,31.8z M60.9,14.3v3.9h2.3c1.2-1.4,1.5-1.5,1.7-1.5s0.5,0.1,1.8,1.2c0.5,0.4,0.7,0.6,0.7,0.9
		c0,0.3-0.1,0.4-0.5,0.4h-6v3.6c2.2-0.3,4.4-0.6,6.3-1c0.2,0,0.3,0.4,0.1,0.4c-3.6,1.5-8.1,2.6-14,3.4c-0.2,0.9-0.3,1.1-0.7,1.1
		c-0.3,0-0.5-0.4-1.3-3.4c0.6,0,1,0,2.1,0c1.5,0,3.3-0.1,5.4-0.4V19h-3.9c-0.8,0-1.3,0-2.3,0.2l-0.4-1.3c1.1,0.2,1.8,0.3,2.7,0.3
		h3.9v-3.9H55v0.5c0,0.7-0.5,0.9-1.3,0.9c-0.7,0-1-0.2-1-0.8c0-0.9,0.2-2.6,0.2-7.5c0-2.6,0-4-0.2-5.7c1.1,0.5,1.6,0.6,2.6,1.3h9.1
		c0.9-1,1-1.2,1.3-1.2c0.2,0,0.4,0.1,1.4,0.9c0.5,0.4,0.6,0.6,0.6,0.8c0,0.3-0.1,0.5-0.9,1.1v2.3c0,4.4,0.1,6.8,0.1,7.5
		c0,0.6-0.5,0.9-1.3,0.9c-0.6,0-0.9-0.2-0.9-0.8v-0.3H60.9z M58.8,13.4V3.9H55v9.5H58.8z M56.3,10.4c0-1.5-0.2-3.1-0.8-4.5
		c0-0.1,0.2-0.3,0.3-0.2C57.3,7.1,58,9,58,10.2c0,0.8-0.4,1.4-0.9,1.4C56.6,11.6,56.3,11.2,56.3,10.4z M57.1,31.5
		c0-0.6,0.1-1.7,0.1-2.3c0-0.9-0.1-1.9-0.5-3c0-0.2,0.3-0.3,0.4-0.2c1.6,1.7,2.3,3.5,2.3,4.8c0,1.2-0.5,1.9-1.4,1.9
		C57.5,32.6,57.1,32.2,57.1,31.5z M61.3,29.9c-0.2-1.8-0.5-2.8-1.4-4.4c-0.1-0.1,0.2-0.3,0.3-0.2c2.3,1.5,3.3,3.1,3.3,4.4
		c0,1-0.6,1.7-1.2,1.7C61.6,31.5,61.3,31.1,61.3,29.9z M64.7,7.2c-0.1,0.1-0.4,0.2-0.8,0.3c-0.8,1.8-1.4,3-2.4,4.4
		c-0.1,0.1-0.4,0-0.3-0.2c0.4-1.2,0.7-2.7,0.9-4.1c0.1-0.6,0.2-1.3,0.2-1.9c1.4,0.6,2.1,0.8,2.3,1V3.9h-3.9v9.5h3.9V7.2z M65.2,28.9
		c-0.3-1.5-0.9-2.7-2-3.9c-0.1-0.1,0.1-0.3,0.3-0.3c2.8,1.4,4,2.7,4,4.1c0,0.8-0.5,1.6-1.2,1.6C65.7,30.5,65.4,30.1,65.2,28.9z
		 M73.8,6.8c0-2.9,0-4.3-0.2-5.9c3.6,0.4,4,0.6,4,1c0,0.3-0.3,0.6-1.2,1v6.8h3.3c1.5-1.9,1.8-2.1,2-2.1c0.3,0,0.5,0.2,2.1,1.6
		c0.6,0.6,0.8,0.8,0.8,1s-0.1,0.3-0.5,0.3h-7.7V19h3.4c1-1.2,1.2-1.4,1.4-1.4s0.4,0.1,1.5,1.1c0.6,0.5,0.7,0.8,0.7,1
		c0,0.3-0.1,0.5-0.9,1v3c0,5.2,0.2,7.7,0.2,8.5c0,0.8-0.5,1.1-1.6,1.1c-0.8,0-1.1-0.3-1.1-0.9v-1.7h-8.9v1.8c0,0.7-0.6,1-1.5,1
		c-0.8,0-1.1-0.3-1.1-0.9c0-1,0.2-2.6,0.2-8.4c0-3,0-4.7-0.1-6.7c1.3,0.5,1.8,0.8,3,1.5h2.2V6.8z M80.1,19.9h-8.9v9.9h8.9V19.9z"/>
	<path d="M96.4,9.1c1-1.1,1.2-1.3,1.4-1.3c0.3,0,0.5,0.2,1.5,1.2c0.5,0.5,0.6,0.7,0.6,0.9c0,0.3-0.1,0.4-0.9,0.8
		c-0.4,5.1-1.3,9-2.7,12.3c2.1,1.6,3.3,3.2,3.3,4.6c0,0.8-0.4,1.4-1.1,1.4c-0.7,0-1-0.3-2-2.1c-0.4-0.7-0.8-1.3-1.3-1.9
		c-1.8,3-4.2,5.4-7.6,7.8c-0.2,0.1-0.6-0.3-0.4-0.4c3.1-3,5.2-5.8,6.6-9.1c-0.9-1-1.9-1.8-2.9-2.6c-0.2,0.6-0.4,1.2-0.5,1.7
		c-0.2,0.5-0.5,0.7-1.2,0.7c-1,0-1.4-0.2-1.4-0.7c0-0.3,0.1-0.5,0.3-1.2c1-2.5,2-6.6,2.8-11.1h-0.6c-1,0-1.8,0.1-2.7,0.3l-0.4-1.4
		c1,0.2,1.9,0.3,3.1,0.3h0.7c0.2-1.1,0.4-2.2,0.5-3.3c0.3-1.9,0.4-3.5,0.5-5.1c3.1,0.6,3.5,0.8,3.5,1.1c0,0.3-0.2,0.5-1.2,0.9
		c-0.3,2.2-0.6,4.4-0.9,6.4H96.4z M93.5,10c-0.6,3.4-1.3,6.8-2.3,10.1c1.2,0.5,2.3,1,3.3,1.7c1.2-3.2,1.8-6.9,2.2-11.7H93.5z
		 M101.7,7.3c0-1.5,0-2.5-0.2-4.1c1.2,0.4,1.7,0.7,2.8,1.3c3.5-0.8,6.1-1.8,8.2-2.8c0.9-0.4,1.7-1,2.4-1.5c2.3,1.7,2.7,2.1,2.7,2.4
		c0,0.3-0.6,0.5-1.9,0.2c-1.7,0.7-3.5,1.3-5.5,1.7c1.9,0.2,2.3,0.4,2.3,0.6s-0.1,0.4-0.8,0.8c0.1,1.3,0.3,2.3,0.5,3.3l3.5-0.1
		c1.4-1.6,1.7-1.8,1.9-1.8c0.3,0,0.5,0.1,2.2,1.5c0.4,0.3,0.5,0.5,0.5,0.7c0,0.2-0.1,0.3-0.4,0.3l-7.4,0.2c0.3,0.8,0.6,1.5,1.1,2.2
		c0.7,1.1,1.9,2.3,3.3,3.1c0.6,0.4,1,0.6,1.3,0.6s0.8-0.5,1.8-3.1c0-0.1,0.3,0,0.3,0.1c-0.1,1.3-0.4,2.8-0.4,3c0,0.4,0,0.5,0.5,1
		c0.3,0.3,0.4,0.5,0.4,0.8c0,0.6-0.5,1.2-1.3,1.2c-0.8,0-1.8-0.4-2.9-0.9c-2-1.1-4-3.1-5.4-5.5c-0.4-0.8-0.8-1.6-1-2.4l-5.9,0.1v5
		c2.2-0.3,4.3-0.7,7.1-1.3c0.2,0,0.3,0.4,0.1,0.5c-3.3,1.6-6.4,2.6-10.1,3.5c-0.2,0.8-0.4,1-0.6,1c-0.4,0-0.6-0.4-1.3-3.3
		c0.9,0,1.8,0,2.5-0.1V7.3z M104.4,32.4c0,0.8-0.5,1.3-1.5,1.3c-0.8,0-1.1-0.3-1.1-1c0-0.7,0.1-2.2,0.1-6.9c0-3.5,0-5.5-0.1-7.8
		c1.3,0.6,1.8,0.9,2.9,1.5h9c0.9-1,1.1-1.2,1.3-1.2c0.3,0,0.4,0.1,1.5,1c0.5,0.4,0.6,0.7,0.6,0.9c0,0.3-0.1,0.4-0.8,0.9v2.9
		c0,5.2,0.1,7.8,0.1,8.5s-0.5,1.2-1.5,1.2c-0.9,0-1.2-0.4-1.2-1v-0.9h-9.5V32.4z M109.7,9.3c-0.3-0.9-0.4-1.9-0.5-3.1
		c-0.1-0.8-0.1-1.2-0.3-1.5c-1.4,0.2-3,0.4-4.8,0.5v4.2L109.7,9.3z M114,20.3h-9.5v4.6h9.5V20.3z M104.4,30.9h9.5v-5.1h-9.5V30.9z"
		/>
	<path d="M123.1,30.7c0.9-1.9,1.5-4.3,1.9-6.5c0.2-1.2,0.3-2.5,0.3-3.6c2.3,0.6,3.3,0.9,3.3,1.3c0,0.3-0.3,0.5-1.1,0.7
		c-1,3.4-1.8,5.7-3.9,8.3C123.4,31.1,122.9,30.9,123.1,30.7z M129.3,17.6c-1,0.2-2.3,0.4-3.9,0.8c-0.3,0.8-0.5,1-0.7,1
		c-0.4,0-0.6-0.6-1.2-3.4c0.8,0.1,1.1,0.1,1.7,0.1c0.5,0,1.1,0,1.7,0c1.6-2,3.3-4.7,4.6-7.1c0.8-1.4,1.3-2.6,1.5-3.4
		c2.3,1,3.2,1.6,3.2,2c0,0.3-0.2,0.6-1.3,0.6c-2.8,3.6-3.8,5-7,7.9c2-0.1,4-0.2,6-0.4c-0.3-1-0.7-2-1.4-2.9
		c-0.1-0.1,0.1-0.3,0.3-0.2c2.3,1.2,3.8,3.1,3.8,4.8c0,0.9-0.5,1.7-1.3,1.7c-0.6,0-0.9-0.4-1.1-1.9c0-0.2-0.1-0.5-0.1-0.7
		c-0.9,0.3-1.7,0.5-2.6,0.7v6.8c0,4,0.1,7.5,0.1,8.6c0,0.8-0.5,1.1-1.5,1.1c-0.8,0-1.1-0.3-1.1-0.9c0-0.6,0.2-3,0.2-7.4V17.6z
		 M129.2,10.6c0,0.9-0.5,1.6-1.3,1.6c-0.6,0-0.8-0.2-1.2-1.5c-0.5-1.5-1.1-2.7-2.5-4.1c-0.1-0.1,0.1-0.3,0.3-0.3
		c1,0.4,1.9,0.8,2.6,1.2c0.7-1.4,1.2-2.7,1.7-4c0.3-1.1,0.6-2.1,0.6-3c2.8,1,3.5,1.4,3.5,1.8c0,0.4-0.1,0.5-1.3,0.6
		c-1.2,2-2,3.1-3.9,5C128.7,8.8,129.2,9.7,129.2,10.6z M134.4,26.1c-0.1-1.8-0.6-3.7-1.4-5.1c-0.1-0.1,0.2-0.3,0.3-0.2
		c2.3,1.7,3.6,3.9,3.6,5.8c0,0.9-0.6,1.8-1.4,1.8C134.6,28.3,134.5,27.9,134.4,26.1z M134,32.6c6.9-2.3,13-7.3,16.1-13.7
		c0.6-1.2,1.1-2.3,1.4-3.4c2.6,1.1,3.5,1.6,3.5,2.1c0,0.4-0.4,0.6-1.5,0.7c-4,8.3-10.7,13.1-19.4,15C133.9,33.3,133.7,32.7,134,32.6
		z M136.4,19.1c1.1-2.2,2-5.4,2.6-8.6c0.2-1.3,0.4-2.6,0.4-3.7c2.8,0.7,3.8,1,3.8,1.5c0,0.4-0.4,0.7-1.3,0.8c-1.1,4-2.4,7-5,10.3
		C136.7,19.6,136.3,19.3,136.4,19.1z M147.3,10.7c0,5.5,0.1,7,0.1,8.3c0,1.2-0.4,1.9-1,2.4c-0.5,0.4-1.3,0.6-2.1,0.6
		c-0.4,0-0.5-0.1-0.6-0.6c-0.2-1.1-0.9-1.7-3.4-2.1c-0.2,0-0.2-0.5,0-0.5c1.7,0.2,3,0.2,3.8,0.2c0.4,0,0.6-0.1,0.6-0.6V6.3
		c0-3.2,0-3.7-0.2-5.3c3.3,0.4,3.9,0.6,3.9,1c0,0.3-0.2,0.5-1.2,0.9V10.7z M153.2,13.5c-0.9-2.3-2.3-4.5-4-6
		c-0.1-0.1,0.1-0.4,0.3-0.4c4.2,1.7,6.8,4.4,6.8,6.5c0,1-0.5,1.8-1.3,1.8C154.1,15.4,153.7,15,153.2,13.5z"/>
	<path d="M160.5,31.4c0-0.9,0.5-1.4,1.7-1.8c1.8-0.5,2.8-1.9,3.2-4c0-0.2,0.5-0.1,0.5,0.1c0.3,4.3-1.8,7.2-3.9,7.2
		C161.1,32.9,160.5,32.3,160.5,31.4z M164.1,23c0,0.8-0.5,1.1-1.5,1.1c-0.8,0-1.1-0.3-1.1-0.9c0-1.5,0.1-4,0.1-12.7
		c0-4.5,0-6.8-0.2-9c1.3,0.5,1.8,0.7,2.9,1.4h4.3c1-1.2,1.2-1.3,1.4-1.3c0.3,0,0.5,0.1,1.5,1c0.6,0.4,0.7,0.6,0.7,0.9
		s-0.1,0.4-0.9,1v4.7c0,8,0.1,11.8,0.1,13c0,0.9-0.5,1.3-1.5,1.3c-0.8,0-1.1-0.3-1.1-0.9v-0.8h-4.9V23z M169,3.9h-4.9v7.6h4.9V3.9z
		 M169,12.4h-4.9v8.5h4.9V12.4z M171,31.4c0-0.5,0.1-1.1,0.1-2.1c0-1.4-0.1-2.3-0.5-3.7c0-0.1,0.2-0.2,0.3-0.1
		c2.3,1.7,3.2,4.3,2.8,5.8c-0.2,0.8-0.8,1.4-1.6,1.4S171,32.3,171,31.4z M181.9,3.7c-0.8,5.5-3.9,8.6-9.5,10.2
		c-0.2,0.1-0.4-0.3-0.3-0.4c4.2-2.1,6.4-5,7.1-9.8H176c-0.9,0-1.5,0-2.4,0.3l-0.4-1.4c1.1,0.1,1.8,0.2,2.8,0.2h11.6
		c1.1-1.2,1.3-1.3,1.5-1.3c0.3,0,0.5,0.1,1.6,1.2c0.5,0.5,0.7,0.6,0.7,0.9c0,0.2-0.2,0.4-1,0.9c-0.3,2.8-0.6,4.7-1,5.8
		c-0.3,0.9-0.8,1.5-1.4,1.9c-0.6,0.4-1.3,0.6-2,0.6c-0.5,0-0.7-0.1-0.8-0.5c-0.1-1-0.6-1.4-3-2c-0.2,0-0.2-0.5,0-0.5
		c1.6,0.3,2.8,0.3,3.5,0.3c0.9,0,1.2-0.4,1.5-1.6c0.3-1.2,0.5-2.7,0.7-4.9H181.9z M177.2,23.8c0,0.7-0.5,1.1-1.5,1.1
		c-0.8,0-1.1-0.3-1.1-0.8c0-0.6,0.1-1.3,0.1-4.6c0-2.4,0-4.2-0.1-6c1.2,0.5,1.8,0.7,3,1.4h9.1c1-1.1,1.3-1.2,1.5-1.2
		c0.2,0,0.5,0.1,1.5,1c0.5,0.4,0.6,0.6,0.6,0.9s-0.1,0.4-0.9,0.9v1.9c0,3.5,0.1,4.8,0.1,5.3c0,0.8-0.6,1.1-1.5,1.1
		c-0.8,0-1.1-0.2-1.1-0.9v-0.6h-9.8V23.8z M187,15.6h-9.8v6.6h9.8V15.6z M179.4,30.8c-0.2-1.8-0.8-3.7-1.6-4.9
		c-0.1-0.1,0.1-0.3,0.3-0.3c2.5,1.3,4.1,3.5,4.1,5.3c0,1-0.7,1.8-1.5,1.8C179.8,32.8,179.5,32.1,179.4,30.8z M188,31
		c-0.5-1.9-1.7-3.9-3-5c-0.1-0.1,0.1-0.4,0.3-0.4c3.5,1.3,5.7,3.4,5.7,5.4c0,0.9-0.6,1.7-1.4,1.7C188.8,32.7,188.4,32.3,188,31z"/>
	<path d="M203.9,20c-2.2,2.8-4.9,5-8.3,6.8c-0.2,0.1-0.5-0.3-0.3-0.4c4.2-3.3,7.7-7.7,9.9-12.6h-6.7c-0.9,0-1.5,0-2.5,0.2l-0.4-1.3
		c1.2,0.2,1.9,0.3,2.9,0.3h7.1c0.4-0.9,0.7-1.8,1.2-3.4h-6.4c-0.8,0-1.3,0.1-2.3,0.2l-0.4-1.3c1,0.2,1.7,0.3,2.6,0.3h6.7
		c0.3-1.1,0.6-2.3,0.8-3.4c-2.7,0.2-5.7,0.3-9.1,0.3c-0.3,0-0.3-0.6,0-0.6c6.7-0.6,12.5-1.5,16.6-2.7c2.1-0.6,3.7-1.2,4.8-1.9
		c2.2,1.6,3,2.3,3,2.7c0,0.2-0.3,0.3-0.6,0.3c-0.3,0-0.8-0.1-1.3-0.3c-3.7,1-7.4,1.7-11.6,2.1c1.8,0.5,2.2,0.7,2.2,1
		c0,0.4-0.3,0.6-1.3,0.8l-0.5,1.7h10.8c1.4-1.7,1.7-1.9,1.9-1.9c0.3,0,0.5,0.2,2,1.4c0.6,0.5,0.8,0.8,0.8,1c0,0.3-0.1,0.4-0.5,0.4
		h-15.4c-0.4,1.2-0.9,2.3-1.3,3.4h14.6c1.5-1.9,1.8-2,2-2c0.3,0,0.5,0.2,2.1,1.5c0.7,0.6,0.9,0.8,0.9,1c0,0.2-0.1,0.4-0.5,0.4h-19.5
		c-0.6,1.2-1.2,2.3-1.9,3.5h13.4c1-1.2,1.3-1.4,1.5-1.4s0.5,0.1,1.7,1.1c0.6,0.5,0.7,0.7,0.7,0.9c0,0.3-0.1,0.5-1.1,1.1v3.4
		c0,6,0.1,9,0.1,9.9c0,0.9-0.5,1.3-1.5,1.3c-0.8,0-1.1-0.4-1.1-1.1v-0.9h-13.1v0.7c0,0.9-0.5,1.3-1.5,1.3c-0.8,0-1.2-0.4-1.2-1.2
		c0-0.9,0.1-2.5,0.1-8V20z M219.5,18.1h-13.1v3.5h13.1V18.1z M206.4,26h13.1v-3.5h-13.1V26z M206.4,30.7h13.1v-3.8h-13.1V30.7z"/>
	<path d="M239.9,20c-2.2,2.8-4.9,5-8.3,6.8c-0.2,0.1-0.5-0.3-0.3-0.4c4.2-3.3,7.7-7.7,9.9-12.6h-6.7c-0.9,0-1.5,0-2.5,0.2l-0.4-1.3
		c1.2,0.2,1.9,0.3,2.9,0.3h7.1c0.4-0.9,0.7-1.8,1.2-3.4h-6.4c-0.8,0-1.3,0.1-2.3,0.2l-0.4-1.3c1,0.2,1.7,0.3,2.6,0.3h6.7
		c0.3-1.1,0.6-2.3,0.8-3.4c-2.7,0.2-5.7,0.3-9.1,0.3c-0.3,0-0.3-0.6,0-0.6c6.7-0.6,12.5-1.5,16.6-2.7c2.1-0.6,3.7-1.2,4.8-1.9
		c2.2,1.6,3,2.3,3,2.7c0,0.2-0.3,0.3-0.6,0.3c-0.3,0-0.8-0.1-1.3-0.3c-3.7,1-7.4,1.7-11.6,2.1c1.8,0.5,2.2,0.7,2.2,1
		c0,0.4-0.3,0.6-1.3,0.8l-0.5,1.7h10.8c1.4-1.7,1.7-1.9,1.9-1.9c0.3,0,0.5,0.2,2,1.4c0.6,0.5,0.8,0.8,0.8,1c0,0.3-0.1,0.4-0.5,0.4
		h-15.4c-0.4,1.2-0.9,2.3-1.3,3.4h14.6c1.5-1.9,1.8-2,2-2c0.3,0,0.5,0.2,2.1,1.5c0.7,0.6,0.9,0.8,0.9,1c0,0.2-0.1,0.4-0.5,0.4h-19.5
		c-0.6,1.2-1.2,2.3-1.9,3.5h13.4c1-1.2,1.3-1.4,1.5-1.4s0.5,0.1,1.7,1.1c0.6,0.5,0.7,0.7,0.7,0.9c0,0.3-0.1,0.5-1.1,1.1v3.4
		c0,6,0.1,9,0.1,9.9c0,0.9-0.5,1.3-1.5,1.3c-0.8,0-1.1-0.4-1.1-1.1v-0.9h-13.1v0.7c0,0.9-0.5,1.3-1.5,1.3c-0.8,0-1.2-0.4-1.2-1.2
		c0-0.9,0.1-2.5,0.1-8V20z M255.5,18.1h-13.1v3.5h13.1V18.1z M242.4,26h13.1v-3.5h-13.1V26z M242.4,30.7h13.1v-3.8h-13.1V30.7z"/>
	<path d="M267.5,29.7h7.4V4.2h4.6v29.9h-12.1V29.7z M278.4,32.9V5.3h-2.3v25.5h-7.5v2.1H278.4z"/>
</g>
</svg>
